<svg viewBox="0 0 800 800" xmlns="http://www.w3.org/2000/svg"><path d="M241.50138177052463,286.70249987277475 L86.21093145266917,376.35948316636683 M86.21093254248427,365.0337916145918 L86.21093145266917,376.35948316636683 M86.21093254248427,365.0337916145918 L86.21063478200523,364.87887394018713 M86.21063478200523,364.87887394018713 L86.21045611832244,364.72388032029806 M86.21045611832244,364.72388032029806 L86.21039656153192,364.5688095770506 M241.8201307293608,275.10862264993244 L86.21039656153192,364.5688095770506 M241.50138177052463,286.70249987277475 L241.8201307293608,275.10862264993244 M687.9634907798344,723.7814080745761 L675.0978260264163,716.3534147165519 M521.6938343133135,829.6099080823694 L675.0978260264163,716.3534147165519 M521.6938343133135,829.6099080823694 L337.77576305914033,716.3538037114868 M326.91142363547067,723.7817989243038 L337.77576305914033,716.3538037114868 M266.85679548653934,686.6326320730161 L326.91142363547067,723.7817989243038 M277.733334068531,679.3798861509661 L266.85679548653934,686.6326320730161 M277.733334068531,679.3798861509661 L40.466443637672626,533.2717657082756 M29.574860779428718,539.8525011333888 L40.466443637672626,533.2717657082756 M-23.659522730324454,506.9222665089247 L29.574860779428718,539.8525011333888 M-12.771833788644301,500.48782085933163 L-23.659522730324454,506.9222665089247 M-12.771833788644301,500.48782085933163 L-58.7082291751874,472.2003494061837 M96.42222175190909,382.2549730592974 L-58.7082291751874,472.2003494061837 M96.42222175190909,382.2549730592974 L86.21093145266917,376.35948316636683 M840.2136139015809,610.7650014865126 L241.50138177052463,286.70249987277475 M687.9634907798344,723.7814080745761 L840.2136139015809,610.7650014865126 M170.74496516804567,333.34570197344215 L170.60169810735732,333.2827645893504 M170.60169810735732,333.2827645893504 L170.43668741647548,333.2408864393615 M170.43668741647548,333.2408864393615 L170.2595309798986,333.2224932738975 M170.2595309798986,333.2224932738975 L170.08052307080612,333.2286511332681 M170.08052307080612,333.2286511332681 L169.9100453104628,333.25901295645946 M169.9100453104628,333.25901295645946 L169.75801623172924,333.31180649988426 M169.75801623172924,333.31180649988426 L169.6332731306279,333.38396377775626 M169.6332731306279,333.38396377775626 L169.5430489457999,333.47130364496803 M169.5430489457999,333.47130364496803 L169.4925932210868,333.5687502676163 M169.4925932210868,333.5687502676163 L169.48485819526616,333.6706333396031 M169.48485819526616,333.6706333396031 L169.5202799348143,333.7710419579957 M169.5202799348143,333.7710419579957 L169.59680762127732,333.8641380376543 M169.59680762127732,333.8641380376543 L169.71000725795233,333.94450266284286 M169.71000725795233,333.94450266284286 L169.8532889631,334.0074707777355 M169.8532889631,334.0074707777355 L170.01833695239702,334.04937239618874 M170.01833695239702,334.04937239618874 L170.19554530340605,334.0677766800346 M170.19554530340605,334.0677766800346 L170.3746078498823,334.06161504322176 M170.3746078498823,334.06161504322176 L170.54513045775462,334.03123540610545 M170.54513045775462,334.03123540610545 L170.69718431660482,333.9784140985919 M170.69718431660482,333.9784140985919 L170.82192645513084,333.9062254671117 M170.82192645513084,333.9062254671117 L170.91212415508448,333.81885783553014 M170.91212415508448,333.81885783553014 L170.96253393851413,333.72139340030344 M170.96253393851413,333.72139340030344 L170.97021409495204,333.61950654889813 M170.97021409495204,333.61950654889813 L170.93474112366448,333.5191090492072 M170.93474112366448,333.5191090492072 L170.85817757984728,333.4260364402676 M170.85817757984728,333.4260364402676 L170.74496516804567,333.34570197344215 M759.5842252814848,662.2748084046643 L759.4085629232093,662.1958293890702 M759.4085629232093,662.1958293890702 L759.2136262054191,662.1432802220779 M759.2136262054191,662.1432802220779 L759.0107656772336,662.1202128014941 M759.0107656772336,662.1202128014941 L758.8117321348682,662.1279439306049 M758.8117321348682,662.1279439306049 L758.6280611931315,662.1660327757897 M758.6280611931315,662.1660327757897 L758.4704911323511,662.2322864681028 M758.4704911323511,662.2322864681028 L758.3481434185223,662.3228339918464 M758.3481434185223,662.3228339918464 L758.2681128448301,662.4324289846013 M758.2681128448301,662.4324289846013 L758.2350955601491,662.5547237780263 M758.2350955601491,662.5547237780263 L758.2509775891876,662.6825722236003 M758.2509775891876,662.6825722236003 L758.3148331396774,662.8085621892496 M758.3148331396774,662.8085621892496 L758.4229955807314,662.9253880764204 M758.4229955807314,662.9253880764204 L758.5691774142865,663.0262410625903 M758.5691774142865,663.0262410625903 L758.7448657296668,663.1052628777193 M758.7448657296668,663.1052628777193 L758.9398555893088,663.1578450346767 M758.9398555893088,663.1578450346767 L759.1428253087904,663.1809510157054 M759.1428253087904,663.1809510157054 L759.3419263920559,663.1732145737469 M759.3419263920559,663.1732145737469 L759.5256488114794,663.1351006935383 M759.5256488114794,663.1351006935383 L759.6832424673235,663.0688079682161 M759.6832424673235,663.0688079682161 L759.8055805072413,662.9782163688806 M759.8055805072413,662.9782163688806 L759.8855703525921,662.8685823476992 M759.8855703525921,662.8685823476992 L759.9185251683905,662.7462625119781 M759.9185251683905,662.7462625119781 L759.9025732664468,662.6184087543238 M759.9025732664468,662.6184087543238 L759.8386153854851,662.4924114870266 M759.8386153854851,662.4924114870266 L759.730414284966,662.3756185935292 M759.730414284966,662.3756185935292 L759.5842252814848,662.2748084046643 M96.44307207925374,370.91724620550065 L86.21093254248427,365.0337916145918 M96.44307207925374,370.91724620550065 L96.42222175190909,382.2549730592974 M96.44339264793666,370.45176894080674 L96.44316667351251,370.6070050783887 M96.44316667351251,370.6070050783887 L96.44305982137655,370.7621637735733 M96.44305982137655,370.7621637735733 L96.44307207925374,370.91724620550065 M86.21039656153192,364.5688095770506 L96.44339264793666,370.45176894080674 M676.4995860220102,703.9266364674777 L689.3993077837018,711.3426990054686 M689.3993077837018,711.3426990054686 L841.9481685980525,598.5165511997295 M841.9481685980525,598.5165511997295 L241.8201307293608,275.10862264993244 M96.44339264793666,370.45176894080674 L-59.026247331393506,460.2122074336871 M-59.026247331393506,460.2122074336871 L-12.991188108945323,488.44416143266466 M-12.991188108945323,488.44416143266466 L-23.90354601523103,494.86614892250924 M-23.90354601523103,494.86614892250924 L29.44764544230935,527.7336126267874 M29.44764544230935,527.7336126267874 L40.363923370675764,521.1652891632541 M40.363923370675764,521.1652891632541 L278.1839795965442,667.0133667112659 M278.1839795965442,667.0133667112659 L267.2828514618391,674.2540517751352 M267.2828514618391,674.2540517751352 L327.48596105039996,711.3426990054686 M327.48596105039996,711.3426990054686 L338.37480306497866,703.9266364674777 M338.37480306497866,703.9266364674777 L522.7685726790895,817.0099366602383 M676.4995860220102,703.9266364674777 L522.7685726790895,817.0099366602383 M171.6990076909375,321.19981248069706 L171.98265765898026,321.40015505763995 M171.98265765898026,321.40015505763995 L172.17456040130548,321.6322747683956 M172.17456040130548,321.6322747683956 L172.2635449544639,321.882694525622 M172.2635449544639,321.882694525622 L172.24441165814994,322.1368660030334 M172.24441165814994,322.1368660030334 L172.11823472842713,322.3800213788076 M172.11823472842713,322.3800213788076 L171.89234171289297,322.5980087101638 M171.89234171289297,322.5980087101638 L171.57982475819472,322.7781566954839 M171.57982475819472,322.7781566954839 L171.19886561761143,322.90996753624876 M171.19886561761143,322.90996753624876 L170.77159644860131,322.98577852744853 M170.77159644860131,322.98577852744853 L170.32289197121224,323.0011631723657 M170.32289197121224,323.0011631723657 L169.878848660335,322.9552301521241 M169.878848660335,322.9552301521241 L169.46530198093024,322.8506552712474 M169.46530198093024,322.8506552712474 L169.10630519050238,322.69352806431027 M169.10630519050238,322.69352806431027 L168.82273270190052,322.49299551538274 M168.82273270190052,322.49299551538274 L168.6310544712569,322.2607288487832 M168.6310544712569,322.2607288487832 L168.54239196029175,322.01023989171074 M168.54239196029175,322.01023989171074 L168.56186937820468,321.7560918907217 M168.56186937820468,321.7560918907217 L168.68833464504803,321.5130478291659 M168.68833464504803,321.5130478291659 L168.9143938944718,321.2952340008671 M168.9143938944718,321.2952340008671 L169.22691690352065,321.1152819687323 M169.22691690352065,321.1152819687323 L169.60772053155563,320.98364462894233 M169.60772053155563,320.98364462894233 L170.03470824203475,320.90794495527354 M170.03470824203475,320.90794495527354 L170.4830700572275,320.89258407027586 M170.4830700572275,320.89258407027586 L170.92678703212732,320.93844731975923 M170.92678703212732,320.93844731975923 L171.34010013652954,321.04287581450023 M171.34010013652954,321.04287581450023 L171.6990076909375,321.19981248069706 M761.922282433035,649.3746731454635 L762.2887662329617,649.6262084819366 M762.2887662329617,649.6262084819366 L762.5601162445712,649.9176141103067 M762.5601162445712,649.9176141103067 L762.720646190995,650.2320300175388 M762.720646190995,650.2320300175388 L762.7609246264874,650.5511529811199 M762.7609246264874,650.5511529811199 L762.6785867374674,650.8564530059773 M762.6785867374674,650.8564530059773 L762.4783905418567,651.130152868184 M762.4783905418567,651.130152868184 L762.1719413726989,651.3563482776594 M762.1719413726989,651.3563482776594 L761.7770632618008,651.5218555705587 M761.7770632618008,651.5218555705587 L761.3166832089632,651.6170431313365 M761.3166832089632,651.6170431313365 L760.8176159059965,651.636358601729 M760.8176159059965,651.636358601729 L760.3088701993927,651.5786706839722 M760.3088701993927,651.5786706839722 L759.8201189880572,651.4473787920322 M759.8201189880572,651.4473787920322 L759.3796912830228,651.2500726933995 M759.3796912830228,651.2500726933995 L759.0132935277875,650.9982925898701 M759.0132935277875,650.9982925898701 L758.742144998381,650.7066577321539 M758.742144998381,650.7066577321539 L758.5820409965756,650.3921669646572 M758.5820409965756,650.3921669646572 L758.5422013630346,650.0730772291731 M758.5422013630346,650.0730772291731 L758.6249315472476,649.7679338067958 M758.6249315472476,649.7679338067958 L758.8253836356901,649.49447803199 M758.8253836356901,649.49447803199 L759.1318936973,649.2685582945562 M759.1318936973,649.2685582945562 L759.5266237472924,649.1032950905985 M759.5266237472924,649.1032950905985 L759.9866806869616,649.0082641282363 M759.9866806869616,649.0082641282363 L760.4853238658795,648.9889818798761 M760.4853238658795,648.9889818798761 L760.9936004422493,649.0465491483342 M760.9936004422493,649.0465491483342 L761.4820590180532,649.1776576003306 M761.4820590180532,649.1776576003306 L761.922282433035,649.3746731454635 M840.2136139015809,610.7650014865126 L841.9481685980525,598.5165511997295 M689.3431405964574,711.8332997378441 L676.4447637623455,704.4167653828126 M689.3431405964574,711.8332997378441 L687.9634907798344,723.7814080745761 M676.4447637623455,704.4167653828126 L675.0978260264163,716.3534147165519 M676.4447637623455,704.4167653828126 L676.4629194793231,704.253484780832 M676.4629194793231,704.253484780832 L676.4811935157351,704.0901088898922 M676.4811935157351,704.0901088898922 L676.4995860220102,703.9266364674777 M521.6938343133135,829.6099080823694 L522.7685726790895,817.0099366602383 M337.77576305914033,716.3538037114868 L338.37480306497866,703.9266364674777 M326.91142363547067,723.7817989243038 L327.48596105039996,711.3426990054686 M266.85679548653934,686.6326320730161 L267.2828514618391,674.2540517751352 M277.733334068531,679.3798861509661 L278.1839795965442,667.0133667112659 M40.466443637672626,533.2717657082756 L40.363923370675764,521.1652891632541 M29.574860779428718,539.8525011333888 L29.44764544230935,527.7336126267874 M-23.659522730324454,506.9222665089247 L-23.90354601523103,494.86614892250924 M-12.771833788644301,500.48782085933163 L-12.991188108945323,488.44416143266466 M-58.7082291751874,472.2003494061837 L-59.026247331393506,460.2122074336871 M689.3993077837018,711.3426990054686 L689.3804670176362,711.506329146599 M689.3804670176362,711.506329146599 L689.3617446731639,711.669862309478 M689.3617446731639,711.669862309478 L689.3431405964574,711.8332997378441 M170.74496516804567,333.34570197344215 L170.9029273771783,322.8781810675528 M170.9029273771783,322.8781810675528 L171.01635599128008,322.9583577715671 M171.01635599128008,322.9583577715671 L171.09306800170697,323.051247613217 M171.09306800170697,323.051247613217 L171.12861308433958,323.15144797492064 M171.12861308433958,323.15144797492064 L171.12092448302985,323.253134777932 M171.12092448302985,323.253134777932 L171.0704261383779,323.3504078611415 M171.0704261383779,323.3504078611415 L170.9800649223356,323.4376039747758 M170.9800649223356,323.4376039747758 L170.85509381413357,323.5096508951918 M170.85509381413357,323.5096508951918 L170.70275880767713,323.5623685154809 M170.70275880767713,323.5623685154809 L170.5319192287473,323.5926885196688 M170.5319192287473,323.5926885196688 L170.35252235039803,323.59883806180835 M170.35252235039803,323.59883806180835 L170.1749817231418,323.5804699038741 M170.1749817231418,323.5804699038741 L170.0096228461107,323.53865053615493 M170.0096228461107,323.53865053615493 L169.86606974117257,323.4758060289522 M169.86606974117257,323.4758060289522 L169.75265394729706,323.3955991690075 M169.75265394729706,323.3955991690075 L169.67597792701957,323.3026858589464 M169.67597792701957,323.3026858589464 L169.64048426715044,323.2024743796344 M169.64048426715044,323.2024743796344 L169.64822794333355,323.10079135566997 M169.64822794333355,323.10079135566997 L169.6987724021668,323.0035360832874 M169.6987724021668,323.0035360832874 L169.78916020376573,322.916367731293 M169.78916020376573,322.916367731293 L169.91413227994963,322.84435216140247 M169.91413227994963,322.84435216140247 L170.0664424151829,322.79166230247205 M170.0664424151829,322.79166230247205 L170.23723697982956,322.7613601104576 M170.23723697982956,322.7613601104576 L170.41657901660727,322.7552143453889 M170.41657901660727,322.7552143453889 L170.5940675345728,322.7735713860345 M170.5940675345728,322.7735713860345 L170.75938897229912,322.8153672875968 M170.75938897229912,322.8153672875968 L170.9029273771783,322.8781810675528 M759.5842252814848,662.2748084046643 L760.9940685278184,651.2350657687441 M760.9940685278184,651.2350657687441 L761.1406100809006,651.3357231996592 M761.1406100809006,651.3357231996592 L761.2490915798874,651.4523391339042 M761.2490915798874,651.4523391339042 L761.3132414787497,651.5781455167655 M761.3132414787497,651.5781455167655 L761.3292857401368,651.7058055995572 M761.3292857401368,651.7058055995572 L761.2963183187619,651.8279401641564 M761.2963183187619,651.8279401641564 L761.2162115131689,651.9374081460646 M761.2162115131689,651.9374081460646 L761.0936590350332,652.0278625579933 M761.0936590350332,652.0278625579933 L760.9357658913425,652.0940549000063 M760.9357658913425,652.0940549000063 L760.7516762643979,652.1321110692445 M760.7516762643979,652.1321110692445 L760.5521617640243,652.1398357971411 M760.5521617640243,652.1398357971411 L760.3487563214283,652.1167648020619 M760.3487563214283,652.1167648020619 L760.1533338885542,652.0642622651555 M760.1533338885542,652.0642622651555 L759.9772412682096,651.9853601121756 M759.9772412682096,651.9853601121756 L759.8307068953598,651.8846598593072 M759.8307068953598,651.8846598593072 L759.7222642026832,651.7680109123869 M759.7222642026832,651.7680109123869 L759.6582169805185,651.6422117874329 M759.6582169805185,651.6422117874329 L759.6422428874162,651.514557019781 M759.6422428874162,651.514557019781 L759.6752730511196,651.3924475119 M759.6752730511196,651.3924475119 L759.7554207738119,651.2830185808962 M759.7554207738119,651.2830185808962 L759.8779829867558,651.1926082699435 M759.8779829867558,651.1926082699435 L760.0358524544799,651.12645498342 M760.0358524544799,651.12645498342 L760.2198903994818,651.088423863624 M760.2198903994818,651.088423863624 L760.4193370782557,651.0807044516348 M760.4193370782557,651.0807044516348 L760.6226329401409,651.103736912007 M760.6226329401409,651.103736912007 L760.8180019931513,651.1562064399484 M760.8180019931513,651.1562064399484 L760.9940685278184,651.2350657687441 M171.6990076909375,321.19981248069706 L171.68027236030116,322.4301342485871 M171.68027236030116,322.4301342485871 L171.96385878269894,322.63052337576596 M171.96385878269894,322.63052337576596 L172.15571786042824,322.8626970121985 M172.15571786042824,322.8626970121985 L172.24468117579278,323.1131749368158 M172.24468117579278,323.1131749368158 L172.22555031491652,323.3674054427461 M172.22555031491652,323.3674054427461 L172.09939936702608,323.61061727894065 M172.09939936702608,323.61061727894065 L171.87355437648267,323.8286552186352 M171.87355437648267,323.8286552186352 L171.56110470991467,324.0088450216705 M171.56110470991467,324.0088450216705 L171.1802282061176,324.1406864563503 M171.1802282061176,324.1406864563503 L170.75305221881416,324.21651504237053 M170.75305221881416,324.21651504237053 L170.3044460380184,324.231903257766 M170.3044460380184,324.231903257766 L169.86050041527426,324.1859595772463 M169.86050041527426,324.1859595772463 L169.4470451256886,324.08136042503986 M169.4470451256886,324.08136042503986 L169.08812810679245,323.92419674632043 M169.08812810679245,323.92419674632043 L168.80461913126817,323.72361764475306 M168.80461913126817,323.72361764475306 L168.61298446768086,323.49129705050615 M168.61298446768086,323.49129705050615 L168.52434305391222,323.240749925207 M168.52434305391222,323.240749925207 L168.54381788531504,322.98654289597266 M168.54381788531504,322.98654289597266 L168.67025704317018,322.74344237544165 M168.67025704317018,322.74344237544165 L168.89626819355425,322.5255779410569 M168.89626819355425,322.5255779410569 L169.2087239104922,322.34558409375086 M169.2087239104922,322.34558409375086 L169.58944496874045,322.2139161622983 M169.58944496874045,322.2139161622983 L170.01633962014608,322.13819889525433 M170.01633962014608,322.13819889525433 L170.46460328885843,322.12283444011797 M170.46460328885843,322.12283444011797 L170.90822271904563,322.1687083489111 M170.90822271904563,322.1687083489111 L171.32144453712766,322.27316111314394 M171.32144453712766,322.27316111314394 L171.68027236030116,322.4301342485871 M761.922282433035,649.3746731454635 L761.7563612647607,650.672586819481 M761.7563612647607,650.672586819481 L762.1227413975714,650.9241673159338 M762.1227413975714,650.9241673159338 L762.3940089224316,651.2156252497589 M762.3940089224316,651.2156252497589 L762.5544823367527,651.5300975773189 M762.5544823367527,651.5300975773189 L762.5947335150158,651.8492777896176 M762.5947335150158,651.8492777896176 L762.512399241949,652.1546325681031 M762.512399241949,652.1546325681031 L762.3122373421074,652.4283815038984 M762.3122373421074,652.4283815038984 L762.0058511678637,652.6546174604541 M762.0058511678637,652.6546174604541 L761.6110610898247,652.8201544164558 M761.6110610898247,652.8201544164558 L761.1507889946147,652.915359035261 M761.1507889946147,652.915359035261 L760.6518432797409,652.9346779668922 M760.6518432797409,652.9346779668922 L760.143225715801,652.8769797115615 M760.143225715801,652.8769797115615 L759.6546017168257,652.745664290348 M759.6546017168257,652.745664290348 L759.2142929144434,652.5483228265914 M759.2142929144434,652.5483228265914 L758.8479988074375,652.2964975849252 M758.8479988074375,652.2964975849252 L758.5769326681402,652.0048104313194 M758.5769326681402,652.0048104313194 L758.4168850033818,651.6902632540796 M758.4168850033818,651.6902632540796 L758.3770724097328,651.3711162676759 M758.3770724097328,651.3711162676759 L758.4597987768088,651.0659180812934 M758.4597987768088,651.0659180812934 L758.6602164305534,650.7924132167254 M758.6602164305534,650.7924132167254 L758.9666634523899,650.5664529139447 M758.9666634523899,650.5664529139447 L759.3613055290123,650.4011600307101 M759.3613055290123,650.4011600307101 L759.8212546612726,650.306111999944 M759.8212546612726,650.306111999944 L760.3197764586218,650.2868262881434 M760.3197764586218,650.2868262881434 L760.827925119198,650.344403896546 M760.827925119198,650.344403896546 L761.3162566464343,650.4755358955954 M761.3162566464343,650.4755358955954 L761.7563612647607,650.672586819481" stroke="black"  stroke-width="4"  fill="red"/>
<path d="M687.9634907798344,723.7814080745761 L523.8486276050567,845.605100058546 M687.9634907798344,723.7814080745761 L675.0978260264163,716.3534147165519 M510.8879607266716,837.5877666537824 L675.0978260264163,716.3534147165519 M523.8486276050567,845.605100058546 L510.8879607266716,837.5877666537824 M689.3431405964574,711.8332997378441 L687.9634907798344,723.7814080745761 M788.3250459362496,487.48061209315097 L783.060308636236,494.3949760453582 M783.060308636236,494.3949760453582 L777.8636378335984,501.4791362075844 M777.8636378335984,501.4791362075844 L772.7434709480535,508.7219533898264 M772.7434709480535,508.7219533898264 L767.708157592069,516.1119190409329 M767.708157592069,516.1119190409329 L762.7658853302535,523.6372784248831 M762.7658853302535,523.6372784248831 L757.9246988860355,531.2859928820224 M757.9246988860355,531.2859928820224 L753.1924647151484,539.0457606574721 M753.1924647151484,539.0457606574721 L748.5768481805342,546.9041156157009 M748.5768481805342,546.9041156157009 L744.0853214222855,554.8483709912186 M744.0853214222855,554.8483709912186 L739.72512082809,562.8656761213056 M739.72512082809,562.8656761213056 L735.5032321191482,570.9430922128672 M735.5032321191482,570.9430922128672 L731.4263940197848,579.0675505510765 M731.4263940197848,579.0675505510765 L727.5010687676179,587.225920583375 M727.5010687676179,587.225920583375 L723.7334323954176,595.4050262510975 M723.7334323954176,595.4050262510975 L720.1293611030374,603.5916844416877 M720.1293611030374,603.5916844416877 L716.6944203399278,611.7727416878347 M716.6944203399278,611.7727416878347 L713.4338533772013,619.9350737087175 M713.4338533772013,619.9350737087175 L710.3525700923751,628.0656510050437 M710.3525700923751,628.0656510050437 L707.4551462316603,636.1515215581821 M707.4551462316603,636.1515215581821 L704.7458002469439,644.1798990374532 M704.7458002469439,644.1798990374532 L702.228403373833,652.1381236356262 M702.228403373833,652.1381236356262 L699.9064620440591,660.0137458494698 M699.9064620440591,660.0137458494698 L697.7831213358847,667.7945012806842 M697.7831213358847,667.7945012806842 L695.8611547394023,675.468388315531 M695.8611547394023,675.468388315531 L694.1429691103547,683.0236343883241 M694.1429691103547,683.0236343883241 L692.6305971796379,690.4487683963685 M692.6305971796379,690.4487683963685 L691.3257020716792,697.732605076284 M691.3257020716792,697.732605076284 L690.2295752312959,704.8642903022903 M690.2295752312959,704.8642903022903 L689.3431405964574,711.8332997378441 M788.8277812281215,486.8332315500907 L788.8402485355359,486.89520947179625 M788.8402485355359,486.89520947179625 L788.8373794347854,486.9723955609746 M788.8373794347854,486.9723955609746 L788.8193464749154,487.06031508978003 M788.8193464749154,487.06031508978003 L788.7871947437445,487.15384216931517 M788.7871947437445,487.15384216931517 L788.7427982411391,487.24753701687206 M788.7427982411391,487.24753701687206 L788.6887317643386,487.33596583646056 M788.6887317643386,487.33596583646056 L788.6281376821248,487.41400513945774 M788.6281376821248,487.41400513945774 L788.5645347689399,487.4770909980815 M788.5645347689399,487.4770909980815 L788.5016266746795,487.52158377203216 M788.5016266746795,487.52158377203216 L788.4430556429197,487.5448838034269 M788.4430556429197,487.5448838034269 L788.3922405712567,487.5456222073371 M788.3922405712567,487.5456222073371 L788.3521225451573,487.5237825400949 M788.3521225451573,487.5237825400949 L788.3250459362496,487.48061209315097 M890.2725355562266,257.2770344917679 L889.0874162839186,264.9996143498094 M889.0874162839186,264.9996143498094 L887.7052384531778,272.82566132106956 M887.7052384531778,272.82566132106956 L886.1284586717047,280.7451203668629 M886.1284586717047,280.7451203668629 L884.3597395742966,288.7479165890906 M884.3597395742966,288.7479165890906 L882.4018847868817,296.82399019089206 M882.4018847868817,296.82399019089206 L880.2579341881174,304.9632041850642 M880.2579341881174,304.9632041850642 L877.9310374324805,313.15551983926514 M877.9310374324805,313.15551983926514 L875.4245751449741,321.39082655591835 M875.4245751449741,321.39082655591835 L872.7420680157416,329.65907320831764 M872.7420680157416,329.65907320831764 L869.8871862602584,337.9501934957275 M869.8871862602584,337.9501934957275 L866.8637602804129,346.2542273114615 M866.8637602804129,346.2542273114615 L863.675790635554,354.5611473792585 M863.675790635554,354.5611473792585 L860.3274068353969,362.8610548823483 M860.3274068353969,362.8610548823483 L856.822890701693,371.14401744076434 M856.822890701693,371.14401744076434 L853.1666550248929,379.4002311836181 M853.1666550248929,379.4002311836181 L849.3632695704284,387.6198965121902 M849.3632695704284,387.6198965121902 L845.4174008950347,395.79330955634714 M845.4174008950347,395.79330955634714 L841.3338897720225,403.91078125670674 M841.3338897720225,403.91078125670674 L837.1176577235897,411.9627714012931 M837.1176577235897,411.9627714012931 L832.7737891283182,419.9397275186648 M832.7737891283182,419.9397275186648 L828.3074582689546,427.8322827777089 M828.3074582689546,427.8322827777089 L823.7239686425039,435.63104812583 M823.7239686425039,435.63104812583 L819.028737880345,443.326809276177 M819.028737880345,443.326809276177 L814.2272947161241,450.91042630480075 M814.2272947161241,450.91042630480075 L809.3252694467299,458.37283492652745 M809.3252694467299,458.37283492652745 L804.3284157639582,465.70508392459936 M804.3284157639582,465.70508392459936 L799.2425730279845,472.89833775430577 M799.2425730279845,472.89833775430577 L794.0736807934086,479.94392001812713 M794.0736807934086,479.94392001812713 L788.8277812281215,486.8332315500907 M566.8228958921861,471.8605344377847 L890.2725355562266,257.2770344917679 M550.1789402407371,661.0568487610899 L566.8228958921861,471.8605344377847 M539.0431509755953,668.9006337293208 L550.1789402407371,661.0568487610899 M523.8486276050567,845.605100058546 L539.0431509755953,668.9006337293208 M689.3431405964574,711.8332997378441 L676.4447637623455,704.4167653828126 M676.4447637623455,704.4167653828126 L675.0978260264163,716.3534147165519 M510.8879607266716,837.5877666537824 L525.5948494446598,661.0568487610899 M536.736528404106,653.2530181717709 L525.5948494446598,661.0568487610899 M536.736528404106,653.2530181717709 L552.8556293318704,464.2765960882022 M876.5555245440546,250.7817095668991 L552.8556293318704,464.2765960882022 M876.5555245440546,250.7817095668991 L875.3914003808416,258.4940323101097 M875.3914003808416,258.4940323101097 L874.0299308337967,266.3092582903841 M874.0299308337967,266.3092582903841 L872.4735467488222,274.2173458565399 M872.4735467488222,274.2173458565399 L870.7248857843981,282.20823375908395 M870.7248857843981,282.20823375908395 L868.7867272896112,290.2718759254887 M868.7867272896112,290.2718759254887 L866.6620875689403,298.3981495224809 M866.6620875689403,298.3981495224809 L864.3540935748231,306.5770299285016 M864.3540935748231,306.5770299285016 L861.8661039356639,314.7984211082235 M861.8661039356639,314.7984211082235 L859.201618186999,323.052286611492 M859.201618186999,323.052286611492 L856.3642860215161,331.3285750403076 M856.3642860215161,331.3285750403076 L853.3579183667805,339.61734136311236 M853.3579183667805,339.61734136311236 L850.186496831773,347.90857375016486 M850.186496831773,347.90857375016486 L846.8541329899647,356.19238894694496 M846.8541329899647,356.19238894694496 L843.3650912925727,364.4588704755444 M843.3650912925727,364.4588704755444 L839.7237681677402,372.6982305359572 M839.7237681677402,372.6982305359572 L835.9347177051218,380.9006859682139 M835.9347177051218,380.9006859682139 L832.0025915686429,389.0565494913596 M832.0025915686429,389.0565494913596 L827.9322163950364,397.15614908831077 M827.9322163950364,397.15614908831077 L823.728500453019,405.18996169942227 M823.728500453019,405.18996169942227 L819.3965154829832,413.1484524963304 M819.3965154829832,413.1484524963304 L814.9414241353572,421.0222724433022 M814.9414241353572,421.0222724433022 L810.3685187325298,428.8020507338863 M810.3685187325298,428.8020507338863 L805.6832067526905,436.4785916010959 M805.6832067526905,436.4785916010959 L800.8910074580381,444.0427740083998 M800.8910074580381,444.0427740083998 L795.9975423174408,451.4855529185949 M795.9975423174408,451.4855529185949 L791.0085570086198,458.79799677606326 M791.0085570086198,458.79799677606326 L785.9298835702461,465.97129002243787 M785.9298835702461,465.97129002243787 L780.7674550938941,472.9967765982904 M780.7674550938941,472.9967765982904 L775.5273078773976,479.8658781164647 M775.0250842556,480.51133082037626 L775.0523779896132,480.5545451652356 M775.0523779896132,480.5545451652356 L775.0926856440597,480.57648222965196 M775.0926856440597,480.57648222965196 L775.1436518585174,480.57588900495153 M775.1436518585174,480.57588900495153 L775.2023267179798,480.55277354899187 M775.2023267179798,480.55277354899187 L775.2652852915573,480.50849396350594 M775.2652852915573,480.50849396350594 L775.3288824857257,480.4456375440894 M775.3288824857257,480.4456375440894 L775.3894148752131,480.3678305972956 M775.3894148752131,480.3678305972956 L775.4433673664255,480.27962353520854 M775.4433673664255,480.27962353520854 L775.4876041631464,480.186126973279 M775.4876041631464,480.186126973279 L775.5195597288105,480.0927632113342 M775.5195597288105,480.0927632113342 L775.5373714608356,480.00496252474267 M775.5373714608356,480.00496252474267 L775.5400071892609,479.9278438932573 M775.5400071892609,479.9278438932573 L775.5273078773976,479.8658781164647 M676.4447637623455,704.4167653828126 L677.3123526548766,697.4547497805825 M677.3123526548766,697.4547497805825 L678.3897455087861,690.3308432808299 M678.3897455087861,690.3308432808299 L679.6760465836229,683.055559766349 M679.6760465836229,683.055559766349 L681.1699927500765,675.6397412043575 M681.1699927500765,675.6397412043575 L682.8699493219002,668.094558989043 M682.8699493219002,668.094558989043 L684.7739120069153,660.4314686889415 M684.7739120069153,660.4314686889415 L686.8795024332945,652.6622256600303 M686.8795024332945,652.6622256600303 L689.1839754468972,644.7988127164665 M689.1839754468972,644.7988127164665 L691.6842142532637,636.8534738485323 M691.6842142532637,636.8534738485323 L694.3767404472208,628.8386366461998 M694.3767404472208,628.8386366461998 L697.257710632681,620.7669374943225 M697.257710632681,620.7669374943225 L700.3229338038356,612.6511379269289 M700.3229338038356,612.6511379269289 L703.5678613570781,604.5041637624427 M703.5678613570781,604.5041637624427 L706.9876100461762,596.3390170554133 M706.9876100461762,596.3390170554133 L710.57696277029,588.1687934185477 M710.57696277029,588.1687934185477 L714.3303796118935,580.0066165392022 M714.3303796118935,580.0066165392022 L718.2420092905566,571.8656387051412 M718.2420092905566,571.8656387051412 L722.3056999878609,563.7590041978146 M722.3056999878609,563.7590041978146 L726.5150128835489,555.6998109427291 M726.5150128835489,555.6998109427291 L730.863231837088,547.7010942533877 M730.863231837088,547.7010942533877 L735.3433927371236,539.7757589184623 M735.3433927371236,539.7757589184623 L739.9482799333014,531.9366209866753 M739.9482799333014,531.9366209866753 L744.6704409399431,524.1963321336357 M744.6704409399431,524.1963321336357 L749.5022288951684,516.5673231285627 M749.5022288951684,516.5673231285627 L754.4357948217878,509.06186005118747 M754.4357948217878,509.06186005118747 L759.4631101906116,501.69194574836337 M759.4631101906116,501.69194574836337 L764.5760023650944,494.46929915322465 M764.5760023650944,494.46929915322465 L769.7661354318616,487.40539296810346 M769.7661354318616,487.40539296810346 L775.0250842556,480.51133082037626 M525.5948494446598,661.0568487610899 L539.0431509755953,668.9006337293208 M788.3250459362496,487.48061209315097 L775.0250842556,480.51133082037626 M788.8277812281215,486.8332315500907 L775.5273078773976,479.8658781164647 M890.2725355562266,257.2770344917679 L876.5555245440546,250.7817095668991 M566.8228958921861,471.8605344377847 L552.8556293318704,464.2765960882022 M550.1789402407371,661.0568487610899 L536.736528404106,653.2530181717709" stroke="black"  stroke-width="4"  fill="red"/>
<path d="M759.5842252814848,662.2748084046643 L760.9940685278184,651.2350657687441 M760.9940685278184,651.2350657687441 L761.1406100809006,651.3357231996592 M761.1406100809006,651.3357231996592 L761.2490915798874,651.4523391339042 M761.2490915798874,651.4523391339042 L761.3132414787497,651.5781455167655 M761.3132414787497,651.5781455167655 L761.3292857401368,651.7058055995572 M761.3292857401368,651.7058055995572 L761.2963183187619,651.8279401641564 M761.2963183187619,651.8279401641564 L761.2162115131689,651.9374081460646 M761.2162115131689,651.9374081460646 L761.0936590350332,652.0278625579933 M761.0936590350332,652.0278625579933 L760.9357658913425,652.0940549000063 M760.9357658913425,652.0940549000063 L760.7516762643979,652.1321110692445 M760.7516762643979,652.1321110692445 L760.5521617640243,652.1398357971411 M760.5521617640243,652.1398357971411 L760.3487563214283,652.1167648020619 M760.3487563214283,652.1167648020619 L760.1533338885542,652.0642622651555 M760.1533338885542,652.0642622651555 L759.9772412682096,651.9853601121756 M759.9772412682096,651.9853601121756 L759.8307068953598,651.8846598593072 M759.8307068953598,651.8846598593072 L759.7222642026832,651.7680109123869 M759.7222642026832,651.7680109123869 L759.6582169805185,651.6422117874329 M759.6582169805185,651.6422117874329 L759.6422428874162,651.514557019781 M759.6422428874162,651.514557019781 L759.6752730511196,651.3924475119 M759.6752730511196,651.3924475119 L759.7554207738119,651.2830185808962 M759.7554207738119,651.2830185808962 L759.8779829867558,651.1926082699435 M759.8779829867558,651.1926082699435 L760.0358524544799,651.12645498342 M760.0358524544799,651.12645498342 L760.2198903994818,651.088423863624 M760.2198903994818,651.088423863624 L760.4193370782557,651.0807044516348 M760.4193370782557,651.0807044516348 L760.6226329401409,651.103736912007 M760.6226329401409,651.103736912007 L760.8180019931513,651.1562064399484 M760.8180019931513,651.1562064399484 L760.9940685278184,651.2350657687441 M759.5842252814848,662.2748084046643 L759.4085629232093,662.1958293890702 M759.4085629232093,662.1958293890702 L759.2136262054191,662.1432802220779 M759.2136262054191,662.1432802220779 L759.0107656772336,662.1202128014941 M759.0107656772336,662.1202128014941 L758.8117321348682,662.1279439306049 M758.8117321348682,662.1279439306049 L758.6280611931315,662.1660327757897 M758.6280611931315,662.1660327757897 L758.4704911323511,662.2322864681028 M758.4704911323511,662.2322864681028 L758.3481434185223,662.3228339918464 M758.3481434185223,662.3228339918464 L758.2681128448301,662.4324289846013 M758.2681128448301,662.4324289846013 L758.2350955601491,662.5547237780263 M758.2350955601491,662.5547237780263 L758.2509775891876,662.6825722236003 M758.2509775891876,662.6825722236003 L758.3148331396774,662.8085621892496 M758.3148331396774,662.8085621892496 L758.4229955807314,662.9253880764204 M758.4229955807314,662.9253880764204 L758.5691774142865,663.0262410625903 M758.5691774142865,663.0262410625903 L758.7448657296668,663.1052628777193 M758.7448657296668,663.1052628777193 L758.9398555893088,663.1578450346767 M758.9398555893088,663.1578450346767 L759.1428253087904,663.1809510157054 M759.1428253087904,663.1809510157054 L759.3419263920559,663.1732145737469 M759.3419263920559,663.1732145737469 L759.5256488114794,663.1351006935383 M759.5256488114794,663.1351006935383 L759.6832424673235,663.0688079682161 M759.6832424673235,663.0688079682161 L759.8055805072413,662.9782163688806 M759.8055805072413,662.9782163688806 L759.8855703525921,662.8685823476992 M759.8855703525921,662.8685823476992 L759.9185251683905,662.7462625119781 M759.9185251683905,662.7462625119781 L759.9025732664468,662.6184087543238 M759.9025732664468,662.6184087543238 L759.8386153854851,662.4924114870266 M759.8386153854851,662.4924114870266 L759.730414284966,662.3756185935292 M759.730414284966,662.3756185935292 L759.5842252814848,662.2748084046643 M761.7563612647607,650.672586819481 L762.1227413975714,650.9241673159338 M762.1227413975714,650.9241673159338 L762.3940089224316,651.2156252497589 M762.3940089224316,651.2156252497589 L762.5544823367527,651.5300975773189 M762.5544823367527,651.5300975773189 L762.5947335150158,651.8492777896176 M762.5947335150158,651.8492777896176 L762.512399241949,652.1546325681031 M762.512399241949,652.1546325681031 L762.3122373421074,652.4283815038984 M762.3122373421074,652.4283815038984 L762.0058511678637,652.6546174604541 M762.0058511678637,652.6546174604541 L761.6110610898247,652.8201544164558 M761.6110610898247,652.8201544164558 L761.1507889946147,652.915359035261 M761.1507889946147,652.915359035261 L760.6518432797409,652.9346779668922 M760.6518432797409,652.9346779668922 L760.143225715801,652.8769797115615 M760.143225715801,652.8769797115615 L759.6546017168257,652.745664290348 M759.6546017168257,652.745664290348 L759.2142929144434,652.5483228265914 M759.2142929144434,652.5483228265914 L758.8479988074375,652.2964975849252 M758.8479988074375,652.2964975849252 L758.5769326681402,652.0048104313194 M758.5769326681402,652.0048104313194 L758.4168850033818,651.6902632540796 M758.4168850033818,651.6902632540796 L758.3770724097328,651.3711162676759 M758.3770724097328,651.3711162676759 L758.4597987768088,651.0659180812934 M758.4597987768088,651.0659180812934 L758.6602164305534,650.7924132167254 M758.6602164305534,650.7924132167254 L758.9666634523899,650.5664529139447 M758.9666634523899,650.5664529139447 L759.3613055290123,650.4011600307101 M759.3613055290123,650.4011600307101 L759.8212546612726,650.306111999944 M759.8212546612726,650.306111999944 L760.3197764586218,650.2868262881434 M760.3197764586218,650.2868262881434 L760.827925119198,650.344403896546 M760.827925119198,650.344403896546 L761.3162566464343,650.4755358955954 M761.3162566464343,650.4755358955954 L761.7563612647607,650.672586819481 M761.922282433035,649.3746731454635 L762.2887662329617,649.6262084819366 M762.2887662329617,649.6262084819366 L762.5601162445712,649.9176141103067 M762.5601162445712,649.9176141103067 L762.720646190995,650.2320300175388 M762.720646190995,650.2320300175388 L762.7609246264874,650.5511529811199 M762.7609246264874,650.5511529811199 L762.6785867374674,650.8564530059773 M762.6785867374674,650.8564530059773 L762.4783905418567,651.130152868184 M762.4783905418567,651.130152868184 L762.1719413726989,651.3563482776594 M762.1719413726989,651.3563482776594 L761.7770632618008,651.5218555705587 M761.7770632618008,651.5218555705587 L761.3166832089632,651.6170431313365 M761.3166832089632,651.6170431313365 L760.8176159059965,651.636358601729 M760.8176159059965,651.636358601729 L760.3088701993927,651.5786706839722 M760.3088701993927,651.5786706839722 L759.8201189880572,651.4473787920322 M759.8201189880572,651.4473787920322 L759.3796912830228,651.2500726933995 M759.3796912830228,651.2500726933995 L759.0132935277875,650.9982925898701 M759.0132935277875,650.9982925898701 L758.742144998381,650.7066577321539 M758.742144998381,650.7066577321539 L758.5820409965756,650.3921669646572 M758.5820409965756,650.3921669646572 L758.5422013630346,650.0730772291731 M758.5422013630346,650.0730772291731 L758.6249315472476,649.7679338067958 M758.6249315472476,649.7679338067958 L758.8253836356901,649.49447803199 M758.8253836356901,649.49447803199 L759.1318936973,649.2685582945562 M759.1318936973,649.2685582945562 L759.5266237472924,649.1032950905985 M759.5266237472924,649.1032950905985 L759.9866806869616,649.0082641282363 M759.9866806869616,649.0082641282363 L760.4853238658795,648.9889818798761 M760.4853238658795,648.9889818798761 L760.9936004422493,649.0465491483342 M760.9936004422493,649.0465491483342 L761.4820590180532,649.1776576003306 M761.4820590180532,649.1776576003306 L761.922282433035,649.3746731454635 M761.922282433035,649.3746731454635 L761.7563612647607,650.672586819481" stroke="black"  stroke-width="4"  fill="red"/>
<path d="M96.42222175190909,382.2549730592974 L-69.59041725290092,478.5098940267141 M96.42222175190909,382.2549730592974 L86.21093145266917,376.35948316636683 M-79.79031176532231,472.20034562408676 L86.21093145266917,376.35948316636683 M-69.59041725290092,478.5098940267141 L-79.79031176532231,472.20034562408676 M-69.59041725290092,478.5098940267141 L-74.36971938554211,311.124698917771 M-74.36971938554211,311.124698917771 L-63.14368035916192,304.99977463425995 M-63.14368035916192,304.99977463425995 L-67.85921102266207,127.24120970167257 M-67.85921102266207,127.24120970167257 L261.4586858759491,-40.48100239444415 M261.4586858759491,-40.48100239444415 L261.14505515890744,-33.271837392867724 M261.14505515890744,-33.271837392867724 L260.62527734695243,-25.983394589559566 M260.62527734695243,-25.983394589559566 L259.90070098598665,-18.62507091405871 M259.90070098598665,-18.62507091405871 L258.97291055866344,-11.206272201398235 M258.97291055866344,-11.206272201398235 L257.84365888254774,-3.736386164882049 M257.84365888254774,-3.736386164882049 L256.51496148661556,3.7751409561274727 M256.51496148661556,3.7751409561274727 L254.98897873888427,11.31895845474105 M254.98897873888427,11.31895845474105 L253.26812889067594,18.885663378744994 M253.26812889067594,18.885663378744994 L251.35500398181773,26.465916553674276 M251.35500398181773,26.465916553674276 L249.25237070692037,34.05037347262953 M249.25237070692037,34.05037347262953 L246.96319809685792,41.62980205612632 M246.96319809685792,41.62980205612632 L244.49064601721818,49.1949195742194 M244.49064601721818,49.1949195742194 L241.838044600207,56.736575511991134 M241.838044600207,56.736575511991134 L239.00889906070358,64.24560071371428 M239.00889906070358,64.24560071371428 L236.00688679028747,71.71296055708478 M236.00688679028747,71.71296055708478 L232.83586995138717,79.12964039804831 M232.83586995138717,79.12964039804831 L229.49984001558914,86.48672706963589 M229.49984001558914,86.48672706963589 L226.0029932114452,93.7753413605609 M226.0029932114452,93.7753413605609 L222.3496434060295,100.98675643418835 M222.3496434060295,100.98675643418835 L218.54429229139942,108.11225426484503 M218.54429229139942,108.11225426484503 L214.59157331292238,115.14330733700285 M214.59157331292238,115.14330733700285 L210.4962680730274,122.07138550981978 M210.4962680730274,122.07138550981978 L206.26331450971293,128.88814341373688 M206.26331450971293,128.88814341373688 L201.89778998153793,135.5853251005745 M201.89778998153793,135.5853251005745 L197.404900253777,142.1547650226007 M197.404900253777,142.1547650226007 L192.79000802046323,148.58842716812302 M192.79000802046323,148.58842716812302 L188.05859062182537,154.87840402711788 M188.05859062182537,154.87840402711788 L183.21626114061064,161.01696062090102 M183.21626114061064,161.01696062090102 L178.2687598676282,166.9964571938066 M178.2687598676282,166.9964571938066 L178.29057179997443,167.0571936851978 M178.29057179997443,167.0571936851978 L178.29728754571033,167.13069211959066 M178.29728754571033,167.13069211959066 L178.28852459123726,167.21269226150082 M178.28852459123726,167.21269226150082 L178.2647868094311,167.29841252245814 M178.2647868094311,167.29841252245814 L178.22745926045638,167.3828675193156 M178.22745926045638,167.3828675193156 L178.17870683042827,167.46115917748804 M178.17870683042827,167.46115917748804 L178.1213651770109,167.52875236007947 M178.1213651770109,167.52875236007947 L178.0587601911626,167.58169106974822 M178.0587601911626,167.58169106974822 L177.99454186579317,167.6169250526587 M177.99454186579317,167.6169250526587 L177.93242534846678,167.63239179188477 M177.93242534846678,167.63239179188477 L177.8760353924573,167.62718013712083 M177.8760353924573,167.62718013712083 L177.82863910065015,167.60161702173832 M177.82863910065015,167.60161702173832 L177.79300238113984,167.55716872201998 M177.79300238113984,167.55716872201998 L172.8284031191974,173.5576788000331 M172.8284031191974,173.5576788000331 L167.96173818795972,179.72791524774962 M167.96173818795972,179.72791524774962 L163.20082991364478,186.05832229319566 M163.20082991364478,186.05832229319566 L158.5533575489103,192.53899170902508 M158.5533575489103,192.53899170902508 L154.02679159910332,199.1597709694326 M154.02679159910332,199.1597709694326 L149.62841133601353,205.91022829580183 M149.62841133601353,205.91022829580183 L145.36526910272386,212.77966723659978 M145.36526910272386,212.77966723659978 L141.244178502286,219.75721722127474 M141.244178502286,219.75721722127474 L137.27171683610476,226.83177933889436 M137.27171683610476,226.83177933889436 L133.45418596786675,233.99207424486218 M133.45418596786675,233.99207424486218 L129.79760617995328,241.22671155380834 M129.79760617995328,241.22671155380834 L126.30771561905243,248.52414881691755 M126.30771561905243,248.52414881691755 L122.98994685844718,255.87275177447293 M122.98994685844718,255.87275177447293 L119.84941873345082,263.26080738202603 M119.84941873345082,263.26080738202603 L116.89092656436173,270.67655757648276 M116.89092656436173,270.67655757648276 L114.11893507180838,278.1082317180377 M114.11893507180838,278.1082317180377 L111.53756593005716,285.54404335197916 M111.53756593005716,285.54404335197916 L109.1505938334505,292.9722504000437 M109.1505938334505,292.9722504000437 L106.96144358864751,300.381137141501 M106.96144358864751,300.381137141501 L104.97317560772848,307.75909478687805 M104.97317560772848,307.75909478687805 L103.18849204498736,315.09458390709665 M103.18849204498736,315.09458390709665 L101.60972772627719,322.37621161021536 M101.60972772627719,322.37621161021536 L100.23885053272795,329.59270671541344 M100.23885053272795,329.59270671541344 L99.07745953402872,336.73299218772934 M99.07745953402872,336.73299218772934 L98.12678579964859,343.78615246729123 M98.12678579964859,343.78615246729123 L97.3876927514068,350.74150141248685 M97.3876927514068,350.74150141248685 L96.86067863664618,357.58856719223905 M96.86067863664618,357.58856719223905 L96.54587932491762,364.3171350704833 M96.54587932491762,364.3171350704833 L96.44307207925374,370.91724620550065 M96.44307207925374,370.91724620550065 L96.42222175190909,382.2549730592974 M96.44307207925374,370.91724620550065 L86.21093254248427,365.0337916145918 M86.21093254248427,365.0337916145918 L86.21093145266917,376.35948316636683 M86.21093254248427,365.0337916145918 L86.30169924390384,358.44089759196277 M86.30169924390384,358.44089759196277 L86.60444639452646,351.72010376582455 M86.60444639452646,351.72010376582455 L87.11941388333446,344.88135772164884 M87.11941388333446,344.88135772164884 L87.84648320965516,337.93486174453983 M87.84648320965516,337.93486174453983 L88.78517372179039,330.8910740192557 M88.78517372179039,330.8910740192557 L89.93463974926283,323.76066589630796 M89.93463974926283,323.76066589630796 L91.29366816442871,316.554536990013 M91.29366816442871,316.554536990013 L92.86067791274036,309.2837473218196 M92.86067791274036,309.2837473218196 L94.63371926795787,301.95954996865345 M94.63371926795787,301.95954996865345 L96.6104755730691,294.59331872745554 M96.6104755730691,294.59331872745554 L98.78826290626313,287.19657293106263 M98.78826290626313,287.19657293106263 L101.16403902163967,279.7809003924977 M101.16403902163967,279.7809003924977 L103.73439727662361,272.35799494371656 M103.73439727662361,272.35799494371656 L106.4955810052387,264.93957599925676 M106.4955810052387,264.93957599925676 L109.44348646047689,257.53740658283533 M109.44348646047689,257.53740658283533 L112.57366663749525,250.16323323408028 M112.57366663749525,250.16323323408028 L115.88134373461952,242.828789289206 M115.88134373461952,242.828789289206 L119.36141617920208,235.54576251262603 M119.36141617920208,235.54576251262603 L123.0084683447219,228.32576141114558 M123.0084683447219,228.32576141114558 L126.81677869067971,221.1803022617829 M126.81677869067971,221.1803022617829 L130.78034310292003,214.12074899369537 M130.78034310292003,214.12074899369537 L134.8928755129952,207.15835418915714 M134.8928755129952,207.15835418915714 L139.14781390647943,200.30418980477344 M139.14781390647943,200.30418980477344 L143.53835939768834,193.56909941099696 M143.53835939768834,193.56909941099696 L148.05747387465044,186.96375236891828 M148.05747387465044,186.96375236891828 L152.69789163867654,180.49855342249953 M152.69789163867654,180.49855342249953 L157.4521550941585,174.18362821704187 M157.4521550941585,174.18362821704187 L162.3125972638723,168.02885820170587 M162.3125972638723,168.02885820170587 L167.27140731453278,162.04377272749548 M167.27140731453278,162.04377272749548 L167.30716634033854,162.08822983648147 M167.30716634033854,162.08822983648147 L167.35466249620373,162.11384372302265 M167.35466249620373,162.11384372302265 L167.41112409518212,162.1191451158704 M167.41112409518212,162.1191451158704 L167.47327983715223,162.10380190909507 M167.47327983715223,162.10380190909507 L167.53750269548738,162.068718032506 M167.53750269548738,162.068718032506 L167.60007730431585,162.01594729010216 M167.60007730431585,162.01594729010216 L167.6573553722722,161.94853018530546 M167.6573553722722,161.94853018530546 L167.7060147610631,161.8704124628148 M167.7060147610631,161.8704124628148 L167.7432251883169,161.78611916656973 M167.7432251883169,161.78611916656973 L167.7668285597274,161.7005389955657 M167.7668285597274,161.7005389955657 L167.7754476274231,161.61864918005185 M167.7754476274231,161.61864918005185 L167.76858691760356,161.54522488864123 M167.76858691760356,161.54522488864123 L167.7466373406806,161.48452204804215 M250.637471402625,-45.605100058545986 L250.33720993433303,-38.405543740642145 M250.33720993433303,-38.405543740642145 L249.83071718513838,-31.127096399504126 M249.83071718513838,-31.127096399504126 L249.11932399784666,-23.77914281776856 M249.11932399784666,-23.77914281776856 L248.20459755635602,-16.371076513528237 M248.20459755635602,-16.371076513528237 L247.08827376400814,-8.912272839657362 M247.08827376400814,-8.912272839657362 L245.77235158608528,-1.4121653728739147 M245.77235158608528,-1.4121653728739147 L244.25897534020498,6.1199077817240095 M244.25897534020498,6.1199077817240095 L242.5505475909389,13.674556591278929 M242.5505475909389,13.674556591278929 L240.64964518184377,21.242454857169605 M240.64964518184377,21.242454857169605 L238.55901997228762,28.81427120723947 M238.55901997228762,28.81427120723947 L236.28162677432772,36.38078677295243 M236.28162677432772,36.38078677295243 L233.82061152758126,43.9327323092802 M233.82061152758126,43.9327323092802 L231.17929105328187,51.46097082172207 M231.17929105328187,51.46097082172207 L228.361157587104,58.956346918592146 M228.361157587104,58.956346918592146 L225.36987615717385,66.40983981301832 M225.36987615717385,66.40983981301832 L222.20929697124689,73.81244894429506 M222.20929697124689,73.81244894429506 L218.8834000415875,81.15527530546638 M218.8834000415875,81.15527530546638 L215.3963705851703,88.42945414378221 M215.3963705851703,88.42945414378221 L211.75251202401284,95.62627311281608 M211.75251202401284,95.62627311281608 L207.9563159728291,102.7370290122426 M207.9563159728291,102.7370290122426 L204.01240643943436,109.75320919586676 M204.01240643943436,109.75320919586676 L199.92555587419884,116.66629870829803 M199.92555587419884,116.66629870829803 L195.70069370242527,123.467967489996 M195.70069370242527,123.467967489996 L191.34288920077756,130.14997512779075 M191.34288920077756,130.14997512779075 L186.85734046315065,136.70417182926246 M186.85734046315065,136.70417182926246 L182.24940301767782,143.12253757501014 M182.24940301767782,143.12253757501014 L177.52454748393802,149.39718102876373 M177.52454748393802,149.39718102876373 L172.6883807638469,155.520383564724 M172.6883807638469,155.520383564724 L167.7466373406806,161.48452204804215 M250.637471402625,-45.605100058545986 L-78.68202004577984,121.36464709393681 M-73.64660441803466,298.902428336286 L-78.68202004577984,121.36464709393681 M-73.64660441803466,298.902428336286 L-84.87101159633255,304.9997709630757 M-79.79031176532231,472.20034562408676 L-84.87101159633255,304.9997709630757 M-84.87101159633255,304.9997709630757 L-74.36971938554211,311.124698917771 M177.79300238113984,167.55716872201998 L167.27140731453278,162.04377272749548 M178.2687598676282,166.9964571938066 L167.7466373406806,161.48452204804215 M261.4586858759491,-40.48100239444415 L250.637471402625,-45.605100058545986 M-67.85921102266207,127.24120970167257 L-78.68202004577984,121.36464709393681 M-63.14368035916192,304.99977463425995 L-73.64660441803466,298.902428336286" stroke="black"  stroke-width="4"  fill="red"/>
<path d="M170.74496516804567,333.34570197344215 L170.9029273771783,322.8781810675528 M170.9029273771783,322.8781810675528 L171.01635599128008,322.9583577715671 M171.01635599128008,322.9583577715671 L171.09306800170697,323.051247613217 M171.09306800170697,323.051247613217 L171.12861308433958,323.15144797492064 M171.12861308433958,323.15144797492064 L171.12092448302985,323.253134777932 M171.12092448302985,323.253134777932 L171.0704261383779,323.3504078611415 M171.0704261383779,323.3504078611415 L170.9800649223356,323.4376039747758 M170.9800649223356,323.4376039747758 L170.85509381413357,323.5096508951918 M170.85509381413357,323.5096508951918 L170.70275880767713,323.5623685154809 M170.70275880767713,323.5623685154809 L170.5319192287473,323.5926885196688 M170.5319192287473,323.5926885196688 L170.35252235039803,323.59883806180835 M170.35252235039803,323.59883806180835 L170.1749817231418,323.5804699038741 M170.1749817231418,323.5804699038741 L170.0096228461107,323.53865053615493 M170.0096228461107,323.53865053615493 L169.86606974117257,323.4758060289522 M169.86606974117257,323.4758060289522 L169.75265394729706,323.3955991690075 M169.75265394729706,323.3955991690075 L169.67597792701957,323.3026858589464 M169.67597792701957,323.3026858589464 L169.64048426715044,323.2024743796344 M169.64048426715044,323.2024743796344 L169.64822794333355,323.10079135566997 M169.64822794333355,323.10079135566997 L169.6987724021668,323.0035360832874 M169.6987724021668,323.0035360832874 L169.78916020376573,322.916367731293 M169.78916020376573,322.916367731293 L169.91413227994963,322.84435216140247 M169.91413227994963,322.84435216140247 L170.0664424151829,322.79166230247205 M170.0664424151829,322.79166230247205 L170.23723697982956,322.7613601104576 M170.23723697982956,322.7613601104576 L170.41657901660727,322.7552143453889 M170.41657901660727,322.7552143453889 L170.5940675345728,322.7735713860345 M170.5940675345728,322.7735713860345 L170.75938897229912,322.8153672875968 M170.75938897229912,322.8153672875968 L170.9029273771783,322.8781810675528 M170.74496516804567,333.34570197344215 L170.60169810735732,333.2827645893504 M170.60169810735732,333.2827645893504 L170.43668741647548,333.2408864393615 M170.43668741647548,333.2408864393615 L170.2595309798986,333.2224932738975 M170.2595309798986,333.2224932738975 L170.08052307080612,333.2286511332681 M170.08052307080612,333.2286511332681 L169.9100453104628,333.25901295645946 M169.9100453104628,333.25901295645946 L169.75801623172924,333.31180649988426 M169.75801623172924,333.31180649988426 L169.6332731306279,333.38396377775626 M169.6332731306279,333.38396377775626 L169.5430489457999,333.47130364496803 M169.5430489457999,333.47130364496803 L169.4925932210868,333.5687502676163 M169.4925932210868,333.5687502676163 L169.48485819526616,333.6706333396031 M169.48485819526616,333.6706333396031 L169.5202799348143,333.7710419579957 M169.5202799348143,333.7710419579957 L169.59680762127732,333.8641380376543 M169.59680762127732,333.8641380376543 L169.71000725795233,333.94450266284286 M169.71000725795233,333.94450266284286 L169.8532889631,334.0074707777355 M169.8532889631,334.0074707777355 L170.01833695239702,334.04937239618874 M170.01833695239702,334.04937239618874 L170.19554530340605,334.0677766800346 M170.19554530340605,334.0677766800346 L170.3746078498823,334.06161504322176 M170.3746078498823,334.06161504322176 L170.54513045775462,334.03123540610545 M170.54513045775462,334.03123540610545 L170.69718431660482,333.9784140985919 M170.69718431660482,333.9784140985919 L170.82192645513084,333.9062254671117 M170.82192645513084,333.9062254671117 L170.91212415508448,333.81885783553014 M170.91212415508448,333.81885783553014 L170.96253393851413,333.72139340030344 M170.96253393851413,333.72139340030344 L170.97021409495204,333.61950654889813 M170.97021409495204,333.61950654889813 L170.93474112366448,333.5191090492072 M170.93474112366448,333.5191090492072 L170.85817757984728,333.4260364402676 M170.85817757984728,333.4260364402676 L170.74496516804567,333.34570197344215 M171.68027236030116,322.4301342485871 L171.96385878269894,322.63052337576596 M171.96385878269894,322.63052337576596 L172.15571786042824,322.8626970121985 M172.15571786042824,322.8626970121985 L172.24468117579278,323.1131749368158 M172.24468117579278,323.1131749368158 L172.22555031491652,323.3674054427461 M172.22555031491652,323.3674054427461 L172.09939936702608,323.61061727894065 M172.09939936702608,323.61061727894065 L171.87355437648267,323.8286552186352 M171.87355437648267,323.8286552186352 L171.56110470991467,324.0088450216705 M171.56110470991467,324.0088450216705 L171.1802282061176,324.1406864563503 M171.1802282061176,324.1406864563503 L170.75305221881416,324.21651504237053 M170.75305221881416,324.21651504237053 L170.3044460380184,324.231903257766 M170.3044460380184,324.231903257766 L169.86050041527426,324.1859595772463 M169.86050041527426,324.1859595772463 L169.4470451256886,324.08136042503986 M169.4470451256886,324.08136042503986 L169.08812810679245,323.92419674632043 M169.08812810679245,323.92419674632043 L168.80461913126817,323.72361764475306 M168.80461913126817,323.72361764475306 L168.61298446768086,323.49129705050615 M168.61298446768086,323.49129705050615 L168.52434305391222,323.240749925207 M168.52434305391222,323.240749925207 L168.54381788531504,322.98654289597266 M168.54381788531504,322.98654289597266 L168.67025704317018,322.74344237544165 M168.67025704317018,322.74344237544165 L168.89626819355425,322.5255779410569 M168.89626819355425,322.5255779410569 L169.2087239104922,322.34558409375086 M169.2087239104922,322.34558409375086 L169.58944496874045,322.2139161622983 M169.58944496874045,322.2139161622983 L170.01633962014608,322.13819889525433 M170.01633962014608,322.13819889525433 L170.46460328885843,322.12283444011797 M170.46460328885843,322.12283444011797 L170.90822271904563,322.1687083489111 M170.90822271904563,322.1687083489111 L171.32144453712766,322.27316111314394 M171.32144453712766,322.27316111314394 L171.68027236030116,322.4301342485871 M171.6990076909375,321.19981248069706 L171.98265765898026,321.40015505763995 M171.98265765898026,321.40015505763995 L172.17456040130548,321.6322747683956 M172.17456040130548,321.6322747683956 L172.2635449544639,321.882694525622 M172.2635449544639,321.882694525622 L172.24441165814994,322.1368660030334 M172.24441165814994,322.1368660030334 L172.11823472842713,322.3800213788076 M172.11823472842713,322.3800213788076 L171.89234171289297,322.5980087101638 M171.89234171289297,322.5980087101638 L171.57982475819472,322.7781566954839 M171.57982475819472,322.7781566954839 L171.19886561761143,322.90996753624876 M171.19886561761143,322.90996753624876 L170.77159644860131,322.98577852744853 M170.77159644860131,322.98577852744853 L170.32289197121224,323.0011631723657 M170.32289197121224,323.0011631723657 L169.878848660335,322.9552301521241 M169.878848660335,322.9552301521241 L169.46530198093024,322.8506552712474 M169.46530198093024,322.8506552712474 L169.10630519050238,322.69352806431027 M169.10630519050238,322.69352806431027 L168.82273270190052,322.49299551538274 M168.82273270190052,322.49299551538274 L168.6310544712569,322.2607288487832 M168.6310544712569,322.2607288487832 L168.54239196029175,322.01023989171074 M168.54239196029175,322.01023989171074 L168.56186937820468,321.7560918907217 M168.56186937820468,321.7560918907217 L168.68833464504803,321.5130478291659 M168.68833464504803,321.5130478291659 L168.9143938944718,321.2952340008671 M168.9143938944718,321.2952340008671 L169.22691690352065,321.1152819687323 M169.22691690352065,321.1152819687323 L169.60772053155563,320.98364462894233 M169.60772053155563,320.98364462894233 L170.03470824203475,320.90794495527354 M170.03470824203475,320.90794495527354 L170.4830700572275,320.89258407027586 M170.4830700572275,320.89258407027586 L170.92678703212732,320.93844731975923 M170.92678703212732,320.93844731975923 L171.34010013652954,321.04287581450023 M171.34010013652954,321.04287581450023 L171.6990076909375,321.19981248069706 M171.6990076909375,321.19981248069706 L171.68027236030116,322.4301342485871" stroke="black"  stroke-width="4"  fill="red"/>
<path d="M-73.64660441803466,298.902428336286 L-84.87101159633255,304.9997709630757 M-84.87101159633255,304.9997709630757 L-90.27253555622661,127.24120616316952 M-78.68202004577984,121.36464709393681 L-90.27253555622661,127.24120616316952 M-73.64660441803466,298.902428336286 L-78.68202004577984,121.36464709393681 M-69.59041725290092,478.5098940267141 L-23.659522730324454,506.9222665089247 M-23.659522730324454,506.9222665089247 L-23.90354601523103,494.86614892250924 M-23.90354601523103,494.86614892250924 L29.44764544230935,527.7336126267874 M29.574860779428718,539.8525011333888 L29.44764544230935,527.7336126267874 M29.574860779428718,539.8525011333888 L266.85679548653934,686.6326320730161 M266.85679548653934,686.6326320730161 L267.2828514618391,674.2540517751352 M267.2828514618391,674.2540517751352 L327.48596105039996,711.3426990054686 M326.91142363547067,723.7817989243038 L327.48596105039996,711.3426990054686 M326.91142363547067,723.7817989243038 L510.8879607266716,837.5877666537824 M510.8879607266716,837.5877666537824 L525.5948494446598,661.0568487610899 M525.5948494446598,661.0568487610899 L539.0431509755953,668.9006337293208 M539.0431509755953,668.9006337293208 L555.3307124776736,479.48469794487346 M-90.27253555622661,127.24120616316952 L555.3307124776736,479.48469794487346 M-84.87101159633255,304.9997709630757 L-74.36971938554211,311.124698917771 M-69.59041725290092,478.5098940267141 L-74.36971938554211,311.124698917771 M550.1789402407371,661.0568487610899 L536.736528404106,653.2530181717709 M521.6938343133135,829.6099080823694 L536.736528404106,653.2530181717709 M521.6938343133135,829.6099080823694 L337.77576305914033,716.3538037114868 M337.77576305914033,716.3538037114868 L338.37480306497866,703.9266364674777 M338.37480306497866,703.9266364674777 L278.1839795965442,667.0133667112659 M277.733334068531,679.3798861509661 L278.1839795965442,667.0133667112659 M277.733334068531,679.3798861509661 L40.466443637672626,533.2717657082756 M40.466443637672626,533.2717657082756 L40.363923370675764,521.1652891632541 M40.363923370675764,521.1652891632541 L-12.991188108945323,488.44416143266466 M-12.771833788644301,500.48782085933163 L-12.991188108945323,488.44416143266466 M-12.771833788644301,500.48782085933163 L-58.7082291751874,472.2003494061837 M-58.7082291751874,472.2003494061837 L-63.14368035916192,304.99977463425995 M-63.14368035916192,304.99977463425995 L-73.64660441803466,298.902428336286 M566.8228958921861,471.8605344377847 L-78.68202004577984,121.36464709393681 M550.1789402407371,661.0568487610899 L566.8228958921861,471.8605344377847 M-69.59041725290092,478.5098940267141 L-58.7082291751874,472.2003494061837 M-74.36971938554211,311.124698917771 L-63.14368035916192,304.99977463425995 M-12.771833788644301,500.48782085933163 L-23.659522730324454,506.9222665089247 M-12.991188108945323,488.44416143266466 L-23.90354601523103,494.86614892250924 M29.574860779428718,539.8525011333888 L40.466443637672626,533.2717657082756 M29.44764544230935,527.7336126267874 L40.363923370675764,521.1652891632541 M277.733334068531,679.3798861509661 L266.85679548653934,686.6326320730161 M278.1839795965442,667.0133667112659 L267.2828514618391,674.2540517751352 M326.91142363547067,723.7817989243038 L337.77576305914033,716.3538037114868 M327.48596105039996,711.3426990054686 L338.37480306497866,703.9266364674777 M521.6938343133135,829.6099080823694 L510.8879607266716,837.5877666537824 M536.736528404106,653.2530181717709 L525.5948494446598,661.0568487610899 M539.0431509755953,668.9006337293208 L550.1789402407371,661.0568487610899 M555.3307124776736,479.48469794487346 L566.8228958921861,471.8605344377847" stroke="black"  stroke-width="4"  fill="red"/></svg>