<svg viewBox="0 0 800 800" xmlns="http://www.w3.org/2000/svg"><path d="M241.5472084369519,288.49413776138135 L86.49219082290801,378.01519392005173 M86.49219191075673,366.7099374816967 L86.49219082290801,378.01519392005173 M86.49219191075673,366.7099374816967 L86.49189460192736,366.55416703621955 M86.49189460192736,366.55416703621955 L86.49171620919441,366.3983194575503 M86.49171620919441,366.3983194575503 L86.49165674270836,366.24239593195387 M241.86547414695303,276.9178377807755 L86.49165674270836,366.24239593195387 M241.5472084369519,288.49413776138135 L241.86547414695303,276.9178377807755 M687.3324452930912,724.9103994905481 L674.4862859132038,717.4936675626802 M521.3148668822624,830.5784550547444 L674.4862859132038,717.4936675626802 M521.3148668822624,830.5784550547444 L337.67563008768786,717.4940559678676 M326.82776186878573,724.9107897477163 L337.67563008768786,717.4940559678676 M266.8641813242149,687.8179439952357 L326.82776186878573,724.9107897477163 M277.7242302065423,680.5761938142566 L266.8641813242149,687.8179439952357 M277.7242302065423,680.5761938142566 L40.817055298594596,534.6895849311904 M29.941984948337222,541.2603434367247 L40.817055298594596,534.6895849311904 M-23.21169099169873,508.38003367344123 L29.941984948337222,541.2603434367247 M-12.340508654517123,501.9553431564638 L-23.21169099169873,508.38003367344123 M-12.340508654517123,501.9553431564638 L-58.207260803198096,473.7107577653665 M96.68799999191981,383.90174578026404 L-58.207260803198096,473.7107577653665 M96.68799999191981,383.90174578026404 L86.49219082290801,378.01519392005173 M839.3517450894568,612.0653347855407 L241.5472084369519,288.49413776138135 M687.3324452930912,724.9103994905481 L839.3517450894568,612.0653347855407 M170.89806420337027,335.0666250488551 L170.7550143469685,335.0037830828556 M170.7550143469685,335.0037830828556 L170.59025382545013,334.96196842348087 M170.59025382545013,334.96196842348087 L170.4133659721556,334.94360314352224 M170.4133659721556,334.94360314352224 L170.2346294533254,334.94975166708707 M170.2346294533254,334.94975166708707 L170.06441015085875,334.9800674593338 M170.06441015085875,334.9800674593338 L169.9126115603296,335.03278096353756 M169.9126115603296,335.03278096353756 L169.78805757971526,335.1048288452233 M169.78805757971526,335.1048288452233 L169.6979701819448,335.19203629823295 M169.6979701819448,335.19203629823295 L169.6475909521332,335.2893351840319 M169.6475909521332,335.2893351840319 L169.63986765322835,335.3910637931586 M169.63986765322835,335.3910637931586 L169.6752356905953,335.4913201840803 M169.6752356905953,335.4913201840803 L169.75164735498413,335.58427512265956 M169.75164735498413,335.58427512265956 L169.86467537198473,335.664517908669 M169.86467537198473,335.664517908669 L170.0077398506437,335.7273905588791 M170.0077398506437,335.7273905588791 L170.1725376140298,335.769228651138 M170.1725376140298,335.769228651138 L170.34947730305015,335.78760503262225 M170.34947730305015,335.78760503262225 L170.52826837642942,335.78145273734197 M170.52826837642942,335.78145273734197 L170.69853245843268,335.7511191581777 M170.69853245843268,335.7511191581777 L170.8503557915098,335.69837793197775 M170.8503557915098,335.69837793197775 L170.97490881100822,335.6262987442184 M170.97490881100822,335.6262987442184 L171.06496976405737,335.53906356893197 M171.06496976405737,335.53906356893197 L171.11530312223618,335.4417468975599 M171.11530312223618,335.4417468975599 L171.12297163494463,335.34001451474455 M171.12297163494463,335.34001451474455 L171.08755244350976,335.23976922566766 M171.08755244350976,335.23976922566766 L171.01110497612927,335.1468377222238 M171.01110497612927,335.1468377222238 L170.89806420337027,335.0666250488551 M758.844597050998,663.4970487295866 L758.6692010108626,663.4181894524772 M758.6692010108626,663.4181894524772 L758.4745598326787,663.3657199542117 M758.4745598326787,663.3657199542117 L758.2720068572277,663.3426875056764 M758.2720068572277,663.3426875056764 L758.0732750655812,663.3504069137794 M758.0732750655812,663.3504069137794 L757.8898825836364,663.3884380132381 M757.8898825836364,663.3884380132381 L757.7325514116309,663.4545912596711 M757.7325514116309,663.4545912596711 L757.6103891866909,663.5450015061497 M757.6103891866909,663.5450015061497 L757.5304799457291,663.6544303441576 M757.5304799457291,663.6544303441576 L757.497512717884,663.7765397289254 M757.497512717884,663.7765397289254 L757.5133706685004,663.9041943460627 M757.5133706685004,663.9041943460627 L757.5771294088844,664.0299933008789 M757.5771294088844,664.0299933008789 L757.6851278670541,664.1466420706904 M757.6851278670541,664.1466420706904 L757.8310880772946,664.2473421556924 M757.8310880772946,664.2473421556924 L758.0065100351813,664.3262441674494 M758.0065100351813,664.3262441674494 L758.2012042746497,664.3787466056644 M758.2012042746497,664.3787466056644 L758.4038662758543,664.4018175561837 M758.4038662758543,664.4018175561837 L758.6026655060033,664.394092843288 M758.6026655060033,664.394092843288 L758.786109387591,664.3560367467605 M758.786109387591,664.3560367467605 L758.9434641188878,664.2898445264955 M758.9434641188878,664.2898445264955 L759.0656166845835,664.1993902712472 M759.0656166845835,664.1993902712472 L759.1454852589512,664.0899224639829 M759.1454852589512,664.0899224639829 L759.1783901126215,663.9677880748852 M759.1783901126215,663.9677880748852 L759.1624623950332,663.840128153721 M759.1624623950332,663.840128153721 L759.0986014793181,663.7143219083268 M759.0986014793181,663.7143219083268 L758.9905644202939,663.5977060821679 M758.9905644202939,663.5977060821679 L758.844597050998,663.4970487295866 M96.70881269868329,372.5844757694805 L86.49219191075673,366.7099374816967 M96.70881269868329,372.5844757694805 L96.68799999191981,383.90174578026404 M96.70913879118098,372.116436260273 L96.70891115667155,372.2725260904599 M96.70891115667155,372.2725260904599 L96.7088024618314,372.42853965603626 M96.7088024618314,372.42853965603626 L96.70881269868329,372.5844757694805 M86.49165674270836,366.24239593195387 L96.70913879118098,372.116436260273 M675.8859207288834,705.0857293002045 L688.7660854839045,712.4905484961134 M688.7660854839045,712.4905484961134 L841.0836700627145,599.8354541259473 M841.0836700627145,599.8354541259473 L241.86547414695303,276.9178377807755 M96.70913879118098,372.116436260273 L-58.52479681852412,461.7407907719013 M-58.52479681852412,461.7407907719013 L-12.559530416179712,489.9299428777149 M-12.559530416179712,489.9299428777149 L-23.45534431784978,496.34219412250724 M-23.45534431784978,496.34219412250724 L29.81496247981164,529.1598281313245 M29.81496247981164,529.1598281313245 L40.71469046049634,522.6014627698466 M40.71469046049634,522.6014627698466 L278.1741925200056,668.2284230039959 M278.1741925200056,668.2284230039959 L267.28959136468734,675.4581306120165 M267.28959136468734,675.4581306120165 L327.40142823918677,712.4905484961134 M327.40142823918677,712.4905484961134 L338.2737619011165,705.0857293002045 M338.2737619011165,705.0857293002045 L522.3879758589883,817.9975861938708 M675.8859207288834,705.0857293002045 L522.3879758589883,817.9975861938708 M171.85066032173268,322.9391496929589 L172.13388025380885,323.139188534582 M172.13388025380885,323.139188534582 L172.3254920562764,323.37095633334945 M172.3254920562764,323.37095633334945 L172.41434170175762,323.6209964342583 M172.41434170175762,323.6209964342583 L172.3952374130464,323.87478256744515 M172.3952374130464,323.87478256744515 L172.26925177760899,324.1175693002832 M172.26925177760899,324.1175693002832 L172.04370123389657,324.3352261454651 M172.04370123389657,324.3352261454651 L171.73165807981832,324.51510101207646 M171.73165807981832,324.51510101207646 L171.3512765036656,324.6467120170976 M171.3512765036656,324.6467120170976 L170.92465510878134,324.72240807279053 M170.92465510878134,324.72240807279053 L170.47663090315473,324.73776939335926 M170.47663090315473,324.73776939335926 L170.03326079733978,324.69190601123853 M170.03326079733978,324.69190601123853 L169.6203410876726,324.58748967421894 M169.6203410876726,324.58748967421894 L169.26188856500147,324.4306006846552 M169.26188856500147,324.4306006846552 L168.9787459949012,324.23037215906004 M168.9787459949012,324.23037215906004 L168.78735836373755,323.99845762724533 M168.78735836373755,323.99845762724533 L168.69883027220794,323.7483484314031 M168.69883027220794,323.7483484314031 L168.7182781608024,323.4945857390464 M168.7182781608024,323.4945857390464 L168.8445516962184,323.2519101516655 M168.8445516962184,323.2519101516655 L169.07026822179654,323.03442654649655 M169.07026822179654,323.03442654649655 L169.38231742104654,322.85474733598977 M169.38231742104654,322.85474733598977 L169.76254372042035,322.7233095689022 M169.76254372042035,322.7233095689022 L170.1888840834872,322.6477246619742 M170.1888840834872,322.6477246619742 L170.63656614642065,322.63238706530296 M170.63656614642065,322.63238706530296 L171.07961041100958,322.6781807824434 M171.07961041100958,322.6781807824434 L171.49229689979256,322.78245095526034 M171.49229689979256,322.78245095526034 L171.85066032173268,322.9391496929589 M761.1791095214957,650.6164711039517 L761.5450377027622,650.8676250928002 M761.5450377027622,650.8676250928002 L761.8159763261195,651.1585889270041 M761.8159763261195,651.1585889270041 L761.9762628963459,651.472528154653 M761.9762628963459,651.472528154653 L762.0164802665187,651.791167302378 M762.0164802665187,651.791167302378 L761.9342672083031,652.0960044680564 M761.9342672083031,652.0960044680564 L761.7343745260863,652.3692893794503 M761.7343745260863,652.3692893794503 L761.4283899583016,652.5951418586508 M761.4283899583016,652.5951418586508 L761.034110514103,652.7603982292983 M761.034110514103,652.7603982292983 L760.5744284341312,652.8554414781447 M760.5744284341312,652.8554414781447 L760.076117756986,652.8747276647439 M760.076117756986,652.8747276647439 L759.5681433494352,652.8171272064699 M759.5681433494352,652.8171272064699 L759.0801331239037,652.6860343635058 M759.0801331239037,652.6860343635058 L758.6403731423846,652.4890273966498 M758.6403731423846,652.4890273966498 L758.2745308753587,652.2376290118311 M758.2745308753587,652.2376290118311 L758.0037934287412,651.9464362958113 M758.0037934287412,651.9464362958113 L757.8439321573672,651.6324223213919 M757.8439321573672,651.6324223213919 L757.8041529238873,651.3138163513877 M757.8041529238873,651.3138163513877 L757.8867576825452,651.0091355507673 M757.8867576825452,651.0091355507673 L758.0869058696397,650.7360943567185 M758.0869058696397,650.7360943567185 L758.3929512375583,650.510517131619 M758.3929512375583,650.510517131619 L758.7870828453239,650.3455044798545 M758.7870828453239,650.3455044798545 L759.2464423019925,650.250617592008 M759.2464423019925,650.250617592008 L759.744329498095,650.2313645770735 M759.744329498095,650.2313645770735 L760.2518354866507,650.2888445689632 M760.2518354866507,650.2888445689632 L760.7395535203096,650.4197542500931 M760.7395535203096,650.4197542500931 L761.1791095214957,650.6164711039517 M839.3517450894568,612.0653347855407 L841.0836700627145,599.8354541259473 M688.7096056857918,712.9838501801407 L675.8307932526196,705.5785565600365 M688.7096056857918,712.9838501801407 L687.3324452930912,724.9103994905481 M675.8307932526196,705.5785565600365 L674.4862859132038,717.4936675626802 M675.8307932526196,705.5785565600365 L675.8490508249557,705.4143769238472 M675.8490508249557,705.4143769238472 L675.86742669396,705.2501007539715 M675.86742669396,705.2501007539715 L675.8859207288834,705.0857293002045 M521.3148668822624,830.5784550547444 L522.3879758589883,817.9975861938708 M337.67563008768786,717.4940559678676 L338.2737619011165,705.0857293002045 M326.82776186878573,724.9107897477163 L327.40142823918677,712.4905484961134 M266.8641813242149,687.8179439952357 L267.28959136468734,675.4581306120165 M277.7242302065423,680.5761938142566 L278.1741925200056,668.2284230039959 M40.817055298594596,534.6895849311904 L40.71469046049634,522.6014627698466 M29.941984948337222,541.2603434367247 L29.81496247981164,529.1598281313245 M-23.21169099169873,508.38003367344123 L-23.45534431784978,496.34219412250724 M-12.340508654517123,501.9553431564638 L-12.559530416179712,489.9299428777149 M-58.207260803198096,473.7107577653665 L-58.52479681852412,461.7407907719013 M688.7660854839045,712.4905484961134 L688.7471407250626,712.6550785370532 M688.7471407250626,712.6550785370532 L688.7283140809645,712.8195128487218 M688.7283140809645,712.8195128487218 L688.7096056857918,712.9838501801407 M170.89806420337027,335.0666250488551 L171.05578692919977,324.61497373922253 M171.05578692919977,324.61497373922253 L171.1690435764791,324.6950288889612 M171.1690435764791,324.6950288889612 L171.2456392853819,324.7877779022051 M171.2456392853819,324.7877779022051 L171.28113047883528,324.8878263521716 M171.28113047883528,324.8878263521716 L171.27345353405815,324.98935898988225 M171.27345353405815,324.98935898988225 L171.22303174892295,325.08648459934204 M171.22303174892295,325.08648459934204 L171.1328075276885,325.1735485167161 M171.1328075276885,325.1735485167161 L171.00802588565028,325.24548620825647 M171.00802588565028,325.24548620825647 L170.85592183120912,325.2981239044301 M170.85592183120912,325.2981239044301 L170.68534125870184,325.32839794107423 M170.68534125870184,325.32839794107423 L170.5062163603232,325.33453816001764 M170.5062163603232,325.33453816001764 L170.32894489881306,325.31619784967523 M170.32894489881306,325.31619784967523 L170.16383671902344,325.2744418834518 M170.16383671902344,325.2744418834518 L170.02050125203766,325.2116926535325 M170.02050125203766,325.2116926535325 L169.9072574055482,325.1316073935822 M169.9072574055482,325.1316073935822 L169.8306976322308,325.0388349475071 M169.8306976322308,325.0388349475071 L169.79525778357976,324.93877539678743 M169.79525778357976,324.93877539678743 L169.8029897197324,324.83724653239443 M169.8029897197324,324.83724653239443 L169.8534575491363,324.74013870675884 M169.8534575491363,324.74013870675884 L169.9437083156214,324.6531025089359 M169.9437083156214,324.6531025089359 L170.068490924174,324.581196120391 M170.068490924174,324.581196120391 L170.2205701450987,324.52858614348764 M170.2205701450987,324.52858614348764 L170.39110577156805,324.4983298920123 M170.39110577156805,324.4983298920123 L170.5701759115194,324.49219344441343 M170.5701759115194,324.49219344441343 L170.74739534274056,324.51052265432185 M170.74739534274056,324.51052265432185 L170.91246613998652,324.5522551899651 M170.91246613998652,324.5522551899651 L171.05578692919977,324.61497373922253 M758.844597050998,663.4970487295866 L760.2523028625648,652.4740432236883 M760.2523028625648,652.4740432236883 L760.3986222469688,652.5745480499131 M760.3986222469688,652.5745480499131 L760.506939279354,652.6909871851042 M760.506939279354,652.6909871851042 L760.5709919218549,652.8166028354588 M760.5709919218549,652.8166028354588 L760.5870118588629,652.9440693753866 M760.5870118588629,652.9440693753866 L760.554094418727,653.0660187742483 M760.554094418727,653.0660187742483 L760.4741090614378,653.1753207939682 M760.4741090614378,653.1753207939682 L760.3517423826303,653.2656380697963 M760.3517423826303,653.2656380697963 L760.194088617534,653.3317300589415 M760.194088617534,653.3317300589415 L760.0102780851411,653.3697285319931 M760.0102780851411,653.3697285319931 L759.8110660646572,653.3774415485861 M759.8110660646572,653.3774415485861 L759.6079690009295,653.3544055309749 M759.6079690009295,653.3544055309749 L759.4128428440443,653.3019825921003 M759.4128428440443,653.3019825921003 L759.2370171941517,653.2232000610752 M759.2370171941517,653.2232000610752 L759.0907049790945,653.122652477819 M759.0907049790945,653.122652477819 L758.9824266941861,653.0061803800024 M758.9824266941861,653.0061803800024 L758.9184765727163,652.8805719765517 M758.9184765727163,652.8805719765517 L758.9025266976129,652.7531107437053 M758.9025266976129,652.7531107437053 L758.9355067849546,652.631186363574 M758.9355067849546,652.631186363574 L759.0155329973092,652.521923335554 M759.0155329973092,652.521923335554 L759.1379093961665,652.4316500938412 M759.1379093961665,652.4316500938412 L759.2955395211908,652.3655971009744 M759.2955395211908,652.3655971009744 L759.4792984499951,652.3276236393881 M759.4792984499951,652.3276236393881 L759.6784427517024,652.319915930643 M759.6784427517024,652.319915930643 L759.8814304008523,652.342913471969 M759.8814304008523,652.342913471969 L760.0765032588018,652.3953034519225 M760.0765032588018,652.3953034519225 L760.2523028625648,652.4740432236883 M171.85066032173268,322.9391496929589 L171.83195339535132,324.16760619495653 M171.83195339535132,324.16760619495653 L172.11510987812284,324.36769151624185 M172.11510987812284,324.36769151624185 L172.3066780821935,324.5995131589306 M172.3066780821935,324.5995131589306 L172.39550652207902,324.849611339044 M172.39550652207902,324.849611339044 L172.37640466511317,325.1034564112577 M172.37640466511317,325.1034564112577 L172.25044497211752,325.34629951891765 M172.25044497211752,325.34629951891765 L172.02494238058614,325.5640068957117 M172.02494238058614,325.5640068957117 L171.71296641262393,325.74392351663926 M171.71296641262393,325.74392351663926 L171.33266734797354,325.8755650691926 M171.33266734797354,325.8755650691926 L170.90613899352513,325.95127869303064 M170.90613899352513,325.95127869303064 L170.45821293546624,325.9666435786647 M170.45821293546624,325.9666435786647 L170.01494036968148,325.9207695524277 M170.01494036968148,325.9207695524277 L169.60211191127905,325.81632898087554 M169.60211191127905,325.81632898087554 L169.24373903919968,325.6594035748235 M169.24373903919968,325.6594035748235 L168.96065988588612,325.4591285671661 M168.96065988588612,325.4591285671661 L168.7693157557277,325.2271601894628 M168.7693157557277,325.2271601894628 L168.68080872940953,324.97699291358134 M168.68080872940953,324.97699291358134 L168.7002540354153,324.72317128247096 M168.7002540354153,324.72317128247096 L168.8265015014262,324.4804393217112 M168.8265015014262,324.4804393217112 L169.0521700008867,324.26290518717906 M169.0521700008867,324.26290518717906 L169.36415201004604,324.08318422489623 M169.36415201004604,324.08318422489623 L169.7442958648155,323.9517159125255 M169.7442958648155,323.9517159125255 L170.17054330989384,323.8761134388952 M170.17054330989384,323.8761134388952 L170.61812737514487,323.86077227749786 M170.61812737514487,323.86077227749786 L171.0610742429066,323.9065766377878 M171.0610742429066,323.9065766377878 L171.47366958376665,324.0108710433022 M171.47366958376665,324.0108710433022 L171.83195339535132,324.16760619495653 M761.1791095214957,650.6164711039517 L761.0134399029411,651.9124170373584 M761.0134399029411,651.9124170373584 L761.3792645742593,652.1636161177205 M761.3792645742593,652.1636161177205 L761.6501208359238,652.4546321780801 M761.6501208359238,652.4546321780801 L761.8103509597546,652.7686277405192 M761.8103509597546,652.7686277405192 L761.8505411140223,653.087324050168 M761.8505411140223,653.087324050168 L761.7683316662775,653.3922158864636 M761.7683316662775,653.3922158864636 L761.5684732278349,653.6655497970467 M761.5684732278349,653.6655497970467 L761.2625515594592,653.8914427618547 M761.2625515594592,653.8914427618547 L760.8683600146552,654.056728750633 M760.8683600146552,654.056728750633 L760.408785728638,654.1517890316454 M760.408785728638,654.1517890316454 L759.9105964552485,654.171078674236 M759.9105964552485,654.171078674236 L759.4027499960868,654.1134678940607 M759.4027499960868,654.1134678940607 L758.9148667900516,653.9823515574953 M758.9148667900516,653.9823515574953 L758.4752255309189,653.7853092791315 M758.4752255309189,653.7853092791315 L758.1094867549838,653.5338658246094 M758.1094867549838,653.5338658246094 L757.8388315735655,653.2426208919844 M757.8388315735655,653.2426208919844 L757.6790265538272,652.9285505933437 M757.6790265538272,652.9285505933437 L757.6392743192442,652.6098874592169 M757.6392743192442,652.6098874592169 L757.721875266552,652.3051519776179 M757.721875266552,652.3051519776179 L757.9219890711548,652.032061768231 M757.9219890711548,652.032061768231 L758.227971494873,651.8064440392845 M758.227971494873,651.8064440392845 L758.622015262643,651.6414017532395 M758.622015262643,651.6414017532395 L759.0812670753477,651.5464978228663 M759.0812670753477,651.5464978228663 L759.5790330739056,651.5272413497423 M759.5790330739056,651.5272413497423 L760.0864113405981,651.5847316659001 M760.0864113405981,651.5847316659001 L760.5740025183051,651.7156648583839 M760.5740025183051,651.7156648583839 L761.0134399029411,651.9124170373584" stroke="black"  stroke-width="4"  fill="red"/>
<path d="M687.3324452930912,724.9103994905481 L523.4663933355764,846.5493970446068 M687.3324452930912,724.9103994905481 L674.4862859132038,717.4936675626802 M510.525375861518,838.5442185564978 L674.4862859132038,717.4936675626802 M523.4663933355764,846.5493970446068 L510.525375861518,838.5442185564978 M688.7096056857918,712.9838501801407 L687.3324452930912,724.9103994905481 M787.7544018090797,487.32588080164624 L782.4787601480899,494.3111390428458 M782.4787601480899,494.3111390428458 L777.2726391555976,501.4636647463033 M777.2726391555976,501.4636647463033 L772.1444201187277,508.77229430619906 M772.1444201187277,508.77229430619906 L767.1023245117548,516.2256233373225 M767.1023245117548,516.2256233373225 L762.1544556680575,523.811904657664 M762.1544556680575,523.811904657664 L757.3087461809595,531.5191761807544 M757.3087461809595,531.5191761807544 L752.5729720695132,539.3352084709086 M752.5729720695132,539.3352084709086 L747.9546951764188,547.2475898692664 M747.9546951764188,547.2475898692664 L743.461282104923,555.2437293766163 M743.461282104923,555.2437293766163 L739.0998671113456,563.3108713208296 M739.0998671113456,563.3108713208296 L734.8773474159531,571.4361637795014 M734.8773474159531,571.4361637795014 L730.8003587707154,579.6066368864585 M730.8003587707154,579.6066368864585 L726.8752678097243,587.8092742648876 M726.8752678097243,587.8092742648876 L723.1081602004339,596.0310023503089 M723.1081602004339,596.0310023503089 L719.504823424846,604.2587597365325 M719.504823424846,604.2587597365325 L716.0707328425509,612.479498174157 M716.0707328425509,612.479498174157 L712.8110520327706,620.680239568946 M712.8110520327706,620.680239568946 L709.7306140834861,628.8480338550432 M709.7306140834861,628.8480338550432 L706.8339130516916,636.9701023702848 M706.8339130516916,636.9701023702848 L704.1251035063088,645.0337498378155 M704.1251035063088,645.0337498378155 L701.6079874984853,653.0264590780093 M701.6079874984853,653.0264590780093 L699.2860126281561,660.935893062197 M699.2860126281561,660.935893062197 L697.1622653724338,668.7499328990932 M697.1622653724338,668.7499328990932 L695.2394715339991,676.4566778151986 M695.2394715339991,676.4566778151986 L693.519990979795,684.044495357416 M693.519990979795,684.044495357416 L692.0058178313479,691.5020231384442 M692.0058178313479,691.5020231384442 L690.6985804826237,698.8182003295233 M690.6985804826237,698.8182003295233 L689.5995428657525,705.9822792449468 M689.5995428657525,705.9822792449468 L688.7096056857918,712.9838501801407 M788.255124634432,486.6756931910457 L788.2680901213301,486.73703488081037 M788.2680901213301,486.73703488081037 L788.2657563636186,486.81370253626915 M788.2657563636186,486.81370253626915 L788.2482509467346,486.90123764429967 M788.2482509467346,486.90123764429967 L788.2166044877564,486.99456695676827 M788.2166044877564,486.99456695676827 L788.1726386339675,487.08825337414015 M788.1726386339675,487.08825337414015 L788.1189278363105,487.1768482458547 M788.1189278363105,487.1768482458547 L788.0585790472231,487.25519914944135 M788.0585790472231,487.25519914944135 L787.9951012562193,487.3187904575278 M787.9951012562193,487.3187904575278 L787.9321832036952,487.3638994542151 M787.9321832036952,487.3638994542151 L787.8734811217618,487.3878988634554 M787.8734811217618,487.3878988634554 L787.822412224591,487.3894021792588 M787.822412224591,487.3894021792588 L787.7819298504029,487.3683261575377 M787.7819298504029,487.3683261575377 L787.7544018090797,487.32588080164624 M889.8263270876351,255.64220808421425 L888.6350047285099,263.41018487801034 M888.6350047285099,263.41018487801034 L887.2471603707521,271.2809433054984 M887.2471603707521,271.2809433054984 L885.6652305816125,279.24459259755815 M885.6652305816125,279.24459259755815 L883.8918548319617,287.29114375507106 M883.8918548319617,287.29114375507106 L881.9298292680791,295.4106125568378 M881.9298292680791,295.4106125568378 L879.782123846296,303.59307896697925 M879.782123846296,303.59307896697925 L877.4518870905705,311.82853585481575 M877.4518870905705,311.82853585481575 L874.942439185758,320.1070239076474 M874.942439185758,320.1070239076474 L872.2572435888166,328.4186216224221 M872.2572435888166,328.4186216224221 L869.3999415448276,336.75339320645776 M869.3999415448276,336.75339320645776 L866.3742967653028,345.10147606477136 M866.3742967653028,345.10147606477136 L863.1842808166449,353.45297433624216 M863.1842808166449,353.45297433624216 L859.8339407592574,361.7980988259062 M859.8339407592574,361.7980988259062 L856.3275010330987,370.12704964306124 M856.3275010330987,370.12704964306124 L852.669304252834,378.43014534383263 M852.669304252834,378.43014534383263 L848.863844852108,386.69769380236875 M848.863844852108,386.69769380236875 L844.9157342388304,394.92010509626124 M844.9157342388304,394.92010509626124 L840.8297184809859,403.08783229732035 M840.8297184809859,403.08783229732035 L836.6106610861744,411.1914142722326 M836.6106610861744,411.1914142722326 L832.2635398767114,419.2214702848648 M832.2635398767114,419.2214702848648 L827.7934627353524,427.1686626426294 M827.7934627353524,427.1686626426294 L823.2056486402527,435.0237609161079 M823.2056486402527,435.0237609161079 L818.505417715383,442.77764236689563 M818.505417715383,442.77764236689563 L813.6982079219409,450.42125511455106 M813.6982079219409,450.42125511455106 L808.7895678057743,457.94565610818694 M808.7895678057743,457.94565610818694 L803.7851370346442,465.3419812610876 M803.7851370346442,465.3419812610876 L798.6906734927223,472.6014987766842 M798.6906734927223,472.6014987766842 L793.5120211559034,479.71556997591375 M793.5120211559034,479.71556997591375 L788.255124634432,486.6756931910457 M566.6930412421763,469.7619860382867 L889.8263270876351,255.64220808421425 M549.9046965506016,660.5996093624412 L566.6930412421763,469.7619860382867 M538.7826096969825,668.4297040259448 L549.9046965506016,660.5996093624412 M523.4663933355764,846.5493970446068 L538.7826096969825,668.4297040259448 M688.7096056857918,712.9838501801407 L675.8307932526196,705.5785565600365 M675.8307932526196,705.5785565600365 L674.4862859132038,717.4936675626802 M510.525375861518,838.5442185564978 L525.3500399862107,660.5996093624412 M536.4780132394723,652.8094120444528 L525.3500399862107,660.5996093624412 M536.4780132394723,652.8094120444528 L552.7369084052675,462.19407628639954 M876.1205460143141,249.1612495454989 L552.7369084052675,462.19407628639954 M876.1205460143141,249.1612495454989 L874.950347834233,256.9188882381956 M874.950347834233,256.9188882381956 L873.5833404261433,264.7787477111523 M873.5833404261433,264.7787477111523 L872.0219350457133,272.7309503870278 M872.0219350457133,272.7309503870278 L870.2687463770623,280.76552078451016 M870.2687463770623,280.76552078451016 L868.3265464941518,288.8724883268484 M868.3265464941518,288.8724883268484 L866.1982822403294,297.04194676053265 M866.1982822403294,297.04194676053265 L863.887079519695,305.2639030431319 M863.887079519695,305.2639030431319 L861.3962367997839,313.5284121370813 M861.3962367997839,313.5284121370813 L858.72919660219,321.82556695631297 M858.72919660219,321.82556695631297 L855.8895799578878,330.1454464264092 M855.8895799578878,330.1454464264092 L852.8811311902556,338.47820276930395 M852.8811311902556,338.47820276930395 L849.707803225362,346.8139553839694 M849.707803225362,346.8139553839694 L846.373625262219,355.1429303239783 M846.373625262219,355.1429303239783 L842.8828045948973,363.4553433339737 M842.8828045948973,363.4553433339737 L839.2396676286074,371.7415287461111 M839.2396676286074,371.7415287461111 L835.4486932106364,379.99181057456116 M835.4486932106364,379.99181057456116 L831.5144780284437,388.1966152348254 M831.5144780284437,388.1966152348254 L827.4417541533811,396.3464124554502 M827.4417541533811,396.3464124554502 L823.2353718933165,404.4317580193437 M823.2353718933165,404.4317580193437 L818.9002966307661,412.44328838492504 M818.9002966307661,412.44328838492504 L814.4416244880139,420.37168342883507 M814.4416244880139,420.37168342883507 L809.8645634953467,428.20773058371424 M809.8645634953467,428.20773058371424 L805.1744236000221,435.9423252603361 M805.1744236000221,435.9423252603361 L800.3766332797896,443.56643411199565 M800.3766332797896,443.56643411199565 L795.4767323745638,451.07113297697924 M795.4767323745638,451.07113297697924 L790.4803524565722,458.4475770024219 M790.4803524565722,458.4475770024219 L785.3932441610228,465.68705402465235 M785.3932441610228,465.68705402465235 L780.2212448257168,472.78094535594494 M780.2212448257168,472.78094535594494 L774.9702932008705,479.7207697036471 M774.4700972639533,480.3690327761918 L774.4978415106267,480.4115237563394 M774.4978415106267,480.4115237563394 L774.5385122003205,480.4326986977788 M774.5385122003205,480.4326986977788 L774.5897305815623,480.43134179044404 M774.5897305815623,480.43134179044404 L774.6485346605597,480.4075278111263 M774.6485346605597,480.4075278111263 L774.7115012520927,480.3626324771707 M774.7115012520927,480.3626324771707 L774.7749713206412,480.29927064295003 M774.7749713206412,480.29927064295003 L774.8352566583068,480.2211516691137 M774.8352566583068,480.2211516691137 L774.8888518368918,480.13277773050015 M774.8888518368918,480.13277773050015 L774.9326566764724,480.0392884514636 M774.9326566764724,480.0392884514636 L774.9641060364285,479.9461209710818 M774.9641060364285,479.9461209710818 L774.9813898181047,479.85870302644196 M774.9813898181047,479.85870302644196 L774.9834902020883,479.78210103130755 M774.9834902020883,479.78210103130755 L774.9702932008705,479.7207697036471 M675.8307932526196,705.5785565600365 L676.7017947368325,698.5840102923364 M676.7017947368325,698.5840102923364 L677.782007123353,691.4277395013328 M677.782007123353,691.4277395013328 L679.0705576126277,684.1201435837152 M679.0705576126277,684.1201435837152 L680.5662103327442,676.6719582214628 M680.5662103327442,676.6719582214628 L682.2673650372537,669.0942305631884 M682.2673650372537,669.0942305631884 L684.1720558113378,661.3983076534114 M684.1720558113378,661.3983076534114 L686.277950966583,653.5958049730052 M686.277950966583,653.5958049730052 L688.5823528528605,645.698604709886 M688.5823528528605,645.698604709886 L691.082202986638,637.7188056233745 M691.082202986638,637.7188056233745 L693.7740816058815,629.6687230831151 M693.7740816058815,629.6687230831151 L696.6542142467367,621.5608511509649 M696.6542142467367,621.5608511509649 L699.7184736771442,613.4078605593286 M699.7184736771442,613.4078605593286 L702.9623926709102,605.2225041303266 M702.9623926709102,605.2225041303266 L706.3811647352245,597.0177047635418 M706.3811647352245,597.0177047635418 L709.9696522269213,588.806412216087 M709.9696522269213,588.806412216087 L713.7224052417774,580.6016452875658 M713.7224052417774,580.6016452875658 L717.6336610859888,572.4164348937745 M717.6336610859888,572.4164348937745 L721.6973582404124,564.2638231438709 M721.6973582404124,564.2638231438709 L725.9071534025962,556.1567941293608 M725.9071534025962,556.1567941293608 L730.2564333895087,548.1082846629658 M730.2564333895087,548.1082846629658 L734.7383225719442,540.1311129550056 M734.7383225719442,540.1311129550056 L739.3457074294209,532.2380003969458 M739.3457074294209,532.2380003969458 L744.0712410217399,524.4415032370987 M744.0712410217399,524.4415032370987 L748.907380141416,516.7539980652268 M748.907380141416,516.7539980652268 L753.8463662905409,509.1876789095547 M753.8463662905409,509.1876789095547 L758.880283167522,501.7544723722511 M758.880283167522,501.7544723722511 L764.0010426004006,494.4660900234173 M764.0010426004006,494.4660900234173 L769.2004368810946,487.3339007847344 M769.2004368810946,487.3339007847344 L774.4700972639533,480.3690327761918 M525.3500399862107,660.5996093624412 L538.7826096969825,668.4297040259448 M787.7544018090797,487.32588080164624 L774.4700972639533,480.3690327761918 M788.255124634432,486.6756931910457 L774.9702932008705,479.7207697036471 M889.8263270876351,255.64220808421425 L876.1205460143141,249.1612495454989 M566.6930412421763,469.7619860382867 L552.7369084052675,462.19407628639954 M549.9046965506016,660.5996093624412 L536.4780132394723,652.8094120444528" stroke="black"  stroke-width="4"  fill="red"/>
<path d="M758.844597050998,663.4970487295866 L760.2523028625648,652.4740432236883 M760.2523028625648,652.4740432236883 L760.3986222469688,652.5745480499131 M760.3986222469688,652.5745480499131 L760.506939279354,652.6909871851042 M760.506939279354,652.6909871851042 L760.5709919218549,652.8166028354588 M760.5709919218549,652.8166028354588 L760.5870118588629,652.9440693753866 M760.5870118588629,652.9440693753866 L760.554094418727,653.0660187742483 M760.554094418727,653.0660187742483 L760.4741090614378,653.1753207939682 M760.4741090614378,653.1753207939682 L760.3517423826303,653.2656380697963 M760.3517423826303,653.2656380697963 L760.194088617534,653.3317300589415 M760.194088617534,653.3317300589415 L760.0102780851411,653.3697285319931 M760.0102780851411,653.3697285319931 L759.8110660646572,653.3774415485861 M759.8110660646572,653.3774415485861 L759.6079690009295,653.3544055309749 M759.6079690009295,653.3544055309749 L759.4128428440443,653.3019825921003 M759.4128428440443,653.3019825921003 L759.2370171941517,653.2232000610752 M759.2370171941517,653.2232000610752 L759.0907049790945,653.122652477819 M759.0907049790945,653.122652477819 L758.9824266941861,653.0061803800024 M758.9824266941861,653.0061803800024 L758.9184765727163,652.8805719765517 M758.9184765727163,652.8805719765517 L758.9025266976129,652.7531107437053 M758.9025266976129,652.7531107437053 L758.9355067849546,652.631186363574 M758.9355067849546,652.631186363574 L759.0155329973092,652.521923335554 M759.0155329973092,652.521923335554 L759.1379093961665,652.4316500938412 M759.1379093961665,652.4316500938412 L759.2955395211908,652.3655971009744 M759.2955395211908,652.3655971009744 L759.4792984499951,652.3276236393881 M759.4792984499951,652.3276236393881 L759.6784427517024,652.319915930643 M759.6784427517024,652.319915930643 L759.8814304008523,652.342913471969 M759.8814304008523,652.342913471969 L760.0765032588018,652.3953034519225 M760.0765032588018,652.3953034519225 L760.2523028625648,652.4740432236883 M758.844597050998,663.4970487295866 L758.6692010108626,663.4181894524772 M758.6692010108626,663.4181894524772 L758.4745598326787,663.3657199542117 M758.4745598326787,663.3657199542117 L758.2720068572277,663.3426875056764 M758.2720068572277,663.3426875056764 L758.0732750655812,663.3504069137794 M758.0732750655812,663.3504069137794 L757.8898825836364,663.3884380132381 M757.8898825836364,663.3884380132381 L757.7325514116309,663.4545912596711 M757.7325514116309,663.4545912596711 L757.6103891866909,663.5450015061497 M757.6103891866909,663.5450015061497 L757.5304799457291,663.6544303441576 M757.5304799457291,663.6544303441576 L757.497512717884,663.7765397289254 M757.497512717884,663.7765397289254 L757.5133706685004,663.9041943460627 M757.5133706685004,663.9041943460627 L757.5771294088844,664.0299933008789 M757.5771294088844,664.0299933008789 L757.6851278670541,664.1466420706904 M757.6851278670541,664.1466420706904 L757.8310880772946,664.2473421556924 M757.8310880772946,664.2473421556924 L758.0065100351813,664.3262441674494 M758.0065100351813,664.3262441674494 L758.2012042746497,664.3787466056644 M758.2012042746497,664.3787466056644 L758.4038662758543,664.4018175561837 M758.4038662758543,664.4018175561837 L758.6026655060033,664.394092843288 M758.6026655060033,664.394092843288 L758.786109387591,664.3560367467605 M758.786109387591,664.3560367467605 L758.9434641188878,664.2898445264955 M758.9434641188878,664.2898445264955 L759.0656166845835,664.1993902712472 M759.0656166845835,664.1993902712472 L759.1454852589512,664.0899224639829 M759.1454852589512,664.0899224639829 L759.1783901126215,663.9677880748852 M759.1783901126215,663.9677880748852 L759.1624623950332,663.840128153721 M759.1624623950332,663.840128153721 L759.0986014793181,663.7143219083268 M759.0986014793181,663.7143219083268 L758.9905644202939,663.5977060821679 M758.9905644202939,663.5977060821679 L758.844597050998,663.4970487295866 M761.0134399029411,651.9124170373584 L761.3792645742593,652.1636161177205 M761.3792645742593,652.1636161177205 L761.6501208359238,652.4546321780801 M761.6501208359238,652.4546321780801 L761.8103509597546,652.7686277405192 M761.8103509597546,652.7686277405192 L761.8505411140223,653.087324050168 M761.8505411140223,653.087324050168 L761.7683316662775,653.3922158864636 M761.7683316662775,653.3922158864636 L761.5684732278349,653.6655497970467 M761.5684732278349,653.6655497970467 L761.2625515594592,653.8914427618547 M761.2625515594592,653.8914427618547 L760.8683600146552,654.056728750633 M760.8683600146552,654.056728750633 L760.408785728638,654.1517890316454 M760.408785728638,654.1517890316454 L759.9105964552485,654.171078674236 M759.9105964552485,654.171078674236 L759.4027499960868,654.1134678940607 M759.4027499960868,654.1134678940607 L758.9148667900516,653.9823515574953 M758.9148667900516,653.9823515574953 L758.4752255309189,653.7853092791315 M758.4752255309189,653.7853092791315 L758.1094867549838,653.5338658246094 M758.1094867549838,653.5338658246094 L757.8388315735655,653.2426208919844 M757.8388315735655,653.2426208919844 L757.6790265538272,652.9285505933437 M757.6790265538272,652.9285505933437 L757.6392743192442,652.6098874592169 M757.6392743192442,652.6098874592169 L757.721875266552,652.3051519776179 M757.721875266552,652.3051519776179 L757.9219890711548,652.032061768231 M757.9219890711548,652.032061768231 L758.227971494873,651.8064440392845 M758.227971494873,651.8064440392845 L758.622015262643,651.6414017532395 M758.622015262643,651.6414017532395 L759.0812670753477,651.5464978228663 M759.0812670753477,651.5464978228663 L759.5790330739056,651.5272413497423 M759.5790330739056,651.5272413497423 L760.0864113405981,651.5847316659001 M760.0864113405981,651.5847316659001 L760.5740025183051,651.7156648583839 M760.5740025183051,651.7156648583839 L761.0134399029411,651.9124170373584 M761.1791095214957,650.6164711039517 L761.5450377027622,650.8676250928002 M761.5450377027622,650.8676250928002 L761.8159763261195,651.1585889270041 M761.8159763261195,651.1585889270041 L761.9762628963459,651.472528154653 M761.9762628963459,651.472528154653 L762.0164802665187,651.791167302378 M762.0164802665187,651.791167302378 L761.9342672083031,652.0960044680564 M761.9342672083031,652.0960044680564 L761.7343745260863,652.3692893794503 M761.7343745260863,652.3692893794503 L761.4283899583016,652.5951418586508 M761.4283899583016,652.5951418586508 L761.034110514103,652.7603982292983 M761.034110514103,652.7603982292983 L760.5744284341312,652.8554414781447 M760.5744284341312,652.8554414781447 L760.076117756986,652.8747276647439 M760.076117756986,652.8747276647439 L759.5681433494352,652.8171272064699 M759.5681433494352,652.8171272064699 L759.0801331239037,652.6860343635058 M759.0801331239037,652.6860343635058 L758.6403731423846,652.4890273966498 M758.6403731423846,652.4890273966498 L758.2745308753587,652.2376290118311 M758.2745308753587,652.2376290118311 L758.0037934287412,651.9464362958113 M758.0037934287412,651.9464362958113 L757.8439321573672,651.6324223213919 M757.8439321573672,651.6324223213919 L757.8041529238873,651.3138163513877 M757.8041529238873,651.3138163513877 L757.8867576825452,651.0091355507673 M757.8867576825452,651.0091355507673 L758.0869058696397,650.7360943567185 M758.0869058696397,650.7360943567185 L758.3929512375583,650.510517131619 M758.3929512375583,650.510517131619 L758.7870828453239,650.3455044798545 M758.7870828453239,650.3455044798545 L759.2464423019925,650.250617592008 M759.2464423019925,650.250617592008 L759.744329498095,650.2313645770735 M759.744329498095,650.2313645770735 L760.2518354866507,650.2888445689632 M760.2518354866507,650.2888445689632 L760.7395535203096,650.4197542500931 M760.7395535203096,650.4197542500931 L761.1791095214957,650.6164711039517 M761.1791095214957,650.6164711039517 L761.0134399029411,651.9124170373584" stroke="black"  stroke-width="4"  fill="red"/>
<path d="M96.68799999191981,383.90174578026404 L-69.07295061616139,480.01073661319964 M96.68799999191981,383.90174578026404 L86.49219082290801,378.01519392005173 M-79.25738127527603,473.71075398900365 L86.49219082290801,378.01519392005173 M-69.07295061616139,480.01073661319964 L-79.25738127527603,473.71075398900365 M-69.07295061616139,480.01073661319964 L-73.89035060252161,311.2912427926432 M-73.89035060252161,311.2912427926432 L-62.67806600523136,305.1774635259667 M-62.67806600523136,305.1774635259667 L-67.43395097936502,125.89768605995675 M-67.43395097936502,125.89768605995675 L261.5693937020709,-41.43733193981626 M261.5693937020709,-41.43733193981626 L261.25480533653695,-34.18667938115868 M261.25480533653695,-34.18667938115868 L260.73459036568875,-26.85729980686864 M260.73459036568875,-26.85729980686864 L260.0100958530347,-19.458435866490277 M260.0100958530347,-19.458435866490277 L259.08289106861423,-11.999413876807125 M259.08289106861423,-11.999413876807125 L257.95472971404376,-4.489550154148446 M257.95472971404376,-4.489550154148446 L256.6275769998947,3.0619081937615533 M256.6275769998947,3.0619081937615533 L255.10359543681693,10.645640753716009 M255.10359543681693,10.645640753716009 L253.38515487259917,18.252382277801644 M253.38515487259917,18.252382277801644 L251.4747996461025,25.872911016811884 M251.4747996461025,25.872911016811884 L249.37528031920158,33.49800382760344 M249.37528031920158,33.49800382760344 L247.0895034132899,41.11851437320604 M247.0895034132899,41.11851437320604 L244.62061267061654,48.72528208932977 M244.62061267061654,48.72528208932977 L241.97185965306164,56.30925188036065 M241.97185965306164,56.30925188036065 L239.14670188541686,63.86137451620533 M239.14670188541686,63.86137451620533 L236.14875347694056,71.37272419834079 M236.14875347694056,71.37272419834079 L232.98180560346225,78.83438016393654 M232.98180560346225,78.83438016393654 L229.64980207201916,86.23753145780609 M229.64980207201916,86.23753145780609 L226.15685102459372,93.57342341996872 M226.15685102459372,93.57342341996872 L222.50721095166568,100.83339757686059 M222.50721095166568,100.83339757686059 L218.70528611805105,108.00888710844453 M218.70528611805105,108.00888710844453 L214.75563883781138,115.09138391047952 M214.75563883781138,115.09138391047952 L210.66297620068497,122.07249871478234 M210.66297620068497,122.07249871478234 L206.4321385440121,128.943961293756 M206.4321385440121,128.943961293756 L202.06811274576182,135.69758806826525 M202.06811274576182,135.69758806826525 L197.5760284885659,142.32531843821016 M197.5760284885659,142.32531843821016 L192.96113216167385,148.8191848354913 M192.96113216167385,148.8191848354913 L188.22882326192968,155.17136763234697 M188.22882326192968,155.17136763234697 L183.38461296115713,161.3741547663709 M183.38461296115713,161.3741547663709 L178.43414526467149,167.41998612858976 M178.43414526467149,167.41998612858976 L178.45642862994077,167.48016661901622 M178.45642862994077,167.48016661901622 L178.4636727352909,167.5532260810476 M178.4636727352909,167.5532260810476 L178.45544717741217,167.63491487076686 M178.45544717741217,167.63491487076686 L178.4322464785365,167.72050036265327 M178.4322464785365,167.72050036265327 L178.39539780038177,167.80499390495808 M178.39539780038177,167.80499390495808 L178.34706366318449,167.88348337806855 M178.34706366318449,167.88348337806855 L178.29003654871184,167.95140198601422 M178.29003654871184,167.95140198601422 L178.22763755882949,168.00483885983485 M178.22763755882949,168.00483885983485 L178.16348933415918,168.04066253605515 M178.16348933415918,168.04066253605515 L178.10131890721362,168.0567856253596 M178.10131890721362,168.0567856253596 L178.0447467829125,168.05227977120046 M178.0447467829125,168.05227977120046 L177.99704500857092,168.02740922160595 M177.99704500857092,168.02740922160595 L177.96100067311897,167.98360705166263 M177.96100067311897,167.98360705166263 L172.99353529137522,174.0505501781385 M172.99353529137522,174.0505501781385 L168.12528068250907,180.28496251285216 M168.12528068250907,180.28496251285216 L163.3639934641633,186.67726114641337 M163.3639934641633,186.67726114641337 L158.71722382707208,193.21762513402777 M158.71722382707208,193.21762513402777 L154.192349801741,199.89590173940144 M154.192349801741,199.89590173940144 L149.79653618730708,206.70172153992158 M149.79653618730708,206.70172153992158 L145.5367445349358,213.6244487279022 M145.5367445349358,213.6244487279022 L141.41968098558664,220.65325454319824 M141.41968098558664,220.65325454319824 L137.45181851803056,227.77712096892745 M137.45181851803056,227.77712096892745 L133.63935844710926,234.98484901829278 M133.63935844710926,234.98484901829278 L129.98823467208751,242.26512231655022 M129.98823467208751,242.26512231655022 L126.50408448946916,249.60648198439105 M126.50408448946916,249.60648198439105 L123.19224978976911,256.99739272045787 M123.19224978976911,256.99739272045787 L120.0577630827795,264.42622970502026 M120.0577630827795,264.42622970502026 L117.10533764372263,271.88134156335923 M117.10533764372263,271.88134156335923 L114.33935254072122,279.3510482210771 M114.33935254072122,279.3510482210771 L111.7638605043104,286.8236942244868 M111.7638605043104,286.8236942244868 L109.38256202958001,294.2876046871133 M109.38256202958001,294.2876046871133 L107.19881415039424,301.7312205252686 M107.19881415039424,301.7312205252686 L105.21561879100216,309.1430126827678 M105.21561879100216,309.1430126827678 L103.43562021897208,316.5115702674118 M103.43562021897208,316.5115702674118 L101.86110298484516,323.82560118732073 M101.86110298484516,323.82560118732073 L100.49398906873068,331.0739668000832 M100.49398906873068,331.0739668000832 L99.335838034625,338.24568101055144 M99.335838034625,338.24568101055144 L98.38784712324741,345.32995703607554 M98.38784712324741,345.32995703607554 L97.65085119131203,352.3162083728323 M97.65085119131203,352.3162083728323 L97.12532614989618,359.19407845209844 M97.12532614989618,359.19407845209844 L96.81139120800759,365.9534514179337 M96.81139120800759,365.9534514179337 L96.70881269868329,372.5844757694805 M96.70881269868329,372.5844757694805 L96.68799999191981,383.90174578026404 M96.70881269868329,372.5844757694805 L86.49219191075673,366.7099374816967 M86.49219191075673,366.7099374816967 L86.49219082290801,378.01519392005173 M86.49219191075673,366.7099374816967 L86.58267272324696,360.0861628312452 M86.58267272324696,360.0861628312452 L86.8844978670308,353.3345955871308 M86.8844978670308,353.3345955871308 L87.39791796894838,346.46507613038733 M87.39791796894838,346.46507613038733 L88.12283101752655,339.48770800449165 M88.12283101752655,339.48770800449165 L89.05877850089803,332.41283429889234 M89.05877850089803,332.41283429889234 L90.20494315162756,325.25102688811376 M90.20494315162756,325.25102688811376 L91.56014545961591,318.01305681250716 M91.56014545961591,318.01305681250716 L93.12284373947745,310.7098933258489 M93.12284373947745,310.7098933258489 L94.89113395853525,303.35265719562454 M94.89113395853525,303.35265719562454 L96.86274958976958,295.95262162015007 M96.86274958976958,295.95262162015007 L99.03506440874162,288.52117764033915 M99.03506440874162,288.52117764033915 L101.40509455791545,281.0698335266259 M101.40509455791545,281.0698335266259 L103.9695009351833,273.61012676562046 M103.9695009351833,273.61012676562046 L106.7246010128946,266.1537097815753 M106.7246010128946,266.1537097815753 L109.66635980306796,258.71221485899076 M109.66635980306796,258.71221485899076 L112.79041586085242,251.29729821585505 M112.79041586085242,251.29729821585505 L116.09207330355918,243.9205867531502 M116.09207330355918,243.9205867531502 L119.56631679693936,236.59368024770185 M119.56631679693936,236.59368024770185 L123.20782129536701,229.3280885020888 M123.20782129536701,229.3280885020888 L127.01096604676667,222.13524447509673 M127.01096604676667,222.13524447509673 L130.96983326174376,215.02643829718124 M130.96983326174376,215.02643829718124 L135.07823736695212,208.01284243333777 M135.07823736695212,208.01284243333777 L139.3297206214815,201.10544819041633 M139.3297206214815,201.10544819041633 L143.7175916306275,194.31505752956753 M143.7175916306275,194.31505752956753 L148.23490305244644,187.65227935858695 M148.23490305244644,187.65227935858695 L152.87450366370967,181.12745629530664 M152.87450366370967,181.12745629530664 L157.6290284421188,174.75071431167174 M157.6290284421188,174.75071431167174 L162.4909394502592,168.53184785114667 M162.4909394502592,168.53184785114667 L167.4524916891554,162.4804134349235 M167.4524916891554,162.4804134349235 L167.48865754887947,162.52422577066437 M167.48865754887947,162.52422577066437 L167.53645819960929,162.54914833854147 M167.53645819960929,162.54914833854147 L167.59310081398985,162.55374499839627 M167.59310081398985,162.55374499839627 L167.65530926118203,162.53774625196672 M167.65530926118203,162.53774625196672 L167.71946080179072,162.50207322515956 M167.71946080179072,162.50207322515956 L167.781828220592,162.44880454665687 M167.781828220592,162.44880454665687 L167.83879076260183,162.38106188158667 M167.83879076260183,162.38106188158667 L167.88703100129823,162.3027459057992 M167.88703100129823,162.3027459057992 L167.92376193849418,162.21841335636444 M167.92376193849418,162.21841335636444 L167.9468278759345,162.1329669614588 M167.9468278759345,162.1329669614588 L167.9549095346922,162.05138730998962 M167.9549095346922,162.05138730998962 L167.94752071055495,161.97840067543058 M167.94752071055495,161.97840067543058 L167.92510023619474,161.918252481143 M250.75851677078435,-46.54939704460685 L250.45737612807966,-39.308423863390374 M250.45737612807966,-39.308423863390374 L249.95052444491046,-31.989108203311105 M249.95052444491046,-31.989108203311105 L249.23929136408242,-24.600680757103873 M249.23929136408242,-24.600680757103873 L248.3252289807691,-17.15245564127514 M248.3252289807691,-17.15245564127514 L247.2100742084615,-9.653736892851043 M247.2100742084615,-9.653736892851043 L245.89577600415282,-2.1137592776186125 M245.89577600415282,-2.1137592776186125 L244.38448087588438,5.4581693656236325 M244.38448087588438,5.4581693656236325 L242.67854317844456,13.052796467170594 M242.67854317844456,13.052796467170594 L240.78049220953278,20.66091303845036 M240.78049220953278,20.66091303845036 L238.69306389354063,28.27330890145413 M238.69306389354063,28.27330890145413 L236.41915060951828,35.880850728943585 M236.41915060951828,35.880850728943585 L233.96188237155127,43.474391269874786 M233.96188237155127,43.474391269874786 L231.32449750577814,51.04488870798099 M231.32449750577814,51.04488870798099 L228.51044071415834,58.583307355108275 M228.51044071415834,58.583307355108275 L225.5233138595852,66.08073501268223 M225.5233138595852,66.08073501268223 L222.36689624292717,73.5282647693511 M222.36689624292717,73.5282647693511 L219.04512033375556,80.9170996242807 M219.04512033375556,80.9170996242807 L215.5620833805947,88.2384990754224 M215.5620833805947,88.2384990754224 L211.92203347797602,95.48381895719427 M211.92203347797602,95.48381895719427 L208.12936497169994,102.64450692243429 M208.12936497169994,102.64450692243429 L204.18863067800964,109.71206958059821 M204.18863067800964,109.71206958059821 L200.1045287004497,116.67813254119784 M200.1045287004497,116.67813254119784 L195.88189088040457,123.53444061514426 M195.88189088040457,123.53444061514426 L191.52569603475268,130.27282549855704 M191.52569603475268,130.27282549855704 L187.0410662742566,136.88524206958908 M187.0410662742566,136.88524206958908 L182.4332408097901,143.36373844736823 M182.4332408097901,143.36373844736823 L177.7076124862569,149.7005109112327 M177.7076124862569,149.7005109112327 L172.8696862167498,155.8878635169032 M172.8696862167498,155.8878635169032 L167.92510023619474,161.918252481143 M250.75851677078435,-46.54939704460685 L-78.24642175515976,120.03447137273861 M-73.1679244175964,299.0912198143609 L-78.24642175515976,120.03447137273861 M-73.1679244175964,299.0912198143609 L-84.37857826116812,305.1774598614649 M-79.25738127527603,473.71075398900365 L-84.37857826116812,305.1774598614649 M-84.37857826116812,305.1774598614649 L-73.89035060252161,311.2912427926432 M177.96100067311897,167.98360705166263 L167.4524916891554,162.4804134349235 M178.43414526467149,167.41998612858976 L167.92510023619474,161.918252481143 M261.5693937020709,-41.43733193981626 L250.75851677078435,-46.54939704460685 M-67.43395097936502,125.89768605995675 L-78.24642175515976,120.03447137273861 M-62.67806600523136,305.1774635259667 L-73.1679244175964,299.0912198143609" stroke="black"  stroke-width="4"  fill="red"/>
<path d="M170.89806420337027,335.0666250488551 L171.05578692919977,324.61497373922253 M171.05578692919977,324.61497373922253 L171.1690435764791,324.6950288889612 M171.1690435764791,324.6950288889612 L171.2456392853819,324.7877779022051 M171.2456392853819,324.7877779022051 L171.28113047883528,324.8878263521716 M171.28113047883528,324.8878263521716 L171.27345353405815,324.98935898988225 M171.27345353405815,324.98935898988225 L171.22303174892295,325.08648459934204 M171.22303174892295,325.08648459934204 L171.1328075276885,325.1735485167161 M171.1328075276885,325.1735485167161 L171.00802588565028,325.24548620825647 M171.00802588565028,325.24548620825647 L170.85592183120912,325.2981239044301 M170.85592183120912,325.2981239044301 L170.68534125870184,325.32839794107423 M170.68534125870184,325.32839794107423 L170.5062163603232,325.33453816001764 M170.5062163603232,325.33453816001764 L170.32894489881306,325.31619784967523 M170.32894489881306,325.31619784967523 L170.16383671902344,325.2744418834518 M170.16383671902344,325.2744418834518 L170.02050125203766,325.2116926535325 M170.02050125203766,325.2116926535325 L169.9072574055482,325.1316073935822 M169.9072574055482,325.1316073935822 L169.8306976322308,325.0388349475071 M169.8306976322308,325.0388349475071 L169.79525778357976,324.93877539678743 M169.79525778357976,324.93877539678743 L169.8029897197324,324.83724653239443 M169.8029897197324,324.83724653239443 L169.8534575491363,324.74013870675884 M169.8534575491363,324.74013870675884 L169.9437083156214,324.6531025089359 M169.9437083156214,324.6531025089359 L170.068490924174,324.581196120391 M170.068490924174,324.581196120391 L170.2205701450987,324.52858614348764 M170.2205701450987,324.52858614348764 L170.39110577156805,324.4983298920123 M170.39110577156805,324.4983298920123 L170.5701759115194,324.49219344441343 M170.5701759115194,324.49219344441343 L170.74739534274056,324.51052265432185 M170.74739534274056,324.51052265432185 L170.91246613998652,324.5522551899651 M170.91246613998652,324.5522551899651 L171.05578692919977,324.61497373922253 M170.89806420337027,335.0666250488551 L170.7550143469685,335.0037830828556 M170.7550143469685,335.0037830828556 L170.59025382545013,334.96196842348087 M170.59025382545013,334.96196842348087 L170.4133659721556,334.94360314352224 M170.4133659721556,334.94360314352224 L170.2346294533254,334.94975166708707 M170.2346294533254,334.94975166708707 L170.06441015085875,334.9800674593338 M170.06441015085875,334.9800674593338 L169.9126115603296,335.03278096353756 M169.9126115603296,335.03278096353756 L169.78805757971526,335.1048288452233 M169.78805757971526,335.1048288452233 L169.6979701819448,335.19203629823295 M169.6979701819448,335.19203629823295 L169.6475909521332,335.2893351840319 M169.6475909521332,335.2893351840319 L169.63986765322835,335.3910637931586 M169.63986765322835,335.3910637931586 L169.6752356905953,335.4913201840803 M169.6752356905953,335.4913201840803 L169.75164735498413,335.58427512265956 M169.75164735498413,335.58427512265956 L169.86467537198473,335.664517908669 M169.86467537198473,335.664517908669 L170.0077398506437,335.7273905588791 M170.0077398506437,335.7273905588791 L170.1725376140298,335.769228651138 M170.1725376140298,335.769228651138 L170.34947730305015,335.78760503262225 M170.34947730305015,335.78760503262225 L170.52826837642942,335.78145273734197 M170.52826837642942,335.78145273734197 L170.69853245843268,335.7511191581777 M170.69853245843268,335.7511191581777 L170.8503557915098,335.69837793197775 M170.8503557915098,335.69837793197775 L170.97490881100822,335.6262987442184 M170.97490881100822,335.6262987442184 L171.06496976405737,335.53906356893197 M171.06496976405737,335.53906356893197 L171.11530312223618,335.4417468975599 M171.11530312223618,335.4417468975599 L171.12297163494463,335.34001451474455 M171.12297163494463,335.34001451474455 L171.08755244350976,335.23976922566766 M171.08755244350976,335.23976922566766 L171.01110497612927,335.1468377222238 M171.01110497612927,335.1468377222238 L170.89806420337027,335.0666250488551 M171.83195339535132,324.16760619495653 L172.11510987812284,324.36769151624185 M172.11510987812284,324.36769151624185 L172.3066780821935,324.5995131589306 M172.3066780821935,324.5995131589306 L172.39550652207902,324.849611339044 M172.39550652207902,324.849611339044 L172.37640466511317,325.1034564112577 M172.37640466511317,325.1034564112577 L172.25044497211752,325.34629951891765 M172.25044497211752,325.34629951891765 L172.02494238058614,325.5640068957117 M172.02494238058614,325.5640068957117 L171.71296641262393,325.74392351663926 M171.71296641262393,325.74392351663926 L171.33266734797354,325.8755650691926 M171.33266734797354,325.8755650691926 L170.90613899352513,325.95127869303064 M170.90613899352513,325.95127869303064 L170.45821293546624,325.9666435786647 M170.45821293546624,325.9666435786647 L170.01494036968148,325.9207695524277 M170.01494036968148,325.9207695524277 L169.60211191127905,325.81632898087554 M169.60211191127905,325.81632898087554 L169.24373903919968,325.6594035748235 M169.24373903919968,325.6594035748235 L168.96065988588612,325.4591285671661 M168.96065988588612,325.4591285671661 L168.7693157557277,325.2271601894628 M168.7693157557277,325.2271601894628 L168.68080872940953,324.97699291358134 M168.68080872940953,324.97699291358134 L168.7002540354153,324.72317128247096 M168.7002540354153,324.72317128247096 L168.8265015014262,324.4804393217112 M168.8265015014262,324.4804393217112 L169.0521700008867,324.26290518717906 M169.0521700008867,324.26290518717906 L169.36415201004604,324.08318422489623 M169.36415201004604,324.08318422489623 L169.7442958648155,323.9517159125255 M169.7442958648155,323.9517159125255 L170.17054330989384,323.8761134388952 M170.17054330989384,323.8761134388952 L170.61812737514487,323.86077227749786 M170.61812737514487,323.86077227749786 L171.0610742429066,323.9065766377878 M171.0610742429066,323.9065766377878 L171.47366958376665,324.0108710433022 M171.47366958376665,324.0108710433022 L171.83195339535132,324.16760619495653 M171.85066032173268,322.9391496929589 L172.13388025380885,323.139188534582 M172.13388025380885,323.139188534582 L172.3254920562764,323.37095633334945 M172.3254920562764,323.37095633334945 L172.41434170175762,323.6209964342583 M172.41434170175762,323.6209964342583 L172.3952374130464,323.87478256744515 M172.3952374130464,323.87478256744515 L172.26925177760899,324.1175693002832 M172.26925177760899,324.1175693002832 L172.04370123389657,324.3352261454651 M172.04370123389657,324.3352261454651 L171.73165807981832,324.51510101207646 M171.73165807981832,324.51510101207646 L171.3512765036656,324.6467120170976 M171.3512765036656,324.6467120170976 L170.92465510878134,324.72240807279053 M170.92465510878134,324.72240807279053 L170.47663090315473,324.73776939335926 M170.47663090315473,324.73776939335926 L170.03326079733978,324.69190601123853 M170.03326079733978,324.69190601123853 L169.6203410876726,324.58748967421894 M169.6203410876726,324.58748967421894 L169.26188856500147,324.4306006846552 M169.26188856500147,324.4306006846552 L168.9787459949012,324.23037215906004 M168.9787459949012,324.23037215906004 L168.78735836373755,323.99845762724533 M168.78735836373755,323.99845762724533 L168.69883027220794,323.7483484314031 M168.69883027220794,323.7483484314031 L168.7182781608024,323.4945857390464 M168.7182781608024,323.4945857390464 L168.8445516962184,323.2519101516655 M168.8445516962184,323.2519101516655 L169.07026822179654,323.03442654649655 M169.07026822179654,323.03442654649655 L169.38231742104654,322.85474733598977 M169.38231742104654,322.85474733598977 L169.76254372042035,322.7233095689022 M169.76254372042035,322.7233095689022 L170.1888840834872,322.6477246619742 M170.1888840834872,322.6477246619742 L170.63656614642065,322.63238706530296 M170.63656614642065,322.63238706530296 L171.07961041100958,322.6781807824434 M171.07961041100958,322.6781807824434 L171.49229689979256,322.78245095526034 M171.49229689979256,322.78245095526034 L171.85066032173268,322.9391496929589 M171.85066032173268,322.9391496929589 L171.83195339535132,324.16760619495653" stroke="black"  stroke-width="4"  fill="red"/>
<path d="M-73.1679244175964,299.0912198143609 L-84.37857826116812,305.1774598614649 M-84.37857826116812,305.1774598614649 L-89.82632708763515,125.89768252948625 M-78.24642175515976,120.03447137273861 L-89.82632708763515,125.89768252948625 M-73.1679244175964,299.0912198143609 L-78.24642175515976,120.03447137273861 M-69.07295061616139,480.01073661319964 L-23.21169099169873,508.38003367344123 M-23.21169099169873,508.38003367344123 L-23.45534431784978,496.34219412250724 M-23.45534431784978,496.34219412250724 L29.81496247981164,529.1598281313245 M29.941984948337222,541.2603434367247 L29.81496247981164,529.1598281313245 M29.941984948337222,541.2603434367247 L266.8641813242149,687.8179439952357 M266.8641813242149,687.8179439952357 L267.28959136468734,675.4581306120165 M267.28959136468734,675.4581306120165 L327.40142823918677,712.4905484961134 M326.82776186878573,724.9107897477163 L327.40142823918677,712.4905484961134 M326.82776186878573,724.9107897477163 L510.525375861518,838.5442185564978 M510.525375861518,838.5442185564978 L525.3500399862107,660.5996093624412 M525.3500399862107,660.5996093624412 L538.7826096969825,668.4297040259448 M538.7826096969825,668.4297040259448 L555.211510718481,477.3700625627283 M-89.82632708763515,125.89768252948625 L555.211510718481,477.3700625627283 M-84.37857826116812,305.1774598614649 L-73.89035060252161,311.2912427926432 M-69.07295061616139,480.01073661319964 L-73.89035060252161,311.2912427926432 M549.9046965506016,660.5996093624412 L536.4780132394723,652.8094120444528 M521.3148668822624,830.5784550547444 L536.4780132394723,652.8094120444528 M521.3148668822624,830.5784550547444 L337.67563008768786,717.4940559678676 M337.67563008768786,717.4940559678676 L338.2737619011165,705.0857293002045 M338.2737619011165,705.0857293002045 L278.1741925200056,668.2284230039959 M277.7242302065423,680.5761938142566 L278.1741925200056,668.2284230039959 M277.7242302065423,680.5761938142566 L40.817055298594596,534.6895849311904 M40.817055298594596,534.6895849311904 L40.71469046049634,522.6014627698466 M40.71469046049634,522.6014627698466 L-12.559530416179712,489.9299428777149 M-12.340508654517123,501.9553431564638 L-12.559530416179712,489.9299428777149 M-12.340508654517123,501.9553431564638 L-58.207260803198096,473.7107577653665 M-58.207260803198096,473.7107577653665 L-62.67806600523136,305.1774635259667 M-62.67806600523136,305.1774635259667 L-73.1679244175964,299.0912198143609 M566.6930412421763,469.7619860382867 L-78.24642175515976,120.03447137273861 M549.9046965506016,660.5996093624412 L566.6930412421763,469.7619860382867 M-69.07295061616139,480.01073661319964 L-58.207260803198096,473.7107577653665 M-73.89035060252161,311.2912427926432 L-62.67806600523136,305.1774635259667 M-12.340508654517123,501.9553431564638 L-23.21169099169873,508.38003367344123 M-12.559530416179712,489.9299428777149 L-23.45534431784978,496.34219412250724 M29.941984948337222,541.2603434367247 L40.817055298594596,534.6895849311904 M29.81496247981164,529.1598281313245 L40.71469046049634,522.6014627698466 M277.7242302065423,680.5761938142566 L266.8641813242149,687.8179439952357 M278.1741925200056,668.2284230039959 L267.28959136468734,675.4581306120165 M326.82776186878573,724.9107897477163 L337.67563008768786,717.4940559678676 M327.40142823918677,712.4905484961134 L338.2737619011165,705.0857293002045 M521.3148668822624,830.5784550547444 L510.525375861518,838.5442185564978 M536.4780132394723,652.8094120444528 L525.3500399862107,660.5996093624412 M538.7826096969825,668.4297040259448 L549.9046965506016,660.5996093624412 M555.211510718481,477.3700625627283 L566.6930412421763,469.7619860382867" stroke="black"  stroke-width="4"  fill="red"/></svg>