<svg viewBox="0 0 800 800" xmlns="http://www.w3.org/2000/svg"><path d="M552.5960112794837,575.5000462977235 L552.5960185963592,575.4999118186851 M552.5948832411648,575.5007820588022 L552.5948905580278,575.5006475797566 M552.5960112794837,575.5000462977235 L552.5948832411648,575.5007820588022 M552.5960185963592,575.4999118186851 L552.5948905580278,575.5006475797566 M541.3023175001675,582.8663388924072 L541.3023246923917,582.8662043415943 M552.5948832411648,575.5007820588022 L541.3023175001675,582.8663388924072 M552.5948905580278,575.5006475797566 L541.3023246923917,582.8662043415943 M-79.4476724897836,223.67804872377206 L-79.44767261585537,223.67791791140422 M541.3023175001675,582.8663388924072 L-79.4476724897836,223.67804872377206 M541.3023246923917,582.8662043415943 L-79.44767261585537,223.67791791140422 M-68.1126870820001,217.1337918473278 L-68.11268708198747,217.13366110759296 M-79.4476724897836,223.67804872377206 L-68.1126870820001,217.1337918473278 M-79.44767261585537,223.67791791140422 L-68.11268708198747,217.13366110759296 M-47.35073340679725,229.12070872684927 L-47.35073317562632,229.1205778541978 M-68.1126870820001,217.1337918473278 L-47.35073340679725,229.12070872684927 M-68.11268708198747,217.13366110759296 L-47.35073317562632,229.1205778541978 M-46.49890814009257,229.61382033499962 L-46.49890789941742,229.61368945689196 M-47.35073340679725,229.12070872684927 L-47.06705764577396,229.28521679915252 M-47.06705764577396,229.28521679915252 L-46.78311661351648,229.4495869258248 M-46.78311661351648,229.4495869258248 L-46.49890814009257,229.61382033499962 M-47.35073317562632,229.1205778541978 L-47.06705741143804,229.28508592468074 M-47.06705741143804,229.28508592468074 L-46.78311637601263,229.4494560495342 M-46.78311637601263,229.4494560495342 L-46.49890789941742,229.61368945689196 M410.55812329023934,295.36400674279025 L410.5581286795373,295.36387514538865 M-46.49890814009257,229.61382033499962 L-34.314239796075356,236.3912032127178 M-34.314239796075356,236.3912032127178 L-21.67420813628121,242.91583408559302 M-21.67420813628121,242.91583408559302 L-8.596710212465325,249.17685637318658 M-8.596710212465325,249.17685637318658 L4.899493730628365,255.1637831091362 M4.899493730628365,255.1637831091362 L18.79483292027186,260.8665365109581 M18.79483292027186,260.8665365109581 L33.06893740445878,266.27546208374264 M33.06893740445878,266.27546208374264 L47.70068443292746,271.38135876386434 M47.70068443292746,271.38135876386434 L62.66820637417868,276.17548645009833 M62.66820637417868,276.17548645009833 L77.94897042171112,280.6496141640493 M77.94897042171112,280.6496141640493 L93.51980889887818,284.7960313784103 M93.51980889887818,284.7960313784103 L109.35692684850574,288.6075523799463 M109.35692684850574,288.6075523799463 L125.43596403798836,292.07754041470855 M125.43596403798836,292.07754041470855 L141.7321069161751,295.19996517054886 M141.7321069161751,295.19996517054886 L158.22003133216697,297.96935278814135 M158.22003133216697,297.96935278814135 L174.8740153696607,300.3808533244865 M174.8740153696607,300.3808533244865 L191.66799828850492,302.43022551673675 M191.66799828850492,302.43022551673675 L208.5755824986386,304.11385517299743 M208.5755824986386,304.11385517299743 L225.57016187768954,305.42878162939473 M225.57016187768954,305.42878162939473 L242.62489072794676,306.3726718400736 M242.62489072794676,306.3726718400736 L259.71283571351296,306.9438524776506 M259.71283571351296,306.9438524776506 L276.8069618200543,307.1413358680775 M276.8069618200543,307.1413358680775 L293.88021371716036,306.9647445683433 M293.88021371716036,306.9647445683433 L310.9055852357683,306.41441219777766 M310.9055852357683,306.41441219777766 L327.8561122920231,305.4912955225673 M327.8561122920231,305.4912955225673 L344.70508592872295,304.1970499207693 M344.70508592872295,304.1970499207693 L361.42590370653795,302.5339393007804 M361.42590370653795,302.5339393007804 L377.9922554595397,300.5049042398915 M377.9922554595397,300.5049042398915 L394.3781963213271,298.11352629117215 M394.3781963213271,298.11352629117215 L410.55812329023934,295.36400674279025 M-46.49890789941742,229.61368945689196 L-34.31423941929535,236.39107225971213 M-34.31423941929535,236.39107225971213 L-21.674207618024354,242.91570306064636 M-21.674207618024354,242.91570306064636 L-8.596709547562398,249.1767252793568 M-8.596709547562398,249.1767252793568 L4.899494547131326,255.16365194957717 M4.899494547131326,255.16365194957717 L18.794833893101497,260.8664052889158 M18.794833893101497,260.8664052889158 L33.06893853810209,266.2753308025498 M33.06893853810209,266.2753308025498 L47.70068573162041,271.38122742693633 M47.70068573162041,271.38122742693633 L62.66820784189508,276.17535506092804 M62.66820784189508,276.17535506092804 L77.94897206215171,280.64948272620194 M77.94897206215171,280.64948272620194 L93.51981071546174,284.79589989551897 M93.51981071546174,284.79589989551897 L109.35692884435844,288.6074208557062 M109.35692884435844,288.6074208557062 L125.43596621593588,292.0774088528725 M125.43596621593588,292.0774088528725 L141.7321092787348,295.19983357492157 M141.7321092787348,295.19983357492157 L158.22003388154064,297.9692211625742 M158.22003388154064,297.9692211625742 L174.87401810772758,300.38072167287214 M174.87401810772758,300.38072167287214 L191.6680012168173,302.43009384300393 M191.6680012168173,302.43009384300393 L208.57558561841654,304.1137234811054 M208.57558561841654,304.1137234811054 L225.5701651898171,305.4286499233277 M225.5701651898171,305.4286499233277 L242.62489423296915,306.37254012383534 M242.62489423296915,306.37254012383534 L259.71283941163506,306.943720755259 M259.71283941163506,306.943720755259 L276.806965711139,307.1412041435587 M276.806965711139,307.1412041435587 L293.8802178007295,306.96461284572666 M293.8802178007295,306.96461284572666 L310.90558951100274,306.4142804810898 M310.90558951100274,306.4142804810898 L327.8561167577643,305.49116381582655 M327.8561167577643,305.49116381582655 L344.7050905834774,304.1969182279802 M344.7050905834774,304.1969182279802 L361.4259085484797,302.53380762592855 M361.4259085484797,302.53380762592855 L377.9922604865143,300.5047725869379 M377.9922604865143,300.5047725869379 L394.3782015308591,298.1133946640472 M394.3782015308591,298.1133946640472 L410.5581286795373,295.36387514538865 M411.8688264365368,294.8887897756278 L411.86883184016085,294.8886581833665 M410.55812329023934,295.36400674279025 L410.514518983043,295.2515449921649 M410.514518983043,295.2515449921649 L410.51772321144074,295.1375206263852 M410.51772321144074,295.1375206263852 L410.56757932516746,295.0285184758859 M410.56757932516746,295.0285184758859 L410.6611638277626,294.93088690123415 M410.6611638277626,294.93088690123415 L410.79308097252476,294.850256732337 M410.79308097252476,294.850256732337 L410.955620101201,294.79131637346666 M410.955620101201,294.79131637346666 L411.1394462333161,294.7574743209897 M411.1394462333161,294.7574743209897 L411.3338666544797,294.7506957170344 M411.3338666544797,294.7506957170344 L411.5275906425135,294.77137972297356 M411.5275906425135,294.77137972297356 L411.70942560894537,294.8183186134935 M411.70942560894537,294.8183186134935 L411.8688264365368,294.8887897756278 M410.5581286795373,295.36387514538865 L410.51452437174805,295.2514133959797 M410.51452437174805,295.2514133959797 L410.5177286000787,295.1373890314334 M410.5177286000787,295.1373890314334 L410.5675847142684,295.028386882113 M410.5675847142684,295.028386882113 L410.66116921782896,294.9307553085174 M410.66116921782896,294.9307553085174 L410.7930863640031,294.8501251404925 M410.7930863640031,294.8501251404925 L410.95562549445594,294.79118478225973 M410.95562549445594,294.79118478225973 L411.13945162861,294.75734273014876 M411.13945162861,294.75734273014876 L411.33387205195595,294.7505641262668 M411.33387205195595,294.7505641262668 L411.5275960421892,294.7712481319823 M411.5275960421892,294.7712481319823 L411.709431010711,294.8181870219945 M411.709431010711,294.8181870219945 L411.86883184016085,294.8886581833665 M412.086301922596,295.08472925243746 L412.08630732884603,295.0845976580567 M411.8688264365368,294.8887897756278 L411.9586909055264,294.9474043741813 M411.9586909055264,294.9474043741813 L412.03181254316326,295.01329085281066 M412.03181254316326,295.01329085281066 L412.086301922596,295.08472925243746 M411.86883184016085,294.8886581833665 L411.9586963102154,294.94727278128596 M411.9586963102154,294.94727278128596 L412.0318179487348,295.0131592592025 M412.0318179487348,295.0131592592025 L412.08630732884603,295.0845976580567 M879.4476618275924,362.3116121113725 L879.4476726158555,362.31147979835544 M412.086301922596,295.08472925243746 L428.24985685547745,292.33800089492115 M428.24985685547745,292.33800089492115 L444.5932631399929,289.95316358602105 M444.5932631399929,289.95316358602105 L461.0964769714352,287.9326614299548 M461.0964769714352,287.9326614299548 L477.73941452359884,286.2786035862343 M477.73941452359884,286.2786035862343 L494.5018196009985,284.9926665914471 M494.5018196009985,284.9926665914471 L511.3633219205253,284.07617980361107 M511.3633219205253,284.07617980361107 L528.3034799283853,283.5300466269909 M528.3034799283853,283.5300466269909 L545.3018222852285,283.3548384101178 M545.3018222852285,283.3548384101178 L562.3378613306907,283.55077524958597 M562.3378613306907,283.55077524958597 L579.3909365979118,284.11759378915843 M579.3909365979118,284.11759378915843 L596.4405489622559,285.0547609957201 M596.4405489622559,285.0547609957201 L613.4659901029927,286.36129945744653 M613.4659901029927,286.36129945744653 L630.4467341129471,288.035877092658 M630.4467341129471,288.035877092658 L647.3621008039831,290.07678382511887 M647.3621008039831,290.07678382511887 L664.1915643792436,292.4818971487835 M664.1915643792436,292.4818971487835 L680.9145502591537,295.2487491207198 M680.9145502591537,295.2487491207198 L697.5106427770397,298.37451092466097 M697.5106427770397,298.37451092466097 L713.9593623928954,301.8558945224334 M713.9593623928954,301.8558945224334 L730.2404489475925,305.6893097821054 M730.2404489475925,305.6893097821054 L746.3335807020903,309.87071334446773 M746.3335807020903,309.87071334446773 L762.2187305523273,314.39576479803975 M762.2187305523273,314.39576479803975 L777.8758799573027,319.2596326120259 M777.8758799573027,319.2596326120259 L793.2852050937536,324.45716989694444 M793.2852050937536,324.45716989694444 L808.4269495731219,329.9828427187067 M808.4269495731219,329.9828427187067 L823.2817255235932,335.8306986913235 M823.2817255235932,335.8306986913235 L837.8301238957865,341.99441792728715 M837.8301238957865,341.99441792728715 L852.0531207949746,348.4672599241529 M852.0531207949746,348.4672599241529 L865.931837596225,355.2421556617818 M865.931837596225,355.2421556617818 L879.4476618275924,362.3116121113725 M412.08630732884603,295.0845976580567 L428.249862441127,292.3378693302651 M428.249862441127,292.3378693302651 L444.5932689072481,289.9530320471964 M444.5932689072481,289.9530320471964 L461.09648292230975,287.9325299130321 M461.09648292230975,287.9325299130321 L477.7394206599148,286.278472087253 M477.7394206599148,286.278472087253 L494.5018259243858,284.9925351064212 M494.5018259243858,284.9925351064212 L511.36332843242076,284.07604832853497 M511.36332843242076,284.07604832853497 L528.3034866300313,283.52991515784544 M528.3034866300313,283.52991515784544 L545.3018291776733,283.3547069428753 M545.3018291776733,283.3547069428753 L562.3378684147885,283.5506437802155 M562.3378684147885,283.5506437802155 L579.3909438743206,284.1174623136328 M579.3909438743206,284.1174623136328 L596.4405564314379,285.05462951002016 M596.4405564314379,285.05462951002016 L613.465997765212,286.3611679575679 M613.465997765212,286.3611679575679 L630.4467419682708,288.0357455746161 M630.4467419682708,288.0357455746161 L647.362108852278,290.0766522849548 M647.362108852278,290.0766522849548 L664.1915726201771,292.48176558256944 M664.1915726201771,292.48176558256944 L680.9145586921918,295.24861752456485 M680.9145586921918,295.24861752456485 L697.5106514014471,298.37437929471605 M697.5106514014471,298.37437929471605 L713.9593712077321,301.8557628548976 M713.9593712077321,301.8557628548976 L730.2404579517151,305.6891780732305 M730.2404579517151,305.6891780732305 L746.3335898941486,309.8705815905645 M746.3335898941486,309.8705815905645 L762.2187399307654,314.3956329954819 M762.2187399307654,314.3956329954819 L777.8758895203562,319.25950075725666 M777.8758895203562,319.25950075725666 L793.2852148394495,324.45703798648077 M793.2852148394495,324.45703798648077 L808.4269594992757,329.9827107491443 M808.4269594992757,329.9827107491443 L823.2817356278108,335.83056665934214 M823.2817356278108,335.83056665934214 L837.83013417546,341.99428582965504 M837.83013417546,341.99428582965504 L852.053131247284,348.4671277577322 M852.053131247284,348.4671277577322 L865.9318482181359,355.24202342353203 M865.9318482181359,355.24202342353203 L879.4476726158555,362.31147979835544 M879.4476618275924,362.3116121113725 L552.5960112794837,575.5000462977235 M879.4476726158555,362.31147979835544 L552.5960185963592,575.4999118186851" stroke="black"  stroke-width="4"  fill="red"/></svg>