<svg viewBox="0 0 800 800" xmlns="http://www.w3.org/2000/svg"><path d="M572.9688805922051,567.4635723417574 L572.9688875400935,567.4632233546597 M572.9658930145499,567.4653774474401 L572.9658999624052,567.4650284603233 M572.9688805922051,567.4635723417574 L572.9658930145499,567.4653774474401 M572.9688875400935,567.4632233546597 L572.9658999624052,567.4650284603233 M543.0591217062263,585.5351614229143 L543.0591283217491,585.5348122443818 M572.9658930145499,567.4653774474401 L543.0591217062263,585.5351614229143 M572.9658999624052,567.4650284603233 L543.0591283217491,585.5348122443818 M-68.36685908969758,231.7420786226653 L-68.36685942252814,231.74173327687976 M543.0591217062263,585.5351614229143 L-68.36685908969758,231.7420786226653 M543.0591283217491,585.5348122443818 L-68.36685942252814,231.74173327687976 M-38.44239934051268,214.46518373111928 L-38.442399340479426,214.46483857708586 M-68.36685908969758,231.7420786226653 L-38.44239934051268,214.46518373111928 M-68.36685942252814,231.74173327687976 L-38.442399340479426,214.46483857708586 M17.233510290070456,246.6096780004924 L17.233510910005123,246.609332490037 M-38.44239934051268,214.46518373111928 L17.233510290070456,246.6096780004924 M-38.442399340479426,214.46483857708586 L17.233510910005123,246.609332490037 M18.61816445436989,247.41256713856245 L18.618165089754257,247.41222161922343 M17.233510290070456,246.6096780004924 L17.694379652001544,246.87768251381846 M17.694379652001544,246.87768251381846 L18.15593485599902,247.14531444360023 M18.15593485599902,247.14531444360023 L18.61816445436989,247.41256713856245 M17.233510910005123,246.609332490037 L17.694380277078324,246.87733700039757 M17.694380277078324,246.87733700039757 L18.155935486225758,247.14496892721814 M18.155935486225758,247.14496892721814 L18.618165089754257,247.41222161922343 M439.50186073012674,318.1496051817365 L439.5018660761018,318.1492588833442 M18.61816445436989,247.41256713856245 L38.142440336166885,258.03872534025123 M38.142440336166885,258.03872534025123 L58.74097552093065,267.9933394563821 M58.74097552093065,267.9933394563821 L80.34099830764683,277.238959742782 M80.34099830764683,277.238959742782 L102.86568155185546,285.74067753404944 M102.86568155185546,285.74067753404944 L126.2344228721388,293.4662819143328 M126.2344228721388,293.4662819143328 L150.36320113877514,300.3864364280908 M150.36320113877514,300.3864364280908 L175.16479772162745,306.4747574132779 M175.16479772162745,306.4747574132779 L200.5492732627382,311.7080064817282 M200.5492732627382,311.7080064817282 L226.42424121439274,316.0661619323208 M226.42424121439274,316.0661619323208 L252.69526005509795,319.5325146119608 M252.69526005509795,319.5325146119608 L279.26622466441984,322.0937499296468 M279.26622466441984,322.0937499296468 L306.0397775705934,323.74002977370264 M306.0397775705934,323.74002977370264 L332.9176975156091,324.4650172284959 M332.9176975156091,324.4650172284959 L359.8013203555681,324.26593225267226 M359.8013203555681,324.26593225267226 L386.5919745228779,323.1435396866135 M386.5919745228779,323.1435396866135 L413.1913133652779,321.102137951152 M413.1913133652779,321.102137951152 L439.50186073012674,318.1496051817365 M18.618165089754257,247.41222161922343 L38.14244118952996,258.03837970342545 M38.14244118952996,258.03837970342545 L58.740976604500474,267.9929937096409 M58.740976604500474,267.9929937096409 L80.34099963282972,277.2386138940809 M80.34099963282972,277.2386138940809 L102.86568312918337,285.7403315917 M102.86568312918337,285.7403315917 L126.2344247112211,293.46593588697385 M126.2344247112211,293.46593588697385 L150.36320324825328,300.3860903246577 M150.36320324825328,300.3860903246577 L175.1648001091337,306.47441124297177 M175.1648001091337,306.47441124297177 L200.54927593485968,311.70766025398336 M200.54927593485968,311.70766025398336 L226.4242441766396,316.06581565677186 M226.4242441766396,316.06581565677186 L252.6952633118765,319.53216829840926 M252.6952633118765,319.53216829840926 L279.2662282190105,322.09340358802683 M279.2662282190105,322.09340358802683 L306.03978142513506,323.7396834140462 M306.03978142513506,323.7396834140462 L332.917701671088,324.46467086089774 M332.917701671088,324.46467086089774 L359.8013248118126,324.2655858872549 M359.8013248118126,324.2655858872549 L386.5919792785596,323.14319333349175 M386.5919792785596,323.14319333349175 L413.1913184179158,321.101791620398 M413.1913184179158,321.101791620398 L439.5018660761018,318.1492588833442 M443.04662060729095,317.00296904281635 L443.04662599252026,317.0026227569953 M439.50186073012674,318.1496051817365 L439.44101455122166,317.86200974948065 M439.44101455122166,317.86200974948065 L439.4965519352603,317.5752721122165 M439.4965519352603,317.5752721122165 L439.66541021103274,317.3050550973605 M439.66541021103274,317.3050550973605 L439.93833770748927,317.0661455941516 M439.93833770748927,317.0661455941516 L440.30044243669715,316.8715879985131 M440.30044243669715,316.8715879985131 L440.73188438429963,316.7320314096443 M440.73188438429963,316.7320314096443 L441.20911874951014,316.65510358950144 M441.20911874951014,316.65510358950144 L441.70600720719244,316.6449982397464 M441.70600720719244,316.6449982397464 L442.1954176075359,316.70228874205696 M442.1954176075359,316.70228874205696 L442.6505850445933,316.8238281742473 M442.6505850445933,316.8238281742473 L443.04662060729095,317.00296904281635 M439.5018660761018,318.1492588833442 L439.44101989641763,317.86166345424124 M439.44101989641763,317.86166345424124 L439.4965572809797,317.5749258201207 M439.4965572809797,317.5749258201207 L439.66541555854826,317.3047088082273 M439.66541555854826,317.3047088082273 L439.93834305797554,317.0657993076378 M439.93834305797554,317.0657993076378 L440.3004477911669,316.87124171413257 M440.3004477911669,316.87124171413257 L440.73188974354684,316.73168512679405 M440.73188974354684,316.73168512679405 L441.20912411406846,316.65475730749466 M441.20912411406846,316.65475730749466 L441.7060125773047,316.6446519578504 M441.7060125773047,316.6446519578504 L442.1954229831414,316.7019424595327 M442.1954229831414,316.7019424595327 L442.65059042533164,316.8234818903905 M442.65059042533164,316.8234818903905 L443.04662599252026,317.0026227569953 M443.6361172631392,317.6050581275289 L443.6361226551693,317.60471183510646 M443.04662060729095,317.00296904281635 L443.3065309704077,317.1815736939148 M443.3065309704077,317.1815736939148 L443.50539198565775,317.38465764326156 M443.50539198565775,317.38465764326156 L443.6361172631392,317.6050581275289 M443.04662599252026,317.0026227569953 L443.3065363586055,317.18122740613535 M443.3065363586055,317.18122740613535 L443.50539737614986,317.38431135325567 M443.50539737614986,317.38431135325567 L443.6361226551693,317.60471183510646 M868.3668492336265,388.98300601399717 L868.366859422528,388.982658942664 M443.6361172631392,317.6050581275289 L469.9350355643155,314.65384557031933 M469.9350355643155,314.65384557031933 L496.50908964702376,312.61467256070887 M496.50908964702376,312.61467256070887 L523.2699757733301,311.4939580800301 M523.2699757733301,311.4939580800301 L550.1288905566842,311.29519981452233 M550.1288905566842,311.29519981452233 L576.9967167988275,312.0190140391372 M576.9967167988275,312.0190140391372 L603.7843352858504,313.6631767782203 M603.7843352858504,313.6631767782203 L630.4028272409353,316.2225062577273 M630.4028272409353,316.2225062577273 L656.7636725415198,319.6889065898769 M656.7636725415198,319.6889065898769 L682.7791166550201,324.05152638949005 M682.7791166550201,324.05152638949005 L708.3623879359059,329.2965654390823 M708.3623879359059,329.2965654390823 L733.4278434821538,335.40745014625645 M733.4278434821538,335.40745014625645 L757.8913890455619,342.3648445044489 M757.8913890455619,342.3648445044489 L781.670467374608,350.1466434577334 M781.670467374608,350.1466434577334 L804.6846326410489,358.72805616826577 M804.6846326410489,358.72805616826577 L826.8555810637865,368.0816862759866 M826.8555810637865,368.0816862759866 L848.1073898060731,378.17748866304134 M848.1073898060731,378.17748866304134 L868.3668492336265,388.98300601399717 M443.6361226551693,317.60471183510646 L469.93504124942285,314.6534993102589 M469.93504124942285,314.6534993102589 L496.5090956285226,312.61432632301666 M496.5090956285226,312.61432632301666 L523.2699820536008,311.49361185463385 M523.2699820536008,311.49361185463385 L550.1288971371678,311.2948535913069 M550.1288971371678,311.2948535913069 L576.9967236800222,312.01866780798 M576.9967236800222,312.01866780798 L603.7843424673101,313.662830529026 M603.7843424673101,313.662830529026 L630.4028347212695,316.22215998046397 M630.4028347212695,316.22215998046397 L656.7636803183952,319.6885602746113 M656.7636803183952,319.6885602746113 L682.7791247251653,324.0511800264212 M682.7791247251653,324.0511800264212 L708.3623962951172,329.2962190185774 M708.3623962951172,329.2962190185774 L733.4278521253032,335.40710365888333 M733.4278521253032,335.40710365888333 L757.8913979666088,342.36449794101 M757.8913979666088,342.36449794101 L781.6704765666079,350.1462968092974 M781.6704765666079,350.1462968092974 L804.6846420961713,358.7277094261992 M804.6846420961713,358.7277094261992 L826.855590773331,368.081339431984 M826.855590773331,368.081339431984 L848.1073997604869,378.1771417091551 M848.1073997604869,378.1771417091551 L868.366859422528,388.982658942664 M868.3668492336265,388.98300601399717 L572.9688805922051,567.4635723417574 M868.366859422528,388.982658942664 L572.9688875400935,567.4632233546597" stroke="black"  stroke-width="4"  fill="red"/></svg>