<svg viewBox="0 0 800 800" xmlns="http://www.w3.org/2000/svg"><path d="" stroke="black"  stroke-width="4"  fill="red"/>
<path d="" stroke="black"  stroke-width="4"  fill="red"/>
<path d="" stroke="black"  stroke-width="4"  fill="red"/>
<path d="" stroke="black"  stroke-width="4"  fill="red"/>
<path d="" stroke="black"  stroke-width="4"  fill="red"/>
<path d="" stroke="black"  stroke-width="4"  fill="red"/>
<path d="M237.22639272855133,288.49413776138135 L82.17137511450744,378.01519392005173 M82.17137620235616,366.7099374816967 L82.17137511450744,378.01519392005173 M82.17137620235616,366.7099374816967 L82.17107889352678,366.55416703621955 M82.17107889352678,366.55416703621955 L82.17090050079383,366.3983194575503 M82.17090050079383,366.3983194575503 L82.17084103430778,366.24239593195387 M237.54465843855246,276.9178377807755 L82.17084103430778,366.24239593195387 M237.22639272855133,288.49413776138135 L237.54465843855246,276.9178377807755 M683.0116295846906,724.9103994905481 L670.1654702048032,717.4936675626802 M516.9940511738619,830.5784550547444 L670.1654702048032,717.4936675626802 M516.9940511738619,830.5784550547444 L333.3548143792873,717.4940559678676 M322.50694616038516,724.9107897477163 L333.3548143792873,717.4940559678676 M262.5433656158143,687.8179439952357 L322.50694616038516,724.9107897477163 M273.40341449814173,680.5761938142566 L262.5433656158143,687.8179439952357 M273.40341449814173,680.5761938142566 L36.49623959019402,534.6895849311904 M25.62116923993665,541.2603434367247 L36.49623959019402,534.6895849311904 M-27.532506700099304,508.38003367344123 L25.62116923993665,541.2603434367247 M-16.661324362917696,501.9553431564638 L-27.532506700099304,508.38003367344123 M-16.661324362917696,501.9553431564638 L-62.52807651159867,473.7107577653665 M92.36718428351924,383.90174578026404 L-62.52807651159867,473.7107577653665 M92.36718428351924,383.90174578026404 L82.17137511450744,378.01519392005173 M835.0309293810562,612.0653347855407 L237.22639272855133,288.49413776138135 M683.0116295846906,724.9103994905481 L835.0309293810562,612.0653347855407 M166.5772484949697,335.0666250488551 L166.43419863856792,335.0037830828556 M166.43419863856792,335.0037830828556 L166.26943811704956,334.96196842348087 M166.26943811704956,334.96196842348087 L166.09255026375502,334.94360314352224 M166.09255026375502,334.94360314352224 L165.91381374492482,334.94975166708707 M165.91381374492482,334.94975166708707 L165.74359444245817,334.9800674593338 M165.74359444245817,334.9800674593338 L165.59179585192902,335.03278096353756 M165.59179585192902,335.03278096353756 L165.46724187131468,335.1048288452233 M165.46724187131468,335.1048288452233 L165.37715447354424,335.19203629823295 M165.37715447354424,335.19203629823295 L165.32677524373264,335.2893351840319 M165.32677524373264,335.2893351840319 L165.31905194482778,335.3910637931586 M165.31905194482778,335.3910637931586 L165.3544199821947,335.4913201840803 M165.3544199821947,335.4913201840803 L165.43083164658356,335.58427512265956 M165.43083164658356,335.58427512265956 L165.54385966358416,335.664517908669 M165.54385966358416,335.664517908669 L165.68692414224313,335.7273905588791 M165.68692414224313,335.7273905588791 L165.85172190562923,335.769228651138 M165.85172190562923,335.769228651138 L166.02866159464958,335.78760503262225 M166.02866159464958,335.78760503262225 L166.20745266802885,335.78145273734197 M166.20745266802885,335.78145273734197 L166.3777167500321,335.7511191581777 M166.3777167500321,335.7511191581777 L166.52954008310923,335.69837793197775 M166.52954008310923,335.69837793197775 L166.65409310260765,335.6262987442184 M166.65409310260765,335.6262987442184 L166.7441540556568,335.53906356893197 M166.7441540556568,335.53906356893197 L166.7944874138356,335.4417468975599 M166.7944874138356,335.4417468975599 L166.80215592654406,335.34001451474455 M166.80215592654406,335.34001451474455 L166.7667367351092,335.23976922566766 M166.7667367351092,335.23976922566766 L166.6902892677287,335.1468377222238 M166.6902892677287,335.1468377222238 L166.5772484949697,335.0666250488551 M754.5237813425974,663.4970487295866 L754.348385302462,663.4181894524772 M754.348385302462,663.4181894524772 L754.1537441242781,663.3657199542117 M754.1537441242781,663.3657199542117 L753.9511911488271,663.3426875056764 M753.9511911488271,663.3426875056764 L753.7524593571807,663.3504069137794 M753.7524593571807,663.3504069137794 L753.5690668752359,663.3884380132381 M753.5690668752359,663.3884380132381 L753.4117357032303,663.4545912596711 M753.4117357032303,663.4545912596711 L753.2895734782903,663.5450015061497 M753.2895734782903,663.5450015061497 L753.2096642373285,663.6544303441576 M753.2096642373285,663.6544303441576 L753.1766970094834,663.7765397289254 M753.1766970094834,663.7765397289254 L753.1925549600999,663.9041943460627 M753.1925549600999,663.9041943460627 L753.2563137004838,664.0299933008789 M753.2563137004838,664.0299933008789 L753.3643121586535,664.1466420706904 M753.3643121586535,664.1466420706904 L753.510272368894,664.2473421556924 M753.510272368894,664.2473421556924 L753.6856943267808,664.3262441674494 M753.6856943267808,664.3262441674494 L753.8803885662492,664.3787466056644 M753.8803885662492,664.3787466056644 L754.0830505674537,664.4018175561837 M754.0830505674537,664.4018175561837 L754.2818497976027,664.394092843288 M754.2818497976027,664.394092843288 L754.4652936791904,664.3560367467605 M754.4652936791904,664.3560367467605 L754.6226484104873,664.2898445264955 M754.6226484104873,664.2898445264955 L754.7448009761829,664.1993902712472 M754.7448009761829,664.1993902712472 L754.8246695505507,664.0899224639829 M754.8246695505507,664.0899224639829 L754.8575744042209,663.9677880748852 M754.8575744042209,663.9677880748852 L754.8416466866327,663.840128153721 M754.8416466866327,663.840128153721 L754.7777857709175,663.7143219083268 M754.7777857709175,663.7143219083268 L754.6697487118934,663.5977060821679 M754.6697487118934,663.5977060821679 L754.5237813425974,663.4970487295866 M92.38799699028272,372.5844757694805 L82.17137620235616,366.7099374816967 M92.38799699028272,372.5844757694805 L92.36718428351924,383.90174578026404 M92.3883230827804,372.116436260273 L92.38809544827097,372.2725260904599 M92.38809544827097,372.2725260904599 L92.38798675343082,372.42853965603626 M92.38798675343082,372.42853965603626 L92.38799699028272,372.5844757694805 M82.17084103430778,366.24239593195387 L92.3883230827804,372.116436260273 M671.5651050204829,705.0857293002045 L684.4452697755039,712.4905484961134 M684.4452697755039,712.4905484961134 L836.762854354314,599.8354541259473 M836.762854354314,599.8354541259473 L237.54465843855246,276.9178377807755 M92.3883230827804,372.116436260273 L-62.8456125269247,461.7407907719013 M-62.8456125269247,461.7407907719013 L-16.880346124580285,489.9299428777149 M-16.880346124580285,489.9299428777149 L-27.776160026250352,496.34219412250724 M-27.776160026250352,496.34219412250724 L25.494146771411067,529.1598281313245 M25.494146771411067,529.1598281313245 L36.39387475209577,522.6014627698466 M36.39387475209577,522.6014627698466 L273.853376811605,668.2284230039959 M273.853376811605,668.2284230039959 L262.96877565628677,675.4581306120165 M262.96877565628677,675.4581306120165 L323.0806125307862,712.4905484961134 M323.0806125307862,712.4905484961134 L333.9529461927159,705.0857293002045 M333.9529461927159,705.0857293002045 L518.0671601505877,817.9975861938708 M671.5651050204829,705.0857293002045 L518.0671601505877,817.9975861938708 M167.5298446133321,322.9391496929589 L167.81306454540828,323.139188534582 M167.81306454540828,323.139188534582 L168.00467634787583,323.37095633334945 M168.00467634787583,323.37095633334945 L168.09352599335705,323.6209964342583 M168.09352599335705,323.6209964342583 L168.07442170464583,323.87478256744515 M168.07442170464583,323.87478256744515 L167.9484360692084,324.1175693002832 M167.9484360692084,324.1175693002832 L167.722885525496,324.3352261454651 M167.722885525496,324.3352261454651 L167.41084237141774,324.51510101207646 M167.41084237141774,324.51510101207646 L167.03046079526501,324.6467120170976 M167.03046079526501,324.6467120170976 L166.60383940038076,324.72240807279053 M166.60383940038076,324.72240807279053 L166.15581519475415,324.73776939335926 M166.15581519475415,324.73776939335926 L165.7124450889392,324.69190601123853 M165.7124450889392,324.69190601123853 L165.29952537927204,324.58748967421894 M165.29952537927204,324.58748967421894 L164.9410728566009,324.4306006846552 M164.9410728566009,324.4306006846552 L164.65793028650063,324.23037215906004 M164.65793028650063,324.23037215906004 L164.46654265533698,323.99845762724533 M164.46654265533698,323.99845762724533 L164.37801456380737,323.7483484314031 M164.37801456380737,323.7483484314031 L164.39746245240184,323.4945857390464 M164.39746245240184,323.4945857390464 L164.52373598781782,323.2519101516655 M164.52373598781782,323.2519101516655 L164.74945251339597,323.03442654649655 M164.74945251339597,323.03442654649655 L165.06150171264596,322.85474733598977 M165.06150171264596,322.85474733598977 L165.44172801201978,322.7233095689022 M165.44172801201978,322.7233095689022 L165.86806837508664,322.6477246619742 M165.86806837508664,322.6477246619742 L166.31575043802007,322.63238706530296 M166.31575043802007,322.63238706530296 L166.758794702609,322.6781807824434 M166.758794702609,322.6781807824434 L167.171481191392,322.78245095526034 M167.171481191392,322.78245095526034 L167.5298446133321,322.9391496929589 M756.8582938130951,650.6164711039517 L757.2242219943616,650.8676250928002 M757.2242219943616,650.8676250928002 L757.495160617719,651.1585889270041 M757.495160617719,651.1585889270041 L757.6554471879454,651.472528154653 M757.6554471879454,651.472528154653 L757.6956645581181,651.791167302378 M757.6956645581181,651.791167302378 L757.6134514999026,652.0960044680564 M757.6134514999026,652.0960044680564 L757.4135588176857,652.3692893794503 M757.4135588176857,652.3692893794503 L757.1075742499011,652.5951418586508 M757.1075742499011,652.5951418586508 L756.7132948057024,652.7603982292983 M756.7132948057024,652.7603982292983 L756.2536127257306,652.8554414781447 M756.2536127257306,652.8554414781447 L755.7553020485855,652.8747276647439 M755.7553020485855,652.8747276647439 L755.2473276410346,652.8171272064699 M755.2473276410346,652.8171272064699 L754.7593174155031,652.6860343635058 M754.7593174155031,652.6860343635058 L754.3195574339841,652.4890273966498 M754.3195574339841,652.4890273966498 L753.9537151669581,652.2376290118311 M753.9537151669581,652.2376290118311 L753.6829777203407,651.9464362958113 M753.6829777203407,651.9464362958113 L753.5231164489667,651.6324223213919 M753.5231164489667,651.6324223213919 L753.4833372154867,651.3138163513877 M753.4833372154867,651.3138163513877 L753.5659419741446,651.0091355507673 M753.5659419741446,651.0091355507673 L753.7660901612392,650.7360943567185 M753.7660901612392,650.7360943567185 L754.0721355291578,650.510517131619 M754.0721355291578,650.510517131619 L754.4662671369233,650.3455044798545 M754.4662671369233,650.3455044798545 L754.9256265935919,650.250617592008 M754.9256265935919,650.250617592008 L755.4235137896944,650.2313645770735 M755.4235137896944,650.2313645770735 L755.9310197782502,650.2888445689632 M755.9310197782502,650.2888445689632 L756.4187378119091,650.4197542500931 M756.4187378119091,650.4197542500931 L756.8582938130951,650.6164711039517 M835.0309293810562,612.0653347855407 L836.762854354314,599.8354541259473 M684.3887899773912,712.9838501801407 L671.509977544219,705.5785565600365 M684.3887899773912,712.9838501801407 L683.0116295846906,724.9103994905481 M671.509977544219,705.5785565600365 L670.1654702048032,717.4936675626802 M671.509977544219,705.5785565600365 L671.5282351165552,705.4143769238472 M671.5282351165552,705.4143769238472 L671.5466109855595,705.2501007539715 M671.5466109855595,705.2501007539715 L671.5651050204829,705.0857293002045 M516.9940511738619,830.5784550547444 L518.0671601505877,817.9975861938708 M333.3548143792873,717.4940559678676 L333.9529461927159,705.0857293002045 M322.50694616038516,724.9107897477163 L323.0806125307862,712.4905484961134 M262.5433656158143,687.8179439952357 L262.96877565628677,675.4581306120165 M273.40341449814173,680.5761938142566 L273.853376811605,668.2284230039959 M36.49623959019402,534.6895849311904 L36.39387475209577,522.6014627698466 M25.62116923993665,541.2603434367247 L25.494146771411067,529.1598281313245 M-27.532506700099304,508.38003367344123 L-27.776160026250352,496.34219412250724 M-16.661324362917696,501.9553431564638 L-16.880346124580285,489.9299428777149 M-62.52807651159867,473.7107577653665 L-62.8456125269247,461.7407907719013 M684.4452697755039,712.4905484961134 L684.4263250166621,712.6550785370532 M684.4263250166621,712.6550785370532 L684.407498372564,712.8195128487218 M684.407498372564,712.8195128487218 L684.3887899773912,712.9838501801407 M166.5772484949697,335.0666250488551 L166.7349712207992,324.61497373922253 M166.7349712207992,324.61497373922253 L166.84822786807854,324.6950288889612 M166.84822786807854,324.6950288889612 L166.92482357698134,324.7877779022051 M166.92482357698134,324.7877779022051 L166.9603147704347,324.8878263521716 M166.9603147704347,324.8878263521716 L166.95263782565758,324.98935898988225 M166.95263782565758,324.98935898988225 L166.90221604052238,325.08648459934204 M166.90221604052238,325.08648459934204 L166.81199181928793,325.1735485167161 M166.81199181928793,325.1735485167161 L166.6872101772497,325.24548620825647 M166.6872101772497,325.24548620825647 L166.53510612280854,325.2981239044301 M166.53510612280854,325.2981239044301 L166.36452555030127,325.32839794107423 M166.36452555030127,325.32839794107423 L166.18540065192263,325.33453816001764 M166.18540065192263,325.33453816001764 L166.0081291904125,325.31619784967523 M166.0081291904125,325.31619784967523 L165.84302101062286,325.2744418834518 M165.84302101062286,325.2744418834518 L165.6996855436371,325.2116926535325 M165.6996855436371,325.2116926535325 L165.58644169714762,325.1316073935822 M165.58644169714762,325.1316073935822 L165.50988192383022,325.0388349475071 M165.50988192383022,325.0388349475071 L165.47444207517918,324.93877539678743 M165.47444207517918,324.93877539678743 L165.48217401133184,324.83724653239443 M165.48217401133184,324.83724653239443 L165.53264184073572,324.74013870675884 M165.53264184073572,324.74013870675884 L165.62289260722082,324.6531025089359 M165.62289260722082,324.6531025089359 L165.74767521577343,324.581196120391 M165.74767521577343,324.581196120391 L165.89975443669812,324.52858614348764 M165.89975443669812,324.52858614348764 L166.07029006316748,324.4983298920123 M166.07029006316748,324.4983298920123 L166.24936020311884,324.49219344441343 M166.24936020311884,324.49219344441343 L166.42657963434,324.51052265432185 M166.42657963434,324.51052265432185 L166.59165043158595,324.5522551899651 M166.59165043158595,324.5522551899651 L166.7349712207992,324.61497373922253 M754.5237813425974,663.4970487295866 L755.9314871541642,652.4740432236883 M755.9314871541642,652.4740432236883 L756.0778065385682,652.5745480499131 M756.0778065385682,652.5745480499131 L756.1861235709534,652.6909871851042 M756.1861235709534,652.6909871851042 L756.2501762134543,652.8166028354588 M756.2501762134543,652.8166028354588 L756.2661961504623,652.9440693753866 M756.2661961504623,652.9440693753866 L756.2332787103264,653.0660187742483 M756.2332787103264,653.0660187742483 L756.1532933530373,653.1753207939682 M756.1532933530373,653.1753207939682 L756.0309266742297,653.2656380697963 M756.0309266742297,653.2656380697963 L755.8732729091334,653.3317300589415 M755.8732729091334,653.3317300589415 L755.6894623767405,653.3697285319931 M755.6894623767405,653.3697285319931 L755.4902503562566,653.3774415485861 M755.4902503562566,653.3774415485861 L755.287153292529,653.3544055309749 M755.287153292529,653.3544055309749 L755.0920271356438,653.3019825921003 M755.0920271356438,653.3019825921003 L754.9162014857511,653.2232000610752 M754.9162014857511,653.2232000610752 L754.769889270694,653.122652477819 M754.769889270694,653.122652477819 L754.6616109857855,653.0061803800024 M754.6616109857855,653.0061803800024 L754.5976608643157,652.8805719765517 M754.5976608643157,652.8805719765517 L754.5817109892123,652.7531107437053 M754.5817109892123,652.7531107437053 L754.614691076554,652.631186363574 M754.614691076554,652.631186363574 L754.6947172889086,652.521923335554 M754.6947172889086,652.521923335554 L754.8170936877659,652.4316500938412 M754.8170936877659,652.4316500938412 L754.9747238127902,652.3655971009744 M754.9747238127902,652.3655971009744 L755.1584827415945,652.3276236393881 M755.1584827415945,652.3276236393881 L755.3576270433018,652.319915930643 M755.3576270433018,652.319915930643 L755.5606146924517,652.342913471969 M755.5606146924517,652.342913471969 L755.7556875504013,652.3953034519225 M755.7556875504013,652.3953034519225 L755.9314871541642,652.4740432236883 M167.5298446133321,322.9391496929589 L167.51113768695075,324.16760619495653 M167.51113768695075,324.16760619495653 L167.79429416972226,324.36769151624185 M167.79429416972226,324.36769151624185 L167.98586237379294,324.5995131589306 M167.98586237379294,324.5995131589306 L168.07469081367844,324.849611339044 M168.07469081367844,324.849611339044 L168.0555889567126,325.1034564112577 M168.0555889567126,325.1034564112577 L167.92962926371695,325.34629951891765 M167.92962926371695,325.34629951891765 L167.70412667218557,325.5640068957117 M167.70412667218557,325.5640068957117 L167.39215070422335,325.74392351663926 M167.39215070422335,325.74392351663926 L167.01185163957297,325.8755650691926 M167.01185163957297,325.8755650691926 L166.58532328512456,325.95127869303064 M166.58532328512456,325.95127869303064 L166.13739722706566,325.9666435786647 M166.13739722706566,325.9666435786647 L165.6941246612809,325.9207695524277 M165.6941246612809,325.9207695524277 L165.28129620287848,325.81632898087554 M165.28129620287848,325.81632898087554 L164.9229233307991,325.6594035748235 M164.9229233307991,325.6594035748235 L164.63984417748554,325.4591285671661 M164.63984417748554,325.4591285671661 L164.44850004732712,325.2271601894628 M164.44850004732712,325.2271601894628 L164.35999302100896,324.97699291358134 M164.35999302100896,324.97699291358134 L164.37943832701473,324.72317128247096 M164.37943832701473,324.72317128247096 L164.50568579302563,324.4804393217112 M164.50568579302563,324.4804393217112 L164.73135429248612,324.26290518717906 M164.73135429248612,324.26290518717906 L165.04333630164547,324.08318422489623 M165.04333630164547,324.08318422489623 L165.42348015641494,323.9517159125255 M165.42348015641494,323.9517159125255 L165.84972760149327,323.8761134388952 M165.84972760149327,323.8761134388952 L166.2973116667443,323.86077227749786 M166.2973116667443,323.86077227749786 L166.74025853450604,323.9065766377878 M166.74025853450604,323.9065766377878 L167.15285387536608,324.0108710433022 M167.15285387536608,324.0108710433022 L167.51113768695075,324.16760619495653 M756.8582938130951,650.6164711039517 L756.6926241945405,651.9124170373584 M756.6926241945405,651.9124170373584 L757.0584488658587,652.1636161177205 M757.0584488658587,652.1636161177205 L757.3293051275232,652.4546321780801 M757.3293051275232,652.4546321780801 L757.489535251354,652.7686277405192 M757.489535251354,652.7686277405192 L757.5297254056218,653.087324050168 M757.5297254056218,653.087324050168 L757.4475159578769,653.3922158864636 M757.4475159578769,653.3922158864636 L757.2476575194344,653.6655497970467 M757.2476575194344,653.6655497970467 L756.9417358510586,653.8914427618547 M756.9417358510586,653.8914427618547 L756.5475443062546,654.056728750633 M756.5475443062546,654.056728750633 L756.0879700202374,654.1517890316454 M756.0879700202374,654.1517890316454 L755.589780746848,654.171078674236 M755.589780746848,654.171078674236 L755.0819342876862,654.1134678940607 M755.0819342876862,654.1134678940607 L754.5940510816511,653.9823515574953 M754.5940510816511,653.9823515574953 L754.1544098225183,653.7853092791315 M754.1544098225183,653.7853092791315 L753.7886710465832,653.5338658246094 M753.7886710465832,653.5338658246094 L753.5180158651649,653.2426208919844 M753.5180158651649,653.2426208919844 L753.3582108454266,652.9285505933437 M753.3582108454266,652.9285505933437 L753.3184586108437,652.6098874592169 M753.3184586108437,652.6098874592169 L753.4010595581515,652.3051519776179 M753.4010595581515,652.3051519776179 L753.6011733627543,652.032061768231 M753.6011733627543,652.032061768231 L753.9071557864725,651.8064440392845 M753.9071557864725,651.8064440392845 L754.3011995542424,651.6414017532395 M754.3011995542424,651.6414017532395 L754.7604513669471,651.5464978228663 M754.7604513669471,651.5464978228663 L755.2582173655051,651.5272413497423 M755.2582173655051,651.5272413497423 L755.7655956321976,651.5847316659001 M755.7655956321976,651.5847316659001 L756.2531868099045,651.7156648583839 M756.2531868099045,651.7156648583839 L756.6926241945405,651.9124170373584" stroke="black"  stroke-width="4"  fill="red"/>
<path d="M683.0116295846906,724.9103994905481 L519.1455776271758,846.5493970446068 M683.0116295846906,724.9103994905481 L670.1654702048032,717.4936675626802 M506.2045601531174,838.5442185564978 L670.1654702048032,717.4936675626802 M519.1455776271758,846.5493970446068 L506.2045601531174,838.5442185564978 M684.3887899773912,712.9838501801407 L683.0116295846906,724.9103994905481 M783.4335861006791,487.32588080164624 L778.1579444396893,494.3111390428458 M778.1579444396893,494.3111390428458 L772.9518234471971,501.4636647463033 M772.9518234471971,501.4636647463033 L767.8236044103271,508.77229430619906 M767.8236044103271,508.77229430619906 L762.7815088033542,516.2256233373225 M762.7815088033542,516.2256233373225 L757.8336399596569,523.811904657664 M757.8336399596569,523.811904657664 L752.9879304725589,531.5191761807544 M752.9879304725589,531.5191761807544 L748.2521563611126,539.3352084709086 M748.2521563611126,539.3352084709086 L743.6338794680182,547.2475898692664 M743.6338794680182,547.2475898692664 L739.1404663965225,555.2437293766163 M739.1404663965225,555.2437293766163 L734.779051402945,563.3108713208296 M734.779051402945,563.3108713208296 L730.5565317075525,571.4361637795014 M730.5565317075525,571.4361637795014 L726.4795430623149,579.6066368864585 M726.4795430623149,579.6066368864585 L722.5544521013237,587.8092742648876 M722.5544521013237,587.8092742648876 L718.7873444920333,596.0310023503089 M718.7873444920333,596.0310023503089 L715.1840077164454,604.2587597365325 M715.1840077164454,604.2587597365325 L711.7499171341503,612.479498174157 M711.7499171341503,612.479498174157 L708.49023632437,620.680239568946 M708.49023632437,620.680239568946 L705.4097983750855,628.8480338550432 M705.4097983750855,628.8480338550432 L702.5130973432911,636.9701023702848 M702.5130973432911,636.9701023702848 L699.8042877979083,645.0337498378155 M699.8042877979083,645.0337498378155 L697.2871717900847,653.0264590780093 M697.2871717900847,653.0264590780093 L694.9651969197555,660.935893062197 M694.9651969197555,660.935893062197 L692.8414496640332,668.7499328990932 M692.8414496640332,668.7499328990932 L690.9186558255985,676.4566778151986 M690.9186558255985,676.4566778151986 L689.1991752713944,684.044495357416 M689.1991752713944,684.044495357416 L687.6850021229474,691.5020231384442 M687.6850021229474,691.5020231384442 L686.3777647742231,698.8182003295233 M686.3777647742231,698.8182003295233 L685.2787271573519,705.9822792449468 M685.2787271573519,705.9822792449468 L684.3887899773912,712.9838501801407 M783.9343089260315,486.6756931910457 L783.9472744129296,486.73703488081037 M783.9472744129296,486.73703488081037 L783.944940655218,486.81370253626915 M783.944940655218,486.81370253626915 L783.927435238334,486.90123764429967 M783.927435238334,486.90123764429967 L783.8957887793558,486.99456695676827 M783.8957887793558,486.99456695676827 L783.8518229255669,487.08825337414015 M783.8518229255669,487.08825337414015 L783.7981121279099,487.1768482458547 M783.7981121279099,487.1768482458547 L783.7377633388226,487.25519914944135 M783.7377633388226,487.25519914944135 L783.6742855478187,487.3187904575278 M783.6742855478187,487.3187904575278 L783.6113674952946,487.3638994542151 M783.6113674952946,487.3638994542151 L783.5526654133612,487.3878988634554 M783.5526654133612,487.3878988634554 L783.5015965161904,487.3894021792588 M783.5015965161904,487.3894021792588 L783.4611141420023,487.3683261575377 M783.4611141420023,487.3683261575377 L783.4335861006791,487.32588080164624 M885.5055113792346,255.64220808421425 L884.3141890201093,263.41018487801034 M884.3141890201093,263.41018487801034 L882.9263446623515,271.2809433054984 M882.9263446623515,271.2809433054984 L881.3444148732119,279.24459259755815 M881.3444148732119,279.24459259755815 L879.5710391235611,287.29114375507106 M879.5710391235611,287.29114375507106 L877.6090135596785,295.4106125568378 M877.6090135596785,295.4106125568378 L875.4613081378955,303.59307896697925 M875.4613081378955,303.59307896697925 L873.1310713821699,311.82853585481575 M873.1310713821699,311.82853585481575 L870.6216234773574,320.1070239076474 M870.6216234773574,320.1070239076474 L867.936427880416,328.4186216224221 M867.936427880416,328.4186216224221 L865.079125836427,336.75339320645776 M865.079125836427,336.75339320645776 L862.0534810569022,345.10147606477136 M862.0534810569022,345.10147606477136 L858.8634651082443,353.45297433624216 M858.8634651082443,353.45297433624216 L855.5131250508568,361.7980988259062 M855.5131250508568,361.7980988259062 L852.0066853246981,370.12704964306124 M852.0066853246981,370.12704964306124 L848.3484885444334,378.43014534383263 M848.3484885444334,378.43014534383263 L844.5430291437074,386.69769380236875 M844.5430291437074,386.69769380236875 L840.5949185304298,394.92010509626124 M840.5949185304298,394.92010509626124 L836.5089027725853,403.08783229732035 M836.5089027725853,403.08783229732035 L832.2898453777739,411.1914142722326 M832.2898453777739,411.1914142722326 L827.9427241683109,419.2214702848648 M827.9427241683109,419.2214702848648 L823.4726470269518,427.1686626426294 M823.4726470269518,427.1686626426294 L818.8848329318521,435.0237609161079 M818.8848329318521,435.0237609161079 L814.1846020069825,442.77764236689563 M814.1846020069825,442.77764236689563 L809.3773922135404,450.42125511455106 M809.3773922135404,450.42125511455106 L804.4687520973737,457.94565610818694 M804.4687520973737,457.94565610818694 L799.4643213262436,465.3419812610876 M799.4643213262436,465.3419812610876 L794.3698577843218,472.6014987766842 M794.3698577843218,472.6014987766842 L789.1912054475029,479.71556997591375 M789.1912054475029,479.71556997591375 L783.9343089260315,486.6756931910457 M719.3348033748669,365.75291675748537 L885.5055113792346,255.64220808421425 M685.2962005771257,662.9177077903685 L719.3348033748669,365.75291675748537 M535.8065928248666,771.7406683567917 L685.2962005771257,662.9177077903685 M532.8490182066765,805.3602134226314 L535.8065928248666,771.7406683567917 M522.0016216571945,813.3350787122679 L532.8490182066765,805.3602134226314 M519.1455776271758,846.5493970446068 L522.0016216571945,813.3350787122679 M684.3887899773912,712.9838501801407 L671.509977544219,705.5785565600365 M671.509977544219,705.5785565600365 L670.1654702048032,717.4936675626802 M506.2045601531174,838.5442185564978 L508.9691380329966,805.3602134226314 M519.8219489088053,797.4248692336312 L508.9691380329966,805.3602134226314 M519.8219489088053,797.4248692336312 L522.6868702195593,763.8372280070234 M522.6868702195593,763.8372280070234 L672.2658726315932,655.5471406313989 M672.2658726315932,655.5471406313989 L705.4843517057686,358.72348805462735 M871.7997303059135,249.1612495454989 L705.4843517057686,358.72348805462735 M871.7997303059135,249.1612495454989 L870.6295321258324,256.9188882381956 M870.6295321258324,256.9188882381956 L869.2625247177427,264.7787477111523 M869.2625247177427,264.7787477111523 L867.7011193373128,272.7309503870278 M867.7011193373128,272.7309503870278 L865.9479306686617,280.76552078451016 M865.9479306686617,280.76552078451016 L864.0057307857512,288.8724883268484 M864.0057307857512,288.8724883268484 L861.8774665319288,297.04194676053265 M861.8774665319288,297.04194676053265 L859.5662638112944,305.2639030431319 M859.5662638112944,305.2639030431319 L857.0754210913833,313.5284121370813 M857.0754210913833,313.5284121370813 L854.4083808937894,321.82556695631297 M854.4083808937894,321.82556695631297 L851.5687642494872,330.1454464264092 M851.5687642494872,330.1454464264092 L848.560315481855,338.47820276930395 M848.560315481855,338.47820276930395 L845.3869875169614,346.8139553839694 M845.3869875169614,346.8139553839694 L842.0528095538184,355.1429303239783 M842.0528095538184,355.1429303239783 L838.5619888864967,363.4553433339737 M838.5619888864967,363.4553433339737 L834.9188519202069,371.7415287461111 M834.9188519202069,371.7415287461111 L831.1278775022358,379.99181057456116 M831.1278775022358,379.99181057456116 L827.1936623200431,388.1966152348254 M827.1936623200431,388.1966152348254 L823.1209384449805,396.3464124554502 M823.1209384449805,396.3464124554502 L818.9145561849159,404.4317580193437 M818.9145561849159,404.4317580193437 L814.5794809223655,412.44328838492504 M814.5794809223655,412.44328838492504 L810.1208087796133,420.37168342883507 M810.1208087796133,420.37168342883507 L805.5437477869461,428.20773058371424 M805.5437477869461,428.20773058371424 L800.8536078916216,435.9423252603361 M800.8536078916216,435.9423252603361 L796.0558175713891,443.56643411199565 M796.0558175713891,443.56643411199565 L791.1559166661632,451.07113297697924 M791.1559166661632,451.07113297697924 L786.1595367481716,458.4475770024219 M786.1595367481716,458.4475770024219 L781.0724284526223,465.68705402465235 M781.0724284526223,465.68705402465235 L775.9004291173162,472.78094535594494 M775.9004291173162,472.78094535594494 L770.6494774924699,479.7207697036471 M770.1492815555528,480.3690327761918 L770.1770258022261,480.4115237563394 M770.1770258022261,480.4115237563394 L770.2176964919199,480.4326986977788 M770.2176964919199,480.4326986977788 L770.2689148731617,480.43134179044404 M770.2689148731617,480.43134179044404 L770.3277189521591,480.4075278111263 M770.3277189521591,480.4075278111263 L770.3906855436921,480.3626324771707 M770.3906855436921,480.3626324771707 L770.4541556122406,480.29927064295003 M770.4541556122406,480.29927064295003 L770.5144409499062,480.2211516691137 M770.5144409499062,480.2211516691137 L770.5680361284913,480.13277773050015 M770.5680361284913,480.13277773050015 L770.6118409680719,480.0392884514636 M770.6118409680719,480.0392884514636 L770.6432903280279,479.9461209710818 M770.6432903280279,479.9461209710818 L770.6605741097042,479.85870302644196 M770.6605741097042,479.85870302644196 L770.6626744936877,479.78210103130755 M770.6626744936877,479.78210103130755 L770.6494774924699,479.7207697036471 M671.509977544219,705.5785565600365 L672.380979028432,698.5840102923364 M672.380979028432,698.5840102923364 L673.4611914149524,691.4277395013328 M673.4611914149524,691.4277395013328 L674.7497419042271,684.1201435837152 M674.7497419042271,684.1201435837152 L676.2453946243436,676.6719582214628 M676.2453946243436,676.6719582214628 L677.9465493288532,669.0942305631884 M677.9465493288532,669.0942305631884 L679.8512401029373,661.3983076534114 M679.8512401029373,661.3983076534114 L681.9571352581825,653.5958049730052 M681.9571352581825,653.5958049730052 L684.2615371444599,645.698604709886 M684.2615371444599,645.698604709886 L686.7613872782374,637.7188056233745 M686.7613872782374,637.7188056233745 L689.453265897481,629.6687230831151 M689.453265897481,629.6687230831151 L692.3333985383362,621.5608511509649 M692.3333985383362,621.5608511509649 L695.3976579687436,613.4078605593286 M695.3976579687436,613.4078605593286 L698.6415769625096,605.2225041303266 M698.6415769625096,605.2225041303266 L702.0603490268239,597.0177047635418 M702.0603490268239,597.0177047635418 L705.6488365185207,588.806412216087 M705.6488365185207,588.806412216087 L709.4015895333769,580.6016452875658 M709.4015895333769,580.6016452875658 L713.3128453775882,572.4164348937745 M713.3128453775882,572.4164348937745 L717.3765425320119,564.2638231438709 M717.3765425320119,564.2638231438709 L721.5863376941957,556.1567941293608 M721.5863376941957,556.1567941293608 L725.9356176811082,548.1082846629658 M725.9356176811082,548.1082846629658 L730.4175068635436,540.1311129550056 M730.4175068635436,540.1311129550056 L735.0248917210204,532.2380003969458 M735.0248917210204,532.2380003969458 L739.7504253133393,524.4415032370987 M739.7504253133393,524.4415032370987 L744.5865644330154,516.7539980652268 M744.5865644330154,516.7539980652268 L749.5255505821403,509.1876789095547 M749.5255505821403,509.1876789095547 L754.5594674591214,501.7544723722511 M754.5594674591214,501.7544723722511 L759.6802268920001,494.4660900234173 M759.6802268920001,494.4660900234173 L764.879621172694,487.3339007847344 M764.879621172694,487.3339007847344 L770.1492815555528,480.3690327761918 M508.9691380329966,805.3602134226314 L522.0016216571945,813.3350787122679 M783.4335861006791,487.32588080164624 L770.1492815555528,480.3690327761918 M783.9343089260315,486.6756931910457 L770.6494774924699,479.7207697036471 M885.5055113792346,255.64220808421425 L871.7997303059135,249.1612495454989 M719.3348033748669,365.75291675748537 L705.4843517057686,358.72348805462735 M685.2962005771257,662.9177077903685 L672.2658726315932,655.5471406313989 M535.8065928248666,771.7406683567917 L522.6868702195593,763.8372280070234 M532.8490182066765,805.3602134226314 L519.8219489088053,797.4248692336312" stroke="black"  stroke-width="4"  fill="red"/>
<path d="M754.5237813425974,663.4970487295866 L755.9314871541642,652.4740432236883 M755.9314871541642,652.4740432236883 L756.0778065385682,652.5745480499131 M756.0778065385682,652.5745480499131 L756.1861235709534,652.6909871851042 M756.1861235709534,652.6909871851042 L756.2501762134543,652.8166028354588 M756.2501762134543,652.8166028354588 L756.2661961504623,652.9440693753866 M756.2661961504623,652.9440693753866 L756.2332787103264,653.0660187742483 M756.2332787103264,653.0660187742483 L756.1532933530373,653.1753207939682 M756.1532933530373,653.1753207939682 L756.0309266742297,653.2656380697963 M756.0309266742297,653.2656380697963 L755.8732729091334,653.3317300589415 M755.8732729091334,653.3317300589415 L755.6894623767405,653.3697285319931 M755.6894623767405,653.3697285319931 L755.4902503562566,653.3774415485861 M755.4902503562566,653.3774415485861 L755.287153292529,653.3544055309749 M755.287153292529,653.3544055309749 L755.0920271356438,653.3019825921003 M755.0920271356438,653.3019825921003 L754.9162014857511,653.2232000610752 M754.9162014857511,653.2232000610752 L754.769889270694,653.122652477819 M754.769889270694,653.122652477819 L754.6616109857855,653.0061803800024 M754.6616109857855,653.0061803800024 L754.5976608643157,652.8805719765517 M754.5976608643157,652.8805719765517 L754.5817109892123,652.7531107437053 M754.5817109892123,652.7531107437053 L754.614691076554,652.631186363574 M754.614691076554,652.631186363574 L754.6947172889086,652.521923335554 M754.6947172889086,652.521923335554 L754.8170936877659,652.4316500938412 M754.8170936877659,652.4316500938412 L754.9747238127902,652.3655971009744 M754.9747238127902,652.3655971009744 L755.1584827415945,652.3276236393881 M755.1584827415945,652.3276236393881 L755.3576270433018,652.319915930643 M755.3576270433018,652.319915930643 L755.5606146924517,652.342913471969 M755.5606146924517,652.342913471969 L755.7556875504013,652.3953034519225 M755.7556875504013,652.3953034519225 L755.9314871541642,652.4740432236883 M754.5237813425974,663.4970487295866 L754.348385302462,663.4181894524772 M754.348385302462,663.4181894524772 L754.1537441242781,663.3657199542117 M754.1537441242781,663.3657199542117 L753.9511911488271,663.3426875056764 M753.9511911488271,663.3426875056764 L753.7524593571807,663.3504069137794 M753.7524593571807,663.3504069137794 L753.5690668752359,663.3884380132381 M753.5690668752359,663.3884380132381 L753.4117357032303,663.4545912596711 M753.4117357032303,663.4545912596711 L753.2895734782903,663.5450015061497 M753.2895734782903,663.5450015061497 L753.2096642373285,663.6544303441576 M753.2096642373285,663.6544303441576 L753.1766970094834,663.7765397289254 M753.1766970094834,663.7765397289254 L753.1925549600999,663.9041943460627 M753.1925549600999,663.9041943460627 L753.2563137004838,664.0299933008789 M753.2563137004838,664.0299933008789 L753.3643121586535,664.1466420706904 M753.3643121586535,664.1466420706904 L753.510272368894,664.2473421556924 M753.510272368894,664.2473421556924 L753.6856943267808,664.3262441674494 M753.6856943267808,664.3262441674494 L753.8803885662492,664.3787466056644 M753.8803885662492,664.3787466056644 L754.0830505674537,664.4018175561837 M754.0830505674537,664.4018175561837 L754.2818497976027,664.394092843288 M754.2818497976027,664.394092843288 L754.4652936791904,664.3560367467605 M754.4652936791904,664.3560367467605 L754.6226484104873,664.2898445264955 M754.6226484104873,664.2898445264955 L754.7448009761829,664.1993902712472 M754.7448009761829,664.1993902712472 L754.8246695505507,664.0899224639829 M754.8246695505507,664.0899224639829 L754.8575744042209,663.9677880748852 M754.8575744042209,663.9677880748852 L754.8416466866327,663.840128153721 M754.8416466866327,663.840128153721 L754.7777857709175,663.7143219083268 M754.7777857709175,663.7143219083268 L754.6697487118934,663.5977060821679 M754.6697487118934,663.5977060821679 L754.5237813425974,663.4970487295866 M756.6926241945405,651.9124170373584 L757.0584488658587,652.1636161177205 M757.0584488658587,652.1636161177205 L757.3293051275232,652.4546321780801 M757.3293051275232,652.4546321780801 L757.489535251354,652.7686277405192 M757.489535251354,652.7686277405192 L757.5297254056218,653.087324050168 M757.5297254056218,653.087324050168 L757.4475159578769,653.3922158864636 M757.4475159578769,653.3922158864636 L757.2476575194344,653.6655497970467 M757.2476575194344,653.6655497970467 L756.9417358510586,653.8914427618547 M756.9417358510586,653.8914427618547 L756.5475443062546,654.056728750633 M756.5475443062546,654.056728750633 L756.0879700202374,654.1517890316454 M756.0879700202374,654.1517890316454 L755.589780746848,654.171078674236 M755.589780746848,654.171078674236 L755.0819342876862,654.1134678940607 M755.0819342876862,654.1134678940607 L754.5940510816511,653.9823515574953 M754.5940510816511,653.9823515574953 L754.1544098225183,653.7853092791315 M754.1544098225183,653.7853092791315 L753.7886710465832,653.5338658246094 M753.7886710465832,653.5338658246094 L753.5180158651649,653.2426208919844 M753.5180158651649,653.2426208919844 L753.3582108454266,652.9285505933437 M753.3582108454266,652.9285505933437 L753.3184586108437,652.6098874592169 M753.3184586108437,652.6098874592169 L753.4010595581515,652.3051519776179 M753.4010595581515,652.3051519776179 L753.6011733627543,652.032061768231 M753.6011733627543,652.032061768231 L753.9071557864725,651.8064440392845 M753.9071557864725,651.8064440392845 L754.3011995542424,651.6414017532395 M754.3011995542424,651.6414017532395 L754.7604513669471,651.5464978228663 M754.7604513669471,651.5464978228663 L755.2582173655051,651.5272413497423 M755.2582173655051,651.5272413497423 L755.7655956321976,651.5847316659001 M755.7655956321976,651.5847316659001 L756.2531868099045,651.7156648583839 M756.2531868099045,651.7156648583839 L756.6926241945405,651.9124170373584 M756.8582938130951,650.6164711039517 L757.2242219943616,650.8676250928002 M757.2242219943616,650.8676250928002 L757.495160617719,651.1585889270041 M757.495160617719,651.1585889270041 L757.6554471879454,651.472528154653 M757.6554471879454,651.472528154653 L757.6956645581181,651.791167302378 M757.6956645581181,651.791167302378 L757.6134514999026,652.0960044680564 M757.6134514999026,652.0960044680564 L757.4135588176857,652.3692893794503 M757.4135588176857,652.3692893794503 L757.1075742499011,652.5951418586508 M757.1075742499011,652.5951418586508 L756.7132948057024,652.7603982292983 M756.7132948057024,652.7603982292983 L756.2536127257306,652.8554414781447 M756.2536127257306,652.8554414781447 L755.7553020485855,652.8747276647439 M755.7553020485855,652.8747276647439 L755.2473276410346,652.8171272064699 M755.2473276410346,652.8171272064699 L754.7593174155031,652.6860343635058 M754.7593174155031,652.6860343635058 L754.3195574339841,652.4890273966498 M754.3195574339841,652.4890273966498 L753.9537151669581,652.2376290118311 M753.9537151669581,652.2376290118311 L753.6829777203407,651.9464362958113 M753.6829777203407,651.9464362958113 L753.5231164489667,651.6324223213919 M753.5231164489667,651.6324223213919 L753.4833372154867,651.3138163513877 M753.4833372154867,651.3138163513877 L753.5659419741446,651.0091355507673 M753.5659419741446,651.0091355507673 L753.7660901612392,650.7360943567185 M753.7660901612392,650.7360943567185 L754.0721355291578,650.510517131619 M754.0721355291578,650.510517131619 L754.4662671369233,650.3455044798545 M754.4662671369233,650.3455044798545 L754.9256265935919,650.250617592008 M754.9256265935919,650.250617592008 L755.4235137896944,650.2313645770735 M755.4235137896944,650.2313645770735 L755.9310197782502,650.2888445689632 M755.9310197782502,650.2888445689632 L756.4187378119091,650.4197542500931 M756.4187378119091,650.4197542500931 L756.8582938130951,650.6164711039517 M756.8582938130951,650.6164711039517 L756.6926241945405,651.9124170373584" stroke="black"  stroke-width="4"  fill="red"/>
<path d="M92.36718428351924,383.90174578026404 L-73.39376632456197,480.01073661319964 M92.36718428351924,383.90174578026404 L82.17137511450744,378.01519392005173 M-83.5781969836766,473.71075398900365 L82.17137511450744,378.01519392005173 M-73.39376632456197,480.01073661319964 L-83.5781969836766,473.71075398900365 M-73.39376632456197,480.01073661319964 L-74.29496843641016,448.44799227568365 M-74.29496843641016,448.44799227568365 L-63.36448644071618,442.1811083356343 M-63.36448644071618,442.1811083356343 L-64.21062206669694,410.284835074836 M-64.21062206669694,410.284835074836 L87.07512243780064,324.5356923285951 M87.07512243780064,324.5356923285951 L87.31977201459398,44.9904818403794 M87.31977201459398,44.9904818403794 L257.2485779936703,-41.43733193981626 M257.2485779936703,-41.43733193981626 L256.9339896281364,-34.18667938115868 M256.9339896281364,-34.18667938115868 L256.4137746572882,-26.85729980686864 M256.4137746572882,-26.85729980686864 L255.68928014463415,-19.458435866490277 M255.68928014463415,-19.458435866490277 L254.76207536021366,-11.999413876807125 M254.76207536021366,-11.999413876807125 L253.6339140056432,-4.489550154148446 M253.6339140056432,-4.489550154148446 L252.30676129149413,3.0619081937615533 M252.30676129149413,3.0619081937615533 L250.78277972841636,10.645640753716009 M250.78277972841636,10.645640753716009 L249.0643391641986,18.252382277801644 M249.0643391641986,18.252382277801644 L247.15398393770192,25.872911016811884 M247.15398393770192,25.872911016811884 L245.054464610801,33.49800382760344 M245.054464610801,33.49800382760344 L242.76868770488932,41.11851437320604 M242.76868770488932,41.11851437320604 L240.29979696221596,48.72528208932977 M240.29979696221596,48.72528208932977 L237.65104394466107,56.30925188036065 M237.65104394466107,56.30925188036065 L234.8258861770163,63.86137451620533 M234.8258861770163,63.86137451620533 L231.82793776853998,71.37272419834079 M231.82793776853998,71.37272419834079 L228.66098989506168,78.83438016393654 M228.66098989506168,78.83438016393654 L225.32898636361858,86.23753145780609 M225.32898636361858,86.23753145780609 L221.83603531619315,93.57342341996872 M221.83603531619315,93.57342341996872 L218.1863952432651,100.83339757686059 M218.1863952432651,100.83339757686059 L214.38447040965048,108.00888710844453 M214.38447040965048,108.00888710844453 L210.4348231294108,115.09138391047952 M210.4348231294108,115.09138391047952 L206.3421604922844,122.07249871478234 M206.3421604922844,122.07249871478234 L202.11132283561153,128.943961293756 M202.11132283561153,128.943961293756 L197.74729703736125,135.69758806826525 M197.74729703736125,135.69758806826525 L193.25521278016532,142.32531843821016 M193.25521278016532,142.32531843821016 L188.64031645327327,148.8191848354913 M188.64031645327327,148.8191848354913 L183.9080075535291,155.17136763234697 M183.9080075535291,155.17136763234697 L179.06379725275656,161.3741547663709 M179.06379725275656,161.3741547663709 L174.1133295562709,167.41998612858976 M174.1133295562709,167.41998612858976 L174.1356129215402,167.48016661901622 M174.1356129215402,167.48016661901622 L174.14285702689034,167.5532260810476 M174.14285702689034,167.5532260810476 L174.1346314690116,167.63491487076686 M174.1346314690116,167.63491487076686 L174.11143077013594,167.72050036265327 M174.11143077013594,167.72050036265327 L174.0745820919812,167.80499390495808 M174.0745820919812,167.80499390495808 L174.0262479547839,167.88348337806855 M174.0262479547839,167.88348337806855 L173.96922084031127,167.95140198601422 M173.96922084031127,167.95140198601422 L173.9068218504289,168.00483885983485 M173.9068218504289,168.00483885983485 L173.8426736257586,168.04066253605515 M173.8426736257586,168.04066253605515 L173.78050319881305,168.0567856253596 M173.78050319881305,168.0567856253596 L173.72393107451194,168.05227977120046 M173.72393107451194,168.05227977120046 L173.67622930017035,168.02740922160595 M173.67622930017035,168.02740922160595 L173.6401849647184,167.98360705166263 M173.6401849647184,167.98360705166263 L168.67271958297465,174.0505501781385 M168.67271958297465,174.0505501781385 L163.8044649741085,180.28496251285216 M163.8044649741085,180.28496251285216 L159.0431777557627,186.67726114641337 M159.0431777557627,186.67726114641337 L154.3964081186715,193.21762513402777 M154.3964081186715,193.21762513402777 L149.87153409334041,199.89590173940144 M149.87153409334041,199.89590173940144 L145.4757204789065,206.70172153992158 M145.4757204789065,206.70172153992158 L141.21592882653522,213.6244487279022 M141.21592882653522,213.6244487279022 L137.09886527718606,220.65325454319824 M137.09886527718606,220.65325454319824 L133.13100280963,227.77712096892745 M133.13100280963,227.77712096892745 L129.3185427387087,234.98484901829278 M129.3185427387087,234.98484901829278 L125.66741896368694,242.26512231655022 M125.66741896368694,242.26512231655022 L122.18326878106859,249.60648198439105 M122.18326878106859,249.60648198439105 L118.87143408136853,256.99739272045787 M118.87143408136853,256.99739272045787 L115.73694737437893,264.42622970502026 M115.73694737437893,264.42622970502026 L112.78452193532206,271.88134156335923 M112.78452193532206,271.88134156335923 L110.01853683232065,279.3510482210771 M110.01853683232065,279.3510482210771 L107.44304479590983,286.8236942244868 M107.44304479590983,286.8236942244868 L105.06174632117944,294.2876046871133 M105.06174632117944,294.2876046871133 L102.87799844199367,301.7312205252686 M102.87799844199367,301.7312205252686 L100.89480308260158,309.1430126827678 M100.89480308260158,309.1430126827678 L99.1148045105715,316.5115702674118 M99.1148045105715,316.5115702674118 L97.54028727644459,323.82560118732073 M97.54028727644459,323.82560118732073 L96.17317336033011,331.0739668000832 M96.17317336033011,331.0739668000832 L95.01502232622443,338.24568101055144 M95.01502232622443,338.24568101055144 L94.06703141484684,345.32995703607554 M94.06703141484684,345.32995703607554 L93.33003548291146,352.3162083728323 M93.33003548291146,352.3162083728323 L92.80451044149561,359.19407845209844 M92.80451044149561,359.19407845209844 L92.49057549960702,365.9534514179337 M92.49057549960702,365.9534514179337 L92.38799699028272,372.5844757694805 M92.38799699028272,372.5844757694805 L92.36718428351924,383.90174578026404 M92.38799699028272,372.5844757694805 L82.17137620235616,366.7099374816967 M82.17137620235616,366.7099374816967 L82.17137511450744,378.01519392005173 M82.17137620235616,366.7099374816967 L82.26185701484638,360.0861628312452 M82.26185701484638,360.0861628312452 L82.56368215863023,353.3345955871308 M82.56368215863023,353.3345955871308 L83.0771022605478,346.46507613038733 M83.0771022605478,346.46507613038733 L83.80201530912598,339.48770800449165 M83.80201530912598,339.48770800449165 L84.73796279249746,332.41283429889234 M84.73796279249746,332.41283429889234 L85.88412744322699,325.25102688811376 M85.88412744322699,325.25102688811376 L87.23932975121534,318.01305681250716 M87.23932975121534,318.01305681250716 L88.80202803107687,310.7098933258489 M88.80202803107687,310.7098933258489 L90.57031825013468,303.35265719562454 M90.57031825013468,303.35265719562454 L92.541933881369,295.95262162015007 M92.541933881369,295.95262162015007 L94.71424870034105,288.52117764033915 M94.71424870034105,288.52117764033915 L97.08427884951487,281.0698335266259 M97.08427884951487,281.0698335266259 L99.64868522678273,273.61012676562046 M99.64868522678273,273.61012676562046 L102.40378530449402,266.1537097815753 M102.40378530449402,266.1537097815753 L105.34554409466739,258.71221485899076 M105.34554409466739,258.71221485899076 L108.46960015245185,251.29729821585505 M108.46960015245185,251.29729821585505 L111.7712575951586,243.9205867531502 M111.7712575951586,243.9205867531502 L115.24550108853879,236.59368024770185 M115.24550108853879,236.59368024770185 L118.88700558696644,229.3280885020888 M118.88700558696644,229.3280885020888 L122.6901503383661,222.13524447509673 M122.6901503383661,222.13524447509673 L126.64901755334319,215.02643829718124 M126.64901755334319,215.02643829718124 L130.75742165855155,208.01284243333777 M130.75742165855155,208.01284243333777 L135.00890491308093,201.10544819041633 M135.00890491308093,201.10544819041633 L139.39677592222694,194.31505752956753 M139.39677592222694,194.31505752956753 L143.91408734404587,187.65227935858695 M143.91408734404587,187.65227935858695 L148.5536879553091,181.12745629530664 M148.5536879553091,181.12745629530664 L153.30821273371822,174.75071431167174 M153.30821273371822,174.75071431167174 L158.17012374185862,168.53184785114667 M158.17012374185862,168.53184785114667 L163.13167598075484,162.4804134349235 M163.13167598075484,162.4804134349235 L163.1678418404789,162.52422577066437 M163.1678418404789,162.52422577066437 L163.2156424912087,162.54914833854147 M163.2156424912087,162.54914833854147 L163.27228510558928,162.55374499839627 M163.27228510558928,162.55374499839627 L163.33449355278145,162.53774625196672 M163.33449355278145,162.53774625196672 L163.39864509339014,162.50207322515956 M163.39864509339014,162.50207322515956 L163.46101251219142,162.44880454665687 M163.46101251219142,162.44880454665687 L163.51797505420126,162.38106188158667 M163.51797505420126,162.38106188158667 L163.56621529289765,162.3027459057992 M163.56621529289765,162.3027459057992 L163.6029462300936,162.21841335636444 M163.6029462300936,162.21841335636444 L163.62601216753393,162.1329669614588 M163.62601216753393,162.1329669614588 L163.63409382629163,162.05138730998962 M163.63409382629163,162.05138730998962 L163.62670500215438,161.97840067543058 M163.62670500215438,161.97840067543058 L163.60428452779416,161.918252481143 M246.43770106238378,-46.54939704460685 L246.13656041967909,-39.308423863390374 M246.13656041967909,-39.308423863390374 L245.62970873650988,-31.989108203311105 M245.62970873650988,-31.989108203311105 L244.91847565568185,-24.600680757103873 M244.91847565568185,-24.600680757103873 L244.00441327236854,-17.15245564127514 M244.00441327236854,-17.15245564127514 L242.88925850006092,-9.653736892851043 M242.88925850006092,-9.653736892851043 L241.57496029575225,-2.1137592776186125 M241.57496029575225,-2.1137592776186125 L240.0636651674838,5.4581693656236325 M240.0636651674838,5.4581693656236325 L238.35772747004398,13.052796467170594 M238.35772747004398,13.052796467170594 L236.4596765011322,20.66091303845036 M236.4596765011322,20.66091303845036 L234.37224818514005,28.27330890145413 M234.37224818514005,28.27330890145413 L232.0983349011177,35.880850728943585 M232.0983349011177,35.880850728943585 L229.6410666631507,43.474391269874786 M229.6410666631507,43.474391269874786 L227.00368179737757,51.04488870798099 M227.00368179737757,51.04488870798099 L224.18962500575776,58.583307355108275 M224.18962500575776,58.583307355108275 L221.2024981511846,66.08073501268223 M221.2024981511846,66.08073501268223 L218.0460805345266,73.5282647693511 M218.0460805345266,73.5282647693511 L214.724304625355,80.9170996242807 M214.724304625355,80.9170996242807 L211.2412676721941,88.2384990754224 M211.2412676721941,88.2384990754224 L207.60121776957544,95.48381895719427 M207.60121776957544,95.48381895719427 L203.80854926329937,102.64450692243429 M203.80854926329937,102.64450692243429 L199.86781496960907,109.71206958059821 M199.86781496960907,109.71206958059821 L195.78371299204912,116.67813254119784 M195.78371299204912,116.67813254119784 L191.561075172004,123.53444061514426 M191.561075172004,123.53444061514426 L187.2048803263521,130.27282549855704 M187.2048803263521,130.27282549855704 L182.72025056585602,136.88524206958908 M182.72025056585602,136.88524206958908 L178.11242510138953,143.36373844736823 M178.11242510138953,143.36373844736823 L173.38679677785632,149.7005109112327 M173.38679677785632,149.7005109112327 L168.54887050834924,155.8878635169032 M168.54887050834924,155.8878635169032 L163.60428452779416,161.918252481143 M246.43770106238378,-46.54939704460685 L76.49540776020393,39.496863394003185 M76.76449604545002,318.70351645447056 L76.49540776020393,39.496863394003185 M-74.51100154600624,404.0797926936987 L76.76449604545002,318.70351645447056 M-73.60731635096795,435.94176324974336 L-74.51100154600624,404.0797926936987 M-73.60731635096795,435.94176324974336 L-84.53628390863605,442.18110457915697 M-83.5781969836766,473.71075398900365 L-84.53628390863605,442.18110457915697 M-84.53628390863605,442.18110457915697 L-74.29496843641016,448.44799227568365 M173.6401849647184,167.98360705166263 L163.13167598075484,162.4804134349235 M174.1133295562709,167.41998612858976 L163.60428452779416,161.918252481143 M257.2485779936703,-41.43733193981626 L246.43770106238378,-46.54939704460685 M87.31977201459398,44.9904818403794 L76.49540776020393,39.496863394003185 M87.07512243780064,324.5356923285951 L76.76449604545002,318.70351645447056 M-64.21062206669694,410.284835074836 L-74.51100154600624,404.0797926936987 M-63.36448644071618,442.1811083356343 L-73.60731635096795,435.94176324974336" stroke="black"  stroke-width="4"  fill="red"/>
<path d="M166.5772484949697,335.0666250488551 L166.7349712207992,324.61497373922253 M166.7349712207992,324.61497373922253 L166.84822786807854,324.6950288889612 M166.84822786807854,324.6950288889612 L166.92482357698134,324.7877779022051 M166.92482357698134,324.7877779022051 L166.9603147704347,324.8878263521716 M166.9603147704347,324.8878263521716 L166.95263782565758,324.98935898988225 M166.95263782565758,324.98935898988225 L166.90221604052238,325.08648459934204 M166.90221604052238,325.08648459934204 L166.81199181928793,325.1735485167161 M166.81199181928793,325.1735485167161 L166.6872101772497,325.24548620825647 M166.6872101772497,325.24548620825647 L166.53510612280854,325.2981239044301 M166.53510612280854,325.2981239044301 L166.36452555030127,325.32839794107423 M166.36452555030127,325.32839794107423 L166.18540065192263,325.33453816001764 M166.18540065192263,325.33453816001764 L166.0081291904125,325.31619784967523 M166.0081291904125,325.31619784967523 L165.84302101062286,325.2744418834518 M165.84302101062286,325.2744418834518 L165.6996855436371,325.2116926535325 M165.6996855436371,325.2116926535325 L165.58644169714762,325.1316073935822 M165.58644169714762,325.1316073935822 L165.50988192383022,325.0388349475071 M165.50988192383022,325.0388349475071 L165.47444207517918,324.93877539678743 M165.47444207517918,324.93877539678743 L165.48217401133184,324.83724653239443 M165.48217401133184,324.83724653239443 L165.53264184073572,324.74013870675884 M165.53264184073572,324.74013870675884 L165.62289260722082,324.6531025089359 M165.62289260722082,324.6531025089359 L165.74767521577343,324.581196120391 M165.74767521577343,324.581196120391 L165.89975443669812,324.52858614348764 M165.89975443669812,324.52858614348764 L166.07029006316748,324.4983298920123 M166.07029006316748,324.4983298920123 L166.24936020311884,324.49219344441343 M166.24936020311884,324.49219344441343 L166.42657963434,324.51052265432185 M166.42657963434,324.51052265432185 L166.59165043158595,324.5522551899651 M166.59165043158595,324.5522551899651 L166.7349712207992,324.61497373922253 M166.5772484949697,335.0666250488551 L166.43419863856792,335.0037830828556 M166.43419863856792,335.0037830828556 L166.26943811704956,334.96196842348087 M166.26943811704956,334.96196842348087 L166.09255026375502,334.94360314352224 M166.09255026375502,334.94360314352224 L165.91381374492482,334.94975166708707 M165.91381374492482,334.94975166708707 L165.74359444245817,334.9800674593338 M165.74359444245817,334.9800674593338 L165.59179585192902,335.03278096353756 M165.59179585192902,335.03278096353756 L165.46724187131468,335.1048288452233 M165.46724187131468,335.1048288452233 L165.37715447354424,335.19203629823295 M165.37715447354424,335.19203629823295 L165.32677524373264,335.2893351840319 M165.32677524373264,335.2893351840319 L165.31905194482778,335.3910637931586 M165.31905194482778,335.3910637931586 L165.3544199821947,335.4913201840803 M165.3544199821947,335.4913201840803 L165.43083164658356,335.58427512265956 M165.43083164658356,335.58427512265956 L165.54385966358416,335.664517908669 M165.54385966358416,335.664517908669 L165.68692414224313,335.7273905588791 M165.68692414224313,335.7273905588791 L165.85172190562923,335.769228651138 M165.85172190562923,335.769228651138 L166.02866159464958,335.78760503262225 M166.02866159464958,335.78760503262225 L166.20745266802885,335.78145273734197 M166.20745266802885,335.78145273734197 L166.3777167500321,335.7511191581777 M166.3777167500321,335.7511191581777 L166.52954008310923,335.69837793197775 M166.52954008310923,335.69837793197775 L166.65409310260765,335.6262987442184 M166.65409310260765,335.6262987442184 L166.7441540556568,335.53906356893197 M166.7441540556568,335.53906356893197 L166.7944874138356,335.4417468975599 M166.7944874138356,335.4417468975599 L166.80215592654406,335.34001451474455 M166.80215592654406,335.34001451474455 L166.7667367351092,335.23976922566766 M166.7667367351092,335.23976922566766 L166.6902892677287,335.1468377222238 M166.6902892677287,335.1468377222238 L166.5772484949697,335.0666250488551 M167.51113768695075,324.16760619495653 L167.79429416972226,324.36769151624185 M167.79429416972226,324.36769151624185 L167.98586237379294,324.5995131589306 M167.98586237379294,324.5995131589306 L168.07469081367844,324.849611339044 M168.07469081367844,324.849611339044 L168.0555889567126,325.1034564112577 M168.0555889567126,325.1034564112577 L167.92962926371695,325.34629951891765 M167.92962926371695,325.34629951891765 L167.70412667218557,325.5640068957117 M167.70412667218557,325.5640068957117 L167.39215070422335,325.74392351663926 M167.39215070422335,325.74392351663926 L167.01185163957297,325.8755650691926 M167.01185163957297,325.8755650691926 L166.58532328512456,325.95127869303064 M166.58532328512456,325.95127869303064 L166.13739722706566,325.9666435786647 M166.13739722706566,325.9666435786647 L165.6941246612809,325.9207695524277 M165.6941246612809,325.9207695524277 L165.28129620287848,325.81632898087554 M165.28129620287848,325.81632898087554 L164.9229233307991,325.6594035748235 M164.9229233307991,325.6594035748235 L164.63984417748554,325.4591285671661 M164.63984417748554,325.4591285671661 L164.44850004732712,325.2271601894628 M164.44850004732712,325.2271601894628 L164.35999302100896,324.97699291358134 M164.35999302100896,324.97699291358134 L164.37943832701473,324.72317128247096 M164.37943832701473,324.72317128247096 L164.50568579302563,324.4804393217112 M164.50568579302563,324.4804393217112 L164.73135429248612,324.26290518717906 M164.73135429248612,324.26290518717906 L165.04333630164547,324.08318422489623 M165.04333630164547,324.08318422489623 L165.42348015641494,323.9517159125255 M165.42348015641494,323.9517159125255 L165.84972760149327,323.8761134388952 M165.84972760149327,323.8761134388952 L166.2973116667443,323.86077227749786 M166.2973116667443,323.86077227749786 L166.74025853450604,323.9065766377878 M166.74025853450604,323.9065766377878 L167.15285387536608,324.0108710433022 M167.15285387536608,324.0108710433022 L167.51113768695075,324.16760619495653 M167.5298446133321,322.9391496929589 L167.81306454540828,323.139188534582 M167.81306454540828,323.139188534582 L168.00467634787583,323.37095633334945 M168.00467634787583,323.37095633334945 L168.09352599335705,323.6209964342583 M168.09352599335705,323.6209964342583 L168.07442170464583,323.87478256744515 M168.07442170464583,323.87478256744515 L167.9484360692084,324.1175693002832 M167.9484360692084,324.1175693002832 L167.722885525496,324.3352261454651 M167.722885525496,324.3352261454651 L167.41084237141774,324.51510101207646 M167.41084237141774,324.51510101207646 L167.03046079526501,324.6467120170976 M167.03046079526501,324.6467120170976 L166.60383940038076,324.72240807279053 M166.60383940038076,324.72240807279053 L166.15581519475415,324.73776939335926 M166.15581519475415,324.73776939335926 L165.7124450889392,324.69190601123853 M165.7124450889392,324.69190601123853 L165.29952537927204,324.58748967421894 M165.29952537927204,324.58748967421894 L164.9410728566009,324.4306006846552 M164.9410728566009,324.4306006846552 L164.65793028650063,324.23037215906004 M164.65793028650063,324.23037215906004 L164.46654265533698,323.99845762724533 M164.46654265533698,323.99845762724533 L164.37801456380737,323.7483484314031 M164.37801456380737,323.7483484314031 L164.39746245240184,323.4945857390464 M164.39746245240184,323.4945857390464 L164.52373598781782,323.2519101516655 M164.52373598781782,323.2519101516655 L164.74945251339597,323.03442654649655 M164.74945251339597,323.03442654649655 L165.06150171264596,322.85474733598977 M165.06150171264596,322.85474733598977 L165.44172801201978,322.7233095689022 M165.44172801201978,322.7233095689022 L165.86806837508664,322.6477246619742 M165.86806837508664,322.6477246619742 L166.31575043802007,322.63238706530296 M166.31575043802007,322.63238706530296 L166.758794702609,322.6781807824434 M166.758794702609,322.6781807824434 L167.171481191392,322.78245095526034 M167.171481191392,322.78245095526034 L167.5298446133321,322.9391496929589 M167.5298446133321,322.9391496929589 L167.51113768695075,324.16760619495653" stroke="black"  stroke-width="4"  fill="red"/>
<path d="M-73.60731635096795,435.94176324974336 L-84.53628390863605,442.18110457915697 M-84.53628390863605,442.18110457915697 L-85.50551137923458,410.2848313389632 M-74.51100154600624,404.0797926936987 L-85.50551137923458,410.2848313389632 M-73.60731635096795,435.94176324974336 L-74.51100154600624,404.0797926936987 M-73.39376632456197,480.01073661319964 L-27.532506700099304,508.38003367344123 M-27.532506700099304,508.38003367344123 L-27.776160026250352,496.34219412250724 M-27.776160026250352,496.34219412250724 L25.494146771411067,529.1598281313245 M25.62116923993665,541.2603434367247 L25.494146771411067,529.1598281313245 M25.62116923993665,541.2603434367247 L262.5433656158143,687.8179439952357 M262.5433656158143,687.8179439952357 L262.96877565628677,675.4581306120165 M262.96877565628677,675.4581306120165 L323.0806125307862,712.4905484961134 M322.50694616038516,724.9107897477163 L323.0806125307862,712.4905484961134 M322.50694616038516,724.9107897477163 L506.2045601531174,838.5442185564978 M506.2045601531174,838.5442185564978 L508.9691380329966,805.3602134226314 M508.9691380329966,805.3602134226314 L522.0016216571945,813.3350787122679 M522.0016216571945,813.3350787122679 L524.8952452139242,779.6837298755559 M-85.50551137923458,410.2848313389632 L524.8952452139242,779.6837298755559 M-84.53628390863605,442.18110457915697 L-74.29496843641016,448.44799227568365 M-73.39376632456197,480.01073661319964 L-74.29496843641016,448.44799227568365 M532.8490182066765,805.3602134226314 L519.8219489088053,797.4248692336312 M516.9940511738619,830.5784550547444 L519.8219489088053,797.4248692336312 M516.9940511738619,830.5784550547444 L333.3548143792873,717.4940559678676 M333.3548143792873,717.4940559678676 L333.9529461927159,705.0857293002045 M333.9529461927159,705.0857293002045 L273.853376811605,668.2284230039959 M273.40341449814173,680.5761938142566 L273.853376811605,668.2284230039959 M273.40341449814173,680.5761938142566 L36.49623959019402,534.6895849311904 M36.49623959019402,534.6895849311904 L36.39387475209577,522.6014627698466 M36.39387475209577,522.6014627698466 L-16.880346124580285,489.9299428777149 M-16.661324362917696,501.9553431564638 L-16.880346124580285,489.9299428777149 M-16.661324362917696,501.9553431564638 L-62.52807651159867,473.7107577653665 M-62.52807651159867,473.7107577653665 L-63.36448644071618,442.1811083356343 M-63.36448644071618,442.1811083356343 L-73.60731635096795,435.94176324974336 M535.8065928248666,771.7406683567917 L-74.51100154600624,404.0797926936987 M532.8490182066765,805.3602134226314 L535.8065928248666,771.7406683567917 M-73.39376632456197,480.01073661319964 L-62.52807651159867,473.7107577653665 M-74.29496843641016,448.44799227568365 L-63.36448644071618,442.1811083356343 M-16.661324362917696,501.9553431564638 L-27.532506700099304,508.38003367344123 M-16.880346124580285,489.9299428777149 L-27.776160026250352,496.34219412250724 M25.62116923993665,541.2603434367247 L36.49623959019402,534.6895849311904 M25.494146771411067,529.1598281313245 L36.39387475209577,522.6014627698466 M273.40341449814173,680.5761938142566 L262.5433656158143,687.8179439952357 M273.853376811605,668.2284230039959 L262.96877565628677,675.4581306120165 M322.50694616038516,724.9107897477163 L333.3548143792873,717.4940559678676 M323.0806125307862,712.4905484961134 L333.9529461927159,705.0857293002045 M516.9940511738619,830.5784550547444 L506.2045601531174,838.5442185564978 M519.8219489088053,797.4248692336312 L508.9691380329966,805.3602134226314 M522.0016216571945,813.3350787122679 L532.8490182066765,805.3602134226314 M524.8952452139242,779.6837298755559 L535.8065928248666,771.7406683567917" stroke="black"  stroke-width="4"  fill="red"/></svg>