<svg viewBox="0 0 800 800" xmlns="http://www.w3.org/2000/svg"><path d="M317.0322190791733,434.6265187110472 L303.01432923032587,441.7312635979234 M303.01432923032587,441.7312635979234 L289.76621839658554,434.6265201304495 M289.76621839658554,434.6265201304495 L303.7823277872851,427.55464115514377 M317.0322190791733,434.6265187110472 L303.7823277872851,427.55464115514377 M303.01432923032587,441.7312635979234 L301.30941056785093,368.6052980312785 M301.30941056785093,368.6052980312785 L315.4749106168035,361.5990291609383 M315.4749106168035,361.5990291609383 L313.88536290601405,287.05973162032956 M313.88536290601405,287.05973162032956 L299.5691131247165,293.961894974369 M299.5691131247165,293.961894974369 L296.34383704251366,155.62601249437344 M296.34383704251366,155.62601249437344 L310.9396740632691,148.92636473802207 M310.9396740632691,148.92636473802207 L307.8799659117842,5.446244737296695 M307.8799659117842,5.446244737296695 L482.7020284461015,-70.60662407567293 M482.7020284461015,-70.60662407567293 L482.20692550700727,205.90838690175906 M517.4191984790054,188.93181385835894 L482.20692550700727,205.90838690175906 M517.4191984790054,188.93181385835894 L517.2568594278563,194.7983699493583 M517.2568594278563,194.7983699493583 L516.846931504785,200.75901248668666 M516.846931504785,200.75901248668666 L516.1910926165368,206.79697996739472 M516.1910926165368,206.79697996739472 L515.2916616441332,212.89528004828753 M515.2916616441332,212.89528004828753 L514.1515883305801,219.03700284514872 M514.1515883305801,219.03700284514872 L512.7744380778564,225.20493983577666 M512.7744380778564,225.20493983577666 L511.16439117599737,231.38205165877332 M511.16439117599737,231.38205165877332 L509.3262124115012,237.55136091479915 M509.3262124115012,237.55136091479915 L507.2652513006391,243.69577783924655 M507.2652513006391,243.69577783924655 L504.98741686857073,249.79841804732007 M504.98741686857073,249.79841804732007 L502.4991718176947,255.84253750203692 M502.4991718176947,255.84253750203692 L499.80750043597664,261.8116404826375 M499.80750043597664,261.8116404826375 L499.8674829543647,261.8551274485886 M499.8674829543647,261.8551274485886 L499.9115980010772,261.9223013606006 M499.9115980010772,261.9223013606006 L499.93728432933733,262.00927795022733 M499.93728432933733,262.00927795022733 L499.9430503779306,262.1109035222431 M499.9430503779306,262.1109035222431 L499.92856176013413,262.221348441436 M499.92856176013413,262.221348441436 L499.89466050619563,262.33420349213617 M499.89466050619563,262.33420349213617 L499.8433180751568,262.4428740615326 M499.8433180751568,262.4428740615326 L499.7775164161455,262.5410628053127 M499.7775164161455,262.5410628053127 L499.7010797242747,262.62301141559385 M499.7010797242747,262.62301141559385 L499.61844795151643,262.6840365246175 M499.61844795151643,262.6840365246175 L499.53442176287365,262.7206024174808 M499.53442176287365,262.7206024174808 L499.45388570625573,262.7305107974299 M499.45388570625573,262.7305107974299 L499.3815201845292,262.71320235008216 M499.3815201845292,262.71320235008216 L496.67477439559286,268.71737886923387 M496.67477439559286,268.71737886923387 L494.1765080406295,274.7915379226001 M494.1765080406295,274.7915379226001 L491.89440888575695,280.91659296307523 M491.89440888575695,280.91659296307523 L489.8354373553309,287.0732646878163 M489.8354373553309,287.0732646878163 L488.00580305598675,293.24226701643147 M488.00580305598675,293.24226701643147 L486.41094362085227,299.4043331875491 M486.41094362085227,299.4043331875491 L485.0555114807112,305.54013289203704 M485.0555114807112,305.54013289203704 L483.943359006254,311.6305593872203 M483.943359006254,311.6305593872203 L483.07752909750684,317.6568542535265 M483.07752909750684,317.6568542535265 L482.4602510097731,323.6002563734197 M482.4602510097731,323.6002563734197 L482.09293682534917,329.4426483772537 M482.09293682534917,329.4426483772537 L481.9761838997065,335.16599140920187 M481.9761838997065,335.16599140920187 L481.9477567596905,351.04169704843014 M516.4702743068492,333.54450719531945 L481.9477567596905,351.04169704843014 M516.4702743068492,333.54450719531945 L516.3118298354267,339.18741249785114 M516.3118298354267,339.18741249785114 L515.9105972991285,344.9293354138736 M515.9105972991285,344.9293354138736 L515.2682121875478,350.7538927787764 M515.2682121875478,350.7538927787764 L514.3869373766781,356.6448699534921 M514.3869373766781,356.6448699534921 L513.2696586722254,362.5856948397659 M513.2696586722254,362.5856948397659 L511.9198648446715,368.5598730353704 M511.9198648446715,368.5598730353704 L510.3416510378278,374.550792509202 M510.3416510378278,374.550792509202 L508.53968715720646,380.54190592495354 M508.53968715720646,380.54190592495354 L506.5192176985728,386.51664006579347 M506.5192176985728,386.51664006579347 L504.286037684536,392.4585992897165 M504.286037684536,392.4585992897165 L501.84648738486,398.3514011928204 M501.84648738486,398.3514011928204 L499.2074201915233,404.17888452567024 M499.2074201915233,404.17888452567024 L499.26624490680416,404.21871040818 M499.26624490680416,404.21871040818 L499.30951140540043,404.28180894075047 M499.30951140540043,404.28180894075047 L499.33470768573085,404.3645318772845 M499.33470768573085,404.3645318772845 L499.340370293406,404.46205171818406 M499.340370293406,404.46205171818406 L499.32617114552977,404.5686992552976 M499.32617114552977,404.5686992552976 L499.29293544003076,404.6782855787268 M499.29293544003076,404.6782855787268 L499.2425957206655,404.78445698995307 M499.2425957206655,404.78445698995307 L499.1780758202352,404.88103515765914 M499.1780758202352,404.88103515765914 L499.10312534978374,404.9623829159169 M499.10312534978374,404.9623829159169 L499.0220981695908,405.0237991839945 M499.0220981695908,405.0237991839945 L498.93970174363346,405.06172514683556 M498.93970174363346,405.06172514683556 L498.8607257872873,405.07391034478786 M498.8607257872873,405.07391034478786 L498.78975983699195,405.05971215645377 M498.78975983699195,405.05971215645377 L496.13589157516753,410.9214594328448 M496.13589157516753,410.9214594328448 L493.68644845766835,416.8436293547474 M493.68644845766835,416.8436293547474 L491.4489627473595,422.8075630301258 M491.4489627473595,422.8075630301258 L489.4302548263152,428.7945420967579 M489.4302548263152,428.7945420967579 L487.63641066006426,434.78586571155324 M487.63641066006426,434.78586571155324 L486.07276131465187,440.7627744922279 M486.07276131465187,440.7627744922279 L484.7438693724862,446.70659976364504 M484.7438693724862,446.70659976364504 L483.65351467784006,452.5989376928357 M483.65351467784006,452.5989376928357 L482.80468554192674,458.4215163490925 M482.80468554192674,458.4215163490925 L482.19957349053504,464.1563645023724 M482.19957349053504,464.1563645023724 L481.8395707518746,469.7859270398273 M481.8395707518746,469.7859270398273 L481.7252716705606,475.29295067968326 M481.7252716705606,475.29295067968326 L481.69793503602705,490.55964169317656 M481.69793503602705,490.55964169317656 L515.5578553191951,472.59393930811547 M515.5578553191951,472.59393930811547 L515.4031283161762,478.0259667378612 M515.4031283161762,478.0259667378612 L515.0102324546037,483.56134266435396 M515.0102324546037,483.56134266435396 L514.3807608422567,489.1843458748398 M514.3807608422567,489.1843458748398 L513.5169248166569,494.87919527697557 M513.5169248166569,494.87919527697557 L512.4215470355039,500.62994243194623 M512.4215470355039,500.62994243194623 L511.0980445314969,506.4204934273281 M511.0980445314969,506.4204934273281 L509.5504296193581,512.2348180731207 M509.5504296193581,512.2348180731207 L507.7832813259101,518.0567301156964 M507.7832813259101,518.0567301156964 L505.80174290745845,523.8701962715141 M505.80174290745845,523.8701962715141 L503.6115004679075,529.6591375568843 M503.6115004679075,529.6591375568843 L501.21877572916475,535.4076419707173 M501.21877572916475,535.4076419707173 L498.6302959125199,541.0998943930954 M498.6302959125199,541.0998943930954 L498.6880067743257,541.1362802085283 M498.6880067743257,541.1362802085283 L498.7304566425235,541.1955876181213 M498.7304566425235,541.1955876181213 L498.75518121468957,541.2743155833975 M498.75518121468957,541.2743155833975 L498.76074410502247,541.367941857105 M498.76074410502247,541.367941857105 L498.7468229891217,541.4710235349611 M498.7468229891217,541.4710235349611 L498.7142271003509,541.5775308314006 M498.7142271003509,541.5775308314006 L498.6648517812576,541.6812883593655 M498.6648517812576,541.6812883593655 L498.60156465849644,541.7763061529429 M498.60156465849644,541.7763061529429 L498.5280438198709,541.85701404713 M498.5280438198709,541.85701404713 L498.4485601021925,541.9187471891499 M498.4485601021925,541.9187471891499 L498.3677313191105,541.9579279997381 M498.3677313191105,541.9579279997381 L498.29025596641236,541.9722594169303 M498.29025596641236,541.9722594169303 L498.2206366868024,541.960899295196 M498.2206366868024,541.960899295196 L495.6176193856477,547.6866658912413 M495.6176193856477,547.6866658912413 L493.21512799135627,553.4638696321557 M493.21512799135627,553.4638696321557 L491.0205448643099,559.2744077954053 M491.0205448643099,559.2744077954053 L489.0405559802395,565.1000693977924 M489.0405559802395,565.1000693977924 L487.2811287635429,570.9226101057601 M487.2811287635429,570.9226101057601 L485.7474914089662,576.7238996842633 M485.7474914089662,576.7238996842633 L484.44412020915195,582.4858453111673 M484.44412020915195,582.4858453111673 L483.37472544406677,588.1905719647377 M483.37472544406677,588.1905719647377 L482.5422423258129,593.8204652339232 M482.5422423258129,593.8204652339232 L481.94882615642314,599.35816291402 M481.94882615642314,599.35816291402 L481.5958496208719,604.7867270096357 M481.5958496208719,604.7867270096357 L481.48390396073756,610.0895819906619 M481.48390396073756,610.0895819906619 L481.45759624437545,624.7816530456107 M514.679874577125,606.3951043898699 L481.45759624437545,624.7816530456107 M514.679874577125,606.3951043898699 L513.7634175507559,746.0599193452017 M481.20612630872785,764.8547785446218 L513.7634175507559,746.0599193452017 M481.20612630872785,764.8547785446218 L481.1803104477119,779.2729379384394 M481.1803104477119,779.2729379384394 L313.1551700605229,876.6838473706408 M313.1551700605229,876.6838473706408 L310.4304622736,759.817927493592 M310.4304622736,759.817927493592 L323.8071334128929,752.3252904468375 M322.9578985093748,712.5017779309655 L323.8071334128929,752.3252904468375 M322.9578985093748,712.5017779309655 L309.50093486594653,719.9494043192053 M309.50093486594653,719.9494043192053 L307.9272717110975,652.453141765577 M307.9272717110975,652.453141765577 L321.52021851252164,645.0840739349044 M321.52021851252164,645.0840739349044 L320.0539586517243,576.3261629304347 M320.0539586517243,576.3261629304347 L306.3222542163855,583.6120547181823 M306.3222542163855,583.6120547181823 L304.6849346652673,513.3854945004298 M304.6849346652673,513.3854945004298 L318.5582570494689,506.1876285500454 M318.5582570494689,506.1876285500454 L317.0322190791733,434.6265187110472 M287.929562208302,361.5990305606336 L301.30941056785093,368.6052980312785 M289.76621839658554,434.6265201304495 L287.929562208302,361.5990305606336 M302.093226512468,354.6255033380007 L287.929562208302,361.5990305606336 M302.093226512468,354.6255033380007 L300.3692401791173,280.19015788281513 M300.3692401791173,280.19015788281513 L286.0548837421109,287.05973299919333 M286.0548837421109,287.05973299919333 L282.58080152099456,148.9263660763684 M297.1746352946694,142.2589495161401 L282.58080152099456,148.9263660763684 M297.1746352946694,142.2589495161401 L293.85667944845966,-0.9980965752101838 M293.85667944845966,-0.9980965752101838 L468.66728242500034,-76.68384737064082 M468.66728242500034,-76.68384737064082 L468.6805651876039,199.41619538082085 M468.6805651876039,199.41619538082085 L503.89349970594276,182.51722407139727 M503.89349970594276,182.51722407139727 L503.7418703446326,188.3753106060058 M503.7418703446326,188.3753106060058 L503.34259591091535,194.32699462852509 M503.34259591091535,194.32699462852509 L502.69732375295615,200.3555391411079 M502.69732375295615,200.3555391411079 L501.80834254283417,206.44397734901298 M501.80834254283417,206.44397734901298 L500.6785727459253,212.57542553254297 M500.6785727459253,212.57542553254297 L499.3115507072218,218.73270248307443 M499.3115507072218,218.73270248307443 L497.7114287514981,224.89879667958064 M497.7114287514981,224.89879667958064 L495.88294456838486,231.0567592235814 M495.88294456838486,231.0567592235814 L493.8314211245314,237.189529783613 M493.8314211245314,237.189529783613 L491.5627420051438,243.28025389542427 M491.5627420051438,243.28025389542427 L489.0833454522758,249.3122180445753 M489.0833454522758,249.3122180445753 L486.40019243585533,255.26895747092686 M485.9754805418728,256.1686220642607 L486.0479452153656,256.1860197824193 M486.0479452153656,256.1860197824193 L486.1285377864138,256.176250629126 M486.1285377864138,256.176250629126 L486.21257453673553,256.1398658470421 M486.21257453673553,256.1398658470421 L486.2951704368563,256.0790531036164 M486.2951704368563,256.0790531036164 L486.3715268855129,255.9973357890674 M486.3715268855129,255.9973357890674 L486.4372084474046,255.89938394250538 M486.4372084474046,255.89938394250538 L486.48839800054157,255.79094203612138 M486.48839800054157,255.79094203612138 L486.5221224473171,255.6782941566035 M486.5221224473171,255.6782941566035 L486.53642066906673,255.5680228291771 M486.53642066906673,255.5680228291771 L486.53046168441847,255.4665271963702 M486.53046168441847,255.4665271963702 L486.5045909532101,255.3796294461878 M486.5045909532101,255.3796294461878 L486.46031093764384,255.31247855400858 M486.46031093764384,255.31247855400858 L486.40019243585533,255.26895747092686 M468.68747112939997,328.49616173645984 L468.79380051380883,322.78063409587975 M468.79380051380883,322.78063409587975 L469.1507045543074,316.94663582553034 M469.1507045543074,316.94663582553034 L469.7576174231177,311.0121794858235 M469.7576174231177,311.0121794858235 L470.6131581243245,304.99535445107574 M470.6131581243245,304.99535445107574 L471.71512910180485,298.91489140426756 M471.71512910180485,298.91489140426756 L473.0605185941359,292.78951679030877 M473.0605185941359,292.78951679030877 L474.64550546884095,286.6383034011428 M474.64550546884095,286.6383034011428 L476.46546841919024,280.48054583265775 M476.46546841919024,280.48054583265775 L478.5150003105213,274.33547381739174 M478.5150003105213,274.33547381739174 L480.7879215740874,268.2223350375769 M480.7879215740874,268.2223350375769 L483.2773013312784,262.16036913535055 M483.2773013312784,262.16036913535055 L485.9754805418728,256.1686220642607 M468.68747112939997,328.49616173645984 L468.6882323452883,344.3507671812896 M468.6882323452883,344.3507671812896 L503.21137322511805,326.93199087582013 M503.21137322511805,326.93199087582013 L503.0632202670389,332.5672403861023 M503.0632202670389,332.5672403861023 L502.67222589532685,338.30100736238376 M502.67222589532685,338.30100736238376 L502.0399958387833,344.11693135999155 M502.0399958387833,344.11693135999155 L501.1687643060734,349.99882100226296 M501.1687643060734,349.99882100226296 L500.0613885618116,355.9301286979353 M500.0613885618116,355.9301286979353 L498.7213297557543,361.89438522132855 M498.7213297557543,361.89438522132855 L497.15265597904715,367.8750046734668 M497.15265597904715,367.8750046734668 L495.36001096240665,373.8554665461954 M495.36001096240665,373.8554665461954 L493.3486137378755,379.81922529286055 M493.3486137378755,379.81922529286055 L491.12423492646764,385.74991351271217 M491.12423492646764,385.74991351271217 L488.6931911455704,391.6311778481506 M488.6931911455704,391.6311778481506 L486.0623132305092,397.44688661291195 M485.6458722574544,398.32590417926036 L485.71693344789026,398.34020043813473 M485.71693344789026,398.34020043813473 L485.795963749529,398.3281601552835 M485.795963749529,398.3281601552835 L485.8783703463484,398.2904176115622 M485.8783703463484,398.2904176115622 L485.9593630146656,398.2292125442977 M485.9593630146656,398.2292125442977 L486.03423627600074,398.1480915102474 M486.03423627600074,398.1480915102474 L486.09864070754173,398.0517424525549 M486.09864070754173,398.0517424525549 L486.1488334517784,397.9457891938266 M486.1488334517784,397.9457891938266 L486.18189923280363,397.83639738310023 M486.18189923280363,397.83639738310023 L486.19591535338395,397.72990943531863 M486.19591535338395,397.72990943531863 L486.1900672368722,397.6325049994737 M486.1900672368722,397.6325049994737 L486.1646937515045,397.5498465737696 M486.1646937515045,397.5498465737696 L486.12126868869876,397.4867578809325 M486.12126868869876,397.4867578809325 L486.0623132305092,397.44688661291195 M468.6941902639846,468.4423049961015 L468.7984661498978,462.9423311668106 M468.7984661498978,462.9423311668106 L469.14845894865795,457.3204002012173 M469.14845894865795,457.3204002012173 L469.74360443937206,451.59374173421975 M469.74360443937206,451.59374173421975 L470.5825404582054,445.77988524282694 M470.5825404582054,445.77988524282694 L471.66310570847395,439.8967742067792 M471.66310570847395,439.8967742067792 L472.98234207529515,433.9626508636199 M472.98234207529515,433.9626508636199 L474.5364995818131,427.99588765850086 M474.5364995818131,427.99588765850086 L476.3210454440384,422.0151200602708 M476.3210454440384,422.0151200602708 L478.3306780220058,416.0390727014326 M478.3306780220058,416.0390727014326 L480.55934014224556,410.0864103780711 M480.55934014224556,410.0864103780711 L483.00023973771414,404.1758140812966 M483.00023973771414,404.1758140812966 L485.6458722574544,398.32590417926036 M468.6941902639846,468.4423049961015 L468.6949223424182,483.6900354966244 M502.55543063504064,465.80329824479713 L468.6949223424182,483.6900354966244 M502.55543063504064,465.80329824479713 L502.4106011251488,471.2284099452776 M502.4106011251488,471.2284099452776 L502.02755179019726,476.7563613650771 M502.02755179019726,476.7563613650771 L501.4078472886183,482.3714519750265 M501.4078472886183,482.3714519750265 L500.55367118698797,488.0579222464026 M500.55367118698797,488.0579222464026 L499.467818854587,493.7998463242006 M499.467818854587,493.7998463242006 L498.15368054934765,499.58115386643726 M498.15368054934765,499.58115386643726 L496.6152427183105,505.3858390126861 M496.6152427183105,505.3858390126861 L494.8570589952849,511.1977408412219 M494.8570589952849,511.1977408412219 L492.8842482880542,517.0008520525425 M492.8842482880542,517.0008520525425 L490.7024730059011,522.7791205304308 M490.7024730059011,522.7791205304308 L488.31793221199365,528.5166617855749 M488.31793221199365,528.5166617855749 L485.73733133851215,534.197688916494 M485.3288453011853,535.056965232313 L485.3985562250258,535.0684309809246 M485.3985562250258,535.0684309809246 L485.47608378757315,535.0542492904615 M485.47608378757315,535.0542492904615 L485.55692232840414,535.0152535911598 M485.55692232840414,535.0152535911598 L485.63637281900606,534.9537301599537 M485.63637281900606,534.9537301599537 L485.7098193573503,534.8732444031951 M485.7098193573503,534.8732444031951 L485.7729953769781,534.7784482992355 M485.7729953769781,534.7784482992355 L485.8222293336093,534.6748990744825 M485.8222293336093,534.6748990744825 L485.85466174286086,534.568574643208 M485.85466174286086,534.568574643208 L485.86840673529485,534.4656397834949 M485.86840673529485,534.4656397834949 L485.86266538614416,534.372115703509 M485.86266538614416,534.372115703509 L485.83777039526205,534.293439365413 M485.83777039526205,534.293439365413 L485.79516795636914,534.2341300777525 M485.79516795636914,534.2341300777525 L485.73733133851215,534.197688916494 M468.7006543619927,603.0765461311005 L468.8029545637382,597.7800444008446 M468.8029545637382,597.7800444008446 L469.14629870072844,592.3584171929342 M469.14629870072844,592.3584171929342 L469.73012444599726,586.8282187098155 M469.73012444599726,586.8282187098155 L470.55308805548884,581.2063635712726 M470.55308805548884,581.2063635712726 L471.61306332109353,575.5101885019628 M471.61306332109353,575.5101885019628 L472.90714397548487,569.7572805554847 M472.90714397548487,569.7572805554847 L474.4316485637092,563.9654855416536 M474.4316485637092,563.9654855416536 L476.18212943495325,558.152865308846 M476.18212943495325,558.152865308846 L478.15338653832464,552.3375176233735 M478.15338653832464,552.3375176233735 L480.339480249608,546.5376528178947 M480.339480249608,546.5376528178947 L482.73375179599753,540.7714465857418 M482.73375179599753,540.7714465857418 L485.3288453011853,535.056965232313 M468.7006543619927,603.0765461311005 L468.7013589450075,617.7516020155599 M501.9241925833147,599.444343711699 L468.7013589450075,617.7516020155599 M501.9241925833147,599.444343711699 L501.26523564518925,738.9538265256576 M501.26523564518925,738.9538265256576 L468.70742191269954,757.6692612786546 M468.70811481245704,772.0721124310394 L468.70742191269954,757.6692612786546 M468.70811481245704,772.0721124310394 L300.6924401572112,869.0652304082136 M300.6924401572112,869.0652304082136 L297.75640700499173,752.3252919438887 M311.131525304119,744.8657737328055 L297.75640700499173,752.3252919438887 M311.131525304119,744.8657737328055 L310.21022098260886,705.087264985767 M296.7548375802603,712.5017794190044 L310.21022098260886,705.087264985767 M296.7548375802603,712.5017794190044 L295.05926863762613,645.0840754072148 M308.65058807918774,637.7480919867608 L295.05926863762613,645.0840754072148 M308.65058807918774,637.7480919867608 L307.060021281279,569.0733079809186 M293.32999321662646,576.3261643860943 L307.060021281279,569.0733079809186 M293.32999321662646,576.3261643860943 L291.5659948374122,506.1876299880852 M305.4375898520959,499.0227272005749 L291.5659948374122,506.1876299880852 M305.4375898520959,499.0227272005749 L303.7823277872851,427.55464115514377 M318.5582570494689,506.1876285500454 L305.4375898520959,499.0227272005749 M315.4749106168035,361.5990291609383 L302.093226512468,354.6255033380007 M313.88536290601405,287.05973162032956 L300.3692401791173,280.19015788281513 M299.5691131247165,293.961894974369 L286.0548837421109,287.05973299919333 M282.58080152099456,148.9263660763684 L296.34383704251366,155.62601249437344 M310.9396740632691,148.92636473802207 L297.1746352946694,142.2589495161401 M307.8799659117842,5.446244737296695 L293.85667944845966,-0.9980965752101838 M482.7020284461015,-70.60662407567293 L468.66728242500034,-76.68384737064082 M482.20692550700727,205.90838690175906 L468.6805651876039,199.41619538082085 M517.4191984790054,188.93181385835894 L503.89349970594276,182.51722407139727 M493.79939208930097,193.82553923265257 L493.6090160508779,193.754333523463 M493.6090160508779,193.754333523463 L493.3887934322738,193.7069493415156 M493.3887934322738,193.7069493415156 L493.15151770835837,193.68613870776318 M493.15151770835837,193.68613870776318 L492.91097347750946,193.6931089230236 M492.91097347750946,193.6931089230236 L492.68113133897833,193.72745702520086 M492.68113133897833,193.72745702520086 L492.47534494785816,193.78718711323398 M492.47534494785816,193.78718711323398 L492.3055695028274,193.868831557364 M492.3055695028274,193.868831557364 L492.1816725098442,193.9676484525241 M492.1816725098442,193.9676484525241 L492.11085617944894,194.07789842512005 M492.11085617944894,194.07789842512005 L492.09724518899174,194.19317518504818 M492.09724518899174,194.19317518504818 L492.1416338873664,194.30678066047884 M492.1416338873664,194.30678066047884 L492.2414510527174,194.41211060547667 M492.2414510527174,194.41211060547667 L492.39089877050264,194.5030413399011 M492.39089877050264,194.5030413399011 L492.58129528975934,194.57428523304108 M492.58129528975934,194.57428523304108 L492.80157213559744,194.62169860255585 M492.80157213559744,194.62169860255585 L493.0389240878694,194.64252306370798 M493.0389240878694,194.64252306370798 L493.2795490847041,194.63554814860453 M493.2795490847041,194.63554814860453 L493.5094580248237,194.60117789493205 M493.5094580248237,194.60117789493205 L493.7152819493521,194.5414132794025 M493.7152819493521,194.5414132794025 L493.88505706133225,194.45972984116676 M493.88505706133225,194.45972984116676 L494.0089159311061,194.3608784185222 M494.0089159311061,194.3608784185222 L494.0796650815236,194.2506062947383 M494.0796650815236,194.2506062947383 L494.09319522571127,194.1353248346112 M494.09319522571127,194.1353248346112 L494.0487305351829,194.0217331866827 M494.0487305351829,194.0217331866827 L493.9488596411798,193.91643242914495 M493.9488596411798,193.91643242914495 L493.79939208930097,193.82553923265257 M499.80750043597664,261.8116404826375 L486.40019243585533,255.26895747092686 M499.3815201845292,262.71320235008216 L485.9754805418728,256.1686220642607 M481.9761838997065,335.16599140920187 L468.68747112939997,328.49616173645984 M481.9477567596905,351.04169704843014 L468.6882323452883,344.3507671812896 M516.4702743068492,333.54450719531945 L503.21137322511805,326.93199087582013 M493.31287537677446,338.5888339084036 L493.1262513648082,338.51543935678455 M493.1262513648082,338.51543935678455 L492.91036294693146,338.4665985587085 M492.91036294693146,338.4665985587085 L492.6777518990501,338.4451481842878 M492.6777518990501,338.4451481842878 L492.4419319496467,338.452332671956 M492.4419319496467,338.452332671956 L492.21659944844873,338.4877366639679 M492.21659944844873,338.4877366639679 L492.01484615403166,338.5493028652413 M492.01484615403166,338.5493028652413 L491.8483930229998,338.6334569907299 M491.8483930229998,338.6334569907299 L491.7269144643214,338.73531130571104 M491.7269144643214,338.73531130571104 L491.6574720399419,338.8489499607489 M491.6574720399419,338.8489499607489 L491.64411029147516,338.9677697213442 M491.64411029147516,338.9677697213442 L491.68760888406456,339.08486664402494 M491.68760888406456,339.08486664402494 L491.78544803392646,339.1934335378729 M491.78544803392646,339.1934335378729 L491.93194463257123,339.28715858328724 M491.93194463257123,339.28715858328724 L492.1185883353476,339.3605917256619 M492.1185883353476,339.3605917256619 L492.3345288657748,339.4094620172635 M492.3345288657748,339.4094620172635 L492.5672131737449,339.4309263640294 M492.5672131737449,339.4309263640294 L492.8031107472959,339.42373712725197 M492.8031107472959,339.42373712725197 L493.0285074544119,339.3883107515424 M493.0285074544119,339.3883107515424 L493.2302968273851,339.32670966083845 M493.2302968273851,339.32670966083845 L493.3967496446144,339.2425161324888 M493.3967496446144,339.2425161324888 L493.51819156902224,339.1406269280893 M493.51819156902224,339.1406269280893 L493.5875694309628,339.0269658896645 M493.5875694309628,339.0269658896645 L493.6008534796381,338.90814137960035 M493.6008534796381,338.90814137960035 L493.5572818495117,338.79105842936843 M493.5572818495117,338.79105842936843 L493.45939105686665,338.68252102893746 M493.45939105686665,338.68252102893746 L493.31287537677446,338.5888339084036 M499.2074201915233,404.17888452567024 L486.0623132305092,397.44688661291195 M498.78975983699195,405.05971215645377 L485.6458722574544,398.32590417926036 M481.7252716705606,475.29295067968326 L468.6941902639846,468.4423049961015 M481.69793503602705,490.55964169317656 L468.6949223424182,483.6900354966244 M515.5578553191951,472.59393930811547 L502.55543063504064,465.80329824479713 M492.8451063177326,477.77375477706227 L492.6620892977928,477.6983913122218 M492.6620892977928,477.6983913122218 L492.45036777047585,477.648240250398 M492.45036777047585,477.648240250398 L492.22224152549876,477.62621441159035 M492.22224152549876,477.62621441159035 L491.9909638616235,477.6335916432825 M491.9909638616235,477.6335916432825 L491.7699674390982,477.66994543656455 M491.7699674390982,477.66994543656455 L491.57209219522207,477.7331632663932 M491.57209219522207,477.7331632663932 L491.4088338472898,477.8195749018491 M491.4088338472898,477.8195749018491 L491.2896811195902,477.92416142370496 M491.2896811195902,477.92416142370496 L491.2215603134258,478.0408482328826 M491.2215603134258,478.0408482328826 L491.2084388887954,478.1628549370116 M491.2084388887954,478.1628549370116 L491.2510823580828,478.28309240930116 M491.2510823580828,478.28309240930116 L491.34702035847397,478.3945709129785 M491.34702035847397,478.3945709129785 L491.4906801294209,478.49080940427723 M491.4906801294209,478.49080940427723 L491.6737160954707,478.56621173795065 M491.6737160954707,478.56621173795065 L491.88548774198324,478.6163925007892 M491.88548774198324,478.6163925007892 L492.1136844488383,478.6384324102386 M492.1136844488383,478.6384324102386 L492.34503677484895,478.63105039602704 M492.34503677484895,478.63105039602704 L492.56609495602225,478.5946740615761 M492.56609495602225,478.5946740615761 L492.7640049065788,478.53142109686723 M492.7640049065788,478.53142109686723 L492.92726295850173,478.4449697813483 M492.92726295850173,478.4449697813483 L493.046380455316,478.3403481246244 M493.046380455316,478.3403481246244 L493.1144391665269,478.22363877459065 M493.1144391665269,478.22363877459065 L493.12748585766707,478.1016272875802 M493.12748585766707,478.1016272875802 L493.0847721364344,477.98140388603673 M493.0847721364344,477.98140388603673 L492.9887844599784,477.8699550832646 M492.9887844599784,477.8699550832646 L492.8451063177326,477.77375477706227 M498.6302959125199,541.0998943930954 L485.73733133851215,534.197688916494 M498.2206366868024,541.960899295196 L485.3288453011853,535.056965232313 M481.48390396073756,610.0895819906619 L468.7006543619927,603.0765461311005 M481.45759624437545,624.7816530456107 L468.7013589450075,617.7516020155599 M514.679874577125,606.3951043898699 L501.9241925833147,599.444343711699 M492.3950216697452,611.6966701632109 L492.21547485794565,611.6195376987919 M492.21547485794565,611.6195376987919 L492.0077624161049,611.5682094064975 M492.0077624161049,611.5682094064975 L491.7839513089212,611.5456665300616 M491.7839513089212,611.5456665300616 L491.55704425338274,611.553216936599 M491.55704425338274,611.553216936599 L491.3402201818524,611.5904240973246 M491.3402201818524,611.5904240973246 L491.1460767151281,611.6551258606061 M491.1460767151281,611.6551258606061 L490.9858928246949,611.7435657848657 M490.9858928246949,611.7435657848657 L490.8689785436853,611.8506070791589 M490.8689785436853,611.8506070791589 L490.8021299969129,611.9700325080819 M490.8021299969129,611.9700325080819 L490.789240445558,612.0949025072862 M490.789240445558,612.0949025072862 L490.8310617520587,612.2179615719764 M490.8310617520587,612.2179615719764 L490.92517107381184,612.3320559616475 M490.92517107381184,612.3320559616475 L491.0661017948341,612.4305526014547 M491.0661017948341,612.4305526014547 L491.24566684995614,612.5077241014317 M491.24566684995614,612.5077241014317 L491.4534275298591,612.5590822170861 M491.4534275298591,612.5590822170861 L491.6773064580199,612.5816392221238 M491.6773064580199,612.5816392221238 L491.90428538004096,612.5740840133667 M491.90428538004096,612.5740840133667 L492.12116890024816,612.5368542186201 M492.12116890024816,612.5368542186201 L492.31534577856195,612.47211717573 M492.31534577856195,612.47211717573 L492.47552938945864,612.3836374079563 M492.47552938945864,612.3836374079563 L492.59240976384586,612.2765608340666 M492.59240976384586,612.2765608340666 L492.659198544351,612.1571127714366 M492.659198544351,612.1571127714366 L492.6720161618394,612.0322379696491 M492.6720161618394,612.0322379696491 L492.6301272326116,611.9091930336655 M492.6301272326116,611.9091930336655 L492.5359700912668,611.7951284672446 M492.5359700912668,611.7951284672446 L492.3950216697452,611.6966701632109 M513.7634175507559,746.0599193452017 L501.26523564518925,738.9538265256576 M468.70742191269954,757.6692612786546 L481.20612630872785,764.8547785446218 M492.9015833056611,750.9171196382313 L493.2468638658733,751.1686653674932 M493.2468638658733,751.1686653674932 L493.4775669134105,751.4601112349485 M493.4775669134105,751.4601112349485 L493.58026147456394,751.7745358395623 M493.58026147456394,751.7745358395623 L493.54894368810085,752.0936725903098 M493.54894368810085,752.0936725903098 L493.3853973046705,752.398972673494 M493.3853973046705,752.398972673494 L493.0990961607087,752.6726811457299 M493.0990961607087,752.6726811457299 L492.7066612631749,752.8988719589368 M492.7066612631749,752.8988719589368 L492.2308998268915,753.0643781104914 M492.2308998268915,753.0643781104914 L491.6994789115717,753.1595622900709 M491.6994789115717,753.1595622900709 L491.1433131286129,753.1788807307123 M491.1433131286129,753.1788807307123 L490.5947602962516,753.1212078106564 M490.5947602962516,753.1212078106564 L490.08573678869504,752.9899033813078 M490.08573678869504,752.9899033813078 L489.64584923981226,752.7926136927233 M489.64584923981226,752.7926136927233 L489.3006717280785,752.5408261314565 M489.3006717280785,752.5408261314565 L489.0702553648424,752.2491933780007 M489.0702553648424,752.2491933780007 L488.96796694039574,751.934680500236 M488.96796694039574,751.934680500236 L488.999716094536,751.6155736370267 M488.999716094536,751.6155736370267 L489.16362112306047,751.3104152506648 M489.16362112306047,751.3104152506648 L489.45012571557464,751.036927644935 M489.45012571557464,751.036927644935 L489.8425622569298,750.8109862700649 M489.8425622569298,750.8109862700649 L490.31812315570085,750.6457009850055 M490.31812315570085,750.6457009850055 L490.84918729345736,750.5506585024034 M490.84918729345736,750.5506585024034 L491.40492210494875,750.5313703070389 M491.40492210494875,750.5313703070389 L491.95306763476333,750.5889545961304 M491.95306763476333,750.5889545961304 L492.46180199724193,750.7200724973019 M492.46180199724193,750.7200724973019 L492.9015833056611,750.9171196382313 M481.1803104477119,779.2729379384394 L468.70811481245704,772.0721124310394 M313.1551700605229,876.6838473706408 L300.6924401572112,869.0652304082136 M297.75640700499173,752.3252919438887 L310.4304622736,759.817927493592 M323.8071334128929,752.3252904468375 L311.131525304119,744.8657737328055 M322.9578985093748,712.5017779309655 L310.21022098260886,705.087264985767 M309.50093486594653,719.9494043192053 L296.7548375802603,712.5017794190044 M295.05926863762613,645.0840754072148 L307.9272717110975,652.453141765577 M321.52021851252164,645.0840739349044 L308.65058807918774,637.7480919867608 M320.0539586517243,576.3261629304347 L307.060021281279,569.0733079809186 M306.3222542163855,583.6120547181823 L293.32999321662646,576.3261643860943 M291.5659948374122,506.1876299880852 L304.6849346652673,513.3854945004298 M493.79939208930097,193.82553923265257 L493.8502643669278,178.68846721166358 M493.8502643669278,178.68846721166358 L494.00004061504154,178.77905766365785 M494.00004061504154,178.77905766365785 L494.10011859878233,178.88400770341616 M494.10011859878233,178.88400770341616 L494.14467671673594,178.9972210377564 M494.14467671673594,178.9972210377564 L494.13112088538213,179.11211857560482 M494.13112088538213,179.11211857560482 L494.06022839027213,179.2220234778008 M494.06022839027213,179.2220234778008 L493.93611683214937,179.3205457264146 M493.93611683214937,179.3205457264146 L493.7659943569721,179.40195717051716 M493.7659943569721,179.40195717051716 L493.55974858322816,179.46152278459425 M493.55974858322816,179.46152278459425 L493.32936783501236,179.49577859613734 M493.32936783501236,179.49577859613734 L493.08824851805497,179.5027302871781 M493.08824851805497,179.5027302871781 L492.850408485935,179.48197516451242 M492.850408485935,179.48197516451242 L492.629678195874,179.43471966800243 M492.629678195874,179.43471966800243 L492.4388892373997,179.36371300286254 M492.4388892373997,179.36371300286254 L492.2891329029056,179.27308506042482 M492.2891329029056,179.27308506042482 L492.18910886829843,179.1681058706456 M492.18910886829843,179.1681058706456 L492.14462705482447,179.05487872653944 M492.14462705482447,179.05487872653944 L492.1582640650663,178.93998588286104 M492.1582640650663,178.93998588286104 L492.22922401686776,178.8301031034396 M492.22922401686776,178.8301031034396 L492.3533738556162,178.73161533802147 M492.3533738556162,178.73161533802147 L492.5234966659009,178.6502428380067 M492.5234966659009,178.6502428380067 L492.7297047524631,178.59071170713756 M492.7297047524631,178.59071170713756 L492.96001842471355,178.55647801867576 M492.96001842471355,178.55647801867576 L493.2010566435626,178.54953102144975 M493.2010566435626,178.54953102144975 L493.4388201335412,178.57027233445217 M493.4388201335412,178.57027233445217 L493.65949597280746,178.61749868083382 M493.65949597280746,178.61749868083382 L493.8502643669278,178.68846721166358 M493.31287537677446,338.5888339084036 L493.3617666526267,324.04120997063376 M493.3617666526267,324.04120997063376 L493.5085789456157,324.1346246186407 M493.5085789456157,324.1346246186407 L493.60666869083656,324.2428463719974 M493.60666869083656,324.2428463719974 L493.6503300314565,324.35958884100745 M493.6503300314565,324.35958884100745 L493.63702121631246,324.4780678243404 M493.63702121631246,324.4780678243404 L493.56750551642955,324.591398368677 M493.56750551642955,324.591398368677 L493.445820677547,324.6929913230359 M493.445820677547,324.6929913230359 L493.27903397099817,324.7769400633925 M493.27903397099817,324.7769400633925 L493.0768391395923,324.8383620584467 M493.0768391395923,324.8383620584467 L492.85098897882904,324.87368543977544 M492.85098897882904,324.87368543977544 L492.61461633508105,324.8808537756386 M492.61461633508105,324.8808537756386 L492.3814629724488,324.85945183131895 M492.3814629724488,324.85945183131895 L492.16508669089677,324.8107236207127 M492.16508669089677,324.8107236207127 L491.97806588063395,324.73750397719857 M491.97806588063395,324.73750397719857 L491.8312727440812,324.6440514377647 M491.8312727440812,324.6440514377647 L491.73323484939937,324.5358002175272 M491.73323484939937,324.5358002175272 L491.6896468405888,324.4190437886396 M491.6896468405888,324.4190437886396 L491.70303366889715,324.300569550502 M491.70303366889715,324.300569550502 L491.77261419190427,324.1872613694139 M491.77261419190427,324.1872613694139 L491.8943358133336,324.0857032730822 M491.8943358133336,324.0857032730822 L492.06112283558474,324.0017939001345 M492.06112283558474,324.0017939001345 L492.2632814435227,323.9404067631196 M492.2632814435227,323.9404067631196 L492.4890671398413,323.9051057453497 M492.4890671398413,323.9051057453497 L492.72536184652677,323.8979421543225 M492.72536184652677,323.8979421543225 L492.9584416534504,323.9193301388684 M492.9584416534504,323.9193301388684 L493.17476561185214,323.9680288824851 M493.17476561185214,323.9680288824851 L493.3617666526267,324.04120997063376 M492.8451063177326,477.77375477706227 L492.8921298446664,463.78188047768447 M492.8921298446664,463.78188047768447 L493.0360932107898,463.8778358114611 M493.0360932107898,463.8778358114611 L493.1322721719667,463.9890008264756 M493.1322721719667,463.9890008264756 L493.1750721036962,464.1089181147494 M493.1750721036962,464.1089181147494 L493.16200151863313,464.2306189544372 M493.16200151863313,464.2306189544372 L493.0938101656488,464.3470311743537 M493.0938101656488,464.3470311743537 L492.97445897318556,464.45138648970755 M492.97445897318556,464.45138648970755 L492.8108797384954,464.5376177316339 M492.8108797384954,464.5376177316339 L492.6125797852833,464.60070968332616 M492.6125797852833,464.60070968332616 L492.3910854566167,464.63699342262794 M492.3910854566167,464.63699342262794 L492.1592762097838,464.64435664629195 M492.1592762097838,464.64435664629195 L491.93062838472053,464.6223728385338 M491.93062838472053,464.6223728385338 L491.7184376666655,464.57231981108407 M491.7184376666655,464.57231981108407 L491.5350390455426,464.4971094204533 M491.5350390455426,464.4971094204533 L491.3910941215088,464.40111592290015 M491.3910941215088,464.40111592290015 L491.2949650323868,464.2899212240869 M491.2949650323868,464.2899212240869 L491.2522356301849,464.1699898731715 M491.2522356301849,464.1699898731715 L491.2653812443204,464.04829381361014 M491.2653812443204,464.04829381361014 L491.3336349381279,463.9319041215671 M491.3336349381279,463.9319041215671 L491.4530215013063,463.8275839208447 M491.4530215013063,463.8275839208447 L491.6166010337633,463.74139233612715 M491.6166010337633,463.74139233612715 L491.8148661435773,463.67833549907857 M491.8148661435773,463.67833549907857 L492.03629846972314,463.6420742879627 M492.03629846972314,463.6420742879627 L492.26803275926204,463.63471584406346 M492.26803275926204,463.63471584406346 L492.4966098436186,463.6566855892842 M492.4966098436186,463.6566855892842 L492.7087502438569,463.70670893282585 M492.7087502438569,463.70670893282585 L492.8921298446664,463.78188047768447 M492.3950216697452,611.6966701632109 L492.44028250407985,598.2292859411366 M492.44028250407985,598.2292859411366 L492.5815054042512,598.3275242834786 M492.5815054042512,598.3275242834786 L492.6758465974801,598.4413340373803 M492.6758465974801,598.4413340373803 L492.7178184380936,598.5641041167439 M492.7178184380936,598.5641041167439 L492.70497775420836,598.6886999928773 M492.70497775420836,598.6886999928773 L492.6380612396626,598.8078812686903 M492.6380612396626,598.8078812686903 L492.5209558732817,598.9147187019349 M492.5209558732817,598.9147187019349 L492.3604630741453,599.0030008727866 M492.3604630741453,599.0030008727866 L492.16591078145643,599.0675933479838 M492.16591078145643,599.0675933479838 L491.9486074474037,599.1047400051878 M491.9486074474037,599.1047400051878 L491.72118873303845,599.1122783426738 M491.72118873303845,599.1122783426738 L491.4968756132713,599.0897717090934 M491.4968756132713,599.0897717090934 L491.2887116014031,599.0385282821712 M491.2887116014031,599.0385282821712 L491.10879752816356,598.9615291211874 M491.10879752816356,598.9615291211874 L490.96759239539284,598.8632524539063 M490.96759239539284,598.8632524539063 L490.8732992068518,598.7494128857095 M490.8732992068518,598.7494128857095 L490.8313952510965,598.6266286818817 M490.8313952510965,598.6266286818817 L490.8443081479617,598.5020376068893 M490.8443081479617,598.5020376068893 L490.9112846609308,598.3828789579873 M490.9112846609308,598.3828789579873 L491.02842406594704,598.2760767937456 M491.02842406594704,598.2760767937456 L491.18891714624806,598.1878344544442 M491.18891714624806,598.1878344544442 L491.3834358982177,598.1232772482623 M491.3834358982177,598.1232772482623 L491.6006795532875,598.0861532182829 M491.6006795532875,598.0861532182829 L491.82802612244916,598.0786196815745 M491.82802612244916,598.0786196815745 L492.0522711579532,598.1011121907956 M492.0522711579532,598.1011121907956 L492.2603867442256,598.152325803313 M492.2603867442256,598.152325803313 L492.44028250407985,598.2292859411366 M492.9015833056611,750.9171196382313 L492.8962804144024,752.4305749074404 M492.8962804144024,752.4305749074404 L493.24148385674107,752.6821775583958 M493.24148385674107,752.6821775583958 L493.4721351721876,752.9736893660288 M493.4721351721876,752.9736893660288 L493.57480640411995,753.2881850972547 M493.57480640411995,753.2881850972547 L493.54349506272507,753.6073940272391 M493.54349506272507,753.6073940272391 L493.3799845403661,753.9127631476601 M493.3799845403661,753.9127631476601 L493.0937466030674,754.1865335029108 M493.0937466030674,754.1865335029108 L492.70139859230267,754.4127754483702 M492.70139859230267,754.4127754483702 L492.2257426733505,754.5783190096513 M492.2257426733505,754.5783190096513 L491.69443976596216,754.6735247022898 M491.69443976596216,754.6735247022898 L491.13839760982864,754.6928475090442 M491.13839760982864,754.6928475090442 L490.58996682235846,754.6351615543285 M490.58996682235846,754.6351615543285 L490.08105666909273,754.5038274472245 M490.08105666909273,754.5038274472245 L489.6412671852942,754.3064931624606 M489.6412671852942,754.3064931624606 L489.29616674612726,754.054648678641 M489.29616674612726,754.054648678641 L489.06580198776953,753.7629499842421 M489.06580198776953,753.7629499842421 L488.963536712236,753.4483659795627 M488.963536712236,753.4483659795627 L488.9952792294742,753.1291869371926 M488.9952792294742,753.1291869371926 L489.15914823732084,752.8239595141438 M489.15914823732084,752.8239595141438 L489.4455895324262,752.5504100262567 M489.4455895324262,752.5504100262567 L489.8379391859165,752.3244175201023 M489.8379391859165,752.3244175201023 L490.31339465616156,752.1590948261739 M490.31339465616156,752.1590948261739 L490.8443409443483,752.0640308310627 M490.8443409443483,752.0640308310627 L491.3999523205839,752.0447382697423 M491.3999523205839,752.0447382697423 L491.9479759865926,752.1023355931098 M491.9479759865926,752.1023355931098 L492.456597123633,752.2334831713526 M492.456597123633,752.2334831713526 L492.8962804144024,752.4305749074404 M494.9083494220567,178.18224638825635 L495.28282639427897,178.4086511762065 M495.28282639427897,178.4086511762065 L495.5331214412997,178.6709718006187 M495.5331214412997,178.6709718006187 L495.64466078831845,178.95397908691092 M495.64466078831845,178.95397908691092 L495.6109203946631,179.24123221720416 M495.6109203946631,179.24123221720416 L495.4338183819931,179.5160353202699 M495.4338183819931,179.5160353202699 L495.1236109854398,179.76240611106897 M495.1236109854398,179.76240611106897 L494.6983054578469,179.9660077876026 M494.6983054578469,179.9660077876026 L494.18261933223226,180.1149866891884 M494.18261933223226,180.1149866891884 L493.60654297152263,180.2006664450368 M493.60654297152263,180.2006664450368 L493.00359152916553,180.21805593148778 M493.00359152916553,180.21805593148778 L492.4088481854427,180.1661417256878 M492.4088481854427,180.1661417256878 L491.8569199894719,180.04794876692262 M491.8569199894719,180.04794876692262 L491.3799113292698,179.87036099493574 M491.3799113292698,179.87036099493574 L491.00555525415183,179.64372020149187 M491.00555525415183,179.64372020149187 L490.755597050718,179.38121722823485 M490.755597050718,179.38121722823485 L490.6445349454998,179.09812379192232 M490.6445349454998,179.09812379192232 L490.67878236866846,178.81089983927305 M490.67878236866846,178.81089983927305 L490.85630598513256,178.53623500322772 M490.85630598513256,178.53623500322772 L491.1667526363317,178.29007973281506 M491.1667526363317,178.29007973281506 L491.59206025838495,178.08672145691463 M491.59206025838495,178.08672145691463 L492.10751083842723,177.93795807571024 M492.10751083842723,177.93795807571024 L492.683167974834,177.85241658703876 M492.683167974834,177.85241658703876 L493.28561289249734,177.8350566002323 M493.28561289249734,177.8350566002323 L493.8798775089722,177.88688433393645 M493.8798775089722,177.88688433393645 L494.43146572598533,178.00489526593148 M494.43146572598533,178.00489526593148 L494.9083494220567,178.18224638825635 M494.39911330209594,323.51920530793814 L494.76617898818614,323.75266979985054 M494.76617898818614,323.75266979985054 L495.0114995271142,324.0231691189796 M495.0114995271142,324.0231691189796 L495.1207913389321,324.3149989554255 M495.1207913389321,324.3149989554255 L495.0876626091381,324.61120581014836 M495.0876626091381,324.61120581014836 L494.9139975909085,324.8945734492751 M494.9139975909085,324.8945734492751 L494.60985418678905,325.1486217220305 M494.60985418678905,325.1486217220305 L494.1928880425201,325.3585674325092 M494.1928880425201,325.3585674325092 L493.68733203800116,325.5121879939218 M493.68733203800116,325.5121879939218 L493.12258702000645,325.60053708465296 M493.12258702000645,325.60053708465296 L492.53150821230014,325.61846832393303 M492.53150821230014,325.61846832393303 L491.94848714004524,325.5649367676857 M491.94848714004524,325.5649367676857 L491.40744796359485,325.4430614450251 M491.40744796359485,325.4430614450251 L490.9398611187023,325.2599404518704 M490.9398611187023,325.2599404518704 L490.5729116677594,325.02623739562847 M490.5729116677594,325.02623739562847 L490.3279148628774,324.75555374225996 M490.3279148628774,324.75555374225996 L490.21908170698225,324.46363682261347 M490.21908170698225,324.46363682261347 L490.25269768719414,324.16745945942694 M490.25269768719414,324.16745945942694 L490.4267678494416,323.8842315902788 M490.4267678494416,323.8842315902788 L490.7311411451847,323.63040118061025 M490.7311411451847,323.63040118061025 L491.1481092626283,323.4207015165208 M491.1481092626283,323.4207015165208 L491.6534388698132,323.2672988181883 M491.6534388698132,323.2672988181883 L492.21778098549163,323.17908949759305 M492.21778098549163,323.17908949759305 L492.80837301836823,323.16118808188577 M492.80837301836823,323.16118808188577 L493.39093403527283,323.21463222282046 M493.39093403527283,323.21463222282046 L493.9316465238675,323.3363235433555 M493.9316465238675,323.3363235433555 L494.39911330209594,323.51920530793814 M493.9095353831462,463.2456762029787 L494.26947743313735,463.4854918677195 M494.26947743313735,463.4854918677195 L494.51001732436185,463.7633489385416 M494.51001732436185,463.7633489385416 L494.6171503421974,464.06311562589195 M494.6171503421974,464.06311562589195 L494.58461164924756,464.36737720052844 M494.58461164924756,464.36737720052844 L494.4142527905088,464.65844931908055 M494.4142527905088,464.65844931908055 L494.11594085848316,464.91940398863983 M494.11594085848316,464.91940398863983 L493.7069933585115,465.135056495865 M493.7069933585115,465.135056495865 L493.21117715706083,465.2928524339303 M493.21117715706083,465.2928524339303 L492.65732631362397,465.38360269172534 M492.65732631362397,465.38360269172534 L492.0776616088013,465.4020212565439 M492.0776616088013,465.4020212565439 L491.5059096566769,465.3470348357435 M491.5059096566769,465.3470348357435 L490.9753381574534,465.2218470783292 M490.9753381574534,465.2218470783292 L490.51680814630276,465.0337486858791 M490.51680814630276,465.0337486858791 L490.1569779345018,464.79369270722486 M490.1569779345018,464.79369270722486 L489.91674941821356,464.51564994191097 M489.91674941821356,464.51564994191097 L489.81005753561055,464.2157955335973 M489.81005753561055,464.2157955335973 L489.84306483482305,463.9115636643038 M489.84306483482305,463.9115636643038 L490.01381332321773,463.6206323446347 M490.01381332321773,463.6206323446347 L490.31234632289033,463.3598971419411 M490.31234632289033,463.3598971419411 L490.7212956839375,463.1444924923527 M490.7212956839375,463.1444924923527 L491.2168941135154,462.98691602114496 M491.2168941135154,462.98691602114496 L491.77035744164493,462.8963065623899 M491.77035744164493,462.8963065623899 L492.34955398877577,462.87791804397955 M492.34955398877577,462.87791804397955 L492.92086348574423,462.9328164026758 M492.92086348574423,462.9328164026758 L493.451120824031,463.0578188067436 M493.451120824031,463.0578188067436 L493.9095353831462,463.2456762029787 M493.43849912440584,597.6803219455464 L493.7915887640664,597.9258448015803 M493.7915887640664,597.9258448015803 L494.02753075523026,598.2103134787036 M494.02753075523026,598.2103134787036 L494.1325885696438,598.5172120237371 M494.1325885696438,598.5172120237371 L494.1006194041517,598.8287112410435 M494.1006194041517,598.8287112410435 L493.9334431981791,599.1267061686399 M493.9334431981791,599.1267061686399 L493.6407433369303,599.3938664341115 M493.6407433369303,599.3938664341115 L493.239511893122,599.6146465898801 M493.239511893122,599.6146465898801 L492.7530673046714,599.7761941295054 M492.7530673046714,599.7761941295054 L492.20969828330595,599.8691018347921 M492.20969828330595,599.8691018347921 L491.64101520479414,599.887958259967 M491.64101520479414,599.887958259967 L491.08010499473426,599.8316646468484 M491.08010499473426,599.8316646468484 L490.55960381697406,599.7035006588773 M490.55960381697406,599.7035006588773 L490.1097864588919,599.510930019809 M490.1097864588919,599.510930019809 L489.75680450574873,599.2651658000048 M489.75680450574873,599.2651658000048 L489.5211622246505,598.9805106087302 M489.5211622246505,598.9805106087302 L489.41652901010104,598.6735239604 M489.41652901010104,598.6735239604 L489.4489491874539,598.3620545757208 M489.4489491874539,598.3620545757208 L489.6165003831001,598.0642010659894 M489.6165003831001,598.0642010659894 L489.90941298647084,597.7972612322066 M489.90941298647084,597.7972612322066 L490.3106461875887,597.5767300237088 M490.3106461875887,597.5767300237088 L490.79688114593296,597.4154029157627 M490.79688114593296,597.4154029157627 L491.3398771740871,597.3226366284973 M491.3398771740871,597.3226366284973 L491.9081096643002,597.3038103851275 M491.9081096643002,597.3038103851275 L492.4685940281667,597.3600155456965 M492.4685940281667,597.3600155456965 L492.98879286519553,597.4879933687764 M492.98879286519553,597.4879933687764 L493.43849912440584,597.6803219455464 M491.9201562003779,752.9931315249928 L492.0582251836436,753.0938018481236 M492.0582251836436,753.0938018481236 L492.1504516761201,753.2104288968558 M492.1504516761201,753.2104288968558 L492.1914711279026,753.3362378733993 M492.1914711279026,753.3362378733993 L492.1788959296401,753.4639176223103 M492.1788959296401,753.4639176223103 L492.1134476926375,753.5860485487162 M492.1134476926375,753.5860485487162 L491.9989282204145,753.6955299606419 M491.9989282204145,753.6955299606419 L491.8419888089483,753.7859967886868 M491.8419888089483,753.7859967886868 L491.65175087348115,753.8521876189225 M491.65175087348115,753.8521876189225 L491.43927202991205,753.8902534516301 M491.43927202991205,753.8902534516301 L491.2169072963694,753.8979783191357 M491.2169072963694,753.8979783191357 L490.99758370052626,753.8749147748622 M490.99758370052626,753.8749147748622 L490.7940544949783,753.822403338949 M490.7940544949783,753.822403338949 L490.61815099314396,753.7434987783545 M490.61815099314396,753.7434987783545 L490.48009901594946,753.642790062489 M490.48009901594946,753.642790062489 L490.38791842254756,753.5261331405347 M490.38791842254756,753.5261331405347 L490.3469638738079,753.4003100116105 M490.3469638738079,753.4003100116105 L490.35960811015036,753.2726350733298 M490.35960811015036,753.2726350733298 L490.425113704903,753.150526818556 M490.425113704903,753.150526818556 L490.53966571427594,753.0410807453413 M490.53966571427594,753.0410807453413 L490.69660538857374,752.9506538275724 M490.69660538857374,752.9506538275724 L490.8868112523413,752.8844983360598 M490.8868112523413,752.8844983360598 L491.09923303677175,752.8464551752988 M491.09923303677175,752.8464551752988 L491.3215287955915,752.8387351180595 M491.3215287955915,752.8387351180595 L491.54078730198916,752.8617845100574 M491.54078730198916,752.8617845100574 L491.7442702149992,752.9142660726386 M491.7442702149992,752.9142660726386 L491.9201562003779,752.9931315249928 M494.9145844455805,176.40275879454092 L495.2891521708521,176.62907427868103 M495.2891521708521,176.62907427868103 L495.53950813714346,176.89129144355383 M495.53950813714346,176.89129144355383 L495.65107501570964,177.17418712473707 M495.65107501570964,177.17418712473707 L495.6173271459666,177.46132698964212 M495.6173271459666,177.46132698964212 L495.4401830632885,177.73602174971197 M495.4401830632885,177.73602174971197 L495.1299014302869,177.9822954181907 M495.1299014302869,177.9822954181907 L494.7044938041388,178.18581684038017 M494.7044938041388,178.18581684038017 L494.18868365143726,178.33473702297846 M494.18868365143726,178.33473702297846 L493.61246855288493,178.42038301048228 M493.61246855288493,178.42038301048228 L493.00937174209827,178.4377656434942 M493.00937174209827,178.4377656434942 L492.41448486818643,178.38587189796007 M492.41448486818643,178.38587189796007 L491.86242334191155,178.2677255227665 M491.86242334191155,178.2677255227665 L491.3852993138419,178.0902077482369 M491.3852993138419,178.0902077482369 L491.01085254331355,177.86365629471925 M491.01085254331355,177.86365629471925 L490.76083358272643,177.60125680900538 M490.76083358272643,177.60125680900538 L490.6497441758093,177.31827499097497 M490.6497441758093,177.31827499097497 L490.6839993196795,177.0311642992783 M490.6839993196795,177.0311642992783 L490.86156520972105,176.7566077850238 M490.86156520972105,176.7566077850238 L491.172086213176,176.51054960387967 M491.172086213176,176.51054960387967 L491.5974959352994,176.30727154499556 M491.5974959352994,176.30727154499556 L492.113070429304,176.15856684972658 M492.113070429304,176.15856684972658 L492.68886610170546,176.07305910819565 M492.68886610170546,176.07305910819565 L493.2914561435494,176.05570597026494 M493.2914561435494,176.05570597026494 L493.8858640592903,176.10751325700357 M493.8858640592903,176.10751325700357 L494.4375854422223,176.22547763330365 M494.4375854422223,176.22547763330365 L494.9145844455805,176.40275879454092 M494.9145844455805,176.40275879454092 L494.9083494220567,178.18224638825635 M494.4051052804626,321.8090832651904 L494.7722581626442,322.0424673770224 M494.7722581626442,322.0424673770224 L495.01763722335346,322.31287357618265 M495.01763722335346,322.31287357618265 L495.1269554688187,322.6046029627374 M495.1269554688187,322.6046029627374 L495.0938195295778,322.90070787492846 M495.0938195295778,322.90070787492846 L494.92011405823115,323.18397800343075 M494.92011405823115,323.18397800343075 L494.61589929185,323.43793886569335 M494.61589929185,323.43793886569335 L494.1988350140519,323.6478123478741 M494.1988350140519,323.6478123478741 L493.693159807885,323.80138006318697 M493.693159807885,323.80138006318697 L493.1282814569005,323.88969876318424 M493.1282814569005,323.88969876318424 L492.53706294992367,323.90762383454535 M492.53706294992367,323.90762383454535 L491.95390395027704,323.85411069203025 M491.95390395027704,323.85411069203025 L491.41273665318147,323.7322772936367 M491.41273665318147,323.7322772936367 L490.9450389533663,323.5492192973127 M490.9450389533663,323.5492192973127 L490.57800236066305,323.31559664682504 M490.57800236066305,323.31559664682504 L490.33294718674773,323.04500613336245 M490.33294718674773,323.04500613336245 L490.2240878137538,322.7531896729688 M490.2240878137538,322.7531896729688 L490.2577112338551,322.4571142491693 M490.2577112338551,322.4571142491693 L490.43182204098326,322.1739838755583 M490.43182204098326,322.1739838755583 L490.7362668080637,321.92024085286437 M490.7362668080637,321.92024085286437 L491.15333306043567,321.71061339051346 M491.15333306043567,321.71061339051346 L491.65878176267057,321.5572635147628 M491.65878176267057,321.5572635147628 L492.2232570211646,321.4690845698141 M492.2232570211646,321.4690845698141 L492.81398852320655,321.45118931876686 M492.81398852320655,321.45118931876686 L493.39668724996204,321.5046150554449 M493.39668724996204,321.5046150554449 L493.93752770435947,321.6262644715358 M493.93752770435947,321.6262644715358 L494.4051052804626,321.8090832651904 M494.4051052804626,321.8090832651904 L494.39911330209594,323.51920530793814 M493.91529825524725,461.60094152493537 L494.27532414945574,461.8406849153615 M494.27532414945574,461.8406849153615 L494.51592030375434,462.1184582579558 M494.51592030375434,462.1184582579558 L494.6230787216931,462.4181346279253 M494.6230787216931,462.4181346279253 L494.5905330720397,462.7223045446987 M494.5905330720397,462.7223045446987 L494.42013528564087,463.0132889916754 M494.42013528564087,463.0132889916754 L494.121754701806,463.2741650719134 M494.121754701806,463.2741650719134 L493.71271280676876,463.489752640767 M493.71271280676876,463.489752640767 L493.2167819528843,463.64750106694527 M493.2167819528843,463.64750106694527 L492.662802871519,463.7382240018007 M492.662802871519,463.7382240018007 L492.083003811306,463.75663702133875 M492.083003811306,463.75663702133875 L491.5111192128162,463.70166715546054 M491.5111192128162,463.70166715546054 L490.980424503131,463.5765170903828 M490.980424503131,463.5765170903828 L490.52178789028886,463.38847533623095 M490.52178789028886,463.38847533623095 L490.1618738855426,463.1484916485347 M490.1618738855426,463.1484916485347 L489.921589250267,462.87053262440975 M489.921589250267,462.87053262440975 L489.814872171816,462.5707685395414 M489.814872171816,462.5707685395414 L489.84788664507687,462.2666283260836 M489.84788664507687,462.2666283260836 L490.01867424198525,461.9757846681923 M490.01867424198525,461.9757846681923 L490.3172759963226,461.7151280395483 M490.3172759963226,461.7151280395483 L490.72631975372974,461.4997883110842 M490.72631975372974,461.4997883110842 L491.22203273517755,461.3422593364919 M491.22203273517755,461.3422593364919 L491.77562412185205,461.2516771908789 M491.77562412185205,461.2516771908789 L492.3549548073405,461.2332942156187 M492.3549548073405,461.2332942156187 L492.9263967455013,461.2881760255601 M492.9263967455013,461.2881760255601 L493.45677714822557,461.4131407501497 M493.45677714822557,461.4131407501497 L493.91529825524725,461.60094152493537 M493.91529825524725,461.60094152493537 L493.9095353831462,463.2456762029787 M493.4440457833758,596.0972949070768 L493.79721610499655,596.34275286051 M493.79721610499655,596.34275286051 L494.0332122288034,596.6271463505585 M494.0332122288034,596.6271463505585 L494.138294469201,596.9339637929505 M494.138294469201,596.9339637929505 L494.1063185867914,597.2453807054083 M494.1063185867914,597.2453807054083 L493.93910489394585,597.5432969090969 M493.93910489394585,597.5432969090969 L493.64633893980914,597.8103866071741 M493.64633893980914,597.8103866071741 L493.2450166297722,598.0311084539361 M493.2450166297722,598.0311084539361 L492.7584616825624,598.192613332506 M492.7584616825624,598.192613332506 L492.214969231767,598.2854965046348 M492.214969231767,598.2854965046348 L491.646156840881,598.3043479507411 M491.646156840881,598.3043479507411 L491.0851189678843,598.2480692021879 M491.0851189678843,598.2480692021879 L490.56449921289,598.1199390581254 M490.56449921289,598.1199390581254 L490.1145792661844,597.927419275009 M490.1145792661844,597.927419275009 L489.7615166795192,597.6817199666423 M489.7615166795192,597.6817199666423 L489.52582040184626,597.3971399693719 M489.52582040184626,597.3971399693719 L489.4211629541879,597.0902344268983 M489.4211629541879,597.0902344268983 L489.45359005367925,596.7788473460055 M489.45359005367925,596.7788473460055 L489.62117890695424,596.4810725549578 M489.62117890695424,596.4810725549578 L489.91415770031267,596.2142032804263 M489.91415770031267,596.2142032804263 L490.3154817688581,595.993730371739 M490.3154817688581,595.993730371739 L490.80182699098475,595.8324459167055 M490.80182699098475,595.8324459167055 L491.3449462791751,595.739704157374 M491.3449462791751,595.739704157374 L491.9133078768303,595.7208828919181 M491.9133078768303,595.7208828919181 L492.47391970990816,595.7770731912287 M492.47391970990816,595.7770731912287 L492.9942369863083,595.9050171772376 M492.9942369863083,595.9050171772376 L493.4440457833758,596.0972949070768 M493.4440457833758,596.0972949070768 L493.43849912440584,597.6803219455464 M491.8768827741521,765.8691614558475 L491.9201562003779,752.9931315249928 M491.8768827741521,765.8691614558475 L491.70133036897096,765.7901448904761 M491.70133036897096,765.7901448904761 L491.4982328686723,765.7375627648205 M491.4982328686723,765.7375627648205 L491.279389224435,765.714469205521 M491.279389224435,765.714469205521 L491.0575136853481,765.7222040560195 M491.0575136853481,765.7222040560195 L490.8454930824138,765.7603201145287 M490.8454930824138,765.7603201145287 L490.65564606201514,765.826602368358 M490.65564606201514,765.826602368358 L490.49900205060965,765.9172025476304 M490.49900205060965,765.9172025476304 L490.38466533937844,766.0268583115164 M490.38466533937844,766.0268583115164 L490.3192821577292,766.1492005009079 M490.3192821577292,766.1492005009079 L490.30666031086287,766.2771200205444 M490.30666031086287,766.2771200205444 L490.34753590820225,766.4031841654939 M490.34753590820225,766.4031841654939 L490.4395407732711,766.5200645295968 M490.4395407732711,766.5200645295968 L490.57733044570455,766.6209661284769 M490.57733044570455,766.6209661284769 L490.75290030184925,766.7000218035843 M490.75290030184925,766.7000218035843 L490.9560439193942,766.7526338031964 M490.9560439193942,766.7526338031964 L491.1749524069545,766.7757415150674 M491.1749524069545,766.7757415150674 L491.39689666019603,766.7680018542023 M491.39689666019603,766.7680018542023 L491.6089741069468,766.7298631232724 M491.6089741069468,766.7298631232724 L491.79885307829727,766.6635455299809 M491.79885307829727,766.6635455299809 L491.95549682835946,766.5729054395981 M491.95549682835946,766.5729054395981 L492.06980112582426,766.4632143362621 M492.06980112582426,766.4632143362621 L492.1351271667365,766.3408494747644 M492.1351271667365,766.3408494747644 L492.1476802364498,766.2129251443969 M492.1476802364498,766.2129251443969 L492.1067399811346,766.0868751521241 M492.1067399811346,766.0868751521241 L492.01468939005474,765.9700246618679 M492.01468939005474,765.9700246618679 L491.8768827741521,765.8691614558475" stroke="black"  stroke-width="4"  fill="red"/></svg>