<svg viewBox="0 0 800 800" xmlns="http://www.w3.org/2000/svg"><path d="M271.2536458070011,228.1108074188964 L215.313445591063,260.4078970720899 M215.3134479155858,236.2507443493369 L215.313445591063,260.4078970720899 M215.3134479155858,236.2507443493369 L215.31282161031402,236.03679885349158 M215.31282161031402,236.03679885349158 L215.3124458166269,235.82269897802155 M215.3124458166269,235.82269897802155 L215.3123205489266,235.6084497065185 M271.37164914035986,203.37988738926987 L215.3123205489266,235.6084497065185 M271.2536458070011,228.1108074188964 L271.37164914035986,203.37988738926987 M810.9240223870872,604.2837475006036 L786.9501362233243,590.4424209462841 M520.7315511596943,762.5368649006311 L786.9501362233243,590.4424209462841 M520.7315511596943,762.5368649006311 L358.4907675459765,663.7996938399036 M335.8525571169205,677.9721747997447 L358.4907675459765,663.7996938399036 M279.82030178296696,643.7189819405403 L335.8525571169205,677.9721747997447 M302.46108220886987,629.7009148375759 L279.82030178296696,643.7189819405403 M302.46108220886987,629.7009148375759 L62.36378952953578,483.58150558385614 M39.72769849612621,496.9474805002037 L62.36378952953578,483.58150558385614 M-13.120851154967681,464.6405252877257 L39.72769849612621,496.9474805002037 M9.51078836802958,451.4160062530502 L-13.120851154967681,464.6405252877257 M9.51078836802958,451.4160062530502 L-29.895447531657965,427.4339952677566 M236.79095952546885,272.8079427680772 L-29.895447531657965,427.4339952677566 M236.79095952546885,272.8079427680772 L215.313445591063,260.4078970720899 M866.6525462145776,568.0870094880937 L271.2536458070011,228.1108074188964 M810.9240223870872,604.2837475006036 L866.6525462145776,568.0870094880937 M255.20641619770356,249.72687189595302 L254.90411314000949,249.59080292404576 M254.90411314000949,249.59080292404576 L254.5543836037943,249.50025487592927 M254.5543836037943,249.50025487592927 L254.1775451292533,249.46048705197853 M254.1775451292533,249.46048705197853 L253.79549105519357,249.47380670395756 M253.79549105519357,249.47380670395756 L253.430411598065,249.5394437365864 M253.430411598065,249.5394437365864 L253.10351830315415,249.6535838296312 M253.10351830315415,249.6535838296312 L252.83380249082603,249.80960014351803 M252.83380249082603,249.80960014351803 L252.63694028785397,249.9984307647311 M252.63694028785397,249.9984307647311 L252.524375013478,250.20910780433553 M252.524375013478,250.20910780433553 L252.5026622807752,250.42938918027818 M252.5026622807752,250.42938918027818 L252.57306838716744,250.64647554442996 M252.57306838716744,250.64647554442996 L252.73151426733676,250.8477471541717 M252.73151426733676,250.8477471541717 L252.96879597564163,251.02150283555034 M252.96879597564163,251.02150283555034 L253.2711290908814,251.1576391593356 M253.2711290908814,251.1576391593356 L253.6209380473926,251.2482386541841 M253.6209380473926,251.2482386541841 L253.9978881864991,251.28803085065323 M253.9978881864991,251.28803085065323 L254.3800605876619,251.274702914614 M254.3800605876619,251.274702914614 L254.7452379278322,251.20902683720897 M254.7452379278322,251.20902683720897 L255.0721862373939,251.09482588514044 M255.0721862373939,251.09482588514044 L255.34190159304205,250.93874083927307 M255.34190159304205,250.93874083927307 L255.53870797262573,250.74984935905724 M255.53870797262573,250.74984935905724 L255.65117484511097,250.53913327521826 M255.65117484511097,250.53913327521826 L255.67276914062523,250.31884361458827 M255.67276914062523,250.31884361458827 L255.60225169354925,250.10178162313593 M255.60225169354925,250.10178162313593 L255.44372707674154,249.90056145993685 M255.44372707674154,249.90056145993685 L255.20641619770356,249.72687189595302 M827.9876550810235,578.5225658977724 L827.6542047778601,578.3707282382002 M827.6542047778601,578.3707282382002 L827.275387229429,578.2696923042513 M827.275387229429,578.2696923042513 L826.8731988522404,578.2253202893733 M826.8731988522404,578.2253202893733 L826.4709740020066,578.2401687358782 M826.4709740020066,578.2401687358782 L826.0921315244458,578.3134121105213 M826.0921315244458,578.3134121105213 L825.7586702007943,578.4407874750212 M825.7586702007943,578.4407874750212 L825.4899305845909,578.6148812095714 M825.4899305845909,578.6148812095714 L825.3015327126714,578.8255817754329 M825.3015327126714,578.8255817754329 L825.2044616270845,579.0606700188793 M825.2044616270845,579.0606700188793 L825.2043858029177,579.3064923853777 M825.2043858029177,579.3064923853777 L825.3012578902569,579.5487326105931 M825.3012578902569,579.5487326105931 L825.4894924662485,579.7733262770292 M825.4894924662485,579.7733262770292 L825.7581650299641,579.9672220787224 M825.7581650299641,579.9672220787224 L826.0916549835974,580.1191384041128 M826.0916549835974,580.1191384041128 L826.4705667893496,580.2202349797234 M826.4705667893496,580.2202349797234 L826.8728824382968,580.2646357218009 M826.8728824382968,580.2646357218009 L827.2752000293201,580.2497554689071 M827.2752000293201,580.2497554689071 L827.6541474554032,580.176466068807 M827.6541474554032,580.176466068807 L827.9877018968846,580.0490410099936 M827.9877018968846,580.0490410099936 L828.256433475765,579.8748662566833 M828.256433475765,579.8748662566833 L828.4447239965212,579.6640719086136 M828.4447239965212,579.6640719086136 L828.5416810020356,579.4289376416649 M828.5416810020356,579.4289376416649 L828.5416621481654,579.1831275534612 M828.5416621481654,579.1831275534612 L828.4446684889839,578.9409160579913 M828.4446684889839,578.9409160579913 L828.256351687442,578.7163830339846 M828.256351687442,578.7163830339846 L827.9876550810235,578.5225658977724 M236.83543226873218,248.62511785490472 L215.3134479155858,236.2507443493369 M236.83543226873218,248.62511785490472 L236.79095952546885,272.8079427680772 M236.83548849302434,247.98213980913175 L236.835219218602,248.19661751877925 M236.835219218602,248.19661751877925 L236.83520047891852,248.41094519700317 M236.83520047891852,248.41094519700317 L236.83543226873218,248.62511785490472 M215.3123205489266,235.6084497065185 L236.83548849302434,247.98213980913175 M788.2301534262195,564.9794668679779 L812.2607679988356,578.7946904665297 M812.2607679988356,578.7946904665297 L868.1070185536357,542.6657895945306 M868.1070185536357,542.6657895945306 L271.37164914035986,203.37988738926987 M236.83548849302434,247.98213980913175 L-30.430464659508573,402.28820980696855 M-30.430464659508573,402.28820980696855 L9.05995656353457,426.22224457908806 M9.05995656353457,426.22224457908806 L-13.622358765422746,439.4204860431273 M-13.622358765422746,439.4204860431273 L39.3401528706911,471.66377895819016 M39.3401528706911,471.66377895819016 L62.0269491367099,458.32405060594397 M62.0269491367099,458.32405060594397 L302.6576422959509,604.1635529192762 M302.6576422959509,604.1635529192762 L279.9661255135357,618.1555800306446 M279.9661255135357,618.1555800306446 L336.1265465112548,652.3457430067518 M336.1265465112548,652.3457430067518 L358.8154757965501,638.1992379817073 M358.8154757965501,638.1992379817073 L521.4351671876568,736.7584639368598 M788.2301534262195,564.9794668679779 L521.4351671876568,736.7584639368598 M256.9719838798151,223.98104893388205 L257.5665769099878,224.41421856352088 M257.5665769099878,224.41421856352088 L257.96388152001,224.91609748615167 M257.96388152001,224.91609748615167 L258.1407676012979,225.4575465201167 M258.1407676012979,225.4575465201167 L258.0868938288083,226.0071100232975 M258.0868938288083,226.0071100232975 L257.8053285967811,226.5328463559781 M257.8053285967811,226.5328463559781 L257.31238226628926,227.00418094681174 M257.31238226628926,227.00418094681174 L256.63667247423075,227.39368863869987 M256.63667247423075,227.39368863869987 L255.81746957364368,227.67869543710697 M255.81746957364368,227.67869543710697 L254.90241285097784,227.8426055887398 M254.90241285097784,227.8426055887398 L253.944734354766,227.87587255132524 M253.944734354766,227.87587255132524 L253.0001519832823,227.77655796853367 M253.0001519832823,227.77655796853367 L252.12362424713882,227.5504476109129 M252.12362424713882,227.5504476109129 L251.3661331488509,227.210708563109 M251.3661331488509,227.210708563109 L250.77171753084963,226.77712246798774 M250.77171753084963,226.77712246798774 L250.3749060303408,226.2749213958527 M250.3749060303408,226.2749213958527 L250.1987198529991,225.7333206523624 M250.1987198529991,225.7333206523624 L250.25333645920153,225.1838086193378 M250.25333645920153,225.1838086193378 L250.5355193130581,224.6583163065941 M250.5355193130581,224.6583163065941 L251.0288160253163,224.18736207595487 M251.0288160253163,224.18736207595487 L251.7045286898432,223.7982839485847 M251.7045286898432,223.7982839485847 L252.52338629551298,223.51365751035337 M252.52338629551298,223.51365751035337 L253.43782865973662,223.34999137892447 M253.43782865973662,223.34999137892447 L254.39476501458745,223.31677650253266 M254.39476501458745,223.31677650253266 L255.3386454449,223.41593814378308 M255.3386454449,223.41593814378308 L256.21467577148303,223.64172758393227 M256.21467577148303,223.64172758393227 L256.9719838798151,223.98104893388205 M831.0330410415875,552.0004915912406 L831.7064394003312,552.4839657985935 M831.7064394003312,552.4839657985935 L832.1785633885908,553.0441190753195 M832.1785633885908,553.0441190753195 L832.4219742453456,553.6484541310812 M832.4219742453456,553.6484541310812 L832.4224444863858,554.2618546396726 M832.4224444863858,554.2618546396726 L832.1798396829466,554.8486472813611 M832.1798396829466,554.8486472813611 L831.7082874252176,555.3747567901888 M831.7082874252176,555.3747567901888 L831.0350676327284,555.8095189603453 M831.0350676327284,555.8095189603453 L830.1993018589219,556.1276231231252 M830.1993018589219,556.1276231231252 L829.2496791039616,556.3105941119877 M829.2496791039616,556.3105941119877 L828.2413541662944,556.3477225040469 M828.2413541662944,556.3477225040469 L827.2330319105811,556.2368657612586 M827.2330319105811,556.2368657612586 L826.2833980638023,555.9844910243719 M826.2833980638023,555.9844910243719 L825.4476498257173,555.6052729652056 M825.4476498257173,555.6052729652056 L824.7744022961691,555.1213069351016 M824.7744022961691,555.1213069351016 L824.3027944362968,554.5607745161334 M824.3027944362968,554.5607745161334 L824.0601467799831,553.9562598385199 M824.0601467799831,553.9562598385199 L824.0605119688871,553.3429203871892 M824.0605119688871,553.3429203871892 L824.3037945462199,552.7563934877486 M824.3037945462199,552.7563934877486 L824.7758183195933,552.2307545040201 M824.7758183195933,552.2307545040201 L825.4490886836136,551.7964988732389 M825.4490886836136,551.7964988732389 L826.2844724988481,551.4788212158966 M826.2844724988481,551.4788212158966 L827.2334749358264,551.2961599814006 M827.2334749358264,551.2961599814006 L828.2409766342367,551.2590926391255 M828.2409766342367,551.2590926391255 L829.2484998232802,551.3697697575918 M829.2484998232802,551.3697697575918 L830.1975418373346,551.6217653585322 M830.1975418373346,551.6217653585322 L831.0330410415875,552.0004915912406 M866.6525462145776,568.0870094880937 L868.1070185536357,542.6657895945306 M812.2272030180968,579.4548669361848 L788.1980597726485,565.6389664755707 M812.2272030180968,579.4548669361848 L810.9240223870872,604.2837475006036 M788.1980597726485,565.6389664755707 L786.9501362233243,590.4424209462841 M788.1980597726485,565.6389664755707 L788.208507471838,565.419303440755 M788.208507471838,565.419303440755 L788.2192054372991,565.199468532502 M788.2192054372991,565.199468532502 L788.2301534262195,564.9794668679779 M520.7315511596943,762.5368649006311 L521.4351671876568,736.7584639368598 M358.4907675459765,663.7996938399036 L358.8154757965501,638.1992379817073 M335.8525571169205,677.9721747997447 L336.1265465112548,652.3457430067518 M279.82030178296696,643.7189819405403 L279.9661255135357,618.1555800306446 M302.46108220886987,629.7009148375759 L302.6576422959509,604.1635529192762 M62.36378952953578,483.58150558385614 L62.0269491367099,458.32405060594397 M39.72769849612621,496.9474805002037 L39.3401528706911,471.66377895819016 M-13.120851154967681,464.6405252877257 L-13.622358765422746,439.4204860431273 M9.51078836802958,451.4160062530502 L9.05995656353457,426.22224457908806 M-29.895447531657965,427.4339952677566 L-30.430464659508573,402.28820980696855 M812.2607679988356,578.7946904665297 L812.2493296181498,579.0149185019213 M812.2493296181498,579.0149185019213 L812.2381412065001,579.2349790326128 M812.2381412065001,579.2349790326128 L812.2272030180968,579.4548669361848 M255.20641619770356,249.72687189595302 L255.28199817102836,227.5557898884362 M255.28199817102836,227.5557898884362 L255.5197609184741,227.7291473385369 M255.5197609184741,227.7291473385369 L255.67858851669416,227.92998277071297 M255.67858851669416,227.92998277071297 L255.74924242209022,228.14662977114097 M255.74924242209022,228.14662977114097 L255.72761010124634,228.36649830113242 M255.72761010124634,228.36649830113242 L255.61493288050025,228.57681158569625 M255.61493288050025,228.57681158569625 L255.41775603249346,228.76534201043097 M255.41775603249346,228.76534201043097 L255.14753159588548,228.92112872592736 M255.14753159588548,228.92112872592736 L254.81996518076824,229.03511141204388 M254.81996518076824,229.03511141204388 L254.45409664682273,229.1006619702295 M254.45409664682273,229.1006619702295 L254.07120017034885,229.1139644344412 M254.07120017034885,229.1139644344412 L253.69353518724995,229.07424828759525 M253.69353518724995,229.07424828759525 L253.34306220297475,228.9838219475459 M253.34306220297475,228.9838219475459 L253.04015448957352,228.84794581907494 M253.04015448957352,228.84794581907494 L252.802421020633,228.67452225177357 M252.802421020633,228.67452225177357 L252.64367245706057,228.4736353741144 M252.64367245706057,228.4736353741144 L252.5731303143711,228.25696400148905 M252.5731303143711,228.25696400148905 L252.59488152175743,228.03710375601423 M252.59488152175743,228.03710375601423 L252.7076575181399,227.82682951488096 M252.7076575181399,227.82682951488096 L252.90489040205028,227.63835994789565 M252.90489040205028,227.63835994789565 L253.1751152979391,227.48264196296412 M253.1751152979391,227.48264196296412 L253.50262649049614,227.368720134618 M253.50262649049614,227.368720134618 L253.86839677060897,227.30320862040446 M253.86839677060897,227.30320862040446 L254.25117447125302,227.28991444008227 M254.25117447125302,227.28991444008227 L254.62872736591885,227.32960621491173 M254.62872736591885,227.32960621491173 L254.97912062799554,227.41998110928864 M254.97912062799554,227.41998110928864 L255.28199817102836,227.5557898884362 M827.9876550810235,578.5225658977724 L829.2139442927529,555.7578077091805 M829.2139442927529,555.7578077091805 L829.4832173567931,555.9512955551402 M829.4832173567931,555.9512955551402 L829.6719558844992,556.1754471338531 M829.6719558844992,556.1754471338531 L829.7691920193297,556.4172471878121 M829.7691920193297,556.4172471878121 L829.7692599554948,556.6626397605089 M829.7692599554948,556.6626397605089 L829.672155765932,556.8973746817984 M829.672155765932,556.8973746817984 L829.4835303443526,557.1078110529377 M829.4835303443526,557.1078110529377 L829.214295492752,557.2816900394861 M829.214295492752,557.2816900394861 L828.8800986530974,557.4088987298163 M828.8800986530974,557.4088987298163 L828.5004071404098,557.4820636888617 M828.5004071404098,557.4820636888617 L828.097287032678,557.4969186763939 M828.097287032678,557.4969186763939 L827.6941570790846,557.4525933232991 M827.6941570790846,557.4525933232991 L827.3144665695525,557.351668406524 M827.3144665695525,557.351668406524 L826.9802787788093,557.2000100427807 M826.9802787788093,557.2000100427807 L826.71102983814,557.006443507756 M826.71102983814,557.006443507756 L826.5223738534156,556.7822312684332 M826.5223738534156,556.7822312684332 L826.4252597719036,556.5404024761156 M826.4252597719036,556.5404024761156 L826.4252869677696,556.2949976654945 M826.4252869677696,556.2949976654945 L826.5225057037617,556.060308781505 M826.5225057037617,556.060308781505 L826.7112388484002,555.8499661766382 M826.7112388484002,555.8499661766382 L826.9804817856871,555.6761682331393 M826.9804817856871,555.6761682331393 L827.3145852212624,555.5490092960723 M827.3145852212624,555.5490092960723 L827.6941713740188,555.4758903762822 M827.6941713740188,555.4758903762822 L828.0971982986237,555.4610671606231 M828.0971982986237,555.4610671606231 L828.5002004646843,555.5053637779062 M828.5002004646843,555.5053637779062 L828.8797963270647,555.6062280348392 M828.8797963270647,555.6062280348392 L829.2139442927529,555.7578077091805 M256.9719838798151,223.98104893388205 L256.96272712824225,226.58704978053947 M256.96272712824225,226.58704978053947 L257.5571873403047,227.0203174204202 M257.5571873403047,227.0203174204202 L257.9544028443579,227.5223098817076 M257.9544028443579,227.5223098817076 L258.1312487285946,228.0638813845527 M258.1312487285946,228.0638813845527 L258.0773860309608,228.6135691690656 M258.0773860309608,228.6135691690656 L257.79588253009825,229.1394243730427 M257.79588253009825,229.1394243730427 L257.3030450230902,229.61086551672088 M257.3030450230902,229.61086551672088 L256.62748483593975,230.00046125032577 M256.62748483593975,230.00046125032577 L255.8084636271929,230.2855324624112 M255.8084636271929,230.2855324624112 L254.8936101108098,230.449479656155 M254.8936101108098,230.449479656155 L253.9361445024402,230.48275413650174 M253.9361445024402,230.48275413650174 L252.99177230038833,230.38341711007195 M252.99177230038833,230.38341711007195 L252.11543977366784,230.1572556520137 M252.11543977366784,230.1572556520137 L251.35811756121637,229.8174398165866 M251.35811756121637,229.8174398165866 L250.76383468332853,229.38375570975938 M250.76383468332853,229.38375570975938 L250.3671120698541,228.88144109759224 M250.3671120698541,228.88144109759224 L250.19096577893998,228.33971788477544 M250.19096577893998,228.33971788477544 L250.24557097992113,227.7900815705483 M250.24557097992113,227.7900815705483 L250.52769182773443,227.26447038744624 M250.52769182773443,227.26447038744624 L251.02087956020853,226.7934096054247 M251.02087956020853,226.7934096054247 L251.6964426179125,226.4042434379893 M251.6964426179125,226.4042434379893 L252.5151186846512,226.119552587542 M252.5151186846512,226.119552587542 L253.42935811529537,225.95584941494008 M253.42935811529537,225.95584941494008 L254.38608191220783,225.92262702105575 M254.38608191220783,225.92262702105575 L255.32975248507023,226.02181110521946 M255.32975248507023,226.02181110521946 L256.20558782403145,226.24765164470938 M256.20558782403145,226.24765164470938 L256.96272712824225,226.58704978053947 M831.0330410415875,552.0004915912406 L830.8885052369922,554.676600300792 M830.8885052369922,554.676600300792 L831.5617341250966,555.1601717656357 M831.5617341250966,555.1601717656357 L832.0337340642014,555.7204377025389 M832.0337340642014,555.7204377025389 L832.2770735117198,556.3248942775652 M832.2770735117198,556.3248942775652 L832.2775291677578,556.9384180997215 M832.2775291677578,556.9384180997215 L832.0349674936795,557.5253286789812 M832.0349674936795,557.5253286789812 L831.5635135802621,558.0515439064735 M831.5635135802621,558.0515439064735 L830.8904416717738,558.4863934235935 M830.8904416717738,558.4863934235935 L830.0548647300703,558.8045614867115 M830.0548647300703,558.8045614867115 L829.1054607463492,558.9875692270339 M829.1054607463492,558.9875692270339 L828.0973718013614,559.0247050763704 M828.0973718013614,559.0247050763704 L827.0892890032424,558.9138260675738 M827.0892890032424,558.9138260675738 L826.1398841258076,558.661400636732 M826.1398841258076,558.661400636732 L825.3043410480263,558.2821063957107 M825.3043410480263,558.2821063957107 L824.6312629298172,557.7980431247465 M824.6312629298172,557.7980431247465 L824.1597788856267,557.2373980584215 M824.1597788856267,557.2373980584215 L823.9172022843841,556.6327618676171 M823.9172022843841,556.6327618676171 L823.9175816645684,556.0192991006572 M823.9175816645684,556.0192991006572 L824.1608207790184,555.4326542494919 M824.1608207790184,555.4326542494919 L824.6327459846809,554.9069095363558 M824.6327459846809,554.9069095363558 L825.3058684290844,554.4725665414827 M825.3058684290844,554.4725665414827 L826.1410635725427,554.154824964213 M826.1410635725427,554.154824964213 L827.0898475313397,553.9721269729505 M827.0898475313397,553.9721269729505 L828.0971136222064,553.9350521713336 M828.0971136222064,553.9350521713336 L829.1043977330805,554.0457515618822 M829.1043977330805,554.0457515618822 L830.0532110645803,554.2977978695978 M830.0532110645803,554.2977978695978 L830.8885052369922,554.676600300792" stroke="black"  stroke-width="4"  fill="red"/>
<path d="M810.9240223870872,604.2837475006036 L522.1420136310927,791.8531643045471 M810.9240223870872,604.2837475006036 L786.9501362233243,590.4424209462841 M498.108604091135,777.1612514566704 L786.9501362233243,590.4424209462841 M522.1420136310927,791.8531643045471 L498.108604091135,777.1612514566704 M812.2272030180968,579.4548669361848 L810.9240223870872,604.2837475006036 M845.3653541175272,461.7240761725709 L840.6291714624397,471.8040373897086 M840.6291714624397,471.8040373897086 L836.2155768929338,481.9400401518287 M836.2155768929338,481.9400401518287 L832.1381817439535,492.10025627716004 M832.1381817439535,492.10025627716004 L828.4094647747813,502.25281477621786 M828.4094647747813,502.25281477621786 L825.0407286275712,512.365948127963 M825.0407286275712,512.365948127963 L822.0420627147439,522.408069798426 M822.0420627147439,522.408069798426 L819.422314474628,532.3479213931037 M819.422314474628,532.3479213931037 L817.1890616919986,542.1546788049893 M817.1890616919986,542.1546788049893 L815.3485941044806,551.7980270340976 M815.3485941044806,551.7980270340976 L813.9058974753248,561.2483170813388 M813.9058974753248,561.2483170813388 L812.8646468774494,570.4766261942125 M812.8646468774494,570.4766261942125 L812.2272030180968,579.4548669361848 M846.1072845751974,460.20551431249294 L846.19824939976,460.25817173715564 M846.19824939976,460.25817173715564 L846.2623636188796,460.3518937335439 M846.2623636188796,460.3518937335439 L846.2959052882768,460.4812329872582 M846.2959052882768,460.4812329872582 L846.2969264615226,460.6386707350979 M846.2969264615226,460.6386707350979 L846.2653695666534,460.8150542842885 M846.2653695666534,460.8150542842885 L846.2030683674739,461.0001378238851 M846.2030683674739,461.0001378238851 L846.1136450563226,461.1831691018018 M846.1136450563226,461.1831691018018 L846.0022939322625,461.35350812213176 M846.0022939322625,461.35350812213176 L845.8754860114088,461.5012561435716 M845.8754860114088,461.5012561435716 L845.7405871832962,461.6178396215838 M845.7405871832962,461.6178396215838 L845.6054355975198,461.69646992147716 M845.6054355975198,461.69646992147716 L845.4778869058769,461.7325836820245 M845.4778869058769,461.7325836820245 L845.3653541175272,461.7240761725709 M879.6016564717975,341.7628846250879 L878.8814757379423,350.97493909316813 M878.8814757379423,350.97493909316813 L877.7641284903245,360.3976263640439 M877.7641284903245,360.3976263640439 L876.2535790662832,370.0043093731022 M876.2535790662832,370.0043093731022 L874.354817428542,379.76786667985004 M874.354817428542,379.76786667985004 L872.0738316285378,389.6609538823395 M872.0738316285378,389.6609538823395 L869.4175842129091,399.65593686053626 M869.4175842129091,399.65593686053626 L866.3940074541349,409.725035348515 M866.3940074541349,409.725035348515 L863.0119525217804,419.8403634547923 M863.0119525217804,419.8403634547923 L859.2811872234317,429.97394962235364 M859.2811872234317,429.97394962235364 L855.2123518075114,440.0978737556061 M855.2123518075114,440.0978737556061 L850.8169472183704,450.1843032870347 M850.8169472183704,450.1843032870347 L846.1072845751974,460.20551431249294 M551.5385115340774,547.2900034766158 L879.6016564717975,341.7628846250879 M548.1156163566538,663.3957046638445 L551.5385115340774,547.2900034766158 M525.272928963148,677.9721712889097 L548.1156163566538,663.3957046638445 M522.1420136310927,791.8531643045471 L525.272928963148,677.9721712889097 M812.2272030180968,579.4548669361848 L788.1980597726485,565.6389664755707 M788.1980597726485,565.6389664755707 L786.9501362233243,590.4424209462841 M498.108604091135,777.1612514566704 L500.98756493025974,663.3957163122211 M523.8336020037858,648.886937538184 L500.98756493025974,663.3957163122211 M523.8336020037858,648.886937538184 L526.9993126071192,532.9047057173684 M855.1391844606449,328.3245608573289 L526.9993126071192,532.9047057173684 M855.1391844606449,328.3245608573289 L854.4392200773077,337.5259549592467 M854.4392200773077,337.5259549592467 L853.3418723530649,346.9369230860987 M853.3418723530649,346.9369230860987 L851.8510489433736,356.5308610715564 M851.8510489433736,356.5308610715564 L849.9716841246723,366.2806826875101 M849.9716841246723,366.2806826875101 L847.7097118342074,376.1590807766479 M847.7097118342074,376.1590807766479 L845.0720418903027,386.1384605473945 M845.0720418903027,386.1384605473945 L842.0665555566766,396.1910830389586 M842.0665555566766,396.1910830389586 L838.7020547208012,406.2891055349394 M838.7020547208012,406.2891055349394 L834.9882596763392,416.40460154749655 M834.9882596763392,416.40460154749655 L830.9357651616797,426.50969776438285 M830.9357651616797,426.50969776438285 L826.5560286688223,436.5766101077078 M826.5560286688223,436.5766101077078 L821.8613198685615,446.577664788843 M821.1216049647755,448.0931089685139 L821.2343572654609,448.1018633380721 M821.2343572654609,448.1018633380721 L821.3620483376511,448.06607267271295 M821.3620483376511,448.06607267271295 L821.4972569101035,447.9878229150062 M821.4972569101035,447.9878229150062 L821.6321239998254,447.8716553115946 M821.6321239998254,447.8716553115946 L821.7588133315788,447.724334319857 M821.7588133315788,447.724334319857 L821.8699658797302,447.5544086908968 M821.8699658797302,447.5544086908968 L821.9591221636745,447.3717531477773 M821.9591221636745,447.3717531477773 L822.0211034120337,447.18698585929803 M822.0211034120337,447.18698585929803 L822.0523060142009,447.0108407041039 M822.0523060142009,447.0108407041039 L822.0509167870501,446.85354964725366 M822.0509167870501,446.85354964725366 L822.0170146996234,446.72425685044857 M822.0170146996234,446.72425685044857 L821.9525686510946,446.63047837002796 M821.9525686510946,446.63047837002796 L821.8613198685615,446.577664788843 M788.1980597726485,565.6389664755707 L788.8158142486758,556.6703629538914 M788.8158142486758,556.6703629538914 L789.8375091966897,547.4528802880424 M789.8375091966897,547.4528802880424 L791.2608432267135,538.0145731961376 M791.2608432267135,538.0145731961376 L793.0822004801607,528.3843274205403 M793.0822004801607,528.3843274205403 L795.2966540820006,518.5917507965509 M795.2966540820006,518.5917507965509 L797.8979727474849,508.66711311349525 M797.8979727474849,508.66711311349525 L800.8786363871748,498.64118944441145 M800.8786363871748,498.64118944441145 L804.2298543678422,488.5451854858384 M804.2298543678422,488.5451854858384 L807.9415929975678,478.4106316242936 M807.9415929975678,478.4106316242936 L812.0026039768251,468.26923604382864 M812.0026039768251,468.26923604382864 L816.400461388801,458.1528074250484 M816.400461388801,458.1528074250484 L821.1216049647755,448.0931089685139 M500.98756493025974,663.3957163122211 L525.272928963148,677.9721712889097 M845.3653541175272,461.7240761725709 L821.1216049647755,448.0931089685139 M846.1072845751974,460.20551431249294 L821.8613198685615,446.577664788843 M879.6016564717975,341.7628846250879 L855.1391844606449,328.3245608573289 M551.5385115340774,547.2900034766158 L526.9993126071192,532.9047057173684 M548.1156163566538,663.3957046638445 L523.8336020037858,648.886937538184" stroke="black"  stroke-width="4"  fill="red"/>
<path d="M827.9876550810235,578.5225658977724 L829.2139442927529,555.7578077091805 M829.2139442927529,555.7578077091805 L829.4832173567931,555.9512955551402 M829.4832173567931,555.9512955551402 L829.6719558844992,556.1754471338531 M829.6719558844992,556.1754471338531 L829.7691920193297,556.4172471878121 M829.7691920193297,556.4172471878121 L829.7692599554948,556.6626397605089 M829.7692599554948,556.6626397605089 L829.672155765932,556.8973746817984 M829.672155765932,556.8973746817984 L829.4835303443526,557.1078110529377 M829.4835303443526,557.1078110529377 L829.214295492752,557.2816900394861 M829.214295492752,557.2816900394861 L828.8800986530974,557.4088987298163 M828.8800986530974,557.4088987298163 L828.5004071404098,557.4820636888617 M828.5004071404098,557.4820636888617 L828.097287032678,557.4969186763939 M828.097287032678,557.4969186763939 L827.6941570790846,557.4525933232991 M827.6941570790846,557.4525933232991 L827.3144665695525,557.351668406524 M827.3144665695525,557.351668406524 L826.9802787788093,557.2000100427807 M826.9802787788093,557.2000100427807 L826.71102983814,557.006443507756 M826.71102983814,557.006443507756 L826.5223738534156,556.7822312684332 M826.5223738534156,556.7822312684332 L826.4252597719036,556.5404024761156 M826.4252597719036,556.5404024761156 L826.4252869677696,556.2949976654945 M826.4252869677696,556.2949976654945 L826.5225057037617,556.060308781505 M826.5225057037617,556.060308781505 L826.7112388484002,555.8499661766382 M826.7112388484002,555.8499661766382 L826.9804817856871,555.6761682331393 M826.9804817856871,555.6761682331393 L827.3145852212624,555.5490092960723 M827.3145852212624,555.5490092960723 L827.6941713740188,555.4758903762822 M827.6941713740188,555.4758903762822 L828.0971982986237,555.4610671606231 M828.0971982986237,555.4610671606231 L828.5002004646843,555.5053637779062 M828.5002004646843,555.5053637779062 L828.8797963270647,555.6062280348392 M828.8797963270647,555.6062280348392 L829.2139442927529,555.7578077091805 M827.9876550810235,578.5225658977724 L827.6542047778601,578.3707282382002 M827.6542047778601,578.3707282382002 L827.275387229429,578.2696923042513 M827.275387229429,578.2696923042513 L826.8731988522404,578.2253202893733 M826.8731988522404,578.2253202893733 L826.4709740020066,578.2401687358782 M826.4709740020066,578.2401687358782 L826.0921315244458,578.3134121105213 M826.0921315244458,578.3134121105213 L825.7586702007943,578.4407874750212 M825.7586702007943,578.4407874750212 L825.4899305845909,578.6148812095714 M825.4899305845909,578.6148812095714 L825.3015327126714,578.8255817754329 M825.3015327126714,578.8255817754329 L825.2044616270845,579.0606700188793 M825.2044616270845,579.0606700188793 L825.2043858029177,579.3064923853777 M825.2043858029177,579.3064923853777 L825.3012578902569,579.5487326105931 M825.3012578902569,579.5487326105931 L825.4894924662485,579.7733262770292 M825.4894924662485,579.7733262770292 L825.7581650299641,579.9672220787224 M825.7581650299641,579.9672220787224 L826.0916549835974,580.1191384041128 M826.0916549835974,580.1191384041128 L826.4705667893496,580.2202349797234 M826.4705667893496,580.2202349797234 L826.8728824382968,580.2646357218009 M826.8728824382968,580.2646357218009 L827.2752000293201,580.2497554689071 M827.2752000293201,580.2497554689071 L827.6541474554032,580.176466068807 M827.6541474554032,580.176466068807 L827.9877018968846,580.0490410099936 M827.9877018968846,580.0490410099936 L828.256433475765,579.8748662566833 M828.256433475765,579.8748662566833 L828.4447239965212,579.6640719086136 M828.4447239965212,579.6640719086136 L828.5416810020356,579.4289376416649 M828.5416810020356,579.4289376416649 L828.5416621481654,579.1831275534612 M828.5416621481654,579.1831275534612 L828.4446684889839,578.9409160579913 M828.4446684889839,578.9409160579913 L828.256351687442,578.7163830339846 M828.256351687442,578.7163830339846 L827.9876550810235,578.5225658977724 M830.8885052369922,554.676600300792 L831.5617341250966,555.1601717656357 M831.5617341250966,555.1601717656357 L832.0337340642014,555.7204377025389 M832.0337340642014,555.7204377025389 L832.2770735117198,556.3248942775652 M832.2770735117198,556.3248942775652 L832.2775291677578,556.9384180997215 M832.2775291677578,556.9384180997215 L832.0349674936795,557.5253286789812 M832.0349674936795,557.5253286789812 L831.5635135802621,558.0515439064735 M831.5635135802621,558.0515439064735 L830.8904416717738,558.4863934235935 M830.8904416717738,558.4863934235935 L830.0548647300703,558.8045614867115 M830.0548647300703,558.8045614867115 L829.1054607463492,558.9875692270339 M829.1054607463492,558.9875692270339 L828.0973718013614,559.0247050763704 M828.0973718013614,559.0247050763704 L827.0892890032424,558.9138260675738 M827.0892890032424,558.9138260675738 L826.1398841258076,558.661400636732 M826.1398841258076,558.661400636732 L825.3043410480263,558.2821063957107 M825.3043410480263,558.2821063957107 L824.6312629298172,557.7980431247465 M824.6312629298172,557.7980431247465 L824.1597788856267,557.2373980584215 M824.1597788856267,557.2373980584215 L823.9172022843841,556.6327618676171 M823.9172022843841,556.6327618676171 L823.9175816645684,556.0192991006572 M823.9175816645684,556.0192991006572 L824.1608207790184,555.4326542494919 M824.1608207790184,555.4326542494919 L824.6327459846809,554.9069095363558 M824.6327459846809,554.9069095363558 L825.3058684290844,554.4725665414827 M825.3058684290844,554.4725665414827 L826.1410635725427,554.154824964213 M826.1410635725427,554.154824964213 L827.0898475313397,553.9721269729505 M827.0898475313397,553.9721269729505 L828.0971136222064,553.9350521713336 M828.0971136222064,553.9350521713336 L829.1043977330805,554.0457515618822 M829.1043977330805,554.0457515618822 L830.0532110645803,554.2977978695978 M830.0532110645803,554.2977978695978 L830.8885052369922,554.676600300792 M831.0330410415875,552.0004915912406 L831.7064394003312,552.4839657985935 M831.7064394003312,552.4839657985935 L832.1785633885908,553.0441190753195 M832.1785633885908,553.0441190753195 L832.4219742453456,553.6484541310812 M832.4219742453456,553.6484541310812 L832.4224444863858,554.2618546396726 M832.4224444863858,554.2618546396726 L832.1798396829466,554.8486472813611 M832.1798396829466,554.8486472813611 L831.7082874252176,555.3747567901888 M831.7082874252176,555.3747567901888 L831.0350676327284,555.8095189603453 M831.0350676327284,555.8095189603453 L830.1993018589219,556.1276231231252 M830.1993018589219,556.1276231231252 L829.2496791039616,556.3105941119877 M829.2496791039616,556.3105941119877 L828.2413541662944,556.3477225040469 M828.2413541662944,556.3477225040469 L827.2330319105811,556.2368657612586 M827.2330319105811,556.2368657612586 L826.2833980638023,555.9844910243719 M826.2833980638023,555.9844910243719 L825.4476498257173,555.6052729652056 M825.4476498257173,555.6052729652056 L824.7744022961691,555.1213069351016 M824.7744022961691,555.1213069351016 L824.3027944362968,554.5607745161334 M824.3027944362968,554.5607745161334 L824.0601467799831,553.9562598385199 M824.0601467799831,553.9562598385199 L824.0605119688871,553.3429203871892 M824.0605119688871,553.3429203871892 L824.3037945462199,552.7563934877486 M824.3037945462199,552.7563934877486 L824.7758183195933,552.2307545040201 M824.7758183195933,552.2307545040201 L825.4490886836136,551.7964988732389 M825.4490886836136,551.7964988732389 L826.2844724988481,551.4788212158966 M826.2844724988481,551.4788212158966 L827.2334749358264,551.2961599814006 M827.2334749358264,551.2961599814006 L828.2409766342367,551.2590926391255 M828.2409766342367,551.2590926391255 L829.2484998232802,551.3697697575918 M829.2484998232802,551.3697697575918 L830.1975418373346,551.6217653585322 M830.1975418373346,551.6217653585322 L831.0330410415875,552.0004915912406 M831.0330410415875,552.0004915912406 L830.8885052369922,554.676600300792" stroke="black"  stroke-width="4"  fill="red"/>
<path d="M236.79095952546885,272.8079427680772 L-52.52296528966798,440.5535381323391 M236.79095952546885,272.8079427680772 L215.313445591063,260.4078970720899 M-73.98424721425863,427.43399788918 L215.313445591063,260.4078970720899 M-52.52296528966798,440.5535381323391 L-73.98424721425863,427.43399788918 M-52.52296528966798,440.5535381323391 L-55.10397792000168,329.6208827829859 M-55.10397792000168,329.6208827829859 L-32.25321460404018,316.61902901271674 M-32.25321460404018,316.61902901271674 L-34.656763562727065,203.6523157741184 M-34.656763562727065,203.6523157741184 L294.18586807289887,20.16795751896086 M294.18586807289887,20.16795751896086 L293.926331334501,29.112155012733467 M293.926331334501,29.112155012733467 L293.2658618513632,38.24238855630392 M293.2658618513632,38.24238855630392 L292.2071210866328,47.532839502764546 M292.2071210866328,47.532839502764546 L290.7538159185349,56.95725873267054 M290.7538159185349,56.95725873267054 L288.91068433807123,66.48922097763125 M288.91068433807123,66.48922097763125 L286.68346777010953,76.10205946094368 M286.68346777010953,76.10205946094368 L284.0789139579023,85.76900667227358 M284.0789139579023,85.76900667227358 L281.10472650239,95.46323238773448 M281.10472650239,95.46323238773448 L277.76956360890756,105.15786415449952 M277.76956360890756,105.15786415449952 L274.08299941523603,114.82611998013556 M274.08299941523603,114.82611998013556 L270.0555135454149,124.44134414607629 M270.0555135454149,124.44134414607629 L265.69843954833374,133.977026482648 M265.69843954833374,133.977026482648 L265.79559523273144,134.0330810726789 M265.79559523273144,134.0330810726789 L265.8670619955573,134.12782306671886 M265.8670619955573,134.12782306671886 L265.90869061735424,134.25574619346565 M265.90869061735424,134.25574619346565 L265.91806300810714,134.4094141497152 M265.91806300810714,134.4094141497152 L265.89463607873563,134.57989346758688 M265.89463607873563,134.57989346758688 L265.8397713180641,134.75728125278653 M265.8397713180641,134.75728125278653 L265.75665901701757,134.93127235333287 M265.75665901701757,134.93127235333287 L265.6501265018997,135.09175195283785 M265.6501265018997,135.09175195283785 L265.52636486487773,135.22939415361873 M265.52636486487773,135.22939415361873 L265.39256360926464,135.3362121469067 M265.39256360926464,135.3362121469067 L265.2564964327261,135.40598505967148 M265.2564964327261,135.40598505967148 L265.1260726417392,135.4346642506826 M265.1260726417392,135.4346642506826 L265.0088720566715,135.4205773288037 M265.0088720566715,135.4205773288037 L260.62728894958263,145.0124313135163 M260.62728894958263,145.0124313135163 L256.5832399203876,154.67580205646811 M256.5832399203876,154.67580205646811 L252.88914152280336,164.38042666501184 M252.88914152280336,164.38042666501184 L249.5562411010016,174.0959392053764 M249.5562411010016,174.0959392053764 L246.59457958862833,183.79200974542107 M246.59457958862833,183.79200974542107 L244.01295721990448,193.43841668644023 M244.01295721990448,193.43841668644023 L241.81891146051186,203.005187569341 M241.81891146051186,203.005187569341 L240.01869374930186,212.4627000184759 M240.01869374930186,212.4627000184759 L238.61725409501486,221.78175269349896 M238.61725409501486,221.78175269349896 L237.61823243129191,230.93371662558042 M237.61823243129191,230.93371662558042 L237.0239543193971,239.89059282338536 M237.0239543193971,239.89059282338536 L236.83543226873218,248.62511785490472 M236.83543226873218,248.62511785490472 L236.79095952546885,272.8079427680772 M236.83543226873218,248.62511785490472 L215.3134479155858,236.2507443493369 M215.3134479155858,236.2507443493369 L215.313445591063,260.4078970720899 M215.3134479155858,236.2507443493369 L215.48609165503586,227.5258595255923 M215.48609165503586,227.5258595255923 L216.06451356287295,218.579629477431 M216.06451356287295,218.579629477431 L217.04774864705564,209.43928518135044 M217.04774864705564,209.43928518135044 L218.4335190658437,200.13278956377212 M218.4335190658437,200.13278956377212 L220.2182326343273,190.68873205688828 M220.2182326343273,190.68873205688828 L222.39698703901882,181.13627109465835 M222.39698703901882,181.13627109465835 L224.96357822779925,171.50498299263825 M224.96357822779925,171.50498299263825 L227.91051570875214,161.82479114282694 M227.91051570875214,161.82479114282694 L231.22904565234813,152.1258652671401 M231.22904565234813,152.1258652671401 L234.9091727247914,142.43848085344075 M234.9091727247914,142.43848085344075 L238.93969427539457,132.7929470166696 M238.93969427539457,132.7929470166696 L243.30823731123297,123.21946772902379 M243.30823731123297,123.21946772902379 L243.42558867262204,123.2337499160659 M243.42558867262204,123.2337499160659 L243.55609838191913,123.20533658104739 M243.55609838191913,123.20533658104739 L243.6921816350806,123.1358846541815 M243.6921816350806,123.1358846541815 L243.82592817550562,123.02942412411505 M243.82592817550562,123.02942412411505 L243.94956750826566,122.89215507967208 M243.94956750826566,122.89215507967208 L244.05591721430727,122.73204266489506 M244.05591721430727,122.73204266489506 L244.13879682147166,122.55839144335374 M244.13879682147166,122.55839144335374 L244.1933925335763,122.3812964857409 M244.1933925335763,122.3812964857409 L244.21652968646453,122.21104593183014 M244.21652968646453,122.21104593183014 L244.20686362499998,122.05752938934529 M244.20686362499998,122.05752938934529 L244.16495451202195,121.92967152151107 M244.16495451202195,121.92967152151107 L244.09323674470795,121.8349048332039 M244.09323674470795,121.8349048332039 L243.99587412964058,121.7787370195698 M272.3032016606089,8.146835695452921 L272.05994649738676,17.080505118235237 M272.05994649738676,17.080505118235237 L271.4156753146398,26.199321122830156 M271.4156753146398,26.199321122830156 L270.3730030568468,35.47749692138245 M270.3730030568468,35.47749692138245 L268.93559065967037,44.88881720854857 M268.93559065967037,44.88881720854857 L267.10813121943704,54.40689220594277 M267.10813121943704,54.40689220594277 L264.8963221763736,64.00509236151572 M264.8963221763736,64.00509236151572 L262.3068684716542,73.65668901013652 M262.3068684716542,73.65668901013652 L259.34743210833074,83.33489230231487 M259.34743210833074,83.33489230231487 L256.02663093601944,93.0128717061969 M256.02663093601944,93.0128717061969 L252.35400018067895,102.6638885256155 M252.35400018067895,102.6638885256155 L248.33998204733575,112.26133170143726 M248.33998204733575,112.26133170143726 L243.99587412964058,121.7787370195698 M272.3032016606089,8.146835695452921 L-56.52588526124032,190.83226291490587 M-53.917789075643554,303.6742106250323 L-56.52588526124032,190.83226291490587 M-53.917789075643554,303.6742106250323 L-76.76594506691936,316.61903161057 M-73.98424721425863,427.43399788918 L-76.76594506691936,316.61903161057 M-76.76594506691936,316.61903161057 L-55.10397792000168,329.6208827829859 M265.0088720566715,135.4205773288037 L243.30823731123297,123.21946772902379 M265.69843954833374,133.977026482648 L243.99587412964058,121.7787370195698 M294.18586807289887,20.16795751896086 L272.3032016606089,8.146835695452921 M-34.656763562727065,203.6523157741184 L-56.52588526124032,190.83226291490587 M-32.25321460404018,316.61902901271674 L-53.917789075643554,303.6742106250323" stroke="black"  stroke-width="4"  fill="red"/>
<path d="M255.20641619770356,249.72687189595302 L255.28199817102836,227.5557898884362 M255.28199817102836,227.5557898884362 L255.5197609184741,227.7291473385369 M255.5197609184741,227.7291473385369 L255.67858851669416,227.92998277071297 M255.67858851669416,227.92998277071297 L255.74924242209022,228.14662977114097 M255.74924242209022,228.14662977114097 L255.72761010124634,228.36649830113242 M255.72761010124634,228.36649830113242 L255.61493288050025,228.57681158569625 M255.61493288050025,228.57681158569625 L255.41775603249346,228.76534201043097 M255.41775603249346,228.76534201043097 L255.14753159588548,228.92112872592736 M255.14753159588548,228.92112872592736 L254.81996518076824,229.03511141204388 M254.81996518076824,229.03511141204388 L254.45409664682273,229.1006619702295 M254.45409664682273,229.1006619702295 L254.07120017034885,229.1139644344412 M254.07120017034885,229.1139644344412 L253.69353518724995,229.07424828759525 M253.69353518724995,229.07424828759525 L253.34306220297475,228.9838219475459 M253.34306220297475,228.9838219475459 L253.04015448957352,228.84794581907494 M253.04015448957352,228.84794581907494 L252.802421020633,228.67452225177357 M252.802421020633,228.67452225177357 L252.64367245706057,228.4736353741144 M252.64367245706057,228.4736353741144 L252.5731303143711,228.25696400148905 M252.5731303143711,228.25696400148905 L252.59488152175743,228.03710375601423 M252.59488152175743,228.03710375601423 L252.7076575181399,227.82682951488096 M252.7076575181399,227.82682951488096 L252.90489040205028,227.63835994789565 M252.90489040205028,227.63835994789565 L253.1751152979391,227.48264196296412 M253.1751152979391,227.48264196296412 L253.50262649049614,227.368720134618 M253.50262649049614,227.368720134618 L253.86839677060897,227.30320862040446 M253.86839677060897,227.30320862040446 L254.25117447125302,227.28991444008227 M254.25117447125302,227.28991444008227 L254.62872736591885,227.32960621491173 M254.62872736591885,227.32960621491173 L254.97912062799554,227.41998110928864 M254.97912062799554,227.41998110928864 L255.28199817102836,227.5557898884362 M255.20641619770356,249.72687189595302 L254.90411314000949,249.59080292404576 M254.90411314000949,249.59080292404576 L254.5543836037943,249.50025487592927 M254.5543836037943,249.50025487592927 L254.1775451292533,249.46048705197853 M254.1775451292533,249.46048705197853 L253.79549105519357,249.47380670395756 M253.79549105519357,249.47380670395756 L253.430411598065,249.5394437365864 M253.430411598065,249.5394437365864 L253.10351830315415,249.6535838296312 M253.10351830315415,249.6535838296312 L252.83380249082603,249.80960014351803 M252.83380249082603,249.80960014351803 L252.63694028785397,249.9984307647311 M252.63694028785397,249.9984307647311 L252.524375013478,250.20910780433553 M252.524375013478,250.20910780433553 L252.5026622807752,250.42938918027818 M252.5026622807752,250.42938918027818 L252.57306838716744,250.64647554442996 M252.57306838716744,250.64647554442996 L252.73151426733676,250.8477471541717 M252.73151426733676,250.8477471541717 L252.96879597564163,251.02150283555034 M252.96879597564163,251.02150283555034 L253.2711290908814,251.1576391593356 M253.2711290908814,251.1576391593356 L253.6209380473926,251.2482386541841 M253.6209380473926,251.2482386541841 L253.9978881864991,251.28803085065323 M253.9978881864991,251.28803085065323 L254.3800605876619,251.274702914614 M254.3800605876619,251.274702914614 L254.7452379278322,251.20902683720897 M254.7452379278322,251.20902683720897 L255.0721862373939,251.09482588514044 M255.0721862373939,251.09482588514044 L255.34190159304205,250.93874083927307 M255.34190159304205,250.93874083927307 L255.53870797262573,250.74984935905724 M255.53870797262573,250.74984935905724 L255.65117484511097,250.53913327521826 M255.65117484511097,250.53913327521826 L255.67276914062523,250.31884361458827 M255.67276914062523,250.31884361458827 L255.60225169354925,250.10178162313593 M255.60225169354925,250.10178162313593 L255.44372707674154,249.90056145993685 M255.44372707674154,249.90056145993685 L255.20641619770356,249.72687189595302 M256.96272712824225,226.58704978053947 L257.5571873403047,227.0203174204202 M257.5571873403047,227.0203174204202 L257.9544028443579,227.5223098817076 M257.9544028443579,227.5223098817076 L258.1312487285946,228.0638813845527 M258.1312487285946,228.0638813845527 L258.0773860309608,228.6135691690656 M258.0773860309608,228.6135691690656 L257.79588253009825,229.1394243730427 M257.79588253009825,229.1394243730427 L257.3030450230902,229.61086551672088 M257.3030450230902,229.61086551672088 L256.62748483593975,230.00046125032577 M256.62748483593975,230.00046125032577 L255.8084636271929,230.2855324624112 M255.8084636271929,230.2855324624112 L254.8936101108098,230.449479656155 M254.8936101108098,230.449479656155 L253.9361445024402,230.48275413650174 M253.9361445024402,230.48275413650174 L252.99177230038833,230.38341711007195 M252.99177230038833,230.38341711007195 L252.11543977366784,230.1572556520137 M252.11543977366784,230.1572556520137 L251.35811756121637,229.8174398165866 M251.35811756121637,229.8174398165866 L250.76383468332853,229.38375570975938 M250.76383468332853,229.38375570975938 L250.3671120698541,228.88144109759224 M250.3671120698541,228.88144109759224 L250.19096577893998,228.33971788477544 M250.19096577893998,228.33971788477544 L250.24557097992113,227.7900815705483 M250.24557097992113,227.7900815705483 L250.52769182773443,227.26447038744624 M250.52769182773443,227.26447038744624 L251.02087956020853,226.7934096054247 M251.02087956020853,226.7934096054247 L251.6964426179125,226.4042434379893 M251.6964426179125,226.4042434379893 L252.5151186846512,226.119552587542 M252.5151186846512,226.119552587542 L253.42935811529537,225.95584941494008 M253.42935811529537,225.95584941494008 L254.38608191220783,225.92262702105575 M254.38608191220783,225.92262702105575 L255.32975248507023,226.02181110521946 M255.32975248507023,226.02181110521946 L256.20558782403145,226.24765164470938 M256.20558782403145,226.24765164470938 L256.96272712824225,226.58704978053947 M256.9719838798151,223.98104893388205 L257.5665769099878,224.41421856352088 M257.5665769099878,224.41421856352088 L257.96388152001,224.91609748615167 M257.96388152001,224.91609748615167 L258.1407676012979,225.4575465201167 M258.1407676012979,225.4575465201167 L258.0868938288083,226.0071100232975 M258.0868938288083,226.0071100232975 L257.8053285967811,226.5328463559781 M257.8053285967811,226.5328463559781 L257.31238226628926,227.00418094681174 M257.31238226628926,227.00418094681174 L256.63667247423075,227.39368863869987 M256.63667247423075,227.39368863869987 L255.81746957364368,227.67869543710697 M255.81746957364368,227.67869543710697 L254.90241285097784,227.8426055887398 M254.90241285097784,227.8426055887398 L253.944734354766,227.87587255132524 M253.944734354766,227.87587255132524 L253.0001519832823,227.77655796853367 M253.0001519832823,227.77655796853367 L252.12362424713882,227.5504476109129 M252.12362424713882,227.5504476109129 L251.3661331488509,227.210708563109 M251.3661331488509,227.210708563109 L250.77171753084963,226.77712246798774 M250.77171753084963,226.77712246798774 L250.3749060303408,226.2749213958527 M250.3749060303408,226.2749213958527 L250.1987198529991,225.7333206523624 M250.1987198529991,225.7333206523624 L250.25333645920153,225.1838086193378 M250.25333645920153,225.1838086193378 L250.5355193130581,224.6583163065941 M250.5355193130581,224.6583163065941 L251.0288160253163,224.18736207595487 M251.0288160253163,224.18736207595487 L251.7045286898432,223.7982839485847 M251.7045286898432,223.7982839485847 L252.52338629551298,223.51365751035337 M252.52338629551298,223.51365751035337 L253.43782865973662,223.34999137892447 M253.43782865973662,223.34999137892447 L254.39476501458745,223.31677650253266 M254.39476501458745,223.31677650253266 L255.3386454449,223.41593814378308 M255.3386454449,223.41593814378308 L256.21467577148303,223.64172758393227 M256.21467577148303,223.64172758393227 L256.9719838798151,223.98104893388205 M256.9719838798151,223.98104893388205 L256.96272712824225,226.58704978053947" stroke="black"  stroke-width="4"  fill="red"/>
<path d="M-53.917789075643554,303.6742106250323 L-76.76594506691936,316.61903161057 M-76.76594506691936,316.61903161057 L-79.60165647179741,203.65231834698778 M-56.52588526124032,190.83226291490587 L-79.60165647179741,203.65231834698778 M-53.917789075643554,303.6742106250323 L-56.52588526124032,190.83226291490587 M-52.52296528966798,440.5535381323391 L-13.120851154967681,464.6405252877257 M-13.120851154967681,464.6405252877257 L-13.622358765422746,439.4204860431273 M-13.622358765422746,439.4204860431273 L39.3401528706911,471.66377895819016 M39.72769849612621,496.9474805002037 L39.3401528706911,471.66377895819016 M39.72769849612621,496.9474805002037 L279.82030178296696,643.7189819405403 M279.82030178296696,643.7189819405403 L279.9661255135357,618.1555800306446 M279.9661255135357,618.1555800306446 L336.1265465112548,652.3457430067518 M335.8525571169205,677.9721747997447 L336.1265465112548,652.3457430067518 M335.8525571169205,677.9721747997447 L498.108604091135,777.1612514566704 M498.108604091135,777.1612514566704 L500.98756493025974,663.3957163122211 M500.98756493025974,663.3957163122211 L525.272928963148,677.9721712889097 M525.272928963148,677.9721712889097 L528.4683992525141,561.7431164884754 M-79.60165647179741,203.65231834698778 L528.4683992525141,561.7431164884754 M-76.76594506691936,316.61903161057 L-55.10397792000168,329.6208827829859 M-52.52296528966798,440.5535381323391 L-55.10397792000168,329.6208827829859 M548.1156163566538,663.3957046638445 L523.8336020037858,648.886937538184 M520.7315511596943,762.5368649006311 L523.8336020037858,648.886937538184 M520.7315511596943,762.5368649006311 L358.4907675459765,663.7996938399036 M358.4907675459765,663.7996938399036 L358.8154757965501,638.1992379817073 M358.8154757965501,638.1992379817073 L302.6576422959509,604.1635529192762 M302.46108220886987,629.7009148375759 L302.6576422959509,604.1635529192762 M302.46108220886987,629.7009148375759 L62.36378952953578,483.58150558385614 M62.36378952953578,483.58150558385614 L62.0269491367099,458.32405060594397 M62.0269491367099,458.32405060594397 L9.05995656353457,426.22224457908806 M9.51078836802958,451.4160062530502 L9.05995656353457,426.22224457908806 M9.51078836802958,451.4160062530502 L-29.895447531657965,427.4339952677566 M-29.895447531657965,427.4339952677566 L-32.25321460404018,316.61902901271674 M-32.25321460404018,316.61902901271674 L-53.917789075643554,303.6742106250323 M551.5385115340774,547.2900034766158 L-56.52588526124032,190.83226291490587 M548.1156163566538,663.3957046638445 L551.5385115340774,547.2900034766158 M-52.52296528966798,440.5535381323391 L-29.895447531657965,427.4339952677566 M-55.10397792000168,329.6208827829859 L-32.25321460404018,316.61902901271674 M9.51078836802958,451.4160062530502 L-13.120851154967681,464.6405252877257 M9.05995656353457,426.22224457908806 L-13.622358765422746,439.4204860431273 M39.72769849612621,496.9474805002037 L62.36378952953578,483.58150558385614 M39.3401528706911,471.66377895819016 L62.0269491367099,458.32405060594397 M302.46108220886987,629.7009148375759 L279.82030178296696,643.7189819405403 M302.6576422959509,604.1635529192762 L279.9661255135357,618.1555800306446 M335.8525571169205,677.9721747997447 L358.4907675459765,663.7996938399036 M336.1265465112548,652.3457430067518 L358.8154757965501,638.1992379817073 M520.7315511596943,762.5368649006311 L498.108604091135,777.1612514566704 M523.8336020037858,648.886937538184 L500.98756493025974,663.3957163122211 M525.272928963148,677.9721712889097 L548.1156163566538,663.3957046638445 M528.4683992525141,561.7431164884754 L551.5385115340774,547.2900034766158" stroke="black"  stroke-width="4"  fill="red"/></svg>