<svg viewBox="0 0 800 800" xmlns="http://www.w3.org/2000/svg"><path d="M315.1252277073045,317.05985537134757 L300.86966093309155,324.0043547019842 M300.86966093309155,324.0043547019842 L287.4095062380626,317.05985675868226 M287.4095062380626,317.05985675868226 L301.66320299297934,310.14801067055737 M315.1252277073045,317.05985537134757 L301.66320299297934,310.14801067055737 M300.86966093309155,324.0043547019842 L298.39243611535636,217.75327028979515 M298.39243611535636,217.75327028979515 L312.8626764471387,210.96113279912112 M312.8626764471387,210.96113279912112 L310.53287620286983,101.70887667685423 M310.53287620286983,101.70887667685423 L295.8414025488589,108.33644188095957 M295.8414025488589,108.33644188095957 L294.7246858376074,60.43914943409811 M294.7246858376074,60.43914943409811 L309.51305675962533,53.886075007096395 M309.51305675962533,53.886075007096395 L308.4800792047397,5.446244737296695 M308.4800792047397,5.446244737296695 L483.30214173905694,-70.60662407567293 M483.30214173905694,-70.60662407567293 L483.133023151223,23.84611388817592 M519.2093677680294,7.571481955089894 L483.133023151223,23.84611388817592 M519.2093677680294,7.571481955089894 L519.0279036110235,16.171166843413744 M519.0279036110235,16.171166843413744 L518.5965446305275,24.853166343638918 M518.5965446305275,24.853166343638918 L517.9166512139936,33.6058500532572 M517.9166512139936,33.6058500532572 L516.9898627086649,42.41760203192342 M516.9898627086649,42.41760203192342 L515.8181069902441,51.276807014426936 M515.8181069902441,51.276807014426936 L514.4035700158393,60.17179897735036 M514.4035700158393,60.17179897735036 L512.748716328177,69.09100987647082 M512.748716328177,69.09100987647082 L510.8562598048511,78.02291676842339 M510.8562598048511,78.02291676842339 L508.72918087480764,86.95602379004663 M508.72918087480764,86.95602379004663 L506.3707067389252,95.87875039340929 M506.3707067389252,95.87875039340929 L503.78430730208515,104.77981153848475 M503.78430730208515,104.77981153848475 L500.97369572269196,113.64781864325982 M500.97369572269196,113.64781864325982 L501.0453272020952,113.67396990469746 M501.0453272020952,113.67396990469746 L501.10355437298614,113.72649829180233 M501.10355437298614,113.72649829180233 L501.1449939865166,113.80234525494001 M501.1449939865166,113.80234525494001 L501.167239430945,113.89711231961115 M501.167239430945,113.89711231961115 L501.16899728176605,114.00538398280304 M501.16899728176605,114.00538398280304 L501.15016957007134,114.12074435676095 M501.15016957007134,114.12074435676095 L501.11184751967426,114.23655312122463 M501.11184751967426,114.23655312122463 L501.05626093781683,114.34602400592314 M501.05626093781683,114.34602400592314 L500.9866371590376,114.44289792575626 M500.9866371590376,114.44289792575626 L500.9070235687737,114.52147042589093 M500.9070235687737,114.52147042589093 L500.82204430111193,114.57714720021323 M500.82204430111193,114.57714720021323 L500.73663754079826,114.60678796789318 M500.73663754079826,114.60678796789318 L500.65576474815657,114.60862183572624 M500.65576474815657,114.60862183572624 L497.8315644176156,123.52186125690753 M497.8315644176156,123.52186125690753 L495.2407077728453,132.44693560881933 M495.2407077728453,132.44693560881933 L492.887001934816,141.36930164340146 M492.887001934816,141.36930164340146 L490.77381921030263,150.27431494388395 M490.77381921030263,150.27431494388395 L488.90408334833694,159.14757825994963 M488.90408334833694,159.14757825994963 L487.2802707811341,167.9747871861278 M487.2802707811341,167.9747871861278 L485.90440945914105,176.74179686319968 M485.90440945914105,176.74179686319968 L484.77807855520155,185.43446967449853 M484.77807855520155,185.43446967449853 L483.90240688550483,194.03912297407373 M483.90240688550483,194.03912297407373 L483.2780774227925,202.54220916788066 M483.2780774227925,202.54220916788066 L482.9053297752616,210.93027095151882 M482.9053297752616,210.93027095151882 L482.7839637633719,219.19043615317966 M482.7839637633719,219.19043615317966 L482.7549384244336,235.40021796038823 M517.8265019373467,218.31535187282014 L482.7549384244336,235.40021796038823 M517.8265019373467,218.31535187282014 L517.6515851142988,226.44820182957704 M517.6515851142988,226.44820182957704 L517.233656394037,234.67111821557626 M517.233656394037,234.67111821557626 L516.5740163914923,242.97307689817814 M516.5740163914923,242.97307689817814 L515.6742395427405,251.34299756223166 M515.6742395427405,251.34299756223166 L514.5361834730081,259.76973099793247 M514.5361834730081,259.76973099793247 L513.1619581405113,268.24222434395546 M513.1619581405113,268.24222434395546 L511.5539475462897,276.7493952375692 M511.5539475462897,276.7493952375692 L509.7147812229796,285.28008452783035 M509.7147812229796,285.28008452783035 L507.6473497578393,293.8232501095382 M507.6473497578393,293.8232501095382 L505.3547854397011,302.3679139601907 M505.3547854397011,302.3679139601907 L502.84046103908486,310.90299627233895 M502.84046103908486,310.90299627233895 L500.1079863281836,319.4177267902961 M500.1079863281836,319.4177267902961 L500.17765640499925,319.43903860517196 M500.17765640499925,319.43903860517196 L500.23429266131075,319.4859657811446 M500.23429266131075,319.4859657811446 L500.27460448115374,319.5557232761911 M500.27460448115374,319.5557232761911 L500.29625049592687,319.6443182740514 M500.29625049592687,319.6443182740514 L500.29797276394373,319.7465350163427 M500.29797276394373,319.7465350163427 L500.2796745785109,319.8564700046158 M500.2796745785109,319.8564700046158 L500.24241668822884,319.9677424960954 M500.24241668822884,319.9677424960954 L500.18836675941657,320.07388506699795 M500.18836675941657,320.07388506699795 L500.12066358916354,320.16867259384804 M500.12066358916354,320.16867259384804 L500.04324228593674,320.2466798047202 M500.04324228593674,320.2466798047202 L499.96059968279275,320.3033468850484 M499.96059968279275,320.3033468850484 L499.8775388648224,320.3353168696066 M499.8775388648224,320.3353168696066 L499.79888438015684,320.3408402020739 M499.79888438015684,320.3408402020739 L497.053108054915,328.899196925497 M497.053108054915,328.899196925497 L494.5341926579548,337.4581428078465 M494.5341926579548,337.4581428078465 L492.24583973779187,346.0036334234911 M492.24583973779187,346.0036334234911 L490.191329517253,354.52185975247545 M490.191329517253,354.52185975247545 L488.3735091848115,362.99910823311353 M488.3735091848115,362.99910823311353 L486.7947937439735,371.4216418612202 M486.7947937439735,371.4216418612202 L485.4571639463606,379.77610006799375 M485.4571639463606,379.77610006799375 L484.36216657674123,388.0491204419454 M484.36216657674123,388.0491204419454 L483.5109129334676,396.2276850744571 M483.5109129334676,396.2276850744571 L482.90408285757536,404.29889569608724 M482.90408285757536,404.29889569608724 L482.5419265393834,412.25018741013344 M482.5419265393834,412.25018741013344 L482.42426881613994,420.06928288037966 M482.42426881613994,420.06928288037966 L482.39680804100294,435.4053026999934 M482.39680804100294,435.4053026999934 L516.5186916017938,417.6210293417356 M516.5186916017938,417.6210293417356 L516.349888898086,425.3242769890078 M516.349888898086,425.3242769890078 L515.9445879339225,433.1244446749605 M515.9445879339225,433.1244446749605 L515.30403442002,441.0109938760567 M515.30403442002,441.0109938760567 L514.4297423870124,448.97334280939765 M514.4297423870124,448.97334280939765 L513.3235033977626,457.00085387300817 M513.3235033977626,457.00085387300817 L511.987357088127,465.08291623982484 M511.987357088127,465.08291623982484 L510.4236122848111,473.2088264461728 M510.4236122848111,473.2088264461728 L508.63481784921674,481.3679951419691 M508.63481784921674,481.3679951419691 L506.6237799365918,489.5497794583951 M506.6237799365918,489.5497794583951 L504.3935424806039,497.74353484739845 M504.3935424806039,497.74353484739845 L501.94738476075815,505.9387069756991 M501.94738476075815,505.9387069756991 L499.2888205019095,514.1247241948012 M499.2888205019095,514.1247241948012 L499.35663340626263,514.1417464813949 M499.35663340626263,514.1417464813949 L499.4117634663186,514.1835659202447 M499.4117634663186,514.1835659202447 L499.4510071351754,514.2477950673224 M499.4510071351754,514.2477950673224 L499.47208547317643,514.3306614165922 M499.47208547317643,514.3306614165922 L499.47377307795733,514.4273833813073 M499.47377307795733,514.4273833813073 L499.4559754567605,514.5323017690495 M499.4559754567605,514.5323017690495 L499.41972422403506,514.6393518142916 M499.41972422403506,514.6393518142916 L499.36712858809534,514.7422865984377 M499.36712858809534,514.7422865984377 L499.30124259575376,514.8351433881586 M499.30124259575376,514.8351433881586 L499.2258960802181,514.912531736823 M499.2258960802181,514.912531736823 L499.14546539243605,514.9699292999018 M499.14546539243605,514.9699292999018 L499.06462467534067,515.004037707103 M499.06462467534067,515.004037707103 L498.9880701622633,515.0128317189346 M498.9880701622633,515.0128317189346 L496.3164801115718,523.2410915155084 M496.3164801115718,523.2410915155084 L493.8656191564531,531.4597398796521 M493.8656191564531,531.4597398796521 L491.63908792263453,539.6554937910204 M491.63908792263453,539.6554937910204 L489.6400803022987,547.8150631783058 M489.6400803022987,547.8150631783058 L487.8713707550755,555.9253647244527 M487.8713707550755,555.9253647244527 L486.3353152762172,563.9733835515921 M486.3353152762172,563.9733835515921 L485.0338499490246,571.9463064309741 M485.0338499490246,571.9463064309741 L483.96849019851527,579.831531193682 M483.96849019851527,579.831531193682 L483.1403301318407,587.6166028602445 M483.1403301318407,587.6166028602445 L482.5500455067016,595.2893791487825 M482.5500455067016,595.2893791487825 L482.19789598990394,602.8379275358902 M482.19789598990394,602.8379275358902 L482.08372890519473,610.2506159841355 M482.08372890519473,610.2506159841355 L482.0577095373309,624.7816530456107 M515.2799878700805,606.3951043898699 L482.0577095373309,624.7816530456107 M515.2799878700805,606.3951043898699 L514.3635308437113,746.0599193452017 M481.8062396016833,764.8547785446218 L514.3635308437113,746.0599193452017 M481.8062396016833,764.8547785446218 L481.78042374066735,779.2729379384394 M481.78042374066735,779.2729379384394 L313.75528335347826,876.6838473706408 M313.75528335347826,876.6838473706408 L312.85750922442105,838.1772596412512 M312.85750922442105,838.1772596412512 L326.07643423359656,830.5991698260873 M323.55801180233027,712.5017779309655 L326.07643423359656,830.5991698260873 M323.55801180233027,712.5017779309655 L310.1010481589019,719.9494043192053 M310.1010481589019,719.9494043192053 L307.88919299643294,625.0803363636002 M307.88919299643294,625.0803363636002 L321.5373051646242,617.7439721174843 M321.5373051646242,617.7439721174843 L319.45990821700155,520.3277648921694 M319.45990821700155,520.3277648921694 L305.61514245664944,527.5436355642701 M305.61514245664944,527.5436355642701 L303.2762370549267,427.2252334994262 M303.2762370549267,427.2252334994262 L317.3234025086479,420.13974687219803 M317.3234025086479,420.13974687219803 L315.1252277073045,317.05985537134757 M284.7411018250784,210.96113415597102 L298.39243611535636,217.75327028979515 M287.4095062380626,317.05985675868226 L284.7411018250784,210.96113415597102 M299.20938877793367,204.20140004704015 L284.7411018250784,210.96113415597102 M299.20938877793367,204.20140004704015 L296.68281728934863,95.11339979327971 M296.68281728934863,95.11339979327971 L281.9933854030379,101.70887800078077 M281.9933854030379,101.70887800078077 L280.79063223197056,53.886076316122 M295.5769218716813,47.36493110827371 L280.79063223197056,53.886076316122 M295.5769218716813,47.36493110827371 L294.45679274141503,-0.9980965752101838 M294.45679274141503,-0.9980965752101838 L469.26739571795576,-76.68384737064082 M469.26739571795576,-76.68384737064082 L469.2719326218914,17.6217882838871 M469.2719326218914,17.6217882838871 L505.3489888746761,1.4233784238176668 M505.3489888746761,1.4233784238176668 L505.1832876157035,10.009789772174486 M505.1832876157035,10.009789772174486 L504.76762458567583,18.678078547826885 M504.76762458567583,18.678078547826885 L504.10333811106756,27.416631511326727 M504.10333811106756,27.416631511326727 L503.1920459370134,36.21385000464937 M503.1920459370134,36.21385000464937 L502.0356547866376,45.05813621696848 M502.0356547866376,45.05813621696848 L500.6363297987281,53.93784180260616 M500.6363297987281,53.93784180260616 L498.99651533058415,62.84141644578273 M498.99651533058415,62.84141644578273 L497.11890558778316,71.75735504004138 M497.11890558778316,71.75735504004138 L495.0064618254769,80.67417974026358 M495.0064618254769,80.67417974026358 L492.66239234690914,89.58032835402543 M492.66239234690914,89.58032835402543 L490.090149135136,98.46453399074312 M490.090149135136,98.46453399074312 L487.293427665031,107.31542662211814 M486.9769893481235,108.27435701979454 L487.05793015942675,108.27264554652493 M487.05793015942675,108.27264554652493 L487.1433576258052,108.24317445936049 M487.1433576258052,108.24317445936049 L487.22830917289133,108.18770472061351 M487.22830917289133,108.18770472061351 L487.3078480486723,108.10936471842763 M487.3078480486723,108.10936471842763 L487.37735451229514,108.01273521152933 M487.37735451229514,108.01273521152933 L487.4327881301944,107.90350634291394 M487.4327881301944,107.90350634291394 L487.470930268601,107.78792329129601 M487.470930268601,107.78792329129601 L487.4895616765167,107.67275912767082 M487.4895616765167,107.67275912767082 L487.4876024240726,107.56464287006906 M487.4876024240726,107.56464287006906 L487.4651624113725,107.46998118962108 M487.4651624113725,107.46998118962108 L487.4235462040203,107.39418359956699 M487.4235462040203,107.39418359956699 L487.36517066057775,107.34164571416193 M487.36517066057775,107.34164571416193 L487.293427665031,107.31542662211814 M469.2820237999835,212.67951224619716 L469.38829833510914,204.43114787380176 M469.38829833510914,204.43114787380176 L469.74594272133277,196.05549339031228 M469.74594272133277,196.05549339031228 L470.35517928335076,187.56540151843603 M470.35517928335076,187.56540151843603 L471.21579140211884,178.9743082822759 M471.21579140211884,178.9743082822759 L472.32711903878726,170.2957388707394 M472.32711903878726,170.2957388707394 L473.688056349043,161.54335235075612 M473.688056349043,161.54335235075612 L475.2970477667567,152.73126113865032 M475.2970477667567,152.73126113865032 L477.15208877035224,143.87358393369487 M477.15208877035224,143.87358393369487 L479.2507264677873,134.98459782725467 M479.2507264677873,134.98459782725467 L481.59006064641284,126.07867172303963 M481.59006064641284,126.07867172303963 L484.16674282055897,117.17042045805647 M484.16674282055897,117.17042045805647 L486.9769893481235,108.27435701979454 M469.2820237999835,212.67951224619716 L469.28280097815474,228.86658013729723 M469.28280097815474,228.86658013729723 L504.3550181469563,211.85949971400743 M504.3550181469563,211.85949971400743 L504.1949928047051,219.98083593154485 M504.1949928047051,219.98083593154485 L503.79189338243634,228.1917789769513 M503.79189338243634,228.1917789769513 L503.1469997286527,236.48131992103362 M503.1469997286527,236.48131992103362 L502.26186583868827,244.83839391279582 M502.26186583868827,244.83839391279582 L501.13832921530803,253.25186751398715 M501.13832921530803,253.25186751398715 L499.77848029540985,261.71070368534674 M499.77848029540985,261.71070368534674 L498.1846839524167,270.20383616014055 M498.1846839524167,270.20383616014055 L496.3595508747203,278.7201221936775 M496.3595508747203,278.7201221936775 L494.30595346470596,287.2485361777259 M494.30595346470596,287.2485361777259 L492.02700637102816,295.77811673911197 M492.02700637102816,295.77811673911197 L489.52606496179743,304.2978011116792 M489.52606496179743,304.2978011116792 L486.8067226006423,312.79683593684035 M486.4990318152448,313.7182284521477 L486.57775056220055,313.71283767286513 M486.57775056220055,313.71283767286513 L486.66083100881133,313.6810424562998 M486.66083100881133,313.6810424562998 L486.7434472671019,313.62458234843734 M486.7434472671019,313.62458234843734 L486.82079789804493,313.5468022005594 M486.82079789804493,313.5468022005594 L486.8883902241834,313.45224860158976 M486.8883902241834,313.45224860158976 L486.94229542210985,313.34633334145724 M486.94229542210985,313.34633334145724 L486.97938321097774,313.23526826522226 M486.97938321097774,313.23526826522226 L486.9974958087835,313.12550874122076 M486.9974958087835,313.12550874122076 L486.9955832407744,313.023425332791 M486.9955832407744,313.023425332791 L486.97375320372583,312.9349138345476 M486.97375320372583,312.9349138345476 L486.9332744601243,312.8651850625117 M486.9332744601243,312.8651850625117 L486.87649796781244,312.8182302408917 M486.87649796781244,312.8182302408917 L486.8067226006423,312.79683593684035 M469.29165549344816,413.28843538329147 L469.3950365303356,405.47954636384 M469.3950365303356,405.47954636384 L469.74290575895446,397.53906887901155 M469.74290575895446,397.53906887901155 L470.3354595204204,389.4792634158808 M470.3354595204204,389.4792634158808 L471.1724690728332,381.3126766522748 M471.1724690728332,381.3126766522748 L472.25327638720756,373.05218721280517 M472.25327638720756,373.05218721280517 L473.57679195779866,364.7107922226211 M473.57679195779866,364.7107922226211 L475.14149119394745,356.3018318873246 M475.14149119394745,356.3018318873246 L476.94541531259495,347.83864361927596 M476.94541531259495,347.83864361927596 L478.9861717575586,339.3349398390247 M478.9861717575586,339.3349398390247 L481.2609355379787,330.8044086459366 M481.2609355379787,330.8044086459366 L483.7664486015289,322.26083258531065 M483.7664486015289,322.26083258531065 L486.4990318152448,313.7182284521477 M469.29165549344816,413.28843538329147 L469.2923908710576,428.60488112236163 M503.4148762419894,410.899381298309 L469.2923908710576,428.60488112236163 M503.4148762419894,410.899381298309 L503.26016377760754,418.59265359505616 M503.26016377760754,418.59265359505616 L502.86889530235544,426.3823693820451 M502.86889530235544,426.3823693820451 L502.2422968097455,434.2580037001571 M502.2422968097455,434.2580037001571 L501.38186296012844,442.20898860515365 M501.38186296012844,442.20898860515365 L500.2893662857753,450.224700652336 M500.2893662857753,450.224700652336 L498.9668278606712,458.2945433535419 M498.9668278606712,458.2945433535419 L497.41653822337236,466.4078279637746 M497.41653822337236,466.4078279637746 L495.6410285776675,474.55397994351347 M495.6410285776675,474.55397994351347 L493.64308776166354,482.72237157887236 M493.64308776166354,482.72237157887236 L491.42574281032654,490.9023737410613 M491.42574281032654,490.9023737410613 L488.9922566908575,499.08344768181 M488.9922566908575,499.08344768181 L486.34612720224646,507.255037651075 M486.04671315857036,508.14156014139405 L486.1233285259217,508.132906702954 M486.1233285259217,508.132906702954 L486.20418769839773,508.09897676819946 M486.20418769839773,508.09897676819946 L486.2845934500118,508.0417851540239 M486.2845934500118,508.0417851540239 L486.35987301609623,507.9646183070172 M486.35987301609623,507.9646183070172 L486.4256539824353,507.8719856743722 M486.4256539824353,507.8719856743722 L486.4781126054051,507.76926468404565 M486.4781126054051,507.76926468404565 L486.5142027661862,507.6624056756169 M486.5142027661862,507.6624056756169 L486.53182466179464,507.5576444333927 M486.53182466179464,507.5576444333927 L486.5299568335239,507.46103663668555 M486.5299568335239,507.46103663668555 L486.5087043165326,507.3782347917514 M486.5087043165326,507.3782347917514 L486.4693025753083,507.314016778239 M486.4693025753083,507.314016778239 L486.41403981007375,507.2721544021033 M486.41403981007375,507.2721544021033 L486.34612720224646,507.255037651075 M469.3007753775695,603.2373928987533 L469.40141629867213,595.8335155931254 M469.40141629867213,595.8335155931254 L469.74003050365593,588.2943848288447 M469.74003050365593,588.2943848288447 L470.31679077185464,580.6316181885777 M470.31679077185464,580.6316181885777 L471.1314578101087,572.8571323939623 M471.1314578101087,572.8571323939623 L472.1833763463332,564.9830526874342 M472.1833763463332,564.9830526874342 L473.4714730692723,557.0218156574504 M473.4714730692723,557.0218156574504 L474.9942533622319,548.9860039335817 M474.9942533622319,548.9860039335817 L476.74980208943686,540.8884099980098 M476.74980208943686,540.8884099980098 L478.73578433298013,532.7420268035312 M478.73578433298013,532.7420268035312 L480.94944660203606,524.5599147438179 M480.94944660203606,524.5599147438179 L483.3876161227886,516.3553398212307 M483.3876161227886,516.3553398212307 L486.04671315857036,508.14156014139405 M469.3007753775695,603.2373928987533 L469.3014722379629,617.7516020155599 M502.52430587627015,599.444343711699 L469.3014722379629,617.7516020155599 M502.52430587627015,599.444343711699 L501.8653489381447,738.9538265256576 M501.8653489381447,738.9538265256576 L469.307535205655,757.6692612786546 M469.307535205655,757.6692612786546 L469.30822810541247,772.0721124310394 M469.30822810541247,772.0721124310394 L301.2925534501667,869.0652304082136 M301.2925534501667,869.0652304082136 L300.3251242554589,830.599171340251 M313.5425493547274,823.0541939231302 L300.3251242554589,830.599171340251 M310.8103342755643,705.087264985767 L313.5425493547274,823.0541939231302 M297.3549508732158,712.5017794190044 L310.8103342755643,705.087264985767 M297.3549508732158,712.5017794190044 L294.9717728192854,617.7439735832476 M308.6182382555835,610.4406768071517 L294.9717728192854,617.7439735832476 M308.6182382555835,610.4406768071517 L306.36478418454,513.1448752102156 M292.5217354301083,520.3277663338129 L306.36478418454,513.1448752102156 M292.5217354301083,520.3277663338129 L290.0019864366795,420.13974828774616 M304.04736055433204,413.0871049462999 L290.0019864366795,420.13974828774616 M304.04736055433204,413.0871049462999 L301.66320299297934,310.14801067055737 M317.3234025086479,420.13974687219803 L304.04736055433204,413.0871049462999 M312.8626764471387,210.96113279912112 L299.20938877793367,204.20140004704015 M310.53287620286983,101.70887667685423 L296.68281728934863,95.11339979327971 M295.8414025488589,108.33644188095957 L281.9933854030379,101.70887800078077 M280.79063223197056,53.886076316122 L294.7246858376074,60.43914943409811 M309.51305675962533,53.886075007096395 L295.5769218716813,47.36493110827371 M308.4800792047397,5.446244737296695 L294.45679274141503,-0.9980965752101838 M483.30214173905694,-70.60662407567293 L469.26739571795576,-76.68384737064082 M483.133023151223,23.84611388817592 L469.2719326218914,17.6217882838871 M519.2093677680294,7.571481955089894 L505.3489888746761,1.4233784238176668 M495.0096981636764,12.262367503149392 L494.8146156286636,12.194110317162824 M494.8146156286636,12.194110317162824 L494.5889565831966,12.148688291295173 M494.5889565831966,12.148688291295173 L494.3458302053347,12.128739427731603 M494.3458302053347,12.128739427731603 L494.09936082396507,12.135421004951127 M494.09936082396507,12.135421004951127 L493.8638629920679,12.168346757085828 M493.8638629920679,12.168346757085828 L493.6530188120655,12.225603477760728 M493.6530188120655,12.225603477760728 L493.4790772353238,12.303867198229398 M493.4790772353238,12.303867198229398 L493.35214790860624,12.398592444405722 M493.35214790860624,12.398592444405722 L493.27960939717053,12.504277559059062 M493.27960939717053,12.504277559059062 L493.26568683441826,12.614781546845563 M493.26568683441826,12.614781546845563 L493.31119293347814,12.723683663912482 M493.31119293347814,12.723683663912482 L493.4134919060744,12.824653057560624 M493.4134919060744,12.824653057560624 L493.5666417959242,12.911819502788433 M493.5666417959242,12.911819502788433 L493.7617458249546,12.980114186192623 M493.7617458249546,12.980114186192623 L493.9874618096528,13.025564880680122 M493.9874618096528,13.025564880680122 L494.23066822217135,13.045527325795888 M494.23066822217135,13.045527325795888 L494.4772223981279,13.038841132295147 M494.4772223981279,13.038841132295147 L494.71279035963545,13.005893622513383 M494.71279035963545,13.005893622513383 L494.92367393806256,12.948602988232153 M494.92367393806256,12.948602988232153 L495.0976151565201,12.87030096696327 M495.0976151565201,12.87030096696327 L495.22450445032547,12.775541807192496 M495.22450445032547,12.775541807192496 L495.296972425093,12.669834935193762 M495.296972425093,12.669834935193762 L495.31081010689184,12.55932633077714 M495.31081010689184,12.55932633077714 L495.26522422727413,12.450437795362632 M495.26522422727413,12.450437795362632 L495.16286885180364,12.349497070228665 M495.16286885180364,12.349497070228665 L495.0096981636764,12.262367503149392 M500.97369572269196,113.64781864325982 L487.293427665031,107.31542662211814 M500.65576474815657,114.60862183572624 L486.9769893481235,108.27435701979454 M482.7839637633719,219.19043615317966 L469.2820237999835,212.67951224619716 M482.7549384244336,235.40021796038823 L469.28280097815474,228.86658013729723 M517.8265019373467,218.31535187282014 L504.3550181469563,211.85949971400743 M494.30064842306183,223.24047760199272 L494.11103481027106,223.16881549455454 M494.11103481027106,223.16881549455454 L493.89169289767085,223.1211275921809 M493.89169289767085,223.1211275921809 L493.6553650154004,223.10018356559124 M493.6553650154004,223.10018356559124 L493.41578072267515,223.10719845895557 M493.41578072267515,223.10719845895557 L493.18685489375514,223.14176672563315 M493.18685489375514,223.14176672563315 L492.98188796954565,223.20187966363116 M492.98188796954565,223.20187966363116 L492.81278755432226,223.2840474049845 M492.81278755432226,223.2840474049845 L492.6893819204725,223.38349763816058 M492.6893819204725,223.38349763816058 L492.6188447024138,223.49445419286667 M492.6188447024138,223.49445419286667 L492.60528429735484,223.61046971404983 M492.60528429735484,223.61046971404983 L492.64949207354033,223.7248032030746 M492.64949207354033,223.7248032030746 L492.7489072639905,223.83080809701292 M492.7489072639905,223.83080809701292 L492.8977552849186,223.92232148551346 M492.8977552849186,223.92232148551346 L493.08738921673745,223.99402186948168 M493.08738921673745,223.99402186948168 L493.30678492346107,224.04173902919763 M493.30678492346107,224.04173902919763 L493.54318842617545,224.0626969162425 M493.54318842617545,224.0626969162425 L493.78285284144164,224.05567731180005 M493.78285284144164,224.05567731180005 L494.0118449403742,224.02108684067227 M494.0118449403742,224.02108684067227 L494.21684910006564,223.9609392926371 M494.21684910006564,223.9609392926371 L494.38594918621146,223.87873246395947 M494.38594918621146,223.87873246395947 L494.50931700181405,223.77924762075816 M494.50931700181405,223.77924762075816 L494.579787575985,223.66826886191024 M494.579787575985,223.66826886191024 L494.59326777917687,223.55224862929228 M494.59326777917687,223.55224862929228 L494.54898461593257,223.43792900082536 M494.54898461593257,223.43792900082536 L494.4495161239932,223.3319533641219 M494.4495161239932,223.3319533641219 L494.30064842306183,223.24047760199272 M500.1079863281836,319.4177267902961 L486.8067226006423,312.79683593684035 M499.79888438015684,320.3408402020739 L486.4990318152448,313.7182284521477 M482.42426881613994,420.06928288037966 L469.29165549344816,413.28843538329147 M482.39680804100294,435.4053026999934 L469.2923908710576,428.60488112236163 M516.5186916017938,417.6210293417356 L503.4148762419894,410.899381298309 M493.63014748635015,422.74837153953575 L493.44570453073345,422.67377057808477 M493.44570453073345,422.67377057808477 L493.2323356988698,422.6241269442432 M493.2323356988698,422.6241269442432 L493.0024364457202,422.60232396661166 M493.0024364457202,422.60232396661166 L492.769363028088,422.60962655395326 M492.769363028088,422.60962655395326 L492.5466523541899,422.6456125160049 M492.5466523541899,422.6456125160049 L492.34724391834675,422.7081907172658 M492.34724391834675,422.7081907172658 L492.18272248675726,422.79372808474943 M492.18272248675726,422.79372808474943 L492.06265019566194,422.89725650411833 M492.06265019566194,422.89725650411833 L491.99400682405565,423.01276285614796 M491.99400682405565,423.01276285614796 L491.98079030936043,423.133535356847 M491.98079030936043,423.133535356847 L492.023771763196,423.2525565952389 M492.023771763196,423.2525565952389 L492.1204612887532,423.3629075283571 M492.1204612887532,423.3629075283571 L492.26524250451376,423.45817264667136 M492.26524250451376,423.45817264667136 L492.4497046989075,423.5328123800042 M492.4497046989075,423.5328123800042 L492.6631244333522,423.5824856427861 M492.6631244333522,423.5824856427861 L492.8930952481012,423.60430265691457 M492.8930952481012,423.60430265691457 L493.12624449198626,423.59699529865907 M493.12624449198626,423.59699529865907 L493.3490178863673,423.56098685013853 M493.3490178863673,423.56098685013853 L493.54846156809384,423.4983735992583 M493.54846156809384,423.4983735992583 L493.71298269672235,423.41279664800203 M493.71298269672235,423.41279664800203 L493.83301920541885,423.3092331790259 M493.83301920541885,423.3092331790259 L493.90159951233863,423.19370434083925 M493.90159951233863,423.19370434083925 L493.91474012775063,423.07292706886545 M493.91474012775063,423.07292706886545 L493.87168732717856,422.95391986707443 M493.87168732717856,422.95391986707443 L493.77494735257767,422.8435985627873 M493.77494735257767,422.8435985627873 L493.63014748635015,422.74837153953575 M499.2888205019095,514.1247241948012 L486.34612720224646,507.255037651075 M498.9880701622633,515.0128317189346 L486.04671315857036,508.14156014139405 M482.08372890519473,610.2506159841355 L469.3007753775695,603.2373928987533 M482.0577095373309,624.7816530456107 L469.3014722379629,617.7516020155599 M515.2799878700805,606.3951043898699 L502.52430587627015,599.444343711699 M492.9951349627006,611.6966701632109 L492.8155881509011,611.6195376987919 M492.8155881509011,611.6195376987919 L492.60787570906035,611.5682094064975 M492.60787570906035,611.5682094064975 L492.3840646018766,611.5456665300616 M492.3840646018766,611.5456665300616 L492.15715754633817,611.553216936599 M492.15715754633817,611.553216936599 L491.9403334748078,611.5904240973246 M491.9403334748078,611.5904240973246 L491.74619000808354,611.6551258606061 M491.74619000808354,611.6551258606061 L491.5860061176503,611.7435657848657 M491.5860061176503,611.7435657848657 L491.4690918366407,611.8506070791589 M491.4690918366407,611.8506070791589 L491.40224328986835,611.9700325080819 M491.40224328986835,611.9700325080819 L491.3893537385134,612.0949025072862 M491.3893537385134,612.0949025072862 L491.43117504501413,612.2179615719764 M491.43117504501413,612.2179615719764 L491.52528436676727,612.3320559616475 M491.52528436676727,612.3320559616475 L491.6662150877895,612.4305526014547 M491.6662150877895,612.4305526014547 L491.84578014291156,612.5077241014317 M491.84578014291156,612.5077241014317 L492.0535408228145,612.5590822170861 M492.0535408228145,612.5590822170861 L492.27741975097535,612.5816392221238 M492.27741975097535,612.5816392221238 L492.5043986729964,612.5740840133667 M492.5043986729964,612.5740840133667 L492.7212821932036,612.5368542186201 M492.7212821932036,612.5368542186201 L492.9154590715174,612.47211717573 M492.9154590715174,612.47211717573 L493.07564268241407,612.3836374079563 M493.07564268241407,612.3836374079563 L493.1925230568013,612.2765608340666 M493.1925230568013,612.2765608340666 L493.2593118373064,612.1571127714366 M493.2593118373064,612.1571127714366 L493.2721294547948,612.0322379696491 M493.2721294547948,612.0322379696491 L493.230240525567,611.9091930336655 M493.230240525567,611.9091930336655 L493.1360833842222,611.7951284672446 M493.1360833842222,611.7951284672446 L492.9951349627006,611.6966701632109 M514.3635308437113,746.0599193452017 L501.8653489381447,738.9538265256576 M469.307535205655,757.6692612786546 L481.8062396016833,764.8547785446218 M493.50169659861655,750.9171196382313 L493.84697715882874,751.1686653674932 M493.84697715882874,751.1686653674932 L494.0776802063659,751.4601112349485 M494.0776802063659,751.4601112349485 L494.18037476751937,751.7745358395623 M494.18037476751937,751.7745358395623 L494.1490569810563,752.0936725903098 M494.1490569810563,752.0936725903098 L493.98551059762593,752.398972673494 M493.98551059762593,752.398972673494 L493.69920945366414,752.6726811457299 M493.69920945366414,752.6726811457299 L493.30677455613034,752.8988719589368 M493.30677455613034,752.8988719589368 L492.83101311984694,753.0643781104914 M492.83101311984694,753.0643781104914 L492.29959220452713,753.1595622900709 M492.29959220452713,753.1595622900709 L491.7434264215683,753.1788807307123 M491.7434264215683,753.1788807307123 L491.194873589207,753.1212078106564 M491.194873589207,753.1212078106564 L490.68585008165047,752.9899033813078 M490.68585008165047,752.9899033813078 L490.2459625327677,752.7926136927233 M490.2459625327677,752.7926136927233 L489.9007850210339,752.5408261314565 M489.9007850210339,752.5408261314565 L489.67036865779784,752.2491933780007 M489.67036865779784,752.2491933780007 L489.56808023335117,751.934680500236 M489.56808023335117,751.934680500236 L489.5998293874914,751.6155736370267 M489.5998293874914,751.6155736370267 L489.7637344160159,751.3104152506648 M489.7637344160159,751.3104152506648 L490.05023900853007,751.036927644935 M490.05023900853007,751.036927644935 L490.4426755498852,750.8109862700649 M490.4426755498852,750.8109862700649 L490.9182364486563,750.6457009850055 M490.9182364486563,750.6457009850055 L491.4493005864128,750.5506585024034 M491.4493005864128,750.5506585024034 L492.0050353979042,750.5313703070389 M492.0050353979042,750.5313703070389 L492.55318092771876,750.5889545961304 M492.55318092771876,750.5889545961304 L493.06191529019736,750.7200724973019 M493.06191529019736,750.7200724973019 L493.50169659861655,750.9171196382313 M481.78042374066735,779.2729379384394 L469.30822810541247,772.0721124310394 M313.75528335347826,876.6838473706408 L301.2925534501667,869.0652304082136 M300.3251242554589,830.599171340251 L312.85750922442105,838.1772596412512 M323.55801180233027,712.5017779309655 L310.8103342755643,705.087264985767 M326.07643423359656,830.5991698260873 L313.5425493547274,823.0541939231302 M310.1010481589019,719.9494043192053 L297.3549508732158,712.5017794190044 M294.9717728192854,617.7439735832476 L307.88919299643294,625.0803363636002 M321.5373051646242,617.7439721174843 L308.6182382555835,610.4406768071517 M319.45990821700155,520.3277648921694 L306.36478418454,513.1448752102156 M305.61514245664944,527.5436355642701 L292.5217354301083,520.3277663338129 M290.0019864366795,420.13974828774616 L303.2762370549267,427.2252334994262 M495.0096981636764,12.262367503149392 L495.06311098766236,-3.63064537609705 M495.06311098766236,-3.63064537609705 L495.21660587385344,-3.543858998926794 M495.21660587385344,-3.543858998926794 L495.31917878101416,-3.443315848615839 M495.31917878101416,-3.443315848615839 L495.364862861777,-3.3348561738533817 M495.364862861777,-3.3348561738533817 L495.3509983190477,-3.2247827914864615 M495.3509983190477,-3.2247827914864615 L495.2783799440315,-3.1194922124284403 M495.2783799440315,-3.1194922124284403 L495.1512254331158,-3.025106216396523 M495.1512254331158,-3.025106216396523 L494.97691957644327,-2.9471125394965725 M494.97691957644327,-2.9471125394965725 L494.76559313154416,-2.8900475029744825 M494.76559313154416,-2.8900475029744825 L494.52952982476785,-2.8572297307827625 M494.52952982476785,-2.8572297307827625 L494.2824566414516,-2.8505698653322042 M494.2824566414516,-2.8505698653322042 L494.0387377484625,-2.870453704636475 M494.0387377484625,-2.870453704636475 L493.8125456257995,-2.9157254262623837 M493.8125456257995,-2.9157254262623837 L493.61702949090886,-2.9837511770135166 M493.61702949090886,-2.9837511770135166 L493.46355548846395,-3.07057436507165 M493.46355548846395,-3.07057436507165 L493.36103922134095,-3.171146131104308 M493.36103922134095,-3.171146131104308 L493.3154352571316,-3.2796193625089813 M493.3154352571316,-3.2796193625089813 L493.3293850386673,-3.389688136747111 M493.3293850386673,-3.389688136747111 L493.40207424808455,-3.494956998525538 M493.40207424808455,-3.494956998525538 L493.5292689613163,-3.5893091434139137 M493.5292689613163,-3.5893091434139137 L493.7035751785406,-3.667264590043544 M493.7035751785406,-3.667264590043544 L493.9148620596268,-3.7242957754105532 M493.9148620596268,-3.7242957754105532 L494.15085494163617,-3.757091830021068 M494.15085494163617,-3.757091830021068 L494.39784297305897,-3.7637470876913426 M494.39784297305897,-3.7637470876913426 L494.6414814937877,-3.743876804929073 M494.6414814937877,-3.743876804929073 L494.8676164366614,-3.6986336991303688 M494.8676164366614,-3.6986336991303688 L495.06311098766236,-3.63064537609705 M494.30064842306183,223.24047760199272 L494.3511149468566,208.22413783964987 M494.3511149468566,208.22413783964987 L494.5002888687751,208.31531714862032 M494.5002888687751,208.31531714862032 L494.59996278341885,208.42094935620185 M494.59996278341885,208.42094935620185 L494.6443386123893,208.53489853370036 M494.6443386123893,208.53489853370036 L494.630832910219,208.6505428237179 M494.630832910219,208.6505428237179 L494.5602201188921,208.76116199400155 M494.5602201188921,208.76116199400155 L494.4366016165256,208.860324505729 M494.4366016165256,208.860324505729 L494.26715692667716,208.94226499450346 M494.26715692667716,208.94226499450346 L494.0617342747934,209.0022176780974 M494.0617342747934,209.0022176780974 L493.83227412708055,209.03669608627604 M493.83227412708055,209.03669608627604 L493.5921193345143,209.04369294947492 M493.5921193345143,209.04369294947492 L493.35523164883244,209.02280295940204 M493.35523164883244,209.02280295940204 L493.135386122007,208.97524039064564 M493.135386122007,208.97524039064564 L492.9453628915004,208.90377230306683 M492.9453628915004,208.90377230306683 L492.7962087281746,208.81255541224107 M492.7962087281746,208.81255541224107 L492.69658833287485,208.70689398255502 M492.69658833287485,208.70689398255502 L492.6522881995626,208.5929309611413 M492.6522881995626,208.5929309611413 L492.66587443224535,208.47729137690123 M492.66587443224535,208.47729137690123 L492.736554140865,208.3666943840986 M492.736554140865,208.3666943840986 L492.8602106170079,208.2675664408389 M492.8602106170079,208.2675664408389 L493.02965563795794,208.18566499245543 M493.02965563795794,208.18566499245543 L493.2350409024155,208.12574687734164 M493.2350409024155,208.12574687734164 L493.46443450901074,208.09129064695134 M493.46443450901074,208.09129064695134 L493.7045088508786,208.0842984891741 M493.7045088508786,208.0842984891741 L493.94132060608155,208.1051746354343 M493.94132060608155,208.1051746354343 L494.1611121178985,208.1527079819785 M494.1611121178985,208.1527079819785 L494.3511149468566,208.22413783964987 M493.63014748635015,422.74837153953575 L493.67790493325464,408.53811898047655 M493.67790493325464,408.53811898047655 L493.8229944981947,408.6330903457339 M493.8229944981947,408.6330903457339 L493.91992877007567,408.74311548287164 M493.91992877007567,408.74311548287164 L493.96306915593243,408.8618032172518 M493.96306915593243,408.8618032172518 L493.94990430321764,408.9822562890466 M493.94990430321764,408.9822562890466 L493.88118931223306,409.09747503311945 M493.88118931223306,409.09747503311945 L493.7609154849791,409.2007605393445 M493.7609154849791,409.2007605393445 L493.59606818028163,409.2861078139344 M493.59606818028163,409.2861078139344 L493.3962284224142,409.34855302558196 M493.3962284224142,409.34855302558196 L493.17301208007956,409.38446483821383 M493.17301208007956,409.38446483821383 L492.93939878369673,409.391752585915 M492.93939878369673,409.391752585915 L492.70896980284886,409.36999412170724 M492.70896980284886,409.36999412170724 L492.4951244429591,409.32045416846375 M492.4951244429591,409.32045416846375 L492.3102939148341,409.2460147539389 M492.3102939148341,409.2460147539389 L492.16522307279206,409.1510053195809 M492.16522307279206,409.1510053195809 L492.0683394505413,409.040950574327 M492.0683394505413,409.040950574327 L492.0252706955233,408.9222488131594 M492.0252706955233,408.9222488131594 L492.0385117500533,408.80180050930363 M492.0385117500533,408.80180050930363 L492.1072900573813,408.6866042356667 M492.1072900573813,408.6866042356667 L492.2275998101632,408.5833537545442 M492.2275998101632,408.5833537545442 L492.39244741963444,408.4980460360522 M492.39244741963444,408.4980460360522 L492.5922517916995,408.4356358495193 M492.5922517916995,408.4356358495193 L492.81540516395376,408.3997465076351 M492.81540516395376,408.3997465076351 L493.04894233198894,408.3924635275122 M493.04894233198894,408.3924635275122 L493.2792994658495,408.41420796503655 M493.2792994658495,408.41420796503655 L493.493093719858,408.4637183100548 M493.493093719858,408.4637183100548 L493.67790493325464,408.53811898047655 M492.9951349627006,611.6966701632109 L493.0403957970353,598.2292859411366 M493.0403957970353,598.2292859411366 L493.1816186972066,598.3275242834786 M493.1816186972066,598.3275242834786 L493.2759598904355,598.4413340373803 M493.2759598904355,598.4413340373803 L493.31793173104904,598.5641041167439 M493.31793173104904,598.5641041167439 L493.3050910471638,598.6886999928773 M493.3050910471638,598.6886999928773 L493.238174532618,598.8078812686903 M493.238174532618,598.8078812686903 L493.12106916623713,598.9147187019349 M493.12106916623713,598.9147187019349 L492.9605763671007,599.0030008727866 M492.9605763671007,599.0030008727866 L492.76602407441186,599.0675933479838 M492.76602407441186,599.0675933479838 L492.5487207403591,599.1047400051878 M492.5487207403591,599.1047400051878 L492.3213020259939,599.1122783426738 M492.3213020259939,599.1122783426738 L492.0969889062267,599.0897717090934 M492.0969889062267,599.0897717090934 L491.88882489435855,599.0385282821712 M491.88882489435855,599.0385282821712 L491.708910821119,598.9615291211874 M491.708910821119,598.9615291211874 L491.56770568834827,598.8632524539063 M491.56770568834827,598.8632524539063 L491.47341249980724,598.7494128857095 M491.47341249980724,598.7494128857095 L491.43150854405195,598.6266286818817 M491.43150854405195,598.6266286818817 L491.44442144091715,598.5020376068893 M491.44442144091715,598.5020376068893 L491.5113979538862,598.3828789579873 M491.5113979538862,598.3828789579873 L491.62853735890246,598.2760767937456 M491.62853735890246,598.2760767937456 L491.7890304392035,598.1878344544442 M491.7890304392035,598.1878344544442 L491.98354919117315,598.1232772482623 M491.98354919117315,598.1232772482623 L492.2007928462429,598.0861532182829 M492.2007928462429,598.0861532182829 L492.4281394154046,598.0786196815745 M492.4281394154046,598.0786196815745 L492.65238445090864,598.1011121907956 M492.65238445090864,598.1011121907956 L492.86050003718105,598.152325803313 M492.86050003718105,598.152325803313 L493.0403957970353,598.2292859411366 M493.50169659861655,750.9171196382313 L493.4963937073578,752.4305749074404 M493.4963937073578,752.4305749074404 L493.8415971496965,752.6821775583958 M493.8415971496965,752.6821775583958 L494.07224846514305,752.9736893660288 M494.07224846514305,752.9736893660288 L494.1749196970754,753.2881850972547 M494.1749196970754,753.2881850972547 L494.1436083556805,753.6073940272391 M494.1436083556805,753.6073940272391 L493.9800978333215,753.9127631476601 M493.9800978333215,753.9127631476601 L493.69385989602284,754.1865335029108 M493.69385989602284,754.1865335029108 L493.3015118852581,754.4127754483702 M493.3015118852581,754.4127754483702 L492.82585596630594,754.5783190096513 M492.82585596630594,754.5783190096513 L492.2945530589176,754.6735247022898 M492.2945530589176,754.6735247022898 L491.73851090278407,754.6928475090442 M491.73851090278407,754.6928475090442 L491.1900801153139,754.6351615543285 M491.1900801153139,754.6351615543285 L490.68116996204816,754.5038274472245 M490.68116996204816,754.5038274472245 L490.24138047824965,754.3064931624606 M490.24138047824965,754.3064931624606 L489.8962800390827,754.054648678641 M489.8962800390827,754.054648678641 L489.66591528072496,753.7629499842421 M489.66591528072496,753.7629499842421 L489.56365000519145,753.4483659795627 M489.56365000519145,753.4483659795627 L489.5953925224296,753.1291869371926 M489.5953925224296,753.1291869371926 L489.75926153027626,752.8239595141438 M489.75926153027626,752.8239595141438 L490.0457028253816,752.5504100262567 M490.0457028253816,752.5504100262567 L490.43805247887195,752.3244175201023 M490.43805247887195,752.3244175201023 L490.913507949117,752.1590948261739 M490.913507949117,752.1590948261739 L491.4444542373037,752.0640308310627 M491.4444542373037,752.0640308310627 L492.00006561353933,752.0447382697423 M492.00006561353933,752.0447382697423 L492.54808927954804,752.1023355931098 M492.54808927954804,752.1023355931098 L493.05671041658843,752.2334831713526 M493.05671041658843,752.2334831713526 L493.4963937073578,752.4305749074404 M496.1472035551371,-4.11560642064677 L496.5309789145341,-3.898710499733511 M496.5309789145341,-3.898710499733511 L496.7875162864313,-3.647406103766116 M496.7875162864313,-3.647406103766116 L496.90187771072397,-3.3762824850245465 M496.90187771072397,-3.3762824850245465 L496.86737307692596,-3.1010899250337616 M496.86737307692596,-3.1010899250337616 L496.68596276769443,-2.837823363005157 M496.68596276769443,-2.837823363005157 L496.36815158846673,-2.6017944088638956 M496.36815158846673,-2.6017944088638956 L495.93238765728586,-2.406738488471774 M495.93238765728586,-2.406738488471774 L495.4039963089785,-2.264012222342103 M495.4039963089785,-2.264012222342103 L494.81370730088855,-2.1819282708803485 M494.81370730088855,-2.1819282708803485 L494.195863560567,-2.165268570531339 M494.195863560567,-2.165268570531339 L493.58641588520044,-2.215004073173702 M493.58641588520044,-2.215004073173702 L493.02082797954444,-2.3282366134620247 M493.02082797954444,-2.3282366134620247 L492.53199952389417,-2.498370793494246 M492.53199952389417,-2.498370793494246 L492.1483510365214,-2.715498401707066 M492.1483510365214,-2.715498401707066 L491.8921673179885,-2.966981800385952 M491.8921673179885,-2.966981800385952 L491.77830696934797,-3.238189993887886 M491.77830696934797,-3.238189993887886 L491.8133439987725,-3.5133539072313056 M491.8133439987725,-3.5133539072313056 L491.99519702245743,-3.776484736576151 M491.99519702245743,-3.776484736576151 L492.31325946693585,-4.012302120665652 M492.31325946693585,-4.012302120665652 L492.7490256516073,-4.207119101783178 M492.7490256516073,-4.207119101783178 L493.277169725363,-4.349633797864783 M493.277169725363,-4.349633797864783 L493.8670185791612,-4.43158201648572 M493.8670185791612,-4.43158201648572 L494.4843304670034,-4.448212761706316 M494.4843304670034,-4.448212761706316 L495.09327546848095,-4.398562142380683 M495.09327546848095,-4.398562142380683 L495.6585063473384,-4.28550829625226 M495.6585063473384,-4.28550829625226 L496.1472035551371,-4.11560642064677 M495.4049862521838,207.71462604034124 L495.77795712260024,207.94250279221177 M495.77795712260024,207.94250279221177 L496.02724119572116,208.2065287020389 M496.02724119572116,208.2065287020389 L496.1383236750677,208.49137553114304 M496.1383236750677,208.49137553114304 L496.1047074006673,208.78049556676172 M496.1047074006673,208.78049556676172 L495.9283036247583,209.05708443841826 M495.9283036247583,209.05708443841826 L495.61932829289907,209.30505604997896 M495.61932829289907,209.30505604997896 L495.195717220733,209.50998051868953 M495.195717220733,209.50998051868953 L494.68208946603664,209.65992725492262 M494.68208946603664,209.65992725492262 L494.1083156048608,209.7461635965094 M494.1083156048608,209.7461635965094 L493.5077766924033,209.76366604452687 M493.5077766924033,209.76366604452687 L492.91541536128994,209.71141460307382 M492.91541536128994,209.71141460307382 L492.36569989232623,209.5924538317429 M492.36569989232623,209.5924538317429 L491.8906058480375,209.41371232736765 M491.8906058480375,209.41371232736765 L491.51775492012166,209.18559898769269 M491.51775492012166,209.18559898769269 L491.26880500575874,208.92139027745003 M491.26880500575874,208.92139027745003 L491.15819596171957,208.63645708593745 M491.15819596171957,208.63645708593745 L491.19231521464275,208.34736629946678 M491.19231521464275,208.34736629946678 L491.3691372231078,208.07091603674488 M491.3691372231078,208.07091603674488 L491.6783498917991,207.823160478521 M491.6783498917991,207.823160478521 L492.10196303338887,207.61848001233795 M492.10196303338887,207.61848001233795 L492.61535711598987,207.46874932943652 M492.61535711598987,207.46874932943652 L493.18871509565747,207.3826515969416 M493.18871509565747,207.3826515969416 L493.7887515283776,207.36517872216487 M493.7887515283776,207.36517872216487 L494.380637956493,207.4173434770409 M494.380637956493,207.4173434770409 L494.9300161688069,207.53612177212455 M494.9300161688069,207.53612177212455 L495.4049862521838,207.71462604034124 M494.7031942030791,408.00741402789214 L495.06595226855006,408.24476996085286 M495.06595226855006,408.24476996085286 L495.3083818857791,408.51977747724345 M495.3083818857791,408.51977747724345 L495.4163681108087,408.81647034885964 M495.4163681108087,408.81647034885964 L495.38359592515894,409.1176124756724 M495.38359592515894,409.1176124756724 L495.21192982163603,409.40570080397276 M495.21192982163603,409.40570080397276 L494.9113123416158,409.6639807777512 M494.9113123416158,409.6639807777512 L494.499194680436,409.87742317728794 M494.499194680436,409.87742317728794 L493.9995279424547,410.03360209587754 M493.9995279424547,410.03360209587754 L493.4413702593052,410.1234224434702 M493.4413702593052,410.1234224434702 L492.85719322560107,410.14165227983324 M492.85719322560107,410.14165227983324 L492.2809863105187,410.0872292902661 M492.2809863105187,410.0872292902661 L491.74627672574326,409.96332435479997 M491.74627672574326,409.96332435479997 L491.28416641237663,409.77715358818267 M491.28416641237663,409.77715358818267 L490.9215219133825,409.53955795139007 M490.9215219133825,409.53955795139007 L490.6794085283987,409.2643652152717 M490.6794085283987,409.2643652152717 L490.57187032433836,408.9675848450338 M490.57187032433836,408.9675848450338 L490.6051184433553,408.66647234914024 M490.6051184433553,408.66647234914024 L490.77718027352836,408.3785244607393 M490.77718027352836,408.3785244607393 L491.0780222887863,408.1204633942695 M491.0780222887863,408.1204633942695 L491.4901418548359,407.9072682204273 M491.4901418548359,407.9072682204273 L491.9895874309081,407.75130820913887 M491.9895874309081,407.75130820913887 L492.54735155150934,407.6616283016027 M492.54735155150934,407.6616283016027 L493.1310531109722,407.64342843372737 M493.1310531109722,407.64342843372737 L493.70681065410184,407.6977635870288 M493.70681065410184,407.6977635870288 L494.241201155073,407.8214836404146 M494.241201155073,407.8214836404146 L494.7031942030791,408.00741402789214 M494.03861241736126,597.6803219455464 L494.3917020570218,597.9258448015803 M494.3917020570218,597.9258448015803 L494.6276440481857,598.2103134787036 M494.6276440481857,598.2103134787036 L494.73270186259924,598.5172120237371 M494.73270186259924,598.5172120237371 L494.7007326971071,598.8287112410435 M494.7007326971071,598.8287112410435 L494.5335564911345,599.1267061686399 M494.5335564911345,599.1267061686399 L494.24085662988574,599.3938664341115 M494.24085662988574,599.3938664341115 L493.83962518607746,599.6146465898801 M493.83962518607746,599.6146465898801 L493.3531805976268,599.7761941295054 M493.3531805976268,599.7761941295054 L492.8098115762614,599.8691018347921 M492.8098115762614,599.8691018347921 L492.24112849774957,599.887958259967 M492.24112849774957,599.887958259967 L491.6802182876897,599.8316646468484 M491.6802182876897,599.8316646468484 L491.1597171099295,599.7035006588773 M491.1597171099295,599.7035006588773 L490.70989975184733,599.510930019809 M490.70989975184733,599.510930019809 L490.35691779870416,599.2651658000048 M490.35691779870416,599.2651658000048 L490.1212755176059,598.9805106087302 M490.1212755176059,598.9805106087302 L490.01664230305647,598.6735239604 M490.01664230305647,598.6735239604 L490.0490624804093,598.3620545757208 M490.0490624804093,598.3620545757208 L490.21661367605554,598.0642010659894 M490.21661367605554,598.0642010659894 L490.50952627942627,597.7972612322066 M490.50952627942627,597.7972612322066 L490.91075948054413,597.5767300237088 M490.91075948054413,597.5767300237088 L491.3969944388884,597.4154029157627 M491.3969944388884,597.4154029157627 L491.93999046704255,597.3226366284973 M491.93999046704255,597.3226366284973 L492.5082229572556,597.3038103851275 M492.5082229572556,597.3038103851275 L493.06870732112213,597.3600155456965 M493.06870732112213,597.3600155456965 L493.58890615815096,597.4879933687764 M493.58890615815096,597.4879933687764 L494.03861241736126,597.6803219455464 M492.52026949333333,752.9931315249928 L492.658338476599,753.0938018481236 M492.658338476599,753.0938018481236 L492.7505649690755,753.2104288968558 M492.7505649690755,753.2104288968558 L492.79158442085804,753.3362378733993 M492.79158442085804,753.3362378733993 L492.7790092225955,753.4639176223103 M492.7790092225955,753.4639176223103 L492.71356098559295,753.5860485487162 M492.71356098559295,753.5860485487162 L492.5990415133699,753.6955299606419 M492.5990415133699,753.6955299606419 L492.44210210190374,753.7859967886868 M492.44210210190374,753.7859967886868 L492.2518641664366,753.8521876189225 M492.2518641664366,753.8521876189225 L492.0393853228675,753.8902534516301 M492.0393853228675,753.8902534516301 L491.81702058932484,753.8979783191357 M491.81702058932484,753.8979783191357 L491.5976969934817,753.8749147748622 M491.5976969934817,753.8749147748622 L491.3941677879337,753.822403338949 M491.3941677879337,753.822403338949 L491.2182642860994,753.7434987783545 M491.2182642860994,753.7434987783545 L491.0802123089049,753.642790062489 M491.0802123089049,753.642790062489 L490.988031715503,753.5261331405347 M490.988031715503,753.5261331405347 L490.94707716676334,753.4003100116105 M490.94707716676334,753.4003100116105 L490.9597214031058,753.2726350733298 M490.9597214031058,753.2726350733298 L491.02522699785845,753.150526818556 M491.02522699785845,753.150526818556 L491.13977900723137,753.0410807453413 M491.13977900723137,753.0410807453413 L491.29671868152917,752.9506538275724 M491.29671868152917,752.9506538275724 L491.48692454529674,752.8844983360598 M491.48692454529674,752.8844983360598 L491.6993463297272,752.8464551752988 M491.6993463297272,752.8464551752988 L491.92164208854695,752.8387351180595 M491.92164208854695,752.8387351180595 L492.1409005949446,752.8617845100574 M492.1409005949446,752.8617845100574 L492.3443835079546,752.9142660726386 M492.3443835079546,752.9142660726386 L492.52026949333333,752.9931315249928 M496.1537502657721,-5.984050109794055 L496.537620941452,-5.767255415786906 M496.537620941452,-5.767255415786906 L496.7942223092283,-5.516068294322736 M496.7942223092283,-5.516068294322736 L496.9086126752179,-5.2450711856358225 M496.9086126752179,-5.2450711856358225 L496.87410022556844,-4.970007020154469 M496.87410022556844,-4.970007020154469 L496.69264577481607,-4.706863275051887 M496.69264577481607,-4.706863275051887 L496.37475667493874,-4.470944420068008 M496.37475667493874,-4.470944420068008 L495.93888556166337,-4.27597947843708 M495.93888556166337,-4.27597947843708 L495.4103639988197,-4.133319778718487 M495.4103639988197,-4.133319778718487 L494.81992932185557,-4.051274108829148 M494.81992932185557,-4.051274108829148 L494.20193294260554,-4.034622177925314 M494.20193294260554,-4.034622177925314 L493.59233455118834,-4.084334485680984 M493.59233455118834,-4.084334485680984 L493.02660663314373,-4.197514216561444 M493.02660663314373,-4.197514216561444 L492.53765702071865,-4.36756904484713 M492.53765702071865,-4.36756904484713 L492.1539132790357,-4.58459537533173 M492.1539132790357,-4.58459537533173 L491.89766573902403,-4.835961460145825 M491.89766573902403,-4.835961460145825 L491.78377669597285,-5.107043125051803 M491.78377669597285,-5.107043125051803 L491.8188218044451,-5.382078650140727 M491.8188218044451,-5.382078650140727 L492.0007191887019,-5.645086692377106 M492.0007191887019,-5.645086692377106 L492.318859678467,-5.880794023787928 M492.318859678467,-5.880794023787928 L492.75473304690337,-6.075520078635577 M492.75473304690337,-6.075520078635577 L493.28300721351616,-6.217968254783841 M493.28300721351616,-6.217968254783841 L493.8730015190352,-6.29987822165117 M493.8730015190352,-6.29987822165117 L494.4904657830121,-6.316501203824998 M494.4904657830121,-6.316501203824998 L495.0995612520693,-6.266873760700776 M495.0995612520693,-6.266873760700776 L495.6649319664147,-6.153872684762177 M495.6649319664147,-6.153872684762177 L496.1537502657721,-5.984050109794055 M496.1537502657721,-5.984050109794055 L496.1472035551371,-4.11560642064677 M495.41117149784293,205.94934514404804 L495.78423239271564,206.17713444668385 M495.78423239271564,206.17713444668385 L496.03357689396665,206.4410590458029 M496.03357689396665,206.4410590458029 L496.1446866798784,206.72579658815104 M496.1446866798784,206.72579658815104 L496.1110629838783,207.01480571158467 M496.1110629838783,207.01480571158467 L495.93461746900124,207.29128849152164 M495.93461746900124,207.29128849152164 L495.6255684892561,207.53916499916556 M495.6255684892561,207.53916499916556 L495.201856130535,207.74401088158612 M495.201856130535,207.74401088158612 L494.6881053370001,207.89390011939776 M494.6881053370001,207.89390011939776 L494.1141938449286,207.98010339461212 M494.1141938449286,207.98010339461212 L493.51351072514996,207.99759913166343 M493.51351072514996,207.99759913166343 L492.92100701139066,207.94536772514266 M492.92100701139066,207.94536772514266 L492.3711592791696,207.82645256903587 M492.3711592791696,207.82645256903587 L491.89595079138405,207.64777960717487 M491.89595079138405,207.64777960717487 L491.5230098959683,207.41975375063902 M491.5230098959683,207.41975375063902 L491.27399971365867,207.15564637740042 M491.27399971365867,207.15564637740042 L491.16336359015736,206.87082248500957 M491.16336359015736,206.87082248500957 L491.19749050636875,206.58184260656157 M491.19749050636875,206.58184260656157 L491.3743544549341,206.30549841564988 M491.3743544549341,206.30549841564988 L491.68364088592875,206.05783793031014 M491.68364088592875,206.05783793031014 L492.1073553155647,205.8532360153696 M492.1073553155647,205.8532360153696 L492.6208723252268,205.70356279985668 M492.6208723252268,205.70356279985668 L493.1943677363516,205.61749811382492 M493.1943677363516,205.61749811382492 L493.7945481350636,205.600031945728 M493.7945481350636,205.600031945728 L494.3865767176645,205.65217667816168 M494.3865767176645,205.65217667816168 L494.93608703082043,205.77090938419227 M494.93608703082043,205.77090938419227 L495.41117149784293,205.94934514404804 M495.41117149784293,205.94934514404804 L495.4049862521838,207.71462604034124 M494.7090471141966,406.3369820429955 L495.0718903410479,406.57426255188784 M495.0718903410479,406.57426255188784 L495.3143771088753,406.84918269060074 M495.3143771088753,406.84918269060074 L495.42238914002934,407.1457813075499 M495.42238914002934,407.1457813075499 L495.3896098981844,407.4468277801012 M495.3896098981844,407.4468277801012 L495.2179042673435,407.73482461359805 M495.2179042673435,407.73482461359805 L494.9172170701742,407.9930225703617 M494.9172170701742,407.9930225703617 L494.50500354461053,408.2063971988452 M494.50500354461053,408.2063971988452 L494.0052203662886,408.36252653281156 M494.0052203662886,408.36252653281156 L493.44693244282456,408.4523183654012 M493.44693244282456,408.4523183654012 L492.8626189535964,408.4705424145432 M492.8626189535964,408.4705424145432 L492.28627731675147,408.4161367021821 M492.28627731675147,408.4161367021821 L491.75144259188824,408.2922711034693 M491.75144259188824,408.2922711034693 L491.28922400540984,408.1061594459128 M491.28922400540984,408.1061594459128 L490.9264943975028,407.8686392532873 M490.9264943975028,407.8686392532873 L490.6843240093913,407.5935339104773 M490.6843240093913,407.5935339104773 L490.5767602082644,407.29684780223226 M490.5767602082644,407.29684780223226 L490.61001560593814,406.9958309581455 M490.61001560593814,406.9958309581455 L490.78211714854507,406.707974552726 M490.78211714854507,406.707974552726 L491.0830289862374,406.44999548484424 M491.0830289862374,406.44999548484424 L491.4952444180057,406.2368680612445 M491.4952444180057,406.2368680612445 L491.99480633149733,406.0809576161524 M491.99480633149733,406.0809576161524 L492.5527005088139,405.99130621179745 M492.5527005088139,405.99130621179745 L493.1365383016609,405.9731121285812 M493.1365383016609,405.9731121285812 L493.71243035654834,406.02743001210956 M493.71243035654834,406.02743001210956 L494.24694584813824,406.1511107442654 M494.24694584813824,406.1511107442654 L494.7090471141966,406.3369820429955 M494.7090471141966,406.3369820429955 L494.7031942030791,408.00741402789214 M494.04415907633125,596.0972949070768 L494.397329397952,596.34275286051 M494.397329397952,596.34275286051 L494.6333255217588,596.6271463505585 M494.6333255217588,596.6271463505585 L494.73840776215644,596.9339637929505 M494.73840776215644,596.9339637929505 L494.70643187974684,597.2453807054083 M494.70643187974684,597.2453807054083 L494.5392181869013,597.5432969090969 M494.5392181869013,597.5432969090969 L494.24645223276457,597.8103866071741 M494.24645223276457,597.8103866071741 L493.8451299227276,598.0311084539361 M493.8451299227276,598.0311084539361 L493.35857497551785,598.192613332506 M493.35857497551785,598.192613332506 L492.8150825247224,598.2854965046348 M492.8150825247224,598.2854965046348 L492.24627013383645,598.3043479507411 M492.24627013383645,598.3043479507411 L491.6852322608397,598.2480692021879 M491.6852322608397,598.2480692021879 L491.1646125058454,598.1199390581254 M491.1646125058454,598.1199390581254 L490.71469255913985,597.927419275009 M490.71469255913985,597.927419275009 L490.36162997247465,597.6817199666423 M490.36162997247465,597.6817199666423 L490.1259336948017,597.3971399693719 M490.1259336948017,597.3971399693719 L490.0212762471433,597.0902344268983 M490.0212762471433,597.0902344268983 L490.0537033466347,596.7788473460055 M490.0537033466347,596.7788473460055 L490.22129219990967,596.4810725549578 M490.22129219990967,596.4810725549578 L490.5142709932681,596.2142032804263 M490.5142709932681,596.2142032804263 L490.9155950618135,595.993730371739 M490.9155950618135,595.993730371739 L491.4019402839402,595.8324459167055 M491.4019402839402,595.8324459167055 L491.9450595721305,595.739704157374 M491.9450595721305,595.739704157374 L492.5134211697857,595.7208828919181 M492.5134211697857,595.7208828919181 L493.0740330028636,595.7770731912287 M493.0740330028636,595.7770731912287 L493.5943502792637,595.9050171772376 M493.5943502792637,595.9050171772376 L494.04415907633125,596.0972949070768 M494.04415907633125,596.0972949070768 L494.03861241736126,597.6803219455464 M492.4769960671075,765.8691614558475 L492.52026949333333,752.9931315249928 M492.4769960671075,765.8691614558475 L492.3014436619264,765.7901448904761 M492.3014436619264,765.7901448904761 L492.0983461616277,765.7375627648205 M492.0983461616277,765.7375627648205 L491.87950251739045,765.714469205521 M491.87950251739045,765.714469205521 L491.65762697830354,765.7222040560195 M491.65762697830354,765.7222040560195 L491.4456063753692,765.7603201145287 M491.4456063753692,765.7603201145287 L491.25575935497056,765.826602368358 M491.25575935497056,765.826602368358 L491.0991153435651,765.9172025476304 M491.0991153435651,765.9172025476304 L490.98477863233387,766.0268583115164 M490.98477863233387,766.0268583115164 L490.91939545068465,766.1492005009079 M490.91939545068465,766.1492005009079 L490.9067736038183,766.2771200205444 M490.9067736038183,766.2771200205444 L490.9476492011577,766.4031841654939 M490.9476492011577,766.4031841654939 L491.03965406622655,766.5200645295968 M491.03965406622655,766.5200645295968 L491.17744373866,766.6209661284769 M491.17744373866,766.6209661284769 L491.3530135948047,766.7000218035843 M491.3530135948047,766.7000218035843 L491.5561572123496,766.7526338031964 M491.5561572123496,766.7526338031964 L491.77506569990993,766.7757415150674 M491.77506569990993,766.7757415150674 L491.99700995315146,766.7680018542023 M491.99700995315146,766.7680018542023 L492.2090873999022,766.7298631232724 M492.2090873999022,766.7298631232724 L492.3989663712527,766.6635455299809 M492.3989663712527,766.6635455299809 L492.5556101213149,766.5729054395981 M492.5556101213149,766.5729054395981 L492.6699144187797,766.4632143362621 M492.6699144187797,766.4632143362621 L492.7352404596919,766.3408494747644 M492.7352404596919,766.3408494747644 L492.7477935294052,766.2129251443969 M492.7477935294052,766.2129251443969 L492.70685327409,766.0868751521241 M492.70685327409,766.0868751521241 L492.61480268301017,765.9700246618679 M492.61480268301017,765.9700246618679 L492.4769960671075,765.8691614558475" stroke="black"  stroke-width="4"  fill="red"/></svg>