<svg viewBox="0 0 800 800" xmlns="http://www.w3.org/2000/svg"><path d="M237.87895931848425,174.90503420769022 L66.79140574689666,269.19259544862484 M66.79140699586867,256.2128958458248 L66.79140574689666,269.19259544862484 M66.79140699586867,256.2128958458248 L66.79107867586049,256.107624507193 M66.79107867586049,256.107624507193 L66.79088167859703,256.0022881675851 M66.79088167859703,256.0022881675851 L66.79081601129013,255.89686548584143 M238.23786776454074,161.85043326714498 L66.79081601129013,255.89686548584143 M237.87895931848425,174.90503420769022 L238.23786776454074,161.85043326714498 M732.1341755816434,635.8676199596023 L717.8692726782563,628.0061328301256 M548.7122004434962,747.9763299500166 L717.8692726782563,628.0061328301256 M548.7122004434962,747.9763299500166 L344.92341470064696,628.0065445015246 M332.9279278224809,635.8680336443117 L344.92341470064696,628.0065445015246 M266.46619713305745,596.560440464249 L332.9279278224809,635.8680336443117 M278.47586541903604,588.8890915865638 L266.46619713305745,596.560440464249 M278.47586541903604,588.8890915865638 L16.291762827487617,434.54217587549056 M4.2646270917935,441.4860459300738 L16.291762827487617,434.54217587549056 M-54.47395904926441,406.7461674458048 L4.2646270917935,441.4860459300738 M-42.451329526923644,399.96031132072346 L-54.47395904926441,406.7461674458048 M-42.451329526923644,399.96031132072346 L-93.11219646108663,370.13642619097266 M78.05024216182795,275.39741844450015 L-93.11219646108663,370.13642619097266 M78.05024216182795,275.39741844450015 L66.79140574689666,269.19259544862484 M899.7014066796464,516.359107864447 L237.87895931848425,174.90503420769022 M732.1341755816434,635.8676199596023 L899.7014066796464,516.359107864447 M159.9602724508415,223.94000392357893 L159.8023233482554,223.87381404695057 M159.8023233482554,223.87381404695057 L159.62042575268163,223.82977174607868 M159.62042575268163,223.82977174607868 L159.42515969298205,223.81042808050464 M159.42515969298205,223.81042808050464 L159.22787165169467,223.81690415775395 M159.22787165169467,223.81690415775395 L159.0400033047335,223.84883498944077 M159.0400033047335,223.84883498944077 L158.87248488440986,223.90435678351997 M158.87248488440986,223.90435678351997 L158.7350540149218,223.98024306345837 M158.7350540149218,223.98024306345837 L158.63567930974398,224.07209667060283 M158.63567930974398,224.07209667060283 L158.58014278070647,224.1745795069085 M158.58014278070647,224.1745795069085 L158.57169407235222,224.28172825067915 M158.57169407235222,224.28172825067915 L158.6108094756339,224.38732651057734 M158.6108094756339,224.38732651057734 L158.69522440886038,224.48523443643677 M158.69522440886038,224.48523443643677 L158.82004794690562,224.5697529784654 M158.82004794690562,224.5697529784654 L158.97801356210687,224.63597589044892 M158.97801356210687,224.63597589044892 L159.15995320385275,224.68004342485483 M159.15995320385275,224.68004342485483 L159.35527776955655,224.69939904502732 M159.35527776955655,224.69939904502732 L159.55262737355417,224.69291890623333 M159.55262737355417,224.69291890623333 L159.74054624111363,224.66096892083127 M159.74054624111363,224.66096892083127 L159.90809256229107,224.6054172745187 M159.90809256229107,224.6054172745187 L160.04552232288182,224.52949728285867 M160.04552232288182,224.52949728285867 L160.14486716330612,224.43761382317857 M160.14486716330612,224.43761382317857 L160.20035191172798,224.33511183460567 M160.20035191172798,224.33511183460567 L160.2087387901068,224.22795902716535 M160.2087387901068,224.22795902716535 L160.1695656672905,224.12237272220943 M160.1695656672905,224.12237272220943 L160.0851103480099,224.02449003230814 M160.0851103480099,224.02449003230814 L159.9602724508415,223.94000392357893 M810.9480945038922,570.8003809981315 L810.7534853455807,570.7168720330517 M810.7534853455807,570.7168720330517 L810.5377371475704,570.6613088965971 M810.5377371475704,570.6613088965971 L810.3134120711063,570.636918453959 M810.3134120711063,570.636918453959 L810.0935039769013,570.64509299765 M810.0935039769013,570.64509299765 L809.8907582140839,570.6853664223429 M809.8907582140839,570.6853664223429 L809.7170283533142,570.7554201442917 M809.7170283533142,570.7554201442917 L809.5823710513316,570.8511612114273 M809.5823710513316,570.8511612114273 L809.4945949692933,570.9670424452565 M809.4945949692933,570.9670424452565 L809.4588513623796,571.096352171294 M809.4588513623796,571.096352171294 L809.4771811614794,571.2315343888135 M809.4771811614794,571.2315343888135 L809.5485163010778,571.3647517955651 M809.5485163010778,571.3647517955651 L809.6687603790936,571.4882796703769 M809.6687603790936,571.4882796703769 L809.8309235738045,571.5949185119825 M809.8309235738045,571.5949185119825 L810.0255624060558,571.6784738688507 M810.0255624060558,571.6784738688507 L810.2413710140318,571.734072764187 M810.2413710140318,571.734072764187 L810.4658188898738,571.7585043944612 M810.4658188898738,571.7585043944612 L810.6858034672637,571.7503240920043 M810.6858034672637,571.7503240920043 L810.8886073921976,571.7100235310463 M810.8886073921976,571.7100235310463 L811.0623637396934,571.6399274999665 M811.0623637396934,571.6399274999665 L811.1970098068234,571.5441386578832 M811.1970098068234,571.5441386578832 L811.2847395043038,571.4282151198906 M811.2847395043038,571.4282151198906 L811.3204121844126,571.2988782497055 M811.3204121844126,571.2988782497055 L811.3020031938406,571.1636902742516 M811.3020031938406,571.1636902742516 L811.2305532227217,571.0304655622763 M811.2305532227217,571.0304655622763 L811.1102655539437,570.9069734503653 M811.1102655539437,570.9069734503653 L810.9480945038922,570.8003809981315 M78.07413978902889,262.4026694806631 L66.79140699586867,256.2128958458248 M78.07413978902889,262.4026694806631 L78.05024216182795,275.39741844450015 M78.07413123703805,262.08627224279 L78.07400274753888,262.19181754702095 M78.07400274753888,262.19181754702095 L78.07400561370576,262.29727617097586 M78.07400561370576,262.29727617097586 L78.07413978902889,262.4026694806631 M66.79081601129013,255.89686548584143 L78.07413123703805,262.08627224279 M719.4588249879043,613.9146735486561 L733.7625459868916,621.760908952823 M733.7625459868916,621.760908952823 L901.6649071715524,502.4939710589575 M901.6649071715524,502.4939710589575 L238.23786776454074,161.85043326714498 M78.07413123703805,262.08627224279 L-93.47137236482268,356.59678500049375 M-93.47137236482268,356.59678500049375 L-42.699187568375805,386.3516537236689 M-42.699187568375805,386.3516537236689 L-54.74972074539721,393.12199450804684 M-54.74972074539721,393.12199450804684 L4.120788028621973,427.7835348261342 M4.120788028621973,427.7835348261342 L16.175858355315256,420.8551770515232 M16.175858355315256,420.8551770515232 L278.9865675226804,574.8745122775063 M278.9865675226804,574.8745122775063 L266.9490902414731,582.530520772103 M266.9490902414731,582.530520772103 L333.5795080015307,621.760908952823 M333.5795080015307,621.760908952823 L345.60270019605593,613.9146735486561 M345.60270019605593,613.9146735486561 L549.9331796732761,733.6618661771204 M719.4588249879043,613.9146735486561 L549.9331796732761,733.6618661771204 M161.01582085226136,210.28723549103006 L161.32861386326516,210.49785381960697 M161.32861386326516,210.49785381960697 L161.54030913185426,210.74188002807233 M161.54030913185426,210.74188002807233 L161.63858309311667,211.00514602246736 M161.63858309311667,211.00514602246736 L161.61769266336967,211.27235730510037 M161.61769266336967,211.27235730510037 L161.47880959493284,211.52798837094477 M161.47880959493284,211.52798837094477 L161.22999869250975,211.75716095281325 M161.22999869250975,211.75716095281325 L160.88567998007096,211.94655321649944 M160.88567998007096,211.94655321649944 L160.46588536109516,212.0851282748642 M160.46588536109516,212.0851282748642 L159.9950034987039,212.16482984124255 M159.9950034987039,212.16482984124255 L159.5004487378925,212.18100402916195 M159.5004487378925,212.18100402916195 L159.01098491567353,212.13271372942583 M159.01098491567353,212.13271372942583 L158.55509085877577,212.0227722088616 M158.55509085877577,212.0227722088616 L158.1592833900657,211.85758180448244 M158.1592833900657,211.85758180448244 L157.84657753044002,211.64675927398054 M157.84657753044002,211.64675927398054 L157.63513516415054,211.4025751137843 M157.63513516415054,211.4025751137843 L157.53722404862071,211.13923473182808 M157.53722404862071,211.13923473182808 L157.55850229691845,210.87204868665725 M157.55850229691845,210.87204868665725 L157.69771038208023,210.6165372691399 M157.69771038208023,210.6165372691399 L157.94670875048,210.38755118052364 M157.94670875048,210.38755118052364 L158.29103443857582,210.198369541062 M158.29103443857582,210.198369541062 L158.71065394441007,210.05998097371224 M158.71065394441007,210.05998097371224 L159.18121871539768,209.9803990592228 M159.18121871539768,209.9803990592228 L159.67538733914063,209.96425040677377 M159.67538733914063,209.96425040677377 L160.16448336844616,210.01246571872068 M160.16448336844616,210.01246571872068 L160.6201140805353,210.12224988648566 M160.6201140805353,210.12224988648566 L161.01582085226136,210.28723549103006 M813.5723597159761,556.2278964428504 L813.9789397209479,556.4937670442782 M813.9789397209479,556.4937670442782 L814.2806271046177,556.8017815672495 M814.2806271046177,556.8017815672495 L814.4599811770706,557.1341195190096 M814.4599811770706,557.1341195190096 L814.5064646695357,557.4714345972463 M814.5064646695357,557.4714345972463 L814.4173486865984,557.7941404002881 M814.4173486865984,557.7941404002881 L814.1977811593558,558.0834458326458 M814.1977811593558,558.0834458326458 L813.8604895254769,558.3225392324914 M813.8604895254769,558.3225392324914 L813.4250913912476,558.4974845566092 M813.4250913912476,558.4974845566092 L812.9168666003702,558.5981003916738 M812.9168666003702,558.5981003916738 L812.3654172634776,558.6185173873719 M812.3654172634776,558.6185173873719 L811.8027979490118,558.5575396543989 M811.8027979490118,558.5575396543989 L811.2618250007285,558.4187606906421 M811.2618250007285,558.4187606906421 L810.7738549810424,558.2102035491248 M810.7738549810424,558.2102035491248 L810.367369774681,557.944067101665 M810.367369774681,557.944067101665 L810.0659103790131,557.6358047887422 M810.0659103790131,557.6358047887422 L809.8870372905635,557.3033851067842 M809.8870372905635,557.3033851067842 L809.8410511801628,556.9661060354579 M809.8410511801628,556.9661060354579 L809.9306126296585,556.643569931317 M809.9306126296585,556.643569931317 L810.1504716279546,556.3545289990095 M810.1504716279546,556.3545289990095 L810.4878339921133,556.1157343252305 M810.4878339921133,556.1157343252305 L810.9230659086186,555.9410535028342 M810.9230659086186,555.9410535028342 L811.4309255920575,555.8406073622687 M811.4309255920575,555.8406073622687 L811.9818945961586,555.82022636691 M811.9818945961586,555.82022636691 L812.5439827639052,555.8810739703572 M812.5439827639052,555.8810739703572 L813.0846218440636,556.0196535438843 M813.0846218440636,556.0196535438843 L813.5723597159761,556.2278964428504 M899.7014066796464,516.359107864447 L901.6649071715524,502.4939710589575 M733.724358877982,622.096239663676 L719.4215623580078,614.2496412883727 M733.724358877982,622.096239663676 L732.1341755816434,635.8676199596023 M719.4215623580078,614.2496412883727 L717.8692726782563,628.0061328301256 M719.4215623580078,614.2496412883727 L719.4338539240871,614.138077236727 M719.4338539240871,614.138077236727 L719.4462739472824,614.0264288651263 M719.4462739472824,614.0264288651263 L719.4588249879043,613.9146735486561 M548.7122004434962,747.9763299500166 L549.9331796732761,733.6618661771204 M344.92341470064696,628.0065445015246 L345.60270019605593,613.9146735486561 M332.9279278224809,635.8680336443117 L333.5795080015307,621.760908952823 M266.46619713305745,596.560440464249 L266.9490902414731,582.530520772103 M278.47586541903604,588.8890915865638 L278.9865675226804,574.8745122775063 M16.291762827487617,434.54217587549056 L16.175858355315256,420.8551770515232 M4.2646270917935,441.4860459300738 L4.120788028621973,427.7835348261342 M-54.47395904926441,406.7461674458048 L-54.74972074539721,393.12199450804684 M-42.451329526923644,399.96031132072346 L-42.699187568375805,386.3516537236689 M-93.11219646108663,370.13642619097266 L-93.47137236482268,356.59678500049375 M733.7625459868916,621.760908952823 L733.7496868551025,621.8727857266906 M733.7496868551025,621.8727857266906 L733.736958693014,621.9845550804587 M733.736958693014,621.9845550804587 L733.724358877982,622.096239663676 M159.9602724508415,223.94000392357893 L160.13827153953355,212.14471951762408 M160.13827153953355,212.14471951762408 L160.26335329794347,212.22901233111543 M160.26335329794347,212.22901233111543 L160.34797618843646,212.32667108791296 M160.34797618843646,212.32667108791296 L160.3872308633883,212.43201585021205 M160.3872308633883,212.43201585021205 L160.37883476675745,212.53892354685016 M160.37883476675745,212.53892354685016 L160.32325050763302,212.64119107786755 M160.32325050763302,212.64119107786755 L160.2237216633343,212.73286438034089 M160.2237216633343,212.73286438034089 L160.08603409720382,212.80861073530104 M160.08603409720382,212.80861073530104 L159.91817111635697,212.86403533432537 M159.91817111635697,212.86403533432537 L159.72989515541713,212.89591225161686 M159.72989515541713,212.89591225161686 L159.53216882430968,212.90237757080754 M159.53216882430968,212.90237757080754 L159.33646977679513,212.8830662156911 M159.33646977679513,212.8830662156911 L159.15417968749398,212.83909946278922 M159.15417968749398,212.83909946278922 L158.99590806182084,212.77302800612776 M158.99590806182084,212.77302800612776 L158.87084071433355,212.6887027711279 M158.87084071433355,212.6887027711279 L158.78625836278144,212.59101878799223 M158.78625836278144,212.59101878799223 L158.74706162739028,212.485662075308 M158.74706162739028,212.485662075308 L158.755519790756,212.3787584407905 M158.755519790756,212.3787584407905 L158.81115602976803,212.27651005473962 M158.81115602976803,212.27651005473962 L158.91071485493796,212.18486659342238 M158.91071485493796,212.18486659342238 L159.04840353633415,212.10915393733322 M159.04840353633415,212.10915393733322 L159.2162385114883,212.05375917916265 M159.2162385114883,212.05375917916265 L159.40446375979428,212.02190140828506 M159.40446375979428,212.02190140828506 L159.6021282929671,212.0154401490909 M159.6021282929671,212.0154401490909 L159.79776860993456,212.03473955416604 M159.79776860993456,212.03473955416604 L159.98001649064275,212.07868108315267 M159.98001649064275,212.07868108315267 L160.13827153953355,212.14471951762408 M810.9480945038922,570.8003809981315 L812.5453657026014,558.2929884214223 M812.5453657026014,558.2929884214223 L812.7079388168615,558.3993870945988 M812.7079388168615,558.3993870945988 L812.8285472273874,558.5226547240802 M812.8285472273874,558.5226547240802 L812.900218052496,558.6556372850027 M812.900218052496,558.6556372850027 L812.9187350385507,558.7905795655386 M812.9187350385507,558.7905795655386 L812.8830512885825,558.9196813979747 M812.8830512885825,558.9196813979747 L812.7951919589241,559.0353942928964 M812.7951919589241,559.0353942928964 L812.6603053208739,559.1310090921309 M812.6603053208739,559.1310090921309 L812.4862114062953,559.20097777061 M812.4862114062953,559.20097777061 L812.282992450532,559.2412051152985 M812.282992450532,559.2412051152985 L812.0625396913847,559.2493705564139 M812.0625396913847,559.2493705564139 L811.8375975531169,559.2249833119072 M811.8375975531169,559.2249833119072 L811.6212974790903,559.169485427976 M811.6212974790903,559.169485427976 L811.4261985154797,559.0860818813555 M811.4261985154797,559.0860818813555 L811.2636332668035,558.9796368037166 M811.2636332668035,558.9796368037166 L811.1430686162605,558.8563333997004 M811.1430686162605,558.8563333997004 L811.0715130220149,558.7233580944212 M811.0715130220149,558.7233580944212 L811.053075570715,558.5884215736926 M811.053075570715,558.5884215736926 L811.0888305660922,558.4593468942346 M811.0888305660922,558.4593468942346 L811.176736501116,558.3436763172383 M811.176736501116,558.3436763172383 L811.3116344465273,558.248109308493 M811.3116344465273,558.248109308493 L811.4857017819907,558.178182952908 M811.4857017819907,558.178182952908 L811.6888623394154,558.1379827533124 M811.6888623394154,558.1379827533124 L811.9092382895747,558.1298230728362 M811.9092382895747,558.1298230728362 L812.134057177698,558.1541691682653 M812.134057177698,558.1541691682653 L812.3502965639886,558.209631281682 M812.3502965639886,558.209631281682 L812.5453657026014,558.2929884214223 M161.01582085226136,210.28723549103006 L160.99470819337853,211.67367292871012 M160.99470819337853,211.67367292871012 L161.3074295256074,211.88434828366843 M161.3074295256074,211.88434828366843 L161.5190755077549,212.1284405550546 M161.5190755077549,212.1284405550546 L161.61732544861786,212.39177781029105 M161.61732544861786,212.39177781029105 L161.59643767450228,212.6590614103344 M161.59643767450228,212.6590614103344 L161.45758380028497,212.9147616488534 M161.45758380028497,212.9147616488534 L161.20882694187952,213.14399623495405 M161.20882694187952,213.14399623495405 L160.86458399499622,213.33343973368846 M160.86458399499622,213.33343973368846 L160.44488245547495,213.47205227621956 M160.44488245547495,213.47205227621956 L159.97410557551984,213.55177540025713 M159.97410557551984,213.55177540025713 L159.4796615821612,213.56795396284267 M159.4796615821612,213.56795396284267 L158.99030786261972,213.51965060180498 M158.99030786261972,213.51965060180498 L158.5345168303727,213.40967934345565 M158.5345168303727,213.40967934345565 L158.13879931080112,213.2444442535333 M158.13879931080112,213.2444442535333 L157.82616509253018,213.03356468723027 M157.82616509253018,213.03356468723027 L157.61477190037488,212.7893144567078 M157.61477190037488,212.7893144567078 L157.51688464329243,212.52590281052153 M157.51688464329243,212.52590281052153 L157.5381600618848,212.25864444907924 M157.5381600618848,212.25864444907924 L157.67733880626417,212.00306386444595 M157.67733880626417,212.00306386444595 L157.92628304523885,211.77401578026164 M157.92628304523885,211.77401578026164 L158.27053296308986,211.58478291553695 M158.27053296308986,211.58478291553695 L158.69005946657308,211.4463568726849 M158.69005946657308,211.4463568726849 L159.16051939635975,211.3667534060952 M159.16051939635975,211.3667534060952 L159.65457742559352,211.35060038019995 M159.65457742559352,211.35060038019995 L160.14356351749916,211.39882874989738 M160.14356351749916,211.39882874989738 L160.59909132426492,211.5086426482043 M160.59909132426492,211.5086426482043 L160.99470819337853,211.67367292871012 M813.5723597159761,556.2278964428504 L813.3843713228855,557.6984303625802 M813.3843713228855,557.6984303625802 L813.7908330927714,557.9643582314409 M813.7908330927714,557.9643582314409 L814.0924261141272,558.2724390853302 M814.0924261141272,558.2724390853302 L814.2717151588809,558.6048485890312 M814.2717151588809,558.6048485890312 L814.3181667773774,558.9422362727066 M814.3181667773774,558.9422362727066 L814.2290539431935,559.2650115195702 M814.2290539431935,559.2650115195702 L814.0095244240651,559.5543791940797 M814.0095244240651,559.5543791940797 L813.6723034632698,559.7935240231825 M813.6723034632698,559.7935240231825 L813.2370045599107,559.9685069724399 M813.2370045599107,559.9685069724399 L812.7289017940518,560.069144444532 M812.7289017940518,560.069144444532 L812.1775901615094,560.0895658306245 M812.1775901615094,560.0895658306245 L811.6151162164583,560.0285749850298 M811.6151162164583,560.0285749850298 L811.0742878109234,559.8897661760952 M811.0742878109234,559.8897661760952 L810.5864531222285,559.6811641774243 M810.5864531222285,559.6811641774243 L810.1800861305433,559.4149704783581 M810.1800861305433,559.4149704783581 L809.8787209856662,559.1066418374933 M809.8787209856662,559.1066418374933 L809.6999126990675,558.7741506126802 M809.6999126990675,558.7741506126802 L809.6539582100286,558.4367989345978 M809.6539582100286,558.4367989345978 L809.74351627634,558.1141933804229 M809.74351627634,558.1141933804229 L809.9633371039874,557.825090196281 M809.9633371039874,557.825090196281 L810.3006287416442,557.5862440823096 M810.3006287416442,557.5862440823096 L810.7357614952168,557.4115256250911 M810.7357614952168,557.4115256250911 L811.243499327378,557.3110578412866 M811.243499327378,557.3110578412866 L811.7943308668587,557.2906724542156 M811.7943308668587,557.2906724542156 L812.3562739289241,557.3515331689534 M812.3562739289241,557.3515331689534 L812.8967686578228,557.490142601052 M812.8967686578228,557.490142601052 L813.3843713228855,557.6984303625802" stroke="black"  stroke-width="4"  fill="red"/>
<path d="M732.1341755816434,635.8676199596023 L551.1603595076575,764.9376734865659 M732.1341755816434,635.8676199596023 L717.8692726782563,628.0061328301256 M536.7848128194552,756.4355154010141 L717.8692726782563,628.0061328301256 M551.1603595076575,764.9376734865659 L536.7848128194552,756.4355154010141 M733.724358877982,622.096239663676 L732.1341755816434,635.8676199596023 M827.757491637245,493.64410479909304 L824.7812183926624,493.81830866083436 M824.7812183926624,493.81830866083436 L821.672146674983,494.33005938899396 M821.672146674983,494.33005938899396 L818.4422021446148,495.17840240213764 M818.4422021446148,495.17840240213764 L815.1038569757786,496.3610040294952 M815.1038569757786,496.3610040294952 L811.6701225880215,497.87413826930117 M811.6701225880215,497.87413826930117 L808.1544696733556,499.71270340024745 M808.1544696733556,499.71270340024745 L804.5707865483921,501.8702335308457 M804.5707865483921,501.8702335308457 L800.9333108032081,504.33888735557315 M800.9333108032081,504.33888735557315 L797.2565967095309,507.10945528024644 M797.2565967095309,507.10945528024644 L793.5554095340401,510.17146105670804 M793.5554095340401,510.17146105670804 L789.8446979322825,513.5131051721498 M789.8446979322825,513.5131051721498 L786.1395169767807,517.1213711886625 M786.1395169767807,517.1213711886625 L782.4549395194847,520.9821212416593 M782.4549395194847,520.9821212416593 L778.806011370699,525.0799727165681 M778.806011370699,525.0799727165681 L775.2076673231079,529.3986067172432 M775.2076673231079,529.3986067172432 L771.6746704027905,533.920618219722 M771.6746704027905,533.920618219722 L768.2215292519306,538.6277438545151 M768.2215292519306,538.6277438545151 L764.8624406405665,543.5008840726887 M764.8624406405665,543.5008840726887 L761.6112136402369,548.5201617050125 M761.6112136402369,548.5201617050125 L758.4812053208043,553.6651017834913 M758.4812053208043,553.6651017834913 L755.4852603174281,558.9146415338851 M755.4852603174281,558.9146415338851 L752.6356409227087,564.2472970871961 M752.6356409227087,564.2472970871961 L749.9439824548369,569.6411875011188 M749.9439824548369,569.6411875011188 L747.421228141545,575.074201454092 M747.421228141545,575.074201454092 L745.0775815339543,580.5240895292061 M745.0775815339543,580.5240895292061 L742.9224579704517,585.9685792380697 M742.9224579704517,585.9685792380697 L740.9644477596935,591.3854509452578 M740.9644477596935,591.3854509452578 L739.2112783672767,596.7526360129059 M739.2112783672767,596.7526360129059 L737.669779005812,602.0483657107072 M737.669779005812,602.0483657107072 L736.3458559352409,607.2512387643585 M736.3458559352409,607.2512387643585 L735.2444732060144,612.3403055814015 M735.2444732060144,612.3403055814015 L734.3696302606072,617.2952164001592 M734.3696302606072,617.2952164001592 L733.724358877982,622.096239663676 M828.2126654971487,493.64532876061406 L828.1643798754521,493.7469778051012 M828.1643798754521,493.7469778051012 L828.1056873548316,493.8426577199216 M828.1056873548316,493.8426577199216 L828.0399816049901,493.9268472402666 M828.0399816049901,493.9268472402666 L827.9710859638758,493.9946454670222 M827.9710859638758,493.9946454670222 L827.9029973621771,494.04211749532413 M827.9029973621771,494.04211749532413 L827.8396794966227,494.06650133977706 M827.8396794966227,494.06650133977706 L827.7848160443702,494.0663591850045 M827.7848160443702,494.0663591850045 L827.7415895879712,494.04171081652294 M827.7415895879712,494.04171081652294 L827.7125069790407,493.99398830280467 M827.7125069790407,493.99398830280467 L827.699273327366,493.92597764570723 M827.699273327366,493.92597764570723 L827.7026465124404,493.84160651323623 M827.7026465124404,493.84160651323623 L827.7224403812927,493.74579556580034 M827.7224403812927,493.74579556580034 L827.757491637245,493.64410479909304 M920.7877507471999,367.459198529317 L919.9931056580633,372.3794884686371 M919.9931056580633,372.3794884686371 L918.986194163233,377.4213686159756 M918.986194163233,377.4213686159756 L917.7711862073877,382.5659309500386 M917.7711862073877,382.5659309500386 L916.3529813920557,387.7940346171629 M916.3529813920557,387.7940346171629 L914.7371818068889,393.0862459036576 M914.7371818068889,393.0862459036576 L912.9300305104275,398.4230315250613 M912.9300305104275,398.4230315250613 L910.9384415654463,403.7847418559253 M910.9384415654463,403.7847418559253 L908.7699750672648,409.15167345283936 M908.7699750672648,409.15167345283936 L906.4327071156272,414.5042456486923 M906.4327071156272,414.5042456486923 L903.9353780505064,419.82281912591543 M903.9353780505064,419.82281912591543 L901.28718575027,425.08800935870744 M901.28718575027,425.08800935870744 L898.4978738839441,430.2806306562015 M898.4978738839441,430.2806306562015 L895.5776908906209,435.381709808848 M895.5776908906209,435.381709808848 L892.5372702167158,440.3726385953674 M892.5372702167158,440.3726385953674 L889.3877190568724,445.23514150286445 M889.3877190568724,445.23514150286445 L886.1404838900437,449.9514411654189 M886.1404838900437,449.9514411654189 L882.8073865396316,454.50418302913494 M882.8073865396316,454.50418302913494 L879.4005547718762,458.876579850318 M879.4005547718762,458.876579850318 L875.9323941669052,463.05242603835256 M875.9323941669052,463.05242603835256 L872.4155422841823,467.0161883415418 M872.4155422841823,467.0161883415418 L868.8628551834463,470.75297268599934 M868.8628551834463,470.75297268599934 L865.2873489307183,474.24871049364805 M865.2873489307183,474.24871049364805 L861.7021469994713,477.4900742855066 M861.7021469994713,477.4900742855066 L858.1204859585982,480.4645819935035 M858.1204859585982,480.4645819935035 L854.5556173410428,483.1606724050722 M854.5556173410428,483.1606724050722 L851.0208130777714,485.56768945268647 M851.0208130777714,485.56768945268647 L847.5292927508156,487.6759850007459 M847.5292927508156,487.6759850007459 L844.0941870236443,489.4769151148735 M844.0941870236443,489.4769151148735 L840.7284960015988,490.96292429993366 M840.7284960015988,490.96292429993366 L837.4450469899148,492.12750679759085 M837.4450469899148,492.12750679759085 L834.2564263876236,492.96535327395156 M834.2564263876236,492.96535327395156 L831.174962499525,493.47227560605495 M831.174962499525,493.47227560605495 L828.2126654971487,493.64532876061406 M576.6431606060246,602.2769833344164 L920.7877507471999,367.459198529317 M569.7709553313111,680.3951865114213 L576.6431606060246,602.2769833344164 M557.7058938792297,688.8164862823021 L569.7709553313111,680.3951865114213 M551.1603595076575,764.9376734865659 L557.7058938792297,688.8164862823021 M733.724358877982,622.096239663676 L719.4215623580078,614.2496412883727 M719.4215623580078,614.2496412883727 L717.8692726782563,628.0061328301256 M536.7848128194552,756.4355154010141 L543.1197748102959,680.3951865114213 M555.1912930345345,672.0170229334826 L543.1197748102959,680.3951865114213 M555.1912930345345,672.0170229334826 L561.8469733693373,593.9874441226352 M906.2491568983194,360.34266414194076 L561.8469733693373,593.9874441226352 M906.2491568983194,360.34266414194076 L905.4677154021856,365.256655153894 M905.4677154021856,365.256655153894 L904.473730491977,370.2915776145885 M904.473730491977,370.2915776145885 L903.2713241593092,375.42854923580666 M903.2713241593092,375.42854923580666 L901.8653498103652,380.6484567394197 M901.8653498103652,380.6484567394197 L900.2613648288389,385.9318958386267 M900.2613648288389,385.9318958386267 L898.4655694841897,391.2593642355537 M898.4655694841897,391.2593642355537 L896.4848370068826,396.6112449869313 M896.4848370068826,396.6112449869313 L894.3266887338286,401.96786895064685 M894.3266887338286,401.96786895064685 L891.9991642291598,407.30969092540687 M891.9991642291598,407.30969092540687 L889.5109693932604,412.6171088241953 M889.5109693932604,412.6171088241953 L886.8712700992817,417.87077634329694 M886.8712700992817,417.87077634329694 L884.0897805239258,423.05154734183867 M884.0897805239258,423.05154734183867 L881.1767220214388,428.14048941283914 M881.1767220214388,428.14048941283914 L878.142703449472,433.11903598477096 M878.142703449472,433.11903598477096 L874.9988100569601,437.96895435852514 M874.9988100569601,437.96895435852514 L871.7564690995491,442.67251068672823 M871.7564690995491,442.67251068672823 L868.4274857428543,447.21239483975177 M868.4274857428543,447.21239483975177 L865.0239738727864,451.5718646352832 M865.0239738727864,451.5718646352832 L861.5583278929951,455.7347601263787 M861.5583278929951,455.7347601263787 L858.043177003339,459.68559411880204 M858.043177003339,459.68559411880204 L854.49137154182,463.40951902442043 M854.49137154182,463.40951902442043 L850.9159248671497,466.8925128908506 M850.9159248671497,466.8925128908506 L847.3299603001426,470.12129493966677 M847.3299603001426,470.12129493966677 L843.7467171285532,473.08342982271205 M843.7467171285532,473.08342982271205 L840.1794523842411,475.76740273737613 M840.1794523842411,475.76740273737613 L836.6414462178293,478.1626037424046 M836.6414462178293,478.1626037424046 L833.1459292292843,480.2594302529934 M833.1459292292843,480.2594302529934 L829.7060457537864,482.04928319720693 M829.7060457537864,482.04928319720693 L826.3348123424389,483.5246510519459 M826.3348123424389,483.5246510519459 L823.0450752553677,484.6790710277954 M823.0450752553677,484.6790710277954 L819.8494425993936,485.50727541953387 M819.8494425993936,485.50727541953387 L816.7602668443963,486.0051163686675 M816.7602668443963,486.0051163686675 L813.7895849824476,486.16968743712226 M813.333036851463,486.1671822646105 L813.2981991367826,486.2686931813826 M813.2981991367826,486.2686931813826 L813.2786462899107,486.36437195409593 M813.2786462899107,486.36437195409593 L813.2755276658233,486.4486663004884 M813.2755276658233,486.4486663004884 L813.2890145411893,486.5166600088802 M813.2890145411893,486.5166600088802 L813.3183344343404,486.56442640647543 M813.3183344343404,486.56442640647543 L813.3617683635578,486.5891769059933 M813.3617683635578,486.5891769059933 L813.4167974388176,486.5894735143927 M813.4167974388176,486.5894735143927 L813.4802294345827,486.56528749200766 M813.4802294345827,486.56528749200766 L813.5483740938489,486.518045127403 M813.5483740938489,486.518045127403 L813.6172644502349,486.4504950364697 M813.6172644502349,486.4504950364697 L813.6829038824983,486.3665577280197 M813.6829038824983,486.3665577280197 L813.7414729153863,486.2711194259886 M813.7414729153863,486.2711194259886 L813.7895849824476,486.16968743712226 M719.4215623580078,614.2496412883727 L720.0538829219267,609.4541125531823 M720.0538829219267,609.4541125531823 L720.9159638722012,604.5055029961568 M720.9159638722012,604.5055029961568 L722.0048246632798,599.4235192178869 M722.0048246632798,599.4235192178869 L723.3165164238135,594.2284823284631 M723.3165164238135,594.2284823284631 L724.8461249797665,588.9413096252954 M724.8461249797665,588.9413096252954 L726.5877928707694,583.583366658024 M726.5877928707694,583.583366658024 L728.5347384078739,578.1763831652781 M728.5347384078739,578.1763831652781 L730.6792802362331,572.7423856970136 M730.6792802362331,572.7423856970136 L733.0128723821033,567.3035489743918 M733.0128723821033,567.3035489743918 L735.5261418617192,561.8820979868644 M735.5261418617192,561.8820979868644 L738.2089253545639,556.5002322917107 M738.2089253545639,556.5002322917107 L741.050317503923,551.1800112804331 M741.050317503923,551.1800112804331 L744.0387183305368,545.9432621651831 M744.0387183305368,545.9432621651831 L747.1618979923596,540.8114136644388 M747.1618979923596,540.8114136644388 L750.4070414390881,535.805472187338 M750.4070414390881,535.805472187338 L753.760817970945,530.9458555117383 M753.760817970945,530.9458555117383 L757.2094417790474,526.2523830248526 M757.2094417790474,526.2523830248526 L760.7387358383919,521.7440962777498 M760.7387358383919,521.7440962777498 L764.3342077332686,517.4392007323827 M764.3342077332686,517.4392007323827 L767.9811072043278,513.3550438133897 M767.9811072043278,513.3550438133897 L771.6645082591685,509.507887574917 M771.6645082591685,509.507887574917 L775.3693705272663,505.9130586205656 M775.3693705272663,505.9130586205656 L779.0806224853166,502.58464013831787 M779.0806224853166,502.58464013831787 L782.7832067597992,499.53559525821 M782.7832067597992,499.53559525821 L786.4621686973044,496.77767188199704 M786.4621686973044,496.77767188199704 L790.1027332046704,494.32129663939014 M790.1027332046704,494.32129663939014 L793.69033258987,492.17563151529185 M793.69033258987,492.17563151529185 L797.2107122258942,490.34847257346746 M797.2107122258942,490.34847257346746 L800.6499632028074,488.8462428995451 M800.6499632028074,488.8462428995451 L803.994590908238,487.67400399342466 M803.994590908238,487.67400399342466 L807.2315567590301,486.8354443062868 M807.2315567590301,486.8354443062868 L810.3483583620527,486.33286282294 M810.3483583620527,486.33286282294 L813.333036851463,486.1671822646105 M543.1197748102959,680.3951865114213 L557.7058938792297,688.8164862823021 M827.757491637245,493.64410479909304 L813.333036851463,486.1671822646105 M828.2126654971487,493.64532876061406 L813.7895849824476,486.16968743712226 M920.7877507471999,367.459198529317 L906.2491568983194,360.34266414194076 M576.6431606060246,602.2769833344164 L561.8469733693373,593.9874441226352 M569.7709553313111,680.3951865114213 L555.1912930345345,672.0170229334826" stroke="black"  stroke-width="4"  fill="red"/>
<path d="M810.9480945038922,570.8003809981315 L812.5453657026014,558.2929884214223 M812.5453657026014,558.2929884214223 L812.7079388168615,558.3993870945988 M812.7079388168615,558.3993870945988 L812.8285472273874,558.5226547240802 M812.8285472273874,558.5226547240802 L812.900218052496,558.6556372850027 M812.900218052496,558.6556372850027 L812.9187350385507,558.7905795655386 M812.9187350385507,558.7905795655386 L812.8830512885825,558.9196813979747 M812.8830512885825,558.9196813979747 L812.7951919589241,559.0353942928964 M812.7951919589241,559.0353942928964 L812.6603053208739,559.1310090921309 M812.6603053208739,559.1310090921309 L812.4862114062953,559.20097777061 M812.4862114062953,559.20097777061 L812.282992450532,559.2412051152985 M812.282992450532,559.2412051152985 L812.0625396913847,559.2493705564139 M812.0625396913847,559.2493705564139 L811.8375975531169,559.2249833119072 M811.8375975531169,559.2249833119072 L811.6212974790903,559.169485427976 M811.6212974790903,559.169485427976 L811.4261985154797,559.0860818813555 M811.4261985154797,559.0860818813555 L811.2636332668035,558.9796368037166 M811.2636332668035,558.9796368037166 L811.1430686162605,558.8563333997004 M811.1430686162605,558.8563333997004 L811.0715130220149,558.7233580944212 M811.0715130220149,558.7233580944212 L811.053075570715,558.5884215736926 M811.053075570715,558.5884215736926 L811.0888305660922,558.4593468942346 M811.0888305660922,558.4593468942346 L811.176736501116,558.3436763172383 M811.176736501116,558.3436763172383 L811.3116344465273,558.248109308493 M811.3116344465273,558.248109308493 L811.4857017819907,558.178182952908 M811.4857017819907,558.178182952908 L811.6888623394154,558.1379827533124 M811.6888623394154,558.1379827533124 L811.9092382895747,558.1298230728362 M811.9092382895747,558.1298230728362 L812.134057177698,558.1541691682653 M812.134057177698,558.1541691682653 L812.3502965639886,558.209631281682 M812.3502965639886,558.209631281682 L812.5453657026014,558.2929884214223 M810.9480945038922,570.8003809981315 L810.7534853455807,570.7168720330517 M810.7534853455807,570.7168720330517 L810.5377371475704,570.6613088965971 M810.5377371475704,570.6613088965971 L810.3134120711063,570.636918453959 M810.3134120711063,570.636918453959 L810.0935039769013,570.64509299765 M810.0935039769013,570.64509299765 L809.8907582140839,570.6853664223429 M809.8907582140839,570.6853664223429 L809.7170283533142,570.7554201442917 M809.7170283533142,570.7554201442917 L809.5823710513316,570.8511612114273 M809.5823710513316,570.8511612114273 L809.4945949692933,570.9670424452565 M809.4945949692933,570.9670424452565 L809.4588513623796,571.096352171294 M809.4588513623796,571.096352171294 L809.4771811614794,571.2315343888135 M809.4771811614794,571.2315343888135 L809.5485163010778,571.3647517955651 M809.5485163010778,571.3647517955651 L809.6687603790936,571.4882796703769 M809.6687603790936,571.4882796703769 L809.8309235738045,571.5949185119825 M809.8309235738045,571.5949185119825 L810.0255624060558,571.6784738688507 M810.0255624060558,571.6784738688507 L810.2413710140318,571.734072764187 M810.2413710140318,571.734072764187 L810.4658188898738,571.7585043944612 M810.4658188898738,571.7585043944612 L810.6858034672637,571.7503240920043 M810.6858034672637,571.7503240920043 L810.8886073921976,571.7100235310463 M810.8886073921976,571.7100235310463 L811.0623637396934,571.6399274999665 M811.0623637396934,571.6399274999665 L811.1970098068234,571.5441386578832 M811.1970098068234,571.5441386578832 L811.2847395043038,571.4282151198906 M811.2847395043038,571.4282151198906 L811.3204121844126,571.2988782497055 M811.3204121844126,571.2988782497055 L811.3020031938406,571.1636902742516 M811.3020031938406,571.1636902742516 L811.2305532227217,571.0304655622763 M811.2305532227217,571.0304655622763 L811.1102655539437,570.9069734503653 M811.1102655539437,570.9069734503653 L810.9480945038922,570.8003809981315 M813.3843713228855,557.6984303625802 L813.7908330927714,557.9643582314409 M813.7908330927714,557.9643582314409 L814.0924261141272,558.2724390853302 M814.0924261141272,558.2724390853302 L814.2717151588809,558.6048485890312 M814.2717151588809,558.6048485890312 L814.3181667773774,558.9422362727066 M814.3181667773774,558.9422362727066 L814.2290539431935,559.2650115195702 M814.2290539431935,559.2650115195702 L814.0095244240651,559.5543791940797 M814.0095244240651,559.5543791940797 L813.6723034632698,559.7935240231825 M813.6723034632698,559.7935240231825 L813.2370045599107,559.9685069724399 M813.2370045599107,559.9685069724399 L812.7289017940518,560.069144444532 M812.7289017940518,560.069144444532 L812.1775901615094,560.0895658306245 M812.1775901615094,560.0895658306245 L811.6151162164583,560.0285749850298 M811.6151162164583,560.0285749850298 L811.0742878109234,559.8897661760952 M811.0742878109234,559.8897661760952 L810.5864531222285,559.6811641774243 M810.5864531222285,559.6811641774243 L810.1800861305433,559.4149704783581 M810.1800861305433,559.4149704783581 L809.8787209856662,559.1066418374933 M809.8787209856662,559.1066418374933 L809.6999126990675,558.7741506126802 M809.6999126990675,558.7741506126802 L809.6539582100286,558.4367989345978 M809.6539582100286,558.4367989345978 L809.74351627634,558.1141933804229 M809.74351627634,558.1141933804229 L809.9633371039874,557.825090196281 M809.9633371039874,557.825090196281 L810.3006287416442,557.5862440823096 M810.3006287416442,557.5862440823096 L810.7357614952168,557.4115256250911 M810.7357614952168,557.4115256250911 L811.243499327378,557.3110578412866 M811.243499327378,557.3110578412866 L811.7943308668587,557.2906724542156 M811.7943308668587,557.2906724542156 L812.3562739289241,557.3515331689534 M812.3562739289241,557.3515331689534 L812.8967686578228,557.490142601052 M812.8967686578228,557.490142601052 L813.3843713228855,557.6984303625802 M813.5723597159761,556.2278964428504 L813.9789397209479,556.4937670442782 M813.9789397209479,556.4937670442782 L814.2806271046177,556.8017815672495 M814.2806271046177,556.8017815672495 L814.4599811770706,557.1341195190096 M814.4599811770706,557.1341195190096 L814.5064646695357,557.4714345972463 M814.5064646695357,557.4714345972463 L814.4173486865984,557.7941404002881 M814.4173486865984,557.7941404002881 L814.1977811593558,558.0834458326458 M814.1977811593558,558.0834458326458 L813.8604895254769,558.3225392324914 M813.8604895254769,558.3225392324914 L813.4250913912476,558.4974845566092 M813.4250913912476,558.4974845566092 L812.9168666003702,558.5981003916738 M812.9168666003702,558.5981003916738 L812.3654172634776,558.6185173873719 M812.3654172634776,558.6185173873719 L811.8027979490118,558.5575396543989 M811.8027979490118,558.5575396543989 L811.2618250007285,558.4187606906421 M811.2618250007285,558.4187606906421 L810.7738549810424,558.2102035491248 M810.7738549810424,558.2102035491248 L810.367369774681,557.944067101665 M810.367369774681,557.944067101665 L810.0659103790131,557.6358047887422 M810.0659103790131,557.6358047887422 L809.8870372905635,557.3033851067842 M809.8870372905635,557.3033851067842 L809.8410511801628,556.9661060354579 M809.8410511801628,556.9661060354579 L809.9306126296585,556.643569931317 M809.9306126296585,556.643569931317 L810.1504716279546,556.3545289990095 M810.1504716279546,556.3545289990095 L810.4878339921133,556.1157343252305 M810.4878339921133,556.1157343252305 L810.9230659086186,555.9410535028342 M810.9230659086186,555.9410535028342 L811.4309255920575,555.8406073622687 M811.4309255920575,555.8406073622687 L811.9818945961586,555.82022636691 M811.9818945961586,555.82022636691 L812.5439827639052,555.8810739703572 M812.5439827639052,555.8810739703572 L813.0846218440636,556.0196535438843 M813.0846218440636,556.0196535438843 L813.5723597159761,556.2278964428504 M813.5723597159761,556.2278964428504 L813.3843713228855,557.6984303625802" stroke="black"  stroke-width="4"  fill="red"/>
<path d="M78.05024216182795,275.39741844450015 L-105.12846476664714,376.787472677826 M78.05024216182795,275.39741844450015 L66.79140574689666,269.19259544862484 M-116.37413741170599,370.13642220437697 L66.79140574689666,269.19259544862484 M-105.12846476664714,376.787472677826 L-116.37413741170599,370.13642220437697 M-105.12846476664714,376.787472677826 L-107.17977494941027,304.9445664037622 M-107.17977494941027,304.9445664037622 L-95.01580375501788,298.3772701359334 M-95.01580375501788,298.3772701359334 L-96.9652811042879,224.88897778802712 M-96.9652811042879,224.88897778802712 L253.23093599889046,40.69506459284037 M253.23093599889046,40.69506459284037 L252.9864310345182,45.29861287961853 M252.9864310345182,45.29861287961853 L252.52092473569041,49.99535823339659 M252.52092473569041,49.99535823339659 L251.8365579950463,54.76766483436853 M251.8365579950463,54.76766483436853 L250.9362649918869,59.59774239514263 M250.9362649918869,59.59774239514263 L249.8237356287981,64.46758734247328 M249.8237356287981,64.46758734247328 L248.50337250968823,69.35916197866658 M248.50337250968823,69.35916197866658 L246.98032248814252,74.25438359506848 M246.98032248814252,74.25438359506848 L245.2604570054915,79.13518322614402 M245.2604570054915,79.13518322614402 L243.3502498945785,83.98366161383456 M243.3502498945785,83.98366161383456 L241.25691881891214,88.78193461697333 M241.25691881891214,88.78193461697333 L238.98823501941592,93.51241131761174 M238.98823501941592,93.51241131761174 L236.55261383708728,98.1577525726102 M236.55261383708728,98.1577525726102 L233.95906992410517,102.70088145330863 M233.95906992410517,102.70088145330863 L231.2171025649875,107.1251173546043 M231.2171025649875,107.1251173546043 L228.3367893902397,111.41415709559953 M228.3367893902397,111.41415709559953 L225.32865672531887,115.55221956511741 M225.32865672531887,115.55221956511741 L222.20370872758133,119.52397949305987 M222.20370872758133,119.52397949305987 L218.97336739740047,123.31469918490268 M218.97336739740047,123.31469918490268 L215.64944163898065,126.91024038967794 M215.64944163898065,126.91024038967794 L212.2440864462933,130.29714692993753 M212.2440864462933,130.29714692993753 L208.76978206727858,133.4626124397176 M208.76978206727858,133.4626124397176 L205.23929142767224,136.39465254795158 M205.23929142767224,136.39465254795158 L201.66558909356309,139.08201870247257 M201.66558909356309,139.08201870247257 L198.06187962872252,141.51429883759386 M198.06187962872252,141.51429883759386 L194.44149662447683,143.6819782904326 M194.44149662447683,143.6819782904326 L190.81790536838673,145.57642520692178 M190.81790536838673,145.57642520692178 L187.20463386066422,147.18997999790557 M187.20463386066422,147.18997999790557 L183.61523048237052,148.51594687428963 M183.61523048237052,148.51594687428963 L180.0632274928106,149.54866864507676 M180.0632274928106,149.54866864507676 L176.56208817223376,150.28348370855917 M176.56208817223376,150.28348370855917 L173.1251492362312,150.7168570263225 M173.1251492362312,150.7168570263225 L169.76559149911304,150.84630468567252 M169.76559149911304,150.84630468567252 L166.49638841622885,150.67050168873786 M166.49638841622885,150.67050168873786 L166.45578252668935,150.76204586888372 M166.45578252668935,150.76204586888372 L166.40284933836472,150.84668947107215 M166.40284933836472,150.84668947107215 L166.34065102265163,150.91954872862522 M166.34065102265163,150.91954872862522 L166.27280668278814,150.9763820376788 M166.27280668278814,150.9763820376788 L166.20325216102424,151.013890670616 M166.20325216102424,151.013890670616 L166.13603677081585,151.02989263773253 M166.13603677081585,151.02989263773253 L166.07506850531792,151.02343873968658 M166.07506850531792,151.02343873968658 L166.02388553860425,150.99491453939027 M166.02388553860425,150.99491453939027 L165.98545640973532,150.94597691464153 M165.98545640973532,150.94597691464153 L165.9620325706594,150.87948376190494 M165.9620325706594,150.87948376190494 L165.95495956693497,150.79927443315754 M165.95495956693497,150.79927443315754 L165.9646615571748,150.71002806322429 M165.9646615571748,150.71002806322429 L165.99055920216426,150.61692192238803 M165.99055920216426,150.61692192238803 L162.7068902057394,150.4406611403209 M162.7068902057394,150.4406611403209 L159.3197828122718,150.5715256196591 M159.3197828122718,150.5715256196591 L155.84236374778789,151.00986882761515 M155.84236374778789,151.00986882761515 L152.28817561598066,151.75479639856462 M152.28817561598066,151.75479639856462 L148.67116714414323,152.80415475003772 M148.67116714414323,152.80415475003772 L145.00560677057655,154.15453969676133 M145.00560677057655,154.15453969676133 L141.30603836840675,155.80130446441245 M141.30603836840675,155.80130446441245 L137.58720467107247,157.73854266151852 M137.58720467107247,157.73854266151852 L133.86401293781427,159.95909267723945 M133.86401293781427,159.95909267723945 L130.1514318189577,162.45462359788135 M130.1514318189577,162.45462359788135 L126.46445483470518,165.21557877591914 M126.46445483470518,165.21557877591914 L122.81803004803606,168.23126895109792 M122.81803004803606,168.23126895109792 L119.22697557219158,171.48995334342752 M119.22697557219158,171.48995334342752 L115.70591596680288,174.97871660441973 M115.70591596680288,174.97871660441973 L112.26923018695896,178.68375309032734 M112.26923018695896,178.68375309032734 L108.93096713085441,182.59021599806465 M108.93096713085441,182.59021599806465 L105.70478492864117,186.68242413821844 M105.70478492864117,186.68242413821844 L102.60389195767016,190.94387504950123 M102.60389195767016,190.94387504950123 L99.64097214861783,195.35729044015127 M99.64097214861783,195.35729044015127 L96.82813831367758,199.90477852104786 M96.82813831367758,199.90477852104786 L94.17686816046387,204.5678344198741 M94.17686816046387,204.5678344198741 L91.69794950983362,209.32748897369692 M91.69794950983362,209.32748897369692 L89.40143528069018,214.1643240695522 M89.40143528069018,214.1643240695522 L87.29659364881428,219.05862177417575 M87.29659364881428,219.05862177417575 L85.39186798574161,223.99044441279725 M85.39186798574161,223.99044441279725 L83.69483839145676,228.93973627118862 M83.69483839145676,228.93973627118862 L82.2121910203669,233.88638936276692 M82.2121910203669,233.88638936276692 L80.94968886507081,238.8103303985655 M80.94968886507081,238.8103303985655 L79.91215134656102,243.6916567260917 M79.91215134656102,243.6916567260917 L79.10343524655934,248.5106959378691 M79.10343524655934,248.5106959378691 L78.52642352514766,253.24808227005036 M78.52642352514766,253.24808227005036 L78.1830184887877,257.88489403460835 M78.1830184887877,257.88489403460835 L78.07413978902889,262.4026694806631 M78.07413978902889,262.4026694806631 L78.05024216182795,275.39741844450015 M78.07413978902889,262.4026694806631 L66.79140699586867,256.2128958458248 M66.79140699586867,256.2128958458248 L66.79140574689666,269.19259544862484 M66.79140699586867,256.2128958458248 L66.8920801689269,251.70055606039517 M66.8920801689269,251.70055606039517 L67.22729855415548,247.06974149004873 M67.22729855415548,247.06974149004873 L67.79617465071459,242.33888980310456 M67.79617465071459,242.33888980310456 L68.59683831969483,237.52689608033737 M68.59683831969483,237.52689608033737 L69.6264387742936,232.65309699899015 M69.6264387742936,232.65309699899015 L70.88115117812396,227.73713360096292 M70.88115117812396,227.73713360096292 L72.35618770677576,222.79887503521266 M72.35618770677576,222.79887503521266 L74.04581652954693,217.85835908750266 M74.04581652954693,217.85835908750266 L75.94338198982246,212.93565647518977 M75.94338198982246,212.93565647518977 L78.04133368673786,208.05078407101908 M78.04133368673786,208.05078407101908 L80.33125705105402,203.2236393086382 M80.33125705105402,203.2236393086382 L82.80391165192088,198.47389870993354 M82.80391165192088,198.47389870993354 L85.44927113511511,193.82093801282375 M85.44927113511511,193.82093801282375 L88.25657282012725,189.28368334655133 M88.25657282012725,189.28368334655133 L91.2143627101953,184.8805960270441 M91.2143627101953,184.8805960270441 L94.31055002992326,180.62952407386166 M94.31055002992326,180.62952407386166 L97.5324712482481,176.5477019411415 M97.5324712482481,176.5477019411415 L100.8669364680577,172.65158849008066 M100.8669364680577,172.65158849008066 L104.30030408146615,168.95682175707873 M104.30030408146615,168.95682175707873 L107.8185397593216,165.47820597855815 M107.8185397593216,165.47820597855815 L111.40727680953398,162.2295051873134 M111.40727680953398,162.2295051873134 L115.05190096508136,159.22359405220604 M115.05190096508136,159.22359405220604 L118.73760193062975,156.47217404168214 M118.73760193062975,156.47217404168214 L122.44943725150404,153.98589643507933 M122.44943725150404,153.98589643507933 L126.17241671656149,151.7742814665413 M126.17241671656149,151.7742814665413 L129.89157256085974,149.84562542565365 M129.89157256085974,149.84562542565365 L133.59199610794707,148.20705706889325 M133.59199610794707,148.20705706889325 L137.258940834444,146.86445196126115 M137.258940834444,146.86445196126115 L140.87785671701437,145.82242811849395 M140.87785671701437,145.82242811849395 L144.43446690805888,145.08436311665898 M144.43446690805888,145.08436311665898 L147.9148120360398,144.65238613194634 M147.9148120360398,144.65238613194634 L151.3053366904856,144.5273694486337 M151.3053366904856,144.5273694486337 L154.59289920738053,144.70893980999864 M154.59289920738053,144.70893980999864 L154.56714769480402,144.80189212510675 M154.56714769480402,144.80189212510675 L154.5576022208529,144.89101646614182 M154.5576022208529,144.89101646614182 L154.5648330640634,144.97114267117072 M154.5648330640634,144.97114267117072 L154.58840684718842,145.0375964354691 M154.58840684718842,145.0375964354691 L154.62696937641846,145.0865406921262 M154.62696937641846,145.0865406921262 L154.67826140339167,145.1151171431908 M154.67826140339167,145.1151171431908 L154.73930806028272,145.12166588073015 M154.73930806028272,145.12166588073015 L154.80656660349007,145.10579584840747 M154.80656660349007,145.10579584840747 L154.876126565549,145.0684485503462 M154.876126565549,145.0684485503462 L154.94393831171465,145.01179658468473 M154.94393831171465,145.01179658468473 L155.00606789177277,144.93912815712622 M155.00606789177277,144.93912815712622 L155.058900204039,144.8546737667513 M155.058900204039,144.8546737667513 L155.09937888709948,144.76330625199682 M241.72363669617403,35.06232651343407 L241.487608972555,39.659921497119285 M241.487608972555,39.659921497119285 L241.03050061323745,44.3502572797488 M241.03050061323745,44.3502572797488 L240.3544206664236,49.115721613262565 M240.3544206664236,49.115721613262565 L239.4622722567044,53.93854902073895 M239.4622722567044,53.93854902073895 L238.35771487645343,58.80076201305894 M238.35771487645343,58.80076201305894 L237.04512166188738,63.68434999331373 M237.04512166188738,63.68434999331373 L235.52961096128354,68.5712584650808 M235.52961096128354,68.5712584650808 L233.81702676289638,73.44344771668642 M233.81702676289638,73.44344771668642 L231.9138166511924,78.28304843410814 M231.9138166511924,78.28304843410814 L229.82717311100555,83.07220755983457 M229.82717311100555,83.07220755983457 L227.56484357393413,87.79336579290822 M227.56484357393413,87.79336579290822 L225.13522095597523,92.42921637368391 M225.13522095597523,92.42921637368391 L222.54729882277445,96.96271547265894 M222.54729882277445,96.96271547265894 L219.81055681657472,101.37721598623153 M219.81055681657472,101.37721598623153 L216.93505442371975,105.65644884701749 M216.93505442371975,105.65644884701749 L213.9313014276405,109.78466731624462 M213.9313014276405,109.78466731624462 L210.8102869316267,113.74658090996104 M210.8102869316267,113.74658090996104 L207.58341952668718,117.52748690587453 M207.58341952668718,117.52748690587453 L204.2624963144076,121.11328216955468 M204.2624963144076,121.11328216955468 L200.85966217672137,124.49054563996208 M200.85966217672137,124.49054563996208 L197.38738882915573,127.64650608727948 M197.38738882915573,127.64650608727948 L193.8584324948655,130.5692140368496 M193.8584324948655,130.5692140368496 L190.28576259777174,133.24745558443692 M190.28576259777174,133.24745558443692 L186.68258030508252,135.6708529816117 M186.68258030508252,135.6708529816117 L183.0622175332029,137.82992531256525 M183.0622175332029,137.82992531256525 L179.43813956858025,139.7160739180723 M179.43813956858025,139.7160739180723 L175.82387615324734,141.3216716233302 M175.82387615324734,141.3216716233302 L172.23297906995532,142.64005419989178 M172.23297906995532,142.64005419989178 L168.6789857218414,143.66559499841242 M168.6789857218414,143.66559499841242 L165.17536612051595,144.39366188153016 M165.17536612051595,144.39366188153016 L161.73546547037847,144.82074792315802 M161.73546547037847,144.82074792315802 L158.37247464868693,144.9443959830752 M158.37247464868693,144.9443959830752 L155.09937888709948,144.76330625199682 M241.72363669617403,35.06232651343407 L-108.47425463684624,218.44109456923835 M-106.39248684948006,291.8396899094802 L-108.47425463684624,218.44109456923835 M-106.39248684948006,291.8396899094802 L-118.55467257150349,298.37726619964235 M-116.37413741170599,370.13642220437697 L-118.55467257150349,298.37726619964235 M-118.55467257150349,298.37726619964235 L-107.17977494941027,304.9445664037622 M165.99055920216426,150.61692192238803 L154.59289920738053,144.70893980999864 M166.49638841622885,150.67050168873786 L155.09937888709948,144.76330625199682 M253.23093599889046,40.69506459284037 L241.72363669617403,35.06232651343407 M-96.9652811042879,224.88897778802712 L-108.47425463684624,218.44109456923835 M-95.01580375501788,298.3772701359334 L-106.39248684948006,291.8396899094802" stroke="black"  stroke-width="4"  fill="red"/>
<path d="M159.9602724508415,223.94000392357893 L160.13827153953355,212.14471951762408 M160.13827153953355,212.14471951762408 L160.26335329794347,212.22901233111543 M160.26335329794347,212.22901233111543 L160.34797618843646,212.32667108791296 M160.34797618843646,212.32667108791296 L160.3872308633883,212.43201585021205 M160.3872308633883,212.43201585021205 L160.37883476675745,212.53892354685016 M160.37883476675745,212.53892354685016 L160.32325050763302,212.64119107786755 M160.32325050763302,212.64119107786755 L160.2237216633343,212.73286438034089 M160.2237216633343,212.73286438034089 L160.08603409720382,212.80861073530104 M160.08603409720382,212.80861073530104 L159.91817111635697,212.86403533432537 M159.91817111635697,212.86403533432537 L159.72989515541713,212.89591225161686 M159.72989515541713,212.89591225161686 L159.53216882430968,212.90237757080754 M159.53216882430968,212.90237757080754 L159.33646977679513,212.8830662156911 M159.33646977679513,212.8830662156911 L159.15417968749398,212.83909946278922 M159.15417968749398,212.83909946278922 L158.99590806182084,212.77302800612776 M158.99590806182084,212.77302800612776 L158.87084071433355,212.6887027711279 M158.87084071433355,212.6887027711279 L158.78625836278144,212.59101878799223 M158.78625836278144,212.59101878799223 L158.74706162739028,212.485662075308 M158.74706162739028,212.485662075308 L158.755519790756,212.3787584407905 M158.755519790756,212.3787584407905 L158.81115602976803,212.27651005473962 M158.81115602976803,212.27651005473962 L158.91071485493796,212.18486659342238 M158.91071485493796,212.18486659342238 L159.04840353633415,212.10915393733322 M159.04840353633415,212.10915393733322 L159.2162385114883,212.05375917916265 M159.2162385114883,212.05375917916265 L159.40446375979428,212.02190140828506 M159.40446375979428,212.02190140828506 L159.6021282929671,212.0154401490909 M159.6021282929671,212.0154401490909 L159.79776860993456,212.03473955416604 M159.79776860993456,212.03473955416604 L159.98001649064275,212.07868108315267 M159.98001649064275,212.07868108315267 L160.13827153953355,212.14471951762408 M159.9602724508415,223.94000392357893 L159.8023233482554,223.87381404695057 M159.8023233482554,223.87381404695057 L159.62042575268163,223.82977174607868 M159.62042575268163,223.82977174607868 L159.42515969298205,223.81042808050464 M159.42515969298205,223.81042808050464 L159.22787165169467,223.81690415775395 M159.22787165169467,223.81690415775395 L159.0400033047335,223.84883498944077 M159.0400033047335,223.84883498944077 L158.87248488440986,223.90435678351997 M158.87248488440986,223.90435678351997 L158.7350540149218,223.98024306345837 M158.7350540149218,223.98024306345837 L158.63567930974398,224.07209667060283 M158.63567930974398,224.07209667060283 L158.58014278070647,224.1745795069085 M158.58014278070647,224.1745795069085 L158.57169407235222,224.28172825067915 M158.57169407235222,224.28172825067915 L158.6108094756339,224.38732651057734 M158.6108094756339,224.38732651057734 L158.69522440886038,224.48523443643677 M158.69522440886038,224.48523443643677 L158.82004794690562,224.5697529784654 M158.82004794690562,224.5697529784654 L158.97801356210687,224.63597589044892 M158.97801356210687,224.63597589044892 L159.15995320385275,224.68004342485483 M159.15995320385275,224.68004342485483 L159.35527776955655,224.69939904502732 M159.35527776955655,224.69939904502732 L159.55262737355417,224.69291890623333 M159.55262737355417,224.69291890623333 L159.74054624111363,224.66096892083127 M159.74054624111363,224.66096892083127 L159.90809256229107,224.6054172745187 M159.90809256229107,224.6054172745187 L160.04552232288182,224.52949728285867 M160.04552232288182,224.52949728285867 L160.14486716330612,224.43761382317857 M160.14486716330612,224.43761382317857 L160.20035191172798,224.33511183460567 M160.20035191172798,224.33511183460567 L160.2087387901068,224.22795902716535 M160.2087387901068,224.22795902716535 L160.1695656672905,224.12237272220943 M160.1695656672905,224.12237272220943 L160.0851103480099,224.02449003230814 M160.0851103480099,224.02449003230814 L159.9602724508415,223.94000392357893 M160.99470819337853,211.67367292871012 L161.3074295256074,211.88434828366843 M161.3074295256074,211.88434828366843 L161.5190755077549,212.1284405550546 M161.5190755077549,212.1284405550546 L161.61732544861786,212.39177781029105 M161.61732544861786,212.39177781029105 L161.59643767450228,212.6590614103344 M161.59643767450228,212.6590614103344 L161.45758380028497,212.9147616488534 M161.45758380028497,212.9147616488534 L161.20882694187952,213.14399623495405 M161.20882694187952,213.14399623495405 L160.86458399499622,213.33343973368846 M160.86458399499622,213.33343973368846 L160.44488245547495,213.47205227621956 M160.44488245547495,213.47205227621956 L159.97410557551984,213.55177540025713 M159.97410557551984,213.55177540025713 L159.4796615821612,213.56795396284267 M159.4796615821612,213.56795396284267 L158.99030786261972,213.51965060180498 M158.99030786261972,213.51965060180498 L158.5345168303727,213.40967934345565 M158.5345168303727,213.40967934345565 L158.13879931080112,213.2444442535333 M158.13879931080112,213.2444442535333 L157.82616509253018,213.03356468723027 M157.82616509253018,213.03356468723027 L157.61477190037488,212.7893144567078 M157.61477190037488,212.7893144567078 L157.51688464329243,212.52590281052153 M157.51688464329243,212.52590281052153 L157.5381600618848,212.25864444907924 M157.5381600618848,212.25864444907924 L157.67733880626417,212.00306386444595 M157.67733880626417,212.00306386444595 L157.92628304523885,211.77401578026164 M157.92628304523885,211.77401578026164 L158.27053296308986,211.58478291553695 M158.27053296308986,211.58478291553695 L158.69005946657308,211.4463568726849 M158.69005946657308,211.4463568726849 L159.16051939635975,211.3667534060952 M159.16051939635975,211.3667534060952 L159.65457742559352,211.35060038019995 M159.65457742559352,211.35060038019995 L160.14356351749916,211.39882874989738 M160.14356351749916,211.39882874989738 L160.59909132426492,211.5086426482043 M160.59909132426492,211.5086426482043 L160.99470819337853,211.67367292871012 M161.01582085226136,210.28723549103006 L161.32861386326516,210.49785381960697 M161.32861386326516,210.49785381960697 L161.54030913185426,210.74188002807233 M161.54030913185426,210.74188002807233 L161.63858309311667,211.00514602246736 M161.63858309311667,211.00514602246736 L161.61769266336967,211.27235730510037 M161.61769266336967,211.27235730510037 L161.47880959493284,211.52798837094477 M161.47880959493284,211.52798837094477 L161.22999869250975,211.75716095281325 M161.22999869250975,211.75716095281325 L160.88567998007096,211.94655321649944 M160.88567998007096,211.94655321649944 L160.46588536109516,212.0851282748642 M160.46588536109516,212.0851282748642 L159.9950034987039,212.16482984124255 M159.9950034987039,212.16482984124255 L159.5004487378925,212.18100402916195 M159.5004487378925,212.18100402916195 L159.01098491567353,212.13271372942583 M159.01098491567353,212.13271372942583 L158.55509085877577,212.0227722088616 M158.55509085877577,212.0227722088616 L158.1592833900657,211.85758180448244 M158.1592833900657,211.85758180448244 L157.84657753044002,211.64675927398054 M157.84657753044002,211.64675927398054 L157.63513516415054,211.4025751137843 M157.63513516415054,211.4025751137843 L157.53722404862071,211.13923473182808 M157.53722404862071,211.13923473182808 L157.55850229691845,210.87204868665725 M157.55850229691845,210.87204868665725 L157.69771038208023,210.6165372691399 M157.69771038208023,210.6165372691399 L157.94670875048,210.38755118052364 M157.94670875048,210.38755118052364 L158.29103443857582,210.198369541062 M158.29103443857582,210.198369541062 L158.71065394441007,210.05998097371224 M158.71065394441007,210.05998097371224 L159.18121871539768,209.9803990592228 M159.18121871539768,209.9803990592228 L159.67538733914063,209.96425040677377 M159.67538733914063,209.96425040677377 L160.16448336844616,210.01246571872068 M160.16448336844616,210.01246571872068 L160.6201140805353,210.12224988648566 M160.6201140805353,210.12224988648566 L161.01582085226136,210.28723549103006 M161.01582085226136,210.28723549103006 L160.99470819337853,211.67367292871012" stroke="black"  stroke-width="4"  fill="red"/>
<path d="M-106.39248684948006,291.8396899094802 L-118.55467257150349,298.37726619964235 M-118.55467257150349,298.37726619964235 L-120.78775074719977,224.888973905637 M-108.47425463684624,218.44109456923835 L-120.78775074719977,224.888973905637 M-106.39248684948006,291.8396899094802 L-108.47425463684624,218.44109456923835 M-105.12846476664714,376.787472677826 L-54.47395904926441,406.7461674458048 M-54.47395904926441,406.7461674458048 L-54.74972074539721,393.12199450804684 M-54.74972074539721,393.12199450804684 L4.120788028621973,427.7835348261342 M4.2646270917935,441.4860459300738 L4.120788028621973,427.7835348261342 M4.2646270917935,441.4860459300738 L266.46619713305745,596.560440464249 M266.46619713305745,596.560440464249 L266.9490902414731,582.530520772103 M266.9490902414731,582.530520772103 L333.5795080015307,621.760908952823 M332.9279278224809,635.8680336443117 L333.5795080015307,621.760908952823 M332.9279278224809,635.8680336443117 L536.7848128194552,756.4355154010141 M536.7848128194552,756.4355154010141 L543.1197748102959,680.3951865114213 M543.1197748102959,680.3951865114213 L557.7058938792297,688.8164862823021 M557.7058938792297,688.8164862823021 L564.4307579596126,610.6097870998394 M-120.78775074719977,224.888973905637 L564.4307579596126,610.6097870998394 M-118.55467257150349,298.37726619964235 L-107.17977494941027,304.9445664037622 M-105.12846476664714,376.787472677826 L-107.17977494941027,304.9445664037622 M569.7709553313111,680.3951865114213 L555.1912930345345,672.0170229334826 M548.7122004434962,747.9763299500166 L555.1912930345345,672.0170229334826 M548.7122004434962,747.9763299500166 L344.92341470064696,628.0065445015246 M344.92341470064696,628.0065445015246 L345.60270019605593,613.9146735486561 M345.60270019605593,613.9146735486561 L278.9865675226804,574.8745122775063 M278.47586541903604,588.8890915865638 L278.9865675226804,574.8745122775063 M278.47586541903604,588.8890915865638 L16.291762827487617,434.54217587549056 M16.291762827487617,434.54217587549056 L16.175858355315256,420.8551770515232 M16.175858355315256,420.8551770515232 L-42.699187568375805,386.3516537236689 M-42.451329526923644,399.96031132072346 L-42.699187568375805,386.3516537236689 M-42.451329526923644,399.96031132072346 L-93.11219646108663,370.13642619097266 M-93.11219646108663,370.13642619097266 L-95.01580375501788,298.3772701359334 M-95.01580375501788,298.3772701359334 L-106.39248684948006,291.8396899094802 M576.6431606060246,602.2769833344164 L-108.47425463684624,218.44109456923835 M569.7709553313111,680.3951865114213 L576.6431606060246,602.2769833344164 M-105.12846476664714,376.787472677826 L-93.11219646108663,370.13642619097266 M-107.17977494941027,304.9445664037622 L-95.01580375501788,298.3772701359334 M-42.451329526923644,399.96031132072346 L-54.47395904926441,406.7461674458048 M-42.699187568375805,386.3516537236689 L-54.74972074539721,393.12199450804684 M4.2646270917935,441.4860459300738 L16.291762827487617,434.54217587549056 M4.120788028621973,427.7835348261342 L16.175858355315256,420.8551770515232 M278.47586541903604,588.8890915865638 L266.46619713305745,596.560440464249 M278.9865675226804,574.8745122775063 L266.9490902414731,582.530520772103 M332.9279278224809,635.8680336443117 L344.92341470064696,628.0065445015246 M333.5795080015307,621.760908952823 L345.60270019605593,613.9146735486561 M548.7122004434962,747.9763299500166 L536.7848128194552,756.4355154010141 M555.1912930345345,672.0170229334826 L543.1197748102959,680.3951865114213 M557.7058938792297,688.8164862823021 L569.7709553313111,680.3951865114213 M564.4307579596126,610.6097870998394 L576.6431606060246,602.2769833344164" stroke="black"  stroke-width="4"  fill="red"/></svg>