<svg viewBox="0 0 800 800" xmlns="http://www.w3.org/2000/svg"><path d="M639.3585866703361,258.580674022347 L639.3594220899249,258.5245997148104 M160.6133202612691,541.4575481642441 L160.6141504230327,541.4014707508486 M639.3585866703361,258.580674022347 L691.6831898673554,296.536137044528 M691.6831898673554,296.536137044528 L727.0564938280004,340.50512899535715 M727.0564938280004,340.50512899535715 L743.4291292463604,387.93517239297034 M743.4291292463604,387.93517239297034 L739.8359103223193,436.06734250948284 M739.8359103223193,436.06734250948284 L716.4959005925921,482.1056136446132 M716.4959005925921,482.1056136446132 L674.7598234788748,523.3755095424367 M674.7598234788748,523.3755095424367 L617.0535107855831,557.4763673427551 M617.0535107855831,557.4763673427551 L546.7299653779337,582.4261117318583 M546.7299653779337,582.4261117318583 L467.87943519135297,596.7736786322712 M467.87943519135297,596.7736786322712 L385.082887093944,599.6876770390791 M385.082887093944,599.6876770390791 L303.1507942976168,590.9921098039558 M303.1507942976168,590.9921098039558 L226.85065151017625,571.1998530460751 M226.85065151017625,571.1998530460751 L160.6133202612691,541.4575481642441 M639.3594220899249,258.5245997148104 L691.6840258842858,296.4800623202191 M691.6840258842858,296.4800623202191 L727.0573302548,340.4490537882557 M727.0573302548,340.4490537882557 L743.4299658718228,387.8790966650922 M743.4299658718228,387.8790966650922 L739.8367469235382,436.0112662531392 M739.8367469235382,436.0112662531392 L716.4967369481601,482.049536882816 M716.4967369481601,482.049536882816 L674.7606593815726,523.3194323275566 M674.7606593815726,523.3194323275566 L617.0543460545159,557.4202897535051 M617.0543460545159,557.4202897535051 L546.7307998690521,582.3700338687086 M546.7307998690521,582.3700338687086 L467.8802688058204,596.7176006116133 M467.8802688058204,596.7176006116133 L385.08371978389914,599.6315989864324 M385.08371978389914,599.6315989864324 L303.151626068895,590.9360318467716 M303.151626068895,590.9360318467716 L226.85148242210562,571.1437753061673 M226.85148242210562,571.1437753061673 L160.6141504230327,541.4014707508486 M160.6133202612691,541.4575481642441 L108.29161880335596,503.494738473255 M108.29161880335596,503.494738473255 L72.92678743689612,459.5200830765825 M72.92678743689612,459.5200830765825 L56.57003412817721,412.0895148023337 M56.57003412817721,412.0895148023337 L60.17243362226873,363.95609855117254 M60.17243362226873,363.95609855117254 L83.52329169286531,317.92212551764715 M83.52329169286531,317.92212551764715 L125.26562065351754,276.6589293642919 M125.26562065351754,276.6589293642919 L182.97215610201238,242.56563796299633 M182.97215610201238,242.56563796299633 L253.289844144354,217.62259331562927 M253.289844144354,217.62259331562927 L332.12977906278684,203.2793245194389 M332.12977906278684,203.2793245194389 L414.9172002999694,200.36839662922648 M414.9172002999694,200.36839662922648 L496.83325299661374,209.05912224325039 M496.83325299661374,209.05912224325039 L573.1245897305926,228.84571572360073 M573.1245897305926,228.84571572360073 L639.3585866703361,258.580674022347 M160.6141504230327,541.4014707508486 L108.29244836786529,503.4386614766372 M108.29244836786529,503.4386614766372 L72.92761659171083,459.46400656275 M72.92761659171083,459.46400656275 L56.570863084634766,412.03343880925604 M56.570863084634766,412.03343880925604 L60.173262603217154,363.9000230865786 M60.173262603217154,363.9000230865786 L83.52412091974111,317.86605055851214 M83.52412091974111,317.86605055851214 L125.26645033337991,276.6028548582435 M125.26645033337991,276.6028548582435 L182.9729864156543,242.50956383132143 M182.9729864156543,242.50956383132143 L253.29067523567937,217.56651945785234 M253.29067523567937,217.56651945785234 L332.1306110305304,203.22325081916824 M332.1306110305304,203.22325081916824 L414.91803319196333,200.31232296091912 M414.91803319196333,200.31232296091912 L496.8340868069936,209.00304847950974 M496.8340868069936,209.00304847950974 L573.125424400132,228.78964174258363 M573.125424400132,228.78964174258363 L639.3594220899249,258.5245997148104" stroke="black"  stroke-width="4"  fill="red"/></svg>