<svg viewBox="0 0 800 800" xmlns="http://www.w3.org/2000/svg"><path d="M-338.8369084062248,50.29854144128217 L-357.36621366879353,58.764977147908326 M-357.3662132405983,54.315041452032915 L-357.36621366879353,58.764977147908326 M-357.3662132405983,54.315041452032915 L-357.36631768145503,54.276094508697156 M-357.36631768145503,54.276094508697156 L-357.36638034788507,54.2371123736018 M-357.36638034788507,54.2371123736018 L-357.3664012372652,54.19812437992607 M-338.7940231242442,45.76749271676215 L-357.3664012372652,54.19812437992607 M-338.8369084062248,50.29854144128217 L-338.7940231242442,45.76749271676215 M1116.063162496936,732.0061938862099 L1102.3453180096803,725.7382190086762 M1099.2158953416294,787.6929235673786 L1102.3453180096803,725.7382190086762 M1099.2158953416294,787.6929235673786 L417.1855239192298,461.5775427211913 M414.39597007500083,465.6512859861343 L417.1855239192298,461.5775427211913 M250.0645300562694,386.68930310925543 L414.39597007500083,465.6512859861343 M253.21800733955456,383.17585951716376 L250.0645300562694,386.68930310925543 M253.21800733955456,383.17585951716376 L-225.36406988660974,154.34004381107746 M-229.0852970223699,156.45569451353964 L-225.36406988660974,154.34004381107746 M-316.07922045950204,114.65472999906609 L-229.0852970223699,156.45569451353964 M-312.3338141147773,112.75513432689428 L-316.07922045950204,114.65472999906609 M-312.3338141147773,112.75513432689428 L-388.49769680372617,76.33708807767835 M-353.7846625593677,60.40146401706181 L-388.49769680372617,76.33708807767835 M-353.7846625593677,60.40146401706181 L-357.36621366879353,58.764977147908326 M1117.3632340802458,699.7305367068574 L-338.8369084062248,50.29854144128217 M1116.063162496936,732.0061938862099 L1117.3632340802458,699.7305367068574 M-346.0712990017778,55.22848479434094 L-346.1216708112064,55.21064726382326 M-346.1216708112064,55.21064726382326 L-346.1798792389611,55.19877747041522 M-346.1798792389611,55.19877747041522 L-346.24254138833714,55.19356415120944 M-346.24254138833714,55.19356415120944 L-346.3060183067048,55.19531038316785 M-346.3060183067048,55.19531038316785 L-346.36662194174824,55.20391457681535 M-346.36662194174824,55.20391457681535 L-346.4208326844214,55.218877404359205 M-346.4208326844214,55.218877404359205 L-346.4655001206504,55.239329734274634 M-346.4655001206504,55.239329734274634 L-346.49802883847315,55.26408403273484 M-346.49802883847315,55.26408403273484 L-346.5165268613566,55.291702083191126 M-346.5165268613566,55.291702083191126 L-346.51991812049573,55.32057973008051 M-346.51991812049573,55.32057973008051 L-346.5080032262583,55.34903842239419 M-346.5080032262583,55.34903842239419 L-346.4814737591296,55.375424399778126 M-346.4814737591296,55.375424399778126 L-346.44186929016746,55.39820298464991 M-346.44186929016746,55.39820298464991 L-346.391491927297,55.416050225889364 M-346.391491927297,55.416050225889364 L-346.33326891554384,55.42792744288994 M-346.33326891554384,55.42792744288994 L-346.270586313831,55.43314427912617 M-346.270586313831,55.43314427912617 L-346.2070877597805,55.43139685167847 M-346.2070877597805,55.43139685167847 L-346.1464662624694,55.422787024028594 M-346.1464662624694,55.422787024028594 L-346.0922455227699,55.40781541451463 M-346.0922455227699,55.40781541451463 L-346.04757824507465,55.38735316667476 M-346.04757824507465,55.38735316667476 L-346.0150598050295,55.36259008630344 M-346.0150598050295,55.36259008630344 L-345.99657982452686,55.33496640186695 M-345.99657982452686,55.33496640186695 L-345.9932102392884,55.30608755951613 M-345.9932102392884,55.30608755951613 L-346.0051454734273,55.27763238414059 M-346.0051454734273,55.27763238414059 L-346.03168928722687,55.25125383047549 M-346.03168928722687,55.25125383047549 L-346.0712990017778,55.22848479434094 M1109.9411342415333,712.2883670390352 L1109.7703020881995,712.2207958085628 M1109.7703020881995,712.2207958085628 L1109.6087335680104,712.175894139685 M1109.6087335680104,712.175894139685 L1109.4655236876793,712.1561362438225 M1109.4655236876793,712.1561362438225 L1109.3492903885506,712.1628070562526 M1109.3492903885506,712.1628070562526 L1109.266433843312,712.1953611245591 M1109.266433843312,712.1953611245591 L1109.2218237263091,712.2519367486692 M1109.2218237263091,712.2519367486692 L1109.2182683730512,712.3293464188656 M1109.2182683730512,712.3293464188656 L1109.2559811566687,712.4230985112089 M1109.2559811566687,712.4230985112089 L1109.3325666688545,712.5276526702347 M1109.3325666688545,712.5276526702347 L1109.4435272177216,712.636911905625 M1109.4435272177216,712.636911905625 L1109.5827709206746,712.744683591679 M1109.5827709206746,712.744683591679 L1109.7419052907826,712.8445664647629 M1109.7419052907826,712.8445664647629 L1109.9119669563167,712.9308778246142 M1109.9119669563167,712.9308778246142 L1110.0827221073866,712.9984415798292 M1110.0827221073866,712.9984415798292 L1110.244404687896,713.0433979060548 M1110.244404687896,713.0433979060548 L1110.3877199516492,713.0631817455164 M1110.3877199516492,713.0631817455164 L1110.5041993850393,713.0565805277876 M1110.5041993850393,713.0565805277876 L1110.586905037503,713.0239064910392 M1110.586905037503,713.0239064910392 L1110.6314834688553,712.9672662411369 M1110.6314834688553,712.9672662411369 L1110.6349595498643,712.8897835095696 M1110.6349595498643,712.8897835095696 L1110.5971381052798,712.7959666923722 M1110.5971381052798,712.7959666923722 L1110.5206134069927,712.6914494804759 M1110.5206134069927,712.6914494804759 L1110.409387578053,712.5821030046052 M1110.409387578053,712.5821030046052 L1110.2700947510828,712.4743572265027 M1110.2700947510828,712.4743572265027 L1110.110964939729,712.3745290215023 M1110.110964939729,712.3745290215023 L1109.9411342415333,712.2883670390352 M-353.7764666998853,55.944823379869604 L-357.3662132405983,54.315041452032915 M-353.7764666998853,55.944823379869604 L-353.7846625593677,60.40146401706181 M-353.7764392113859,55.82772977244781 L-353.7764901440353,55.86677669903821 M-353.7764901440353,55.86677669903821 L-353.7764993240004,55.90581769402496 M-353.7764993240004,55.90581769402496 L-353.7764666998853,55.944823379869604 M-357.3664012372652,54.19812437992607 L-353.7764392113859,55.82772977244781 M1109.0459013958234,719.8523510276232 L1122.8579094356294,726.1220894318086 M1122.8579094356294,726.1220894318086 L1124.0032514450627,693.8398587502949 M1124.0032514450627,693.8398587502949 L-338.7940231242442,45.76749271676215 M-353.7764392113859,55.82772977244781 L-388.57247357061055,71.69718976984774 M-388.57247357061055,71.69718976984774 L-312.2201315500715,107.97059562091817 M-312.2201315500715,107.97059562091817 L-315.9747292067432,109.86288995387258 M-315.9747292067432,109.86288995387258 L-228.742600261745,151.50929283860796 M-228.742600261745,151.50929283860796 L-225.01237159353195,149.40118421262565 M-225.01237159353195,149.40118421262565 L255.31523545847017,377.59481614318076 M255.31523545847017,377.59481614318076 L252.15811768446918,381.10113347538106 M252.15811768446918,381.10113347538106 L417.2613388113157,459.92478879338466 M417.2613388113157,459.92478879338466 L420.0506122057411,455.85715912639023 M420.0506122057411,455.85715912639023 L1106.2069573139522,781.8357332571221 M1109.0459013958234,719.8523510276232 L1106.2069573139522,781.8357332571221 M-345.7665184171311,50.54978425668139 L-345.667252756856,50.60644825228678 M-345.667252756856,50.60644825228678 L-345.60070838549234,50.672101161153705 M-345.60070838549234,50.672101161153705 L-345.5707599798004,50.742931526724874 M-345.5707599798004,50.742931526724874 L-345.5791599060184,50.81482492351404 M-345.5791599060184,50.81482492351404 L-345.62543110464185,50.883602556484334 M-345.62543110464185,50.883602556484334 L-345.7068942125252,50.945264338371544 M-345.7068942125252,50.945264338371544 L-345.8188205187157,50.996221976606535 M-345.8188205187157,50.996221976606535 L-345.95470522691176,51.03350864342917 M-345.95470522691176,51.03350864342917 L-346.1066457335794,51.0549527314879 M-346.1066457335794,51.0549527314879 L-346.26580225956684,51.059305006877764 M-346.26580225956684,51.059305006877764 L-346.4229136332399,51.0463116569893 M-346.4229136332399,51.0463116569893 L-346.56883833739425,51.01673012100207 M-346.56883833739425,51.01673012100207 L-346.69508813309915,50.97228338399702 M-346.69508813309915,50.97228338399702 L-346.7943218024451,50.91555939820813 M-346.7943218024451,50.91555939820813 L-346.8607762708557,50.84986009959948 M-346.8607762708557,50.84986009959948 L-346.8905967795753,50.779007875843035 M-346.8905967795753,50.779007875843035 L-346.8820608493352,50.70712189616802 M-346.8820608493352,50.70712189616802 L-346.8356763578736,50.638379408439164 M-346.8356763578736,50.638379408439164 L-346.7541487121641,50.57677240835068 M-346.7541487121641,50.57677240835068 L-346.6422214081804,50.52587663862232 M-346.6422214081804,50.52587663862232 L-346.5063994708155,50.488644753597384 M-346.5063994708155,50.488644753597384 L-346.3545711233885,50.4672358108204 M-346.3545711233885,50.4672358108204 L-346.19555036090946,50.46289103313467 M-346.19555036090946,50.46289103313467 L-346.0385675918657,50.47586236331682 M-346.0385675918657,50.47586236331682 L-345.8927342843583,50.50539767069938 M-345.8927342843583,50.50539767069938 L-345.7665184171311,50.54978425668139 M1116.6295248581098,705.9177220953115 L1117.0569898397725,706.1330319751094 M1117.0569898397725,706.1330319751094 L1117.4579377707505,706.3825800263168 M1117.4579377707505,706.3825800263168 L1117.809092986005,706.6519031198686 M1117.809092986005,706.6519031198686 L1118.0898624914826,706.9252929896642 M1118.0898624914826,706.9252929896642 L1118.283903524055,707.1868668178113 M1118.283903524055,707.1868668178113 L1118.3799935458912,707.4214525025067 M1118.3799935458912,707.4214525025067 L1118.3723749954952,707.6153307605438 M1118.3723749954952,707.6153307605438 L1118.261447597049,707.7571945758289 M1118.261447597049,707.7571945758289 L1118.0537550773788,707.8388158626922 M1118.0537550773788,707.8388158626922 L1117.7612644944463,707.8553770383068 M1117.7612644944463,707.8553770383068 L1117.4009895460226,707.8058997549873 M1117.4009895460226,707.8058997549873 L1116.994083955488,707.6933457179522 M1116.994083955488,707.6933457179522 L1116.564234074878,707.5242750273127 M1116.564234074878,707.5242750273127 L1116.1362312095632,707.3084412978595 M1116.1362312095632,707.3084412978595 L1115.7352527481548,707.0585498784951 M1115.7352527481548,707.0585498784951 L1115.3844064618502,706.7890640888837 M1115.3844064618502,706.7890640888837 L1115.1042145464169,706.5157295237132 M1115.1042145464169,706.5157295237132 L1114.9108873789812,706.2544162789877 M1114.9108873789812,706.2544162789877 L1114.8154841571566,706.0202368278203 M1114.8154841571566,706.0202368278203 L1114.8236049102704,705.8268173243192 M1114.8236049102704,705.8268173243192 L1114.9347348331548,705.6853596599535 M1114.9347348331548,705.6853596599535 L1115.1422840881098,705.6039990247687 M1115.1422840881098,705.6039990247687 L1115.4343181500058,705.5874931395831 M1115.4343181500058,705.5874931395831 L1115.7939278726103,705.6368076473268 M1115.7939278726103,705.6368076473268 L1116.2001122585293,705.7490183537147 M1116.2001122585293,705.7490183537147 L1116.6295248581098,705.9177220953115 M1117.3632340802458,699.7305367068574 L1124.0032514450627,693.8398587502949 M1122.6834593481383,726.2728471991384 L1108.8738757685041,720.0031539230864 M1122.6834593481383,726.2728471991384 L1116.063162496936,732.0061938862099 M1108.8738757685041,720.0031539230864 L1102.3453180096803,725.7382190086762 M1108.8738757685041,720.0031539230864 L1108.93120262179,719.9529693468058 M1108.93120262179,719.9529693468058 L1108.9885588765799,719.9026890864278 M1108.9885588765799,719.9026890864278 L1109.0459013958234,719.8523510276232 M1099.2158953416294,787.6929235673786 L1106.2069573139522,781.8357332571221 M417.1855239192298,461.5775427211913 L420.0506122057411,455.85715912639023 M414.39597007500083,465.6512859861343 L417.2613388113157,459.92478879338466 M250.0645300562694,386.68930310925543 L252.15811768446918,381.10113347538106 M253.21800733955456,383.17585951716376 L255.31523545847017,377.59481614318076 M-225.36406988660974,154.34004381107746 L-225.01237159353195,149.40118421262565 M-229.0852970223699,156.45569451353964 L-228.742600261745,151.50929283860796 M-316.07922045950204,114.65472999906609 L-315.9747292067432,109.86288995387258 M-312.3338141147773,112.75513432689428 L-312.2201315500715,107.97059562091817 M-388.49769680372617,76.33708807767835 L-388.57247357061055,71.69718976984774 M1122.8579094356294,726.1220894318086 L1122.7997595073466,726.1724131396221 M1122.7997595073466,726.1724131396221 L1122.741594896762,726.2226783537411 M1122.741594896762,726.2226783537411 L1122.6834593481383,726.2728471991384 M-346.0712990017778,55.22848479434094 L-346.04773999243594,51.15537760692786 M-346.04773999243594,51.15537760692786 L-346.0080468848489,51.1780604080725 M-346.0080468848489,51.1780604080725 L-345.9814468035322,51.20433906000966 M-345.9814468035322,51.20433906000966 L-345.9694857001184,51.232686473672516 M-345.9694857001184,51.232686473672516 L-345.9728613267987,51.261455954805115 M-345.9728613267987,51.261455954805115 L-345.9913789151723,51.28897503584443 M-345.9913789151723,51.28897503584443 L-346.02396435139667,51.31364434902878 M-346.02396435139667,51.31364434902878 L-346.0687241223636,51.33402911786072 M-346.0687241223636,51.33402911786072 L-346.1230574781989,51.34894403990779 M-346.1230574781989,51.34894403990779 L-346.18380516459695,51.357521268508776 M-346.18380516459695,51.357521268508776 L-346.2474361425984,51.359262079795485 M-346.2474361425984,51.359262079795485 L-346.310249697628,51.3540649957518 M-346.310249697628,51.3540649957518 L-346.36859457628304,51.34223274934925 M-346.36859457628304,51.34223274934925 L-346.4190776296682,51.324453084542256 M-346.4190776296682,51.324453084542256 L-346.4587654704535,51.301760750809194 M-346.4587654704535,51.301760750809194 L-346.4853511454303,51.27547468783888 M-346.4853511454303,51.27547468783888 L-346.4972918241126,51.24712376324783 M-346.4972918241126,51.24712376324783 L-346.49389443297264,51.21835547553388 M-346.49389443297264,51.21835547553388 L-346.4753587266772,51.19084201884726 M-346.4753587266772,51.19084201884726 L-346.44276296945714,51.16618147256736 M-346.44276296945714,51.16618147256736 L-346.3980030389623,51.145806604711936 M-346.3980030389623,51.145806604711936 L-346.3436797216109,51.13090044962826 M-346.3436797216109,51.13090044962826 L-346.28294997189187,51.12232884540208 M-346.28294997189187,51.12232884540208 L-346.21934071989267,51.12058922756205 M-346.21934071989267,51.12058922756205 L-346.156547702735,51.125782800585114 M-346.156547702735,51.125782800585114 L-346.0982174692356,51.13760763608053 M-346.0982174692356,51.13760763608053 L-346.04773999243594,51.15537760692786 M1109.9411342415333,712.2883670390352 L1115.9069683238204,707.0200760034636 M1115.9069683238204,707.0200760034636 L1116.0778713112504,707.106251222246 M1116.0778713112504,707.106251222246 L1116.2380905486482,707.2060948188284 M1116.2380905486482,707.2060948188284 L1116.3784273168717,707.3138572765183 M1116.3784273168717,707.3138572765183 L1116.490590122843,707.4232207511706 M1116.490590122843,707.4232207511706 L1116.5678893233755,707.5277542783308 M1116.5678893233755,707.5277542783308 L1116.6062804553994,707.6215857964122 M1116.6062804553994,707.6215857964122 L1116.6031336852052,707.6990807092706 M1116.6031336852052,707.6990807092706 L1116.5586249701169,707.7557298866036 M1116.5586249701169,707.7557298866036 L1116.4757276848438,707.7884090820927 M1116.4757276848438,707.7884090820927 L1116.3588036505646,707.7950113428348 M1116.3588036505646,707.7950113428348 L1116.2148176840576,707.7752243782488 M1116.2148176840576,707.7752243782488 L1116.0522781606007,707.730260959319 M1116.0522781606007,707.730260959319 L1115.8805290440298,707.6626865675189 M1115.8805290440298,707.6626865675189 L1115.709393253267,707.576361659587 M1115.709393253267,707.576361659587 L1115.5491691767702,707.476463164072 M1115.5491691767702,707.476463164072 L1115.4088818176815,707.3686746890281 M1115.4088818176815,707.3686746890281 L1115.2969861310157,707.2593985042346 M1115.2969861310157,707.2593985042346 L1115.2196261675115,707.1548281929422 M1115.2196261675115,707.1548281929422 L1115.1813448699857,707.0610616730305 M1115.1813448699857,707.0610616730305 L1115.1845718835218,706.9836401300622 M1115.1845718835218,706.9836401300622 L1115.229112829991,706.9270558514183 M1115.229112829991,706.9270558514183 L1115.3121620605882,706.8944968119511 M1115.3121620605882,706.8944968119511 L1115.4288383559108,706.8878249816429 M1115.4288383559108,706.8878249816429 L1115.5727179646944,706.907585893077 M1115.5727179646944,706.907585893077 L1115.7351422550798,706.9524944238556 M1115.7351422550798,706.9524944238556 L1115.9069683238204,707.0200760034636 M-345.7665184171311,50.54978425668139 L-345.7693559878775,51.028625282865846 M-345.7693559878775,51.028625282865846 L-345.6701148449015,51.08531471425198 M-345.6701148449015,51.08531471425198 L-345.603587026677,51.150997091066984 M-345.603587026677,51.150997091066984 L-345.5736462442916,51.22185924503174 M-345.5736462442916,51.22185924503174 L-345.5820444153785,51.293784903660935 M-345.5820444153785,51.293784903660935 L-345.6283045768665,51.362593396855914 M-345.6283045768665,51.362593396855914 L-345.70974800227714,51.424282843264734 M-345.70974800227714,51.424282843264734 L-345.8216471217813,51.47526334157925 M-345.8216471217813,51.47526334157925 L-345.9574987190347,51.51256673438718 M-345.9574987190347,51.51256673438718 L-346.10940211742513,51.534020441349696 M-346.10940211742513,51.534020441349696 L-346.26851969907284,51.538374668944925 M-346.26851969907284,51.538374668944925 L-346.4255925613211,51.525375490872705 M-346.4255925613211,51.525375490872705 L-346.57148143044515,51.495780685602995 M-346.57148143044515,51.495780685602995 L-346.69770015391396,51.45131401011952 M-346.69770015391396,51.45131401011952 L-346.79690932133417,51.39456457633429 M-346.79690932133417,51.39456457633429 L-346.86334728045904,51.32883580029653 M-346.86334728045904,51.32883580029653 L-346.89316022832577,51.25795178370822 M-346.89316022832577,51.25795178370822 L-346.8846261198189,51.186033543696055 M-346.8846261198189,51.186033543696055 L-346.83825272106924,51.11726020291053 M-346.83825272106924,51.11726020291053 L-346.756744789629,51.055625549473234 M-346.756744789629,51.055625549473234 L-346.64484467306374,51.00470693228374 M-346.64484467306374,51.00470693228374 L-346.50905581614234,50.9674583324462 M-346.50905581614234,50.9674583324462 L-346.3572645222479,50.94603977793349 M-346.3572645222479,50.94603977793349 L-346.1982826376827,50.94169304958143 M-346.1982826376827,50.94169304958143 L-346.04133831709055,50.954670203436706 M-346.04133831709055,50.954670203436706 L-345.8955407996639,50.98421877069302 M-345.8955407996639,50.98421877069302 L-345.7693559878775,51.028625282865846 M1116.6295248581098,705.9177220953115 L1115.9267812393184,706.538520193132 M1115.9267812393184,706.538520193132 L1116.3539300005882,706.753826688913 M1116.3539300005882,706.753826688913 L1116.754556410379,707.0033707768847 M1116.754556410379,707.0033707768847 L1117.1054034548272,707.2726895436293 M1117.1054034548272,707.2726895436293 L1117.3858961797978,707.5460749687156 M1117.3858961797978,707.5460749687156 L1117.579707940364,707.8076444946787 M1117.579707940364,707.8076444946787 L1117.6756295107864,708.0422262798351 M1117.6756295107864,708.0422262798351 L1117.6679132749614,708.2361012855852 M1117.6679132749614,708.2361012855852 L1117.5569646959157,708.3779627042453 M1117.5569646959157,708.3779627042453 L1117.3493286847508,708.4595826057488 M1117.3493286847508,708.4595826057488 L1117.0569690975133,708.4761434996939 M1117.0569690975133,708.4761434996939 L1116.6968920013533,708.4266670572977 M1116.6968920013533,708.4266670572977 L1116.2902394459104,708.314114926786 M1116.2902394459104,708.314114926786 L1115.8606830201004,708.1450470831214 M1115.8606830201004,708.1450470831214 L1115.4329970781587,707.9292169586513 M1115.4329970781587,707.9292169586513 L1115.0323403462035,707.6793296718882 M1115.0323403462035,707.6793296718882 L1114.6818020209128,707.4098482893334 M1114.6818020209128,707.4098482893334 L1114.4018863061904,707.1365181415931 M1114.4018863061904,707.1365181415931 L1114.2087875938787,706.8752090705196 M1114.2087875938787,706.8752090705196 L1114.1135519564111,706.6410333185175 M1114.1135519564111,706.6410333185175 L1114.121769676576,706.4476168410238 M1114.121769676576,706.4476168410238 L1114.2329203749791,706.3061613729501 M1114.2329203749791,706.3061613729501 L1114.440413122094,706.2248019945592 M1114.440413122094,706.2248019945592 L1114.732316594907,706.2082963637711 M1114.732316594907,706.2082963637711 L1115.0917291847074,706.2576101108804 M1115.0917291847074,706.2576101108804 L1115.49766140259,706.369819080092 M1115.49766140259,706.369819080092 L1115.9267812393184,706.538520193132" stroke="black"  stroke-width="4"  fill="red"/>
<path d="M1116.063162496936,732.0061938862099 L1113.2654981377145,801.4611815348509 M1116.063162496936,732.0061938862099 L1102.3453180096803,725.7382190086762 M1098.8698373116497,794.5440029138912 L1102.3453180096803,725.7382190086762 M1113.2654981377145,801.4611815348509 L1098.8698373116497,794.5440029138912 M1122.6834593481383,726.2728471991384 L1116.063162496936,732.0061938862099 M1158.3977734275147,679.2680139014129 L1156.8884633016326,682.2888806891447 M1156.8884633016326,682.2888806891447 L1155.2712739215901,685.330030759324 M1155.2712739215901,685.330030759324 L1153.5518542011173,688.3807309489647 M1153.5518542011173,688.3807309489647 L1151.736273614466,691.4301893280747 M1151.736273614466,691.4301893280747 L1149.830988309544,694.4676094269952 M1149.830988309544,694.4676094269952 L1147.8427833700212,697.4822677094248 M1147.8427833700212,697.4822677094248 L1145.7787592452996,700.4635438092464 M1145.7787592452996,700.4635438092464 L1143.6462721948596,703.4009946257207 M1143.6462721948596,703.4009946257207 L1141.452963932009,706.2843425552323 M1141.452963932009,706.2843425552323 L1139.206700683707,709.1035443788059 M1139.206700683707,709.1035443788059 L1136.9154233268284,711.84893367539 M1136.9154233268284,711.84893367539 L1134.5873322914476,714.511067017592 M1134.5873322914476,714.511067017592 L1132.2306265692037,717.0809579892856 M1132.2306265692037,717.0809579892856 L1129.8535779071929,719.5500161338948 M1129.8535779071929,719.5500161338948 L1127.464537950688,721.910041129815 M1127.464537950688,721.910041129815 L1125.0717480775536,724.1533856802881 M1125.0717480775536,724.1533856802881 L1122.6834593481383,726.2728471991384 M1158.615603675649,678.8162411128889 L1158.5764789180973,678.8321203242482 M1158.5764789180973,678.8321203242482 L1158.5332861096633,678.8602148383102 M1158.5332861096633,678.8602148383102 L1158.4885790317317,678.8988545657872 M1158.4885790317317,678.8988545657872 L1158.4448933868446,678.9458446254273 M1158.4448933868446,678.9458446254273 L1158.4048375594753,678.998395767824 M1158.4048375594753,678.998395767824 L1158.3706850992764,679.0535001131688 M1158.3706850992764,679.0535001131688 L1158.3444197605654,679.1079563172208 M1158.3444197605654,679.1079563172208 L1158.3275990575546,679.1585757014798 M1158.3275990575546,679.1585757014798 L1158.3211722868,679.2024391891326 M1158.3211722868,679.2024391891326 L1158.3255471405482,679.2369716654222 M1158.3255471405482,679.2369716654222 L1158.3404298121823,679.2602003209345 M1158.3404298121823,679.2602003209345 L1158.3649818829936,679.2707512547402 M1158.3649818829936,679.2707512547402 L1158.3977734275147,679.2680139014129 M1194.9805833074836,630.8724625454371 L1192.4397909803674,633.1856269846778 M1192.4397909803674,633.1856269846778 L1189.916698543388,635.6007673345133 M1189.916698543388,635.6007673345133 L1187.418256366342,638.1106907657232 M1187.418256366342,638.1106907657232 L1184.9514789132234,640.7078641198905 M1184.9514789132234,640.7078641198905 L1182.5230853104347,643.3847451379105 M1182.5230853104347,643.3847451379105 L1180.1396994277811,646.1335992249675 M1180.1396994277811,646.1335992249675 L1177.8077941604492,648.9465710094951 M1177.8077941604492,648.9465710094951 L1175.5336822993274,651.8156890524832 M1175.5336822993274,651.8156890524832 L1173.3235075930681,654.7328885411786 M1173.3235075930681,654.7328885411786 L1171.1832127840228,657.6900458006735 M1171.1832127840228,657.6900458006735 L1169.1185532910263,660.6789711863694 M1169.1185532910263,660.6789711863694 L1167.135087478929,663.6914215099299 M1167.135087478929,663.6914215099299 L1165.2381663875065,666.7191239068053 M1165.2381663875065,666.7191239068053 L1163.4329455349844,669.753767042521 M1163.4329455349844,669.753767042521 L1161.7243730985265,672.7870206562174 M1161.7243730985265,672.7870206562174 L1160.1170866518078,675.8106246706872 M1160.1170866518078,675.8106246706872 L1158.615603675649,678.8162411128889 M1196.75038587435,725.8994894659875 L1194.9805833074836,630.8724625454371 M1154.002920693612,761.1658211101536 L1196.75038587435,725.8994894659875 M1153.9171116163727,768.1087636615779 L1154.002920693612,761.1658211101536 M1113.2654981377145,801.4611815348509 L1153.9171116163727,768.1087636615779 M1122.6834593481383,726.2728471991384 L1108.8738757685041,720.0031539230864 M1108.8738757685041,720.0031539230864 L1102.3453180096803,725.7382190086762 M1098.8698373116497,794.5440029138912 L1138.9250041310563,761.1658045088287 M1139.0839651905824,754.2910064720375 L1138.9250041310563,761.1658045088287 M1139.0839651905824,754.2910064720375 L1181.19590746418,719.009147834894 M1180.5116937435437,624.905593056426 L1181.19590746418,719.009147834894 M1180.5116937435437,624.905593056426 L1178.0057362169225,627.2173646110111 M1178.0057362169225,627.2173646110111 L1175.515904323475,629.6300664472341 M1175.515904323475,629.6300664472341 L1173.0490667493336,632.1365159794167 M1173.0490667493336,632.1365159794167 L1170.6121587747357,634.7291922868294 M1170.6121587747357,634.7291922868294 L1168.211827657509,637.4005671516611 M1168.211827657509,637.4005671516611 L1165.8546299267878,640.1429219798757 M1165.8546299267878,640.1429219798757 L1163.5469761388586,642.9484191844239 M1163.5469761388586,642.9484191844239 L1161.2951218510461,645.809106974029 M1161.2951218510461,645.809106974029 L1159.105158586816,648.7169419631363 M1159.105158586816,648.7169419631363 L1156.982982188926,651.6638236782449 M1156.982982188926,651.6638236782449 L1154.9343062001265,654.6415874697055 M1154.9343062001265,654.6415874697055 L1152.964652171187,657.6420169653558 M1152.964652171187,657.6420169653558 L1151.0793393188055,660.6568678662047 M1151.0793393188055,660.6568678662047 L1149.2834960982796,663.6778592077139 M1149.2834960982796,663.6778592077139 L1147.5820484030353,666.696692885959 M1147.5820484030353,666.696692885959 L1145.9796177132941,669.7051428445253 M1145.9796177132941,669.7051428445253 L1144.4807087079762,672.6949069016254 M1144.2630815882235,673.1442322021985 L1144.2310288577091,673.1472109783374 M1144.2310288577091,673.1472109783374 L1144.2071666727481,673.1369585373745 M1144.2071666727481,673.1369585373745 L1144.192884827704,673.1140680900861 M1144.192884827704,673.1140680900861 L1144.1889871909277,673.0798938693106 M1144.1889871909277,673.0798938693106 L1144.1957392828187,673.0363878587711 M1144.1957392828187,673.0363878587711 L1144.2127150274812,672.9861044360443 M1144.2127150274812,672.9861044360443 L1144.2389557023732,672.931943140505 M1144.2389557023732,672.931943140505 L1144.2729056928963,672.8770755485322 M1144.2729056928963,672.8770755485322 L1144.3125929938883,672.8246892543498 M1144.3125929938883,672.8246892543498 L1144.3557646947336,672.7777825526525 M1144.3557646947336,672.7777825526525 L1144.3998432702347,672.7391398725911 M1144.3998432702347,672.7391398725911 L1144.4423286254007,672.7109562318301 M1144.4423286254007,672.7109562318301 L1144.4807087079762,672.6949069016254 M1108.8738757685041,720.0031539230864 L1111.229552494821,717.8836140212688 M1111.229552494821,717.8836140212688 L1113.590922522064,715.6413554990008 M1113.590922522064,715.6413554990008 L1115.9498518573675,713.2835817909486 M1115.9498518573675,713.2835817909486 L1118.2982116281453,710.8179360291981 M1118.2982116281453,710.8179360291981 L1120.6277596992268,708.2526093505438 M1120.6277596992268,708.2526093505438 L1122.9303281105254,705.5961779737072 M1122.9303281105254,705.5961779737072 L1125.1978159686805,702.857609065298 M1125.1978159686805,702.857609065298 L1127.4221162541257,700.0463218775814 M1127.4221162541257,700.0463218775814 L1129.5953731796687,697.171953821983 M1129.5953731796687,697.171953821983 L1131.7097998622726,694.2445144274398 M1131.7097998622726,694.2445144274398 L1133.7578261524611,691.2742430988465 M1133.7578261524611,691.2742430988465 L1135.7321588180919,688.2715404584919 M1135.7321588180919,688.2715404584919 L1137.625752391268,685.2469803384856 M1137.625752391268,685.2469803384856 L1139.4318680623928,682.2112359851708 M1139.4318680623928,682.2112359851708 L1141.1440871934035,679.1750500922963 M1141.1440871934035,679.1750500922963 L1142.7563684821262,676.149157680708 M1142.7563684821262,676.149157680708 L1144.2630815882235,673.1442322021985 M1138.9250041310563,761.1658045088287 L1153.9171116163727,768.1087636615779 M1158.3977734275147,679.2680139014129 L1144.2630815882235,673.1442322021985 M1158.615603675649,678.8162411128889 L1144.4807087079762,672.6949069016254 M1194.9805833074836,630.8724625454371 L1180.5116937435437,624.905593056426 M1196.75038587435,725.8994894659875 L1181.19590746418,719.009147834894 M1154.002920693612,761.1658211101536 L1139.0839651905824,754.2910064720375" stroke="black"  stroke-width="4"  fill="red"/>
<path d="M1109.9411342415333,712.2883670390352 L1115.9069683238204,707.0200760034636 M1115.9069683238204,707.0200760034636 L1116.0778713112504,707.106251222246 M1116.0778713112504,707.106251222246 L1116.2380905486482,707.2060948188284 M1116.2380905486482,707.2060948188284 L1116.3784273168717,707.3138572765183 M1116.3784273168717,707.3138572765183 L1116.490590122843,707.4232207511706 M1116.490590122843,707.4232207511706 L1116.5678893233755,707.5277542783308 M1116.5678893233755,707.5277542783308 L1116.6062804553994,707.6215857964122 M1116.6062804553994,707.6215857964122 L1116.6031336852052,707.6990807092706 M1116.6031336852052,707.6990807092706 L1116.5586249701169,707.7557298866036 M1116.5586249701169,707.7557298866036 L1116.4757276848438,707.7884090820927 M1116.4757276848438,707.7884090820927 L1116.3588036505646,707.7950113428348 M1116.3588036505646,707.7950113428348 L1116.2148176840576,707.7752243782488 M1116.2148176840576,707.7752243782488 L1116.0522781606007,707.730260959319 M1116.0522781606007,707.730260959319 L1115.8805290440298,707.6626865675189 M1115.8805290440298,707.6626865675189 L1115.709393253267,707.576361659587 M1115.709393253267,707.576361659587 L1115.5491691767702,707.476463164072 M1115.5491691767702,707.476463164072 L1115.4088818176815,707.3686746890281 M1115.4088818176815,707.3686746890281 L1115.2969861310157,707.2593985042346 M1115.2969861310157,707.2593985042346 L1115.2196261675115,707.1548281929422 M1115.2196261675115,707.1548281929422 L1115.1813448699857,707.0610616730305 M1115.1813448699857,707.0610616730305 L1115.1845718835218,706.9836401300622 M1115.1845718835218,706.9836401300622 L1115.229112829991,706.9270558514183 M1115.229112829991,706.9270558514183 L1115.3121620605882,706.8944968119511 M1115.3121620605882,706.8944968119511 L1115.4288383559108,706.8878249816429 M1115.4288383559108,706.8878249816429 L1115.5727179646944,706.907585893077 M1115.5727179646944,706.907585893077 L1115.7351422550798,706.9524944238556 M1115.7351422550798,706.9524944238556 L1115.9069683238204,707.0200760034636 M1109.9411342415333,712.2883670390352 L1109.7703020881995,712.2207958085628 M1109.7703020881995,712.2207958085628 L1109.6087335680104,712.175894139685 M1109.6087335680104,712.175894139685 L1109.4655236876793,712.1561362438225 M1109.4655236876793,712.1561362438225 L1109.3492903885506,712.1628070562526 M1109.3492903885506,712.1628070562526 L1109.266433843312,712.1953611245591 M1109.266433843312,712.1953611245591 L1109.2218237263091,712.2519367486692 M1109.2218237263091,712.2519367486692 L1109.2182683730512,712.3293464188656 M1109.2182683730512,712.3293464188656 L1109.2559811566687,712.4230985112089 M1109.2559811566687,712.4230985112089 L1109.3325666688545,712.5276526702347 M1109.3325666688545,712.5276526702347 L1109.4435272177216,712.636911905625 M1109.4435272177216,712.636911905625 L1109.5827709206746,712.744683591679 M1109.5827709206746,712.744683591679 L1109.7419052907826,712.8445664647629 M1109.7419052907826,712.8445664647629 L1109.9119669563167,712.9308778246142 M1109.9119669563167,712.9308778246142 L1110.0827221073866,712.9984415798292 M1110.0827221073866,712.9984415798292 L1110.244404687896,713.0433979060548 M1110.244404687896,713.0433979060548 L1110.3877199516492,713.0631817455164 M1110.3877199516492,713.0631817455164 L1110.5041993850393,713.0565805277876 M1110.5041993850393,713.0565805277876 L1110.586905037503,713.0239064910392 M1110.586905037503,713.0239064910392 L1110.6314834688553,712.9672662411369 M1110.6314834688553,712.9672662411369 L1110.6349595498643,712.8897835095696 M1110.6349595498643,712.8897835095696 L1110.5971381052798,712.7959666923722 M1110.5971381052798,712.7959666923722 L1110.5206134069927,712.6914494804759 M1110.5206134069927,712.6914494804759 L1110.409387578053,712.5821030046052 M1110.409387578053,712.5821030046052 L1110.2700947510828,712.4743572265027 M1110.2700947510828,712.4743572265027 L1110.110964939729,712.3745290215023 M1110.110964939729,712.3745290215023 L1109.9411342415333,712.2883670390352 M1115.9267812393184,706.538520193132 L1116.3539300005882,706.753826688913 M1116.3539300005882,706.753826688913 L1116.754556410379,707.0033707768847 M1116.754556410379,707.0033707768847 L1117.1054034548272,707.2726895436293 M1117.1054034548272,707.2726895436293 L1117.3858961797978,707.5460749687156 M1117.3858961797978,707.5460749687156 L1117.579707940364,707.8076444946787 M1117.579707940364,707.8076444946787 L1117.6756295107864,708.0422262798351 M1117.6756295107864,708.0422262798351 L1117.6679132749614,708.2361012855852 M1117.6679132749614,708.2361012855852 L1117.5569646959157,708.3779627042453 M1117.5569646959157,708.3779627042453 L1117.3493286847508,708.4595826057488 M1117.3493286847508,708.4595826057488 L1117.0569690975133,708.4761434996939 M1117.0569690975133,708.4761434996939 L1116.6968920013533,708.4266670572977 M1116.6968920013533,708.4266670572977 L1116.2902394459104,708.314114926786 M1116.2902394459104,708.314114926786 L1115.8606830201004,708.1450470831214 M1115.8606830201004,708.1450470831214 L1115.4329970781587,707.9292169586513 M1115.4329970781587,707.9292169586513 L1115.0323403462035,707.6793296718882 M1115.0323403462035,707.6793296718882 L1114.6818020209128,707.4098482893334 M1114.6818020209128,707.4098482893334 L1114.4018863061904,707.1365181415931 M1114.4018863061904,707.1365181415931 L1114.2087875938787,706.8752090705196 M1114.2087875938787,706.8752090705196 L1114.1135519564111,706.6410333185175 M1114.1135519564111,706.6410333185175 L1114.121769676576,706.4476168410238 M1114.121769676576,706.4476168410238 L1114.2329203749791,706.3061613729501 M1114.2329203749791,706.3061613729501 L1114.440413122094,706.2248019945592 M1114.440413122094,706.2248019945592 L1114.732316594907,706.2082963637711 M1114.732316594907,706.2082963637711 L1115.0917291847074,706.2576101108804 M1115.0917291847074,706.2576101108804 L1115.49766140259,706.369819080092 M1115.49766140259,706.369819080092 L1115.9267812393184,706.538520193132 M1116.6295248581098,705.9177220953115 L1117.0569898397725,706.1330319751094 M1117.0569898397725,706.1330319751094 L1117.4579377707505,706.3825800263168 M1117.4579377707505,706.3825800263168 L1117.809092986005,706.6519031198686 M1117.809092986005,706.6519031198686 L1118.0898624914826,706.9252929896642 M1118.0898624914826,706.9252929896642 L1118.283903524055,707.1868668178113 M1118.283903524055,707.1868668178113 L1118.3799935458912,707.4214525025067 M1118.3799935458912,707.4214525025067 L1118.3723749954952,707.6153307605438 M1118.3723749954952,707.6153307605438 L1118.261447597049,707.7571945758289 M1118.261447597049,707.7571945758289 L1118.0537550773788,707.8388158626922 M1118.0537550773788,707.8388158626922 L1117.7612644944463,707.8553770383068 M1117.7612644944463,707.8553770383068 L1117.4009895460226,707.8058997549873 M1117.4009895460226,707.8058997549873 L1116.994083955488,707.6933457179522 M1116.994083955488,707.6933457179522 L1116.564234074878,707.5242750273127 M1116.564234074878,707.5242750273127 L1116.1362312095632,707.3084412978595 M1116.1362312095632,707.3084412978595 L1115.7352527481548,707.0585498784951 M1115.7352527481548,707.0585498784951 L1115.3844064618502,706.7890640888837 M1115.3844064618502,706.7890640888837 L1115.1042145464169,706.5157295237132 M1115.1042145464169,706.5157295237132 L1114.9108873789812,706.2544162789877 M1114.9108873789812,706.2544162789877 L1114.8154841571566,706.0202368278203 M1114.8154841571566,706.0202368278203 L1114.8236049102704,705.8268173243192 M1114.8236049102704,705.8268173243192 L1114.9347348331548,705.6853596599535 M1114.9347348331548,705.6853596599535 L1115.1422840881098,705.6039990247687 M1115.1422840881098,705.6039990247687 L1115.4343181500058,705.5874931395831 M1115.4343181500058,705.5874931395831 L1115.7939278726103,705.6368076473268 M1115.7939278726103,705.6368076473268 L1116.2001122585293,705.7490183537147 M1116.2001122585293,705.7490183537147 L1116.6295248581098,705.9177220953115 M1116.6295248581098,705.9177220953115 L1115.9267812393184,706.538520193132" stroke="black"  stroke-width="4"  fill="red"/>
<path d="M-353.7846625593677,60.40146401706181 L-392.24434381429137,78.05705176128816 M-353.7846625593677,60.40146401706181 L-357.36621366879353,58.764977147908326 M-395.8238391884811,76.33708842126981 L-357.36621366879353,58.764977147908326 M-392.24434381429137,78.05705176128816 L-395.8238391884811,76.33708842126981 M-392.24434381429137,78.05705176128816 L-392.71794425883854,51.85029048368773 M-392.71794425883854,51.85029048368773 L-388.9193956279273,50.170676472208925 M-388.9193956279273,50.170676472208925 L-389.3526758414789,23.285639669528393 M-389.3526758414789,23.285639669528393 L-334.6700286411826,0.055182134981123454 M-334.6700286411826,0.055182134981123454 L-334.72348540378084,1.7268116854583013 M-334.72348540378084,1.7268116854583013 L-334.84610273863734,3.4201756615676686 M-334.84610273863734,3.4201756615676686 L-335.0373597243911,5.130251551918093 M-335.0373597243911,5.130251551918093 L-335.29654394171575,6.8518691544281864 M-335.29654394171575,6.8518691544281864 L-335.6227601215239,8.57995240239103 M-335.6227601215239,8.57995240239103 L-336.0149243172616,10.30939102782878 M-336.0149243172616,10.30939102782878 L-336.4717767255373,12.03508682768944 M-336.4717767255373,12.03508682768944 L-336.99187947971836,13.751963046884953 M-336.99187947971836,13.751963046884953 L-337.5736254755941,15.454978464437374 M-337.5736254755941,15.454978464437374 L-338.21524265882636,17.13915454328844 M-338.21524265882636,17.13915454328844 L-338.9147976091401,18.79957226131961 M-338.9147976091401,18.79957226131961 L-339.670198899973,20.4313840269121 M-339.670198899973,20.4313840269121 L-340.4792072279623,22.02982871681661 M-340.4792072279623,22.02982871681661 L-341.3394379224187,23.59022865545637 M-341.3394379224187,23.59022865545637 L-342.24836827356467,25.108003965975115 M-342.24836827356467,25.108003965975115 L-343.2033392535634,26.578744538361093 M-343.2033392535634,26.578744538361093 L-344.2015683548119,27.99809287311598 M-344.2015683548119,27.99809287311598 L-344.1909248319347,28.019324323042667 M-344.1909248319347,28.019324323042667 L-344.18537545015806,28.04542863973228 M-344.18537545015806,28.04542863973228 L-344.1852433519699,28.07486015560005 M-344.1852433519699,28.07486015560005 L-344.19053432512624,28.105948546324214 M-344.19053432512624,28.105948546324214 L-344.20094220776014,28.136841370821344 M-344.20094220776014,28.136841370821344 L-344.2158614653165,28.165778390384787 M-344.2158614653165,28.165778390384787 L-344.2344249630469,28.191078210372325 M-344.2344249630469,28.191078210372325 L-344.2555553960524,28.211250473968903 M-344.2555553960524,28.211250473968903 L-344.27802333818363,28.225140892254274 M-344.27802333818363,28.225140892254274 L-344.3005249764791,28.231920692349206 M-344.3005249764791,28.231920692349206 L-344.3217522503219,28.231222157519312 M-344.3217522503219,28.231222157519312 L-344.3404709565888,28.223068587903867 M-344.3404709565888,28.223068587903867 L-344.3555933410728,28.207936293689443 M-344.3555933410728,28.207936293689443 L-345.35841869914975,29.634064572195257 M-345.35841869914975,29.634064572195257 L-346.31794102886806,31.1125445985935 M-346.31794102886806,31.1125445985935 L-347.23093912831723,32.63845229322959 M-347.23093912831723,32.63845229322959 L-348.09435517822897,34.2066835396605 M-348.09435517822897,34.2066835396605 L-348.90530610183237,35.81197766678133 M-348.90530610183237,35.81197766678133 L-349.66109680221905,37.4489570682357 M-349.66109680221905,37.4489570682357 L-350.35922857565106,39.11213520963577 M-350.35922857565106,39.11213520963577 L-350.99741030966595,40.79595595141416 M-350.99741030966595,40.79595595141416 L-351.57356509619297,42.49477159151883 M-351.57356509619297,42.49477159151883 L-352.08583861445277,44.20288144577074 M-352.08583861445277,44.20288144577074 L-352.5326060881048,45.914629028798345 M-352.5326060881048,45.914629028798345 L-352.9124758411615,47.62427535978668 M-352.9124758411615,47.62427535978668 L-353.22429462855337,49.32616949496412 M-353.22429462855337,49.32616949496412 L-353.4671504278265,51.01469543401981 M-353.4671504278265,51.01469543401981 L-353.64037404452597,52.68426308232142 M-353.64037404452597,52.68426308232142 L-353.74354012898766,54.3294312717876 M-353.74354012898766,54.3294312717876 L-353.7764666998853,55.944823379869604 M-353.7764666998853,55.944823379869604 L-353.7846625593677,60.40146401706181 M-353.7764666998853,55.944823379869604 L-357.3662132405983,54.315041452032915 M-357.3662132405983,54.315041452032915 L-357.36621366879353,58.764977147908326 M-357.3662132405983,54.315041452032915 L-357.3362319980771,52.702134682473 M-357.3362319980771,52.702134682473 L-357.2360070503605,51.0596041696308 M-357.2360070503605,51.0596041696308 L-357.06571097304936,49.39281772261006 M-357.06571097304936,49.39281772261006 L-356.82575974197425,47.70720715503478 M-356.82575974197425,47.70720715503478 L-356.51681304956605,46.00835254499094 M-356.51681304956605,46.00835254499094 L-356.13977350947675,44.301859411426335 M-356.13977350947675,44.301859411426335 L-355.6957850300803,42.593367751004166 M-355.6957850300803,42.593367751004166 L-355.1862299204972,40.88860506524736 M-355.1862299204972,40.88860506524736 L-354.6127238687724,39.19321610867286 M-354.6127238687724,39.19321610867286 L-353.9771121497141,37.512889406552574 M-353.9771121497141,37.512889406552574 L-353.28146284229183,35.85326024580928 M-353.28146284229183,35.85326024580928 L-352.52805851338223,34.21987217948646 M-352.52805851338223,34.21987217948646 L-351.7193895621847,32.61819897301007 M-351.7193895621847,32.61819897301007 L-350.8581430898819,31.05360537102524 M-350.8581430898819,31.05360537102524 L-349.94719449963077,29.53133912732153 M-349.94719449963077,29.53133912732153 L-348.9895943277588,28.05649147780366 M-348.9895943277588,28.05649147780366 L-347.98855692510847,26.63397372253621 M-347.98855692510847,26.63397372253621 L-347.9733936519831,26.64910351199694 M-347.9733936519831,26.64910351199694 L-347.95464391815904,26.6572704213786 M-347.95464391815904,26.6572704213786 L-347.9333972851955,26.657997368110216 M-347.9333972851955,26.657997368110216 L-347.910889049803,26.651259372211484 M-347.910889049803,26.651259372211484 L-347.8884277054244,26.637421760616462 M-347.8884277054244,26.637421760616462 L-347.86731664078206,26.6173102063334 M-347.86731664078206,26.6173102063334 L-347.84878419181985,26.592075496494886 M-347.84878419181985,26.592075496494886 L-347.83390582132074,26.563204175737496 M-347.83390582132074,26.563204175737496 L-347.8235462889627,26.53237382194959 M-347.8235462889627,26.53237382194959 L-347.8183083851284,26.501341098030196 M-347.8183083851284,26.501341098030196 L-347.81849510147447,26.471955141605235 M-347.81849510147447,26.471955141605235 L-347.82409755138633,26.44588368944801 M-347.82409755138633,26.44588368944801 L-347.83478945401885,26.42467045557953 M-338.34701512764366,-1.4611815348508799 L-338.3974030185034,0.20770256309089064 M-338.3974030185034,0.20770256309089064 L-338.516970704849,1.8982002560280762 M-338.516970704849,1.8982002560280762 L-338.7052065005314,3.6052972354882513 M-338.7052065005314,3.6052972354882513 L-338.96140727403963,5.323831913793981 M-338.96140727403963,5.323831913793981 L-339.28468665010723,7.048736862076055 M-339.28468665010723,7.048736862076055 L-339.67396941341894,8.774910695423614 M-339.67396941341894,8.774910695423614 L-340.128004252309,10.497264258228256 M-340.128004252309,10.497264258228256 L-340.6453615320479,12.210730005863184 M-340.6453615320479,12.210730005863184 L-341.2244421018511,13.91027606754642 M-341.2244421018511,13.91027606754642 L-341.86348153634583,15.590933358823747 M-341.86348153634583,15.590933358823747 L-342.5605537304459,17.247792424107047 M-342.5605537304459,17.247792424107047 L-343.3135742422512,18.876015340311255 M-343.3135742422512,18.876015340311255 L-344.12031040663123,20.470850728581183 M-344.12031040663123,20.470850728581183 L-344.9783838565156,22.027630745882334 M-344.9783838565156,22.027630745882334 L-345.8852778355201,23.541785414214928 M-345.8852778355201,23.541785414214928 L-346.8383387924723,25.008914484662 M-346.8383387924723,25.008914484662 L-347.83478945401885,26.42467045557953 M-338.34701512764366,-1.4611815348508799 L-393.02854649096435,21.65729804991463 M-392.5466439967212,48.4992015370633 L-393.02854649096435,21.65729804991463 M-392.5466439967212,48.4992015370633 L-396.3447765949916,50.17067680772891 M-395.8238391884811,76.33708842126981 L-396.3447765949916,50.17067680772891 M-396.3447765949916,50.17067680772891 L-392.71794425883854,51.85029048368773 M-344.3555933410728,28.207936293689443 L-347.98855692510847,26.63397372253621 M-344.2015683548119,27.99809287311598 L-347.83478945401885,26.42467045557953 M-334.6700286411826,0.055182134981123454 L-338.34701512764366,-1.4611815348508799 M-389.3526758414789,23.285639669528393 L-393.02854649096435,21.65729804991463 M-388.9193956279273,50.170676472208925 L-392.5466439967212,48.4992015370633" stroke="black"  stroke-width="4"  fill="red"/>
<path d="M-346.0712990017778,55.22848479434094 L-346.04773999243594,51.15537760692786 M-346.04773999243594,51.15537760692786 L-346.0080468848489,51.1780604080725 M-346.0080468848489,51.1780604080725 L-345.9814468035322,51.20433906000966 M-345.9814468035322,51.20433906000966 L-345.9694857001184,51.232686473672516 M-345.9694857001184,51.232686473672516 L-345.9728613267987,51.261455954805115 M-345.9728613267987,51.261455954805115 L-345.9913789151723,51.28897503584443 M-345.9913789151723,51.28897503584443 L-346.02396435139667,51.31364434902878 M-346.02396435139667,51.31364434902878 L-346.0687241223636,51.33402911786072 M-346.0687241223636,51.33402911786072 L-346.1230574781989,51.34894403990779 M-346.1230574781989,51.34894403990779 L-346.18380516459695,51.357521268508776 M-346.18380516459695,51.357521268508776 L-346.2474361425984,51.359262079795485 M-346.2474361425984,51.359262079795485 L-346.310249697628,51.3540649957518 M-346.310249697628,51.3540649957518 L-346.36859457628304,51.34223274934925 M-346.36859457628304,51.34223274934925 L-346.4190776296682,51.324453084542256 M-346.4190776296682,51.324453084542256 L-346.4587654704535,51.301760750809194 M-346.4587654704535,51.301760750809194 L-346.4853511454303,51.27547468783888 M-346.4853511454303,51.27547468783888 L-346.4972918241126,51.24712376324783 M-346.4972918241126,51.24712376324783 L-346.49389443297264,51.21835547553388 M-346.49389443297264,51.21835547553388 L-346.4753587266772,51.19084201884726 M-346.4753587266772,51.19084201884726 L-346.44276296945714,51.16618147256736 M-346.44276296945714,51.16618147256736 L-346.3980030389623,51.145806604711936 M-346.3980030389623,51.145806604711936 L-346.3436797216109,51.13090044962826 M-346.3436797216109,51.13090044962826 L-346.28294997189187,51.12232884540208 M-346.28294997189187,51.12232884540208 L-346.21934071989267,51.12058922756205 M-346.21934071989267,51.12058922756205 L-346.156547702735,51.125782800585114 M-346.156547702735,51.125782800585114 L-346.0982174692356,51.13760763608053 M-346.0982174692356,51.13760763608053 L-346.04773999243594,51.15537760692786 M-346.0712990017778,55.22848479434094 L-346.1216708112064,55.21064726382326 M-346.1216708112064,55.21064726382326 L-346.1798792389611,55.19877747041522 M-346.1798792389611,55.19877747041522 L-346.24254138833714,55.19356415120944 M-346.24254138833714,55.19356415120944 L-346.3060183067048,55.19531038316785 M-346.3060183067048,55.19531038316785 L-346.36662194174824,55.20391457681535 M-346.36662194174824,55.20391457681535 L-346.4208326844214,55.218877404359205 M-346.4208326844214,55.218877404359205 L-346.4655001206504,55.239329734274634 M-346.4655001206504,55.239329734274634 L-346.49802883847315,55.26408403273484 M-346.49802883847315,55.26408403273484 L-346.5165268613566,55.291702083191126 M-346.5165268613566,55.291702083191126 L-346.51991812049573,55.32057973008051 M-346.51991812049573,55.32057973008051 L-346.5080032262583,55.34903842239419 M-346.5080032262583,55.34903842239419 L-346.4814737591296,55.375424399778126 M-346.4814737591296,55.375424399778126 L-346.44186929016746,55.39820298464991 M-346.44186929016746,55.39820298464991 L-346.391491927297,55.416050225889364 M-346.391491927297,55.416050225889364 L-346.33326891554384,55.42792744288994 M-346.33326891554384,55.42792744288994 L-346.270586313831,55.43314427912617 M-346.270586313831,55.43314427912617 L-346.2070877597805,55.43139685167847 M-346.2070877597805,55.43139685167847 L-346.1464662624694,55.422787024028594 M-346.1464662624694,55.422787024028594 L-346.0922455227699,55.40781541451463 M-346.0922455227699,55.40781541451463 L-346.04757824507465,55.38735316667476 M-346.04757824507465,55.38735316667476 L-346.0150598050295,55.36259008630344 M-346.0150598050295,55.36259008630344 L-345.99657982452686,55.33496640186695 M-345.99657982452686,55.33496640186695 L-345.9932102392884,55.30608755951613 M-345.9932102392884,55.30608755951613 L-346.0051454734273,55.27763238414059 M-346.0051454734273,55.27763238414059 L-346.03168928722687,55.25125383047549 M-346.03168928722687,55.25125383047549 L-346.0712990017778,55.22848479434094 M-345.7693559878775,51.028625282865846 L-345.6701148449015,51.08531471425198 M-345.6701148449015,51.08531471425198 L-345.603587026677,51.150997091066984 M-345.603587026677,51.150997091066984 L-345.5736462442916,51.22185924503174 M-345.5736462442916,51.22185924503174 L-345.5820444153785,51.293784903660935 M-345.5820444153785,51.293784903660935 L-345.6283045768665,51.362593396855914 M-345.6283045768665,51.362593396855914 L-345.70974800227714,51.424282843264734 M-345.70974800227714,51.424282843264734 L-345.8216471217813,51.47526334157925 M-345.8216471217813,51.47526334157925 L-345.9574987190347,51.51256673438718 M-345.9574987190347,51.51256673438718 L-346.10940211742513,51.534020441349696 M-346.10940211742513,51.534020441349696 L-346.26851969907284,51.538374668944925 M-346.26851969907284,51.538374668944925 L-346.4255925613211,51.525375490872705 M-346.4255925613211,51.525375490872705 L-346.57148143044515,51.495780685602995 M-346.57148143044515,51.495780685602995 L-346.69770015391396,51.45131401011952 M-346.69770015391396,51.45131401011952 L-346.79690932133417,51.39456457633429 M-346.79690932133417,51.39456457633429 L-346.86334728045904,51.32883580029653 M-346.86334728045904,51.32883580029653 L-346.89316022832577,51.25795178370822 M-346.89316022832577,51.25795178370822 L-346.8846261198189,51.186033543696055 M-346.8846261198189,51.186033543696055 L-346.83825272106924,51.11726020291053 M-346.83825272106924,51.11726020291053 L-346.756744789629,51.055625549473234 M-346.756744789629,51.055625549473234 L-346.64484467306374,51.00470693228374 M-346.64484467306374,51.00470693228374 L-346.50905581614234,50.9674583324462 M-346.50905581614234,50.9674583324462 L-346.3572645222479,50.94603977793349 M-346.3572645222479,50.94603977793349 L-346.1982826376827,50.94169304958143 M-346.1982826376827,50.94169304958143 L-346.04133831709055,50.954670203436706 M-346.04133831709055,50.954670203436706 L-345.8955407996639,50.98421877069302 M-345.8955407996639,50.98421877069302 L-345.7693559878775,51.028625282865846 M-345.7665184171311,50.54978425668139 L-345.667252756856,50.60644825228678 M-345.667252756856,50.60644825228678 L-345.60070838549234,50.672101161153705 M-345.60070838549234,50.672101161153705 L-345.5707599798004,50.742931526724874 M-345.5707599798004,50.742931526724874 L-345.5791599060184,50.81482492351404 M-345.5791599060184,50.81482492351404 L-345.62543110464185,50.883602556484334 M-345.62543110464185,50.883602556484334 L-345.7068942125252,50.945264338371544 M-345.7068942125252,50.945264338371544 L-345.8188205187157,50.996221976606535 M-345.8188205187157,50.996221976606535 L-345.95470522691176,51.03350864342917 M-345.95470522691176,51.03350864342917 L-346.1066457335794,51.0549527314879 M-346.1066457335794,51.0549527314879 L-346.26580225956684,51.059305006877764 M-346.26580225956684,51.059305006877764 L-346.4229136332399,51.0463116569893 M-346.4229136332399,51.0463116569893 L-346.56883833739425,51.01673012100207 M-346.56883833739425,51.01673012100207 L-346.69508813309915,50.97228338399702 M-346.69508813309915,50.97228338399702 L-346.7943218024451,50.91555939820813 M-346.7943218024451,50.91555939820813 L-346.8607762708557,50.84986009959948 M-346.8607762708557,50.84986009959948 L-346.8905967795753,50.779007875843035 M-346.8905967795753,50.779007875843035 L-346.8820608493352,50.70712189616802 M-346.8820608493352,50.70712189616802 L-346.8356763578736,50.638379408439164 M-346.8356763578736,50.638379408439164 L-346.7541487121641,50.57677240835068 M-346.7541487121641,50.57677240835068 L-346.6422214081804,50.52587663862232 M-346.6422214081804,50.52587663862232 L-346.5063994708155,50.488644753597384 M-346.5063994708155,50.488644753597384 L-346.3545711233885,50.4672358108204 M-346.3545711233885,50.4672358108204 L-346.19555036090946,50.46289103313467 M-346.19555036090946,50.46289103313467 L-346.0385675918657,50.47586236331682 M-346.0385675918657,50.47586236331682 L-345.8927342843583,50.50539767069938 M-345.8927342843583,50.50539767069938 L-345.7665184171311,50.54978425668139 M-345.7665184171311,50.54978425668139 L-345.7693559878775,51.028625282865846" stroke="black"  stroke-width="4"  fill="red"/>
<path d="M-392.5466439967212,48.4992015370633 L-396.3447765949916,50.17067680772891 M-396.3447765949916,50.17067680772891 L-396.8800208446535,23.285639996401073 M-393.02854649096435,21.65729804991463 L-396.8800208446535,23.285639996401073 M-392.5466439967212,48.4992015370633 L-393.02854649096435,21.65729804991463 M-392.24434381429137,78.05705176128816 L-316.07922045950204,114.65472999906609 M-316.07922045950204,114.65472999906609 L-315.9747292067432,109.86288995387258 M-315.9747292067432,109.86288995387258 L-228.742600261745,151.50929283860796 M-229.0852970223699,156.45569451353964 L-228.742600261745,151.50929283860796 M-229.0852970223699,156.45569451353964 L250.0645300562694,386.68930310925543 M250.0645300562694,386.68930310925543 L252.15811768446918,381.10113347538106 M252.15811768446918,381.10113347538106 L417.2613388113157,459.92478879338466 M414.39597007500083,465.6512859861343 L417.2613388113157,459.92478879338466 M414.39597007500083,465.6512859861343 L1098.8698373116497,794.5440029138912 M1098.8698373116497,794.5440029138912 L1138.9250041310563,761.1658045088287 M1138.9250041310563,761.1658045088287 L1153.9171116163727,768.1087636615779 M1153.9171116163727,768.1087636615779 L1196.8800208446537,732.8600544710955 M-396.8800208446535,23.285639996401073 L1196.8800208446537,732.8600544710955 M-396.3447765949916,50.17067680772891 L-392.71794425883854,51.85029048368773 M-392.24434381429137,78.05705176128816 L-392.71794425883854,51.85029048368773 M1154.002920693612,761.1658211101536 L1139.0839651905824,754.2910064720375 M1099.2158953416294,787.6929235673786 L1139.0839651905824,754.2910064720375 M1099.2158953416294,787.6929235673786 L417.1855239192298,461.5775427211913 M417.1855239192298,461.5775427211913 L420.0506122057411,455.85715912639023 M420.0506122057411,455.85715912639023 L255.31523545847017,377.59481614318076 M253.21800733955456,383.17585951716376 L255.31523545847017,377.59481614318076 M253.21800733955456,383.17585951716376 L-225.36406988660974,154.34004381107746 M-225.36406988660974,154.34004381107746 L-225.01237159353195,149.40118421262565 M-225.01237159353195,149.40118421262565 L-312.2201315500715,107.97059562091817 M-312.3338141147773,112.75513432689428 L-312.2201315500715,107.97059562091817 M-312.3338141147773,112.75513432689428 L-388.49769680372617,76.33708807767835 M-388.49769680372617,76.33708807767835 L-388.9193956279273,50.170676472208925 M-388.9193956279273,50.170676472208925 L-392.5466439967212,48.4992015370633 M1196.75038587435,725.8994894659875 L-393.02854649096435,21.65729804991463 M1154.002920693612,761.1658211101536 L1196.75038587435,725.8994894659875 M-392.24434381429137,78.05705176128816 L-388.49769680372617,76.33708807767835 M-392.71794425883854,51.85029048368773 L-388.9193956279273,50.170676472208925 M-312.3338141147773,112.75513432689428 L-316.07922045950204,114.65472999906609 M-312.2201315500715,107.97059562091817 L-315.9747292067432,109.86288995387258 M-229.0852970223699,156.45569451353964 L-225.36406988660974,154.34004381107746 M-228.742600261745,151.50929283860796 L-225.01237159353195,149.40118421262565 M253.21800733955456,383.17585951716376 L250.0645300562694,386.68930310925543 M255.31523545847017,377.59481614318076 L252.15811768446918,381.10113347538106 M414.39597007500083,465.6512859861343 L417.1855239192298,461.5775427211913 M417.2613388113157,459.92478879338466 L420.0506122057411,455.85715912639023 M1099.2158953416294,787.6929235673786 L1098.8698373116497,794.5440029138912 M1139.0839651905824,754.2910064720375 L1138.9250041310563,761.1658045088287 M1153.9171116163727,768.1087636615779 L1154.002920693612,761.1658211101536 M1196.8800208446537,732.8600544710955 L1196.75038587435,725.8994894659875" stroke="black"  stroke-width="4"  fill="red"/></svg>