<svg viewBox="0 0 800 800" xmlns="http://www.w3.org/2000/svg"><path d="M670.1875671076541,4.8340962438051065 L610.463982769943,-27.773549627811008 M753.6962985537884,-80.2972130086323 L694.174338298586,-112.43430521481741 M670.1875671076541,4.8340962438051065 L668.2345567370858,12.207747030813152 M668.2345567370858,12.207747030813152 L666.9770404422425,18.78177303589746 M666.9770404422425,18.78177303589746 L666.4338985490795,24.45297927651609 M666.4338985490795,24.45297927651609 L666.6125333896562,29.132882392141255 M666.6125333896562,29.132882392141255 L667.5087795502932,32.74922979081475 M667.5087795502932,32.74922979081475 L669.10714125106,35.246791357245 M669.10714125106,35.246791357245 L671.3810366609669,36.58835275785077 M671.3810366609669,36.58835275785077 L674.2933503658987,36.75503061670361 M674.2933503658987,36.75503061670361 L677.7971181831017,35.74635466673999 M677.7971181831017,35.74635466673999 L681.8362539831733,33.58039589370628 M681.8362539831733,33.58039589370628 L686.3465747168138,30.293086722808766 M686.3465747168138,30.293086722808766 L691.2567624355506,25.93770739236561 M691.2567624355506,25.93770739236561 L696.4895676751385,20.583843801586227 M696.4895676751385,20.583843801586227 L701.9629924833689,14.316298563198416 M701.9629924833689,14.316298563198416 L707.5914845653178,7.233798861979267 M707.5914845653178,7.233798861979267 L713.2873740276063,-0.55273109337395 M713.2873740276063,-0.55273109337395 L718.9620437178064,-8.921679605869485 M718.9620437178064,-8.921679605869485 L724.5273723963746,-17.74279623218854 M724.5273723963746,-17.74279623218854 L729.8969467532788,-26.878875471290485 M729.8969467532788,-26.878875471290485 L734.9873946181433,-36.188033095079845 M734.9873946181433,-36.188033095079845 L739.7195897398278,-45.525727032773375 M739.7195897398278,-45.525727032773375 L744.0198629860188,-54.746845956102334 M744.0198629860188,-54.746845956102334 L747.8210594257735,-63.7079665551114 M747.8210594257735,-63.7079665551114 L751.0635668846344,-72.26934281294143 M751.0635668846344,-72.26934281294143 L753.6962985537884,-80.2972130086323 M610.463982769943,-27.773549627811008 L608.5453583027993,-20.404556104532276 M608.5453583027993,-20.404556104532276 L607.3232316961767,-13.831341897399852 M607.3232316961767,-13.831341897399852 L606.8159220108282,-8.157096456332965 M606.8159220108282,-8.157096456332965 L607.0302652980754,-3.4703607330352497 M607.0302652980754,-3.4703607330352497 L607.9615347291947,0.15649339352739844 M607.9615347291947,0.15649339352739844 L609.5936857528586,2.668057738756488 M609.5936857528586,2.668057738756488 L611.8996097093459,4.026884404192515 M611.8996097093459,4.026884404192515 L614.8416937061857,4.2138056015342045 M614.8416937061857,4.2138056015342045 L618.3725124757993,3.2280211056390726 M618.3725124757993,3.2280211056390726 L622.4355630323025,1.0872320390371897 M622.4355630323025,1.0872320390371897 L626.9662946530652,-2.1730322632197385 M626.9662946530652,-2.1730322632197385 L631.8930765121468,-6.499921500472283 M631.8930765121468,-6.499921500472283 L637.1384052832545,-11.824299247928593 M637.1384052832545,-11.824299247928593 L642.6200919241128,-18.06182489748062 M642.6200919241128,-18.06182489748062 L648.2524582837523,-25.114239079874096 M648.2524582837523,-25.114239079874096 L653.9477755948101,-32.87108347592584 M653.9477755948101,-32.87108347592584 L659.6174355794192,-41.21120429960956 M659.6174355794192,-41.21120429960956 L665.1733931899971,-50.004793873426934 M665.1733931899971,-50.004793873426934 L670.5293785975828,-59.11506838746982 M670.5293785975828,-59.11506838746982 L675.6022272600894,-68.40053825177847 M675.6022272600894,-68.40053825177847 L680.3130821396289,-77.71702361692087 M680.3130821396289,-77.71702361692087 L684.5886018805359,-86.91973764787372 M684.5886018805359,-86.91973764787372 L688.3620120772275,-95.86553972793263 M688.3620120772275,-95.86553972793263 L691.574129626355,-104.41492049294902 M691.574129626355,-104.41492049294902 L694.174338298586,-112.43430521481741 M670.2212874516435,4.799720712258932 L670.1875671076541,4.8340962438051065 M610.4977838480181,-27.807734464221085 L610.463982769943,-27.773549627811008 M610.4977838480181,-27.807734464221085 L670.2212874516435,4.799720712258932 M753.6962985537884,-80.2972130086323 L753.663065296033,-80.26333402742193 M694.1410241314725,-112.40061281748103 L753.663065296033,-80.26333402742193 M694.174338298586,-112.43430521481741 L694.1410241314725,-112.40061281748103 M753.663065296033,-80.26333402742193 L753.9270875223383,-81.10156104733369 M753.9270875223383,-81.10156104733369 L754.1838318370637,-81.93260512970119 M754.1838318370637,-81.93260512970119 L754.4332752200798,-82.7563918420451 M754.4332752200798,-82.7563918420451 L670.9177162898368,2.369400368112565 M670.9177162898368,2.369400368112565 L670.6779975706522,3.1874351561577896 M670.6779975706522,3.1874351561577896 L670.445841002962,3.9975736785540903 M670.445841002962,3.9975736785540903 L670.2212874516435,4.799720712258932 M694.1410241314725,-112.40061281748103 L694.4015428967623,-113.23802682337373 M694.4015428967623,-113.23802682337373 L694.6547642432934,-114.06829881359181 M694.6547642432934,-114.06829881359181 L694.9006654677032,-114.89135442323641 M694.9006654677032,-114.89135442323641 L611.1833944343816,-30.236153655692306 M611.1833944343816,-30.236153655692306 L610.9472652134345,-29.418795407615562 M610.9472652134345,-29.418795407615562 L610.71871482601,-28.609290658996542 M610.71871482601,-28.609290658996542 L610.4977838480181,-27.807734464221085 M670.9177162898368,2.369400368112565 L644.1424362326306,-12.24569549788339 M644.1424362326306,-12.24569549788339 L637.8761205386736,-15.666119276761492 M637.8761205386736,-15.666119276761492 L611.1833944343816,-30.236153655692306 M754.4332752200798,-82.7563918420451 L694.9006654677032,-114.89135442323641 M644.1424362326306,-12.24569549788339 L644.4038812246927,-12.670856454713885 M644.4038812246927,-12.670856454713885 L644.5007962077025,-13.153679540315807 M644.5007962077025,-13.153679540315807 L644.427971630178,-13.671506453114944 M644.427971630178,-13.671506453114944 L644.1892242562235,-14.199492217300758 M644.1892242562235,-14.199492217300758 L643.7958148815114,-14.712591658893416 M643.7958148815114,-14.712591658893416 L643.2665877440531,-15.18630355710502 M643.2665877440531,-15.18630355710502 L642.6265477691031,-15.598216254011732 M642.6265477691031,-15.598216254011732 L641.9063117156811,-15.928644555307073 M641.9063117156811,-15.928644555307073 L641.1403168810803,-16.161794684579036 M641.1403168810803,-16.161794684579036 L640.3647879187729,-16.286681068900634 M640.3647879187729,-16.286681068900634 L639.6167571042561,-16.29731929478112 M639.6167571042561,-16.29731929478112 L638.9316609401021,-16.193266173771462 M638.9316609401021,-16.193266173771462 L638.342052627966,-15.979502123962902 M638.342052627966,-15.979502123962902 L637.8761205386736,-15.666119276761492 M637.8761205386736,-15.666119276761492 L637.5253455790189,-15.209222444705574 M637.5253455790189,-15.209222444705574 L637.3832839807901,-14.671469889365198 M637.3832839807901,-14.671469889365198 L637.4587647731469,-14.085667141717295 M637.4587647731469,-14.085667141717295 L637.7471159636216,-13.487647648576058 M637.7471159636216,-13.487647648576058 L638.2308074152661,-12.913951252138759 M638.2308074152661,-12.913951252138759 L638.8798788923341,-12.399877951253984 M638.8798788923341,-12.399877951253984 L639.6554234981404,-11.976454264294716 M639.6554234981404,-11.976454264294716 L640.5091996177598,-11.670035587992516 M640.5091996177598,-11.670035587992516 L641.3897584615615,-11.498955635824586 M641.3897584615615,-11.498955635824586 L642.2424541739056,-11.474121455608383 M642.2424541739056,-11.474121455608383 L643.0159163408916,-11.596606113263533 M643.0159163408916,-11.596606113263533 L643.6623873397411,-11.859176586381182 M643.6623873397411,-11.859176586381182 L644.1424362326306,-12.24569549788339 M642.6265477691031,-15.598216254011732 L655.0187746397196,-57.71266373858498 M655.0187746397196,-57.71266373858498 L655.7222453481227,-57.25404382063243 M655.7222453481227,-57.25404382063243 L656.2871401804141,-56.72250119054479 M656.2871401804141,-56.72250119054479 L656.6799902136108,-56.14926854508258 M656.6799902136108,-56.14926854508258 L656.8784845626778,-55.56734388758014 M656.8784845626778,-55.56734388758014 L656.8703464166729,-55.01094482548342 M656.8703464166729,-55.01094482548342 L656.6568938678829,-54.511933690188016 M656.6568938678829,-54.511933690188016 L656.2499368512863,-54.099651110676405 M656.2499368512863,-54.099651110676405 L655.6731128364563,-53.798073246950025 M655.6731128364563,-53.798073246950025 L654.9605370707122,-53.62443578133116 M654.9605370707122,-53.62443578133116 L654.1527536572876,-53.58931357857591 M654.1527536572876,-53.58931357857591 L653.2974589069054,-53.69436637462513 M653.2974589069054,-53.69436637462513 L652.4438284665994,-53.933773468990694 M652.4438284665994,-53.933773468990694 L651.642145453724,-54.29327019188622 M651.642145453724,-54.29327019188622 L650.9382727270322,-54.75233144322192 M650.9382727270322,-54.75233144322192 L650.3739100169059,-55.28384470481751 M650.3739100169059,-55.28384470481751 L649.9809565307305,-55.85737101627092 M649.9809565307305,-55.85737101627092 L649.783194644433,-56.43905808570571 M649.783194644433,-56.43905808570571 L649.7912855185778,-56.99552976301902 M649.7912855185778,-56.99552976301902 L650.0053697745898,-57.494120064842264 M650.0053697745898,-57.494120064842264 L650.4124288760331,-57.90616306098218 M650.4124288760331,-57.90616306098218 L650.98880197178,-58.20773746567602 M650.98880197178,-58.20773746567602 L651.7015410065078,-58.38103008191774 M651.7015410065078,-58.38103008191774 L652.5086165767389,-58.41633209288193 M652.5086165767389,-58.41633209288193 L653.3639423607165,-58.3111555922228 M653.3639423607165,-58.3111555922228 L654.2168878547864,-58.07213652984501 M654.2168878547864,-58.07213652984501 L655.0187746397196,-57.71266373858498 M645.6152270601233,-38.49030665253531 L645.5030266293716,-38.227623672164555 M645.5030266293716,-38.227623672164555 L645.3252433889611,-37.96025042603833 M645.3252433889611,-37.96025042603833 L645.0995445578346,-37.695557247529905 M645.0995445578346,-37.695557247529905 L644.8449498427426,-37.43796613382165 M644.8449498427426,-37.43796613382165 L644.5826422489208,-37.190471916138904 M644.5826422489208,-37.190471916138904 L644.3308647250497,-36.95796217417319 M644.3308647250497,-36.95796217417319 L644.1069968118436,-36.746906168010355 M644.1069968118436,-36.746906168010355 L643.9825690892303,-36.623644755955866 M643.9825690892303,-36.623644755955866 L643.8668415249958,-36.5016060755911 M643.8668415249958,-36.5016060755911 L643.7810276169439,-36.40302746069847 M643.7810276169439,-36.40302746069847 L643.7312233838411,-36.338160785393484 M643.7312233838411,-36.338160785393484 L643.7017552192165,-36.29024467268937 M643.7017552192165,-36.29024467268937 L643.7007572017492,-36.2758581537928 M643.7007572017492,-36.2758581537928 L643.7278188404425,-36.30644248458157 M643.7278188404425,-36.30644248458157 L643.7755096900282,-36.38508211438284 M643.7755096900282,-36.38508211438284 L643.8213415162654,-36.47991704469041 M643.8213415162654,-36.47991704469041 L643.8698472347542,-36.60118838188191 M643.8698472347542,-36.60118838188191 L643.9191707233558,-36.74998681001898 M643.9191707233558,-36.74998681001898 L643.9646075229357,-36.91285239586341 M643.9646075229357,-36.91285239586341 L644.0198411371266,-37.14317743908123 M644.0198411371266,-37.14317743908123 L644.0809843533907,-37.4275274306392 M644.0809843533907,-37.4275274306392 L644.1445719399608,-37.726510044846236 M644.1445719399608,-37.726510044846236 L644.2152633225096,-38.02829086762449 M644.2152633225096,-38.02829086762449 L644.2987010924044,-38.32061110944869 M644.2987010924044,-38.32061110944869 L644.3980249241977,-38.59249806112621 M644.3980249241977,-38.59249806112621 L644.5158900204333,-38.83270103345831 M644.5158900204333,-38.83270103345831 L644.6523055786229,-39.03077824061074 M644.6523055786229,-39.03077824061074 L644.7669877431181,-39.14898261732969 M644.7669877431181,-39.14898261732969 L644.8856063956437,-39.23406065262543 M644.8856063956437,-39.23406065262543 L645.0081026198259,-39.28708038790228 M645.0081026198259,-39.28708038790228 L645.1304333267162,-39.308269985418974 M645.1304333267162,-39.308269985418974 L645.2872352772611,-39.288426604136475 M645.2872352772611,-39.288426604136475 L645.4436317294376,-39.205639556247206 M645.4436317294376,-39.205639556247206 L645.5655576264235,-39.06644021243619 M645.5655576264235,-39.06644021243619 L645.621474867542,-38.94305420594992 M645.621474867542,-38.94305420594992 L645.6502435101083,-38.80069816780815 M645.6502435101083,-38.80069816780815 L645.6488326915423,-38.657139410068794 M645.6488326915423,-38.657139410068794 L645.6364270568611,-38.57479456811461 M645.6364270568611,-38.57479456811461 L645.6152270601233,-38.49030665253531 M651.0549971148203,-35.527897689742076 L651.1310536958727,-35.753868931780744 M651.1310536958727,-35.753868931780744 L651.1759208748663,-35.85905270320927 M651.1759208748663,-35.85905270320927 L651.2252464280291,-35.953746889377726 M651.2252464280291,-35.953746889377726 L651.2629795001221,-36.010988106884724 M651.2629795001221,-36.010988106884724 L651.2840514265372,-36.032353638396216 M651.2840514265372,-36.032353638396216 L651.2832556671747,-36.02014360986641 M651.2832556671747,-36.02014360986641 L651.2571539522805,-35.97611370180448 M651.2571539522805,-35.97611370180448 L651.2015707549335,-35.903330275091776 M651.2015707549335,-35.903330275091776 L651.1155634698198,-35.804033491573136 M651.1155634698198,-35.804033491573136 L651.0151005904982,-35.697932659663365 M651.0151005904982,-35.697932659663365 L650.8707239799942,-35.554409659680914 M650.8707239799942,-35.554409659680914 L650.6785767589954,-35.37263461536713 M650.6785767589954,-35.37263461536713 L650.5166731168201,-35.223144393428356 M650.5166731168201,-35.223144393428356 L650.2923368970869,-35.01550755797052 M650.2923368970869,-35.01550755797052 L650.0382977352201,-34.7704590251642 M650.0382977352201,-34.7704590251642 L649.7988835552715,-34.51712855966889 M649.7988835552715,-34.51712855966889 L649.6483448212075,-34.33375565400138 M649.6483448212075,-34.33375565400138 L649.5211035565408,-34.149163266401956 M649.5211035565408,-34.149163266401956 L649.4277484821969,-33.97517884525632 M649.4277484821969,-33.97517884525632 L649.3689371417795,-33.82007594026254 M649.3689371417795,-33.82007594026254 L649.3337369187811,-33.63940842098282 M649.3337369187811,-33.63940842098282 L649.3401577671011,-33.45232539446397 M649.3401577671011,-33.45232539446397 L649.3914630097461,-33.289341523971416 M649.3914630097461,-33.289341523971416 L649.4802861450853,-33.1570792387588 M649.4802861450853,-33.1570792387588 L649.5980919761196,-33.06164160241724 M649.5980919761196,-33.06164160241724 L649.7360224376325,-33.0085389178289 M649.7360224376325,-33.0085389178289 L649.8863655252708,-33.00189302333183 M649.8863655252708,-33.00189302333183 L650.040862954862,-33.044980065772506 M650.040862954862,-33.044980065772506 L650.1926424619414,-33.138629902015964 M650.1926424619414,-33.138629902015964 L650.3086215734256,-33.25088072833796 M650.3086215734256,-33.25088072833796 L650.4088021334574,-33.3813490297357 M650.4088021334574,-33.3813490297357 L650.5285917352203,-33.59079387607699 M650.5285917352203,-33.59079387607699 L650.6133012877453,-33.78498451645373 M650.6133012877453,-33.78498451645373 L650.6901941961705,-34.00513147803758 M650.6901941961705,-34.00513147803758 L650.7770493052294,-34.317470986932676 M650.7770493052294,-34.317470986932676 L650.8593500916922,-34.67859155725819 M650.8593500916922,-34.67859155725819 L650.9094954802222,-34.91725381014612 M650.9094954802222,-34.91725381014612 L650.9587608979718,-35.14538281557088 M650.9587608979718,-35.14538281557088 L651.0033295894054,-35.33561567169545 M651.0033295894054,-35.33561567169545 L651.0287879941561,-35.43506286398497 M651.0287879941561,-35.43506286398497 L651.0549971148203,-35.527897689742076 M657.5499494268624,-60.27589536870346 L659.3089664948438,-59.12956300993437 M659.3089664948438,-59.12956300993437 L660.7209116681688,-57.80136204735027 M660.7209116681688,-57.80136204735027 L661.7041353109998,-56.36812342237681 M661.7041353109998,-56.36812342237681 L662.2006439444995,-54.91346957117503 M662.2006439444995,-54.91346957117503 L662.1815029978598,-53.521900280378304 M662.1815029978598,-53.521900280378304 L661.6477668887519,-52.27429411890944 M661.6477668887519,-52.27429411890944 L660.6305660623948,-51.24313810673084 M660.6305660623948,-51.24313810673084 L659.1889631065924,-50.48848860047201 M659.1889631065924,-50.48848860047201 L657.4065303572861,-50.05444933795661 M657.4065303572861,-50.05444933795661 L655.3868513200368,-49.96638410178275 M655.3868513200368,-49.96638410178275 L653.2473729587364,-50.2294855810469 M653.2473729587364,-50.2294855810469 L651.1133146286484,-50.82803321293159 M651.1133146286484,-50.82803321293159 L649.1083755120953,-51.72741054014523 M649.1083755120953,-51.72741054014523 L647.349245512547,-52.87519679227853 M647.349245512547,-52.87519679227853 L645.9378424783463,-54.20472734764871 M645.9378424783463,-54.20472734764871 L644.9567558067938,-55.638288279053086 M644.9567558067938,-55.638288279053086 L644.4624254595819,-57.092761604399584 M644.4624254595819,-57.092761604399584 L644.4836707494042,-58.48348029649651 M644.4836707494042,-58.48348029649651 L645.0185715563175,-59.72996926362566 M645.0185715563175,-59.72996926362566 L646.0364104289947,-60.75962784260855 M646.0364104289947,-60.75962784260855 L647.4779786133022,-61.512742714815886 M647.4779786133022,-61.512742714815886 L649.2590319825104,-61.94593115643147 M649.2590319825104,-61.94593115643147 L651.2766865547956,-62.0338159132416 M651.2766865547956,-62.0338159132416 L653.4135753751825,-61.77145426415245 M653.4135753751825,-61.77145426415245 L655.5461363515033,-61.173818837359704 M655.5461363515033,-61.173818837359704 L657.5499494268624,-60.27589536870346 M645.6152270601233,-38.49030665253531 L618.4618525705546,-53.27758610537421 M618.4618525705546,-53.27758610537421 L618.5236447155467,-53.54829677868338 M618.5236447155467,-53.54829677868338 L618.5327660128078,-53.75371418768327 M618.5327660128078,-53.75371418768327 L618.4887018249501,-53.88194919258922 M618.4887018249501,-53.88194919258922 L618.3939719733298,-53.92544978464184 M618.3939719733298,-53.92544978464184 L618.2541096430223,-53.881750627614565 M618.2541096430223,-53.881750627614565 L618.0772210161394,-53.75334801840381 M618.0772210161394,-53.75334801840381 L617.8736014486976,-53.54773843554767 M617.8736014486976,-53.54773843554767 L617.6550836889892,-53.27686767088335 M617.6550836889892,-53.27686767088335 L617.4343672808973,-52.95645442426712 M617.4343672808973,-52.95645442426712 L617.2242776956482,-52.60513622887311 M617.2242776956482,-52.60513622887311 L617.0370284372966,-52.24329903245871 M617.0370284372966,-52.24329903245871 L616.8835142933913,-51.892044039234406 M616.8835142933913,-51.892044039234406 L616.7726497168705,-51.57174813794836 M616.7726497168705,-51.57174813794836 L616.7108950768297,-51.30107964979288 M616.7108950768297,-51.30107964979288 L616.7018033596878,-51.09566294945898 M616.7018033596878,-51.09566294945898 L616.7459239335458,-50.967529106030725 M616.7459239335458,-50.967529106030725 L616.8406935577113,-50.92410254075912 M616.8406935577113,-50.92410254075912 L616.9805809447435,-50.96786931345605 M616.9805809447435,-50.96786931345605 L617.1574631648891,-51.09627995831761 M617.1574631648891,-51.09627995831761 L617.3610658228736,-51.3019028833578 M617.3610658228736,-51.3019028833578 L617.579560044026,-51.57278924031016 M617.579560044026,-51.57278924031016 L617.8002321845124,-51.89315002934836 M617.8002321845124,-51.89315002934836 L618.0102779192648,-52.244397415614 M618.0102779192648,-52.244397415614 L618.197482785522,-52.60612398691683 M618.197482785522,-52.60612398691683 L618.3509926644629,-52.957358296886014 M618.3509926644629,-52.957358296886014 L618.4618525705546,-53.27758610537421 M678.2913883531628,-20.695408686102837 L651.0549971148203,-35.527897689742076 M678.2913883531628,-20.695408686102837 L678.1792984660406,-20.374789149772823 M678.1792984660406,-20.374789149772823 L678.0247474989419,-20.022909002865163 M678.0247474989419,-20.022909002865163 L677.8367513451531,-19.660320118378877 M677.8367513451531,-19.660320118378877 L677.6262099840305,-19.308043923683726 M677.6262099840305,-19.308043923683726 L677.4053665590509,-18.98654766108166 M677.4053665590509,-18.98654766108166 L677.1870353173217,-18.71448503876536 M677.1870353173217,-18.71448503876536 L676.9839206034658,-18.507713465177403 M676.9839206034658,-18.507713465177403 L676.8078229583562,-18.378248522812555 M676.8078229583562,-18.378248522812555 L676.6689710096389,-18.333583085183363 M676.6689710096389,-18.333583085183363 L676.5754276253292,-18.376318808563155 M676.5754276253292,-18.376318808563155 L676.5326528808428,-18.50400991774677 M676.5326528808428,-18.50400991774677 L676.5431319813306,-18.709257705813798 M676.5431319813306,-18.709257705813798 L676.6062344733809,-18.980040891596673 M676.6062344733809,-18.980040891596673 L676.71832945797,-19.300728560588595 M676.71832945797,-19.300728560588595 L676.8728848407691,-19.652629559349407 M676.8728848407691,-19.652629559349407 L677.0609258464328,-20.015329449449382 M677.0609258464328,-20.015329449449382 L677.271511265998,-20.36767686902249 M677.271511265998,-20.36767686902249 L677.4923990315001,-20.689225977241676 M677.4923990315001,-20.689225977241676 L677.7107535685618,-20.961273246424298 M677.7107535685618,-20.961273246424298 L677.9138849793462,-21.168031570493895 M677.9138849793462,-21.168031570493895 L678.0899888980421,-21.297488402158706 M678.0899888980421,-21.297488402158706 L678.2288154756625,-21.342085941358164 M678.2288154756625,-21.342085941358164 L678.3223188282282,-21.299275797794962 M678.3223188282282,-21.299275797794962 L678.3650368776835,-21.171483080901908 M678.3650368776835,-21.171483080901908 L678.3545283645117,-20.966234276842897 M678.3545283645117,-20.966234276842897 L678.2913883531628,-20.695408686102837 M657.5499494268624,-60.27589536870346 L664.1181694551633,-82.5897432882939 M664.1181694551633,-82.5897432882939 L665.8801523191305,-81.44409291116062 M665.8801523191305,-81.44409291116062 L667.2947084604311,-80.11668175731711 M667.2947084604311,-80.11668175731711 L668.2800371392532,-78.68429495443752 M668.2800371392532,-78.68429495443752 L668.778021033293,-77.2305051788585 M668.778021033293,-77.2305051788585 L668.7596395065157,-75.83976204381861 M668.7596395065157,-75.83976204381861 L668.225902524262,-74.59289619742822 M668.225902524262,-74.59289619742822 L667.2079405654567,-73.56235179603073 M667.2079405654567,-73.56235179603073 L665.7648602363242,-72.80814974377836 M665.7648602363242,-72.80814974377836 L663.9803193656116,-72.37436777772837 M663.9803193656116,-72.37436777772837 L661.9580240461983,-72.28635474102703 M661.9580240461983,-72.28635474102703 L659.8155735708897,-72.54930026526245 M659.8155735708897,-72.54930026526245 L657.67836167736,-73.14749304611041 M657.67836167736,-73.14749304611041 L655.6702705107537,-74.04633702226602 M655.6702705107537,-74.04633702226602 L653.9081735976088,-75.19344234596701 M653.9081735976088,-75.19344234596701 L652.4941607848095,-76.52218378058433 M652.4941607848095,-76.52218378058433 L651.5109740304806,-77.95489339854794 M651.5109740304806,-77.95489339854794 L651.015174275788,-79.40850251749725 M651.015174275788,-79.40850251749725 L651.0356661812411,-80.79839443766195 M651.0356661812411,-80.79839443766195 L651.5705720734704,-82.04414200524116 M651.5705720734704,-82.04414200524116 L652.5891746072075,-83.07318788869634 M652.5891746072075,-83.07318788869634 L654.0322204306322,-83.82585447037673 M654.0322204306322,-83.82585447037673 L655.815378758818,-84.25878499919008 M655.815378758818,-84.25878499919008 L657.8356443698103,-84.34661742578646 M657.8356443698103,-84.34661742578646 L659.9754985574318,-84.08441199248955 M659.9754985574318,-84.08441199248955 L662.1112081222518,-83.4871323527118 M662.1112081222518,-83.4871323527118 L664.1181694551633,-82.5897432882939 M450.32796911208607,552.5109092608413 L392.41377999212455,519.0741365825329 M392.41377999212455,519.0741365825329 L45.56672477992015,879.4560934410733 M104.21458951824206,914.891354423236 L45.56672477992015,879.4560934410733 M450.32796911208607,552.5109092608413 L104.21458951824206,914.891354423236 M519.6921087245,315.5387259508011 L460.7471523907807,282.27160103644155 M519.6921087245,315.5387259508011 L450.32796911208607,552.5109092608413 M460.7471523907807,282.27160103644155 L392.41377999212455,519.0741365825329 M144.996978311171,605.8783134652003 L460.7471523907807,282.27160103644155 M111.99679692042719,725.9287952634595 L144.996978311171,605.8783134652003 M111.99679692042719,725.9287952634595 L77.92356728904633,761.0931795198867 M45.56672477992015,879.4560934410733 L77.92356728904633,761.0931795198867 M104.21458951824206,914.891354423236 L137.0986279052804,796.4566794039147 M77.92356728904633,761.0931795198867 L137.0986279052804,796.4566794039147 M137.0986279052804,796.4566794039147 L171.10102005790486,761.0932642569 M171.10102005790486,761.0932642569 L204.6360669434889,640.96387131857 M204.6360669434889,640.96387131857 L519.6921087245,315.5387259508011 M204.6360669434889,640.96387131857 L144.996978311171,605.8783134652003 M171.10102005790486,761.0932642569 L111.99679692042719,725.9287952634595 M506.53510617199936,446.9026667657495 L518.2565674804682,407.06778705672014 M518.2565674804682,407.06778705672014 L518.9354867948323,407.5315593437854 M518.9354867948323,407.5315593437854 L519.4788054231249,408.0690723415678 M519.4788054231249,408.0690723415678 L519.854330169158,408.64874211659344 M519.854330169158,408.64874211659344 L520.0407397793288,409.2371999114912 M520.0407397793288,409.2371999114912 L520.0264854595007,409.7998440339784 M520.0264854595007,409.7998440339784 L519.8132128981479,410.3044548507096 M519.8132128981479,410.3044548507096 L519.4127423583823,410.7213629884318 M519.4127423583823,410.7213629884318 L518.8483351147052,411.0263238590178 M518.8483351147052,411.0263238590178 L518.1533650454148,411.2019089395094 M518.1533650454148,411.2019089395094 L517.3673819369033,411.2374250750795 M517.3673819369033,411.2374250750795 L516.5367894236442,411.13119398284607 M516.5367894236442,411.13119398284607 L515.709344577398,410.88910144756437 M515.709344577398,410.88910144756437 L514.9337855209124,410.5255717203604 M514.9337855209124,410.5255717203604 L514.2544806699916,410.0613596087237 M514.2544806699916,410.0613596087237 L513.711675192354,409.52388129216433 M513.711675192354,409.52388129216433 L513.3360456576484,408.9439169148004 M513.3360456576484,408.9439169148004 L513.1503363745742,408.3556985728869 M513.1503363745742,408.3556985728869 L513.1645365940458,407.7929772385546 M513.1645365940458,407.7929772385546 L513.3784121587487,407.2887860859332 M513.3784121587487,407.2887860859332 L513.7789765973539,406.8721135644282 M513.7789765973539,406.8721135644282 L514.3429471287382,406.56715029656743 M514.3429471287382,406.56715029656743 L515.0380779938996,406.39191015427514 M515.0380779938996,406.39191015427514 L515.8233834206922,406.3562113888306 M515.8233834206922,406.3562113888306 L516.6540141104233,406.46256993633415 M516.6540141104233,406.46256993633415 L517.4808052366398,406.7042750658484 M517.4808052366398,406.7042750658484 L518.2565674804682,407.06778705672014 M506.53510617199936,446.9026667657495 L505.76157221978883,446.5388451656513 M505.76157221978883,446.5388451656513 L504.93701555085863,446.29693414265375 M504.93701555085863,446.29693414265375 L504.1084982563125,446.19048498756547 M504.1084982563125,446.19048498756547 L503.325059740062,446.22621416553966 M503.325059740062,446.22621416553966 L502.6314432029121,446.4016035912173 M502.6314432029121,446.4016035912173 L502.06854467903213,446.7068266216347 M502.06854467903213,446.7068266216347 L501.6685492029774,447.12385399773984 M501.6685492029774,447.12385399773984 L501.4547064383123,447.62847444658564 M501.4547064383123,447.62847444658564 L501.4399992527142,448.1916747931523 M501.4399992527142,448.1916747931523 L501.6246929497611,448.7803937163176 M501.6246929497611,448.7803937163176 L501.99885486932453,449.3608515154906 M501.99885486932453,449.3608515154906 L502.5398286604195,449.8987869877219 M502.5398286604195,449.8987869877219 L503.21704163081085,450.3633938451808 M503.21704163081085,450.3633938451808 L503.9903724657306,450.72723264222486 M503.9903724657306,450.72723264222486 L504.8155802162282,450.96953097323194 M504.8155802162282,450.96953097323194 L505.64405874559907,451.0758523619984 M505.64405874559907,451.0758523619984 L506.4281723858576,451.04030603817955 M506.4281723858576,451.04030603817955 L507.12162834043556,450.86457170527547 M507.12162834043556,450.86457170527547 L507.68496235760904,450.55935157985505 M507.68496235760904,450.55935157985505 L508.08486461531265,450.14208895807405 M508.08486461531265,450.14208895807405 L508.2981068007466,449.6370489936103 M508.2981068007466,449.6370489936103 L508.312868646628,449.07392624895374 M508.312868646628,449.07392624895374 L508.1274773443074,448.4849677378861 M508.1274773443074,448.4849677378861 L507.75342031937817,447.90480458923867 M507.75342031937817,447.90480458923867 L507.21193499738,447.36683397883326 M507.21193499738,447.36683397883326 L506.53510617199936,446.9026667657495 M520.7474125930203,404.4757403517265 L522.4450450761406,405.6349632966658 M522.4450450761406,405.6349632966658 L523.8030577083464,406.97809215059897 M523.8030577083464,406.97809215059897 L524.7429220613367,408.4274297877964 M524.7429220613367,408.4274297877964 L525.2091957020912,409.8984132054388 M525.2091957020912,409.8984132054388 L525.1747079094603,411.30559446858433 M525.1747079094603,411.30559446858433 L524.641411450727,412.56718965087384 M524.641411450727,412.56718965087384 L523.6404114394318,413.60990210514046 M523.6404114394318,413.60990210514046 L522.2298332969485,414.3730059646732 M522.2298332969485,414.3730059646732 L520.4914538563044,414.81190655012733 M520.4914538563044,414.81190655012733 L518.5262949494581,414.90095802443875 M518.5262949494581,414.90095802443875 L516.4486293015516,414.63490997541794 M516.4486293015516,414.63490997541794 L514.3800497996835,414.0296577625613 M514.3800497996835,414.0296577625613 L512.4404568101509,413.1202029307192 M512.4404568101509,413.1202029307192 L510.7427336159044,411.9595501668018 M510.7427336159044,411.9595501668018 L509.3852382672576,410.61510793719117 M509.3852382672576,410.61510793719117 L508.44740882542555,409.16545912952097 M508.44740882542555,409.16545912952097 L507.9831934087697,407.6946532484876 M507.9831934087697,407.6946532484876 L508.01966207011446,406.2883084993555 M508.01966207011446,406.2883084993555 L508.554037534117,405.0278062132438 M508.554037534117,405.0278062132438 L509.5556244279005,403.9865663968253 M509.5556244279005,403.9865663968253 L510.9661628845888,403.2249775590276 M510.9661628845888,403.2249775590276 L512.703228286081,402.7869137060884 M512.703228286081,402.7869137060884 L514.6664704555005,402.69803972265845 M514.6664704555005,402.69803972265845 L516.741684913396,402.96335439300856 M516.741684913396,402.96335439300856 L518.8088685140619,403.56771530462265 M518.8088685140619,403.56771530462265 L520.7474125930203,404.4757403517265 M522.1265085364694,399.79061454655584 L523.8247561492317,400.94972005156615 M523.8247561492317,400.94972005156615 L525.1833082000603,402.29271291303394 M525.1833082000603,402.29271291303394 L526.1236050433745,403.74190389899104 M526.1236050433745,403.74190389899104 L526.5901787992925,405.21273857590813 M526.5901787992925,405.21273857590813 L526.5558412388255,406.6197776447643 M526.5558412388255,406.6197776447643 L526.0225363349191,407.88124542305604 M526.0225363349191,407.88124542305604 L525.0213696909877,408.9238526338604 M525.0213696909877,408.9238526338604 L523.610476369694,409.68687950381263 M523.610476369694,409.68687950381263 L521.8716514459047,410.1257358209409 M521.8716514459047,410.1257358209409 L519.9059426558924,410.2147783144587 M519.9059426558924,410.2147783144587 L517.8276547387186,409.94875709734697 M517.8276547387186,409.94875709734697 L515.758417086703,409.3435659387351 M515.758417086703,409.3435659387351 L513.8181682481909,408.43420287959725 M513.8181682481909,408.43420287959725 L512.1198297102328,407.2736672930091 M512.1198297102328,407.2736672930091 L510.7617951942184,405.929360874753 M510.7617951942184,405.929360874753 L509.82353428035185,404.4798586010693 M509.82353428035185,404.4798586010693 L509.3590199413202,403.009201493368 M509.3590199413202,403.009201493368 L509.39533959405617,401.6029990921593 M509.39533959405617,401.6029990921593 L509.92972434780495,400.3426244708712 M509.92972434780495,400.3426244708712 L510.9314783758391,399.30149016838004 M510.9314783758391,399.30149016838004 L512.3423320550819,398.5399785383056 M512.3423320550819,398.5399785383056 L514.0798422861071,398.10195910736684 M514.0798422861071,398.10195910736684 L516.0436332668378,398.01309413732906 M516.0436332668378,398.01309413732906 L518.1194686199133,398.27838190118155 M518.1194686199133,398.27838190118155 L520.1873093685062,398.8826815347493 M520.1873093685062,398.8826815347493 L522.1265085364694,399.79061454655584 M522.1265085364694,399.79061454655584 L520.7474125930203,404.4757403517265 M587.4814770930398,83.9465124920348 L269.751324632718,407.7077078810248 M269.751324632718,407.7077078810248 L235.28569989174412,442.8275470891076 M235.28569989174412,442.8275470891076 L174.5284952584043,407.7076237328906 M527.5239336416735,50.863277976285644 L174.5284952584043,407.7076237328906 M587.4814770930398,83.9465124920348 L527.5239336416735,50.863277976285644 M269.751324632718,407.7077078810248 L587.4814770930398,83.9465124920348 M174.5284952584043,407.7076237328906 L527.5239336416735,50.863277976285644 M586.7580224679896,86.41808675190077 L269.0561483761776,410.1979713349042 M269.0561483761776,410.1979713349042 L234.59374529382512,445.3196807184381 M234.59374529382512,445.3196807184381 L173.84773251298157,410.1978871822521 M173.84773251298157,410.1978871822521 L526.8113126887574,53.33279532352162 M586.7580224679896,86.41808675190077 L526.8113126887574,53.33279532352162 M269.0561483761776,410.1979713349042 L586.7580224679896,86.41808675190077 M526.8113126887574,53.33279532352162 L173.84773251298157,410.1978871822521 M586.034780985743,88.88893284133746 L526.0989010993253,55.801587142342214 M233.90200074671066,447.81105783185285 L173.1671758251423,412.6873968628811 M586.034780985743,88.88893284133746 L268.36118253999666,412.6874810200452 M268.36118253999666,412.6874810200452 L233.90200074671066,447.81105783185285 M526.0989010993253,55.801587142342214 L173.1671758251423,412.6873968628811 M268.36118253999666,412.6874810200452 L586.034780985743,88.88893284133746 M173.1671758251423,412.6873968628811 L526.0989010993253,55.801587142342214" stroke="black"  stroke-width="4"  fill="red"/></svg>