<svg viewBox="0 0 800 800" xmlns="http://www.w3.org/2000/svg"><path d="M228.5921571852358,326.20232738285057 L63.944332996922014,409.56785861977903 M63.93204581985964,396.81865409755244 L63.944332996922014,409.56785861977903 M63.93204581985964,396.81865409755244 L63.93155966259144,396.64293047087165 M63.93155966259144,396.64293047087165 L63.93120057385045,396.46713234001476 M63.93120057385045,396.46713234001476 L63.93096747870544,396.29126025928247 M228.93828432489704,313.1991667268334 L63.93096747870544,396.29126025928247 M228.5921571852358,326.20232738285057 L228.93828432489704,313.1991667268334 M706.7837286115849,735.8239119832613 L692.9332769424867,728.7944832804033 M529.8420988516831,836.2327412642253 L692.9332769424867,728.7944832804033 M529.8420988516831,836.2327412642253 L332.21428925466296,728.7948514895835 M320.6235314157542,735.8242820732278 L332.21428925466296,728.7948514895835 M256.3112247116104,700.6921926185724 L320.6235314157542,735.8242820732278 M267.9165180742806,693.8401714426858 L256.3112247116104,700.6921926185724 M267.9165180742806,693.8401714426858 L14.888160889118751,556.2844660763699 M3.2660696810314676,562.4604065391502 L14.888160889118751,556.2844660763699 M-53.27374132245211,531.5742231674114 L3.2660696810314676,562.4604065391502 M-41.65670300724571,525.5445572193761 L-53.27374132245211,531.5742231674114 M-41.65670300724571,525.5445572193761 L-90.37874065799309,499.05743012228015 M74.76869725131206,415.06147706615525 L-90.37874065799309,499.05743012228015 M74.76869725131206,415.06147706615525 L63.944332996922014,409.56785861977903 M867.8010769813042,629.1280054025734 L228.5921571852358,326.20232738285057 M706.7837286115849,735.8239119832613 L867.8010769813042,629.1280054025734 M153.65390604685336,369.53037590748175 L153.5020349255774,369.47185034636317 M153.5020349255774,369.47185034636317 L153.32711022369904,369.4329078884479 M153.32711022369904,369.4329078884479 L153.13930626932307,369.41580412196606 M153.13930626932307,369.41580412196606 L152.94953575574255,369.4215303010644 M152.94953575574255,369.4215303010644 L152.76880417774981,369.4497637130532 M152.76880417774981,369.4497637130532 L152.60762639360144,369.4988564387642 M152.60762639360144,369.4988564387642 L152.4753713655228,369.56595569382824 M152.4753713655228,369.56595569382824 L152.3797075985682,369.64717357353527 M152.3797075985682,369.64717357353527 L152.32620127654235,369.73779016503573 M152.32620127654235,369.73779016503573 L152.31798338464432,369.83253268129647 M152.31798338464432,369.83253268129647 L152.35551754737043,369.92590450832205 M152.35551754737043,369.92590450832205 L152.4366309339465,370.01247664856544 M152.4366309339465,370.01247664856544 L152.55662405834005,370.0872098151347 M152.55662405834005,370.0872098151347 L152.70851162454034,370.1457657011883 M152.70851162454034,370.1457657011883 L152.8834783047979,370.1847313301354 M152.8834783047979,370.1847313301354 L153.07134069108133,370.20184607408794 M153.07134069108133,370.20184607408794 L153.26117270394445,370.1961161654216 M153.26117270394445,370.1961161654216 L153.4419547643089,370.16786516527634 M153.4419547643089,370.16786516527634 L153.60316044504157,370.11874502735066 M153.60316044504157,370.11874502735066 L153.7354143948868,370.05161481604495 M153.7354143948868,370.05161481604495 L153.8310483556641,369.97036952384576 M153.8310483556641,369.97036952384576 L153.8845029701439,369.87973534551827 M153.8845029701439,369.87973534551827 L153.89265910288452,369.7849890977384 M153.89265910288452,369.7849890977384 L153.85506727297297,369.69162824849917 M153.85506727297297,369.69162824849917 L153.77391352222907,369.6050792815136 M153.77391352222907,369.6050792815136 L153.65390604685336,369.53037590748175 M782.5137148679065,677.6891203611535 L782.324982314779,677.6145754839839 M782.324982314779,677.6145754839839 L782.1160382713855,677.5649767461526 M782.1160382713855,677.5649767461526 L781.8990484369059,677.5432045079768 M781.8990484369059,677.5432045079768 L781.6865813459248,677.5505015494942 M781.6865813459248,677.5505015494942 L781.4909508703266,677.5864518188682 M781.4909508703266,677.5864518188682 L781.3235946567496,677.6489857109474 M781.3235946567496,677.6489857109474 L781.1942000241239,677.7344497667516 M781.1942000241239,677.7344497667516 L781.1102705346333,677.8378924098637 M781.1102705346333,677.8378924098637 L781.0767325614514,677.9533225315001 M781.0767325614514,677.9533225315001 L781.0955000077817,678.0739952528144 M781.0955000077817,678.0739952528144 L781.165479899986,678.1929144908166 M781.165479899986,678.1929144908166 L781.2826533272943,678.3031845594032 M781.2826533272943,678.3031845594032 L781.440208975158,678.3983785356098 M781.440208975158,678.3983785356098 L781.6289718307543,678.4729666249522 M781.6289718307543,678.4729666249522 L781.8379770861831,678.5225986708109 M781.8379770861831,678.5225986708109 L782.0550891750123,678.5444083330458 M782.0550891750123,678.5444083330458 L782.2676333494363,678.5371059274589 M782.2676333494363,678.5371059274589 L782.4633222584615,678.5011303816939 M782.4633222584615,678.5011303816939 L782.6307048386215,678.438557080281 M782.6307048386215,678.438557080281 L782.7600877526219,678.3530485239446 M782.7600877526219,678.3530485239446 L782.8439701208976,678.2495664761259 M782.8439701208976,678.2495664761259 L782.8774363463164,678.1341110707564 M782.8774363463164,678.1341110707564 L782.8585889916368,678.0134329861472 M782.8585889916368,678.0134329861472 L782.7884951560364,677.894507884254 M782.7884951560364,677.894507884254 L782.6712780601312,677.7842711274387 M782.6712780601312,677.7842711274387 L782.5137148679065,677.6891203611535 M74.77986975061162,402.29538644257946 L63.93204581985964,396.81865409755244 M74.77986975061162,402.29538644257946 L74.76869725131206,415.06147706615525 M74.77976239145397,401.76729231257804 L74.77967180658896,401.94339814949797 M74.77967180658896,401.94339814949797 L74.7797072346649,402.11942971175904 M74.7797072346649,402.11942971175904 L74.77986975061162,402.29538644257946 M63.93096747870544,396.29126025928247 L74.77976239145397,401.76729231257804 M694.5226094281662,714.5883680604148 L708.4125461002171,721.5994452395967 M708.4125461002171,721.5994452395967 L869.7631961254568,615.1915617166414 M869.7631961254568,615.1915617166414 L228.93828432489704,313.1991667268334 M74.77976239145397,401.76729231257804 L-90.75274989832292,485.50097949640497 M-90.75274989832292,485.50097949640497 L-41.919554447382154,511.9081946211585 M-41.919554447382154,511.9081946211585 L-53.56472125881868,517.9198498853866 M-53.56472125881868,517.9198498853866 L3.1070603020031626,548.7148278552401 M3.1070603020031626,548.7148278552401 L14.75731613610185,542.5569838366725 M14.75731613610185,542.5569838366725 L268.4158843007906,679.7263072017864 M268.4158843007906,679.7263072017864 L256.78255252441886,686.5599948736265 M256.78255252441886,686.5599948736265 L321.26540680979826,721.5994452395967 M321.26540680979826,721.5994452395967 L332.88409208753956,714.5883680604147 M332.88409208753956,714.5883680604147 L531.0618788647063,821.7557037230938 M694.5226094281662,714.5883680604148 L531.0618788647063,821.7557037230938 M154.6646662534676,355.9672648577344 L154.96538210613613,356.1533584961225 M154.96538210613613,356.1533584961225 L155.16882156678122,356.36897130467906 M155.16882156678122,356.36897130467906 L155.26314083737435,356.6015853235342 M155.26314083737435,356.6015853235342 L155.24282672118852,356.8376870070163 M155.24282672118852,356.8376870070163 L155.10901785254714,357.0635583064333 M155.10901785254714,357.0635583064333 L154.8694833779728,357.26605268766093 M154.8694833779728,357.26605268766093 L154.53810513603247,357.4333985805515 M154.53810513603247,357.4333985805515 L154.13416216721157,357.5558432421085 M154.13416216721157,357.5558432421085 L153.68112276751333,357.62626760833706 M153.68112276751333,357.62626760833706 L153.2053635277431,357.6405591522728 M153.2053635277431,357.6405591522728 L152.7345563420016,357.59788976828213 M152.7345563420016,357.59788976828213 L152.2960956878909,357.50074548134876 M152.2960956878909,357.50074548134876 L151.91548521513687,357.35478385421925 M151.91548521513687,357.35478385421925 L151.61485659154152,357.1685028148513 M151.61485659154152,357.1685028148513 L151.41166995912522,356.95274506833584 M151.41166995912522,356.95274506833584 L151.31771324342634,356.7200627757485 M151.31771324342634,356.7200627757485 L151.33841480828806,356.4839842571317 M151.33841480828806,356.4839842571317 L151.47254828848605,356.2582227558549 M151.47254828848605,356.2582227558549 L151.71226989227733,356.05589951460746 M151.71226989227733,356.05589951460746 L152.04365491865633,355.8887469060604 M152.04365491865633,355.8887469060604 L152.44742277247434,355.7664733824323 M152.44742277247434,355.7664733824323 L152.90014526868072,355.6961588176149 M152.90014526868072,355.6961588176149 L153.37551869515727,355.68189070180625 M153.37551869515727,355.68189070180625 L153.84595851443441,355.7244912816758 M153.84595851443441,355.7244912816758 L154.28415618406552,355.8214911598453 M154.28415618406552,355.8214911598453 L154.6646662534676,355.9672648577344 M785.1047189971263,663.0885558326991 L785.4997984893349,663.3257229300351 M785.4997984893349,663.3257229300351 L785.7938295393989,663.6004862552459 M785.7938295393989,663.6004862552459 L785.9698129868101,663.8969498409874 M785.9698129868101,663.8969498409874 L786.0174094436769,664.1978560837193 M786.0174094436769,664.1978560837193 L785.9338245944979,664.4857325646016 M785.9338245944979,664.4857325646016 L785.723884063449,664.7438157300896 M785.723884063449,664.7438157300896 L785.3997558606026,664.9571073790386 M785.3997558606026,664.9571073790386 L784.9802914777193,665.1131743825381 M784.9802914777193,665.1131743825381 L784.4898460238882,665.2029331219996 M784.4898460238882,665.2029331219996 L783.9569872732544,665.2211470230812 M783.9569872732544,665.2211470230812 L783.4126908221161,665.1667491190246 M783.4126908221161,665.1667491190246 L782.8887063246392,665.0429455022396 M782.8887063246392,665.0429455022396 L782.4154068452436,664.856894218873 M782.4154068452436,664.856894218873 L782.0204188591364,664.6194786983365 M782.0204188591364,664.6194786983365 L781.7266176666504,664.344485639673 M781.7266176666504,664.344485639673 L781.5511167727717,664.0479450287918 M781.5511167727717,664.0479450287918 L781.5040223068216,663.7470723057983 M781.5040223068216,663.7470723057983 L781.5880578801399,663.459353801889 M781.5880578801399,663.459353801889 L781.7982945837304,663.2015168661491 M781.7982945837304,663.2015168661491 L782.1224965855857,662.9885033088095 M782.1224965855857,662.9885033088095 L782.5417954835406,662.832682536618 M782.5417954835406,662.832682536618 L783.0318740588374,662.7430817700364 M783.0318740588374,662.7430817700364 L783.5642486075268,662.7249013825768 M783.5642486075268,662.7249013825768 L784.1080101660378,662.7791790862263 M784.1080101660378,662.7791790862263 L784.6316543320651,662.9027961451854 M784.6316543320651,662.9027961451854 L785.1047189971263,663.0885558326991 M867.8010769813042,629.1280054025734 L869.7631961254568,615.1915617166414 M708.3483285562626,722.1645964592706 L694.4599624543479,715.1527879771744 M708.3483285562626,722.1645964592706 L706.7837286115849,735.8239119832613 M694.4599624543479,715.1527879771744 L692.9332769424867,728.7944832804033 M694.4599624543479,715.1527879771744 L694.4807187787507,714.9647424022828 M694.4807187787507,714.9647424022828 L694.5016014557071,714.7766021942092 M694.5016014557071,714.7766021942092 L694.5226094281662,714.5883680604148 M529.8420988516831,836.2327412642253 L531.0618788647063,821.7557037230938 M332.21428925466296,728.7948514895835 L332.88409208753956,714.5883680604147 M320.6235314157542,735.8242820732278 L321.26540680979826,721.5994452395967 M256.3112247116104,700.6921926185724 L256.78255252441886,686.5599948736265 M267.9165180742806,693.8401714426858 L268.4158843007906,679.7263072017864 M14.888160889118751,556.2844660763699 L14.75731613610185,542.5569838366725 M3.2660696810314676,562.4604065391502 L3.1070603020031626,548.7148278552401 M-53.27374132245211,531.5742231674114 L-53.56472125881868,517.9198498853866 M-41.65670300724571,525.5445572193761 L-41.919554447382154,511.9081946211585 M-90.37874065799309,499.05743012228015 L-90.75274989832292,485.50097949640497 M708.4125461002171,721.5994452395967 L708.3910146613317,721.7879236071477 M708.3910146613317,721.7879236071477 L708.3696084612633,721.9763075840524 M708.3696084612633,721.9763075840524 L708.3483285562626,722.1645964592706 M153.65390604685336,369.53037590748175 L153.82064566756128,357.7663556495928 M153.82064566756128,357.7663556495928 L153.94089647556103,357.8408398360633 M153.94089647556103,357.8408398360633 L154.02221730360105,357.927134870792 M154.02221730360105,357.927134870792 L154.0598902546356,358.0202218157668 M154.0598902546356,358.0202218157668 L154.05172455987184,358.1146901094795 M154.05172455987184,358.1146901094795 L153.9981701973856,358.2050584110574 M153.9981701973856,358.2050584110574 L153.90235211505382,358.28606538047563 M153.90235211505382,358.28606538047563 L153.76984036809267,358.352998682026 M153.76984036809267,358.352998682026 L153.60831816172373,358.40197474297446 M153.60831816172373,358.40197474297446 L153.42717926018048,358.4301428803624 M153.42717926018048,358.4301428803624 L153.23697087654614,358.4358559828453 M153.23697087654614,358.4358559828453 L153.0487344489739,358.4187914376768 M153.0487344489739,358.4187914376768 L152.8734178209799,358.37994009954673 M152.8734178209799,358.37994009954673 L152.72122477488563,358.3215559695742 M152.72122477488563,358.3215559695742 L152.6009883717366,358.24704201849613 M152.6009883717366,358.24704201849613 L152.51970806661427,358.1607238326427 M152.51970806661427,358.1607238326427 L152.4820930111024,358.06762592036654 M152.4820930111024,358.06762592036654 L152.49032071063766,357.9731613546089 M152.49032071063766,357.9731613546089 L152.54392698731306,357.8828106230606 M152.54392698731306,357.8828106230606 L152.63977499613776,357.8018310399526 M152.63977499613776,357.8018310399526 L152.77228782776416,357.7349286650774 M152.77228782776416,357.7349286650774 L152.93378202862397,357.68597999016174 M152.93378202862397,357.68597999016174 L153.11487024846093,357.6578294241318 M153.11487024846093,357.6578294241318 L153.3050168887483,357.6521200476549 M153.3050168887483,357.6521200476549 L153.4931946515145,357.6691736258372 M153.4931946515145,357.6691736258372 L153.6684691327505,357.7080018150664 M153.6684691327505,357.7080018150664 L153.82064566756128,357.7663556495928 M782.5137148679065,677.6891203611535 L784.1105189907236,665.0993206534131 M784.1105189907236,665.0993206534131 L784.2684914193377,665.1942406665783 M784.2684914193377,665.1942406665783 L784.3860363289967,665.3042101034672 M784.3860363289967,665.3042101034672 L784.4563575798333,665.4228468390432 M784.4563575798333,665.4228468390432 L784.4753185960116,665.5432323306381 M784.4753185960116,665.5432323306381 L784.4418457430105,665.6584078282912 M784.4418457430105,665.6584078282912 L784.3578366988824,665.7616390150722 M784.3578366988824,665.7616390150722 L784.2282145129428,665.8469402950348 M784.2282145129428,665.8469402950348 L784.0604939314686,665.909361923761 M784.0604939314686,665.909361923761 L783.864387847933,665.9452502706044 M783.864387847933,665.9452502706044 L783.6513717663003,665.9525349765987 M783.6513717663003,665.9525349765987 L783.4337603237901,665.9307781769498 M783.4337603237901,665.9307781769498 L783.2242574446176,665.8812664329164 M783.2242574446176,665.8812664329164 L783.0350275915772,665.8068591433585 M783.0350275915772,665.8068591433585 L782.8770627155592,665.7118959284762 M782.8770627155592,665.7118959284762 L782.7595616506281,665.601893186141 M782.7595616506281,665.601893186141 L782.6893547585645,665.4832622649715 M782.6893547585645,665.4832622649715 L782.6704740123333,665.3628821356533 M782.6704740123333,665.3628821356533 L782.7040189498965,665.2477319169328 M782.7040189498965,665.2477319169328 L782.7880753499463,665.1445401273763 M782.7880753499463,665.1445401273763 L782.9177093334432,665.0592833394966 M782.9177093334432,665.0592833394966 L783.085403453423,664.9969011126216 M783.085403453423,664.9969011126216 L783.2814508564135,664.9610380373698 M783.2814508564135,664.9610380373698 L783.4943895120326,664.9537586944265 M783.4943895120326,664.9537586944265 L783.7118782288363,664.9754781254929 M783.7118782288363,664.9754781254929 L783.9213196016773,665.0249565678231 M783.9213196016773,665.0249565678231 L784.1105189907236,665.0993206534131 M154.6646662534676,355.9672648577344 L154.64487554033485,357.35012498474845 M154.64487554033485,357.35012498474845 L154.94551986314423,357.5362832775552 M154.94551986314423,357.5362832775552 L155.14891017708237,357.7519709878999 M155.14891017708237,357.7519709878999 L155.2432055500778,357.98466580441277 M155.2432055500778,357.98466580441277 L155.22289418877835,358.22084948617015 M155.22289418877835,358.22084948617015 L155.08911458485562,358.44679922065 M155.08911458485562,358.44679922065 L154.8496341924112,358.6493639107024 M154.8496341924112,358.6493639107024 L154.5183317198031,358.81676790233485 M154.5183317198031,358.81676790233485 L154.11448179966294,358.9392550704668 M154.11448179966294,358.9392550704668 L153.66154731860826,359.00970388313596 M153.66154731860826,359.00970388313596 L153.18589875272488,359.0240003879833 M153.18589875272488,359.0240003879833 L152.71520155120027,358.9813161923857 M152.71520155120027,358.9813161923857 L152.27684378474163,358.88413818292213 M152.27684378474163,358.88413818292213 L151.89632311317462,358.7381258834137 M151.89632311317462,358.7381258834137 L151.59576598049023,358.55178016824 M151.59576598049023,358.55178016824 L151.39262837814675,358.3359475032859 M151.39262837814675,358.3359475032859 L151.29869539196062,358.10318440528806 M151.29869539196062,358.10318440528806 L151.31939402132656,357.8670238910165 M151.31939402132656,357.8670238910165 L151.45349808480262,357.64118396724376 M151.45349808480262,357.64118396724376 L151.69316551795788,357.43879043675923 M151.69316551795788,357.43879043675923 L152.02447477026794,357.2715797515927 M152.02447477026794,357.2715797515927 L152.42814965552338,357.14926374097723 M152.42814965552338,357.14926374097723 L152.8807673797079,357.0789247422864 M152.8807673797079,357.0789247422864 L153.3560303117652,357.06465166827854 M153.3560303117652,357.06465166827854 L153.8263603182698,357.1072670518182 M153.8263603182698,357.1072670518182 L154.2644552239737,357.20430063605164 M154.2644552239737,357.20430063605164 L154.64487554033485,357.35012498474845 M785.1047189971263,663.0885558326991 L784.9167667284752,664.5689107334979 M784.9167667284752,664.5689107334979 L785.3117258615886,664.806145998428 M785.3117258615886,664.806145998428 L785.6056604550196,665.0809882835641 M785.6056604550196,665.0809882835641 L785.7815769317125,665.3775370487875 M785.7815769317125,665.3775370487875 L785.8291398370692,665.6785297299014 M785.8291398370692,665.6785297299014 L785.7455568231006,665.9664888896776 M785.7455568231006,665.9664888896776 L785.5356534281972,666.2246461635771 M785.5356534281972,666.2246461635771 L785.2115955194998,666.4379990492623 M785.2115955194998,666.4379990492623 L784.7922305040412,666.5941108544829 M784.7922305040412,666.5941108544829 L784.3019077192217,666.6838953585814 M784.3019077192217,666.6838953585814 L783.7691877862134,666.7021144876475 M783.7691877862134,666.7021144876475 L783.2250382213925,666.6477009694232 M783.2250382213925,666.6477009694232 L782.7012000974888,666.5238618143637 M782.7012000974888,666.5238618143637 L782.2280379869263,666.3377571186745 M782.2280379869263,666.3377571186745 L781.8331703407772,666.1002734301513 M781.8331703407772,666.1002734301513 L781.5394654885155,665.8252014002782 M781.5394654885155,665.8252014002782 L781.3640313287812,665.528575613708 M781.3640313287812,665.528575613708 L781.3169701482146,665.2276164531513 M781.3169701482146,665.2276164531513 L781.4010036384617,664.9398152742059 M781.4010036384617,664.9398152742059 L781.6112030331097,664.6819042360678 M781.6112030331097,664.6819042360678 L781.935334682653,664.468829448783 M781.935334682653,664.468829448783 L782.3545342829815,664.3129638808833 M782.3545342829815,664.3129638808833 L782.8444903710468,664.2233373535229 M782.8444903710468,664.2233373535229 L783.3767263542167,664.2051517388971 M783.3767263542167,664.2051517388971 L783.9203413042341,664.259445048105 M783.9203413042341,664.259445048105 L784.4438393001643,664.3830976464567 M784.4438393001643,664.3830976464567 L784.9167667284752,664.5689107334979" stroke="black"  stroke-width="4"  fill="red"/>
<path d="M706.7837286115849,735.8239119832613 L532.2881419060774,851.4509857512605 M706.7837286115849,735.8239119832613 L692.9332769424867,728.7944832804033 M518.3220721805448,843.8216961786669 L692.9332769424867,728.7944832804033 M532.2881419060774,851.4509857512605 L518.3220721805448,843.8216961786669 M708.3483285562626,722.1645964592706 L706.7837286115849,735.8239119832613 M815.0650002026063,475.16558314690667 L809.43168323375,482.44760225028665 M809.43168323375,482.44760225028665 L803.8693370481957,489.9373878476225 M803.8693370481957,489.9373878476225 L798.3869897247129,497.6232086782499 M798.3869897247129,497.6232086782499 L792.9935379206178,505.4929283271239 M792.9935379206178,505.4929283271239 L787.6977186051164,513.5341610548952 M787.6977186051164,513.5341610548952 L782.5081164423406,521.7340506979692 M782.5081164423406,521.7340506979692 L777.4331367137489,530.0795165377964 M777.4331367137489,530.0795165377964 L772.48096106951,538.5571995462167 M772.48096106951,538.5571995462167 L767.6595623225204,547.1535060083015 M767.6595623225204,547.1535060083015 L762.9766790057791,555.8544999693117 M762.9766790057791,555.8544999693117 L758.4397771386779,564.6462468670525 M758.4397771386779,564.6462468670525 L754.0560574989246,573.5145100685795 M754.0560574989246,573.5145100685795 L749.8324203655476,582.4450492008856 M749.8324203655476,582.4450492008856 L745.7754769242555,591.4234043370091 M745.7754769242555,591.4234043370091 L741.8915019758125,600.4352019275541 M741.8915019758125,600.4352019275541 L738.1864451789658,609.4659841348905 M738.1864451789658,609.4659841348905 L734.6659211630359,618.5012283423767 M734.6659211630359,618.5012283423767 L731.3351800631227,627.526553636697 M731.3351800631227,627.526553636697 L728.1991030992334,636.5276922305343 M728.1991030992334,636.5276922305343 L725.2622195646376,645.4903178015034 M725.2622195646376,645.4903178015034 L722.5286678978435,654.4003442960332 M722.5286678978435,654.4003442960332 L720.002191777353,663.2439400212662 M720.002191777353,663.2439400212662 L717.6861696555637,672.0072619969595 M717.6861696555637,672.0072619969595 L715.5835699867501,680.6768422706856 M715.5835699867501,680.6768422706856 L713.6969724151232,689.2394130017063 M713.6969724151232,689.2394130017063 L712.0285572690563,697.6820102302281 M712.0285572690563,697.6820102302281 L710.5801132201965,705.9919365539914 M710.5801132201965,705.9919365539914 L709.3530406907227,714.1567692101896 M709.3530406907227,714.1567692101896 L708.3483285562626,722.1645964592706 M815.5995059180117,474.48942197540146 L815.6124690049679,474.56332810079056 M815.6124690049679,474.56332810079056 L815.6091485443134,474.6526089522062 M815.6091485443134,474.6526089522062 L815.5897351446723,474.7520241948921 M815.5897351446723,474.7520241948921 L815.5553739783603,474.85579062831044 M815.5553739783603,474.85579062831044 L815.5080285462155,474.95797762335314 M815.5080285462155,474.95797762335314 L815.4504829435219,475.0525498709395 M815.4504829435219,475.0525498709395 L815.386063097039,475.1340287993195 M815.386063097039,475.1340287993195 L815.3185172809118,475.1976995738011 M815.3185172809118,475.1976995738011 L815.2517617615373,475.23990138138186 M815.2517617615373,475.23990138138186 L815.1896849030999,475.25810369753833 M815.1896849030999,475.25810369753833 L815.135897149153,475.25128336764317 M815.135897149153,475.25128336764317 L815.0935090540617,475.2198390222459 M815.0935090540617,475.2198390222459 L815.0650002026063,475.16558314690667 M925.238851720563,221.1617942352314 L923.885521263668,230.07713116948773 M923.885521263668,230.07713116948773 L922.3246455155851,239.0771306520735 M922.3246455155851,239.0771306520735 L920.5589843930339,248.15046384293868 M920.5589843930339,248.15046384293868 L918.5914552432497,257.2860882384339 M918.5914552432497,257.2860882384339 L916.4251545605379,266.4728502957697 M916.4251545605379,266.4728502957697 L914.0633535946298,275.69971054046255 M914.0633535946298,275.69971054046255 L911.5094947247834,284.9556414583887 M911.5094947247834,284.9556414583887 L908.7672001699419,294.22965773060434 M908.7672001699419,294.22965773060434 L905.8402387081904,303.5108244263215 M905.8402387081904,303.5108244263215 L902.7325591168777,312.7882263643299 M902.7325591168777,312.7882263643299 L899.4482275801489,322.0510852017862 M899.4482275801489,322.0510852017862 L895.9915120778961,331.2886979148113 M895.9915120778961,331.2886979148113 L892.3667795717002,340.4903041526984 M892.3667795717002,340.4903041526984 L888.5785345315754,349.64541711440506 M888.5785345315754,349.64541711440506 L884.6314468076647,358.743522570749 M884.6314468076647,358.743522570749 L880.5303165649319,367.7741803428507 M880.5303165649319,367.7741803428507 L876.2800400091036,376.7271248965136 M876.2800400091036,376.7271248965136 L871.885683817285,385.59207516950397 M871.885683817285,385.59207516950397 L867.3524135663541,394.35894825040816 M867.3524135663541,394.35894825040816 L862.6855125619746,403.0177484791622 M862.6855125619746,403.0177484791622 L857.8903958266175,411.5585502735886 M857.8903958266175,411.5585502735886 L852.972586512324,419.97159369972576 M852.972586512324,419.97159369972576 L847.9377188315453,428.2471851037856 M847.9377188315453,428.2471851037856 L842.7915401204315,436.3757781064985 M842.7915401204315,436.3757781064985 L837.5399033937787,444.3480158093463 M837.5399033937787,444.3480158093463 L832.1887668412854,452.1545462089231 M832.1887668412854,452.1545462089231 L826.7441966138214,459.7862828009669 M826.7441966138214,459.7862828009669 L821.2123562057105,467.2341828755238 M821.2123562057105,467.2341828755238 L815.5995059180117,474.48942197540146 M580.8979976611723,417.09696747140583 L925.238851720563,221.1617942352314 M561.6516214023051,638.4910689335501 L580.8979976611723,417.09696747140583 M549.7526967823887,645.8420900849518 L561.6516214023051,638.4910689335501 M532.2881419060774,851.4509857512605 L549.7526967823887,645.8420900849518 M708.3483285562626,722.1645964592706 L694.4599624543479,715.1527879771744 M694.4599624543479,715.1527879771744 L692.9332769424867,728.7944832804033 M518.3220721805448,843.8216961786669 L535.2128625126021,638.4910689335501 M547.1190302052548,631.1803702376267 L535.2128625126021,638.4910689335501 M547.1190302052548,631.1803702376267 L565.743722958625,410.1320063491564 M910.3934363034258,215.2674088618996 L565.743722958625,410.1320063491564 M910.3934363034258,215.2674088618996 L909.0648224759192,224.16781205645879 M909.0648224759192,224.16781205645879 L907.5283109335056,233.15236881340164 M907.5283109335056,233.15236881340164 L905.7866317857537,242.20976807481804 M905.7866317857537,242.20976807481804 L903.8426742217904,251.32898473537875 M903.8426742217904,251.32898473537875 L901.699507015096,260.49888286719704 M901.699507015096,260.49888286719704 L899.3603748461181,269.7084405465702 M899.3603748461181,269.7084405465702 L896.8286943381528,278.94664789867977 M896.8286943381528,278.94664789867977 L894.1080628907056,288.2025373399694 M894.1080628907056,288.2025373399694 L891.2022253252688,297.4651917126975 M891.2022253252688,297.4651917126975 L888.1151073239458,306.7237137898028 M888.1151073239458,306.7237137898028 L884.8507530235471,315.96734310058406 M884.8507530235471,315.96734310058406 L881.413409452295,325.1853947143678 M881.413409452295,325.1853947143678 L877.8074229798309,334.36712655110523 M877.8074229798309,334.36712655110523 L874.0372790121631,343.50206996337783 M874.0372790121631,343.50206996337783 L870.1076289729405,352.5797292289855 M870.1076289729405,352.5797292289855 L866.0232554508549,361.5896828499383 M866.0232554508549,361.5896828499383 L861.7890381360729,370.5216839723544 M861.7890381360729,370.5216839723544 L857.4100278520203,379.36547065048325 M857.4100278520203,379.36547065048325 L852.8913754435465,388.1109791253227 M852.8913754435465,388.1109791253227 L848.2383502946074,396.74823313303574 M848.2383502946074,396.74823313303574 L843.4563542896896,405.2673268128654 M843.4563542896896,405.2673268128654 L838.5508984476904,413.65852013411563 M838.5508984476904,413.65852013411563 L833.5276055302089,421.91213968045656 M833.5276055302089,421.91213968045656 L828.3922123534406,430.01865957870893 M828.3922123534406,430.01865957870893 L823.1505624388807,437.96874366339193 M823.1505624388807,437.96874366339193 L817.8086049055902,445.7530611316126 M817.8086049055902,445.7530611316126 L812.3723980745114,453.36254687094083 M812.3723980745114,453.36254687094083 L806.8480980989372,460.78818001170936 M806.8480980989372,460.78818001170936 L801.2419589610878,468.02115820139926 M800.7080465673247,468.69521556279744 L800.7368091504892,468.749478719114 M800.7368091504892,468.749478719114 L800.7794189731597,468.7809910846733 M800.7794189731597,468.7809910846733 L800.833383567261,468.7879361593916 M800.833383567261,468.7879361593916 L800.8955821393716,468.76990809934864 M800.8955821393716,468.76990809934864 L800.9623970543479,468.7279199622665 M800.9623970543479,468.7279199622665 L801.0299367152949,468.66448974124285 M801.0299367152949,468.66448974124285 L801.0942851128615,468.5832643384382 M801.0942851128615,468.5832643384382 L801.1516980450739,468.4889438698731 M801.1516980450739,468.4889438698731 L801.1988572904862,468.3869923445952 M801.1988572904862,468.3869923445952 L801.2329897839185,468.2834311989542 M801.2329897839185,468.2834311989542 L801.252145094806,468.18417933387923 M801.252145094806,468.18417933387923 L801.2551930197245,468.0950104092632 M801.2551930197245,468.0950104092632 L801.2419589610878,468.02115820139926 M694.4599624543479,715.1527879771744 L695.4426844066148,707.1556062356556 M695.4426844066148,707.1556062356556 L696.6478983176602,699.0022326873888 M696.6478983176602,699.0022326873888 L698.0746476433432,690.7045628150071 M698.0746476433432,690.7045628150071 L699.721564946453,682.2750010324331 M699.721564946453,682.2750010324331 L701.5868945423384,673.7262246114808 M701.5868945423384,673.7262246114808 L703.6684890707442,665.0711756158959 M703.6684890707442,665.0711756158959 L705.9638019430087,656.3230981850966 M705.9638019430087,656.3230981850966 L708.4698975651746,647.4954349222921 M708.4698975651746,647.4954349222921 L711.1834306417599,638.6020015964865 M711.1834306417599,638.6020015964865 L714.1006898787897,629.6566013788711 M714.1006898787897,629.6566013788711 L717.2175691953781,620.6732901664462 M717.2175691953781,620.6732901664462 L720.5295715977146,611.6663625461756 M720.5295715977146,611.6663625461756 L724.0318472849459,602.6500534492744 M724.0318472849459,602.6500534492744 L727.7191771428785,593.6387096237288 M727.7191771428785,593.6387096237288 L731.585977260398,584.6468182304764 M731.585977260398,584.6468182304764 L735.6263278247526,575.6888007036628 M735.6263278247526,575.6888007036628 L739.8339829639873,566.778993333234 M739.8339829639873,566.778993333234 L744.202359991824,557.931817756778 M744.202359991824,557.931817756778 L748.7245858612838,549.1614755324333 M748.7245858612838,549.1614755324333 L753.3934863838539,540.4821637281609 M753.3934863838539,540.4821637281609 L758.2016206327288,531.9077770595444 M758.2016206327288,531.9077770595444 L763.1412745790652,523.4522110370579 M763.1412745790652,523.4522110370579 L768.204498334222,515.1290188610039 M768.204498334222,515.1290188610039 L773.3831319767725,506.95151895954814 M773.3831319767725,506.95151895954814 L778.6687905534196,498.9327514184499 M778.6687905534196,498.9327514184499 L784.0529085961106,491.08553182301 M784.0529085961106,491.08553182301 L789.5267664756271,483.422205774786 M789.5267664756271,483.422205774786 L795.0814836649166,475.95486975254283 M795.0814836649166,475.95486975254283 L800.7080465673247,468.69521556279744 M535.2128625126021,638.4910689335501 L549.7526967823887,645.8420900849518 M815.0650002026063,475.16558314690667 L800.7080465673247,468.69521556279744 M815.5995059180117,474.48942197540146 L801.2419589610878,468.02115820139926 M925.238851720563,221.1617942352314 L910.3934363034258,215.2674088618996 M580.8979976611723,417.09696747140583 L565.743722958625,410.1320063491564 M561.6516214023051,638.4910689335501 L547.1190302052548,631.1803702376267" stroke="black"  stroke-width="4"  fill="red"/>
<path d="M782.5137148679065,677.6891203611535 L784.1105189907236,665.0993206534131 M784.1105189907236,665.0993206534131 L784.2684914193377,665.1942406665783 M784.2684914193377,665.1942406665783 L784.3860363289967,665.3042101034672 M784.3860363289967,665.3042101034672 L784.4563575798333,665.4228468390432 M784.4563575798333,665.4228468390432 L784.4753185960116,665.5432323306381 M784.4753185960116,665.5432323306381 L784.4418457430105,665.6584078282912 M784.4418457430105,665.6584078282912 L784.3578366988824,665.7616390150722 M784.3578366988824,665.7616390150722 L784.2282145129428,665.8469402950348 M784.2282145129428,665.8469402950348 L784.0604939314686,665.909361923761 M784.0604939314686,665.909361923761 L783.864387847933,665.9452502706044 M783.864387847933,665.9452502706044 L783.6513717663003,665.9525349765987 M783.6513717663003,665.9525349765987 L783.4337603237901,665.9307781769498 M783.4337603237901,665.9307781769498 L783.2242574446176,665.8812664329164 M783.2242574446176,665.8812664329164 L783.0350275915772,665.8068591433585 M783.0350275915772,665.8068591433585 L782.8770627155592,665.7118959284762 M782.8770627155592,665.7118959284762 L782.7595616506281,665.601893186141 M782.7595616506281,665.601893186141 L782.6893547585645,665.4832622649715 M782.6893547585645,665.4832622649715 L782.6704740123333,665.3628821356533 M782.6704740123333,665.3628821356533 L782.7040189498965,665.2477319169328 M782.7040189498965,665.2477319169328 L782.7880753499463,665.1445401273763 M782.7880753499463,665.1445401273763 L782.9177093334432,665.0592833394966 M782.9177093334432,665.0592833394966 L783.085403453423,664.9969011126216 M783.085403453423,664.9969011126216 L783.2814508564135,664.9610380373698 M783.2814508564135,664.9610380373698 L783.4943895120326,664.9537586944265 M783.4943895120326,664.9537586944265 L783.7118782288363,664.9754781254929 M783.7118782288363,664.9754781254929 L783.9213196016773,665.0249565678231 M783.9213196016773,665.0249565678231 L784.1105189907236,665.0993206534131 M782.5137148679065,677.6891203611535 L782.324982314779,677.6145754839839 M782.324982314779,677.6145754839839 L782.1160382713855,677.5649767461526 M782.1160382713855,677.5649767461526 L781.8990484369059,677.5432045079768 M781.8990484369059,677.5432045079768 L781.6865813459248,677.5505015494942 M781.6865813459248,677.5505015494942 L781.4909508703266,677.5864518188682 M781.4909508703266,677.5864518188682 L781.3235946567496,677.6489857109474 M781.3235946567496,677.6489857109474 L781.1942000241239,677.7344497667516 M781.1942000241239,677.7344497667516 L781.1102705346333,677.8378924098637 M781.1102705346333,677.8378924098637 L781.0767325614514,677.9533225315001 M781.0767325614514,677.9533225315001 L781.0955000077817,678.0739952528144 M781.0955000077817,678.0739952528144 L781.165479899986,678.1929144908166 M781.165479899986,678.1929144908166 L781.2826533272943,678.3031845594032 M781.2826533272943,678.3031845594032 L781.440208975158,678.3983785356098 M781.440208975158,678.3983785356098 L781.6289718307543,678.4729666249522 M781.6289718307543,678.4729666249522 L781.8379770861831,678.5225986708109 M781.8379770861831,678.5225986708109 L782.0550891750123,678.5444083330458 M782.0550891750123,678.5444083330458 L782.2676333494363,678.5371059274589 M782.2676333494363,678.5371059274589 L782.4633222584615,678.5011303816939 M782.4633222584615,678.5011303816939 L782.6307048386215,678.438557080281 M782.6307048386215,678.438557080281 L782.7600877526219,678.3530485239446 M782.7600877526219,678.3530485239446 L782.8439701208976,678.2495664761259 M782.8439701208976,678.2495664761259 L782.8774363463164,678.1341110707564 M782.8774363463164,678.1341110707564 L782.8585889916368,678.0134329861472 M782.8585889916368,678.0134329861472 L782.7884951560364,677.894507884254 M782.7884951560364,677.894507884254 L782.6712780601312,677.7842711274387 M782.6712780601312,677.7842711274387 L782.5137148679065,677.6891203611535 M784.9167667284752,664.5689107334979 L785.3117258615886,664.806145998428 M785.3117258615886,664.806145998428 L785.6056604550196,665.0809882835641 M785.6056604550196,665.0809882835641 L785.7815769317125,665.3775370487875 M785.7815769317125,665.3775370487875 L785.8291398370692,665.6785297299014 M785.8291398370692,665.6785297299014 L785.7455568231006,665.9664888896776 M785.7455568231006,665.9664888896776 L785.5356534281972,666.2246461635771 M785.5356534281972,666.2246461635771 L785.2115955194998,666.4379990492623 M785.2115955194998,666.4379990492623 L784.7922305040412,666.5941108544829 M784.7922305040412,666.5941108544829 L784.3019077192217,666.6838953585814 M784.3019077192217,666.6838953585814 L783.7691877862134,666.7021144876475 M783.7691877862134,666.7021144876475 L783.2250382213925,666.6477009694232 M783.2250382213925,666.6477009694232 L782.7012000974888,666.5238618143637 M782.7012000974888,666.5238618143637 L782.2280379869263,666.3377571186745 M782.2280379869263,666.3377571186745 L781.8331703407772,666.1002734301513 M781.8331703407772,666.1002734301513 L781.5394654885155,665.8252014002782 M781.5394654885155,665.8252014002782 L781.3640313287812,665.528575613708 M781.3640313287812,665.528575613708 L781.3169701482146,665.2276164531513 M781.3169701482146,665.2276164531513 L781.4010036384617,664.9398152742059 M781.4010036384617,664.9398152742059 L781.6112030331097,664.6819042360678 M781.6112030331097,664.6819042360678 L781.935334682653,664.468829448783 M781.935334682653,664.468829448783 L782.3545342829815,664.3129638808833 M782.3545342829815,664.3129638808833 L782.8444903710468,664.2233373535229 M782.8444903710468,664.2233373535229 L783.3767263542167,664.2051517388971 M783.3767263542167,664.2051517388971 L783.9203413042341,664.259445048105 M783.9203413042341,664.259445048105 L784.4438393001643,664.3830976464567 M784.4438393001643,664.3830976464567 L784.9167667284752,664.5689107334979 M785.1047189971263,663.0885558326991 L785.4997984893349,663.3257229300351 M785.4997984893349,663.3257229300351 L785.7938295393989,663.6004862552459 M785.7938295393989,663.6004862552459 L785.9698129868101,663.8969498409874 M785.9698129868101,663.8969498409874 L786.0174094436769,664.1978560837193 M786.0174094436769,664.1978560837193 L785.9338245944979,664.4857325646016 M785.9338245944979,664.4857325646016 L785.723884063449,664.7438157300896 M785.723884063449,664.7438157300896 L785.3997558606026,664.9571073790386 M785.3997558606026,664.9571073790386 L784.9802914777193,665.1131743825381 M784.9802914777193,665.1131743825381 L784.4898460238882,665.2029331219996 M784.4898460238882,665.2029331219996 L783.9569872732544,665.2211470230812 M783.9569872732544,665.2211470230812 L783.4126908221161,665.1667491190246 M783.4126908221161,665.1667491190246 L782.8887063246392,665.0429455022396 M782.8887063246392,665.0429455022396 L782.4154068452436,664.856894218873 M782.4154068452436,664.856894218873 L782.0204188591364,664.6194786983365 M782.0204188591364,664.6194786983365 L781.7266176666504,664.344485639673 M781.7266176666504,664.344485639673 L781.5511167727717,664.0479450287918 M781.5511167727717,664.0479450287918 L781.5040223068216,663.7470723057983 M781.5040223068216,663.7470723057983 L781.5880578801399,663.459353801889 M781.5880578801399,663.459353801889 L781.7982945837304,663.2015168661491 M781.7982945837304,663.2015168661491 L782.1224965855857,662.9885033088095 M782.1224965855857,662.9885033088095 L782.5417954835406,662.832682536618 M782.5417954835406,662.832682536618 L783.0318740588374,662.7430817700364 M783.0318740588374,662.7430817700364 L783.5642486075268,662.7249013825768 M783.5642486075268,662.7249013825768 L784.1080101660378,662.7791790862263 M784.1080101660378,662.7791790862263 L784.6316543320651,662.9027961451854 M784.6316543320651,662.9027961451854 L785.1047189971263,663.0885558326991 M785.1047189971263,663.0885558326991 L784.9167667284752,664.5689107334979" stroke="black"  stroke-width="4"  fill="red"/>
<path d="M74.76869725131206,415.06147706615525 L-101.98884526287583,504.96246754649985 M74.76869725131206,415.06147706615525 L63.944332996922014,409.56785861977903 M-112.79852983984881,499.05742658316035 L63.944332996922014,409.56785861977903 M-101.98884526287583,504.96246754649985 L-112.79852983984881,499.05742658316035 M-101.98884526287583,504.96246754649985 L-107.66112909330889,313.46808570732014 M-107.66112909330889,313.46808570732014 L-95.6545284284864,307.8296509363387 M-95.6545284284864,307.8296509363387 L-101.29010740159902,103.56077236570889 M-101.29010740159902,103.56077236570889 L250.16503720477021,-46.87686324872493 M250.16503720477021,-46.87686324872493 L249.82326663711808,-38.68543000803743 M249.82326663711808,-38.68543000803743 L249.26295107934504,-30.430849188916454 M249.26295107934504,-30.430849188916454 L248.48557997819057,-22.123590372771105 M248.48557997819057,-22.123590372771105 L247.49286478894714,-13.773856191820869 M247.49286478894714,-13.773856191820869 L246.2867118943892,-5.3919499969109665 M246.2867118943892,-5.3919499969109665 L244.8692471696486,3.011934920885892 M244.8692471696486,3.011934920885892 L243.24279898829832,11.427620840014583 M243.24279898829832,11.427620840014583 L241.40991193629566,19.844975799206054 M241.40991193629566,19.844975799206054 L239.37331118230725,28.25391939437975 M239.37331118230725,28.25391939437975 L237.1359355455828,36.64439839818408 M237.1359355455828,36.64439839818408 L234.70088340906057,45.00649171989505 M234.70088340906057,45.00649171989505 L232.07149801062656,53.33036199397952 M232.07149801062656,53.33036199397952 L229.25123650644252,61.60612304589131 M229.25123650644252,61.60612304589131 L226.24375512526774,69.82415445520007 M226.24375512526774,69.82415445520007 L223.05290089158598,77.97482368072974 M223.05290089158598,77.97482368072974 L219.68268568348174,86.04857897914167 M219.68268568348174,86.04857897914167 L216.13726097446852,94.0360416503209 M216.13726097446852,94.0360416503209 L212.42097523879727,101.9278360895845 M212.42097523879727,101.9278360895845 L208.5383219252882,109.7147844782038 M208.5383219252882,109.7147844782038 L204.49394551737169,117.38780580190439 M204.49394551737169,117.38780580190439 L200.29265428026008,124.93790222080838 M200.29265428026008,124.93790222080838 L195.93940591587693,132.35624759304108 M195.93940591587693,132.35624759304108 L191.4392974508222,139.63409561440767 M191.4392974508222,139.63409561440767 L186.79757727944195,146.7628570884477 M186.79757727944195,146.7628570884477 L182.0196416535848,153.7341398899974 M182.0196416535848,153.7341398899974 L177.11100980620245,160.5395765799033 M177.11100980620245,160.5395765799033 L172.0773596231079,167.17107034366362 M172.0773596231079,167.17107034366362 L166.92448681159158,173.620586647756 M166.92448681159158,173.620586647756 L161.65832579413336,179.88031789835262 M161.65832579413336,179.88031789835262 L161.68202923861304,179.951046710052 M161.68202923861304,179.951046710052 L161.68973365394697,180.0346041469675 M161.68973365394697,180.0346041469675 L161.68098199137353,180.12608535272943 M161.68098199137353,180.12608535272943 L161.65630076713154,180.2201701310011 M161.65630076713154,180.2201701310011 L161.61710019220345,180.3114809938693 M161.61710019220345,180.3114809938693 L161.5656821156744,180.39462359996978 M161.5656821156744,180.39462359996978 L161.50501680952954,180.4647805770076 M161.50501680952954,180.4647805770076 L161.43863753157143,180.5178941924602 M161.43863753157143,180.5178941924602 L161.37039695679414,180.55091385983903 M161.37039695679414,180.55091385983903 L161.30426083239928,180.56184833767279 M161.30426083239928,180.56184833767279 L161.2440802520066,180.5500951722282 M161.2440802520066,180.5500951722282 L161.1933359809674,180.5163381842556 M161.1933359809674,180.5163381842556 L161.1549929096892,180.46252694178887 M161.1549929096892,180.46252694178887 L155.8704160453667,186.74450360093786 M155.8704160453667,186.74450360093786 L150.69112177031752,193.2280234408788 M150.69112177031752,193.2280234408788 L145.62541795829878,199.9030980245001 M145.62541795829878,199.9030980245001 L140.6814185093438,206.75935953769928 M140.6814185093438,206.75935953769928 L135.86703321847926,213.78620325016266 M135.86703321847926,213.78620325016266 L131.18994910322658,220.97257910728683 M131.18994910322658,220.97257910728683 L126.65763290658953,228.30721874459937 M126.65763290658953,228.30721874459937 L122.27727667578466,235.77857898834776 M122.27727667578466,235.77857898834776 L118.05582062724824,243.3748827946678 M118.05582062724824,243.3748827946678 L113.99991256953979,251.08401378976401 M113.99991256953979,251.08401378976401 L110.11591008965854,258.89383398915345 M110.11591008965854,258.89383398915345 L106.40985111297334,266.7918972050698 M106.40985111297334,266.7918972050698 L102.88745344353555,274.7657244322502 M102.88745344353555,274.7657244322502 L99.55410078258194,282.80260000657603 M99.55410078258194,282.80260000657603 L96.41482973246173,290.88985302290115 M96.41482973246173,290.88985302290115 L93.47432112607959,299.01469596530853 M93.47432112607959,299.01469596530853 L90.73689195108375,307.16424020376587 M90.73689195108375,307.16424020376587 L88.20648908507371,315.3256858099594 M88.20648908507371,315.3256858099594 L85.88668093240744,323.48629254589605 M85.88668093240744,323.48629254589605 L83.78065458151235,331.6332180539158 M83.78065458151235,331.6332180539158 L81.8912103584945,339.7537940601312 M81.8912103584945,339.7537940601312 L80.22075905609887,347.83553793021247 M80.22075905609887,347.83553793021247 L78.7713208083378,355.86590359364453 M78.7713208083378,355.86590359364453 L77.54452383057611,363.8326402965682 M77.54452383057611,363.8326402965682 L76.54160528311246,371.72362857191405 M76.54160528311246,371.72362857191405 L75.76341210352416,379.5269761493352 M75.76341210352416,379.5269761493352 L75.21040406384685,387.23098261522625 M75.21040406384685,387.23098261522625 L74.882657762789,394.82414661816637 M74.882657762789,394.82414661816637 L74.77986975061162,402.29538644257946 M74.77986975061162,402.29538644257946 L74.76869725131206,415.06147706615525 M74.77986975061162,402.29538644257946 L63.93204581985964,396.81865409755244 M63.93204581985964,396.81865409755244 L63.944332996922014,409.56785861977903 M63.93204581985964,396.81865409755244 L64.02119355872958,389.35750870598247 M64.02119355872958,389.35750870598247 L64.33528291594462,381.7750032990138 M64.33528291594462,381.7750032990138 L64.87463627949228,374.08220384062616 M64.87463627949228,374.08220384062616 L65.63919655957915,366.2905944383262 M65.63919655957915,366.2905944383262 L66.62852366952961,358.4118570692521 M66.62852366952961,358.4118570692521 L67.84179052959314,350.45786439207217 M67.84179052959314,350.45786439207217 L69.27778008363651,342.4407150496238 M69.27778008363651,342.4407150496238 L70.93488429982403,334.37263790535144 M70.93488429982403,334.37263790535144 L72.81110361698842,326.26615586663485 M72.81110361698842,326.26615586663485 L74.9040475523712,318.13372764622994 M74.9040475523712,318.13372764622994 L77.21093629194058,309.9879965225631 M77.21093629194058,309.9879965225631 L79.72860344673353,301.8417788267728 M79.72860344673353,301.8417788267728 L82.45350099695503,293.7077881561864 M82.45350099695503,293.7077881561864 L85.38170243541953,285.59879699324995 M85.38170243541953,285.59879699324995 L88.50891119045315,277.5276657166314 M88.50891119045315,277.5276657166314 L91.83046654243424,269.50715308901465 M91.83046654243424,269.50715308901465 L95.3413516724977,261.54990082589575 M95.3413516724977,261.54990082589575 L99.03620263223951,253.66859478192404 M99.03620263223951,253.66859478192404 L102.90932082211253,245.8756839793713 M102.90932082211253,245.8756839793713 L106.9546873523251,238.18358421383365 M106.9546873523251,238.18358421383365 L111.16596298019272,230.60440308918456 M111.16596298019272,230.60440308918456 L115.53651809497819,223.15022627778325 M115.53651809497819,223.15022627778325 L120.05942992476565,215.8328002779035 M120.05942992476565,215.8328002779035 L124.72752333009385,208.66363781277678 M124.72752333009385,208.66363781277678 L129.5333478235749,201.65397694250498 M129.5333478235749,201.65397694250498 L134.4692321286107,194.81483758861006 M134.4692321286107,194.81483758861006 L139.5272812312469,188.15679486465237 M139.5272812312469,188.15679486465237 L144.69939543811847,181.6901872353892 M144.69939543811847,181.6901872353892 L149.97728023055885,175.42497429511903 M149.97728023055885,175.42497429511903 L150.01576078709923,175.47876413830912 M150.01576078709923,175.47876413830912 L150.0666169160395,175.51254669555354 M150.0666169160395,175.51254669555354 L150.12687723534583,175.52437086911806 M150.12687723534583,175.52437086911806 L150.19305636051462,175.5135487340038 M150.19305636051462,175.5135487340038 L150.2613006292039,175.4806762491066 M150.2613006292039,175.4806762491066 L150.32764421330785,175.42773599721838 M150.32764421330785,175.42773599721838 L150.3882364472114,175.35776854919334 M150.3882364472114,175.35776854919334 L150.43954827373386,175.2748206414134 M150.43954827373386,175.2748206414134 L150.47861558395994,175.18369838086673 M150.47861558395994,175.18369838086673 L150.50314441416094,175.089784990438 M150.50314441416094,175.089784990438 L150.51173326414852,174.9984481657192 M150.51173326414852,174.9984481657192 L150.5038650705635,174.91499968265583 M150.5038650705635,174.91499968265583 L150.48000650255062,174.84433800952442 M238.6447947336485,-51.45098575126053 L238.3182916581959,-43.27270146611875 M238.3182916581959,-43.27270146611875 L237.773144461098,-35.03160807334689 M237.773144461098,-35.03160807334689 L237.01082250171532,-26.73815956110127 M237.01082250171532,-26.73815956110127 L236.03301806337151,-18.402543333766744 M236.03301806337151,-18.402543333766744 L234.84161855109699,-10.035047330241241 M234.84161855109699,-10.035047330241241 L233.43873148766772,-1.645849518005548 M233.43873148766772,-1.645849518005548 L231.826667326936,6.754887758486802 M231.826667326936,6.754887758486802 L230.00795324217052,15.15704796078694 M230.00795324217052,15.15704796078694 L227.9852974737754,23.550566116958635 M227.9852974737754,23.550566116958635 L225.7616223851054,31.925404543066406 M225.7616223851054,31.925404543066406 L223.34001052082715,40.27165759303625 M223.34001052082715,40.27165759303625 L220.72378989073127,48.579503458779755 M220.72378989073127,48.579503458779755 L217.91640264801288,56.839071675058335 M217.91640264801288,56.839071675058335 L214.92149092349825,65.04075735209142 M214.92149092349825,65.04075735209142 L211.7428880089991,73.17494372531769 M211.7428880089991,73.17494372531769 L208.3845925609486,81.23209492068554 M208.3845925609486,81.23209492068554 L204.85074348605792,89.20284805007941 M204.85074348605792,89.20284805007941 L201.14567707576805,97.07784361506793 M201.14567707576805,97.07784361506793 L197.27387528928534,104.84791985927177 M197.27387528928534,104.84791985927177 L193.23997162038597,112.50401196431255 M193.23997162038597,112.50401196431255 L189.04876382281986,120.03713847735696 M189.04876382281986,120.03713847735696 L184.7051997084635,127.43848970500585 M184.7051997084635,127.43848970500585 L180.2143668416573,134.69933599137374 M180.2143668416573,134.69933599137374 L175.58150472899962,141.81110491131489 M175.58150472899962,141.81110491131489 L170.812001368835,148.76542118950394 M170.812001368835,148.76542118950394 L165.911368014096,155.55393454582943 M165.911368014096,155.55393454582943 L160.88527532850804,162.16856534622332 M160.88527532850804,162.16856534622332 L155.73951211050405,168.60129651672528 M155.73951211050405,168.60129651672528 L150.48000650255062,174.84433800952442 M238.6447947336485,-51.45098575126053 L-112.81001916363437,98.26617799354585 M-106.80903937035816,302.21831380514925 L-112.81001916363437,98.26617799354585 M-106.80903937035816,302.21831380514925 L-118.81358731016724,307.8296475572648 M-112.79852983984881,499.05742658316035 L-118.81358731016724,307.8296475572648 M-118.81358731016724,307.8296475572648 L-107.66112909330889,313.46808570732014 M161.1549929096892,180.46252694178887 L149.97728023055885,175.42497429511903 M161.65832579413336,179.88031789835262 L150.48000650255062,174.84433800952442 M250.16503720477021,-46.87686324872493 L238.6447947336485,-51.45098575126053 M-101.29010740159902,103.56077236570889 L-112.81001916363437,98.26617799354585 M-95.6545284284864,307.8296509363387 L-106.80903937035816,302.21831380514925" stroke="black"  stroke-width="4"  fill="red"/>
<path d="M153.65390604685336,369.53037590748175 L153.82064566756128,357.7663556495928 M153.82064566756128,357.7663556495928 L153.94089647556103,357.8408398360633 M153.94089647556103,357.8408398360633 L154.02221730360105,357.927134870792 M154.02221730360105,357.927134870792 L154.0598902546356,358.0202218157668 M154.0598902546356,358.0202218157668 L154.05172455987184,358.1146901094795 M154.05172455987184,358.1146901094795 L153.9981701973856,358.2050584110574 M153.9981701973856,358.2050584110574 L153.90235211505382,358.28606538047563 M153.90235211505382,358.28606538047563 L153.76984036809267,358.352998682026 M153.76984036809267,358.352998682026 L153.60831816172373,358.40197474297446 M153.60831816172373,358.40197474297446 L153.42717926018048,358.4301428803624 M153.42717926018048,358.4301428803624 L153.23697087654614,358.4358559828453 M153.23697087654614,358.4358559828453 L153.0487344489739,358.4187914376768 M153.0487344489739,358.4187914376768 L152.8734178209799,358.37994009954673 M152.8734178209799,358.37994009954673 L152.72122477488563,358.3215559695742 M152.72122477488563,358.3215559695742 L152.6009883717366,358.24704201849613 M152.6009883717366,358.24704201849613 L152.51970806661427,358.1607238326427 M152.51970806661427,358.1607238326427 L152.4820930111024,358.06762592036654 M152.4820930111024,358.06762592036654 L152.49032071063766,357.9731613546089 M152.49032071063766,357.9731613546089 L152.54392698731306,357.8828106230606 M152.54392698731306,357.8828106230606 L152.63977499613776,357.8018310399526 M152.63977499613776,357.8018310399526 L152.77228782776416,357.7349286650774 M152.77228782776416,357.7349286650774 L152.93378202862397,357.68597999016174 M152.93378202862397,357.68597999016174 L153.11487024846093,357.6578294241318 M153.11487024846093,357.6578294241318 L153.3050168887483,357.6521200476549 M153.3050168887483,357.6521200476549 L153.4931946515145,357.6691736258372 M153.4931946515145,357.6691736258372 L153.6684691327505,357.7080018150664 M153.6684691327505,357.7080018150664 L153.82064566756128,357.7663556495928 M153.65390604685336,369.53037590748175 L153.5020349255774,369.47185034636317 M153.5020349255774,369.47185034636317 L153.32711022369904,369.4329078884479 M153.32711022369904,369.4329078884479 L153.13930626932307,369.41580412196606 M153.13930626932307,369.41580412196606 L152.94953575574255,369.4215303010644 M152.94953575574255,369.4215303010644 L152.76880417774981,369.4497637130532 M152.76880417774981,369.4497637130532 L152.60762639360144,369.4988564387642 M152.60762639360144,369.4988564387642 L152.4753713655228,369.56595569382824 M152.4753713655228,369.56595569382824 L152.3797075985682,369.64717357353527 M152.3797075985682,369.64717357353527 L152.32620127654235,369.73779016503573 M152.32620127654235,369.73779016503573 L152.31798338464432,369.83253268129647 M152.31798338464432,369.83253268129647 L152.35551754737043,369.92590450832205 M152.35551754737043,369.92590450832205 L152.4366309339465,370.01247664856544 M152.4366309339465,370.01247664856544 L152.55662405834005,370.0872098151347 M152.55662405834005,370.0872098151347 L152.70851162454034,370.1457657011883 M152.70851162454034,370.1457657011883 L152.8834783047979,370.1847313301354 M152.8834783047979,370.1847313301354 L153.07134069108133,370.20184607408794 M153.07134069108133,370.20184607408794 L153.26117270394445,370.1961161654216 M153.26117270394445,370.1961161654216 L153.4419547643089,370.16786516527634 M153.4419547643089,370.16786516527634 L153.60316044504157,370.11874502735066 M153.60316044504157,370.11874502735066 L153.7354143948868,370.05161481604495 M153.7354143948868,370.05161481604495 L153.8310483556641,369.97036952384576 M153.8310483556641,369.97036952384576 L153.8845029701439,369.87973534551827 M153.8845029701439,369.87973534551827 L153.89265910288452,369.7849890977384 M153.89265910288452,369.7849890977384 L153.85506727297297,369.69162824849917 M153.85506727297297,369.69162824849917 L153.77391352222907,369.6050792815136 M153.77391352222907,369.6050792815136 L153.65390604685336,369.53037590748175 M154.64487554033485,357.35012498474845 L154.94551986314423,357.5362832775552 M154.94551986314423,357.5362832775552 L155.14891017708237,357.7519709878999 M155.14891017708237,357.7519709878999 L155.2432055500778,357.98466580441277 M155.2432055500778,357.98466580441277 L155.22289418877835,358.22084948617015 M155.22289418877835,358.22084948617015 L155.08911458485562,358.44679922065 M155.08911458485562,358.44679922065 L154.8496341924112,358.6493639107024 M154.8496341924112,358.6493639107024 L154.5183317198031,358.81676790233485 M154.5183317198031,358.81676790233485 L154.11448179966294,358.9392550704668 M154.11448179966294,358.9392550704668 L153.66154731860826,359.00970388313596 M153.66154731860826,359.00970388313596 L153.18589875272488,359.0240003879833 M153.18589875272488,359.0240003879833 L152.71520155120027,358.9813161923857 M152.71520155120027,358.9813161923857 L152.27684378474163,358.88413818292213 M152.27684378474163,358.88413818292213 L151.89632311317462,358.7381258834137 M151.89632311317462,358.7381258834137 L151.59576598049023,358.55178016824 M151.59576598049023,358.55178016824 L151.39262837814675,358.3359475032859 M151.39262837814675,358.3359475032859 L151.29869539196062,358.10318440528806 M151.29869539196062,358.10318440528806 L151.31939402132656,357.8670238910165 M151.31939402132656,357.8670238910165 L151.45349808480262,357.64118396724376 M151.45349808480262,357.64118396724376 L151.69316551795788,357.43879043675923 M151.69316551795788,357.43879043675923 L152.02447477026794,357.2715797515927 M152.02447477026794,357.2715797515927 L152.42814965552338,357.14926374097723 M152.42814965552338,357.14926374097723 L152.8807673797079,357.0789247422864 M152.8807673797079,357.0789247422864 L153.3560303117652,357.06465166827854 M153.3560303117652,357.06465166827854 L153.8263603182698,357.1072670518182 M153.8263603182698,357.1072670518182 L154.2644552239737,357.20430063605164 M154.2644552239737,357.20430063605164 L154.64487554033485,357.35012498474845 M154.6646662534676,355.9672648577344 L154.96538210613613,356.1533584961225 M154.96538210613613,356.1533584961225 L155.16882156678122,356.36897130467906 M155.16882156678122,356.36897130467906 L155.26314083737435,356.6015853235342 M155.26314083737435,356.6015853235342 L155.24282672118852,356.8376870070163 M155.24282672118852,356.8376870070163 L155.10901785254714,357.0635583064333 M155.10901785254714,357.0635583064333 L154.8694833779728,357.26605268766093 M154.8694833779728,357.26605268766093 L154.53810513603247,357.4333985805515 M154.53810513603247,357.4333985805515 L154.13416216721157,357.5558432421085 M154.13416216721157,357.5558432421085 L153.68112276751333,357.62626760833706 M153.68112276751333,357.62626760833706 L153.2053635277431,357.6405591522728 M153.2053635277431,357.6405591522728 L152.7345563420016,357.59788976828213 M152.7345563420016,357.59788976828213 L152.2960956878909,357.50074548134876 M152.2960956878909,357.50074548134876 L151.91548521513687,357.35478385421925 M151.91548521513687,357.35478385421925 L151.61485659154152,357.1685028148513 M151.61485659154152,357.1685028148513 L151.41166995912522,356.95274506833584 M151.41166995912522,356.95274506833584 L151.31771324342634,356.7200627757485 M151.31771324342634,356.7200627757485 L151.33841480828806,356.4839842571317 M151.33841480828806,356.4839842571317 L151.47254828848605,356.2582227558549 M151.47254828848605,356.2582227558549 L151.71226989227733,356.05589951460746 M151.71226989227733,356.05589951460746 L152.04365491865633,355.8887469060604 M152.04365491865633,355.8887469060604 L152.44742277247434,355.7664733824323 M152.44742277247434,355.7664733824323 L152.90014526868072,355.6961588176149 M152.90014526868072,355.6961588176149 L153.37551869515727,355.68189070180625 M153.37551869515727,355.68189070180625 L153.84595851443441,355.7244912816758 M153.84595851443441,355.7244912816758 L154.28415618406552,355.8214911598453 M154.28415618406552,355.8214911598453 L154.6646662534676,355.9672648577344 M154.6646662534676,355.9672648577344 L154.64487554033485,357.35012498474845" stroke="black"  stroke-width="4"  fill="red"/>
<path d="M-106.80903937035816,302.21831380514925 L-118.81358731016724,307.8296475572648 M-118.81358731016724,307.8296475572648 L-125.23885172056293,103.56076917711209 M-112.81001916363437,98.26617799354585 L-125.23885172056293,103.56076917711209 M-106.80903937035816,302.21831380514925 L-112.81001916363437,98.26617799354585 M-101.98884526287583,504.96246754649985 L-53.27374132245211,531.5742231674114 M-53.27374132245211,531.5742231674114 L-53.56472125881868,517.9198498853866 M-53.56472125881868,517.9198498853866 L3.1070603020031626,548.7148278552401 M3.2660696810314676,562.4604065391502 L3.1070603020031626,548.7148278552401 M3.2660696810314676,562.4604065391502 L256.3112247116104,700.6921926185724 M256.3112247116104,700.6921926185724 L256.78255252441886,686.5599948736265 M256.78255252441886,686.5599948736265 L321.26540680979826,721.5994452395967 M320.6235314157542,735.8242820732278 L321.26540680979826,721.5994452395967 M320.6235314157542,735.8242820732278 L518.3220721805448,843.8216961786669 M518.3220721805448,843.8216961786669 L535.2128625126021,638.4910689335501 M535.2128625126021,638.4910689335501 L549.7526967823887,645.8420900849518 M549.7526967823887,645.8420900849518 L568.5874585743007,424.1018510923336 M-125.23885172056293,103.56076917711209 L568.5874585743007,424.1018510923336 M-118.81358731016724,307.8296475572648 L-107.66112909330889,313.46808570732014 M-101.98884526287583,504.96246754649985 L-107.66112909330889,313.46808570732014 M561.6516214023051,638.4910689335501 L547.1190302052548,631.1803702376267 M529.8420988516831,836.2327412642253 L547.1190302052548,631.1803702376267 M529.8420988516831,836.2327412642253 L332.21428925466296,728.7948514895835 M332.21428925466296,728.7948514895835 L332.88409208753956,714.5883680604147 M332.88409208753956,714.5883680604147 L268.4158843007906,679.7263072017864 M267.9165180742806,693.8401714426858 L268.4158843007906,679.7263072017864 M267.9165180742806,693.8401714426858 L14.888160889118751,556.2844660763699 M14.888160889118751,556.2844660763699 L14.75731613610185,542.5569838366725 M14.75731613610185,542.5569838366725 L-41.919554447382154,511.9081946211585 M-41.65670300724571,525.5445572193761 L-41.919554447382154,511.9081946211585 M-41.65670300724571,525.5445572193761 L-90.37874065799309,499.05743012228015 M-90.37874065799309,499.05743012228015 L-95.6545284284864,307.8296509363387 M-95.6545284284864,307.8296509363387 L-106.80903937035816,302.21831380514925 M580.8979976611723,417.09696747140583 L-112.81001916363437,98.26617799354585 M561.6516214023051,638.4910689335501 L580.8979976611723,417.09696747140583 M-101.98884526287583,504.96246754649985 L-90.37874065799309,499.05743012228015 M-107.66112909330889,313.46808570732014 L-95.6545284284864,307.8296509363387 M-41.65670300724571,525.5445572193761 L-53.27374132245211,531.5742231674114 M-41.919554447382154,511.9081946211585 L-53.56472125881868,517.9198498853866 M3.2660696810314676,562.4604065391502 L14.888160889118751,556.2844660763699 M3.1070603020031626,548.7148278552401 L14.75731613610185,542.5569838366725 M267.9165180742806,693.8401714426858 L256.3112247116104,700.6921926185724 M268.4158843007906,679.7263072017864 L256.78255252441886,686.5599948736265 M320.6235314157542,735.8242820732278 L332.21428925466296,728.7948514895835 M321.26540680979826,721.5994452395967 L332.88409208753956,714.5883680604147 M529.8420988516831,836.2327412642253 L518.3220721805448,843.8216961786669 M547.1190302052548,631.1803702376267 L535.2128625126021,638.4910689335501 M549.7526967823887,645.8420900849518 L561.6516214023051,638.4910689335501 M568.5874585743007,424.1018510923336 L580.8979976611723,417.09696747140583" stroke="black"  stroke-width="4"  fill="red"/></svg>