<svg viewBox="0 0 800 800" xmlns="http://www.w3.org/2000/svg"><path d="M489.9325352641548,553.2920857927791 L489.9325415892615,553.291850252381 M489.9305270498886,553.2933182716058 L489.9305333749729,553.2930827311949 M489.9325352641548,553.2920857927791 L489.9305270498886,553.2933182716058 M489.9325415892615,553.291850252381 L489.9305333749729,553.2930827311949 M469.82737549517356,565.6310000909829 L469.8273815970555,565.6307644220202 M489.9305270498886,553.2933182716058 L469.82737549517356,565.6310000909829 M489.9305333749729,553.2930827311949 L469.8273815970555,565.6307644220202 M-82.58141279880101,245.98738939249176 L-82.5814130226189,245.9871571585336 M469.82737549517356,565.6310000909829 L-82.58141279880101,245.98738939249176 M469.8273815970555,565.6307644220202 L-82.5814130226189,245.9871571585336 M-62.45817392897078,234.36923201402817 L-62.4581739289485,234.36899990901708 M-82.58141279880101,245.98738939249176 L-62.45817392897078,234.36923201402817 M-82.5814130226189,245.9871571585336 L-62.4581739289485,234.36899990901708 M-25.10062837586986,255.93761620240025 L-25.100627959906603,255.93738385823525 M-62.45817392897078,234.36923201402817 L-25.10062837586986,255.93761620240025 M-62.4581739289485,234.36899990901708 L-25.100627959906603,255.93738385823525 M-24.086775918255398,256.5252900348223 L-24.086775490979733,256.52505768415494 M-25.10062837586986,255.93761620240025 L-24.763138173693278,256.1337583764521 M-24.763138173693278,256.1337583764521 L-24.425184788408785,256.32965114555697 M-24.425184788408785,256.32965114555697 L-24.086775918255398,256.5252900348223 M-25.100627959906603,255.93738385823525 L-24.763137753964486,256.13352603011674 M-24.763137753964486,256.13352603011674 L-24.425184364909114,256.32941879705413 M-24.425184364909114,256.32941879705413 L-24.086775490979733,256.52505768415494 M426.8620166576709,284.7946739837991 L426.8620221208321,284.79444132121006 M-24.086775918255398,256.5252900348223 L-9.854470550047438,264.30950442433044 M-9.854470550047438,264.30950442433044 L5.104536737123681,271.6477175220148 M5.104536737123681,271.6477175220148 L20.74579757917087,278.516438845474 M20.74579757917087,278.516438845474 L37.02248894473985,284.89359548909516 M37.02248894473985,284.89359548909516 L53.88555765691467,290.7586185923477 M53.88555765691467,290.7586185923477 L71.28387811016012,296.0925246980018 M71.28387811016012,296.0925246980018 L89.16443466263593,300.8780028688108 M89.16443466263593,300.8780028688108 L107.47249149142488,305.099483742478 M107.47249149142488,305.099483742478 L126.15175240762323,308.74317922328964 M126.15175240762323,308.74317922328964 L145.1446316158631,311.79719349126964 M145.1446316158631,311.79719349126964 L164.39234874224258,314.25150138914603 M164.39234874224258,314.25150138914603 L183.83521890208715,316.09805654171043 M183.83521890208715,316.09805654171043 L203.41288436052673,317.33080562595677 M203.41288436052673,317.33080562595677 L223.06444173772047,317.9456893451485 M223.06444173772047,317.9456893451485 L242.72873811320665,317.9406873678381 M242.72873811320665,317.9406873678381 L262.34454311156435,317.3158059586557 M262.34454311156435,317.3158059586557 L281.85081933748495,316.0731139355411 M281.85081933748495,316.0731139355411 L301.186943604052,314.21669426217926 M301.186943604052,314.21669426217926 L320.2928276332035,311.7526327917584 M320.2928276332035,311.7526327917584 L339.10930008443347,308.6890127343893 M339.10930008443347,308.6890127343893 L357.578177274655,305.0359059295569 M357.578177274655,305.0359059295569 L375.6425331528453,300.8052041059297 M375.6425331528453,300.8052041059297 L393.2468607392108,296.010730252174 M393.2468607392108,296.010730252174 L410.3373673234222,290.6681184553119 M410.3373673234222,290.6681184553119 L426.8620166576709,284.7946739837991 M-24.086775490979733,256.52505768415494 L-9.854469963864062,264.30927198760315 M-9.854469963864062,264.30927198760315 L5.104537490522091,271.64748500427646 M5.104537490522091,271.64748500427646 L20.74579850758937,278.51620625201167 M20.74579850758937,278.51620625201167 L37.02249005544979,284.8933628254176 M37.02249005544979,284.8933628254176 L53.88555895662421,290.7583858641704 M53.88555895662421,290.7583858641704 L71.28387960498685,296.092291911229 M71.28387960498685,296.092291911229 L89.1644363580815,300.8777700295189 M89.1644363580815,300.8777700295189 L107.47249339235168,305.0992508568971 M107.47249339235168,305.0992508568971 L126.15175451823404,308.7429462977856 M126.15175451823404,308.7429462977856 L145.144633939683,311.7969605323252 M145.144633939683,311.7969605323252 L164.39235128210373,314.25126840334224 M164.39235128210373,314.25126840334224 L183.83522166011596,316.0978235357069 M183.83522166011596,316.0978235357069 L203.41288733813622,317.33057260647195 M203.41288733813622,317.33057260647195 L223.0644449356015,317.94545631894056 M223.0644449356015,317.94545631894056 L242.72874153132648,317.9404543416847 M242.72874153132648,317.9404543416847 L262.3445467491657,317.31557293933486 M262.3445467491657,317.31557293933486 L281.8508231930888,316.07288092981025 M281.8508231930888,316.07288092981025 L301.186947675464,314.21646127675626 M301.186947675464,314.21646127675626 L320.29283191752256,311.7523998333017 M320.29283191752256,311.7523998333017 L339.1093045780648,308.68877980947843 M339.1093045780648,308.68877980947843 L357.5781819733238,305.03567304467276 M357.5781819733238,305.03567304467276 L375.64253805161525,300.80497126743626 M375.64253805161525,300.80497126743626 L393.24686583250434,296.0104974662993 M393.24686583250434,296.0104974662993 L410.3373726050439,290.66788572812925 M410.3373726050439,290.66788572812925 L426.8620221208321,284.79444132121006 M429.0247764242156,283.7607627190538 L429.0247819109828,283.76053006784286 M426.8620166576709,284.7946739837991 L426.7025205998499,284.61306507159634 M426.7025205998499,284.61306507159634 L426.6224067033763,284.4156669334038 M426.6224067033763,284.4156669334038 L426.62637698299966,284.2141911820596 M426.62637698299966,284.2141911820596 L426.7142119692487,284.02056220930507 M426.7142119692487,284.02056220930507 L426.88071044812,283.84625576418966 M426.88071044812,283.84625576418966 L427.11599548514073,283.7015664167911 M427.11599548514073,283.7015664167911 L427.4061381343846,283.5950898328228 M427.4061381343846,283.5950898328228 L427.7339453921429,283.53310685152917 M427.7339453921429,283.53310685152917 L428.08002567202254,283.51931607293517 M428.08002567202254,283.51931607293517 L428.42388205173916,283.55451257123866 M428.42388205173916,283.55451257123866 L428.745113554466,283.6366058800779 M428.745113554466,283.6366058800779 L429.0247764242156,283.7607627190538 M426.8620221208321,284.79444132121006 L426.7025260611359,284.6128324110058 M426.7025260611359,284.6128324110058 L426.6224121636651,284.41543427498556 M426.6224121636651,284.41543427498556 L426.62638244322807,284.2139585258586 M426.62638244322807,284.2139585258586 L426.71421743035694,284.0203295552349 M426.71421743035694,284.0203295552349 L426.8807159109963,283.8460231120378 M426.8807159109963,283.8460231120378 L427.11600095056826,283.7013337662318 M427.11600095056826,283.7013337662318 L427.40614360299537,283.5948571834354 M427.40614360299537,283.5948571834354 L427.733950864381,283.532874202824 M427.733950864381,283.532874202824 L428.080031148117,283.51908342438173 M428.080031148117,283.51908342438173 L428.42388753169064,283.55427992229784 M428.42388753169064,283.55427992229784 L428.74511903804637,283.6363732302335 M428.74511903804637,283.6363732302335 L429.0247819109828,283.76053006784286 M429.22259971912706,283.89848184033895 L429.22260520817485,283.89824918761235 M429.0247764242156,283.7607627190538 L429.0961533383354,283.8039783184217 M429.0961533383354,283.8039783184217 L429.1622210605973,283.84995617417536 M429.1622210605973,283.84995617417536 L429.22259971912706,283.89848184033895 M429.0247819109828,283.76053006784286 L429.096158825922,283.80374566673527 M429.096158825922,283.80374566673527 L429.1622265489457,283.8497235219829 M429.1622265489457,283.8497235219829 L429.22260520817485,283.89824918761235 M882.5814024437952,312.3160986787042 L882.5814130226188,312.31586571407996 M429.22259971912706,283.89848184033895 L445.72601438574975,278.0325877576709 M445.72601438574975,278.0325877576709 L462.76065048396197,272.70823988083185 M462.76065048396197,272.70823988083185 L480.27834258270104,267.9393756096848 M480.27834258270104,267.9393756096848 L498.22980361933674,263.7384655762215 M498.22980361933674,263.7384655762215 L516.5647449439743,260.11648129879643 M516.5647449439743,260.11648129879643 L535.2320390587173,257.08286970517855 M535.2320390587173,257.08286970517855 L554.1797389472927,254.6454987233268 M554.1797389472927,254.6454987233268 L573.3552976317762,252.8106626722083 M573.3552976317762,252.8106626722083 L592.7055587536463,251.58314710939374 M592.7055587536463,251.58314710939374 L612.1771350849299,250.96613094985656 M612.1771350849299,250.96613094985656 L631.7161156490345,250.96119241382286 M631.7161156490345,250.96119241382286 L651.2686345874076,251.5683475341337 M651.2686345874076,251.5683475341337 L670.7806682197015,252.7860324131704 M670.7806682197015,252.7860324131704 L690.1983234835272,254.6110825167525 M690.1983234835272,254.6110825167525 L709.4678246878887,257.0387801162811 M709.4678246878887,257.0387801162811 L728.5358652347832,260.0628277891518 M728.5358652347832,260.0628277891518 L747.349380728896,263.6753724576101 M747.349380728896,263.6753724576101 L765.8560005849401,267.86702681405905 M765.8560005849401,267.86702681405905 L784.0040047603622,272.62681693368387 M784.0040047603622,272.62681693368387 L801.7425142375662,277.9423235766078 M801.7425142375662,277.9423235766078 L819.0214805338903,283.79957183046326 M819.0214805338903,283.79957183046326 L835.7919454493908,290.1831685631815 M835.7919454493908,290.1831685631815 L852.0061937911742,297.0762060440636 M852.0061937911742,297.0762060440636 L867.6177173460019,304.4604324107163 M867.6177173460019,304.4604324107163 L882.5814024437952,312.3160986787042 M429.22260520817485,283.89824918761235 L445.72602005586725,278.0323551695394 M445.72602005586725,278.0323551695394 L462.76065634116935,272.7080073513953 M462.76065634116935,272.7080073513953 L480.27834863251053,267.9391431328708 M480.27834863251053,267.9391431328708 L498.2298098667426,263.738233145803 M498.2298098667426,263.738233145803 L516.5647513934432,260.11624890840994 M516.5647513934432,260.11624890840994 L535.232045714183,257.0826373483425 M535.232045714183,257.0826373483425 L554.1797458121476,254.6452663934612 M554.1797458121476,254.6452663934612 L573.3553047088653,252.81043036265413 M573.3553047088653,252.81043036265413 L592.7055660452622,251.58291481343207 M592.7055660452622,251.58291481343207 L612.1771425928107,250.96589866072844 M612.1771425928107,250.96589866072844 L631.7161233743561,250.96096012474942 M631.7161233743561,250.96096012474942 L651.2686425307857,251.5681152383359 M651.2686425307857,251.5681152383359 L670.7806763811861,252.78580010388896 M670.7806763811861,252.78580010388896 L690.1983318626055,254.61085018726777 M690.1983318626055,254.61085018726777 L709.4678332834812,257.03854775993267 M709.4678332834812,257.03854775993267 L728.5358740452475,260.06259539935854 M728.5358740452475,260.06259539935854 L747.3493897520257,263.67514002788874 M747.3493897520257,263.67514002788874 L765.8560098179692,267.8667943380438 M765.8560098179692,267.8667943380438 L784.0040141999684,272.6265844051454 M784.0040141999684,272.6265844051454 L801.7425238798755,277.94209098947084 M801.7425238798755,277.94209098947084 L819.0214903744816,283.7993391788252 M819.0214903744816,283.7993391788252 L835.7919554833024,290.18293584132925 M835.7919554833024,290.18293584132925 L852.0062040129126,297.0759732464912 M852.0062040129126,297.0759732464912 L867.6177277495487,304.46019953214 M867.6177277495487,304.46019953214 L882.5814130226188,312.31586571407996 M882.5814024437952,312.3160986787042 L489.9325352641548,553.2920857927791 M882.5814130226188,312.31586571407996 L489.9325415892615,553.291850252381" stroke="black"  stroke-width="4"  fill="red"/></svg>