<svg viewBox="0 0 800 800" xmlns="http://www.w3.org/2000/svg"><path d="M610.3888435119799,550.8137264757061 L610.141070032924,36.25537733879173 M190.23935507696652,763.5464818278124 L189.49427602990443,248.6310905263672 M610.3888435119799,550.8137264757061 L654.4542555398032,579.3305053439435 M654.4542555398032,579.3305053439435 L683.775896416808,612.3766053147483 M683.775896416808,612.3766053147483 L696.6430120693997,648.0353423534252 M696.6430120693997,648.0353423534252 L692.2983148712023,684.2361913514433 M692.2983148712023,684.2361913514433 L670.9842424310963,718.8746966524304 M670.9842424310963,718.8746966524304 L633.9311154973911,749.9348711428793 M633.9311154973911,749.9348711428793 L583.2876837266439,775.6070332753043 M583.2876837266439,775.6070332753043 L521.9970667626792,794.3941124038938 M521.9970667626792,794.3941124038938 L453.62604499955245,805.1996655010735 M453.62604499955245,805.1996655010735 L382.15641237955674,807.3928304087785 M382.15641237955674,807.3928304087785 L311.7518102528511,800.8455050617704 M311.7518102528511,800.8455050617704 L246.51344280148106,785.9400045038165 M246.51344280148106,785.9400045038165 L190.23935507696652,763.5464818278124 M610.141070032924,36.25537733879173 L654.2585162621754,64.72426036744946 M654.2585162621754,64.72426036744946 L683.6147778530446,97.7148705289037 M683.6147778530446,97.7148705289037 L696.4970728547561,133.31374676360429 M696.4970728547561,133.31374676360429 L692.1472090338574,169.4538419497294 M692.1472090338574,169.4538419497294 L670.8079004549527,204.03423150650997 M670.8079004549527,204.03423150650997 L633.7109147070335,235.04230726868627 M633.7109147070335,235.04230726868627 L583.0075392819389,260.6714177875692 M583.0075392819389,260.6714177875692 L521.6443774222917,279.4269968974113 M521.6443774222917,279.4269968974113 L453.19243683319684,290.2144345778652 M453.19243683319684,290.2144345778652 L381.63823391511966,292.4039228502588 M381.63823391511966,292.4039228502588 L311.15034881449577,285.86757366701204 M311.15034881449577,285.86757366701204 L245.83484834420514,270.9870633031678 M245.83484834420514,270.9870633031678 L189.49427602990443,248.6310905263672 M190.23935507696652,763.5464818278124 L146.2024800635987,734.9713224627449 M146.2024800635987,734.9713224627449 L116.95954506086287,701.8802443946661 M116.95954506086287,701.8802443946661 L104.20338466636224,666.2001793499694 M104.20338466636224,666.2001793499694 L108.66581244929614,630.0065665364746 M108.66581244929614,630.0065665364746 L130.07738472364463,595.4022218530408 M130.07738472364463,595.4022218530408 L167.18550020598016,564.3952785496112 M167.18550020598016,564.3952785496112 L217.8287919777517,538.7832336400497 M217.8287919777517,538.7832336400497 L279.06417244148724,520.0493857443107 M279.06417244148724,520.0493857443107 L347.33753523931773,509.27797299224403 M347.33753523931773,509.27797299224403 L418.689403436878,507.09206457750406 M418.689403436878,507.09206457750406 L488.9831495625554,513.6180821849484 M488.9831495625554,513.6180821849484 L554.1430207910482,528.4785640090049 M554.1430207910482,528.4785640090049 L610.3888435119799,550.8137264757061 M189.49427602990443,248.6310905263672 L145.40543446790159,220.10385609223158 M145.40543446790159,220.10385609223158 L116.12806513186547,187.06829021322847 M116.12806513186547,187.06829021322847 L103.35698793060033,151.44809660800456 M103.35698793060033,151.44809660800456 L107.82486082935577,115.31523401402592 M107.82486082935577,115.31523401402592 L129.26189984517669,80.76898804736265 M129.26189984517669,80.76898804736265 L166.41400409136185,49.81411695765564 M166.41400409136185,49.81411695765564 L217.11723902040254,24.245093717207055 M217.11723902040254,24.245093717207055 L278.4250335497816,5.542719325734652 M278.4250335497816,5.542719325734652 L346.77908400581043,-5.210595002914488 M346.77908400581043,-5.210595002914488 L418.21524388808456,-7.392830408774898 M418.21524388808456,-7.392830408774898 L488.59201079770787,-0.8777783637015091 M488.59201079770787,-0.8777783637015091 L553.8288294090249,13.957735714011505 M553.8288294090249,13.957735714011505 L610.141070032924,36.25537733879173" stroke="black"  stroke-width="4"  fill="red"/></svg>