<svg viewBox="0 0 800 800" xmlns="http://www.w3.org/2000/svg"><path d="M633.8083475232997,257.04593775916146 L633.810558033234,256.9897136126856 M166.17428181419382,542.99869908041 L166.17648731722147,542.9424718289629 M633.8083475232997,257.04593775916146 L688.2498001847416,295.40863912870554 M688.2498001847416,295.40863912870554 L725.9550664358248,339.85898847888166 M725.9550664358248,339.85898847888166 L744.7055094092211,387.80585010323557 M744.7055094092211,387.80585010323557 L743.4251221156737,436.4613921646778 M743.4251221156737,436.4613921646778 L722.1929759534542,482.99809453896523 M722.1929759534542,482.99809453896523 L682.2342875143222,524.718942483054 M682.2342875143222,524.718942483054 L625.8639012372878,559.192801661342 M625.8639012372878,559.192801661342 L556.3640925072541,584.4116757668162 M556.3640925072541,584.4116757668162 L477.78478859420284,598.9130820099854 M477.78478859420284,598.9130820099854 L394.68047464545816,601.8587685351595 M394.68047464545816,601.8587685351595 L311.8813072987541,593.0740968761202 M311.8813072987541,593.0740968761202 L234.20235943509033,573.0611568157656 M234.20235943509033,573.0611568157656 L166.17428181419382,542.99869908041 M633.810558033234,256.9897136126856 L688.2520113397622,295.3524145656229 M688.2520113397622,295.3524145656229 L725.9572780531889,339.8027634331156 M725.9572780531889,339.8027634331156 L744.7077212789445,387.7496245368384 M744.7077212789445,387.7496245368384 L743.4273340133077,436.40516606996243 M743.4273340133077,436.40516606996243 L722.1951876529201,482.9418679389637 M722.1951876529201,482.9418679389637 L682.2364988010086,524.6627154300731 M682.2364988010086,524.6627154300731 L625.8661119204189,559.1365742340713 M625.8661119204189,559.1365742340713 L556.3663024311827,584.355448065744 M556.3663024311827,584.355448065744 L477.786997647665,598.8568541514796 M477.786997647665,598.8568541514796 L394.6826827674813,601.8025406446795 M394.6826827674813,601.8025406446795 L311.8835144826735,593.0178690810135 M311.8835144826735,593.0178690810135 L234.20456572869443,573.0049292379335 M234.20456572869443,573.0049292379335 L166.17648731722147,542.9424718289629 M166.17428181419382,542.99869908041 L111.72759459915687,504.62416813515665 M111.72759459915687,504.62416813515665 L74.03842635452747,460.1724256765483 M74.03842635452747,460.1724256765483 L55.29227872105548,412.2184735748451 M55.29227872105548,412.2184735748451 L56.5858112059359,363.56385857856367 M56.5858112059359,363.56385857856367 L77.82913266305695,317.0315243949917 M77.82913266305695,317.0315243949917 L117.8022767828661,275.3218489886276 M117.8022767828661,275.3218489886276 L174.17325689815334,240.85568044187312 M174.17325689815334,240.85568044187312 L243.65966151864268,215.63925240036042 M243.65966151864268,215.63925240036042 L322.22846468849457,201.1422138981543 M322.22846468849457,201.1422138981543 L405.319776655233,198.1974549722363 M405.319776655233,198.1974549722363 L488.11422753863735,206.98376325771824 M488.11422753863735,206.98376325771824 L565.7761883904459,226.98658316801448 M565.7761883904459,226.98658316801448 L633.8083475232997,257.04593775916146 M166.17648731722147,542.9424718289629 L111.72979945703992,504.5679413003454 M111.72979945703992,504.5679413003454 L74.0406307503581,460.11619932438043 M74.0406307503581,460.11619932438043 L55.294482864643214,412.16224774336297 M55.294482864643214,412.16224774336297 L56.5880153219332,363.50763327538516 M56.5880153219332,363.50763327538516 L77.83133697751327,316.9752995971212 M77.83133697751327,316.9752995971212 L117.80448151033488,275.26562464368544 M117.80448151033488,275.26562464368544 L174.17546222917736,240.79945647121713 M174.17546222917736,240.79945647121713 L243.66186760860728,215.58302870354964 M243.66186760860728,215.58302870354964 L322.230671648751,201.0859903587807 M322.230671648751,201.0859903587807 L405.3219845465792,198.14123146484417 M405.3219845465792,198.14123146484417 L488.1164363679127,206.92753965490192 M488.1164363679127,206.92753965490192 L565.7783981098037,226.93035934797444 M565.7783981098037,226.93035934797444 L633.810558033234,256.9897136126856" stroke="black"  stroke-width="4"  fill="red"/></svg>