<svg viewBox="0 0 800 800" xmlns="http://www.w3.org/2000/svg"><path d="M227.72065373179032,197.1791774812628 L48.767006711482,285.7382657209545 M48.7670080823753,271.4915234819406 L48.767006711482,285.7382657209545 M48.7670080823753,271.4915234819406 L48.766664093616725,271.375947469415 M48.766664093616725,271.375947469415 L48.76645769460373,271.2602995721435 M48.76645769460373,271.2602995721435 L48.76638889323095,271.14457979522194 M228.11336150638647,182.8951913005783 L48.76638889323095,271.14457979522194 M227.72065373179032,197.1791774812628 L228.11336150638647,182.8951913005783 M750.0742495262381,632.7952620229614 L734.9479043065636,625.3096642471603 M557.6933566644486,739.7585421035521 L734.9479043065636,625.3096642471603 M557.6933566644486,739.7585421035521 L341.89457861631763,625.3100561832789 M329.28929053205366,632.7956559796175 L341.89457861631763,625.3100561832789 M259.09653629262664,595.3872200824226 L329.28929053205366,632.7956559796175 M271.7184131245523,588.0922555966985 L259.09653629262664,595.3872200824226 M271.7184131245523,588.0922555966985 L-4.2834274887655965,441.71518592507323 M-16.925683009531326,448.2842945903435 L-4.2834274887655965,441.71518592507323 M-78.56451391183839,415.4345755620536 L-16.925683009531326,448.2842945903435 M-65.92747839860778,409.0223766495262 L-78.56451391183839,415.4345755620536 M-65.92747839860778,409.0223766495262 L-119.03306865066656,380.8579243146989 M60.563196834905,291.57586451091026 L-119.03306865066656,380.8579243146989 M60.563196834905,291.57586451091026 L48.767006711482,285.7382657209545 M924.9450621937098,519.2133374101164 L227.72065373179032,197.1791774812628 M750.0742495262381,632.7952620229614 L924.9450621937098,519.2133374101164 M146.29900070982853,243.20033671868782 L146.13354757892233,243.1381644251532 M146.13354757892233,243.1381644251532 L145.94306066581368,243.09679547304876 M145.94306066581368,243.09679547304876 L145.73861940131758,243.0786259788368 M145.73861940131758,243.0786259788368 L145.5321031691405,243.08470895325823 M145.5321031691405,243.08470895325823 L145.3354885912288,243.1147015782761 M145.3354885912288,243.1147015782761 L145.16021453672857,243.16685326631583 M145.16021453672857,243.16685326631583 L145.01646933938713,243.23813349628284 M145.01646933938713,243.23813349628284 L144.91258774396294,243.32441212949067 M144.91258774396294,243.32441212949067 L144.8546141261993,243.42067517137718 M144.8546141261993,243.42067517137718 L144.84594100393969,243.52132129276748 M144.84594100393969,243.52132129276748 L144.88705729725945,243.62051137683682 M144.88705729725945,243.62051137683682 L144.9755827830844,243.71247812219235 M144.9755827830844,243.71247812219235 L145.10638850163684,243.7918682099275 M145.10638850163684,243.7918682099275 L145.2718597562677,243.85407297413107 M145.2718597562677,243.85407297413107 L145.46239278891443,243.8954667385337 M145.46239278891443,243.8954667385337 L145.66689818828718,243.9136479877801 M145.66689818828718,243.9136479877801 L145.873481878039,243.90756101961523 M145.873481878039,243.90756101961523 L146.07015178737942,243.8775495606249 M146.07015178737942,243.8775495606249 L146.24545636705523,243.82536851868971 M146.24545636705523,243.82536851868971 L146.38920029227978,243.75405513976744 M146.38920029227978,243.75405513976744 L146.49304910956027,243.66774715236713 M146.49304910956027,243.66774715236713 L146.55096595041493,243.5714652779316 M146.55096595041493,243.5714652779316 L146.55957130849555,243.47081516070847 M146.55957130849555,243.47081516070847 L146.51839178253,243.37163683201163 M146.51839178253,243.37163683201163 L146.42982208163932,243.2796949013378 M146.42982208163932,243.2796949013378 L146.29900070982853,243.20033671868782 M832.2943341630533,570.8984579679103 L832.0883343162576,570.819104626551 M832.0883343162576,570.819104626551 L831.8604438796868,570.7663065794302 M831.8604438796868,570.7663065794302 L831.6239316095613,570.7431299537221 M831.6239316095613,570.7431299537221 L831.3924966629755,570.7508976802396 M831.3924966629755,570.7508976802396 L831.1795521948003,570.7891668747507 M831.1795521948003,570.7891668747507 L830.9975482412389,570.8557344557635 M830.9975482412389,570.8557344557635 L830.857019801255,570.946711333896 M830.857019801255,570.946711333896 L830.7661161167742,571.0568265700924 M830.7661161167742,571.0568265700924 L830.7301733779783,571.1797026301462 M830.7301733779783,571.1797026301462 L830.7512419677852,571.3081595707422 M830.7512419677852,571.3081595707422 L830.8280951296869,571.4347500179075 M830.8280951296869,571.4347500179075 L830.9563189417812,571.5521334475577 M830.9563189417812,571.5521334475577 L831.1284596780666,571.6534683178721 M831.1284596780666,571.6534683178721 L831.3344930621496,571.7328680757175 M831.3344930621496,571.7328680757175 L831.5624509641035,571.7857019007567 M831.5624509641035,571.7857019007567 L831.7990973894435,571.8089185168463 M831.7990973894435,571.8089185168463 L832.0306170478799,571.8011450284973 M832.0306170478799,571.8011450284973 L832.2436256217815,571.7628486832743 M832.2436256217815,571.7628486832743 L832.4256583555822,571.6962387706064 M832.4256583555822,571.6962387706064 L832.5661736812602,571.6052140920929 M832.5661736812602,571.6052140920929 L832.6570253590065,571.4950565292115 M832.6570253590065,571.4950565292115 L832.6928890920109,571.3721533105595 M832.6928890920109,571.3721533105595 L832.6717326290028,571.2436906089639 M832.6717326290028,571.2436906089639 L832.5947546126698,571.1170940718673 M832.5947546126698,571.1170940718673 L832.4664829680424,570.9997464241571 M832.4664829680424,570.9997464241571 L832.2943341630533,570.8984579679103 M60.58943271510873,277.3096499521623 L48.7670080823753,271.4915234819406 M60.58943271510873,277.3096499521623 L60.563196834905,291.57586451091026 M60.5894529692556,276.96223124280266 L60.58930861589329,277.0781096846916 M60.58930861589329,277.0781096846916 L60.58930186714264,277.1939159228458 M60.58930186714264,277.1939159228458 L60.58943271510873,277.3096499521623 M48.76638889323095,271.14457979522194 L60.5894529692556,276.96223124280266 M736.7137483606183,609.6556396972635 L751.8836938113301,617.1201560479802 M751.8836938113301,617.1201560479802 L927.1181258127032,503.8683835949374 M927.1181258127032,503.8683835949374 L228.11336150638647,182.8951913005783 M60.5894529692556,276.96223124280266 L-119.42863818365174,365.94637404979215 M-119.42863818365174,365.94637404979215 L-66.20072312780644,394.0198617499585 M-66.20072312780644,394.0198617499585 L-78.86858932478708,400.4115463660854 M-78.86858932478708,400.4115463660854 L-17.08447518127514,433.1573085786008 M-17.08447518127514,433.1573085786008 L-4.411351331106857,426.6088363005437 M-4.411351331106857,426.6088363005437 L272.28499872852456,572.5441330697336 M272.28499872852456,572.5441330697336 L259.6324078601781,579.8180704569105 M259.6324078601781,579.8180704569105 L330.0133108604706,617.1201560479802 M330.0133108604706,617.1201560479802 L342.6491851617229,609.6556396972635 M342.6491851617229,609.6556396972635 L559.0552030540903,723.7925859813581 M736.7137483606183,609.6556396972635 L559.0552030540903,723.7925859813581 M147.41306572720617,228.31160956699463 L147.74088631570459,228.50925526869423 M147.74088631570459,228.50925526869423 L147.96292205874693,228.73825290096264 M147.96292205874693,228.73825290096264 L148.0662464345611,228.98530751902246 M148.0662464345611,228.98530751902246 L148.04481984589694,229.23606671110016 M148.04481984589694,229.23606671110016 L147.8998415933549,229.47596077690218 M147.8998415933549,229.47596077690218 L147.6397289988751,229.69102692613336 M147.6397289988751,229.69102692613336 L147.2795562275686,229.868762631404 M147.2795562275686,229.868762631404 L146.840277483911,229.99880950121485 M146.840277483911,229.99880950121485 L146.34741411866736,230.07360634598282 M146.34741411866736,230.07360634598282 L145.829661531356,230.08878522164622 M145.829661531356,230.08878522164622 L145.31713440057985,230.04346659021274 M145.31713440057985,230.04346659021274 L144.83965501285843,229.94029087854403 M144.83965501285843,229.94029087854403 L144.42499681243044,229.78526701780436 M144.42499681243044,229.78526701780436 L144.09727137347198,229.58742067888505 M144.09727137347198,229.58742067888505 L143.87551259132778,229.35826787561257 M143.87551259132778,229.35826787561257 L143.77258577053908,229.11114016017126 M143.77258577053908,229.11114016017126 L143.7944374979653,228.86040576995742 M143.7944374979653,228.86040576995742 L143.93977220015643,228.62062925607756 M143.93977220015643,228.62062925607756 L144.20009059095815,228.40574633247908 M144.20009059095815,228.40574633247908 L144.56027136707803,228.22821756100709 M144.56027136707803,228.22821756100709 L144.9993584897287,228.0983539146332 M144.9993584897287,228.0983539146332 L145.49187449990734,228.0236746252898 M145.49187449990734,228.0236746252898 L146.0092038780134,228.00852083108384 M146.0092038780134,228.00852083108384 L146.52132777669743,228.05376580180996 M146.52132777669743,228.05376580180996 L146.9985182203746,228.1567869045217 M146.9985182203746,228.1567869045217 L147.41306572720617,228.31160956699463 M835.1493636826871,554.8359236020942 L835.5810293317564,555.0883358437858 M835.5810293317564,555.0883358437858 L835.902801816235,555.3807615111041 M835.902801816235,555.3807615111041 L836.0960778410678,555.6962829840022 M836.0960778410678,555.6962829840022 L836.149502509745,556.0165333517896 M836.149502509745,556.0165333517896 L836.0599399247272,556.3229169325474 M836.0599399247272,556.3229169325474 L835.832559693445,556.5975923414796 M835.832559693445,556.5975923414796 L835.480540159026,556.8245969351772 M835.480540159026,556.8245969351772 L835.0243547801314,556.9906980041478 M835.0243547801314,556.9906980041478 L834.4904907993074,557.0862277100559 M834.4904907993074,557.0862277100559 L833.910045327318,557.1056126664223 M833.910045327318,557.1056126664223 L833.3167605902898,557.0477172785518 M833.3167605902898,557.0477172785518 L832.7452443925603,556.9159538544633 M832.7452443925603,556.9159538544633 L832.2286252322832,556.717940830719 M832.2286252322832,556.717940830719 L831.797058438085,556.4652615852399 M831.797058438085,556.4652615852399 L831.4755378855108,556.1725894034666 M831.4755378855108,556.1725894034666 L831.2827915240197,555.8569850004116 M831.2827915240197,555.8569850004116 L831.2299189078457,555.5367706312808 M831.2299189078457,555.5367706312808 L831.3199778379068,555.2305567105223 M831.3199778379068,555.2305567105223 L831.5476849677649,554.9561457410086 M831.5476849677649,554.9561457410086 L831.8997870962279,554.7294398049034 M831.8997870962279,554.7294398049034 L832.3557918389255,554.5636031770277 M832.3557918389255,554.5636031770277 L832.8892533126547,554.4682431267242 M832.8892533126547,554.4682431267242 L833.4691666411233,554.4488941624459 M833.4691666411233,554.4488941624459 L834.0618631381755,554.5066606693114 M834.0618631381755,554.5066606693114 L834.633003764348,554.6382235301769 M834.633003764348,554.6382235301769 L835.1493636826871,554.8359236020942 M924.9450621937098,519.2133374101164 L927.1181258127032,503.8683835949374 M751.8412204967111,617.4928567830923 L736.672313523606,610.0278382334966 M751.8412204967111,617.4928567830923 L750.0742495262381,632.7952620229614 M736.672313523606,610.0278382334966 L734.9479043065636,625.3096642471603 M736.672313523606,610.0278382334966 L736.6859893899085,609.9038639756047 M736.6859893899085,609.9038639756047 L736.6998009997461,609.7797977951034 M736.6998009997461,609.7797977951034 L736.7137483606183,609.6556396972635 M557.6933566644486,739.7585421035521 L559.0552030540903,723.7925859813581 M341.89457861631763,625.3100561832789 L342.6491851617229,609.6556396972635 M329.28929053205366,632.7956559796175 L330.0133108604706,617.1201560479802 M259.09653629262664,595.3872200824226 L259.6324078601781,579.8180704569105 M271.7184131245523,588.0922555966985 L272.28499872852456,572.5441330697336 M-4.2834274887655965,441.71518592507323 L-4.411351331106857,426.6088363005437 M-16.925683009531326,448.2842945903435 L-17.08447518127514,433.1573085786008 M-78.56451391183839,415.4345755620536 L-78.86858932478708,400.4115463660854 M-65.92747839860778,409.0223766495262 L-66.20072312780644,394.0198617499585 M-119.03306865066656,380.8579243146989 L-119.42863818365174,365.94637404979215 M751.8836938113301,617.1201560479802 L751.8694003834381,617.2444820142734 M751.8694003834381,617.2444820142734 L751.8552426143921,617.3687155944008 M751.8552426143921,617.3687155944008 L751.8412204967111,617.4928567830923 M146.29900070982853,243.20033671868782 L146.49407895128576,230.27328548314915 M146.49407895128576,230.27328548314915 L146.62516813324902,230.3523954113091 M146.62516813324902,230.3523954113091 L146.713922122542,230.44404973445882 M146.713922122542,230.44404973445882 L146.75519171479795,230.5429178341063 M146.75519171479795,230.5429178341063 L146.74657695267382,230.64325313441466 M146.74657695267382,230.64325313441466 L146.68855171965384,230.73923387004476 M146.68855171965384,230.73923387004476 L146.58450183811493,230.82527192619847 M146.58450183811493,230.82527192619847 L146.44047585877576,230.89636227890952 M146.44047585877576,230.89636227890952 L146.2648245885353,230.94838013439283 M146.2648245885353,230.94838013439283 L146.06776351996587,230.97829774010404 M146.06776351996587,230.97829774010404 L145.8607669873619,230.98436567298268 M145.8607669873619,230.98436567298268 L145.65585103912179,230.9662412806697 M145.65585103912179,230.9662412806697 L145.46493364006034,230.92497696600188 M145.46493364006034,230.92497696600188 L145.29912657969226,230.86296673836523 M145.29912657969226,230.86296673836523 L145.1680531100322,230.7838249407306 M145.1680531100322,230.7838249407306 L145.07934351096213,230.69214583103292 M145.07934351096213,230.69214583103292 L145.03813740367622,230.59326598934078 M145.03813740367622,230.59326598934078 L145.04682020166496,230.492934680335 M145.04682020166496,230.492934680335 L145.10490244042205,230.39697275590197 M145.10490244042205,230.39697275590197 L145.2089852336349,230.31096402066035 M145.2089852336349,230.31096402066035 L145.35301249274045,230.23990677932125 M145.35301249274045,230.23990677932125 L145.52863311782238,230.18791824445302 M145.52863311782238,230.18791824445302 L145.72563863482685,230.15801945136138 M145.72563863482685,230.15801945136138 L145.9325674400141,230.15195550769806 M145.9325674400141,230.15195550769806 L146.13741899562802,230.17006815830428 M146.13741899562802,230.17006815830428 L146.3282900885423,230.211307688805 M146.3282900885423,230.211307688805 L146.49407895128576,230.27328548314915 M832.2943341630533,570.8984579679103 L834.0652874488329,557.0310521083666 M834.0652874488329,557.0310521083666 L834.2378883703701,557.1320761345381 M834.2378883703701,557.1320761345381 L834.3665229732234,557.249117447298 M834.3665229732234,557.249117447298 L834.443753778699,557.375383529703 M834.443753778699,557.375383529703 L834.4650380173308,557.503510931248 M834.4650380173308,557.503510931248 L834.4291696983713,557.6260933850442 M834.4291696983713,557.6260933850442 L834.3381811796418,557.7359634682139 M834.3381811796418,557.7359634682139 L834.1974048099449,557.8267506128361 M834.1974048099449,557.8267506128361 L834.0150019573163,557.8931867115788 M834.0150019573163,557.8931867115788 L833.8015356032757,557.9313831283316 M833.8015356032757,557.9313831283316 L833.5694973237411,557.9391363332319 M833.5694973237411,557.9391363332319 L833.3323014235169,557.9159802967981 M833.3323014235169,557.9159802967981 L833.1037952984838,557.8632843354604 M833.1037952984838,557.8632843354604 L832.8972467776445,557.7840917703136 M832.8972467776445,557.7840917703136 L832.7246539324157,557.6830213465755 M832.7246539324157,557.6830213465755 L832.5960673563017,557.5659442645967 M832.5960673563017,557.5659442645967 L832.5189618648761,557.439684218009 M832.5189618648761,557.439684218009 L832.4977659007635,557.3115625754152 M832.4977659007635,557.3115625754152 L832.5337136000275,557.189007270562 M832.5337136000275,557.189007270562 L832.6247543872522,557.0791794990292 M832.6247543872522,557.0791794990292 L832.7655439603922,556.9884401377944 M832.7655439603922,556.9884401377944 L832.94791792889,556.9220463556571 M832.94791792889,556.9220463556571 L833.1613199039654,556.8838770799634 M833.1613199039654,556.8838770799634 L833.3932730918187,556.8761296348464 M833.3932730918187,556.8761296348464 L833.6303343139926,556.8992457470652 M833.6303343139926,556.8992457470652 L833.8587726459936,556.9519059432039 M833.8587726459936,556.9519059432039 L834.0652874488329,557.0310521083666 M147.41306572720617,228.31160956699463 L147.38992532268975,229.83120609544443 M147.38992532268975,229.83120609544443 L147.71766718427693,230.0289250221173 M147.71766718427693,230.0289250221173 L147.93964871658318,230.25800748568008 M147.93964871658318,230.25800748568008 L148.04294655910297,230.5051536131833 M148.04294655910297,230.5051536131833 L148.0215226726648,230.75600567521752 M148.0215226726648,230.75600567521752 L147.8765762201054,230.99598857601987 M147.8765762201054,230.99598857601987 L147.61652268456083,231.2111343570983 M147.61652268456083,231.2111343570983 L147.25643281302877,231.38893586546826 M147.25643281302877,231.38893586546826 L146.81725598735886,231.5190308787976 M146.81725598735886,231.5190308787976 L146.32450763326415,231.59385541202175 M146.32450763326415,231.59385541202175 L145.80687644725316,231.60903990650627 M145.80687644725316,231.60903990650627 L145.29447003818234,231.563704499178 M145.29447003818234,231.563704499178 L144.81710366005314,231.4604905928487 M144.81710366005314,231.4604905928487 L144.40254417782143,231.30540934001866 M144.40254417782143,231.30540934001866 L144.0748974230853,231.10748974897942 M144.0748974230853,231.10748974897942 L143.85319272298517,230.87825209330026 M143.85319272298517,230.87825209330026 L143.75029224974418,230.63103285856707 M143.75029224974418,230.63103285856707 L143.77214107515783,230.38020560172737 M143.77214107515783,230.38020560172737 L143.91744380903958,230.1403402687914 M143.91744380903958,230.1403402687914 L144.17770304267583,229.9253777381969 M144.17770304267583,229.9253777381969 L144.53780091338768,229.74778319169235 M144.53780091338768,229.74778319169235 L144.9767862063045,229.61787142665102 M144.9767862063045,229.61787142665102 L145.46918736726053,229.54316446479606 M145.46918736726053,229.54316446479606 L145.98639554249485,229.52800505520372 M145.98639554249485,229.52800505520372 L146.4983989092156,229.57326679176776 M146.4983989092156,229.57326679176776 L146.9754764804261,229.67632606823614 M146.9754764804261,229.67632606823614 L147.38992532268975,229.83120609544443 M835.1493636826871,554.8359236020942 L834.9409115749005,556.4665343547034 M834.9409115749005,556.4665343547034 L835.3724442498236,556.7190247048757 M835.3724442498236,556.7190247048757 L835.6941099334032,557.0115408478625 M835.6941099334032,557.0115408478625 L835.8873115128828,557.3271599242792 M835.8873115128828,557.3271599242792 L835.9406984637945,557.6475093393951 M835.9406984637945,557.6475093393951 L835.8511371001788,557.9539876608068 M835.8511371001788,557.9539876608068 L835.6237969817504,558.2287479906015 M835.6237969817504,558.2287479906015 L835.2718541374053,558.4558227562254 M835.2718541374053,558.4558227562254 L834.8157775696064,558.621975164451 M834.8157775696064,558.621975164451 L834.2820482007038,558.7175343947688 M834.2820482007038,558.7175343947688 L833.7017552919557,558.7369253420412 M833.7017552919557,558.7369253420412 L833.1086321893043,558.6790120614364 M833.1086321893043,558.6790120614364 L832.5372772537224,558.5472079131513 M832.5372772537224,558.5472079131513 L832.0208096274479,558.3491336833066 M832.0208096274479,558.3491336833066 L831.5893757873665,558.0963763236791 M831.5893757873665,558.0963763236791 L831.26796190735,557.8036136492851 M831.26796190735,557.8036136492851 L831.0752897292508,557.4879116451523 M831.0752897292508,557.4879116451523 L831.0224545354728,557.1675982302785 M831.0224545354728,557.1675982302785 L831.1125119685054,556.8612895763396 M831.1125119685054,556.8612895763396 L831.3401787927868,556.5867936976117 M831.3401787927868,556.5867936976117 L831.6922041654906,556.3600176027358 M831.6922041654906,556.3600176027358 L832.1481001734945,556.1941296472531 M832.1481001734945,556.1941296472531 L832.6814272363011,556.0987400800132 M832.6814272363011,556.0987400800132 L833.2611882810651,556.0793851264141 M833.2611882810651,556.0793851264141 L833.8537234522865,556.1371695142432 M833.8537234522865,556.1371695142432 L834.4247030429814,556.2687730965645 M834.4247030429814,556.2687730965645 L834.9409115749005,556.4665343547034" stroke="black"  stroke-width="4"  fill="red"/>
<path d="M750.0742495262381,632.7952620229614 L560.424357375309,755.9764803437242 M750.0742495262381,632.7952620229614 L734.9479043065636,625.3096642471603 M545.1680663674432,747.8458122942844 L734.9479043065636,625.3096642471603 M560.424357375309,755.9764803437242 L545.1680663674432,747.8458122942844 M751.8412204967111,617.4928567830923 L750.0742495262381,632.7952620229614 M850.6463479782007,484.5912950804749 L847.5567045642753,484.41151125688566 M847.5567045642753,484.41151125688566 L844.3257327118707,484.59536378084795 M844.3257327118707,484.59536378084795 L840.9658195459675,485.1432431129266 M840.9658195459675,485.1432431129266 L837.4899260422752,486.0541532166937 M837.4899260422752,486.0541532166937 L833.9115864313613,487.3256437271406 M833.9115864313613,487.3256437271406 L830.2448348703869,488.9537406237571 M830.2448348703869,488.9537406237571 L826.5041748187508,490.93285010120337 M826.5041748187508,490.93285010120337 L822.7044756480967,493.2559929556564 M822.7044756480967,493.2559929556564 L818.8609514812036,495.91470526307126 M818.8609514812036,495.91470526307126 L814.9890628557947,498.8990361250673 M814.9890628557947,498.8990361250673 L811.1044783437043,502.1975569503411 M811.1044783437043,502.1975569503411 L807.2229772788131,505.7975999330809 M807.2229772788131,505.7975999330809 L803.3604065688866,509.68494293778133 M803.3604065688866,509.68494293778133 L799.5325557064531,513.8443078732381 M799.5325557064531,513.8443078732381 L795.7551475994568,518.2590294162467 M795.7551475994568,518.2590294162467 L792.0437101429133,522.9114189336716 M792.0437101429133,522.9114189336716 L788.4135372507786,527.7826000887742 M788.4135372507786,527.7826000887742 L784.8795938027548,532.8528101614947 M784.8795938027548,532.8528101614947 L781.4564539272664,538.1013032977958 M781.4564539272664,538.1013032977958 L778.1582133353448,543.5067001232218 M778.1582133353448,543.5067001232218 L774.9984559846115,549.0467361392436 M774.9984559846115,549.0467361392436 L771.990145653571,554.6987241889648 M771.990145653571,554.6987241889648 L769.145611822553,560.4392956239751 M769.145611822553,560.4392956239751 L766.4764347475858,566.2449650699498 M766.4764347475858,566.2449650699498 L763.993436736603,572.0918716878966 M763.993436736603,572.0918716878966 L761.706626961388,577.9559303430276 M761.706626961388,577.9559303430276 L759.6251368693432,583.8131307236165 M759.6251368693432,583.8131307236165 L757.7571873683777,589.6395803108373 M757.7571873683777,589.6395803108373 L756.1100653732739,595.4115418561537 M756.1100653732739,595.4115418561537 L754.6900842470085,601.105621977315 M754.6900842470085,601.105621977315 L753.5025822132135,606.6987001841723 M753.5025822132135,606.6987001841723 L752.5518615039724,612.1684100839307 M752.5518615039724,612.1684100839307 L751.8412204967111,617.4928567830923 M851.1185703901582,484.6501510263895 L851.0675197221293,484.758578219935 M851.0675197221293,484.758578219935 L851.0057284162323,484.8589653635363 M851.0057284162323,484.8589653635363 L850.9367658710543,484.94554601126316 M850.9367658710543,484.94554601126316 L850.8646545711737,485.0132048630215 M850.8646545711737,485.0132048630215 L850.7935682853871,485.0580899674728 M850.7935682853871,485.0580899674728 L850.7276517477129,485.0775390660626 M850.7276517477129,485.0775390660626 L850.6707336059889,485.0704484776061 M850.6707336059889,485.0704484776061 L850.6261122576585,485.0372679528182 M850.6261122576585,485.0372679528182 L850.5963882429027,484.9798255069669 M850.5963882429027,484.9798255069669 L850.583297869218,484.9015264695618 M850.583297869218,484.9015264695618 L850.5875938494813,484.8068663138696 M850.5875938494813,484.8068663138696 L850.6090269778157,484.70144219031715 M850.6090269778157,484.70144219031715 L850.6463479782007,484.5912950804749 M948.309826815056,354.2245028065673 L947.4354836420047,359.67075020067955 M947.4354836420047,359.67075020067955 L946.34022498521,365.22637845018437 M946.34022498521,365.22637845018437 L945.0285888491661,370.8705896697766 M945.0285888491661,370.8705896697766 L943.5058692064287,376.58239962036293 M943.5058692064287,376.58239962036293 L941.7780557003608,382.34079664122874 M941.7780557003608,382.34079664122874 L939.8518188001514,388.12459075648525 M939.8518188001514,388.12459075648525 L937.7345228003988,393.9125266034539 M937.7345228003988,393.9125266034539 L935.4341814169337,399.68347747814994 M935.4341814169337,399.68347747814994 L932.959353982452,405.4163963853883 M932.959353982452,405.4163963853883 L930.319261516756,411.09041043551696 M930.319261516756,411.09041043551696 L927.5236022192142,416.6849165502252 M927.5236022192142,416.6849165502252 L924.5826401160092,422.1795543806408 M924.5826401160092,422.1795543806408 L921.5071487040731,427.5543171345592 M921.5071487040731,427.5543171345592 L918.3082860744136,432.78970677631946 M918.3082860744136,432.78970677631946 L914.997701877828,437.8666062504834 M914.997701877828,437.8666062504834 L911.5873969518371,442.7664479027273 M911.5873969518371,442.7664479027273 L908.0897480661746,447.4712337423112 M908.0897480661746,447.4712337423112 L904.5174389130585,451.96366304098365 M904.5174389130585,451.96366304098365 L900.8834316413294,456.2271441051265 M900.8834316413294,456.2271441051265 L897.2009433711256,460.24571268146417 M897.2009433711256,460.24571268146417 L893.4833849473017,464.00434692165186 M893.4833849473017,464.00434692165186 L889.7443509663273,467.48878949053073 M889.7443509663273,467.48878949053073 L885.9975323796506,470.68569876630556 M885.9975323796506,470.68569876630556 L882.2567188548436,473.58279222986994 M882.2567188548436,473.58279222986994 L878.5357445158969,476.16856434926353 M878.5357445158969,476.16856434926353 L874.848423082847,478.43280165484964 M874.848423082847,478.43280165484964 L871.2085397262359,480.36618277729167 M871.2085397262359,480.36618277729167 L867.6297597042893,481.9606755780864 M867.6297597042893,481.9606755780864 L864.1256251470971,483.2093229689713 M864.1256251470971,483.2093229689713 L860.7094785000214,484.1064484647191 M860.7094785000214,484.1064484647191 L857.3944307081296,484.6475086644306 M857.3944307081296,484.6475086644306 L854.1932944260728,484.8293886441719 M854.1932944260728,484.8293886441719 L851.1185703901582,484.6501510263895 M588.0940137934554,575.6126637186503 L948.309826815056,354.2245028065673 M580.4102442542983,662.9561358692492 L588.0940137934554,575.6126637186503 M567.7337569250527,670.9719352765887 L580.4102442542983,662.9561358692492 M560.424357375309,755.9764803437242 L567.7337569250527,670.9719352765887 M751.8412204967111,617.4928567830923 L736.672313523606,610.0278382334966 M736.672313523606,610.0278382334966 L734.9479043065636,625.3096642471603 M545.1680663674432,747.8458122942844 L552.2402724115308,662.9561358692492 M564.9243844920811,654.9837291052054 L552.2402724115308,662.9561358692492 M564.9243844920811,654.9837291052054 L572.3638563563542,567.7651688764454 M932.8824108569853,347.5442357393479 L572.3638563563542,567.7651688764454 M932.8824108569853,347.5442357393479 L932.0229019333061,352.98216100189546 M932.0229019333061,352.98216100189546 L930.9421558924556,358.5288316547724 M930.9421558924556,358.5288316547724 L929.6446569454841,364.1634825164456 M929.6446569454841,364.1634825164456 L928.135647226294,369.86516370975266 M928.135647226294,369.86516370975266 L926.4210668295299,375.6128993118843 M926.4210668295299,375.6128993118843 L924.5075384401179,381.3855366408794 M924.5075384401179,381.3855366408794 L922.4023807338634,387.16185913736035 M922.4023807338634,387.16185913736035 L920.113564455498,392.92078013876085 M920.113564455498,392.92078013876085 L917.6496081335082,398.6412937855672 M917.6496081335082,398.6412937855672 L915.0196947905496,404.3025696539355 M915.0196947905496,404.3025696539355 L912.233487166376,409.8840479613581 M912.233487166376,409.8840479613581 L909.3012165254207,415.3654127895289 M909.3012165254207,415.3654127895289 L906.2336264602317,420.72670270852245 M906.2336264602317,420.72670270852245 L903.0418481062894,425.9484655543422 M903.0418481062894,425.9484655543422 L899.7375069916369,431.01163111008293 M899.7375069916369,431.01163111008293 L896.3325827461582,435.8976790463265 M896.3325827461582,435.8976790463265 L892.8394339518126,440.5886592702251 M892.8394339518126,440.5886592702251 L889.2707292962785,445.0673192580591 M889.2707292962785,445.0673192580591 L885.6394190219104,449.317115782526 M885.6394190219104,449.317115782526 L881.9587110727326,453.3221333812998 M881.9587110727326,453.3221333812998 L878.2420106301703,457.06739885640764 M878.2420106301703,457.06739885640764 L874.5029095062354,460.5387035715319 M874.5029095062354,460.5387035715319 L870.7550989313207,463.7227542854479 M870.7550989313207,463.7227542854479 L867.0123723431792,466.6073164015148 M867.0123723431792,466.6073164015148 L863.2885700366029,469.18093202203454 M863.2885700366029,469.18093202203454 L859.5975157158397,471.4334342999834 M859.5975157158397,471.4334342999834 L855.953007027423,473.35554787582527 M855.953007027423,473.35554787582527 L852.3687251625105,474.93928533029737 M852.3687251625105,474.93928533029737 L848.8582309315883,476.17773320116913 M848.8582309315883,476.17773320116913 L845.4348886165777,477.0652570882586 M845.4348886165777,477.0652570882586 L842.1118335822429,477.5973541759495 M842.1118335822429,477.5973541759495 L838.901906216575,477.77094809190146 M838.901906216575,477.77094809190146 L835.817637465719,477.58413816532834 M835.3438518027648,477.52415366209004 L835.3067698385797,477.6340858311745 M835.3067698385797,477.6340858311745 L835.2856071621255,477.73934033368164 M835.2856071621255,477.73934033368164 L835.2815976147375,477.83388596357554 M835.2815976147375,477.83388596357554 L835.2949734540422,477.9121323306283 M835.2949734540422,477.9121323306283 L835.3249655769652,477.9695869811249 M835.3249655769652,477.9695869811249 L835.3698218600435,478.002843923853 M835.3698218600435,478.002843923853 L835.4269284072687,478.01007056970434 M835.4269284072687,478.01007056970434 L835.4929757814615,477.9908093215946 M835.4929757814615,477.9908093215946 L835.564127652924,477.9461529747797 M835.564127652924,477.9461529747797 L835.6362356046822,477.87875039883136 M835.6362356046822,477.87875039883136 L835.705125856591,477.7924387826755 M835.705125856591,477.7924387826755 L835.7667803437158,477.6923176653895 M835.7667803437158,477.6923176653895 L835.817637465719,477.58413816532834 M736.672313523606,610.0278382334966 L737.3684087142279,604.7108516528756 M737.3684087142279,604.7108516528756 L738.3048021879691,599.2494114763749 M738.3048021879691,599.2494114763749 L739.4782533092886,593.6653792322932 M739.4782533092886,593.6653792322932 L740.8845165177094,587.9810843385317 M740.8845165177094,587.9810843385317 L742.5183099968789,582.219606354329 M742.5183099968789,582.219606354329 L744.3733752139098,576.4042944913774 M744.3733752139098,576.4042944913774 L746.4424787377255,570.5588385704107 M746.4424787377255,570.5588385704107 L748.7174513217966,564.707080789947 M748.7174513217966,564.707080789947 L751.1892113003174,558.8729784146041 M751.1892113003174,558.8729784146041 L753.8477973491919,553.0805610040821 M753.8477973491919,553.0805610040821 L756.6824323055206,547.3536318573765 M756.6824323055206,547.3536318573765 L759.6815780146206,541.715617225457 M759.6815780146206,541.715617225457 L762.8329448551264,536.1898248615403 M762.8329448551264,536.1898248615403 L766.1236051931375,530.7988802421247 M766.1236051931375,530.7988802421247 L769.5400083095047,525.5649852214185 M769.5400083095047,525.5649852214185 L773.0680876453945,520.5094564194501 M773.0680876453945,520.5094564194501 L776.693294973043,515.6529766941695 M776.693294973043,515.6529766941695 L780.400687170605,511.01524619359407 M780.400687170605,511.01524619359407 L784.1749883684105,506.61507920500696 M784.1749883684105,506.61507920500696 L788.0006842808203,502.47010345193587 M788.0006842808203,502.47010345193587 L791.8620617522289,498.59692443625886 M791.8620617522289,498.59692443625886 L795.7433363646586,495.01076227079466 M795.7433363646586,495.01076227079466 L799.6286626285345,491.72578262369973 M799.6286626285345,491.72578262369973 L803.5022577247988,488.7545992211454 M803.5022577247988,488.7545992211454 L807.3484457687306,486.10858871614954 M807.3484457687306,486.10858871614954 L811.1517545800244,483.79765270801613 M811.1517545800244,483.79765270801613 L814.8969541170294,481.8302085452668 M814.8969541170294,481.8302085452668 L818.5691550806376,480.21319179483015 M818.5691550806376,480.21319179483015 L822.1538304331067,478.95215546856923 M822.1538304331067,478.95215546856923 L825.63691833786,478.0510361127025 M825.63691833786,478.0510361127025 L829.004853170292,477.5122498559238 M829.004853170292,477.5122498559238 L832.2446392785865,477.3367617886728 M832.2446392785865,477.3367617886728 L835.3438518027648,477.52415366209004 M552.2402724115308,662.9561358692492 L567.7337569250527,670.9719352765887 M850.6463479782007,484.5912950804749 L835.3438518027648,477.52415366209004 M851.1185703901582,484.6501510263895 L835.817637465719,477.58413816532834 M948.309826815056,354.2245028065673 L932.8824108569853,347.5442357393479 M588.0940137934554,575.6126637186503 L572.3638563563542,567.7651688764454 M580.4102442542983,662.9561358692492 L564.9243844920811,654.9837291052054" stroke="black"  stroke-width="4"  fill="red"/>
<path d="M832.2943341630533,570.8984579679103 L834.0652874488329,557.0310521083666 M834.0652874488329,557.0310521083666 L834.2378883703701,557.1320761345381 M834.2378883703701,557.1320761345381 L834.3665229732234,557.249117447298 M834.3665229732234,557.249117447298 L834.443753778699,557.375383529703 M834.443753778699,557.375383529703 L834.4650380173308,557.503510931248 M834.4650380173308,557.503510931248 L834.4291696983713,557.6260933850442 M834.4291696983713,557.6260933850442 L834.3381811796418,557.7359634682139 M834.3381811796418,557.7359634682139 L834.1974048099449,557.8267506128361 M834.1974048099449,557.8267506128361 L834.0150019573163,557.8931867115788 M834.0150019573163,557.8931867115788 L833.8015356032757,557.9313831283316 M833.8015356032757,557.9313831283316 L833.5694973237411,557.9391363332319 M833.5694973237411,557.9391363332319 L833.3323014235169,557.9159802967981 M833.3323014235169,557.9159802967981 L833.1037952984838,557.8632843354604 M833.1037952984838,557.8632843354604 L832.8972467776445,557.7840917703136 M832.8972467776445,557.7840917703136 L832.7246539324157,557.6830213465755 M832.7246539324157,557.6830213465755 L832.5960673563017,557.5659442645967 M832.5960673563017,557.5659442645967 L832.5189618648761,557.439684218009 M832.5189618648761,557.439684218009 L832.4977659007635,557.3115625754152 M832.4977659007635,557.3115625754152 L832.5337136000275,557.189007270562 M832.5337136000275,557.189007270562 L832.6247543872522,557.0791794990292 M832.6247543872522,557.0791794990292 L832.7655439603922,556.9884401377944 M832.7655439603922,556.9884401377944 L832.94791792889,556.9220463556571 M832.94791792889,556.9220463556571 L833.1613199039654,556.8838770799634 M833.1613199039654,556.8838770799634 L833.3932730918187,556.8761296348464 M833.3932730918187,556.8761296348464 L833.6303343139926,556.8992457470652 M833.6303343139926,556.8992457470652 L833.8587726459936,556.9519059432039 M833.8587726459936,556.9519059432039 L834.0652874488329,557.0310521083666 M832.2943341630533,570.8984579679103 L832.0883343162576,570.819104626551 M832.0883343162576,570.819104626551 L831.8604438796868,570.7663065794302 M831.8604438796868,570.7663065794302 L831.6239316095613,570.7431299537221 M831.6239316095613,570.7431299537221 L831.3924966629755,570.7508976802396 M831.3924966629755,570.7508976802396 L831.1795521948003,570.7891668747507 M831.1795521948003,570.7891668747507 L830.9975482412389,570.8557344557635 M830.9975482412389,570.8557344557635 L830.857019801255,570.946711333896 M830.857019801255,570.946711333896 L830.7661161167742,571.0568265700924 M830.7661161167742,571.0568265700924 L830.7301733779783,571.1797026301462 M830.7301733779783,571.1797026301462 L830.7512419677852,571.3081595707422 M830.7512419677852,571.3081595707422 L830.8280951296869,571.4347500179075 M830.8280951296869,571.4347500179075 L830.9563189417812,571.5521334475577 M830.9563189417812,571.5521334475577 L831.1284596780666,571.6534683178721 M831.1284596780666,571.6534683178721 L831.3344930621496,571.7328680757175 M831.3344930621496,571.7328680757175 L831.5624509641035,571.7857019007567 M831.5624509641035,571.7857019007567 L831.7990973894435,571.8089185168463 M831.7990973894435,571.8089185168463 L832.0306170478799,571.8011450284973 M832.0306170478799,571.8011450284973 L832.2436256217815,571.7628486832743 M832.2436256217815,571.7628486832743 L832.4256583555822,571.6962387706064 M832.4256583555822,571.6962387706064 L832.5661736812602,571.6052140920929 M832.5661736812602,571.6052140920929 L832.6570253590065,571.4950565292115 M832.6570253590065,571.4950565292115 L832.6928890920109,571.3721533105595 M832.6928890920109,571.3721533105595 L832.6717326290028,571.2436906089639 M832.6717326290028,571.2436906089639 L832.5947546126698,571.1170940718673 M832.5947546126698,571.1170940718673 L832.4664829680424,570.9997464241571 M832.4664829680424,570.9997464241571 L832.2943341630533,570.8984579679103 M834.9409115749005,556.4665343547034 L835.3724442498236,556.7190247048757 M835.3724442498236,556.7190247048757 L835.6941099334032,557.0115408478625 M835.6941099334032,557.0115408478625 L835.8873115128828,557.3271599242792 M835.8873115128828,557.3271599242792 L835.9406984637945,557.6475093393951 M835.9406984637945,557.6475093393951 L835.8511371001788,557.9539876608068 M835.8511371001788,557.9539876608068 L835.6237969817504,558.2287479906015 M835.6237969817504,558.2287479906015 L835.2718541374053,558.4558227562254 M835.2718541374053,558.4558227562254 L834.8157775696064,558.621975164451 M834.8157775696064,558.621975164451 L834.2820482007038,558.7175343947688 M834.2820482007038,558.7175343947688 L833.7017552919557,558.7369253420412 M833.7017552919557,558.7369253420412 L833.1086321893043,558.6790120614364 M833.1086321893043,558.6790120614364 L832.5372772537224,558.5472079131513 M832.5372772537224,558.5472079131513 L832.0208096274479,558.3491336833066 M832.0208096274479,558.3491336833066 L831.5893757873665,558.0963763236791 M831.5893757873665,558.0963763236791 L831.26796190735,557.8036136492851 M831.26796190735,557.8036136492851 L831.0752897292508,557.4879116451523 M831.0752897292508,557.4879116451523 L831.0224545354728,557.1675982302785 M831.0224545354728,557.1675982302785 L831.1125119685054,556.8612895763396 M831.1125119685054,556.8612895763396 L831.3401787927868,556.5867936976117 M831.3401787927868,556.5867936976117 L831.6922041654906,556.3600176027358 M831.6922041654906,556.3600176027358 L832.1481001734945,556.1941296472531 M832.1481001734945,556.1941296472531 L832.6814272363011,556.0987400800132 M832.6814272363011,556.0987400800132 L833.2611882810651,556.0793851264141 M833.2611882810651,556.0793851264141 L833.8537234522865,556.1371695142432 M833.8537234522865,556.1371695142432 L834.4247030429814,556.2687730965645 M834.4247030429814,556.2687730965645 L834.9409115749005,556.4665343547034 M835.1493636826871,554.8359236020942 L835.5810293317564,555.0883358437858 M835.5810293317564,555.0883358437858 L835.902801816235,555.3807615111041 M835.902801816235,555.3807615111041 L836.0960778410678,555.6962829840022 M836.0960778410678,555.6962829840022 L836.149502509745,556.0165333517896 M836.149502509745,556.0165333517896 L836.0599399247272,556.3229169325474 M836.0599399247272,556.3229169325474 L835.832559693445,556.5975923414796 M835.832559693445,556.5975923414796 L835.480540159026,556.8245969351772 M835.480540159026,556.8245969351772 L835.0243547801314,556.9906980041478 M835.0243547801314,556.9906980041478 L834.4904907993074,557.0862277100559 M834.4904907993074,557.0862277100559 L833.910045327318,557.1056126664223 M833.910045327318,557.1056126664223 L833.3167605902898,557.0477172785518 M833.3167605902898,557.0477172785518 L832.7452443925603,556.9159538544633 M832.7452443925603,556.9159538544633 L832.2286252322832,556.717940830719 M832.2286252322832,556.717940830719 L831.797058438085,556.4652615852399 M831.797058438085,556.4652615852399 L831.4755378855108,556.1725894034666 M831.4755378855108,556.1725894034666 L831.2827915240197,555.8569850004116 M831.2827915240197,555.8569850004116 L831.2299189078457,555.5367706312808 M831.2299189078457,555.5367706312808 L831.3199778379068,555.2305567105223 M831.3199778379068,555.2305567105223 L831.5476849677649,554.9561457410086 M831.5476849677649,554.9561457410086 L831.8997870962279,554.7294398049034 M831.8997870962279,554.7294398049034 L832.3557918389255,554.5636031770277 M832.3557918389255,554.5636031770277 L832.8892533126547,554.4682431267242 M832.8892533126547,554.4682431267242 L833.4691666411233,554.4488941624459 M833.4691666411233,554.4488941624459 L834.0618631381755,554.5066606693114 M834.0618631381755,554.5066606693114 L834.633003764348,554.6382235301769 M834.633003764348,554.6382235301769 L835.1493636826871,554.8359236020942 M835.1493636826871,554.8359236020942 L834.9409115749005,556.4665343547034" stroke="black"  stroke-width="4"  fill="red"/>
<path d="M60.563196834905,291.57586451091026 L-131.6627468280833,387.1364718072652 M60.563196834905,291.57586451091026 L48.767006711482,285.7382657209545 M-143.44374741485126,380.8579205517942 L48.767006711482,285.7382657209545 M-131.6627468280833,387.1364718072652 L-143.44374741485126,380.8579205517942 M-131.6627468280833,387.1364718072652 L-133.9234944296103,307.95845211497465 M-133.9234944296103,307.95845211497465 L-121.13056187296581,301.78996531748476 M-121.13056187296581,301.78996531748476 L-123.28115618957736,220.72028583642887 M-123.28115618957736,220.72028583642887 L243.99986905726564,49.24934502827159 M243.99986905726564,49.24934502827159 L243.73746280182888,54.28732577795631 M243.73746280182888,54.28732577795631 L243.24410281451014,59.40756756260248 M243.24410281451014,59.40756756260248 L242.52207097223447,64.59086087129737 M242.52207097223447,64.59086087129737 L241.57447480480482,69.81787954034803 M241.57447480480482,69.81787954034803 L240.40520189443555,75.06932632335167 M240.40520189443555,75.06932632335167 L239.01888425124923,80.32579139242341 M239.01888425124923,80.32579139242341 L237.4209276666097,85.56786202776368 M237.4209276666097,85.56786202776368 L235.61748768349935,90.77630326421956 M235.61748768349935,90.77630326421956 L233.61534788933034,95.93200385526882 M233.61534788933034,95.93200385526882 L231.4220606064166,101.01607909210543 M231.4220606064166,101.01607909210543 L229.04575401963746,106.0099450784918 M229.04575401963746,106.0099450784918 L226.4952262861009,110.89530441456594 M226.4952262861009,110.89530441456594 L223.77989645537662,115.65424740355502 M223.77989645537662,115.65424740355502 L220.90968496243454,120.26938815069514 M220.90968496243454,120.26938815069514 L217.89511449897805,124.72375699925618 M217.89511449897805,124.72375699925618 L214.74717476071487,129.0009472851059 M214.74717476071487,129.0009472851059 L211.47735103735215,133.08513882153966 M211.47735103735215,133.08513882153966 L208.09756260160054,136.9612130028521 M208.09756260160054,136.9612130028521 L204.62013100663546,140.61476254332547 M204.62013100663546,140.61476254332547 L201.05774182225923,144.03201341236047 M201.05774182225923,144.03201341236047 L197.42341566011464,147.20011675368224 M197.42341566011464,147.20011675368224 L193.73047240655512,150.10698085568404 M193.73047240655512,150.10698085568404 L189.99245216459076,152.74140539867585 M189.99245216459076,152.74140539867585 L186.2231346095723,155.09321716600778 M186.2231346095723,155.09321716600778 L182.4364409626529,157.15299834549177 M182.4364409626529,157.15299834549177 L178.64642684965054,158.91256541178097 M178.64642684965054,158.91256541178097 L174.8672204181787,160.3645903809655 M174.8672204181787,160.3645903809655 L171.11297089435743,161.50296512712663 M171.11297089435743,161.50296512712663 L167.3978163507137,162.32259782635498 M167.3978163507137,162.32259782635498 L163.73582435067772,162.81959751392262 M163.73582435067772,162.81959751392262 L160.14093704553238,162.9911300095232 M160.14093704553238,162.9911300095232 L156.6269344852476,162.83568765057856 M156.6269344852476,162.83568765057856 L153.20738702183303,162.352849161711 M153.20738702183303,162.352849161711 L153.1648352776392,162.449826463857 M153.1648352776392,162.449826463857 L153.10939382753804,162.53812996946186 M153.10939382753804,162.53812996946186 L153.04426951930384,162.61268922086833 M153.04426951930384,162.61268922086833 L152.97325277641517,162.6690937619479 M152.97325277641517,162.6690937619479 L152.9004623262917,162.704139336401 M152.9004623262917,162.704139336401 L152.83013659209104,162.7157400646075 M152.83013659209104,162.7157400646075 L152.76636367627054,162.70324677757895 M152.76636367627054,162.70324677757895 L152.71284413967908,162.66742026071466 M152.71284413967908,162.66742026071466 L152.67268353006824,162.61024900251383 M152.67268353006824,162.61024900251383 L152.64823403888306,162.53511975400363 M152.64823403888306,162.53511975400363 L152.6409005359531,162.44634616940579 M152.6409005359531,162.44634616940579 L152.65112184103185,162.34917778909798 M152.65112184103185,162.34917778909798 L152.67828885863662,162.2491802540191 M152.67828885863662,162.2491802540191 L149.24324721188037,161.76445686721408 M149.24324721188037,161.76445686721408 L145.69943063829544,161.60805256896165 M145.69943063829544,161.60805256896165 L142.06057188368186,161.78146899293662 M142.06057188368186,161.78146899293662 L138.34084395778865,162.28496625369573 M138.34084395778865,162.28496625369573 L134.5548508122978,163.1175014894007 M134.5548508122978,163.1175014894007 L130.71753785057342,164.2766584793593 M130.71753785057342,164.2766584793593 L126.84414647362598,165.75855622845737 M126.84414647362598,165.75855622845737 L122.95013061359987,167.55806115927732 M122.95013061359987,167.55806115927732 L119.05112180674178,169.66869312667185 M119.05112180674178,169.66869312667185 L115.16282178441162,172.08261468799915 M115.16282178441162,172.08261468799915 L111.3009628594906,174.79063703056374 M111.3009628594906,174.79063703056374 L107.48123259571048,177.78243532111145 M107.48123259571048,177.78243532111145 L103.71918823241231,181.04624795949587 M103.71918823241231,181.04624795949587 L100.03018401260118,184.56933302624367 M100.03018401260118,184.56933302624367 L96.42932131647922,188.33765503324446 M96.42932131647922,188.33765503324446 L92.93135535859557,192.336213639914 M92.93135535859557,192.336213639914 L89.55063374300141,196.5488837048886 M89.55063374300141,196.5488837048886 L86.30103199492248,200.95868775603006 M86.30103199492248,200.95868775603006 L83.19587558214789,205.5476966856171 M83.19587558214789,205.5476966856171 L80.24788948047052,210.29734786441293 M80.24788948047052,210.29734786441293 L77.46913176106506,215.1882023208742 M77.46913176106506,215.1882023208742 L74.8709342099906,220.2003665469807 M74.8709342099906,220.2003665469807 L72.46385583378259,225.3132443981807 M72.46385583378259,225.3132443981807 L70.2576287163779,230.50605440596695 M70.2576287163779,230.50605440596695 L68.26111702309544,235.75758211402427 M68.26111702309544,235.75758211402427 L66.48227613121293,241.04631375029817 M66.48227613121293,241.04631375029817 L64.92811967485335,246.3507085000602 M64.92811967485335,246.3507085000602 L63.604689107096306,251.64923276876527 M63.604689107096306,251.64923276876527 L62.51703259147007,256.92039033879706 M62.51703259147007,256.92039033879706 L61.669184838549995,262.1428935534423 M61.669184838549995,262.1428935534423 L61.06415589069434,267.2955938435534 M61.06415589069434,267.2955938435534 L60.70392364883122,272.3579273560126 M60.70392364883122,272.3579273560126 L60.58943271510873,277.3096499521623 M60.58943271510873,277.3096499521623 L60.563196834905,291.57586451091026 M60.58943271510873,277.3096499521623 L48.7670080823753,271.4915234819406 M48.7670080823753,271.4915234819406 L48.767006711482,285.7382657209545 M48.7670080823753,271.4915234819406 L48.872489429621,266.54675823428687 M48.872489429621,266.54675823428687 L49.2237322477219,261.4919347569879 M49.2237322477219,261.4919347569879 L49.819827300000895,256.3472666614322 M49.819827300000895,256.3472666614322 L50.65883189096223,251.13328490329377 M50.65883189096223,251.13328490329377 L51.73777153114224,245.87110245043266 M51.73777153114224,245.87110245043266 L53.052646611135685,240.58196931457036 M53.052646611135685,240.58196931457036 L54.59844376485381,235.2873419861167 M54.59844376485381,235.2873419861167 L56.36915574118666,230.00871256166863 M56.36915574118666,230.00871256166863 L58.35780247654941,224.76757870803877 M58.35780247654941,224.76757870803877 L60.55646149308535,219.58540954175822 M60.55646149308535,219.58540954175822 L62.95630037261725,214.4833738360008 M62.95630037261725,214.4833738360008 L65.54761740247716,209.48220664953345 M65.54761740247716,209.48220664953345 L68.3198830478076,204.6024567568944 M68.3198830478076,204.6024567568944 L71.26179316672261,199.86397019161598 M71.26179316672261,199.86397019161598 L74.36131597924441,195.28613811674697 M74.36131597924441,195.28613811674697 L77.60575069316644,190.88747574560384 M77.60575069316644,190.88747574560384 L80.98179439445323,186.6858649629686 M80.98179439445323,186.6858649629686 L84.47559190548452,182.6982367706018 M84.47559190548452,182.6982367706018 L88.0728139836479,178.94067060157488 M88.0728139836479,178.94067060157488 L91.75872130778066,175.42812235679384 M91.75872130778066,175.42812235679384 L95.5182262395723,172.1745842403676 M95.5182262395723,172.1745842403676 L99.33598556687866,169.19275666042353 M99.33598556687866,169.19275666042353 L103.19645096309529,166.49436111890685 M103.19645096309529,166.49436111890685 L107.08394084536474,164.08968451660417 M107.08394084536474,164.08968451660417 L110.9827265578117,161.9878795982757 M110.9827265578117,161.9878795982757 L114.87710734449746,160.19675000699004 M114.87710734449746,160.19675000699004 L118.75144996369755,158.72274440574705 M118.75144996369755,158.72274440574705 L122.59029619739812,157.5709673290268 M122.59029619739812,157.5709673290268 L126.37839796955365,156.74527305957434 M126.37839796955365,156.74527305957434 L130.10080048324158,156.24805382535652 M130.10080048324158,156.24805382535652 L133.74288787965014,156.08033111681686 M133.74288787965014,156.08033111681686 L137.29047294227303,156.24182606399978 M137.29047294227303,156.24182606399978 L140.7298065430682,156.7310207791783 M140.7298065430682,156.7310207791783 L140.70280002081313,156.83083840760315 M140.70280002081313,156.83083840760315 L140.69275064298864,156.927856217151 M140.69275064298864,156.927856217151 L140.7002576818905,157.01651722873714 M140.7002576818905,157.01651722873714 L140.72487205277082,157.09157855174266 M140.72487205277082,157.09157855174266 L140.7651794202755,157.14873042944558 M140.7651794202755,157.14873042944558 L140.81881892790045,157.18458729690266 M140.81881892790045,157.18458729690266 L140.88267823721446,157.19715877561384 M140.88267823721446,157.19715877561384 L140.95305170753232,157.18567958965224 M140.95305170753232,157.18567958965224 L141.0258484135989,157.15079187515997 M141.0258484135989,157.15079187515997 L141.09682965113848,157.09457225562105 M141.09682965113848,157.09457225562105 L141.1618786241542,157.02021435595253 M141.1618786241542,157.02021435595253 L141.2172094243934,156.9321168160231 M141.2172094243934,156.9321168160231 L141.25962153274133,156.83533823451637 M231.93134231622696,44.02351965627582 L231.6782581724899,49.05399969708293 M231.6782581724899,49.05399969708293 L231.19413087553392,54.16630968419281 M231.19413087553392,54.16630968419281 L230.48120724667888,59.341269041875194 M230.48120724667888,59.341269041875194 L229.5425606044115,64.55958162866403 M229.5425606044115,64.55958162866403 L228.38204540423476,69.8019810695987 M228.38204540423476,69.8019810695987 L227.0042613146503,75.04908943908646 M227.0042613146503,75.04908943908646 L225.41458281525524,80.28152687491871 M225.41458281525524,80.28152687491871 L223.61913548640678,85.48009197686906 M223.61913548640678,85.48009197686906 L221.6246740669602,90.62570770972212 M221.6246740669602,90.62570770972212 L219.43872348403704,95.69952432461639 M219.43872348403704,95.69952432461639 L217.06938590730044,100.68299329150801 M217.06938590730044,100.68299329150801 L214.52543491882648,105.55785318110173 M214.52543491882648,105.55785318110173 L211.81626655774915,110.3062307003521 M211.81626655774915,110.3062307003521 L208.9517799264023,114.91077646722306 M208.9517799264023,114.91077646722306 L205.94247794304545,119.35455778101397 M205.94247794304545,119.35455778101397 L202.79933220124667,123.62120501049338 M202.79933220124667,123.62120501049338 L199.5338116091982,127.69493512093817 M199.5338116091982,127.69493512093817 L196.15782090469793,131.56066655770059 M196.15782090469793,131.56066655770059 L192.68366890912057,135.20402895075387 M192.68366890912057,135.20402895075387 L189.1240300465629,138.6112851222498 M189.1240300465629,138.6112851222498 L185.49191586111363,141.76962257881576 M185.49191586111363,141.76962257881576 L181.8006388642399,144.66698567310578 M181.8006388642399,144.66698567310578 L178.06373361877218,147.2922095570885 M178.06373361877218,147.2922095570885 L174.29497634122356,149.6351557388424 M174.29497634122356,149.6351557388424 L170.5082862333761,151.6864406102423 M170.5082862333761,151.6864406102423 L166.71771921008678,153.4379136531106 M166.71771921008678,153.4379136531106 L162.93740521400616,154.88227911136738 M162.93740521400616,154.88227911136738 L159.1814973832797,156.01345971233388 M159.1814973832797,156.01345971233388 L155.4641393831535,156.82639332197948 M155.4641393831535,156.82639332197948 L151.7994063200524,157.31721713288442 M151.7994063200524,157.31721713288442 L148.20124949841482,157.48312367669985 M148.20124949841482,157.48312367669985 L144.6834601902395,157.32263009531187 M144.6834601902395,157.32263009531187 L141.25962153274133,156.83533823451637 M231.93134231622696,44.02351965627582 L-135.35151490627095,214.69859926707483 M-133.05550847059874,295.65078245159157 L-135.35151490627095,214.69859926707483 M-133.05550847059874,295.65078245159157 L-145.84637411870233,301.7899616206515 M-143.44374741485126,380.8579205517942 L-145.84637411870233,301.7899616206515 M-145.84637411870233,301.7899616206515 L-133.9234944296103,307.95845211497465 M152.67828885863662,162.2491802540191 L140.7298065430682,156.7310207791783 M153.20738702183303,162.352849161711 L141.25962153274133,156.83533823451637 M243.99986905726564,49.24934502827159 L231.93134231622696,44.02351965627582 M-123.28115618957736,220.72028583642887 L-135.35151490627095,214.69859926707483 M-121.13056187296581,301.78996531748476 L-133.05550847059874,295.65078245159157" stroke="black"  stroke-width="4"  fill="red"/>
<path d="M146.29900070982853,243.20033671868782 L146.49407895128576,230.27328548314915 M146.49407895128576,230.27328548314915 L146.62516813324902,230.3523954113091 M146.62516813324902,230.3523954113091 L146.713922122542,230.44404973445882 M146.713922122542,230.44404973445882 L146.75519171479795,230.5429178341063 M146.75519171479795,230.5429178341063 L146.74657695267382,230.64325313441466 M146.74657695267382,230.64325313441466 L146.68855171965384,230.73923387004476 M146.68855171965384,230.73923387004476 L146.58450183811493,230.82527192619847 M146.58450183811493,230.82527192619847 L146.44047585877576,230.89636227890952 M146.44047585877576,230.89636227890952 L146.2648245885353,230.94838013439283 M146.2648245885353,230.94838013439283 L146.06776351996587,230.97829774010404 M146.06776351996587,230.97829774010404 L145.8607669873619,230.98436567298268 M145.8607669873619,230.98436567298268 L145.65585103912179,230.9662412806697 M145.65585103912179,230.9662412806697 L145.46493364006034,230.92497696600188 M145.46493364006034,230.92497696600188 L145.29912657969226,230.86296673836523 M145.29912657969226,230.86296673836523 L145.1680531100322,230.7838249407306 M145.1680531100322,230.7838249407306 L145.07934351096213,230.69214583103292 M145.07934351096213,230.69214583103292 L145.03813740367622,230.59326598934078 M145.03813740367622,230.59326598934078 L145.04682020166496,230.492934680335 M145.04682020166496,230.492934680335 L145.10490244042205,230.39697275590197 M145.10490244042205,230.39697275590197 L145.2089852336349,230.31096402066035 M145.2089852336349,230.31096402066035 L145.35301249274045,230.23990677932125 M145.35301249274045,230.23990677932125 L145.52863311782238,230.18791824445302 M145.52863311782238,230.18791824445302 L145.72563863482685,230.15801945136138 M145.72563863482685,230.15801945136138 L145.9325674400141,230.15195550769806 M145.9325674400141,230.15195550769806 L146.13741899562802,230.17006815830428 M146.13741899562802,230.17006815830428 L146.3282900885423,230.211307688805 M146.3282900885423,230.211307688805 L146.49407895128576,230.27328548314915 M146.29900070982853,243.20033671868782 L146.13354757892233,243.1381644251532 M146.13354757892233,243.1381644251532 L145.94306066581368,243.09679547304876 M145.94306066581368,243.09679547304876 L145.73861940131758,243.0786259788368 M145.73861940131758,243.0786259788368 L145.5321031691405,243.08470895325823 M145.5321031691405,243.08470895325823 L145.3354885912288,243.1147015782761 M145.3354885912288,243.1147015782761 L145.16021453672857,243.16685326631583 M145.16021453672857,243.16685326631583 L145.01646933938713,243.23813349628284 M145.01646933938713,243.23813349628284 L144.91258774396294,243.32441212949067 M144.91258774396294,243.32441212949067 L144.8546141261993,243.42067517137718 M144.8546141261993,243.42067517137718 L144.84594100393969,243.52132129276748 M144.84594100393969,243.52132129276748 L144.88705729725945,243.62051137683682 M144.88705729725945,243.62051137683682 L144.9755827830844,243.71247812219235 M144.9755827830844,243.71247812219235 L145.10638850163684,243.7918682099275 M145.10638850163684,243.7918682099275 L145.2718597562677,243.85407297413107 M145.2718597562677,243.85407297413107 L145.46239278891443,243.8954667385337 M145.46239278891443,243.8954667385337 L145.66689818828718,243.9136479877801 M145.66689818828718,243.9136479877801 L145.873481878039,243.90756101961523 M145.873481878039,243.90756101961523 L146.07015178737942,243.8775495606249 M146.07015178737942,243.8775495606249 L146.24545636705523,243.82536851868971 M146.24545636705523,243.82536851868971 L146.38920029227978,243.75405513976744 M146.38920029227978,243.75405513976744 L146.49304910956027,243.66774715236713 M146.49304910956027,243.66774715236713 L146.55096595041493,243.5714652779316 M146.55096595041493,243.5714652779316 L146.55957130849555,243.47081516070847 M146.55957130849555,243.47081516070847 L146.51839178253,243.37163683201163 M146.51839178253,243.37163683201163 L146.42982208163932,243.2796949013378 M146.42982208163932,243.2796949013378 L146.29900070982853,243.20033671868782 M147.38992532268975,229.83120609544443 L147.71766718427693,230.0289250221173 M147.71766718427693,230.0289250221173 L147.93964871658318,230.25800748568008 M147.93964871658318,230.25800748568008 L148.04294655910297,230.5051536131833 M148.04294655910297,230.5051536131833 L148.0215226726648,230.75600567521752 M148.0215226726648,230.75600567521752 L147.8765762201054,230.99598857601987 M147.8765762201054,230.99598857601987 L147.61652268456083,231.2111343570983 M147.61652268456083,231.2111343570983 L147.25643281302877,231.38893586546826 M147.25643281302877,231.38893586546826 L146.81725598735886,231.5190308787976 M146.81725598735886,231.5190308787976 L146.32450763326415,231.59385541202175 M146.32450763326415,231.59385541202175 L145.80687644725316,231.60903990650627 M145.80687644725316,231.60903990650627 L145.29447003818234,231.563704499178 M145.29447003818234,231.563704499178 L144.81710366005314,231.4604905928487 M144.81710366005314,231.4604905928487 L144.40254417782143,231.30540934001866 M144.40254417782143,231.30540934001866 L144.0748974230853,231.10748974897942 M144.0748974230853,231.10748974897942 L143.85319272298517,230.87825209330026 M143.85319272298517,230.87825209330026 L143.75029224974418,230.63103285856707 M143.75029224974418,230.63103285856707 L143.77214107515783,230.38020560172737 M143.77214107515783,230.38020560172737 L143.91744380903958,230.1403402687914 M143.91744380903958,230.1403402687914 L144.17770304267583,229.9253777381969 M144.17770304267583,229.9253777381969 L144.53780091338768,229.74778319169235 M144.53780091338768,229.74778319169235 L144.9767862063045,229.61787142665102 M144.9767862063045,229.61787142665102 L145.46918736726053,229.54316446479606 M145.46918736726053,229.54316446479606 L145.98639554249485,229.52800505520372 M145.98639554249485,229.52800505520372 L146.4983989092156,229.57326679176776 M146.4983989092156,229.57326679176776 L146.9754764804261,229.67632606823614 M146.9754764804261,229.67632606823614 L147.38992532268975,229.83120609544443 M147.41306572720617,228.31160956699463 L147.74088631570459,228.50925526869423 M147.74088631570459,228.50925526869423 L147.96292205874693,228.73825290096264 M147.96292205874693,228.73825290096264 L148.0662464345611,228.98530751902246 M148.0662464345611,228.98530751902246 L148.04481984589694,229.23606671110016 M148.04481984589694,229.23606671110016 L147.8998415933549,229.47596077690218 M147.8998415933549,229.47596077690218 L147.6397289988751,229.69102692613336 M147.6397289988751,229.69102692613336 L147.2795562275686,229.868762631404 M147.2795562275686,229.868762631404 L146.840277483911,229.99880950121485 M146.840277483911,229.99880950121485 L146.34741411866736,230.07360634598282 M146.34741411866736,230.07360634598282 L145.829661531356,230.08878522164622 M145.829661531356,230.08878522164622 L145.31713440057985,230.04346659021274 M145.31713440057985,230.04346659021274 L144.83965501285843,229.94029087854403 M144.83965501285843,229.94029087854403 L144.42499681243044,229.78526701780436 M144.42499681243044,229.78526701780436 L144.09727137347198,229.58742067888505 M144.09727137347198,229.58742067888505 L143.87551259132778,229.35826787561257 M143.87551259132778,229.35826787561257 L143.77258577053908,229.11114016017126 M143.77258577053908,229.11114016017126 L143.7944374979653,228.86040576995742 M143.7944374979653,228.86040576995742 L143.93977220015643,228.62062925607756 M143.93977220015643,228.62062925607756 L144.20009059095815,228.40574633247908 M144.20009059095815,228.40574633247908 L144.56027136707803,228.22821756100709 M144.56027136707803,228.22821756100709 L144.9993584897287,228.0983539146332 M144.9993584897287,228.0983539146332 L145.49187449990734,228.0236746252898 M145.49187449990734,228.0236746252898 L146.0092038780134,228.00852083108384 M146.0092038780134,228.00852083108384 L146.52132777669743,228.05376580180996 M146.52132777669743,228.05376580180996 L146.9985182203746,228.1567869045217 M146.9985182203746,228.1567869045217 L147.41306572720617,228.31160956699463 M147.41306572720617,228.31160956699463 L147.38992532268975,229.83120609544443" stroke="black"  stroke-width="4"  fill="red"/>
<path d="M-133.05550847059874,295.65078245159157 L-145.84637411870233,301.7899616206515 M-145.84637411870233,301.7899616206515 L-148.30982681505589,220.7202822102394 M-135.35151490627095,214.69859926707483 L-148.30982681505589,220.7202822102394 M-133.05550847059874,295.65078245159157 L-135.35151490627095,214.69859926707483 M-131.6627468280833,387.1364718072652 L-78.56451391183839,415.4345755620536 M-78.56451391183839,415.4345755620536 L-78.86858932478708,400.4115463660854 M-78.86858932478708,400.4115463660854 L-17.08447518127514,433.1573085786008 M-16.925683009531326,448.2842945903435 L-17.08447518127514,433.1573085786008 M-16.925683009531326,448.2842945903435 L259.09653629262664,595.3872200824226 M259.09653629262664,595.3872200824226 L259.6324078601781,579.8180704569105 M259.6324078601781,579.8180704569105 L330.0133108604706,617.1201560479802 M329.28929053205366,632.7956559796175 L330.0133108604706,617.1201560479802 M329.28929053205366,632.7956559796175 L545.1680663674432,747.8458122942844 M545.1680663674432,747.8458122942844 L552.2402724115308,662.9561358692492 M552.2402724115308,662.9561358692492 L567.7337569250527,670.9719352765887 M567.7337569250527,670.9719352765887 L575.2550231284127,583.5034903524347 M-148.30982681505589,220.7202822102394 L575.2550231284127,583.5034903524347 M-145.84637411870233,301.7899616206515 L-133.9234944296103,307.95845211497465 M-131.6627468280833,387.1364718072652 L-133.9234944296103,307.95845211497465 M580.4102442542983,662.9561358692492 L564.9243844920811,654.9837291052054 M557.6933566644486,739.7585421035521 L564.9243844920811,654.9837291052054 M557.6933566644486,739.7585421035521 L341.89457861631763,625.3100561832789 M341.89457861631763,625.3100561832789 L342.6491851617229,609.6556396972635 M342.6491851617229,609.6556396972635 L272.28499872852456,572.5441330697336 M271.7184131245523,588.0922555966985 L272.28499872852456,572.5441330697336 M271.7184131245523,588.0922555966985 L-4.2834274887655965,441.71518592507323 M-4.2834274887655965,441.71518592507323 L-4.411351331106857,426.6088363005437 M-4.411351331106857,426.6088363005437 L-66.20072312780644,394.0198617499585 M-65.92747839860778,409.0223766495262 L-66.20072312780644,394.0198617499585 M-65.92747839860778,409.0223766495262 L-119.03306865066656,380.8579243146989 M-119.03306865066656,380.8579243146989 L-121.13056187296581,301.78996531748476 M-121.13056187296581,301.78996531748476 L-133.05550847059874,295.65078245159157 M588.0940137934554,575.6126637186503 L-135.35151490627095,214.69859926707483 M580.4102442542983,662.9561358692492 L588.0940137934554,575.6126637186503 M-131.6627468280833,387.1364718072652 L-119.03306865066656,380.8579243146989 M-133.9234944296103,307.95845211497465 L-121.13056187296581,301.78996531748476 M-65.92747839860778,409.0223766495262 L-78.56451391183839,415.4345755620536 M-66.20072312780644,394.0198617499585 L-78.86858932478708,400.4115463660854 M-16.925683009531326,448.2842945903435 L-4.2834274887655965,441.71518592507323 M-17.08447518127514,433.1573085786008 L-4.411351331106857,426.6088363005437 M271.7184131245523,588.0922555966985 L259.09653629262664,595.3872200824226 M272.28499872852456,572.5441330697336 L259.6324078601781,579.8180704569105 M329.28929053205366,632.7956559796175 L341.89457861631763,625.3100561832789 M330.0133108604706,617.1201560479802 L342.6491851617229,609.6556396972635 M557.6933566644486,739.7585421035521 L545.1680663674432,747.8458122942844 M564.9243844920811,654.9837291052054 L552.2402724115308,662.9561358692492 M567.7337569250527,670.9719352765887 L580.4102442542983,662.9561358692492 M575.2550231284127,583.5034903524347 L588.0940137934554,575.6126637186503" stroke="black"  stroke-width="4"  fill="red"/></svg>