<svg viewBox="0 0 800 800" xmlns="http://www.w3.org/2000/svg"><path d="M-237.11870646667512,21.451388381409743 L-254.6095315998857,30.73251487413944 M-254.6095312149332,26.73196926227672 L-254.6095315998857,30.73251487413944 M-254.6095312149332,26.73196926227672 L-254.60962972337802,26.71273552984144 M-254.60962972337802,26.71273552984144 L-254.60968882958946,26.693480587285194 M-254.60968882958946,26.693480587285194 L-254.60970853197557,26.674210951040095 M-237.08054299358628,17.419222844038416 L-254.60970853197557,26.674210951040095 M-237.11870646667512,21.451388381409743 L-237.08054299358628,17.419222844038416 M1061.9173746488298,729.3187639361257 L1050.3014609549805,723.1550330330213 M1041.2076862289484,783.8145675485147 L1050.3014609549805,723.1550330330213 M1041.2076862289484,783.8145675485147 L452.45025503092506,457.7617778793473 M449.674002946934,461.9397502104433 L452.45025503092506,457.7617778793473 M303.23731293869287,380.4688609929657 L449.674002946934,461.9397502104433 M306.2921518974879,376.819687411902 L303.23731293869287,380.4688609929657 M306.2921518974879,376.819687411902 L-131.06990545474218,134.60937916158014 M-134.57341984854156,136.89035817974172 L-131.06990545474218,134.60937916158014 M-215.8430879171069,91.67551397927082 L-134.57341984854156,136.89035817974172 M-212.31971917943451,89.61338077370448 L-215.8430879171069,91.67551397927082 M-212.31971917943451,89.61338077370448 L-283.93301082697576,49.95407070510845 M-251.23153579526058,32.52497457040522 L-283.93301082697576,49.95407070510845 M-251.23153579526058,32.52497457040522 L-254.6095315998857,30.73251487413944 M1066.4212369262384,697.5150201190095 L-237.11870646667512,21.451388381409743 M1061.9173746488298,729.3187639361257 L1066.4212369262384,697.5150201190095 M-243.95199471903686,26.857302308334965 L-243.99950835457605,26.837750573563085 M-243.99950835457605,26.837750573563085 L-244.05442176058,26.82474004932095 M-244.05442176058,26.82474004932095 L-244.11354346838561,26.819025702870704 M-244.11354346838561,26.819025702870704 L-244.173440033362,26.820939757403437 M-244.173440033362,26.820939757403437 L-244.23063132369214,26.830370853691875 M-244.23063132369214,26.830370853691875 L-244.28179582265648,26.846771645886292 M-244.28179582265648,26.846771645886292 L-244.32396010013053,26.869189429455787 M-244.32396010013053,26.869189429455787 L-244.35467419217218,26.896322496002313 M-244.35467419217218,26.896322496002313 L-244.37215171576463,26.926594375990817 M-244.37215171576463,26.926594375990817 L-244.37537605243142,26.958246739510685 M-244.37537605243142,26.958246739510685 L-244.36415774371108,26.9894397450401 M-244.36415774371108,26.9894397450401 L-244.339148030729,27.018360757738662 M-244.339148030729,27.018360757738662 L-244.30179835316528,27.043327695732955 M-244.30179835316528,27.043327695732955 L-244.25427977729817,27.062889466993624 M-244.25427977729817,27.062889466993624 L-244.1993534081705,27.075907659967186 M-244.1993534081705,27.075907659967186 L-244.1402135154758,27.08162563958581 M-244.1402135154758,27.08162563958581 L-244.08029770943517,27.07971035008677 M-244.08029770943517,27.07971035008677 L-244.02309053001727,27.07027343375239 M-244.02309053001727,27.07027343375239 L-243.97191713375844,27.053863569593034 M-243.97191713375844,27.053863569593034 L-243.92975298915349,27.03143554059352 M-243.92975298915349,27.03143554059352 L-243.89904802970705,27.00429340214322 M-243.89904802970705,27.00429340214322 L-243.88158654615756,26.97401570213151 M-243.88158654615756,26.97401570213151 L-243.8783814825856,26.942362103674157 M-243.8783814825856,26.942362103674157 L-243.88961788196195,26.91117273121779 M-243.88961788196195,26.91117273121779 L-243.91464035916056,26.882259387381055 M-243.91464035916056,26.882259387381055 L-243.95199471903686,26.857302308334965 M1058.476824333914,709.9083938051764 L1058.3309125514795,709.8417728767147 M1058.3309125514795,709.8417728767147 L1058.1909527841678,709.7975023008518 M1058.1909527841678,709.7975023008518 L1058.0648300190712,709.7780220033518 M1058.0648300190712,709.7780220033518 L1057.960124886694,709.7845990976504 M1057.960124886694,709.7845990976504 L1057.8826217360995,709.8166957155546 M1057.8826217360995,709.8166957155546 L1057.8368705198268,709.8724759475674 M1057.8368705198268,709.8724759475674 L1057.825712665164,709.9487965186787 M1057.825712665164,709.9487965186787 L1057.8498013530068,710.0412283435828 M1057.8498013530068,710.0412283435828 L1057.9075630070247,710.1443085098156 M1057.9075630070247,710.1443085098156 L1057.995600086878,710.2520256126203 M1057.995600086878,710.2520256126203 L1058.1090985088217,710.358274351681 M1058.1090985088217,710.358274351681 L1058.241207355876,710.456744151151 M1058.241207355876,710.456744151151 L1058.3844913199205,710.5418331939622 M1058.3844913199205,710.5418331939622 L1058.530326549798,710.6084393257981 M1058.530326549798,710.6084393257981 L1058.6703725140069,710.6527580663959 M1058.6703725140069,710.6527580663959 L1058.7965771813008,710.6722612257181 M1058.7965771813008,710.6722612257181 L1058.9014884255416,710.665753668472 M1058.9014884255416,710.665753668472 L1058.9788662860844,710.6335431235485 M1058.9788662860844,710.6335431235485 L1059.0245981126393,710.5777059424838 M1059.0245981126393,710.5777059424838 L1059.0356992919294,710.5013209887818 M1059.0356992919294,710.5013209887818 L1059.0115296535569,710.4088321275295 M1059.0115296535569,710.4088321275295 L1058.9538288880651,710.3057927289034 M1058.9538288880651,710.3057927289034 L1058.8655720081254,710.1979905393639 M1058.8655720081254,710.1979905393639 L1058.7520319064179,710.0917646307133 M1058.7520319064179,710.0917646307133 L1058.619921668694,709.9933430054402 M1058.619921668694,709.9933430054402 L1058.476824333914,709.9083938051764 M-251.22416961852446,28.519488305882362 L-254.6095312149332,26.73196926227672 M-251.22416961852446,28.519488305882362 L-251.23153579526058,32.52497457040522 M-251.22424041738554,28.461658680285723 L-251.22425621361413,28.4809521761386 M-251.22425621361413,28.4809521761386 L-251.22423261746212,28.500230892841273 M-251.22423261746212,28.500230892841273 L-251.22416961852446,28.519488305882362 M-254.60970853197557,26.674210951040095 L-251.22424041738554,28.461658680285723 M1055.6473353575238,718.4591867820648 L1067.3330260512398,724.6289572800149 M1067.3330260512398,724.6289572800149 L1071.74059631921,692.7959612073204 M1071.74059631921,692.7959612073204 L-237.08054299358628,17.419222844038416 M-251.22424041738554,28.461658680285723 L-283.9992677196992,45.842830580148586 M-283.9992677196992,45.842830580148586 L-212.2195943030447,85.39944218287724 M-212.2195943030447,85.39944218287724 L-215.75108707394975,87.45646872149285 M-215.75108707394975,87.45646872149285 L-134.27375993326564,132.56513986099452 M-134.27375993326564,132.56513986099452 L-130.76226731933411,130.28925140487763 M-130.76226731933411,130.28925140487763 L308.0594092398503,372.1167465197044 M308.0594092398503,372.1167465197044 L305.0005006249171,375.7625894453778 M305.0005006249171,375.7625894453778 L452.056655266236,457.177971509901 M452.056655266236,457.177971509901 L454.8342344359503,453.0019675994847 M454.8342344359503,453.0019675994847 L1046.7312997929323,779.1868220110485 M1055.6473353575238,718.4591867820648 L1046.7312997929323,779.1868220110485 M-243.66576480987987,22.670731601805244 L-243.5721645585686,22.732930072898796 M-243.5721645585686,22.732930072898796 L-243.50944423002306,22.804994684648477 M-243.50944423002306,22.804994684648477 L-243.4812554306684,22.88274150054093 M-243.4812554306684,22.88274150054093 L-243.489247001453,22.961654210095958 M-243.489247001453,22.961654210095958 L-243.53296435280606,23.037146061378053 M-243.53296435280606,23.037146061378053 L-243.60987546024216,23.104826659891614 M-243.60987546024216,23.104826659891614 L-243.71551553506947,23.160757755535656 M-243.71551553506947,23.160757755535656 L-243.84374510671148,23.201683293547205 M-243.84374510671148,23.201683293547205 L-243.98710705821998,23.225220032324273 M-243.98710705821998,23.225220032324273 L-244.1372612247718,23.229997020181656 M-244.1372612247718,23.229997020181656 L-244.28547090579195,23.215735716869688 M-244.28547090579195,23.215735716869688 L-244.4231131276191,23.183267357237355 M-244.4231131276191,23.183267357237355 L-244.54218185973605,23.13448281936752 M-244.54218185973605,23.13448281936752 L-244.63575361055575,23.07222230266342 M-244.63575361055575,23.07222230266342 L-244.69839398345584,23.00010970268835 M-244.69839398345584,23.00010970268835 L-244.72646904980616,22.922340282931373 M-244.72646904980616,22.922340282931373 L-244.71835657740917,22.843435242701503 M-244.71835657740917,22.843435242701503 L-244.67453853356892,22.767979743821115 M-244.67453853356892,22.767979743821115 L-244.59757009489795,22.70035580873747 M-244.59757009489795,22.70035580873747 L-244.49192918414542,22.64448870664347 M-244.49192918414542,22.64448870664347 L-244.36375546339536,22.603619832059735 M-244.36375546339536,22.603619832059735 L-244.22049325467435,22.580119445724677 M-244.22049325467435,22.580119445724677 L-244.07045978823726,22.575350215650644 M-244.07045978823726,22.575350215650644 L-243.92236443307775,22.589588737829445 M-243.92236443307775,22.589588737829445 L-243.78480341827515,22.62200928611003 M-243.78480341827515,22.62200928611003 L-243.66576480987987,22.670731601805244 M1063.8764582772812,704.7248029073921 L1064.2363419614658,704.9372492286819 M1064.2363419614658,704.9372492286819 L1064.568918785314,705.1834693014463 M1064.568918785314,705.1834693014463 L1064.8548797342091,705.4491897799858 M1064.8548797342091,705.4491897799858 L1065.0774487324813,705.7189110458859 M1065.0774487324813,705.7189110458859 L1065.223672170546,705.9769638994595 M1065.223672170546,705.9769638994595 L1065.2851032241751,706.2083827993839 M1065.2851032241751,706.2083827993839 L1065.2580310758506,706.3996373142797 M1065.2580310758506,706.3996373142797 L1065.1439983654338,706.5395775752974 M1065.1439983654338,706.5395775752974 L1064.9497185858397,706.6200907215587 M1064.9497185858397,706.6200907215587 L1064.6863965242705,706.6364269255313 M1064.6863965242705,706.6364269255313 L1064.369346978275,706.5876216282918 M1064.369346978275,706.5876216282918 L1064.0171744797665,706.4765948433303 M1064.0171744797665,706.4765948433303 L1063.6503729016465,706.3098145641331 M1063.6503729016465,706.3098145641331 L1063.2900924399203,706.0968982602552 M1063.2900924399203,706.0968982602552 L1062.9575232385182,705.8503755352601 M1062.9575232385182,705.8503755352601 L1062.6718243244734,705.5845116528368 M1062.6718243244734,705.5845116528368 L1062.4497117180365,705.3148391336493 M1062.4497117180365,705.3148391336493 L1062.3040344261703,705.0570159640289 M1062.3040344261703,705.0570159640289 L1062.243114309209,704.8259551272436 M1062.243114309209,704.8259551272436 L1062.2705449859059,704.6351049686284 M1062.2705449859059,704.6351049686284 L1062.3847016587515,704.4955226978901 M1062.3847016587515,704.4955226978901 L1062.5788426504623,704.4152392956923 M1062.5788426504623,704.4152392956923 L1062.8417947528014,704.3989518259062 M1062.8417947528014,704.3989518259062 L1063.1583278994704,704.447613649212 M1063.1583278994704,704.447613649212 L1063.5099561030995,704.5583378150608 M1063.5099561030995,704.5583378150608 L1063.8764582772812,704.7248029073921 M1066.4212369262384,697.5150201190095 L1071.74059631921,692.7959612073204 M1067.2557262680496,724.6956146637606 L1055.571035659968,718.5259319324553 M1067.2557262680496,724.6956146637606 L1061.9173746488298,729.3187639361257 M1055.571035659968,718.5259319324553 L1050.3014609549805,723.1550330330213 M1055.571035659968,718.5259319324553 L1055.5964602414565,718.5037535742749 M1055.5964602414565,718.5037535742749 L1055.6218963413062,718.481502673386 M1055.6218963413062,718.481502673386 L1055.6473353575238,718.4591867820648 M1041.2076862289484,783.8145675485147 L1046.7312997929323,779.1868220110485 M452.45025503092506,457.7617778793473 L454.8342344359503,453.0019675994847 M449.674002946934,461.9397502104433 L452.056655266236,457.177971509901 M303.23731293869287,380.4688609929657 L305.0005006249171,375.7625894453778 M306.2921518974879,376.819687411902 L308.0594092398503,372.1167465197044 M-131.06990545474218,134.60937916158014 L-130.76226731933411,130.28925140487763 M-134.57341984854156,136.89035817974172 L-134.27375993326564,132.56513986099452 M-215.8430879171069,91.67551397927082 L-215.75108707394975,87.45646872149285 M-212.31971917943451,89.61338077370448 L-212.2195943030447,85.39944218287724 M-283.93301082697576,49.95407070510845 L-283.9992677196992,45.842830580148586 M1067.3330260512398,724.6289572800149 L1067.307254248362,724.6512445155014 M1067.307254248362,724.6512445155014 L1067.2814847491427,724.6734661576313 M1067.2814847491427,724.6734661576313 L1067.2557262680496,724.6956146637606 M-243.95199471903686,26.857302308334965 L-243.93104648441067,23.235570860211908 M-243.93104648441067,23.235570860211908 L-243.89361805239832,23.26046494116116 M-243.89361805239832,23.26046494116116 L-243.86854563556813,23.2893053040479 M-243.86854563556813,23.2893053040479 L-243.8572863334798,23.32041595511646 M-243.8572863334798,23.32041595511646 L-243.86049686995761,23.351989665313738 M-243.86049686995761,23.351989665313738 L-243.87799188963004,23.382190954145926 M-243.87799188963004,23.382190954145926 L-243.90875650576618,23.40926459834651 M-243.90875650576618,23.40926459834651 L-243.9510029625012,23.43163603203311 M-243.9510029625012,23.43163603203311 L-244.00227654365767,23.448004488776462 M-244.00227654365767,23.448004488776462 L-244.05959595402544,23.457417593298374 M-244.05959595402544,23.457417593298374 L-244.11962951099304,23.459328050072827 M-244.11962951099304,23.459328050072827 L-244.17888582328442,23.45362449831032 M-244.17888582328442,23.45362449831032 L-244.2339205105036,23.44063915400193 M-244.2339205105036,23.44063915400193 L-244.28153300149438,23.42112674429262 M-244.28153300149438,23.42112674429262 L-244.3189567333527,23.39622280977227 M-244.3189567333527,23.39622280977227 L-244.34401633593006,23.367374782341642 M-244.34401633593006,23.367374782341642 L-244.35525747626116,23.336260500245714 M-244.35525747626116,23.336260500245714 L-244.35202759080948,23.304688024290556 M-244.35202759080948,23.304688024290556 L-244.334516467821,23.27449255220455 M-244.334516467821,23.27449255220455 L-244.3037426829169,23.247427974799734 M-244.3037426829169,23.247427974799734 L-244.26149609252775,23.22506678077451 M-244.26149609252775,23.22506678077451 L-244.21023144344804,23.208707390888037 M-244.21023144344804,23.208707390888037 L-244.15292798454925,23.1993001031351 M-244.15292798454925,23.1993001031351 L-244.09291374433553,23.19739088063153 M-244.09291374433553,23.19739088063153 L-244.03367568859142,23.203090801271458 M-244.03367568859142,23.203090801271458 L-243.97865401570743,23.216068481166246 M-243.97865401570743,23.216068481166246 L-243.93104648441067,23.235570860211908 M1058.476824333914,709.9083938051764 L1063.2468741933617,705.6960723481701 M1063.2468741933617,705.6960723481701 L1063.3907640951456,705.7810893392883 M1063.3907640951456,705.7810893392883 L1063.5236703008773,705.8795895506304 M1063.5236703008773,705.8795895506304 L1063.63796402288,705.9859003297817 M1063.63796402288,705.9859003297817 L1063.7268877735205,706.0937887054605 M1063.7268877735205,706.0937887054605 L1063.7851291214947,706.1969105354135 M1063.7851291214947,706.1969105354135 L1063.8096836292857,706.2894734316698 M1063.8096836292857,706.2894734316698 L1063.7987874238859,706.3659195610513 M1063.7987874238859,706.3659195610513 L1063.7530687124884,706.42180147936 M1063.7530687124884,706.42180147936 L1063.6755130616486,706.4540378385716 M1063.6755130616486,706.4540378385716 L1063.5702414080426,706.4605506117418 M1063.5702414080426,706.4605506117418 L1063.443515422005,706.4410318209061 M1063.443515422005,706.4410318209061 L1063.3028181777358,706.3966775663438 M1063.3028181777358,706.3966775663438 L1063.156239115114,706.3300180789861 M1063.156239115114,706.3300180789861 L1063.0121613132776,706.2448609061964 M1063.0121613132776,706.2448609061964 L1062.8792563531324,706.1463123069694 M1062.8792563531324,706.1463123069694 L1062.7650045407738,706.0399785961384 M1062.7650045407738,706.0399785961384 L1062.6763019260839,705.9321754034366 M1062.6763019260839,705.9321754034366 L1062.617999653407,705.8290129062228 M1062.617999653407,705.8290129062228 L1062.5935268692363,705.7365072993123 M1062.5935268692363,705.7365072993123 L1062.6044803700424,705.6601258381055 M1062.6044803700424,705.6601258381055 L1062.6502187957965,705.6043011214595 M1062.6502187957965,705.6043011214595 L1062.7279004774223,705.5721789134368 M1062.7279004774223,705.5721789134368 L1062.8329648330503,705.5655965759469 M1062.8329648330503,705.5655965759469 L1062.9596082469743,705.5850924035514 M1062.9596082469743,705.5850924035514 L1063.1002185116433,705.629398279733 M1063.1002185116433,705.629398279733 L1063.2468741933617,705.6960723481701 M-243.66576480987987,22.670731601805244 L-243.66828764028833,23.096460089199013 M-243.66828764028833,23.096460089199013 L-243.57470916276725,23.158677146477373 M-243.57470916276725,23.158677146477373 L-243.51200352310855,23.230763289843082 M-243.51200352310855,23.230763289843082 L-243.48382147100403,23.30853333175196 M-243.48382147100403,23.30853333175196 L-243.49181145060038,23.387469612076245 M-243.49181145060038,23.387469612076245 L-243.53551896014187,23.462984008994056 M-243.53551896014187,23.462984008994056 L-243.61241254311824,23.530684817534336 M-243.61241254311824,23.530684817534336 L-243.71802842699253,23.586632612716528 M-243.71802842699253,23.586632612716528 L-243.84622854705526,23.62757036886893 M-243.84622854705526,23.62757036886893 L-243.98955750018808,23.65111413400149 M-243.98955750018808,23.65111413400149 L-244.13967704323,23.655892547880683 M-244.13967704323,23.655892547880683 L-244.28785249255156,23.641626987259542 M-244.28785249255156,23.641626987259542 L-244.42546286837933,23.609148934680547 M-244.42546286837933,23.609148934680547 L-244.5445039941469,23.560349831774488 M-244.5445039941469,23.560349831774488 L-244.63805398409272,23.498070724684055 M-244.63805398409272,23.498070724684055 L-244.70067970487025,23.425936589807122 M-244.70067970487025,23.425936589807122 L-244.72874807630842,23.348143942515833 M-244.72874807630842,23.348143942515833 L-244.72063725089333,23.269215332028523 M-244.72063725089333,23.269215332028523 L-244.67682909540576,23.193737289986018 M-244.67682909540576,23.193737289986018 L-244.59987820780213,23.126093148731513 M-244.59987820780213,23.126093148731513 L-244.49426148858072,23.070209351453798 M-244.49426148858072,23.070209351453798 L-244.3661171938263,23.02932826258501 M-244.3661171938263,23.02932826258501 L-244.2228879375964,23.00582085236823 M-244.2228879375964,23.00582085236823 L-244.0728890390153,23.00105019681041 M-244.0728890390153,23.00105019681041 L-243.92482786280607,23.0152929747278 M-243.92482786280607,23.0152929747278 L-243.7872986563732,23.047723212722076 M-243.7872986563732,23.047723212722076 L-243.66828764028833,23.096460089199013 M1063.8764582772812,704.7248029073921 L1063.3147998272123,705.220967494453 M1063.3147998272123,705.220967494453 L1063.674449925518,705.4333942026989 M1063.674449925518,705.4333942026989 L1064.0067919896244,705.6795915120579 M1064.0067919896244,705.6795915120579 L1064.292530626717,705.945287385361 M1064.292530626717,705.945287385361 L1064.5149027790171,706.2149836341652 M1064.5149027790171,706.2149836341652 L1064.6609662992144,706.4730125138713 M1064.6609662992144,706.4730125138713 L1064.722283643071,706.7044098818344 M1064.722283643071,706.7044098818344 L1064.695150710781,706.8956465786227 M1064.695150710781,706.8956465786227 L1064.5811137141106,707.0355737889095 M1064.5811137141106,707.0355737889095 L1064.3868863552473,707.1160794214832 M1064.3868863552473,707.1160794214832 L1064.1236704332623,707.1324141004673 M1064.1236704332623,707.1324141004673 L1063.806774564587,707.0836133587603 M1063.806774564587,707.0836133587603 L1063.4547942232705,706.9725969320571 M1063.4547942232705,706.9725969320571 L1063.0882120775684,706.8058321993678 M1063.0882120775684,706.8058321993678 L1062.7281656541722,706.5929357194194 M1062.7281656541722,706.5929357194194 L1062.3958313202934,706.3464359148725 M1062.3958313202934,706.3464359148725 L1062.1103545488797,706.080596712096 M1062.1103545488797,706.080596712096 L1061.8884383810507,705.8109491847107 M1061.8884383810507,705.8109491847107 L1061.7429204548748,705.5531498697773 M1061.7429204548748,705.5531498697773 L1061.6821134770412,705.3221103791584 M1061.6821134770412,705.3221103791584 L1061.709604479469,705.131277828835 M1061.709604479469,705.131277828835 L1061.8237651977495,704.9917084230706 M1061.8237651977495,704.9917084230706 L1062.0178538002626,704.9114324153484 M1062.0178538002626,704.9114324153484 L1062.280700059912,704.8951464452631 M1062.280700059912,704.8951464452631 L1062.5970800235355,704.9438037874837 M1062.5970800235355,704.9438037874837 L1062.9485166481118,705.0545177521 M1062.9485166481118,705.0545177521 L1063.3147998272123,705.220967494453" stroke="black"  stroke-width="4"  fill="red"/>
<path d="M1061.9173746488298,729.3187639361257 L1052.302243538222,797.2154152488523 M1061.9173746488298,729.3187639361257 L1050.3014609549805,723.1550330330213 M1040.2074751405419,790.4864217419448 L1050.3014609549805,723.1550330330213 M1052.302243538222,797.2154152488523 L1040.2074751405419,790.4864217419448 M1067.2557262680496,724.6956146637606 L1061.9173746488298,729.3187639361257 M1079.3446667744195,700.0960419316692 L1079.517104405345,700.9501161631862 M1079.517104405345,700.9501161631862 L1079.5799025219924,701.9292941927259 M1079.5799025219924,701.9292941927259 L1079.5320850386165,703.0235841663616 M1079.5320850386165,703.0235841663616 L1079.3738769902563,704.2216897322232 M1079.3738769902563,704.2216897322232 L1079.1066860155127,705.5111426231987 M1079.1066860155127,705.5111426231987 L1078.733123181868,706.8784155647885 M1078.733123181868,706.8784155647885 L1078.2569685056237,708.3090804122085 M1078.2569685056237,708.3090804122085 L1077.6831328316139,709.7879699334802 M1077.6831328316139,709.7879699334802 L1077.01765082806,711.2993139216352 M1077.01765082806,711.2993139216352 L1076.267538695353,712.8269873575417 M1076.267538695353,712.8269873575417 L1075.4407896319744,714.3546320329145 M1075.4407896319744,714.3546320329145 L1074.5462339590024,715.8658920071563 M1074.5462339590024,715.8658920071563 L1073.5934505358773,717.3445912249443 M1073.5934505358773,717.3445912249443 L1072.5926849048567,718.7748985488217 M1072.5926849048567,718.7748985488217 L1071.5546533703205,720.1415759185052 M1071.5546533703205,720.1415759185052 L1070.490505169008,721.4300784763734 M1070.490505169008,721.4300784763734 L1069.4116283127723,722.626774878062 M1069.4116283127723,722.626774878062 L1068.3295280893813,723.7190900347821 M1068.3295280893813,723.7190900347821 L1067.2557262680496,724.6956146637606 M1079.282138573132,699.8875523518674 L1079.2491518024885,699.9322818931162 M1079.2491518024885,699.9322818931162 L1079.2198929784713,699.9804735945634 M1079.2198929784713,699.9804735945634 L1079.1960645571041,700.0293255982368 M1079.1960645571041,700.0293255982368 L1079.1790576445042,700.0759934077345 M1079.1790576445042,700.0759934077345 L1079.1698589437856,700.1177668690219 M1079.1698589437856,700.1177668690219 L1079.1689994381502,700.1522234321297 M1079.1689994381502,700.1522234321297 L1079.1765378233777,700.1773520623634 M1079.1765378233777,700.1773520623634 L1079.1920161083092,700.1917113126834 M1079.1920161083092,700.1917113126834 L1079.2145666533297,700.1944375626992 M1079.2145666533297,700.1944375626992 L1079.2428535920628,700.1853931985595 M1079.2428535920628,700.1853931985595 L1079.2752449765994,700.1650932850586 M1079.2752449765994,700.1650932850586 L1079.3098489119661,700.1347246548592 M1079.3098489119661,700.1347246548592 L1079.3446667744195,700.0960419316692 M1091.2127023906012,675.5213217447243 L1090.1328370044641,676.5316305808954 M1090.1328370044641,676.5316305808954 L1089.050573773918,677.6480093715585 M1089.050573773918,677.6480093715585 L1087.9767473972151,678.8590737976305 M1087.9767473972151,678.8590737976305 L1086.9220488584479,680.1525878266281 M1086.9220488584479,680.1525878266281 L1085.896978078635,681.5155314852673 M1085.896978078635,681.5155314852673 L1084.9116991246124,682.9342662996639 M1084.9116991246124,682.9342662996639 L1083.9759807066368,684.3946405496824 M1083.9759807066368,684.3946405496824 L1083.0991012525399,685.8821224826582 M1083.0991012525399,685.8821224826582 L1082.2897782275081,687.3819151758122 M1082.2897782275081,687.3819151758122 L1081.556074801557,688.8791118578544 M1081.556074801557,688.8791118578544 L1080.9053406466217,690.3588080884955 M1080.9053406466217,690.3588080884955 L1080.3441289360392,691.8062564618242 M1080.3441289360392,691.8062564618242 L1079.878154599424,693.206977372861 M1079.878154599424,693.206977372861 L1079.5122128630567,694.5469128462613 M1079.5122128630567,694.5469128462613 L1079.2501625460134,695.8125320278297 M1079.2501625460134,695.8125320278297 L1079.0948449034306,696.9909923432959 M1079.0948449034306,696.9909923432959 L1079.048068648774,698.0702439895778 M1079.048068648774,698.0702439895778 L1079.1106168492995,699.039125089604 M1079.1106168492995,699.039125089604 L1079.282138573132,699.8875523518674 M1079.3733571364714,768.9391270612331 L1091.2127023906012,675.5213217447243 M1066.1851531541997,779.8192944223446 L1079.3733571364714,768.9391270612331 M1065.278674267997,786.5689659897042 L1066.1851531541997,779.8192944223446 M1052.302243538222,797.2154152488523 L1065.278674267997,786.5689659897042 M1067.2557262680496,724.6956146637606 L1055.571035659968,718.5259319324553 M1055.571035659968,718.5259319324553 L1050.3014609549805,723.1550330330213 M1040.2074751405419,790.4864217419448 L1053.0084719454192,779.819278272984 M1053.963659624161,773.1274696420568 L1053.0084719454192,779.819278272984 M1053.963659624161,773.1274696420568 L1066.9732683552186,762.2278731999921 M1079.5085935232837,669.5929582651524 L1066.9732683552186,762.2278731999921 M1079.5085935232837,669.5929582651524 L1078.4419357604581,670.6036249441512 M1078.4419357604581,670.6036249441512 L1077.37183933754,671.719406858998 M1077.37183933754,671.719406858998 L1076.3090205057704,672.9289271393662 M1076.3090205057704,672.9289271393662 L1075.2640638547216,674.2199659352203 M1075.2640638547216,674.2199659352203 L1074.247375233555,675.5795280320095 M1074.247375233555,675.5795280320095 L1073.2690383496815,676.9940081243891 M1073.2690383496815,676.9940081243891 L1072.3387554123026,678.4492957076295 M1072.3387554123026,678.4492957076295 L1071.4657528397818,679.9309080005697 M1071.4657528397818,679.9309080005697 L1070.6587108765273,681.4241044769318 M1070.6587108765273,681.4241044769318 L1069.9256706436358,682.9140416902101 M1069.9256706436358,682.9140416902101 L1069.273975026428,684.3858850490054 M1069.273975026428,684.3858850490054 L1068.7101858585563,685.8249629341033 M1068.7101858585563,685.8249629341033 L1068.2400419255443,687.2168769060668 M1068.2400419255443,687.2168769060668 L1067.868377691497,688.5476549250986 M1067.868377691497,688.5476549250986 L1067.5991058811899,689.8038560813079 M1067.5991058811899,689.8038560813079 L1067.435136457193,690.9727310439214 M1067.435136457193,690.9727310439214 L1067.378360929509,692.0423257500248 M1067.378360929509,692.0423257500248 L1067.4296581707918,693.0015756241663 M1067.4296581707918,693.0015756241663 L1067.588786527418,693.8404954413345 M1067.6478254731865,694.0464612760073 L1067.6133705325658,694.0851002106225 M1067.6133705325658,694.0851002106225 L1067.5792097306014,694.1155009502963 M1067.5792097306014,694.1155009502963 L1067.547316101096,694.1359070219979 M1067.547316101096,694.1359070219979 L1067.5195524778576,694.1451254007092 M1067.5195524778576,694.1451254007092 L1067.4975205498658,694.1426309147517 M1067.4975205498658,694.1426309147517 L1067.4825257077596,694.1285476670683 M1067.4825257077596,694.1285476670683 L1067.475407895851,694.1037232523823 M1067.475407895851,694.1037232523823 L1067.4766004271578,694.0695814303003 M1067.4766004271578,694.0695814303003 L1067.486025357539,694.0281149432143 M1067.486025357539,694.0281149432143 L1067.5031385317172,693.9817285180319 M1067.5031385317172,693.9817285180319 L1067.5269470547203,693.9331159630443 M1067.5269470547203,693.9331159630443 L1067.5560610565635,693.8851078707005 M1067.5560610565635,693.8851078707005 L1067.588786527418,693.8404954413345 M1055.571035659968,718.5259319324553 L1056.6314557589824,717.5486694700163 M1056.6314557589824,717.5486694700163 L1057.7011652041517,716.4566413189236 M1057.7011652041517,716.4566413189236 L1058.7687775879622,715.261255477161 M1058.7687775879622,715.261255477161 L1059.8229110013303,713.9750740679542 M1059.8229110013303,713.9750740679542 L1060.8522876807406,712.6117039288393 M1060.8522876807406,712.6117039288393 L1061.845854241177,711.1856541530598 M1061.845854241177,711.1856541530598 L1062.7929737726165,709.7121161441529 M1062.7929737726165,709.7121161441529 L1063.6834637851218,708.2068641832444 M1063.6834637851218,708.2068641832444 L1064.5077903177182,706.6860079111085 M1064.5077903177182,706.6860079111085 L1065.2571496242033,705.1658282138183 M1065.2571496242033,705.1658282138183 L1065.9235565806196,703.662600581274 M1065.9235565806196,703.662600581274 L1066.4999838704437,702.1923606958386 M1066.4999838704437,702.1923606958386 L1066.980367630088,700.7707840192234 M1066.980367630088,700.7707840192234 L1067.3597491593791,699.412938750001 M1067.3597491593791,699.412938750001 L1067.6342831666507,698.1331510029676 M1067.6342831666507,698.1331510029676 L1067.8012767303353,696.9448442515803 M1067.8012767303353,696.9448442515803 L1067.859224678504,695.8603823920251 M1067.859224678504,695.8603823920251 L1067.807790419884,694.8909580939899 M1067.807790419884,694.8909580939899 L1067.6478254731865,694.0464612760073 M1053.0084719454192,779.819278272984 L1065.278674267997,786.5689659897042 M1079.3446667744195,700.0960419316692 L1067.6478254731865,694.0464612760073 M1079.282138573132,699.8875523518674 L1067.588786527418,693.8404954413345 M1091.2127023906012,675.5213217447243 L1079.5085935232837,669.5929582651524 M1079.3733571364714,768.9391270612331 L1066.9732683552186,762.2278731999921 M1066.1851531541997,779.8192944223446 L1053.963659624161,773.1274696420568" stroke="black"  stroke-width="4"  fill="red"/>
<path d="M1058.476824333914,709.9083938051764 L1063.2468741933617,705.6960723481701 M1063.2468741933617,705.6960723481701 L1063.3907640951456,705.7810893392883 M1063.3907640951456,705.7810893392883 L1063.5236703008773,705.8795895506304 M1063.5236703008773,705.8795895506304 L1063.63796402288,705.9859003297817 M1063.63796402288,705.9859003297817 L1063.7268877735205,706.0937887054605 M1063.7268877735205,706.0937887054605 L1063.7851291214947,706.1969105354135 M1063.7851291214947,706.1969105354135 L1063.8096836292857,706.2894734316698 M1063.8096836292857,706.2894734316698 L1063.7987874238859,706.3659195610513 M1063.7987874238859,706.3659195610513 L1063.7530687124884,706.42180147936 M1063.7530687124884,706.42180147936 L1063.6755130616486,706.4540378385716 M1063.6755130616486,706.4540378385716 L1063.5702414080426,706.4605506117418 M1063.5702414080426,706.4605506117418 L1063.443515422005,706.4410318209061 M1063.443515422005,706.4410318209061 L1063.3028181777358,706.3966775663438 M1063.3028181777358,706.3966775663438 L1063.156239115114,706.3300180789861 M1063.156239115114,706.3300180789861 L1063.0121613132776,706.2448609061964 M1063.0121613132776,706.2448609061964 L1062.8792563531324,706.1463123069694 M1062.8792563531324,706.1463123069694 L1062.7650045407738,706.0399785961384 M1062.7650045407738,706.0399785961384 L1062.6763019260839,705.9321754034366 M1062.6763019260839,705.9321754034366 L1062.617999653407,705.8290129062228 M1062.617999653407,705.8290129062228 L1062.5935268692363,705.7365072993123 M1062.5935268692363,705.7365072993123 L1062.6044803700424,705.6601258381055 M1062.6044803700424,705.6601258381055 L1062.6502187957965,705.6043011214595 M1062.6502187957965,705.6043011214595 L1062.7279004774223,705.5721789134368 M1062.7279004774223,705.5721789134368 L1062.8329648330503,705.5655965759469 M1062.8329648330503,705.5655965759469 L1062.9596082469743,705.5850924035514 M1062.9596082469743,705.5850924035514 L1063.1002185116433,705.629398279733 M1063.1002185116433,705.629398279733 L1063.2468741933617,705.6960723481701 M1058.476824333914,709.9083938051764 L1058.3309125514795,709.8417728767147 M1058.3309125514795,709.8417728767147 L1058.1909527841678,709.7975023008518 M1058.1909527841678,709.7975023008518 L1058.0648300190712,709.7780220033518 M1058.0648300190712,709.7780220033518 L1057.960124886694,709.7845990976504 M1057.960124886694,709.7845990976504 L1057.8826217360995,709.8166957155546 M1057.8826217360995,709.8166957155546 L1057.8368705198268,709.8724759475674 M1057.8368705198268,709.8724759475674 L1057.825712665164,709.9487965186787 M1057.825712665164,709.9487965186787 L1057.8498013530068,710.0412283435828 M1057.8498013530068,710.0412283435828 L1057.9075630070247,710.1443085098156 M1057.9075630070247,710.1443085098156 L1057.995600086878,710.2520256126203 M1057.995600086878,710.2520256126203 L1058.1090985088217,710.358274351681 M1058.1090985088217,710.358274351681 L1058.241207355876,710.456744151151 M1058.241207355876,710.456744151151 L1058.3844913199205,710.5418331939622 M1058.3844913199205,710.5418331939622 L1058.530326549798,710.6084393257981 M1058.530326549798,710.6084393257981 L1058.6703725140069,710.6527580663959 M1058.6703725140069,710.6527580663959 L1058.7965771813008,710.6722612257181 M1058.7965771813008,710.6722612257181 L1058.9014884255416,710.665753668472 M1058.9014884255416,710.665753668472 L1058.9788662860844,710.6335431235485 M1058.9788662860844,710.6335431235485 L1059.0245981126393,710.5777059424838 M1059.0245981126393,710.5777059424838 L1059.0356992919294,710.5013209887818 M1059.0356992919294,710.5013209887818 L1059.0115296535569,710.4088321275295 M1059.0115296535569,710.4088321275295 L1058.9538288880651,710.3057927289034 M1058.9538288880651,710.3057927289034 L1058.8655720081254,710.1979905393639 M1058.8655720081254,710.1979905393639 L1058.7520319064179,710.0917646307133 M1058.7520319064179,710.0917646307133 L1058.619921668694,709.9933430054402 M1058.619921668694,709.9933430054402 L1058.476824333914,709.9083938051764 M1063.3147998272123,705.220967494453 L1063.674449925518,705.4333942026989 M1063.674449925518,705.4333942026989 L1064.0067919896244,705.6795915120579 M1064.0067919896244,705.6795915120579 L1064.292530626717,705.945287385361 M1064.292530626717,705.945287385361 L1064.5149027790171,706.2149836341652 M1064.5149027790171,706.2149836341652 L1064.6609662992144,706.4730125138713 M1064.6609662992144,706.4730125138713 L1064.722283643071,706.7044098818344 M1064.722283643071,706.7044098818344 L1064.695150710781,706.8956465786227 M1064.695150710781,706.8956465786227 L1064.5811137141106,707.0355737889095 M1064.5811137141106,707.0355737889095 L1064.3868863552473,707.1160794214832 M1064.3868863552473,707.1160794214832 L1064.1236704332623,707.1324141004673 M1064.1236704332623,707.1324141004673 L1063.806774564587,707.0836133587603 M1063.806774564587,707.0836133587603 L1063.4547942232705,706.9725969320571 M1063.4547942232705,706.9725969320571 L1063.0882120775684,706.8058321993678 M1063.0882120775684,706.8058321993678 L1062.7281656541722,706.5929357194194 M1062.7281656541722,706.5929357194194 L1062.3958313202934,706.3464359148725 M1062.3958313202934,706.3464359148725 L1062.1103545488797,706.080596712096 M1062.1103545488797,706.080596712096 L1061.8884383810507,705.8109491847107 M1061.8884383810507,705.8109491847107 L1061.7429204548748,705.5531498697773 M1061.7429204548748,705.5531498697773 L1061.6821134770412,705.3221103791584 M1061.6821134770412,705.3221103791584 L1061.709604479469,705.131277828835 M1061.709604479469,705.131277828835 L1061.8237651977495,704.9917084230706 M1061.8237651977495,704.9917084230706 L1062.0178538002626,704.9114324153484 M1062.0178538002626,704.9114324153484 L1062.280700059912,704.8951464452631 M1062.280700059912,704.8951464452631 L1062.5970800235355,704.9438037874837 M1062.5970800235355,704.9438037874837 L1062.9485166481118,705.0545177521 M1062.9485166481118,705.0545177521 L1063.3147998272123,705.220967494453 M1063.8764582772812,704.7248029073921 L1064.2363419614658,704.9372492286819 M1064.2363419614658,704.9372492286819 L1064.568918785314,705.1834693014463 M1064.568918785314,705.1834693014463 L1064.8548797342091,705.4491897799858 M1064.8548797342091,705.4491897799858 L1065.0774487324813,705.7189110458859 M1065.0774487324813,705.7189110458859 L1065.223672170546,705.9769638994595 M1065.223672170546,705.9769638994595 L1065.2851032241751,706.2083827993839 M1065.2851032241751,706.2083827993839 L1065.2580310758506,706.3996373142797 M1065.2580310758506,706.3996373142797 L1065.1439983654338,706.5395775752974 M1065.1439983654338,706.5395775752974 L1064.9497185858397,706.6200907215587 M1064.9497185858397,706.6200907215587 L1064.6863965242705,706.6364269255313 M1064.6863965242705,706.6364269255313 L1064.369346978275,706.5876216282918 M1064.369346978275,706.5876216282918 L1064.0171744797665,706.4765948433303 M1064.0171744797665,706.4765948433303 L1063.6503729016465,706.3098145641331 M1063.6503729016465,706.3098145641331 L1063.2900924399203,706.0968982602552 M1063.2900924399203,706.0968982602552 L1062.9575232385182,705.8503755352601 M1062.9575232385182,705.8503755352601 L1062.6718243244734,705.5845116528368 M1062.6718243244734,705.5845116528368 L1062.4497117180365,705.3148391336493 M1062.4497117180365,705.3148391336493 L1062.3040344261703,705.0570159640289 M1062.3040344261703,705.0570159640289 L1062.243114309209,704.8259551272436 M1062.243114309209,704.8259551272436 L1062.2705449859059,704.6351049686284 M1062.2705449859059,704.6351049686284 L1062.3847016587515,704.4955226978901 M1062.3847016587515,704.4955226978901 L1062.5788426504623,704.4152392956923 M1062.5788426504623,704.4152392956923 L1062.8417947528014,704.3989518259062 M1062.8417947528014,704.3989518259062 L1063.1583278994704,704.447613649212 M1063.1583278994704,704.447613649212 L1063.5099561030995,704.5583378150608 M1063.5099561030995,704.5583378150608 L1063.8764582772812,704.7248029073921 M1063.8764582772812,704.7248029073921 L1063.3147998272123,705.220967494453" stroke="black"  stroke-width="4"  fill="red"/>
<path d="M-251.23153579526058,32.52497457040522 L-287.45739748965514,51.832483648259654 M-251.23153579526058,32.52497457040522 L-254.6095315998857,30.73251487413944 M-290.8336773062663,49.95407108040621 L-254.6095315998857,30.73251487413944 M-287.45739748965514,51.832483648259654 L-290.8336773062663,49.95407108040621 M-287.45739748965514,51.832483648259654 L-287.6287402967621,42.35120022847536 M-287.6287402967621,42.35120022847536 L-284.0856228091109,40.48449737148326 M-284.0856228091109,40.48449737148326 L-284.23983162812874,30.91584031094453 M-284.23983162812874,30.91584031094453 L-233.52997984085766,4.512855726333896 M-233.52997984085766,4.512855726333896 L-233.57199142748414,5.331906919461687 M-233.57199142748414,5.331906919461687 L-233.67941444658322,6.176252365397488 M-233.67941444658322,6.176252365397488 L-233.8510884625598,7.037304522934505 M-233.8510884625598,7.037304522934505 L-234.08521834931366,7.906343759533456 M-234.08521834931366,7.906343759533456 L-234.37938966687466,8.774564912124106 M-234.37938966687466,8.774564912124106 L-234.73059294102677,9.633200038193024 M-234.73059294102677,9.633200038193024 L-235.1352579591919,10.473581144395837 M-235.1352579591919,10.473581144395837 L-235.58928716641208,11.28722889944703 M-235.58928716641208,11.28722889944703 L-236.0880917374957,12.065923803572048 M-236.0880917374957,12.065923803572048 L-236.62664145588587,12.80179850874049 M-236.62664145588587,12.80179850874049 L-237.199506859052,13.487401135059145 M-237.199506859052,13.487401135059145 L-237.8009155654106,14.115780346818894 M-237.8009155654106,14.115780346818894 L-238.4248039185843,14.680536834246595 M-238.4248039185843,14.680536834246595 L-239.0648740719688,15.175905192362166 M-239.0648740719688,15.175905192362166 L-239.71465606870402,15.596787833034 M-239.71465606870402,15.596787833034 L-240.367569356662,15.938835650407555 M-240.367569356662,15.938835650407555 L-241.01698445186184,16.19847801163553 M-241.01698445186184,16.19847801163553 L-241.65628999218916,16.37293716440803 M-241.65628999218916,16.37293716440803 L-242.27895605393996,16.46032646195806 M-242.27895605393996,16.46032646195806 L-242.28898292050917,16.488421619173607 M-242.28898292050917,16.488421619173607 L-242.3031911243363,16.515180930818417 M-242.3031911243363,16.515180930818417 L-242.3207551781478,16.53904753431908 M-242.3207551781478,16.53904753431908 L-242.34065413198994,16.55862946429977 M-242.34065413198994,16.55862946429977 L-242.36173162362888,16.57278994792921 M-242.36173162362888,16.57278994792921 L-242.38276375982082,16.580709211355895 M-242.38276375982082,16.580709211355895 L-242.40252750943296,16.58192047914082 M-242.40252750943296,16.58192047914082 L-242.41987529799167,16.57636886149612 M-242.41987529799167,16.57636886149612 L-242.43379816903098,16.564353217653093 M-242.43379816903098,16.564353217653093 L-242.44348645088405,16.546590790771518 M-242.44348645088405,16.546590790771518 L-242.44837725272487,16.52410507506079 M-242.44837725272487,16.52410507506079 L-242.44818588531984,16.49820968821473 M-242.44818588531984,16.49820968821473 L-242.4429239646256,16.470400282105174 M-242.4429239646256,16.470400282105174 L-243.06887314328014,16.55839961856367 M-243.06887314328014,16.55839961856367 L-243.7128794347882,16.734522402158404 M-243.7128794347882,16.734522402158404 L-244.36822547848806,16.99705903335837 M-244.36822547848806,16.99705903335837 L-245.02805622180892,17.343371399939826 M-245.02805622180892,17.343371399939826 L-245.68544865896774,17.76993606040776 M-245.68544865896774,17.76993606040776 L-246.33348956038026,18.27235987820751 M-246.33348956038026,18.27235987820751 L-246.9653506347364,18.845434793083484 M-246.9653506347364,18.845434793083484 L-247.57436335532782,19.483193837596048 M-247.57436335532782,19.483193837596048 L-248.15409413591567,20.178942667915294 M-248.15409413591567,20.178942667915294 L-248.69841616564042,20.925389233267197 M-248.69841616564042,20.925389233267197 L-249.20157682968807,21.71466790161992 M-249.20157682968807,21.71466790161992 L-249.65826340152523,22.53846248453749 M-249.65826340152523,22.53846248453749 L-250.0636609939711,23.388087259753604 M-250.0636609939711,23.388087259753604 L-250.41350708959544,24.25456085918188 M-250.41350708959544,24.25456085918188 L-250.70413745685016,25.128761616045097 M-250.70413745685016,25.128761616045097 L-250.9325261172287,26.001462623796442 M-250.9325261172287,26.001462623796442 L-251.09631723745724,26.863480602330696 M-251.09631723745724,26.863480602330696 L-251.19384907815993,27.705768164180654 M-251.19384907815993,27.705768164180654 L-251.22416961852446,28.519488305882362 M-251.22416961852446,28.519488305882362 L-251.23153579526058,32.52497457040522 M-251.22416961852446,28.519488305882362 L-254.6095312149332,26.73196926227672 M-254.6095312149332,26.73196926227672 L-254.6095315998857,30.73251487413944 M-254.6095312149332,26.73196926227672 L-254.58067879158205,25.91930599137021 M-254.58067879158205,25.91930599137021 L-254.4846018721903,25.078225097167262 M-254.4846018721903,25.078225097167262 L-254.32223727320843,24.217550824523187 M-254.32223727320843,24.217550824523187 L-254.09523178449126,23.346316281917495 M-254.09523178449126,23.346316281917495 L-253.8059266621491,22.473689082941007 M-253.8059266621491,22.473689082941007 L-253.45733382487697,21.608879251257235 M-253.45733382487697,21.608879251257235 L-253.053104206248,20.760990611070383 M-253.053104206248,20.760990611070383 L-252.5974878174586,19.938985857684315 M-252.5974878174586,19.938985857684315 L-252.0952880796001,19.151531499587804 M-252.0952880796001,19.151531499587804 L-251.55180738560807,18.406924171848573 M-251.55180738560807,18.406924171848573 L-250.9727892532767,17.713009827837993 M-250.9727892532767,17.713009827837993 L-250.36435280847104,17.07706099170474 M-250.36435280847104,17.07706099170474 L-249.73292535663836,16.505752786374956 M-249.73292535663836,16.505752786374956 L-249.08517073072676,16.00503355350679 M-249.08517073072676,16.00503355350679 L-248.42791411335315,15.580093491209425 M-248.42791411335315,15.580093491209425 L-247.76806725297808,15.235308832057683 M-247.76806725297808,15.235308832057683 L-247.11255334013356,14.974187261290467 M-247.11255334013356,14.974187261290467 L-246.4682292392871,14.799352423760638 M-246.4682292392871,14.799352423760638 L-245.8418157678043,14.712500899386384 M-245.8418157678043,14.712500899386384 L-245.8470314843371,14.74026693390556 M-245.8470314843371,14.74026693390556 L-245.84717510422,14.766129744330783 M-245.84717510422,14.766129744330783 L-245.84223776825115,14.788595561577267 M-245.84223776825115,14.788595561577267 L-245.83250688253804,14.806351932045459 M-245.83250688253804,14.806351932045459 L-245.818547796811,14.81837570233381 M-245.818547796811,14.81837570233381 L-245.80117232247414,14.82394917896454 M-245.80117232247414,14.82394917896454 L-245.78139098146244,14.82277220058944 M-245.78139098146244,14.82277220058944 L-245.7603523983098,14.81489768445681 M-245.7603523983098,14.81489768445681 L-245.73927996777581,14.80078979561739 M-245.73927996777581,14.80078979561739 L-245.7193972943585,14.78126525689487 M-245.7193972943585,14.78126525689487 L-245.70185979701637,14.757457507759739 M-245.70185979701637,14.757457507759739 L-245.68768687400564,14.730755087369175 M-245.68768687400564,14.730755087369175 L-245.67770195920548,14.702711551089521 M-236.9420296781368,2.7845847511476904 L-236.9825593337564,3.602539324020995 M-236.9825593337564,3.602539324020995 L-237.08852060664594,4.44565086433272 M-237.08852060664594,4.44565086433272 L-237.25876797717297,5.3053442641771085 M-237.25876797717297,5.3053442641771085 L-237.4915207771893,6.172913467256478 M-237.4915207771893,6.172913467256478 L-237.78437849247211,7.039567960224758 M-237.78437849247211,7.039567960224758 L-238.1343448381076,7.896555346390471 M-238.1343448381076,7.896555346390471 L-238.53786197481986,8.73522395681863 M-238.53786197481986,8.73522395681863 L-238.99084377867052,9.547111415274003 M-238.99084377867052,9.547111415274003 L-239.4887118246885,10.324015677092234 M-239.4887118246885,10.324015677092234 L-240.02644515416046,11.058087168957684 M-240.02644515416046,11.058087168957684 L-240.59862235618664,11.741891972190444 M-240.59862235618664,11.741891972190444 L-241.1994778061686,12.368496713160084 M-241.1994778061686,12.368496713160084 L-241.82295328008922,12.931519906246649 M-241.82295328008922,12.931519906246649 L-242.4627549585348,13.4252136441267 M-242.4627549585348,13.4252136441267 L-243.11241552004924,13.844497369199473 M-243.11241552004924,13.844497369199473 L-243.7653555814054,14.185038337703872 M-243.7653555814054,14.185038337703872 L-244.41494537926144,14.443281468216867 M-244.41494537926144,14.443281468216867 L-245.0545718746688,14.616463613934684 M-245.0545718746688,14.616463613934684 L-245.67770195920548,14.702711551089521 M-236.9420296781368,2.7845847511476904 L-287.6509977092427,29.06962759932088 M-287.47942442390195,38.62623629321001 L-287.6509977092427,29.06962759932088 M-287.47942442390195,38.62623629321001 L-291.02220353780535,40.48449774443691 M-290.8336773062663,49.95407108040621 L-291.02220353780535,40.48449774443691 M-291.02220353780535,40.48449774443691 L-287.6287402967621,42.35120022847536 M-242.4429239646256,16.470400282105174 L-245.8418157678043,14.712500899386384 M-242.27895605393996,16.46032646195806 L-245.67770195920548,14.702711551089521 M-233.52997984085766,4.512855726333896 L-236.9420296781368,2.7845847511476904 M-284.23983162812874,30.91584031094453 L-287.6509977092427,29.06962759932088 M-284.0856228091109,40.48449737148326 L-287.47942442390195,38.62623629321001" stroke="black"  stroke-width="4"  fill="red"/>
<path d="M-243.95199471903686,26.857302308334965 L-243.93104648441067,23.235570860211908 M-243.93104648441067,23.235570860211908 L-243.89361805239832,23.26046494116116 M-243.89361805239832,23.26046494116116 L-243.86854563556813,23.2893053040479 M-243.86854563556813,23.2893053040479 L-243.8572863334798,23.32041595511646 M-243.8572863334798,23.32041595511646 L-243.86049686995761,23.351989665313738 M-243.86049686995761,23.351989665313738 L-243.87799188963004,23.382190954145926 M-243.87799188963004,23.382190954145926 L-243.90875650576618,23.40926459834651 M-243.90875650576618,23.40926459834651 L-243.9510029625012,23.43163603203311 M-243.9510029625012,23.43163603203311 L-244.00227654365767,23.448004488776462 M-244.00227654365767,23.448004488776462 L-244.05959595402544,23.457417593298374 M-244.05959595402544,23.457417593298374 L-244.11962951099304,23.459328050072827 M-244.11962951099304,23.459328050072827 L-244.17888582328442,23.45362449831032 M-244.17888582328442,23.45362449831032 L-244.2339205105036,23.44063915400193 M-244.2339205105036,23.44063915400193 L-244.28153300149438,23.42112674429262 M-244.28153300149438,23.42112674429262 L-244.3189567333527,23.39622280977227 M-244.3189567333527,23.39622280977227 L-244.34401633593006,23.367374782341642 M-244.34401633593006,23.367374782341642 L-244.35525747626116,23.336260500245714 M-244.35525747626116,23.336260500245714 L-244.35202759080948,23.304688024290556 M-244.35202759080948,23.304688024290556 L-244.334516467821,23.27449255220455 M-244.334516467821,23.27449255220455 L-244.3037426829169,23.247427974799734 M-244.3037426829169,23.247427974799734 L-244.26149609252775,23.22506678077451 M-244.26149609252775,23.22506678077451 L-244.21023144344804,23.208707390888037 M-244.21023144344804,23.208707390888037 L-244.15292798454925,23.1993001031351 M-244.15292798454925,23.1993001031351 L-244.09291374433553,23.19739088063153 M-244.09291374433553,23.19739088063153 L-244.03367568859142,23.203090801271458 M-244.03367568859142,23.203090801271458 L-243.97865401570743,23.216068481166246 M-243.97865401570743,23.216068481166246 L-243.93104648441067,23.235570860211908 M-243.95199471903686,26.857302308334965 L-243.99950835457605,26.837750573563085 M-243.99950835457605,26.837750573563085 L-244.05442176058,26.82474004932095 M-244.05442176058,26.82474004932095 L-244.11354346838561,26.819025702870704 M-244.11354346838561,26.819025702870704 L-244.173440033362,26.820939757403437 M-244.173440033362,26.820939757403437 L-244.23063132369214,26.830370853691875 M-244.23063132369214,26.830370853691875 L-244.28179582265648,26.846771645886292 M-244.28179582265648,26.846771645886292 L-244.32396010013053,26.869189429455787 M-244.32396010013053,26.869189429455787 L-244.35467419217218,26.896322496002313 M-244.35467419217218,26.896322496002313 L-244.37215171576463,26.926594375990817 M-244.37215171576463,26.926594375990817 L-244.37537605243142,26.958246739510685 M-244.37537605243142,26.958246739510685 L-244.36415774371108,26.9894397450401 M-244.36415774371108,26.9894397450401 L-244.339148030729,27.018360757738662 M-244.339148030729,27.018360757738662 L-244.30179835316528,27.043327695732955 M-244.30179835316528,27.043327695732955 L-244.25427977729817,27.062889466993624 M-244.25427977729817,27.062889466993624 L-244.1993534081705,27.075907659967186 M-244.1993534081705,27.075907659967186 L-244.1402135154758,27.08162563958581 M-244.1402135154758,27.08162563958581 L-244.08029770943517,27.07971035008677 M-244.08029770943517,27.07971035008677 L-244.02309053001727,27.07027343375239 M-244.02309053001727,27.07027343375239 L-243.97191713375844,27.053863569593034 M-243.97191713375844,27.053863569593034 L-243.92975298915349,27.03143554059352 M-243.92975298915349,27.03143554059352 L-243.89904802970705,27.00429340214322 M-243.89904802970705,27.00429340214322 L-243.88158654615756,26.97401570213151 M-243.88158654615756,26.97401570213151 L-243.8783814825856,26.942362103674157 M-243.8783814825856,26.942362103674157 L-243.88961788196195,26.91117273121779 M-243.88961788196195,26.91117273121779 L-243.91464035916056,26.882259387381055 M-243.91464035916056,26.882259387381055 L-243.95199471903686,26.857302308334965 M-243.66828764028833,23.096460089199013 L-243.57470916276725,23.158677146477373 M-243.57470916276725,23.158677146477373 L-243.51200352310855,23.230763289843082 M-243.51200352310855,23.230763289843082 L-243.48382147100403,23.30853333175196 M-243.48382147100403,23.30853333175196 L-243.49181145060038,23.387469612076245 M-243.49181145060038,23.387469612076245 L-243.53551896014187,23.462984008994056 M-243.53551896014187,23.462984008994056 L-243.61241254311824,23.530684817534336 M-243.61241254311824,23.530684817534336 L-243.71802842699253,23.586632612716528 M-243.71802842699253,23.586632612716528 L-243.84622854705526,23.62757036886893 M-243.84622854705526,23.62757036886893 L-243.98955750018808,23.65111413400149 M-243.98955750018808,23.65111413400149 L-244.13967704323,23.655892547880683 M-244.13967704323,23.655892547880683 L-244.28785249255156,23.641626987259542 M-244.28785249255156,23.641626987259542 L-244.42546286837933,23.609148934680547 M-244.42546286837933,23.609148934680547 L-244.5445039941469,23.560349831774488 M-244.5445039941469,23.560349831774488 L-244.63805398409272,23.498070724684055 M-244.63805398409272,23.498070724684055 L-244.70067970487025,23.425936589807122 M-244.70067970487025,23.425936589807122 L-244.72874807630842,23.348143942515833 M-244.72874807630842,23.348143942515833 L-244.72063725089333,23.269215332028523 M-244.72063725089333,23.269215332028523 L-244.67682909540576,23.193737289986018 M-244.67682909540576,23.193737289986018 L-244.59987820780213,23.126093148731513 M-244.59987820780213,23.126093148731513 L-244.49426148858072,23.070209351453798 M-244.49426148858072,23.070209351453798 L-244.3661171938263,23.02932826258501 M-244.3661171938263,23.02932826258501 L-244.2228879375964,23.00582085236823 M-244.2228879375964,23.00582085236823 L-244.0728890390153,23.00105019681041 M-244.0728890390153,23.00105019681041 L-243.92482786280607,23.0152929747278 M-243.92482786280607,23.0152929747278 L-243.7872986563732,23.047723212722076 M-243.7872986563732,23.047723212722076 L-243.66828764028833,23.096460089199013 M-243.66576480987987,22.670731601805244 L-243.5721645585686,22.732930072898796 M-243.5721645585686,22.732930072898796 L-243.50944423002306,22.804994684648477 M-243.50944423002306,22.804994684648477 L-243.4812554306684,22.88274150054093 M-243.4812554306684,22.88274150054093 L-243.489247001453,22.961654210095958 M-243.489247001453,22.961654210095958 L-243.53296435280606,23.037146061378053 M-243.53296435280606,23.037146061378053 L-243.60987546024216,23.104826659891614 M-243.60987546024216,23.104826659891614 L-243.71551553506947,23.160757755535656 M-243.71551553506947,23.160757755535656 L-243.84374510671148,23.201683293547205 M-243.84374510671148,23.201683293547205 L-243.98710705821998,23.225220032324273 M-243.98710705821998,23.225220032324273 L-244.1372612247718,23.229997020181656 M-244.1372612247718,23.229997020181656 L-244.28547090579195,23.215735716869688 M-244.28547090579195,23.215735716869688 L-244.4231131276191,23.183267357237355 M-244.4231131276191,23.183267357237355 L-244.54218185973605,23.13448281936752 M-244.54218185973605,23.13448281936752 L-244.63575361055575,23.07222230266342 M-244.63575361055575,23.07222230266342 L-244.69839398345584,23.00010970268835 M-244.69839398345584,23.00010970268835 L-244.72646904980616,22.922340282931373 M-244.72646904980616,22.922340282931373 L-244.71835657740917,22.843435242701503 M-244.71835657740917,22.843435242701503 L-244.67453853356892,22.767979743821115 M-244.67453853356892,22.767979743821115 L-244.59757009489795,22.70035580873747 M-244.59757009489795,22.70035580873747 L-244.49192918414542,22.64448870664347 M-244.49192918414542,22.64448870664347 L-244.36375546339536,22.603619832059735 M-244.36375546339536,22.603619832059735 L-244.22049325467435,22.580119445724677 M-244.22049325467435,22.580119445724677 L-244.07045978823726,22.575350215650644 M-244.07045978823726,22.575350215650644 L-243.92236443307775,22.589588737829445 M-243.92236443307775,22.589588737829445 L-243.78480341827515,22.62200928611003 M-243.78480341827515,22.62200928611003 L-243.66576480987987,22.670731601805244 M-243.66576480987987,22.670731601805244 L-243.66828764028833,23.096460089199013" stroke="black"  stroke-width="4"  fill="red"/>
<path d="M-287.47942442390195,38.62623629321001 L-291.02220353780535,40.48449774443691 M-291.02220353780535,40.48449774443691 L-291.2127023906012,30.915840681484553 M-287.6509977092427,29.06962759932088 L-291.2127023906012,30.915840681484553 M-287.47942442390195,38.62623629321001 L-287.6509977092427,29.06962759932088 M-287.45739748965514,51.832483648259654 L-215.8430879171069,91.67551397927082 M-215.8430879171069,91.67551397927082 L-215.75108707394975,87.45646872149285 M-215.75108707394975,87.45646872149285 L-134.27375993326564,132.56513986099452 M-134.57341984854156,136.89035817974172 L-134.27375993326564,132.56513986099452 M-134.57341984854156,136.89035817974172 L303.23731293869287,380.4688609929657 M303.23731293869287,380.4688609929657 L305.0005006249171,375.7625894453778 M305.0005006249171,375.7625894453778 L452.056655266236,457.177971509901 M449.674002946934,461.9397502104433 L452.056655266236,457.177971509901 M449.674002946934,461.9397502104433 L1040.2074751405419,790.4864217419448 M1040.2074751405419,790.4864217419448 L1053.0084719454192,779.819278272984 M1053.0084719454192,779.819278272984 L1065.278674267997,786.5689659897042 M1065.278674267997,786.5689659897042 L1078.5153772473666,775.7089776336676 M-291.2127023906012,30.915840681484553 L1078.5153772473666,775.7089776336676 M-291.02220353780535,40.48449774443691 L-287.6287402967621,42.35120022847536 M-287.45739748965514,51.832483648259654 L-287.6287402967621,42.35120022847536 M1066.1851531541997,779.8192944223446 L1053.963659624161,773.1274696420568 M1041.2076862289484,783.8145675485147 L1053.963659624161,773.1274696420568 M1041.2076862289484,783.8145675485147 L452.45025503092506,457.7617778793473 M452.45025503092506,457.7617778793473 L454.8342344359503,453.0019675994847 M454.8342344359503,453.0019675994847 L308.0594092398503,372.1167465197044 M306.2921518974879,376.819687411902 L308.0594092398503,372.1167465197044 M306.2921518974879,376.819687411902 L-131.06990545474218,134.60937916158014 M-131.06990545474218,134.60937916158014 L-130.76226731933411,130.28925140487763 M-130.76226731933411,130.28925140487763 L-212.2195943030447,85.39944218287724 M-212.31971917943451,89.61338077370448 L-212.2195943030447,85.39944218287724 M-212.31971917943451,89.61338077370448 L-283.93301082697576,49.95407070510845 M-283.93301082697576,49.95407070510845 L-284.0856228091109,40.48449737148326 M-284.0856228091109,40.48449737148326 L-287.47942442390195,38.62623629321001 M1079.3733571364714,768.9391270612331 L-287.6509977092427,29.06962759932088 M1066.1851531541997,779.8192944223446 L1079.3733571364714,768.9391270612331 M-287.45739748965514,51.832483648259654 L-283.93301082697576,49.95407070510845 M-287.6287402967621,42.35120022847536 L-284.0856228091109,40.48449737148326 M-212.31971917943451,89.61338077370448 L-215.8430879171069,91.67551397927082 M-212.2195943030447,85.39944218287724 L-215.75108707394975,87.45646872149285 M-134.57341984854156,136.89035817974172 L-131.06990545474218,134.60937916158014 M-134.27375993326564,132.56513986099452 L-130.76226731933411,130.28925140487763 M306.2921518974879,376.819687411902 L303.23731293869287,380.4688609929657 M308.0594092398503,372.1167465197044 L305.0005006249171,375.7625894453778 M449.674002946934,461.9397502104433 L452.45025503092506,457.7617778793473 M452.056655266236,457.177971509901 L454.8342344359503,453.0019675994847 M1041.2076862289484,783.8145675485147 L1040.2074751405419,790.4864217419448 M1053.963659624161,773.1274696420568 L1053.0084719454192,779.819278272984 M1065.278674267997,786.5689659897042 L1066.1851531541997,779.8192944223446 M1078.5153772473666,775.7089776336676 L1079.3733571364714,768.9391270612331" stroke="black"  stroke-width="4"  fill="red"/></svg>