<svg viewBox="0 0 800 800" xmlns="http://www.w3.org/2000/svg"><path d="M597.3390787842148,514.0904094948947 L597.558451578128,57.75265484285575 M202.46804974046856,742.0693044084862 L202.24818863760953,285.4773940973058 M597.3390787842148,514.0904094948947 L638.863902682876,544.6527755256491 M638.863902682876,544.6527755256491 L666.5241887206097,580.0686486014333 M666.5241887206097,580.0686486014333 L678.7065099210663,618.283653195188 M678.7065099210663,618.283653195188 L674.694457739694,657.0787236835952 M674.694457739694,657.0787236835952 L654.7123130116535,694.1986200519891 M654.7123130116535,694.1986200519891 L619.9139432049725,727.4831202323007 M619.9139432049725,727.4831202323007 L572.3175273348678,754.9932677112788 M572.3175273348678,754.9932677112788 L514.6891915970987,775.125081956771 M514.6891915970987,775.125081956771 L450.38224415542624,786.7039733404943 M450.38224415542624,786.7039733404943 L383.1413831230973,789.0540828712224 M383.1413831230973,789.0540828712224 L316.8833174206147,782.0381885688582 M316.8833174206147,782.0381885688582 L255.4671167813538,766.0658882096757 M255.4671167813538,766.0658882096757 L202.46804974046856,742.0693044084862 M597.558451578128,57.75265484285575 L639.1294794354582,88.28091663320174 M639.1294794354582,88.28091663320174 L666.8205720231327,123.65728214200158 M666.8205720231327,123.65728214200158 L679.0164988249393,161.8296718832915 M679.0164988249393,161.8296718832915 L675.0000418962006,200.58149684668143 M675.0000418962006,200.58149684668143 L654.9957182487639,237.66003029510034 M654.9957182487639,237.66003029510034 L620.1586678029033,270.9074540500696 M620.1586678029033,270.9074540500696 L572.5093082317437,298.38696635440283 M572.5093082317437,298.38696635440283 L514.8168426000504,318.49636709734034 M514.8168426000504,318.49636709734034 L450.4383153371446,330.0623692561106 M450.4383153371446,330.0623692561106 L383.1226010048894,332.4098629027399 M383.1226010048894,332.4098629027399 L316.7907785938785,325.40177810146486 M316.7907785938785,325.40177810146486 L255.30622301570327,309.4472587466288 M255.30622301570327,309.4472587466288 L202.24818863760953,285.4773940973058 M202.46804974046856,742.0693044084862 L160.96835369492513,711.4480788861752 M160.96835369492513,711.4480788861752 L133.37769469005343,675.9868303204571 M133.37769469005343,675.9868303204571 L121.29354893803531,637.75032922338 M121.29354893803531,637.75032922338 L125.40983421321789,598.962565788531 M125.40983421321789,598.962565788531 L145.47839117054446,561.8771060821236 M145.47839117054446,561.8771060821236 L180.3255563167048,528.646283151352 M180.3255563167048,528.646283151352 L227.92197221827482,501.19675671642165 M227.92197221827482,501.19675671642165 L285.50151265231335,481.11861975417645 M285.50151265231335,481.11861975417645 L349.72204784238414,469.5741650477903 M349.72204784238414,469.5741650477903 L416.8586757198009,467.23136259031105 M416.8586757198009,467.23136259031105 L483.01856592674073,474.22576034956563 M483.01856592674073,474.22576034956563 L544.3651395407248,490.15268520678814 M544.3651395407248,490.15268520678814 L597.3390787842148,514.0904094948947 M202.24818863760953,285.4773940973058 L160.7023445663542,254.89027303398657 M160.7023445663542,254.89027303398657 L133.0810339965983,219.46853220378708 M133.0810339965983,219.46853220378708 L120.98350117506072,181.27464603902501 M120.98350117506072,181.27464603902501 L125.10442321333187,142.53012810205013 M125.10442321333187,142.53012810205013 L145.19535143778552,105.48603118770541 M145.19535143778552,105.48603118770541 L180.0813058382783,72.29228448292156 M180.0813058382783,72.29228448292156 L227.73066544104347,44.873392997530345 M227.73066544104347,44.873392997530345 L285.3742271540126,24.817669338551923 M285.3742271540126,24.817669338551923 L349.6661498174865,13.286103729282218 M349.6661498174865,13.286103729282218 L416.8773989788349,10.945917128777694 M416.8773989788349,10.945917128777694 L483.1108273622626,17.932505466740054 M483.1108273622626,17.932505466740054 L544.5256009301385,33.84164948806995 M544.5256009301385,33.84164948806995 L597.558451578128,57.75265484285575" stroke="black"  stroke-width="4"  fill="red"/></svg>