<svg viewBox="0 0 800 800" xmlns="http://www.w3.org/2000/svg"><path d="M866.5284129718327,254.40967035791533 L866.5284230217669,254.4094579925607 M504.7760998158981,472.98178180267564 L504.77610603023254,472.98156701060384 M866.5284129718327,254.40967035791533 L504.7760998158981,472.98178180267564 M866.5284230217669,254.4094579925607 L504.77610603023254,472.98156701060384 M330.27491241331427,578.4160571151314 L330.2749167120696,578.4158411919639 M504.7760998158981,472.98178180267564 L330.27491241331427,578.4160571151314 M504.77610603023254,472.98156701060384 L330.2749167120696,578.4158411919639 M330.2730639574987,578.4171739591039 L330.2730682562334,578.4169580359247 M330.27491241331427,578.4160571151314 L330.2730639574987,578.4171739591039 M330.2749167120696,578.4158411919639 L330.2730682562334,578.4169580359247 M311.7693289138781,589.597200433061 L311.76933300699386,589.5969843914502 M330.2730639574987,578.4171739591039 L311.7693289138781,589.597200433061 M330.2730682562334,578.4169580359247 L311.76933300699386,589.5969843914502 M-66.52842281583997,370.70050319648783 L-66.52842302176686,370.70028952625086 M311.7693289138781,589.597200433061 L-66.52842281583997,370.70050319648783 M311.76933300699386,589.5969843914502 L-66.52842302176686,370.70028952625086 M-48.01374368802993,360.0110482180872 L-48.013743688009356,360.0108346664898 M-66.52842281583997,370.70050319648783 L-48.01374368802993,360.0110482180872 M-66.52842302176686,370.70028952625086 L-48.013743688009356,360.0108346664898 M-13.547716987955425,379.91001358927946 L-13.54771660418595,379.90979981704027 M-48.01374368802993,360.0110482180872 L-13.547716987955425,379.91001358927946 M-48.013743688009356,360.0108346664898 L-13.54771660418595,379.90979981704027 M-12.709579857872086,380.39605222493003 L-12.709579464750902,380.395838447313 M-13.547716987955425,379.91001358927946 L-13.26875832269036,380.0722592873343 M-13.26875832269036,380.0722592873343 L-12.98937927992398,380.23427217406237 M-12.98937927992398,380.23427217406237 L-12.709579857872086,380.39605222493003 M-13.54771660418595,379.90979981704027 L-13.268757935808537,380.0720455132999 M-13.268757935808537,380.0720455132999 L-12.989378889924922,380.2340583982354 M-12.989378889924922,380.2340583982354 L-12.709579464750902,380.395838447313 M429.45174321078684,317.702444662821 L429.45174849262185,317.70223158338905 M-12.709579857872086,380.39605222493003 L-0.5352456077208672,387.0018875740861 M-0.5352456077208672,387.0018875740861 L12.339215540760563,393.1664542471287 M12.339215540760563,393.1664542471287 L25.863524970398146,398.8641888981569 M25.863524970398146,398.8641888981569 L39.984508722052226,404.071377613824 M39.984508722052226,404.071377613824 L54.64633101775138,408.76628253719 M54.64633101775138,408.76628253719 L69.79069905593303,412.9292346751855 M69.79069905593303,412.9292346751855 L85.35715240293143,416.5427583042774 M85.35715240293143,416.5427583042774 L101.28330509821217,419.59164592377243 M101.28330509821217,419.59164592377243 L117.50512857716114,422.06304314494463 M117.50512857716114,422.06304314494463 L133.95724330819974,423.9465116918472 M133.95724330819974,423.9465116918472 L150.5731676568953,425.2340747361703 M150.5731676568953,425.2340747361703 L167.28572469890014,425.9202927676666 M167.28572469890014,425.9202927676666 L184.02724426069926,426.00225673998284 M184.02724426069926,426.00225673998284 L200.72994848993642,425.4796200834321 M200.72994848993642,425.4796200834321 L217.32617733247127,424.3545869417186 M217.32617733247127,424.3545869417186 L233.74882771235173,422.6319371187841 M233.74882771235173,422.6319371187841 L249.93155075252366,420.31895362882545 M249.93155075252366,420.31895362882545 L265.80908268484586,417.42539959040704 M265.80908268484586,417.42539959040704 L281.31759029619695,413.96349713136755 M281.31759029619695,413.96349713136755 L296.3948597796467,409.9478076502133 M296.3948597796467,409.9478076502133 L310.980689678983,405.3952198890341 M310.980689678983,405.3952198890341 L325.0170815058293,400.32479905570244 M325.0170815058293,400.32479905570244 L338.4484631348213,394.7577445279206 M338.4484631348213,394.7577445279206 L351.2220429910035,388.71724678778867 M351.2220429910035,388.71724678778867 L363.2878675103425,382.22837992812885 M363.2878675103425,382.22837992812885 L374.5991526237217,375.3179604771521 M374.5991526237217,375.3179604771521 L385.112440775722,368.0144876346278 M385.112440775722,368.0144876346278 L394.7876567912043,360.34788756678745 M394.7876567912043,360.34788756678745 L403.58844757813426,352.3494711195436 M403.58844757813426,352.3494711195436 L411.48211161812264,344.0517295717767 M411.48211161812264,344.0517295717767 L418.4398362727728,335.4882301624818 M418.4398362727728,335.4882301624818 L424.436697301093,326.69340031621465 M424.436697301093,326.69340031621465 L429.45174321078684,317.702444662821 M-12.709579464750902,380.395838447313 L-0.5352450786797931,387.0016737234328 M-0.5352450786797931,387.0016737234328 L12.339216213683073,393.1662403284089 M12.339216213683073,393.1662403284089 L25.863525794596,398.8639749166033 M25.863525794596,398.8639749166033 L39.98450970431401,404.07116357491185 M39.98450970431401,404.07116357491185 L54.64633216422658,408.76606844661615 M54.64633216422658,408.76606844661615 L69.79070037209976,412.929020538846 M69.79070037209976,412.929020538846 L85.35715389356835,416.5425441282449 M85.35715389356835,416.5425441282449 L101.28330676737357,419.5914317142727 M101.28330676737357,419.5914317142727 L117.50513042815544,422.06282890833256 M117.50513042815544,422.06282890833256 L133.9572453435719,423.94629743458194 M133.9572453435719,423.94629743458194 L150.57316987841284,425.23386046479106 M150.57316987841284,425.23386046479106 L167.28572710754395,425.9200784887667 M167.28572710754395,425.9200784887667 L184.02724685665783,426.00204246018484 M184.02724685665783,426.00204246018484 L200.72995127260458,425.4794058093617 M200.72995127260458,425.4794058093617 L217.32618030045296,424.35437267997975 M217.32618030045296,424.35437267997975 L233.74883086346802,422.63172287593295 M233.74883086346802,422.63172287593295 L249.9315540838228,420.31873941134535 M249.9315540838228,420.31873941134535 L265.80908619261913,417.42518540468365 M265.80908619261913,417.42518540468365 L281.3175939759983,413.963282983664 M281.3175939759983,413.963282983664 L296.39486362631465,409.94759354664615 M296.39486362631465,409.94759354664615 L310.98069368666825,405.39500583554945 M310.98069368666825,405.39500583554945 L325.01708566802404,400.3245850580535 M325.01708566802404,400.3245850580535 L338.448467444392,394.7575305916447 M338.448467444392,394.7575305916447 L351.2220474402278,388.7170329181863 M351.2220474402278,388.7170329181863 L363.28787209094617,382.228166130243 M363.28787209094617,382.228166130243 L374.59915732692,375.3177467557488 M374.59915732692,375.3177467557488 L385.11244559226327,368.0142739941773 M385.11244559226327,368.0142739941773 L394.7876617114124,360.34767401144757 M394.7876617114124,360.34767401144757 L403.58845259195573,352.3492576531428 M403.58845259195573,352.3492576531428 L411.4821167151731,344.05151619779963 M411.4821167151731,344.05151619779963 L418.43984144238436,335.4880168840556 M418.43984144238436,335.4880168840556 L424.436702532362,326.6931871360969 M424.436702532362,326.6931871360969 L429.45174849262185,317.70223158338905 M428.90980541863337,317.5172371862878 L428.90981069437134,317.51702410893176 M429.45174321078684,317.702444662821 L429.2553458163668,317.65747646490826 M429.2553458163668,317.65747646490826 L429.0731460522271,317.5951967337952 M429.0731460522271,317.5951967337952 L428.90980541863337,317.5172371862878 M429.45174849262185,317.70223158338905 L429.2553510960046,317.65726338598034 M429.2553510960046,317.65726338598034 L429.0731513298149,317.5949836555654 M429.0731513298149,317.5949836555654 L428.90981069437134,317.51702410893176 M430.15617735442345,316.27385119994597 L430.1561826432612,316.27363813652937 M428.90980541863337,317.5172371862878 L428.7091385867333,317.3751853189233 M428.7091385867333,317.3751853189233 L428.5721286280541,317.2106516867236 M428.5721286280541,317.2106516867236 L428.50673508656575,317.0331735726343 M428.50673508656575,317.0331735726343 L428.51675667616416,316.8531024273211 M428.51675667616416,316.8531024273211 L428.60162682363807,316.6808608381531 M428.60162682363807,316.6808608381531 L428.75636505482714,316.5265066428635 M428.75636505482714,316.5265066428635 L428.9720177703182,316.39897443969045 M428.9720177703182,316.39897443969045 L429.23603281251394,316.30568869964145 M429.23603281251394,316.30568869964145 L429.5330508289769,316.25209623519237 M429.5330508289769,316.25209623519237 L429.8458260801174,316.24127125991345 M429.8458260801174,316.24127125991345 L430.15617735442345,316.27385119994597 M428.90981069437134,317.51702410893176 L428.70914386017307,317.3749722431597 M428.70914386017307,317.3749722431597 L428.5721338998877,317.2104386128044 M428.5721338998877,317.2104386128044 L428.5067403575782,317.03296050070463 M428.5067403575782,317.03296050070463 L428.5167619471881,316.8528893574103 M428.5167619471881,316.8528893574103 L428.60163209550615,316.6806477701732 M428.60163209550615,316.6806477701732 L428.7563703283216,316.5262935766142 M428.7563703283216,316.5262935766142 L428.9720230461277,316.39876137487096 M428.9720230461277,316.39876137487096 L429.2360380911922,316.3054756358678 M429.2360380911922,316.3054756358678 L429.5330561109106,316.2518831720197 M429.5330561109106,316.2518831720197 L429.8458313655045,316.2410581968622 M429.8458313655045,316.2410581968622 L430.1561826432612,316.27363813652937 M430.15617735442345,316.27385119994597 L435.16042235774626,307.3024487029222 M435.16042235774626,307.3024487029222 L441.1243689948318,298.55924200230004 M441.1243689948318,298.55924200230004 L448.0227827861188,290.07671947179944 M448.0227827861188,290.07671947179944 L455.82714967324125,281.886225508283 M455.82714967324125,281.886225508283 L464.50574375318797,274.0178197828097 M464.50574375318797,274.0178197828097 L474.0238364954122,266.5002828946341 M474.0238364954122,266.5002828946341 L484.34375017239915,259.36094734921124 M484.34375017239915,259.36094734921124 L495.4251204319555,252.6256500346704 M495.4251204319555,252.6256500346704 L507.22499675768495,246.31866129548797 M507.22499675768495,246.31866129548797 L519.6979917779926,240.46261424252936 M519.6979917779926,240.46261424252936 L532.7965761549075,235.0784259120063 M532.7965761549075,235.0784259120063 L546.471021380398,230.18527329781244 M546.471021380398,230.18527329781244 L560.6698891845814,225.800504619513 M560.6698891845814,225.800504619513 L575.339907552687,221.9396441243997 M575.339907552687,221.9396441243997 L590.4262947836273,218.6163075850779 M590.4262947836273,218.6163075850779 L605.8729992087838,215.84219458692917 M605.8729992087838,215.84219458692917 L621.6227361406159,213.62703050958405 M621.6227361406159,213.62703050958405 L637.6173050177606,211.97860024526045 M637.6173050177606,211.97860024526045 L653.7976739259284,210.90268368877003 M653.7976739259284,210.90268368877003 L670.1042708560974,210.40301143034523 M670.1042708560974,210.40301143034523 L686.4770212985209,210.48138248410504 M686.4770212985209,210.48138248410504 L702.8557906169237,211.1374544763319 M702.8557906169237,211.1374544763319 L719.1802363531442,212.36899575876112 M719.1802363531442,212.36899575876112 L735.3901677359163,214.17168363873162 M735.3901677359163,214.17168363873162 L751.4259255255643,216.5391513556516 M751.4259255255643,216.5391513556516 L767.2281517041588,219.4631816326496 M767.2281517041588,219.4631816326496 L782.7384669315272,222.93342246580312 M782.7384669315272,222.93342246580312 L797.8991164152274,226.93768453011438 M797.8991164152274,226.93768453011438 L812.6535596599429,231.46184031985013 M812.6535596599429,231.46184031985013 L826.9466893966792,236.48987864867183 M826.9466893966792,236.48987864867183 L840.7246336813555,242.00390916841997 M840.7246336813555,242.00390916841997 L853.9352730967107,247.98430784282402 M853.9352730967107,247.98430784282402 L866.5284129718327,254.40967035791533 M430.1561826432612,316.27363813652937 L435.1604276969217,307.3022357401883 M435.1604276969217,307.3022357401883 L441.1243743949651,298.559029137867 M441.1243743949651,298.559029137867 L448.02278825754604,290.0765067029052 M448.02278825754604,290.0765067029052 L455.8271552259812,281.88601283179645 M455.8271552259812,281.88601283179645 L464.50574939691,274.01760719524293 M464.50574939691,274.01760719524293 L474.0238422394069,266.5000703921558 M474.0238422394069,266.5000703921558 L484.3437560255493,259.36073492766167 M484.3437560255493,259.36073492766167 L495.4251264027105,252.62543768957755 M495.4251264027105,252.62543768957755 L507.22500285403544,246.31844902208502 M507.22500285403544,246.31844902208502 L519.6979980074486,240.46240203577275 M519.6979980074486,240.46240203577275 L532.7965825244765,235.07821376659604 M532.7965825244765,235.07821376659604 L546.471027896567,230.1850612082119 M546.471027896567,230.1850612082119 L560.6698958532986,225.8002925799707 M560.6698958532986,225.8002925799707 L575.3399143793449,221.93943212897136 M575.3399143793449,221.93943212897136 L590.42630177305,218.61609562764932 M590.42630177305,218.61609562764932 L605.873006365214,215.84198266124008 M605.873006365214,215.84198266124008 L621.6227434677028,213.62681860925198 M621.6227434677028,213.62681860925198 L637.6173125185508,211.9783883638055 M637.6173125185508,211.9783883638055 L653.7976816028583,210.90247181963935 M653.7976816028583,210.90247181963935 L670.104278710985,210.40279956693905 M670.104278710985,210.40279956693905 L686.4770293325626,210.48117061980096 M686.4770293325626,210.48117061980096 L702.8557988306898,211.13724260451173 M702.8557988306898,211.13724260451173 L719.1802447465752,212.368783872835 M719.1802447465752,212.368783872835 L735.3901763083234,214.17147173216387 M735.3901763083234,214.17147173216387 L751.4259342756309,216.53893942198675 M751.4259342756309,216.53893942198675 L767.2281606299402,219.46296966553524 M767.2281606299402,219.46296966553524 L782.7384760304585,222.9332104590166 M782.7384760304585,222.9332104590166 L797.8991256841239,226.93747247758523 M797.8991256841239,226.93747247758523 L812.6535690950093,231.46162821568407 M812.6535690950093,231.46162821568407 L826.9466989935204,236.48966648717322 M826.9466989935204,236.48966648717322 L840.7246434349836,242.00369694411455 M840.7246434349836,242.00369694411455 L853.935283001558,247.98409555047908 M853.935283001558,247.98409555047908 L866.5284230217669,254.4094579925607" stroke="black"  stroke-width="4"  fill="red"/></svg>