<svg viewBox="0 0 800 800" xmlns="http://www.w3.org/2000/svg"><path d="M-265.90237496035115,37.14569194149561 L-283.52390456793887,46.31100568057542 M-283.52390418118057,42.291695112993295 L-283.52390456793887,46.31100568057542 M-283.52390418118057,42.291695112993295 L-283.52400343451745,42.25652303945884 M-283.52400343451745,42.25652303945884 L-283.5240629882542,42.22132908250734 M-283.5240629882542,42.22132908250734 L-283.524082840015,42.186119866397746 M-265.8635931606036,33.048197039612944 L-283.524082840015,42.186119866397746 M-265.90237496035115,37.14569194149561 L-265.8635931606036,33.048197039612944 M1053.0295404108883,741.4793065003751 L1041.1483270727003,735.2996487253606 M1032.783244042163,796.1519114310132 L1041.1483270727003,735.2996487253606 M1032.783244042163,796.1519114310132 L432.18236041840464,470.0024118279209 M429.4043857264728,474.1670682210496 L432.18236041840464,470.0024118279209 M280.6728953666152,393.0237003530448 L429.4043857264728,474.1670682210496 M283.7401288747028,389.39254118331917 L280.6728953666152,393.0237003530448 M283.7401288747028,389.39254118331917 L-158.90924443468964,149.01681823496608 M-162.44026830054293,151.2746641563093 L-158.90924443468964,149.01681823496608 M-244.4382110042261,106.53908587946904 L-162.44026830054293,151.2746641563093 M-240.8867741464478,104.4998502730329 L-244.4382110042261,106.53908587946904 M-240.8867741464478,104.4998502730329 L-313.07558131874816,65.29853709125098 M-280.1202599704211,48.08130962191041 L-313.07558131874816,65.29853709125098 M-280.1202599704211,48.08130962191041 L-283.52390456793887,46.31100568057542 M1057.1392219940863,709.6022516126397 L-265.90237496035115,37.14569194149561 M1053.0295404108883,741.4793065003751 L1057.1392219940863,709.6022516126397 M-272.78610152112856,42.48392641429598 L-272.83397525179953,42.46461833791557 M-272.83397525179953,42.46461833791557 L-272.8893037110929,42.45176995844179 M-272.8893037110929,42.45176995844179 L-272.94887131804603,42.446126828659544 M-272.94887131804603,42.446126828659544 L-273.009218746389,42.448017028665845 M-273.009218746389,42.448017028665845 L-273.066839682515,42.457330587990896 M-273.066839682515,42.457330587990896 L-273.1183876688947,42.47352698646915 M-273.1183876688947,42.47352698646915 L-273.1608669956154,42.49566539924689 M-273.1608669956154,42.49566539924689 L-273.19180939254,42.52246034736561 M-273.19180939254,42.52246034736561 L-273.20941519103394,42.552355013116596 M-273.20941519103394,42.552355013116596 L-273.2126602989299,42.583612981206386 M-273.2126602989299,42.583612981206386 L-273.20135402059896,42.614417335856274 M-273.20135402059896,42.614417335856274 L-273.1761526905825,42.642978024178774 M-273.1761526905825,42.642978024178774 L-273.13851885989266,42.66763391557805 M-273.13851885989266,42.66763391557805 L-273.090640108682,42.68695198891106 M-273.090640108682,42.68695198891106 L-273.035298474044,42.69980800748999 M-273.035298474044,42.69980800748999 L-272.97571238531214,42.70545475640478 M-272.97571238531214,42.70545475640478 L-272.9153454023549,42.70356332620315 M-272.9153454023549,42.70356332620315 L-272.85770831876516,42.6942439693164 M-272.85770831876516,42.6942439693164 L-272.8061512910771,42.678038533920585 M-272.8061512910771,42.678038533920585 L-272.7636721005672,42.65588991529353 M-272.7636721005672,42.65588991529353 L-272.7327389861696,42.629085930318126 M-272.7327389861696,42.629085930318126 L-272.71514948989113,42.59918546702818 M-272.71514948989113,42.59918546702818 L-272.7119239694457,42.56792626877177 M-272.7119239694457,42.56792626877177 L-272.72324863295216,42.537125533159326 M-272.72324863295216,42.537125533159326 L-272.7484629344035,42.50857248407192 M-272.7484629344035,42.50857248407192 L-272.78610152112856,42.48392641429598 M1049.2559253973286,722.0215774385651 L1049.1068620373849,721.9548080753234 M1049.1068620373849,721.9548080753234 L1048.9641632761081,721.9104389157704 M1048.9641632761081,721.9104389157704 L1048.8358675034913,721.8909152521804 M1048.8358675034913,721.8909152521804 L1048.7296872349975,721.897506987163 M1048.7296872349975,721.897506987163 L1048.6514857074606,721.9296750659905 M1048.6514857074606,721.9296750659905 L1048.6058545416547,721.9855795421712 M1048.6058545416547,721.9855795421712 L1048.595632377004,722.0620702183631 M1048.595632377004,722.0620702183631 L1048.6214182597425,722.1547082270947 M1048.6214182597425,722.1547082270947 L1048.6815361724168,722.2580185491063 M1048.6815361724168,722.2580185491063 L1048.7724508495996,722.3659764078694 M1048.7724508495996,722.3659764078694 L1048.8891878468824,722.4724628681797 M1048.8891878468824,722.4724628681797 L1049.024702306044,722.5711532034746 M1049.024702306044,722.5711532034746 L1049.1713663825597,722.6564329840131 M1049.1713663825597,722.6564329840131 L1049.32035300606,722.7231885316872 M1049.32035300606,722.7231885316872 L1049.4631413808438,722.7676067448422 M1049.4631413808438,722.7676067448422 L1049.5915219655146,722.7871536921638 M1049.5915219655146,722.7871536921638 L1049.6979134057376,722.780631523395 M1049.6979134057376,722.780631523395 L1049.7759864711063,722.7483486691814 M1049.7759864711063,722.7483486691814 L1049.8215968010627,722.692386192969 M1049.8215968010627,722.692386192969 L1049.8317595632084,722.6158299460232 M1049.8317595632084,722.6158299460232 L1049.8058893478546,722.5231338483529 M1049.8058893478546,722.5231338483529 L1049.7458323969202,722.419863792178 M1049.7458323969202,722.419863792178 L1049.6546922011285,722.3118205305526 M1049.6546922011285,722.3118205305526 L1049.5379125496677,722.2053573219815 M1049.5379125496677,722.2053573219815 L1049.4023973639717,722.1067160499256 M1049.4023973639717,722.1067160499256 L1049.2559253973286,722.0215774385651 M-280.1128589559478,44.056879733978064 L-283.52390418118057,42.291695112993295 M-280.1128589559478,44.056879733978064 L-280.1202599704211,48.08130962191041 M-280.1128430503902,43.9511697889709 L-280.1128880475658,43.98642399539153 M-280.1128880475658,43.98642399539153 L-280.11289335269134,44.02166285463693 M-280.11289335269134,44.02166285463693 L-280.1128589559478,44.056879733978064 M-283.524082840015,42.186119866397746 L-280.1128430503902,43.9511697889709 M1046.6641279232147,730.4545334667224 L1058.6180868193899,736.6397727126732 M1058.6180868193899,736.6397727126732 L1062.6245943723568,704.7359146172831 M1062.6245943723568,704.7359146172831 L-265.8635931606036,33.048197039612944 M-280.1128430503902,43.9511697889709 L-313.1429531536928,61.118114802636114 M-313.1429531536928,61.118114802636114 L-240.7848771638977,100.21132935256304 M-240.7848771638977,100.21132935256304 L-244.34457767030858,102.24517660779634 M-244.34457767030858,102.24517660779634 L-162.13499296320254,146.8683942015498 M-162.13499296320254,146.8683942015498 L-158.59585682470117,144.61595125298032 M-158.59585682470117,144.61595125298032 L285.54988143440664,384.57651404693536 M285.54988143440664,384.57651404693536 L282.478623328563,388.20388100176626 M282.478623328563,388.20388100176626 L431.8488423169051,469.2817724385204 M431.8488423169051,469.2817724385204 L434.62795664622604,465.1195785110558 M434.62795664622604,465.1195785110558 L1038.4899697606177,791.3707524720807 M1046.6641279232147,730.4545334667224 L1038.4899697606177,791.3707524720807 M-272.49752170734064,38.233054886890216 L-272.40320735086914,38.29446748936516 M-272.40320735086914,38.29446748936516 L-272.34000475189737,38.365621678878824 M-272.34000475189737,38.365621678878824 L-272.3115936535444,38.44238641163605 M-272.3115936535444,38.44238641163605 L-272.31963598111906,38.52030244311692 M-272.31963598111906,38.52030244311692 L-272.36367436065984,38.594840947069315 M-272.36367436065984,38.594840947069315 L-272.4411582522923,38.66166694628913 M-272.4411582522923,38.66166694628913 L-272.5475896607818,38.71689187703453 M-272.5475896607818,38.71689187703453 L-272.6767831270861,38.75730074710975 M-272.6767831270861,38.75730074710975 L-272.82122543794276,38.78054036057654 M-272.82122543794276,38.78054036057654 L-272.97251350317833,38.78525704569125 M-272.97251350317833,38.78525704569125 L-273.12184455566864,38.771175772693425 M-273.12184455566864,38.771175772693425 L-273.260530293295,38.7391172999146 M-273.260530293295,38.7391172999146 L-273.38050392745845,38.69094866994527 M-273.38050392745845,38.69094866994527 L-273.47478932635613,38.62947427028479 M-273.47478932635613,38.62947427028479 L-273.5379106671062,38.55827228603766 M-273.5379106671062,38.55827228603766 L-273.5662061779242,38.48148503943537 M-273.5662061779242,38.48148503943537 L-273.5580409713152,38.403576646859335 M-273.5580409713152,38.403576646859335 L-273.5139002495479,38.32907434931025 M-273.5139002495479,38.32907434931025 L-273.43635808320323,38.2623047859492 M-273.43635808320323,38.2623047859492 L-273.3299258177153,38.207143591743545 M-273.3299258177153,38.207143591743545 L-273.2007891084619,38.16679115752504 M-273.2007891084619,38.16679115752504 L-273.0564481661909,38.143587750502036 M-273.0564481661909,38.143587750502036 L-272.90528277341275,38.13887879163292 M-272.90528277341275,38.13887879163292 L-272.75606791625887,38.1529373757528 M-272.75606791625887,38.1529373757528 L-272.61746471977995,38.184948228437406 M-272.61746471977995,38.184948228437406 L-272.49752170734064,38.233054886890216 M1054.8175185389875,716.688710006918 L1055.1859299268226,716.9016111760965 M1055.1859299268226,716.9016111760965 L1055.527119057961,717.1483596432414 M1055.527119057961,717.1483596432414 L1055.8212772161837,717.4146518543599 M1055.8212772161837,717.4146518543599 L1056.0511483702323,717.6849550427721 M1056.0511483702323,717.6849550427721 L1056.2033536981517,717.943566135935 M1056.2033536981517,717.943566135935 L1056.2690991882928,718.1754868994576 M1056.2690991882928,718.1754868994576 L1056.244419245763,718.3671570613536 M1056.244419245763,718.3671570613536 L1056.1307159956596,718.5074019574519 M1056.1307159956596,718.5074019574519 L1055.9346851946354,718.5880905666793 M1055.9346851946354,718.5880905666793 L1055.6676312514942,718.6044623896053 M1055.6676312514942,718.6044623896053 L1055.3450863203213,718.5555506961636 M1055.3450863203213,718.5555506961636 L1054.9859789568864,718.4442820656817 M1054.9859789568864,718.4442820656817 L1054.6112074699838,718.2771390026606 M1054.6112074699838,718.2771390026606 L1054.2423822602875,718.0637604443854 M1054.2423822602875,718.0637604443854 L1053.901196493931,717.8167037438768 M1053.901196493931,717.8167037438768 L1053.6073065096782,717.5502654844004 M1053.6073065096782,717.5502654844004 L1053.377906876883,717.2800119416263 M1053.377906876883,717.2800119416263 L1053.2262683466893,717.0216347679597 M1053.2262683466893,717.0216347679597 L1053.1610552415145,716.7900786705289 M1053.1610552415145,716.7900786705289 L1053.1861110383632,716.5988203215503 M1053.1861110383632,716.5988203215503 L1053.2999474842047,716.4589400173473 M1053.2999474842047,716.4589400173473 L1053.4958385314762,716.3784853888415 M1053.4958385314762,716.3784853888415 L1053.7625115628362,716.362163198798 M1053.7625115628362,716.362163198798 L1054.0845216633531,716.4109287725357 M1054.0845216633531,716.4109287725357 L1054.4430630547874,716.5218892033748 M1054.4430630547874,716.5218892033748 L1054.8175185389875,716.688710006918 M1057.1392219940863,709.6022516126397 L1062.6245943723568,704.7359146172831 M1058.4746953962,736.7636627766414 L1046.5226083025752,730.5785673196035 M1058.4746953962,736.7636627766414 L1053.0295404108883,741.4793065003751 M1046.5226083025752,730.5785673196035 L1041.1483270727003,735.2996487253606 M1046.5226083025752,730.5785673196035 L1046.5697714674238,730.5372948939229 M1046.5697714674238,730.5372948939229 L1046.6169476338016,730.4959476788154 M1046.6169476338016,730.4959476788154 L1046.6641279232147,730.4545334667224 M1032.783244042163,796.1519114310132 L1038.4899697606177,791.3707524720807 M432.18236041840464,470.0024118279209 L434.62795664622604,465.1195785110558 M429.4043857264728,474.1670682210496 L431.8488423169051,469.2817724385204 M280.6728953666152,393.0237003530448 L282.478623328563,388.20388100176626 M283.7401288747028,389.39254118331917 L285.54988143440664,384.57651404693536 M-158.90924443468964,149.01681823496608 L-158.59585682470117,144.61595125298032 M-162.44026830054293,151.2746641563093 L-162.13499296320254,146.8683942015498 M-244.4382110042261,106.53908587946904 L-244.34457767030858,102.24517660779634 M-240.8867741464478,104.4998502730329 L-240.7848771638977,100.21132935256304 M-313.07558131874816,65.29853709125098 L-313.1429531536928,61.118114802636114 M1058.6180868193899,736.6397727126732 L1058.5702831580281,736.6811396119947 M1058.5702831580281,736.6811396119947 L1058.5224830183524,736.7224388944906 M1058.5224830183524,736.7224388944906 L1058.4746953962,736.7636627766414 M-272.78610152112856,42.48392641429598 L-272.7648114406709,38.80309338456868 M-272.7648114406709,38.80309338456868 L-272.7270975615486,38.82767344562677 M-272.7270975615486,38.82767344562677 L-272.70183249212994,38.856150025864395 M-272.70183249212994,38.856150025864395 L-272.69048453771325,38.88686827759307 M-272.69048453771325,38.88686827759307 L-272.69371560574257,38.918043769058045 M-272.69371560574257,38.918043769058045 L-272.7113391715088,38.94786416858642 M-272.7113391715088,38.94786416858642 L-272.7423329038022,38.97459638496514 M-272.7423329038022,38.97459638496514 L-272.7848957396866,38.996685702609284 M-272.7848957396866,38.996685702609284 L-272.8365545800898,39.01284775092711 M-272.8365545800898,39.01284775092711 L-272.8943057223204,39.02214215754117 M-272.8943057223204,39.02214215754117 L-272.9547923774444,39.024028523959316 M-272.9547923774444,39.024028523959316 L-273.01449678871745,39.01839689271276 M-273.01449678871745,39.01839689271276 L-273.06994851537934,39.00557529329802 M-273.06994851537934,39.00557529329802 L-273.1179227233954,38.98630894141394 M-273.1179227233954,38.98630894141394 L-273.15563182820165,38.96171906543708 M-273.15563182820165,38.96171906543708 L-273.18088387489456,38.933234851313784 M-273.18088387489456,38.933234851313784 L-273.192213371247,38.90251298308186 M-273.192213371247,38.90251298308186 L-273.18896263797683,38.871338720922154 M-273.18896263797683,38.871338720922154 L-273.171322705125,38.84152411487287 M-273.171322705125,38.84152411487287 L-273.1403196532149,38.81480092902274 M-273.1403196532149,38.81480092902274 L-273.09775668030784,38.79272181008116 M-273.09775668030784,38.79272181008116 L-273.0461069168649,38.77656879235269 M-273.0461069168649,38.77656879235269 L-272.98837198604565,38.76728017924063 M-272.98837198604565,38.76728017924063 L-272.92790496313046,38.76539504215634 M-272.92790496313046,38.76539504215634 L-272.8682191071009,38.771023056804665 M-272.8682191071009,38.771023056804665 L-272.8127806082898,38.78383702246356 M-272.8127806082898,38.78383702246356 L-272.7648114406709,38.80309338456868 M1049.2559253973286,722.0215774385651 L1054.1761389508476,717.6766498727682 M1054.1761389508476,717.6766498727682 L1054.323437539063,717.7618503708833 M1054.323437539063,717.7618503708833 L1054.459784301574,717.8605633902326 M1054.459784301574,717.8605633902326 L1054.5773526889736,717.9671040902758 M1054.5773526889736,717.9671040902758 L1054.669192312068,718.075226051661 M1054.669192312068,718.075226051661 L1054.7298179175673,718.1785713855603 M1054.7298179175673,718.1785713855603 L1054.7560950414393,718.2713350987959 M1054.7560950414393,718.2713350987959 L1054.746151900809,718.3479472209189 M1054.746151900809,718.3479472209189 L1054.7005610875904,718.4039505604107 M1054.7005610875904,718.4039505604107 L1054.6223080865386,718.43625699442 M1054.6223080865386,718.43625699442 L1054.5155455827955,718.4427839276968 M1054.5155455827955,718.4427839276968 L1054.3866251678007,718.4232227017777 M1054.3866251678007,718.4232227017777 L1054.243160247961,718.3787720492714 M1054.243160247961,718.3787720492714 L1054.0933992239754,718.3119677675647 M1054.0933992239754,718.3119677675647 L1053.945907188422,718.2266257621815 M1053.945907188422,718.2266257621815 L1053.809560992483,718.127863462564 M1053.809560992483,718.127863462564 L1053.6920354964882,718.0212994079288 M1053.6920354964882,718.0212994079288 L1053.6004227887195,717.9132629408158 M1053.6004227887195,717.9132629408158 L1053.5397361943642,717.8098774493317 M1053.5397361943642,717.8098774493317 L1053.5135442228043,717.7171720819886 M1053.5135442228043,717.7171720819886 L1053.523547426402,717.6406258206688 M1053.523547426402,717.6406258206688 L1053.5691594250811,717.584680737769 M1053.5691594250811,717.584680737769 L1053.6475416659168,717.5524893004846 M1053.6475416659168,717.5524893004846 L1053.7540917607273,717.5458927796357 M1053.7540917607273,717.5458927796357 L1053.882926657713,717.5654306188289 M1053.882926657713,717.5654306188289 L1054.0263011357251,717.6098320007467 M1054.0263011357251,717.6098320007467 L1054.1761389508476,717.6766498727682 M-272.49752170734064,38.233054886890216 L-272.5000857480959,38.665737634273285 M-272.5000857480959,38.665737634273285 L-272.4057935245777,38.727169710298426 M-272.4057935245777,38.727169710298426 L-272.342605858521,38.79834645957055 M-272.342605858521,38.79834645957055 L-272.31420162205245,38.87513552757832 M-272.31420162205245,38.87513552757832 L-272.32224233690056,38.95307625572178 M-272.32224233690056,38.95307625572178 L-272.3662707180524,39.02763838241992 M-272.3662707180524,39.02763838241992 L-272.4437368026074,39.094485557346104 M-272.4437368026074,39.094485557346104 L-272.55014362785255,39.149727985679306 M-272.55014362785255,39.149727985679306 L-272.67930716340925,39.19014965784726 M-272.67930716340925,39.19014965784726 L-272.82371593774826,39.213396633509944 M-272.82371593774826,39.213396633509944 L-272.97496881373115,39.218114812808494 M-272.97496881373115,39.218114812808494 L-273.12426507417854,39.20402907900956 M-273.12426507417854,39.20402907900956 L-273.26291844353796,39.1719604500023 M-273.26291844353796,39.1719604500023 L-273.38286401759365,39.12377655891214 M-273.38286401759365,39.12377655891214 L-273.4771272967746,39.06228268051217 M-273.4771272967746,39.06228268051217 L-273.5402337422969,38.99105813245711 M-273.5402337422969,38.99105813245711 L-273.56852244488573,38.914246548726624 M-273.56852244488573,38.914246548726624 L-273.5603589082041,38.836313460121744 M-273.5603589082041,38.836313460121744 L-273.51622823254297,38.76178754287923 M-273.51622823254297,38.76178754287923 L-273.4387039005587,38.6949968085695 M-273.4387039005587,38.6949968085695 L-273.3322962189129,38.639818122148995 M-273.3322962189129,38.639818122148995 L-273.20318941418304,38.5994528905955 M-273.20318941418304,38.5994528905955 L-273.05888196139153,38.576242124428916 M-273.05888196139153,38.576242124428916 L-272.9077517008095,38.57153167203745 M-272.9077517008095,38.57153167203745 L-272.75857158161944,38.585594715025366 M-272.75857158161944,38.585594715025366 L-272.6200007148251,38.617615719944354 M-272.6200007148251,38.617615719944354 L-272.5000857480959,38.665737634273285 M1054.8175185389875,716.688710006918 L1054.2381467345376,717.2005224297075 M1054.2381467345376,717.2005224297075 L1054.606314479499,717.4134057427656 M1054.606314479499,717.4134057427656 L1054.947258326744,717.6601334815001 M1054.947258326744,717.6601334815001 L1055.2411837920154,717.9264032820585 M1055.2411837920154,717.9264032820585 L1055.4708484692267,718.1966836795131 M1055.4708484692267,718.1966836795131 L1055.6228855596441,718.4552729271497 M1055.6228855596441,718.4552729271497 L1055.6885108152012,718.6871740661421 M1055.6885108152012,718.6871740661421 L1055.6637657434148,718.8788279854272 M1055.6637657434148,718.8788279854272 L1055.5500562963953,719.0190609830709 M1055.5500562963953,719.0190609830709 L1055.3540785501486,719.099742741367 M1055.3540785501486,719.099742741367 L1055.087133891324,719.1161131737606 M1055.087133891324,719.1161131737606 L1054.764748109522,719.0672056341378 M1054.764748109522,719.0672056341378 L1054.4058403787787,718.9559464478654 M1054.4058403787787,718.9559464478654 L1054.0312973664247,718.7888175577933 M1054.0312973664247,718.7888175577933 L1053.6627162809207,718.5754570690377 M1053.6627162809207,718.5754570690377 L1053.3217759172871,718.3284212564123 M1053.3217759172871,718.3284212564123 L1053.0281184514095,718.0620054830581 M1053.0281184514095,718.0620054830581 L1052.7989248674646,717.7917747055562 M1052.7989248674646,717.7917747055562 L1052.6474539914848,717.5334192563909 M1052.6474539914848,717.5334192563909 L1052.5823605157686,717.3018825948205 M1052.5823605157686,717.3018825948205 L1052.6074809536954,717.1106402753902 M1052.6074809536954,717.1106402753902 L1052.7213233370896,716.9707716810095 M1052.7213233370896,716.9707716810095 L1052.9171613582062,716.8903237823789 M1052.9171613582062,716.8903237823789 L1053.183725415548,716.8740029571888 M1053.183725415548,716.8740029571888 L1053.505576887618,716.9227644527067 M1053.505576887618,716.9227644527067 L1053.8639192582732,717.0337155987924 M1053.8639192582732,717.0337155987924 L1054.2381467345376,717.2005224297075" stroke="black"  stroke-width="4"  fill="red"/>
<path d="M1053.0295404108883,741.4793065003751 L1044.246432024253,809.6061485580198 M1053.0295404108883,741.4793065003751 L1041.1483270727003,735.2996487253606 M1031.8625080021452,802.8498570682754 L1041.1483270727003,735.2996487253606 M1044.246432024253,809.6061485580198 L1031.8625080021452,802.8498570682754 M1058.4746953962,736.7636627766414 L1053.0295404108883,741.4793065003751 M1089.3737384256592,695.4441358805849 L1087.9661432421333,698.2157707308038 M1087.9661432421333,698.2157707308038 L1086.4775131693198,700.9911075758077 M1086.4775131693198,700.9911075758077 L1084.9130089857492,703.7604435728782 M1084.9130089857492,703.7604435728782 L1083.2780996433048,706.5140814652729 M1083.2780996433048,706.5140814652729 L1081.5785330413348,709.2423764550515 M1081.5785330413348,709.2423764550515 L1079.8202870862926,711.9358025991386 M1079.8202870862926,711.9358025991386 L1078.0095487120295,714.5849870323873 M1078.0095487120295,714.5849870323873 L1076.1527101181778,717.1807328366522 M1076.1527101181778,717.1807328366522 L1074.2563100685227,719.7140823670378 M1074.2563100685227,719.7140823670378 L1072.3270207305436,722.1763426977994 M1072.3270207305436,722.1763426977994 L1070.3716253613018,724.5591160671784 M1070.3716253613018,724.5591160671784 L1068.396950943946,726.8543644210487 M1068.396950943946,726.8543644210487 L1066.4098741182909,729.0544112287189 M1066.4098741182909,729.0544112287189 L1064.4172911203666,731.151970950111 M1064.4172911203666,731.151970950111 L1062.4260343109559,733.1402220883383 M1062.4260343109559,733.1402220883383 L1060.442934720888,735.0127518875909 M1060.442934720888,735.0127518875909 L1058.4746953962,736.7636627766414 M1089.5784714724061,695.0284260974136 L1089.5482131111376,695.0382677427353 M1089.5482131111376,695.0382677427353 L1089.5137539089615,695.0596259609526 M1089.5137539089615,695.0596259609526 L1089.477132185893,695.0912290866145 M1089.477132185893,695.0912290866145 L1089.4404254496224,695.1312813803132 M1089.4404254496224,695.1312813803132 L1089.4058238396515,695.177407672993 M1089.4058238396515,695.177407672993 L1089.3752939344256,695.2269648207576 M1089.3752939344256,695.2269648207576 L1089.350609219044,695.2770735588025 M1089.350609219044,695.2770735588025 L1089.3332294876307,695.3248026019876 M1089.3332294876307,695.3248026019876 L1089.3241418131001,695.3673963092201 M1089.3241418131001,695.3673963092201 L1089.323901944964,695.4023586680344 M1089.323901944964,695.4023586680344 L1089.3324913512124,695.4276856782004 M1089.3324913512124,695.4276856782004 L1089.3494325631978,695.441885747804 M1089.3494325631978,695.441885747804 L1089.3737384256592,695.4441358805849 M1120.9803317480907,652.9657403976183 L1118.894109962905,654.870012497273 M1118.894109962905,654.870012497273 L1116.809783971952,656.879120071798 M1116.809783971952,656.879120071798 L1114.733232797882,658.9869587273923 M1114.733232797882,658.9869587273923 L1112.6703462307294,661.1871507779077 M1112.6703462307294,661.1871507779077 L1110.6269186407285,663.4731503445054 M1110.6269186407285,663.4731503445054 L1108.6086219819254,665.838261780757 M1108.6086219819254,665.838261780757 L1106.6210521307023,668.2756184583986 M1106.6210521307023,668.2756184583986 L1104.6697016792532,670.7782037545561 M1104.6697016792532,670.7782037545561 L1102.759950094858,673.3388731691375 M1102.759950094858,673.3388731691375 L1100.897035862235,675.9503847318498 M1100.897035862235,675.9503847318498 L1099.0860662021657,678.605395137902 M1099.0860662021657,678.605395137902 L1097.33200773811,681.2964717563518 M1097.33200773811,681.2964717563518 L1095.6396756493052,684.0161159900629 M1095.6396756493052,684.0161159900629 L1094.0137423059657,686.7567575803508 M1094.0137423059657,686.7567575803508 L1092.4587258206157,689.5107734922614 M1092.4587258206157,689.5107734922614 L1090.9789046977767,692.2705620460007 M1090.9789046977767,692.2705620460007 L1089.5784714724061,695.0284260974136 M1112.6370098424065,747.1467699500114 L1120.9803317480907,652.9657403976183 M1078.040686321737,775.6884721021798 L1112.6370098424065,747.1467699500114 M1077.2948928627486,782.4917001602288 L1078.040686321737,775.6884721021798 M1044.246432024253,809.6061485580198 L1077.2948928627486,782.4917001602288 M1058.4746953962,736.7636627766414 L1046.5226083025752,730.5785673196035 M1046.5226083025752,730.5785673196035 L1041.1483270727003,735.2996487253606 M1031.8625080021452,802.8498570682754 L1064.4572707442132,775.6884558269361 M1065.2565486143028,768.9454118126508 L1064.4572707442132,775.6884558269361 M1065.2565486143028,768.9454118126508 L1099.372613062735,740.3625895028877 M1108.5120192486802,647.0072047937422 L1099.372613062735,740.3625895028877 M1108.5120192486802,647.0072047937422 L1106.4525347830734,648.9119395741242 M1106.4525347830734,648.9119395741242 L1104.3937832630681,650.9205466945749 M1104.3937832630681,650.9205466945749 L1102.3415786465262,653.0269265788202 M1102.3415786465262,653.0269265788202 L1100.3017485027462,655.2247083037721 M1100.3017485027462,655.2247083037721 L1098.2800290615519,657.5073546677364 M1098.2800290615519,657.5073546677364 L1096.2820385855468,659.8681807063 M1096.2820385855468,659.8681807063 L1094.3133228560473,662.3003323003659 M1094.3133228560473,662.3003323003659 L1092.3793283135365,664.796807239535 M1092.3793283135365,664.796807239535 L1090.4853921646993,667.3504772579748 M1090.4853921646993,667.3504772579748 L1088.6367147869596,669.9541184448361 M1088.6367147869596,669.9541184448361 L1086.8383692309396,672.6004073748837 M1086.8383692309396,672.6004073748837 L1085.0952919305353,675.281933134064 M1085.0952919305353,675.281933134064 L1083.4122718164067,677.9912206068013 M1083.4122718164067,677.9912206068013 L1081.7939587828175,680.7207248077035 M1081.7939587828175,680.7207248077035 L1080.2448522629954,683.462849743692 M1080.2448522629954,683.462849743692 L1078.769216969152,686.2100226649623 M1078.769216969152,686.2100226649623 L1077.37123430831,688.9545770242419 M1077.1667300999197,689.3682232117757 L1077.1429855239564,689.3662110249853 M1077.1429855239564,689.3662110249853 L1077.126566267521,689.3522950181649 M1077.126566267521,689.3522950181649 L1077.118429121642,689.327281671913 M1077.118429121642,689.327281671913 L1077.119025552224,689.2926443555547 M1077.119025552224,689.2926443555547 L1077.1283529421823,689.2503681495335 M1077.1283529421823,689.2503681495335 L1077.145842009786,689.2029306696143 M1077.145842009786,689.2029306696143 L1077.170499007376,689.1530705817662 M1077.170499007376,689.1530705817662 L1077.2008661092332,689.1037047716507 M1077.2008661092332,689.1037047716507 L1077.2351792789411,689.0577013901443 M1077.2351792789411,689.0577013901443 L1077.2714881042627,689.0176963979663 M1077.2714881042627,689.0176963979663 L1077.307626334704,688.9860622803848 M1077.307626334704,688.9860622803848 L1077.3415438577917,688.9645965068762 M1077.3415438577917,688.9645965068762 L1077.37123430831,688.9545770242419 M1046.5226083025752,730.5785673196035 L1048.465659635998,728.8261688945295 M1048.465659635998,728.8261688945295 L1050.4244693567057,726.9531870633302 M1050.4244693567057,726.9531870633302 L1052.392422813908,724.9655249976228 M1052.392422813908,724.9655249976228 L1054.3627752172756,722.8695968141318 M1054.3627752172756,722.8695968141318 L1056.3287765696987,720.6722209820829 M1056.3287765696987,720.6722209820829 L1058.2836098887508,718.3806756854856 M1058.2836098887508,718.3806756854856 L1060.220473551704,716.0026257190191 M1060.220473551704,716.0026257190191 L1062.1326109507304,713.5460930547764 M1062.1326109507304,713.5460930547764 L1064.0133046629,711.0194551340061 M1064.0133046629,711.0194551340061 L1065.8559429436518,708.4313803652591 M1065.8559429436518,708.4313803652591 L1067.6540418103766,705.7907978164295 M1067.6540418103766,705.7907978164295 L1069.4012581229583,703.1068719471615 M1069.4012581229583,703.1068719471615 L1071.0914475914985,700.3889394120972 M1071.0914475914985,700.3889394120972 L1072.7186686407958,697.6464864407507 M1072.7186686407958,697.6464864407507 L1074.2772032326343,694.8891148176208 M1074.2772032326343,694.8891148176208 L1075.7616053659137,692.1264757429395 M1075.7616053659137,692.1264757429395 L1077.1667300999197,689.3682232117757 M1064.4572707442132,775.6884558269361 L1077.2948928627486,782.4917001602288 M1089.3737384256592,695.4441358805849 L1077.1667300999197,689.3682232117757 M1089.5784714724061,695.0284260974136 L1077.37123430831,688.9545770242419 M1120.9803317480907,652.9657403976183 L1108.5120192486802,647.0072047937422 M1112.6370098424065,747.1467699500114 L1099.372613062735,740.3625895028877 M1078.040686321737,775.6884721021798 L1065.2565486143028,768.9454118126508" stroke="black"  stroke-width="4"  fill="red"/>
<path d="M1049.2559253973286,722.0215774385651 L1054.1761389508476,717.6766498727682 M1054.1761389508476,717.6766498727682 L1054.323437539063,717.7618503708833 M1054.323437539063,717.7618503708833 L1054.459784301574,717.8605633902326 M1054.459784301574,717.8605633902326 L1054.5773526889736,717.9671040902758 M1054.5773526889736,717.9671040902758 L1054.669192312068,718.075226051661 M1054.669192312068,718.075226051661 L1054.7298179175673,718.1785713855603 M1054.7298179175673,718.1785713855603 L1054.7560950414393,718.2713350987959 M1054.7560950414393,718.2713350987959 L1054.746151900809,718.3479472209189 M1054.746151900809,718.3479472209189 L1054.7005610875904,718.4039505604107 M1054.7005610875904,718.4039505604107 L1054.6223080865386,718.43625699442 M1054.6223080865386,718.43625699442 L1054.5155455827955,718.4427839276968 M1054.5155455827955,718.4427839276968 L1054.3866251678007,718.4232227017777 M1054.3866251678007,718.4232227017777 L1054.243160247961,718.3787720492714 M1054.243160247961,718.3787720492714 L1054.0933992239754,718.3119677675647 M1054.0933992239754,718.3119677675647 L1053.945907188422,718.2266257621815 M1053.945907188422,718.2266257621815 L1053.809560992483,718.127863462564 M1053.809560992483,718.127863462564 L1053.6920354964882,718.0212994079288 M1053.6920354964882,718.0212994079288 L1053.6004227887195,717.9132629408158 M1053.6004227887195,717.9132629408158 L1053.5397361943642,717.8098774493317 M1053.5397361943642,717.8098774493317 L1053.5135442228043,717.7171720819886 M1053.5135442228043,717.7171720819886 L1053.523547426402,717.6406258206688 M1053.523547426402,717.6406258206688 L1053.5691594250811,717.584680737769 M1053.5691594250811,717.584680737769 L1053.6475416659168,717.5524893004846 M1053.6475416659168,717.5524893004846 L1053.7540917607273,717.5458927796357 M1053.7540917607273,717.5458927796357 L1053.882926657713,717.5654306188289 M1053.882926657713,717.5654306188289 L1054.0263011357251,717.6098320007467 M1054.0263011357251,717.6098320007467 L1054.1761389508476,717.6766498727682 M1049.2559253973286,722.0215774385651 L1049.1068620373849,721.9548080753234 M1049.1068620373849,721.9548080753234 L1048.9641632761081,721.9104389157704 M1048.9641632761081,721.9104389157704 L1048.8358675034913,721.8909152521804 M1048.8358675034913,721.8909152521804 L1048.7296872349975,721.897506987163 M1048.7296872349975,721.897506987163 L1048.6514857074606,721.9296750659905 M1048.6514857074606,721.9296750659905 L1048.6058545416547,721.9855795421712 M1048.6058545416547,721.9855795421712 L1048.595632377004,722.0620702183631 M1048.595632377004,722.0620702183631 L1048.6214182597425,722.1547082270947 M1048.6214182597425,722.1547082270947 L1048.6815361724168,722.2580185491063 M1048.6815361724168,722.2580185491063 L1048.7724508495996,722.3659764078694 M1048.7724508495996,722.3659764078694 L1048.8891878468824,722.4724628681797 M1048.8891878468824,722.4724628681797 L1049.024702306044,722.5711532034746 M1049.024702306044,722.5711532034746 L1049.1713663825597,722.6564329840131 M1049.1713663825597,722.6564329840131 L1049.32035300606,722.7231885316872 M1049.32035300606,722.7231885316872 L1049.4631413808438,722.7676067448422 M1049.4631413808438,722.7676067448422 L1049.5915219655146,722.7871536921638 M1049.5915219655146,722.7871536921638 L1049.6979134057376,722.780631523395 M1049.6979134057376,722.780631523395 L1049.7759864711063,722.7483486691814 M1049.7759864711063,722.7483486691814 L1049.8215968010627,722.692386192969 M1049.8215968010627,722.692386192969 L1049.8317595632084,722.6158299460232 M1049.8317595632084,722.6158299460232 L1049.8058893478546,722.5231338483529 M1049.8058893478546,722.5231338483529 L1049.7458323969202,722.419863792178 M1049.7458323969202,722.419863792178 L1049.6546922011285,722.3118205305526 M1049.6546922011285,722.3118205305526 L1049.5379125496677,722.2053573219815 M1049.5379125496677,722.2053573219815 L1049.4023973639717,722.1067160499256 M1049.4023973639717,722.1067160499256 L1049.2559253973286,722.0215774385651 M1054.2381467345376,717.2005224297075 L1054.606314479499,717.4134057427656 M1054.606314479499,717.4134057427656 L1054.947258326744,717.6601334815001 M1054.947258326744,717.6601334815001 L1055.2411837920154,717.9264032820585 M1055.2411837920154,717.9264032820585 L1055.4708484692267,718.1966836795131 M1055.4708484692267,718.1966836795131 L1055.6228855596441,718.4552729271497 M1055.6228855596441,718.4552729271497 L1055.6885108152012,718.6871740661421 M1055.6885108152012,718.6871740661421 L1055.6637657434148,718.8788279854272 M1055.6637657434148,718.8788279854272 L1055.5500562963953,719.0190609830709 M1055.5500562963953,719.0190609830709 L1055.3540785501486,719.099742741367 M1055.3540785501486,719.099742741367 L1055.087133891324,719.1161131737606 M1055.087133891324,719.1161131737606 L1054.764748109522,719.0672056341378 M1054.764748109522,719.0672056341378 L1054.4058403787787,718.9559464478654 M1054.4058403787787,718.9559464478654 L1054.0312973664247,718.7888175577933 M1054.0312973664247,718.7888175577933 L1053.6627162809207,718.5754570690377 M1053.6627162809207,718.5754570690377 L1053.3217759172871,718.3284212564123 M1053.3217759172871,718.3284212564123 L1053.0281184514095,718.0620054830581 M1053.0281184514095,718.0620054830581 L1052.7989248674646,717.7917747055562 M1052.7989248674646,717.7917747055562 L1052.6474539914848,717.5334192563909 M1052.6474539914848,717.5334192563909 L1052.5823605157686,717.3018825948205 M1052.5823605157686,717.3018825948205 L1052.6074809536954,717.1106402753902 M1052.6074809536954,717.1106402753902 L1052.7213233370896,716.9707716810095 M1052.7213233370896,716.9707716810095 L1052.9171613582062,716.8903237823789 M1052.9171613582062,716.8903237823789 L1053.183725415548,716.8740029571888 M1053.183725415548,716.8740029571888 L1053.505576887618,716.9227644527067 M1053.505576887618,716.9227644527067 L1053.8639192582732,717.0337155987924 M1053.8639192582732,717.0337155987924 L1054.2381467345376,717.2005224297075 M1054.8175185389875,716.688710006918 L1055.1859299268226,716.9016111760965 M1055.1859299268226,716.9016111760965 L1055.527119057961,717.1483596432414 M1055.527119057961,717.1483596432414 L1055.8212772161837,717.4146518543599 M1055.8212772161837,717.4146518543599 L1056.0511483702323,717.6849550427721 M1056.0511483702323,717.6849550427721 L1056.2033536981517,717.943566135935 M1056.2033536981517,717.943566135935 L1056.2690991882928,718.1754868994576 M1056.2690991882928,718.1754868994576 L1056.244419245763,718.3671570613536 M1056.244419245763,718.3671570613536 L1056.1307159956596,718.5074019574519 M1056.1307159956596,718.5074019574519 L1055.9346851946354,718.5880905666793 M1055.9346851946354,718.5880905666793 L1055.6676312514942,718.6044623896053 M1055.6676312514942,718.6044623896053 L1055.3450863203213,718.5555506961636 M1055.3450863203213,718.5555506961636 L1054.9859789568864,718.4442820656817 M1054.9859789568864,718.4442820656817 L1054.6112074699838,718.2771390026606 M1054.6112074699838,718.2771390026606 L1054.2423822602875,718.0637604443854 M1054.2423822602875,718.0637604443854 L1053.901196493931,717.8167037438768 M1053.901196493931,717.8167037438768 L1053.6073065096782,717.5502654844004 M1053.6073065096782,717.5502654844004 L1053.377906876883,717.2800119416263 M1053.377906876883,717.2800119416263 L1053.2262683466893,717.0216347679597 M1053.2262683466893,717.0216347679597 L1053.1610552415145,716.7900786705289 M1053.1610552415145,716.7900786705289 L1053.1861110383632,716.5988203215503 M1053.1861110383632,716.5988203215503 L1053.2999474842047,716.4589400173473 M1053.2999474842047,716.4589400173473 L1053.4958385314762,716.3784853888415 M1053.4958385314762,716.3784853888415 L1053.7625115628362,716.362163198798 M1053.7625115628362,716.362163198798 L1054.0845216633531,716.4109287725357 M1054.0845216633531,716.4109287725357 L1054.4430630547874,716.5218892033748 M1054.4430630547874,716.5218892033748 L1054.8175185389875,716.688710006918 M1054.8175185389875,716.688710006918 L1054.2381467345376,717.2005224297075" stroke="black"  stroke-width="4"  fill="red"/>
<path d="M-280.1202599704211,48.08130962191041 L-316.6280648746872,67.15450192367393 M-280.1202599704211,48.08130962191041 L-283.52390456793887,46.31100568057542 M-320.02994931310946,65.29853746205623 L-283.52390456793887,46.31100568057542 M-316.6280648746872,67.15450192367393 L-320.02994931310946,65.29853746205623 M-316.6280648746872,67.15450192367393 L-317.0544195410216,43.56209383186837 M-317.0544195410216,43.56209383186837 L-313.4553057888213,41.7366341160091 M-313.4553057888213,41.7366341160091 L-313.84491588827916,17.561327847670782 M-313.84491588827916,17.561327847670782 L-261.9701293205495,-7.938416525300511 M-261.9701293205495,-7.938416525300511 L-262.0200271631313,-6.427854588052526 M-262.0200271631313,-6.427854588052526 L-262.1356673490209,-4.891755070416934 M-262.1356673490209,-4.891755070416934 L-262.31656380173604,-3.334710169452933 M-262.31656380173604,-3.334710169452933 L-262.5620479160973,-1.7614080645250283 M-262.5620479160973,-1.7614080645250283 L-262.87127504753016,-0.17655134026142605 M-262.87127504753016,-0.17655134026142605 L-263.2432205175171,1.4151642766275927 M-263.2432205175171,1.4151642766275927 L-263.6766909761984,3.0090242678029995 M-263.6766909761984,3.0090242678029995 L-264.170322433955,4.600317516320672 M-264.170322433955,4.600317516320672 L-264.72258864412424,6.184349954046411 M-264.72258864412424,6.184349954046411 L-265.3318051827531,7.756469612858723 M-265.3318051827531,7.756469612858723 L-265.9961328922334,9.312064290913497 M-265.9961328922334,9.312064290913497 L-266.713581120713,10.846572799471176 M-266.713581120713,10.846572799471176 L-267.4820174127781,12.35549959190854 M-267.4820174127781,12.35549959190854 L-268.29916997854957,13.834412469011966 M-268.29916997854957,13.834412469011966 L-269.1626347504284,15.27895634530563 M-269.1626347504284,15.27895634530563 L-270.06987710360875,16.68491850136718 M-270.06987710360875,16.68491850136718 L-271.01824422643085,18.048124206176226 M-271.01824422643085,18.048124206176226 L-271.00812079084756,18.06638471070994 M-271.00812079084756,18.06638471070994 L-271.0028377524392,18.08946424058132 M-271.0028377524392,18.08946424058132 L-271.00270276802735,18.11599577834039 M-271.00270276802735,18.11599577834039 L-271.00772188534734,18.14447343172185 M-271.00772188534734,18.14447343172185 L-271.0176046956735,18.173201066367938 M-271.0176046956735,18.173201066367938 L-271.0317761989138,18.20054075089672 M-271.0317761989138,18.20054075089672 L-271.0494127114159,18.224903862987844 M-271.0494127114159,18.224903862987844 L-271.0694907170705,18.244856561432698 M-271.0694907170705,18.244856561432698 L-271.0908420006168,18.259255421661976 M-271.0908420006168,18.259255421661976 L-271.1122275420371,18.26724439806918 M-271.1122275420371,18.26724439806918 L-271.13240414445363,18.2683829028324 M-271.13240414445363,18.2683829028324 L-271.15019869741855,18.26258914490586 M-271.15019869741855,18.26258914490586 L-271.1645771552502,18.25020208045072 M-271.1645771552502,18.25020208045072 L-272.1172932029092,19.619879872961747 M-272.1172932029092,19.619879872961747 L-273.02882523245694,21.033149565898327 M-273.02882523245694,21.033149565898327 L-273.8961226590113,22.485315389548816 M-273.8961226590113,22.485315389548816 L-274.71628943192525,23.97153367269533 M-274.71628943192525,23.97153367269533 L-275.4865946757234,25.486834725173082 M-275.4865946757234,25.486834725173082 L-276.20448512910775,27.02615942182814 M-276.20448512910775,27.02615942182814 L-276.86759304931377,28.584373586870015 M-276.86759304931377,28.584373586870015 L-277.4737466331077,30.15627052514168 M-277.4737466331077,30.15627052514168 L-278.0209764514673,31.736612006651285 M-278.0209764514673,31.736612006651285 L-278.50752323527195,33.32013651366913 M-278.50752323527195,33.32013651366913 L-278.9318442619467,34.90157361869075 M-278.9318442619467,34.90157361869075 L-279.2926171830163,36.475690481926506 M-279.2926171830163,36.475690481926506 L-279.5887446572506,38.03728521209371 M-279.5887446572506,38.03728521209371 L-279.8193572430906,39.5812060554764 M-279.8193572430906,39.5812060554764 L-279.9838151071983,41.10240969251464 M-279.9838151071983,41.10240969251464 L-280.08170874235066,42.59591231011717 M-280.08170874235066,42.59591231011717 L-280.1128589559478,44.056879733978064 M-280.1128589559478,44.056879733978064 L-280.1202599704211,48.08130962191041 M-280.1128589559478,44.056879733978064 L-283.52390418118057,42.291695112993295 M-283.52390418118057,42.291695112993295 L-283.52390456793887,46.31100568057542 M-283.52390418118057,42.291695112993295 L-283.4954132507903,40.832642609324125 M-283.4954132507903,40.832642609324125 L-283.4001749038564,39.341211232103205 M-283.4001749038564,39.341211232103205 L-283.23835989535564,37.822228361866905 M-283.23835989535564,37.822228361866905 L-283.01036919371563,36.280670368278436 M-283.01036919371563,36.280670368278436 L-282.71683415386224,34.72157259935068 M-282.71683415386224,34.72157259935068 L-282.3586157049865,33.150078254494304 M-282.3586157049865,33.150078254494304 L-281.93680274499684,31.57138017369664 M-281.93680274499684,31.57138017369664 L-281.4527092789169,29.990701686988018 M-281.4527092789169,29.990701686988018 L-280.90786976825314,28.4133032621516 M-280.90786976825314,28.4133032621516 L-280.30403538561836,26.84443608396805 M-280.30403538561836,26.84443608396805 L-279.6431676496487,25.289327716094704 M-279.6431676496487,25.289327716094704 L-278.92743064917465,23.753173888283982 M-278.92743064917465,23.753173888283982 L-278.1591846810571,22.241097586927992 M-278.1591846810571,22.241097586927992 L-277.34097582784693,20.758146555077985 M-277.34097582784693,20.758146555077985 L-276.47552807717454,19.309278950542364 M-276.47552807717454,19.309278950542364 L-275.5657309439516,17.899326840519166 M-275.5657309439516,17.899326840519166 L-274.61462886595496,16.532974375041704 M-274.61462886595496,16.532974375041704 L-274.60021355659126,16.545368072644806 M-274.60021355659126,16.545368072644806 L-274.58239105078746,16.55118260180882 M-274.58239105078746,16.55118260180882 L-274.562197022527,16.550077801442228 M-274.562197022527,16.550077801442228 L-274.54080556661484,16.54213348159476 M-274.54080556661484,16.54213348159476 L-274.51946026824396,16.527787664952882 M-274.51946026824396,16.527787664952882 L-274.49939976279006,16.507893291905532 M-274.49939976279006,16.507893291905532 L-274.48179128036736,16.483590416792197 M-274.48179128036736,16.483590416792197 L-274.46765667405816,16.45630935942893 M-274.46765667405816,16.45630935942893 L-274.4578174841736,16.427635336023627 M-274.4578174841736,16.427635336023627 L-274.4528462350148,16.39920320376325 M-274.4528462350148,16.39920320376325 L-274.4530304757915,16.37270640005994 M-274.4530304757915,16.37270640005994 L-274.45836136411776,16.349648843477212 M-274.45836136411776,16.349648843477212 L-274.4685284134264,16.331396241473612 M-265.4598800800642,-9.606148558019811 L-265.5070133674967,-8.097716947707909 M-265.5070133674967,-8.097716947707909 L-265.6199058838106,-6.563878925761003 M-265.6199058838106,-6.563878925761003 L-265.7980799087178,-5.0092200992763765 M-265.7980799087178,-5.0092200992763765 L-266.0408751440882,-3.4384217147809863 M-266.0408751440882,-3.4384217147809863 L-266.3474550546275,-1.8561791951171358 M-266.3474550546275,-1.8561791951171358 L-266.7168028275271,-0.2671808909434503 M-266.7168028275271,-0.2671808909434503 L-267.14773279237977,1.3238662946836257 M-267.14773279237977,1.3238662946836257 L-267.63888840869333,2.912259080985109 M-267.63888840869333,2.912259080985109 L-268.18875063136215,4.493311434377688 M-268.18875063136215,4.493311434377688 L-268.7956419485247,6.0623795890500105 M-268.7956419485247,6.0623795890500105 L-269.4577298343579,7.614859720389234 M-269.4577298343579,7.614859720389234 L-270.17302997290335,9.14619918121258 M-270.17302997290335,9.14619918121258 L-270.9394159338999,10.651911105531838 M-270.9394159338999,10.651911105531838 L-271.7546216520325,12.127572122296328 M-271.7546216520325,12.127572122296328 L-272.61624846908785,13.568836101393686 M-272.61624846908785,13.568836101393686 L-273.5217667398906,14.971499325982506 M-273.5217667398906,14.971499325982506 L-274.4685284134264,16.331396241473612 M-265.4598800800642,-9.606148558019811 L-317.33371705030936,15.776952951435703 M-316.9002758917966,39.919566619428565 L-317.33371705030936,15.776952951435703 M-316.9002758917966,39.919566619428565 L-320.4990345210026,41.736634480708915 M-320.02994931310946,65.29853746205623 L-320.4990345210026,41.736634480708915 M-320.4990345210026,41.736634480708915 L-317.0544195410216,43.56209383186837 M-271.1645771552502,18.25020208045072 L-274.61462886595496,16.532974375041704 M-271.01824422643085,18.048124206176226 L-274.4685284134264,16.331396241473612 M-261.9701293205495,-7.938416525300511 L-265.4598800800642,-9.606148558019811 M-313.84491588827916,17.561327847670782 L-317.33371705030936,15.776952951435703 M-313.4553057888213,41.7366341160091 L-316.9002758917966,39.919566619428565" stroke="black"  stroke-width="4"  fill="red"/>
<path d="M-272.78610152112856,42.48392641429598 L-272.7648114406709,38.80309338456868 M-272.7648114406709,38.80309338456868 L-272.7270975615486,38.82767344562677 M-272.7270975615486,38.82767344562677 L-272.70183249212994,38.856150025864395 M-272.70183249212994,38.856150025864395 L-272.69048453771325,38.88686827759307 M-272.69048453771325,38.88686827759307 L-272.69371560574257,38.918043769058045 M-272.69371560574257,38.918043769058045 L-272.7113391715088,38.94786416858642 M-272.7113391715088,38.94786416858642 L-272.7423329038022,38.97459638496514 M-272.7423329038022,38.97459638496514 L-272.7848957396866,38.996685702609284 M-272.7848957396866,38.996685702609284 L-272.8365545800898,39.01284775092711 M-272.8365545800898,39.01284775092711 L-272.8943057223204,39.02214215754117 M-272.8943057223204,39.02214215754117 L-272.9547923774444,39.024028523959316 M-272.9547923774444,39.024028523959316 L-273.01449678871745,39.01839689271276 M-273.01449678871745,39.01839689271276 L-273.06994851537934,39.00557529329802 M-273.06994851537934,39.00557529329802 L-273.1179227233954,38.98630894141394 M-273.1179227233954,38.98630894141394 L-273.15563182820165,38.96171906543708 M-273.15563182820165,38.96171906543708 L-273.18088387489456,38.933234851313784 M-273.18088387489456,38.933234851313784 L-273.192213371247,38.90251298308186 M-273.192213371247,38.90251298308186 L-273.18896263797683,38.871338720922154 M-273.18896263797683,38.871338720922154 L-273.171322705125,38.84152411487287 M-273.171322705125,38.84152411487287 L-273.1403196532149,38.81480092902274 M-273.1403196532149,38.81480092902274 L-273.09775668030784,38.79272181008116 M-273.09775668030784,38.79272181008116 L-273.0461069168649,38.77656879235269 M-273.0461069168649,38.77656879235269 L-272.98837198604565,38.76728017924063 M-272.98837198604565,38.76728017924063 L-272.92790496313046,38.76539504215634 M-272.92790496313046,38.76539504215634 L-272.8682191071009,38.771023056804665 M-272.8682191071009,38.771023056804665 L-272.8127806082898,38.78383702246356 M-272.8127806082898,38.78383702246356 L-272.7648114406709,38.80309338456868 M-272.78610152112856,42.48392641429598 L-272.83397525179953,42.46461833791557 M-272.83397525179953,42.46461833791557 L-272.8893037110929,42.45176995844179 M-272.8893037110929,42.45176995844179 L-272.94887131804603,42.446126828659544 M-272.94887131804603,42.446126828659544 L-273.009218746389,42.448017028665845 M-273.009218746389,42.448017028665845 L-273.066839682515,42.457330587990896 M-273.066839682515,42.457330587990896 L-273.1183876688947,42.47352698646915 M-273.1183876688947,42.47352698646915 L-273.1608669956154,42.49566539924689 M-273.1608669956154,42.49566539924689 L-273.19180939254,42.52246034736561 M-273.19180939254,42.52246034736561 L-273.20941519103394,42.552355013116596 M-273.20941519103394,42.552355013116596 L-273.2126602989299,42.583612981206386 M-273.2126602989299,42.583612981206386 L-273.20135402059896,42.614417335856274 M-273.20135402059896,42.614417335856274 L-273.1761526905825,42.642978024178774 M-273.1761526905825,42.642978024178774 L-273.13851885989266,42.66763391557805 M-273.13851885989266,42.66763391557805 L-273.090640108682,42.68695198891106 M-273.090640108682,42.68695198891106 L-273.035298474044,42.69980800748999 M-273.035298474044,42.69980800748999 L-272.97571238531214,42.70545475640478 M-272.97571238531214,42.70545475640478 L-272.9153454023549,42.70356332620315 M-272.9153454023549,42.70356332620315 L-272.85770831876516,42.6942439693164 M-272.85770831876516,42.6942439693164 L-272.8061512910771,42.678038533920585 M-272.8061512910771,42.678038533920585 L-272.7636721005672,42.65588991529353 M-272.7636721005672,42.65588991529353 L-272.7327389861696,42.629085930318126 M-272.7327389861696,42.629085930318126 L-272.71514948989113,42.59918546702818 M-272.71514948989113,42.59918546702818 L-272.7119239694457,42.56792626877177 M-272.7119239694457,42.56792626877177 L-272.72324863295216,42.537125533159326 M-272.72324863295216,42.537125533159326 L-272.7484629344035,42.50857248407192 M-272.7484629344035,42.50857248407192 L-272.78610152112856,42.48392641429598 M-272.5000857480959,38.665737634273285 L-272.4057935245777,38.727169710298426 M-272.4057935245777,38.727169710298426 L-272.342605858521,38.79834645957055 M-272.342605858521,38.79834645957055 L-272.31420162205245,38.87513552757832 M-272.31420162205245,38.87513552757832 L-272.32224233690056,38.95307625572178 M-272.32224233690056,38.95307625572178 L-272.3662707180524,39.02763838241992 M-272.3662707180524,39.02763838241992 L-272.4437368026074,39.094485557346104 M-272.4437368026074,39.094485557346104 L-272.55014362785255,39.149727985679306 M-272.55014362785255,39.149727985679306 L-272.67930716340925,39.19014965784726 M-272.67930716340925,39.19014965784726 L-272.82371593774826,39.213396633509944 M-272.82371593774826,39.213396633509944 L-272.97496881373115,39.218114812808494 M-272.97496881373115,39.218114812808494 L-273.12426507417854,39.20402907900956 M-273.12426507417854,39.20402907900956 L-273.26291844353796,39.1719604500023 M-273.26291844353796,39.1719604500023 L-273.38286401759365,39.12377655891214 M-273.38286401759365,39.12377655891214 L-273.4771272967746,39.06228268051217 M-273.4771272967746,39.06228268051217 L-273.5402337422969,38.99105813245711 M-273.5402337422969,38.99105813245711 L-273.56852244488573,38.914246548726624 M-273.56852244488573,38.914246548726624 L-273.5603589082041,38.836313460121744 M-273.5603589082041,38.836313460121744 L-273.51622823254297,38.76178754287923 M-273.51622823254297,38.76178754287923 L-273.4387039005587,38.6949968085695 M-273.4387039005587,38.6949968085695 L-273.3322962189129,38.639818122148995 M-273.3322962189129,38.639818122148995 L-273.20318941418304,38.5994528905955 M-273.20318941418304,38.5994528905955 L-273.05888196139153,38.576242124428916 M-273.05888196139153,38.576242124428916 L-272.9077517008095,38.57153167203745 M-272.9077517008095,38.57153167203745 L-272.75857158161944,38.585594715025366 M-272.75857158161944,38.585594715025366 L-272.6200007148251,38.617615719944354 M-272.6200007148251,38.617615719944354 L-272.5000857480959,38.665737634273285 M-272.49752170734064,38.233054886890216 L-272.40320735086914,38.29446748936516 M-272.40320735086914,38.29446748936516 L-272.34000475189737,38.365621678878824 M-272.34000475189737,38.365621678878824 L-272.3115936535444,38.44238641163605 M-272.3115936535444,38.44238641163605 L-272.31963598111906,38.52030244311692 M-272.31963598111906,38.52030244311692 L-272.36367436065984,38.594840947069315 M-272.36367436065984,38.594840947069315 L-272.4411582522923,38.66166694628913 M-272.4411582522923,38.66166694628913 L-272.5475896607818,38.71689187703453 M-272.5475896607818,38.71689187703453 L-272.6767831270861,38.75730074710975 M-272.6767831270861,38.75730074710975 L-272.82122543794276,38.78054036057654 M-272.82122543794276,38.78054036057654 L-272.97251350317833,38.78525704569125 M-272.97251350317833,38.78525704569125 L-273.12184455566864,38.771175772693425 M-273.12184455566864,38.771175772693425 L-273.260530293295,38.7391172999146 M-273.260530293295,38.7391172999146 L-273.38050392745845,38.69094866994527 M-273.38050392745845,38.69094866994527 L-273.47478932635613,38.62947427028479 M-273.47478932635613,38.62947427028479 L-273.5379106671062,38.55827228603766 M-273.5379106671062,38.55827228603766 L-273.5662061779242,38.48148503943537 M-273.5662061779242,38.48148503943537 L-273.5580409713152,38.403576646859335 M-273.5580409713152,38.403576646859335 L-273.5139002495479,38.32907434931025 M-273.5139002495479,38.32907434931025 L-273.43635808320323,38.2623047859492 M-273.43635808320323,38.2623047859492 L-273.3299258177153,38.207143591743545 M-273.3299258177153,38.207143591743545 L-273.2007891084619,38.16679115752504 M-273.2007891084619,38.16679115752504 L-273.0564481661909,38.143587750502036 M-273.0564481661909,38.143587750502036 L-272.90528277341275,38.13887879163292 M-272.90528277341275,38.13887879163292 L-272.75606791625887,38.1529373757528 M-272.75606791625887,38.1529373757528 L-272.61746471977995,38.184948228437406 M-272.61746471977995,38.184948228437406 L-272.49752170734064,38.233054886890216 M-272.49752170734064,38.233054886890216 L-272.5000857480959,38.665737634273285" stroke="black"  stroke-width="4"  fill="red"/>
<path d="M-316.9002758917966,39.919566619428565 L-320.4990345210026,41.736634480708915 M-320.4990345210026,41.736634480708915 L-320.9803317480905,17.561328205819677 M-317.33371705030936,15.776952951435703 L-320.9803317480905,17.561328205819677 M-316.9002758917966,39.919566619428565 L-317.33371705030936,15.776952951435703 M-316.6280648746872,67.15450192367393 L-244.4382110042261,106.53908587946904 M-244.4382110042261,106.53908587946904 L-244.34457767030858,102.24517660779634 M-244.34457767030858,102.24517660779634 L-162.13499296320254,146.8683942015498 M-162.44026830054293,151.2746641563093 L-162.13499296320254,146.8683942015498 M-162.44026830054293,151.2746641563093 L280.6728953666152,393.0237003530448 M280.6728953666152,393.0237003530448 L282.478623328563,388.20388100176626 M282.478623328563,388.20388100176626 L431.8488423169051,469.2817724385204 M429.4043857264728,474.1670682210496 L431.8488423169051,469.2817724385204 M429.4043857264728,474.1670682210496 L1031.8625080021452,802.8498570682754 M1031.8625080021452,802.8498570682754 L1064.4572707442132,775.6884558269361 M1064.4572707442132,775.6884558269361 L1077.2948928627486,782.4917001602288 M1077.2948928627486,782.4917001602288 L1112.0305123626686,753.9930306730612 M-320.9803317480905,17.561328205819677 L1112.0305123626686,753.9930306730612 M-320.4990345210026,41.736634480708915 L-317.0544195410216,43.56209383186837 M-316.6280648746872,67.15450192367393 L-317.0544195410216,43.56209383186837 M1078.040686321737,775.6884721021798 L1065.2565486143028,768.9454118126508 M1032.783244042163,796.1519114310132 L1065.2565486143028,768.9454118126508 M1032.783244042163,796.1519114310132 L432.18236041840464,470.0024118279209 M432.18236041840464,470.0024118279209 L434.62795664622604,465.1195785110558 M434.62795664622604,465.1195785110558 L285.54988143440664,384.57651404693536 M283.7401288747028,389.39254118331917 L285.54988143440664,384.57651404693536 M283.7401288747028,389.39254118331917 L-158.90924443468964,149.01681823496608 M-158.90924443468964,149.01681823496608 L-158.59585682470117,144.61595125298032 M-158.59585682470117,144.61595125298032 L-240.7848771638977,100.21132935256304 M-240.8867741464478,104.4998502730329 L-240.7848771638977,100.21132935256304 M-240.8867741464478,104.4998502730329 L-313.07558131874816,65.29853709125098 M-313.07558131874816,65.29853709125098 L-313.4553057888213,41.7366341160091 M-313.4553057888213,41.7366341160091 L-316.9002758917966,39.919566619428565 M1112.6370098424065,747.1467699500114 L-317.33371705030936,15.776952951435703 M1078.040686321737,775.6884721021798 L1112.6370098424065,747.1467699500114 M-316.6280648746872,67.15450192367393 L-313.07558131874816,65.29853709125098 M-317.0544195410216,43.56209383186837 L-313.4553057888213,41.7366341160091 M-240.8867741464478,104.4998502730329 L-244.4382110042261,106.53908587946904 M-240.7848771638977,100.21132935256304 L-244.34457767030858,102.24517660779634 M-162.44026830054293,151.2746641563093 L-158.90924443468964,149.01681823496608 M-162.13499296320254,146.8683942015498 L-158.59585682470117,144.61595125298032 M283.7401288747028,389.39254118331917 L280.6728953666152,393.0237003530448 M285.54988143440664,384.57651404693536 L282.478623328563,388.20388100176626 M429.4043857264728,474.1670682210496 L432.18236041840464,470.0024118279209 M431.8488423169051,469.2817724385204 L434.62795664622604,465.1195785110558 M1032.783244042163,796.1519114310132 L1031.8625080021452,802.8498570682754 M1065.2565486143028,768.9454118126508 L1064.4572707442132,775.6884558269361 M1077.2948928627486,782.4917001602288 L1078.040686321737,775.6884721021798 M1112.0305123626686,753.9930306730612 L1112.6370098424065,747.1467699500114" stroke="black"  stroke-width="4"  fill="red"/></svg>