<svg viewBox="0 0 800 800" xmlns="http://www.w3.org/2000/svg"><path d="M-436.38862944234177,72.79880158675223 L-455.9243185649325,80.35459324488374 M-455.9243180882645,75.40091321899195 L-455.9243185649325,80.35459324488374 M-455.9243180882645,75.40091321899195 L-455.92442828880235,75.35755782917187 M-455.92442828880235,75.35755782917187 L-455.924494411253,75.31415104673715 M-455.924494411253,75.31415104673715 L-455.92451645270387,75.2707255278894 M-436.34095304116363,67.76154668784079 L-455.92451645270387,75.2707255278894 M-436.38862944234177,72.79880158675223 L-436.34095304116363,67.76154668784079 M1185.6144154634192,715.2501110878766 L1169.4840569741868,709.0113960982628 M1174.3962289579667,770.9638351178849 L1169.4840569741868,709.0113960982628 M1174.3962289579667,770.9638351178849 L388.0163417841238,451.86778757019164 M385.255634289766,455.7493912114786 L388.0163417841238,451.86778757019164 M201.91621192968114,380.9672395920187 L385.255634289766,455.7493912114786 M205.14360036519315,377.66196168022714 L201.91621192968114,380.9672395920187 M205.14360036519315,377.66196168022714 L-315.6035945224053,166.3539483771778 M-319.5364279565699,168.27239264440973 L-315.6035945224053,166.3539483771778 M-412.173273934623,130.48683309424757 L-319.5364279565699,168.27239264440973 M-408.21150829222097,128.77564845169525 L-412.173273934623,130.48683309424757 M-408.21150829222097,128.77564845169525 L-488.8140579472763,96.06886711522282 M-452.1452370769799,81.8162230246312 L-488.8140579472763,96.06886711522282 M-452.1452370769799,81.8162230246312 L-455.9243185649325,80.35459324488374 M1182.6639672334195,683.1944283130711 L-436.38862944234177,72.79880158675223 M1185.6144154634192,715.2501110878766 L1182.6639672334195,683.1944283130711 M-444.01131933506633,77.19725840306205 L-444.0644642681614,77.18133774254807 M-444.0644642681614,77.18133774254807 L-444.12586894112417,77.17074353451153 M-444.12586894112417,77.17074353451153 L-444.1919647742085,77.16609047004499 M-444.1919647742085,77.16609047004499 L-444.25891351250664,77.16764904095487 M-444.25891351250664,77.16764904095487 L-444.3228254954199,77.1753285801974 M-444.3228254954199,77.1753285801974 L-444.37998906646,77.18868344402841 M-444.37998906646,77.18868344402841 L-444.4270822592015,77.2069379378363 M-444.4270822592015,77.2069379378363 L-444.4613687109652,77.22903218325393 M-444.4613687109652,77.22903218325393 L-444.48085415754394,77.25368254860967 M-444.48085415754394,77.25368254860967 L-444.48440499840467,77.27945727569698 M-444.48440499840467,77.27945727569698 L-444.4718123369307,77.30485817980048 M-444.4718123369307,77.30485817980048 L-444.44380699484304,77.32840917674383 M-444.44380699484304,77.32840917674383 L-444.40201412418446,77.34874044784794 M-444.40201412418446,77.34874044784794 L-444.3488630140431,77.36467024607441 M-444.3488630140431,77.36467024607441 L-444.28744210982586,77.37527144267523 M-444.28744210982586,77.37527144267523 L-444.2213235210313,77.37992781807151 M-444.2213235210313,77.37992781807151 L-444.1543507151911,77.37836812172901 M-444.1543507151911,77.37836812172901 L-444.09041886680666,77.37068327864108 M-444.09041886680666,77.37068327864108 L-444.03324418307966,77.35732014747015 M-444.03324418307966,77.35732014747015 L-443.986151176352,77.33905631693591 M-443.986151176352,77.33905631693591 L-443.95187616669114,77.3169538042344 M-443.95187616669114,77.3169538042344 L-443.93241079691734,77.29229813505412 M-443.93241079691734,77.29229813505412 L-443.928884068441,77.26652228256012 M-443.928884068441,77.26652228256012 L-443.94149935370046,77.24112468929968 M-443.94149935370046,77.24112468929968 L-443.96952064857726,77.21758068103918 M-443.96952064857726,77.21758068103918 L-444.01131933506633,77.19725840306205 M1176.117294632733,695.6462494564598 L1175.9181268387633,695.5791791492263 M1175.9181268387633,695.5791791492263 L1175.7323363166,695.5346107644395 M1175.7323363166,695.5346107644395 L1175.5703730522673,695.5149996274956 M1175.5703730522673,695.5149996274956 L1175.441995353357,695.5216208828581 M1175.441995353357,695.5216208828581 L1175.3542472080483,695.5539332141777 M1175.3542472080483,695.5539332141777 L1175.312292577593,695.6100891398762 M1175.312292577593,695.6100891398762 L1175.3188237225984,695.6869254120575 M1175.3188237225984,695.6869254120575 L1175.373470494171,695.7799843755274 M1175.373470494171,695.7799843755274 L1175.4728192784803,695.8837672527525 M1175.4728192784803,695.8837672527525 L1175.6110426613,695.9922224232623 M1175.6110426613,695.9922224232623 L1175.7805266819623,696.0992029197134 M1175.7805266819623,696.0992029197134 L1175.9710694885862,696.1983542274863 M1175.9710694885862,696.1983542274863 L1176.1719308014865,696.2840347477256 M1176.1719308014865,696.2840347477256 L1176.3710250985507,696.3511055444199 M1176.3710250985507,696.3511055444199 L1176.5569649768279,696.3957342774115 M1176.5569649768279,696.3957342774115 L1176.7190625335609,696.4153740591707 M1176.7190625335609,696.4153740591707 L1176.84773234563,696.4088209015938 M1176.84773234563,696.4088209015938 L1176.935298617713,696.3763848538945 M1176.935298617713,696.3763848538945 L1176.9772043040891,696.3201575736452 M1176.9772043040891,696.3201575736452 L1176.9705640687341,696.2432406330324 M1176.9705640687341,696.2432406330324 L1176.9157731035175,696.150110205637 M1176.9157731035175,696.150110205637 L1176.81648223056,696.0463593793986 M1176.81648223056,696.0463593793986 L1176.6779403871183,695.9378166280705 M1176.6779403871183,695.9378166280705 L1176.5083994953259,695.8308647370741 M1176.5083994953259,695.8308647370741 L1176.317870569994,695.7317737893577 M1176.317870569994,695.7317737893577 L1176.117294632733,695.6462494564598 M-452.1361110668058,76.85379682815721 L-455.9243180882645,75.40091321899195 M-452.1361110668058,76.85379682815721 L-452.1452370769799,81.8162230246312 M-452.13606946023833,76.72337872458513 L-452.1361274322834,76.76688115855455 M-452.1361274322834,76.76688115855455 L-452.13614132021974,76.8103647644308 M-452.13614132021974,76.8103647644308 L-452.1361110668058,76.85379682815721 M-455.92451645270387,75.2707255278894 L-452.13606946023833,76.72337872458513 M1177.7965964144162,701.7095279806213 L1194.0526054212091,707.9427796260043 M1194.0526054212091,707.9427796260043 L1190.8656490799747,675.9183228745169 M1190.8656490799747,675.9183228745169 L-436.34095304116363,67.76154668784079 M-452.13606946023833,76.72337872458513 L-488.89753137504545,90.8893410084948 M-488.89753137504545,90.8893410084948 L-408.08387019511565,123.40376563450229 M-408.08387019511565,123.40376563450229 L-412.0559201072267,125.10513123187627 M-412.0559201072267,125.10513123187627 L-319.14898102297445,162.6800778592093 M-319.14898102297445,162.6800778592093 L-315.20610449525657,160.7720406042057 M-315.20610449525657,160.7720406042057 L207.60267338547783,371.1179939247806 M207.60267338547783,371.1179939247806 L204.37241624015974,374.4111794789731 M204.37241624015974,374.4111794789731 L388.66079650168103,448.94410587411267 M388.66079650168103,448.94410587411267 L391.4189057445933,445.07428973929916 M391.4189057445933,445.07428973929916 L1183.1595618056508,763.6218163453127 M1177.7965964144162,701.7095279806213 L1183.1595618056508,763.6218163453127 M-443.68842268235665,72.01990761205383 L-443.58365710315843,72.07038310429198 M-443.58365710315843,72.07038310429198 L-443.51339795837316,72.1288663627289 M-443.51339795837316,72.1288663627289 L-443.481736658252,72.19196235601976 M-443.481736658252,72.19196235601976 L-443.4905263969838,72.25600602835578 M-443.4905263969838,72.25600602835578 L-443.5392687444365,72.31727481827068 M-443.5392687444365,72.31727481827068 L-443.62514182259224,72.37220520411904 M-443.62514182259224,72.37220520411904 L-443.743161262992,72.41760038558743 M-443.743161262992,72.41760038558743 L-443.8864681670194,72.45081713059011 M-443.8864681670194,72.45081713059011 L-444.0467279736338,72.4699206383496 M-444.0467279736338,72.4699206383496 L-444.2146163396326,72.47379787933443 M-444.2146163396326,72.47379787933443 L-444.3803633232284,72.46222271241237 M-444.3803633232284,72.46222271241237 L-444.5343243071669,72.43586999648898 M-444.5343243071669,72.43586999648898 L-444.66754313760225,72.39627484684036 M-444.66754313760225,72.39627484684036 L-444.77227318874156,72.34574297876458 M-444.77227318874156,72.34574297876458 L-444.8424323303526,72.28721613250372 M-444.8424323303526,72.28721613250372 L-444.8739513465632,72.22409959545723 M-444.8739513465632,72.22409959545723 L-444.86501025846735,72.1600628948442 M-444.86501025846735,72.1600628948442 L-444.81614181115197,72.09882713039906 M-444.81614181115197,72.09882713039906 L-444.7301968653592,72.04394822220638 M-444.7301968653592,72.04394822220638 L-444.6121762537614,71.99861117767045 M-444.6121762537614,71.99861117767045 L-444.46893914329394,71.96544591032352 M-444.46893914329394,71.96544591032352 L-444.3088041059401,71.94637542807277 M-444.3088041059401,71.94637542807277 L-444.141066806995,71.9425052306018 M-444.141066806995,71.9425052306018 L-443.9754629379497,71.95405970986553 M-443.9754629379497,71.95405970986553 L-443.8216037104645,71.98036898150508 M-443.8216037104645,71.98036898150508 L-443.68842268235665,72.01990761205383 M1184.3273914127228,687.8794532663546 L1184.8326828078684,688.0929018890697 M1184.8326828078684,688.0929018890697 L1185.31319370789,688.340302349503 M1185.31319370789,688.340302349503 L1185.7410337447434,688.6073192831955 M1185.7410337447434,688.6073192831955 L1186.091121585413,688.8783805013691 M1186.091121585413,688.8783805013691 L1186.343077571461,689.1377379539249 M1186.343077571461,689.1377379539249 L1186.482315573173,689.3703456144349 M1186.482315573173,689.3703456144349 L1186.5005311071702,689.5625959981608 M1186.5005311071702,689.5625959981608 L1186.3966061917517,689.7032726312805 M1186.3966061917517,689.7032726312805 L1186.1766881022786,689.784212389817 M1186.1766881022786,689.784212389817 L1185.8534337325748,689.8006354167039 M1185.8534337325748,689.8006354167039 L1185.4456490353818,689.7515709945337 M1185.4456490353818,689.7515709945337 L1184.9772924610768,689.6399576761496 M1184.9772924610768,689.6399576761496 L1184.4756368218043,689.4723040246008 M1184.4756368218043,689.4723040246008 L1183.9696223015355,689.2582861770932 M1183.9696223015355,689.2582861770932 L1183.489021047386,689.0105068524829 M1183.489021047386,689.0105068524829 L1183.0615387149664,688.7433104038739 M1183.0615387149664,688.7433104038739 L1182.7121746675425,688.472310207492 M1182.7121746675425,688.472310207492 L1182.4611426602062,688.2132402764175 M1182.4611426602062,688.2132402764175 L1182.3228174055334,687.9810808442398 M1182.3228174055334,687.9810808442398 L1182.3052940365226,687.7893366393062 M1182.3052940365226,687.7893366393062 L1182.4095319235505,687.6491081434394 M1182.4095319235505,687.6491081434394 L1182.629312468938,687.5684559817748 M1182.629312468938,687.5684559817748 L1182.9520099096808,687.5520939610358 M1182.9520099096808,687.5520939610358 L1183.3589458333556,687.600978780498 M1183.3589458333556,687.600978780498 L1183.8263566768878,687.7122132760094 M1183.8263566768878,687.7122132760094 L1184.3273914127228,687.8794532663546 M1182.6639672334195,683.1944283130711 L1190.8656490799747,675.9183228745169 M1193.8358046372805,708.1301774289318 L1177.5830333265937,701.8967839245513 M1193.8358046372805,708.1301774289318 L1185.6144154634192,715.2501110878766 M1177.5830333265937,701.8967839245513 L1169.4840569741868,709.0113960982628 M1177.5830333265937,701.8967839245513 L1177.6541853779424,701.8344744165108 M1177.6541853779424,701.8344744165108 L1177.7253909194496,701.7720400954258 M1177.7253909194496,701.7720400954258 L1177.7965964144162,701.7095279806213 M1174.3962289579667,770.9638351178849 L1183.1595618056508,763.6218163453127 M388.0163417841238,451.86778757019164 L391.4189057445933,445.07428973929916 M385.255634289766,455.7493912114786 L388.66079650168103,448.94410587411267 M201.91621192968114,380.9672395920187 L204.37241624015974,374.4111794789731 M205.14360036519315,377.66196168022714 L207.60267338547783,371.1179939247806 M-315.6035945224053,166.3539483771778 L-315.20610449525657,160.7720406042057 M-319.5364279565699,168.27239264440973 L-319.14898102297445,162.6800778592093 M-412.173273934623,130.48683309424757 L-412.0559201072267,125.10513123187627 M-408.21150829222097,128.77564845169525 L-408.08387019511565,123.40376563450229 M-488.8140579472763,96.06886711522282 L-488.89753137504545,90.8893410084948 M1194.0526054212091,707.9427796260043 L1193.9803213041869,708.0053398170453 M1193.9803213041869,708.0053398170453 L1193.9080362603927,708.067821436555 M1193.9080362603927,708.067821436555 L1193.8358046372805,708.1301774289318 M-444.01131933506633,77.19725840306205 L-443.9851082814946,72.66564040743492 M-443.9851082814946,72.66564040743492 L-443.9432167198695,72.68585045823329 M-443.9432167198695,72.68585045823329 L-443.9151327134322,72.70926445156448 M-443.9151327134322,72.70926445156448 L-443.902488528023,72.73452179863705 M-443.902488528023,72.73452179863705 L-443.9060218578354,72.76015532109295 M-443.9060218578354,72.76015532109295 L-443.9255289548462,72.7846748503303 M-443.9255289548462,72.7846748503303 L-443.9598784013622,72.80665532456703 M-443.9598784013622,72.80665532456703 L-444.00707423142023,72.82481831456602 M-444.00707423142023,72.82481831456602 L-444.0643741505178,72.83810766512568 M-444.0643741505178,72.83810766512568 L-444.1284463622351,72.84575007920705 M-444.1284463622351,72.84575007920705 L-444.19556649664185,72.84730116431922 M-444.19556649664185,72.84730116431922 L-444.26183080599765,72.84267049726355 M-444.26183080599765,72.84267049726355 L-444.32338734773066,72.83212783159115 M-444.32338734773066,72.83212783159115 L-444.37665612090564,72.81628598594051 M-444.37665612090564,72.81628598594051 L-444.4185418418904,72.79606697183647 M-444.4185418418904,72.79606697183647 L-444.4466098255625,72.77264601311964 M-444.4466098255625,72.77264601311964 L-444.4592312876571,72.74738536624125 M-444.4592312876571,72.74738536624125 L-444.45567373917766,72.72175296544032 M-444.45567373917766,72.72175296544032 L-444.43614647667505,72.69723872234658 M-444.43614647667505,72.69723872234658 L-444.40178553728106,72.67526648783439 M-444.40178553728106,72.67526648783439 L-444.3545895199786,72.65711280343686 M-444.3545895199786,72.65711280343686 L-444.2973007621637,72.64383169265739 M-444.2973007621637,72.64383169265739 L-444.23324850320626,72.63619456474044 M-444.23324850320626,72.63619456474044 L-444.1661525423276,72.63464460130922 M-444.1661525423276,72.63464460130922 L-444.09991108908366,72.63927196847249 M-444.09991108908366,72.63927196847249 L-444.03837085042346,72.64980766887754 M-444.03837085042346,72.64980766887754 L-443.9851082814946,72.66564040743492 M1176.117294632733,695.6462494564598 L1183.5012877997801,689.1256147099834 M1183.5012877997801,689.1256147099834 L1183.7032970610594,689.2110617154065 M1183.7032970610594,689.2110617154065 L1183.8952974001024,689.3100631378275 M1183.8952974001024,689.3100631378275 L1184.066263211026,689.4169184839946 M1184.066263211026,689.4169184839946 L1184.2060995967302,689.5253633420657 M1184.2060995967302,689.5253633420657 L1184.306477990183,689.6290206793399 M1184.306477990183,689.6290206793399 L1184.3620897920691,689.7220672564147 M1184.3620897920691,689.7220672564147 L1184.369233196874,689.7989149935818 M1184.369233196874,689.7989149935818 L1184.3274836484006,689.8550917132629 M1184.3274836484006,689.8550917132629 L1184.2397204480794,689.8874986046674 M1184.2397204480794,689.8874986046674 L1184.1105084157807,689.8940458726629 M1184.1105084157807,689.8940458726629 L1183.947556224757,689.8744237429139 M1183.947556224757,689.8744237429139 L1183.7605001501083,689.8298351324609 M1183.7605001501083,689.8298351324609 L1183.5600921991177,689.7628246624461 M1183.5600921991177,689.7628246624461 L1183.35779493793,689.6772212563949 M1183.35779493793,689.6772212563949 L1183.165780218908,689.5781592554488 M1183.165780218908,689.5781592554488 L1182.994871618374,689.4712752002918 M1182.994871618374,689.4712752002918 L1182.8553561940105,689.3629178880101 M1182.8553561940105,689.3629178880101 L1182.7549200950323,689.2592287357638 M1182.7549200950323,689.2592287357638 L1182.6994542362,689.1662538812725 M1182.6994542362,689.1662538812725 L1182.6924214095527,689.08948710451 M1182.6924214095527,689.08948710451 L1182.7342207867673,689.0333819976415 M1182.7342207867673,689.0333819976415 L1182.822167345117,689.0010989183779 M1182.822167345117,689.0010989183779 L1182.9510851228738,688.994483658143 M1182.9510851228738,688.994483658143 L1183.1139016263426,689.0140770393989 M1183.1139016263426,689.0140770393989 L1183.3008066172824,689.0586050832214 M1183.3008066172824,689.0586050832214 L1183.5012877997801,689.1256147099834 M-443.68842268235665,72.01990761205383 L-443.69158000715265,72.55270724258196 M-443.69158000715265,72.55270724258196 L-443.5868417366752,72.60321583357802 M-443.5868417366752,72.60321583357802 L-443.51660104390885,72.66173743895604 M-443.51660104390885,72.66173743895604 L-443.4849482624379,72.72487480031828 M-443.4849482624379,72.72487480031828 L-443.4937360848613,72.78896045845255 M-443.4937360848613,72.78896045845255 L-443.54246618587115,72.85026941160532 M-443.54246618587115,72.85026941160532 L-443.6283173935665,72.90523580288038 M-443.6283173935665,72.90523580288038 L-443.74630660728894,72.95066073768186 M-443.74630660728894,72.95066073768186 L-443.88957668504077,72.98389925275666 M-443.88957668504077,72.98389925275666 L-444.0497952090775,73.00301528040723 M-444.0497952090775,73.00301528040723 L-444.21764024087383,73.00689506238524 M-444.21764024087383,73.00689506238524 L-444.3833443637295,72.99531230950913 M-444.3833443637295,72.99531230950913 L-444.537265457569,72.96894232250696 M-444.537265457569,72.96894232250696 L-444.67044969127676,72.92932122177882 M-444.67044969127676,72.92932122177882 L-444.77515245169184,72.87875623256514 M-444.77515245169184,72.87875623256514 L-444.84529319272474,72.82019102202685 M-444.84529319272474,72.82019102202685 L-444.8768037635715,72.75703310876514 M-444.8768037635715,72.75703310876514 L-444.86786466996625,72.69295442511475 M-444.86786466996625,72.69295442511475 L-444.8190085343542,72.63167851055294 M-444.8190085343542,72.63167851055294 L-444.7330854963851,72.57676361738612 M-444.7330854963851,72.57676361738612 L-444.61509511237114,72.53139684261532 M-444.61509511237114,72.53139684261532 L-444.4718947924216,72.49820982564881 M-444.4718947924216,72.49820982564881 L-444.31180097341553,72.47912683662815 M-444.31180097341553,72.47912683662815 L-444.144106930709,72.47525410097182 M-444.144106930709,72.47525410097182 L-443.97854584847414,72.48681615795181 M-443.97854584847414,72.48681615795181 L-443.8247264582901,72.51314268342776 M-443.8247264582901,72.51314268342776 L-443.69158000715265,72.55270724258196 M1184.3273914127228,687.8794532663546 L1183.457225445257,688.6481509292657 M1183.457225445257,688.6481509292657 L1183.9620938756302,688.861623094446 M1183.9620938756302,688.861623094446 L1184.4421702196883,689.1090507916244 M1184.4421702196883,689.1090507916244 L1184.8695893103084,689.37609706088 M1184.8695893103084,689.37609706088 L1185.2192944488047,689.6471879943856 M1185.2192944488047,689.6471879943856 L1185.4709282650547,689.9065738183508 M1185.4709282650547,689.9065738183508 L1185.609923344954,690.1392068734322 M1185.609923344954,690.1392068734322 L1185.6279895419138,690.3314782096372 M1185.6279895419138,690.3314782096372 L1185.5240176478346,690.4721701537233 M1185.5240176478346,690.4721701537233 L1185.3041576163585,690.5531187136439 M1185.3041576163585,690.5531187136439 L1184.9810630819545,690.5695435256621 M1184.9810630819545,690.5695435256621 L1184.5735306843935,690.5204737696354 M1184.5735306843935,690.5204737696354 L1184.1055039716055,690.4088483096862 M1184.1055039716055,690.4088483096862 L1183.6042364979787,690.2411763996477 M1183.6042364979787,690.2411763996477 L1183.0986460138172,690.0271352081586 M1183.0986460138172,690.0271352081586 L1182.6184796862667,689.7793288063929 M1182.6184796862667,689.7793288063929 L1182.1914180505737,689.5121030978382 M1182.1914180505737,689.5121030978382 L1181.8424358928128,689.24107316042 M1181.8424358928128,689.24107316042 L1181.5917248660342,688.9819747368226 M1181.5917248660342,688.9819747368226 L1181.45364123932,688.7497897212654 M1181.45364123932,688.7497897212654 L1181.4362661056039,688.5580243506331 M1181.4362661056039,688.5580243506331 L1181.5405503141276,688.4177803550297 M1181.5405503141276,688.4177803550297 L1181.7602727389642,688.3371192708355 M1181.7602727389642,688.3371192708355 L1182.0828108913138,688.3207554392675 M1182.0828108913138,688.3207554392675 L1182.4894955465159,688.369645668241 M1182.4894955465159,688.369645668241 L1182.9565778070667,688.4808924648905 M1182.9565778070667,688.4808924648905 L1183.457225445257,688.6481509292657" stroke="black"  stroke-width="4"  fill="red"/>
<path d="M1185.6144154634192,715.2501110878766 L1192.0176119249331,784.818806592506 M1185.6144154634192,715.2501110878766 L1169.4840569741868,709.0113960982628 M1174.9425520383377,777.8540758165857 L1169.4840569741868,709.0113960982628 M1192.0176119249331,784.818806592506 L1174.9425520383377,777.8540758165857 M1193.8358046372805,708.1301774289318 L1185.6144154634192,715.2501110878766 M1235.893447000879,653.7647341798083 L1234.270403737723,657.0825641824249 M1234.270403737723,657.0825641824249 L1232.501629373402,660.4453079575262 M1232.501629373402,660.4453079575262 L1230.5933557452945,663.8409625140614 M1230.5933557452945,663.8409625140614 L1228.5524268247718,667.2573417921626 M1228.5524268247718,667.2573417921626 L1226.386118115326,670.6822632406722 M1226.386118115326,670.6822632406722 L1224.1023481668622,674.1033948365582 M1224.1023481668622,674.1033948365582 L1221.7093813548845,677.5085360360918 M1221.7093813548845,677.5085360360918 L1219.2158675626933,680.8856086607909 M1219.2158675626933,680.8856086607909 L1216.6309903646006,684.2225444974417 M1216.6309903646006,684.2225444974417 L1213.964112025366,687.5076120846261 M1213.964112025366,687.5076120846261 L1211.2248654168402,690.7293505745783 M1211.2248654168402,690.7293505745783 L1208.4232432681356,693.8764998653182 M1208.4232432681356,693.8764998653182 L1205.5692998784016,696.9382675534946 M1205.5692998784016,696.9382675534946 L1202.673241701662,699.9042535455314 M1202.673241701662,699.9042535455314 L1199.745406645834,702.7644676953055 M1199.745406645834,702.7644676953055 L1196.7961347282776,705.5094388984753 M1196.7961347282776,705.5094388984753 L1193.8358046372805,708.1301774289318 M1236.1252607277715,653.2704115868114 L1236.0737559524791,653.2950057742812 M1236.0737559524791,653.2950057742812 L1236.0184946189092,653.332546670392 M1236.0184946189092,653.332546670392 L1235.9626596495464,653.3808784957562 M1235.9626596495464,653.3808784957562 L1235.9095833565852,653.4371110846212 M1235.9095833565852,653.4371110846212 L1235.8622977318296,653.4980253980036 M1235.8622977318296,653.4980253980036 L1235.823593950056,653.560041922701 M1235.823593950056,653.560041922701 L1235.795636897063,653.6196308161136 M1235.795636897063,653.6196308161136 L1235.780146905971,653.67324907432 M1235.780146905971,653.67324907432 L1235.777905709177,653.7178823536929 M1235.777905709177,653.7178823536929 L1235.7891698721037,653.7508306314992 M1235.7891698721037,653.7508306314992 L1235.8132355701377,653.7702216282032 M1235.8132355701377,653.7702216282032 L1235.8486825097584,653.7749466537157 M1235.8486825097584,653.7749466537157 L1235.893447000879,653.7647341798083 M1279.051525097309,597.6844015766667 L1275.887523397022,600.5573861898865 M1275.887523397022,600.5573861898865 L1272.7650395416194,603.5249903426532 M1272.7650395416194,603.5249903426532 L1269.692453919094,606.5785705532144 M1269.692453919094,606.5785705532144 L1266.6781757424392,609.7091520458141 M1266.6781757424392,609.7091520458141 L1263.7301983263442,612.9078376064476 M1263.7301983263442,612.9078376064476 L1260.8563498976605,616.1655790570162 M1260.8563498976605,616.1655790570162 L1258.0642007421438,619.473284528945 M1258.0642007421438,619.473284528945 L1255.361196564017,622.8216967260676 M1255.361196564017,622.8216967260676 L1252.7543933044717,626.2016441799592 M1252.7543933044717,626.2016441799592 L1250.2505356470633,629.6039782753726 M1250.2505356470633,629.6039782753726 L1247.8563609316798,633.0193100727699 M1247.8563609316798,633.0193100727699 L1245.5780478659217,636.4385012979535 M1245.5780478659217,636.4385012979535 L1243.4216349450562,639.8523105471588 M1243.4216349450562,639.8523105471588 L1241.3928659372878,643.2515309524413 M1241.3928659372878,643.2515309524413 L1239.4972063390323,646.6269850176272 M1239.4972063390323,646.6269850176272 L1237.7397439418896,649.969609292373 M1237.7397439418896,649.969609292373 L1236.1252607277715,653.2704115868114 M1296.4482277711886,691.1707790831992 L1279.051525097309,597.6844015766667 M1242.2887060106132,735.8519700736431 L1296.4482277711886,691.1707790831992 M1243.2333636295402,742.7990930713536 L1242.2887060106132,735.8519700736431 M1192.0176119249331,784.818806592506 L1243.2333636295402,742.7990930713536 M1193.8358046372805,708.1301774289318 L1177.5830333265937,701.8967839245513 M1177.5830333265937,701.8967839245513 L1169.4840569741868,709.0113960982628 M1174.9425520383377,777.8540758165857 L1225.3467708893554,735.8519534725001 M1224.5058885035646,728.9813990441253 L1225.3467708893554,735.8519534725001 M1224.5058885035646,728.9813990441253 L1277.793576607798,684.3363749182145 M1261.931324002866,591.8691340987154 L1277.793576607798,684.3363749182145 M1261.931324002866,591.8691340987154 L1258.8141809270528,594.7373634219002 M1258.8141809270528,594.7373634219002 L1255.7363494438805,597.6991105580432 M1255.7363494438805,597.6991105580432 L1252.7061047063457,600.7457509379008 M1252.7061047063457,600.7457509379008 L1249.7317541580028,603.8683306903893 M1249.7317541580028,603.8683306903893 L1246.8211992279162,607.0579748580699 M1246.8211992279162,607.0579748580699 L1243.9821823473098,610.3056593167739 M1243.9821823473098,610.3056593167739 L1241.222195106454,613.6023177770649 M1241.222195106454,613.6023177770649 L1238.5486095678816,616.9387203187835 M1238.5486095678816,616.9387203187835 L1235.9684167740033,620.3057242618836 M1235.9684167740033,620.3057242618836 L1233.4883039087754,623.6942113194318 M1233.4883039087754,623.6942113194318 L1231.1149535220434,627.0948248054328 M1231.1149535220434,627.0948248054328 L1228.8545003617278,630.4984600548125 M1228.8545003617278,630.4984600548125 L1226.7129432766355,633.8959110528913 M1226.7129432766355,633.8959110528913 L1224.6959929297946,637.2780080099883 M1224.6959929297946,637.2780080099883 L1222.8090878354687,640.635612224924 M1222.8090878354687,640.635612224924 L1221.0572963869158,643.9597007777149 M1221.0572963869158,643.9597007777149 L1219.4453873880234,647.2413237256605 M1219.2137100757427,647.7327014392713 L1219.1699493136443,647.743140169242 M1219.1699493136443,647.743140169242 L1219.135444058937,647.7387137827102 M1219.135444058937,647.7387137827102 L1219.1122032267072,647.7196764444736 M1219.1122032267072,647.7196764444736 L1219.1015988479307,647.6871162980099 M1219.1015988479307,647.6871162980099 L1219.1042956675283,647.6428831061294 M1219.1042956675283,647.6428831061294 L1219.1200125923056,647.5896535592769 M1219.1200125923056,647.5896535592769 L1219.1479529024614,647.5304195146616 M1219.1479529024614,647.5304195146616 L1219.1863987111183,647.468703304258 M1219.1863987111183,647.468703304258 L1219.2331988561264,647.408017414738 M1219.2331988561264,647.408017414738 L1219.285590995507,647.351928035521 M1219.285590995507,647.351928035521 L1219.340582133424,647.3036459676048 M1219.340582133424,647.3036459676048 L1219.3948902469751,647.2660583554475 M1219.3948902469751,647.2660583554475 L1219.4453873880234,647.2413237256605 M1177.5830333265937,701.8967839245513 L1180.4998302276445,699.2785893436333 M1180.4998302276445,699.2785893436333 L1183.407199090135,696.5374661564924 M1183.407199090135,696.5374661564924 L1186.2949212579285,693.6823955353398 M1186.2949212579285,693.6823955353398 L1189.152810960685,690.7228341690097 M1189.152810960685,690.7228341690097 L1191.9706791384244,687.6687518717174 M1191.9706791384244,687.6687518717174 L1194.7384607144418,684.5305225992292 M1194.7384607144418,684.5305225992292 L1197.446234871907,681.3189068864397 M1197.446234871907,681.3189068864397 L1200.0841357527765,678.0451272687042 M1200.0841357527765,678.0451272687042 L1202.6426462450117,674.720601730704 M1202.6426462450117,674.720601730704 L1205.1125100353302,671.3570136821625 M1205.1125100353302,671.3570136821625 L1207.4846411142712,667.9663782593348 M1207.4846411142712,667.9663782593348 L1209.750473534884,664.560716134376 M1209.750473534884,664.560716134376 L1211.901815528267,661.1521660798066 M1211.901815528267,661.1521660798066 L1213.930810605173,657.7529944204159 M1213.930810605173,657.7529944204159 L1215.8302304638692,654.3753146978838 M1215.8302304638692,654.3753146978838 L1217.593266924819,651.0312408955558 M1217.593266924819,651.0312408955558 L1219.2137100757427,647.7327014392713 M1225.3467708893554,735.8519534725001 L1243.2333636295402,742.7990930713536 M1235.893447000879,653.7647341798083 L1219.2137100757427,647.7327014392713 M1236.1252607277715,653.2704115868114 L1219.4453873880234,647.2413237256605 M1279.051525097309,597.6844015766667 L1261.931324002866,591.8691340987154 M1296.4482277711886,691.1707790831992 L1277.793576607798,684.3363749182145 M1242.2887060106132,735.8519700736431 L1224.5058885035646,728.9813990441253" stroke="black"  stroke-width="4"  fill="red"/>
<path d="M1176.117294632733,695.6462494564598 L1183.5012877997801,689.1256147099834 M1183.5012877997801,689.1256147099834 L1183.7032970610594,689.2110617154065 M1183.7032970610594,689.2110617154065 L1183.8952974001024,689.3100631378275 M1183.8952974001024,689.3100631378275 L1184.066263211026,689.4169184839946 M1184.066263211026,689.4169184839946 L1184.2060995967302,689.5253633420657 M1184.2060995967302,689.5253633420657 L1184.306477990183,689.6290206793399 M1184.306477990183,689.6290206793399 L1184.3620897920691,689.7220672564147 M1184.3620897920691,689.7220672564147 L1184.369233196874,689.7989149935818 M1184.369233196874,689.7989149935818 L1184.3274836484006,689.8550917132629 M1184.3274836484006,689.8550917132629 L1184.2397204480794,689.8874986046674 M1184.2397204480794,689.8874986046674 L1184.1105084157807,689.8940458726629 M1184.1105084157807,689.8940458726629 L1183.947556224757,689.8744237429139 M1183.947556224757,689.8744237429139 L1183.7605001501083,689.8298351324609 M1183.7605001501083,689.8298351324609 L1183.5600921991177,689.7628246624461 M1183.5600921991177,689.7628246624461 L1183.35779493793,689.6772212563949 M1183.35779493793,689.6772212563949 L1183.165780218908,689.5781592554488 M1183.165780218908,689.5781592554488 L1182.994871618374,689.4712752002918 M1182.994871618374,689.4712752002918 L1182.8553561940105,689.3629178880101 M1182.8553561940105,689.3629178880101 L1182.7549200950323,689.2592287357638 M1182.7549200950323,689.2592287357638 L1182.6994542362,689.1662538812725 M1182.6994542362,689.1662538812725 L1182.6924214095527,689.08948710451 M1182.6924214095527,689.08948710451 L1182.7342207867673,689.0333819976415 M1182.7342207867673,689.0333819976415 L1182.822167345117,689.0010989183779 M1182.822167345117,689.0010989183779 L1182.9510851228738,688.994483658143 M1182.9510851228738,688.994483658143 L1183.1139016263426,689.0140770393989 M1183.1139016263426,689.0140770393989 L1183.3008066172824,689.0586050832214 M1183.3008066172824,689.0586050832214 L1183.5012877997801,689.1256147099834 M1176.117294632733,695.6462494564598 L1175.9181268387633,695.5791791492263 M1175.9181268387633,695.5791791492263 L1175.7323363166,695.5346107644395 M1175.7323363166,695.5346107644395 L1175.5703730522673,695.5149996274956 M1175.5703730522673,695.5149996274956 L1175.441995353357,695.5216208828581 M1175.441995353357,695.5216208828581 L1175.3542472080483,695.5539332141777 M1175.3542472080483,695.5539332141777 L1175.312292577593,695.6100891398762 M1175.312292577593,695.6100891398762 L1175.3188237225984,695.6869254120575 M1175.3188237225984,695.6869254120575 L1175.373470494171,695.7799843755274 M1175.373470494171,695.7799843755274 L1175.4728192784803,695.8837672527525 M1175.4728192784803,695.8837672527525 L1175.6110426613,695.9922224232623 M1175.6110426613,695.9922224232623 L1175.7805266819623,696.0992029197134 M1175.7805266819623,696.0992029197134 L1175.9710694885862,696.1983542274863 M1175.9710694885862,696.1983542274863 L1176.1719308014865,696.2840347477256 M1176.1719308014865,696.2840347477256 L1176.3710250985507,696.3511055444199 M1176.3710250985507,696.3511055444199 L1176.5569649768279,696.3957342774115 M1176.5569649768279,696.3957342774115 L1176.7190625335609,696.4153740591707 M1176.7190625335609,696.4153740591707 L1176.84773234563,696.4088209015938 M1176.84773234563,696.4088209015938 L1176.935298617713,696.3763848538945 M1176.935298617713,696.3763848538945 L1176.9772043040891,696.3201575736452 M1176.9772043040891,696.3201575736452 L1176.9705640687341,696.2432406330324 M1176.9705640687341,696.2432406330324 L1176.9157731035175,696.150110205637 M1176.9157731035175,696.150110205637 L1176.81648223056,696.0463593793986 M1176.81648223056,696.0463593793986 L1176.6779403871183,695.9378166280705 M1176.6779403871183,695.9378166280705 L1176.5083994953259,695.8308647370741 M1176.5083994953259,695.8308647370741 L1176.317870569994,695.7317737893577 M1176.317870569994,695.7317737893577 L1176.117294632733,695.6462494564598 M1183.457225445257,688.6481509292657 L1183.9620938756302,688.861623094446 M1183.9620938756302,688.861623094446 L1184.4421702196883,689.1090507916244 M1184.4421702196883,689.1090507916244 L1184.8695893103084,689.37609706088 M1184.8695893103084,689.37609706088 L1185.2192944488047,689.6471879943856 M1185.2192944488047,689.6471879943856 L1185.4709282650547,689.9065738183508 M1185.4709282650547,689.9065738183508 L1185.609923344954,690.1392068734322 M1185.609923344954,690.1392068734322 L1185.6279895419138,690.3314782096372 M1185.6279895419138,690.3314782096372 L1185.5240176478346,690.4721701537233 M1185.5240176478346,690.4721701537233 L1185.3041576163585,690.5531187136439 M1185.3041576163585,690.5531187136439 L1184.9810630819545,690.5695435256621 M1184.9810630819545,690.5695435256621 L1184.5735306843935,690.5204737696354 M1184.5735306843935,690.5204737696354 L1184.1055039716055,690.4088483096862 M1184.1055039716055,690.4088483096862 L1183.6042364979787,690.2411763996477 M1183.6042364979787,690.2411763996477 L1183.0986460138172,690.0271352081586 M1183.0986460138172,690.0271352081586 L1182.6184796862667,689.7793288063929 M1182.6184796862667,689.7793288063929 L1182.1914180505737,689.5121030978382 M1182.1914180505737,689.5121030978382 L1181.8424358928128,689.24107316042 M1181.8424358928128,689.24107316042 L1181.5917248660342,688.9819747368226 M1181.5917248660342,688.9819747368226 L1181.45364123932,688.7497897212654 M1181.45364123932,688.7497897212654 L1181.4362661056039,688.5580243506331 M1181.4362661056039,688.5580243506331 L1181.5405503141276,688.4177803550297 M1181.5405503141276,688.4177803550297 L1181.7602727389642,688.3371192708355 M1181.7602727389642,688.3371192708355 L1182.0828108913138,688.3207554392675 M1182.0828108913138,688.3207554392675 L1182.4894955465159,688.369645668241 M1182.4894955465159,688.369645668241 L1182.9565778070667,688.4808924648905 M1182.9565778070667,688.4808924648905 L1183.457225445257,688.6481509292657 M1184.3273914127228,687.8794532663546 L1184.8326828078684,688.0929018890697 M1184.8326828078684,688.0929018890697 L1185.31319370789,688.340302349503 M1185.31319370789,688.340302349503 L1185.7410337447434,688.6073192831955 M1185.7410337447434,688.6073192831955 L1186.091121585413,688.8783805013691 M1186.091121585413,688.8783805013691 L1186.343077571461,689.1377379539249 M1186.343077571461,689.1377379539249 L1186.482315573173,689.3703456144349 M1186.482315573173,689.3703456144349 L1186.5005311071702,689.5625959981608 M1186.5005311071702,689.5625959981608 L1186.3966061917517,689.7032726312805 M1186.3966061917517,689.7032726312805 L1186.1766881022786,689.784212389817 M1186.1766881022786,689.784212389817 L1185.8534337325748,689.8006354167039 M1185.8534337325748,689.8006354167039 L1185.4456490353818,689.7515709945337 M1185.4456490353818,689.7515709945337 L1184.9772924610768,689.6399576761496 M1184.9772924610768,689.6399576761496 L1184.4756368218043,689.4723040246008 M1184.4756368218043,689.4723040246008 L1183.9696223015355,689.2582861770932 M1183.9696223015355,689.2582861770932 L1183.489021047386,689.0105068524829 M1183.489021047386,689.0105068524829 L1183.0615387149664,688.7433104038739 M1183.0615387149664,688.7433104038739 L1182.7121746675425,688.472310207492 M1182.7121746675425,688.472310207492 L1182.4611426602062,688.2132402764175 M1182.4611426602062,688.2132402764175 L1182.3228174055334,687.9810808442398 M1182.3228174055334,687.9810808442398 L1182.3052940365226,687.7893366393062 M1182.3052940365226,687.7893366393062 L1182.4095319235505,687.6491081434394 M1182.4095319235505,687.6491081434394 L1182.629312468938,687.5684559817748 M1182.629312468938,687.5684559817748 L1182.9520099096808,687.5520939610358 M1182.9520099096808,687.5520939610358 L1183.3589458333556,687.600978780498 M1183.3589458333556,687.600978780498 L1183.8263566768878,687.7122132760094 M1183.8263566768878,687.7122132760094 L1184.3273914127228,687.8794532663546 M1184.3273914127228,687.8794532663546 L1183.457225445257,688.6481509292657" stroke="black"  stroke-width="4"  fill="red"/>
<path d="M-452.1452370769799,81.8162230246312 L-492.77730906120235,97.60932590903656 M-452.1452370769799,81.8162230246312 L-455.9243185649325,80.35459324488374 M-496.55396917192866,96.06886742291329 L-455.9243185649325,80.35459324488374 M-492.77730906120235,97.60932590903656 L-496.55396917192866,96.06886742291329 M-492.77730906120235,97.60932590903656 L-493.3064668938508,68.32828709655496 M-493.3064668938508,68.32828709655496 L-489.285096030781,66.84095452099768 M-489.285096030781,66.84095452099768 L-489.76982240046607,36.76368378345228 M-489.76982240046607,36.76368378345228 L-431.9578440123652,16.500974830404914 M-431.9578440123652,16.500974830404914 L-432.0153660453192,18.361268496584728 M-432.0153660453192,18.361268496584728 L-432.14584151583915,20.23844396095012 M-432.14584151583915,20.23844396095012 L-432.34870953236384,22.126964153870233 M-432.34870953236384,22.126964153870233 L-432.62320857273323,24.021149103270773 M-432.62320857273323,24.021149103270773 L-432.96838585461046,25.915444677112703 M-432.96838585461046,25.915444677112703 L-433.38309116784285,27.804279705666488 M-433.38309116784285,27.804279705666488 L-433.86599064707,29.68213286835089 M-433.86599064707,29.68213286835089 L-434.41556359071956,31.543458828934945 M-434.41556359071956,31.543458828934945 L-435.0301133758412,33.38285450191506 M-435.0301133758412,33.38285450191506 L-435.707771206904,35.19502089406552 M-435.707771206904,35.19502089406552 L-436.44649825543,36.97459108192015 M-436.44649825543,36.97459108192015 L-437.24409225628096,38.71646207812984 M-437.24409225628096,38.71646207812984 L-438.09819566584315,40.41555826201488 M-438.09819566584315,40.41555826201488 L-439.00629918082086,42.06692825426916 M-439.00629918082086,42.06692825426916 L-439.96574919527757,43.665743102173906 M-439.96574919527757,43.665743102173906 L-440.97374939284464,45.20735938761345 M-440.97374939284464,45.20735938761345 L-442.0273747922755,46.687287249687074 M-442.0273747922755,46.687287249687074 L-442.01615477991413,46.7120393713501 M-442.01615477991413,46.7120393713501 L-442.01031072690967,46.74170068463434 M-442.01031072690967,46.74170068463434 L-442.01018323254607,46.774564567476205 M-442.01018323254607,46.774564567476205 L-442.01577706085095,46.80866780597114 M-442.01577706085095,46.80866780597114 L-442.0267690470291,46.84205988639417 M-442.0267690470291,46.84205988639417 L-442.0425192532748,46.87277365001387 M-442.0425192532748,46.87277365001387 L-442.06211258722203,46.899073630683915 M-442.06211258722203,46.899073630683915 L-442.08441176654173,46.919375513316595 M-442.08441176654173,46.919375513316595 L-442.10811971687235,46.932568816463004 M-442.10811971687235,46.932568816463004 L-442.13186035062927,46.937813486102755 M-442.13186035062927,46.937813486102755 L-442.15425360365543,46.93483406283542 M-442.15425360365543,46.93483406283542 L-442.17399768865425,46.92381686449511 M-442.17399768865425,46.92381686449511 L-442.1899452588759,46.90540486938312 M-442.1899452588759,46.90540486938312 L-443.24844366157663,48.392416748099436 M-443.24844366157663,48.392416748099436 L-444.2612902911487,49.94227365234775 M-444.2612902911487,49.94227365234775 L-445.2250731908164,51.549800491023916 M-445.2250731908164,51.549800491023916 L-446.1365536215817,53.209586601482044 M-446.1365536215817,53.209586601482044 L-446.9926786313879,54.9160943117231 M-446.9926786313879,54.9160943117231 L-447.79059441495747,56.66353556499507 M-447.79059441495747,56.66353556499507 L-448.52765611575285,58.44604681523424 M-448.52765611575285,58.44604681523424 L-449.2014394297174,60.25766538270136 M-449.2014394297174,60.25766538270136 L-449.80974747885216,62.092238398795985 M-449.80974747885216,62.092238398795985 L-450.3506202654321,63.94363110479003 M-450.3506202654321,63.94363110479003 L-450.82234152579395,65.80566898813322 M-450.82234152579395,65.80566898813322 L-451.2234427355693,67.67207945400065 M-451.2234427355693,67.67207945400065 L-451.5527086838848,69.53666506664564 M-451.5527086838848,69.53666506664564 L-451.8091803584466,71.39324438677329 M-451.8091803584466,71.39324438677329 L-451.9921565920099,73.23565843434642 M-451.9921565920099,73.23565843434642 L-452.1011949192954,75.05784221803003 M-452.1011949192954,75.05784221803003 L-452.1361110668058,76.85379682815721 M-452.1361110668058,76.85379682815721 L-452.1452370769799,81.8162230246312 M-452.1361110668058,76.85379682815721 L-455.9243180882645,75.40091321899195 M-455.9243180882645,75.40091321899195 L-455.9243185649325,80.35459324488374 M-455.9243180882645,75.40091321899195 L-455.8926820168749,73.60817700753864 M-455.8926820168749,73.60817700753864 L-455.7869194293139,71.78935571437148 M-455.7869194293139,71.78935571437148 L-455.6072040865047,69.95043683904584 M-455.6072040865047,69.95043683904584 L-455.35396793974496,68.09747342217292 M-455.35396793974496,68.09747342217292 L-455.0279015837847,66.23661191255542 M-455.0279015837847,66.23661191255542 L-454.6299535259999,64.37402077785259 M-454.6299535259999,64.37402077785259 L-454.1613285469275,62.51588406857206 M-454.1613285469275,62.51588406857206 L-453.6234847016224,60.66846049184659 M-453.6234847016224,60.66846049184659 L-453.01812805947134,58.83791050213904 M-453.01812805947134,58.83791050213904 L-452.34720858895184,57.03035454598057 M-452.34720858895184,57.03035454598057 L-451.6129131937113,55.25193084513762 M-451.6129131937113,55.25193084513762 L-450.81765663869123,53.50858750072865 M-450.81765663869123,53.50858750072865 L-449.96407450806123,51.80617340910413 M-449.96407450806123,51.80617340910413 L-449.055011554859,50.15046189269793 M-449.055011554859,50.15046189269793 L-448.0935122217561,48.546976148253066 M-448.0935122217561,48.546976148253066 L-447.08280705149275,47.00111242937709 M-447.08280705149275,47.00111242937709 L-446.0263003180585,45.51803170965172 M-446.0263003180585,45.51803170965172 L-446.0103071514276,45.536428744431305 M-446.0103071514276,45.536428744431305 L-445.990528427654,45.547448827633616 M-445.990528427654,45.547448827633616 L-445.96811351112353,45.55044881701349 M-445.96811351112353,45.55044881701349 L-445.9443654728665,45.54524122175002 M-445.9443654728665,45.54524122175002 L-445.92066486246085,45.53209939863973 M-445.92066486246085,45.53209939863973 L-445.8983872046987,45.51186027833194 M-445.8983872046987,45.51186027833194 L-445.87882845346167,45.485630819846506 M-445.87882845346167,45.485630819846506 L-445.8631237776207,45.45499114078274 M-445.8631237776207,45.45499114078274 L-445.8521857155579,45.42167249325553 M-445.8521857155579,45.42167249325553 L-445.84665102301744,45.3876377201471 M-445.84665102301744,45.3876377201471 L-445.84683948459224,45.35483341670806 M-445.84683948459224,45.35483341670806 L-445.85274269559454,45.32521923503009 M-445.85274269559454,45.32521923503009 L-445.86401664893333,45.30049909042475 M-435.84329269492605,15.181193407493936 L-435.8973883900974,17.03795067102243 M-435.8973883900974,17.03795067102243 L-436.02445957915177,18.91148560786587 M-436.02445957915177,18.91148560786587 L-436.2239556655443,20.79627140896781 M-436.2239556655443,20.79627140896781 L-436.49512547391237,22.686638757818002 M-436.49512547391237,22.686638757818002 L-436.8370261223206,24.577044074142805 M-436.8370261223206,24.577044074142805 L-437.24851711336066,26.461926920855376 M-437.24851711336066,26.461926920855376 L-437.7282739901365,28.335776764216178 M-437.7282739901365,28.335776764216178 L-438.2747852894024,30.193059261691246 M-438.2747852894024,30.193059261691246 L-438.88636315474037,32.02838222327108 M-438.88636315474037,32.02838222327108 L-439.5611471603331,33.836457533652265 M-439.5611471603331,33.836457533652265 L-440.2971067740759,35.6119294561197 M-440.2971067740759,35.6119294561197 L-441.0920473443082,37.34970589682899 M-441.0920473443082,37.34970589682899 L-441.9436187079398,39.04472227331314 M-441.9436187079398,39.04472227331314 L-442.84931853636044,40.692038220769746 M-442.84931853636044,40.692038220769746 L-443.8064998068852,42.286835784789446 M-443.8064998068852,42.286835784789446 L-444.8123722854489,43.82448242481746 M-444.8123722854489,43.82448242481746 L-445.86401664893333,45.30049909042475 M-435.84329269492605,15.181193407493936 L-493.6539478500579,35.34067764318678 M-493.1149777131459,65.36124107722503 L-493.6539478500579,35.34067764318678 M-493.1149777131459,65.36124107722503 L-497.13585686883425,66.84095481806617 M-496.55396917192866,96.06886742291329 L-497.13585686883425,66.84095481806617 M-497.13585686883425,66.84095481806617 L-493.3064668938508,68.32828709655496 M-442.1899452588759,46.90540486938312 L-446.0263003180585,45.51803170965172 M-442.0273747922755,46.687287249687074 L-445.86401664893333,45.30049909042475 M-431.9578440123652,16.500974830404914 L-435.84329269492605,15.181193407493936 M-489.76982240046607,36.76368378345228 L-493.6539478500579,35.34067764318678 M-489.285096030781,66.84095452099768 L-493.1149777131459,65.36124107722503" stroke="black"  stroke-width="4"  fill="red"/>
<path d="M-444.01131933506633,77.19725840306205 L-443.9851082814946,72.66564040743492 M-443.9851082814946,72.66564040743492 L-443.9432167198695,72.68585045823329 M-443.9432167198695,72.68585045823329 L-443.9151327134322,72.70926445156448 M-443.9151327134322,72.70926445156448 L-443.902488528023,72.73452179863705 M-443.902488528023,72.73452179863705 L-443.9060218578354,72.76015532109295 M-443.9060218578354,72.76015532109295 L-443.9255289548462,72.7846748503303 M-443.9255289548462,72.7846748503303 L-443.9598784013622,72.80665532456703 M-443.9598784013622,72.80665532456703 L-444.00707423142023,72.82481831456602 M-444.00707423142023,72.82481831456602 L-444.0643741505178,72.83810766512568 M-444.0643741505178,72.83810766512568 L-444.1284463622351,72.84575007920705 M-444.1284463622351,72.84575007920705 L-444.19556649664185,72.84730116431922 M-444.19556649664185,72.84730116431922 L-444.26183080599765,72.84267049726355 M-444.26183080599765,72.84267049726355 L-444.32338734773066,72.83212783159115 M-444.32338734773066,72.83212783159115 L-444.37665612090564,72.81628598594051 M-444.37665612090564,72.81628598594051 L-444.4185418418904,72.79606697183647 M-444.4185418418904,72.79606697183647 L-444.4466098255625,72.77264601311964 M-444.4466098255625,72.77264601311964 L-444.4592312876571,72.74738536624125 M-444.4592312876571,72.74738536624125 L-444.45567373917766,72.72175296544032 M-444.45567373917766,72.72175296544032 L-444.43614647667505,72.69723872234658 M-444.43614647667505,72.69723872234658 L-444.40178553728106,72.67526648783439 M-444.40178553728106,72.67526648783439 L-444.3545895199786,72.65711280343686 M-444.3545895199786,72.65711280343686 L-444.2973007621637,72.64383169265739 M-444.2973007621637,72.64383169265739 L-444.23324850320626,72.63619456474044 M-444.23324850320626,72.63619456474044 L-444.1661525423276,72.63464460130922 M-444.1661525423276,72.63464460130922 L-444.09991108908366,72.63927196847249 M-444.09991108908366,72.63927196847249 L-444.03837085042346,72.64980766887754 M-444.03837085042346,72.64980766887754 L-443.9851082814946,72.66564040743492 M-444.01131933506633,77.19725840306205 L-444.0644642681614,77.18133774254807 M-444.0644642681614,77.18133774254807 L-444.12586894112417,77.17074353451153 M-444.12586894112417,77.17074353451153 L-444.1919647742085,77.16609047004499 M-444.1919647742085,77.16609047004499 L-444.25891351250664,77.16764904095487 M-444.25891351250664,77.16764904095487 L-444.3228254954199,77.1753285801974 M-444.3228254954199,77.1753285801974 L-444.37998906646,77.18868344402841 M-444.37998906646,77.18868344402841 L-444.4270822592015,77.2069379378363 M-444.4270822592015,77.2069379378363 L-444.4613687109652,77.22903218325393 M-444.4613687109652,77.22903218325393 L-444.48085415754394,77.25368254860967 M-444.48085415754394,77.25368254860967 L-444.48440499840467,77.27945727569698 M-444.48440499840467,77.27945727569698 L-444.4718123369307,77.30485817980048 M-444.4718123369307,77.30485817980048 L-444.44380699484304,77.32840917674383 M-444.44380699484304,77.32840917674383 L-444.40201412418446,77.34874044784794 M-444.40201412418446,77.34874044784794 L-444.3488630140431,77.36467024607441 M-444.3488630140431,77.36467024607441 L-444.28744210982586,77.37527144267523 M-444.28744210982586,77.37527144267523 L-444.2213235210313,77.37992781807151 M-444.2213235210313,77.37992781807151 L-444.1543507151911,77.37836812172901 M-444.1543507151911,77.37836812172901 L-444.09041886680666,77.37068327864108 M-444.09041886680666,77.37068327864108 L-444.03324418307966,77.35732014747015 M-444.03324418307966,77.35732014747015 L-443.986151176352,77.33905631693591 M-443.986151176352,77.33905631693591 L-443.95187616669114,77.3169538042344 M-443.95187616669114,77.3169538042344 L-443.93241079691734,77.29229813505412 M-443.93241079691734,77.29229813505412 L-443.928884068441,77.26652228256012 M-443.928884068441,77.26652228256012 L-443.94149935370046,77.24112468929968 M-443.94149935370046,77.24112468929968 L-443.96952064857726,77.21758068103918 M-443.96952064857726,77.21758068103918 L-444.01131933506633,77.19725840306205 M-443.69158000715265,72.55270724258196 L-443.5868417366752,72.60321583357802 M-443.5868417366752,72.60321583357802 L-443.51660104390885,72.66173743895604 M-443.51660104390885,72.66173743895604 L-443.4849482624379,72.72487480031828 M-443.4849482624379,72.72487480031828 L-443.4937360848613,72.78896045845255 M-443.4937360848613,72.78896045845255 L-443.54246618587115,72.85026941160532 M-443.54246618587115,72.85026941160532 L-443.6283173935665,72.90523580288038 M-443.6283173935665,72.90523580288038 L-443.74630660728894,72.95066073768186 M-443.74630660728894,72.95066073768186 L-443.88957668504077,72.98389925275666 M-443.88957668504077,72.98389925275666 L-444.0497952090775,73.00301528040723 M-444.0497952090775,73.00301528040723 L-444.21764024087383,73.00689506238524 M-444.21764024087383,73.00689506238524 L-444.3833443637295,72.99531230950913 M-444.3833443637295,72.99531230950913 L-444.537265457569,72.96894232250696 M-444.537265457569,72.96894232250696 L-444.67044969127676,72.92932122177882 M-444.67044969127676,72.92932122177882 L-444.77515245169184,72.87875623256514 M-444.77515245169184,72.87875623256514 L-444.84529319272474,72.82019102202685 M-444.84529319272474,72.82019102202685 L-444.8768037635715,72.75703310876514 M-444.8768037635715,72.75703310876514 L-444.86786466996625,72.69295442511475 M-444.86786466996625,72.69295442511475 L-444.8190085343542,72.63167851055294 M-444.8190085343542,72.63167851055294 L-444.7330854963851,72.57676361738612 M-444.7330854963851,72.57676361738612 L-444.61509511237114,72.53139684261532 M-444.61509511237114,72.53139684261532 L-444.4718947924216,72.49820982564881 M-444.4718947924216,72.49820982564881 L-444.31180097341553,72.47912683662815 M-444.31180097341553,72.47912683662815 L-444.144106930709,72.47525410097182 M-444.144106930709,72.47525410097182 L-443.97854584847414,72.48681615795181 M-443.97854584847414,72.48681615795181 L-443.8247264582901,72.51314268342776 M-443.8247264582901,72.51314268342776 L-443.69158000715265,72.55270724258196 M-443.68842268235665,72.01990761205383 L-443.58365710315843,72.07038310429198 M-443.58365710315843,72.07038310429198 L-443.51339795837316,72.1288663627289 M-443.51339795837316,72.1288663627289 L-443.481736658252,72.19196235601976 M-443.481736658252,72.19196235601976 L-443.4905263969838,72.25600602835578 M-443.4905263969838,72.25600602835578 L-443.5392687444365,72.31727481827068 M-443.5392687444365,72.31727481827068 L-443.62514182259224,72.37220520411904 M-443.62514182259224,72.37220520411904 L-443.743161262992,72.41760038558743 M-443.743161262992,72.41760038558743 L-443.8864681670194,72.45081713059011 M-443.8864681670194,72.45081713059011 L-444.0467279736338,72.4699206383496 M-444.0467279736338,72.4699206383496 L-444.2146163396326,72.47379787933443 M-444.2146163396326,72.47379787933443 L-444.3803633232284,72.46222271241237 M-444.3803633232284,72.46222271241237 L-444.5343243071669,72.43586999648898 M-444.5343243071669,72.43586999648898 L-444.66754313760225,72.39627484684036 M-444.66754313760225,72.39627484684036 L-444.77227318874156,72.34574297876458 M-444.77227318874156,72.34574297876458 L-444.8424323303526,72.28721613250372 M-444.8424323303526,72.28721613250372 L-444.8739513465632,72.22409959545723 M-444.8739513465632,72.22409959545723 L-444.86501025846735,72.1600628948442 M-444.86501025846735,72.1600628948442 L-444.81614181115197,72.09882713039906 M-444.81614181115197,72.09882713039906 L-444.7301968653592,72.04394822220638 M-444.7301968653592,72.04394822220638 L-444.6121762537614,71.99861117767045 M-444.6121762537614,71.99861117767045 L-444.46893914329394,71.96544591032352 M-444.46893914329394,71.96544591032352 L-444.3088041059401,71.94637542807277 M-444.3088041059401,71.94637542807277 L-444.141066806995,71.9425052306018 M-444.141066806995,71.9425052306018 L-443.9754629379497,71.95405970986553 M-443.9754629379497,71.95405970986553 L-443.8216037104645,71.98036898150508 M-443.8216037104645,71.98036898150508 L-443.68842268235665,72.01990761205383 M-443.68842268235665,72.01990761205383 L-443.69158000715265,72.55270724258196" stroke="black"  stroke-width="4"  fill="red"/>
<path d="M-493.1149777131459,65.36124107722503 L-497.13585686883425,66.84095481806617 M-497.13585686883425,66.84095481806617 L-497.7346541227438,36.763684069146564 M-493.6539478500579,35.34067764318678 L-497.7346541227438,36.763684069146564 M-493.1149777131459,65.36124107722503 L-493.6539478500579,35.34067764318678 M-492.77730906120235,97.60932590903656 L-412.173273934623,130.48683309424757 M-412.173273934623,130.48683309424757 L-412.0559201072267,125.10513123187627 M-412.0559201072267,125.10513123187627 L-319.14898102297445,162.6800778592093 M-319.5364279565699,168.27239264440973 L-319.14898102297445,162.6800778592093 M-319.5364279565699,168.27239264440973 L201.91621192968114,380.9672395920187 M201.91621192968114,380.9672395920187 L204.37241624015974,374.4111794789731 M204.37241624015974,374.4111794789731 L388.66079650168103,448.94410587411267 M385.255634289766,455.7493912114786 L388.66079650168103,448.94410587411267 M385.255634289766,455.7493912114786 L1174.9425520383377,777.8540758165857 M1174.9425520383377,777.8540758165857 L1225.3467708893554,735.8519534725001 M1225.3467708893554,735.8519534725001 L1243.2333636295402,742.7990930713536 M1243.2333636295402,742.7990930713536 L1297.734654122744,698.0837752865798 M-497.7346541227438,36.763684069146564 L1297.734654122744,698.0837752865798 M-497.13585686883425,66.84095481806617 L-493.3064668938508,68.32828709655496 M-492.77730906120235,97.60932590903656 L-493.3064668938508,68.32828709655496 M1242.2887060106132,735.8519700736431 L1224.5058885035646,728.9813990441253 M1174.3962289579667,770.9638351178849 L1224.5058885035646,728.9813990441253 M1174.3962289579667,770.9638351178849 L388.0163417841238,451.86778757019164 M388.0163417841238,451.86778757019164 L391.4189057445933,445.07428973929916 M391.4189057445933,445.07428973929916 L207.60267338547783,371.1179939247806 M205.14360036519315,377.66196168022714 L207.60267338547783,371.1179939247806 M205.14360036519315,377.66196168022714 L-315.6035945224053,166.3539483771778 M-315.6035945224053,166.3539483771778 L-315.20610449525657,160.7720406042057 M-315.20610449525657,160.7720406042057 L-408.08387019511565,123.40376563450229 M-408.21150829222097,128.77564845169525 L-408.08387019511565,123.40376563450229 M-408.21150829222097,128.77564845169525 L-488.8140579472763,96.06886711522282 M-488.8140579472763,96.06886711522282 L-489.285096030781,66.84095452099768 M-489.285096030781,66.84095452099768 L-493.1149777131459,65.36124107722503 M1296.4482277711886,691.1707790831992 L-493.6539478500579,35.34067764318678 M1242.2887060106132,735.8519700736431 L1296.4482277711886,691.1707790831992 M-492.77730906120235,97.60932590903656 L-488.8140579472763,96.06886711522282 M-493.3064668938508,68.32828709655496 L-489.285096030781,66.84095452099768 M-408.21150829222097,128.77564845169525 L-412.173273934623,130.48683309424757 M-408.08387019511565,123.40376563450229 L-412.0559201072267,125.10513123187627 M-319.5364279565699,168.27239264440973 L-315.6035945224053,166.3539483771778 M-319.14898102297445,162.6800778592093 L-315.20610449525657,160.7720406042057 M205.14360036519315,377.66196168022714 L201.91621192968114,380.9672395920187 M207.60267338547783,371.1179939247806 L204.37241624015974,374.4111794789731 M385.255634289766,455.7493912114786 L388.0163417841238,451.86778757019164 M388.66079650168103,448.94410587411267 L391.4189057445933,445.07428973929916 M1174.3962289579667,770.9638351178849 L1174.9425520383377,777.8540758165857 M1224.5058885035646,728.9813990441253 L1225.3467708893554,735.8519534725001 M1243.2333636295402,742.7990930713536 L1242.2887060106132,735.8519700736431 M1297.734654122744,698.0837752865798 L1296.4482277711886,691.1707790831992" stroke="black"  stroke-width="4"  fill="red"/></svg>