<svg viewBox="0 0 800 800" xmlns="http://www.w3.org/2000/svg"><path d="M176.0318410211396,610.9114525248982 L176.03185035921706,610.911106402014 M759.6958894911206,259.81487372155823 L759.6959050202049,259.81453151325076 M176.0318410211396,610.9114525248982 L157.05815637284536,599.5242466681206 M157.05815637284536,599.5242466681206 L139.3162551326593,587.5174876539495 M139.3162551326593,587.5174876539495 L122.87259618672397,574.939544847011 M122.87259618672397,574.939544847011 L107.78814064097355,561.8407784692652 M107.78814064097355,561.8407784692652 L94.11817302522104,548.2734482745059 M94.11817302522104,548.2734482745059 L81.91193741461234,534.2913587448759 M81.91193741461234,534.2913587448759 L71.21275257617299,519.9497213683042 M71.21275257617299,519.9497213683042 L62.05773778285288,505.3048222866028 M62.05773778285288,505.3048222866028 L54.47776156754003,490.41386772799547 M54.47776156754003,490.41386772799547 L48.49734238230417,475.33462367257664 M48.49734238230417,475.33462367257664 L44.13472896219696,460.125365343111 M44.13472896219696,460.125365343111 L41.40178381248097,444.84441152218176 M41.40178381248097,444.84441152218176 L40.30409497979508,429.55010024409506 M40.30409497979508,429.55010024409506 L40.84100638914015,414.3004425092233 M40.84100638914015,414.3004425092233 L43.005678071435796,399.1529277731056 M43.005678071435796,399.1529277731056 L46.78510148246983,384.1643620524061 M46.78510148246983,384.1643620524061 L52.1604459100281,369.39056932705006 M52.1604459100281,369.39056932705006 L59.10702332238748,354.8862689228181 M59.10702332238748,354.8862689228181 L67.5944057105728,340.7049193028903 M67.5944057105728,340.7049193028903 L77.58671224991645,326.8984638352758 M77.58671224991645,326.8984638352758 L89.04284705968666,313.51715981353703 M89.04284705968666,313.51715981353703 L101.91646333484982,300.6095149249405 M101.91646333484982,300.6095149249405 L116.15644996186461,288.22202105373213 M116.15644996186461,288.22202105373213 L131.7070341107567,276.39908481915774 M131.7070341107567,276.39908481915774 L148.50796180602606,265.1829086566606 M148.50796180602606,265.1829086566606 L166.4948655096914,254.61328399726472 M166.4948655096914,254.61328399726472 L185.59934135824892,244.72762883722802 M185.59934135824892,244.72762883722802 L205.7494282645814,235.56075641210867 M205.7494282645814,235.56075641210867 L226.86983442973087,227.1447590223736 M226.86983442973087,227.1447590223736 L248.8819195473493,219.50910713311495 M248.8819195473493,219.50910713311495 L271.7043841684042,212.68035105507437 M271.7043841684042,212.68035105507437 L295.253212017185,206.68225342009734 M295.253212017185,206.68225342009734 L319.4421864450562,201.53554903762887 M319.4421864450562,201.53554903762887 L344.18297216763153,197.25805717428173 M344.18297216763153,197.25805717428173 L369.38561821804046,193.86448434632604 M369.38561821804046,193.86448434632604 L394.95858326841244,191.36655259416963 M394.95858326841244,191.36655259416963 L420.8092295246106,189.77284321283605 M420.8092295246106,189.77284321283605 L446.84397133030575,189.08888887346117 M446.84397133030575,189.08888887346117 L472.9688463435698,189.31695560508643 M472.9688463435698,189.31695560508643 L499.0893588776596,190.45630087507368 M499.0893588776596,190.45630087507368 L525.1110946854651,192.5029691718491 M525.1110946854651,192.5029691718491 L550.9399617660872,195.44996221831852 M550.9399617660872,195.44996221831852 L576.4822776473895,199.28712434976603 M576.4822776473895,199.28712434976603 L601.6453499527815,204.00128877254397 M601.6453499527815,204.00128877254397 L626.3376788567341,209.57611372025227 M626.3376788567341,209.57611372025227 L650.4691741618615,215.99230725312566 M650.4691741618615,215.99230725312566 L673.9512538096456,223.2276826864106 M673.9512538096456,223.2276826864106 L696.6978043404192,231.2569932362493 M696.6978043404192,231.2569932362493 L718.6245803854308,240.05227232828972 M718.6245803854308,240.05227232828972 L739.6501443081963,249.58273812486507 M739.6501443081963,249.58273812486507 L759.6958894911206,259.81487372155823 M176.03185035921706,610.911106402014 L157.05816549144242,599.523900669426 M157.05816549144242,599.523900669426 L139.3162640455298,587.5171417864029 M139.3162640455298,587.5171417864029 L122.87260490838412,574.9391991170731 M122.87260490838412,574.9391991170731 L107.78814918663511,561.8404328828751 M107.78814918663511,561.8404328828751 L94.11818141071922,548.2731028370579 M94.11818141071922,548.2731028370579 L81.91194565633305,534.2910134611993 M81.91194565633305,534.2910134611993 L71.21276069098144,519.9493762426441 M71.21276069098144,519.9493762426441 L62.05774578801834,505.3044773226051 M62.05774578801834,505.3044773226051 L54.47776948066189,490.4135229286915 M54.47776948066189,490.4135229286915 L48.49735022123764,475.33427904037273 M48.49735022123764,475.33427904037273 L44.13473674497868,460.1250208797782 M44.13473674497868,460.1250208797782 L41.40179155725741,444.84406722884995 M41.40179155725741,444.84406722884995 L40.30410270475113,429.54975612124804 M40.30410270475113,429.54975612124804 L40.84101411242841,414.3000985566972 M40.84101411242841,414.3000985566972 L43.00568581110815,399.1525839900897 M43.00568581110815,399.1525839900897 L46.78510925641035,384.16401843744535 M46.78510925641035,384.16401843744535 L52.16045373589077,369.39022587805147 M52.16045373589077,369.39022587805147 L59.10703121753363,354.8859256370588 M59.10703121753363,354.8859256370588 L67.59441369201113,340.7045761770272 M67.59441369201113,340.7045761770272 L77.58672033424682,326.89812086535886 M77.58672033424682,326.89812086535886 L89.0428552630467,313.5168169950249 M89.0428552630467,313.5168169950249 L101.9164716728626,300.60917225271703 M101.9164716728626,300.60917225271703 L116.15645844959045,288.2216785221267 M116.15645844959045,288.2216785221267 L131.70704276264905,276.3987424219671 M131.70704276264905,276.3987424219671 L148.5079706358872,265.18256638717156 M148.5079706358872,265.18256638717156 L166.49487453063307,254.61294184828117 M166.49487453063307,254.61294184828117 L185.59935058265364,244.7272868010968 M185.59935058265364,244.7272868010968 L205.7494377040705,235.56041448074956 M205.7494377040705,235.56041448074956 L226.8698440951323,227.1444171873105 M226.8698440951323,227.1444171873105 L248.88192944866637,219.50876538550696 M248.88192944866637,219.50876538550696 L271.70439431479144,212.6800093857505 M271.70439431479144,212.6800093857505 L295.2532224169231,206.68191181959025 M295.2532224169231,206.68191181959025 L319.4421971055308,201.53520749621148 M319.4421971055308,201.53520749621148 L344.18298309531383,197.25771568200338 M344.18298309531383,197.25771568200338 L369.3856294184711,193.8641428930513 M369.3856294184711,193.8641428930513 L394.9585947461867,191.36621116961499 M394.9585947461867,191.36621116961499 L420.80924128336574,189.77250180660974 M420.80924128336574,189.77250180660974 L446.8439833727109,189.0885474751018 M446.8439833727109,189.0885474751018 L472.9688586713223,189.31661420410376 M472.9688586713223,189.31661420410376 L499.0893714914748,190.4559594609869 M499.0893714914748,190.4559594609869 L525.1111075850754,192.50262773422727 M525.1111075850754,192.50262773422727 L550.9399749502425,195.44962074681928 M550.9399749502425,195.44962074681928 L576.4822911138556,199.28678283417494 M576.4822911138556,199.28678283417494 L601.6453636983467,204.00094720281245 M601.6453636983467,204.00094720281245 L626.3376928772145,209.57577208653726 M626.3376928772145,209.57577208653726 L650.4691884521105,215.9919655458255 M650.4691884521105,215.9919655458255 L673.9512683635617,223.22734089620138 M673.9512683635617,223.22734089620138 L696.6978191509661,231.25665135412117 M696.6978191509661,231.25665135412117 L718.6245954446474,240.05193034558002 M718.6245954446474,240.05193034558002 L739.6501596072192,249.5823960332915 M739.6501596072192,249.5823960332915 L759.6959050202049,259.81453151325076 M759.6958894911206,259.81487372155823 L176.0318410211396,610.9114525248982 M759.6959050202049,259.81453151325076 L176.03185035921706,610.911106402014" stroke="black"  stroke-width="4"  fill="red"/></svg>