<svg viewBox="0 0 800 800" xmlns="http://www.w3.org/2000/svg"><path d="M157.73433279658047,229.82357767647 L33.83479711903692,296.9885543667942 M33.83479846764487,282.9734069055765 L33.83479711903692,296.9885543667942 M33.83479846764487,282.9734069055765 L33.83444567525959,282.84653488985555 M33.83444567525959,282.84653488985555 L33.83423399360095,282.7196049458818 M33.83423399360095,282.7196049458818 L33.834163431190234,282.59259396828725 M157.99911016667136,215.6067340880199 L33.834163431190234,282.59259396828725 M157.73433279658047,229.82357767647 L157.99911016667136,215.6067340880199 M749.4650749725395,684.9260850505024 L734.107303515664,676.6007582439629 M618.5802671035808,757.371905790709 L734.107303515664,676.6007582439629 M618.5802671035808,757.371905790709 L399.65054426619656,633.5612197630044 M387.0814547568808,641.6756049368169 L399.65054426619656,633.5612197630044 M315.66300084715783,601.1018766628965 L387.0814547568808,641.6756049368169 M328.2511505082383,593.1829293757224 L315.66300084715783,601.1018766628965 M328.2511505082383,593.1829293757224 L46.45650926324231,433.8204298516686 M33.834163431190234,440.99134439731955 L46.45650926324231,433.8204298516686 M-29.317146310362887,405.1142854394931 L33.834163431190234,440.99134439731955 M-16.696115591838634,398.10591056930707 L-29.317146310362887,405.1142854394931 M-16.696115591838634,398.10591056930707 L-71.16445277853313,367.3025911000632 M45.932940571503536,303.5468625352029 L-71.16445277853313,367.3025911000632 M45.932940571503536,303.5468625352029 L33.83479711903692,296.9885543667942 M870.94118994779,599.5150460025426 L157.73433279658047,229.82357767647 M749.4650749725395,684.9260850505024 L870.94118994779,599.5150460025426 M103.14652307345978,265.8913767621181 L102.97657233817,265.82064191676596 M102.97657233817,265.82064191676596 L102.78051561082589,265.77357117400516 M102.78051561082589,265.77357117400516 L102.56974737260623,265.75289596392463 M102.56974737260623,265.75289596392463 L102.35650096329033,265.7598221031642 M102.35650096329033,265.7598221031642 L102.15317589825008,265.7939415664083 M102.15317589825008,265.7939415664083 L101.97157388869789,265.8532779347188 M101.97157388869789,265.8532779347188 L101.82225117325822,265.9343830960755 M101.82225117325822,265.9343830960755 L101.71388421076472,266.0325475597975 M101.71388421076472,266.0325475597975 L101.65277818728839,266.1420665057221 M101.65277818728839,266.1420665057221 L101.64248053643638,266.2565823191911 M101.64248053643638,266.2565823191911 L101.68360631318524,266.3694335294685 M101.68360631318524,266.3694335294685 L101.77376099478874,266.4740661125874 M101.77376099478874,266.4740661125874 L101.9077122552618,266.56439454417693 M101.9077122552618,266.56439454417693 L102.07768070013049,266.6351651558198 M102.07768070013049,266.6351651558198 L102.27378317989377,266.682263223822 M102.27378317989377,266.682263223822 L102.48461533635322,266.70295138044037 M102.48461533635322,266.70295138044037 L102.69792919021432,266.6960208399435 M102.69792919021432,266.6960208399435 L102.90130977188454,266.6618806394463 M102.90130977188454,266.6618806394463 L103.08294265424848,266.6025119457937 M103.08294265424848,266.6025119457937 L103.23226452512444,266.5213702777886 M103.23226452512444,266.5213702777886 L103.34059911914926,266.4231734889422 M103.34059911914926,266.4231734889422 L103.40164866649098,266.3136338051845 M103.40164866649098,266.3136338051845 L103.4118786691754,266.1991135912217 M103.4118786691754,266.1991135912217 L103.37068957317962,266.0862753261124 M103.37068957317962,266.0862753261124 L103.2804904034765,265.98167006859967 M103.2804904034765,265.98167006859967 L103.14652307345978,265.8913767621181 M803.9206171164017,637.1875782429786 L803.7106261598565,637.0980436071533 M803.7106261598565,637.0980436071533 L803.477556309562,637.0384658871045 M803.477556309562,637.0384658871045 L803.2349692802647,637.0123113578159 M803.2349692802647,637.0123113578159 L802.9969031559024,637.0210825491656 M802.9969031559024,637.0210825491656 L802.7771874227474,637.0642569735905 M802.7771874227474,637.0642569735905 L802.5886401870475,637.1393681882396 M802.5886401870475,637.1393681882396 L802.4421760814612,637.2420278109704 M802.4421760814612,637.2420278109704 L802.3463064159364,637.366275252414 M802.3463064159364,637.366275252414 L802.3066568221973,637.5049143356708 M802.3066568221973,637.5049143356708 L802.3254653725369,637.649863068905 M802.3254653725369,637.649863068905 L802.4016678256871,637.7926955652347 M802.4016678256871,637.7926955652347 L802.5308752931367,637.9251391017546 M802.5308752931367,637.9251391017546 L802.7055681078416,638.039480814112 M802.7055681078416,638.039480814112 L802.9155913040777,638.1290659291021 M802.9155913040777,638.1290659291021 L803.1487272299273,638.1886825621423 M803.1487272299273,638.1886825621423 L803.3914480896331,638.214881525315 M803.3914480896331,638.214881525315 L803.629598265939,638.2061040629258 M803.629598265939,638.2061040629258 L803.8493780875679,638.1629001146482 M803.8493780875679,638.1629001146482 L804.0379547392188,638.0877428610753 M804.0379547392188,638.0877428610753 L804.1844068697214,637.9850312488002 M804.1844068697214,637.9850312488002 L804.2802259118419,637.8607377746139 M804.2802259118419,637.8607377746139 L804.3197978135945,637.7220691558687 M804.3197978135945,637.7220691558687 L804.3009023236307,637.5771141568641 M804.3009023236307,637.5771141568641 L804.2245745328773,637.4342740979561 M804.2245745328773,637.4342740979561 L804.0953189162913,637.3018694755825 M804.0953189162913,637.3018694755825 L803.9206171164017,637.1875782429786 M45.95874547396329,289.51499959409466 L33.83479846764487,282.9734069055765 M45.95874547396329,289.51499959409466 L45.932940571503536,303.5468625352029 M45.958812196630674,289.13373174229616 L45.95864884516908,289.26089469940325 M45.95864884516908,289.26089469940325 L45.958626621303495,289.38797627232367 M45.958626621303495,289.38797627232367 L45.95874547396329,289.51499959409466 M33.834163431190234,282.59259396828725 L45.958812196630674,289.13373174229616 M735.8317063917093,661.313885970484 L751.2316633667015,669.6220227450814 M751.2316633667015,669.6220227450814 L872.9561423481243,584.3917129629572 M872.9561423481243,584.3917129629572 L157.99911016667136,215.6067340880199 M45.958812196630674,289.13373174229616 L-71.39937866531471,352.72544006827724 M-71.39937866531471,352.72544006827724 L-16.81030979984581,383.45179723827584 M-16.81030979984581,383.45179723827584 L-29.46018625116602,390.4428542681455 M-29.46018625116602,390.4428542681455 L33.834163431190234,426.2323787576782 M33.834163431190234,426.2323787576782 L46.48536397356662,419.0788104864872 M46.48536397356662,419.0788104864872 L328.9584627590324,578.0734499735288 M328.9584627590324,578.0734499735288 L316.34170163924034,585.9750810354623 M316.34170163924034,585.9750810354623 L387.94261720618795,626.4615183559578 M387.94261720618795,626.4615183559578 L400.54017942675785,618.3643990387081 M400.54017942675785,618.3643990387081 L620.055221898092,741.9220588292419 M735.8317063917093,661.313885970484 L620.055221898092,741.9220588292419 M104.22719360519181,251.0741311610892 L104.56287907005628,251.29919428356217 M104.56287907005628,251.29919428356217 L104.7889639155307,251.55995705238195 M104.7889639155307,251.55995705238195 L104.89228618568768,251.84127984453878 M104.89228618568768,251.84127984453878 L104.8668016115779,252.12682180020255 M104.8668016115779,252.12682180020255 L104.71396367837968,252.399982240389 M104.71396367837968,252.399982240389 L104.44261491700456,252.6448801371566 M104.44261491700456,252.6448801371566 L104.06851908939024,252.84725912127465 M104.06851908939024,252.84725912127465 L103.61340334165789,252.9953454426319 M103.61340334165789,252.9953454426319 L103.10374599395368,253.08050943588916 M103.10374599395368,253.08050943588916 L102.56918680021658,253.09779574841036 M102.56918680021658,253.09779574841036 L102.04083540598003,253.0461927038025 M102.04083540598003,253.0461927038025 L101.54942893460657,252.92870921383283 M101.54942893460657,252.92870921383283 L101.1235500065718,252.75218700579308 M101.1235500065718,252.75218700579308 L100.78796220348414,252.5269027796651 M100.78796220348414,252.5269027796651 L100.56215599553218,252.2659689930203 M100.56215599553218,252.2659689930203 L100.45923179468286,251.98456565357114 M100.45923179468286,251.98456565357114 L100.4851406950433,251.6990510266041 M100.4851406950433,251.6990510266041 L100.63833314276877,251.4260201330851 M100.63833314276877,251.4260201330851 L100.90988509332749,251.1813241659093 M100.90988509332749,251.1813241659093 L101.28398623376393,250.97917322916967 M101.28398623376393,250.97917322916967 L101.73890820101087,250.831288837746 M101.73890820101087,250.831288837746 L102.24821707019106,250.74625438964742 M102.24821707019106,250.74625438964742 L102.7823532184538,250.72899572755418 M102.7823532184538,250.72899572755418 L103.31030277539111,250.78051758345455 M103.31030277539111,250.78051758345455 L103.80142265580253,250.8978306956091 M103.80142265580253,250.8978306956091 L104.22719360519181,251.0741311610892 M806.7081820506278,621.3457472022504 L807.146204413338,621.6307838757803 M807.146204413338,621.6307838757803 L807.4703848494642,621.9610034382807 M807.4703848494642,621.9610034382807 L807.661982062576,622.3173010077918 M807.661982062576,622.3173010077918 L807.709732886578,622.6789389158781 M807.709732886578,622.6789389158781 L807.6108499998961,623.0249056068734 M807.6108499998961,623.0249056068734 L807.371014089149,623.3350776059982 M807.371014089149,623.3350776059982 L807.0041639923668,623.5914047474677 M807.0041639923668,623.5914047474677 L806.531600018219,623.7789716566898 M806.531600018219,623.7789716566898 L805.9807969434953,623.886836426764 M805.9807969434953,623.886836426764 L805.3838054947712,623.9087289540197 M805.3838054947712,623.9087289540197 L804.7753465511753,623.8433540806674 M804.7753465511753,623.8433540806674 L804.1909059256552,623.6945678245603 M804.1909059256552,623.6945678245603 L803.6643603907212,623.470972083694 M803.6643603907212,623.470972083694 L803.2264434694412,623.1856457606258 M803.2264434694412,623.1856457606258 L802.9025161019458,622.8551569688125 M802.9025161019458,622.8551569688125 L802.7114471108755,622.4987700831684 M802.7114471108755,622.4987700831684 L802.6642423528378,622.137171354665 M802.6642423528378,622.137171354665 L802.7636132400371,621.7913893067853 M802.7636132400371,621.7913893067853 L803.0037672806297,621.4815051118281 M803.0037672806297,621.4815051118281 L803.3706927692929,621.2255030010417 M803.3706927692929,621.2255030010417 L803.8430721290463,621.0382239017463 M803.8430721290463,621.0382239017463 L804.3934728573629,620.9305437623514 M804.3934728573629,620.9305437623514 L804.9899364150924,620.9086904122378 M804.9899364150924,620.9086904122378 L805.597813666514,620.9739240806467 M805.597813666514,620.9739240806467 L806.1818883622154,621.1224929966777 M806.1818883622154,621.1224929966777 L806.7081820506278,621.3457472022504 M870.94118994779,599.5150460025426 L872.9561423481243,584.3917129629572 M751.1854862810235,670.0268979887984 L735.786647225555,661.718305669447 M751.1854862810235,670.0268979887984 L749.4650749725395,684.9260850505024 M735.786647225555,661.718305669447 L734.107303515664,676.6007582439629 M735.786647225555,661.718305669447 L735.8015292900866,661.5835852789648 M735.8015292900866,661.5835852789648 L735.8165480861294,661.4487868933949 M735.8165480861294,661.4487868933949 L735.8317063917093,661.313885970484 M618.5802671035808,757.371905790709 L620.055221898092,741.9220588292419 M399.65054426619656,633.5612197630044 L400.54017942675785,618.3643990387081 M387.0814547568808,641.6756049368169 L387.94261720618795,626.4615183559578 M315.66300084715783,601.1018766628965 L316.34170163924034,585.9750810354623 M328.2511505082383,593.1829293757224 L328.9584627590324,578.0734499735288 M46.45650926324231,433.8204298516686 L46.48536397356662,419.0788104864872 M33.834163431190234,440.99134439731955 L33.834163431190234,426.2323787576782 M-29.317146310362887,405.1142854394931 L-29.46018625116602,390.4428542681455 M-16.696115591838634,398.10591056930707 L-16.81030979984581,383.45179723827584 M-71.16445277853313,367.3025911000632 L-71.39937866531471,352.72544006827724 M751.2316633667015,669.6220227450814 L751.21613252673,669.7570760061482 M751.21613252673,669.7570760061482 L751.2007411134239,669.8920262307178 M751.2007411134239,669.8920262307178 L751.1854862810235,670.0268979887984 M103.14652307345978,265.8913767621181 L103.28069762246116,253.08304065078843 M103.28069762246116,253.08304065078843 L103.4149283822087,253.17311846432216 M103.4149283822087,253.17311846432216 L103.50530691622072,253.27747408541364 M103.50530691622072,253.27747408541364 L103.54658088000622,253.3900430823054 M103.54658088000622,253.3900430823054 L103.53633627664004,253.5042900313184 M103.53633627664004,253.5042900313184 L103.47517350687377,253.61356835049335 M103.47517350687377,253.61356835049335 L103.36663361345705,253.71153085247303 M103.36663361345705,253.71153085247303 L103.21702629526072,253.79247893474172 M103.21702629526072,253.79247893474172 L103.03504440312076,253.85170599349448 M103.03504440312076,253.85170599349448 L102.8312715517439,253.88576474836287 M102.8312715517439,253.88576474836287 L102.61754496458872,253.89267875539193 M102.61754496458872,253.89267875539193 L102.40630364345907,253.8720399525369 M102.40630364345907,253.8720399525369 L102.20981934837442,253.82505424398315 M102.20981934837442,253.82505424398315 L102.03951864955542,253.75445247158953 M102.03951864955542,253.75445247158953 L101.90530401887952,253.6643395483033 M101.90530401887952,253.6643395483033 L101.81497014416436,253.55995661403378 M101.81497014416436,253.55995661403378 L101.77375974445522,253.44737467786172 M101.77375974445522,253.44737467786172 L101.78407225837623,253.33313212734112 M101.78407225837623,253.33313212734112 L101.84529172409862,253.2238745365672 M101.84529172409862,253.2238745365672 L101.95386411289036,253.12594434501003 M101.95386411289036,253.12594434501003 L102.10347228056514,253.04503275278603 M102.10347228056514,253.04503275278603 L102.28542318169059,252.9858380046732 M102.28542318169059,252.9858380046732 L102.48914030219964,252.95179997762648 M102.48914030219964,252.95179997762648 L102.70279918360745,252.94489036985317 M102.70279918360745,252.94489036985317 L102.91397633818224,252.96551623205846 M102.91397633818224,252.96551623205846 L103.11041470229281,253.0124746277987 M103.11041470229281,253.0124746277987 L103.28069762246116,253.08304065078843 M803.9206171164017,637.1875782429786 L805.5981831879781,623.5827833852153 M805.5981831879781,623.5827833852153 L805.7733230988031,623.696857078969 M805.7733230988031,623.696857078969 L805.9029269655689,623.8290097072161 M805.9029269655689,623.8290097072161 L805.9794929721038,623.9715779367373 M805.9794929721038,623.9715779367373 L805.9985026259283,624.1162571087084 M805.9985026259283,624.1162571087084 L805.9589143340077,624.2546618880343 M805.9589143340077,624.2546618880343 L805.8629490974222,624.3787188951085 M805.8629490974222,624.3787188951085 L805.7162295623427,624.4812351147283 M805.7162295623427,624.4812351147283 L805.5272798268134,624.5562494021729 M805.5272798268134,624.5562494021729 L805.3070428312394,624.5993711700785 M805.3070428312394,624.5993711700785 L805.0683781218988,624.6081319367183 M805.0683781218988,624.6081319367183 L804.825115179721,624.581982807303 M804.825115179721,624.581982807303 L804.5914412678485,624.522479576005 M804.5914412678485,624.522479576005 L804.3809154061364,624.4330648769927 M804.3809154061364,624.4330648769927 L804.2057844942478,624.3189406897727 M804.2057844942478,624.3189406897727 L804.0762289670381,624.186749136808 M804.0762289670381,624.186749136808 L803.9997887415154,624.0441884153859 M803.9997887415154,624.0441884153859 L803.9808664097154,623.8995155108872 M803.9808664097154,623.8995155108872 L804.0205327474107,623.761140275073 M804.0205327474107,623.761140275073 L804.116548851428,623.6371293132465 M804.116548851428,623.6371293132465 L804.2632804400318,623.534665097294 M804.2632804400318,623.534665097294 L804.4522006544987,623.45969686128 M804.4522006544987,623.45969686128 L804.6723732969169,623.4166046252471 M804.6723732969169,623.4166046252471 L804.910953590829,623.4078501313503 M804.910953590829,623.4078501313503 L805.1540822035593,623.4339548713449 M805.1540822035593,623.4339548713449 L805.3876897320331,623.4934191790807 M805.3876897320331,623.4934191790807 L805.5981831879781,623.5827833852153 M104.22719360519181,251.0741311610892 L104.21121200320624,252.57968185379315 M104.21121200320624,252.57968185379315 L104.54682003300184,252.80480855090863 M104.54682003300184,252.80480855090863 L104.77285212401188,253.0656449688797 M104.77285212401188,253.0656449688797 L104.8761493966964,253.3470472053833 M104.8761493966964,253.3470472053833 L104.85066905151302,253.63266978442428 M104.85066905151302,253.63266978442428 L104.69786434241092,253.90590734030854 M104.69786434241092,253.90590734030854 L104.42657588541056,254.15087436424548 M104.42657588541056,254.15087436424548 L104.05256394323334,254.35331046678863 M104.05256394323334,254.35331046678863 L103.59755079022727,254.50143857929348 M103.59755079022727,254.50143857929348 L103.08800877396368,254.58662660498572 M103.08800877396368,254.58662660498572 L102.5535709343826,254.60391779539694 M102.5535709343826,254.60391779539694 L102.02533984639558,254.55230018919144 M102.02533984639558,254.55230018919144 L101.53404562665298,254.43478354563348 M101.53404562665298,254.43478354563348 L101.1082643609019,254.2582115194163 M101.1082643609019,254.2582115194163 L100.77275394983758,254.03286370651347 M100.77275394983758,254.03286370651347 L100.54700037057466,253.77185626120433 M100.54700037057466,253.77185626120433 L100.44410098698029,253.49037347303488 M100.44410098698029,253.49037347303488 L100.47000546549532,253.20477822416277 M100.47000546549532,253.20477822416277 L100.62316452743858,252.9316702220971 M100.62316452743858,252.9316702220971 L100.89465608027734,252.68690513889862 M100.89465608027734,252.68690513889862 L101.2686733316578,252.4846970963222 M101.2686733316578,252.4846970963222 L101.723492791115,252.33677092489756 M101.723492791115,252.33677092489756 L102.23268648642937,252.251712451515 M102.23268648642937,252.251712451515 L102.76670147258272,252.23444891309452 M102.76670147258272,252.23444891309452 L103.29453090605449,252.28598532603803 M103.29453090605449,252.28598532603803 L103.78553866602783,252.4033315824487 M103.78553866602783,252.4033315824487 L104.21121200320624,252.57968185379315 M806.7081820506278,621.3457472022504 L806.5107258483163,622.9453573840367 M806.5107258483163,622.9453573840367 L806.948619368465,623.2304583457599 M806.948619368465,623.2304583457599 L807.2726973468743,623.5607523715472 M807.2726973468743,623.5607523715472 L807.4642244177751,623.9171302660369 M807.4642244177751,623.9171302660369 L807.5119415365407,624.278849683089 M807.5119415365407,624.278849683089 L807.4130633551447,624.6248943321226 M807.4130633551447,624.6248943321226 L807.1732703153166,624.935136207883 M807.1732703153166,624.935136207883 L806.806498771866,625.1915210844677 M806.806498771866,625.1915210844677 L806.3340444760213,625.379130234853 M806.3340444760213,625.379130234853 L805.7833758260535,625.4870192942539 M805.7833758260535,625.4870192942539 L805.1865357173058,625.508916751119 M805.1865357173058,625.508916751119 L804.5782362167627,625.4435271568816 M804.5782362167627,625.4435271568816 L803.9939538243168,625.294707395157 M803.9939538243168,625.294707395157 L803.4675561328402,625.0710612957037 M803.4675561328402,625.0710612957037 L803.0297680299627,624.7856706998268 M803.0297680299627,624.7856706998268 L802.705942994234,624.4551074462313 M802.705942994234,624.4551074462313 L802.5149438932792,624.0986402449394 M802.5149438932792,624.0986402449394 L802.4677725590823,623.7369600062862 M802.4677725590823,623.7369600062862 L802.567138480656,623.391099994788 M802.567138480656,623.391099994788 L802.8072494706928,623.0811459144979 M802.8072494706928,623.0811459144979 L803.1740963482371,622.8250860587738 M803.1740963482371,622.8250860587738 L803.6463661069845,622.6377647096174 M803.6463661069845,622.6377647096174 L804.1966326052311,622.5300602753163 M804.1966326052311,622.5300602753163 L804.7929450904489,622.5082019944094 M804.7929450904489,622.5082019944094 L805.400663191898,622.5734503813391 M805.400663191898,622.5734503813391 L805.9845798669842,622.7220528161872 M805.9845798669842,622.7220528161872 L806.5107258483163,622.9453573840367" stroke="black"  stroke-width="4"  fill="red"/>
<path d="M749.4650749725395,684.9260850505024 L621.5376215355744,774.8731229767386 M749.4650749725395,684.9260850505024 L734.107303515664,676.6007582439629 M606.0958298171535,766.1004455110844 L734.107303515664,676.6007582439629 M621.5376215355744,774.8731229767386 L606.0958298171535,766.1004455110844 M751.1854862810235,670.0268979887984 L749.4650749725395,684.9260850505024 M825.1021839420862,526.0394951999962 L820.8087162082907,530.2167159202035 M820.8087162082907,530.2167159202035 L816.5346861439609,534.6552394598068 M816.5346861439609,534.6552394598068 L812.2935379118817,539.3415861340104 M812.2935379118817,539.3415861340104 L808.0986508190147,544.2614826938652 M808.0986508190147,544.2614826938652 L803.9633006727888,549.3997251946132 M803.9633006727888,549.3997251946132 L799.9005914587735,554.7403874600868 M799.9005914587735,554.7403874600868 L795.9234085898731,560.2668549697564 M795.9234085898731,560.2668549697564 L792.0443804344914,565.9618087230375 M792.0443804344914,565.9618087230375 L788.2758216897232,571.8073619318416 M788.2758216897232,571.8073619318416 L784.629684526074,577.7851007298825 M784.629684526074,577.7851007298825 L781.1175154685525,583.8761918063399 M781.1175154685525,583.8761918063399 L777.7504153990826,590.0613510648966 M777.7504153990826,590.0613510648966 L774.5389907874503,596.3210502212196 M774.5389907874503,596.3210502212196 L771.4933261101166,602.6354336079783 M771.4933261101166,602.6354336079783 L768.6229266733324,608.9845786463097 M768.6229266733324,608.9845786463097 L765.9367064073517,615.3484041290682 M765.9367064073517,615.3484041290682 L763.4429368552599,621.7068588060871 M763.4429368552599,621.7068588060871 L761.1492319571105,628.0399478040196 M761.1492319571105,628.0399478040196 L759.0625207829521,634.3277678776242 M759.0625207829521,634.3277678776242 L757.1890210826687,640.5506564590243 M757.1890210826687,640.5506564590243 L755.5342143367479,646.6892933119489 M755.5342143367479,646.6892933119489 L754.1028539376146,652.7245740001504 M754.1028539376146,652.7245740001504 L752.8989215751633,658.6379513920881 M752.8989215751633,658.6379513920881 L751.9256500059539,664.41122958903 M751.9256500059539,664.41122958903 L751.1854862810235,670.0268979887984 M825.7266671401235,525.4537312535351 L825.7212195281159,525.5482341434922 M825.7212195281159,525.5482341434922 L825.6979430237293,525.6542490606981 M825.6979430237293,525.6542490606981 L825.6581973140183,525.765634477216 M825.6581973140183,525.765634477216 L825.6042838401593,525.8759080630764 M825.6042838401593,525.8759080630764 L825.5393375658521,525.9786662240551 M825.5393375658521,525.9786662240551 L825.467135816494,526.0679447226612 M825.467135816494,526.0679447226612 L825.3918664590578,526.1385609476067 M825.3918664590578,526.1385609476067 L825.3179102400054,526.186377477369 M825.3179102400054,526.186377477369 L825.2495603404052,526.2086547545412 M825.2495603404052,526.2086547545412 L825.1907873455211,526.2040729197419 M825.1907873455211,526.2040729197419 L825.145015002764,526.1729079733202 M825.145015002764,526.1729079733202 L825.114894280649,526.116978253111 M825.114894280649,526.116978253111 L825.1021839420862,526.0394951999962 M900.057954899514,380.9776089260258 L899.1704184120281,386.8647930530992 M899.1704184120281,386.8647930530992 L898.060908037623,392.87435979604805 M898.060908037623,392.87435979604805 L896.7330225238788,398.9894377048165 M896.7330225238788,398.9894377048165 L895.1909641099212,405.19276669955525 M895.1909641099212,405.19276669955525 L893.4394287627083,411.4670393787567 M893.4394287627083,411.4670393787567 L891.4836629813494,417.7948251257486 M891.4836629813494,417.7948251257486 L889.3294197469461,424.1585613702922 M889.3294197469461,424.1585613702922 L886.9829349398321,430.5407178565854 M886.9829349398321,430.5407178565854 L884.4509045070831,436.92377323449057 M884.4509045070831,436.92377323449057 L881.7404897197455,443.2902430739482 M881.7404897197455,443.2902430739482 L878.8593151906803,449.6226431580996 M878.8593151906803,449.6226431580996 L875.8153789489668,455.90374435296224 M875.8153789489668,455.90374435296224 L872.6171159274577,462.1163766370228 M872.6171159274577,462.1163766370228 L869.2733202874647,468.24360723576996 M869.2733202874647,468.24360723576996 L865.7931695924667,474.2686655547991 M865.7931695924667,474.2686655547991 L862.1861551200552,480.175140560509 M862.1861551200552,480.175140560509 L858.4621236399994,485.946849524792 M858.4621236399994,485.946849524792 L854.6311944107288,491.5679542172859 M854.6311944107288,491.5679542172859 L850.7037978573851,497.0229959182958 M850.7037978573851,497.0229959182958 L846.6906037932381,502.2968681106472 M846.6906037932381,502.2968681106472 L842.6025200356562,507.3749736877949 M842.6025200356562,507.3749736877949 L838.4506787646037,512.2431150694039 M838.4506787646037,512.2431150694039 L834.246404687012,516.8876289026964 M834.246404687012,516.8876289026964 L830.0011915532543,521.295355200556 M830.0011915532543,521.295355200556 L825.7266671401235,525.4537312535351 M655.981979628266,542.2335234893367 L900.057954899514,380.9776089260258 M644.800894520623,656.1786085475933 L655.981979628266,542.2335234893367 M632.1268738408462,664.826384935356 L644.800894520623,656.1786085475933 M621.5376215355744,774.8731229767386 L632.1268738408462,664.826384935356 M751.1854862810235,670.0268979887984 L735.786647225555,661.718305669447 M735.786647225555,661.718305669447 L734.107303515664,676.6007582439629 M606.0958298171535,766.1004455110844 L616.3803758796573,656.1786154565567 M629.0622656247932,647.5751353366569 L616.3803758796573,656.1786154565567 M629.0622656247932,647.5751353366569 L639.926915838712,533.7701674016632 M884.193703784199,373.3334397725242 L639.926915838712,533.7701674016632 M884.193703784199,373.3334397725242 L883.3221295862829,379.212676780184 M883.3221295862829,379.212676780184 L882.2282979167571,385.2136177913613 M882.2282979167571,385.2136177913613 L880.9157640553799,391.3194151579153 M880.9157640553799,391.3194151579153 L879.3886875891503,397.5128342267068 M879.3886875891503,397.5128342267068 L877.6517234061139,403.77659406299307 M877.6517234061139,403.77659406299307 L875.7100784348795,410.09329181189156 M875.7100784348795,410.09329181189156 L873.5694674362721,416.44539388492103 M873.5694674362721,416.44539388492103 L871.2360898675654,422.8154000496819 M871.2360898675654,422.8154000496819 L868.7166069030575,429.1858200209946 M868.7166069030575,429.1858200209946 L866.0181467885538,435.5392015040372 M866.0181467885538,435.5392015040372 L863.1483027277413,441.85809355691276 M863.1483027277413,441.85809355691276 L860.1150434784106,448.12530102904253 M860.1150434784106,448.12530102904253 L856.9267763972748,454.32368898255675 M856.9267763972748,454.32368898255675 L853.5922700762335,460.43636049860083 M853.5922700762335,460.43636049860083 L850.1206783325513,466.44658178549855 M850.1206783325513,466.44658178549855 L846.5214709123738,472.33797923521854 M846.5214709123738,472.33797923521854 L842.8044749571234,478.0944084392558 M842.8044749571234,478.0944084392558 L838.9797920929748,483.7000700897517 M838.9797920929748,483.7000700897517 L835.0578373081594,489.1395451037417 M835.0578373081594,489.1395451037417 L831.049266847398,494.3977671772927 M831.049266847398,494.3977671772927 L826.9649772894777,499.4601798827392 M826.9649772894777,499.4601798827392 L822.8160914914397,504.312626872543 M822.8160914914397,504.312626872543 L818.6139270520321,508.94148640030403 M818.6139270520321,508.94148640030403 L814.3699726327279,513.3336404434041 M814.3699726327279,513.3336404434041 L810.0958531025658,517.4765684544119 M809.4713621868934,518.0600934399797 L809.4843522729848,518.1375438714178 M809.4843522729848,518.1375438714178 L809.5147366248466,518.1935079693446 M809.5147366248466,518.1935079693446 L809.5607412588283,518.2247722348486 M809.5607412588283,518.2247722348486 L809.6197017133563,518.2295125854265 M809.6197017133563,518.2295125854265 L809.6881832934885,518.207443790355 M809.6881832934885,518.207443790355 L809.7622078445795,518.1598735721241 M809.7622078445795,518.1598735721241 L809.8374781040668,518.0895272197736 M809.8374781040668,518.0895272197736 L809.9096133564437,518.0005264244309 M809.9096133564437,518.0005264244309 L809.9744296021142,517.8980376886464 M809.9744296021142,517.8980376886464 L810.0281570372958,517.788009594437 M810.0281570372958,517.788009594437 L810.0676714874421,517.6768314729848 M810.0676714874421,517.6768314729848 L810.090685003933,517.5709736262886 M810.090685003933,517.5709736262886 L810.0958531025658,517.4765684544119 M735.786647225555,661.718305669447 L736.5115919112586,656.1092548008969 M736.5115919112586,656.1092548008969 L737.4698271128727,650.3434162230482 M737.4698271128727,650.3434162230482 L738.6589517943796,644.4382781620346 M738.6589517943796,644.4382781620346 L740.0757792914087,638.4120109303564 M740.0757792914087,638.4120109303564 L741.7163731716205,632.2831332614181 M741.7163731716205,632.2831332614181 L743.5760250483977,626.0707181765881 M743.5760250483977,626.0707181765881 L745.649297272294,619.7940519175179 M745.649297272294,619.7940519175179 L747.9300151209452,613.4727603885448 M747.9300151209452,613.4727603885448 L750.4112915053515,607.1267076982929 M750.4112915053515,607.1267076982929 L753.0855530302558,600.7758473547462 M753.0855530302558,600.7758473547462 L755.9445672218549,594.4401871692339 M755.9445672218549,594.4401871692339 L758.9794576932243,588.1397629517037 M758.9794576932243,588.1397629517037 L762.1807547017972,581.8944502807598 M762.1807547017972,581.8944502807598 L765.5384076549799,575.7240562294303 M765.5384076549799,575.7240562294303 L769.0418416209761,569.648059328927 M769.0418416209761,569.648059328927 L772.6799852217864,563.6856928221694 M772.6799852217864,563.6856928221694 L776.4413188729877,557.8557384306921 M776.4413188729877,557.8557384306921 L780.3139149635724,552.1765578292591 M780.3139149635724,552.1765578292591 L784.2854807326321,546.6659852709643 M784.2854807326321,546.6659852709643 L788.3434071059589,541.3412870916136 M788.3434071059589,541.3412870916136 L792.4748250271193,536.2190253317079 M792.4748250271193,536.2190253317079 L796.6666440563815,531.3150739987357 M796.6666440563815,531.3150739987357 L800.9055991175901,526.644585367899 M800.9055991175901,526.644585367899 L805.178318335368,522.2217819124174 M805.178318335368,522.2217819124174 L809.4713621868934,518.0600934399797 M616.3803758796573,656.1786154565567 L632.1268738408462,664.826384935356 M825.1021839420862,526.0394951999962 L809.4713621868934,518.0600934399797 M825.7266671401235,525.4537312535351 L810.0958531025658,517.4765684544119 M900.057954899514,380.9776089260258 L884.193703784199,373.3334397725242 M655.981979628266,542.2335234893367 L639.926915838712,533.7701674016632 M644.800894520623,656.1786085475933 L629.0622656247932,647.5751353366569" stroke="black"  stroke-width="4"  fill="red"/>
<path d="M803.9206171164017,637.1875782429786 L805.5981831879781,623.5827833852153 M805.5981831879781,623.5827833852153 L805.7733230988031,623.696857078969 M805.7733230988031,623.696857078969 L805.9029269655689,623.8290097072161 M805.9029269655689,623.8290097072161 L805.9794929721038,623.9715779367373 M805.9794929721038,623.9715779367373 L805.9985026259283,624.1162571087084 M805.9985026259283,624.1162571087084 L805.9589143340077,624.2546618880343 M805.9589143340077,624.2546618880343 L805.8629490974222,624.3787188951085 M805.8629490974222,624.3787188951085 L805.7162295623427,624.4812351147283 M805.7162295623427,624.4812351147283 L805.5272798268134,624.5562494021729 M805.5272798268134,624.5562494021729 L805.3070428312394,624.5993711700785 M805.3070428312394,624.5993711700785 L805.0683781218988,624.6081319367183 M805.0683781218988,624.6081319367183 L804.825115179721,624.581982807303 M804.825115179721,624.581982807303 L804.5914412678485,624.522479576005 M804.5914412678485,624.522479576005 L804.3809154061364,624.4330648769927 M804.3809154061364,624.4330648769927 L804.2057844942478,624.3189406897727 M804.2057844942478,624.3189406897727 L804.0762289670381,624.186749136808 M804.0762289670381,624.186749136808 L803.9997887415154,624.0441884153859 M803.9997887415154,624.0441884153859 L803.9808664097154,623.8995155108872 M803.9808664097154,623.8995155108872 L804.0205327474107,623.761140275073 M804.0205327474107,623.761140275073 L804.116548851428,623.6371293132465 M804.116548851428,623.6371293132465 L804.2632804400318,623.534665097294 M804.2632804400318,623.534665097294 L804.4522006544987,623.45969686128 M804.4522006544987,623.45969686128 L804.6723732969169,623.4166046252471 M804.6723732969169,623.4166046252471 L804.910953590829,623.4078501313503 M804.910953590829,623.4078501313503 L805.1540822035593,623.4339548713449 M805.1540822035593,623.4339548713449 L805.3876897320331,623.4934191790807 M805.3876897320331,623.4934191790807 L805.5981831879781,623.5827833852153 M803.9206171164017,637.1875782429786 L803.7106261598565,637.0980436071533 M803.7106261598565,637.0980436071533 L803.477556309562,637.0384658871045 M803.477556309562,637.0384658871045 L803.2349692802647,637.0123113578159 M803.2349692802647,637.0123113578159 L802.9969031559024,637.0210825491656 M802.9969031559024,637.0210825491656 L802.7771874227474,637.0642569735905 M802.7771874227474,637.0642569735905 L802.5886401870475,637.1393681882396 M802.5886401870475,637.1393681882396 L802.4421760814612,637.2420278109704 M802.4421760814612,637.2420278109704 L802.3463064159364,637.366275252414 M802.3463064159364,637.366275252414 L802.3066568221973,637.5049143356708 M802.3066568221973,637.5049143356708 L802.3254653725369,637.649863068905 M802.3254653725369,637.649863068905 L802.4016678256871,637.7926955652347 M802.4016678256871,637.7926955652347 L802.5308752931367,637.9251391017546 M802.5308752931367,637.9251391017546 L802.7055681078416,638.039480814112 M802.7055681078416,638.039480814112 L802.9155913040777,638.1290659291021 M802.9155913040777,638.1290659291021 L803.1487272299273,638.1886825621423 M803.1487272299273,638.1886825621423 L803.3914480896331,638.214881525315 M803.3914480896331,638.214881525315 L803.629598265939,638.2061040629258 M803.629598265939,638.2061040629258 L803.8493780875679,638.1629001146482 M803.8493780875679,638.1629001146482 L804.0379547392188,638.0877428610753 M804.0379547392188,638.0877428610753 L804.1844068697214,637.9850312488002 M804.1844068697214,637.9850312488002 L804.2802259118419,637.8607377746139 M804.2802259118419,637.8607377746139 L804.3197978135945,637.7220691558687 M804.3197978135945,637.7220691558687 L804.3009023236307,637.5771141568641 M804.3009023236307,637.5771141568641 L804.2245745328773,637.4342740979561 M804.2245745328773,637.4342740979561 L804.0953189162913,637.3018694755825 M804.0953189162913,637.3018694755825 L803.9206171164017,637.1875782429786 M806.5107258483163,622.9453573840367 L806.948619368465,623.2304583457599 M806.948619368465,623.2304583457599 L807.2726973468743,623.5607523715472 M807.2726973468743,623.5607523715472 L807.4642244177751,623.9171302660369 M807.4642244177751,623.9171302660369 L807.5119415365407,624.278849683089 M807.5119415365407,624.278849683089 L807.4130633551447,624.6248943321226 M807.4130633551447,624.6248943321226 L807.1732703153166,624.935136207883 M807.1732703153166,624.935136207883 L806.806498771866,625.1915210844677 M806.806498771866,625.1915210844677 L806.3340444760213,625.379130234853 M806.3340444760213,625.379130234853 L805.7833758260535,625.4870192942539 M805.7833758260535,625.4870192942539 L805.1865357173058,625.508916751119 M805.1865357173058,625.508916751119 L804.5782362167627,625.4435271568816 M804.5782362167627,625.4435271568816 L803.9939538243168,625.294707395157 M803.9939538243168,625.294707395157 L803.4675561328402,625.0710612957037 M803.4675561328402,625.0710612957037 L803.0297680299627,624.7856706998268 M803.0297680299627,624.7856706998268 L802.705942994234,624.4551074462313 M802.705942994234,624.4551074462313 L802.5149438932792,624.0986402449394 M802.5149438932792,624.0986402449394 L802.4677725590823,623.7369600062862 M802.4677725590823,623.7369600062862 L802.567138480656,623.391099994788 M802.567138480656,623.391099994788 L802.8072494706928,623.0811459144979 M802.8072494706928,623.0811459144979 L803.1740963482371,622.8250860587738 M803.1740963482371,622.8250860587738 L803.6463661069845,622.6377647096174 M803.6463661069845,622.6377647096174 L804.1966326052311,622.5300602753163 M804.1966326052311,622.5300602753163 L804.7929450904489,622.5082019944094 M804.7929450904489,622.5082019944094 L805.400663191898,622.5734503813391 M805.400663191898,622.5734503813391 L805.9845798669842,622.7220528161872 M805.9845798669842,622.7220528161872 L806.5107258483163,622.9453573840367 M806.7081820506278,621.3457472022504 L807.146204413338,621.6307838757803 M807.146204413338,621.6307838757803 L807.4703848494642,621.9610034382807 M807.4703848494642,621.9610034382807 L807.661982062576,622.3173010077918 M807.661982062576,622.3173010077918 L807.709732886578,622.6789389158781 M807.709732886578,622.6789389158781 L807.6108499998961,623.0249056068734 M807.6108499998961,623.0249056068734 L807.371014089149,623.3350776059982 M807.371014089149,623.3350776059982 L807.0041639923668,623.5914047474677 M807.0041639923668,623.5914047474677 L806.531600018219,623.7789716566898 M806.531600018219,623.7789716566898 L805.9807969434953,623.886836426764 M805.9807969434953,623.886836426764 L805.3838054947712,623.9087289540197 M805.3838054947712,623.9087289540197 L804.7753465511753,623.8433540806674 M804.7753465511753,623.8433540806674 L804.1909059256552,623.6945678245603 M804.1909059256552,623.6945678245603 L803.6643603907212,623.470972083694 M803.6643603907212,623.470972083694 L803.2264434694412,623.1856457606258 M803.2264434694412,623.1856457606258 L802.9025161019458,622.8551569688125 M802.9025161019458,622.8551569688125 L802.7114471108755,622.4987700831684 M802.7114471108755,622.4987700831684 L802.6642423528378,622.137171354665 M802.6642423528378,622.137171354665 L802.7636132400371,621.7913893067853 M802.7636132400371,621.7913893067853 L803.0037672806297,621.4815051118281 M803.0037672806297,621.4815051118281 L803.3706927692929,621.2255030010417 M803.3706927692929,621.2255030010417 L803.8430721290463,621.0382239017463 M803.8430721290463,621.0382239017463 L804.3934728573629,620.9305437623514 M804.3934728573629,620.9305437623514 L804.9899364150924,620.9086904122378 M804.9899364150924,620.9086904122378 L805.597813666514,620.9739240806467 M805.597813666514,620.9739240806467 L806.1818883622154,621.1224929966777 M806.1818883622154,621.1224929966777 L806.7081820506278,621.3457472022504 M806.7081820506278,621.3457472022504 L806.5107258483163,622.9453573840367" stroke="black"  stroke-width="4"  fill="red"/>
<path d="M45.932940571503536,303.5468625352029 L-83.78170906865421,374.1722774718305 M45.932940571503536,303.5468625352029 L33.83479711903692,296.9885543667942 M-95.87382636627922,367.3025924726231 L33.83479711903692,296.9885543667942 M-83.78170906865421,374.1722774718305 L-95.87382636627922,367.3025924726231 M-83.78170906865421,374.1722774718305 L-85.65287135077443,270.63119383524645 M-85.65287135077443,270.63119383524645 L-72.83109760667281,263.8872812380023 M-72.83109760667281,263.8872812380023 L-74.55150477522608,157.13601820889141 M-74.55150477522608,157.13601820889141 L174.01939689354663,31.136856342112026 M174.01939689354663,31.136856342112026 L173.7923800593378,36.626533747970086 M173.7923800593378,36.626533747970086 L173.33475056048678,42.2094931633834 M173.33475056048678,42.2094931633834 L172.6482745437679,47.870035190447425 M172.6482745437679,47.870035190447425 L171.735347574382,53.59214290380862 M171.735347574382,53.59214290380862 L170.59891732283165,59.35979518542064 M170.59891732283165,59.35979518542064 L169.2425372583707,65.15690227403422 M169.2425372583707,65.15690227403422 L167.67031693197293,70.96729418703171 M167.67031693197293,70.96729418703171 L165.88691709087618,76.7748757713789 M165.88691709087618,76.7748757713789 L163.8975213357843,82.5636036785819 M163.8975213357843,82.5636036785819 L161.70784543698483,88.317515284347 M161.70784543698483,88.317515284347 L159.3241301648909,94.02069534532819 M159.3241301648909,94.02069534532819 L156.7530738606116,99.65751018898311 M156.7530738606116,99.65751018898311 L154.0018771939741,105.21243020441989 M154.0018771939741,105.21243020441989 L151.0781792191667,110.67019243092375 M151.0781792191667,110.67019243092375 L147.99007381662022,116.01573359226029 M147.99007381662022,116.01573359226029 L144.74605684489677,121.23437183070706 M144.74605684489677,121.23437183070706 L141.35505469611473,126.311688144416 M141.35505469611473,126.311688144416 L137.82634608472677,131.2336292676178 M137.82634608472677,131.2336292676178 L134.1696083035868,135.98654676444374 M134.1696083035868,135.98654676444374 L130.3948329414115,140.55716442129278 M130.3948329414115,140.55716442129278 L126.51234321426034,144.93272893342805 M126.51234321426034,144.93272893342805 L122.53276349301291,149.10090493073932 M122.53276349301291,149.10090493073932 L118.46699989848128,153.0499005825095 M118.46699989848128,153.0499005825095 L114.32620898442968,156.76843640983773 M114.32620898442968,156.76843640983773 L110.12176956399844,160.2458313899484 M110.12176956399844,160.2458313899484 L110.12776748572685,160.33517105116158 M110.12776748572685,160.33517105116158 L110.11548760254561,160.43346245547394 M110.11548760254561,160.43346245547394 L110.08565370654992,160.53501265865054 M110.08565370654992,160.53501265865054 L110.03998914824075,160.63391023772118 M110.03998914824075,160.63391023772118 L109.98115039108075,160.72441249834378 M109.98115039108075,160.72441249834378 L109.91256121368247,160.8012672737167 M109.91256121368247,160.8012672737167 L109.8381995371252,160.86001267134264 M109.8381995371252,160.86001267134264 L109.76238990522705,160.89720347804564 M109.76238990522705,160.89720347804564 L109.68953778712944,160.9107152961131 M109.68953778712944,160.9107152961131 L109.6238720672248,160.89973885073985 M109.6238720672248,160.89973885073985 L109.56921914406331,160.86492239151272 M109.56921914406331,160.86492239151272 L109.52874593026814,160.80829526497854 M109.52874593026814,160.80829526497854 L109.50480863542566,160.73311237414237 M109.50480863542566,160.73311237414237 L105.28250581540163,164.22572327615575 M105.28250581540163,164.22572327615575 L101.1155477247213,167.96873762272827 M101.1155477247213,167.96873762272827 L97.01700556062741,171.95086728211538 M97.01700556062741,171.95086728211538 L92.99977390721637,176.16007757752368 M92.99977390721637,176.16007757752368 L89.07651212980659,180.58345180082677 M89.07651212980659,180.58345180082677 L85.25959685414642,185.20738110028026 M85.25959685414642,185.20738110028026 L81.5610761409892,190.01759039704348 M81.5610761409892,190.01759039704348 L77.99262648106242,194.99911738817107 M77.99262648106242,194.99911738817107 L74.56550903376211,200.13643479244928 M74.56550903376211,200.13643479244928 L71.2905222391766,205.41348191192742 M71.2905222391766,205.41348191192742 L68.1779691540425,210.81376042417307 M68.1779691540425,210.81376042417307 L65.23761057394574,216.3202980277899 M65.23761057394574,216.3202980277899 L62.47863839944944,221.91583762002554 M62.47863839944944,221.91583762002554 L59.90963568271388,227.5827527637138 M59.90963568271388,227.5827527637138 L57.538547191160376,233.30328714320592 M57.538547191160376,233.30328714320592 L55.37265505977729,239.05946359654192 M55.37265505977729,239.05946359654192 L53.418546746437244,244.8332558097394 M53.418546746437244,244.8332558097394 L51.68210190271998,250.6066096458577 M51.68210190271998,250.6066096458577 L50.16846686426891,256.36147154403056 M50.16846686426891,256.36147154403056 L48.88204418713491,262.07992564579723 M48.88204418713491,262.07992564579723 L47.826477677314415,267.7442860853675 M47.826477677314415,267.7442860853675 L47.004645120362284,273.3369755473799 M47.004645120362284,273.3369755473799 L46.418652530049485,278.8408445593052 M46.418652530049485,278.8408445593052 L46.0698326449496,284.2389761962111 M46.0698326449496,284.2389761962111 L45.95874547396329,289.51499959409466 M45.95874547396329,289.51499959409466 L45.932940571503536,303.5468625352029 M45.95874547396329,289.51499959409466 L33.83479846764487,282.9734069055765 M33.83479846764487,282.9734069055765 L33.83479711903692,296.9885543667942 M33.83479846764487,282.9734069055765 L33.93628487615672,277.703876415979 M33.93628487615672,277.703876415979 L34.27551641615702,272.31280950155815 M34.27551641615702,272.31280950155815 L34.85196162090534,266.8165553990563 M34.85196162090534,266.8165553990563 L35.664316685955384,261.2320071515294 M35.664316685955384,261.2320071515294 L36.71050436081589,255.5762884892361 M36.71050436081589,255.5762884892361 L37.98767582576778,249.8669489143291 M37.98767582576778,249.8669489143291 L39.492215870442976,244.12164482926758 M39.492215870442976,244.12164482926758 L41.2197504015943,238.35826087330477 M41.2197504015943,238.35826087330477 L43.1651612619778,232.5948177999811 M43.1651612619778,232.5948177999811 L45.32259645198445,226.8493355686066 M45.32259645198445,226.8493355686066 L47.68549560936276,221.13980505819174 M47.68549560936276,221.13980505819174 L50.246603106134216,215.48416682248688 M50.246603106134216,215.48416682248688 L52.99799979923796,209.90013969698452 M52.99799979923796,209.90013969698452 L55.931127558346304,204.405311733031 M55.931127558346304,204.405311733031 L59.036818274456095,199.01690112246027 M59.036818274456095,199.01690112246027 L62.305333991812915,193.75184072966303 M62.305333991812915,193.75184072966303 L65.72639319879192,188.6265892265372 M65.72639319879192,188.6265892265372 L69.28921779786776,183.6571675134553 M69.28921779786776,183.6571675134553 L72.98256560145813,178.85906313051532 M72.98256560145813,178.85906313051532 L76.79477768397311,174.24719884201008 M76.79477768397311,174.24719884201008 L80.71382193434476,169.83581063987103 M80.71382193434476,169.83581063987103 L84.72733611637113,165.63846880773048 M84.72733611637113,165.63846880773048 L88.82267366534535,161.668052130422 M88.82267366534535,161.668052130422 L92.98695087700406,157.9365583348147 M92.98695087700406,157.9365583348147 L97.20710579782383,154.45523951477585 M97.20710579782383,154.45523951477585 L97.23120779051817,154.53036846024003 M97.23120779051817,154.53036846024003 L97.27182823344828,154.5869919088614 M97.27182823344828,154.5869919088614 L97.32660242571438,154.6218551177953 M97.32660242571438,154.6218551177953 L97.39235640707346,154.63292604336516 M97.39235640707346,154.63292604336516 L97.46525862037788,154.61955093823693 M97.46525862037788,154.61955093823693 L97.54107731924597,154.5825311079468 M97.54107731924597,154.5825311079468 L97.61540643751766,154.52398105881332 M97.61540643751766,154.52398105881332 L97.68392337637567,154.44733460774495 M97.68392337637567,154.44733460774495 L97.74265441058526,154.35704156103247 M97.74265441058526,154.35704156103247 L97.78818200171423,154.25834193158423 M97.78818200171423,154.25834193158423 L97.81785763348489,154.156966914458 M97.81785763348489,154.156966914458 L97.829967182009,154.05881775949882 M97.829967182009,154.05881775949882 L97.82379670889742,153.9695791532691 M161.54664554575334,25.126877023261443 L161.3297251504814,30.609121680310864 M161.3297251504814,30.609121680310864 L160.8821209940745,36.18418327070208 M160.8821209940745,36.18418327070208 L160.20557058459121,41.83638403014254 M160.20557058459121,41.83638403014254 L159.302441089191,47.54972982984418 M159.302441089191,47.54972982984418 L158.17565253831367,53.30822300880408 M158.17565253831367,53.30822300880408 L156.82873146256634,59.095798115592686 M156.82873146256634,59.095798115592686 L155.26576110598455,64.89631029181481 M155.26576110598455,64.89631029181481 L153.4913768298784,70.69369014562307 M153.4913768298784,70.69369014562307 L151.51073769668358,76.47192073999736 M151.51073769668358,76.47192073999736 L149.32953584844756,82.21506652045224 M149.32953584844756,82.21506652045224 L146.95398926279609,87.90724003272135 M146.95398926279609,87.90724003272135 L144.39077468492957,93.53283574035657 M144.39077468492957,93.53283574035657 L141.64707209110765,99.0763528420888 M141.64707209110765,99.0763528420888 L138.73050097057126,104.52255758380647 M138.73050097057126,104.52255758380647 L135.6491366464437,109.85641643355876 M135.6491366464437,109.85641643355876 L132.411457697544,115.0632775322855 M132.411457697544,115.0632775322855 L129.02637430529626,120.12875235424315 M129.02637430529626,120.12875235424315 L125.5031501344987,125.03881835873784 M125.5031501344987,125.03881835873784 L121.85144869212348,129.77985813594648 M121.85144869212348,129.77985813594648 L118.08124887416727,134.33862672625418 M118.08124887416727,134.33862672625418 L114.20286257574486,138.70240216901442 M114.20286257574486,138.70240216901442 L110.22690396780263,142.85888062835045 M110.22690396780263,142.85888062835045 L106.16427028360863,146.79630182670965 M106.16427028360863,146.79630182670965 L102.02611038744385,150.5034178586967 M102.02611038744385,150.5034178586967 L97.82379670889742,153.9695791532691 M161.54664554575334,25.126877023261443 L-87.02621360012603,150.56003045455662 M-85.11213606492231,257.1738892343301 L-87.02621360012603,150.56003045455662 M-85.11213606492231,257.1738892343301 L-97.93268350426979,263.88728258538487 M-95.87382636627922,367.3025924726231 L-97.93268350426979,263.88728258538487 M-97.93268350426979,263.88728258538487 L-85.65287135077443,270.63119383524645 M109.50480863542566,160.73311237414237 L97.20710579782383,154.45523951477585 M110.12176956399844,160.2458313899484 L97.82379670889742,153.9695791532691 M174.01939689354663,31.136856342112026 L161.54664554575334,25.126877023261443 M-74.55150477522608,157.13601820889141 L-87.02621360012603,150.56003045455662 M-72.83109760667281,263.8872812380023 L-85.11213606492231,257.1738892343301" stroke="black"  stroke-width="4"  fill="red"/>
<path d="M103.14652307345978,265.8913767621181 L103.28069762246116,253.08304065078843 M103.28069762246116,253.08304065078843 L103.4149283822087,253.17311846432216 M103.4149283822087,253.17311846432216 L103.50530691622072,253.27747408541364 M103.50530691622072,253.27747408541364 L103.54658088000622,253.3900430823054 M103.54658088000622,253.3900430823054 L103.53633627664004,253.5042900313184 M103.53633627664004,253.5042900313184 L103.47517350687377,253.61356835049335 M103.47517350687377,253.61356835049335 L103.36663361345705,253.71153085247303 M103.36663361345705,253.71153085247303 L103.21702629526072,253.79247893474172 M103.21702629526072,253.79247893474172 L103.03504440312076,253.85170599349448 M103.03504440312076,253.85170599349448 L102.8312715517439,253.88576474836287 M102.8312715517439,253.88576474836287 L102.61754496458872,253.89267875539193 M102.61754496458872,253.89267875539193 L102.40630364345907,253.8720399525369 M102.40630364345907,253.8720399525369 L102.20981934837442,253.82505424398315 M102.20981934837442,253.82505424398315 L102.03951864955542,253.75445247158953 M102.03951864955542,253.75445247158953 L101.90530401887952,253.6643395483033 M101.90530401887952,253.6643395483033 L101.81497014416436,253.55995661403378 M101.81497014416436,253.55995661403378 L101.77375974445522,253.44737467786172 M101.77375974445522,253.44737467786172 L101.78407225837623,253.33313212734112 M101.78407225837623,253.33313212734112 L101.84529172409862,253.2238745365672 M101.84529172409862,253.2238745365672 L101.95386411289036,253.12594434501003 M101.95386411289036,253.12594434501003 L102.10347228056514,253.04503275278603 M102.10347228056514,253.04503275278603 L102.28542318169059,252.9858380046732 M102.28542318169059,252.9858380046732 L102.48914030219964,252.95179997762648 M102.48914030219964,252.95179997762648 L102.70279918360745,252.94489036985317 M102.70279918360745,252.94489036985317 L102.91397633818224,252.96551623205846 M102.91397633818224,252.96551623205846 L103.11041470229281,253.0124746277987 M103.11041470229281,253.0124746277987 L103.28069762246116,253.08304065078843 M103.14652307345978,265.8913767621181 L102.97657233817,265.82064191676596 M102.97657233817,265.82064191676596 L102.78051561082589,265.77357117400516 M102.78051561082589,265.77357117400516 L102.56974737260623,265.75289596392463 M102.56974737260623,265.75289596392463 L102.35650096329033,265.7598221031642 M102.35650096329033,265.7598221031642 L102.15317589825008,265.7939415664083 M102.15317589825008,265.7939415664083 L101.97157388869789,265.8532779347188 M101.97157388869789,265.8532779347188 L101.82225117325822,265.9343830960755 M101.82225117325822,265.9343830960755 L101.71388421076472,266.0325475597975 M101.71388421076472,266.0325475597975 L101.65277818728839,266.1420665057221 M101.65277818728839,266.1420665057221 L101.64248053643638,266.2565823191911 M101.64248053643638,266.2565823191911 L101.68360631318524,266.3694335294685 M101.68360631318524,266.3694335294685 L101.77376099478874,266.4740661125874 M101.77376099478874,266.4740661125874 L101.9077122552618,266.56439454417693 M101.9077122552618,266.56439454417693 L102.07768070013049,266.6351651558198 M102.07768070013049,266.6351651558198 L102.27378317989377,266.682263223822 M102.27378317989377,266.682263223822 L102.48461533635322,266.70295138044037 M102.48461533635322,266.70295138044037 L102.69792919021432,266.6960208399435 M102.69792919021432,266.6960208399435 L102.90130977188454,266.6618806394463 M102.90130977188454,266.6618806394463 L103.08294265424848,266.6025119457937 M103.08294265424848,266.6025119457937 L103.23226452512444,266.5213702777886 M103.23226452512444,266.5213702777886 L103.34059911914926,266.4231734889422 M103.34059911914926,266.4231734889422 L103.40164866649098,266.3136338051845 M103.40164866649098,266.3136338051845 L103.4118786691754,266.1991135912217 M103.4118786691754,266.1991135912217 L103.37068957317962,266.0862753261124 M103.37068957317962,266.0862753261124 L103.2804904034765,265.98167006859967 M103.2804904034765,265.98167006859967 L103.14652307345978,265.8913767621181 M104.21121200320624,252.57968185379315 L104.54682003300184,252.80480855090863 M104.54682003300184,252.80480855090863 L104.77285212401188,253.0656449688797 M104.77285212401188,253.0656449688797 L104.8761493966964,253.3470472053833 M104.8761493966964,253.3470472053833 L104.85066905151302,253.63266978442428 M104.85066905151302,253.63266978442428 L104.69786434241092,253.90590734030854 M104.69786434241092,253.90590734030854 L104.42657588541056,254.15087436424548 M104.42657588541056,254.15087436424548 L104.05256394323334,254.35331046678863 M104.05256394323334,254.35331046678863 L103.59755079022727,254.50143857929348 M103.59755079022727,254.50143857929348 L103.08800877396368,254.58662660498572 M103.08800877396368,254.58662660498572 L102.5535709343826,254.60391779539694 M102.5535709343826,254.60391779539694 L102.02533984639558,254.55230018919144 M102.02533984639558,254.55230018919144 L101.53404562665298,254.43478354563348 M101.53404562665298,254.43478354563348 L101.1082643609019,254.2582115194163 M101.1082643609019,254.2582115194163 L100.77275394983758,254.03286370651347 M100.77275394983758,254.03286370651347 L100.54700037057466,253.77185626120433 M100.54700037057466,253.77185626120433 L100.44410098698029,253.49037347303488 M100.44410098698029,253.49037347303488 L100.47000546549532,253.20477822416277 M100.47000546549532,253.20477822416277 L100.62316452743858,252.9316702220971 M100.62316452743858,252.9316702220971 L100.89465608027734,252.68690513889862 M100.89465608027734,252.68690513889862 L101.2686733316578,252.4846970963222 M101.2686733316578,252.4846970963222 L101.723492791115,252.33677092489756 M101.723492791115,252.33677092489756 L102.23268648642937,252.251712451515 M102.23268648642937,252.251712451515 L102.76670147258272,252.23444891309452 M102.76670147258272,252.23444891309452 L103.29453090605449,252.28598532603803 M103.29453090605449,252.28598532603803 L103.78553866602783,252.4033315824487 M103.78553866602783,252.4033315824487 L104.21121200320624,252.57968185379315 M104.22719360519181,251.0741311610892 L104.56287907005628,251.29919428356217 M104.56287907005628,251.29919428356217 L104.7889639155307,251.55995705238195 M104.7889639155307,251.55995705238195 L104.89228618568768,251.84127984453878 M104.89228618568768,251.84127984453878 L104.8668016115779,252.12682180020255 M104.8668016115779,252.12682180020255 L104.71396367837968,252.399982240389 M104.71396367837968,252.399982240389 L104.44261491700456,252.6448801371566 M104.44261491700456,252.6448801371566 L104.06851908939024,252.84725912127465 M104.06851908939024,252.84725912127465 L103.61340334165789,252.9953454426319 M103.61340334165789,252.9953454426319 L103.10374599395368,253.08050943588916 M103.10374599395368,253.08050943588916 L102.56918680021658,253.09779574841036 M102.56918680021658,253.09779574841036 L102.04083540598003,253.0461927038025 M102.04083540598003,253.0461927038025 L101.54942893460657,252.92870921383283 M101.54942893460657,252.92870921383283 L101.1235500065718,252.75218700579308 M101.1235500065718,252.75218700579308 L100.78796220348414,252.5269027796651 M100.78796220348414,252.5269027796651 L100.56215599553218,252.2659689930203 M100.56215599553218,252.2659689930203 L100.45923179468286,251.98456565357114 M100.45923179468286,251.98456565357114 L100.4851406950433,251.6990510266041 M100.4851406950433,251.6990510266041 L100.63833314276877,251.4260201330851 M100.63833314276877,251.4260201330851 L100.90988509332749,251.1813241659093 M100.90988509332749,251.1813241659093 L101.28398623376393,250.97917322916967 M101.28398623376393,250.97917322916967 L101.73890820101087,250.831288837746 M101.73890820101087,250.831288837746 L102.24821707019106,250.74625438964742 M102.24821707019106,250.74625438964742 L102.7823532184538,250.72899572755418 M102.7823532184538,250.72899572755418 L103.31030277539111,250.78051758345455 M103.31030277539111,250.78051758345455 L103.80142265580253,250.8978306956091 M103.80142265580253,250.8978306956091 L104.22719360519181,251.0741311610892 M104.22719360519181,251.0741311610892 L104.21121200320624,252.57968185379315" stroke="black"  stroke-width="4"  fill="red"/>
<path d="M-85.11213606492231,257.1738892343301 L-97.93268350426979,263.88728258538487 M-97.93268350426979,263.88728258538487 L-100.05795489951402,157.13601952874507 M-87.02621360012603,150.56003045455662 L-100.05795489951402,157.13601952874507 M-85.11213606492231,257.1738892343301 L-87.02621360012603,150.56003045455662 M-83.78170906865421,374.1722774718305 L-29.317146310362887,405.1142854394931 M-29.317146310362887,405.1142854394931 L-29.46018625116602,390.4428542681455 M-29.46018625116602,390.4428542681455 L33.834163431190234,426.2323787576782 M33.834163431190234,440.99134439731955 L33.834163431190234,426.2323787576782 M33.834163431190234,440.99134439731955 L315.66300084715783,601.1018766628965 M315.66300084715783,601.1018766628965 L316.34170163924034,585.9750810354623 M316.34170163924034,585.9750810354623 L387.94261720618795,626.4615183559578 M387.0814547568808,641.6756049368169 L387.94261720618795,626.4615183559578 M387.0814547568808,641.6756049368169 L606.0958298171535,766.1004455110844 M606.0958298171535,766.1004455110844 L616.3803758796573,656.1786154565567 M616.3803758796573,656.1786154565567 L632.1268738408462,664.826384935356 M632.1268738408462,664.826384935356 L643.1047200324492,550.7412607661616 M-100.05795489951402,157.13601952874507 L643.1047200324492,550.7412607661616 M-97.93268350426979,263.88728258538487 L-85.65287135077443,270.63119383524645 M-83.78170906865421,374.1722774718305 L-85.65287135077443,270.63119383524645 M644.800894520623,656.1786085475933 L629.0622656247932,647.5751353366569 M618.5802671035808,757.371905790709 L629.0622656247932,647.5751353366569 M618.5802671035808,757.371905790709 L399.65054426619656,633.5612197630044 M399.65054426619656,633.5612197630044 L400.54017942675785,618.3643990387081 M400.54017942675785,618.3643990387081 L328.9584627590324,578.0734499735288 M328.2511505082383,593.1829293757224 L328.9584627590324,578.0734499735288 M328.2511505082383,593.1829293757224 L46.45650926324231,433.8204298516686 M46.45650926324231,433.8204298516686 L46.48536397356662,419.0788104864872 M46.48536397356662,419.0788104864872 L-16.81030979984581,383.45179723827584 M-16.696115591838634,398.10591056930707 L-16.81030979984581,383.45179723827584 M-16.696115591838634,398.10591056930707 L-71.16445277853313,367.3025911000632 M-71.16445277853313,367.3025911000632 L-72.83109760667281,263.8872812380023 M-72.83109760667281,263.8872812380023 L-85.11213606492231,257.1738892343301 M655.981979628266,542.2335234893367 L-87.02621360012603,150.56003045455662 M644.800894520623,656.1786085475933 L655.981979628266,542.2335234893367 M-83.78170906865421,374.1722774718305 L-71.16445277853313,367.3025911000632 M-85.65287135077443,270.63119383524645 L-72.83109760667281,263.8872812380023 M-16.696115591838634,398.10591056930707 L-29.317146310362887,405.1142854394931 M-16.81030979984581,383.45179723827584 L-29.46018625116602,390.4428542681455 M33.834163431190234,440.99134439731955 L46.45650926324231,433.8204298516686 M33.834163431190234,426.2323787576782 L46.48536397356662,419.0788104864872 M328.2511505082383,593.1829293757224 L315.66300084715783,601.1018766628965 M328.9584627590324,578.0734499735288 L316.34170163924034,585.9750810354623 M387.0814547568808,641.6756049368169 L399.65054426619656,633.5612197630044 M387.94261720618795,626.4615183559578 L400.54017942675785,618.3643990387081 M618.5802671035808,757.371905790709 L606.0958298171535,766.1004455110844 M629.0622656247932,647.5751353366569 L616.3803758796573,656.1786154565567 M632.1268738408462,664.826384935356 L644.800894520623,656.1786085475933 M643.1047200324492,550.7412607661616 L655.981979628266,542.2335234893367" stroke="black"  stroke-width="4"  fill="red"/></svg>