<svg viewBox="0 0 800 800" xmlns="http://www.w3.org/2000/svg"><path d="M-42.34520419564592,207.50949319648407 L-42.345200884832934,207.50898496973775 M842.3451908356981,460.4066365096154 L842.3452041956459,460.40612554620475 M-42.34520419564592,207.50949319648407 L15.289175600824478,212.58158282036197 M15.289175600824478,212.58158282036197 L72.59377578973442,218.94165014026873 M72.59377578973442,218.94165014026873 L129.49294536381217,226.582370935168 M129.49294536381217,226.582370935168 L185.91144620230273,235.49500001991646 M185.91144620230273,235.49500001991646 L241.7743855143882,245.6692785002282 M241.7743855143882,245.6692785002282 L297.00730784459233,257.09344376982824 M297.00730784459233,257.09344376982824 L351.5362647926461,269.7542517499908 M351.5362647926461,269.7542517499908 L405.2878836225534,283.6369992634891 M405.2878836225534,283.6369992634891 L458.1894916966821,298.72547259654266 M458.1894916966821,298.72547259654266 L510.1690517249806,315.00196763975134 M510.1690517249806,315.00196763975134 L561.1553548364568,332.4473179748659 M561.1553548364568,332.4473179748659 L611.0781339696537,351.04093118108074 M611.0781339696537,351.04093118108074 L659.8678504897232,370.7606149198457 M659.8678504897232,370.7606149198457 L707.4562155795204,391.5828577500895 M707.4562155795204,391.5828577500895 L753.7757230909792,413.48248274761943 M753.7757230909792,413.48248274761943 L798.7603579508595,436.43306584393747 M798.7603579508595,436.43306584393747 L842.3451908356981,460.4066365096154 M-42.345200884832934,207.50898496973775 L15.289179557692705,212.58107453811635 M15.289179557692705,212.58107453811635 L72.5937803895074,218.94114178846598 M72.5937803895074,218.94114178846598 L129.49295060259544,226.58186249985454 M129.49295060259544,226.58186249985454 L185.91145207545833,235.49449148726262 M185.91145207545833,235.49449148726262 L241.77439201653385,245.66876985654926 M241.77439201653385,245.66876985654926 L297.007314969602,257.0929350016055 M297.007314969602,257.0929350016055 L351.5362725336497,269.75374284389113 M351.5362725336497,269.75374284389113 L405.28789197193714,283.6364902063856 M405.28789197193714,283.6364902063856 L458.18950064608885,298.7249633755333 M458.18950064608885,298.7249633755333 L510.1690612653117,315.00145824217987 M510.1690612653117,315.00145824217987 L561.1553649578705,332.4468083883397 M561.1553649578705,332.4468083883397 L611.078144661569,351.0404213934894 M611.078144661569,351.0404213934894 L659.8678617408209,370.760104919381 M659.8678617408209,370.760104919381 L707.4562273777449,391.58234752526073 M707.4562273777449,391.58234752526073 L753.7757354235398,413.48197228727395 M753.7757354235398,413.48197228727395 L798.760370804237,436.4325551372748 M798.760370804237,436.4325551372748 L842.3452041956459,460.40612554620475 M624.4623515956443,592.4910150302621 L624.4623625516581,592.4905026623295 M842.3451908356981,460.4066365096154 L624.4623515956443,592.4910150302621 M842.3452041956459,460.40612554620475 L624.4623625516581,592.4905026623295 M624.4623515956443,592.4910150302621 L-42.34520419564592,207.50949319648407 M624.4623625516581,592.4905026623295 L-42.345200884832934,207.50898496973775" stroke="black"  stroke-width="4"  fill="red"/></svg>