<svg viewBox="0 0 800 800" xmlns="http://www.w3.org/2000/svg"><path d="M-213.49376676047223,18.91916261047146 L-230.64163457744098,28.4268412165693 M-230.6416342076202,24.583550134378356 L-230.64163457744098,28.4268412165693 M-230.6416342076202,24.583550134378356 L-230.64173075849067,24.565076571072154 M-230.64173075849067,24.565076571072154 L-230.64178869011698,24.546584440343338 M-230.64178869011698,24.546584440343338 L-230.6418080009629,24.52806748353413 M-213.45708676136223,15.043733663570492 L-230.6418080009629,24.52806748353413 M-213.49376676047223,18.91916261047146 L-213.45708676136223,15.043733663570492 M1038.1355981214047,731.9034218702479 L1027.1271137354333,725.7997412914676 M1016.545267538794,785.7898099094061 L1027.1271137354333,725.7997412914676 M1016.545267538794,785.7898099094061 L455.2452543104266,461.2674248600729 M452.4831653648462,465.458129185119 L455.2452543104266,461.2674248600729 M311.51316264392744,383.58603898541503 L452.4831653648462,465.458129185119 M314.53023651616036,379.91133700928617 L311.51316264392744,383.58603898541503 M314.53023651616036,379.91133700928617 L-109.85816603056912,134.54605403056007 M-113.2900369558165,136.87024694838988 L-109.85816603056912,134.54605403056007 M-192.70039135359616,90.75056494117149 L-113.2900369558165,136.87024694838988 M-189.24994153461944,88.64473970190124 L-192.70039135359616,90.75056494117149 M-189.24994153461944,88.64473970190124 L-259.3701447424146,48.103896928253675 M-227.330769436227,30.26255833736957 L-259.3701447424146,48.103896928253675 M-227.330769436227,30.26255833736957 L-230.64163457744098,28.4268412165693 M1043.448951578025,700.3901251904149 L-213.49376676047223,18.91916261047146 M1038.1355981214047,731.9034218702479 L1043.448951578025,700.3901251904149 M-220.1944483498737,24.457558859539574 L-220.24101923006265,24.437530606685698 M-220.24101923006265,24.437530606685698 L-220.29484553366535,24.4242029772181 M-220.29484553366535,24.4242029772181 L-220.3527989507263,24.418349352448843 M-220.3527989507263,24.418349352448843 L-220.4115138541672,24.42031005926981 M-220.4115138541672,24.42031005926981 L-220.46757873764489,24.429971022101427 M-220.46757873764489,24.429971022101427 L-220.5177374769478,24.44677154443741 M-220.5177374769478,24.44677154443741 L-220.55907507716176,24.469735686174374 M-220.55907507716176,24.469735686174374 L-220.58918960901792,24.497529996438743 M-220.58918960901792,24.497529996438743 L-220.60632957641405,24.52853957081726 M-220.60632957641405,24.52853957081726 L-220.60949802270193,24.560963220651104 M-220.60949802270193,24.560963220651104 L-220.59850881025886,24.592916270088665 M-220.59850881025886,24.592916270088665 L-220.57399991028274,24.622541924181974 M-220.57399991028274,24.622541924181974 L-220.53739371798565,24.64811713149345 M-220.53739371798565,24.64811713149345 L-220.49081808978008,24.66815546424641 M-220.49081808978008,24.66815546424641 L-220.43697933166015,24.68149079424404 M-220.43697933166015,24.68149079424404 L-220.37900844143894,24.68734806724666 M-220.37900844143894,24.68734806724666 L-220.32027504875066,24.68538612033865 M-220.32027504875066,24.68538612033865 L-220.26419489584782,24.675719313328045 M-220.26419489584782,24.675719313328045 L-220.21402760480805,24.658909681409966 M-220.21402760480805,24.658909681409966 L-220.17269012974907,24.63593525175986 M-220.17269012974907,24.63593525175986 L-220.14258437126955,24.608131831974845 M-220.14258437126955,24.608131831974845 L-220.12545981548988,24.577116413440194 M-220.12545981548988,24.577116413440194 L-220.12230988862052,24.544691523548124 M-220.12230988862052,24.544691523548124 L-220.13331648546136,24.51274212224837 M-220.13331648546136,24.51274212224837 L-220.15783765259562,24.48312416881606 M-220.15783765259562,24.48312416881606 L-220.1944483498737,24.457558859539574 M1035.4098314103271,712.6760420068797 L1035.2711719321135,712.6100182702617 M1035.2711719321135,712.6100182702617 L1035.1375713086593,712.5661444202024 M1035.1375713086593,712.5661444202024 L1035.0165581659262,712.5468386636426 M1035.0165581659262,712.5468386636426 L1034.9154033331067,712.5533568300489 M1034.9154033331067,712.5533568300489 L1034.8397005053396,712.5851658467279 M1034.8397005053396,712.5851658467279 L1034.7938925424694,712.6404461441898 M1034.7938925424694,712.6404461441898 L1034.7808145865322,712.7160824464111 M1034.7808145865322,712.7160824464111 L1034.801230882576,712.80768518213 M1034.801230882576,712.80768518213 L1034.8537900358976,712.90984026662 M1034.8537900358976,712.90984026662 L1034.9353986924016,713.0165901334965 M1034.9353986924016,713.0165901334965 L1035.0416006143562,713.1218842805231 M1035.0416006143562,713.1218842805231 L1035.165982062199,713.2194688980137 M1035.165982062199,713.2194688980137 L1035.3015444468774,713.3037926717068 M1035.3015444468774,713.3037926717068 L1035.4401281857154,713.3697995245011 M1035.4401281857154,713.3697995245011 L1035.573807528133,713.413719396621 M1035.573807528133,713.413719396621 L1035.694896139213,713.4330469979632 M1035.694896139213,713.4330469979632 L1035.7962455485194,713.4265980206035 M1035.7962455485194,713.4265980206035 L1035.8718302355535,713.3946773996597 M1035.8718302355535,713.3946773996597 L1035.917621842883,713.3393426866028 M1035.917621842883,713.3393426866028 L1035.930648999407,713.2636448659389 M1035.930648999407,713.2636448659389 L1035.910159121682,713.171987631212 M1035.910159121682,713.171987631212 L1035.8576603845556,713.0698742461718 M1035.8576603845556,713.0698742461718 L1035.7758448825014,712.963040332314 M1035.7758448825014,712.963040332314 L1035.6696035444727,712.8577680000556 M1035.6696035444727,712.8577680000556 L1035.5452193913984,712.760229413667 M1035.5452193913984,712.760229413667 L1035.4098314103271,712.6760420068797 M-227.32369343191976,26.414858360066148 L-230.6416342076202,24.583550134378356 M-227.32369343191976,26.414858360066148 L-227.330769436227,30.26255833736957 M-227.32376490185607,26.359312107301264 L-227.32377970125253,26.377850359740137 M-227.32377970125253,26.377850359740137 L-227.3237558735873,26.39636368870572 M-227.3237558735873,26.39636368870572 L-227.32369343191976,26.414858360066148 M-230.6418080009629,24.52806748353413 L-227.32376490185607,26.359312107301264 M1032.0929642797637,721.4377199245721 L1043.1647706655826,727.5483053852852 M1043.1647706655826,727.5483053852852 L1048.3962977338756,696.0010970685655 M1048.3962977338756,696.0010970685655 L-213.45708676136223,15.043733663570492 M-227.32376490185607,26.359312107301264 L-259.4337373617707,44.157974962985804 M-259.4337373617707,44.157974962985804 L-189.15402899856713,84.60808516021166 M-189.15402899856713,84.60808516021166 L-192.6122699483319,86.70942592297865 M-192.6122699483319,86.70942592297865 L-113.00364624137262,132.73655304645018 M-113.00364624137262,132.73655304645018 L-109.5641176282511,130.41676536814373 M-109.5641176282511,130.41676536814373 L316.19961636303844,375.4688630365947 M316.19961636303844,375.4688630365947 L313.1784030203079,379.1412067849145 M313.1784030203079,379.1412067849145 L454.72457854170625,460.97861975849287 M454.72457854170625,460.97861975849287 L457.48837029844253,456.7888599378357 M457.48837029844253,456.7888599378357 L1021.6612583970618,781.5035752570682 M1032.0929642797637,721.4377199245721 L1021.6612583970618,781.5035752570682 M-219.91429621663963,20.425908773056335 L-219.82256359418966,20.489646515108575 M-219.82256359418966,20.489646515108575 L-219.76110302889765,20.563494318528797 M-219.76110302889765,20.563494318528797 L-219.73349265369893,20.643164634948164 M-219.73349265369893,20.643164634948164 L-219.74134729616935,20.72402937831498 M-219.74134729616935,20.72402937831498 L-219.78421992886956,20.801388349144077 M-219.78421992886956,20.801388349144077 L-219.85962727987908,20.870742629373126 M-219.85962727987908,20.870742629373126 L-219.9631917577824,20.928056677599102 M-219.9631917577824,20.928056677599102 L-220.08889451622235,20.969994040784798 M-220.08889451622235,20.969994040784798 L-220.2294254753616,20.994112653398247 M-220.2294254753616,20.994112653398247 L-220.37660933006214,20.99900773425236 M-220.37660933006214,20.99900773425236 L-220.52188240725457,20.98439387062814 M-220.52188240725457,20.98439387062814 L-220.65679277734682,20.951122807335707 M-220.65679277734682,20.951122807335707 L-220.77349344489983,20.901132086852556 M-220.77349344489983,20.901132086852556 L-220.86519866460867,20.837332023871795 M-220.86519866460867,20.837332023871795 L-220.9265823977032,20.763436016105686 M-220.9265823977032,20.763436016105686 L-220.95408348622573,20.68374299666027 M-220.95408348622573,20.68374299666027 L-220.94611268172935,20.602885955975296 M-220.94611268172935,20.602885955975296 L-220.9031433099616,20.525563499906752 M-220.9031433099616,20.525563499906752 L-220.82768088760372,20.456266136180716 M-220.82768088760372,20.456266136180716 L-220.72411562240927,20.399016367315653 M-220.72411562240927,20.399016367315653 L-220.59846654110083,20.357135920630355 M-220.59846654110083,20.357135920630355 L-220.4580314265827,20.333053822817647 M-220.4580314265827,20.333053822817647 L-220.3109635441333,20.32816653529153 M-220.3109635441333,20.32816653529153 L-220.16580031198077,20.34275751424343 M-220.16580031198077,20.34275751424343 L-220.03096795266026,20.37598055444022 M-220.03096795266026,20.37598055444022 L-219.91429621663963,20.425908773056335 M1040.4457867436192,707.828536988995 L1040.786198826612,708.0391155333991 M1040.786198826612,708.0391155333991 L1041.0992434819975,708.2831681907533 M1041.0992434819975,708.2831681907533 L1041.366745081399,708.5465463348919 M1041.366745081399,708.5465463348919 L1041.5730085247794,708.8138865366341 M1041.5730085247794,708.8138865366341 L1041.7060296567354,709.069658067885 M1041.7060296567354,709.069658067885 L1041.7581277087645,709.2990283877898 M1041.7581277087645,709.2990283877898 L1041.7261433064916,709.4885879300871 M1041.7261433064916,709.4885879300871 L1041.6119077770886,709.627286874394 M1041.6119077770886,709.627286874394 L1041.422143015101,709.7070854167036 M1041.422143015101,709.7070854167036 L1041.1677962504448,709.7232765888346 M1041.1677962504448,709.7232765888346 L1040.863659618487,709.6749045441131 M1040.863659618487,709.6749045441131 L1040.5275766729358,709.5648629364362 M1040.5275766729358,709.5648629364362 L1040.1791031894775,709.3995614428507 M1040.1791031894775,709.3995614428507 L1039.8383312315655,709.1885310592372 M1039.8383312315655,709.1885310592372 L1039.525302630296,708.9441892101001 M1039.525302630296,708.9441892101001 L1039.2580488054116,708.6806740399595 M1039.2580488054116,708.6806740399595 L1039.0522080687774,708.4133804169221 M1039.0522080687774,708.4133804169221 L1038.9196876948258,708.1578283544393 M1038.9196876948258,708.1578283544393 L1038.868053873567,707.9288001728246 M1038.868053873567,707.9288001728246 L1038.9003594926407,707.7396270030663 M1038.9003594926407,707.7396270030663 L1039.0146996172655,707.601270127418 M1039.0146996172655,707.601270127418 L1039.2043285863313,707.5216911112998 M1039.2043285863313,707.5216911112998 L1039.458330081928,707.5055465059008 M1039.458330081928,707.5055465059008 L1039.7619910462697,707.5537814576955 M1039.7619910462697,707.5537814576955 L1040.0975771160531,707.66353390525 M1040.0975771160531,707.66353390525 L1040.4457867436192,707.828536988995 M1043.448951578025,700.3901251904149 L1048.3962977338756,696.0010970685655 M1043.0930052507215,727.6101802860476 L1032.0221062653097,721.4996949735232 M1043.0930052507215,727.6101802860476 L1038.1355981214047,731.9034218702479 M1032.0221062653097,721.4996949735232 L1027.1271137354333,725.7997412914676 M1032.0221062653097,721.4996949735232 L1032.0457137146616,721.4791072294686 M1032.0457137146616,721.4791072294686 L1032.069330391548,721.4584512189385 M1032.069330391548,721.4584512189385 L1032.0929642797637,721.4377199245721 M1016.545267538794,785.7898099094061 L1021.6612583970618,781.5035752570682 M455.2452543104266,461.2674248600729 L457.48837029844253,456.7888599378357 M452.4831653648462,465.458129185119 L454.72457854170625,460.97861975849287 M311.51316264392744,383.58603898541503 L313.1784030203079,379.1412067849145 M314.53023651616036,379.91133700928617 L316.19961636303844,375.4688630365947 M-109.85816603056912,134.54605403056007 L-109.5641176282511,130.41676536814373 M-113.2900369558165,136.87024694838988 L-113.00364624137262,132.73655304645018 M-192.70039135359616,90.75056494117149 L-192.6122699483319,86.70942592297865 M-189.24994153461944,88.64473970190124 L-189.15402899856713,84.60808516021166 M-259.3701447424146,48.103896928253675 L-259.4337373617707,44.157974962985804 M1043.1647706655826,727.5483053852852 L1043.1408347416873,727.5690038608718 M1043.1408347416873,727.5690038608718 L1043.116915631957,727.589626492321 M1043.116915631957,727.589626492321 L1043.0930052507215,727.6101802860476 M-220.1944483498737,24.457558859539574 L-220.17431963936565,20.977514590521594 M-220.17431963936565,20.977514590521594 L-220.13763779242674,21.003023616501764 M-220.13763779242674,21.003023616501764 L-220.11306866807604,21.032576368260948 M-220.11306866807604,21.032576368260948 L-220.10204009550444,21.064455439859614 M-220.10204009550444,21.064455439859614 L-220.10519531253965,21.096808958116412 M-220.10519531253965,21.096808958116412 L-220.12235212225562,21.12775611193416 M-220.12235212225562,21.12775611193416 L-220.15251522995663,21.155498340311397 M-220.15251522995663,21.155498340311397 L-220.193931818362,21.178422209135533 M-220.193931818362,21.178422209135533 L-220.24419539006067,21.195194848888207 M-220.24419539006067,21.195194848888207 L-220.30038339134444,21.20484038319438 M-220.30038339134444,21.20484038319438 L-220.3592299290019,21.20679801270842 M-220.3592299290019,21.20679801270842 L-220.4173126775919,21.200953629074604 M-220.4173126775919,21.200953629074604 L-220.4712555026731,21.187647645053858 M-220.4712555026731,21.187647645053858 L-220.51792135236371,21.167653410553555 M-220.51792135236371,21.167653410553555 L-220.55459867749664,21.142134489120224 M-220.55459867749664,21.142134489120224 L-220.57915548754954,21.11257403884491 M-220.57915548754954,21.11257403884491 L-220.59016660874886,21.080691320124515 M-220.59016660874886,21.080691320124515 L-220.58699280082726,21.048339041580675 M-220.58699280082726,21.048339041580675 L-220.5698205199069,21.017397730291236 M-220.5698205199069,21.017397730291236 L-220.53964860477163,20.989664608897556 M-220.53964860477163,20.989664608897556 L-220.4982318904863,20.96675102512114 M-220.4982318904863,20.96675102512114 L-220.44797690329824,20.949987492413413 M-220.44797690329824,20.949987492413413 L-220.39180423020423,20.9403478006584 M-220.39180423020423,20.9403478006584 L-220.3329762530874,20.938391410886084 M-220.3329762530874,20.938391410886084 L-220.27491104514615,20.94423214730267 M-220.27491104514615,20.94423214730267 L-220.22098072280687,20.95753043293803 M-220.22098072280687,20.95753043293803 L-220.17431963936565,20.977514590521594 M1035.4098314103271,712.6760420068797 L1039.8437013104854,708.7605933494581 M1039.8437013104854,708.7605933494581 L1039.979807838808,708.8448598047469 M1039.979807838808,708.8448598047469 L1040.1049108136854,708.9424900163801 M1040.1049108136854,708.9424900163801 L1040.2118299349727,709.0478612875918 M1040.2118299349727,709.0478612875918 L1040.2942422419458,709.1547956598583 M1040.2942422419458,709.1547956598583 L1040.3472214116289,709.2570051132789 M1040.3472214116289,709.2570051132789 L1040.368049239514,709.3487486198458 M1040.368049239514,709.3487486198458 L1040.3551962638433,709.4245177196153 M1040.3551962638433,709.4245177196153 L1040.3094049013198,709.4799045539094 M1040.3094049013198,709.4799045539094 L1040.2336480691872,709.511855248104 M1040.2336480691872,709.511855248104 L1040.1319622713618,709.5183103017796 M1040.1319622713618,709.5183103017796 L1040.0103932719946,709.4989644902726 M1040.0103932719946,709.4989644902726 L1039.8761180496667,709.4550032438863 M1039.8761180496667,709.4550032438863 L1039.7368571669183,709.3889342266045 M1039.7368571669183,709.3889342266045 L1039.6005751059213,709.3045310667508 M1039.6005751059213,709.3045310667508 L1039.4754747211814,709.2068546193457 M1039.4754747211814,709.2068546193457 L1039.3685952290466,709.1014614363701 M1039.3685952290466,709.1014614363701 L1039.2863909719688,708.9946112161115 M1039.2863909719688,708.9946112161115 L1039.23335133273,708.8923601465053 M1039.23335133273,708.8923601465053 L1039.212597761664,708.8006713812676 M1039.212597761664,708.8006713812676 L1039.225502072447,708.7249640734728 M1039.225502072447,708.7249640734728 L1039.2713100637964,708.669631896724 M1039.2713100637964,708.669631896724 L1039.347185698749,708.6377930343504 M1039.347185698749,708.6377930343504 L1039.4486758451244,708.6312687526645 M1039.4486758451244,708.6312687526645 L1039.5701687828819,708.6505926222596 M1039.5701687828819,708.6505926222596 L1039.7043645997464,708.6945076419559 M1039.7043645997464,708.6945076419559 L1039.8437013104854,708.7605933494581 M-219.91429621663963,20.425908773056335 L-219.91672025972844,20.834966866711284 M-219.91672025972844,20.834966866711284 L-219.8250085509859,20.898721215807257 M-219.8250085509859,20.898721215807257 L-219.7635620906442,20.97258825774327 M-219.7635620906442,20.97258825774327 L-219.7359581890213,21.052279326246207 M-219.7359581890213,21.052279326246207 L-219.74381129306312,21.13316512932346 M-219.74381129306312,21.13316512932346 L-219.78667446035342,21.210544243558843 M-219.78667446035342,21.210544243558843 L-219.8620649653036,21.279916580126724 M-219.8620649653036,21.279916580126724 L-219.96560619336196,21.33724554807327 M-219.96560619336196,21.33724554807327 L-220.09128064934748,21.379193827074744 M-220.09128064934748,21.379193827074744 L-220.23177990034196,21.403318717058767 M-220.23177990034196,21.403318717058767 L-220.37893048765886,21.40821507192129 M-220.37893048765886,21.40821507192129 L-220.52417067608462,21.393597404810976 M-220.52417067608462,21.393597404810976 L-220.6590504516073,21.36031768177662 M-220.6590504516073,21.36031768177662 L-220.77572459982343,21.310313948665225 M-220.77572459982343,21.310313948665225 L-220.86740891800105,21.246497276520188 M-220.86740891800105,21.246497276520188 L-220.92877858077804,21.17258202856175 M-220.92877858077804,21.17258202856175 L-220.95627324502266,21.09286825627339 M-220.95627324502266,21.09286825627339 L-220.94830403150104,21.011990156132356 M-220.94830403150104,21.011990156132356 L-220.90534416897117,20.934647557912 M-220.90534416897117,20.934647557912 L-220.82989861772262,20.865332139802433 M-220.82989861772262,20.865332139802433 L-220.72635660290678,20.808067453424997 M-220.72635660290678,20.808067453424997 L-220.6007357999481,20.766176092879277 M-220.6007357999481,20.766176092879277 L-220.46033235035293,20.742087718950586 M-220.46033235035293,20.742087718950586 L-220.31329768286992,20.73719915769385 M-220.31329768286992,20.73719915769385 L-220.16816728980757,20.751793939325296 M-220.16816728980757,20.751793939325296 L-220.03336548962477,20.785025637634703 M-220.03336548962477,20.785025637634703 L-219.91672025972844,20.834966866711284 M1040.4457867436192,707.828536988995 L1039.9237768273344,708.2896763781084 M1039.9237768273344,708.2896763781084 L1040.2639771790355,708.5002319564696 M1040.2639771790355,708.5002319564696 L1040.576809869821,708.7442579672206 M1040.576809869821,708.7442579672206 L1040.8441115713892,709.0076073188081 M1040.8441115713892,709.0076073188081 L1041.0501988902827,709.2749182567363 M1041.0501988902827,709.2749182567363 L1041.1830779264847,709.5306617545555 M1041.1830779264847,709.5306617545555 L1041.2350761557086,709.7600069047862 M1041.2350761557086,709.7600069047862 L1041.2030401024751,709.9495456246545 M1041.2030401024751,709.9495456246545 L1041.0888041297185,710.0882293211496 M1041.0888041297185,710.0882293211496 L1040.8990901202048,710.1680190861534 M1040.8990901202048,710.1680190861534 L1040.6448424066264,710.1842084769462 M1040.6448424066264,710.1842084769462 L1040.3408473565044,710.1358417536558 M1040.3408473565044,710.1358417536558 L1040.0049401812541,710.0258122470213 M1040.0049401812541,710.0258122470213 L1039.6566664092277,709.8605289190607 M1039.6566664092277,709.8605289190607 L1039.3161065747827,709.6495217050542 M1039.3161065747827,709.6495217050542 L1039.0032900236292,709.4052066529789 M1039.0032900236292,709.4052066529789 L1038.7362359397735,709.1417203466799 M1038.7362359397735,709.1417203466799 L1038.5305709644265,708.8744559632228 M1038.5305709644265,708.8744559632228 L1038.398192199891,708.6189318199883 M1038.398192199891,708.6189318199883 L1038.3466577032416,708.3899286300427 M1038.3466577032416,708.3899286300427 L1038.379014577483,708.2007760816937 M1038.379014577483,708.2007760816937 L1038.4933549427697,708.0624342758881 M1038.4933549427697,708.0624342758881 L1038.6829331960023,707.982863922862 M1038.6829331960023,707.982863922862 L1038.9368359083048,707.9667210745738 M1038.9368359083048,707.9667210745738 L1039.240355728417,708.0149507762637 M1039.240355728417,708.0149507762637 L1039.5757665348356,708.1246912732172 M1039.5757665348356,708.1246912732172 L1039.9237768273344,708.2896763781084" stroke="black"  stroke-width="4"  fill="red"/>
<path d="M1038.1355981214047,731.9034218702479 L1026.8194215584706,799.019233423269 M1038.1355981214047,731.9034218702479 L1027.1271137354333,725.7997412914676 M1015.3832643118008,792.3773799823571 L1027.1271137354333,725.7997412914676 M1026.8194215584706,799.019233423269 L1015.3832643118008,792.3773799823571 M1043.0930052507215,727.6101802860476 L1038.1355981214047,731.9034218702479 M1054.891466554696,703.7750824305774 L1055.0104971027156,704.6394497794963 M1055.0104971027156,704.6394497794963 L1055.0265208734425,705.6219851401834 M1055.0265208734425,705.6219851401834 L1054.9390858153238,706.712636503908 M1054.9390858153238,706.712636503908 L1054.7488558511027,707.9001341812091 M1054.7488558511027,707.9001341812091 L1054.4576088223166,709.1721044213295 M1054.4576088223166,709.1721044213295 L1054.0682296640334,710.5152012634212 M1054.0682296640334,710.5152012634212 L1053.5846892070226,711.9152478562812 M1053.5846892070226,711.9152478562812 L1053.0120033903925,713.3573952831146 M1053.0120033903925,713.3573952831146 L1052.3561764866379,714.8262965729825 M1052.3561764866379,714.8262965729825 L1051.624141712526,716.3062774477835 M1051.624141712526,716.3062774477835 L1050.8236912011143,717.7815099867873 M1050.8236912011143,717.7815099867873 L1049.9633664349092,719.236216905208 M1049.9633664349092,719.236216905208 L1049.0523724137518,720.6548425494768 M1049.0523724137518,720.6548425494768 L1048.100473997453,722.0222329345102 M1048.100473997453,722.0222329345102 L1047.117872619417,723.3238176996497 M1047.117872619417,723.3238176996497 L1046.1150876570528,724.5457776319972 M1046.1150876570528,724.5457776319972 L1045.1028317982634,725.6752027196032 M1045.1028317982634,725.6752027196032 L1044.0918932267948,726.7002304308558 M1044.0918932267948,726.7002304308558 L1043.0930052507215,727.6101802860476 M1054.8441581142072,703.5628059848761 L1054.812871602479,703.6054711230104 M1054.812871602479,703.6054711230104 L1054.7847762027748,703.6518248734355 M1054.7847762027748,703.6518248734355 L1054.7615106790556,703.6991687120205 M1054.7615106790556,703.6991687120205 L1054.74441719278,703.7447599903521 M1054.74441719278,703.7447599903521 L1054.7344916469456,703.7859474130926 M1054.7344916469456,703.7859474130926 L1054.7323153290897,703.8203353208717 M1054.7323153290897,703.8203353208717 L1054.7380147184854,703.8459243516852 M1054.7380147184854,703.8459243516852 L1054.7512560597927,703.8612310264177 M1054.7512560597927,703.8612310264177 L1054.7712714590052,703.8653632433131 M1054.7712714590052,703.8653632433131 L1054.7968981532058,703.8580791612769 M1054.7968981532058,703.8580791612769 L1054.826649799683,703.8397994645647 M1054.826649799683,703.8397994645647 L1054.858796776444,703.8115858828805 M1054.858796776444,703.8115858828805 L1054.891466554696,703.7750824305774 M1066.4945208727354,679.9452950669141 L1065.4891859340871,680.8875934518996 M1065.4891859340871,680.8875934518996 L1064.4772852086837,681.9359067617671 M1064.4772852086837,681.9359067617671 L1063.4689635468121,683.079532344752 M1063.4689635468121,683.079532344752 L1062.4742946987012,684.3068843973884 M1062.4742946987012,684.3068843973884 L1061.5031746109241,685.6056132847722 M1061.5031746109241,685.6056132847722 L1060.5652662071066,686.9626901898805 M1060.5652662071066,686.9626901898805 L1059.6698762078572,688.3645670130359 M1059.6698762078572,688.3645670130359 L1058.8259090159972,689.7972647685131 M1058.8259090159972,689.7972647685131 L1058.041753682739,691.2465243706715 M1058.041753682739,691.2465243706715 L1057.3252342576648,692.6979210647085 M1057.3252342576648,692.6979210647085 L1056.6835315944338,694.1369917472089 M1056.6835315944338,694.1369917472089 L1056.1231106479029,695.549378181079 M1056.1231106479029,695.549378181079 L1055.649658157136,696.9209538319683 M1055.649658157136,696.9209538319683 L1055.2680480176805,698.237934039957 M1055.2680480176805,698.237934039957 L1054.9822612671308,699.4870346584796 M1054.9822612671308,699.4870346584796 L1054.7953638316062,700.6555786418292 M1054.7953638316062,700.6555786418292 L1054.7094688691288,701.7316177874775 M1054.7094688691288,701.7316177874775 L1054.7256947010198,702.7040676819408 M1054.7256947010198,702.7040676819408 L1054.8441581142072,703.5628059848761 M1052.107970128529,772.4384114530935 L1066.4945208727354,679.9452950669141 M1039.9086999166002,782.5027160216027 L1052.107970128529,772.4384114530935 M1038.8279189758186,789.166920326182 L1039.9086999166002,782.5027160216027 M1026.8194215584706,799.019233423269 L1038.8279189758186,789.166920326182 M1043.0930052507215,727.6101802860476 L1032.0221062653097,721.4996949735232 M1032.0221062653097,721.4996949735232 L1027.1271137354333,725.7997412914676 M1015.3832643118008,792.3773799823571 L1027.2332732970995,782.50270007411 M1028.3574129579656,775.8934616912925 L1027.2332732970995,782.50270007411 M1028.3574129579656,775.8934616912925 L1040.3954440997659,765.8078638754728 M1055.4031291116235,674.0611313767597 L1040.3954440997659,765.8078638754728 M1055.4031291116235,674.0611313767597 L1054.4097891405065,675.0040092029599 M1054.4097891405065,675.0040092029599 L1053.408950033046,676.0519852828742 M1053.408950033046,676.0519852828742 L1052.4106487145693,677.1943617847998 M1052.4106487145693,677.1943617847998 L1051.424861604656,678.4195661656594 M1051.424861604656,678.4195661656594 L1050.4613989327208,679.7152704117743 M1050.4613989327208,679.7152704117743 L1049.5298497835684,681.0684754681133 M1049.5298497835684,681.0684754681133 L1048.639459873856,682.4656708648154 M1048.639459873856,682.4656708648154 L1047.7990854694433,683.8929227990553 M1047.7990854694433,683.8929227990553 L1047.0170811868811,685.3360246582638 M1047.0170811868811,685.3360246582638 L1046.3012501977416,686.780610940256 M1046.3012501977416,686.780610940256 L1045.658766375342,688.212284210791 M1045.658766375342,688.212284210791 L1045.0961016651984,689.6167577546573 M1045.0961016651984,689.6167577546573 L1044.618963795303,690.979981898204 M1044.618963795303,690.979981898204 L1044.232261264733,692.2882535545914 M1044.232261264733,692.2882535545914 L1043.9400234384777,693.5283741977628 M1043.9400234384777,693.5283741977628 L1043.7453777077494,694.6877557149157 M1043.7453777077494,694.6877557149157 L1043.6505114356387,695.7545414002732 M1043.6505114356387,695.7545414002732 L1043.6566294640782,696.717740052442 M1043.6566294640782,696.717740052442 L1043.7639466165126,697.5673234014489 M1043.8081152666023,697.7771661749457 L1043.7757756748688,697.8136350592331 M1043.7757756748688,697.8136350592331 L1043.744030952022,697.8418868236413 M1043.744030952022,697.8418868236413 L1043.7147302002522,697.8602752346944 M1043.7147302002522,697.8602752346944 L1043.689576818599,697.8677322307801 M1043.689576818599,697.8677322307801 L1043.670029680942,697.8638270777512 M1043.670029680942,697.8638270777512 L1043.6572243317557,697.8487884044303 M1043.6572243317557,697.8487884044303 L1043.6519033394945,697.823492725006 M1043.6519033394945,697.823492725006 L1043.6543784543687,697.789406478061 M1043.6543784543687,697.789406478061 L1043.6645058257902,697.7485114856349 M1043.6645058257902,697.7485114856349 L1043.6816925127944,697.7031864370238 M1043.6816925127944,697.7031864370238 L1043.7049372315705,697.6560671663419 M1043.7049372315705,697.6560671663419 L1043.7328989042278,697.6098832643156 M1043.7328989042278,697.6098832643156 L1043.7639466165126,697.5673234014489 M1032.0221062653097,721.4996949735232 L1033.0088487432733,720.588814874844 M1033.0088487432733,720.588814874844 L1034.0085307844085,719.5638363957526 M1034.0085307844085,719.5638363957526 L1035.010541608301,718.4354411771699 M1035.010541608301,718.4354411771699 L1036.0042051145883,717.2154818016973 M1036.0042051145883,717.2154818016973 L1036.9789087650297,715.9168472829751 M1036.9789087650297,715.9168472829751 L1037.924220206122,714.5533250229253 M1037.924220206122,714.5533250229253 L1038.8300107594478,713.1394431358135 M1038.8300107594478,713.1394431358135 L1039.6865731301923,711.6903034643883 M1039.6865731301923,711.6903034643883 L1040.4847438204094,710.2214002672545 M1040.4847438204094,710.2214002672545 L1041.2160063183712,708.7484410005384 M1041.2160063183712,708.7484410005384 L1041.8725767610597,707.2871762275195 M1041.8725767610597,707.2871762275195 L1042.4475131701918,705.853196331386 M1042.4475131701918,705.853196331386 L1042.934785698963,704.4617589207398 M1042.934785698963,704.4617589207398 L1043.3293364522128,703.127619213941 M1043.3293364522128,703.127619213941 L1043.6271367960799,701.8648571987401 M1043.6271367960799,701.8648571987401 L1043.82522888382,700.6867199680391 M1043.82522888382,700.6867199680391 L1043.9217478485298,699.6054815601215 M1043.9217478485298,699.6054815601215 L1043.9159298475722,698.6323122918154 M1043.9159298475722,698.6323122918154 L1043.8081152666023,697.7771661749457 M1027.2332732970995,782.50270007411 L1038.8279189758186,789.166920326182 M1054.891466554696,703.7750824305774 L1043.8081152666023,697.7771661749457 M1054.8441581142072,703.5628059848761 L1043.7639466165126,697.5673234014489 M1066.4945208727354,679.9452950669141 L1055.4031291116235,674.0611313767597 M1052.107970128529,772.4384114530935 L1040.3954440997659,765.8078638754728 M1039.9086999166002,782.5027160216027 L1028.3574129579656,775.8934616912925" stroke="black"  stroke-width="4"  fill="red"/>
<path d="M1035.4098314103271,712.6760420068797 L1039.8437013104854,708.7605933494581 M1039.8437013104854,708.7605933494581 L1039.979807838808,708.8448598047469 M1039.979807838808,708.8448598047469 L1040.1049108136854,708.9424900163801 M1040.1049108136854,708.9424900163801 L1040.2118299349727,709.0478612875918 M1040.2118299349727,709.0478612875918 L1040.2942422419458,709.1547956598583 M1040.2942422419458,709.1547956598583 L1040.3472214116289,709.2570051132789 M1040.3472214116289,709.2570051132789 L1040.368049239514,709.3487486198458 M1040.368049239514,709.3487486198458 L1040.3551962638433,709.4245177196153 M1040.3551962638433,709.4245177196153 L1040.3094049013198,709.4799045539094 M1040.3094049013198,709.4799045539094 L1040.2336480691872,709.511855248104 M1040.2336480691872,709.511855248104 L1040.1319622713618,709.5183103017796 M1040.1319622713618,709.5183103017796 L1040.0103932719946,709.4989644902726 M1040.0103932719946,709.4989644902726 L1039.8761180496667,709.4550032438863 M1039.8761180496667,709.4550032438863 L1039.7368571669183,709.3889342266045 M1039.7368571669183,709.3889342266045 L1039.6005751059213,709.3045310667508 M1039.6005751059213,709.3045310667508 L1039.4754747211814,709.2068546193457 M1039.4754747211814,709.2068546193457 L1039.3685952290466,709.1014614363701 M1039.3685952290466,709.1014614363701 L1039.2863909719688,708.9946112161115 M1039.2863909719688,708.9946112161115 L1039.23335133273,708.8923601465053 M1039.23335133273,708.8923601465053 L1039.212597761664,708.8006713812676 M1039.212597761664,708.8006713812676 L1039.225502072447,708.7249640734728 M1039.225502072447,708.7249640734728 L1039.2713100637964,708.669631896724 M1039.2713100637964,708.669631896724 L1039.347185698749,708.6377930343504 M1039.347185698749,708.6377930343504 L1039.4486758451244,708.6312687526645 M1039.4486758451244,708.6312687526645 L1039.5701687828819,708.6505926222596 M1039.5701687828819,708.6505926222596 L1039.7043645997464,708.6945076419559 M1039.7043645997464,708.6945076419559 L1039.8437013104854,708.7605933494581 M1035.4098314103271,712.6760420068797 L1035.2711719321135,712.6100182702617 M1035.2711719321135,712.6100182702617 L1035.1375713086593,712.5661444202024 M1035.1375713086593,712.5661444202024 L1035.0165581659262,712.5468386636426 M1035.0165581659262,712.5468386636426 L1034.9154033331067,712.5533568300489 M1034.9154033331067,712.5533568300489 L1034.8397005053396,712.5851658467279 M1034.8397005053396,712.5851658467279 L1034.7938925424694,712.6404461441898 M1034.7938925424694,712.6404461441898 L1034.7808145865322,712.7160824464111 M1034.7808145865322,712.7160824464111 L1034.801230882576,712.80768518213 M1034.801230882576,712.80768518213 L1034.8537900358976,712.90984026662 M1034.8537900358976,712.90984026662 L1034.9353986924016,713.0165901334965 M1034.9353986924016,713.0165901334965 L1035.0416006143562,713.1218842805231 M1035.0416006143562,713.1218842805231 L1035.165982062199,713.2194688980137 M1035.165982062199,713.2194688980137 L1035.3015444468774,713.3037926717068 M1035.3015444468774,713.3037926717068 L1035.4401281857154,713.3697995245011 M1035.4401281857154,713.3697995245011 L1035.573807528133,713.413719396621 M1035.573807528133,713.413719396621 L1035.694896139213,713.4330469979632 M1035.694896139213,713.4330469979632 L1035.7962455485194,713.4265980206035 M1035.7962455485194,713.4265980206035 L1035.8718302355535,713.3946773996597 M1035.8718302355535,713.3946773996597 L1035.917621842883,713.3393426866028 M1035.917621842883,713.3393426866028 L1035.930648999407,713.2636448659389 M1035.930648999407,713.2636448659389 L1035.910159121682,713.171987631212 M1035.910159121682,713.171987631212 L1035.8576603845556,713.0698742461718 M1035.8576603845556,713.0698742461718 L1035.7758448825014,712.963040332314 M1035.7758448825014,712.963040332314 L1035.6696035444727,712.8577680000556 M1035.6696035444727,712.8577680000556 L1035.5452193913984,712.760229413667 M1035.5452193913984,712.760229413667 L1035.4098314103271,712.6760420068797 M1039.9237768273344,708.2896763781084 L1040.2639771790355,708.5002319564696 M1040.2639771790355,708.5002319564696 L1040.576809869821,708.7442579672206 M1040.576809869821,708.7442579672206 L1040.8441115713892,709.0076073188081 M1040.8441115713892,709.0076073188081 L1041.0501988902827,709.2749182567363 M1041.0501988902827,709.2749182567363 L1041.1830779264847,709.5306617545555 M1041.1830779264847,709.5306617545555 L1041.2350761557086,709.7600069047862 M1041.2350761557086,709.7600069047862 L1041.2030401024751,709.9495456246545 M1041.2030401024751,709.9495456246545 L1041.0888041297185,710.0882293211496 M1041.0888041297185,710.0882293211496 L1040.8990901202048,710.1680190861534 M1040.8990901202048,710.1680190861534 L1040.6448424066264,710.1842084769462 M1040.6448424066264,710.1842084769462 L1040.3408473565044,710.1358417536558 M1040.3408473565044,710.1358417536558 L1040.0049401812541,710.0258122470213 M1040.0049401812541,710.0258122470213 L1039.6566664092277,709.8605289190607 M1039.6566664092277,709.8605289190607 L1039.3161065747827,709.6495217050542 M1039.3161065747827,709.6495217050542 L1039.0032900236292,709.4052066529789 M1039.0032900236292,709.4052066529789 L1038.7362359397735,709.1417203466799 M1038.7362359397735,709.1417203466799 L1038.5305709644265,708.8744559632228 M1038.5305709644265,708.8744559632228 L1038.398192199891,708.6189318199883 M1038.398192199891,708.6189318199883 L1038.3466577032416,708.3899286300427 M1038.3466577032416,708.3899286300427 L1038.379014577483,708.2007760816937 M1038.379014577483,708.2007760816937 L1038.4933549427697,708.0624342758881 M1038.4933549427697,708.0624342758881 L1038.6829331960023,707.982863922862 M1038.6829331960023,707.982863922862 L1038.9368359083048,707.9667210745738 M1038.9368359083048,707.9667210745738 L1039.240355728417,708.0149507762637 M1039.240355728417,708.0149507762637 L1039.5757665348356,708.1246912732172 M1039.5757665348356,708.1246912732172 L1039.9237768273344,708.2896763781084 M1040.4457867436192,707.828536988995 L1040.786198826612,708.0391155333991 M1040.786198826612,708.0391155333991 L1041.0992434819975,708.2831681907533 M1041.0992434819975,708.2831681907533 L1041.366745081399,708.5465463348919 M1041.366745081399,708.5465463348919 L1041.5730085247794,708.8138865366341 M1041.5730085247794,708.8138865366341 L1041.7060296567354,709.069658067885 M1041.7060296567354,709.069658067885 L1041.7581277087645,709.2990283877898 M1041.7581277087645,709.2990283877898 L1041.7261433064916,709.4885879300871 M1041.7261433064916,709.4885879300871 L1041.6119077770886,709.627286874394 M1041.6119077770886,709.627286874394 L1041.422143015101,709.7070854167036 M1041.422143015101,709.7070854167036 L1041.1677962504448,709.7232765888346 M1041.1677962504448,709.7232765888346 L1040.863659618487,709.6749045441131 M1040.863659618487,709.6749045441131 L1040.5275766729358,709.5648629364362 M1040.5275766729358,709.5648629364362 L1040.1791031894775,709.3995614428507 M1040.1791031894775,709.3995614428507 L1039.8383312315655,709.1885310592372 M1039.8383312315655,709.1885310592372 L1039.525302630296,708.9441892101001 M1039.525302630296,708.9441892101001 L1039.2580488054116,708.6806740399595 M1039.2580488054116,708.6806740399595 L1039.0522080687774,708.4133804169221 M1039.0522080687774,708.4133804169221 L1038.9196876948258,708.1578283544393 M1038.9196876948258,708.1578283544393 L1038.868053873567,707.9288001728246 M1038.868053873567,707.9288001728246 L1038.9003594926407,707.7396270030663 M1038.9003594926407,707.7396270030663 L1039.0146996172655,707.601270127418 M1039.0146996172655,707.601270127418 L1039.2043285863313,707.5216911112998 M1039.2043285863313,707.5216911112998 L1039.458330081928,707.5055465059008 M1039.458330081928,707.5055465059008 L1039.7619910462697,707.5537814576955 M1039.7619910462697,707.5537814576955 L1040.0975771160531,707.66353390525 M1040.0975771160531,707.66353390525 L1040.4457867436192,707.828536988995 M1040.4457867436192,707.828536988995 L1039.9237768273344,708.2896763781084" stroke="black"  stroke-width="4"  fill="red"/>
<path d="M-227.330769436227,30.26255833736957 L-262.82154681169936,50.02583305662438 M-227.330769436227,30.26255833736957 L-230.64163457744098,28.4268412165693 M-266.13079769867386,48.10389731226468 L-230.64163457744098,28.4268412165693 M-262.82154681169936,50.02583305662438 L-266.13079769867386,48.10389731226468 M-262.82154681169936,50.02583305662438 L-262.98597459577877,40.92719361405943 M-262.98597459577877,40.92719361405943 L-259.51661113505884,39.01565741617571 M-259.51661113505884,39.01565741617571 L-259.664578647393,29.834273428905874 M-259.664578647393,29.834273428905874 L-209.98040140960472,2.754591604340817 M-209.98040140960472,2.754591604340817 L-210.02141226722915,3.542589499947269 M-210.02141226722915,3.542589499947269 L-210.1265577810493,4.357137250465371 M-210.1265577810493,4.357137250465371 L-210.2947030808126,5.1899492667868685 M-210.2947030808126,5.1899492667868685 L-210.5240903409972,6.032574990095327 M-210.5240903409972,6.032574990095327 L-210.81235434461564,6.876491574606632 M-210.81235434461564,6.876491574606632 L-211.15654555859192,7.7131596589393325 M-211.15654555859192,7.7131596589393325 L-211.553164323244,8.534135390708286 M-211.553164323244,8.534135390708286 L-211.9981932459957,9.331122265581769 M-211.9981932459957,9.331122265581769 L-212.48713298233406,10.09607549690378 M-212.48713298233406,10.09607549690378 L-213.0150508748975,10.821261061000826 M-213.0150508748975,10.821261061000826 L-213.5766225254572,11.499333822961603 M-213.5766225254572,11.499333822961603 L-214.16618705334986,12.123415000311468 M-214.16618705334986,12.123415000311468 L-214.77779797993003,12.687159184412394 M-214.77779797993003,12.687159184412394 L-215.4052789911441,13.184800428062488 M-215.4052789911441,13.184800428062488 L-216.04228533206242,13.611234123852682 M-216.04228533206242,13.611234123852682 L-216.68236383457952,13.96205258901108 M-216.68236383457952,13.96205258901108 L-217.31901361805512,14.233591662382366 M-217.31901361805512,14.233591662382366 L-217.94575216020485,14.422981380799058 M-217.94575216020485,14.422981380799058 L-218.5561768701558,14.52816691518882 M-218.5561768701558,14.52816691518882 L-218.5660030289299,14.555495263106252 M-218.5660030289299,14.555495263106252 L-218.5799285099589,14.58168025628089 M-218.5799285099589,14.58168025628089 L-218.59714422786647,14.605195330311346 M-218.59714422786647,14.605195330311346 L-218.61664955699575,14.624681357622535 M-218.61664955699575,14.624681357622535 L-218.6373109824243,14.639003941664498 M-218.6373109824243,14.639003941664498 L-218.65792872470274,14.647327686100255 M-218.65792872470274,14.647327686100255 L-218.67730388941914,14.649168842715142 M-218.67730388941914,14.649168842715142 L-218.69431138111167,14.644422933881401 M-218.69431138111167,14.644422933881401 L-218.7079621833085,14.63336458667851 M-218.7079621833085,14.63336458667851 L-218.7174623265671,14.616636126754202 M-218.7174623265671,14.616636126754202 L-218.72225989913431,14.595207611702847 M-218.72225989913431,14.595207611702847 L-218.72207560210256,14.57032463699295 M-218.72207560210256,14.57032463699295 L-218.71692071626785,14.54343662617083 M-218.71692071626785,14.54343662617083 L-219.33054722466454,14.64932367335257 M-219.33054722466454,14.64932367335257 L-219.96185157792638,14.84045451530335 M-219.96185157792638,14.84045451530335 L-220.604249719672,15.114955771701943 M-220.604249719672,15.114955771701943 L-221.2510233276364,15.470064482322755 M-221.2510233276364,15.470064482322755 L-221.8953880209533,15.902156288929234 M-221.8953880209533,15.902156288929234 L-222.53056955569764,16.406778922773185 M-222.53056955569764,16.406778922773185 L-223.14987733067971,16.978694786516655 M-223.14987733067971,16.978694786516655 L-223.74677762381532,17.61193729851084 M-223.74677762381532,17.61193729851084 L-224.31496728335856,18.29987838196621 M-224.31496728335856,18.29987838196621 L-224.84844376774856,19.035295462574254 M-224.84844376774856,19.035295462574254 L-225.3415712888227,19.81044412969851 M-225.3415712888227,19.81044412969851 L-225.7891450034557,20.61715947943668 M-225.7891450034557,20.61715947943668 L-226.18644771092136,21.44693576014498 M-226.18644771092136,21.44693576014498 L-226.52930325672423,22.29101790920822 M-226.52930325672423,22.29101790920822 L-226.81412135171502,23.14050495046041 M-226.81412135171502,23.14050495046041 L-227.03793685274627,23.986447778904335 M-227.03793685274627,23.986447778904335 L-227.19844089626758,24.819949015207385 M-227.19844089626758,24.819949015207385 L-227.29400439340202,25.632255474823978 M-227.29400439340202,25.632255474823978 L-227.32369343191976,26.414858360066148 M-227.32369343191976,26.414858360066148 L-227.330769436227,30.26255833736957 M-227.32369343191976,26.414858360066148 L-230.6416342076202,24.583550134378356 M-230.6416342076202,24.583550134378356 L-230.64163457744098,28.4268412165693 M-230.6416342076202,24.583550134378356 L-230.6133553826802,23.80189800383323 M-230.6133553826802,23.80189800383323 L-230.51918940077508,22.990693566388984 M-230.51918940077508,22.990693566388984 L-230.36005558904662,22.158433996750375 M-230.36005558904662,22.158433996750375 L-230.13756866300344,21.313859290269875 M-230.13756866300344,21.313859290269875 L-229.85402348917717,20.46585222628721 M-229.85402348917717,20.46585222628721 L-229.51237173493314,19.623346062066105 M-229.51237173493314,19.623346062066105 L-229.11619088837222,18.795224864930447 M-229.11619088837222,18.795224864930447 L-228.66964512179698,17.990225926987137 M-228.66964512179698,17.990225926987137 L-228.177440623988,17.216836583488828 M-228.177440623988,17.216836583488828 L-227.64477231941203,16.48320289246783 M-227.64477231941203,16.48320289246783 L-227.07726727046554,15.79705019612419 M-227.07726727046554,15.79705019612419 L-226.48092061915213,15.165582020803242 M-226.48092061915213,15.165582020803242 L-225.86202952313045,14.595407626247379 M-225.86202952313045,14.595407626247379 L-225.22712318088634,14.092475215409252 M-225.22712318088634,14.092475215409252 L-224.582889202283,13.662004656099441 M-224.582889202283,13.662004656099441 L-223.93610041291367,13.30843133007994 M-223.93610041291367,13.30843133007994 L-223.29354136182747,13.035363725286572 M-223.29354136182747,13.035363725286572 L-222.66193211790096,12.84555011302939 M-222.66193211790096,12.84555011302939 L-222.04786005060168,12.740850507531206 M-222.04786005060168,12.740850507531206 L-222.05297055827987,12.767698443035158 M-222.05297055827987,12.767698443035158 L-222.05310898615016,12.792552290010804 M-222.05310898615016,12.792552290010804 L-222.04826672427646,12.813964322819402 M-222.04826672427646,12.813964322819402 L-222.0387256691265,12.830689903231189 M-222.0387256691265,12.830689903231189 L-222.02504010532857,12.841759138411817 M-222.02504010532857,12.841759138411817 L-222.00800602208346,12.846529067729193 M-222.00800602208346,12.846529067729193 L-221.9886139794437,12.844723664895298 M-221.9886139794437,12.844723664895298 L-221.96799005749745,12.836445333462677 M-221.96799005749745,12.836445333462677 L-221.9473335108023,12.822175180795057 M-221.9473335108023,12.822175180795057 L-221.92784382917034,12.802745554233809 M-221.92784382917034,12.802745554233809 L-221.9106536151013,12.779287570676843 M-221.9106536151013,12.779287570676843 L-221.89676202659098,12.753157048882429 M-221.89676202659098,12.753157048882429 L-221.88697617060052,12.725877383182649 M-213.32398417393279,0.9807665767309572 L-213.36357192203172,1.7677746549882158 M-213.36357192203172,1.7677746549882158 L-213.46731361713182,2.581193108212574 M-213.46731361713182,2.581193108212574 L-213.63408871067327,3.41274774057581 M-213.63408871067327,3.41274774057581 L-213.8621532903221,4.254000587865619 M-213.8621532903221,4.254000587865619 L-214.14915548479803,5.096442478564711 M-214.14915548479803,5.096442478564711 L-214.49215845949777,5.931548715404801 M-214.49215845949777,5.931548715404801 L-214.887674435941,6.750890927001308 M-214.887674435941,6.750890927001308 L-215.33169702792497,7.546188807465171 M-215.33169702792497,7.546188807465171 L-215.8197368730805,8.309414319873156 M-215.8197368730805,8.309414319873156 L-216.3468702225864,9.032850605056979 M-216.3468702225864,9.032850605056979 L-216.90778042237298,9.709169959636995 M-216.90778042237298,9.709169959636995 L-217.49681309787456,10.33151112723823 M-217.49681309787456,10.33151112723823 L-218.10802698033194,10.89354616465073 M-218.10802698033194,10.89354616465073 L-218.73524965557363,11.389526387115154 M-218.73524965557363,11.389526387115154 L-219.3721388840961,11.814364050198378 M-219.3721388840961,11.814364050198378 L-220.01224263807683,12.163667790640034 M-220.01224263807683,12.163667790640034 L-220.64905979041237,12.433789062110009 M-220.64905979041237,12.433789062110009 L-221.27610617050664,12.621872633029852 M-221.27610617050664,12.621872633029852 L-221.88697617060052,12.725877383182649 M-213.32398417393279,0.9807665767309572 L-263.00733117394566,27.941916510074805 M-262.8426867268548,37.11258985437627 L-263.00733117394566,27.941916510074805 M-262.8426867268548,37.11258985437627 L-266.31173209625854,39.01565779810454 M-266.13079769867386,48.10389731226468 L-266.31173209625854,39.01565779810454 M-266.31173209625854,39.01565779810454 L-262.98597459577877,40.92719361405943 M-218.71692071626785,14.54343662617083 L-222.04786005060168,12.740850507531206 M-218.5561768701558,14.52816691518882 L-221.88697617060052,12.725877383182649 M-209.98040140960472,2.754591604340817 L-213.32398417393279,0.9807665767309572 M-259.664578647393,29.834273428905874 L-263.00733117394566,27.941916510074805 M-259.51661113505884,39.01565741617571 L-262.8426867268548,37.11258985437627" stroke="black"  stroke-width="4"  fill="red"/>
<path d="M-220.1944483498737,24.457558859539574 L-220.17431963936565,20.977514590521594 M-220.17431963936565,20.977514590521594 L-220.13763779242674,21.003023616501764 M-220.13763779242674,21.003023616501764 L-220.11306866807604,21.032576368260948 M-220.11306866807604,21.032576368260948 L-220.10204009550444,21.064455439859614 M-220.10204009550444,21.064455439859614 L-220.10519531253965,21.096808958116412 M-220.10519531253965,21.096808958116412 L-220.12235212225562,21.12775611193416 M-220.12235212225562,21.12775611193416 L-220.15251522995663,21.155498340311397 M-220.15251522995663,21.155498340311397 L-220.193931818362,21.178422209135533 M-220.193931818362,21.178422209135533 L-220.24419539006067,21.195194848888207 M-220.24419539006067,21.195194848888207 L-220.30038339134444,21.20484038319438 M-220.30038339134444,21.20484038319438 L-220.3592299290019,21.20679801270842 M-220.3592299290019,21.20679801270842 L-220.4173126775919,21.200953629074604 M-220.4173126775919,21.200953629074604 L-220.4712555026731,21.187647645053858 M-220.4712555026731,21.187647645053858 L-220.51792135236371,21.167653410553555 M-220.51792135236371,21.167653410553555 L-220.55459867749664,21.142134489120224 M-220.55459867749664,21.142134489120224 L-220.57915548754954,21.11257403884491 M-220.57915548754954,21.11257403884491 L-220.59016660874886,21.080691320124515 M-220.59016660874886,21.080691320124515 L-220.58699280082726,21.048339041580675 M-220.58699280082726,21.048339041580675 L-220.5698205199069,21.017397730291236 M-220.5698205199069,21.017397730291236 L-220.53964860477163,20.989664608897556 M-220.53964860477163,20.989664608897556 L-220.4982318904863,20.96675102512114 M-220.4982318904863,20.96675102512114 L-220.44797690329824,20.949987492413413 M-220.44797690329824,20.949987492413413 L-220.39180423020423,20.9403478006584 M-220.39180423020423,20.9403478006584 L-220.3329762530874,20.938391410886084 M-220.3329762530874,20.938391410886084 L-220.27491104514615,20.94423214730267 M-220.27491104514615,20.94423214730267 L-220.22098072280687,20.95753043293803 M-220.22098072280687,20.95753043293803 L-220.17431963936565,20.977514590521594 M-220.1944483498737,24.457558859539574 L-220.24101923006265,24.437530606685698 M-220.24101923006265,24.437530606685698 L-220.29484553366535,24.4242029772181 M-220.29484553366535,24.4242029772181 L-220.3527989507263,24.418349352448843 M-220.3527989507263,24.418349352448843 L-220.4115138541672,24.42031005926981 M-220.4115138541672,24.42031005926981 L-220.46757873764489,24.429971022101427 M-220.46757873764489,24.429971022101427 L-220.5177374769478,24.44677154443741 M-220.5177374769478,24.44677154443741 L-220.55907507716176,24.469735686174374 M-220.55907507716176,24.469735686174374 L-220.58918960901792,24.497529996438743 M-220.58918960901792,24.497529996438743 L-220.60632957641405,24.52853957081726 M-220.60632957641405,24.52853957081726 L-220.60949802270193,24.560963220651104 M-220.60949802270193,24.560963220651104 L-220.59850881025886,24.592916270088665 M-220.59850881025886,24.592916270088665 L-220.57399991028274,24.622541924181974 M-220.57399991028274,24.622541924181974 L-220.53739371798565,24.64811713149345 M-220.53739371798565,24.64811713149345 L-220.49081808978008,24.66815546424641 M-220.49081808978008,24.66815546424641 L-220.43697933166015,24.68149079424404 M-220.43697933166015,24.68149079424404 L-220.37900844143894,24.68734806724666 M-220.37900844143894,24.68734806724666 L-220.32027504875066,24.68538612033865 M-220.32027504875066,24.68538612033865 L-220.26419489584782,24.675719313328045 M-220.26419489584782,24.675719313328045 L-220.21402760480805,24.658909681409966 M-220.21402760480805,24.658909681409966 L-220.17269012974907,24.63593525175986 M-220.17269012974907,24.63593525175986 L-220.14258437126955,24.608131831974845 M-220.14258437126955,24.608131831974845 L-220.12545981548988,24.577116413440194 M-220.12545981548988,24.577116413440194 L-220.12230988862052,24.544691523548124 M-220.12230988862052,24.544691523548124 L-220.13331648546136,24.51274212224837 M-220.13331648546136,24.51274212224837 L-220.15783765259562,24.48312416881606 M-220.15783765259562,24.48312416881606 L-220.1944483498737,24.457558859539574 M-219.91672025972844,20.834966866711284 L-219.8250085509859,20.898721215807257 M-219.8250085509859,20.898721215807257 L-219.7635620906442,20.97258825774327 M-219.7635620906442,20.97258825774327 L-219.7359581890213,21.052279326246207 M-219.7359581890213,21.052279326246207 L-219.74381129306312,21.13316512932346 M-219.74381129306312,21.13316512932346 L-219.78667446035342,21.210544243558843 M-219.78667446035342,21.210544243558843 L-219.8620649653036,21.279916580126724 M-219.8620649653036,21.279916580126724 L-219.96560619336196,21.33724554807327 M-219.96560619336196,21.33724554807327 L-220.09128064934748,21.379193827074744 M-220.09128064934748,21.379193827074744 L-220.23177990034196,21.403318717058767 M-220.23177990034196,21.403318717058767 L-220.37893048765886,21.40821507192129 M-220.37893048765886,21.40821507192129 L-220.52417067608462,21.393597404810976 M-220.52417067608462,21.393597404810976 L-220.6590504516073,21.36031768177662 M-220.6590504516073,21.36031768177662 L-220.77572459982343,21.310313948665225 M-220.77572459982343,21.310313948665225 L-220.86740891800105,21.246497276520188 M-220.86740891800105,21.246497276520188 L-220.92877858077804,21.17258202856175 M-220.92877858077804,21.17258202856175 L-220.95627324502266,21.09286825627339 M-220.95627324502266,21.09286825627339 L-220.94830403150104,21.011990156132356 M-220.94830403150104,21.011990156132356 L-220.90534416897117,20.934647557912 M-220.90534416897117,20.934647557912 L-220.82989861772262,20.865332139802433 M-220.82989861772262,20.865332139802433 L-220.72635660290678,20.808067453424997 M-220.72635660290678,20.808067453424997 L-220.6007357999481,20.766176092879277 M-220.6007357999481,20.766176092879277 L-220.46033235035293,20.742087718950586 M-220.46033235035293,20.742087718950586 L-220.31329768286992,20.73719915769385 M-220.31329768286992,20.73719915769385 L-220.16816728980757,20.751793939325296 M-220.16816728980757,20.751793939325296 L-220.03336548962477,20.785025637634703 M-220.03336548962477,20.785025637634703 L-219.91672025972844,20.834966866711284 M-219.91429621663963,20.425908773056335 L-219.82256359418966,20.489646515108575 M-219.82256359418966,20.489646515108575 L-219.76110302889765,20.563494318528797 M-219.76110302889765,20.563494318528797 L-219.73349265369893,20.643164634948164 M-219.73349265369893,20.643164634948164 L-219.74134729616935,20.72402937831498 M-219.74134729616935,20.72402937831498 L-219.78421992886956,20.801388349144077 M-219.78421992886956,20.801388349144077 L-219.85962727987908,20.870742629373126 M-219.85962727987908,20.870742629373126 L-219.9631917577824,20.928056677599102 M-219.9631917577824,20.928056677599102 L-220.08889451622235,20.969994040784798 M-220.08889451622235,20.969994040784798 L-220.2294254753616,20.994112653398247 M-220.2294254753616,20.994112653398247 L-220.37660933006214,20.99900773425236 M-220.37660933006214,20.99900773425236 L-220.52188240725457,20.98439387062814 M-220.52188240725457,20.98439387062814 L-220.65679277734682,20.951122807335707 M-220.65679277734682,20.951122807335707 L-220.77349344489983,20.901132086852556 M-220.77349344489983,20.901132086852556 L-220.86519866460867,20.837332023871795 M-220.86519866460867,20.837332023871795 L-220.9265823977032,20.763436016105686 M-220.9265823977032,20.763436016105686 L-220.95408348622573,20.68374299666027 M-220.95408348622573,20.68374299666027 L-220.94611268172935,20.602885955975296 M-220.94611268172935,20.602885955975296 L-220.9031433099616,20.525563499906752 M-220.9031433099616,20.525563499906752 L-220.82768088760372,20.456266136180716 M-220.82768088760372,20.456266136180716 L-220.72411562240927,20.399016367315653 M-220.72411562240927,20.399016367315653 L-220.59846654110083,20.357135920630355 M-220.59846654110083,20.357135920630355 L-220.4580314265827,20.333053822817647 M-220.4580314265827,20.333053822817647 L-220.3109635441333,20.32816653529153 M-220.3109635441333,20.32816653529153 L-220.16580031198077,20.34275751424343 M-220.16580031198077,20.34275751424343 L-220.03096795266026,20.37598055444022 M-220.03096795266026,20.37598055444022 L-219.91429621663963,20.425908773056335 M-219.91429621663963,20.425908773056335 L-219.91672025972844,20.834966866711284" stroke="black"  stroke-width="4"  fill="red"/>
<path d="M-262.8426867268548,37.11258985437627 L-266.31173209625854,39.01565779810454 M-266.31173209625854,39.01565779810454 L-266.4945208727353,29.834273808689318 M-263.00733117394566,27.941916510074805 L-266.4945208727353,29.834273808689318 M-262.8426867268548,37.11258985437627 L-263.00733117394566,27.941916510074805 M-262.82154681169936,50.02583305662438 L-192.70039135359616,90.75056494117149 M-192.70039135359616,90.75056494117149 L-192.6122699483319,86.70942592297865 M-192.6122699483319,86.70942592297865 L-113.00364624137262,132.73655304645018 M-113.2900369558165,136.87024694838988 L-113.00364624137262,132.73655304645018 M-113.2900369558165,136.87024694838988 L311.51316264392744,383.58603898541503 M311.51316264392744,383.58603898541503 L313.1784030203079,379.1412067849145 M313.1784030203079,379.1412067849145 L454.72457854170625,460.97861975849287 M452.4831653648462,465.458129185119 L454.72457854170625,460.97861975849287 M452.4831653648462,465.458129185119 L1015.3832643118008,792.3773799823571 M1015.3832643118008,792.3773799823571 L1027.2332732970995,782.50270007411 M1027.2332732970995,782.50270007411 L1038.8279189758186,789.166920326182 M1038.8279189758186,789.166920326182 L1051.0679852138865,779.1246177203352 M-266.4945208727353,29.834273808689318 L1051.0679852138865,779.1246177203352 M-266.31173209625854,39.01565779810454 L-262.98597459577877,40.92719361405943 M-262.82154681169936,50.02583305662438 L-262.98597459577877,40.92719361405943 M1039.9086999166002,782.5027160216027 L1028.3574129579656,775.8934616912925 M1016.545267538794,785.7898099094061 L1028.3574129579656,775.8934616912925 M1016.545267538794,785.7898099094061 L455.2452543104266,461.2674248600729 M455.2452543104266,461.2674248600729 L457.48837029844253,456.7888599378357 M457.48837029844253,456.7888599378357 L316.19961636303844,375.4688630365947 M314.53023651616036,379.91133700928617 L316.19961636303844,375.4688630365947 M314.53023651616036,379.91133700928617 L-109.85816603056912,134.54605403056007 M-109.85816603056912,134.54605403056007 L-109.5641176282511,130.41676536814373 M-109.5641176282511,130.41676536814373 L-189.15402899856713,84.60808516021166 M-189.24994153461944,88.64473970190124 L-189.15402899856713,84.60808516021166 M-189.24994153461944,88.64473970190124 L-259.3701447424146,48.103896928253675 M-259.3701447424146,48.103896928253675 L-259.51661113505884,39.01565741617571 M-259.51661113505884,39.01565741617571 L-262.8426867268548,37.11258985437627 M1052.107970128529,772.4384114530935 L-263.00733117394566,27.941916510074805 M1039.9086999166002,782.5027160216027 L1052.107970128529,772.4384114530935 M-262.82154681169936,50.02583305662438 L-259.3701447424146,48.103896928253675 M-262.98597459577877,40.92719361405943 L-259.51661113505884,39.01565741617571 M-189.24994153461944,88.64473970190124 L-192.70039135359616,90.75056494117149 M-189.15402899856713,84.60808516021166 L-192.6122699483319,86.70942592297865 M-113.2900369558165,136.87024694838988 L-109.85816603056912,134.54605403056007 M-113.00364624137262,132.73655304645018 L-109.5641176282511,130.41676536814373 M314.53023651616036,379.91133700928617 L311.51316264392744,383.58603898541503 M316.19961636303844,375.4688630365947 L313.1784030203079,379.1412067849145 M452.4831653648462,465.458129185119 L455.2452543104266,461.2674248600729 M454.72457854170625,460.97861975849287 L457.48837029844253,456.7888599378357 M1016.545267538794,785.7898099094061 L1015.3832643118008,792.3773799823571 M1028.3574129579656,775.8934616912925 L1027.2332732970995,782.50270007411 M1038.8279189758186,789.166920326182 L1039.9086999166002,782.5027160216027 M1051.0679852138865,779.1246177203352 L1052.107970128529,772.4384114530935" stroke="black"  stroke-width="4"  fill="red"/></svg>