<svg viewBox="0 0 800 800" xmlns="http://www.w3.org/2000/svg"><path d="M-85.21840803780924,273.35755754457955 L-85.21840429003066,273.35706876891743 M885.2183933674448,341.19261051308195 L885.2184080378092,341.19212099931974 M-85.21840803780924,273.35755754457955 L-48.99728675639301,261.22773599139634 M-48.99728675639301,261.22773599139634 L-11.738175460055231,250.2555151586687 M-11.738175460055231,250.2555151586687 L26.45756741218554,240.46850455179344 M26.45756741218554,240.46850455179344 L65.48668838590947,231.89134449487563 M65.48668838590947,231.89134449487563 L105.2439365528544,224.54550132426266 M105.2439365528544,224.54550132426266 L145.62255885858178,218.44935018621254 M145.62255885858178,218.44935018621254 L186.51443315880283,213.6180810537919 M186.51443315880283,213.6180810537919 L227.81030508603385,210.06376408432595 M227.81030508603385,210.06376408432595 L269.40006300711343,207.79519333020357 M269.40006300711343,207.79519333020357 L311.17295427018826,206.81806291784847 M311.17295427018826,206.81806291784847 L353.01785248698025,207.1347616147674 M353.01785248698025,207.1347616147674 L394.8233408251615,208.74453704934342 M394.8233408251615,208.74453704934342 L436.4782377563224,211.64335337182263 M436.4782377563224,211.64335337182263 L477.87153602269996,215.8240527828848 M477.87153602269996,215.8240527828848 L518.8928148497523,221.27615415408945 M518.8928148497523,221.27615415408945 L559.432446918104,227.9861155664795 M559.432446918104,227.9861155664795 L599.3818240680546,235.9371589918917 M599.3818240680546,235.9371589918917 L638.6335351471434,245.1093903201389 M638.6335351471434,245.1093903201389 L677.0817706215778,255.47978267496592 M677.0817706215778,255.47978267496592 L714.6223837254597,267.02228691757966 M714.6223837254597,267.02228691757966 L751.1532736136746,279.70774927532625 M751.1532736136746,279.70774927532625 L786.5743316426594,293.50401354011376 M786.5743316426594,293.50401354011376 L820.788274143925,308.37603921036236 M820.788274143925,308.37603921036236 L853.7002412174265,324.2858275691092 M853.7002412174265,324.2858275691092 L885.2183933674448,341.19261051308195 M-85.21840429003066,273.35706876891743 L-48.99728260489053,261.2272473482087 M-48.99728260489053,261.2272473482087 L-11.738170893413098,250.25502663544125 M-11.738170893413098,250.25502663544125 L26.457572404303278,240.46801613567163 M26.457572404303278,240.46801613567163 L65.48669381274465,231.89085617269893 M65.48669381274465,231.89085617269893 L105.24394242253811,224.5450130826041 M105.24394242253811,224.5450130826041 L145.62256517812364,218.4488620114156 M145.62256517812364,218.4488620114156 L186.51443993407906,213.61759293201044 M186.51443993407906,213.61759293201044 L227.81031232177838,210.0632760015626 M227.81031232177838,210.0632760015626 L269.40007070691104,207.79470527235037 M269.40007070691104,207.79470527235037 L311.17296243646865,206.8175748707264 M311.17296243646865,206.8175748707264 L353.01786112101377,207.1342735641673 M353.01786112101377,207.1342735641673 L394.8233499270557,208.74404898106536 M394.8233499270557,208.74404898106536 L436.47824732502204,211.64286527171748 M436.47824732502204,211.64286527171748 L477.871546055987,215.82356463689325 M477.871546055987,215.82356463689325 L518.8928253442475,221.27566594828386 M518.8928253442475,221.27566594828386 L559.432457869272,227.98562728710147 M559.432457869272,227.98562728710147 L599.3818354702082,235.93667062539214 M599.3818354702082,235.93667062539214 L638.6335469934509,245.10890185321682 M638.6335469934509,245.10890185321682 L677.0817829040727,255.47929409460585 M677.0817829040727,255.47929409460585 L714.6223964350511,267.0217982110888 M714.6223964350511,267.0217982110888 L751.1532867401606,279.707260430371 M751.1532867401606,279.707260430371 L786.5743451747387,293.50352454475444 M786.5743451747387,293.50352454475444 L820.7882880692191,308.37555005308775 M820.7882880692191,308.37555005308775 L853.7002555224956,324.2853382388696 M853.7002555224956,324.2853382388696 L885.2184080378092,341.19212099931974 M468.7345121428689,593.1824251292736 L468.734522244082,593.1819329145491 M885.2183933674448,341.19261051308195 L468.7345121428689,593.1824251292736 M885.2184080378092,341.19212099931974 L468.734522244082,593.1819329145491 M468.7345121428689,593.1824251292736 L-85.21840803780924,273.35755754457955 M468.734522244082,593.1819329145491 L-85.21840429003066,273.35706876891743" stroke="black"  stroke-width="4"  fill="red"/></svg>