<svg viewBox="0 0 800 800" xmlns="http://www.w3.org/2000/svg"><path d="M-206.5868224476585,30.237972389119648 L-223.38536862212618,39.936617544942806 M-223.3853682710685,36.28831793393039 L-223.38536862212618,39.936617544942806 M-223.3853682710685,36.28831793393039 L-223.38546282782386,36.25640543358844 M-223.38546282782386,36.25640543358844 L-223.38551956345452,36.22446965397694 M-223.38551956345452,36.22446965397694 L-223.38553847579965,36.19251134747759 M-206.55158213387062,26.514653537838967 L-223.38553847579965,36.19251134747759 M-206.5868224476585,30.237972389119648 L-206.55158213387062,26.514653537838967 M999.5610495201851,746.004904359824 L989.1171069264814,739.9750926319064 M977.29156002622,799.1672113055827 L989.1171069264814,739.9750926319064 M977.29156002622,799.1672113055827 L441.78548171243335,477.0395206979024 M439.04383023389516,481.22953216037956 L441.78548171243335,477.0395206979024 M303.32291641704364,399.22644435324105 L439.04383023389516,481.22953216037956 M306.2982721836114,395.5387055254099 L303.32291641704364,399.22644435324105 M306.2982721836114,395.5387055254099 L-105.37513654388545,147.90117196920875 M-108.73430158373696,150.25991974760012 L-105.37513654388545,147.90117196920875 M-186.278123002406,103.40765049986209 L-108.73430158373696,150.25991974760012 M-182.9015677955199,101.26601455179735 L-186.278123002406,103.40765049986209 M-182.9015677955199,101.26601455179735 L-251.50983390362182,59.995479607374364 M-220.14279261458205,41.80871925974361 L-251.50983390362182,59.995479607374364 M-220.14279261458205,41.80871925974361 L-223.38536862212618,39.936617544942806 M1005.5558242887931,714.8551409223419 L-206.5868224476585,30.237972389119648 M999.5610495201851,746.004904359824 L1005.5558242887931,714.8551409223419 M-213.15230246233455,35.88812403971684 L-213.19791417415252,35.86769423475209 M-213.19791417415252,35.86769423475209 L-213.25063421066488,35.8540993854769 M-213.25063421066488,35.8540993854769 L-213.3073985361624,35.848128392538854 M-213.3073985361624,35.848128392538854 L-213.364910551477,35.85012841271225 M-213.364910551477,35.85012841271225 L-213.4198286115669,35.859983081041605 M-213.4198286115669,35.859983081041605 L-213.46896317252776,35.877120449010874 M-213.46896317252776,35.877120449010874 L-213.50945874620538,35.900544993828646 M-213.50945874620538,35.900544993828646 L-213.5389623298363,35.92889651319285 M-213.5389623298363,35.92889651319285 L-213.55575797535016,35.9605277123614 M-213.55575797535016,35.9605277123614 L-213.55886877932335,35.99360128577689 M-213.55886877932335,35.99360128577689 L-213.54811202501003,36.02619477764944 M-213.54811202501003,36.02619477764944 L-213.52411221619536,36.05641418300456 M-213.52411221619536,36.05641418300456 L-213.48826222160892,36.0825019303561 M-213.48826222160892,36.0825019303561 L-213.4426459482604,36.10294182002741 M-213.4426459482604,36.10294182002741 L-213.3899139504058,36.116544372135024 M-213.3899139504058,36.116544372135024 L-213.33313284203336,36.122519014397085 M-213.33313284203336,36.122519014397085 L-213.27560306674377,36.12051775376585 M-213.27560306674377,36.12051775376585 L-213.22067033841108,36.11065723951032 M-213.22067033841108,36.11065723951032 L-213.1715275610893,36.09351075923553 M-213.1715275610893,36.09351075923553 L-213.1310321053012,36.070075923429044 M-213.1310321053012,36.070075923429044 L-213.10153694680457,36.04171529182065 M-213.10153694680457,36.04171529182065 L-213.08475610347,36.01007824674883 M-213.08475610347,36.01007824674883 L-213.08166308789146,35.97700343290438 M-213.08166308789146,35.97700343290438 L-213.0924365414703,35.94441359026018 M-213.0924365414703,35.94441359026018 L-213.11644813514465,35.91420188786822 M-213.11644813514465,35.91420188786822 L-213.15230246233455,35.88812403971684 M997.4630961527449,727.0045969555265 L997.3312056669289,726.9393245503579 M997.3312056669289,726.9393245503579 L997.2035830866238,726.8959498647616 M997.2035830866238,726.8959498647616 L997.087421877145,726.8768637277253 M997.087421877145,726.8768637277253 L996.9896989221335,726.8833077462627 M996.9896989221335,726.8833077462627 L996.9158230495071,726.9147548900014 M996.9158230495071,726.9147548900014 L996.8701286623681,726.969406187844 M996.8701286623681,726.969406187844 L996.855435403303,727.0441816514594 M996.855435403303,727.0441816514594 L996.8726009338967,727.1347414882948 M996.8726009338967,727.1347414882948 L996.9204709543984,727.2357330937464 M996.9204709543984,727.2357330937464 L996.996226358565,727.3412666526613 M996.996226358565,727.3412666526613 L997.0957364306797,727.4453605802307 M997.0957364306797,727.4453605802307 L997.212988556268,727.5418324155467 M997.212988556268,727.5418324155467 L997.3413869470468,727.6251942817228 M997.3413869470468,727.6251942817228 L997.4732027843692,727.6904479525065 M997.4732027843692,727.6904479525065 L997.6008974233265,727.7338665620498 M997.6008974233265,727.7338665620498 L997.7171283081915,727.7529735479811 M997.7171283081915,727.7529735479811 L997.8150351507217,727.7465981844944 M997.8150351507217,727.7465981844944 L997.8887994204157,727.7150419041659 M997.8887994204157,727.7150419041659 L997.9344800284451,727.6603386714962 M997.9344800284451,727.6603386714962 L997.94912763221,727.5855044940199 M997.94912763221,727.5855044940199 L997.9318950508392,727.4948926427467 M997.9318950508392,727.4948926427467 L997.8840847541056,727.3939434559804 M997.8840847541056,727.3939434559804 L997.8081344357612,727.288327061442 M997.8081344357612,727.288327061442 L997.7085870897639,727.1842539541215 M997.7085870897639,727.1842539541215 L997.5913312218571,727.0878260513828 M997.5913312218571,727.0878260513828 L997.4630961527449,727.0045969555265 M-220.1360761818121,38.15654253759925 L-223.3853682710685,36.28831793393039 M-220.1360761818121,38.15654253759925 L-220.14279261458205,41.80871925974361 M-220.13606983641148,38.060634016332926 L-220.13610977584062,38.092626397208676 M-220.13610977584062,38.092626397208676 L-220.13611189071491,38.124596155358404 M-220.13611189071491,38.124596155358404 L-220.1360761818121,38.15654253759925 M-223.38553847579965,36.19251134747759 L-220.13606983641148,38.060634016332926 M993.7366785385276,735.9172530517221 L1004.238234761582,741.954607898218 M1004.238234761582,741.954607898218 L1010.1634925436553,710.7674573623733 M1010.1634925436553,710.7674573623733 L-206.55158213387062,26.514653537838967 M-220.13606983641148,38.060634016332926 L-251.57084869201753,56.20951205053342 M-251.57084869201753,56.20951205053342 L-182.80971427505438,97.40019110661757 M-182.80971427505438,97.40019110661757 L-186.19373904365784,99.53790617175105 M-186.19373904365784,99.53790617175105 L-108.46063667227747,146.30990699012705 M-108.46063667227747,146.30990699012705 L-105.0941242856735,143.9549484131971 M-105.0941242856735,143.9549484131971 L307.8758482523905,391.34053538540377 M307.8758482523905,391.34053538540377 L304.896316993925,395.0267494337553 M304.896316993925,395.0267494337553 L441.15374236606783,477.0128302229622 M441.15374236606783,477.0128302229622 L443.89739961560747,472.8229035054203 M443.89739961560747,472.8229035054203 L982.0379099417759,795.1906659903589 M993.7366785385276,735.9172530517221 L982.0379099417759,795.1906659903589 M-212.87829552835,32.00716952174389 L-212.78846204205024,32.072205789525924 M-212.78846204205024,32.072205789525924 L-212.72828169720276,32.14755785124743 M-212.72828169720276,32.14755785124743 L-212.70125797242326,32.22885074093995 M-212.70125797242326,32.22885074093995 L-212.70897121492953,32.31136207779434 M-212.70897121492953,32.31136207779434 L-212.75098223172358,32.39029596832199 M-212.75098223172358,32.39029596832199 L-212.82485749573266,32.46106196449176 M-212.82485749573266,32.46106196449176 L-212.92630826522168,32.5195424771739 M-212.92630826522168,32.5195424771739 L-213.04943853326427,32.56233325813821 M-213.04943853326427,32.56233325813821 L-213.18708790625476,32.58694264266535 M-213.18708790625476,32.58694264266535 L-213.33124886903602,32.591937326577124 M-213.33124886903602,32.591937326577124 L-213.47353381957055,32.57702610282536 M-213.47353381957055,32.57702610282536 L-213.60566485494883,32.543078008738235 M-213.60566485494883,32.543078008738235 L-213.71995676592587,32.49206993221492 M-213.71995676592587,32.49206993221492 L-213.8097639155659,32.426971309776604 M-213.8097639155659,32.426971309776604 L-213.86987045818637,32.35157101443946 M-213.86987045818637,32.35157101443946 L-213.89678920896324,32.27025541057441 M-213.89678920896324,32.27025541057441 L-213.8889644006158,32.18775177989539 M-213.8889644006158,32.18775177989539 L-213.84686047798516,32.10885442494123 M-213.84686047798516,32.10885442494123 L-213.77293233304363,32.038145377715864 M-213.77293233304363,32.038145377715864 L-213.67148082205995,31.979729181032496 M-213.67148082205995,31.979729181032496 L-213.54840212183444,31.93699534900975 M-213.54840212183444,31.93699534900975 L-213.41084481226335,31.912422500096 M-213.41084481226335,31.912422500096 L-213.2667952365873,31.907435614851238 M-213.2667952365873,31.907435614851238 L-213.1246157859391,31.922323939092962 M-213.1246157859391,31.922323939092962 L-212.99255966280498,31.95622398450655 M-212.99255966280498,31.95622398450655 L-212.87829552835,32.00716952174389 M1002.1664543490202,722.4651436823117 L1002.4888087844391,722.6733551234945 M1002.4888087844391,722.6733551234945 L1002.7838412129537,722.914661905221 M1002.7838412129537,722.914661905221 L1003.0344212833344,723.1750737385378 M1003.0344212833344,723.1750737385378 L1003.2258449485581,723.439399820639 M1003.2258449485581,723.439399820639 L1003.3469721264822,723.6922846585794 M1003.3469721264822,723.6922846585794 L1003.3908120158966,723.9190637563963 M1003.3908120158966,723.9190637563963 L1003.3546934096597,724.1064800403133 M1003.3546934096597,724.1064800403133 L1003.240690703603,724.2436097602288 M1003.240690703603,724.2436097602288 L1003.0555089782619,724.3225050792407 M1003.0555089782619,724.3225050792407 L1002.8098335517506,724.3385129519263 M1002.8098335517506,724.3385129519263 L1002.5179516589368,724.2906884897388 M1002.5179516589368,724.2906884897388 L1002.196984970973,724.1818921866532 M1002.196984970973,724.1818921866532 L1001.8656081046798,724.0184603336195 M1001.8656081046798,724.0184603336195 L1001.5429262459241,723.8098150234225 M1001.5429262459241,723.8098150234225 L1001.2479165273886,723.5682322368009 M1001.2479165273886,723.5682322368009 L1000.9975707377938,723.3076896257446 M1000.9975707377938,723.3076896257446 L1000.8065392277587,723.0434079984013 M1000.8065392277587,723.0434079984013 L1000.6858722016708,722.7907326216498 M1000.6858722016708,722.7907326216498 L1000.6424551734525,722.5642800609194 M1000.6424551734525,722.5642800609194 L1000.6788623517685,722.3772325312889 M1000.6788623517685,722.3772325312889 L1000.7929532137993,722.2404292819931 M1000.7929532137993,722.2404292819931 L1000.9780026616062,722.1617434789625 M1000.9780026616062,722.1617434789625 L1001.2233555007621,722.1457800496046 M1001.2233555007621,722.1457800496046 L1001.5147983800836,722.1934736701885 M1001.5147983800836,722.1934736701885 L1001.835310401504,722.3019939986084 M1001.835310401504,722.3019939986084 L1002.1664543490202,722.4651436823117 M1005.5558242887931,714.8551409223419 L1010.1634925436553,710.7674573623733 M1004.1182933148799,742.058214475707 L993.6182187559822,736.0210540443159 M1004.1182933148799,742.058214475707 L999.5610495201851,746.004904359824 M993.6182187559822,736.0210540443159 L989.1171069264814,739.9750926319064 M993.6182187559822,736.0210540443159 L993.6576887768864,735.9865262572125 M993.6576887768864,735.9865262572125 L993.6971756817769,735.9519256553451 M993.6971756817769,735.9519256553451 L993.7366785385276,735.9172530517221 M977.29156002622,799.1672113055827 L982.0379099417759,795.1906659903589 M441.78548171243335,477.0395206979024 L443.89739961560747,472.8229035054203 M439.04383023389516,481.22953216037956 L441.15374236606783,477.0128302229622 M303.32291641704364,399.22644435324105 L304.896316993925,395.0267494337553 M306.2982721836114,395.5387055254099 L307.8758482523905,391.34053538540377 M-105.37513654388545,147.90117196920875 L-105.0941242856735,143.9549484131971 M-108.73430158373696,150.25991974760012 L-108.46063667227747,146.30990699012705 M-186.278123002406,103.40765049986209 L-186.19373904365784,99.53790617175105 M-182.9015677955199,101.26601455179735 L-182.80971427505438,97.40019110661757 M-251.50983390362182,59.995479607374364 L-251.57084869201753,56.20951205053342 M1004.238234761582,741.954607898218 L1004.1982383921535,741.9892162390902 M1004.1982383921535,741.9892162390902 L1004.1582575953074,742.0237520353965 M1004.1582575953074,742.0237520353965 L1004.1182933148799,742.058214475707 M-213.15230246233455,35.88812403971684 L-213.13296863594655,32.54550695094099 M-213.13296863594655,32.54550695094099 L-213.0970459915784,32.5715346626252 M-213.0970459915784,32.5715346626252 L-213.0729883610262,32.601688284579325 M-213.0729883610262,32.601688284579325 L-213.0621938281572,32.634215479326826 M-213.0621938281572,32.634215479326826 L-213.06529195395365,32.667226717669564 M-213.06529195395365,32.667226717669564 L-213.08210380502192,32.69880295527366 M-213.08210380502192,32.69880295527366 L-213.11165407237513,32.727109080443824 M-213.11165407237513,32.727109080443824 L-213.1522255370594,32.750498879328745 M-213.1522255370594,32.750498879328745 L-213.20146080688346,32.76761240909809 M-213.20146080688346,32.76761240909809 L-213.25649713210078,32.77745397490918 M-213.25649713210078,32.77745397490918 L-213.31413558483155,32.7794513898715 M-213.31413558483155,32.7794513898715 L-213.37102412806394,32.77348822867174 M-213.37102412806394,32.77348822867174 L-213.42385607073447,32.759911816232034 M-213.42385607073447,32.759911816232034 L-213.4695589846674,32.73951120685456 M-213.4695589846674,32.73951120685456 L-213.50547728056608,32.71347359615487 M-213.50547728056608,32.71347359615487 L-213.5295230818483,32.68331227151731 M-213.5295230818483,32.68331227151731 L-213.540300852364,32.650781427673905 M-213.540300852364,32.650781427673905 L-213.53718487085916,32.61777142971516 M-213.53718487085916,32.61777142971516 L-213.5203581614935,32.58620103780203 M-213.5203581614935,32.58620103780203 L-213.49079943693903,32.55790402454511 M-213.49079943693903,32.55790402454511 L-213.45022785369554,32.53452451627521 M-213.45022785369554,32.53452451627521 L-213.40100083111383,32.51742009848056 M-213.40100083111383,32.51742009848056 L-213.34597922949683,32.50758437838334 M-213.34597922949683,32.50758437838334 L-213.28835860389313,32.50558820383395 M-213.28835860389313,32.50558820383395 L-213.23148690709843,32.511547715842084 M-213.23148690709843,32.511547715842084 L-213.1786669711828,32.52511642572915 M-213.1786669711828,32.52511642572915 L-213.13296863594655,32.54550695094099 M997.4630961527449,727.0045969555265 L1001.5903038198559,723.359954671703 M1001.5903038198559,723.359954671703 L1001.7191920045724,723.4432712409048 M1001.7191920045724,723.4432712409048 L1001.8370987429563,723.5398005262166 M1001.8370987429563,723.5398005262166 L1001.9372573081035,723.6439830991305 M1001.9372573081035,723.6439830991305 L1002.0137431714896,723.7497106302617 M1002.0137431714896,723.7497106302617 L1002.0619815695687,723.8507660874325 M1002.0619815695687,723.8507660874325 L1002.0795115794534,723.9414733642986 M1002.0795115794534,723.9414733642986 L1002.0650119485921,724.0163863782002 M1002.0650119485921,724.0163863782002 L1002.0193212200239,724.071147254994 M1002.0193212200239,724.071147254994 L1001.945390747236,724.1027367939637 M1001.945390747236,724.1027367939637 L1001.8471695867439,724.1091188772657 M1001.8471695867439,724.1091188772657 L1001.7304951680102,724.0899917525496 M1001.7304951680102,724.0899917525496 L1001.6022540915607,724.046527385595 M1001.6022540915607,724.046527385595 L1001.4698203017966,723.9812049614534 M1001.4698203017966,723.9812049614534 L1001.3407677884173,723.8977552892543 M1001.3407677884173,723.8977552892543 L1001.2228647014105,723.8011818764369 M1001.2228647014105,723.8011818764369 L1001.1227436075266,723.6969783908953 M1001.1227436075266,723.6969783908953 L1001.0464537471413,723.5913338065045 M1001.0464537471413,723.5913338065045 L1000.9981555592345,723.4902359988605 M1000.9981555592345,723.4902359988605 L1000.9806931920135,723.3995809672197 M1000.9806931920135,723.3995809672197 L1000.9952389428619,723.3247269276917 M1000.9952389428619,723.3247269276917 L1001.0409436813537,723.2700182161593 M1001.0409436813537,723.2700182161593 L1001.1149863511681,723.2385380415938 M1001.1149863511681,723.2385380415938 L1001.2130226475487,723.2320872550426 M1001.2130226475487,723.2320872550426 L1001.329626863729,723.2511934383581 M1001.329626863729,723.2511934383581 L1001.4577952771325,723.2946136864746 M1001.4577952771325,723.2946136864746 L1001.5903038198559,723.359954671703 M-212.87829552835,32.00716952174389 L-212.8806237646129,32.40006018105356 M-212.8806237646129,32.40006018105356 L-212.79081035853153,32.465111244228694 M-212.79081035853153,32.465111244228694 L-212.73064355307042,32.54048044544908 M-212.73064355307042,32.54048044544908 L-212.70362603726494,32.62179182270802 M-212.70362603726494,32.62179182270802 L-212.7113377933333,32.70432192080233 M-212.7113377933333,32.70432192080233 L-212.753339710536,32.783273755909136 M-212.753339710536,32.783273755909136 L-212.82719878709156,32.85405583711065 M-212.82719878709156,32.85405583711065 L-212.92862721997938,32.91254964043253 M-212.92862721997938,32.91254964043253 L-213.05173030037713,32.95535014519402 M-213.05173030037713,32.95535014519402 L-213.18934921669063,32.979965121548844 M-213.18934921669063,32.979965121548844 L-213.33347822726796,32.984960940332144 M-213.33347822726796,32.984960940332144 L-213.47573159123374,32.97004632847597 M-213.47573159123374,32.97004632847597 L-213.60783324533418,32.93609052033685 M-213.60783324533418,32.93609052033685 L-213.72209969067205,32.8850708521104 M-213.72209969067205,32.8850708521104 L-213.81188677157218,32.81995743394464 M-213.81188677157218,32.81995743394464 L-213.87197980743133,32.744539998813536 M-213.87197980743133,32.744539998813536 L-213.89889239566878,32.66320590727338 M-213.89889239566878,32.66320590727338 L-213.8910691232477,32.58068351538793 M-213.8910691232477,32.58068351538793 L-213.8489743414815,32.5017682160626 M-213.8489743414815,32.5017682160626 L-213.77506240757793,32.43104308412967 M-213.77506240757793,32.43104308412967 L-213.6736332336884,32.37261359717269 M-213.6736332336884,32.37261359717269 L-213.55058169839606,32.32987004167694 M-213.55058169839606,32.32987004167694 L-213.4130548047891,32.30529160114344 M-213.4130548047891,32.30529160114344 L-213.26903713194747,32.30030358108178 M-213.26903713194747,32.30030358108178 L-213.12688922108362,32.31519529327704 M-213.12688922108362,32.31519529327704 L-212.99486244586433,32.34910305248957 M-212.99486244586433,32.34910305248957 L-212.8806237646129,32.40006018105356 M1002.1664543490202,722.4651436823117 L1001.6806037684474,722.8943402031755 M1001.6806037684474,722.8943402031755 L1002.0027657861709,723.1025261658292 M1002.0027657861709,723.1025261658292 L1002.2976063225441,723.3438033917259 M1002.2976063225441,723.3438033917259 L1002.5480061624156,723.6041832960912 M1002.5480061624156,723.6041832960912 L1002.7392718145965,723.8684769341885 M1002.7392718145965,723.8684769341885 L1002.860272397494,724.1213306993254 M1002.860272397494,724.1213306993254 L1002.9040244534066,724.3480819044887 M1002.9040244534066,724.3480819044887 L1002.867861967131,724.5354751175139 M1002.867861967131,724.5354751175139 L1002.7538619141268,724.672587945528 M1002.7538619141268,724.672587945528 L1002.56872918541,724.7514735417471 M1002.56872918541,724.7514735417471 L1002.3231462986679,724.7674794412919 M1002.3231462986679,724.7674794412919 L1002.0313951004986,724.7196608735937 M1002.0313951004986,724.7196608735937 L1001.7105895635431,724.6108779756198 M1001.7105895635431,724.6108779756198 L1001.3793949111081,724.4474662482367 M1001.3793949111081,724.4474662482367 L1001.0569058114103,724.2388466117948 M1001.0569058114103,724.2388466117948 L1000.7620880526048,723.9972935243297 M1000.7620880526048,723.9972935243297 L1000.5119223482701,723.7367829101363 M1000.5119223482701,723.7367829101363 L1000.3210485264702,723.4725337037119 M1000.3210485264702,723.4725337037119 L1000.2005076654988,723.2198892909928 M1000.2005076654988,723.2198892909928 L1000.1571780341363,722.9934644533482 M1000.1571780341363,722.9934644533482 L1000.1936287492575,722.8064398031186 M1000.1936287492575,722.8064398031186 L1000.3077167870671,722.6696532761905 M1000.3077167870671,722.6696532761905 L1000.4927172781801,722.5909770871529 M1000.4927172781801,722.5909770871529 L1000.7379778196283,722.575015607857 M1000.7379778196283,722.575015607857 L1001.0292903930682,722.6227034018964 M1001.0292903930682,722.6227034018964 L1001.3496417096695,722.7312104685157 M1001.3496417096695,722.7312104685157 L1001.6806037684474,722.8943402031755" stroke="black"  stroke-width="4"  fill="red"/>
<path d="M999.5610495201851,746.004904359824 L986.8219620515275,812.1991445731594 M999.5610495201851,746.004904359824 L989.1171069264814,739.9750926319064 M975.99493177339,805.6574120603143 L989.1171069264814,739.9750926319064 M986.8219620515275,812.1991445731594 L975.99493177339,805.6574120603143 M1004.1182933148799,742.058214475707 L999.5610495201851,746.004904359824 M1031.2575585810237,705.248892981457 L1029.9405344870852,707.8086466176842 M1029.9405344870852,707.8086466176842 L1028.5620708792435,710.3606860897523 M1028.5620708792435,710.3606860897523 L1027.1269228436126,712.8961537930923 M1027.1269228436126,712.8961537930923 L1025.6400640559973,715.4062487257263 M1025.6400640559973,715.4062487257263 L1024.1066612439777,717.88226753402 M1024.1066612439777,717.88226753402 L1022.5320532386223,720.3156438100996 M1022.5320532386223,720.3156438100996 L1020.9217308553472,722.6979797033407 M1020.9217308553472,722.6979797033407 L1019.2813078205403,725.0210886938446 M1019.2813078205403,725.0210886938446 L1017.6164965900062,727.2770274736781 M1017.6164965900062,727.2770274736781 L1015.933084475106,729.4581292919829 M1015.933084475106,729.4581292919829 L1014.2369082564079,731.5570359858182 M1014.2369082564079,731.5570359858182 L1012.533824986211,733.5667288834909 M1012.533824986211,733.5667288834909 L1010.8296922579981,735.480552417881 M1010.8296922579981,735.480552417881 L1009.1303360756873,737.2922452993507 M1009.1303360756873,737.2922452993507 L1007.4415343577328,738.9959558053745 M1007.4415343577328,738.9959558053745 L1005.768986083283,740.5862679296511 M1005.768986083283,740.5862679296511 L1004.1182933148799,742.058214475707 M1031.4502706763774,704.8640682543271 L1031.426536101133,704.8696272153677 M1031.426536101133,704.8696272153677 L1031.3985798357535,704.8860462995315 M1031.3985798357535,704.8860462995315 L1031.3680315469096,704.9123678222102 M1031.3680315469096,704.9123678222102 L1031.3366646986688,704.947060461817 M1031.3366646986688,704.947060461817 L1031.3062999144427,704.9881122414888 M1031.3062999144427,704.9881122414888 L1031.2787030540758,705.033135128841 M1031.2787030540758,705.033135128841 L1031.2554772184371,705.0795132566018 M1031.2554772184371,705.0795132566018 L1031.2379703218744,705.1245555851606 M1031.2379703218744,705.1245555851606 L1031.2272020305227,705.1656406130919 M1031.2272020305227,705.1656406130919 L1031.2237960986363,705.2003856439867 M1031.2237960986363,705.2003856439867 L1031.227950055043,705.2267712104988 M1031.227950055043,705.2267712104988 L1031.2394272613742,705.2432591028567 M1031.2394272613742,705.2432591028567 L1031.2575585810237,705.248892981457 M1058.9880574524714,667.4528434923786 L1057.2436455939078,669.0492348844261 M1057.2436455939078,669.0492348844261 L1055.4903693863066,670.7507802719124 M1055.4903693863066,670.7507802719124 L1053.7333031423714,672.5521968156684 M1053.7333031423714,672.5521968156684 L1051.977483610508,674.4479887460834 M1051.977483610508,674.4479887460834 L1050.2279155769188,676.4324520572557 M1050.2279155769188,676.4324520572557 L1048.4895528563775,678.4996861416921 M1048.4895528563775,678.4996861416921 L1046.767298719808,680.6436114300946 M1046.767298719808,680.6436114300946 L1045.0659868487242,682.8579833365568 M1045.0659868487242,682.8579833365568 L1043.3903673171853,685.1364169002813 M1043.3903673171853,685.1364169002813 L1041.745121315766,687.472379114743 M1041.745121315766,687.472379114743 L1040.13482878884,689.8592220537062 M1040.13482878884,689.8592220537062 L1038.5639753001824,692.2901804514838 M1038.5639753001824,692.2901804514838 L1037.0369370883864,694.758397791845 M1037.0369370883864,694.758397791845 L1035.5579757738074,697.256933059753 M1035.5579757738074,697.256933059753 L1034.1312274231486,699.7787787659443 M1034.1312274231486,699.7787787659443 L1032.7607026273795,702.31686054425 M1032.7607026273795,702.31686054425 L1031.4502706763774,704.8640682543271 M1043.965823714837,759.5528065577255 L1058.9880574524714,667.4528434923786 M1015.3934077104324,783.1248311076276 L1043.965823714837,759.5528065577255 M1014.2168056054089,789.7231788833433 L1015.3934077104324,783.1248311076276 M986.8219620515275,812.1991445731594 L1014.2168056054089,789.7231788833433 M1004.1182933148799,742.058214475707 L993.6182187559822,736.0210540443159 M993.6182187559822,736.0210540443159 L989.1171069264814,739.9750926319064 M975.99493177339,805.6574120603143 L1003.0349448534404,783.1248153161625 M1004.2518272192091,776.5795963781418 L1003.0349448534404,783.1248153161625 M1004.2518272192091,776.5795963781418 L1032.4506487001295,752.9543067450959 M1048.0739186179067,661.5897600639241 L1032.4506487001295,752.9543067450959 M1048.0739186179067,661.5897600639241 L1046.3505695563326,663.1876428251164 M1046.3505695563326,663.1876428251164 L1044.6174729068948,664.889803581327 M1044.6174729068948,664.889803581327 L1042.8796497705498,666.6909608188912 M1042.8796497705498,666.6909608188912 L1041.1420868009923,668.5856220379248 M1041.1420868009923,668.5856220379248 L1039.4097416150025,670.5680883620971 M1039.4097416150025,670.5680883620971 L1037.687524042903,672.6324662591412 M1037.687524042903,672.6324662591412 L1035.9802963426591,674.7726850323079 M1035.9802963426591,674.7726850323079 L1034.2928543897124,676.9825108380642 M1034.2928543897124,676.9825108380642 L1032.629913680095,679.2555712575133 M1032.629913680095,679.2555712575133 L1030.996123790604,681.5853475873132 M1030.996123790604,681.5853475873132 L1029.396036340679,683.9652079951072 M1029.396036340679,683.9652079951072 L1027.8341117083546,686.3884050921017 M1027.8341117083546,686.3884050921017 L1026.314704113228,688.8481019570502 M1026.314704113228,688.8481019570502 L1024.8420563407735,691.3373789136019 M1024.8420563407735,691.3373789136019 L1023.4202888320964,693.8492515304044 M1023.4202888320964,693.8492515304044 L1022.0533997395484,696.3766702623068 M1022.0533997395484,696.3766702623068 L1020.7452491023863,698.9125514546977 M1020.5527710486755,699.295614184389 L1020.5350774669397,699.2902066335023 M1020.5350774669397,699.2902066335023 L1020.5240057342329,699.2739831005049 M1020.5240057342329,699.2739831005049 L1020.5202013993172,699.2478845549922 M1020.5202013993172,699.2478845549922 L1020.5238808376606,699.2134325248592 M1020.5238808376606,699.2134325248592 L1020.5348306164864,699.1726294431708 M1020.5348306164864,699.1726294431708 L1020.5524164414477,699.1278416497555 M1020.5524164414477,699.1278416497555 L1020.575614067944,699.0816758424844 M1020.575614067944,699.0816758424844 L1020.6030772221062,699.0368107480588 M1020.6030772221062,699.0368107480588 L1020.6332105625321,698.9958530670892 M1020.6332105625321,698.9958530670892 L1020.6642616793903,698.9611853563877 M1020.6642616793903,698.9611853563877 L1020.6944282895171,698.9348181629018 M1020.6944282895171,698.9348181629018 L1020.7219590533249,698.9182854284286 M1020.7219590533249,698.9182854284286 L1020.7452491023863,698.9125514546977 M993.6182187559822,736.0210540443159 L995.2489658784378,734.5468747334564 M995.2489658784378,734.5468747334564 L996.9022619561059,732.9552512003831 M996.9022619561059,732.9552512003831 L998.5725741437683,731.2511586326009 M998.5725741437683,731.2511586326009 L1000.2542705235804,729.4400173187757 M1000.2542705235804,729.4400173187757 L1001.9416378138088,727.5276795020816 M1001.9416378138088,727.5276795020816 L1003.6289118099897,725.5204031826827 M1003.6289118099897,725.5204031826827 L1005.3102936579861,723.4248368238793 M1005.3102936579861,723.4248368238793 L1006.9799815886319,721.2479881795787 M1006.9799815886319,721.2479881795787 L1008.6321904347411,718.9972007371462 M1008.6321904347411,718.9972007371462 L1010.2611804869169,716.6801228532943 M1010.2611804869169,716.6801228532943 L1011.8612826278826,714.304675815983 M1011.8612826278826,714.304675815983 L1013.4269219984495,711.8790206242493 M1013.4269219984495,711.8790206242493 L1014.9526419501857,709.4115262196324 M1014.9526419501857,709.4115262196324 L1016.4331328955426,706.9107268846465 M1016.4331328955426,706.9107268846465 L1017.8632522824329,704.3852907875325 M1017.8632522824329,704.3852907875325 L1019.238045458587,701.8439809073786 M1019.238045458587,701.8439809073786 L1020.5527710486755,699.295614184389 M1003.0349448534404,783.1248153161625 L1014.2168056054089,789.7231788833433 M1031.2575585810237,705.248892981457 L1020.5527710486755,699.295614184389 M1031.4502706763774,704.8640682543271 L1020.7452491023863,698.9125514546977 M1058.9880574524714,667.4528434923786 L1048.0739186179067,661.5897600639241 M1043.965823714837,759.5528065577255 L1032.4506487001295,752.9543067450959 M1015.3934077104324,783.1248311076276 L1004.2518272192091,776.5795963781418" stroke="black"  stroke-width="4"  fill="red"/>
<path d="M997.4630961527449,727.0045969555265 L1001.5903038198559,723.359954671703 M1001.5903038198559,723.359954671703 L1001.7191920045724,723.4432712409048 M1001.7191920045724,723.4432712409048 L1001.8370987429563,723.5398005262166 M1001.8370987429563,723.5398005262166 L1001.9372573081035,723.6439830991305 M1001.9372573081035,723.6439830991305 L1002.0137431714896,723.7497106302617 M1002.0137431714896,723.7497106302617 L1002.0619815695687,723.8507660874325 M1002.0619815695687,723.8507660874325 L1002.0795115794534,723.9414733642986 M1002.0795115794534,723.9414733642986 L1002.0650119485921,724.0163863782002 M1002.0650119485921,724.0163863782002 L1002.0193212200239,724.071147254994 M1002.0193212200239,724.071147254994 L1001.945390747236,724.1027367939637 M1001.945390747236,724.1027367939637 L1001.8471695867439,724.1091188772657 M1001.8471695867439,724.1091188772657 L1001.7304951680102,724.0899917525496 M1001.7304951680102,724.0899917525496 L1001.6022540915607,724.046527385595 M1001.6022540915607,724.046527385595 L1001.4698203017966,723.9812049614534 M1001.4698203017966,723.9812049614534 L1001.3407677884173,723.8977552892543 M1001.3407677884173,723.8977552892543 L1001.2228647014105,723.8011818764369 M1001.2228647014105,723.8011818764369 L1001.1227436075266,723.6969783908953 M1001.1227436075266,723.6969783908953 L1001.0464537471413,723.5913338065045 M1001.0464537471413,723.5913338065045 L1000.9981555592345,723.4902359988605 M1000.9981555592345,723.4902359988605 L1000.9806931920135,723.3995809672197 M1000.9806931920135,723.3995809672197 L1000.9952389428619,723.3247269276917 M1000.9952389428619,723.3247269276917 L1001.0409436813537,723.2700182161593 M1001.0409436813537,723.2700182161593 L1001.1149863511681,723.2385380415938 M1001.1149863511681,723.2385380415938 L1001.2130226475487,723.2320872550426 M1001.2130226475487,723.2320872550426 L1001.329626863729,723.2511934383581 M1001.329626863729,723.2511934383581 L1001.4577952771325,723.2946136864746 M1001.4577952771325,723.2946136864746 L1001.5903038198559,723.359954671703 M997.4630961527449,727.0045969555265 L997.3312056669289,726.9393245503579 M997.3312056669289,726.9393245503579 L997.2035830866238,726.8959498647616 M997.2035830866238,726.8959498647616 L997.087421877145,726.8768637277253 M997.087421877145,726.8768637277253 L996.9896989221335,726.8833077462627 M996.9896989221335,726.8833077462627 L996.9158230495071,726.9147548900014 M996.9158230495071,726.9147548900014 L996.8701286623681,726.969406187844 M996.8701286623681,726.969406187844 L996.855435403303,727.0441816514594 M996.855435403303,727.0441816514594 L996.8726009338967,727.1347414882948 M996.8726009338967,727.1347414882948 L996.9204709543984,727.2357330937464 M996.9204709543984,727.2357330937464 L996.996226358565,727.3412666526613 M996.996226358565,727.3412666526613 L997.0957364306797,727.4453605802307 M997.0957364306797,727.4453605802307 L997.212988556268,727.5418324155467 M997.212988556268,727.5418324155467 L997.3413869470468,727.6251942817228 M997.3413869470468,727.6251942817228 L997.4732027843692,727.6904479525065 M997.4732027843692,727.6904479525065 L997.6008974233265,727.7338665620498 M997.6008974233265,727.7338665620498 L997.7171283081915,727.7529735479811 M997.7171283081915,727.7529735479811 L997.8150351507217,727.7465981844944 M997.8150351507217,727.7465981844944 L997.8887994204157,727.7150419041659 M997.8887994204157,727.7150419041659 L997.9344800284451,727.6603386714962 M997.9344800284451,727.6603386714962 L997.94912763221,727.5855044940199 M997.94912763221,727.5855044940199 L997.9318950508392,727.4948926427467 M997.9318950508392,727.4948926427467 L997.8840847541056,727.3939434559804 M997.8840847541056,727.3939434559804 L997.8081344357612,727.288327061442 M997.8081344357612,727.288327061442 L997.7085870897639,727.1842539541215 M997.7085870897639,727.1842539541215 L997.5913312218571,727.0878260513828 M997.5913312218571,727.0878260513828 L997.4630961527449,727.0045969555265 M1001.6806037684474,722.8943402031755 L1002.0027657861709,723.1025261658292 M1002.0027657861709,723.1025261658292 L1002.2976063225441,723.3438033917259 M1002.2976063225441,723.3438033917259 L1002.5480061624156,723.6041832960912 M1002.5480061624156,723.6041832960912 L1002.7392718145965,723.8684769341885 M1002.7392718145965,723.8684769341885 L1002.860272397494,724.1213306993254 M1002.860272397494,724.1213306993254 L1002.9040244534066,724.3480819044887 M1002.9040244534066,724.3480819044887 L1002.867861967131,724.5354751175139 M1002.867861967131,724.5354751175139 L1002.7538619141268,724.672587945528 M1002.7538619141268,724.672587945528 L1002.56872918541,724.7514735417471 M1002.56872918541,724.7514735417471 L1002.3231462986679,724.7674794412919 M1002.3231462986679,724.7674794412919 L1002.0313951004986,724.7196608735937 M1002.0313951004986,724.7196608735937 L1001.7105895635431,724.6108779756198 M1001.7105895635431,724.6108779756198 L1001.3793949111081,724.4474662482367 M1001.3793949111081,724.4474662482367 L1001.0569058114103,724.2388466117948 M1001.0569058114103,724.2388466117948 L1000.7620880526048,723.9972935243297 M1000.7620880526048,723.9972935243297 L1000.5119223482701,723.7367829101363 M1000.5119223482701,723.7367829101363 L1000.3210485264702,723.4725337037119 M1000.3210485264702,723.4725337037119 L1000.2005076654988,723.2198892909928 M1000.2005076654988,723.2198892909928 L1000.1571780341363,722.9934644533482 M1000.1571780341363,722.9934644533482 L1000.1936287492575,722.8064398031186 M1000.1936287492575,722.8064398031186 L1000.3077167870671,722.6696532761905 M1000.3077167870671,722.6696532761905 L1000.4927172781801,722.5909770871529 M1000.4927172781801,722.5909770871529 L1000.7379778196283,722.575015607857 M1000.7379778196283,722.575015607857 L1001.0292903930682,722.6227034018964 M1001.0292903930682,722.6227034018964 L1001.3496417096695,722.7312104685157 M1001.3496417096695,722.7312104685157 L1001.6806037684474,722.8943402031755 M1002.1664543490202,722.4651436823117 L1002.4888087844391,722.6733551234945 M1002.4888087844391,722.6733551234945 L1002.7838412129537,722.914661905221 M1002.7838412129537,722.914661905221 L1003.0344212833344,723.1750737385378 M1003.0344212833344,723.1750737385378 L1003.2258449485581,723.439399820639 M1003.2258449485581,723.439399820639 L1003.3469721264822,723.6922846585794 M1003.3469721264822,723.6922846585794 L1003.3908120158966,723.9190637563963 M1003.3908120158966,723.9190637563963 L1003.3546934096597,724.1064800403133 M1003.3546934096597,724.1064800403133 L1003.240690703603,724.2436097602288 M1003.240690703603,724.2436097602288 L1003.0555089782619,724.3225050792407 M1003.0555089782619,724.3225050792407 L1002.8098335517506,724.3385129519263 M1002.8098335517506,724.3385129519263 L1002.5179516589368,724.2906884897388 M1002.5179516589368,724.2906884897388 L1002.196984970973,724.1818921866532 M1002.196984970973,724.1818921866532 L1001.8656081046798,724.0184603336195 M1001.8656081046798,724.0184603336195 L1001.5429262459241,723.8098150234225 M1001.5429262459241,723.8098150234225 L1001.2479165273886,723.5682322368009 M1001.2479165273886,723.5682322368009 L1000.9975707377938,723.3076896257446 M1000.9975707377938,723.3076896257446 L1000.8065392277587,723.0434079984013 M1000.8065392277587,723.0434079984013 L1000.6858722016708,722.7907326216498 M1000.6858722016708,722.7907326216498 L1000.6424551734525,722.5642800609194 M1000.6424551734525,722.5642800609194 L1000.6788623517685,722.3772325312889 M1000.6788623517685,722.3772325312889 L1000.7929532137993,722.2404292819931 M1000.7929532137993,722.2404292819931 L1000.9780026616062,722.1617434789625 M1000.9780026616062,722.1617434789625 L1001.2233555007621,722.1457800496046 M1001.2233555007621,722.1457800496046 L1001.5147983800836,722.1934736701885 M1001.5147983800836,722.1934736701885 L1001.835310401504,722.3019939986084 M1001.835310401504,722.3019939986084 L1002.1664543490202,722.4651436823117 M1002.1664543490202,722.4651436823117 L1001.6806037684474,722.8943402031755" stroke="black"  stroke-width="4"  fill="red"/>
<path d="M-220.14279261458205,41.80871925974361 L-254.88728016477876,61.953739080196556 M-220.14279261458205,41.80871925974361 L-223.38536862212618,39.936617544942806 M-258.12833753400037,59.9954799986603 L-223.38536862212618,39.936617544942806 M-254.88728016477876,61.953739080196556 L-258.12833753400037,59.9954799986603 M-254.88728016477876,61.953739080196556 L-255.27312175632198,40.60312888342753 M-255.27312175632198,40.60312888342753 L-251.85355282674414,38.66772078318132 M-251.85355282674414,38.66772078318132 L-252.20577716717435,16.812200823834928 M-252.20577716717435,16.812200823834928 L-202.86450843732405,-10.415285213391371 M-202.86450843732405,-10.415285213391371 L-202.91126756148424,-9.043344931651177 M-202.91126756148424,-9.043344931651177 L-203.02067278731465,-7.6428655234622624 M-203.02067278731465,-7.6428655234622624 L-203.1922684976695,-6.218089408271737 M-203.1922684976695,-6.218089408271737 L-203.42542483059515,-4.7733028366226335 M-203.42542483059515,-4.7733028366226335 L-203.7193429125232,-3.3128362156170965 M-203.7193429125232,-3.3128362156170965 L-204.07305096883533,-1.841048011476289 M-204.07305096883533,-1.841048011476289 L-204.48541544593263,-0.3623189532775086 M-204.48541544593263,-0.3623189532775086 L-204.95513906722294,1.1189649222263824 M-204.95513906722294,1.1189649222263824 L-205.48076883719227,2.598428528073896 M-205.48076883719227,2.598428528073896 L-206.06069961969342,4.0717000503080385 M-206.06069961969342,4.0717000503080385 L-206.69317777091157,5.534440213205755 M-206.69317777091157,5.534440213205755 L-207.37630414097976,6.982340558009355 M-207.37630414097976,6.982340558009355 L-208.1080433939345,8.411140750270363 M-208.1080433939345,8.411140750270363 L-208.88622650790762,9.816636097304468 M-208.88622650790762,9.816636097304468 L-209.70855755748505,11.194690733542359 M-209.70855755748505,11.194690733542359 L-210.5726149970941,12.541240302567132 M-210.5726149970941,12.541240302567132 L-211.4758644529128,13.852310567316124 M-211.4758644529128,13.852310567316124 L-211.46621267143735,13.868056633154822 M-211.46621267143735,13.868056633154822 L-211.46117158086338,13.888549621190634 M-211.46117158086338,13.888549621190634 L-211.4610348988042,13.912594864629057 M-211.4610348988042,13.912594864629057 L-211.46580864403586,13.938795702439961 M-211.46580864403586,13.938795702439961 L-211.4752168854593,13.965631485864094 M-211.4752168854593,13.965631485864094 L-211.48871202197256,13.991541172246457 M-211.48871202197256,13.991541172246457 L-211.50550967444815,14.015019285993901 M-211.50550967444815,14.015019285993901 L-211.52463512185727,14.034703146440222 M-211.52463512185727,14.034703146440222 L-211.54497544213632,14.04944655579402 M-211.54497544213632,14.04944655579402 L-211.56535040534732,14.058394960616567 M-211.56535040534732,14.058394960616567 L-211.58457540807728,14.061028677131333 M-211.58457540807728,14.061028677131333 L-211.60153274119364,14.057191005112202 M-211.60153274119364,14.057191005112202 L-211.6152370141292,14.047106947836767 M-211.6152370141292,14.047106947836767 L-212.5226131846414,15.364364404250182 M-212.5226131846414,15.364364404250182 L-213.39072672658233,16.717846439689254 M-213.39072672658233,16.717846439689254 L-214.21668052460313,18.103059641503705 M-214.21668052460313,18.103059641503705 L-214.99772409882712,19.51539713132081 M-214.99772409882712,19.51539713132081 L-215.731263592201,20.95015900844885 M-215.731263592201,20.95015900844885 L-216.41487342006712,22.402569466695297 M-216.41487342006712,22.402569466695297 L-217.0463037249873,23.867791807983906 M-217.0463037249873,23.867791807983906 L-217.6234902996132,25.340951172314476 M-217.6234902996132,25.340951172314476 L-218.1445605687179,26.817152151233813 M-218.1445605687179,26.817152151233813 L-218.60784099971067,28.29149658098811 M-218.60784099971067,28.29149658098811 L-219.01186317010342,29.759102170184292 M-219.01186317010342,29.759102170184292 L-219.35536734841526,31.215123511879654 M-219.35536734841526,31.215123511879654 L-219.637306979629,32.654766000640734 M-219.637306979629,32.654766000640734 L-219.85685147941342,34.07330929556542 M-219.85685147941342,34.07330929556542 L-220.0133878249619,35.466118232943984 M-220.0133878249619,35.466118232943984 L-220.1065214509539,36.82866524231082 M-220.1065214509539,36.82866524231082 L-220.1360761818121,38.15654253759925 M-220.1360761818121,38.15654253759925 L-220.14279261458205,41.80871925974361 M-220.1360761818121,38.15654253759925 L-223.3853682710685,36.28831793393039 M-223.3853682710685,36.28831793393039 L-223.38536862212618,39.936617544942806 M-223.3853682710685,36.28831793393039 L-223.35822650756995,34.961907858526104 M-223.35822650756995,34.961907858526104 L-223.2675020716008,33.600985407284725 M-223.2675020716008,33.600985407284725 L-223.11336346168082,32.20995309914372 M-223.11336346168082,32.20995309914372 L-222.89619753780892,30.79333264174562 M-222.89619753780892,30.79333264174562 L-222.61660960795462,29.35575275780053 M-222.61660960795462,29.35575275780053 L-222.27542256935305,27.901926800263823 M-222.27542256935305,27.901926800263823 L-221.87367533376232,26.43664186070555 M-221.87367533376232,26.43664186070555 L-221.41262007197224,24.9647353438462 M-221.41262007197224,24.9647353438462 L-220.89371774853407,23.491081081532002 M-220.89371774853407,23.491081081532002 L-220.31863457592056,22.02056835831803 M-220.31863457592056,22.02056835831803 L-219.6892359759472,20.558083323893186 M-219.6892359759472,20.558083323893186 L-219.0075791960178,19.108491241861543 M-219.0075791960178,19.108491241861543 L-218.27590735585704,17.676618915633867 M-218.27590735585704,17.676618915633867 L-217.4966395594397,16.267232010603493 M-217.4966395594397,16.267232010603493 L-216.67236346408663,14.885020079709534 M-216.67236346408663,14.885020079709534 L-215.8058236548825,13.53457949539245 M-215.8058236548825,13.53457949539245 L-214.89991168983215,12.220393055287502 M-214.89991168983215,12.220393055287502 L-214.88617403288458,12.230490427501195 M-214.88617403288458,12.230490427501195 L-214.8691913835396,12.234354103851388 M-214.8691913835396,12.234354103851388 L-214.84995060695678,12.231757571381763 M-214.84995060695678,12.231757571381763 L-214.82957032275567,12.222855363890915 M-214.82957032275567,12.222855363890915 L-214.80923544509847,12.208164479468962 M-214.80923544509847,12.208164479468962 L-214.79012589033414,12.1885364248011 M-214.79012589033414,12.1885364248011 L-214.77335365486488,12.165114149752299 M-214.77335365486488,12.165114149752299 L-214.75989198479647,12.139257095082371 M-214.75989198479647,12.139257095082371 L-214.7505233153155,12.112467678545897 M-214.7505233153155,12.112467678545897 L-214.74579294605473,12.08630424578962 M-214.74579294605473,12.08630424578962 L-214.74597428925063,12.062285277212425 M-214.74597428925063,12.062285277212425 L-214.75105873363543,12.04180590448874 M-214.75105873363543,12.04180590448874 L-214.76075003383153,12.026060000274015 M-206.18516538369454,-12.199144573159515 L-206.2294211673743,-10.828851868421452 M-206.2294211673743,-10.828851868421452 L-206.3363379547493,-9.4301570972317 M-206.3363379547493,-9.4301570972317 L-206.5054677736864,-8.007297354741183 M-206.5054677736864,-8.007297354741183 L-206.73618825738356,-6.564553275623439 M-206.73618825738356,-6.564553275623439 L-207.02770788118596,-5.10624936286905 M-207.02770788118596,-5.10624936286905 L-207.3790620369382,-3.6367378958163386 M-207.3790620369382,-3.6367378958163386 L-207.78912415495597,-2.1603931533434775 M-207.78912415495597,-2.1603931533434775 L-208.25660372562993,-0.681594467442153 M-208.25660372562993,-0.681594467442153 L-208.78005428189863,0.7952900093714561 M-208.78005428189863,0.7952900093714561 L-209.357876996277,2.2658956371952286 M-209.357876996277,2.2658956371952286 L-209.98832426458944,3.7258905226671004 M-209.98832426458944,3.7258905226671004 L-210.66950271590247,5.1709738023467935 M-210.66950271590247,5.1709738023467935 L-211.3993825128939,6.59689292234566 M-211.3993825128939,6.59689292234566 L-212.1757998438244,7.999451150983759 M-212.1757998438244,7.999451150983759 L-212.99646369134348,9.374520745367931 M-212.99646369134348,9.374520745367931 L-213.8589571163683,10.71804563584675 M-213.8589571163683,10.71804563584675 L-214.76075003383153,12.026060000274015 M-206.18516538369454,-12.199144573159515 L-255.52561931868422,14.909843474796105 M-255.13368060915798,36.740776370266246 L-255.52561931868422,14.909843474796105 M-255.13368060915798,36.740776370266246 L-258.5529439926556,38.6677211698908 M-258.12833753400037,59.9954799986603 L-258.5529439926556,38.6677211698908 M-258.5529439926556,38.6677211698908 L-255.27312175632198,40.60312888342753 M-211.6152370141292,14.047106947836767 L-214.89991168983215,12.220393055287502 M-211.4758644529128,13.852310567316124 L-214.76075003383153,12.026060000274015 M-202.86450843732405,-10.415285213391371 L-206.18516538369454,-12.199144573159515 M-252.20577716717435,16.812200823834928 L-255.52561931868422,14.909843474796105 M-251.85355282674414,38.66772078318132 L-255.13368060915798,36.740776370266246" stroke="black"  stroke-width="4"  fill="red"/>
<path d="M-213.15230246233455,35.88812403971684 L-213.13296863594655,32.54550695094099 M-213.13296863594655,32.54550695094099 L-213.0970459915784,32.5715346626252 M-213.0970459915784,32.5715346626252 L-213.0729883610262,32.601688284579325 M-213.0729883610262,32.601688284579325 L-213.0621938281572,32.634215479326826 M-213.0621938281572,32.634215479326826 L-213.06529195395365,32.667226717669564 M-213.06529195395365,32.667226717669564 L-213.08210380502192,32.69880295527366 M-213.08210380502192,32.69880295527366 L-213.11165407237513,32.727109080443824 M-213.11165407237513,32.727109080443824 L-213.1522255370594,32.750498879328745 M-213.1522255370594,32.750498879328745 L-213.20146080688346,32.76761240909809 M-213.20146080688346,32.76761240909809 L-213.25649713210078,32.77745397490918 M-213.25649713210078,32.77745397490918 L-213.31413558483155,32.7794513898715 M-213.31413558483155,32.7794513898715 L-213.37102412806394,32.77348822867174 M-213.37102412806394,32.77348822867174 L-213.42385607073447,32.759911816232034 M-213.42385607073447,32.759911816232034 L-213.4695589846674,32.73951120685456 M-213.4695589846674,32.73951120685456 L-213.50547728056608,32.71347359615487 M-213.50547728056608,32.71347359615487 L-213.5295230818483,32.68331227151731 M-213.5295230818483,32.68331227151731 L-213.540300852364,32.650781427673905 M-213.540300852364,32.650781427673905 L-213.53718487085916,32.61777142971516 M-213.53718487085916,32.61777142971516 L-213.5203581614935,32.58620103780203 M-213.5203581614935,32.58620103780203 L-213.49079943693903,32.55790402454511 M-213.49079943693903,32.55790402454511 L-213.45022785369554,32.53452451627521 M-213.45022785369554,32.53452451627521 L-213.40100083111383,32.51742009848056 M-213.40100083111383,32.51742009848056 L-213.34597922949683,32.50758437838334 M-213.34597922949683,32.50758437838334 L-213.28835860389313,32.50558820383395 M-213.28835860389313,32.50558820383395 L-213.23148690709843,32.511547715842084 M-213.23148690709843,32.511547715842084 L-213.1786669711828,32.52511642572915 M-213.1786669711828,32.52511642572915 L-213.13296863594655,32.54550695094099 M-213.15230246233455,35.88812403971684 L-213.19791417415252,35.86769423475209 M-213.19791417415252,35.86769423475209 L-213.25063421066488,35.8540993854769 M-213.25063421066488,35.8540993854769 L-213.3073985361624,35.848128392538854 M-213.3073985361624,35.848128392538854 L-213.364910551477,35.85012841271225 M-213.364910551477,35.85012841271225 L-213.4198286115669,35.859983081041605 M-213.4198286115669,35.859983081041605 L-213.46896317252776,35.877120449010874 M-213.46896317252776,35.877120449010874 L-213.50945874620538,35.900544993828646 M-213.50945874620538,35.900544993828646 L-213.5389623298363,35.92889651319285 M-213.5389623298363,35.92889651319285 L-213.55575797535016,35.9605277123614 M-213.55575797535016,35.9605277123614 L-213.55886877932335,35.99360128577689 M-213.55886877932335,35.99360128577689 L-213.54811202501003,36.02619477764944 M-213.54811202501003,36.02619477764944 L-213.52411221619536,36.05641418300456 M-213.52411221619536,36.05641418300456 L-213.48826222160892,36.0825019303561 M-213.48826222160892,36.0825019303561 L-213.4426459482604,36.10294182002741 M-213.4426459482604,36.10294182002741 L-213.3899139504058,36.116544372135024 M-213.3899139504058,36.116544372135024 L-213.33313284203336,36.122519014397085 M-213.33313284203336,36.122519014397085 L-213.27560306674377,36.12051775376585 M-213.27560306674377,36.12051775376585 L-213.22067033841108,36.11065723951032 M-213.22067033841108,36.11065723951032 L-213.1715275610893,36.09351075923553 M-213.1715275610893,36.09351075923553 L-213.1310321053012,36.070075923429044 M-213.1310321053012,36.070075923429044 L-213.10153694680457,36.04171529182065 M-213.10153694680457,36.04171529182065 L-213.08475610347,36.01007824674883 M-213.08475610347,36.01007824674883 L-213.08166308789146,35.97700343290438 M-213.08166308789146,35.97700343290438 L-213.0924365414703,35.94441359026018 M-213.0924365414703,35.94441359026018 L-213.11644813514465,35.91420188786822 M-213.11644813514465,35.91420188786822 L-213.15230246233455,35.88812403971684 M-212.8806237646129,32.40006018105356 L-212.79081035853153,32.465111244228694 M-212.79081035853153,32.465111244228694 L-212.73064355307042,32.54048044544908 M-212.73064355307042,32.54048044544908 L-212.70362603726494,32.62179182270802 M-212.70362603726494,32.62179182270802 L-212.7113377933333,32.70432192080233 M-212.7113377933333,32.70432192080233 L-212.753339710536,32.783273755909136 M-212.753339710536,32.783273755909136 L-212.82719878709156,32.85405583711065 M-212.82719878709156,32.85405583711065 L-212.92862721997938,32.91254964043253 M-212.92862721997938,32.91254964043253 L-213.05173030037713,32.95535014519402 M-213.05173030037713,32.95535014519402 L-213.18934921669063,32.979965121548844 M-213.18934921669063,32.979965121548844 L-213.33347822726796,32.984960940332144 M-213.33347822726796,32.984960940332144 L-213.47573159123374,32.97004632847597 M-213.47573159123374,32.97004632847597 L-213.60783324533418,32.93609052033685 M-213.60783324533418,32.93609052033685 L-213.72209969067205,32.8850708521104 M-213.72209969067205,32.8850708521104 L-213.81188677157218,32.81995743394464 M-213.81188677157218,32.81995743394464 L-213.87197980743133,32.744539998813536 M-213.87197980743133,32.744539998813536 L-213.89889239566878,32.66320590727338 M-213.89889239566878,32.66320590727338 L-213.8910691232477,32.58068351538793 M-213.8910691232477,32.58068351538793 L-213.8489743414815,32.5017682160626 M-213.8489743414815,32.5017682160626 L-213.77506240757793,32.43104308412967 M-213.77506240757793,32.43104308412967 L-213.6736332336884,32.37261359717269 M-213.6736332336884,32.37261359717269 L-213.55058169839606,32.32987004167694 M-213.55058169839606,32.32987004167694 L-213.4130548047891,32.30529160114344 M-213.4130548047891,32.30529160114344 L-213.26903713194747,32.30030358108178 M-213.26903713194747,32.30030358108178 L-213.12688922108362,32.31519529327704 M-213.12688922108362,32.31519529327704 L-212.99486244586433,32.34910305248957 M-212.99486244586433,32.34910305248957 L-212.8806237646129,32.40006018105356 M-212.87829552835,32.00716952174389 L-212.78846204205024,32.072205789525924 M-212.78846204205024,32.072205789525924 L-212.72828169720276,32.14755785124743 M-212.72828169720276,32.14755785124743 L-212.70125797242326,32.22885074093995 M-212.70125797242326,32.22885074093995 L-212.70897121492953,32.31136207779434 M-212.70897121492953,32.31136207779434 L-212.75098223172358,32.39029596832199 M-212.75098223172358,32.39029596832199 L-212.82485749573266,32.46106196449176 M-212.82485749573266,32.46106196449176 L-212.92630826522168,32.5195424771739 M-212.92630826522168,32.5195424771739 L-213.04943853326427,32.56233325813821 M-213.04943853326427,32.56233325813821 L-213.18708790625476,32.58694264266535 M-213.18708790625476,32.58694264266535 L-213.33124886903602,32.591937326577124 M-213.33124886903602,32.591937326577124 L-213.47353381957055,32.57702610282536 M-213.47353381957055,32.57702610282536 L-213.60566485494883,32.543078008738235 M-213.60566485494883,32.543078008738235 L-213.71995676592587,32.49206993221492 M-213.71995676592587,32.49206993221492 L-213.8097639155659,32.426971309776604 M-213.8097639155659,32.426971309776604 L-213.86987045818637,32.35157101443946 M-213.86987045818637,32.35157101443946 L-213.89678920896324,32.27025541057441 M-213.89678920896324,32.27025541057441 L-213.8889644006158,32.18775177989539 M-213.8889644006158,32.18775177989539 L-213.84686047798516,32.10885442494123 M-213.84686047798516,32.10885442494123 L-213.77293233304363,32.038145377715864 M-213.77293233304363,32.038145377715864 L-213.67148082205995,31.979729181032496 M-213.67148082205995,31.979729181032496 L-213.54840212183444,31.93699534900975 M-213.54840212183444,31.93699534900975 L-213.41084481226335,31.912422500096 M-213.41084481226335,31.912422500096 L-213.2667952365873,31.907435614851238 M-213.2667952365873,31.907435614851238 L-213.1246157859391,31.922323939092962 M-213.1246157859391,31.922323939092962 L-212.99255966280498,31.95622398450655 M-212.99255966280498,31.95622398450655 L-212.87829552835,32.00716952174389 M-212.87829552835,32.00716952174389 L-212.8806237646129,32.40006018105356" stroke="black"  stroke-width="4"  fill="red"/>
<path d="M-255.13368060915798,36.740776370266246 L-258.5529439926556,38.6677211698908 M-258.5529439926556,38.6677211698908 L-258.98805745247114,16.812201205620568 M-255.52561931868422,14.909843474796105 L-258.98805745247114,16.812201205620568 M-255.13368060915798,36.740776370266246 L-255.52561931868422,14.909843474796105 M-254.88728016477876,61.953739080196556 L-186.278123002406,103.40765049986209 M-186.278123002406,103.40765049986209 L-186.19373904365784,99.53790617175105 M-186.19373904365784,99.53790617175105 L-108.46063667227747,146.30990699012705 M-108.73430158373696,150.25991974760012 L-108.46063667227747,146.30990699012705 M-108.73430158373696,150.25991974760012 L303.32291641704364,399.22644435324105 M303.32291641704364,399.22644435324105 L304.896316993925,395.0267494337553 M304.896316993925,395.0267494337553 L441.15374236606783,477.0128302229622 M439.04383023389516,481.22953216037956 L441.15374236606783,477.0128302229622 M439.04383023389516,481.22953216037956 L975.99493177339,805.6574120603143 M975.99493177339,805.6574120603143 L1003.0349448534404,783.1248153161625 M1003.0349448534404,783.1248153161625 L1014.2168056054089,789.7231788833433 M1014.2168056054089,789.7231788833433 L1042.8806201141015,766.2060921670238 M-258.98805745247114,16.812201205620568 L1042.8806201141015,766.2060921670238 M-258.5529439926556,38.6677211698908 L-255.27312175632198,40.60312888342753 M-254.88728016477876,61.953739080196556 L-255.27312175632198,40.60312888342753 M1015.3934077104324,783.1248311076276 L1004.2518272192091,776.5795963781418 M977.29156002622,799.1672113055827 L1004.2518272192091,776.5795963781418 M977.29156002622,799.1672113055827 L441.78548171243335,477.0395206979024 M441.78548171243335,477.0395206979024 L443.89739961560747,472.8229035054203 M443.89739961560747,472.8229035054203 L307.8758482523905,391.34053538540377 M306.2982721836114,395.5387055254099 L307.8758482523905,391.34053538540377 M306.2982721836114,395.5387055254099 L-105.37513654388545,147.90117196920875 M-105.37513654388545,147.90117196920875 L-105.0941242856735,143.9549484131971 M-105.0941242856735,143.9549484131971 L-182.80971427505438,97.40019110661757 M-182.9015677955199,101.26601455179735 L-182.80971427505438,97.40019110661757 M-182.9015677955199,101.26601455179735 L-251.50983390362182,59.995479607374364 M-251.50983390362182,59.995479607374364 L-251.85355282674414,38.66772078318132 M-251.85355282674414,38.66772078318132 L-255.13368060915798,36.740776370266246 M1043.965823714837,759.5528065577255 L-255.52561931868422,14.909843474796105 M1015.3934077104324,783.1248311076276 L1043.965823714837,759.5528065577255 M-254.88728016477876,61.953739080196556 L-251.50983390362182,59.995479607374364 M-255.27312175632198,40.60312888342753 L-251.85355282674414,38.66772078318132 M-182.9015677955199,101.26601455179735 L-186.278123002406,103.40765049986209 M-182.80971427505438,97.40019110661757 L-186.19373904365784,99.53790617175105 M-108.73430158373696,150.25991974760012 L-105.37513654388545,147.90117196920875 M-108.46063667227747,146.30990699012705 L-105.0941242856735,143.9549484131971 M306.2982721836114,395.5387055254099 L303.32291641704364,399.22644435324105 M307.8758482523905,391.34053538540377 L304.896316993925,395.0267494337553 M439.04383023389516,481.22953216037956 L441.78548171243335,477.0395206979024 M441.15374236606783,477.0128302229622 L443.89739961560747,472.8229035054203 M977.29156002622,799.1672113055827 L975.99493177339,805.6574120603143 M1004.2518272192091,776.5795963781418 L1003.0349448534404,783.1248153161625 M1014.2168056054089,789.7231788833433 L1015.3934077104324,783.1248311076276 M1042.8806201141015,766.2060921670238 L1043.965823714837,759.5528065577255" stroke="black"  stroke-width="4"  fill="red"/></svg>