<svg viewBox="0 0 800 800" xmlns="http://www.w3.org/2000/svg"><path d="M610.331925637827,93.96143569338363 L574.5503170625018,74.42553485823834 M702.3941346394226,42.90570678387678 L666.6163259341422,23.588555057570773 M610.331925637827,93.96143569338363 L610.6511232138971,100.6671450073336 M610.6511232138971,100.6671450073336 L611.6944786195293,106.85703605754873 M611.6944786195293,106.85703605754873 L613.444556456097,112.4335547109082 M613.444556456097,112.4335547109082 L615.8726823448385,117.30910947377265 M615.8726823448385,117.30910947377265 L618.9394743540292,121.40759949497419 M618.9394743540292,121.40759949497419 L622.5955540189314,124.6653469805546 M622.5955540189314,124.6653469805546 L626.7823625697154,127.03224598346509 M626.7823625697154,127.03224598346509 L631.4331527512011,128.47235493270762 M631.4331527512011,128.47235493270762 L636.4740859354142,128.96431079102638 M636.4740859354142,128.96431079102638 L641.8254219251155,128.50180985849653 M641.8254219251155,128.50180985849653 L647.4028119762218,127.09338834497646 M647.4028119762218,127.09338834497646 L653.1185756476493,124.7623429715477 M653.1185756476493,124.7623429715477 L658.8831201571052,121.54620945504803 M658.8831201571052,121.54620945504803 L664.606312019215,117.49617778619222 M664.606312019215,117.49617778619222 L670.1987775021862,112.67629644443923 M670.1987775021862,112.67629644443923 L675.5733879567501,107.16232734314758 M675.5733879567501,107.16232734314758 L680.6464289215751,101.04070051201597 M680.6464289215751,101.04070051201597 L685.3389509891783,94.40702637790025 M685.3389509891783,94.40702637790025 L689.577924743676,87.36487529630233 M689.577924743676,87.36487529630233 L693.2973110689186,80.02399592482891 M693.2973110689186,80.02399592482891 L696.4390437911745,72.49873594755366 M696.4390437911745,72.49873594755366 L698.9539868023219,64.90639381348535 M698.9539868023219,64.90639381348535 L700.802565212708,57.365330326531534 M700.802565212708,57.365330326531534 L701.9554695260547,49.99334441791564 M701.9554695260547,49.99334441791564 L702.3941346394226,42.90570678387678 M574.5503170625018,74.42553485823834 L574.882265761468,81.12416482595592 M574.882265761468,81.12416482595592 L575.9381838095856,87.308843297728 M575.9381838095856,87.308843297728 L577.7004389092558,92.8820964446503 M577.7004389092558,92.8820964446503 L580.140166455649,97.75638111474461 M580.140166455649,97.75638111474461 L583.2178041729896,101.85561210446838 M583.2178041729896,101.85561210446838 L586.8838054321768,105.1160948909411 M586.8838054321768,105.1160948909411 L591.0794583016577,107.48767472757362 M591.0794583016577,107.48767472757362 L595.7378793704277,108.93433045493293 M595.7378793704277,108.93433045493293 L600.7851126787809,109.43459034948546 M600.7851126787809,109.43459034948546 L606.1413216034173,108.98201471472629 M606.1413216034173,108.98201471472629 L611.7220828194238,107.58497920528839 M611.7220828194238,107.58497920528839 L617.4396643792134,105.2665979714929 M617.4396643792134,105.2665979714929 L623.204445676839,102.06420540028546 M623.204445676839,102.06420540028546 L628.926289569237,98.02877459089956 M628.926289569237,98.02877459089956 L634.5158428840773,93.22412482594609 M634.5158428840773,93.22412482594609 L639.8860213791536,87.72578043145404 M639.8860213791536,87.72578043145404 L644.9531783405903,81.61992864767137 M644.9531783405903,81.61992864767137 L649.6384543234453,75.00193585791806 M649.6384543234453,75.00193585791806 L653.8689312456027,67.97513037315503 M653.8689312456027,67.97513037315503 L657.5787007024517,60.64902450001762 M657.5787007024517,60.64902450001762 L660.7098448726802,53.137738549089704 M660.7098448726802,53.137738549089704 L663.2133917161289,45.5583558732057 M663.2133917161289,45.5583558732057 L665.0499433611456,38.029037456377296 M665.0499433611456,38.029037456377296 L666.1903780418006,30.667400527268683 M666.1903780418006,30.667400527268683 L666.6163259341422,23.588555057570773 M610.3690388702942,93.94085348971566 L610.331925637827,93.96143569338363 M574.587431378386,74.40504108697525 L574.5503170625018,74.42553485823834 M574.587431378386,74.40504108697525 L610.3690388702942,93.94085348971566 M702.3941346394226,42.90570678387678 L702.3574372522535,42.92605836865084 M666.5796265888719,23.60881969049109 L702.3574372522535,42.92605836865084 M666.6163259341422,23.588555057570773 L666.5796265888719,23.60881969049109 M702.3574372522535,42.92605836865084 L702.3861087615737,42.18138721508018 M702.3861087615737,42.18138721508018 L702.406634106794,41.440946581542676 M702.406634106794,41.440946581542676 L702.4190116619855,40.704802969968625 M702.4190116619855,40.704802969968625 L610.3465266407256,91.75386741100539 M610.3465266407256,91.75386741100539 L610.3457867326113,92.4876805663987 M610.3457867326113,92.4876805663987 L610.3532839119739,93.21670247629879 M610.3532839119739,93.21670247629879 L610.3690388702942,93.94085348971566 M666.5796265888719,23.60881969049109 L666.6069430066882,22.865042559862843 M666.6069430066882,22.865042559862843 L666.6261122881899,22.125477089244328 M666.6261122881899,22.125477089244328 L666.6371329313356,21.390189703778447 M666.6371329313356,21.390189703778447 L574.5608467553495,72.22050899095598 M574.5608467553495,72.22050899095598 L574.5614645260921,72.95348410859913 M574.5614645260921,72.95348410859913 L574.5703192111218,73.6816879815562 M574.5703192111218,73.6816879815562 L574.587431378386,74.40504108697525 M610.3465266407256,91.75386741100539 L594.3116135051112,83.00132431232561 M594.3116135051112,83.00132431232561 L590.5576597200486,80.952255382776 M590.5576597200486,80.952255382776 L574.5608467553495,72.22050899095598 M702.4190116619855,40.704802969968625 L666.6371329313356,21.390189703778447 M594.3116135051112,83.00132431232561 L594.6503084099118,82.7466764446362 M594.6503084099118,82.7466764446362 L594.8799191626304,82.45735789205963 M594.8799191626304,82.45735789205963 L594.9895289790024,82.14714812043997 M594.9895289790024,82.14714812043997 L594.9739230949788,81.83081970337992 M594.9739230949788,81.83081970337992 L594.8338724269688,81.52342378373413 M594.8338724269688,81.52342378373413 L594.5760347089399,81.23960073971779 M594.5760347089399,81.23960073971779 L594.2127095549183,80.9928505298654 M594.2127095549183,80.9928505298654 L593.7611883209167,80.79491608127364 M593.7611883209167,80.79491608127364 L593.2429705100487,80.6552100358067 M593.2429705100487,80.6552100358067 L592.6827039716206,80.58038523699497 M592.6827039716206,80.58038523699497 L592.1070686672454,80.57398997888845 M592.1070686672454,80.57398997888845 L591.5434397449023,80.63633582065768 M591.5434397449023,80.63633582065768 L591.0186463669917,80.76445561823857 M591.0186463669917,80.76445561823857 L590.5576597200486,80.952255382776 M590.5576597200486,80.952255382776 L590.1397362281787,81.22598416447192 M590.1397362281787,81.22598416447192 L589.8574708534159,81.54815466946383 M589.8574708534159,81.54815466946383 L589.7281393598853,81.89907439159435 M589.7281393598853,81.89907439159435 L589.7596540346138,82.25730293601111 M589.7596540346138,82.25730293601111 L589.9501183344701,82.60093367658055 M589.9501183344701,82.60093367658055 L590.2878998874767,82.90895817107099 M590.2878998874767,82.90895817107099 L590.7523564002887,83.16253725293825 M590.7523564002887,83.16253725293825 L591.3150944150705,83.34615880769951 M591.3150944150705,83.34615880769951 L591.9417088831294,83.44859059355144 M591.9417088831294,83.44859059355144 L592.5938799310564,83.46355983351333 M592.5938799310564,83.46355983351333 L593.2317104431984,83.3901579146966 M593.2317104431984,83.3901579146966 L593.8162059397014,83.23286999164151 M593.8162059397014,83.23286999164151 L594.3116135051112,83.00132431232561 M594.2127095549183,80.9928505298654 L594.4307219130758,43.300785890260045 M594.4307219130758,43.300785890260045 L594.8272203454371,43.57530198607748 M594.8272203454371,43.57530198607748 L595.0927943887473,43.89333479228128 M595.0927943887473,43.89333479228128 L595.2120102434487,44.23640240884606 M595.2120102434487,44.23640240884606 L595.1779146536603,44.58457585201006 M595.1779146536603,44.58457585201006 L594.9924764190362,44.917614709427596 M594.9924764190362,44.917614709427596 L594.6664530859234,45.216163694232364 M594.6664530859234,45.216163694232364 L594.2187902757798,45.46285976033158 M594.2187902757798,45.46285976033158 L593.6754992902315,45.6433591635884 M593.6754992902315,45.6433591635884 L593.0681695654185,45.7471599560389 M593.0681695654185,45.7471599560389 L592.4321017990052,45.7682270627588 M592.4321017990052,45.7682270627588 L591.8042876822603,45.70533249988017 M591.8042876822603,45.70533249988017 L591.2212197511687,45.56213963947653 M591.2212197511687,45.56213963947653 L590.7168064191595,45.34697093085714 M590.7168064191595,45.34697093085714 L590.3203569559769,45.07234812574359 M590.3203569559769,45.07234812574359 L590.054916286286,44.75423230283161 M590.054916286286,44.75423230283161 L589.9358894457625,44.411125357645005 M589.9358894457625,44.411125357645005 L589.9701863930834,44.062965282886125 M589.9701863930834,44.062965282886125 L590.1557921973244,43.72998942818981 M590.1557921973244,43.72998942818981 L590.4819109258906,43.43153864825632 M590.4819109258906,43.43153864825632 L590.9295751022141,43.18495349064642 M590.9295751022141,43.18495349064642 L591.4727731117073,43.00455229292197 M591.4727731117073,43.00455229292197 L592.0799368190476,42.900814503439676 M592.0799368190476,42.900814503439676 L592.7158035572731,42.87976076543623 M592.7158035572731,42.87976076543623 L593.3434276909186,42.94261599866172 M593.3434276909186,42.94261599866172 L593.9263602031992,43.08572584376799 M593.9263602031992,43.08572584376799 L594.4307219130758,43.300785890260045 M591.772170773655,60.68483668245773 L591.7394368511654,60.9175587852539 M591.7394368511654,60.9175587852539 L591.6478012160092,61.149471703480344 M591.6478012160092,61.149471703480344 L591.5073953832189,61.37294421629656 M591.5073953832189,61.37294421629656 L591.3306140712752,61.58328876226324 M591.3306140712752,61.58328876226324 L591.1304086954399,61.776313309305124 M591.1304086954399,61.776313309305124 L590.9195810163328,61.94751862017665 M590.9195810163328,61.94751862017665 L590.7107610225537,62.0914519292333 M590.7107610225537,62.0914519292333 L590.5804861447616,62.168317757977206 M590.5804861447616,62.168317757977206 L590.4428493323435,62.236559423369215 M590.4428493323435,62.236559423369215 L590.3201601362101,62.282180078458055 M590.3201601362101,62.282180078458055 L590.2266273159,62.30241733461969 M590.2266273159,62.30241733461969 L590.1346798843811,62.301829397096526 M590.1346798843811,62.301829397096526 L590.0531499465974,62.26897014597944 M590.0531499465974,62.26897014597944 L589.9932031166134,62.20124226125142 M589.9932031166134,62.20124226125142 L589.9523783946976,62.09805110301318 M589.9523783946976,62.09805110301318 L589.9322163767763,61.99436803122592 M589.9322163767763,61.99436803122592 L589.9208385984364,61.87388740277822 M589.9208385984364,61.87388740277822 L589.9168520549865,61.735788865258314 M589.9168520549865,61.735788865258314 L589.9195214553051,61.59206976346019 M589.9195214553051,61.59206976346019 L589.9318392648822,61.39727882702658 M589.9318392648822,61.39727882702658 L589.9588407073829,61.16619244783817 M589.9588407073829,61.16619244783817 L590.001943033024,60.93152356244451 M590.001943033024,60.93152356244451 L590.063829271262,60.70192639660644 M590.063829271262,60.70192639660644 L590.1468488565682,60.48578757313038 M590.1468488565682,60.48578757313038 L590.2525538220664,60.29111920389795 M590.2525538220664,60.29111920389795 L590.38111808956,60.12560226792215 M590.38111808956,60.12560226792215 L590.5306493351749,59.996281805241324 M590.5306493351749,59.996281805241324 L590.6567943923073,59.92518733301097 M590.6567943923073,59.92518733301097 L590.7875814453937,59.88059411691273 M590.7875814453937,59.88059411691273 L590.9225087005,59.86142742094512 M590.9225087005,59.86142742094512 L591.0582925746078,59.867426397084955 M591.0582925746078,59.867426397084955 L591.2348201550349,59.91283802138946 M591.2348201550349,59.91283802138946 L591.4180945916823,60.01079981996702 M591.4180945916823,60.01079981996702 L591.5740488707804,60.15206120504945 M591.5740488707804,60.15206120504945 L591.6594851400057,60.27050013786152 M591.6594851400057,60.27050013786152 L591.722912083661,60.403073065783815 M591.722912083661,60.403073065783815 L591.7590004806066,60.534406746510626 M591.7590004806066,60.534406746510626 L591.7690831408968,60.60884417341566 M591.7690831408968,60.60884417341566 L591.772170773655,60.68483668245773 M595.0291902450251,62.458555714137844 L595.0220822075546,62.24778876581462 M595.0220822075546,62.24778876581462 L595.0089982804716,62.14037135411667 M595.0089982804716,62.14037135411667 L594.9825728206827,62.031927076687225 M594.9825728206827,62.031927076687225 L594.9431366557408,61.95026228488257 M594.9431366557408,61.95026228488257 L594.8888879473266,61.89531065587613 M594.8888879473266,61.89531065587613 L594.8182327916772,61.866617834453166 M594.8182327916772,61.866617834453166 L594.7300839188254,61.86368155657027 M594.7300839188254,61.86368155657027 L594.6241157253212,61.88571088664662 M594.6241157253212,61.88571088664662 L594.5011239487853,61.93180271149981 M594.5011239487853,61.93180271149981 L594.3810152043895,61.99081929280425 M594.3810152043895,61.99081929280425 L594.2291449375095,62.07999676837824 M594.2291449375095,62.07999676837824 L594.0489222933163,62.20345877382363 M594.0489222933163,62.20345877382363 L593.9096974397498,62.31152397706893 M593.9096974397498,62.31152397706893 L593.7305417461057,62.46913994688373 M593.7305417461057,62.46913994688373 L593.5435966335035,62.66397688254756 M593.5435966335035,62.66397688254756 L593.3834739571248,62.87366802990812 M593.3834739571248,62.87366802990812 L593.2925770451336,63.029482098047424 M593.2925770451336,63.029482098047424 L593.2252112482167,63.18923888855272 M593.2252112482167,63.18923888855272 L593.1863759157714,63.34204771764189 M593.1863759157714,63.34204771764189 L593.1739278358878,63.48006241746464 M593.1739278358878,63.48006241746464 L593.1888609576761,63.64282167270551 M593.1888609576761,63.64282167270551 L593.2435970620791,63.814685029235136 M593.2435970620791,63.814685029235136 L593.3341706289636,63.96850644744279 M593.3341706289636,63.96850644744279 L593.4544286487551,64.09891464557575 M593.4544286487551,64.09891464557575 L593.597630699328,64.20111276434517 M593.597630699328,64.20111276434517 L593.7568944277427,64.27082134164783 M593.7568944277427,64.27082134164783 L593.9253773693215,64.30437390930899 M593.9253773693215,64.30437390930899 L594.0963941542961,64.29907419448784 M594.0963941542961,64.29907419448784 L594.2632072520264,64.25350619828089 M594.2632072520264,64.25350619828089 L594.3910453150281,64.18740358200773 M594.3910453150281,64.18740358200773 L594.5009899435845,64.10411638606172 M594.5009899435845,64.10411638606172 L594.6321368431595,63.963003669592695 M594.6321368431595,63.963003669592695 L594.7238588863147,63.82700391490505 M594.7238588863147,63.82700391490505 L594.8050734201358,63.66849065893837 M594.8050734201358,63.66849065893837 L594.8910902803032,63.437058535352094 M594.8910902803032,63.437058535352094 L594.9598368801117,63.16039396981455 M594.9598368801117,63.16039396981455 L594.9913703557243,62.971767068146164 M594.9913703557243,62.971767068146164 L595.0127364325308,62.78612423151611 M595.0127364325308,62.78612423151611 L595.0242033175568,62.626392615193026 M595.0242033175568,62.626392615193026 L595.0277164003348,62.54062931153277 M595.0277164003348,62.54062931153277 L595.0291902450251,62.458555714137844 M597.2150548189252,41.76675520234437 L598.2063777248095,42.452849001066056 M598.2063777248095,42.452849001066056 L598.8705689626795,43.247771026333 M598.8705689626795,43.247771026333 L599.1689602863523,44.10536877874432 M599.1689602863523,44.10536877874432 L599.0840997288328,44.97582404074035 M599.0840997288328,44.97582404074035 L598.620816698176,45.80854227339819 M598.620816698176,45.80854227339819 L597.8059453429346,46.55509553412412 M597.8059453429346,46.55509553412412 L596.686790954383,47.172043776206806 M596.686790954383,47.172043776206806 L595.3283953128107,47.62347215772496 M595.3283953128107,47.62347215772496 L593.8097542326723,47.88309333987297 M593.8097542326723,47.88309333987297 L592.2192139175893,47.93578570563551 M592.2192139175893,47.93578570563551 L590.6493177779296,47.77847695954682 M590.6493177779296,47.77847695954682 L589.1914019280407,47.4203356190996 M589.1914019280407,47.4203356190996 L587.9302654590078,46.88221814825209 M587.9302654590078,46.88221814825209 L586.9392391988116,46.19545228889808 M586.9392391988116,46.19545228889808 L586.275879743134,45.40001043749021 M586.275879743134,45.40001043749021 L585.9786715556395,44.5421678575313 M585.9786715556395,44.5421678575313 L586.0647896945165,43.67179566090107 M586.0647896945165,43.67179566090107 L586.5291200375782,42.83947119754504 M586.5291200375782,42.83947119754504 L587.3445876126038,42.09353171522764 M587.3445876126038,42.09353171522764 L588.4637505398664,41.47727665142918 M588.4637505398664,41.47727665142918 L589.8215650828863,41.0264620482929 M589.8215650828863,41.0264620482929 L591.3391685515039,40.76723463588138 M591.3391685515039,40.76723463588138 L592.9284533434659,40.71462631122904 M592.9284533434659,40.71462631122904 L594.4971602911123,40.8716882744626 M594.4971602911123,40.8716882744626 L595.9542315763656,41.22931173980578 M595.9542315763656,41.22931173980578 L597.2150548189252,41.76675520234437 M591.772170773655,60.68483668245773 L575.5086013079472,51.82796525815388 M575.5086013079472,51.82796525815388 L575.4829201579208,51.57839606472231 M575.4829201579208,51.57839606472231 L575.404823480984,51.373024824979325 M575.404823480984,51.373024824979325 L575.2788528529913,51.22374321116058 M575.2788528529913,51.22374321116058 L575.1123110319825,51.13930997501518 M575.1123110319825,51.13930997501518 L574.9148923776931,51.12457880089761 M574.9148923776931,51.12457880089761 L574.6980554639941,51.18043946476638 M574.6980554639941,51.18043946476638 L574.474410091304,51.30361631761588 M574.474410091304,51.30361631761588 L574.2569532935196,51.48695354882648 M574.2569532935196,51.48695354882648 L574.058332632411,51.719820210298735 M574.058332632411,51.719820210298735 L573.8900802986334,51.98866627884178 M573.8900802986334,51.98866627884178 L573.761993891887,52.27790204005862 M573.761993891887,52.27790204005862 L573.6815038475679,52.57065074929079 M573.6815038475679,52.57065074929079 L573.6532932952928,52.8499343336739 M573.6532932952928,52.8499343336739 L573.679004867287,53.09947494568644 M573.679004867287,53.09947494568644 L573.7571367912828,53.30486294574348 M573.7571367912828,53.30486294574348 L573.8831400206631,53.45407567155098 M573.8831400206631,53.45407567155098 L574.049703883301,53.538463585373506 M574.049703883301,53.538463585373506 L574.2471291319291,53.553149666516674 M574.2471291319291,53.553149666516674 L574.463955520838,53.497288186371634 M574.463955520838,53.497288186371634 L574.6875759454331,53.37409526986704 M574.6875759454331,53.37409526986704 L574.9049990869303,53.19073040748725 M574.9049990869303,53.19073040748725 L575.1035848101035,52.95789058902881 M575.1035848101035,52.95789058902881 L575.2718090856692,52.68908596883398 M575.2718090856692,52.68908596883398 L575.3998805867518,52.39993048960463 M575.3998805867518,52.39993048960463 L575.4803727338192,52.1071890689646 M575.4803727338192,52.1071890689646 L575.5086013079472,51.82796525815388 M611.3310416579707,71.33627485488375 L595.0291902450251,62.458555714137844 M611.3310416579707,71.33627485488375 L611.3023257200025,71.61586885722375 M611.3023257200025,71.61586885722375 L611.2213760273471,71.90908726924499 M611.2213760273471,71.90908726924499 L611.0929035510705,72.19879871127245 M611.0929035510705,72.19879871127245 L610.9243581148826,72.46820603819145 M610.9243581148826,72.46820603819145 L610.725549674874,72.70166027128391 M610.725549674874,72.70166027128391 L610.5080151751843,72.88561560828896 M610.5080151751843,72.88561560828896 L610.2844012870025,73.0093406902837 M610.2844012870025,73.0093406902837 L610.0676989495016,73.06564510452864 M610.0676989495016,73.06564510452864 L609.870507993553,73.0512870024873 M609.870507993553,73.0512870024873 L609.7042750782957,72.9670930579486 M609.7042750782957,72.9670930579486 L609.5786802520529,72.81792894560067 M609.5786802520529,72.81792894560067 L609.5010105118383,72.61244136723076 M609.5010105118383,72.61244136723076 L609.4757878819582,72.36265885375349 M609.4757878819582,72.36265885375349 L609.5044858885574,72.08300498440343 M609.5044858885574,72.08300498440343 L609.5854334901428,71.78977919051079 M609.5854334901428,71.78977919051079 L609.7139210370485,71.4999872475529 M609.7139210370485,71.4999872475529 L609.882494639394,71.23053828600325 M609.882494639394,71.23053828600325 L610.0813381057969,70.99705705990846 M610.0813381057969,70.99705705990846 L610.2989062482243,70.81312931377045 M610.2989062482243,70.81312931377045 L610.5225450822984,70.6894203049265 M610.5225450822984,70.6894203049265 L610.7392579542375,70.63311676407608 M610.7392579542375,70.63311676407608 L610.9364422248859,70.6475201198682 M610.9364422248859,70.6475201198682 L611.1026529900369,70.7317595753027 M611.1026529900369,70.7317595753027 L611.2282150514895,70.88099278786933 M611.2282150514895,70.88099278786933 L611.3058495362648,71.08646368498785 M611.3058495362648,71.08646368498785 L611.3310416579707,71.33627485488375 M597.2150548189252,41.76675520234437 L597.3332947038157,21.813734510529116 M597.3332947038157,21.813734510529116 L598.3256377817995,22.499010882106973 M598.3256377817995,22.499010882106973 L598.9905170820043,23.292985952695688 M598.9905170820043,23.292985952695688 L599.289224229288,24.149562247520805 M599.289224229288,24.149562247520805 L599.2042886865822,25.01898090742236 M599.2042886865822,25.01898090742236 L598.7405440053694,25.850707637986773 M598.7405440053694,25.850707637986773 L597.9248509796619,26.59637212463315 M597.9248509796619,26.59637212463315 L596.8045625472175,27.21258598271595 M596.8045625472175,27.21258598271595 L595.4447863938187,27.66347706110946 M595.4447863938187,27.66347706110946 L593.9245986661429,27.922789255435134 M593.9245986661429,27.922789255435134 L592.3324356337098,27.975418911301233 M592.3324356337098,27.975418911301233 L590.7609352322095,27.8182973823329 M590.7609352322095,27.8182973823329 L589.30152701547,27.460582295782615 M589.30152701547,27.460582295782615 L588.0390969517373,26.923105337843594 M588.0390969517373,26.923105337843594 L587.0470511147557,26.2371570201621 M587.0470511147557,26.2371570201621 L586.3830052901365,25.442662213781546 M586.3830052901365,25.442662213781546 L586.0854836895203,24.58584113249924 M586.0854836895203,24.58584113249924 L586.171679382933,23.71650552418214 M586.171679382933,23.71650552418214 L586.6364735196265,22.885172495233178 M586.6364735196265,22.885172495233178 L587.4527639900471,22.140121681490427 M587.4527639900471,22.140121681490427 L588.5730609873639,21.52460088253872 M588.5730609873639,21.52460088253872 L589.932254863611,21.074323477022574 M589.932254863611,21.074323477022574 L591.4514028664119,20.81540498474692 M591.4514028664119,20.81540498474692 L593.0423078126805,20.762859355047794 M593.0423078126805,20.762859355047794 L594.6126165931241,20.91973414457533 M594.6126165931241,20.91973414457533 L596.0711785126712,21.276931444047193 M596.0711785126712,21.276931444047193 L597.3332947038157,21.813734510529116 M516.3065966548498,561.682092966681 L481.28840193373804,541.4643288179124 M481.28840193373804,541.4643288179124 L106.08359579837429,758.088924641406 M141.08538997895397,779.2371406449522 L106.08359579837429,758.088924641406 M516.3065966548498,561.682092966681 L141.08538997895397,779.2371406449522 M516.7009035107392,347.25968695513086 L481.28840193373804,327.2737172171546 M516.7009035107392,347.25968695513086 L516.3065966548498,561.682092966681 M481.28840193373804,327.2737172171546 L481.28840193373804,541.4643288179124 M138.67016094860242,520.6392658530854 L481.28840193373804,327.2737172171546 M140.62372627703542,629.4525893532982 L138.67016094860242,520.6392658530854 M140.62372627703542,629.4525893532982 L103.93956833474368,650.3955541462977 M106.08359579837429,758.088924641406 L103.93956833474368,650.3955541462977 M141.08538997895397,779.2371406449522 L139.13713113011704,671.4299053555771 M103.93956833474368,650.3955541462977 L139.13713113011704,671.4299053555771 M139.13713113011704,671.4299053555771 L175.82452558693842,650.395549943411 M175.82452558693842,650.395549943411 L174.0689860684737,541.4643246386343 M174.0689860684737,541.4643246386343 L516.7009035107392,347.25968695513086 M174.0689860684737,541.4643246386343 L138.67016094860242,520.6392658530854 M175.82452558693842,650.395549943411 L140.62372627703542,629.4525893532982 M591.8022188584368,497.7415702483663 L592.0110144874118,461.6429820293248 M592.0110144874118,461.6429820293248 L592.3989610311978,461.9240682624826 M592.3989610311978,461.9240682624826 L592.6587713761354,462.2497122573899 M592.6587713761354,462.2497122573899 L592.7753469176064,462.60098964810726 M592.7753469176064,462.60098964810726 L592.7418887127305,462.9574944669016 M592.7418887127305,462.9574944669016 L592.5603291524241,463.29850199738 M592.5603291524241,463.29850199738 L592.2412010846213,463.6041939535499 M592.2412010846213,463.6041939535499 L591.803049612829,463.85679205140235 M591.803049612829,463.85679205140235 L591.2713333904718,464.0416095903863 M591.2713333904718,464.0416095903863 L590.6769686791268,464.1478935655502 M590.6769686791268,464.1478935655502 L590.0545022956151,464.16946464542923 M590.0545022956151,464.16946464542923 L589.4401345586035,464.1050654950283 M589.4401345586035,464.1050654950283 L588.8695760732539,463.9584470493211 M588.8695760732539,463.9584470493211 L588.3760075230264,463.7381306990552 M588.3760075230264,463.7381306990552 L587.9881079405305,463.4569375614952 M587.9881079405305,463.4569375614952 L587.7284253457779,463.131210381469 M587.7284253457779,463.131210381469 L587.612030829315,462.77989358234635 M587.612030829315,462.77989358234635 L587.6456818668855,462.4234021590766 M587.6456818668855,462.4234021590766 L587.827401889354,462.0824577591291 M587.827401889354,462.0824577591291 L588.146621290689,461.77686420705277 M588.146621290689,461.77686420705277 L588.5847740428601,461.5243772426825 M588.5847740428601,461.5243772426825 L589.1164011991364,461.33965810845405 M589.1164011991364,461.33965810845405 L589.7106069029828,461.23343726406864 M589.7106069029828,461.23343726406864 L590.3328807624607,461.2118795800262 M590.3328807624607,461.2118795800262 L590.9470665663948,461.2762393209883 M590.9470665663948,461.2762393209883 L591.5174953848132,461.4227745829904 M591.5174953848132,461.4227745829904 L592.0110144874118,461.6429820293248 M591.8022188584368,497.7415702483663 L591.309635245311,497.52093860040065 M591.309635245311,497.52093860040065 L590.7402852903482,497.37412104611496 M590.7402852903482,497.37412104611496 L590.1272590425783,497.309637316868 M590.1272590425783,497.309637316868 L589.5061581197526,497.33123653171987 M589.5061581197526,497.33123653171987 L588.9130706124723,497.43766200751 M588.9130706124723,497.43766200751 L588.3824419953316,497.62273698709987 M588.3824419953316,497.62273698709987 L587.9451101083516,497.8757103236012 M587.9451101083516,497.8757103236012 L587.6264862013397,498.1818925143017 M587.6264862013397,498.1818925143017 L587.4451016528909,498.5234936021121 M587.4451016528909,498.5234936021121 L587.411506530065,498.8806716084306 M587.411506530065,498.8806716084306 L587.5276740820817,499.23266497484997 M587.5276740820817,499.23266497484997 L587.7868599812518,499.5590193974979 M587.7868599812518,499.5590193974979 L588.1740219438286,499.8407539857545 M588.1740219438286,499.8407539857545 L588.6666548191953,500.06149454349446 M588.6666548191953,500.06149454349446 L589.2361339506558,500.2083952845059 M589.2361339506558,500.2083952845059 L589.8493414450593,500.27291842462284 M589.8493414450593,500.27291842462284 L590.4706341667072,500.25130581344786 M590.4706341667072,500.25130581344786 L591.0638800836534,500.14481720458673 M591.0638800836534,500.14481720458673 L591.5945974333716,499.9596438166678 M591.5945974333716,499.9596438166678 L592.0319280472033,499.7065593426485 M592.0319280472033,499.7065593426485 L592.3504609669914,499.4002787442809 M592.3504609669914,499.4002787442809 L592.5316856593254,499.05861452364695 M592.5316856593254,499.05861452364695 L592.5650886764113,498.70142312131736 M592.5650886764113,498.70142312131736 L592.4487407807025,498.34946916473444 M592.4487407807025,498.34946916473444 L592.1894276109565,498.02319793022633 M592.1894276109565,498.02319793022633 L591.8022188584368,497.7415702483663 M594.7362125455593,460.0722298568472 L595.7061522893516,460.7747487156944 M595.7061522893516,460.7747487156944 L596.3559236143667,461.58869829083034 M596.3559236143667,461.58869829083034 L596.6476992356429,462.466820387152 M596.6476992356429,462.466820387152 L596.5644161375903,463.35810405729956 M596.5644161375903,463.35810405729956 L596.1108164959803,464.21074428169976 M596.1108164959803,464.21074428169976 L595.3131755098884,464.97515526109635 M595.3131755098884,464.97515526109635 L594.2177993015823,465.60685900202907 M594.2177993015823,465.60685900202907 L592.888347770117,466.0690829887785 M592.888347770117,466.0690829887785 L591.40213249053,466.33491238887297 M591.40213249053,466.33491238887297 L589.845611457738,466.3888647263037 M589.845611457738,466.3888647263037 L588.3093464677036,466.22779439801207 M588.3093464677036,466.22779439801207 L586.8827148530813,465.8610886991231 M586.8827148530813,465.8610886991231 L585.6486945486442,465.31010186890455 M585.6486945486442,465.31010186890455 L584.6790391036083,464.60690960742943 M584.6790391036083,464.60690960742943 L584.0300644532979,463.7924391302467 M584.0300644532979,463.7924391302467 L583.7394219971342,462.9140717310796 M583.7394219971342,462.9140717310796 L583.8239094158714,462.0228712841233 M583.8239094158714,462.0228712841233 L584.2785119481957,461.17062562783957 M584.2785119481957,461.17062562783957 L585.0767237671373,460.4068296719832 M585.0767237671373,460.4068296719832 L586.1721079778898,459.7758205155372 M586.1721079778898,459.7758205155372 L587.501002848066,459.31421155229737 M587.501002848066,459.31421155229737 L588.9862243285733,459.0487767207504 M588.9862243285733,459.0487767207504 L590.5415429696562,458.9949086056022 M590.5415429696562,458.9949086056022 L592.076669119075,459.15573162904036 M592.076669119075,459.15573162904036 L593.502492079333,459.52191842361884 M593.502492079333,459.52191842361884 L594.7362125455593,460.0722298568472 M594.7613563295772,455.82920777299773 L595.7315129296564,456.5315668490198 M595.7315129296564,456.5315668490198 L596.381430473255,457.3453313261634 M596.381430473255,457.3453313261634 L596.6732731483369,458.22325376603914 M596.6732731483369,458.22325376603914 L596.5899739975009,459.11433482420443 M596.5899739975009,459.11433482420443 L596.1362760848665,459.96678125614886 M596.1362760848665,459.96678125614886 L595.3384602823949,460.7310185252697 M595.3384602823949,460.7310185252697 L594.2428428499982,461.3625787339581 M594.2428428499982,461.3625787339581 L592.9130977056047,461.8246977085754 M592.9130977056047,461.8246977085754 L591.4265535091782,462.0904667197344 M591.4265535091782,462.0904667197344 L589.869687408608,462.1444068011217 M589.869687408608,462.1444068011217 L588.3330812994725,461.9833730626584 M588.3330812994725,461.9833730626584 L586.9061323817843,461.6167506716618 M586.9061323817843,461.6167506716618 L585.6718370612168,461.0658890260241 M585.6718370612168,461.0658890260241 L584.7019648838527,460.3628565509859 M584.7019648838527,460.3628565509859 L584.0528443672933,459.5485711749821 M584.0528443672933,459.5485711749821 L583.7621353587963,458.67040343343587 M583.7621353587963,458.67040343343587 L583.8466393647661,457.7794055980989 M583.8466393647661,457.7794055980989 L584.3013406138425,456.92735373202487 M584.3013406138425,456.92735373202487 L585.0997275038644,456.16373148294315 M585.0997275038644,456.16373148294315 L586.1953529440312,455.5328658547878 M586.1953529440312,455.5328658547878 L587.5245411818622,455.0713619001792 M587.5245411818622,455.0713619001792 L589.010091139529,454.80598745532177 M589.010091139529,454.80598745532177 L590.5657543152242,454.7521315956269 M590.5657543152242,454.7521315956269 L592.1012210784961,454.9129180308657 M592.1012210784961,454.9129180308657 L593.5273609815167,455.27902152028423 M593.5273609815167,455.27902152028423 L594.7613563295772,455.82920777299773 M594.7613563295772,455.82920777299773 L594.7362125455593,460.0722298568472 M517.083808905093,139.03734766313517 L170.67725515688028,331.00742508272384 M170.67725515688028,331.00742508272384 L133.3588614846944,351.68837018872034 M133.3588614846944,351.68837018872034 L97.58098833801449,331.00742921484357 M481.28840193373804,119.28624087570319 L97.58098833801449,331.00742921484357 M517.083808905093,139.03734766313517 L481.28840193373804,119.28624087570319 M170.67725515688028,331.00742508272384 L517.083808905093,139.03734766313517 M97.58098833801449,331.00742921484357 L481.28840193373804,119.28624087570319 M517.0797352040968,141.25260909195083 L170.71334755133057,333.2469581210296 M170.71334755133057,333.2469581210296 L133.3993798923267,353.93046317742835 M133.3993798923267,353.93046317742835 L97.62557437259449,333.2469622536619 M97.62557437259449,333.2469622536619 L481.28840193373804,121.49895294933589 M517.0797352040968,141.25260909195083 L481.28840193373804,121.49895294933589 M170.71334755133057,333.2469581210296 L517.0797352040968,141.25260909195083 M481.28840193373804,121.49895294933589 L97.62557437259449,333.2469622536619 M517.0756624302114,143.46736636190604 L481.28840193373804,123.71116253356843 M133.439888863852,356.17203401754705 L97.67015004676216,335.48597489442307 M517.0756624302114,143.46736636190604 L170.7494315590272,335.48597076127857 M170.7494315590272,335.48597076127857 L133.439888863852,356.17203401754705 M481.28840193373804,123.71116253356843 L97.67015004676216,335.48597489442307 M170.7494315590272,335.48597076127857 L517.0756624302114,143.46736636190604 M97.67015004676216,335.48597489442307 L481.28840193373804,123.71116253356843" stroke="black"  stroke-width="4"  fill="red"/></svg>