<svg viewBox="0 0 800 800" xmlns="http://www.w3.org/2000/svg"><path d="M-37.02218064002216,436.35199366925735 L-37.02217586426036,436.3516581965781 M837.0221661526236,271.8337135179491 L837.0221806400223,271.833379833724 M-37.02218064002216,436.35199366925735 L-31.776213463358772,419.428258220187 M-31.776213463358772,419.428258220187 L-24.92885372529895,402.7561467631509 M-24.92885372529895,402.7561467631509 L-16.5065051019277,386.3864805924825 M-16.5065051019277,386.3864805924825 L-6.540274754250504,370.368774193115 M-6.540274754250504,370.368774193115 L4.934314770202377,354.75119058736345 M4.934314770202377,354.75119058736345 L17.877476201394643,339.5804190553217 M17.877476201394643,339.5804190553217 L32.24517397147872,324.9014477078655 M32.24517397147872,324.9014477078655 L47.989498831474066,310.7575970084438 M47.989498831474066,310.7575970084438 L65.05874446694611,297.19035811904905 M65.05874446694611,297.19035811904905 L83.39762173777376,284.2393048015074 M83.39762173777376,284.2393048015074 L102.94741838325967,271.9419811809791 M102.94741838325967,271.9419811809791 L123.64624056488321,260.3338675907449 M123.64624056488321,260.3338675907449 L145.4291557151672,249.44832076725447 M145.4291557151672,249.44832076725447 L168.2284877158579,239.31641791108638 M168.2284877158579,239.31641791108638 L191.97384475982017,229.96697926998468 M191.97384475982017,229.96697926998468 L216.59251003964255,221.42649944981133 M216.59251003964255,221.42649944981133 L242.00955864163006,213.71907690114733 M242.00955864163006,213.71907690114733 L268.1480365591981,206.86643011417323 M268.1480365591981,206.86643011417323 L294.9291223470516,200.8877071882365 M294.9291223470516,200.8877071882365 L322.27256516150874,195.79969915233988 M322.27256516150874,195.79969915233988 L350.0966286048117,191.6165279876875 M350.0966286048117,191.6165279876875 L378.3183439020854,188.34990248297794 M378.3183439020854,188.34990248297794 L406.8538863274284,186.00887410931648 M406.8538863274284,186.00887410931648 L435.61855075958556,184.59998182649622 M435.61855075958556,184.59998182649622 L464.5271012296412,184.12706199573165 M464.5271012296412,184.12706199573165 L493.4939237109768,184.59148447820309 M493.4939237109768,184.59148447820309 L522.4333262569469,185.99192696294182 M522.4333262569469,185.99192696294182 L551.2595119334246,188.32454996011927 M551.2595119334246,188.32454996011927 L579.8870149364377,191.5828368356424 M579.8870149364377,191.5828368356424 L608.2308064282356,195.75773317583867 M608.2308064282356,195.75773317583867 L636.2065690772354,200.83762904076963 M636.2065690772354,200.83762904076963 L663.7307527819153,206.8083109389969 M663.7307527819153,206.8083109389969 L690.721005476137,213.65316358160874 M690.721005476137,213.65316358160874 L717.0961810489341,221.35293510353836 M717.0961810489341,221.35293510353836 L742.7766091428978,229.88598170053382 M742.7766091428978,229.88598170053382 L767.6843910043681,239.228178005853 M767.6843910043681,239.228178005853 L791.7434624397506,249.35313056011535 M791.7434624397506,249.35313056011535 L814.879942457264,260.23200581615276 M814.879942457264,260.23200581615276 L837.0221661526236,271.8337135179491 M-37.02217586426036,436.3516581965781 L-31.776208633734427,419.42792292963 M-31.776208633734427,419.42792292963 L-24.928848823819067,402.75581165242386 M-24.928848823819067,402.75581165242386 L-16.506500110936145,386.38614565872456 M-16.506500110936145,386.38614565872456 L-6.540269656475061,370.3684394329059 M-6.540269656475061,370.3684394329059 L4.934319991603616,354.7508559967346 M4.934319991603616,354.7508559967346 L17.877481562791786,339.58008462976807 M17.877481562791786,339.58008462976807 L32.24517948872813,324.9011134423607 M32.24517948872813,324.9011134423607 L47.9895045198806,310.75726289745603 M47.9895045198806,310.75726289745603 L65.05875034122812,297.1900241565576 M65.05875034122812,297.1900241565576 L83.39762781202921,284.23897098102293 M83.39762781202921,284.23897098102293 L102.94742467093442,271.9416474955638 M102.94742467093442,271.9416474955638 L123.64624707874373,260.3335340330348 M123.64624707874373,260.3335340330348 L145.42916246727282,249.44798732948198 M145.42916246727282,249.44798732948198 L168.22849471753602,239.31608458510567 M168.22849471753602,239.31608458510567 L191.973852021644,229.96664604729744 M191.973852021644,229.96664604729744 L216.59251757141055,221.4261663215936 M216.59251757141055,221.4261663215936 L242.00956645234737,213.71874385827726 M242.00956645234737,213.71874385827726 L268.1480446570588,206.86609714725944 M268.1480446570588,206.86609714725944 L294.9291307394235,200.8873742876492 M294.9291307394235,200.8873742876492 L322.27257385492044,195.79936630823943 M322.27257385492044,195.79936630823943 L350.0966376049405,191.61619519005723 M350.0966376049405,191.61619519005723 L378.31835321374547,188.34956972165412 M378.31835321374547,188.34956972165412 L406.85389595456377,186.00854137402143 M406.85389595456377,186.00854137402143 L435.6185607052603,184.5996491068699 M435.6185607052603,184.5996491068699 L464.5271114960351,184.12672928136544 M464.5271114960351,184.12672928136544 L493.4939342993798,184.5911517586713 M493.4939342993798,184.5911517586713 L522.4333371677567,185.9915942278352 M522.4333371677567,185.9915942278352 L551.259523166143,188.32421719907728 M551.259523166143,188.32421719907728 L579.8870264896714,191.5825040383865 M579.8870264896714,191.5825040383865 L608.2308182996967,195.7574003322042 M608.2308182996967,195.7574003322042 L636.2065812637438,200.8372961407381 M636.2065812637438,200.8372961407381 L663.7307652794022,206.80797797272754 M663.7307652794022,206.80797797272754 L690.7210182796521,213.65283053946894 M690.7210182796521,213.65283053946894 L717.0961941526512,221.3526019761348 M717.0961941526512,221.3526019761348 L742.7766225401231,229.88564847874216 M742.7766225401231,229.88564847874216 L767.6844046875519,239.2278446808466 M767.6844046875519,239.2278446808466 L791.7434764004997,249.3527971233924 M791.7434764004997,249.3527971233924 L814.8799566863559,260.2316722595641 M814.8799566863559,260.2316722595641 L837.0221806400223,271.833379833724 M273.9177922491476,615.8732707186346 L273.91780063387046,615.8729333402281 M837.0221661526236,271.8337135179491 L273.9177922491476,615.8732707186346 M837.0221806400223,271.833379833724 L273.91780063387046,615.8729333402281 M273.9177922491476,615.8732707186346 L-37.02218064002216,436.35199366925735 M273.91780063387046,615.8729333402281 L-37.02217586426036,436.3516581965781" stroke="black"  stroke-width="4"  fill="red"/></svg>