<svg viewBox="0 0 800 800" xmlns="http://www.w3.org/2000/svg"><path d="M-402.05988964803555,65.26391835711229 L-421.22488883129904,73.16743081245232 M-421.22488837333526,68.408131113097 L-421.22488883129904,73.16743081245232 M-421.22488837333526,68.408131113097 L-421.22499645114544,68.36425877939291 M-421.22499645114544,68.36425877939291 L-421.2250612999761,68.3203668412882 M-421.2250612999761,68.3203668412882 L-421.22508291689167,68.27645530118377 M-402.01399973296407,60.4154148251248 L-421.22508291689167,68.27645530118377 M-402.05988964803555,65.26391835711229 L-402.01399973296407,60.4154148251248 M1156.5030728149986,723.8113108299042 L1141.307495612464,717.5447620011407 M1142.9697055377333,779.6643379247585 L1141.307495612464,717.5447620011407 M1142.9697055377333,779.6643379247585 L396.7108406585371,457.08820377589007 M393.9344707851178,461.05151175503784 L396.7108406585371,457.08820377589007 M217.78747062050547,384.5225266665884 L393.9344707851178,461.05151175503784 M220.99021644225695,381.13161241387036 L217.78747062050547,384.5225266665884 M220.99021644225695,381.13161241387036 L-283.98050498822886,162.8541341238403 M-287.8353377656538,164.84918379271934 L-283.98050498822886,162.8541341238403 M-378.3836601423644,125.50947771497965 L-287.8353377656538,164.84918379271934 M-374.50170896966597,123.72564746450945 L-378.3836601423644,125.50947771497965 M-374.50170896966597,123.72564746450945 L-453.4663687018285,89.59256594338706 M-417.51859244055004,74.69588129491393 L-453.4663687018285,89.59256594338706 M-417.51859244055004,74.69588129491393 L-421.22488883129904,73.16743081245232 M1155.2627332049187,691.5863424804271 L-402.05988964803555,65.26391835711229 M1156.5030728149986,723.8113108299042 L1155.2627332049187,691.5863424804271 M-409.5395951348112,69.86526209071002 L-409.59171828612284,69.84860941215248 M-409.59171828612284,69.84860941215248 L-409.6519453482042,69.83752808223119 M-409.6519453482042,69.83752808223119 L-409.7167761529158,69.83266106738199 M-409.7167761529158,69.83266106738199 L-409.7824458708501,69.83429130237494 M-409.7824458708501,69.83429130237494 L-409.84513911305726,69.84232394933241 M-409.84513911305726,69.84232394933241 L-409.9012149693742,69.85629286468395 M-409.9012149693742,69.85629286468395 L-409.9474146666007,69.87538667367494 M-409.9474146666007,69.87538667367494 L-409.9810537594245,69.89849675044911 M-409.9810537594245,69.89849675044911 L-410.0001756558262,69.92428043154615 M-410.0001756558262,69.92428043154615 L-410.00366793817534,69.95124012379779 M-410.00366793817534,69.95124012379779 L-409.9913251997358,69.97780876315119 M-409.9913251997358,69.97780876315119 L-409.96386379307796,70.00244241220486 M-409.96386379307796,70.00244241220486 L-409.92287732986165,70.02370829280824 M-409.92287732986165,70.02370829280824 L-409.87074823420915,70.0403703494801 M-409.87074823420915,70.0403703494801 L-409.81050555540196,70.0514588507308 M-409.81050555540196,70.0514588507308 L-409.7456528541735,70.05632926309738 M-409.7456528541735,70.05632926309738 L-409.6799599757401,70.05469787323932 M-409.6799599757401,70.05469787323932 L-409.6172476151505,70.04665978373009 M-409.6172476151505,70.04665978373009 L-409.5611610621402,70.03268238483082 M-409.5611610621402,70.03268238483082 L-409.5149615405219,70.01357899493883 M-409.5149615405219,70.01357899493883 L-409.48133345537997,69.9904604346741 M-409.48133345537997,69.9904604346741 L-409.46223087687235,69.96467131104669 M-409.46223087687235,69.96467131104669 L-409.45876179735615,69.93771046395693 M-409.45876179735615,69.93771046395693 L-409.4711263077678,69.91114522203156 M-409.4711263077678,69.91114522203156 L-409.4986030682634,69.88651874442945 M-409.4986030682634,69.88651874442945 L-409.5395951348112,69.86526209071002 M1148.3465364914668,704.1116734257159 L1148.158317423828,704.0442335614006 M1148.158317423828,704.0442335614006 L1147.9818473911728,703.9994194469767 M1147.9818473911728,703.9994194469767 L1147.8270551489823,703.979700143237 M1147.8270551489823,703.979700143237 L1147.7032627274625,703.9863579213953 M1147.7032627274625,703.9863579213953 L1147.6172716251604,704.0188484473376 M1147.6172716251604,704.0188484473376 L1147.574139797528,704.0753139014588 M1147.574139797528,704.0753139014588 L1147.5766130830898,704.1525733664294 M1147.5766130830898,704.1525733664294 L1147.6245560850523,704.2461443705619 M1147.6245560850523,704.2461443705619 L1147.7149579355441,704.3504976460191 M1147.7149579355441,704.3504976460191 L1147.842513785934,704.4595481628911 M1147.842513785934,704.4595481628911 L1148.0002054959173,704.5671151786798 M1148.0002054959173,704.5671151786798 L1148.1785366363824,704.6668094331843 M1148.1785366363824,704.6668094331843 L1148.3674579078745,704.7529586319134 M1148.3674579078745,704.7529586319134 L1148.555601635226,704.8203959851907 M1148.555601635226,704.8203959851907 L1148.7322069514125,704.8652684656431 M1148.7322069514125,704.8652684656431 L1148.8871220544693,704.8850154733406 M1148.8871220544693,704.8850154733406 L1149.0111887758658,704.8784265406729 M1149.0111887758658,704.8784265406729 L1149.0970102081533,704.8458133774751 M1149.0970102081533,704.8458133774751 L1149.1401001631814,704.7892789124899 M1149.1401001631814,704.7892789124899 L1149.1375298109895,704.7119414286947 M1149.1375298109895,704.7119414286947 L1149.0894568311617,704.6183013079153 M1149.0894568311617,704.6183013079153 L1148.999114351642,704.513982015131 M1148.999114351642,704.513982015131 L1148.871260757874,704.4048438096671 M1148.871260757874,704.4048438096671 L1148.7135150750782,704.297304459769 M1148.7135150750782,704.297304459769 L1148.5351938967874,704.197668582756 M1148.5351938967874,704.197668582756 L1148.3465364914668,704.1116734257159 M-417.5098253588965,69.92862870218391 L-421.22488837333526,68.408131113097 M-417.5098253588965,69.92862870218391 L-417.51859244055004,74.69588129491393 M-417.50977720656283,69.79673233555019 L-417.509836491545,69.84071748786232 M-417.509836491545,69.84071748786232 L-417.50985254134423,69.88468294420909 M-417.50985254134423,69.88468294420909 L-417.5098253588965,69.92862870218391 M-421.22508291689167,68.27645530118377 L-417.50977720656283,69.79673233555019 M1148.9891358769632,710.7970988195434 L1164.2977403000011,717.0612723619365 M1164.2977403000011,717.0612723619365 L1162.8543787628125,684.8514294997963 M1162.8543787628125,684.8514294997963 L-402.01399973296407,60.4154148251248 M-417.50977720656283,69.79673233555019 L-453.5465936343444,84.61460896375598 M-453.5465936343444,84.61460896375598 L-374.3792967427246,118.5737049533443 M-374.3792967427246,118.5737049533443 L-378.27112353924576,120.34868781978741 M-378.27112353924576,120.34868781978741 L-287.46469895171845,159.49947331777736 M-287.46469895171845,159.49947331777736 L-283.6002117622879,157.51371909729005 M-283.6002117622879,157.51371909729005 L223.3111787018604,374.955178423026 M223.3111787018604,374.955178423026 L220.1052345406697,378.3359893644512 M220.1052345406697,378.3359893644512 L397.13236809808086,454.6604494972223 M397.13236809808086,454.6604494972223 L399.9070907977582,450.7066283991876 M399.9070907977582,450.7066283991876 L1151.0361873320087,772.9061487983657 M1148.9891358769632,710.7970988195434 L1151.0361873320087,772.9061487983657 M-409.22338537952635,64.87378416977123 L-409.1206466078736,64.92662299725191 M-409.1206466078736,64.92662299725191 L-409.05175666307855,64.98784430876503 M-409.05175666307855,64.98784430876503 L-409.0207270674807,65.05389405127369 M-409.0207270674807,65.05389405127369 L-409.0293738254146,65.12093555939532 M-409.0293738254146,65.12093555939532 L-409.0772063372091,65.1850720331231 M-409.0772063372091,65.1850720331231 L-409.1614551910668,65.24257321630932 M-409.1614551910668,65.24257321630932 L-409.2772301760044,65.29009278264431 M-409.2772301760044,65.29009278264431 L-409.4178028297018,65.32486390204957 M-409.4178028297018,65.32486390204957 L-409.5749977219356,65.34486132254119 M-409.5749977219356,65.34486132254119 L-409.73966903275345,65.34891998869045 M-409.73966903275345,65.34891998869045 L-409.9022342716162,65.33680318962547 M-409.9022342716162,65.33680318962547 L-410.05323419155275,65.30921732755155 M-410.05323419155275,65.30921732755155 L-410.18388505171765,65.2677692776881 M-410.18388505171765,65.2677692776881 L-410.28658961377096,65.21487255786758 M-410.28658961377096,65.21487255786758 L-410.3553833224033,65.15360648349287 M-410.3553833224033,65.15360648349287 L-410.38627600048267,65.0875356455116 M-410.38627600048267,65.0875356455116 L-410.37748361762795,65.02050129611422 M-410.37748361762795,65.02050129611422 L-410.32952978395974,64.95639873707307 M-410.32952978395974,64.95639873707307 L-410.24521179759154,64.89895041758774 M-410.24521179759154,64.89895041758774 L-410.12943570712787,64.85149055353247 M-410.12943570712787,64.85149055353247 L-409.98893022816196,64.81677229782781 M-409.98893022816196,64.81677229782781 L-409.8318554018093,64.79680879206234 M-409.8318554018093,64.79680879206234 L-409.6673294494309,64.7927573597886 M-409.6673294494309,64.7927573597886 L-409.50490191215044,64.80485291274908 M-409.50490191215044,64.80485291274908 L-409.35399988334575,64.8323941622217 M-409.35399988334575,64.8323941622217 L-409.22338537952635,64.87378416977123 M1155.962382922402,696.8895101743493 L1156.4374921033477,697.104248463166 M1156.4374921033477,697.104248463166 L1156.8870562461861,697.3531400650056 M1156.8870562461861,697.3531400650056 L1157.2849797594768,697.6217619601179 M1157.2849797594768,697.6217619601179 L1157.6079321648078,697.8944477628149 M1157.6079321648078,697.8944477628149 L1157.8371141286696,698.1553552346212 M1157.8371141286696,698.1553552346212 L1157.9592623900996,698.3893493710369 M1157.9592623900996,698.3893493710369 L1157.9670811379217,698.5827430540182 M1157.9670811379217,698.5827430540182 L1157.8600632000225,698.7242547764189 M1157.8600632000225,698.7242547764189 L1157.6445317533157,698.8056744359894 M1157.6445317533157,698.8056744359894 L1157.3328968768408,698.8221947855043 M1157.3328968768408,698.8221947855043 L1156.943287538001,698.7728395568059 M1156.943287538001,698.7728395568059 L1156.4985888696576,698.6605641263097 M1156.4985888696576,698.6605641263097 L1156.0246926796503,698.4919144163075 M1156.0246926796503,698.4919144163075 L1155.5489349859113,698.2766224287485 M1155.5489349859113,698.2766224287485 L1155.0993056457414,698.027364291563 M1155.0993056457414,698.027364291563 L1154.7017215946375,697.7585687232269 M1154.7017215946375,697.7585687232269 L1154.3794355191062,697.4859419565781 M1154.3794355191062,697.4859419565781 L1154.1510940231262,697.2253126498583 M1154.1510940231262,697.2253126498583 L1154.029768058983,696.9917521557206 M1154.029768058983,696.9917521557206 L1154.0225648308415,696.7988481796626 M1154.0225648308415,696.7988481796626 L1154.1298504629608,696.6577700113982 M1154.1298504629608,696.6577700113982 L1154.3452407923908,696.5766285898222 M1154.3452407923908,696.5766285898222 L1154.6563577260379,696.5601672612139 M1154.6563577260379,696.5601672612139 L1155.0451909110252,696.6093487317742 M1155.0451909110252,696.6093487317742 L1155.489033420271,696.7212576669164 M1155.489033420271,696.7212576669164 L1155.962382922402,696.8895101743493 M1155.2627332049187,691.5863424804271 L1162.8543787628125,684.8514294997963 M1164.087240169576,717.2432275922674 L1148.7816967048825,710.9789887765916 M1164.087240169576,717.2432275922674 L1156.5030728149986,723.8113108299042 M1148.7816967048825,710.9789887765916 L1141.307495612464,717.5447620011407 M1148.7816967048825,710.9789887765916 L1148.8508393822472,710.9184368550477 M1148.8508393822472,710.9184368550477 L1148.9199857767442,710.857806869393 M1148.9199857767442,710.857806869393 L1148.9891358769632,710.7970988195434 M1142.9697055377333,779.6643379247585 L1151.0361873320087,772.9061487983657 M396.7108406585371,457.08820377589007 L399.9070907977582,450.7066283991876 M393.9344707851178,461.05151175503784 L397.13236809808086,454.6604494972223 M217.78747062050547,384.5225266665884 L220.1052345406697,378.3359893644512 M220.99021644225695,381.13161241387036 L223.3111787018604,374.955178423026 M-283.98050498822886,162.8541341238403 L-283.6002117622879,157.51371909729005 M-287.8353377656538,164.84918379271934 L-287.46469895171845,159.49947331777736 M-378.3836601423644,125.50947771497965 L-378.27112353924576,120.34868781978741 M-374.50170896966597,123.72564746450945 L-374.3792967427246,118.5737049533443 M-453.4663687018285,89.59256594338706 L-453.5465936343444,84.61460896375598 M1164.2977403000011,717.0612723619365 L1164.2275706536736,717.1220029181255 M1164.2275706536736,717.1220029181255 L1164.1574039396157,717.1826546615088 M1164.1574039396157,717.1826546615088 L1164.087240169576,717.2432275922674 M-409.5395951348112,69.86526209071002 L-409.5143732815134,65.50466651316935 M-409.5143732815134,65.50466651316935 L-409.47329187813807,65.5258208981084 M-409.47329187813807,65.5258208981084 L-409.44575481146,65.55032889809996 M-409.44575481146,65.55032889809996 L-409.43336253332245,65.5767663397076 M-409.43336253332245,65.5767663397076 L-409.4368380072817,65.6035974882426 M-409.4368380072817,65.6035974882426 L-409.45598077836905,65.62926255469893 M-409.45598077836905,65.62926255469893 L-409.4896805266644,65.65226990826534 M-409.4896805266644,65.65226990826534 L-409.53597901987507,65.67128140830721 M-409.53597901987507,65.67128140830721 L-409.59218610227845,65.68519157563992 M-409.59218610227845,65.68519157563992 L-409.6550335397725,65.6931910023851 M-409.6550335397725,65.6931910023851 L-409.720868187458,65.69481454540266 M-409.720868187458,65.69481454540266 L-409.78586110071615,65.68996755934177 M-409.78586110071615,65.68996755934177 L-409.8462342798216,65.67893239352793 M-409.8462342798216,65.67893239352793 L-409.8984765716009,65.66235048255118 M-409.8984765716009,65.66235048255118 L-409.9395523481953,65.6411868951314 M-409.9395523481953,65.6411868951314 L-409.96707399496154,65.61667174278165 M-409.96707399496154,65.61667174278165 L-409.97944440716356,65.59023091279113 M-409.97944440716356,65.59023091279113 L-409.97594563004327,65.56340091601976 M-409.97594563004327,65.56340091601976 L-409.9567834573538,65.5377412776038 M-409.9567834573538,65.5377412776038 L-409.9230726534645,65.51474238494148 M-409.9230726534645,65.51474238494148 L-409.8767739835059,65.49574044029225 M-409.8767739835059,65.49574044029225 L-409.82057764368994,65.48183873392077 M-409.82057764368994,65.48183873392077 L-409.75774940699137,65.47384473523721 M-409.75774940699137,65.47384473523721 L-409.6919380198583,65.4722223440101 M-409.6919380198583,65.4722223440101 L-409.6269670978886,65.47706594159922 M-409.6269670978886,65.47706594159922 L-409.5666096032892,65.48809395517623 M-409.5666096032892,65.48809395517623 L-409.5143732815134,65.50466651316935 M1148.3465364914668,704.1116734257159 L1155.1760489294863,698.0806878739444 M1155.1760489294863,698.0806878739444 L1155.365994953513,698.1666442432355 M1155.365994953513,698.1666442432355 L1155.5456340834169,698.2662352436897 M1155.5456340834169,698.2662352436897 L1155.7046512897912,698.3737262340877 M1155.7046512897912,698.3737262340877 L1155.8336551161879,698.4828154426062 M1155.8336551161879,698.4828154426062 L1155.9249584210945,698.5870879786538 M1155.9249584210945,698.5870879786538 L1155.973750172448,698.6806861931084 M1155.973750172448,698.6806861931084 L1155.976752521758,698.7579891120191 M1155.976752521758,698.7579891120191 L1155.9337825790226,698.8144983358304 M1155.9337825790226,698.8144983358304 L1155.847764942498,698.8470969481217 M1155.847764942498,698.8470969481217 L1155.7231938988396,698.853682941918 M1155.7231938988396,698.853682941918 L1155.5674968954968,698.8339447429039 M1155.5674968954968,698.8339447429039 L1155.3898786051618,698.7890922890258 M1155.3898786051618,698.7890922890258 L1155.2005490069532,698.7216850591362 M1155.2005490069532,698.7216850591362 L1155.0103368156626,698.6355743877594 M1155.0103368156626,698.6355743877594 L1154.8306873178142,698.5359247820701 M1154.8306873178142,698.5359247820701 L1154.6717244039726,698.4284060178508 M1154.6717244039726,698.4284060178508 L1154.5430205551459,698.3194044994632 M1154.5430205551459,698.3194044994632 L1154.4516580178783,698.2150981887222 M1154.4516580178783,698.2150981887222 L1154.4029977557839,698.1215693605537 M1154.4029977557839,698.1215693605537 L1154.4000937460191,698.0443447648363 M1154.4000937460191,698.0443447648363 L1154.4431063035831,697.9879048211155 M1154.4431063035831,697.9879048211155 L1154.5292949179536,697.9554289839613 M1154.5292949179536,697.9554289839613 L1154.6535897349777,697.9487742166466 M1154.6535897349777,697.9487742166466 L1154.8091626543478,697.9684846036238 M1154.8091626543478,697.9684846036238 L1154.9866441621948,698.0132784637744 M1154.9866441621948,698.0132784637744 L1155.1760489294863,698.0806878739444 M-409.22338537952635,64.87378416977123 L-409.22642342826396,65.38645592498881 M-409.22642342826396,65.38645592498881 L-409.1237109235997,65.4393249151176 M-409.1237109235997,65.4393249151176 L-409.05483872195157,65.5005811715136 M-409.05483872195157,65.5005811715136 L-409.0238173104311,65.56666861153144 M-409.0238173104311,65.56666861153144 L-409.032462211587,65.63374837957338 M-409.032462211587,65.63374837957338 L-409.080282927482,65.69792145192173 M-409.080282927482,65.69792145192173 L-409.16451072656696,65.75545544454076 M-409.16451072656696,65.75545544454076 L-409.28025661843617,65.80300212289478 M-409.28025661843617,65.80300212289478 L-409.42079383151145,65.83779307959975 M-409.42079383151145,65.83779307959975 L-409.5779489981654,65.85780190839 M-409.5779489981654,65.85780190839 L-409.7425786123292,65.86186288992195 M-409.7425786123292,65.86186288992195 L-409.9051026130086,65.84973917844115 M-409.9051026130086,65.84973917844115 L-410.0560641557604,65.82213757868357 M-410.0560641557604,65.82213757868357 L-410.1866817342933,65.78066588161835 M-410.1866817342933,65.78066588161835 L-410.28936004636216,65.72773898079708 M-410.28936004636216,65.72773898079708 L-410.35813606041575,65.66643794731527 M-410.35813606041575,65.66643794731527 L-410.38902062360194,65.60032940514935 M-410.38902062360194,65.60032940514935 L-410.38023017132195,65.53325679809376 M-410.38023017132195,65.53325679809376 L-410.33228819514557,65.46911765119472 M-410.33228819514557,65.46911765119472 L-410.2479912988042,65.41163653905261 M-410.2479912988042,65.41163653905261 L-410.1322443022484,65.3641495819245 M-410.1322443022484,65.3641495819245 L-409.99177423013725,65.32941150569616 M-409.99177423013725,65.32941150569616 L-409.8347390687261,65.30943660239461 M-409.8347390687261,65.30943660239461 L-409.6702547394076,65.30538285704336 M-409.6702547394076,65.30538285704336 L-409.5078683705308,65.31748531565819 M-409.5078683705308,65.31748531565819 L-409.3570046690859,65.34504228867604 M-409.3570046690859,65.34504228867604 L-409.22642342826396,65.38645592498881 M1155.962382922402,696.8895101743493 L1155.1576902777924,697.6003692269904 M1155.1576902777924,697.6003692269904 L1155.6324192893446,697.8151196000243 M1155.6324192893446,697.8151196000243 L1156.0815943002945,698.0640251610795 M1156.0815943002945,698.0640251610795 L1156.4791422883698,698.3326620654292 M1156.4791422883698,698.3326620654292 L1156.801754753785,698.6053630443765 M1156.801754753785,698.6053630443765 L1157.0306521603102,698.8662849802691 M1157.0306521603102,698.8662849802691 L1157.1525877745082,699.1002920416421 M1157.1525877745082,699.1002920416421 L1157.1602783366593,699.2936963733343 M1157.1602783366593,699.2936963733343 L1157.053224205302,699.4352158684201 M1157.053224205302,699.4352158684201 L1156.837750610518,699.5166399926687 M1156.837750610518,699.5166399926687 L1156.526264370656,699.5331612474248 M1156.526264370656,699.5331612474248 L1156.1368857934838,699.4838033136213 M1156.1368857934838,699.4838033136213 L1155.6924863871534,699.3715217220495 M1155.6924863871534,699.3715217220495 L1155.2189404924143,699.2028627381757 M1155.2189404924143,699.2028627381757 L1154.7435638862319,698.9875588783028 M1154.7435638862319,698.9875588783028 L1154.2943239794686,698.7382869486208 M1154.2943239794686,698.7382869486208 L1153.897115218387,698.4694764500427 M1153.897115218387,698.4694764500427 L1153.5751683647331,698.1968344802912 M1153.5751683647331,698.1968344802912 L1153.3471103898207,697.9361905829616 M1153.3471103898207,697.9361905829616 L1153.2259959555213,697.7026169666233 M1153.2259959555213,697.7026169666233 L1153.2189199708023,697.5097021191103 M1153.2189199708023,697.5097021191103 L1153.326241245189,697.3686159809575 M1153.326241245189,697.3686159809575 L1153.5415736883883,697.287469968146 M1153.5415736883883,697.287469968146 L1153.8525424763059,697.2710077074505 M1153.8525424763059,697.2710077074505 L1154.2411458033148,697.3201919621507 M1154.2411458033148,697.3201919621507 L1154.6846901594586,697.4321072250698 M1154.6846901594586,697.4321072250698 L1155.1576902777924,697.6003692269904" stroke="black"  stroke-width="4"  fill="red"/>
<path d="M1156.5030728149986,723.8113108299042 L1159.1862967094528,793.5235125290686 M1156.5030728149986,723.8113108299042 L1141.307495612464,717.5447620011407 M1143.1541725891875,786.5581813761714 L1141.307495612464,717.5447620011407 M1159.1862967094528,793.5235125290686 L1143.1541725891875,786.5581813761714 M1164.087240169576,717.2432275922674 L1156.5030728149986,723.8113108299042 M1206.3565750635914,663.3705535725292 L1204.5806657582389,666.7645539965883 M1204.5806657582389,666.7645539965883 L1202.6791397069314,670.1846165302544 M1202.6791397069314,670.1846165302544 L1200.6581214092078,673.6196654978672 M1200.6581214092078,673.6196654978672 L1198.5242185145707,677.0585309427879 M1198.5242185145707,677.0585309427879 L1196.2844052799867,680.4900741119263 M1196.2844052799867,680.4900741119263 L1193.9460087260657,683.9032164288938 M1193.9460087260657,683.9032164288938 L1191.516694116623,687.2869769521917 M1191.516694116623,687.2869769521917 L1189.0045001711417,690.6304552662647 M1189.0045001711417,690.6304552662647 L1186.4176669917708,693.9229976558082 M1186.4176669917708,693.9229976558082 L1183.7647219485175,697.1541355063918 M1183.7647219485175,697.1541355063918 L1181.0543072630658,700.3137415310512 M1181.0543072630658,700.3137415310512 L1178.2953673677064,703.3918773838373 M1178.2953673677064,703.3918773838373 L1175.4967726113855,706.3791223469957 M1175.4967726113855,706.3791223469957 L1172.6676089676635,709.2663242398169 M1172.6676089676635,709.2663242398169 L1169.816956883165,712.0447904557739 M1169.816956883165,712.0447904557739 L1166.9538256467285,714.7063409609477 M1166.9538256467285,714.7063409609477 L1164.087240169576,717.2432275922674 M1206.601401716178,662.8861772236756 L1206.555716087904,662.9046558038802 M1206.555716087904,662.9046558038802 L1206.5056054377533,662.9361082826608 M1206.5056054377533,662.9361082826608 L1206.4538932333244,662.9787801117168 M1206.4538932333244,662.9787801117168 L1206.4036725576773,663.0301154959869 M1206.4036725576773,663.0301154959869 L1206.357834846153,663.0871525500136 M1206.357834846153,663.0871525500136 L1206.3190204906682,663.1465982289637 M1206.3190204906682,663.1465982289637 L1206.289518905799,663.2049696832909 M1206.289518905799,663.2049696832909 L1206.2710141148884,663.2589010392844 M1206.2710141148884,663.2589010392844 L1206.2645935197345,663.3052481353828 M1206.2645935197345,663.3052481353828 L1206.2706532793711,663.3413009051942 M1206.2706532793711,663.3413009051942 L1206.2888035643696,663.3649972090108 M1206.2888035643696,663.3649972090108 L1206.3179833679417,663.3749635495477 M1206.3179833679417,663.3749635495477 L1206.3565750635914,663.3705535725292 M1249.8520021722275,607.6716640963854 L1246.7737469465005,610.4656731395017 M1246.7737469465005,610.4656731395017 L1243.7284867469489,613.3560929756604 M1243.7284867469489,613.3560929756604 L1240.7235133245904,616.3353453894082 M1240.7235133245904,616.3353453894082 L1237.7661666752601,619.3955591872647 M1237.7661666752601,619.3955591872647 L1234.8634179859237,622.5289325206235 M1234.8634179859237,622.5289325206235 L1232.022209941872,625.7274485167038 M1232.022209941872,625.7274485167038 L1229.2492586337262,628.9830618430261 M1229.2492586337262,628.9830618430261 L1226.5509630225868,632.2877675346602 M1226.5509630225868,632.2877675346602 L1223.9337427353626,635.6333312137834 M1223.9337427353626,635.6333312137834 L1221.4036283489595,639.0116458406221 M1221.4036283489595,639.0116458406221 L1218.9665430552495,642.4144883827702 M1218.9665430552495,642.4144883827702 L1216.6282126660153,645.8336120759606 M1216.6282126660153,645.8336120759606 L1214.3941274876674,649.2607784385681 M1214.3941274876674,649.2607784385681 L1212.2694524976787,652.6878465112865 M1212.2694524976787,652.6878465112865 L1210.259303247339,656.1065338187893 M1210.259303247339,656.1065338187893 L1208.36844343863,659.5086857561656 M1208.36844343863,659.5086857561656 L1206.601401716178,662.8861772236756 M1261.405118424977,702.0072759638016 L1249.8520021722275,607.6716640963854 M1208.55205271609,745.6106507094096 L1261.405118424977,702.0072759638016 M1209.0940244871274,752.5769608547934 L1208.55205271609,745.6106507094096 M1159.1862967094528,793.5235125290686 L1209.0940244871274,752.5769608547934 M1164.087240169576,717.2432275922674 L1148.7816967048825,710.9789887765916 M1148.7816967048825,710.9789887765916 L1141.307495612464,717.5447620011407 M1143.1541725891875,786.5581813761714 L1192.2928594273121,745.6106340586929 M1191.8426464824713,738.7180385973403 L1192.2928594273121,745.6106340586929 M1191.8426464824713,738.7180385973403 L1243.8681379702016,695.1304969856866 M1233.6806448764178,601.7842933237623 L1243.8681379702016,695.1304969856866 M1233.6806448764178,601.7842933237623 L1230.6468394359508,604.5747340814628 M1230.6468394359508,604.5747340814628 L1227.6440610865034,607.4605105688671 M1227.6440610865034,607.4605105688671 L1224.679513252567,610.4340592479333 M1224.679513252567,610.4340592479333 L1221.7604500618374,613.4875251910994 M1221.7604500618374,613.4875251910994 L1218.8937654087913,616.6131241303648 M1218.8937654087913,616.6131241303648 L1216.0863280087647,619.8028582953563 M1216.0863280087647,619.8028582953563 L1213.344786004523,623.0487027521515 M1213.344786004523,623.0487027521515 L1210.6754778021582,626.3426743245608 M1210.6754778021582,626.3426743245608 L1208.0847645338451,629.6765618967711 M1208.0847645338451,629.6765618967711 L1205.5786263155699,633.0422829417432 M1205.5786263155699,633.0422829417432 L1203.1629396679798,636.4316404443241 M1203.1629396679798,636.4316404443241 L1200.8433886268974,639.8364150429389 M1200.8433886268974,639.8364150429389 L1198.6254271293699,643.2483971062558 M1198.6254271293699,643.2483971062558 L1196.5141903245471,646.6594758932382 M1196.5141903245471,646.6594758932382 L1194.5147663545406,650.0614007575625 M1194.5147663545406,650.0614007575625 L1192.6318982548833,653.44605036371 M1192.6318982548833,653.44605036371 L1190.8700989456825,656.8053344450308 M1190.625814363219,657.287034303602 L1190.5881169098886,657.2916937426795 M1190.5881169098886,657.2916937426795 L1190.5597627759885,657.2820401452407 M1190.5597627759885,657.2820401452407 L1190.542322768177,657.2587016437831 M1190.542322768177,657.2587016437831 L1190.5368165123218,657.223030923077 M1190.5368165123218,657.223030923077 L1190.54360112808,657.1770679431617 M1190.54360112808,657.1770679431617 L1190.5622596814035,657.1235004686135 M1190.5622596814035,657.1235004686135 L1190.5916960160635,657.065451518086 M1190.5916960160635,657.065451518086 L1190.6302294485563,657.006268248651 M1190.6302294485563,657.006268248651 L1190.6755873914606,656.9494182601985 M1190.6755873914606,656.9494182601985 L1190.7251569963046,656.8981837591042 M1190.7251569963046,656.8981837591042 L1190.7760842349323,656.8555207679648 M1190.7760842349323,656.8555207679648 L1190.8253229318038,656.8239845206091 M1190.8253229318038,656.8239845206091 L1190.8700989456825,656.8053344450308 M1148.7816967048825,710.9789887765916 L1151.6072301960285,708.4435695835358 M1151.6072301960285,708.4435695835358 L1154.430729287737,705.7847362745811 M1154.430729287737,705.7847362745811 L1157.2433053550824,703.0102336183041 M1157.2433053550824,703.0102336183041 L1160.0360807776199,700.1282331541905 M1160.0360807776199,700.1282331541905 L1162.8001032919813,697.1474138254282 M1162.8001032919813,697.1474138254282 L1165.5264105497374,694.0769089938021 M1165.5264105497374,694.0769089938021 L1168.2062479477515,690.9261155309212 M1168.2062479477515,690.9261155309212 L1170.830783085753,687.7049428613204 M1170.830783085753,687.7049428613204 L1173.3914764963984,684.423484526856 M1173.3914764963984,684.423484526856 L1175.8798970412383,681.0921706654576 M1175.8798970412383,681.0921706654576 L1178.2878917821804,677.7216120156351 M1178.2878917821804,677.7216120156351 L1180.6075014026974,674.3226616938583 M1180.6075014026974,674.3226616938583 L1182.831129853897,670.9062493694594 M1182.831129853897,670.9062493694594 L1184.9515097171238,667.4833985955888 M1184.9515097171238,667.4833985955888 L1186.961716705293,664.0651897067914 M1186.961716705293,664.0651897067914 L1188.855183415847,660.6627311286383 M1188.855183415847,660.6627311286383 L1190.625814363219,657.287034303602 M1192.2928594273121,745.6106340586929 L1209.0940244871274,752.5769608547934 M1206.3565750635914,663.3705535725292 L1190.625814363219,657.287034303602 M1206.601401716178,662.8861772236756 L1190.8700989456825,656.8053344450308 M1249.8520021722275,607.6716640963854 L1233.6806448764178,601.7842933237623 M1261.405118424977,702.0072759638016 L1243.8681379702016,695.1304969856866 M1208.55205271609,745.6106507094096 L1191.8426464824713,738.7180385973403" stroke="black"  stroke-width="4"  fill="red"/>
<path d="M1148.3465364914668,704.1116734257159 L1155.1760489294863,698.0806878739444 M1155.1760489294863,698.0806878739444 L1155.365994953513,698.1666442432355 M1155.365994953513,698.1666442432355 L1155.5456340834169,698.2662352436897 M1155.5456340834169,698.2662352436897 L1155.7046512897912,698.3737262340877 M1155.7046512897912,698.3737262340877 L1155.8336551161879,698.4828154426062 M1155.8336551161879,698.4828154426062 L1155.9249584210945,698.5870879786538 M1155.9249584210945,698.5870879786538 L1155.973750172448,698.6806861931084 M1155.973750172448,698.6806861931084 L1155.976752521758,698.7579891120191 M1155.976752521758,698.7579891120191 L1155.9337825790226,698.8144983358304 M1155.9337825790226,698.8144983358304 L1155.847764942498,698.8470969481217 M1155.847764942498,698.8470969481217 L1155.7231938988396,698.853682941918 M1155.7231938988396,698.853682941918 L1155.5674968954968,698.8339447429039 M1155.5674968954968,698.8339447429039 L1155.3898786051618,698.7890922890258 M1155.3898786051618,698.7890922890258 L1155.2005490069532,698.7216850591362 M1155.2005490069532,698.7216850591362 L1155.0103368156626,698.6355743877594 M1155.0103368156626,698.6355743877594 L1154.8306873178142,698.5359247820701 M1154.8306873178142,698.5359247820701 L1154.6717244039726,698.4284060178508 M1154.6717244039726,698.4284060178508 L1154.5430205551459,698.3194044994632 M1154.5430205551459,698.3194044994632 L1154.4516580178783,698.2150981887222 M1154.4516580178783,698.2150981887222 L1154.4029977557839,698.1215693605537 M1154.4029977557839,698.1215693605537 L1154.4000937460191,698.0443447648363 M1154.4000937460191,698.0443447648363 L1154.4431063035831,697.9879048211155 M1154.4431063035831,697.9879048211155 L1154.5292949179536,697.9554289839613 M1154.5292949179536,697.9554289839613 L1154.6535897349777,697.9487742166466 M1154.6535897349777,697.9487742166466 L1154.8091626543478,697.9684846036238 M1154.8091626543478,697.9684846036238 L1154.9866441621948,698.0132784637744 M1154.9866441621948,698.0132784637744 L1155.1760489294863,698.0806878739444 M1148.3465364914668,704.1116734257159 L1148.158317423828,704.0442335614006 M1148.158317423828,704.0442335614006 L1147.9818473911728,703.9994194469767 M1147.9818473911728,703.9994194469767 L1147.8270551489823,703.979700143237 M1147.8270551489823,703.979700143237 L1147.7032627274625,703.9863579213953 M1147.7032627274625,703.9863579213953 L1147.6172716251604,704.0188484473376 M1147.6172716251604,704.0188484473376 L1147.574139797528,704.0753139014588 M1147.574139797528,704.0753139014588 L1147.5766130830898,704.1525733664294 M1147.5766130830898,704.1525733664294 L1147.6245560850523,704.2461443705619 M1147.6245560850523,704.2461443705619 L1147.7149579355441,704.3504976460191 M1147.7149579355441,704.3504976460191 L1147.842513785934,704.4595481628911 M1147.842513785934,704.4595481628911 L1148.0002054959173,704.5671151786798 M1148.0002054959173,704.5671151786798 L1148.1785366363824,704.6668094331843 M1148.1785366363824,704.6668094331843 L1148.3674579078745,704.7529586319134 M1148.3674579078745,704.7529586319134 L1148.555601635226,704.8203959851907 M1148.555601635226,704.8203959851907 L1148.7322069514125,704.8652684656431 M1148.7322069514125,704.8652684656431 L1148.8871220544693,704.8850154733406 M1148.8871220544693,704.8850154733406 L1149.0111887758658,704.8784265406729 M1149.0111887758658,704.8784265406729 L1149.0970102081533,704.8458133774751 M1149.0970102081533,704.8458133774751 L1149.1401001631814,704.7892789124899 M1149.1401001631814,704.7892789124899 L1149.1375298109895,704.7119414286947 M1149.1375298109895,704.7119414286947 L1149.0894568311617,704.6183013079153 M1149.0894568311617,704.6183013079153 L1148.999114351642,704.513982015131 M1148.999114351642,704.513982015131 L1148.871260757874,704.4048438096671 M1148.871260757874,704.4048438096671 L1148.7135150750782,704.297304459769 M1148.7135150750782,704.297304459769 L1148.5351938967874,704.197668582756 M1148.5351938967874,704.197668582756 L1148.3465364914668,704.1116734257159 M1155.1576902777924,697.6003692269904 L1155.6324192893446,697.8151196000243 M1155.6324192893446,697.8151196000243 L1156.0815943002945,698.0640251610795 M1156.0815943002945,698.0640251610795 L1156.4791422883698,698.3326620654292 M1156.4791422883698,698.3326620654292 L1156.801754753785,698.6053630443765 M1156.801754753785,698.6053630443765 L1157.0306521603102,698.8662849802691 M1157.0306521603102,698.8662849802691 L1157.1525877745082,699.1002920416421 M1157.1525877745082,699.1002920416421 L1157.1602783366593,699.2936963733343 M1157.1602783366593,699.2936963733343 L1157.053224205302,699.4352158684201 M1157.053224205302,699.4352158684201 L1156.837750610518,699.5166399926687 M1156.837750610518,699.5166399926687 L1156.526264370656,699.5331612474248 M1156.526264370656,699.5331612474248 L1156.1368857934838,699.4838033136213 M1156.1368857934838,699.4838033136213 L1155.6924863871534,699.3715217220495 M1155.6924863871534,699.3715217220495 L1155.2189404924143,699.2028627381757 M1155.2189404924143,699.2028627381757 L1154.7435638862319,698.9875588783028 M1154.7435638862319,698.9875588783028 L1154.2943239794686,698.7382869486208 M1154.2943239794686,698.7382869486208 L1153.897115218387,698.4694764500427 M1153.897115218387,698.4694764500427 L1153.5751683647331,698.1968344802912 M1153.5751683647331,698.1968344802912 L1153.3471103898207,697.9361905829616 M1153.3471103898207,697.9361905829616 L1153.2259959555213,697.7026169666233 M1153.2259959555213,697.7026169666233 L1153.2189199708023,697.5097021191103 M1153.2189199708023,697.5097021191103 L1153.326241245189,697.3686159809575 M1153.326241245189,697.3686159809575 L1153.5415736883883,697.287469968146 M1153.5415736883883,697.287469968146 L1153.8525424763059,697.2710077074505 M1153.8525424763059,697.2710077074505 L1154.2411458033148,697.3201919621507 M1154.2411458033148,697.3201919621507 L1154.6846901594586,697.4321072250698 M1154.6846901594586,697.4321072250698 L1155.1576902777924,697.6003692269904 M1155.962382922402,696.8895101743493 L1156.4374921033477,697.104248463166 M1156.4374921033477,697.104248463166 L1156.8870562461861,697.3531400650056 M1156.8870562461861,697.3531400650056 L1157.2849797594768,697.6217619601179 M1157.2849797594768,697.6217619601179 L1157.6079321648078,697.8944477628149 M1157.6079321648078,697.8944477628149 L1157.8371141286696,698.1553552346212 M1157.8371141286696,698.1553552346212 L1157.9592623900996,698.3893493710369 M1157.9592623900996,698.3893493710369 L1157.9670811379217,698.5827430540182 M1157.9670811379217,698.5827430540182 L1157.8600632000225,698.7242547764189 M1157.8600632000225,698.7242547764189 L1157.6445317533157,698.8056744359894 M1157.6445317533157,698.8056744359894 L1157.3328968768408,698.8221947855043 M1157.3328968768408,698.8221947855043 L1156.943287538001,698.7728395568059 M1156.943287538001,698.7728395568059 L1156.4985888696576,698.6605641263097 M1156.4985888696576,698.6605641263097 L1156.0246926796503,698.4919144163075 M1156.0246926796503,698.4919144163075 L1155.5489349859113,698.2766224287485 M1155.5489349859113,698.2766224287485 L1155.0993056457414,698.027364291563 M1155.0993056457414,698.027364291563 L1154.7017215946375,697.7585687232269 M1154.7017215946375,697.7585687232269 L1154.3794355191062,697.4859419565781 M1154.3794355191062,697.4859419565781 L1154.1510940231262,697.2253126498583 M1154.1510940231262,697.2253126498583 L1154.029768058983,696.9917521557206 M1154.029768058983,696.9917521557206 L1154.0225648308415,696.7988481796626 M1154.0225648308415,696.7988481796626 L1154.1298504629608,696.6577700113982 M1154.1298504629608,696.6577700113982 L1154.3452407923908,696.5766285898222 M1154.3452407923908,696.5766285898222 L1154.6563577260379,696.5601672612139 M1154.6563577260379,696.5601672612139 L1155.0451909110252,696.6093487317742 M1155.0451909110252,696.6093487317742 L1155.489033420271,696.7212576669164 M1155.489033420271,696.7212576669164 L1155.962382922402,696.8895101743493 M1155.962382922402,696.8895101743493 L1155.1576902777924,697.6003692269904" stroke="black"  stroke-width="4"  fill="red"/>
<path d="M-417.51859244055004,74.69588129491393 L-457.34971192674595,91.20181539967928 M-417.51859244055004,74.69588129491393 L-421.22488883129904,73.16743081245232 M-461.0537256059149,89.5925662648338 L-421.22488883129904,73.16743081245232 M-457.34971192674595,91.20181539967928 L-461.0537256059149,89.5925662648338 M-457.34971192674595,91.20181539967928 L-457.8884602134315,61.39008717931358 M-457.8884602134315,61.39008717931358 L-453.9459911347509,59.83199447668062 M-453.9459911347509,59.83199447668062 L-454.4400988089287,29.172613805063918 M-454.4400988089287,29.172613805063918 L-397.68866172106596,7.8653167450149795 M-397.68866172106596,7.8653167450149795 L-397.7454838007029,9.74525840607248 M-397.7454838007029,9.74525840607248 L-397.8734455721035,11.643624314837382 M-397.8734455721035,11.643624314837382 L-398.07203132428504,13.555403172192314 M-398.07203132428504,13.555403172192314 L-398.3405554424771,15.475449323516102 M-398.3405554424771,15.475449323516102 L-398.6781595861853,17.398737999330365 M-398.6781595861853,17.398737999330365 L-399.08381922911053,19.3201677040351 M-399.08381922911053,19.3201677040351 L-399.5563505043922,21.234688212057165 M-399.5563505043922,21.234688212057165 L-400.094404038638,23.137357787712517 M-400.094404038638,23.137357787712517 L-400.6964794064954,25.023149554306485 M-400.6964794064954,25.023149554306485 L-401.3609247075631,26.88720527544865 M-401.3609247075631,26.88720527544865 L-402.08593880270485,28.724669577948816 M-402.08593880270485,28.724669577948816 L-402.8695799900772,30.530753264691953 M-402.8695799900772,30.530753264691953 L-403.70976655103937,32.300761112805844 M-403.70976655103937,32.300761112805844 L-404.6042845643975,34.030154719823486 M-404.6042845643975,34.030154719823486 L-405.5507905673504,35.714388575654255 M-405.5507905673504,35.714388575654255 L-406.54681692019835,37.34910123817218 M-406.54681692019835,37.34910123817218 L-407.589776141077,38.930049086922054 M-407.589776141077,38.930049086922054 L-407.57773905454076,38.95235844850549 M-407.57773905454076,38.95235844850549 L-407.57087138062184,38.979845014695115 M-407.57087138062184,38.979845014695115 L-407.5695704363243,39.01096487671339 M-407.5695704363243,39.01096487671339 L-407.5739123801776,39.04385552607698 M-407.5739123801776,39.04385552607698 L-407.5836438287281,39.07662120162422 M-407.5836438287281,39.07662120162422 L-407.5981999280559,39.10737194949911 M-407.5981999280559,39.10737194949911 L-407.6167352096429,39.134299788441126 M-407.6167352096429,39.134299788441126 L-407.6381721121553,39.15585808078151 M-407.6381721121553,39.15585808078151 L-407.6612647300251,39.170786551533354 M-407.6612647300251,39.170786551533354 L-407.68467262627064,39.17820449026436 M-407.68467262627064,39.17820449026436 L-407.7070353959284,39.17770431626877 M-407.7070353959284,39.17770431626877 L-407.7270523505897,39.16931889924513 M-407.7270523505897,39.16931889924513 L-407.74356076956315,39.15348833634971 M-407.74356076956315,39.15348833634971 L-408.791218828874,40.741819333420494 M-408.791218828874,40.741819333420494 L-409.79168446416384,42.38467677833876 M-409.79168446416384,42.38467677833876 L-410.7419192180371,44.077092632531276 M-410.7419192180371,44.077092632531276 L-411.63904765763255,45.813910669520226 M-411.63904765763255,45.813910669520226 L-412.48036794194104,47.58985875160437 M-412.48036794194104,47.58985875160437 L-413.26335868436786,49.399555853359175 M-413.26335868436786,49.399555853359175 L-413.9856906901863,51.23752137510354 M-413.9856906901863,51.23752137510354 L-414.6452326393046,53.09815049452891 M-414.6452326393046,53.09815049452891 L-415.2400594110545,54.97581842248837 M-415.2400594110545,54.97581842248837 L-415.76845846787865,56.864824448569436 M-415.76845846787865,56.864824448569436 L-416.22893351830953,58.759494280234435 M-416.22893351830953,58.759494280234435 L-416.6202101903534,60.654060581948784 M-416.6202101903534,60.654060581948784 L-416.9412386180809,62.54289162496491 M-416.9412386180809,62.54289162496491 L-417.1911954788209,64.42030682126517 M-417.1911954788209,64.42030682126517 L-417.3694856019671,66.28070930023557 M-417.3694856019671,66.28070930023557 L-417.47574203491854,68.11862201840245 M-417.47574203491854,68.11862201840245 L-417.5098253588965,69.92862870218391 M-417.5098253588965,69.92862870218391 L-417.51859244055004,74.69588129491393 M-417.5098253588965,69.92862870218391 L-421.22488837333526,68.408131113097 M-421.22488837333526,68.408131113097 L-421.22488883129904,73.16743081245232 M-421.22488837333526,68.408131113097 L-421.1941101229162,66.60119821538359 M-421.1941101229162,66.60119821538359 L-421.09115548554007,64.7665073965407 M-421.09115548554007,64.7665073965407 L-420.91615441098907,62.90946515045874 M-420.91615441098907,62.90946515045874 L-420.6694643853609,61.03553824080825 M-420.6694643853609,61.03553824080825 L-420.3516710015157,59.15031266638806 M-420.3516710015157,59.15031266638806 L-419.9635879548705,57.25945762135257 M-419.9635879548705,57.25945762135257 L-419.50625567389864,55.368593156078646 M-419.50625567389864,55.368593156078646 L-418.98093893907355,53.48347434492604 M-418.98093893907355,53.48347434492604 L-418.3891247140184,51.60976304035205 M-418.3891247140184,51.60976304035205 L-417.73251624744137,49.75314715156651 M-417.73251624744137,49.75314715156651 L-417.013029596837,47.91923849822297 M-417.013029596837,47.91923849822297 L-416.2327871387372,46.113628691557665 M-416.2327871387372,46.113628691557665 L-415.3941094330655,44.341785081802186 M-415.3941094330655,44.341785081802186 L-414.49950949484844,42.60907538603993 M-414.49950949484844,42.60907538603993 L-413.5516810702503,40.920758419392996 M-413.5516810702503,40.920758419392996 L-412.5534917878572,39.2819771055793 M-412.5534917878572,39.2819771055793 L-411.50797272404077,37.69768635083585 M-411.50797272404077,37.69768635083585 L-411.491422334767,37.7135100830867 M-411.491422334767,37.7135100830867 L-411.47137450734067,37.721905867001226 M-411.47137450734067,37.721905867001226 L-411.4489936684755,37.72243292094669 M-411.4489936684755,37.72243292094669 L-411.4255815646984,37.7150568172147 M-411.4255815646984,37.7150568172147 L-411.40249888962956,37.70018274504332 M-411.40249888962956,37.70018274504332 L-411.3810854776707,37.6786882326295 M-411.3810854776707,37.6786882326295 L-411.3625858564609,37.651829835901935 M-411.3625858564609,37.651829835901935 L-411.34807554982524,37.621150188861634 M-411.34807554982524,37.621150188861634 L-411.3383973264297,37.58845310646075 M-411.3383973264297,37.58845310646075 L-411.3341129728817,37.55562458286505 M-411.3341129728817,37.55562458286505 L-411.3354725552581,37.52455679548359 M-411.3354725552581,37.52455679548359 L-411.3423964061785,37.49710913449951 M-411.3423964061785,37.49710913449951 L-411.35448404346516,37.47482333760388 M-401.50348081119796,6.476487470931318 L-401.5568425523795,8.35302110826666 M-401.5568425523795,8.35302110826666 L-401.6813649671576,10.24787024404219 M-401.6813649671576,10.24787024404219 L-401.8765416672504,12.156032437883255 M-401.8765416672504,12.156032437883255 L-402.1416964162031,14.07237124588994 M-402.1416964162031,14.07237124588994 L-402.47597982591924,15.9918710227073 M-402.47597982591924,15.9918710227073 L-402.8783762670638,17.909439661760985 M-402.8783762670638,17.909439661760985 L-403.34771047911374,19.820036368056094 M-403.34771047911374,19.820036368056094 L-403.88264129198876,21.71872879713777 M-403.88264129198876,21.71872879713777 L-404.48167645206513,23.60049975737911 M-404.48167645206513,23.60049975737911 L-405.1431717268754,25.46050055946563 M-405.1431717268754,25.46050055946563 L-405.865333453114,27.293885538469 M-405.865333453114,27.293885538469 L-406.646227103706,29.09587525727835 M-406.646227103706,29.09587525727835 L-407.4837777854285,30.861784267663438 M-407.4837777854285,30.861784267663438 L-408.3757779463465,32.587083849909334 M-408.3757779463465,32.587083849909334 L-409.3198903476275,34.2672383769567 M-409.3198903476275,34.2672383769567 L-410.3136530825536,35.8978961630541 M-410.3136530825536,35.8978961630541 L-411.35448404346516,37.47482333760388 M-401.50348081119796,6.476487470931318 L-458.25366721503894,27.67719861004946 M-457.7042128512394,58.28173205797225 L-458.25366721503894,27.67719861004946 M-457.7042128512394,58.28173205797225 L-461.64621781120616,59.831994787897315 M-461.0537256059149,89.5925662648338 L-461.64621781120616,59.831994787897315 M-461.64621781120616,59.831994787897315 L-457.8884602134315,61.39008717931358 M-407.74356076956315,39.15348833634971 L-411.50797272404077,37.69768635083585 M-407.589776141077,38.930049086922054 L-411.35448404346516,37.47482333760388 M-397.68866172106596,7.8653167450149795 L-401.50348081119796,6.476487470931318 M-454.4400988089287,29.172613805063918 L-458.25366721503894,27.67719861004946 M-453.9459911347509,59.83199447668062 L-457.7042128512394,58.28173205797225" stroke="black"  stroke-width="4"  fill="red"/>
<path d="M-409.5395951348112,69.86526209071002 L-409.5143732815134,65.50466651316935 M-409.5143732815134,65.50466651316935 L-409.47329187813807,65.5258208981084 M-409.47329187813807,65.5258208981084 L-409.44575481146,65.55032889809996 M-409.44575481146,65.55032889809996 L-409.43336253332245,65.5767663397076 M-409.43336253332245,65.5767663397076 L-409.4368380072817,65.6035974882426 M-409.4368380072817,65.6035974882426 L-409.45598077836905,65.62926255469893 M-409.45598077836905,65.62926255469893 L-409.4896805266644,65.65226990826534 M-409.4896805266644,65.65226990826534 L-409.53597901987507,65.67128140830721 M-409.53597901987507,65.67128140830721 L-409.59218610227845,65.68519157563992 M-409.59218610227845,65.68519157563992 L-409.6550335397725,65.6931910023851 M-409.6550335397725,65.6931910023851 L-409.720868187458,65.69481454540266 M-409.720868187458,65.69481454540266 L-409.78586110071615,65.68996755934177 M-409.78586110071615,65.68996755934177 L-409.8462342798216,65.67893239352793 M-409.8462342798216,65.67893239352793 L-409.8984765716009,65.66235048255118 M-409.8984765716009,65.66235048255118 L-409.9395523481953,65.6411868951314 M-409.9395523481953,65.6411868951314 L-409.96707399496154,65.61667174278165 M-409.96707399496154,65.61667174278165 L-409.97944440716356,65.59023091279113 M-409.97944440716356,65.59023091279113 L-409.97594563004327,65.56340091601976 M-409.97594563004327,65.56340091601976 L-409.9567834573538,65.5377412776038 M-409.9567834573538,65.5377412776038 L-409.9230726534645,65.51474238494148 M-409.9230726534645,65.51474238494148 L-409.8767739835059,65.49574044029225 M-409.8767739835059,65.49574044029225 L-409.82057764368994,65.48183873392077 M-409.82057764368994,65.48183873392077 L-409.75774940699137,65.47384473523721 M-409.75774940699137,65.47384473523721 L-409.6919380198583,65.4722223440101 M-409.6919380198583,65.4722223440101 L-409.6269670978886,65.47706594159922 M-409.6269670978886,65.47706594159922 L-409.5666096032892,65.48809395517623 M-409.5666096032892,65.48809395517623 L-409.5143732815134,65.50466651316935 M-409.5395951348112,69.86526209071002 L-409.59171828612284,69.84860941215248 M-409.59171828612284,69.84860941215248 L-409.6519453482042,69.83752808223119 M-409.6519453482042,69.83752808223119 L-409.7167761529158,69.83266106738199 M-409.7167761529158,69.83266106738199 L-409.7824458708501,69.83429130237494 M-409.7824458708501,69.83429130237494 L-409.84513911305726,69.84232394933241 M-409.84513911305726,69.84232394933241 L-409.9012149693742,69.85629286468395 M-409.9012149693742,69.85629286468395 L-409.9474146666007,69.87538667367494 M-409.9474146666007,69.87538667367494 L-409.9810537594245,69.89849675044911 M-409.9810537594245,69.89849675044911 L-410.0001756558262,69.92428043154615 M-410.0001756558262,69.92428043154615 L-410.00366793817534,69.95124012379779 M-410.00366793817534,69.95124012379779 L-409.9913251997358,69.97780876315119 M-409.9913251997358,69.97780876315119 L-409.96386379307796,70.00244241220486 M-409.96386379307796,70.00244241220486 L-409.92287732986165,70.02370829280824 M-409.92287732986165,70.02370829280824 L-409.87074823420915,70.0403703494801 M-409.87074823420915,70.0403703494801 L-409.81050555540196,70.0514588507308 M-409.81050555540196,70.0514588507308 L-409.7456528541735,70.05632926309738 M-409.7456528541735,70.05632926309738 L-409.6799599757401,70.05469787323932 M-409.6799599757401,70.05469787323932 L-409.6172476151505,70.04665978373009 M-409.6172476151505,70.04665978373009 L-409.5611610621402,70.03268238483082 M-409.5611610621402,70.03268238483082 L-409.5149615405219,70.01357899493883 M-409.5149615405219,70.01357899493883 L-409.48133345537997,69.9904604346741 M-409.48133345537997,69.9904604346741 L-409.46223087687235,69.96467131104669 M-409.46223087687235,69.96467131104669 L-409.45876179735615,69.93771046395693 M-409.45876179735615,69.93771046395693 L-409.4711263077678,69.91114522203156 M-409.4711263077678,69.91114522203156 L-409.4986030682634,69.88651874442945 M-409.4986030682634,69.88651874442945 L-409.5395951348112,69.86526209071002 M-409.22642342826396,65.38645592498881 L-409.1237109235997,65.4393249151176 M-409.1237109235997,65.4393249151176 L-409.05483872195157,65.5005811715136 M-409.05483872195157,65.5005811715136 L-409.0238173104311,65.56666861153144 M-409.0238173104311,65.56666861153144 L-409.032462211587,65.63374837957338 M-409.032462211587,65.63374837957338 L-409.080282927482,65.69792145192173 M-409.080282927482,65.69792145192173 L-409.16451072656696,65.75545544454076 M-409.16451072656696,65.75545544454076 L-409.28025661843617,65.80300212289478 M-409.28025661843617,65.80300212289478 L-409.42079383151145,65.83779307959975 M-409.42079383151145,65.83779307959975 L-409.5779489981654,65.85780190839 M-409.5779489981654,65.85780190839 L-409.7425786123292,65.86186288992195 M-409.7425786123292,65.86186288992195 L-409.9051026130086,65.84973917844115 M-409.9051026130086,65.84973917844115 L-410.0560641557604,65.82213757868357 M-410.0560641557604,65.82213757868357 L-410.1866817342933,65.78066588161835 M-410.1866817342933,65.78066588161835 L-410.28936004636216,65.72773898079708 M-410.28936004636216,65.72773898079708 L-410.35813606041575,65.66643794731527 M-410.35813606041575,65.66643794731527 L-410.38902062360194,65.60032940514935 M-410.38902062360194,65.60032940514935 L-410.38023017132195,65.53325679809376 M-410.38023017132195,65.53325679809376 L-410.33228819514557,65.46911765119472 M-410.33228819514557,65.46911765119472 L-410.2479912988042,65.41163653905261 M-410.2479912988042,65.41163653905261 L-410.1322443022484,65.3641495819245 M-410.1322443022484,65.3641495819245 L-409.99177423013725,65.32941150569616 M-409.99177423013725,65.32941150569616 L-409.8347390687261,65.30943660239461 M-409.8347390687261,65.30943660239461 L-409.6702547394076,65.30538285704336 M-409.6702547394076,65.30538285704336 L-409.5078683705308,65.31748531565819 M-409.5078683705308,65.31748531565819 L-409.3570046690859,65.34504228867604 M-409.3570046690859,65.34504228867604 L-409.22642342826396,65.38645592498881 M-409.22338537952635,64.87378416977123 L-409.1206466078736,64.92662299725191 M-409.1206466078736,64.92662299725191 L-409.05175666307855,64.98784430876503 M-409.05175666307855,64.98784430876503 L-409.0207270674807,65.05389405127369 M-409.0207270674807,65.05389405127369 L-409.0293738254146,65.12093555939532 M-409.0293738254146,65.12093555939532 L-409.0772063372091,65.1850720331231 M-409.0772063372091,65.1850720331231 L-409.1614551910668,65.24257321630932 M-409.1614551910668,65.24257321630932 L-409.2772301760044,65.29009278264431 M-409.2772301760044,65.29009278264431 L-409.4178028297018,65.32486390204957 M-409.4178028297018,65.32486390204957 L-409.5749977219356,65.34486132254119 M-409.5749977219356,65.34486132254119 L-409.73966903275345,65.34891998869045 M-409.73966903275345,65.34891998869045 L-409.9022342716162,65.33680318962547 M-409.9022342716162,65.33680318962547 L-410.05323419155275,65.30921732755155 M-410.05323419155275,65.30921732755155 L-410.18388505171765,65.2677692776881 M-410.18388505171765,65.2677692776881 L-410.28658961377096,65.21487255786758 M-410.28658961377096,65.21487255786758 L-410.3553833224033,65.15360648349287 M-410.3553833224033,65.15360648349287 L-410.38627600048267,65.0875356455116 M-410.38627600048267,65.0875356455116 L-410.37748361762795,65.02050129611422 M-410.37748361762795,65.02050129611422 L-410.32952978395974,64.95639873707307 M-410.32952978395974,64.95639873707307 L-410.24521179759154,64.89895041758774 M-410.24521179759154,64.89895041758774 L-410.12943570712787,64.85149055353247 M-410.12943570712787,64.85149055353247 L-409.98893022816196,64.81677229782781 M-409.98893022816196,64.81677229782781 L-409.8318554018093,64.79680879206234 M-409.8318554018093,64.79680879206234 L-409.6673294494309,64.7927573597886 M-409.6673294494309,64.7927573597886 L-409.50490191215044,64.80485291274908 M-409.50490191215044,64.80485291274908 L-409.35399988334575,64.8323941622217 M-409.35399988334575,64.8323941622217 L-409.22338537952635,64.87378416977123 M-409.22338537952635,64.87378416977123 L-409.22642342826396,65.38645592498881" stroke="black"  stroke-width="4"  fill="red"/>
<path d="M-457.7042128512394,58.28173205797225 L-461.64621781120616,59.831994787897315 M-461.64621781120616,59.831994787897315 L-462.2566040763887,29.172614105281355 M-458.25366721503894,27.67719861004946 L-462.2566040763887,29.172614105281355 M-457.7042128512394,58.28173205797225 L-458.25366721503894,27.67719861004946 M-457.34971192674595,91.20181539967928 L-378.3836601423644,125.50947771497965 M-378.3836601423644,125.50947771497965 L-378.27112353924576,120.34868781978741 M-378.27112353924576,120.34868781978741 L-287.46469895171845,159.49947331777736 M-287.8353377656538,164.84918379271934 L-287.46469895171845,159.49947331777736 M-287.8353377656538,164.84918379271934 L217.78747062050547,384.5225266665884 M217.78747062050547,384.5225266665884 L220.1052345406697,378.3359893644512 M220.1052345406697,378.3359893644512 L397.13236809808086,454.6604494972223 M393.9344707851178,461.05151175503784 L397.13236809808086,454.6604494972223 M393.9344707851178,461.05151175503784 L1143.1541725891875,786.5581813761714 M1143.1541725891875,786.5581813761714 L1192.2928594273121,745.6106340586929 M1192.2928594273121,745.6106340586929 L1209.0940244871274,752.5769608547934 M1209.0940244871274,752.5769608547934 L1262.2566040763886,708.959981897413 M-462.2566040763887,29.172614105281355 L1262.2566040763886,708.959981897413 M-461.64621781120616,59.831994787897315 L-457.8884602134315,61.39008717931358 M-457.34971192674595,91.20181539967928 L-457.8884602134315,61.39008717931358 M1208.55205271609,745.6106507094096 L1191.8426464824713,738.7180385973403 M1142.9697055377333,779.6643379247585 L1191.8426464824713,738.7180385973403 M1142.9697055377333,779.6643379247585 L396.7108406585371,457.08820377589007 M396.7108406585371,457.08820377589007 L399.9070907977582,450.7066283991876 M399.9070907977582,450.7066283991876 L223.3111787018604,374.955178423026 M220.99021644225695,381.13161241387036 L223.3111787018604,374.955178423026 M220.99021644225695,381.13161241387036 L-283.98050498822886,162.8541341238403 M-283.98050498822886,162.8541341238403 L-283.6002117622879,157.51371909729005 M-283.6002117622879,157.51371909729005 L-374.3792967427246,118.5737049533443 M-374.50170896966597,123.72564746450945 L-374.3792967427246,118.5737049533443 M-374.50170896966597,123.72564746450945 L-453.4663687018285,89.59256594338706 M-453.4663687018285,89.59256594338706 L-453.9459911347509,59.83199447668062 M-453.9459911347509,59.83199447668062 L-457.7042128512394,58.28173205797225 M1261.405118424977,702.0072759638016 L-458.25366721503894,27.67719861004946 M1208.55205271609,745.6106507094096 L1261.405118424977,702.0072759638016 M-457.34971192674595,91.20181539967928 L-453.4663687018285,89.59256594338706 M-457.8884602134315,61.39008717931358 L-453.9459911347509,59.83199447668062 M-374.50170896966597,123.72564746450945 L-378.3836601423644,125.50947771497965 M-374.3792967427246,118.5737049533443 L-378.27112353924576,120.34868781978741 M-287.8353377656538,164.84918379271934 L-283.98050498822886,162.8541341238403 M-287.46469895171845,159.49947331777736 L-283.6002117622879,157.51371909729005 M220.99021644225695,381.13161241387036 L217.78747062050547,384.5225266665884 M223.3111787018604,374.955178423026 L220.1052345406697,378.3359893644512 M393.9344707851178,461.05151175503784 L396.7108406585371,457.08820377589007 M397.13236809808086,454.6604494972223 L399.9070907977582,450.7066283991876 M1142.9697055377333,779.6643379247585 L1143.1541725891875,786.5581813761714 M1191.8426464824713,738.7180385973403 L1192.2928594273121,745.6106340586929 M1209.0940244871274,752.5769608547934 L1208.55205271609,745.6106507094096 M1262.2566040763886,708.959981897413 L1261.405118424977,702.0072759638016" stroke="black"  stroke-width="4"  fill="red"/></svg>