<svg viewBox="0 0 800 800" xmlns="http://www.w3.org/2000/svg"><path d="M-262.6122328157676,24.927581257406814 L-280.4600135213361,33.955348323645296 M-280.4600131203031,29.787688682193505 L-280.4600135213361,33.955348323645296 M-280.4600131203031,29.787688682193505 L-280.4601136673459,29.767660602465753 M-280.4601136673459,29.767660602465753 L-280.4601739967584,29.74759828281924 M-280.4601739967584,29.74759828281924 L-280.4601941068905,29.727515299686274 M-262.5724939855688,20.728971208199425 L-280.4601941068905,29.727515299686274 M-262.6122328157676,24.927581257406814 L-262.5724939855688,20.728971208199425 M1087.5511769113116,725.9228069391658 L1075.2646960474713,719.708058844897 M1067.9337792994384,780.9560742337779 L1075.2646960474713,719.708058844897 M1067.9337792994384,780.9560742337779 L449.12149633413765,453.986059535054 M446.3348688804774,458.14111564652444 L449.12149633413765,453.986059535054 M294.0143304307262,377.27775883076424 L446.3348688804774,458.14111564652444 M297.1061530838482,373.66370591466546 L294.0143304307262,377.27775883076424 M297.1061530838482,373.66370591466546 L-154.03550695099318,135.2880316214156 M-157.61369130712183,137.51916657873426 L-154.03550695099318,135.2880316214156 M-240.83167603998504,93.34071460220116 L-157.61369130712183,137.51916657873426 M-237.23224239432716,91.3282742610109 L-240.83167603998504,93.34071460220116 M-237.23224239432716,91.3282742610109 L-310.4036266616199,52.66574404303162 M-277.0121084498106,35.69936776338136 L-310.4036266616199,52.66574404303162 M-277.0121084498106,35.69936776338136 L-280.4600135213361,33.955348323645296 M1091.101989702184,693.8770896742355 L-262.6122328157676,24.927581257406814 M1087.5511769113116,725.9228069391658 L1091.101989702184,693.8770896742355 M-269.58348124596773,30.185404593453825 L-269.6319765935666,30.166385858352328 M-269.6319765935666,30.166385858352328 L-269.68802191796556,30.153730024375022 M-269.68802191796556,30.153730024375022 L-269.7483599889988,30.14817146392113 M-269.7483599889988,30.14817146392113 L-269.8094867552311,30.15003333682239 M-269.8094867552311,30.15003333682239 L-269.8678506417692,30.1592073218751 M-269.8678506417692,30.1592073218751 L-269.9200620590225,30.175161004952542 M-269.9200620590225,30.175161004952542 L-269.9630867509359,30.196967669112098 M-269.9630867509359,30.196967669112098 L-269.99442475854335,30.223361108648817 M-269.99442475854335,30.223361108648817 L-270.01225339405687,30.252807842907316 M-270.01225339405687,30.252807842907316 L-270.0155355863917,30.283597480187154 M-270.0155355863917,30.283597480187154 L-270.0040784376822,30.313940328355613 M-270.0040784376822,30.313940328355613 L-269.97854702214977,30.3420731492713 M-269.97854702214977,30.3420731492713 L-269.94042303457707,30.36635969016936 M-269.94042303457707,30.36635969016936 L-269.8919225422692,30.385388387069042 M-269.8919225422692,30.385388387069042 L-269.8358637143374,30.398051834062812 M-269.8358637143374,30.398051834062812 L-269.77550670229766,30.40361400128927 M-269.77550670229766,30.40361400128927 L-269.71435989637837,30.401750902393985 M-269.71435989637837,30.401750902393985 L-269.6559794625898,30.392571139579218 M-269.6559794625898,30.392571139579218 L-269.60375878110926,30.376608450446724 M-269.60375878110926,30.376608450446724 L-269.5607342304262,30.354791615292413 M-269.5607342304262,30.354791615292413 L-269.52940573715387,30.328389169761294 M-269.52940573715387,30.328389169761294 L-269.5115938093452,30.298936657763306 M-269.5115938093452,30.298936657763306 L-269.5083316907435,30.26814579451809 M-269.5083316907435,30.26814579451809 L-269.5198076802965,30.23780655302761 M-269.5198076802965,30.23780655302761 L-269.5453523879379,30.209681345257763 M-269.5453523879379,30.209681345257763 L-269.58348124596773,30.185404593453825 M1083.2908479832317,706.3584848475732 L1083.1369558685535,706.2913693586623 M1083.1369558685535,706.2913693586623 L1082.9900343798754,706.2467702681483 M1082.9900343798754,706.2467702681483 L1082.8583584982225,706.2271454473399 M1082.8583584982225,706.2271454473399 L1082.749845737188,706.2337713345448 M1082.749845737188,706.2337713345448 L1082.6704844392032,706.2661060971391 M1082.6704844392032,706.2661060971391 L1082.6249352770349,706.3223003250106 M1082.6249352770349,706.3223003250106 L1082.6160385238459,706.3991876033188 M1082.6160385238459,706.3991876033188 L1082.6443165632752,706.4923061737402 M1082.6443165632752,706.4923061737402 L1082.707942719845,706.5961527253342 M1082.707942719845,706.5961527253342 L1082.8031766287327,706.7046712802818 M1082.8031766287327,706.7046712802818 L1082.9248033297401,706.8117111389306 M1082.9248033297401,706.8117111389306 L1083.0654850370502,706.9109146620875 M1083.0654850370502,706.9109146620875 L1083.2173018388003,706.9966381322693 M1083.2173018388003,706.9966381322693 L1083.3711168495865,707.063741145511 M1083.3711168495865,707.063741145511 L1083.5181330817327,707.1083906318347 M1083.5181330817327,707.1083906318347 L1083.6498981470256,707.1280393734651 M1083.6498981470256,707.1280393734651 L1083.758629770338,707.1214832380278 M1083.758629770338,707.1214832380278 L1083.8378577598128,707.089032277478 M1083.8378577598128,707.089032277478 L1083.8833839198398,707.0327784625747 M1083.8833839198398,707.0327784625747 L1083.8922171793768,706.9558238193624 M1083.8922171793768,706.9558238193624 L1083.863849730499,706.8626455705697 M1083.863849730499,706.8626455705697 L1083.8002847331466,706.7588386686467 M1083.8002847331466,706.7588386686467 L1083.70481662701,706.6502340919614 M1083.70481662701,706.6502340919614 L1083.583145803719,706.5432181212666 M1083.583145803719,706.5432181212666 L1083.4424643617047,706.4440650038194 M1083.4424643617047,706.4440650038194 L1083.2908479832317,706.3584848475732 M-277.0044338661012,31.526179861957075 L-280.4600131203031,29.787688682193505 M-277.0044338661012,31.526179861957075 L-277.0121084498106,35.69936776338136 M-277.0045038823854,31.46592664607641 L-277.0045207712743,31.486036339376767 M-277.0045207712743,31.486036339376767 L-277.0044974402955,31.506125276173236 M-277.0044974402955,31.506125276173236 L-277.0044338661012,31.526179861957075 M-280.4601941068905,29.727515299686274 L-277.0045038823854,31.46592664607641 M1081.03595135876,714.6385442339543 L1093.3996351291617,720.8581897326258 M1093.3996351291617,720.8581897326258 L1096.836961066851,688.7893214436343 M1096.836961066851,688.7893214436343 L-262.5724939855688,20.728971208199425 M-277.0045038823854,31.46592664607641 L-310.4727188949232,48.37857103803333 M-310.4727188949232,48.37857103803333 L-237.12762137125594,86.92510711186719 M-237.12762137125594,86.92510711186719 L-240.73553374195933,88.9317473293192 M-240.73553374195933,88.9317473293192 L-157.29981790736554,132.98879428271516 M-157.29981790736554,132.98879428271516 L-153.7133144771292,130.76351892570062 M-153.7133144771292,130.76351892570062 L298.98015681134177,368.6766966371267 M298.98015681134177,368.6766966371267 L295.8843698977513,372.2862802687879 M295.8843698977513,372.2862802687879 L448.87254555400295,453.06951764837606 M448.87254555400295,453.06951764837606 L451.66003921233664,448.9176506125385 M451.66003921233664,448.9176506125385 L1073.915751644925,775.94431055654 M1081.03595135876,714.6385442339543 L1073.915751644925,775.94431055654 M-269.29090539721926,25.834443805823753 L-269.1953598950332,25.89492086427788 M-269.1953598950332,25.89492086427788 L-269.13132709277306,25.964991247776084 M-269.13132709277306,25.964991247776084 L-269.1025351500166,26.04058688304906 M-269.1025351500166,26.04058688304906 L-269.11066838207137,26.11731646064618 M-269.11066838207137,26.11731646064618 L-269.15526438708935,26.190720108779146 M-269.15526438708935,26.190720108779146 L-269.2337404370651,26.25652881488179 M-269.2337404370651,26.25652881488179 L-269.3415410023746,26.310913154972468 M-269.3415410023746,26.310913154972468 L-269.4724010547908,26.35070700976337 M-269.4724010547908,26.35070700976337 L-269.6187104038662,26.373592942529626 M-269.6187104038662,26.373592942529626 L-269.77195723930424,26.378237846959053 M-269.77195723930424,26.378237846959053 L-269.92322469685416,26.364370871196968 M-269.92322469685416,26.364370871196968 L-270.0637116928617,26.332800305211435 M-270.0637116928617,26.332800305211435 L-270.18524658209697,26.28536482388364 M-270.18524658209697,26.28536482388364 L-270.28076241860765,26.224826192017815 M-270.28076241860765,26.224826192017815 L-270.3447119475111,26.15470818865083 M-270.3447119475111,26.15470818865083 L-270.37338543381725,26.07909012041415 M-270.37338543381725,26.07909012041415 L-270.3651262645327,26.00236815444157 M-270.3651262645327,26.00236815444157 L-270.3204253662168,25.92900058101185 M-270.3204253662168,25.92900058101185 L-270.24188958311333,25.863248105483592 M-270.24188958311333,25.863248105483592 L-270.13408812915463,25.808927270092283 M-270.13408812915463,25.808927270092283 L-270.00328623615485,25.769189645874008 M-270.00328623615485,25.769189645874008 L-269.8570807707781,25.746339787851582 M-269.8570807707781,25.746339787851582 L-269.70395965836406,25.741702581057552 M-269.70395965836406,25.741702581057552 L-269.55281128751335,25.75554695148429 M-269.55281128751335,25.75554695148429 L-269.4124088951687,25.787070069580295 M-269.4124088951687,25.787070069580295 L-269.29090539721926,25.834443805823753 M1089.0964375800052,700.8003176073097 L1089.477846776367,701.0142947488476 M1089.477846776367,701.0142947488476 L1089.8321015817792,701.2622919694768 M1089.8321015817792,701.2622919694768 L1090.1386351825713,701.529933915645 M1090.1386351825713,701.529933915645 L1090.3794668969076,701.8016093710405 M1090.3794668969076,701.8016093710405 L1090.5405796678947,702.0615354495434 M1090.5405796678947,702.0615354495434 L1090.6126625614324,702.2946372104709 M1090.6126625614324,702.2946372104709 L1090.5913755552397,702.4872846363611 M1090.5913755552397,702.4872846363611 L1090.4779213562579,702.6282453023633 M1090.4779213562579,702.6282453023633 L1090.278983425871,702.7093459938418 M1090.278983425871,702.7093459938418 L1090.0060318534038,702.7258014529116 M1090.0060318534038,702.7258014529116 L1089.6749422427467,702.6766399161945 M1089.6749422427467,702.6766399161945 L1089.3051468013232,702.564803190786 M1089.3051468013232,702.564803190786 L1088.9181670909447,702.3968074658679 M1088.9181670909447,702.3968074658679 L1088.536318416753,702.1823416130293 M1088.536318416753,702.1823416130293 L1088.1820606142148,701.9340277340369 M1088.1820606142148,701.9340277340369 L1087.8758044353103,701.6662357475458 M1087.8758044353103,701.6662357475458 L1087.6354669812488,701.3946112947614 M1087.6354669812488,701.3946112947614 L1087.474952025543,701.1349255295177 M1087.474952025543,701.1349255295177 L1087.4034337158398,700.9021984021696 M1087.4034337158398,700.9021984021696 L1087.425122571784,700.7099740453623 M1087.425122571784,700.7099740453623 L1087.5387238015837,700.5693879367229 M1087.5387238015837,700.5693879367229 L1087.7375204965506,700.4885276214136 M1087.7375204965506,700.4885276214136 L1088.0100746850849,700.4721231518533 M1088.0100746850849,700.4721231518533 L1088.340601774233,700.5211345749433 M1088.340601774233,700.5211345749433 L1088.709798693636,700.6326546766207 M1088.709798693636,700.6326546766207 L1089.0964375800052,700.8003176073097 M1091.101989702184,693.8770896742355 L1096.836961066851,688.7893214436343 M1093.3161405916637,720.9302006919352 L1080.9535635012785,714.710626591689 M1093.3161405916637,720.9302006919352 L1087.5511769113116,725.9228069391658 M1080.9535635012785,714.710626591689 L1075.2646960474713,719.708058844897 M1080.9535635012785,714.710626591689 L1080.9810042361792,714.6866832302144 M1080.9810042361792,714.6866832302144 L1081.0084730456153,714.6626503412467 M1081.0084730456153,714.6626503412467 L1081.03595135876,714.6385442339543 M1067.9337792994384,780.9560742337779 L1073.915751644925,775.94431055654 M449.12149633413765,453.986059535054 L451.66003921233664,448.9176506125385 M446.3348688804774,458.14111564652444 L448.87254555400295,453.06951764837606 M294.0143304307262,377.27775883076424 L295.8843698977513,372.2862802687879 M297.1061530838482,373.66370591466546 L298.98015681134177,368.6766966371267 M-154.03550695099318,135.2880316214156 L-153.7133144771292,130.76351892570062 M-157.61369130712183,137.51916657873426 L-157.29981790736554,132.98879428271516 M-240.83167603998504,93.34071460220116 L-240.73553374195933,88.9317473293192 M-237.23224239432716,91.3282742610109 L-237.12762137125594,86.92510711186719 M-310.4036266616199,52.66574404303162 L-310.4727188949232,48.37857103803333 M1093.3996351291617,720.8581897326258 L1093.3717884006844,720.8822726575062 M1093.3717884006844,720.8822726575062 L1093.3439506149737,720.9062817418284 M1093.3439506149737,720.9062817418284 L1093.3161405916637,720.9302006919352 M-269.58348124596773,30.185404593453825 L-269.5616623792524,26.41314993070671 M-269.5616623792524,26.41314993070671 L-269.5234563427241,26.43735626949757 M-269.5234563427241,26.43735626949757 L-269.4978595875061,26.46539990590486 M-269.4978595875061,26.46539990590486 L-269.4863597083986,26.495651159290276 M-269.4863597083986,26.495651159290276 L-269.48962749196517,26.526352729550297 M-269.48962749196517,26.526352729550297 L-269.50747431607147,26.55571983436596 M-269.50747431607147,26.55571983436596 L-269.5388649156555,26.582045721208203 M-269.5388649156555,26.582045721208203 L-269.58197517532153,26.60379929721563 M-269.58197517532153,26.60379929721563 L-269.634300188416,26.619715703194345 M-269.634300188416,26.619715703194345 L-269.69279750849944,26.628868850267736 M-269.69279750849944,26.628868850267736 L-269.7540669585037,26.63072654736021 M-269.7540669585037,26.63072654736021 L-269.8145452362654,26.625180506937284 M-269.8145452362654,26.625180506937284 L-269.8707168994317,26.612553776612856 M-269.8707168994317,26.612553776612856 L-269.9193152321425,26.593580253490188 M-269.9193152321425,26.593580253490188 L-269.9575163792722,26.569364134238867 M-269.9575163792722,26.569364134238867 L-269.9830997892059,26.541312891534346 M-269.9830997892059,26.541312891534346 L-269.99458075189614,26.511058034715575 M-269.99458075189614,26.511058034715575 L-269.99129281393516,26.480357689318055 M-269.99129281393516,26.480357689318055 L-269.9734292148555,26.45099635704412 M-269.9734292148555,26.45099635704412 L-269.9420290624698,26.424679468094723 M-269.9420290624698,26.424679468094723 L-269.89891866072185,26.402936053932308 M-269.89891866072185,26.402936053932308 L-269.8466029488129,26.387028645906923 M-269.8466029488129,26.387028645906923 L-269.7881222422807,26.377881271398167 M-269.7881222422807,26.377881271398167 L-269.7268729124189,26.376024799196728 M-269.7268729124189,26.376024799196728 L-269.66641365184194,26.3815672360916 M-269.66641365184194,26.3815672360916 L-269.6102555466588,26.39418636024817 M-269.6102555466588,26.39418636024817 L-269.5616623792524,26.41314993070671 M1083.2908479832317,706.3584848475732 L1088.4368184843415,701.8141965072712 M1088.4368184843415,701.8141965072712 L1088.5893125993907,701.8998297471445 M1088.5893125993907,701.8998297471445 L1088.7308790568193,701.9990444150609 M1088.7308790568193,701.9990444150609 L1088.8533913057204,702.1061268747723 M1088.8533913057204,702.1061268747723 L1088.949607680132,702.2147989885998 M1088.949607680132,702.2147989885998 L1089.0137834357154,702.3186705017237 M1089.0137834357154,702.3186705017237 L1089.0425908371049,702.4119067941698 M1089.0425908371049,702.4119067941698 L1089.033999146394,702.4889094090167 M1089.033999146394,702.4889094090167 L1088.988502073235,702.545198310726 M1088.988502073235,702.545198310726 L1088.9090908915618,702.5776695192044 M1088.9090908915618,702.5776695192044 L1088.7999721809776,702.5842297460408 M1088.7999721809776,702.5842297460408 L1088.6676394738854,702.5645687431571 M1088.6676394738854,702.5645687431571 L1088.5199087561064,702.5198914020509 M1088.5199087561064,702.5198914020509 L1088.3652734536795,702.4527465458665 M1088.3652734536795,702.4527465458665 L1088.2125774773235,702.366969655914 M1088.2125774773235,702.366969655914 L1088.0710105719265,702.2677043605889 M1088.0710105719265,702.2677043605889 L1087.9485426933725,702.1605979078565 M1087.9485426933725,702.1605979078565 L1087.8525620043133,702.0520118999228 M1087.8525620043133,702.0520118999228 L1087.7883250762536,701.9481008569305 M1087.7883250762536,701.9481008569305 L1087.7596079743907,701.854924505339 M1087.7596079743907,701.854924505339 L1087.7682638803892,701.7779895516871 M1087.7682638803892,701.7779895516871 L1087.8137843432223,701.7217604990908 M1087.8137843432223,701.7217604990908 L1087.8933296666764,701.6894057054478 M1087.8933296666764,701.6894057054478 L1088.0022282011682,701.6827757142484 M1088.0022282011682,701.6827757142484 L1088.1344709644134,701.7024126910993 M1088.1344709644134,701.7024126910993 L1088.282106041577,701.7470394147399 M1088.282106041577,701.7470394147399 L1088.4368184843415,701.8141965072712 M-269.29090539721926,25.834443805823753 L-269.29353317918253,26.27788290368494 M-269.29353317918253,26.27788290368494 L-269.1980103650336,26.33838073391786 M-269.1980103650336,26.33838073391786 L-269.1339928726143,26.40847518135979 M-269.1339928726143,26.40847518135979 L-269.1052079684878,26.48409677470471 M-269.1052079684878,26.48409677470471 L-269.11333955393525,26.56085269615653 M-269.11333955393525,26.56085269615653 L-269.15792531784894,26.634281542854467 M-269.15792531784894,26.634281542854467 L-269.236383123151,26.70011283745771 M-269.236383123151,26.70011283745771 L-269.34415849808306,26.754515842685635 M-269.34415849808306,26.754515842685635 L-269.47498787836446,26.794323353892025 M-269.47498787836446,26.794323353892025 L-269.62126285845,26.81721714018903 M-269.62126285845,26.81721714018903 L-269.77447362960675,26.821863638523382 M-269.77447362960675,26.821863638523382 L-269.9257054285622,26.807991904251367 M-269.9257054285622,26.807991904251367 L-270.06615924875905,26.776410504255352 M-270.06615924875905,26.776410504255352 L-270.1876653764035,26.72895874343311 M-270.1876653764035,26.72895874343311 L-270.283158538595,26.66839933316328 M-270.283158538595,26.66839933316328 L-270.3470927967318,26.59825726069289 M-270.3470927967318,26.59825726069289 L-270.3757593000415,26.522613231983428 M-270.3757593000415,26.522613231983428 L-270.367501836678,26.44586492296753 M-270.367501836678,26.44586492296753 L-270.3228112289502,26.372472154866216 M-270.3228112289502,26.372472154866216 L-270.24429371881706,26.306697096906248 M-270.24429371881706,26.306697096906248 L-270.136517455863,26.25235760323153 M-270.136517455863,26.25235760323153 L-270.0057462078121,26.21260632866654 M-270.0057462078121,26.21260632866654 L-269.85957506265436,26.189748621006743 M-269.85957506265436,26.189748621006743 L-269.7064899553586,26.18510982114867 M-269.7064899553586,26.18510982114867 L-269.5553771870243,26.19895894762533 M-269.5553771870243,26.19895894762533 L-269.4150079304774,26.230492894631197 M-269.4150079304774,26.230492894631197 L-269.29353317918253,26.27788290368494 M1089.0964375800052,700.8003176073097 L1088.4904357071723,701.3356548197299 M1088.4904357071723,701.3356548197299 L1088.8715861647238,701.5496167256118 M1088.8715861647238,701.5496167256118 L1089.225579891687,701.7975962531003 M1089.225579891687,701.7975962531003 L1089.531865222048,702.065219062218 M1089.531865222048,702.065219062218 L1089.7724760103943,702.3368750471692 M1089.7724760103943,702.3368750471692 L1089.9334080646454,702.596782454856 M1089.9334080646454,702.596782454856 L1090.005360939671,702.8298674365041 M1090.005360939671,702.8298674365041 L1089.9840022924932,703.0225009699406 M1089.9840022924932,703.0225009699406 L1089.870539039399,703.1634514563565 M1089.870539039399,703.1634514563565 L1089.6716551257625,703.2445462855541 M1089.6716551257625,703.2445462855541 L1089.3988175671082,703.2610005546652 M1089.3988175671082,703.2610005546652 L1089.0678953270742,703.2118425725184 M1089.0678953270742,703.2118425725184 L1088.6983107447643,703.1000139278116 M1088.6983107447643,703.1000139278116 L1088.311573084504,702.9320303268987 M1088.311573084504,702.9320303268987 L1087.929983674133,702.7175799265607 M1087.929983674133,702.7175799265607 L1087.5759870857396,702.469283903573 M1087.5759870857396,702.469283903573 L1087.269978994717,702.2015111313007 M1087.269978994717,702.2015111313007 L1087.0298620076705,701.9299061227291 M1087.0298620076705,701.9299061227291 L1086.8695271385154,701.6702389047041 M1086.8695271385154,701.6702389047041 L1086.7981381901222,701.4375283639534 M1086.7981381901222,701.4375283639534 L1086.8198981535604,701.2453176820065 M1086.8198981535604,701.2453176820065 L1086.9335081499428,701.1047415603113 M1086.9335081499428,701.1047415603113 L1087.132250852195,701.0238869836519 M1087.132250852195,701.0238869836519 L1087.4046913572797,701.0074836778256 M1087.4046913572797,701.0074836778256 L1087.7350516368501,701.0564916235517 M1087.7350516368501,701.0564916235517 L1088.104038360012,701.1680038073739 M1088.104038360012,701.1680038073739 L1088.4904357071723,701.3356548197299" stroke="black"  stroke-width="4"  fill="red"/>
<path d="M1087.5511769113116,725.9228069391658 L1079.9510776386956,794.5129148439602 M1087.5511769113116,725.9228069391658 L1075.2646960474713,719.708058844897 M1067.1260547991653,787.7044147651262 L1075.2646960474713,719.708058844897 M1079.9510776386956,794.5129148439602 L1067.1260547991653,787.7044147651262 M1093.3161405916637,720.9302006919352 L1087.5511769113116,725.9228069391658 M1105.7057319575156,695.5171928915622 L1105.9397270836448,696.3566913693189 M1105.9397270836448,696.3566913693189 L1106.0567284336232,697.3289555629573 M1106.0567284336232,697.3289555629573 L1106.0551615878799,698.4240872616714 M1106.0551615878799,698.4240872616714 L1105.9346914137886,699.630836761692 M1105.9346914137886,699.630836761692 L1105.6963031624596,700.9366532741478 M1105.6963031624596,700.9366532741478 L1105.342284375234,702.327837615805 M1105.342284375234,702.327837615805 L1104.8762036396856,703.7896944857871 M1104.8762036396856,703.7896944857871 L1104.3028282100813,705.3067385884045 M1104.3028282100813,705.3067385884045 L1103.6281512234768,706.8628067408004 M1103.6281512234768,706.8628067408004 L1102.8593388962938,708.4412339531714 M1102.8593388962938,708.4412339531714 L1102.0045407547277,710.025141621867 M1102.0045407547277,710.025141621867 L1101.0729241336935,711.5975265672643 M1101.0729241336935,711.5975265672643 L1100.0744780730784,713.1415367623089 M1100.0744780730784,713.1415367623089 L1099.0199287320493,714.6406429085499 M1099.0199287320493,714.6406429085499 L1097.9206349142755,716.078810793061 M1097.9206349142755,716.078810793061 L1096.7883694960235,717.4407610330808 M1096.7883694960235,717.4407610330808 L1095.6353101696652,718.7120312301992 M1095.6353101696652,718.7120312301992 L1094.4737671127064,719.8792508319626 M1094.4737671127064,719.8792508319626 L1093.3161405916637,720.9302006919352 M1105.625695066141,695.3137489328512 L1105.5908183302022,695.3607541022013 M1105.5908183302022,695.3607541022013 L1105.5602964577913,695.41093510836 M1105.5602964577913,695.41093510836 L1105.5359054699052,695.461374389065 M1105.5359054699052,695.461374389065 L1105.5190607471927,695.5091426208086 M1105.5190607471927,695.5091426208086 L1105.5107305495865,695.5514736593642 M1105.5107305495865,695.5514736593642 L1105.5114046667968,695.5859045222891 M1105.5114046667968,695.5859045222891 L1105.5210438940692,695.6104333425909 M1105.5210438940692,695.6104333425909 L1105.5390850352578,695.6236387872626 M1105.5390850352578,695.6236387872626 L1105.564504576295,695.6247303074374 M1105.564504576295,695.6247303074374 L1105.5957883971023,695.6136753094022 M1105.5957883971023,695.6136753094022 L1105.6311497158524,695.5910887229106 M1105.6311497158524,695.5910887229106 L1105.6685232211967,695.5582909075105 M1105.6685232211967,695.5582909075105 L1105.7057319575156,695.5171928915622 M1117.8455420327232,670.1516013903629 L1116.6823442319162,671.2378766896933 M1116.6823442319162,671.2378766896933 L1115.5216219188828,672.4299432344069 M1115.5216219188828,672.4299432344069 L1114.3749436933524,673.7156900545417 M1114.3749436933524,673.7156900545417 L1113.2537122575927,675.0821388094136 M1113.2537122575927,675.0821388094136 L1112.1690677954996,676.5155564479855 M1112.1690677954996,676.5155564479855 L1111.1317342824427,678.0016300063452 M1111.1317342824427,678.0016300063452 L1110.1519962745074,679.5255416528254 M1110.1519962745074,679.5255416528254 L1109.239542908062,681.0721576901565 M1109.239542908062,681.0721576901565 L1108.403441966244,682.6261054582579 M1108.403441966244,682.6261054582579 L1107.6519961177928,684.1719756307263 M1107.6519961177928,684.1719756307263 L1106.9927482811058,685.694379063557 M1106.9927482811058,685.694379063557 L1106.4323115875914,687.178180938895 M1106.4323115875914,687.178180938895 L1105.9764410219477,688.6085136128623 M1105.9764410219477,688.6085136128623 L1105.629817771166,689.971051352562 M1105.629817771166,689.971051352562 L1105.3961295604338,691.2520330182688 M1105.3961295604338,691.2520330182688 L1105.277977755427,692.4384364740189 M1105.277977755427,692.4384364740189 L1105.2768181065558,693.5181249768658 M1105.2768181065558,693.5181249768658 L1105.3930102091326,694.479908271597 M1105.3930102091326,694.479908271597 L1105.625695066141,695.3137489328512 M1109.0189517989525,764.3460408682303 L1117.8455420327232,670.1516013903629 M1094.7164995979945,776.1454544828442 L1109.0189517989525,764.3460408682303 M1094.0173684839228,782.972295172288 L1094.7164995979945,776.1454544828442 M1079.9510776386956,794.5129148439602 L1094.0173684839228,782.972295172288 M1093.3161405916637,720.9302006919352 L1080.9535635012785,714.710626591689 M1080.9535635012785,714.710626591689 L1075.2646960474713,719.708058844897 M1067.1260547991653,787.7044147651262 L1080.9972868798027,776.1454381517557 M1081.7513945382152,769.3795208563625 L1080.9972868798027,776.1454381517557 M1081.7513945382152,769.3795208563625 L1095.8551327698322,757.5632504191003 M1105.4650778765917,664.1898455657872 L1095.8551327698322,757.5632504191003 M1105.4650778765917,664.1898455657872 L1104.3164815230516,665.276197890513 M1104.3164815230516,665.276197890513 L1103.169194812187,666.467348144592 M1103.169194812187,666.467348144592 L1102.034656294417,667.7511960299211 M1102.034656294417,667.7511960299211 L1100.9241515736817,669.1147828515352 M1100.9241515736817,669.1147828515352 L1099.848717584817,670.5444040301992 M1099.848717584817,670.5444040301992 L1098.8189904200274,672.025783694831 M1098.8189904200274,672.025783694831 L1097.845181768769,673.5441493223135 M1097.845181768769,673.5441493223135 L1096.936924338776,675.0844204522327 M1096.936924338776,675.0844204522327 L1096.1032456228231,676.6312852117438 M1096.1032456228231,676.6312852117438 L1095.3524251616932,678.1694021085125 M1095.3524251616932,678.1694021085125 L1094.6919991409952,679.6834564174392 M1094.6919991409952,679.6834564174392 L1094.1285916552738,681.1583937530418 M1094.1285916552738,681.1583937530418 L1093.6679845936587,682.5794322688232 M1093.6679845936587,682.5794322688232 L1093.3149039120176,683.9323368275908 M1093.3149039120176,683.9323368275908 L1093.0730979514885,685.2034408392866 M1093.0730979514885,685.2034408392866 L1092.9452448123434,686.3798199228615 M1092.9452448123434,686.3798199228615 L1092.9328929299627,687.4494374904539 M1092.9328929299627,687.4494374904539 L1093.0365088515875,688.4012048492481 M1093.0365088515875,688.4012048492481 L1093.255355440582,689.2251866911203 M1093.3314982763848,689.4260180240005 L1093.2946900318752,689.4670611133048 M1093.2946900318752,689.4670611133048 L1093.2578069246097,689.499883140756 M1093.2578069246097,689.499883140756 L1093.2229973487927,689.5225716728529 M1093.2229973487927,689.5225716728529 L1093.192294402053,689.5338004036968 M1093.192294402053,689.5338004036968 L1093.1674515194657,689.532944321582 M1093.1674515194657,689.532944321582 L1093.1499488121935,689.5200222939671 M1093.1499488121935,689.5200222939671 L1093.140778821866,689.4958083984792 M1093.140778821866,689.4958083984792 L1093.1404774553075,689.461705675032 M1093.1404774553075,689.461705675032 L1093.1490622480508,689.4196969110141 M1093.1490622480508,689.4196969110141 L1093.1660287124002,689.3722263847386 M1093.1660287124002,689.3722263847386 L1093.1904013788155,689.3220429415536 M1093.1904013788155,689.3220429415536 L1093.2207659028293,689.2720610421563 M1093.2207659028293,689.2720610421563 L1093.255355440582,689.2251866911203 M1080.9535635012785,714.710626591689 L1082.0963862561596,713.6591872860637 M1082.0963862561596,713.6591872860637 L1083.2442347763538,712.4925501931281 M1083.2442347763538,712.4925501931281 L1084.3848589073323,711.222930089021 M1084.3848589073323,711.222930089021 L1085.5060849200145,709.8636808983296 M1085.5060849200145,709.8636808983296 L1086.5958574974618,708.4292363624123 M1086.5958574974618,708.4292363624123 L1087.6425087719651,706.9348354004723 M1087.6425087719651,706.9348354004723 L1088.6347679244593,705.3964605530311 M1088.6347679244593,705.3964605530311 L1089.5619774971292,703.8305788409009 M1089.5619774971292,703.8305788409009 L1090.4141972438097,702.253970223459 M1090.4141972438097,702.253970223459 L1091.1822885355489,700.6835570149761 M1091.1822885355489,700.6835570149761 L1091.8581088970523,699.1361291353658 M1091.8581088970523,699.1361291353658 L1092.4344791499768,697.6282563465195 M1092.4344791499768,697.6282563465195 L1092.9053719202527,696.1760011968107 M1092.9053719202527,696.1760011968107 L1093.2659650832263,694.794744228808 M1093.2659650832263,694.794744228808 L1093.5126163262241,693.4990732487287 M1093.5126163262241,693.4990732487287 L1093.642945863473,692.3025784647159 M1093.642945863473,692.3025784647159 L1093.6558588352502,691.2177014825224 M1093.6558588352502,691.2177014825224 L1093.5515646472131,690.2555838910251 M1093.5515646472131,690.2555838910251 L1093.3314982763848,689.4260180240005 M1080.9972868798027,776.1454381517557 L1094.0173684839228,782.972295172288 M1105.7057319575156,695.5171928915622 L1093.3314982763848,689.4260180240005 M1105.625695066141,695.3137489328512 L1093.255355440582,689.2251866911203 M1117.8455420327232,670.1516013903629 L1105.4650778765917,664.1898455657872 M1109.0189517989525,764.3460408682303 L1095.8551327698322,757.5632504191003 M1094.7164995979945,776.1454544828442 L1081.7513945382152,769.3795208563625" stroke="black"  stroke-width="4"  fill="red"/>
<path d="M1083.2908479832317,706.3584848475732 L1088.4368184843415,701.8141965072712 M1088.4368184843415,701.8141965072712 L1088.5893125993907,701.8998297471445 M1088.5893125993907,701.8998297471445 L1088.7308790568193,701.9990444150609 M1088.7308790568193,701.9990444150609 L1088.8533913057204,702.1061268747723 M1088.8533913057204,702.1061268747723 L1088.949607680132,702.2147989885998 M1088.949607680132,702.2147989885998 L1089.0137834357154,702.3186705017237 M1089.0137834357154,702.3186705017237 L1089.0425908371049,702.4119067941698 M1089.0425908371049,702.4119067941698 L1089.033999146394,702.4889094090167 M1089.033999146394,702.4889094090167 L1088.988502073235,702.545198310726 M1088.988502073235,702.545198310726 L1088.9090908915618,702.5776695192044 M1088.9090908915618,702.5776695192044 L1088.7999721809776,702.5842297460408 M1088.7999721809776,702.5842297460408 L1088.6676394738854,702.5645687431571 M1088.6676394738854,702.5645687431571 L1088.5199087561064,702.5198914020509 M1088.5199087561064,702.5198914020509 L1088.3652734536795,702.4527465458665 M1088.3652734536795,702.4527465458665 L1088.2125774773235,702.366969655914 M1088.2125774773235,702.366969655914 L1088.0710105719265,702.2677043605889 M1088.0710105719265,702.2677043605889 L1087.9485426933725,702.1605979078565 M1087.9485426933725,702.1605979078565 L1087.8525620043133,702.0520118999228 M1087.8525620043133,702.0520118999228 L1087.7883250762536,701.9481008569305 M1087.7883250762536,701.9481008569305 L1087.7596079743907,701.854924505339 M1087.7596079743907,701.854924505339 L1087.7682638803892,701.7779895516871 M1087.7682638803892,701.7779895516871 L1087.8137843432223,701.7217604990908 M1087.8137843432223,701.7217604990908 L1087.8933296666764,701.6894057054478 M1087.8933296666764,701.6894057054478 L1088.0022282011682,701.6827757142484 M1088.0022282011682,701.6827757142484 L1088.1344709644134,701.7024126910993 M1088.1344709644134,701.7024126910993 L1088.282106041577,701.7470394147399 M1088.282106041577,701.7470394147399 L1088.4368184843415,701.8141965072712 M1083.2908479832317,706.3584848475732 L1083.1369558685535,706.2913693586623 M1083.1369558685535,706.2913693586623 L1082.9900343798754,706.2467702681483 M1082.9900343798754,706.2467702681483 L1082.8583584982225,706.2271454473399 M1082.8583584982225,706.2271454473399 L1082.749845737188,706.2337713345448 M1082.749845737188,706.2337713345448 L1082.6704844392032,706.2661060971391 M1082.6704844392032,706.2661060971391 L1082.6249352770349,706.3223003250106 M1082.6249352770349,706.3223003250106 L1082.6160385238459,706.3991876033188 M1082.6160385238459,706.3991876033188 L1082.6443165632752,706.4923061737402 M1082.6443165632752,706.4923061737402 L1082.707942719845,706.5961527253342 M1082.707942719845,706.5961527253342 L1082.8031766287327,706.7046712802818 M1082.8031766287327,706.7046712802818 L1082.9248033297401,706.8117111389306 M1082.9248033297401,706.8117111389306 L1083.0654850370502,706.9109146620875 M1083.0654850370502,706.9109146620875 L1083.2173018388003,706.9966381322693 M1083.2173018388003,706.9966381322693 L1083.3711168495865,707.063741145511 M1083.3711168495865,707.063741145511 L1083.5181330817327,707.1083906318347 M1083.5181330817327,707.1083906318347 L1083.6498981470256,707.1280393734651 M1083.6498981470256,707.1280393734651 L1083.758629770338,707.1214832380278 M1083.758629770338,707.1214832380278 L1083.8378577598128,707.089032277478 M1083.8378577598128,707.089032277478 L1083.8833839198398,707.0327784625747 M1083.8833839198398,707.0327784625747 L1083.8922171793768,706.9558238193624 M1083.8922171793768,706.9558238193624 L1083.863849730499,706.8626455705697 M1083.863849730499,706.8626455705697 L1083.8002847331466,706.7588386686467 M1083.8002847331466,706.7588386686467 L1083.70481662701,706.6502340919614 M1083.70481662701,706.6502340919614 L1083.583145803719,706.5432181212666 M1083.583145803719,706.5432181212666 L1083.4424643617047,706.4440650038194 M1083.4424643617047,706.4440650038194 L1083.2908479832317,706.3584848475732 M1088.4904357071723,701.3356548197299 L1088.8715861647238,701.5496167256118 M1088.8715861647238,701.5496167256118 L1089.225579891687,701.7975962531003 M1089.225579891687,701.7975962531003 L1089.531865222048,702.065219062218 M1089.531865222048,702.065219062218 L1089.7724760103943,702.3368750471692 M1089.7724760103943,702.3368750471692 L1089.9334080646454,702.596782454856 M1089.9334080646454,702.596782454856 L1090.005360939671,702.8298674365041 M1090.005360939671,702.8298674365041 L1089.9840022924932,703.0225009699406 M1089.9840022924932,703.0225009699406 L1089.870539039399,703.1634514563565 M1089.870539039399,703.1634514563565 L1089.6716551257625,703.2445462855541 M1089.6716551257625,703.2445462855541 L1089.3988175671082,703.2610005546652 M1089.3988175671082,703.2610005546652 L1089.0678953270742,703.2118425725184 M1089.0678953270742,703.2118425725184 L1088.6983107447643,703.1000139278116 M1088.6983107447643,703.1000139278116 L1088.311573084504,702.9320303268987 M1088.311573084504,702.9320303268987 L1087.929983674133,702.7175799265607 M1087.929983674133,702.7175799265607 L1087.5759870857396,702.469283903573 M1087.5759870857396,702.469283903573 L1087.269978994717,702.2015111313007 M1087.269978994717,702.2015111313007 L1087.0298620076705,701.9299061227291 M1087.0298620076705,701.9299061227291 L1086.8695271385154,701.6702389047041 M1086.8695271385154,701.6702389047041 L1086.7981381901222,701.4375283639534 M1086.7981381901222,701.4375283639534 L1086.8198981535604,701.2453176820065 M1086.8198981535604,701.2453176820065 L1086.9335081499428,701.1047415603113 M1086.9335081499428,701.1047415603113 L1087.132250852195,701.0238869836519 M1087.132250852195,701.0238869836519 L1087.4046913572797,701.0074836778256 M1087.4046913572797,701.0074836778256 L1087.7350516368501,701.0564916235517 M1087.7350516368501,701.0564916235517 L1088.104038360012,701.1680038073739 M1088.104038360012,701.1680038073739 L1088.4904357071723,701.3356548197299 M1089.0964375800052,700.8003176073097 L1089.477846776367,701.0142947488476 M1089.477846776367,701.0142947488476 L1089.8321015817792,701.2622919694768 M1089.8321015817792,701.2622919694768 L1090.1386351825713,701.529933915645 M1090.1386351825713,701.529933915645 L1090.3794668969076,701.8016093710405 M1090.3794668969076,701.8016093710405 L1090.5405796678947,702.0615354495434 M1090.5405796678947,702.0615354495434 L1090.6126625614324,702.2946372104709 M1090.6126625614324,702.2946372104709 L1090.5913755552397,702.4872846363611 M1090.5913755552397,702.4872846363611 L1090.4779213562579,702.6282453023633 M1090.4779213562579,702.6282453023633 L1090.278983425871,702.7093459938418 M1090.278983425871,702.7093459938418 L1090.0060318534038,702.7258014529116 M1090.0060318534038,702.7258014529116 L1089.6749422427467,702.6766399161945 M1089.6749422427467,702.6766399161945 L1089.3051468013232,702.564803190786 M1089.3051468013232,702.564803190786 L1088.9181670909447,702.3968074658679 M1088.9181670909447,702.3968074658679 L1088.536318416753,702.1823416130293 M1088.536318416753,702.1823416130293 L1088.1820606142148,701.9340277340369 M1088.1820606142148,701.9340277340369 L1087.8758044353103,701.6662357475458 M1087.8758044353103,701.6662357475458 L1087.6354669812488,701.3946112947614 M1087.6354669812488,701.3946112947614 L1087.474952025543,701.1349255295177 M1087.474952025543,701.1349255295177 L1087.4034337158398,700.9021984021696 M1087.4034337158398,700.9021984021696 L1087.425122571784,700.7099740453623 M1087.425122571784,700.7099740453623 L1087.5387238015837,700.5693879367229 M1087.5387238015837,700.5693879367229 L1087.7375204965506,700.4885276214136 M1087.7375204965506,700.4885276214136 L1088.0100746850849,700.4721231518533 M1088.0100746850849,700.4721231518533 L1088.340601774233,700.5211345749433 M1088.340601774233,700.5211345749433 L1088.709798693636,700.6326546766207 M1088.709798693636,700.6326546766207 L1089.0964375800052,700.8003176073097 M1089.0964375800052,700.8003176073097 L1088.4904357071723,701.3356548197299" stroke="black"  stroke-width="4"  fill="red"/>
<path d="M-277.0121084498106,35.69936776338136 L-314.00415006801154,54.49518571528614 M-277.0121084498106,35.69936776338136 L-280.4600135213361,33.955348323645296 M-317.45022868607566,52.66574440852759 L-280.4600135213361,33.955348323645296 M-314.00415006801154,54.49518571528614 L-317.45022868607566,52.66574440852759 M-314.00415006801154,54.49518571528614 L-314.1828534694341,44.606602555158645 M-314.1828534694341,44.606602555158645 L-310.5627793023077,42.7903228529774 M-310.5627793023077,42.7903228529774 L-310.72363281091066,32.80936281055972 M-310.72363281091066,32.80936281055972 L-258.9448541149309,7.164490411297152 M-258.9448541149309,7.164490411297152 L-258.9879150531,8.016521857435237 M-258.9879150531,8.016521857435237 L-259.09771589315517,8.892450302371344 M-259.09771589315517,8.892450302371344 L-259.2730697406687,9.78339227307481 M-259.2730697406687,9.78339227307481 L-259.5121423276896,10.680323437246614 M-259.5121423276896,10.680323437246614 L-259.8124681297452,11.574160683512332 M-259.8124681297452,11.574160683512332 L-260.1709751677587,12.455888958978335 M-260.1709751677587,12.455888958978335 L-260.5840196999095,13.316597877598724 M-260.5840196999095,13.316597877598724 L-261.04742071273984,14.147613739997269 M-261.04742071273984,14.147613739997269 L-261.5564963094273,14.940538041989157 M-261.5564963094273,14.940538041989157 L-262.10611488121083,15.687375780278671 M-262.10611488121083,15.687375780278671 L-262.6907375396722,16.380551982315637 M-262.6907375396722,16.380551982315637 L-263.30447608502925,17.013059513670726 M-263.30447608502925,17.013059513670726 L-263.94114481597273,17.578428909190507 M-263.94114481597273,17.578428909190507 L-264.59431954143065,18.070906934673474 M-264.59431954143065,18.070906934673474 L-265.25740017379076,18.48542143005568 M-265.25740017379076,18.48542143005568 L-265.9236734775716,18.817669895001416 M-265.9236734775716,18.817669895001416 L-266.5863761588762,19.064182571659842 M-266.5863761588762,19.064182571659842 L-267.238762969449,19.222307773631258 M-267.238762969449,19.222307773631258 L-267.8741713140622,19.29031880918467 M-267.8741713140622,19.29031880918467 L-267.8844073263241,19.319231748311154 M-267.8844073263241,19.319231748311154 L-267.8989099707496,19.346590984315412 M-267.8989099707496,19.346590984315412 L-267.916836657,19.370804716691453 M-267.916836657,19.370804716691453 L-267.9371454041435,19.39046704303064 M-267.9371454041435,19.39046704303064 L-267.958656085063,19.404443001109712 M-267.958656085063,19.404443001109712 L-267.9801196131584,19.41191680677815 M-267.9801196131584,19.41191680677815 L-268.00028791887485,19.412454147521032 M-268.00028791887485,19.412454147521032 L-268.0179898524143,19.406026647724843 M-268.0179898524143,19.406026647724843 L-268.03219589911464,19.39298991690771 M-268.03219589911464,19.39298991690771 L-268.0420799619799,19.374128177696093 M-268.0420799619799,19.374128177696093 L-268.0470676808511,19.350515172045732 M-268.0470676808511,19.350515172045732 L-268.046868719823,19.323530334587304 M-268.046868719823,19.323530334587304 L-268.0414952276301,19.29474548680429 M-268.0414952276301,19.29474548680429 L-268.68027214776635,19.36327929883805 M-268.68027214776635,19.36327929883805 L-269.3375019561204,19.522973006827613 M-269.3375019561204,19.522973006827613 L-270.00632845297935,19.772289430531657 M-270.00632845297935,19.772289430531657 L-270.67975437130247,20.10876250428123 M-270.67975437130247,20.10876250428123 L-271.3507122313988,20.528971214745127 M-271.3507122313988,20.528971214745127 L-272.01214397491344,21.028587109809166 M-272.01214397491344,21.028587109809166 L-272.65707776210456,21.602421719872098 M-272.65707776210456,21.602421719872098 L-273.2787046107503,22.244516376906688 M-273.2787046107503,22.244516376906688 L-273.87045514276144,22.94815179542246 M-273.87045514276144,22.94815179542246 L-274.42607282295353,23.705912222887605 M-274.42607282295353,23.705912222887605 L-274.93968339642015,24.509844990079387 M-274.93968339642015,24.509844990079387 L-275.40586162229636,25.351456484373784 M-275.40586162229636,25.351456484373784 L-275.8196907933791,26.221869828946126 M-275.8196907933791,26.221869828946126 L-276.17681846616983,27.111899995817396 M-276.17681846616983,27.111899995817396 L-276.47350322945624,28.012139099781166 M-276.47350322945624,28.012139099781166 L-276.7066558423289,28.91312129799013 M-276.7066558423289,28.91312129799013 L-276.87387149076005,29.805333660524752 M-276.87387149076005,29.805333660524752 L-276.9734544443711,30.679413903670536 M-276.9734544443711,30.679413903670536 L-277.0044338661012,31.526179861957075 M-277.0044338661012,31.526179861957075 L-277.0121084498106,35.69936776338136 M-277.0044338661012,31.526179861957075 L-280.4600131203031,29.787688682193505 M-280.4600131203031,29.787688682193505 L-280.4600135213361,33.955348323645296 M-280.4600131203031,29.787688682193505 L-280.43056334741755,28.942096670625517 M-280.43056334741755,28.942096670625517 L-280.33249632584386,28.06933812395033 M-280.33249632584386,28.06933812395033 L-280.16676703581993,27.178581201866734 M-280.16676703581993,27.178581201866734 L-279.93505563970564,26.279172711384717 M-279.93505563970564,26.279172711384717 L-279.6397517071981,25.3806087148821 M-279.6397517071981,25.3806087148821 L-279.2839298981007,24.492337117899467 M-279.2839298981007,24.492337117899467 L-278.87131769732287,23.623746884239495 M-278.87131769732287,23.623746884239495 L-278.4062545469192,22.78400344265259 M-278.4062545469192,22.78400344265259 L-277.8936451986592,21.981963601855 M-277.8936451986592,21.981963601855 L-277.33890408053,21.22610064596455 M-277.33890408053,21.22610064596455 L-276.74789602449914,20.524346978656865 M-276.74789602449914,20.524346978656865 L-276.1268694767498,19.884098265305 M-276.1268694767498,19.884098265305 L-275.4823873043812,19.31205421836472 M-275.4823873043812,19.31205421836472 L-274.8212536215401,18.814154657024574 M-274.8212536215401,18.814154657024574 L-274.1504370031123,18.39557006446819 M-274.1504370031123,18.39557006446819 L-273.47699395325446,18.06061201024255 M-273.47699395325446,18.06061201024255 L-272.8079921354729,17.812685909505035 M-272.8079921354729,17.812685909505035 L-272.1504307612488,17.654243695194225 M-272.1504307612488,17.654243695194225 L-271.5111696275211,17.586809945271284 M-271.5111696275211,17.586809945271284 L-271.51649497448693,17.615547812614693 M-271.51649497448693,17.615547812614693 L-271.5166441661313,17.642496246892392 M-271.5166441661313,17.642496246892392 L-271.511607951682,17.666085548294973 M-271.511607951682,17.666085548294973 L-271.50167949842603,17.684937668524526 M-271.50167949842603,17.684937668524526 L-271.4874357040526,17.69797939425763 M-271.4874357040526,17.69797939425763 L-271.4697049084426,17.704426246538844 M-271.4697049084426,17.704426246538844 L-271.4495182708374,17.703921465075894 M-271.4495182708374,17.703921465075894 L-271.42804801081695,17.69649153774577 M-271.42804801081695,17.69649153774577 L-271.40654259025246,17.68256822542037 M-271.40654259025246,17.68256822542037 L-271.3862507830502,17.662964249404467 M-271.3862507830502,17.662964249404467 L-271.3683517467231,17.638811191678315 M-271.3683517467231,17.638811191678315 L-271.3538858584923,17.61151143064751 M-271.3538858584923,17.61151143064751 L-271.34369356945285,17.582653309252066 M-262.4282332148282,5.487085156039882 L-262.46974966461903,6.3379022516339205 M-262.46974966461903,6.3379022516339205 L-262.5780271831752,7.212481918048468 M-262.5780271831752,7.212481918048468 L-262.7518943793991,8.101954223892847 M-262.7518943793991,8.101954223892847 L-262.9895320596486,8.997309511053118 M-262.9895320596486,8.997309511053118 L-263.2884892042217,9.889480354771308 M-263.2884892042217,9.889480354771308 L-263.64570755678767,10.769468209671459 M-263.64570755678767,10.769468209671459 L-264.0575562842662,11.628379933326073 M-264.0575562842662,11.628379933326073 L-264.51986626089115,12.457559594350869 M-264.51986626089115,12.457559594350869 L-265.0279664278546,13.24862689113587 M-265.0279664278546,13.24862689113587 L-265.5767347857977,13.993605223622694 M-265.5767347857977,13.993605223622694 L-266.1606408492978,14.684938150499818 M-266.1606408492978,14.684938150499818 L-266.7738034099434,15.315636922053216 M-266.7738034099434,15.315636922053216 L-267.4100424665353,15.879250280965607 M-267.4100424665353,15.879250280965607 L-268.06293797684907,16.370042700695592 M-268.06293797684907,16.370042700695592 L-268.7258925910643,16.782959181013837 M-268.7258925910643,16.782959181013837 L-269.39219431015204,17.11371361691704 M-269.39219431015204,17.11371361691704 L-270.0550795315107,17.358851694290365 M-270.0550795315107,17.358851694290365 L-270.7078012563612,17.515736123878924 M-270.7078012563612,17.515736123878924 L-271.34369356945285,17.582653309252066 M-262.4282332148282,5.487085156039882 L-314.2060699379733,31.015001977059455 M-314.02712104313764,40.98243111821478 L-314.2060699379733,31.015001977059455 M-314.02712104313764,40.98243111821478 L-317.646834792419,42.79032321583941 M-317.45022868607566,52.66574440852759 L-317.646834792419,42.79032321583941 M-317.646834792419,42.79032321583941 L-314.1828534694341,44.606602555158645 M-268.0414952276301,19.29474548680429 L-271.5111696275211,17.586809945271284 M-267.8741713140622,19.29031880918467 L-271.34369356945285,17.582653309252066 M-258.9448541149309,7.164490411297152 L-262.4282332148282,5.487085156039882 M-310.72363281091066,32.80936281055972 L-314.2060699379733,31.015001977059455 M-310.5627793023077,42.7903228529774 L-314.02712104313764,40.98243111821478" stroke="black"  stroke-width="4"  fill="red"/>
<path d="M-269.58348124596773,30.185404593453825 L-269.5616623792524,26.41314993070671 M-269.5616623792524,26.41314993070671 L-269.5234563427241,26.43735626949757 M-269.5234563427241,26.43735626949757 L-269.4978595875061,26.46539990590486 M-269.4978595875061,26.46539990590486 L-269.4863597083986,26.495651159290276 M-269.4863597083986,26.495651159290276 L-269.48962749196517,26.526352729550297 M-269.48962749196517,26.526352729550297 L-269.50747431607147,26.55571983436596 M-269.50747431607147,26.55571983436596 L-269.5388649156555,26.582045721208203 M-269.5388649156555,26.582045721208203 L-269.58197517532153,26.60379929721563 M-269.58197517532153,26.60379929721563 L-269.634300188416,26.619715703194345 M-269.634300188416,26.619715703194345 L-269.69279750849944,26.628868850267736 M-269.69279750849944,26.628868850267736 L-269.7540669585037,26.63072654736021 M-269.7540669585037,26.63072654736021 L-269.8145452362654,26.625180506937284 M-269.8145452362654,26.625180506937284 L-269.8707168994317,26.612553776612856 M-269.8707168994317,26.612553776612856 L-269.9193152321425,26.593580253490188 M-269.9193152321425,26.593580253490188 L-269.9575163792722,26.569364134238867 M-269.9575163792722,26.569364134238867 L-269.9830997892059,26.541312891534346 M-269.9830997892059,26.541312891534346 L-269.99458075189614,26.511058034715575 M-269.99458075189614,26.511058034715575 L-269.99129281393516,26.480357689318055 M-269.99129281393516,26.480357689318055 L-269.9734292148555,26.45099635704412 M-269.9734292148555,26.45099635704412 L-269.9420290624698,26.424679468094723 M-269.9420290624698,26.424679468094723 L-269.89891866072185,26.402936053932308 M-269.89891866072185,26.402936053932308 L-269.8466029488129,26.387028645906923 M-269.8466029488129,26.387028645906923 L-269.7881222422807,26.377881271398167 M-269.7881222422807,26.377881271398167 L-269.7268729124189,26.376024799196728 M-269.7268729124189,26.376024799196728 L-269.66641365184194,26.3815672360916 M-269.66641365184194,26.3815672360916 L-269.6102555466588,26.39418636024817 M-269.6102555466588,26.39418636024817 L-269.5616623792524,26.41314993070671 M-269.58348124596773,30.185404593453825 L-269.6319765935666,30.166385858352328 M-269.6319765935666,30.166385858352328 L-269.68802191796556,30.153730024375022 M-269.68802191796556,30.153730024375022 L-269.7483599889988,30.14817146392113 M-269.7483599889988,30.14817146392113 L-269.8094867552311,30.15003333682239 M-269.8094867552311,30.15003333682239 L-269.8678506417692,30.1592073218751 M-269.8678506417692,30.1592073218751 L-269.9200620590225,30.175161004952542 M-269.9200620590225,30.175161004952542 L-269.9630867509359,30.196967669112098 M-269.9630867509359,30.196967669112098 L-269.99442475854335,30.223361108648817 M-269.99442475854335,30.223361108648817 L-270.01225339405687,30.252807842907316 M-270.01225339405687,30.252807842907316 L-270.0155355863917,30.283597480187154 M-270.0155355863917,30.283597480187154 L-270.0040784376822,30.313940328355613 M-270.0040784376822,30.313940328355613 L-269.97854702214977,30.3420731492713 M-269.97854702214977,30.3420731492713 L-269.94042303457707,30.36635969016936 M-269.94042303457707,30.36635969016936 L-269.8919225422692,30.385388387069042 M-269.8919225422692,30.385388387069042 L-269.8358637143374,30.398051834062812 M-269.8358637143374,30.398051834062812 L-269.77550670229766,30.40361400128927 M-269.77550670229766,30.40361400128927 L-269.71435989637837,30.401750902393985 M-269.71435989637837,30.401750902393985 L-269.6559794625898,30.392571139579218 M-269.6559794625898,30.392571139579218 L-269.60375878110926,30.376608450446724 M-269.60375878110926,30.376608450446724 L-269.5607342304262,30.354791615292413 M-269.5607342304262,30.354791615292413 L-269.52940573715387,30.328389169761294 M-269.52940573715387,30.328389169761294 L-269.5115938093452,30.298936657763306 M-269.5115938093452,30.298936657763306 L-269.5083316907435,30.26814579451809 M-269.5083316907435,30.26814579451809 L-269.5198076802965,30.23780655302761 M-269.5198076802965,30.23780655302761 L-269.5453523879379,30.209681345257763 M-269.5453523879379,30.209681345257763 L-269.58348124596773,30.185404593453825 M-269.29353317918253,26.27788290368494 L-269.1980103650336,26.33838073391786 M-269.1980103650336,26.33838073391786 L-269.1339928726143,26.40847518135979 M-269.1339928726143,26.40847518135979 L-269.1052079684878,26.48409677470471 M-269.1052079684878,26.48409677470471 L-269.11333955393525,26.56085269615653 M-269.11333955393525,26.56085269615653 L-269.15792531784894,26.634281542854467 M-269.15792531784894,26.634281542854467 L-269.236383123151,26.70011283745771 M-269.236383123151,26.70011283745771 L-269.34415849808306,26.754515842685635 M-269.34415849808306,26.754515842685635 L-269.47498787836446,26.794323353892025 M-269.47498787836446,26.794323353892025 L-269.62126285845,26.81721714018903 M-269.62126285845,26.81721714018903 L-269.77447362960675,26.821863638523382 M-269.77447362960675,26.821863638523382 L-269.9257054285622,26.807991904251367 M-269.9257054285622,26.807991904251367 L-270.06615924875905,26.776410504255352 M-270.06615924875905,26.776410504255352 L-270.1876653764035,26.72895874343311 M-270.1876653764035,26.72895874343311 L-270.283158538595,26.66839933316328 M-270.283158538595,26.66839933316328 L-270.3470927967318,26.59825726069289 M-270.3470927967318,26.59825726069289 L-270.3757593000415,26.522613231983428 M-270.3757593000415,26.522613231983428 L-270.367501836678,26.44586492296753 M-270.367501836678,26.44586492296753 L-270.3228112289502,26.372472154866216 M-270.3228112289502,26.372472154866216 L-270.24429371881706,26.306697096906248 M-270.24429371881706,26.306697096906248 L-270.136517455863,26.25235760323153 M-270.136517455863,26.25235760323153 L-270.0057462078121,26.21260632866654 M-270.0057462078121,26.21260632866654 L-269.85957506265436,26.189748621006743 M-269.85957506265436,26.189748621006743 L-269.7064899553586,26.18510982114867 M-269.7064899553586,26.18510982114867 L-269.5553771870243,26.19895894762533 M-269.5553771870243,26.19895894762533 L-269.4150079304774,26.230492894631197 M-269.4150079304774,26.230492894631197 L-269.29353317918253,26.27788290368494 M-269.29090539721926,25.834443805823753 L-269.1953598950332,25.89492086427788 M-269.1953598950332,25.89492086427788 L-269.13132709277306,25.964991247776084 M-269.13132709277306,25.964991247776084 L-269.1025351500166,26.04058688304906 M-269.1025351500166,26.04058688304906 L-269.11066838207137,26.11731646064618 M-269.11066838207137,26.11731646064618 L-269.15526438708935,26.190720108779146 M-269.15526438708935,26.190720108779146 L-269.2337404370651,26.25652881488179 M-269.2337404370651,26.25652881488179 L-269.3415410023746,26.310913154972468 M-269.3415410023746,26.310913154972468 L-269.4724010547908,26.35070700976337 M-269.4724010547908,26.35070700976337 L-269.6187104038662,26.373592942529626 M-269.6187104038662,26.373592942529626 L-269.77195723930424,26.378237846959053 M-269.77195723930424,26.378237846959053 L-269.92322469685416,26.364370871196968 M-269.92322469685416,26.364370871196968 L-270.0637116928617,26.332800305211435 M-270.0637116928617,26.332800305211435 L-270.18524658209697,26.28536482388364 M-270.18524658209697,26.28536482388364 L-270.28076241860765,26.224826192017815 M-270.28076241860765,26.224826192017815 L-270.3447119475111,26.15470818865083 M-270.3447119475111,26.15470818865083 L-270.37338543381725,26.07909012041415 M-270.37338543381725,26.07909012041415 L-270.3651262645327,26.00236815444157 M-270.3651262645327,26.00236815444157 L-270.3204253662168,25.92900058101185 M-270.3204253662168,25.92900058101185 L-270.24188958311333,25.863248105483592 M-270.24188958311333,25.863248105483592 L-270.13408812915463,25.808927270092283 M-270.13408812915463,25.808927270092283 L-270.00328623615485,25.769189645874008 M-270.00328623615485,25.769189645874008 L-269.8570807707781,25.746339787851582 M-269.8570807707781,25.746339787851582 L-269.70395965836406,25.741702581057552 M-269.70395965836406,25.741702581057552 L-269.55281128751335,25.75554695148429 M-269.55281128751335,25.75554695148429 L-269.4124088951687,25.787070069580295 M-269.4124088951687,25.787070069580295 L-269.29090539721926,25.834443805823753 M-269.29090539721926,25.834443805823753 L-269.29353317918253,26.27788290368494" stroke="black"  stroke-width="4"  fill="red"/>
<path d="M-314.02712104313764,40.98243111821478 L-317.646834792419,42.79032321583941 M-317.646834792419,42.79032321583941 L-317.8455420327234,32.8093631707103 M-314.2060699379733,31.015001977059455 L-317.8455420327234,32.8093631707103 M-314.02712104313764,40.98243111821478 L-314.2060699379733,31.015001977059455 M-314.00415006801154,54.49518571528614 L-240.83167603998504,93.34071460220116 M-240.83167603998504,93.34071460220116 L-240.73553374195933,88.9317473293192 M-240.73553374195933,88.9317473293192 L-157.29981790736554,132.98879428271516 M-157.61369130712183,137.51916657873426 L-157.29981790736554,132.98879428271516 M-157.61369130712183,137.51916657873426 L294.0143304307262,377.27775883076424 M294.0143304307262,377.27775883076424 L295.8843698977513,372.2862802687879 M295.8843698977513,372.2862802687879 L448.87254555400295,453.06951764837606 M446.3348688804774,458.14111564652444 L448.87254555400295,453.06951764837606 M446.3348688804774,458.14111564652444 L1067.1260547991653,787.7044147651262 M1067.1260547991653,787.7044147651262 L1080.9972868798027,776.1454381517557 M1080.9972868798027,776.1454381517557 L1094.0173684839228,782.972295172288 M1094.0173684839228,782.972295172288 L1108.377581824424,771.1905282238939 M-317.8455420327234,32.8093631707103 L1108.377581824424,771.1905282238939 M-317.646834792419,42.79032321583941 L-314.1828534694341,44.606602555158645 M-314.00415006801154,54.49518571528614 L-314.1828534694341,44.606602555158645 M1094.7164995979945,776.1454544828442 L1081.7513945382152,769.3795208563625 M1067.9337792994384,780.9560742337779 L1081.7513945382152,769.3795208563625 M1067.9337792994384,780.9560742337779 L449.12149633413765,453.986059535054 M449.12149633413765,453.986059535054 L451.66003921233664,448.9176506125385 M451.66003921233664,448.9176506125385 L298.98015681134177,368.6766966371267 M297.1061530838482,373.66370591466546 L298.98015681134177,368.6766966371267 M297.1061530838482,373.66370591466546 L-154.03550695099318,135.2880316214156 M-154.03550695099318,135.2880316214156 L-153.7133144771292,130.76351892570062 M-153.7133144771292,130.76351892570062 L-237.12762137125594,86.92510711186719 M-237.23224239432716,91.3282742610109 L-237.12762137125594,86.92510711186719 M-237.23224239432716,91.3282742610109 L-310.4036266616199,52.66574404303162 M-310.4036266616199,52.66574404303162 L-310.5627793023077,42.7903228529774 M-310.5627793023077,42.7903228529774 L-314.02712104313764,40.98243111821478 M1109.0189517989525,764.3460408682303 L-314.2060699379733,31.015001977059455 M1094.7164995979945,776.1454544828442 L1109.0189517989525,764.3460408682303 M-314.00415006801154,54.49518571528614 L-310.4036266616199,52.66574404303162 M-314.1828534694341,44.606602555158645 L-310.5627793023077,42.7903228529774 M-237.23224239432716,91.3282742610109 L-240.83167603998504,93.34071460220116 M-237.12762137125594,86.92510711186719 L-240.73553374195933,88.9317473293192 M-157.61369130712183,137.51916657873426 L-154.03550695099318,135.2880316214156 M-157.29981790736554,132.98879428271516 L-153.7133144771292,130.76351892570062 M297.1061530838482,373.66370591466546 L294.0143304307262,377.27775883076424 M298.98015681134177,368.6766966371267 L295.8843698977513,372.2862802687879 M446.3348688804774,458.14111564652444 L449.12149633413765,453.986059535054 M448.87254555400295,453.06951764837606 L451.66003921233664,448.9176506125385 M1067.9337792994384,780.9560742337779 L1067.1260547991653,787.7044147651262 M1081.7513945382152,769.3795208563625 L1080.9972868798027,776.1454381517557 M1094.0173684839228,782.972295172288 L1094.7164995979945,776.1454544828442 M1108.377581824424,771.1905282238939 L1109.0189517989525,764.3460408682303" stroke="black"  stroke-width="4"  fill="red"/></svg>