<svg viewBox="0 0 800 800" xmlns="http://www.w3.org/2000/svg"><path d="M639.3643064304633,258.77808078007547 L639.3651067106548,258.7220258844118 M160.6076545277174,541.2601578487702 L160.6084495497198,541.2040998471766 M639.3643064304633,258.77808078007547 L691.6060133555147,296.6805738255971 M691.6060133555147,296.6805738255971 L726.9009057163348,340.58820243240734 M726.9009057163348,340.58820243240734 L743.2041637727525,387.95205103135595 M743.2041637727525,387.95205103135595 L739.5546469566907,436.01704517310645 M739.5546469566907,436.01704517310645 L716.1746827429597,481.99106150302396 M716.1746827429597,481.99106150302396 L674.4173198526842,523.2033567406252 M674.4173198526842,523.2033567406252 L616.7096300133126,557.2566190455818 M616.7096300133126,557.2566190455818 L546.4046969255869,582.1715399915847 M546.4046969255869,582.1715399915847 L467.59168550574395,596.4990812137148 M467.59168550574395,596.4990812137148 L384.8493796321709,599.4090123808492 M384.8493796321709,599.4090123808492 L302.98510845570127,590.7255820486334 M302.98510845570127,590.7255820486334 L226.76241110001865,570.9609503256215 M226.76241110001865,570.9609503256215 L160.6076545277174,541.2601578487702 M639.3651067106548,258.7220258844118 L691.6068142311706,296.624518513152 M691.6068142311706,296.624518513152 L726.9017070000846,340.5321466371588 M726.9017070000846,340.5321466371588 L743.2049652535934,387.89599471532165 M743.2049652535934,387.89599471532165 L739.555448411993,435.96098832859025 M739.555448411993,435.96098832859025 L716.1754839516943,481.93500415304334 M716.1754839516943,481.93500415304334 L674.4181206080684,523.1472989375507 M674.4181206080684,523.1472989375507 L616.7104301349027,557.2005608681247 M616.7104301349027,557.2005608681247 L546.4054962697555,582.1154815402242 M546.4054962697555,582.1154815402242 L467.5924839741201,596.4430226048462 M467.5924839741201,596.4430226048462 L384.85017717722803,599.3529537399918 M384.85017717722803,599.3529537399918 L302.98590508359484,590.6695235032366 M302.98590508359484,590.6695235032366 L226.7632068702951,570.9048919975048 M226.7632068702951,570.9048919975048 L160.6084495497198,541.2040998471766 M160.6076545277174,541.2601578487702 L108.36885426093068,503.3503335091373 M108.36885426093068,503.3503335091373 L73.08242958354822,459.4370533086276 M73.08242958354822,459.4370533086276 L56.7950347464066,412.0726824359226 M56.7950347464066,412.0726824359226 L60.45371820623404,364.0064432629133 M60.45371820623404,364.0064432629133 L83.84451037316467,318.0367160397818 M83.84451037316467,318.0367160397818 L125.60810820579354,276.83110652578034 M125.60810820579354,276.83110652578034 L183.31601125228917,242.7853947853182 M183.31601125228917,242.7853947853182 L253.6150869703706,217.8771595602102 M253.6150869703706,217.8771595602102 L332.4175126621267,203.55390744746 M332.4175126621267,203.55390744746 L415.1507032995869,200.64704187557254 M415.1507032995869,200.64704187557254 L496.9989600387489,209.325639214514 M496.9989600387489,209.325639214514 L573.2128705449722,229.08461951178833 M573.2128705449722,229.08461951178833 L639.3643064304633,258.77808078007547 M160.6084495497198,541.2040998471766 L108.36964868754148,503.29427592432876 M108.36964868754148,503.29427592432876 L73.08322360222519,459.38099620661524 M73.08322360222519,459.38099620661524 L56.79582856829802,412.016625854676 M56.79582856829802,412.016625854676 L60.454512053896906,363.9503872101668 M60.454512053896906,363.9503872101668 L83.84530446764256,317.9806604925034 M83.84530446764256,317.9806604925034 L125.60890275378188,276.7750514316067 M125.60890275378188,276.7750514316067 L183.31680643408617,242.72934006551623 M183.31680643408617,242.72934006551623 L253.61588292945817,217.8211051143153 M253.61588292945817,217.8211051143153 L332.4183094967884,203.49785315907684 M332.4183094967884,203.49785315907684 L415.15150105729117,200.59098761915266 M415.15150105729117,200.59098761915266 L496.99975871331117,209.26958486266085 M496.99975871331117,209.26958486266085 L573.2136700769624,229.02856494265507 M573.2136700769624,229.02856494265507 L639.3651067106548,258.7220258844118" stroke="black"  stroke-width="4"  fill="red"/></svg>