<svg viewBox="0 0 800 800" xmlns="http://www.w3.org/2000/svg"><path d="M227.8983375722671,326.72289546553975 L63.63204447487044,409.89524745922876 M63.632045700811034,397.15489796168873 L63.63204447487044,409.89524745922876 M63.632045700811034,397.15489796168873 L63.631730065851286,396.9792964487553 M63.631730065851286,396.9792964487553 L63.63154067650038,396.8036208709243 M63.63154067650038,396.8036208709243 L63.63147754419123,396.62787123535225 M228.25558393750282,313.72874950198405 L63.63147754419123,396.62787123535225 M227.8983375722671,326.72289546553975 L228.25558393750282,313.72874950198405 M706.3708325625093,735.3307528483715 L692.5246880796767,728.3200867566785 M529.8767292067504,835.4663687965461 L692.5246880796767,728.3200867566785 M529.8767292067504,835.4663687965461 L332.28681717718223,728.3204538358881 M320.72699683397116,735.3311218000849 L332.28681717718223,728.3204538358881 M256.42223594634766,700.2923286751534 L320.72699683397116,735.3311218000849 M267.99694562775676,693.4583647792585 L256.42223594634766,700.2923286751534 M267.99694562775676,693.4583647792585 L14.978550901802748,556.2555737747639 M3.385540306345206,562.4160608970906 L14.978550901802748,556.2555737747639 M-53.157008545520625,531.6067919622586 L3.385540306345206,562.4160608970906 M-41.568692547630405,525.5920339429026 L-53.157008545520625,531.6067919622586 M-41.568692547630405,525.5920339429026 L-90.29413017788215,499.16997857010335 M74.45639503586642,415.3759000363168 L-90.29413017788215,499.16997857010335 M74.45639503586642,415.3759000363168 L63.63204447487044,409.89524745922876 M866.966147889118,628.9145005943609 L227.8983375722671,326.72289546553975 M706.3708325625093,735.3307528483715 L866.966147889118,628.9145005943609 M153.14438954677894,369.9513795388954 L152.99256096890076,369.8929896879166 M152.99256096890076,369.8929896879166 L152.81775026408752,369.85413752865065 M152.81775026408752,369.85413752865065 L152.6301251124686,369.8370734214267 M152.6301251124686,369.8370734214267 L152.44058781754484,369.84278632301243 M152.44058781754484,369.84278632301243 L152.26013037638177,369.8709542686353 M152.26013037638177,369.8709542686353 L152.09925169097073,369.91993315850846 M152.09925169097073,369.91993315850846 L151.9673033422631,369.9868768205668 M151.9673033422631,369.9868768205668 L151.87193605924858,370.0679063624994 M151.87193605924858,370.0679063624994 L151.81869878500504,370.15831281384385 M151.81869878500504,370.15831281384385 L151.81070682390822,370.2528356134352 M151.81070682390822,370.2528356134352 L151.84841070191084,370.34599089406413 M151.84841070191084,370.34599089406413 L151.9296277035474,370.4323622501087 M151.9296277035474,370.4323622501087 L152.04965228186234,370.50692208443826 M152.04965228186234,370.50692208443826 L152.20149733632718,370.5653421552302 M152.20149733632718,370.5653421552302 L152.3763499750205,370.60421740497026 M152.3763499750205,370.60421740497026 L152.56403344807626,370.62129245150004 M152.56403344807626,370.62129245150004 L152.7536320911517,370.61557583331273 M152.7536320911517,370.61557583331273 L152.93413985749294,370.5873903606813 M152.93413985749294,370.5873903606813 L153.09504631226525,370.53838415389623 M153.09504631226525,370.53838415389623 L153.22699351462813,370.4714096432205 M153.22699351462813,370.4714096432205 L153.3223309980611,370.3903527840996 M153.3223309980611,370.3903527840996 L153.3755166445584,370.2999288070714 M153.3755166445584,370.2999288070714 L153.3834469812129,370.20540228893407 M153.3834469812129,370.20540228893407 L153.34568559480203,370.1122579479255 M153.34568559480203,370.1122579479255 L153.2644283754654,370.0259096845733 M153.2644283754654,370.0259096845733 L153.14438954677894,369.9513795388954 M781.8845238542499,677.3496975745333 L781.6958908515167,677.2753477355006 M781.6958908515167,677.2753477355006 L781.4871221688954,677.2258787641165 M781.4871221688954,677.2258787641165 L781.2703732872312,677.2041634884545 M781.2703732872312,677.2041634884545 L781.0581987570636,677.2114414388378 M781.0581987570636,677.2114414388378 L780.8628955166287,677.2472976513413 M780.8628955166287,677.2472976513413 L780.6958821509234,677.3096679327114 M780.6958821509234,677.3096679327114 L780.5668260695211,677.394908378308 M780.5668260695211,677.394908378308 L780.4832112096226,677.4980803621723 M780.4832112096226,677.4980803621723 L780.4499456310325,677.6132084469455 M780.4499456310325,677.6132084469455 L780.468927372184,677.7335653997476 M780.468927372184,677.7335653997476 L780.5390510330615,677.8521734438849 M780.5390510330615,677.8521734438849 L780.6562893074667,677.9621549399902 M780.6562893074667,677.9621549399902 L780.8138270729398,678.0570997878212 M780.8138270729398,678.0570997878212 L781.0024903842534,678.1314926695236 M781.0024903842534,678.1314926695236 L781.2113201845632,678.180994818282 M781.2113201845632,678.180994818282 L781.4281911324292,678.2027473994684 M781.4281911324292,678.2027473994684 L781.6404425337294,678.1954641060566 M781.6404425337294,678.1954641060566 L781.8358040047276,678.1595827163108 M781.8358040047276,678.1595827163108 L782.0028435901309,678.0971731801931 M782.0028435901309,678.0971731801931 L782.1318878956206,678.011888408621 M782.1318878956206,678.011888408621 L782.2154556797288,677.908677174618 M782.2154556797288,677.908677174618 L782.2486496483314,677.7935239052891 M782.2486496483314,677.7935239052891 L782.2295881973316,677.6731616102298 M782.2295881973316,677.6731616102298 L782.1593508218348,677.5545476969393 M782.1593508218348,677.5545476969393 L782.042069058941,677.4445993819373 M782.042069058941,677.4445993819373 L781.8845238542499,677.3496975745333 M74.47985584893934,402.61867632503953 L63.632045700811034,397.15489796168873 M74.47985584893934,402.61867632503953 L74.45639503586642,415.3759000363168 M74.48025867365067,402.09094980393695 L74.47999812684611,402.2669330293535 M74.47999812684611,402.2669330293535 L74.4798638557537,402.4428418721085 M74.4798638557537,402.4428418721085 L74.47985584893934,402.61867632503953 M63.63147754419123,396.62787123535225 L74.48025867365067,402.09094980393695 M694.1261095083978,714.1236037410231 L708.011705933091,721.1159195905676 M708.011705933091,721.1159195905676 L868.9383902052182,614.9876339401211 M868.9383902052182,614.9876339401211 L228.25558393750282,313.72874950198405 M74.48025867365067,402.09094980393695 L-90.65350255565966,485.62293101411876 M-90.65350255565966,485.62293101411876 L-41.81688312280562,511.9651185659127 M-41.81688312280562,511.9651185659127 L-53.43319010655398,517.9618753458293 M-53.43319010655398,517.9618753458293 L3.2413488902050176,548.6799836647372 M3.2413488902050176,548.6799836647372 L14.862383995914456,542.5375845162304 M14.862383995914456,542.5375845162304 L268.51091513291703,679.3541221276149 M268.51091513291703,679.3541221276149 L256.9083180766552,686.1697555152693 M256.9083180766552,686.1697555152693 L321.383568899751,721.1159195905676 M321.383568899751,721.1159195905676 L332.97116309421426,714.1236037410231 M332.97116309421426,714.1236037410231 L531.1107555584624,820.998943736771 M694.1261095083978,714.1236037410231 L531.1107555584624,820.998943736771 M154.16515214033734,356.39836296724013 L154.46594651898545,356.5840241863421 M154.46594651898545,356.5840241863421 L154.66964545293297,356.799135940796 M154.66964545293297,356.799135940796 L154.76439014272938,357.031209346364 M154.76439014272938,357.031209346364 L154.7446427524083,357.2667622570945 M154.7446427524083,357.2667622570945 L154.61150907517793,357.4921085115288 M154.61150907517793,357.4921085115288 L154.37271901336192,357.69413214594505 M154.37271901336192,357.69413214594505 L154.04211119935928,357.86108897300426 M154.04211119935928,357.86108897300426 L153.6389198134484,357.98324894323696 M153.6389198134484,357.98324894323696 L153.1865694566702,358.05350956189784 M153.1865694566702,358.05350956189784 L152.71139654296593,358.0677678751897 M152.71139654296593,358.0677678751897 L152.24103883242947,358.0251977053005 M152.24103883242947,358.0251977053005 L151.80286462042994,357.9282792899455 M151.80286462042994,357.9282792899455 L151.42236088538607,357.78265702302474 M151.42236088538607,357.78265702302474 L151.1216531029445,357.59680905622025 M151.1216531029445,357.59680905622025 L150.91820607580735,357.3815528685147 M150.91820607580735,357.3815528685147 L150.823822941936,357.14941142741094 M150.823822941936,357.14941142741094 L150.84395693333613,356.9138816006779 M150.84395693333613,356.9138816006779 L150.97741472002429,356.68864476180886 M150.97741472002429,356.68864476180886 L151.21639186950085,356.4867916710616 M151.21639186950085,356.4867916710616 L151.54700689645222,356.3200274548757 M151.54700689645222,356.3200274548757 L151.95002396774498,356.198038026268 M151.95002396774498,356.198038026268 L152.40205840998124,356.1278868264316 M152.40205840998124,356.1278868264316 L152.87684646128548,356.1136518597888 M152.87684646128548,356.1136518597888 L153.34683750042592,356.15615346498737 M153.34683750042592,356.15615346498737 L153.7847490078841,356.25292797505597 M153.7847490078841,356.25292797505597 L154.16515214033734,356.39836296724013 M784.4844687800778,662.760136959476 L784.8795024796477,662.996682072401 M784.8795024796477,662.996682072401 L785.1736951624748,663.2707247464975 M785.1736951624748,663.2707247464975 L785.3500383325543,663.5664106831542 M785.3500383325543,663.5664106831542 L785.3981718358439,663.8665275358948 M785.3981718358439,663.8665275358948 L785.31527026911,664.1536487262882 M785.31527026911,664.1536487262882 L785.1061195730761,664.4110547003246 M785.1061195730761,664.4110547003246 L784.782841933378,664.6237866385947 M784.782841933378,664.6237866385947 L784.364239325191,664.7794440698023 M784.364239325191,664.7794440698023 L783.8746167585919,664.8689672414183 M783.8746167585919,664.8689672414183 L783.3424940181194,664.8871333399645 M783.3424940181194,664.8871333399645 L782.798803844466,664.8328782027031 M782.798803844466,664.8328782027031 L782.2752605373789,664.7093994966312 M782.2752605373789,664.7093994966312 L781.8022115077565,664.5238364589627 M781.8022115077565,664.5238364589627 L781.4072686377715,664.2870439279873 M781.4072686377715,664.2870439279873 L781.1133046940663,664.0127723955777 M781.1133046940663,664.0127723955777 L780.9374427163953,663.7170097649306 M780.9374427163953,663.7170097649306 L780.8898099538815,663.4169263001163 M780.8898099538815,663.4169263001163 L780.9731613768774,663.1299624654716 M780.9731613768774,663.1299624654716 L781.1826079587086,662.8728017529165 M781.1826079587086,662.8728017529165 L781.5059597574573,662.6603468126962 M781.5059597574573,662.6603468126962 L781.9243978050424,662.5049346445231 M781.9243978050424,662.5049346445231 L782.4136547700409,662.4155688245789 M782.4136547700409,662.4155688245789 L782.945294645498,662.3974361078666 M782.945294645498,662.3974361078666 L783.4884510323031,662.451571489136 M783.4884510323031,662.451571489136 L784.0116545874296,662.5748643992545 M784.0116545874296,662.5748643992545 L784.4844687800778,662.760136959476 M866.966147889118,628.9145005943609 L868.9383902052182,614.9876339401211 M707.9470076549421,721.6806870598336 L694.0629804851867,714.6876399645752 M707.9470076549421,721.6806870598336 L706.3708325625093,735.3307528483715 M694.0629804851867,714.6876399645752 L692.5246880796767,728.3200867566785 M694.0629804851867,714.6876399645752 L694.0838979853045,714.4997219329475 M694.0838979853045,714.4997219329475 L694.1049409893931,714.3117098560422 M694.1049409893931,714.3117098560422 L694.1261095083978,714.1236037410231 M529.8767292067504,835.4663687965461 L531.1107555584624,820.998943736771 M332.28681717718223,728.3204538358881 L332.97116309421426,714.1236037410231 M320.72699683397116,735.3311218000849 L321.383568899751,721.1159195905676 M256.42223594634766,700.2923286751534 L256.9083180766552,686.1697555152693 M267.99694562775676,693.4583647792585 L268.51091513291703,679.3541221276149 M14.978550901802748,556.2555737747639 L14.862383995914456,542.5375845162304 M3.385540306345206,562.4160608970906 L3.2413488902050176,548.6799836647372 M-53.157008545520625,531.6067919622586 L-53.43319010655398,517.9618753458293 M-41.568692547630405,525.5920339429026 L-41.81688312280562,511.9651185659127 M-90.29413017788215,499.16997857010335 L-90.65350255565966,485.62293101411876 M708.011705933091,721.1159195905676 L707.990014386854,721.3042699190963 M707.990014386854,721.3042699190963 L707.968448297778,721.4925257445707 M707.968448297778,721.4925257445707 L707.9470076549421,721.6806870598336 M153.14438954677894,369.9513795388954 L153.32179363372893,358.1955235076657 M153.32179363372893,358.1955235076657 L153.44207590701149,358.26983463193534 M153.44207590701149,358.26983463193534 L153.52350059993262,358.3559291554966 M153.52350059993262,358.3559291554966 L153.56134376500967,358.44879979981437 M153.56134376500967,358.44879979981437 L153.5534047469659,358.5430485744954 M153.5534047469659,358.5430485744954 L153.50012040524592,358.63320687620364 M153.50012040524592,358.63320687620364 L153.4045999639003,358.71402559307325 M153.4045999639003,358.71402559307325 L153.27239617126077,358.78080334313523 M153.27239617126077,358.78080334313523 L153.11117437088018,358.82966558205834 M153.11117437088018,358.82966558205834 L152.9303108478955,358.8577682546837 M152.9303108478955,358.8577682546837 L152.74033675983384,358.8634680794144 M152.74033675983384,358.8634680794144 L152.5522799588132,358.84644319365435 M152.5522799588132,358.84644319365435 L152.3770778317035,358.8076821481772 M152.3770778317035,358.8076821481772 L152.22492747583823,358.7494337033832 M152.22492747583823,358.7494337033832 L152.1046595062037,358.6750929184992 M152.1046595062037,358.6750929184992 L152.02327518886506,358.5889753244611 M152.02327518886506,358.5889753244611 L151.98548975958937,358.4960937510469 M151.98548975958937,358.4960937510469 L151.99349064688585,358.4018486913345 M151.99349064688585,358.4018486913345 L152.04682682251496,358.31170789845004 M152.04682682251496,358.31170789845004 L152.14237718371157,358.23091647248935 M152.14237718371157,358.23091647248935 L152.27458212952587,358.1641695413683 M152.27458212952587,358.1641695413683 L152.4357760523721,358.1153345930777 M152.4357760523721,358.1153345930777 L152.61658905177654,358.08724943059974 M152.61658905177654,358.08724943059974 L152.80650154852248,358.0815533188954 M152.80650154852248,358.0815533188954 L152.99449979586882,358.0985672758732 M152.99449979586882,358.0985672758732 L153.16965982099077,358.13730525308944 M153.16965982099077,358.13730525308944 L153.32179363372893,358.1955235076657 M781.8845238542499,677.3496975745333 L783.4912210177815,664.768495213645 M783.4912210177815,664.768495213645 L783.6491752300369,664.8631663164837 M783.6491752300369,664.8631663164837 L783.7667849247844,664.9728473677407 M783.7667849247844,664.9728473677407 L783.8372501735926,665.0911729752378 M783.8372501735926,665.0911729752378 L783.8564260577127,665.2112427386073 M783.8564260577127,665.2112427386073 L783.8232265020388,665.3261161588043 M783.8232265020388,665.3261161588043 L783.7395332910535,665.4290765842073 M783.7395332910535,665.4290765842073 L783.6102510983762,665.5141541226845 M783.6102510983762,665.5141541226845 L783.4428749518713,665.5764120177569 M783.4428749518713,665.5764120177569 L783.2470977183079,665.6122062267617 M783.2470977183079,665.6122062267617 L783.0343757110088,665.6194718242705 M783.0343757110088,665.6194718242705 L782.8170065245083,665.5977720946502 M782.8170065245083,665.5977720946502 L782.6076799642904,665.5483902226285 M782.6076799642904,665.5483902226285 L782.4185502178361,665.4741781029776 M782.4185502178361,665.4741781029776 L782.2606034524272,665.3794639682626 M782.2606034524272,665.3794639682626 L782.1430374211643,665.2697497424942 M782.1430374211643,665.2697497424942 L782.072686300849,665.1514299548038 M782.072686300849,665.1514299548038 L782.0535904868268,665.03136553263 M782.0535904868268,665.03136553263 L782.0868619883006,664.9165172919855 M782.0868619883006,664.9165172919855 L782.1706025093852,664.8135961089233 M782.1706025093852,664.8135961089233 L782.299896557189,664.7285628876153 M782.299896557189,664.7285628876153 L782.467246389981,664.6663442394919 M782.467246389981,664.6663442394919 L782.6629651471683,664.6305752027275 M782.6629651471683,664.6305752027275 L782.8756099421814,664.6233149471859 M782.8756099421814,664.6233149471859 L783.0928565924269,664.6449774268739 M783.0928565924269,664.6449774268739 L783.3021217413723,664.6943261281127 M783.3021217413723,664.6943261281127 L783.4912210177815,664.768495213645 M154.16515214033734,356.39836296724013 L154.1441086250614,357.7802598453551 M154.1441086250614,357.7802598453551 L154.44483144103873,357.9659856691318 M154.44483144103873,357.9659856691318 L154.64848111189815,358.1811722677638 M154.64848111189815,358.1811722677638 L154.74320171085566,358.4133264088666 M154.74320171085566,358.4133264088666 L154.72345681649097,358.64896125484955 M154.72345681649097,358.64896125484955 L154.5903520943479,358.8743858840843 M154.5903520943479,358.8743858840843 L154.3516157723152,359.07647977332437 M154.3516157723152,359.07647977332437 L154.02108337245141,359.24349465451564 M154.02108337245141,359.24349465451564 L153.61798468787157,359.3656970986929 M153.61798468787157,359.3656970986929 L153.1657389304404,359.43598214503095 M153.1657389304404,359.43598214503095 L152.6906764180169,359.45024541542665 M152.6906764180169,359.45024541542665 L152.22042848167087,359.40766044529875 M152.22042848167087,359.40766044529875 L151.7823570221246,359.3107083332985 M151.7823570221246,359.3107083332985 L151.401943035771,359.1650354329019 M151.401943035771,359.1650354329019 L151.10130677748822,358.9791228399583 M151.10130677748822,358.9791228399583 L150.8979088974438,358.7637917913648 M150.8979088974438,358.7637917913648 L150.80354968702142,358.53156960694537 M150.80354968702142,358.53156960694537 L150.82368100244776,358.29595784759005 M150.82368100244776,358.29595784759005 L150.95710968239894,358.07064264653263 M150.95710968239894,358.07064264653263 L151.19603300362007,357.86871932061945 M151.19603300362007,357.86871932061945 L151.52657261140257,357.70189707250313 M151.52657261140257,357.70189707250313 L151.92949706092912,357.5798651896086 M151.92949706092912,357.5798651896086 L152.38142704975314,357.50968957470747 M152.38142704975314,357.50968957470747 L152.85610487858145,357.4954496536824 M152.85610487858145,357.4954496536824 L153.32598631448894,357.5379660511551 M153.32598631448894,357.5379660511551 L153.76379519301912,357.6347742413431 M153.76379519301912,357.6347742413431 L154.1441086250614,357.7802598453551 M784.4844687800778,662.760136959476 L784.2953547637601,664.2394760352532 M784.2953547637601,664.2394760352532 L784.6902681718839,664.4760893001219 M784.6902681718839,664.4760893001219 L784.9843643637632,664.7502109160648 M784.9843643637632,664.7502109160648 L785.1606404288,665.0459820127594 M785.1606404288,665.0459820127594 L785.2087401539436,665.3461852842131 M785.2087401539436,665.3461852842131 L785.1258401165533,665.6333891347467 M785.1258401165533,665.6333891347467 L784.9167261893031,665.8908692004337 M784.9167261893031,665.8908692004337 L784.5935184361972,666.1036623616258 M784.5935184361972,666.1036623616258 L784.1750147714122,666.2593645844679 M784.1750147714122,666.2593645844679 L783.6855144580038,666.3489135149277 M783.6855144580038,666.3489135149277 L783.153530151815,666.3670848402838 M783.153530151815,666.3670848402838 L782.6099865359645,666.3128140923642 M782.6099865359645,666.3128140923642 L782.0865893479543,666.1892998560129 M782.0865893479543,666.1892998560129 L781.61367752149,666.003683418058 M781.61367752149,666.003683418058 L781.218854924273,665.7668227344924 M781.218854924273,665.7668227344924 L780.9249873559299,665.4924722487591 M780.9249873559299,665.4924722487591 L780.7491922477732,665.1966244617735 M780.7491922477732,665.1966244617735 L780.7015929982726,664.896454579096 M780.7015929982726,664.896454579096 L780.784942644791,664.6094080883169 M780.784942644791,664.6094080883169 L780.9943522853353,664.3521732903542 M780.9943522853353,664.3521732903542 L781.3176341391213,664.1396571342631 M781.3176341391213,664.1396571342631 L781.7359733124429,663.9842001806988 M781.7359733124429,663.9842001806988 L782.2251082050682,663.8948086059163 M782.2251082050682,663.8948086059163 L782.7566098973041,663.8766706632438 M782.7566098973041,663.8766706632438 L783.2996200032314,663.9308216464714 M783.2996200032314,663.9308216464714 L783.8226776422441,664.0541500877915 M783.8226776422441,664.0541500877915 L784.2953547637601,664.2394760352532" stroke="black"  stroke-width="4"  fill="red"/>
<path d="M706.3708325625093,735.3307528483715 L532.3513315199639,850.6423550728749 M706.3708325625093,735.3307528483715 L692.5246880796767,728.3200867566785 M518.3886490732657,843.0342785484333 L692.5246880796767,728.3200867566785 M532.3513315199639,850.6423550728749 L518.3886490732657,843.0342785484333 M707.9470076549421,721.6806870598336 L706.3708325625093,735.3307528483715 M814.5962335994229,474.96618229306875 L808.9735871748342,482.2364445507317 M808.9735871748342,482.2364445507317 L803.4214157994559,489.71443170560354 M803.4214157994559,489.71443170560354 L797.9487413710494,497.38842541326653 M797.9487413710494,497.38842541326653 L792.5644299920027,505.2463180815137 M792.5644299920027,505.2463180815137 L787.2772058378011,513.2757424635498 M787.2772058378011,513.2757424635498 L782.0956376935255,521.4638637281647 M782.0956376935255,521.4638637281647 L777.0281159055801,529.7976225173571 M777.0281159055801,529.7976225173571 L772.0828083670892,538.2636811456479 M772.0828083670892,538.2636811456479 L767.2676752204886,546.8484671953256 M767.2676752204886,546.8484671953256 L762.5904436490775,555.5380659711186 M762.5904436490775,555.5380659711186 L758.0585693663654,564.3185638556488 M758.0585693663654,564.3185638556488 L753.6792442474868,573.1757450119292 M753.6792442474868,573.1757450119292 L749.4593608383857,582.0953894680215 M749.4593608383857,582.0953894680215 L745.4055239970157,591.063057420987 M745.4055239970157,591.063057420987 L741.5240044683503,600.0643942230788 M741.5240044683503,600.0643942230788 L737.8207438818615,609.0849638915408 M737.8207438818615,609.0849638915408 L734.3013609420179,618.1102583538461 M734.3013609420179,618.1102583538461 L730.9710998641392,627.1259177205777 M730.9710998641392,627.1259177205777 L727.834844212967,636.1176901014305 M727.834844212967,636.1176901014305 L724.8971246754363,645.0712660183508 M724.8971246754363,645.0712660183508 L722.1620821753113,653.9725755198232 M722.1620821753113,653.9725755198232 L719.6334647332762,662.8078017461717 M719.6334647332762,662.8078017461717 L717.3146560549228,671.5631162064697 M717.3146560549228,671.5631162064697 L715.2086313024372,680.2250642425644 M715.2086313024372,680.2250642425644 L713.3179783542482,688.7803902665646 M713.3179783542482,688.7803902665646 L711.6448864332494,697.2161419479156 M711.6448864332494,697.2161419479156 L710.191154781249,705.5196322579029 M710.191154781249,705.5196322579029 L708.9581947944291,713.6784483562466 M708.9581947944291,713.6784483562466 L707.9470076549421,721.6806870598336 M815.1297093244589,474.29112707255535 L815.1425376170967,474.36500494862554 M815.1425376170967,474.36500494862554 L815.1391200920737,474.4542270503862 M815.1391200920737,474.4542270503862 L815.1196530689078,474.5535564855626 M815.1196530689078,474.5535564855626 L815.0852847838185,474.6572150644951 M815.0852847838185,474.6572150644951 L815.0379791459202,474.759278319846 M815.0379791459202,474.759278319846 L814.9805179432681,474.8537182326496 M814.9805179432681,474.8537182326496 L814.9162222412892,474.9350638852824 M814.9162222412892,474.9350638852824 L814.8488330606226,474.99860818052895 M814.8488330606226,474.99860818052895 L814.7822575499413,475.04069761952366 M814.7822575499413,475.04069761952366 L814.7203736771946,475.0588082678827 M814.7203736771946,475.0588082678827 L814.666780618752,475.0519222825283 M814.666780618752,475.0519222825283 L814.6245776640862,475.020442090544 M814.6245776640862,475.020442090544 L814.5962335994229,474.96618229306875 M924.6951034609629,221.26506534274026 L923.3358601540945,230.1725587867345 M923.3358601540945,230.1725587867345 L921.769676775385,239.1644470587259 M921.769676775385,239.1644470587259 L919.9993164264226,248.2294106587405 M919.9993164264226,248.2294106587405 L918.027698897854,257.35641622170834 M918.027698897854,257.35641622170834 L915.857922783915,266.53431945719296 M915.857922783915,266.53431945719296 L913.4932608404285,275.7520901094921 M913.4932608404285,275.7520901094921 L910.9371564928783,284.9987099298371 M910.9371564928783,284.9987099298371 L908.1932324808797,294.26320291523314 M908.1932324808797,294.26320291523314 L905.2652576811095,303.53464347069337 M905.2652576811095,303.53464347069337 L902.1571804680977,312.8021258460867 M902.1571804680977,312.8021258460867 L898.8730661948039,322.0548810866575 M898.8730661948039,322.0548810866575 L895.4171813630985,331.2822156729968 M895.4171813630985,331.2822156729968 L891.793891316765,340.4733788520687 M891.793891316765,340.4733788520687 L888.0077064934867,349.6178884391872 M888.0077064934867,349.6178884391872 L884.0632775389631,358.7052497512433 M884.0632775389631,358.7052497512433 L879.9654014915975,367.7250324722735 M879.9654014915975,367.7250324722735 L875.7189875409922,376.66697099242964 M875.7189875409922,376.66697099242964 L871.3290901088351,385.5207992289985 M871.3290901088351,385.5207992289985 L866.8008703016915,394.27644433272985 M866.8008703016915,394.27644433272985 L862.139606542384,402.92392083404377 M862.139606542384,402.92392083404377 L857.3507085237181,411.4533135123569 M857.3507085237181,411.4533135123569 L852.4396935800376,419.8548728911352 M852.4396935800376,419.8548728911352 L847.4121897197901,428.1189159498516 M847.4121897197901,428.1189159498516 L842.2739375761807,436.23590708396375 M842.2739375761807,436.23590708396375 L837.0307829281194,444.1965002892812 M837.0307829281194,444.1965002892812 L831.6886764125713,451.9913547025892 M831.6886764125713,451.9913547025892 L826.2536759771726,459.6113950607946 M826.2536759771726,459.6113950607946 L820.7319365581047,467.04759013103325 M820.7319365581047,467.04759013103325 L815.1297093244589,474.29112707255535 M581.3438187432598,416.63715860130833 L924.6951034609629,221.26506534274026 M561.8833336196856,637.8497199315386 L581.3438187432598,416.63715860130833 M550.0187381079703,645.179532947873 L561.8833336196856,637.8497199315386 M532.3513315199639,850.6423550728749 L550.0187381079703,645.179532947873 M707.9470076549421,721.6806870598336 L694.0629804851867,714.6876399645752 M694.0629804851867,714.6876399645752 L692.5246880796767,728.3200867566785 M518.3886490732657,843.0342785484333 L535.4826884984868,637.8497199315386 M547.3546003221019,630.560055236107 L535.4826884984868,637.8497199315386 M547.3546003221019,630.560055236107 L566.1938715390041,409.69301772659543 M909.8558363969576,215.38689222946485 L566.1938715390041,409.69301772659543 M909.8558363969576,215.38689222946485 L908.521282499685,224.27946984413296 M908.521282499685,224.27946984413296 L906.979435426314,233.25593555079536 M906.979435426314,233.25593555079536 L905.233028513436,242.30498760800003 M905.233028513436,242.30498760800003 L903.2849534340062,251.41561002544498 M903.2849534340062,251.41561002544498 L901.1382811012256,260.576676103704 M901.1382811012256,260.576676103704 L898.7962577402013,269.7771731135905 M898.7962577402013,269.7771731135905 L896.2623010580721,279.0061004209381 M896.2623010580721,279.0061004209381 L893.5400090116452,288.2524997327806 M893.5400090116452,288.2524997327806 L890.6331265565643,297.5054632014633 M890.6331265565643,297.5054632014633 L887.545579006797,306.75410300440615 M887.545579006797,306.75410300440615 L884.2814097013479,315.98766803215597 M884.2814097013479,315.98766803215597 L880.8448642229084,325.195482830253 M880.8448642229084,325.195482830253 L877.24028735504,334.36681488784785 M877.24028735504,334.36681488784785 L873.4721705104105,343.4912001698665 M873.4721705104105,343.4912001698665 L869.5451459203548,352.5581624188241 M869.5451459203548,352.5581624188241 L865.4639930759463,361.5572899677111 M865.4639930759463,361.5572899677111 L861.2336046961955,370.4783359054687 M861.2336046961955,370.4783359054687 L856.8590193676209,379.3110532061851 M856.8590193676209,379.3110532061851 L852.345383490878,388.04538813770887 M852.345383490878,388.04538813770887 L847.6979615925084,396.67137458997456 M847.6979615925084,396.67137458997456 L842.9221502522169,405.17911702540505 M842.9221502522169,405.17911702540505 L838.0234546953195,413.55888583073755 M838.0234546953195,413.55888583073755 L833.0074915030825,421.80101818121136 M833.0074915030825,421.80101818121136 L827.8799908118715,429.8959989347834 M827.8799908118715,429.8959989347834 L822.6467889298115,437.8345027747467 M822.6467889298115,437.8345027747467 L817.3138274456669,445.60720999087255 M817.3138274456669,445.60720999087255 L811.8871564989777,453.20506666207314 M811.8871564989777,453.20506666207314 L806.3729237066959,460.6190633437968 M806.3729237066959,460.6190633437968 L800.7773739405238,467.8404092456153 M800.2444883590249,468.51336732645325 L800.273086118352,468.5676339851161 M800.273086118352,468.5676339851161 L800.31551085808,468.59918160796957 M800.31551085808,468.59918160796957 L800.3692809052532,468.6061916138259 M800.3692809052532,468.6061916138259 L800.4312867227541,468.58825440414086 M800.4312867227541,468.58825440414086 L800.4979219292638,468.5463777726666 M800.4979219292638,468.5463777726666 L800.5653053064777,468.4830731725782 M800.5653053064777,468.4830731725782 L800.6295299424573,468.40198024167603 M800.6295299424573,468.40198024167603 L800.6868588665295,468.3077914052776 M800.6868588665295,468.3077914052776 L800.7339786959142,468.2059630588815 M800.7339786959142,468.2059630588815 L800.7681186503683,468.10250938166007 M800.7681186503683,468.10250938166007 L800.7873278714947,468.0033431348172 M800.7873278714947,468.0033431348172 L800.7904730752352,467.91423297858256 M800.7904730752352,467.91423297858256 L800.7773739405238,467.8404092456153 M694.0629804851867,714.6876399645752 L695.0521964311649,706.6960444659751 M695.0521964311649,706.6960444659751 L696.2633179257602,698.5486819579274 M696.2633179257602,698.5486819579274 L697.6953760996962,690.2574393638697 M697.6953760996962,690.2574393638697 L699.3469925198067,681.8347111814677 M699.3469925198067,681.8347111814677 L701.2164009055459,673.2931643204686 M701.2164009055459,673.2931643204686 L703.3014449735424,664.6457292362619 M703.3014449735424,664.6457292362619 L705.5995698685063,655.9056378423898 M705.5995698685063,655.9056378423898 L708.1078332531501,647.0863194833438 M708.1078332531501,647.0863194833438 L710.8228845399808,638.2015754831783 M710.8228845399808,638.2015754831783 L713.7410080508237,629.2651942299603 M713.7410080508237,629.2651942299603 L716.8580951746346,620.2912155782254 M716.8580951746346,620.2912155782254 L720.1696474755697,611.2939173370216 M720.1696474755697,611.2939173370216 L723.6708127550714,602.2875186059752 M723.6708127550714,602.2875186059752 L727.3563777685754,593.2863452042766 M727.3563777685754,593.2863452042766 L731.2207544673031,584.3048698134629 M731.2207544673031,584.3048698134629 L735.2580310118356,575.3574921188151 M735.2580310118356,575.3574921188151 L739.4619655233407,566.4585296028997 M739.4619655233407,566.4585296028997 L743.8259815789722,557.6223838826534 M743.8259815789722,557.6223838826534 L748.3432137988602,548.8632362235345 M748.3432137988602,548.8632362235345 L753.006496829048,540.1952630106633 M753.006496829048,540.1952630106633 L757.8083999794258,531.632338132214 M757.8083999794258,531.632338132214 L762.7412204999398,523.1883359604673 M762.7412204999398,523.1883359604673 L767.7970211007814,514.8767885231987 M767.7970211007814,514.8767885231987 L772.9676555452086,506.7109930333104 M772.9676555452086,506.7109930333104 L778.2447537420849,498.7039683461635 M778.2447537420849,498.7039683461635 L783.6197660291505,490.86850884668223 M783.6197660291505,490.86850884668223 L789.0839854941421,483.216941763872 M789.0839854941421,483.216941763872 L794.6285621039544,475.761334928721 M794.6285621039544,475.761334928721 L800.2444883590249,468.51336732645325 M535.4826884984868,637.8497199315386 L550.0187381079703,645.179532947873 M814.5962335994229,474.96618229306875 L800.2444883590249,468.51336732645325 M815.1297093244589,474.29112707255535 L800.7773739405238,467.8404092456153 M924.6951034609629,221.26506534274026 L909.8558363969576,215.38689222946485 M581.3438187432598,416.63715860130833 L566.1938715390041,409.69301772659543 M561.8833336196856,637.8497199315386 L547.3546003221019,630.560055236107" stroke="black"  stroke-width="4"  fill="red"/>
<path d="M781.8845238542499,677.3496975745333 L783.4912210177815,664.768495213645 M783.4912210177815,664.768495213645 L783.6491752300369,664.8631663164837 M783.6491752300369,664.8631663164837 L783.7667849247844,664.9728473677407 M783.7667849247844,664.9728473677407 L783.8372501735926,665.0911729752378 M783.8372501735926,665.0911729752378 L783.8564260577127,665.2112427386073 M783.8564260577127,665.2112427386073 L783.8232265020388,665.3261161588043 M783.8232265020388,665.3261161588043 L783.7395332910535,665.4290765842073 M783.7395332910535,665.4290765842073 L783.6102510983762,665.5141541226845 M783.6102510983762,665.5141541226845 L783.4428749518713,665.5764120177569 M783.4428749518713,665.5764120177569 L783.2470977183079,665.6122062267617 M783.2470977183079,665.6122062267617 L783.0343757110088,665.6194718242705 M783.0343757110088,665.6194718242705 L782.8170065245083,665.5977720946502 M782.8170065245083,665.5977720946502 L782.6076799642904,665.5483902226285 M782.6076799642904,665.5483902226285 L782.4185502178361,665.4741781029776 M782.4185502178361,665.4741781029776 L782.2606034524272,665.3794639682626 M782.2606034524272,665.3794639682626 L782.1430374211643,665.2697497424942 M782.1430374211643,665.2697497424942 L782.072686300849,665.1514299548038 M782.072686300849,665.1514299548038 L782.0535904868268,665.03136553263 M782.0535904868268,665.03136553263 L782.0868619883006,664.9165172919855 M782.0868619883006,664.9165172919855 L782.1706025093852,664.8135961089233 M782.1706025093852,664.8135961089233 L782.299896557189,664.7285628876153 M782.299896557189,664.7285628876153 L782.467246389981,664.6663442394919 M782.467246389981,664.6663442394919 L782.6629651471683,664.6305752027275 M782.6629651471683,664.6305752027275 L782.8756099421814,664.6233149471859 M782.8756099421814,664.6233149471859 L783.0928565924269,664.6449774268739 M783.0928565924269,664.6449774268739 L783.3021217413723,664.6943261281127 M783.3021217413723,664.6943261281127 L783.4912210177815,664.768495213645 M781.8845238542499,677.3496975745333 L781.6958908515167,677.2753477355006 M781.6958908515167,677.2753477355006 L781.4871221688954,677.2258787641165 M781.4871221688954,677.2258787641165 L781.2703732872312,677.2041634884545 M781.2703732872312,677.2041634884545 L781.0581987570636,677.2114414388378 M781.0581987570636,677.2114414388378 L780.8628955166287,677.2472976513413 M780.8628955166287,677.2472976513413 L780.6958821509234,677.3096679327114 M780.6958821509234,677.3096679327114 L780.5668260695211,677.394908378308 M780.5668260695211,677.394908378308 L780.4832112096226,677.4980803621723 M780.4832112096226,677.4980803621723 L780.4499456310325,677.6132084469455 M780.4499456310325,677.6132084469455 L780.468927372184,677.7335653997476 M780.468927372184,677.7335653997476 L780.5390510330615,677.8521734438849 M780.5390510330615,677.8521734438849 L780.6562893074667,677.9621549399902 M780.6562893074667,677.9621549399902 L780.8138270729398,678.0570997878212 M780.8138270729398,678.0570997878212 L781.0024903842534,678.1314926695236 M781.0024903842534,678.1314926695236 L781.2113201845632,678.180994818282 M781.2113201845632,678.180994818282 L781.4281911324292,678.2027473994684 M781.4281911324292,678.2027473994684 L781.6404425337294,678.1954641060566 M781.6404425337294,678.1954641060566 L781.8358040047276,678.1595827163108 M781.8358040047276,678.1595827163108 L782.0028435901309,678.0971731801931 M782.0028435901309,678.0971731801931 L782.1318878956206,678.011888408621 M782.1318878956206,678.011888408621 L782.2154556797288,677.908677174618 M782.2154556797288,677.908677174618 L782.2486496483314,677.7935239052891 M782.2486496483314,677.7935239052891 L782.2295881973316,677.6731616102298 M782.2295881973316,677.6731616102298 L782.1593508218348,677.5545476969393 M782.1593508218348,677.5545476969393 L782.042069058941,677.4445993819373 M782.042069058941,677.4445993819373 L781.8845238542499,677.3496975745333 M784.2953547637601,664.2394760352532 L784.6902681718839,664.4760893001219 M784.6902681718839,664.4760893001219 L784.9843643637632,664.7502109160648 M784.9843643637632,664.7502109160648 L785.1606404288,665.0459820127594 M785.1606404288,665.0459820127594 L785.2087401539436,665.3461852842131 M785.2087401539436,665.3461852842131 L785.1258401165533,665.6333891347467 M785.1258401165533,665.6333891347467 L784.9167261893031,665.8908692004337 M784.9167261893031,665.8908692004337 L784.5935184361972,666.1036623616258 M784.5935184361972,666.1036623616258 L784.1750147714122,666.2593645844679 M784.1750147714122,666.2593645844679 L783.6855144580038,666.3489135149277 M783.6855144580038,666.3489135149277 L783.153530151815,666.3670848402838 M783.153530151815,666.3670848402838 L782.6099865359645,666.3128140923642 M782.6099865359645,666.3128140923642 L782.0865893479543,666.1892998560129 M782.0865893479543,666.1892998560129 L781.61367752149,666.003683418058 M781.61367752149,666.003683418058 L781.218854924273,665.7668227344924 M781.218854924273,665.7668227344924 L780.9249873559299,665.4924722487591 M780.9249873559299,665.4924722487591 L780.7491922477732,665.1966244617735 M780.7491922477732,665.1966244617735 L780.7015929982726,664.896454579096 M780.7015929982726,664.896454579096 L780.784942644791,664.6094080883169 M780.784942644791,664.6094080883169 L780.9943522853353,664.3521732903542 M780.9943522853353,664.3521732903542 L781.3176341391213,664.1396571342631 M781.3176341391213,664.1396571342631 L781.7359733124429,663.9842001806988 M781.7359733124429,663.9842001806988 L782.2251082050682,663.8948086059163 M782.2251082050682,663.8948086059163 L782.7566098973041,663.8766706632438 M782.7566098973041,663.8766706632438 L783.2996200032314,663.9308216464714 M783.2996200032314,663.9308216464714 L783.8226776422441,664.0541500877915 M783.8226776422441,664.0541500877915 L784.2953547637601,664.2394760352532 M784.4844687800778,662.760136959476 L784.8795024796477,662.996682072401 M784.8795024796477,662.996682072401 L785.1736951624748,663.2707247464975 M785.1736951624748,663.2707247464975 L785.3500383325543,663.5664106831542 M785.3500383325543,663.5664106831542 L785.3981718358439,663.8665275358948 M785.3981718358439,663.8665275358948 L785.31527026911,664.1536487262882 M785.31527026911,664.1536487262882 L785.1061195730761,664.4110547003246 M785.1061195730761,664.4110547003246 L784.782841933378,664.6237866385947 M784.782841933378,664.6237866385947 L784.364239325191,664.7794440698023 M784.364239325191,664.7794440698023 L783.8746167585919,664.8689672414183 M783.8746167585919,664.8689672414183 L783.3424940181194,664.8871333399645 M783.3424940181194,664.8871333399645 L782.798803844466,664.8328782027031 M782.798803844466,664.8328782027031 L782.2752605373789,664.7093994966312 M782.2752605373789,664.7093994966312 L781.8022115077565,664.5238364589627 M781.8022115077565,664.5238364589627 L781.4072686377715,664.2870439279873 M781.4072686377715,664.2870439279873 L781.1133046940663,664.0127723955777 M781.1133046940663,664.0127723955777 L780.9374427163953,663.7170097649306 M780.9374427163953,663.7170097649306 L780.8898099538815,663.4169263001163 M780.8898099538815,663.4169263001163 L780.9731613768774,663.1299624654716 M780.9731613768774,663.1299624654716 L781.1826079587086,662.8728017529165 M781.1826079587086,662.8728017529165 L781.5059597574573,662.6603468126962 M781.5059597574573,662.6603468126962 L781.9243978050424,662.5049346445231 M781.9243978050424,662.5049346445231 L782.4136547700409,662.4155688245789 M782.4136547700409,662.4155688245789 L782.945294645498,662.3974361078666 M782.945294645498,662.3974361078666 L783.4884510323031,662.451571489136 M783.4884510323031,662.451571489136 L784.0116545874296,662.5748643992545 M784.0116545874296,662.5748643992545 L784.4844687800778,662.760136959476 M784.4844687800778,662.760136959476 L784.2953547637601,664.2394760352532" stroke="black"  stroke-width="4"  fill="red"/>
<path d="M74.45639503586642,415.3759000363168 L-101.87582726733342,505.0605675937735 M74.45639503586642,415.3759000363168 L63.63204447487044,409.89524745922876 M-112.68650628615228,499.16997503963285 L63.63204447487044,409.89524745922876 M-101.87582726733342,505.0605675937735 L-112.68650628615228,499.16997503963285 M-101.87582726733342,505.0605675937735 L-107.3395149280164,313.7061815942527 M-107.3395149280164,313.7061815942527 L-95.36325995231834,308.0819975003351 M-95.36325995231834,308.0819975003351 L-100.7776360610003,103.97946996630867 M-100.7776360610003,103.97946996630867 L249.79243785594747,-46.07931803723773 M249.79243785594747,-46.07931803723773 L249.44401591331155,-37.89479138997331 M249.44401591331155,-37.89479138997331 L248.87760582910119,-29.647295153391042 M248.87760582910119,-29.647295153391042 L248.09470173623413,-21.3472907184954 M248.09470173623413,-21.3472907184954 L247.09701899922095,-13.004972718986323 M247.09701899922095,-13.004972718986323 L245.88646755461093,-4.630636410468242 M245.88646755461093,-4.630636410468242 L244.4651762132305,3.765532964880663 M244.4651762132305,3.765532964880663 L242.83547580423692,12.173365762556728 M242.83547580423692,12.173365762556728 L240.9999128239524,20.582738122434534 M240.9999128239524,20.582738122434534 L238.9612139022497,28.983577746525498 M238.9612139022497,28.983577746525498 L236.7223188005346,37.36583957211474 M236.7223188005346,37.36583957211474 L234.28632637937153,45.71961062129401 M234.28632637937153,45.71961062129401 L231.6565796940099,54.03506170075627 M231.6565796940099,54.03506170075627 L228.83653554921682,62.30231488796528 M228.83653554921682,62.30231488796528 L225.82985761424322,70.5117540898184 M225.82985761424322,70.5117540898184 L222.64037444609983,78.65376270157697 M222.64037444609983,78.65376270157697 L219.2720959990579,86.71879735595951 M219.2720959990579,86.71879735595951 L215.7291883693291,94.69747995773866 M215.7291883693291,94.69747995773866 L212.01598869507336,102.58044720764906 M212.01598869507336,102.58044720764906 L208.13698708376967,110.35852972527954 M208.13698708376967,110.35852972527954 L204.0968242476996,118.02265500498629 M204.0968242476996,118.02265500498629 L199.90030422335406,125.56383381611727 M199.90030422335406,125.56383381611727 L195.55237997865186,132.9732486584927 M195.55237997865186,132.9732486584927 L191.0581434103575,140.2421619747695 M191.0581434103575,140.2421619747695 L186.42283727475478,147.3619933801771 M186.42283727475478,147.3619933801771 L181.6518516433564,154.32435960273202 M181.6518516433564,154.32435960273202 L176.7506992530233,161.12090221908025 M176.7506992530233,161.12090221908025 L171.72505083805885,167.74353344204937 M171.72505083805885,167.74353344204937 L166.5806946040392,174.1842279122938 M166.5806946040392,174.1842279122938 L161.32355689953346,180.4351872558655 M161.32355689953346,180.4351872558655 L161.3471259963424,180.5058808397252 M161.3471259963424,180.5058808397252 L161.35472935154502,180.58938106754496 M161.35472935154502,180.58938106754496 L161.34591586126635,180.68078643718567 M161.34591586126635,180.68078643718567 L161.32121558694018,180.77478117513974 M161.32121558694018,180.77478117513974 L161.2820398296127,180.86599293798605 M161.2820398296127,180.86599293798605 L161.23068901244386,180.94903322648824 M161.23068901244386,180.94903322648824 L161.17012953667512,181.01909058847096 M161.17012953667512,181.01909058847096 L161.10388847065917,181.07211307091902 M161.10388847065917,181.07211307091902 L161.03581043818588,181.10505535234083 M161.03581043818588,181.10505535234083 L160.9698518098147,181.1159307437819 M160.9698518098147,181.1159307437819 L160.9098533114954,181.10414020749238 M160.9098533114954,181.10414020749238 L160.85928517316216,181.07036972425126 M160.85928517316216,181.07036972425126 L160.82110201499972,181.01656966936534 M160.82110201499972,181.01656966936534 L155.5455863652756,187.28973553995036 M155.5455863652756,187.28973553995036 L150.37486408381932,193.76436876565108 M150.37486408381932,193.76436876565108 L145.31724049554452,200.4304899780097 M145.31724049554452,200.4304899780097 L140.38080195173086,207.27775288204418 M140.38080195173086,207.27775288204418 L135.57344882542355,214.29556628382915 M135.57344882542355,214.29556628382915 L130.902855490153,221.47289596688464 M130.902855490153,221.47289596688464 L126.37647693232208,228.798489494614 M126.37647693232208,228.798489494614 L122.00149454883831,236.26081969759178 M122.00149454883831,236.26081969759178 L117.7848389172205,243.84812558591128 M117.7848389172205,243.84812558591128 L113.73314944409265,251.5483069211985 M113.73314944409265,251.5483069211985 L109.85277624953784,259.34924168550333 M109.85277624953784,259.34924168550333 L106.14975109267101,267.23849966319193 M106.14975109267101,267.23849966319193 L102.62978665620523,275.20361760575014 M102.62978665620523,275.20361760575014 L99.29826280600201,283.231895514135 M99.29826280600201,283.231895514135 L96.16021445939185,291.31067729248855 M96.16021445939185,291.31067729248855 L93.22031654415099,299.42719265443714 M93.22031654415099,299.42719265443714 L90.4828923191339,307.5685646319517 M90.4828923191339,307.5685646319517 L87.95188455361028,315.72201010869026 M87.95188455361028,315.72201010869026 L85.6308657871167,323.87480177941404 M85.6308657871167,323.87480177941404 L83.52302609209426,332.0141110929379 M83.52302609209426,332.0141110929379 L81.63116969815076,340.12728310847604 M81.63116969815076,340.12728310847604 L79.95771300032266,348.2018476414922 M79.95771300032266,348.2018476414922 L78.50468248036856,356.22527094166367 M78.50468248036856,356.22527094166367 L77.27371398776813,364.1853137380057 M77.27371398776813,364.1853137380057 L76.26605368522058,372.0698673493949 M76.26605368522058,372.0698673493949 L75.48255799797636,379.8670499079569 M75.48255799797636,379.8670499079569 L74.92369771088659,387.5651705293995 M74.92369771088659,387.5651705293995 L74.58956066984251,395.1527371438118 M74.58956066984251,395.1527371438118 L74.47985584893934,402.61867632503953 M74.47985584893934,402.61867632503953 L74.45639503586642,415.3759000363168 M74.47985584893934,402.61867632503953 L63.632045700811034,397.15489796168873 M63.632045700811034,397.15489796168873 L63.63204447487044,409.89524745922876 M63.632045700811034,397.15489796168873 L63.728110814910565,389.6990453095448 M63.728110814910565,389.6990453095448 L64.04859268592031,382.1221274048543 M64.04859268592031,382.1221274048543 L64.59380128769993,374.43520193300765 M64.59380128769993,374.43520193300765 L65.3636682902486,366.6497437365826 M65.3636682902486,366.6497437365826 L66.35774259822546,358.7774252828824 M66.35774259822546,358.7774252828824 L67.57518764545352,350.8301088533361 M67.57518764545352,350.8301088533361 L69.0147773716588,342.81988233354497 M69.0147773716588,342.81988233354497 L70.67489610611278,334.7589631378854 M70.67489610611278,334.7589631378854 L72.55353793203778,326.6598618927279 M72.55353793203778,326.6598618927279 L74.64830675339721,318.53502490313053 M74.64830675339721,318.53502490313053 L76.95641883853904,310.3970821622802 M76.95641883853904,310.3970821622802 L79.47470479722142,302.2588362465964 M79.47470479722142,302.2588362465964 L82.19961245403044,294.1329878706998 M82.19961245403044,294.1329878706998 L85.1272193867174,286.03229277463737 M85.1272193867174,286.03229277463737 L88.25322272567564,277.96959972292666 M88.25322272567564,277.96959972292666 L91.57296762695137,269.95765032396883 M91.57296762695137,269.95765032396883 L95.08143892417007,262.0090715502064 M95.08143892417007,262.0090715502064 L98.77327646894611,254.1365336629102 M98.77327646894611,254.1365336629102 L102.64278674498689,246.3524700017597 M102.64278674498689,246.3524700017597 L106.68395698806142,238.66928046685342 M106.68395698806142,238.66928046685342 L110.89045537918173,231.09905677413707 M110.89045537918173,231.09905677413707 L115.2556606640045,223.65386854114797 M115.2556606640045,223.65386854114797 L119.77265966175986,216.34544629424786 M119.77265966175986,216.34544629424786 L124.4342878335845,209.18528683553834 M124.4342878335845,209.18528683553834 L129.23310639701361,202.18461238156775 M129.23310639701361,202.18461238156775 L134.1614566661708,195.35442710073718 M134.1614566661708,195.35442710073718 L139.2114529939953,188.70529264622513 M139.2114529939953,188.70529264622513 L144.3750231808403,182.24752607698846 M144.3750231808403,182.24752607698846 L149.64387519868444,175.9910779763718 M149.64387519868444,175.9910779763718 L149.68219603232387,176.04485644061432 M149.68219603232387,176.04485644061432 L149.73287628627702,176.07865218643397 M149.73287628627702,176.07865218643397 L149.79295483366423,176.0905133267897 M149.79295483366423,176.0905133267897 L149.85895680745887,176.07974980003004 M149.85895680745887,176.07974980003004 L149.92703889292875,176.0469541768641 M149.92703889292875,176.0469541768641 L149.99324461773801,175.99410451813728 M149.99324461773801,175.99410451813728 L150.05373134702353,175.92423616098856 M150.05373134702353,175.92423616098856 L150.1049761940966,175.84139009277243 M150.1049761940966,175.84139009277243 L150.14401890462204,175.75036652797988 M150.14401890462204,175.75036652797988 L150.1685669280007,175.65654287113864 M150.1685669280007,175.65654287113864 L150.17721766580325,175.5652816908661 M150.17721766580325,175.5652816908661 L150.16945050588373,175.48189035154314 M150.16945050588373,175.48189035154314 L150.14572617406947,175.4112639710195 M238.273191333275,-50.64235507287492 L237.9400324918056,-42.47095947782748 M237.9400324918056,-42.47095947782748 L237.38878527487736,-34.23693144498884 M237.38878527487736,-34.23693144498884 L236.62092374630902,-25.950716793021 M236.62092374630902,-25.950716793021 L235.63814411704084,-17.62249494842422 M235.63814411704084,-17.62249494842422 L234.4423373643549,-9.262545775804483 M234.4423373643549,-9.262545775804483 L233.03561396531325,-0.8810392148408255 M233.03561396531325,-0.8810392148408255 L231.42028684799004,7.511870445687123 M231.42028684799004,7.511870445687123 L229.5988851147522,15.906074746707304 M229.5988851147522,15.906074746707304 L227.5741184858549,24.29151680037944 M227.5741184858549,24.29151680037944 L225.3489102855359,32.65816706484975 M225.3489102855359,32.65816706484975 L222.92634355460177,40.9961279841948 M222.92634355460177,40.9961279841948 L220.3097461389525,49.29558589905025 M220.3097461389525,49.29558589905025 L217.50255985876822,57.546678572405995 M217.50255985876822,57.546678572405995 L214.50843430503267,65.73980543506548 M214.50843430503267,65.73980543506548 L211.33118431784874,73.86536559900583 M211.33118431784874,73.86536559900583 L207.974806648229,81.91383154034622 M207.974806648229,81.91383154034622 L204.44345484620374,89.87584098473837 M204.44345484620374,89.87584098473837 L200.7414538840876,97.74204669436199 M200.7414538840876,97.74204669436199 L196.8732823978579,105.50329532324372 M196.8732823978579,105.50329532324372 L192.8435701282193,113.15053053284191 M192.8435701282193,113.15053053284191 L188.6571106183501,120.67477944968311 M188.6571106183501,120.67477944968311 L184.3188469642938,128.0672409912696 M184.3188469642938,128.0672409912696 L179.83386161876751,135.31919421669295 M179.83386161876751,135.31919421669295 L175.20738846865066,142.4220754794909 M175.20738846865066,142.4220754794909 L170.44480935045493,149.3675183233826 M170.44480935045493,149.3675183233826 L165.55162903964634,156.14718144862323 M165.55162903964634,156.14718144862323 L160.53351106737728,162.75299421178138 M160.53351106737728,162.75299421178138 L155.3962367495061,169.17694867502158 M155.3962367495061,169.17694867502158 L150.14572617406947,175.4112639710195 M238.273191333275,-50.64235507287492 L-112.2986734484183,98.69867884786879 M-106.51878899348964,302.4848084994321 L-112.2986734484183,98.69867884786879 M-106.51878899348964,302.4848084994321 L-118.49306929758382,308.08199412979104 M-112.68650628615228,499.16997503963285 L-118.49306929758382,308.08199412979104 M-118.49306929758382,308.08199412979104 L-107.3395149280164,313.7061815942527 M160.82110201499972,181.01656966936534 L149.64387519868444,175.9910779763718 M161.32355689953346,180.4351872558655 L150.14572617406947,175.4112639710195 M249.79243785594747,-46.07931803723773 L238.273191333275,-50.64235507287492 M-100.7776360610003,103.97946996630867 L-112.2986734484183,98.69867884786879 M-95.36325995231834,308.0819975003351 L-106.51878899348964,302.4848084994321" stroke="black"  stroke-width="4"  fill="red"/>
<path d="M153.14438954677894,369.9513795388954 L153.32179363372893,358.1955235076657 M153.32179363372893,358.1955235076657 L153.44207590701149,358.26983463193534 M153.44207590701149,358.26983463193534 L153.52350059993262,358.3559291554966 M153.52350059993262,358.3559291554966 L153.56134376500967,358.44879979981437 M153.56134376500967,358.44879979981437 L153.5534047469659,358.5430485744954 M153.5534047469659,358.5430485744954 L153.50012040524592,358.63320687620364 M153.50012040524592,358.63320687620364 L153.4045999639003,358.71402559307325 M153.4045999639003,358.71402559307325 L153.27239617126077,358.78080334313523 M153.27239617126077,358.78080334313523 L153.11117437088018,358.82966558205834 M153.11117437088018,358.82966558205834 L152.9303108478955,358.8577682546837 M152.9303108478955,358.8577682546837 L152.74033675983384,358.8634680794144 M152.74033675983384,358.8634680794144 L152.5522799588132,358.84644319365435 M152.5522799588132,358.84644319365435 L152.3770778317035,358.8076821481772 M152.3770778317035,358.8076821481772 L152.22492747583823,358.7494337033832 M152.22492747583823,358.7494337033832 L152.1046595062037,358.6750929184992 M152.1046595062037,358.6750929184992 L152.02327518886506,358.5889753244611 M152.02327518886506,358.5889753244611 L151.98548975958937,358.4960937510469 M151.98548975958937,358.4960937510469 L151.99349064688585,358.4018486913345 M151.99349064688585,358.4018486913345 L152.04682682251496,358.31170789845004 M152.04682682251496,358.31170789845004 L152.14237718371157,358.23091647248935 M152.14237718371157,358.23091647248935 L152.27458212952587,358.1641695413683 M152.27458212952587,358.1641695413683 L152.4357760523721,358.1153345930777 M152.4357760523721,358.1153345930777 L152.61658905177654,358.08724943059974 M152.61658905177654,358.08724943059974 L152.80650154852248,358.0815533188954 M152.80650154852248,358.0815533188954 L152.99449979586882,358.0985672758732 M152.99449979586882,358.0985672758732 L153.16965982099077,358.13730525308944 M153.16965982099077,358.13730525308944 L153.32179363372893,358.1955235076657 M153.14438954677894,369.9513795388954 L152.99256096890076,369.8929896879166 M152.99256096890076,369.8929896879166 L152.81775026408752,369.85413752865065 M152.81775026408752,369.85413752865065 L152.6301251124686,369.8370734214267 M152.6301251124686,369.8370734214267 L152.44058781754484,369.84278632301243 M152.44058781754484,369.84278632301243 L152.26013037638177,369.8709542686353 M152.26013037638177,369.8709542686353 L152.09925169097073,369.91993315850846 M152.09925169097073,369.91993315850846 L151.9673033422631,369.9868768205668 M151.9673033422631,369.9868768205668 L151.87193605924858,370.0679063624994 M151.87193605924858,370.0679063624994 L151.81869878500504,370.15831281384385 M151.81869878500504,370.15831281384385 L151.81070682390822,370.2528356134352 M151.81070682390822,370.2528356134352 L151.84841070191084,370.34599089406413 M151.84841070191084,370.34599089406413 L151.9296277035474,370.4323622501087 M151.9296277035474,370.4323622501087 L152.04965228186234,370.50692208443826 M152.04965228186234,370.50692208443826 L152.20149733632718,370.5653421552302 M152.20149733632718,370.5653421552302 L152.3763499750205,370.60421740497026 M152.3763499750205,370.60421740497026 L152.56403344807626,370.62129245150004 M152.56403344807626,370.62129245150004 L152.7536320911517,370.61557583331273 M152.7536320911517,370.61557583331273 L152.93413985749294,370.5873903606813 M152.93413985749294,370.5873903606813 L153.09504631226525,370.53838415389623 M153.09504631226525,370.53838415389623 L153.22699351462813,370.4714096432205 M153.22699351462813,370.4714096432205 L153.3223309980611,370.3903527840996 M153.3223309980611,370.3903527840996 L153.3755166445584,370.2999288070714 M153.3755166445584,370.2999288070714 L153.3834469812129,370.20540228893407 M153.3834469812129,370.20540228893407 L153.34568559480203,370.1122579479255 M153.34568559480203,370.1122579479255 L153.2644283754654,370.0259096845733 M153.2644283754654,370.0259096845733 L153.14438954677894,369.9513795388954 M154.1441086250614,357.7802598453551 L154.44483144103873,357.9659856691318 M154.44483144103873,357.9659856691318 L154.64848111189815,358.1811722677638 M154.64848111189815,358.1811722677638 L154.74320171085566,358.4133264088666 M154.74320171085566,358.4133264088666 L154.72345681649097,358.64896125484955 M154.72345681649097,358.64896125484955 L154.5903520943479,358.8743858840843 M154.5903520943479,358.8743858840843 L154.3516157723152,359.07647977332437 M154.3516157723152,359.07647977332437 L154.02108337245141,359.24349465451564 M154.02108337245141,359.24349465451564 L153.61798468787157,359.3656970986929 M153.61798468787157,359.3656970986929 L153.1657389304404,359.43598214503095 M153.1657389304404,359.43598214503095 L152.6906764180169,359.45024541542665 M152.6906764180169,359.45024541542665 L152.22042848167087,359.40766044529875 M152.22042848167087,359.40766044529875 L151.7823570221246,359.3107083332985 M151.7823570221246,359.3107083332985 L151.401943035771,359.1650354329019 M151.401943035771,359.1650354329019 L151.10130677748822,358.9791228399583 M151.10130677748822,358.9791228399583 L150.8979088974438,358.7637917913648 M150.8979088974438,358.7637917913648 L150.80354968702142,358.53156960694537 M150.80354968702142,358.53156960694537 L150.82368100244776,358.29595784759005 M150.82368100244776,358.29595784759005 L150.95710968239894,358.07064264653263 M150.95710968239894,358.07064264653263 L151.19603300362007,357.86871932061945 M151.19603300362007,357.86871932061945 L151.52657261140257,357.70189707250313 M151.52657261140257,357.70189707250313 L151.92949706092912,357.5798651896086 M151.92949706092912,357.5798651896086 L152.38142704975314,357.50968957470747 M152.38142704975314,357.50968957470747 L152.85610487858145,357.4954496536824 M152.85610487858145,357.4954496536824 L153.32598631448894,357.5379660511551 M153.32598631448894,357.5379660511551 L153.76379519301912,357.6347742413431 M153.76379519301912,357.6347742413431 L154.1441086250614,357.7802598453551 M154.16515214033734,356.39836296724013 L154.46594651898545,356.5840241863421 M154.46594651898545,356.5840241863421 L154.66964545293297,356.799135940796 M154.66964545293297,356.799135940796 L154.76439014272938,357.031209346364 M154.76439014272938,357.031209346364 L154.7446427524083,357.2667622570945 M154.7446427524083,357.2667622570945 L154.61150907517793,357.4921085115288 M154.61150907517793,357.4921085115288 L154.37271901336192,357.69413214594505 M154.37271901336192,357.69413214594505 L154.04211119935928,357.86108897300426 M154.04211119935928,357.86108897300426 L153.6389198134484,357.98324894323696 M153.6389198134484,357.98324894323696 L153.1865694566702,358.05350956189784 M153.1865694566702,358.05350956189784 L152.71139654296593,358.0677678751897 M152.71139654296593,358.0677678751897 L152.24103883242947,358.0251977053005 M152.24103883242947,358.0251977053005 L151.80286462042994,357.9282792899455 M151.80286462042994,357.9282792899455 L151.42236088538607,357.78265702302474 M151.42236088538607,357.78265702302474 L151.1216531029445,357.59680905622025 M151.1216531029445,357.59680905622025 L150.91820607580735,357.3815528685147 M150.91820607580735,357.3815528685147 L150.823822941936,357.14941142741094 M150.823822941936,357.14941142741094 L150.84395693333613,356.9138816006779 M150.84395693333613,356.9138816006779 L150.97741472002429,356.68864476180886 M150.97741472002429,356.68864476180886 L151.21639186950085,356.4867916710616 M151.21639186950085,356.4867916710616 L151.54700689645222,356.3200274548757 M151.54700689645222,356.3200274548757 L151.95002396774498,356.198038026268 M151.95002396774498,356.198038026268 L152.40205840998124,356.1278868264316 M152.40205840998124,356.1278868264316 L152.87684646128548,356.1136518597888 M152.87684646128548,356.1136518597888 L153.34683750042592,356.15615346498737 M153.34683750042592,356.15615346498737 L153.7847490078841,356.25292797505597 M153.7847490078841,356.25292797505597 L154.16515214033734,356.39836296724013 M154.16515214033734,356.39836296724013 L154.1441086250614,357.7802598453551" stroke="black"  stroke-width="4"  fill="red"/>
<path d="M-106.51878899348964,302.4848084994321 L-118.49306929758382,308.08199412979104 M-118.49306929758382,308.08199412979104 L-124.69510346096286,103.97946678603489 M-112.2986734484183,98.69867884786879 L-124.69510346096286,103.97946678603489 M-106.51878899348964,302.4848084994321 L-112.2986734484183,98.69867884786879 M-101.87582726733342,505.0605675937735 L-53.157008545520625,531.6067919622586 M-53.157008545520625,531.6067919622586 L-53.43319010655398,517.9618753458293 M-53.43319010655398,517.9618753458293 L3.2413488902050176,548.6799836647372 M3.385540306345206,562.4160608970906 L3.2413488902050176,548.6799836647372 M3.385540306345206,562.4160608970906 L256.42223594634766,700.2923286751534 M256.42223594634766,700.2923286751534 L256.9083180766552,686.1697555152693 M256.9083180766552,686.1697555152693 L321.383568899751,721.1159195905676 M320.72699683397116,735.3311218000849 L321.383568899751,721.1159195905676 M320.72699683397116,735.3311218000849 L518.3886490732657,843.0342785484333 M518.3886490732657,843.0342785484333 L535.4826884984868,637.8497199315386 M535.4826884984868,637.8497199315386 L550.0187381079703,645.179532947873 M550.0187381079703,645.179532947873 L569.0701844339437,423.62104284357275 M-124.69510346096286,103.97946678603489 L569.0701844339437,423.62104284357275 M-118.49306929758382,308.08199412979104 L-107.3395149280164,313.7061815942527 M-101.87582726733342,505.0605675937735 L-107.3395149280164,313.7061815942527 M561.8833336196856,637.8497199315386 L547.3546003221019,630.560055236107 M529.8767292067504,835.4663687965461 L547.3546003221019,630.560055236107 M529.8767292067504,835.4663687965461 L332.28681717718223,728.3204538358881 M332.28681717718223,728.3204538358881 L332.97116309421426,714.1236037410231 M332.97116309421426,714.1236037410231 L268.51091513291703,679.3541221276149 M267.99694562775676,693.4583647792585 L268.51091513291703,679.3541221276149 M267.99694562775676,693.4583647792585 L14.978550901802748,556.2555737747639 M14.978550901802748,556.2555737747639 L14.862383995914456,542.5375845162304 M14.862383995914456,542.5375845162304 L-41.81688312280562,511.9651185659127 M-41.568692547630405,525.5920339429026 L-41.81688312280562,511.9651185659127 M-41.568692547630405,525.5920339429026 L-90.29413017788215,499.16997857010335 M-90.29413017788215,499.16997857010335 L-95.36325995231834,308.0819975003351 M-95.36325995231834,308.0819975003351 L-106.51878899348964,302.4848084994321 M581.3438187432598,416.63715860130833 L-112.2986734484183,98.69867884786879 M561.8833336196856,637.8497199315386 L581.3438187432598,416.63715860130833 M-101.87582726733342,505.0605675937735 L-90.29413017788215,499.16997857010335 M-107.3395149280164,313.7061815942527 L-95.36325995231834,308.0819975003351 M-41.568692547630405,525.5920339429026 L-53.157008545520625,531.6067919622586 M-41.81688312280562,511.9651185659127 L-53.43319010655398,517.9618753458293 M3.385540306345206,562.4160608970906 L14.978550901802748,556.2555737747639 M3.2413488902050176,548.6799836647372 L14.862383995914456,542.5375845162304 M267.99694562775676,693.4583647792585 L256.42223594634766,700.2923286751534 M268.51091513291703,679.3541221276149 L256.9083180766552,686.1697555152693 M320.72699683397116,735.3311218000849 L332.28681717718223,728.3204538358881 M321.383568899751,721.1159195905676 L332.97116309421426,714.1236037410231 M529.8767292067504,835.4663687965461 L518.3886490732657,843.0342785484333 M547.3546003221019,630.560055236107 L535.4826884984868,637.8497199315386 M550.0187381079703,645.179532947873 L561.8833336196856,637.8497199315386 M569.0701844339437,423.62104284357275 L581.3438187432598,416.63715860130833" stroke="black"  stroke-width="4"  fill="red"/></svg>