<svg viewBox="0 0 800 800" xmlns="http://www.w3.org/2000/svg"><path d="M639.3697772960877,258.9750745279762 L639.370542534074,258.91903904460924 M160.60223759200017,541.063180444813 L160.6029975714191,541.0071418554526 M639.3697772960877,258.9750745279762 L691.5287682454946,296.8247084054601 M691.5287682454946,296.8247084054601 L726.745433292599,340.67110203715856 M726.745433292599,340.67110203715856 L742.9794915682432,387.9688943159981 M742.9794915682432,387.9688943159981 L739.2738373927277,435.9668530167837 M739.2738373927277,435.9668530167837 L715.8540528612357,481.8767489666134 M715.8540528612357,481.8767489666134 L674.0755041929078,523.0315640503268 M674.0755041929078,523.0315640503268 L616.3664972173283,557.0373304359127 M616.3664972173283,557.0373304359127 L546.0801929806039,581.9175007948561 M546.0801929806039,581.9175007948561 L467.30467241858423,596.2250582358647 M467.30467241858423,596.2250582358647 L384.61653804984235,599.1309306727107 M384.61653804984235,599.1309306727107 L302.8199790520448,590.4596118508616 M302.8199790520448,590.4596118508616 L226.67458535901096,570.7225473666003 M226.67458535901096,570.7225473666003 L160.60223759200017,541.063180444813 M639.370542534074,258.91903904460924 L691.5295340770681,296.76867250529904 M691.5295340770681,296.76867250529904 L726.7461995305057,340.61506565418676 M726.7461995305057,340.61506565418676 L742.9802580016985,387.9128574122278 M742.9802580016985,387.9128574122278 L739.2746037993638,435.91081558452606 M739.2746037993638,435.91081558452606 L715.8548190203874,481.8207110288822 M715.8548190203874,481.8207110288822 L674.0762698982144,522.975525659489 M674.0762698982144,522.975525659489 L616.3672622887971,556.9812916706869 M616.3672622887971,556.9812916706869 L546.080957275044,581.8614617557178 M546.080957275044,581.8614617557178 L467.3054358380614,596.1690190392146 M467.3054358380614,596.1690190392146 L384.6173005472083,599.0748914440701 M384.6173005472083,599.0748914440701 L302.82074063377513,590.4035727176852 M302.82074063377513,590.4035727176852 L226.67534608485585,570.6665084507094 M226.67534608485585,570.6665084507094 L160.6029975714191,541.0071418554526 M160.60223759200017,541.063180444813 L108.44615819094179,503.20623060504295 M108.44615819094179,503.20623060504295 L73.23795591236558,459.35419719873425 M73.23795591236558,459.35419719873425 L57.01974199830147,412.0558852396771 M57.01974199830147,412.0558852396771 L60.73454892275913,364.0566826100385 M60.73454892275913,364.0566826100385 L84.16514107337571,318.1510667972452 M84.16514107337571,318.1510667972452 L125.94990783197863,277.0029234553858 M125.94990783197863,277.0029234553858 L183.65911850586417,243.0046918438984 M183.65911850586417,243.0046918438984 L253.93956538572093,218.1311932241024 M253.93956538572093,218.1311932241024 L332.70450975075073,203.8279159227277 M332.70450975075073,203.8279159227277 L415.3835404855199,200.92510417139601 M415.3835404855199,200.92510417139601 L497.16411064779095,209.5915986058335 M497.16411064779095,209.5915986058335 L573.3007366407401,229.32302348309895 M573.3007366407401,229.32302348309895 L639.3697772960877,258.9750745279762 M160.6029975714191,541.0071418554526 L108.44691757683177,503.1501924324748 M108.44691757683177,503.1501924324748 L73.2387148920825,459.298159508975 M73.2387148920825,459.298159508975 L57.020500782819,411.9998480706945 M57.020500782819,411.9998480706945 L60.73530773431412,364.0006459695669 M60.73530773431412,364.0006459695669 L84.16590013264795,318.095030662249 M84.16590013264795,318.095030662249 L125.95066734525608,276.946887773498 M125.95066734525608,276.946887773498 L183.65987865299394,242.94865653640045 M183.65987865299394,242.94865653640045 L253.94032630971924,218.07515819051332 M253.94032630971924,218.07515819051332 L332.7052715495083,203.7718810466522 M332.7052715495083,203.7718810466522 L415.38430320611224,200.86906932728925 M415.38430320611224,200.86906932728925 L497.1648742837424,209.53556366628618 M497.1648742837424,209.53556366628618 L573.3015011323732,229.26698832626244 M573.3015011323732,229.26698832626244 L639.370542534074,258.91903904460924" stroke="black"  stroke-width="4"  fill="red"/></svg>