<svg viewBox="0 0 800 800" xmlns="http://www.w3.org/2000/svg"><path d="M878.7390763216106,265.5800357153725 L878.7390864063559,265.5794755975571 M527.3509776170404,472.4770465248943 L527.3509838537005,472.47648412070333 M878.7390763216106,265.5800357153725 L527.3509776170404,472.4770465248943 M878.7390864063559,265.5794755975571 L527.3509838537005,472.47648412070333 M398.7628433024198,548.189629601409 L398.76284811489006,548.1890663699598 M527.3509776170404,472.4770465248943 L398.7628433024198,548.189629601409 M527.3509838537005,472.47648412070333 L398.76284811489006,548.1890663699598 M398.75798963704665,548.1924874354133 L398.7579944494631,548.191924203933 M398.7628433024198,548.189629601409 L398.75798963704665,548.1924874354133 M398.76284811489006,548.1890663699598 L398.7579944494631,548.191924203933 M350.17167905224073,576.8000653907238 L350.1716833243021,576.7995018479835 M398.75798963704665,548.1924874354133 L350.17167905224073,576.8000653907238 M398.7579944494631,548.191924203933 L350.1716833243021,576.7995018479835 M-78.73908586586134,328.61685673960767 L-78.73908640635585,328.61629592119067 M350.17167905224073,576.8000653907238 L-78.73908586586134,328.61685673960767 M350.1716833243021,576.7995018479835 L-78.73908640635585,328.61629592119067 M-30.143768215712896,300.56033701293904 L-30.14376821565895,300.55977650591444 M-78.73908586586134,328.61685673960767 L-30.143768215712896,300.56033701293904 M-78.73908640635585,328.61629592119067 L-30.14376821565895,300.55977650591444 M61.20274137554037,353.29925719522123 L61.20274239267769,353.2986961034337 M-30.143768215712896,300.56033701293904 L61.20274137554037,353.29925719522123 M-30.14376821565895,300.55977650591444 L61.20274239267769,353.2986961034337 M62.51876424602722,354.06468014379686 L62.518765277848786,354.0641190435405 M61.20274137554037,353.29925719522123 L61.64032192506704,353.55501485081277 M61.64032192506704,353.55501485081277 L62.078999311044925,353.8101576373373 M62.078999311044925,353.8101576373373 L62.51876424602722,354.06468014379686 M61.20274239267769,353.2986961034337 L61.64032294708693,353.5544537561955 M61.64032294708693,353.5544537561955 L62.0790003379596,353.80959653989703 M62.0790003379596,353.80959653989703 L62.518765277848786,354.0641190435405 M469.97429179446567,311.5541488345901 L469.9742973538084,311.55358820546525 M62.51876424602722,354.06468014379686 L81.56710373215805,364.00160542478204 M81.56710373215805,364.00160542478204 L102.26655648900532,372.77996098594934 M102.26655648900532,372.77996098594934 L124.40290905562665,380.30697090203165 M124.40290905562665,380.30697090203165 L147.74633883750255,386.502942260951 M147.74633883750255,386.502942260951 L172.05385145429602,391.30217120821544 M172.05385145429602,391.30217120821544 L197.07188765126375,394.6536943678829 M197.07188765126375,394.6536943678829 L222.53907853723888,396.52187872386884 M222.53907853723888,396.52187872386884 L248.18913415681334,396.88686108727035 M248.18913415681334,396.88686108727035 L273.75377433704693,395.74476290140956 M273.75377433704693,395.74476290140956 L298.9656165697196,393.1077333646306 M298.9656165697196,393.1077333646306 L323.56117311603964,389.0038125015249 M323.56117311603964,389.0038125015249 L347.28367007786665,383.4765814846211 M347.28367007786665,383.4765814846211 L369.8859311762353,376.58471538924493 M369.8859311762353,376.58471538924493 L391.1329940601513,368.4012397971556 M391.1329940601513,368.4012397971556 L410.80468271058135,359.01272961469135 M410.80468271058135,359.01272961469135 L428.69784436172904,348.518274902192 M428.69784436172904,348.518274902192 L444.6285941303397,337.02842883694575 M444.6285941303397,337.02842883694575 L458.43410607637884,324.66386985060745 M458.43410607637884,324.66386985060745 L469.97429179446567,311.5541488345901 M62.518765277848786,354.0641190435405 L81.56710497656593,364.0010442146273 M81.56710497656593,364.0010442146273 L102.26655796449757,372.779399678782 M102.26655796449757,372.779399678782 L124.40291077829511,380.30640951173467 M124.40291077829511,380.30640951173467 L147.746340820848,386.502380802262 M147.746340820848,386.502380802262 L172.05385370907254,391.3016096965753 M172.05385370907254,391.3016096965753 L197.07189018535405,394.65313281927655 M197.07189018535405,394.65313281927655 L222.5390813555614,396.52131715466135 M222.5390813555614,396.52131715466135 L248.1891372612656,396.8862995140383 M248.1891372612656,396.8862995140383 L273.75377772648255,395.7442013407712 M273.75377772648255,395.7442013407712 L298.9656202399616,393.1071718330745 M298.9656202399616,393.1071718330745 L323.5611770599289,389.00325101524066 M323.5611770599289,389.00325101524066 L347.28367428534443,383.4760200593333 M347.28367428534443,383.4760200593333 L369.88593563446034,376.584154040051 M369.88593563446034,376.584154040051 L391.1329987536477,368.40067853837047 M391.1329987536477,368.40067853837047 L410.8046876214162,359.0121684597007 M410.8046876214162,359.0121684597007 L428.6978494697164,348.5177138633145 M428.6978494697164,348.5177138633145 L444.62859941326883,337.02786792530594 M444.62859941326883,337.02786792530594 L458.43411151026294,324.6633090760218 M458.43411151026294,324.6633090760218 L469.9742973538084,311.55358820546525 M468.9443036342493,311.1471540583185 L468.9443091820533,311.14659343371204 M469.97429179446567,311.5541488345901 L469.6037497599833,311.44270733700637 M469.6037497599833,311.44270733700637 L469.2587274660817,311.3063787552503 M469.2587274660817,311.3063787552503 L468.9443036342493,311.1471540583185 M469.9742973538084,311.55358820546525 L469.60375531518264,311.4421467091187 M469.60375531518264,311.4421467091187 L469.2587330174157,311.3058181288761 M469.2587330174157,311.3058181288761 L468.9443091820533,311.14659343371204 M472.71452586559667,307.93567611153117 L472.71453145459816,307.9351155225824 M468.9443036342493,311.1471540583185 L468.44487190304324,310.7879562570243 M468.44487190304324,310.7879562570243 L468.1001629896714,310.3731009262327 M468.1001629896714,310.3731009262327 L467.9285956336955,309.92475067180044 M467.9285956336955,309.92475067180044 L467.9392833866639,309.46679850938267 M467.9392833866639,309.46679850938267 L468.13166197312364,309.0237010831808 M468.13166197312364,309.0237010831808 L468.49544609004363,308.619098622134 M468.49544609004363,308.619098622134 L469.01125526455223,308.2745639836777 M469.01125526455223,308.2745639836777 L469.65151907172867,308.00846991356127 M469.65151907172867,308.00846991356127 L470.38208847578323,307.83502773902165 M470.38208847578323,307.83502773902165 L471.16401583169727,307.76348647838194 M471.16401583169727,307.76348647838194 L471.9555807864915,307.7976418173074 M471.9555807864915,307.7976418173074 L472.71452586559667,307.93567611153117 M468.9443091820533,311.14659343371204 L468.44487744521655,310.78739563640556 M468.44487744521655,310.78739563640556 L468.10016852792216,310.3725403102199 M468.10016852792216,310.3725403102199 L467.92860116994075,309.9241900607655 M467.92860116994075,309.9241900607655 L467.9392889229274,309.46623790343233 M467.9392889229274,309.46623790343233 L468.1316675114283,309.0231404821505 M468.1316675114283,309.0231404821505 L468.4954516323028,308.6185380255962 M468.4954516323028,308.6185380255962 L469.01126081246866,308.27400339096573 M469.01126081246866,308.27400339096573 L469.65152462670267,308.0079093238041 M469.65152462670267,308.0079093238041 L470.3820940388389,307.8344671511905 M470.3820940388389,307.8344671511905 L471.1640214034277,307.7629258913452 M471.1640214034277,307.7629258913452 L471.9555863670274,307.7970812298914 M471.9555863670274,307.7970812298914 L472.71453145459816,307.9351155225824 M472.71452586559667,307.93567611153117 L484.2396588703758,294.84331740745574 M484.2396588703758,294.84331740745574 L498.00278698517025,282.52002422652066 M498.00278698517025,282.52002422652066 L513.8605028800797,271.0900903187137 M513.8605028800797,271.0900903187137 L531.648849978703,260.66849905863387 M531.648849978703,260.66849905863387 L551.1848038057079,251.35978452740085 M551.1848038057079,251.35978452740085 L572.2683762250388,243.2571090708264 M572.2683762250388,243.2571090708264 L594.6845070174463,236.44139165807496 M594.6845070174463,236.44139165807496 L618.2052098783483,230.98059884628088 M618.2052098783483,230.98059884628088 L642.5918255335846,226.92906560749884 M642.5918255335846,226.92906560749884 L667.5974302404486,224.32707549428068 M667.5974302404486,224.32707549428068 L692.9690509581419,223.20049425411037 M692.9690509581419,223.20049425411037 L718.4502680818202,223.56048603753703 M718.4502680818202,223.56048603753703 L743.7835562231485,225.40352278738885 M743.7835562231485,225.40352278738885 L768.7127844070176,228.71125031647313 M768.7127844070176,228.71125031647313 L792.9857551700868,233.45080638288653 M792.9857551700868,233.45080638288653 L816.3564438336216,239.57506085979287 M816.3564438336216,239.57506085979287 L838.5875434723696,247.0229927939468 M838.5875434723696,247.0229927939468 L859.452809598256,255.72029283264777 M859.452809598256,255.72029283264777 L878.7390763216106,265.5800357153725 M472.71453145459816,307.9351155225824 L484.2396645845049,294.84275696396804 M484.2396645845049,294.84275696396804 L498.00279284932117,282.5194639200875 M498.00279284932117,282.5194639200875 L513.8605089175625,271.0895301395189 M513.8605089175625,271.0895301395189 L531.6488562110238,260.667938995553 M531.6488562110238,260.667938995553 L551.1848102523678,251.35922456811562 M551.1848102523678,251.35922456811562 L572.2683829033533,243.25654920195103 M572.2683829033533,243.25654920195103 L594.684513942387,236.4408318652944 M594.684513942387,236.4408318652944 L618.2052170624063,230.9800391144974 M618.2052170624063,230.9800391144974 L642.5918329866565,226.92850592098802 M642.5918329866565,226.92850592098802 L667.5974379697498,224.3265158368526 M667.5974379697498,224.3265158368526 L692.969058968139,223.1999346092761 M692.969058968139,223.1999346092761 L718.4502763741923,223.55992638867838 M718.4502763741923,223.55992638867838 L743.7835647967706,225.40296311792844 M743.7835647967706,225.40296311792844 L768.7127932579699,228.71069061004596 M768.7127932579699,228.71069061004596 L792.9857642916886,233.45024662350755 M792.9857642916886,233.45024662350755 L816.3564532164908,239.57450103202098 M816.3564532164908,239.57450103202098 L838.5875531045037,247.02243288304442 M838.5875531045037,247.02243288304442 L859.452819465143,255.71973282473175 M859.452819465143,255.71973282473175 L878.7390864063559,265.5794755975571" stroke="black"  stroke-width="4"  fill="red"/></svg>