<svg viewBox="0 0 800 800" xmlns="http://www.w3.org/2000/svg"><path d="M625.0820342877337,596.6800846606639 L624.2358278642225,11.876749494913383 M176.1977334958733,787.9014926672317 L174.7838288809769,202.6013360837096 M625.0820342877337,596.6800846606639 L672.0189102706761,622.3115260906707 M672.0189102706761,622.3115260906707 L703.2137924169318,652.014661274814 M703.2137924169318,652.014661274814 L716.8459968912999,684.0669847938916 M716.8459968912999,684.0669847938916 L712.1125597054149,716.6074435609917 M712.1125597054149,716.6074435609917 L689.2769922274092,747.7443884711538 M689.2769922274092,747.7443884711538 L649.6571209480783,775.6653520845139 M649.6571209480783,775.6653520845139 L595.5499139111523,798.7434160175471 M595.5499139111523,798.7434160175471 L530.1001385780767,815.6323306605045 M530.1001385780767,815.6323306605045 L457.1166249217891,825.3463022305878 M457.1166249217891,825.3463022305878 L380.8506868265097,827.3178965385232 M380.8506868265097,827.3178965385232 L305.7459395123493,821.4319879798204 M305.7459395123493,821.4319879798204 L236.17805524737628,808.0323798284371 M236.17805524737628,808.0323798284371 L176.1977334958733,787.9014926672317 M624.2358278642225,11.876749494913383 L671.2317447556825,37.44156147371541 M671.2317447556825,37.44156147371541 L702.4658148370133,67.06749638223118 M702.4658148370133,67.06749638223118 L716.1150573608838,99.03653035045863 M716.1150573608838,99.03653035045863 L711.3754910084261,131.49244854821882 M711.3754910084261,131.49244854821882 L688.5109542738082,162.54851567506557 M688.5109542738082,162.54851567506557 L648.8409335172609,190.3969686422788 M648.8409335172609,190.3969686422788 L594.6652974695972,213.41510868025216 M594.6652974695972,213.41510868025216 L529.1327907960255,230.26017560669425 M529.1327907960255,230.26017560669425 L456.0570648178951,239.94892949413043 M456.0570648178951,239.94892949413043 L379.69481686951883,241.9154056911284 M379.69481686951883,241.9154056911284 L304.4952881541351,236.04477670056804 M304.4952881541351,236.04477670056804 L234.83968663434814,222.67995550405612 M234.83968663434814,222.67995550405612 L174.7838288809769,202.6013360837096 M176.1977334958733,787.9014926672317 L129.29345433508195,762.2140879745202 M129.29345433508195,762.2140879745202 L98.18839579918654,732.4677777559846 M98.18839579918654,732.4677777559846 L84.6825456637855,700.3950088189667 M84.6825456637855,700.3950088189667 L89.54996435141607,667.8614998102057 M89.54996435141607,667.8614998102057 L112.4964472074115,636.7573077765337 M112.4964472074115,636.7573077765337 L152.1787581080913,608.887396760605 M152.1787581080913,608.887396760605 L206.2856250000857,585.8669898056469 M206.2856250000857,585.8669898056469 L271.6723583134334,569.0291277648503 M271.6723583134334,569.0291277648503 L344.54457004674396,559.3479091627742 M344.54457004674396,559.3479091627742 L420.6764445272084,557.3832645951043 M420.6764445272084,557.3832645951043 L495.6550786952178,563.2487277321634 M495.6550786952178,563.2487277321634 L565.1336486440491,576.6051972598507 M565.1336486440491,576.6051972598507 L625.0820342877337,596.6800846606639 M174.7838288809769,202.6013360837096 L127.82059157789001,176.98063580516464 M127.82059157789001,176.98063580516464 L96.67657214507608,147.3115837360674 M96.67657214507608,147.3115837360674 L83.15400310870007,115.32213174500066 M83.15400310870007,115.32213174500066 L88.02788916262364,82.87315399349609 M88.02788916262364,82.87315399349609 L111.00362104940405,51.849795857087884 M111.00362104940405,51.849795857087884 L150.7362386824168,24.052327081226395 M150.7362386824168,24.052327081226395 L204.91153329629924,1.0917667660032748 M204.91153329629924,1.0917667660032748 L270.3808384124259,-15.702315964255831 M270.3808384124259,-15.702315964255831 L343.34498122862044,-25.358360769751016 M343.34498122862044,-25.358360769751016 L419.5728270511813,-27.317896538515924 M419.5728270511813,-27.317896538515924 L494.64592438574294,-21.46768557454925 M494.64592438574294,-21.46768557454925 L564.2119864811223,-8.14594522274274 M564.2119864811223,-8.14594522274274 L624.2358278642225,11.876749494913383" stroke="black"  stroke-width="4"  fill="red"/></svg>