<svg viewBox="0 0 800 800" xmlns="http://www.w3.org/2000/svg"><path d="M-249.61839576110606,23.061682961934935 L-267.2858958747902,32.2196488117512 M-267.285895481921,28.13683169112386 L-267.2858958747902,32.2196488117512 M-267.285895481921,28.13683169112386 L-267.2859949992253,28.117200211700265 M-267.2859949992253,28.117200211700265 L-267.28605471077367,28.097547787360384 M-267.28605471077367,28.097547787360384 L-267.2860746149448,28.07788106873693 M-249.57945655673507,18.947557458946903 L-267.2860746149448,28.07788106873693 M-249.61839576110606,23.061682961934935 L-249.57945655673507,18.947557458946903 M1074.4894676408983,727.7300497150675 L1062.5467264577405,721.5395196650761 M1054.2969022722493,782.5049714107794 L1062.5467264577405,721.5395196650761 M1054.2969022722493,782.5049714107794 L450.85821978400077,455.9081010727044 M448.07625704453176,460.0760026168073 L450.85821978400077,455.9081010727044 M298.7526156384031,378.88089173509957 L448.07625704453176,460.0760026168073 M301.8260648235745,375.24798298230974 L298.7526156384031,378.88089173509957 M301.8260648235745,375.24798298230974 L-142.32047697526627,134.86420459268822 M-145.8609363103801,137.1211388249368 L-142.32047697526627,134.86420459268822 M-228.09324324142608,92.4071121882219 L-145.8609363103801,137.1211388249368 M-224.53224787665295,90.36903406330043 L-228.09324324142608,92.4071121882219 M-224.53224787665295,90.36903406330043 L-296.916197711098,51.192938521731776 M-263.87330343382655,33.98856900604898 L-296.916197711098,51.192938521731776 M-263.87330343382655,33.98856900604898 L-267.2858958747902,32.2196488117512 M1078.536336307632,695.7984199555116 L-249.61839576110606,23.061682961934935 M1074.4894676408983,727.7300497150675 L1078.536336307632,695.7984199555116 M-256.51997485730135,28.395600258615843 L-256.56797432991266,28.376307608797674 M-256.56797432991266,28.376307608797674 L-256.62344792167596,28.36346949554388 M-256.62344792167596,28.36346949554388 L-256.68317161847904,28.357830874974013 M-256.68317161847904,28.357830874974013 L-256.74367703159146,28.359719564579734 M-256.74367703159146,28.359719564579734 L-256.8014486705928,28.369025681917776 M-256.8014486705928,28.369025681917776 L-256.8531313275689,28.385209139443702 M-256.8531313275689,28.385209139443702 L-256.8957214673469,28.407329865145698 M-256.8957214673469,28.407329865145698 L-256.9267443809407,28.434103408341173 M-256.9267443809407,28.434103408341173 L-256.9443957155272,28.463974196094227 M-256.9443957155272,28.463974196094227 L-256.947648728124,28.495207200771915 M-256.947648728124,28.495207200771915 L-256.9363122557729,28.525986957784312 M-256.9363122557729,28.525986957784312 L-256.91104438353614,28.55452484317368 M-256.91104438353614,28.55452484317368 L-256.87331152263437,28.579161051647645 M-256.87331152263437,28.579161051647645 L-256.82530700907546,28.59846370482154 M-256.82530700907546,28.59846370482154 L-256.769820188122,28.611309462170652 M-256.769820188122,28.611309462170652 L-256.71007793414606,28.616951704237124 M-256.71007793414606,28.616951704237124 L-256.64955288674764,28.615061783632484 M-256.64955288674764,28.615061783632484 L-256.5917650345856,28.605749864945665 M-256.5917650345856,28.605749864945665 L-256.5400732996286,28.589557364599102 M-256.5400732996286,28.589557364599102 L-256.4974832968153,28.567426426380962 M-256.4974832968153,28.567426426380962 L-256.46646970375605,28.54064384042556 M-256.46646970375605,28.54064384042556 L-256.44883473793834,28.510767251346522 M-256.44883473793834,28.510767251346522 L-256.4456013926457,28.479533015698564 M-256.4456013926457,28.479533015698564 L-256.4569563250318,28.448756880087842 M-256.4569563250318,28.448756880087842 L-256.48223722142063,28.42022663892368 M-256.48223722142063,28.42022663892368 L-256.51997485730135,28.395600258615843 M1070.6532492379706,708.2385631942893 L1070.5034446325992,708.1716803927355 M1070.5034446325992,708.1716803927355 L1070.3600843824217,708.1272358609459 M1070.3600843824217,708.1272358609459 L1070.231243986058,708.1076790337733 M1070.231243986058,708.1076790337733 L1070.1246689160491,708.1142819655521 M1070.1246689160491,708.1142819655521 L1070.0462437655808,708.1465046877407 M1070.0462437655808,708.1465046877407 L1070.0005734003437,708.2025041369587 M1070.0005734003437,708.2025041369587 L1069.9904997083745,708.2791247775987 M1069.9904997083745,708.2791247775987 L1070.0166131562667,708.3719202153808 M1070.0166131562667,708.3719202153808 L1070.0772177980687,708.4754061402516 M1070.0772177980687,708.4754061402516 L1070.1687498907852,708.5835475435771 M1070.1687498907852,708.5835475435771 L1070.2862007040414,708.6902150889022 M1070.2862007040414,708.6902150889022 L1070.42248256175,708.7890732888382 M1070.42248256175,708.7890732888382 L1070.5699242782784,708.8744981525905 M1070.5699242782784,708.8744981525905 L1070.7196520174534,708.9413672876022 M1070.7196520174534,708.9413672876022 L1070.8631025923605,708.9858610892858 M1070.8631025923605,708.9858610892858 L1070.992028416822,709.0054413028541 M1070.992028416822,709.0054413028541 L1071.0988158112748,708.9989080340847 M1071.0988158112748,708.9989080340847 L1071.177111780141,708.9665702403745 M1071.177111780141,708.9665702403745 L1071.222761029253,708.9105125353858 M1071.222761029253,708.9105125353858 L1071.2327747657482,708.8338260348715 M1071.2327747657482,708.8338260348715 L1071.206576286519,708.7409722520198 M1071.206576286519,708.7409722520198 L1071.146032697539,708.6375265605865 M1071.146032697539,708.6375265605865 L1071.0542737999472,708.5292995877759 M1071.0542737999472,708.5292995877759 L1070.93678010891,708.4226553967134 M1070.93678010891,708.4226553967134 L1070.8004976408795,708.3238464763502 M1070.8004976408795,708.3238464763502 L1070.6532492379706,708.2385631942893 M-263.8657854312578,29.90052481375068 L-267.285895481921,28.13683169112386 M-263.8657854312578,29.90052481375068 L-263.87330343382655,33.98856900604898 M-263.8658558481592,29.841498720304912 L-263.865872175102,29.861190683566065 M-263.865872175102,29.861190683566065 L-263.8658487063426,29.8808682677747 M-263.8658487063426,29.8808682677747 L-263.8657854312578,29.90052481375068 M-267.2860746149448,28.07788106873693 L-263.8658558481592,29.841498720304912 M1068.0991862184726,716.6622022005685 L1080.115284794175,722.8582396461514 M1080.115284794175,722.8582396461514 L1084.0576406033995,690.9002060323248 M1084.0576406033995,690.9002060323248 L-249.57945655673507,18.947557458946903 M-263.8658558481592,29.841498720304912 L-296.98384999908455,46.99511412214264 M-296.98384999908455,46.99511412214264 L-224.42991195508102,86.06203959110331 M-224.42991195508102,86.06203959110331 L-227.9992058596481,88.09467377973056 M-227.9992058596481,88.09467377973056 L-145.554293143299,132.6951259484503 M-145.554293143299,132.6951259484503 L-142.0056878043871,130.44365564865086 M-142.0056878043871,130.44365564865086 L303.6455216820417,370.40613122922207 M303.6455216820417,370.40613122922207 L300.5680506182815,374.0351625713507 M300.5680506182815,374.0351625713507 L450.53458960920784,455.1629754199764 M450.53458960920784,455.1629754199764 L453.3176606836614,450.99762573376415 M453.3176606836614,450.99762573376415 L1060.0428458787032,777.6909552644144 M1068.0991862184726,716.6622022005685 L1060.0428458787032,777.6909552644144 M-256.2306065885805,24.12806562919286 L-256.13604371387555,24.189427306917082 M-256.13604371387555,24.189427306917082 L-256.07267394184123,24.26052251116431 M-256.07267394184123,24.26052251116431 L-256.0441867585488,24.337223628623747 M-256.0441867585488,24.337223628623747 L-256.05224855369295,24.41507511299494 M-256.05224855369295,24.41507511299494 L-256.096400863556,24.489551888847814 M-256.096400863556,24.489551888847814 L-256.174086563002,24.55632256443903 M-256.174086563002,24.55632256443903 L-256.28079594919154,24.611501788257215 M-256.28079594919154,24.611501788257215 L-256.41032740812386,24.65187722106384 M-256.41032740812386,24.65187722106384 L-256.5551480636441,24.67509760710044 M-256.5551480636441,24.67509760710044 L-256.70683280233266,24.679810390081855 M-256.70683280233266,24.679810390081855 L-256.8565557611063,24.665740766823717 M-256.8565557611063,24.665740766823717 L-256.9956058216312,24.633708819442177 M-256.9956058216312,24.633708819442177 L-257.1158949937453,24.585580051665602 M-257.1158949937453,24.585580051665602 L-257.21042879413517,24.524156537911892 M-257.21042879413517,24.524156537911892 L-257.27371697694025,24.453013509114328 M-257.27371697694025,24.453013509114328 L-257.30208810155887,24.376289863577426 M-257.30208810155887,24.376289863577426 L-257.2939029255107,24.29844602296049 M-257.2939029255107,24.29844602296049 L-257.2496478549458,24.224005476194748 M-257.2496478549458,24.224005476194748 L-257.17190364179953,24.157291271820156 M-257.17190364179953,24.157291271820156 L-257.0651933938602,24.10217582447342 M-257.0651933938602,24.10217582447342 L-256.9357189225527,24.061856862881314 M-256.9357189225527,24.061856862881314 L-256.7910000486952,24.038672705972488 M-256.7910000486952,24.038672705972488 L-256.63943848318854,24.03396765401368 M-256.63943848318854,24.03396765401368 L-256.4898321942603,24.04801457430608 M-256.4898321942603,24.04801457430608 L-256.3508650130027,24.07999887163163 M-256.3508650130027,24.07999887163163 L-256.2306065885805,24.12806562919286 M1076.250177524559,702.8728558911331 L1076.6205487796685,703.0861155097496 M1076.6205487796685,703.0861155097496 L1076.9636766555811,703.3332796234901 M1076.9636766555811,703.3332796234901 L1077.259639931671,703.6000206559997 M1077.259639931671,703.6000206559997 L1077.4910768426123,703.8707796951761 M1077.4910768426123,703.8707796951761 L1077.644517399516,704.1298271748167 M1077.644517399516,704.1298271748167 L1077.7110959499048,704.362139497979 M1077.7110959499048,704.362139497979 L1077.6867975940418,704.5541334136909 M1077.6867975940418,704.5541334136909 L1077.5730019790665,704.6946152865419 M1077.5730019790665,704.6946152865419 L1077.3764105875143,704.7754402712342 M1077.3764105875143,704.7754402712342 L1077.1083599202682,704.791839767866 M1077.1083599202682,704.791839767866 L1076.7844401547854,704.742845400706 M1076.7844401547854,704.742845400706 L1076.4236607938813,704.6313887298306 M1076.4236607938813,704.6313887298306 L1076.0470175986313,704.4639632867597 M1076.0470175986313,704.4639632867597 L1075.676229009597,704.2502243864545 M1075.676229009597,704.2502243864545 L1075.333103751696,704.0027506811485 M1075.333103751696,704.0027506811485 L1075.0374100575802,703.7358629567324 M1075.0374100575802,703.7358629567324 L1074.8064479080674,703.4651537819534 M1074.8064479080674,703.4651537819534 L1074.653578478496,703.2063412525533 M1074.653578478496,703.2063412525533 L1074.5875367414435,702.9743952023507 M1074.5875367414435,702.9743952023507 L1074.6122144631001,702.7828149141728 M1074.6122144631001,702.7828149141728 L1074.726145063732,702.6426992397584 M1074.726145063732,702.6426992397584 L1074.9225963616475,702.5621092668035 M1074.9225963616475,702.5621092668035 L1075.1902637234684,702.5457596217576 M1075.1902637234684,702.5457596217576 L1075.5136447590116,702.5946072253496 M1075.5136447590116,702.5946072253496 L1075.8738536384433,702.7057543385274 M1075.8738536384433,702.7057543385274 L1076.250177524559,702.8728558911331 M1078.536336307632,695.7984199555116 L1084.0576406033995,690.9002060323248 M1080.0349725906246,722.9275003511559 L1068.01992555038,716.7315430518264 M1080.0349725906246,722.9275003511559 L1074.4894676408983,727.7300497150675 M1068.01992555038,716.7315430518264 L1062.5467264577405,721.5395196650761 M1068.01992555038,716.7315430518264 L1068.046338196693,716.7084997130794 M1068.046338196693,716.7084997130794 L1068.0727613978077,716.6853834810341 M1068.0727613978077,716.6853834810341 L1068.0991862184726,716.6622022005685 M1054.2969022722493,782.5049714107794 L1060.0428458787032,777.6909552644144 M450.85821978400077,455.9081010727044 L453.3176606836614,450.99762573376415 M448.07625704453176,460.0760026168073 L450.53458960920784,455.1629754199764 M298.7526156384031,378.88089173509957 L300.5680506182815,374.0351625713507 M301.8260648235745,375.24798298230974 L303.6455216820417,370.40613122922207 M-142.32047697526627,134.86420459268822 L-142.0056878043871,130.44365564865086 M-145.8609363103801,137.1211388249368 L-145.554293143299,132.6951259484503 M-228.09324324142608,92.4071121882219 L-227.9992058596481,88.09467377973056 M-224.53224787665295,90.36903406330043 L-224.42991195508102,86.06203959110331 M-296.916197711098,51.192938521731776 L-296.98384999908455,46.99511412214264 M1080.115284794175,722.8582396461514 L1080.0885100699127,722.8813948246179 M1080.0885100699127,722.8813948246179 L1080.0617363175575,722.9044843383228 M1080.0617363175575,722.9044843383228 L1080.0349725906246,722.9275003511559 M-256.51997485730135,28.395600258615843 L-256.49859795355815,24.699756387655157 M-256.49859795355815,24.699756387655157 L-256.460784716284,24.7243161548991 M-256.460784716284,24.7243161548991 L-256.435452842627,24.752769227064846 M-256.435452842627,24.752769227064846 L-256.4240745219033,24.78346212352824 M-256.4240745219033,24.78346212352824 L-256.42731343493006,24.81461188587957 M-256.42731343493006,24.81461188587957 L-256.4449826068252,24.844407678009816 M-256.4449826068252,24.844407678009816 L-256.4760570629061,24.871117838110138 M-256.4760570629061,24.871117838110138 L-256.5187310505228,24.893188932241173 M-256.5187310505228,24.893188932241173 L-256.5705250122048,24.909337648138035 M-256.5705250122048,24.909337648138035 L-256.6284273875158,24.918624388033322 M-256.6284273875158,24.918624388033322 L-256.6890725950682,24.920509198474917 M-256.6890725950682,24.920509198474917 L-256.74893365464845,24.91488221253985 M-256.74893365464845,24.91488221253985 L-256.8045310176635,24.902071189596086 M-256.8045310176635,24.902071189596086 L-256.8526313788527,24.88282073156779 M-256.8526313788527,24.88282073156779 L-256.8904398227671,24.858251143100972 M-256.8904398227671,24.858251143100972 L-256.9157586206983,24.829790432245318 M-256.9157586206983,24.829790432245318 L-256.9271184080949,24.799093917002665 M-256.9271184080949,24.799093917002665 L-256.92385974954254,24.76794538473024 M-256.92385974954254,24.76794538473024 L-256.9061741436486,24.73815538972508 M-256.9061741436486,24.73815538972508 L-256.87509032973696,24.71145426583655 M-256.87509032973696,24.71145426583655 L-256.8324162043381,24.689393376826672 M-256.8324162043381,24.689393376826672 L-256.78063135648506,24.673253697202597 M-256.78063135648506,24.673253697202597 L-256.722745258636,24.6639727544553 M-256.722745258636,24.6639727544553 L-256.662119763394,24.662089174121206 M-256.662119763394,24.662089174121206 L-256.60227733485874,24.667712541182027 M-256.60227733485874,24.667712541182027 L-256.54669325383145,24.680515925565658 M-256.54669325383145,24.680515925565658 L-256.49859795355815,24.699756387655157 M1070.6532492379706,708.2385631942893 L1075.6059138882622,703.8649788103743 M1075.6059138882622,703.8649788103743 L1075.7539959210262,703.9503230132535 M1075.7539959210262,703.9503230132535 L1075.8911172542332,704.0492025621289 M1075.8911172542332,704.0492025621289 L1076.009406830613,704.1559230375848 M1076.009406830613,704.1559230375848 L1076.1018717452705,704.2642274856079 M1076.1018717452705,704.2642274856079 L1076.162989629083,704.3677472847362 M1076.162989629083,704.3677472847362 L1076.1895993969613,704.4606676332739 M1076.1895993969613,704.4606676332739 L1076.1798081314216,704.537409142135 M1076.1798081314216,704.537409142135 L1076.134179551549,704.5935070768946 M1076.134179551549,704.5935070768946 L1076.0557030502887,704.6258680850058 M1076.0557030502887,704.6258680850058 L1075.9485422632315,704.6324060444672 M1075.9485422632315,704.6324060444672 L1075.819072688982,704.6128117735343 M1075.819072688982,704.6128117735343 L1075.674940292756,704.5682860352814 M1075.674940292756,704.5682860352814 L1075.5244318230066,704.5013689220041 M1075.5244318230066,704.5013689220041 L1075.3761551257446,704.4158827991437 M1075.3761551257446,704.4158827991437 L1075.2390342400538,704.3169537528363 M1075.2390342400538,704.3169537528363 L1075.1207877802528,704.210209819871 M1075.1207877802528,704.210209819871 L1075.0285510796175,704.1019910319988 M1075.0285510796175,704.1019910319988 L1074.96737211745,703.998431109193 M1074.96737211745,703.998431109193 L1074.9408482098495,703.9055693636618 M1074.9408482098495,703.9055693636618 L1074.9507000992892,703.8288940058338 M1074.9507000992892,703.8288940058338 L1074.9963501497552,703.7728545843871 M1074.9963501497552,703.7728545843871 L1075.0749566176999,703.7406088688889 M1075.0749566176999,703.7406088688889 L1075.1819038326043,703.7340012260732 M1075.1819038326043,703.7340012260732 L1075.3112872655768,703.7535720072216 M1075.3112872655768,703.7535720072216 L1075.4553284996773,703.798048257764 M1075.4553284996773,703.798048257764 L1075.6059138882622,703.8649788103743 M-256.2306065885805,24.12806562919286 L-256.23318109275556,24.56251408222687 M-256.23318109275556,24.56251408222687 L-256.13864044191473,24.623895411655667 M-256.13864044191473,24.623895411655667 L-256.07528566442477,24.695013382075047 M-256.07528566442477,24.695013382075047 L-256.0468053717659,24.771739057474406 M-256.0468053717659,24.771739057474406 L-256.054865548355,24.849615464537294 M-256.054865548355,24.849615464537294 L-256.09900781973556,24.92411607936657 M-256.09900781973556,24.92411607936657 L-256.1766756400524,24.990908124521184 M-256.1766756400524,24.990908124521184 L-256.28336034316203,25.04610500613029 M-256.28336034316203,25.04610500613029 L-256.4128617495296,25.08649335825237 M-256.4128617495296,25.08649335825237 L-256.5576487318249,25.10972117390105 M-256.5576487318249,25.10972117390105 L-256.70929813763087,25.114435464748908 M-256.70929813763087,25.114435464748908 L-256.858986162183,25.10036133984113 M-256.858986162183,25.10036133984113 L-256.99800372200264,25.06831914323226 M-256.99800372200264,25.06831914323226 L-257.11826471902555,25.02017497460156 M-257.11826471902555,25.02017497460156 L-257.2127763088605,24.958731803776004 M-257.2127763088605,24.958731803776004 L-257.2760495350167,24.887566004618975 M-257.2760495350167,24.887566004618975 L-257.3044138229541,24.810817799199697 M-257.3044138229541,24.810817799199697 L-257.2962303229788,24.73294903654687 M-257.2962303229788,24.73294903654687 L-257.25198533887885,24.658484653961352 M-257.25198533887885,24.658484653961352 L-257.1742590322965,24.591749084943558 M-257.1742590322965,24.591749084943558 L-257.0675734680392,24.536615985362687 M-257.0675734680392,24.536615985362687 L-256.9381290229278,24.49628410937555 M-256.9381290229278,24.49628410937555 L-256.79344377499683,24.473092526011158 M-256.79344377499683,24.473092526011158 L-256.641917485,24.468385966869675 M-256.641917485,24.468385966869675 L-256.49234607591393,24.482437386813217 M-256.49234607591393,24.482437386813217 L-256.35341135656495,24.51443192923483 M-256.35341135656495,24.51443192923483 L-256.23318109275556,24.56251408222687 M1076.250177524559,702.8728558911331 L1075.6669790147214,703.3880487948855 M1075.6669790147214,703.3880487948855 L1076.0371045578024,703.6012908455417 M1076.0371045578024,703.6012908455417 L1076.37998499629,703.8484345645883 M1076.37998499629,703.8484345645883 L1076.6757134663856,704.1151535463773 M1076.6757134663856,704.1151535463773 L1076.9069419515615,704.3858901595273 M1076.9069419515615,704.3858901595273 L1077.0602125996625,704.6449161424788 M1077.0602125996625,704.6449161424788 L1077.1266696189207,704.8772091536881 M1077.1266696189207,704.8772091536881 L1077.1023052884727,705.0691870849339 M1077.1023052884727,705.0691870849339 L1076.9885031321037,705.2096572481097 M1076.9885031321037,705.2096572481097 L1076.7919649715068,705.290475490442 M1076.7919649715068,705.290475490442 L1076.524024275745,705.3068736185675 M1076.524024275745,705.3068736185675 L1076.2002648177304,705.2578833394199 M1076.2002648177304,705.2578833394199 L1075.8396866500489,705.1464359630102 M1075.8396866500489,705.1464359630102 L1075.4632738011514,704.9790244678446 M1075.4632738011514,704.9790244678446 L1075.0927314111634,704.7653033495798 M1075.0927314111634,704.7653033495798 L1074.7498537116292,704.5178501990462 M1074.7498537116292,704.5178501990462 L1074.4543946477747,704.2509846012001 M1074.4543946477747,704.2509846012001 L1074.2236404918813,703.980297826664 M1074.2236404918813,703.980297826664 L1074.070940381616,703.721506672469 M1074.070940381616,703.721506672469 L1074.0050195637316,703.4895797448327 M1074.0050195637316,703.4895797448327 L1074.0297627658974,703.298015227249 M1074.0297627658974,703.298015227249 L1074.1436996449518,703.1579110731619 M1074.1436996449518,703.1579110731619 L1074.3400977400418,703.0773277210508 M1074.3400977400418,703.0773277210508 L1074.6076554434158,703.0609794187347 M1074.6076554434158,703.0609794187347 L1074.930876697754,703.1098230102006 M1074.930876697754,703.1098230102006 L1075.290885002592,703.2209609889743 M1075.290885002592,703.2209609889743 L1075.6669790147214,703.3880487948855" stroke="black"  stroke-width="4"  fill="red"/>
<path d="M1074.4894676408983,727.7300497150675 L1065.8390111643973,795.9860758444548 M1074.4894676408983,727.7300497150675 L1062.5467264577405,721.5395196650761 M1053.388739875152,789.2162090750786 L1062.5467264577405,721.5395196650761 M1065.8390111643973,795.9860758444548 L1053.388739875152,789.2162090750786 M1080.0349725906246,722.9275003511559 L1074.4894676408983,727.7300497150675 M1092.2729868298104,697.9276019978264 L1092.4751005348583,698.7749765853436 M1092.4751005348583,698.7749765853436 L1092.563991510724,699.751191182339 M1092.563991510724,699.751191182339 L1092.5383911392114,700.8462991119379 M1092.5383911392114,700.8462991119379 L1092.3982735808563,702.0490061338356 M1092.3982735808563,702.0490061338356 L1092.144839512605,703.3468034824731 M1092.144839512605,703.3468034824731 L1091.7805410186158,704.7260800010916 M1091.7805410186158,704.7260800010916 L1091.3090488861399,706.1722815063954 M1091.3090488861399,706.1722815063954 L1090.7352160520595,707.6700740360233 M1090.7352160520595,707.6700740360233 L1090.065073326543,709.2034804723776 M1090.065073326543,709.2034804723776 L1089.3056843382992,710.7561339012476 M1089.3056843382992,710.7561339012476 L1088.4651433731135,712.311399826273 M1088.4651433731135,712.311399826273 L1087.5524324246192,713.8526168570266 M1087.5524324246192,713.8526168570266 L1086.5773311672583,715.3632778426527 M1086.5773311672583,715.3632778426527 L1085.5503337098023,716.8271981914592 M1085.5503337098023,716.8271981914592 L1084.4824464342994,718.2287711506233 M1084.4824464342994,718.2287711506233 L1083.3851498229076,719.5530696500766 M1083.3851498229076,719.5530696500766 L1082.2701975067175,720.7860735465355 M1082.2701975067175,720.7860735465355 L1081.149490493378,721.9148167487272 M1081.149490493378,721.9148167487272 L1080.0349725906246,722.9275003511559 M1092.202014052467,697.7214625305122 L1092.1681106205872,697.7672991192533 M1092.1681106205872,697.7672991192533 L1092.1382335027324,697.8164654117584 M1092.1382335027324,697.8164654117584 L1092.114121166582,697.8661028645905 M1092.114121166582,697.8661028645905 L1092.0971814551694,697.9133211441165 M1092.0971814551694,697.9133211441165 L1092.0883971123521,697.955378179591 M1092.0883971123521,697.955378179591 L1092.0882749535838,697.9898350699594 M1092.0882749535838,697.9898350699594 L1092.0968311555855,698.0146804616885 M1092.0968311555855,698.0146804616885 L1092.1135478567505,698.028490028384 M1092.1135478567505,698.028490028384 L1092.1374866724104,698.0304309903873 M1092.1374866724104,698.0304309903873 L1092.1672300556863,698.0204122082561 M1092.1672300556863,698.0204122082561 L1092.20106188407,697.9990049476636 M1092.20106188407,697.9990049476636 L1092.2370061536028,697.9674607039191 M1092.2370061536028,697.9674607039191 L1092.2729868298104,697.9276019978264 M1104.2761091941297,672.9634325723739 L1103.155756277642,674.0106595023244 M1103.155756277642,674.0106595023244 L1102.0353576679993,675.163853413892 M1102.0353576679993,675.163853413892 L1100.926091574191,676.4112882397386 M1100.926091574191,676.4112882397386 L1099.8390000212423,677.7403621620442 M1099.8390000212423,677.7403621620442 L1098.7848949359302,679.1377072699684 M1098.7848949359302,679.1377072699684 L1097.7742181197655,680.5893514969098 M1097.7742181197655,680.5893514969098 L1096.8169810216984,682.0808254703721 M1096.8169810216984,682.0808254703721 L1095.9226676333617,683.5972984802102 M1095.9226676333617,683.5972984802102 L1095.1001626128327,685.1236952246138 M1095.1001626128327,685.1236952246138 L1094.3576563174595,686.6448537394255 M1094.3576563174595,686.6448537394255 L1093.7025849372594,688.1456390349522 M1093.7025849372594,688.1456390349522 L1093.1415463515684,689.6111000554811 M1093.1415463515684,689.6111000554811 L1092.680258595046,691.0265813406268 M1092.680258595046,691.0265813406268 L1092.3234771948028,692.3778791393646 M1092.3234771948028,692.3778791393646 L1092.0749798884783,693.651347042089 M1092.0749798884783,693.651347042089 L1091.9374843071807,694.8340595502243 M1091.9374843071807,694.8340595502243 L1091.9126343576365,695.9139168174291 M1091.9126343576365,695.9139168174291 L1092.0010094866411,696.8797393995224 M1092.0010094866411,696.8797393995224 L1092.202014052467,697.7214625305122 M1093.8796084340718,766.7907739511874 L1104.2761091941297,672.9634325723739 M1080.1512210968272,778.1165884463354 L1093.8796084340718,766.7907739511874 M1079.3438962591226,784.9060587807704 L1080.1512210968272,778.1165884463354 M1065.8390111643973,795.9860758444548 L1079.3438962591226,784.9060587807704 M1080.0349725906246,722.9275003511559 L1068.01992555038,716.7315430518264 M1068.01992555038,716.7315430518264 L1062.5467264577405,721.5395196650761 M1053.388739875152,789.2162090750786 L1066.7087459804477,778.1165722031684 M1067.5677870973693,771.3864749199814 L1066.7087459804477,778.1165722031684 M1067.5677870973693,771.3864749199814 L1081.107898791384,760.0424171319163 M1092.2423449159858,667.0168446113677 L1081.107898791384,760.0424171319163 M1092.2423449159858,667.0168446113677 L1091.1358718842037,668.0642972539265 M1091.1358718842037,668.0642972539265 L1090.0282520902124,669.2167428891514 M1090.0282520902124,669.2167428891514 L1088.930539866449,670.4624644407784 M1088.930539866449,670.4624644407784 L1087.8536656143715,671.7888779238843 M1087.8536656143715,671.7888779238843 L1086.8083427532638,673.1826419674471 M1086.8083427532638,673.1826419674471 L1085.8049290272595,674.6298195605935 M1085.8049290272595,674.6298195605935 L1084.85336642244,676.1159845287124 M1084.85336642244,676.1159845287124 L1083.9630847199842,677.6263571977512 M1083.9630847199842,677.6263571977512 L1083.1429299257138,679.1459207987265 M1083.1429299257138,679.1459207987265 L1082.4010696993655,680.6595788840395 M1082.4010696993655,680.6595788840395 L1081.7449335790761,682.1522685501732 M1081.7449335790761,682.1522685501732 L1081.1811290283183,683.6091167941519 M1081.1811290283183,683.6091167941519 L1080.715399635939,685.015551604654 M1080.715399635939,685.015551604654 L1080.3525426481924,686.3574574493958 M1080.3525426481924,686.3574574493958 L1080.0963929361603,687.621280132489 M1080.0963929361603,687.621280132489 L1079.9497408203072,688.7941896331081 M1079.9497408203072,688.7941896331081 L1079.9143177053152,689.8641840282222 M1079.9143177053152,689.8641840282222 L1079.9908042106933,690.8201832902427 M1079.9908042106933,690.8201832902427 L1080.1787200322622,691.6522227365798 M1080.246008722299,691.8557937460829 L1080.210409093467,691.8956033602939 M1080.210409093467,691.8956033602939 L1080.1749306866675,691.9271760197921 M1080.1749306866675,691.9271760197921 L1080.1416226335157,691.9486875678462 M1080.1416226335157,691.9486875678462 L1080.1124303573868,691.9588804260418 M1080.1124303573868,691.9588804260418 L1080.0890381144618,691.957173216594 M1080.0890381144618,691.957173216594 L1080.0728313339375,691.9436434544967 M1080.0728313339375,691.9436434544967 L1080.0647191870744,691.9191076688105 M1080.0647191870744,691.9191076688105 L1080.0651934809928,691.8849721874145 M1080.0651934809928,691.8849721874145 L1080.0742176858075,691.8432296828862 M1080.0742176858075,691.8432296828862 L1080.0912710209523,691.7963007949819 M1080.0912710209523,691.7963007949819 L1080.1153641222818,691.7469107839447 M1080.1153641222818,691.7469107839447 L1080.1450903484902,691.6979356146757 M1080.1450903484902,691.6979356146757 L1080.1787200322622,691.6522227365798 M1068.01992555038,716.7315430518264 L1069.1203760373241,715.7182379621689 M1069.1203760373241,715.7182379621689 L1070.228063539552,714.589921471177 M1070.228063539552,714.589921471177 L1071.3311866578913,713.3583897411736 M1071.3311866578913,713.3583897411736 L1072.4179741220894,712.0365941615156 M1072.4179741220894,712.0365941615156 L1073.476788153601,710.6385283715073 M1073.476788153601,710.6385283715073 L1074.4962489007107,709.1790814431043 M1074.4962489007107,709.1790814431043 L1075.465433218742,707.6738110383814 M1075.465433218742,707.6738110383814 L1076.3739129628198,706.1388422833718 M1076.3739129628198,706.1388422833718 L1077.2119552441097,704.5906131741167 M1077.2119552441097,704.5906131741167 L1077.9706055010342,703.0457072119294 M1077.9706055010342,703.0457072119294 L1078.6417773459495,701.5206732847427 M1078.6417773459495,701.5206732847427 L1079.2183947966585,700.0317860711756 M1079.2183947966585,700.0317860711756 L1079.6943956169548,698.5949250686574 M1079.6943956169548,698.5949250686574 L1080.0648757730391,697.2253224025061 M1080.0648757730391,697.2253224025061 L1080.3260950279557,695.9374275265967 M1080.3260950279557,695.9374275265967 L1080.4755143949562,694.7447452356155 M1080.4755143949562,694.7447452356155 L1080.5118298034386,693.6596775334091 M1080.5118298034386,693.6596775334091 L1080.4349489663316,692.6934127821517 M1080.4349489663316,692.6934127821517 L1080.246008722299,691.8557937460829 M1066.7087459804477,778.1165722031684 L1079.3438962591226,784.9060587807704 M1092.2729868298104,697.9276019978264 L1080.246008722299,691.8557937460829 M1092.202014052467,697.7214625305122 L1080.1787200322622,691.6522227365798 M1104.2761091941297,672.9634325723739 L1092.2423449159858,667.0168446113677 M1093.8796084340718,766.7907739511874 L1081.107898791384,760.0424171319163 M1080.1512210968272,778.1165884463354 L1067.5677870973693,771.3864749199814" stroke="black"  stroke-width="4"  fill="red"/>
<path d="M1070.6532492379706,708.2385631942893 L1075.6059138882622,703.8649788103743 M1075.6059138882622,703.8649788103743 L1075.7539959210262,703.9503230132535 M1075.7539959210262,703.9503230132535 L1075.8911172542332,704.0492025621289 M1075.8911172542332,704.0492025621289 L1076.009406830613,704.1559230375848 M1076.009406830613,704.1559230375848 L1076.1018717452705,704.2642274856079 M1076.1018717452705,704.2642274856079 L1076.162989629083,704.3677472847362 M1076.162989629083,704.3677472847362 L1076.1895993969613,704.4606676332739 M1076.1895993969613,704.4606676332739 L1076.1798081314216,704.537409142135 M1076.1798081314216,704.537409142135 L1076.134179551549,704.5935070768946 M1076.134179551549,704.5935070768946 L1076.0557030502887,704.6258680850058 M1076.0557030502887,704.6258680850058 L1075.9485422632315,704.6324060444672 M1075.9485422632315,704.6324060444672 L1075.819072688982,704.6128117735343 M1075.819072688982,704.6128117735343 L1075.674940292756,704.5682860352814 M1075.674940292756,704.5682860352814 L1075.5244318230066,704.5013689220041 M1075.5244318230066,704.5013689220041 L1075.3761551257446,704.4158827991437 M1075.3761551257446,704.4158827991437 L1075.2390342400538,704.3169537528363 M1075.2390342400538,704.3169537528363 L1075.1207877802528,704.210209819871 M1075.1207877802528,704.210209819871 L1075.0285510796175,704.1019910319988 M1075.0285510796175,704.1019910319988 L1074.96737211745,703.998431109193 M1074.96737211745,703.998431109193 L1074.9408482098495,703.9055693636618 M1074.9408482098495,703.9055693636618 L1074.9507000992892,703.8288940058338 M1074.9507000992892,703.8288940058338 L1074.9963501497552,703.7728545843871 M1074.9963501497552,703.7728545843871 L1075.0749566176999,703.7406088688889 M1075.0749566176999,703.7406088688889 L1075.1819038326043,703.7340012260732 M1075.1819038326043,703.7340012260732 L1075.3112872655768,703.7535720072216 M1075.3112872655768,703.7535720072216 L1075.4553284996773,703.798048257764 M1075.4553284996773,703.798048257764 L1075.6059138882622,703.8649788103743 M1070.6532492379706,708.2385631942893 L1070.5034446325992,708.1716803927355 M1070.5034446325992,708.1716803927355 L1070.3600843824217,708.1272358609459 M1070.3600843824217,708.1272358609459 L1070.231243986058,708.1076790337733 M1070.231243986058,708.1076790337733 L1070.1246689160491,708.1142819655521 M1070.1246689160491,708.1142819655521 L1070.0462437655808,708.1465046877407 M1070.0462437655808,708.1465046877407 L1070.0005734003437,708.2025041369587 M1070.0005734003437,708.2025041369587 L1069.9904997083745,708.2791247775987 M1069.9904997083745,708.2791247775987 L1070.0166131562667,708.3719202153808 M1070.0166131562667,708.3719202153808 L1070.0772177980687,708.4754061402516 M1070.0772177980687,708.4754061402516 L1070.1687498907852,708.5835475435771 M1070.1687498907852,708.5835475435771 L1070.2862007040414,708.6902150889022 M1070.2862007040414,708.6902150889022 L1070.42248256175,708.7890732888382 M1070.42248256175,708.7890732888382 L1070.5699242782784,708.8744981525905 M1070.5699242782784,708.8744981525905 L1070.7196520174534,708.9413672876022 M1070.7196520174534,708.9413672876022 L1070.8631025923605,708.9858610892858 M1070.8631025923605,708.9858610892858 L1070.992028416822,709.0054413028541 M1070.992028416822,709.0054413028541 L1071.0988158112748,708.9989080340847 M1071.0988158112748,708.9989080340847 L1071.177111780141,708.9665702403745 M1071.177111780141,708.9665702403745 L1071.222761029253,708.9105125353858 M1071.222761029253,708.9105125353858 L1071.2327747657482,708.8338260348715 M1071.2327747657482,708.8338260348715 L1071.206576286519,708.7409722520198 M1071.206576286519,708.7409722520198 L1071.146032697539,708.6375265605865 M1071.146032697539,708.6375265605865 L1071.0542737999472,708.5292995877759 M1071.0542737999472,708.5292995877759 L1070.93678010891,708.4226553967134 M1070.93678010891,708.4226553967134 L1070.8004976408795,708.3238464763502 M1070.8004976408795,708.3238464763502 L1070.6532492379706,708.2385631942893 M1075.6669790147214,703.3880487948855 L1076.0371045578024,703.6012908455417 M1076.0371045578024,703.6012908455417 L1076.37998499629,703.8484345645883 M1076.37998499629,703.8484345645883 L1076.6757134663856,704.1151535463773 M1076.6757134663856,704.1151535463773 L1076.9069419515615,704.3858901595273 M1076.9069419515615,704.3858901595273 L1077.0602125996625,704.6449161424788 M1077.0602125996625,704.6449161424788 L1077.1266696189207,704.8772091536881 M1077.1266696189207,704.8772091536881 L1077.1023052884727,705.0691870849339 M1077.1023052884727,705.0691870849339 L1076.9885031321037,705.2096572481097 M1076.9885031321037,705.2096572481097 L1076.7919649715068,705.290475490442 M1076.7919649715068,705.290475490442 L1076.524024275745,705.3068736185675 M1076.524024275745,705.3068736185675 L1076.2002648177304,705.2578833394199 M1076.2002648177304,705.2578833394199 L1075.8396866500489,705.1464359630102 M1075.8396866500489,705.1464359630102 L1075.4632738011514,704.9790244678446 M1075.4632738011514,704.9790244678446 L1075.0927314111634,704.7653033495798 M1075.0927314111634,704.7653033495798 L1074.7498537116292,704.5178501990462 M1074.7498537116292,704.5178501990462 L1074.4543946477747,704.2509846012001 M1074.4543946477747,704.2509846012001 L1074.2236404918813,703.980297826664 M1074.2236404918813,703.980297826664 L1074.070940381616,703.721506672469 M1074.070940381616,703.721506672469 L1074.0050195637316,703.4895797448327 M1074.0050195637316,703.4895797448327 L1074.0297627658974,703.298015227249 M1074.0297627658974,703.298015227249 L1074.1436996449518,703.1579110731619 M1074.1436996449518,703.1579110731619 L1074.3400977400418,703.0773277210508 M1074.3400977400418,703.0773277210508 L1074.6076554434158,703.0609794187347 M1074.6076554434158,703.0609794187347 L1074.930876697754,703.1098230102006 M1074.930876697754,703.1098230102006 L1075.290885002592,703.2209609889743 M1075.290885002592,703.2209609889743 L1075.6669790147214,703.3880487948855 M1076.250177524559,702.8728558911331 L1076.6205487796685,703.0861155097496 M1076.6205487796685,703.0861155097496 L1076.9636766555811,703.3332796234901 M1076.9636766555811,703.3332796234901 L1077.259639931671,703.6000206559997 M1077.259639931671,703.6000206559997 L1077.4910768426123,703.8707796951761 M1077.4910768426123,703.8707796951761 L1077.644517399516,704.1298271748167 M1077.644517399516,704.1298271748167 L1077.7110959499048,704.362139497979 M1077.7110959499048,704.362139497979 L1077.6867975940418,704.5541334136909 M1077.6867975940418,704.5541334136909 L1077.5730019790665,704.6946152865419 M1077.5730019790665,704.6946152865419 L1077.3764105875143,704.7754402712342 M1077.3764105875143,704.7754402712342 L1077.1083599202682,704.791839767866 M1077.1083599202682,704.791839767866 L1076.7844401547854,704.742845400706 M1076.7844401547854,704.742845400706 L1076.4236607938813,704.6313887298306 M1076.4236607938813,704.6313887298306 L1076.0470175986313,704.4639632867597 M1076.0470175986313,704.4639632867597 L1075.676229009597,704.2502243864545 M1075.676229009597,704.2502243864545 L1075.333103751696,704.0027506811485 M1075.333103751696,704.0027506811485 L1075.0374100575802,703.7358629567324 M1075.0374100575802,703.7358629567324 L1074.8064479080674,703.4651537819534 M1074.8064479080674,703.4651537819534 L1074.653578478496,703.2063412525533 M1074.653578478496,703.2063412525533 L1074.5875367414435,702.9743952023507 M1074.5875367414435,702.9743952023507 L1074.6122144631001,702.7828149141728 M1074.6122144631001,702.7828149141728 L1074.726145063732,702.6426992397584 M1074.726145063732,702.6426992397584 L1074.9225963616475,702.5621092668035 M1074.9225963616475,702.5621092668035 L1075.1902637234684,702.5457596217576 M1075.1902637234684,702.5457596217576 L1075.5136447590116,702.5946072253496 M1075.5136447590116,702.5946072253496 L1075.8738536384433,702.7057543385274 M1075.8738536384433,702.7057543385274 L1076.250177524559,702.8728558911331 M1076.250177524559,702.8728558911331 L1075.6669790147214,703.3880487948855" stroke="black"  stroke-width="4"  fill="red"/>
<path d="M-263.87330343382655,33.98856900604898 L-300.4782461048544,53.047582254955955 M-263.87330343382655,33.98856900604898 L-267.2858958747902,32.2196488117512 M-303.88906847357043,51.1929388922718 L-267.2858958747902,32.2196488117512 M-300.4782461048544,53.047582254955955 L-303.88906847357043,51.1929388922718 M-300.4782461048544,53.047582254955955 L-300.65321116413963,43.36586089382962 M-300.65321116413963,43.36586089382962 L-297.07202856126924,41.52363442979856 M-297.07202856126924,41.52363442979856 L-297.2295071696742,31.752086941169978 M-297.2295071696742,31.752086941169978 L-245.9907677284998,5.717459586416339 M-245.9907677284998,5.717459586416339 L-246.03329774641293,6.5527544013405645 M-246.03329774641293,6.5527544013405645 L-246.14189668100084,7.412655041198718 M-246.14189668100084,7.412655041198718 L-246.31539112848418,8.288438160613225 M-246.31539112848418,8.288438160613225 L-246.55196656420264,9.171230587333014 M-246.55196656420264,9.171230587333014 L-246.84918327296043,10.052090072930184 M-246.84918327296043,10.052090072930184 L-247.20400081339722,10.922123357132591 M-247.20400081339722,10.922123357132591 L-247.61281265517005,11.772549490948393 M-247.61281265517005,11.772549490948393 L-248.0714798982276,12.59478969677042 M-248.0714798982276,12.59478969677042 L-248.57536768190835,13.380539273521265 M-248.57536768190835,13.380539273521265 L-249.1193955315523,14.121860843507193 M-249.1193955315523,14.121860843507193 L-249.69807988283083,14.811248142602778 M-249.69807988283083,14.811248142602778 L-250.30559092592614,15.441711772836754 M-250.30559092592614,15.441711772836754 L-250.9358047128203,16.006830762885272 M-250.9358047128203,16.006830762885272 L-251.58236076093658,16.50083507049061 M-251.58236076093658,16.50083507049061 L-252.23872469896355,16.918639050545835 M-252.23872469896355,16.918639050545835 L-252.89825034980993,17.255922671339647 M-252.89825034980993,17.255922671339647 L-253.5542419647361,17.509161021583395 M-253.5542419647361,17.509161021583395 L-254.20002190937817,17.67563783011508 M-254.20002190937817,17.67563783011508 L-254.8289945912103,17.75354462192928 M-254.8289945912103,17.75354462192928 L-254.83912492908735,17.782039939365347 M-254.83912492908735,17.782039939365347 L-254.85347884344128,17.809095907166068 M-254.85347884344128,17.809095907166068 L-254.8712223830687,17.833138386324777 M-254.8712223830687,17.833138386324777 L-254.89132416747384,17.852765094619485 M-254.89132416747384,17.852765094619485 L-254.91261605071895,17.866836682569556 M-254.91261605071895,17.866836682569556 L-254.93386169338874,17.874538588804683 M-254.93386169338874,17.874538588804683 L-254.95382564994316,17.875416545123244 M-254.95382564994316,17.875416545123244 L-254.97134872218942,17.869435331558464 M-254.97134872218942,17.869435331558464 L-254.98541175613423,17.856918291083787 M-254.98541175613423,17.856918291083787 L-254.9951969279175,17.83861220448091 M-254.9951969279175,17.83861220448091 L-255.00013571379668,17.81557197426372 M-255.00013571379668,17.81557197426372 L-254.99994062884934,17.78914359383782 M-254.99994062884934,17.78914359383782 L-254.994623507313,17.760853490783177 M-254.994623507313,17.760853490783177 L-255.62692148905398,17.839324447718695 M-255.62692148905398,17.839324447718695 L-256.2774723552011,18.00741882529144 M-256.2774723552011,18.00741882529144 L-256.93949005045374,18.26351462767917 M-256.93949005045374,18.26351462767917 L-257.60604906835545,18.605044314685983 M-257.60604906835545,18.605044314685983 L-258.2701549351473,19.028537564152828 M-258.2701549351473,19.028537564152828 L-258.92482277577255,19.529635785273797 M-258.92482277577255,19.529635785273797 L-259.5631532986481,20.103146644784317 M-259.5631532986481,20.103146644784317 L-260.1784084487267,20.743099888988127 M-260.1784084487267,20.743099888988127 L-260.7640874176942,21.44277818494112 M-260.7640874176942,21.44277818494112 L-261.31399928501855,22.19484821382116 M-261.31399928501855,22.19484821382116 L-261.8223311942987,22.991384128744073 M-261.8223311942987,22.991384128744073 L-262.28371478320753,23.823992007775246 M-262.28371478320753,23.823992007775246 L-262.69328478457896,24.683891585151912 M-262.69328478457896,24.683891585151912 L-263.04673416248477,25.561990770244734 M-263.04673416248477,25.561990770244734 L-263.34036053650743,26.449043472615642 M-263.34036053650743,26.449043472615642 L-263.57110658015927,27.33568475484077 M-263.57110658015927,27.33568475484077 L-263.7365922506067,28.21258229143814 M-263.7365922506067,28.21258229143814 L-263.8351389779541,29.07053019075431 M-263.8351389779541,29.07053019075431 L-263.8657854312578,29.90052481375068 M-263.8657854312578,29.90052481375068 L-263.87330343382655,33.98856900604898 M-263.8657854312578,29.90052481375068 L-267.285895481921,28.13683169112386 M-267.285895481921,28.13683169112386 L-267.2858958747902,32.2196488117512 M-267.285895481921,28.13683169112386 L-267.25674744394837,27.30795103218486 M-267.25674744394837,27.30795103218486 L-267.1596856733886,26.45126594389143 M-267.1596856733886,26.45126594389143 L-266.9956559817889,25.57576670258652 M-266.9956559817889,25.57576670258652 L-266.76632167889534,24.69064433152738 M-266.76632167889534,24.69064433152738 L-266.47404792667885,23.8052149203304 M-266.47404792667885,23.8052149203304 L-266.1218776981742,22.928825980600607 M-266.1218776981742,22.928825980600607 L-265.7134997974599,22.070705253817266 M-265.7134997974599,22.070705253817266 L-265.2532084919511,21.239925689546396 M-265.2532084919511,21.239925689546396 L-264.74585734187383,20.445247919543135 M-264.74585734187383,20.445247919543135 L-264.1968041586583,19.695045943790433 M-264.1968041586583,19.695045943790433 L-263.6118525103004,18.997225617425045 M-263.6118525103004,18.997225617425045 L-262.9971854706946,18.359100481459166 M-262.9971854706946,18.359100481459166 L-262.3592974354726,17.78736845765684 M-262.3592974354726,17.78736845765684 L-261.70492166771214,17.287981050838994 M-261.70492166771214,17.287981050838994 L-261.0409542858372,16.866112675043382 M-261.0409542858372,16.866112675043382 L-260.3743786540016,16.526105026466496 M-260.3743786540016,16.526105026466496 L-259.71218943642884,16.271412746990677 M-259.71218943642884,16.271412746990677 L-259.0613139918489,16.104589049075685 M-259.0613139918489,16.104589049075685 L-258.42854190759294,16.027243111496716 M-258.42854190759294,16.027243111496716 L-258.4338118694109,16.055488079745828 M-258.4338118694109,16.055488079745828 L-258.4339582177324,16.081882022745788 M-258.4339582177324,16.081882022745788 L-258.42897193218187,16.104900503184297 M-258.42897193218187,16.104900503184297 L-258.419143270924,16.123198799858926 M-258.419143270924,16.123198799858926 L-258.4050432677129,16.135722451151253 M-258.4050432677129,16.135722451151253 L-258.38749193071646,16.141724315405327 M-258.38749193071646,16.141724315405327 L-258.36751001213383,16.140879816033078 M-258.36751001213383,16.140879816033078 L-258.34625778232555,16.133222249876667 M-258.34625778232555,16.133222249876667 L-258.3249710583732,16.11920329794833 M-258.3249710583732,16.11920329794833 L-258.3048858853531,16.099634468363774 M-258.3048858853531,16.099634468363774 L-258.28716944675966,16.07565174900691 M-258.28716944675966,16.07565174900691 L-258.2728515395795,16.04865394293779 M-258.2728515395795,16.04865394293779 L-258.26276401935525,16.020211808021088 M-249.43811332382188,4.013924155545169 L-249.4791306106415,4.848064922852529 M-249.4791306106415,4.848064922852529 L-249.58623749394474,5.7066755803911065 M-249.58623749394474,5.7066755803911065 L-249.75827575653625,6.581045744538528 M-249.75827575653625,6.581045744538528 L-249.99344564134003,7.46231636030916 M-249.99344564134003,7.46231636030916 L-250.28932164399885,8.341560336426198 M-250.28932164399885,8.341560336426198 L-250.64287678134133,9.209900434150086 M-250.64287678134133,9.209900434150086 L-251.05051714754222,10.058572470767444 M-251.05051714754222,10.058572470767444 L-251.50811550468916,10.879015027702508 M-251.50811550468916,10.879015027702508 L-252.0110476017394,11.662941222391566 M-252.0110476017394,11.662941222391566 L-252.55424240745356,12.402431771055944 M-252.55424240745356,12.402431771055944 L-253.1322245697795,13.089998643792569 M-253.1322245697795,13.089998643792569 L-253.73917116996597,13.71867062851993 M-253.73917116996597,13.71867062851993 L-254.36896379943346,14.282044751743001 M-254.36896379943346,14.282044751743001 L-255.0152460813622,14.77436858938205 M-255.0152460813622,14.77436858938205 L-255.67148633030695,15.190573594736577 M-255.67148633030695,15.190573594736577 L-256.3310395589841,15.526356110377094 M-256.3310395589841,15.526356110377094 L-256.98720973108357,15.778206733396189 M-256.98720973108357,15.778206733396189 L-257.6333174991545,15.943423701547715 M-257.6333174991545,15.943423701547715 L-258.26276401935525,16.020211808021088 M-249.43811332382188,4.013924155545169 L-300.67594051913636,29.931049457020606 M-300.5007376319511,39.68982648075047 L-300.67594051913636,29.931049457020606 M-300.5007376319511,39.68982648075047 L-304.08157107087345,41.52363479785322 M-303.88906847357043,51.1929388922718 L-304.08157107087345,41.52363479785322 M-304.08157107087345,41.52363479785322 L-300.65321116413963,43.36586089382962 M-254.994623507313,17.760853490783177 L-258.42854190759294,16.027243111496716 M-254.8289945912103,17.75354462192928 L-258.26276401935525,16.020211808021088 M-245.9907677284998,5.717459586416339 L-249.43811332382188,4.013924155545169 M-297.2295071696742,31.752086941169978 L-300.67594051913636,29.931049457020606 M-297.07202856126924,41.52363442979856 L-300.5007376319511,39.68982648075047" stroke="black"  stroke-width="4"  fill="red"/>
<path d="M-256.51997485730135,28.395600258615843 L-256.49859795355815,24.699756387655157 M-256.49859795355815,24.699756387655157 L-256.460784716284,24.7243161548991 M-256.460784716284,24.7243161548991 L-256.435452842627,24.752769227064846 M-256.435452842627,24.752769227064846 L-256.4240745219033,24.78346212352824 M-256.4240745219033,24.78346212352824 L-256.42731343493006,24.81461188587957 M-256.42731343493006,24.81461188587957 L-256.4449826068252,24.844407678009816 M-256.4449826068252,24.844407678009816 L-256.4760570629061,24.871117838110138 M-256.4760570629061,24.871117838110138 L-256.5187310505228,24.893188932241173 M-256.5187310505228,24.893188932241173 L-256.5705250122048,24.909337648138035 M-256.5705250122048,24.909337648138035 L-256.6284273875158,24.918624388033322 M-256.6284273875158,24.918624388033322 L-256.6890725950682,24.920509198474917 M-256.6890725950682,24.920509198474917 L-256.74893365464845,24.91488221253985 M-256.74893365464845,24.91488221253985 L-256.8045310176635,24.902071189596086 M-256.8045310176635,24.902071189596086 L-256.8526313788527,24.88282073156779 M-256.8526313788527,24.88282073156779 L-256.8904398227671,24.858251143100972 M-256.8904398227671,24.858251143100972 L-256.9157586206983,24.829790432245318 M-256.9157586206983,24.829790432245318 L-256.9271184080949,24.799093917002665 M-256.9271184080949,24.799093917002665 L-256.92385974954254,24.76794538473024 M-256.92385974954254,24.76794538473024 L-256.9061741436486,24.73815538972508 M-256.9061741436486,24.73815538972508 L-256.87509032973696,24.71145426583655 M-256.87509032973696,24.71145426583655 L-256.8324162043381,24.689393376826672 M-256.8324162043381,24.689393376826672 L-256.78063135648506,24.673253697202597 M-256.78063135648506,24.673253697202597 L-256.722745258636,24.6639727544553 M-256.722745258636,24.6639727544553 L-256.662119763394,24.662089174121206 M-256.662119763394,24.662089174121206 L-256.60227733485874,24.667712541182027 M-256.60227733485874,24.667712541182027 L-256.54669325383145,24.680515925565658 M-256.54669325383145,24.680515925565658 L-256.49859795355815,24.699756387655157 M-256.51997485730135,28.395600258615843 L-256.56797432991266,28.376307608797674 M-256.56797432991266,28.376307608797674 L-256.62344792167596,28.36346949554388 M-256.62344792167596,28.36346949554388 L-256.68317161847904,28.357830874974013 M-256.68317161847904,28.357830874974013 L-256.74367703159146,28.359719564579734 M-256.74367703159146,28.359719564579734 L-256.8014486705928,28.369025681917776 M-256.8014486705928,28.369025681917776 L-256.8531313275689,28.385209139443702 M-256.8531313275689,28.385209139443702 L-256.8957214673469,28.407329865145698 M-256.8957214673469,28.407329865145698 L-256.9267443809407,28.434103408341173 M-256.9267443809407,28.434103408341173 L-256.9443957155272,28.463974196094227 M-256.9443957155272,28.463974196094227 L-256.947648728124,28.495207200771915 M-256.947648728124,28.495207200771915 L-256.9363122557729,28.525986957784312 M-256.9363122557729,28.525986957784312 L-256.91104438353614,28.55452484317368 M-256.91104438353614,28.55452484317368 L-256.87331152263437,28.579161051647645 M-256.87331152263437,28.579161051647645 L-256.82530700907546,28.59846370482154 M-256.82530700907546,28.59846370482154 L-256.769820188122,28.611309462170652 M-256.769820188122,28.611309462170652 L-256.71007793414606,28.616951704237124 M-256.71007793414606,28.616951704237124 L-256.64955288674764,28.615061783632484 M-256.64955288674764,28.615061783632484 L-256.5917650345856,28.605749864945665 M-256.5917650345856,28.605749864945665 L-256.5400732996286,28.589557364599102 M-256.5400732996286,28.589557364599102 L-256.4974832968153,28.567426426380962 M-256.4974832968153,28.567426426380962 L-256.46646970375605,28.54064384042556 M-256.46646970375605,28.54064384042556 L-256.44883473793834,28.510767251346522 M-256.44883473793834,28.510767251346522 L-256.4456013926457,28.479533015698564 M-256.4456013926457,28.479533015698564 L-256.4569563250318,28.448756880087842 M-256.4569563250318,28.448756880087842 L-256.48223722142063,28.42022663892368 M-256.48223722142063,28.42022663892368 L-256.51997485730135,28.395600258615843 M-256.23318109275556,24.56251408222687 L-256.13864044191473,24.623895411655667 M-256.13864044191473,24.623895411655667 L-256.07528566442477,24.695013382075047 M-256.07528566442477,24.695013382075047 L-256.0468053717659,24.771739057474406 M-256.0468053717659,24.771739057474406 L-256.054865548355,24.849615464537294 M-256.054865548355,24.849615464537294 L-256.09900781973556,24.92411607936657 M-256.09900781973556,24.92411607936657 L-256.1766756400524,24.990908124521184 M-256.1766756400524,24.990908124521184 L-256.28336034316203,25.04610500613029 M-256.28336034316203,25.04610500613029 L-256.4128617495296,25.08649335825237 M-256.4128617495296,25.08649335825237 L-256.5576487318249,25.10972117390105 M-256.5576487318249,25.10972117390105 L-256.70929813763087,25.114435464748908 M-256.70929813763087,25.114435464748908 L-256.858986162183,25.10036133984113 M-256.858986162183,25.10036133984113 L-256.99800372200264,25.06831914323226 M-256.99800372200264,25.06831914323226 L-257.11826471902555,25.02017497460156 M-257.11826471902555,25.02017497460156 L-257.2127763088605,24.958731803776004 M-257.2127763088605,24.958731803776004 L-257.2760495350167,24.887566004618975 M-257.2760495350167,24.887566004618975 L-257.3044138229541,24.810817799199697 M-257.3044138229541,24.810817799199697 L-257.2962303229788,24.73294903654687 M-257.2962303229788,24.73294903654687 L-257.25198533887885,24.658484653961352 M-257.25198533887885,24.658484653961352 L-257.1742590322965,24.591749084943558 M-257.1742590322965,24.591749084943558 L-257.0675734680392,24.536615985362687 M-257.0675734680392,24.536615985362687 L-256.9381290229278,24.49628410937555 M-256.9381290229278,24.49628410937555 L-256.79344377499683,24.473092526011158 M-256.79344377499683,24.473092526011158 L-256.641917485,24.468385966869675 M-256.641917485,24.468385966869675 L-256.49234607591393,24.482437386813217 M-256.49234607591393,24.482437386813217 L-256.35341135656495,24.51443192923483 M-256.35341135656495,24.51443192923483 L-256.23318109275556,24.56251408222687 M-256.2306065885805,24.12806562919286 L-256.13604371387555,24.189427306917082 M-256.13604371387555,24.189427306917082 L-256.07267394184123,24.26052251116431 M-256.07267394184123,24.26052251116431 L-256.0441867585488,24.337223628623747 M-256.0441867585488,24.337223628623747 L-256.05224855369295,24.41507511299494 M-256.05224855369295,24.41507511299494 L-256.096400863556,24.489551888847814 M-256.096400863556,24.489551888847814 L-256.174086563002,24.55632256443903 M-256.174086563002,24.55632256443903 L-256.28079594919154,24.611501788257215 M-256.28079594919154,24.611501788257215 L-256.41032740812386,24.65187722106384 M-256.41032740812386,24.65187722106384 L-256.5551480636441,24.67509760710044 M-256.5551480636441,24.67509760710044 L-256.70683280233266,24.679810390081855 M-256.70683280233266,24.679810390081855 L-256.8565557611063,24.665740766823717 M-256.8565557611063,24.665740766823717 L-256.9956058216312,24.633708819442177 M-256.9956058216312,24.633708819442177 L-257.1158949937453,24.585580051665602 M-257.1158949937453,24.585580051665602 L-257.21042879413517,24.524156537911892 M-257.21042879413517,24.524156537911892 L-257.27371697694025,24.453013509114328 M-257.27371697694025,24.453013509114328 L-257.30208810155887,24.376289863577426 M-257.30208810155887,24.376289863577426 L-257.2939029255107,24.29844602296049 M-257.2939029255107,24.29844602296049 L-257.2496478549458,24.224005476194748 M-257.2496478549458,24.224005476194748 L-257.17190364179953,24.157291271820156 M-257.17190364179953,24.157291271820156 L-257.0651933938602,24.10217582447342 M-257.0651933938602,24.10217582447342 L-256.9357189225527,24.061856862881314 M-256.9357189225527,24.061856862881314 L-256.7910000486952,24.038672705972488 M-256.7910000486952,24.038672705972488 L-256.63943848318854,24.03396765401368 M-256.63943848318854,24.03396765401368 L-256.4898321942603,24.04801457430608 M-256.4898321942603,24.04801457430608 L-256.3508650130027,24.07999887163163 M-256.3508650130027,24.07999887163163 L-256.2306065885805,24.12806562919286 M-256.2306065885805,24.12806562919286 L-256.23318109275556,24.56251408222687" stroke="black"  stroke-width="4"  fill="red"/>
<path d="M-300.5007376319511,39.68982648075047 L-304.08157107087345,41.52363479785322 M-304.08157107087345,41.52363479785322 L-304.27610919412996,31.752087306665942 M-300.67594051913636,29.931049457020606 L-304.27610919412996,31.752087306665942 M-300.5007376319511,39.68982648075047 L-300.67594051913636,29.931049457020606 M-300.4782461048544,53.047582254955955 L-228.09324324142608,92.4071121882219 M-228.09324324142608,92.4071121882219 L-227.9992058596481,88.09467377973056 M-227.9992058596481,88.09467377973056 L-145.554293143299,132.6951259484503 M-145.8609363103801,137.1211388249368 L-145.554293143299,132.6951259484503 M-145.8609363103801,137.1211388249368 L298.7526156384031,378.88089173509957 M298.7526156384031,378.88089173509957 L300.5680506182815,374.0351625713507 M300.5680506182815,374.0351625713507 L450.53458960920784,455.1629754199764 M448.07625704453176,460.0760026168073 L450.53458960920784,455.1629754199764 M448.07625704453176,460.0760026168073 L1053.388739875152,789.2162090750786 M1053.388739875152,789.2162090750786 L1066.7087459804477,778.1165722031684 M1066.7087459804477,778.1165722031684 L1079.3438962591226,784.9060587807704 M1079.3438962591226,784.9060587807704 L1093.1251971306413,773.5992577420985 M-304.27610919412996,31.752087306665942 L1093.1251971306413,773.5992577420985 M-304.08157107087345,41.52363479785322 L-300.65321116413963,43.36586089382962 M-300.4782461048544,53.047582254955955 L-300.65321116413963,43.36586089382962 M1080.1512210968272,778.1165884463354 L1067.5677870973693,771.3864749199814 M1054.2969022722493,782.5049714107794 L1067.5677870973693,771.3864749199814 M1054.2969022722493,782.5049714107794 L450.85821978400077,455.9081010727044 M450.85821978400077,455.9081010727044 L453.3176606836614,450.99762573376415 M453.3176606836614,450.99762573376415 L303.6455216820417,370.40613122922207 M301.8260648235745,375.24798298230974 L303.6455216820417,370.40613122922207 M301.8260648235745,375.24798298230974 L-142.32047697526627,134.86420459268822 M-142.32047697526627,134.86420459268822 L-142.0056878043871,130.44365564865086 M-142.0056878043871,130.44365564865086 L-224.42991195508102,86.06203959110331 M-224.53224787665295,90.36903406330043 L-224.42991195508102,86.06203959110331 M-224.53224787665295,90.36903406330043 L-296.916197711098,51.192938521731776 M-296.916197711098,51.192938521731776 L-297.07202856126924,41.52363442979856 M-297.07202856126924,41.52363442979856 L-300.5007376319511,39.68982648075047 M1093.8796084340718,766.7907739511874 L-300.67594051913636,29.931049457020606 M1080.1512210968272,778.1165884463354 L1093.8796084340718,766.7907739511874 M-300.4782461048544,53.047582254955955 L-296.916197711098,51.192938521731776 M-300.65321116413963,43.36586089382962 L-297.07202856126924,41.52363442979856 M-224.53224787665295,90.36903406330043 L-228.09324324142608,92.4071121882219 M-224.42991195508102,86.06203959110331 L-227.9992058596481,88.09467377973056 M-145.8609363103801,137.1211388249368 L-142.32047697526627,134.86420459268822 M-145.554293143299,132.6951259484503 L-142.0056878043871,130.44365564865086 M301.8260648235745,375.24798298230974 L298.7526156384031,378.88089173509957 M303.6455216820417,370.40613122922207 L300.5680506182815,374.0351625713507 M448.07625704453176,460.0760026168073 L450.85821978400077,455.9081010727044 M450.53458960920784,455.1629754199764 L453.3176606836614,450.99762573376415 M1054.2969022722493,782.5049714107794 L1053.388739875152,789.2162090750786 M1067.5677870973693,771.3864749199814 L1066.7087459804477,778.1165722031684 M1079.3438962591226,784.9060587807704 L1080.1512210968272,778.1165884463354 M1093.1251971306413,773.5992577420985 L1093.8796084340718,766.7907739511874" stroke="black"  stroke-width="4"  fill="red"/></svg>