<svg viewBox="0 0 800 800" xmlns="http://www.w3.org/2000/svg"><path d="M644.4547298302477,259.04215599230247 L644.4500689808519,259.0393594633333 M155.5499308119779,541.3114733135999 L155.54527016975044,541.3086706248787 M644.4547298302477,259.04215599230247 L636.2546481073095,197.5633152659084 M636.2546481073095,197.5633152659084 L614.3329577079066,147.83279576801306 M614.3329577079066,147.83279576801306 L579.9559296629122,112.74462624101307 M579.9559296629122,112.74462624101307 L535.1140840267744,94.34565241227483 M535.1140840267744,94.34565241227483 L482.40891021107745,93.7152723830186 M482.40891021107745,93.7152723830186 L424.9021347259386,110.89871383290574 M424.9021347259386,110.89871383290574 L365.93830820206676,144.90501955315904 M365.93830820206676,144.90501955315904 L308.94987568187025,193.760829094168 M308.94987568187025,193.760829094168 L257.25626987054784,254.6244520356404 M257.25626987054784,254.6244520356404 L213.8693600095885,323.95355674647 M213.8693600095885,323.95355674647 L181.31679124759648,397.7094337284343 M181.31679124759648,397.7094337284343 L161.49315295590168,471.59622011544616 M161.49315295590168,471.59622011544616 L155.5499308119779,541.3114733135999 M644.4500689808519,259.0393594633333 L636.2499866595881,197.5605189948119 M636.2499866595881,197.5605189948119 L614.3282957023566,147.82999956133335 M614.3282957023566,147.82999956133335 L579.9512671725352,112.74182990140889 M579.9512671725352,112.74182990140889 L535.1094211528589,94.34285574993737 M535.1094211528589,94.34285574993737 L482.40424707731563,93.71247522669455 M482.40424707731563,93.71247522669455 L424.89747147122034,110.89591603988356 M424.89747147122034,110.89591603988356 L365.93364497236144,144.90222101763538 M365.93364497236144,144.90222101763538 L308.94521262168564,193.7580297534996 M308.94521262168564,193.7580297534996 L257.2516071144764,254.6216518740739 M257.2516071144764,254.6216518740739 L213.86469767444942,323.95075579612967 M213.86469767444942,323.95075579612967 L181.31212942562706,397.7066320674885 M181.31212942562706,397.7066320674885 L161.48849170940775,471.5934178635471 M161.48849170940775,471.5934178635471 L155.54527016975044,541.3086706248787 M155.5499308119779,541.3114733135999 L163.82881675777026,602.798130735785 M163.82881675777026,602.798130735785 L185.84146347648675,652.4823588192603 M185.84146347648675,652.4823588192603 L220.300763156225,687.4807337331758 M220.300763156225,687.4807337331758 L265.1973487938212,705.7669799212299 M265.1973487938212,705.7669799212299 L317.91719023550104,706.2875247733064 M317.91719023550104,706.2875247733064 L375.39520104688563,689.0223011503331 M375.39520104688563,689.0223011503331 L434.29341995044706,654.9810027976755 M434.29341995044706,654.9810027976755 L491.1944320435023,606.1450067017486 M491.1944320435023,606.1450067017486 L542.7988313926144,545.3514628085304 M542.7988313926144,545.3514628085304 L586.1151852289277,476.1266501592845 M586.1151852289277,476.1266501592845 L618.6320119568527,402.4853849591382 M618.6320119568527,402.4853849591382 L638.4629096842227,328.69727449623497 M638.4629096842227,328.69727449623497 L644.4547298302477,259.04215599230247 M155.54527016975044,541.3086706248787 L163.82415671346098,602.795327789805 M163.82415671346098,602.795327789805 L185.83680398902834,652.4795558104806 M185.83680398902834,652.4795558104806 L220.29610415227762,687.4779308595698 M220.29610415227762,687.4779308595698 L265.19269017205806,705.76417737272 M265.19269017205806,705.76417737272 L317.91253187249094,706.2847227207194 M317.91253187249094,706.2847227207194 L375.39054280426717,689.0194997355111 M375.39054280426717,689.0194997355111 L434.28876168289753,654.9782021253059 M434.28876168289753,654.9782021253059 L491.18977360714325,606.1422068333741 M491.18977360714325,606.1422068333741 L542.7941726533254,545.348663759064 M542.7941726533254,545.348663759064 L586.1105260700833,476.1238518962209 M586.1105260700833,476.1238518962209 L618.6273522860965,402.48258740446545 M618.6273522860965,402.48258740446545 L638.4582494388424,328.69447753096847 M638.4582494388424,328.69447753096847 L644.4500689808519,259.0393594633333" stroke="black"  stroke-width="4"  fill="red"/></svg>