<svg viewBox="0 0 800 800" xmlns="http://www.w3.org/2000/svg"><path d="M683.0149145049055,587.2027358326521 L683.0149222429949,587.2024045942693 M683.0120845866458,587.2044590381136 L683.0120923247038,587.2041277997126 M683.0149145049055,587.2027358326521 L683.0120845866458,587.2044590381136 M683.0149222429949,587.2024045942693 L683.0120923247038,587.2041277997126 M654.6834203342197,604.4544657426226 L654.6834277576039,604.4541343229824 M683.0120845866458,587.2044590381136 L654.6834203342197,604.4544657426226 M683.0120923247038,587.2041277997126 L654.6834277576039,604.4541343229824 M-23.705581630222355,211.91416833760894 L-23.705581945549397,211.91384115347654 M654.6834203342197,604.4544657426226 L-23.705581630222355,211.91416833760894 M654.6834277576039,604.4541343229824 L-23.705581945549397,211.91384115347654 M4.645157862359156,195.545861259842 L4.645157862390647,195.54553425737748 M-23.705581630222355,211.91416833760894 L4.645157862359156,195.545861259842 M-23.705581945549397,211.91384115347654 L4.645157862390647,195.54553425737748 M56.72901672771832,225.61648451383053 L56.72901730764187,225.61615717793063 M4.645157862359156,195.545861259842 L56.72901672771832,225.61648451383053 M4.645157862390647,195.54553425737748 L56.72901730764187,225.61615717793063 M58.7049201106185,226.7605495708671 L58.704920712588205,226.7602222223083 M56.72901672771832,225.61648451383053 L57.3869878084962,225.9981846490112 M57.3869878084962,225.9981846490112 L58.045622268328316,226.37953968654404 M58.045622268328316,226.37953968654404 L58.7049201106185,226.7605495708671 M56.72901730764187,225.61615717793063 L57.38698839576074,225.99785730888766 M57.38698839576074,225.99785730888766 L58.04562286294157,226.37921234220084 M58.04562286294157,226.37921234220084 L58.704920712588205,226.7602222223083 M435.7461967926672,362.4976062141902 L435.7462016370555,362.4972773777521 M58.7049201106185,226.7605495708671 L85.40674900891014,241.6025665814509 M85.40674900891014,241.6025665814509 L113.11510080184746,255.87572781944687 M113.11510080184746,255.87572781944687 L141.78935741039606,269.5559560480554 M141.78935741039606,269.5559560480554 L171.38697088502772,282.6200211392549 M171.38697088502772,282.6200211392549 L201.86362912575214,295.0456502445386 M201.86362912575214,295.0456502445386 L233.17330064266832,306.81157181623473 M233.17330064266832,306.81157181623473 L265.2682075929388,317.89750098148966 M265.2682075929388,317.89750098148966 L298.0991022613823,328.2843062041867 M298.0991022613823,328.2843062041867 L331.6151774206969,337.95394517025375 M331.6151774206969,337.95394517025375 L365.76422083304715,346.88956522581714 M365.76422083304715,346.88956522581714 L400.4928091333784,355.07558251249145 M400.4928091333784,355.07558251249145 L435.7461967926672,362.4976062141902 M58.704920712588205,226.7602222223083 L85.40674990910117,241.60223906884676 M85.40674990910117,241.60223906884676 L113.1151020120418,255.8754001493985 M113.1151020120418,255.8754001493985 L141.78935894191602,269.55562822739216 M141.78935894191602,269.55562822739216 L171.386972748709,282.61969317502445 M171.386972748709,282.61969317502445 L201.86363133191696,295.04532214399603 M201.86363133191696,295.04532214399603 L233.17330320110102,306.8112435868321 M233.17330320110102,306.8112435868321 L265.2682105128596,317.8971726308657 M265.2682105128596,317.8971726308657 L298.0991055514255,328.2839777401542 M298.0991055514255,328.2839777401542 L331.6151810888874,337.9536166007898 M331.6151810888874,337.9536166007898 L365.7642248867801,346.88923655905046 M365.7642248867801,346.88923655905046 L400.4928135793999,355.0752537566906 M400.4928135793999,355.0752537566906 L435.7462016370555,362.4972773777521 M439.0821842273821,362.04236023444196 L439.08218910910796,362.0420314029476 M435.7461967926672,362.4976062141902 L435.933476126795,362.2570841798465 M435.933476126795,362.2570841798465 L436.20880538189124,362.04800247568573 M436.20880538189124,362.04800247568573 L436.5582207102883,361.8809091067536 M436.5582207102883,361.8809091067536 L436.96409007118086,361.76427544493026 M436.96409007118086,361.76427544493026 L437.4059069935772,361.7039994359965 M437.4059069935772,361.7039994359965 L437.8612806065662,361.7031032251448 M437.8612806065662,361.7031032251448 L438.30721562298936,361.7616473892783 M438.30721562298936,361.7616473892783 L438.7211636763742,361.87667672308794 M438.7211636763742,361.87667672308794 L439.0821842273821,362.04236023444196 M435.7462016370555,362.4972773777521 L435.9334809732094,362.2567553460202 M435.9334809732094,362.2567553460202 L436.2088102313314,362.0476736441301 M436.2088102313314,362.0476736441301 L436.55822556360033,361.88058027701254 M436.55822556360033,361.88058027701254 L436.96409492901535,361.7639466164559 M436.96409492901535,361.7639466164559 L437.4059118563566,361.7036706081766 M437.4059118563566,361.7036706081766 L437.8612854744621,361.7027743973348 M437.8612854744621,361.7027743973348 L438.3072204959153,361.76131856083236 M438.3072204959153,361.76131856083236 L438.7211685539893,361.8763478933929 M438.7211685539893,361.8763478933929 L439.08218910910796,362.0420314029476 M439.60296289984353,363.25944831992933 L439.60296778782117,363.259119475219 M439.0821842273821,362.04236023444196 L439.36906721865523,362.24765253941393 M439.36906721865523,362.24765253941393 L439.572277983077,362.4840978349446 M439.572277983077,362.4840978349446 L439.6817923755383,362.7400243887172 M439.6817923755383,362.7400243887172 L439.69220008432296,363.0028084987798 M439.69220008432296,363.0028084987798 L439.60296289984353,363.25944831992933 M439.08218910910796,362.0420314029476 L439.36907210367235,362.2473237056902 M439.36907210367235,362.2473237056902 L439.5722828704554,362.4837689986532 M439.5722828704554,362.4837689986532 L439.68179726423125,362.73969554964674 M439.68179726423125,362.73969554964674 L439.6922049732191,363.00247965685594 M439.6922049732191,363.00247965685594 L439.60296778782117,363.259119475219 M823.7055726556072,501.5328018486115 L823.7055819455494,501.53247151698804 M439.60296289984353,363.25944831992933 L474.89530414120566,370.68965611508224 M474.89530414120566,370.68965611508224 L509.7396642336304,378.9018864614404 M509.7396642336304,378.9018864614404 L544.0903458122324,387.8868703721548 M544.0903458122324,387.8868703721548 L577.9018948451342,397.634322795907 M577.9018948451342,397.634322795907 L611.1293435326677,408.13307480337926 M611.1293435326677,408.13307480337926 L643.7283230445829,419.3711284185174 M643.7283230445829,419.3711284185174 L675.6547984752725,431.3354114499373 M675.6547984752725,431.3354114499373 L706.8655099385034,444.01210930667287 M706.8655099385034,444.01210930667287 L737.3176538176482,457.386346596414 M737.3176538176482,457.386346596414 L766.9691287651343,471.44242762567717 M766.9691287651343,471.44242762567717 L795.7786278367395,486.1637479672768 M795.7786278367395,486.1637479672768 L823.7055726556072,501.5328018486115 M439.60296778782117,363.259119475219 L474.89530942842805,370.68932718973747 M474.89530942842805,370.68932718973747 L509.73966991575253,378.9015574470717 M509.73966991575253,378.9015574470717 L544.0903518844442,387.8865412605019 M544.0903518844442,387.8865412605019 L577.9019013021597,397.633993578852 M577.9019013021597,397.633993578852 L611.1293503687649,408.1327454729586 M611.1293503687649,408.1327454729586 L643.7283302535471,419.3707989669326 M643.7283302535471,419.3707989669326 L675.6548060504327,431.33508186956817 M675.6548060504327,431.33508186956817 L706.865517872728,444.01177959008703 M706.865517872728,444.01177959008703 L737.3176621033423,457.3860167363787 M737.3176621033423,457.3860167363787 L766.9691373942425,471.4420976151705 M766.9691373942425,471.4420976151705 L795.778636800749,486.1634177994971 M795.778636800749,486.1634177994971 L823.7055819455494,501.53247151698804 M823.7055726556072,501.5328018486115 L683.0149145049055,587.2027358326521 M823.7055819455494,501.53247151698804 L683.0149222429949,587.2024045942693" stroke="black"  stroke-width="4"  fill="red"/></svg>