<svg viewBox="0 0 800 800" xmlns="http://www.w3.org/2000/svg"><path d="M166.60934188585486,215.90214942584697 L46.30109655234804,285.3621472548787 M46.301097822142765,272.1660522151969 L46.30109655234804,285.3621472548787 M46.301097822142765,272.1660522151969 L46.300755504291146,272.0466402942895 M46.300755504291146,272.0466402942895 L46.300550107711786,271.92714381115104 M46.300550107711786,271.92714381115104 L46.30048164043484,271.80756548972676 M166.8589765854988,202.4983699492642 L46.30048164043484,271.80756548972676 M166.60934188585486,215.90214942584697 L166.8589765854988,202.4983699492642 M738.0770333555059,684.7590818322091 L723.2866396140274,676.219845921754 M611.1524415092981,759.0073009410538 L723.2866396140274,676.219845921754 M611.1524415092981,759.0073009410538 L400.1017829856744,632.052138367515 M387.9182329545905,640.3820835005657 L400.1017829856744,632.052138367515 M318.95989353613504,598.7171948453292 L387.9182329545905,640.3820835005657 M331.16069453846706,590.5813978683461 L318.95989353613504,598.7171948453292 M331.16069453846706,590.5813978683461 L58.53230197849922,426.5848382663345 M46.30048164043484,433.9753502295607 L58.53230197849922,426.5848382663345 M-14.914307783912932,396.989143674584 L46.30048164043484,433.9753502295607 M-2.683684992081055,389.7610461383429 L-14.914307783912932,396.989143674584 M-2.683684992081055,389.7610461383429 L-55.516358443263414,357.98014247232214 M58.040016151832674,292.1396141395327 L-55.516358443263414,357.98014247232214 M58.040016151832674,292.1396141395327 L46.30109655234804,285.3621472548787 M856.1845164632624,597.0870126193305 L166.60934188585486,215.90214942584697 M738.0770333555059,684.7590818322091 L856.1845164632624,597.0870126193305 M113.57980536732782,253.21384136511955 L113.4148864438925,253.14069306568575 M113.4148864438925,253.14069306568575 L113.22461134452288,253.0920162250677 M113.22461134452288,253.0920162250677 L113.02003864618513,253.0706355431327 M113.02003864618513,253.0706355431327 L112.81304224088029,253.0777980145009 M112.81304224088029,253.0777980145009 L112.61565839620619,253.11308167990717 M112.61565839620619,253.11308167990717 L112.43934410627764,253.17444262858078 M112.43934410627764,253.17444262858078 L112.29434831745789,253.25831501376098 M112.29434831745789,253.25831501376098 L112.18909606669575,253.35982856718704 M112.18909606669575,253.35982856718704 L112.12971123168285,253.47308375277782 M112.12971123168285,253.47308375277782 L112.11964118696858,253.59150601197973 M112.11964118696858,253.59150601197973 L112.15948711254953,253.70820662171104 M112.15948711254953,253.70820662171104 L112.24692883918146,253.81640803117642 M112.24692883918146,253.81640803117642 L112.37689139323516,253.90981722070921 M112.37689139323516,253.90981722070921 L112.54182699684469,253.98300143124862 M112.54182699684469,253.98300143124862 L112.73214518626241,254.03170570030812 M112.73214518626241,254.03170570030812 L112.93677809951606,254.05309937767663 M112.93677809951606,254.05309937767663 L113.1438380532826,254.04593248842878 M113.1438380532826,254.04593248842878 L113.34127421848888,254.01062800745012 M113.34127421848888,254.01062800745012 L113.51761761717393,253.9492346113504 M113.51761761717393,253.9492346113504 L113.6626126335961,253.86532558164612 M113.6626126335961,253.86532558164612 L113.76783440774557,253.76377958101227 M113.76783440774557,253.76377958101227 L113.82716604470932,253.6505035792672 M113.82716604470932,253.6505035792672 L113.83717235473858,253.53207690295204 M113.83717235473858,253.53207690295204 L113.79726676205178,253.41538928727903 M113.79726676205178,253.41538928727903 L113.70978310165793,253.30721530662146 M113.70978310165793,253.30721530662146 L113.57980536732782,253.21384136511955 M791.067195950266,635.7749961065591 L790.8647655013873,635.6830821081638 M790.8647655013873,635.6830821081638 L790.6397950881343,635.6219210339942 M790.6397950881343,635.6219210339942 L790.4053753222896,635.5950713919754 M790.4053753222896,635.5950713919754 L790.1750719731177,635.6040756980944 M790.1750719731177,635.6040756980944 L789.9622639032942,635.6483975604006 M789.9622639032942,635.6483975604006 L789.7793660210583,635.7255049007191 M789.7793660210583,635.7255049007191 L789.6369663052186,635.8308925802071 M789.6369663052186,635.8308925802071 L789.5433398071128,635.9584414640024 M789.5433398071128,635.9584414640024 L789.5039797002033,636.1007640290069 M789.5039797002033,636.1007640290069 L789.5211093810686,636.249563468802 M789.5211093810686,636.249563468802 L789.5937610082493,636.3961900364145 M789.5937610082493,636.3961900364145 L789.7177503341023,636.5321513130255 M789.7177503341023,636.5321513130255 L789.8858612827252,636.6495296904582 M789.8858612827252,636.6495296904582 L790.0883215282637,636.7414938050007 M790.0883215282637,636.7414938050007 L790.3133534673071,636.8026935123215 M790.3133534673071,636.8026935123215 L790.5478996457997,636.8295881462876 M790.5478996457997,636.8295881462876 L790.7782816544424,636.8205776142269 M790.7782816544424,636.8205776142269 L790.9911498763323,636.7762264403871 M790.9911498763323,636.7762264403871 L791.1740755979002,636.6990733922304 M791.1740755979002,636.6990733922304 L791.3164644815712,636.5936340970773 M791.3164644815712,636.5936340970773 L791.4100439569537,636.4660395115807 M791.4100439569537,636.4660395115807 L791.449331606619,636.3236876234903 M791.449331606619,636.3236876234903 L791.4321206542053,636.1748819629847 M791.4321206542053,636.1748819629847 L791.359350296619,636.028247009573 M791.359350296619,636.028247009573 L791.2353156604776,635.8923243672601 M791.2353156604776,635.8923243672601 L791.067195950266,635.7749961065591 M58.064309848696155,278.929495432343 L46.301097822142765,272.1660522151969 M58.064309848696155,278.929495432343 L58.040016151832674,292.1396141395327 M58.06435425593446,278.57062725316615 L58.064202520105596,278.69033307466196 M58.064202520105596,278.69033307466196 L58.06418771870079,278.8099567100029 M58.06418771870079,278.8099567100029 L58.064309848696155,278.929495432343 M46.30048164043484,271.80756548972676 L58.06435425593446,278.57062725316615 M724.8981056877395,661.9339969769477 L739.7276514335393,670.4595171930075 M739.7276514335393,670.4595171930075 L858.0703964948042,582.9324391490189 M858.0703964948042,582.9324391490189 L166.8589765854988,202.4983699492642 M58.06435425593446,278.57062725316615 L-55.737246926275304,344.27401232992537 M-55.737246926275304,344.27401232992537 L-2.7909904139159494,375.99094483422215 M-2.7909904139159494,375.99094483422215 L-15.048700186409576,383.2046798939709 M-15.048700186409576,383.2046798939709 L46.30048164043484,420.1184771704877 M46.30048164043484,420.1184771704877 L58.559396881755674,412.7422889545578 M58.559396881755674,412.7422889545578 L331.82278104869124,576.4380227501139 M331.82278104869124,576.4380227501139 L319.5950987040244,584.5598240742262 M319.5950987040244,584.5598240742262 L388.723561276296,626.1544138868899 M388.723561276296,626.1544138868899 L400.9338711977143,617.8383393342193 M400.9338711977143,617.8383393342193 L612.5286226842619,744.5920872520854 M724.8981056877395,661.9339969769477 L612.5286226842619,744.5920872520854 M114.62478462777074,239.20742376392246 L114.95045118309542,239.44028327402475 M114.95045118309542,239.44028327402475 L115.16971264774338,239.71007779417897 M115.16971264774338,239.71007779417897 L115.26980495386931,240.00114288279684 M115.26980495386931,240.00114288279684 L115.24487367203551,240.2965715798835 M115.24487367203551,240.2965715798835 L115.09634198299943,240.57918848718037 M115.09634198299943,240.57918848718037 L114.83280419557906,240.83256313193056 M114.83280419557906,240.83256313193056 L114.4695708166081,241.041946208397 M114.4695708166081,241.041946208397 L114.02773813790219,241.19515708442174 M114.02773813790219,241.19515708442174 L113.5330112164608,241.2832679890406 M113.5330112164608,241.2832679890406 L113.01416065959461,241.30115243789277 M113.01416065959461,241.30115243789277 L112.50138089011074,241.24776382040528 M112.50138089011074,241.24776382040528 L112.02450215974574,241.12621495240433 M112.02450215974574,241.12621495240433 L111.61126137798522,240.94358386676112 M111.61126137798522,240.94358386676112 L111.28568698699132,240.71050233151118 M111.28568698699132,240.71050233151118 L111.06668811182811,240.4405360635172 M111.06668811182811,240.4405360635172 L110.96697088471524,240.14939009809814 M110.96697088471524,240.14939009809814 L110.99230188591673,239.85398883994202 M110.99230188591673,239.85398883994202 L111.1411674693934,239.57150202492784 M111.1411674693934,239.57150202492784 L111.40489654526556,239.3183301602412 M111.40489654526556,239.3183301602412 L111.76813478216326,239.10917609162482 M111.76813478216326,239.10917609162482 L112.20978477552319,238.95616799600515 M112.20978477552319,238.95616799600515 L112.70418332171306,238.86818718215198 M112.70418332171306,238.86818718215198 L113.22263533032697,238.85033050505064 M113.22263533032697,238.85033050505064 L113.73503657543051,238.90363758215267 M113.73503657543051,238.90363758215267 L114.21164544386039,239.0250153644904 M114.21164544386039,239.0250153644904 L114.62478462777074,239.20742376392246 M793.7080006677364,620.900461772815 L794.1294772674379,621.1932115250531 M794.1294772674379,621.1932115250531 L794.4405262737772,621.5323647448422 M794.4405262737772,621.5323647448422 L794.6231664694454,621.8982989879283 M794.6231664694454,621.8982989879283 L794.6666609996026,622.2697153651698 M794.6666609996026,622.2697153651698 L794.5684717519317,622.6250342931207 M794.5684717519317,622.6250342931207 L794.3342427321455,622.9435888486609 M794.3342427321455,622.9435888486609 L793.9775879527689,623.2068418836883 M793.9775879527689,623.2068418836883 L793.5192161944782,623.3994759551249 M793.5192161944782,623.3994759551249 L792.9857768653441,623.5102543918329 M792.9857768653441,623.5102543918329 L792.4083091626004,623.532738255881 M792.4083091626004,623.532738255881 L791.8203971898714,623.4655975196409 M791.8203971898714,623.4655975196409 L791.2563266741473,623.3127920231317 M791.2563266741473,623.3127920231317 L790.7487926846744,623.0831553268522 M790.7487926846744,623.0831553268522 L790.3274183226162,622.7901187759852 M790.3274183226162,622.7901187759852 L790.016606340553,622.4506972822998 M790.016606340553,622.4506972822998 L789.8344623199624,622.0846752095891 M789.8344623199624,622.0846752095891 L789.7914781716039,621.7132977450926 M789.7914781716039,621.7132977450926 L789.890122460274,621.358162202719 M789.890122460274,621.358162202719 L790.1246469263446,621.0398934912141 M790.1246469263446,621.0398934912141 L790.4813698857389,620.7769632731987 M790.4813698857389,620.7769632731987 L790.9395669413287,620.5846150515138 M790.9395669413287,620.5846150515138 L791.4726286900451,620.4740199880279 M791.4726286900451,620.4740199880279 L792.0496024473758,620.4515750342994 M792.0496024473758,620.4515750342994 L792.636969889761,620.5185746490871 M792.636969889761,620.5185746490871 L793.2007013161341,620.6711651639581 M793.2007013161341,620.6711651639581 L793.7080006677364,620.900461772815 M856.1845164632624,597.0870126193305 L858.0703964948042,582.9324391490189 M739.684533677464,670.8377318152142 L724.8560253078257,662.3118483977739 M739.684533677464,670.8377318152142 L738.0770333555059,684.7590818322091 M724.8560253078257,662.3118483977739 L723.2866396140274,676.219845921754 M724.8560253078257,662.3118483977739 L724.8699165847935,662.186002912535 M724.8699165847935,662.186002912535 L724.8839434833875,662.060051481898 M724.8839434833875,662.060051481898 L724.8981056877395,661.9339969769477 M611.1524415092981,759.0073009410538 L612.5286226842619,744.5920872520854 M400.1017829856744,632.052138367515 L400.9338711977143,617.8383393342193 M387.9182329545905,640.3820835005657 L388.723561276296,626.1544138868899 M318.95989353613504,598.7171948453292 L319.5950987040244,584.5598240742262 M331.16069453846706,590.5813978683461 L331.82278104869124,576.4380227501139 M58.53230197849922,426.5848382663345 L58.559396881755674,412.7422889545578 M46.30048164043484,433.9753502295607 L46.30048164043484,420.1184771704877 M-14.914307783912932,396.989143674584 L-15.048700186409576,383.2046798939709 M-2.683684992081055,389.7610461383429 L-2.7909904139159494,375.99094483422215 M-55.516358443263414,357.98014247232214 L-55.737246926275304,344.27401232992537 M739.7276514335393,670.4595171930075 L739.7131435134357,670.5856932565573 M739.7131435134357,670.5856932565573 L739.6987708201622,670.71176575524 M739.6987708201622,670.71176575524 L739.684533677464,670.8377318152142 M113.57980536732782,253.21384136511955 L113.70621694911603,241.14656005164636 M113.70621694911603,241.14656005164636 L113.8364426454599,241.23975253856747 M113.8364426454599,241.23975253856747 L113.92409502970077,241.34771631649545 M113.92409502970077,241.34771631649545 L113.96408029616612,241.46417720137396 M113.96408029616612,241.46417720137396 L113.9540599426129,241.5823737843068 M113.9540599426129,241.5823737843068 L113.89462135991408,241.6954297155712 M113.89462135991408,241.6954297155712 L113.78920592037161,241.79677844748227 M113.78920592037161,241.79677844748227 L113.64394177225671,241.88052448021807 M113.64394177225671,241.88052448021807 L113.46726941308157,241.94179862224337 M113.46726941308157,241.94179862224337 L113.26946359453854,241.9770345277853 M113.26946359453854,241.9770345277853 L113.06201477609306,241.98418749624534 M113.06201477609306,241.98418749624534 L112.85699642862829,241.9628353736053 M112.85699642862829,241.9628353736053 L112.66631863636923,241.9142257089443 M112.66631863636923,241.9142257089443 L112.50107018068513,241.84118365854636 M112.50107018068513,241.84118365854636 L112.37085971921454,241.747955925351 M112.37085971921454,241.747955925351 L112.28324942539001,241.63996472046642 M112.28324942539001,241.63996472046642 L112.24332404996704,241.52349084240655 M112.24332404996704,241.52349084240655 L112.25340837813542,241.4052986762889 M112.25340837813542,241.4052986762889 L112.3129003598292,241.29226355977397 M112.3129003598292,241.29226355977397 L112.41834639192012,241.1909472728807 M112.41834639192012,241.1909472728807 L112.56361131679489,241.10723788219582 M112.56361131679489,241.10723788219582 L112.7402544590035,241.04599618540675 M112.7402544590035,241.04599618540675 L112.93800776102478,241.01078109403227 M112.93800776102478,241.01078109403227 L113.14539279213017,241.00363254315374 M113.14539279213017,241.00363254315374 L113.35035069764842,241.02497167123732 M113.35035069764842,241.02497167123732 L113.54098523667437,241.0735539093082 M113.54098523667437,241.0735539093082 L113.70621694911603,241.14656005164636 M791.067195950266,635.7749961065591 L792.6361477134168,623.0510460690288 M792.6361477134168,623.0510460690288 L792.8046736303539,623.1681995662541 M792.8046736303539,623.1681995662541 L792.9290298681245,623.3039197687015 M792.9290298681245,623.3039197687015 L793.0020185930149,623.4503363521741 M793.0020185930149,623.4503363521741 L793.0193318270473,623.5989204361883 M793.0193318270473,623.5989204361883 L792.9800245534731,623.7410603822547 M792.9800245534731,623.7410603822547 L792.8863045013426,623.8684650177186 M792.8863045013426,623.8684650177186 L792.7436623496284,623.9737473599922 M792.7436623496284,623.9737473599922 L792.5603853789704,624.0507855694466 M792.5603853789704,624.0507855694466 L792.3470882539888,624.0950707318362 M792.3470882539888,624.0950707318362 L792.1162247639292,624.1040678530763 M792.1162247639292,624.1040678530763 L791.8811724208223,624.0772132480098 M791.8811724208223,624.0772132480098 L791.6556391811015,624.0161046310888 M791.6556391811015,624.0161046310888 L791.4527115932239,623.9242774054259 M791.4527115932239,623.9242774054259 L791.2841944525813,623.8070737606629 M791.2841944525813,623.8070737606629 L791.1598836990735,623.6713149001696 M791.1598836990735,623.6713149001696 L791.087014109352,623.5249066515046 M791.087014109352,623.5249066515046 L791.069782492452,623.3763287920243 M791.069782492452,623.3763287920243 L791.1091625419323,623.2342181870684 M791.1091625419323,623.2342181870684 L791.2029298354313,623.106859281398 M791.2029298354313,623.106859281398 L791.3455828879252,623.0016285865165 M791.3455828879252,623.0016285865165 L791.5288319221135,622.9246361129959 M791.5288319221135,622.9246361129959 L791.7420686543088,622.8803802801574 M791.7420686543088,622.8803802801574 L791.9728531558582,622.8713893886858 M791.9728531558582,622.8713893886858 L792.2077786328945,622.8981990302958 M792.2077786328945,622.8981990302958 L792.4332500701413,622.9592689903187 M792.4332500701413,622.9592689903187 L792.6361477134168,623.0510460690288 M114.62478462777074,239.20742376392246 L114.60972846479484,240.62579325017742 M114.60972846479484,240.62579325017742 L114.93532213677798,240.8587063033491 M114.93532213677798,240.8587063033491 L115.15453398074436,241.12856284981433 M115.15453398074436,241.12856284981433 L115.25460282221371,241.41969484346384 M115.25460282221371,241.41969484346384 L115.22967561068685,241.71519143648572 M115.22967561068685,241.71519143648572 L115.08117530360971,241.99787328385537 M115.08117530360971,241.99787328385537 L114.81769440065517,242.25130613984828 M114.81769440065517,242.25130613984828 L114.45454010764638,242.46073731398724 M114.45454010764638,242.46073731398724 L114.0128041233445,242.61398338040328 M114.0128041233445,242.61398338040328 L113.51818587586342,242.70211452137391 M113.51818587586342,242.70211452137391 L112.99944964645186,242.7200030775985 M112.99944964645186,242.7200030775985 L112.48678319715447,242.666602198659 M112.48678319715447,242.666602198659 L112.01001018030365,242.54502541375086 M112.01001018030365,242.54502541375086 L111.59686135158671,242.36235237816794 M111.59686135158671,242.36235237816794 L111.27135980447576,242.12921729784398 M111.27135980447576,242.12921729784398 L111.05241043491782,241.85918900185885 M111.05241043491782,241.85918900185885 L110.95271650763482,241.5679761307244 M110.95271650763482,241.5679761307244 L110.97804326214009,241.2725069768532 M110.97804326214009,241.2725069768532 L111.12687731586965,240.98995522298372 M111.12687731586965,240.98995522298372 L111.39054942200818,240.7367251489518 M111.39054942200818,240.7367251489518 L111.753708569732,240.52752298480573 M111.753708569732,240.52752298480573 L112.19526194826778,240.3744797006923 M112.19526194826778,240.3744797006923 L112.6895519646369,240.2864786517046 M112.6895519646369,240.2864786517046 L113.20788982141119,240.2686178675272 M113.20788982141119,240.2686178675272 L113.72017791343274,240.32193720524538 M113.72017791343274,240.32193720524538 L114.19668118823279,240.44334290296223 M114.19668118823279,240.44334290296223 L114.60972846479484,240.62579325017742 M793.7080006677364,620.900461772815 L793.523341044525,622.3964057340354 M793.523341044525,622.3964057340354 L793.9446981953973,622.6892071573117 M793.9446981953973,622.6892071573117 L794.255652594443,623.0284202234635 M794.255652594443,623.0284202234635 L794.4382285003011,623.394419020585 M794.4382285003011,623.394419020585 L794.4816928358376,623.7659008997914 M794.4816928358376,623.7659008997914 L794.3835092565774,624.1212824727329 M794.3835092565774,624.1212824727329 L794.1493214647436,624.4398931764464 M794.1493214647436,624.4398931764464 L793.7927410839826,624.7031926015253 M793.7927410839826,624.7031926015253 L793.3344725782155,624.8958606125002 M793.3344725782155,624.8958606125002 L792.8011593507337,625.0066585645296 M792.8011593507337,625.0066585645296 L792.2238332529593,625.0291463892457 M792.2238332529593,625.0291463892457 L791.6360701438435,624.9619938255511 M791.6360701438435,624.9619938255511 L791.0721470561544,624.8091614086043 M791.0721470561544,624.8091614086043 L790.5647505068613,624.5794842500395 M790.5647505068613,624.5794842500395 L790.1434955697722,624.2863960550307 M790.1434955697722,624.2863960550307 L789.83277808015,623.9469147273945 M789.83277808015,623.9469147273945 L789.6506981204351,623.5808281134545 M789.6506981204351,623.5808281134545 L789.6077439124239,623.2093851442374 M789.6077439124239,623.2093851442374 L789.7063822982224,622.8541869438864 M789.7063822982224,622.8541869438864 L789.9408653754109,622.5358620639657 M789.9408653754109,622.5358620639657 L790.2975138856513,622.2728854330379 M790.2975138856513,622.2728854330379 L790.755607760147,622.0805032515717 M790.755607760147,622.0805032515717 L791.2885435842537,621.9698886597785 M791.2885435842537,621.9698886597785 L791.8653759787054,621.9474397426266 M791.8653759787054,621.9474397426266 L792.4525948222548,622.0144511882766 M792.4525948222548,622.0144511882766 L793.0161790111011,622.1670686453955 M793.0161790111011,622.1670686453955 L793.523341044525,622.3964057340354" stroke="black"  stroke-width="4"  fill="red"/>
<path d="M738.0770333555059,684.7590818322091 L613.9115145931854,776.9280762798458 M738.0770333555059,684.7590818322091 L723.2866396140274,676.219845921754 M599.0453134425096,767.9458614978075 L723.2866396140274,676.219845921754 M613.9115145931854,776.9280762798458 L599.0453134425096,767.9458614978075 M739.684533677464,670.8377318152142 L738.0770333555059,684.7590818322091 M811.0495635033343,532.3202102115829 L806.8833274462003,536.4919221599781 M806.8833274462003,536.4919221599781 L802.7375576202845,540.9038342333712 M802.7375576202845,540.9038342333712 L798.6252691192677,545.5425388919849 M798.6252691192677,545.5425388919849 L794.559416801132,550.3938333189433 M794.559416801132,550.3938333189433 L790.5528370984149,555.44275993291 M790.5528370984149,555.44275993291 L786.6181960021132,560.6736977746417 M786.6181960021132,560.6736977746417 L782.7679511521618,566.070338040186 M782.7679511521618,566.070338040186 L779.0142968784013,571.6158184811825 M779.0142968784013,571.6158184811825 L775.3691222823733,577.2927533870795 M775.3691222823733,577.2927533870795 L771.8439620925957,583.0832918351913 M771.8439620925957,583.0832918351913 L768.4499590457691,588.9691904926988 M768.4499590457691,588.9691904926988 L765.1978126066027,594.9318923158587 M765.1978126066027,594.9318923158587 L762.0977495310268,600.9525799085654 M762.0977495310268,600.9525799085654 L759.159478226864,607.0122578063086 M759.159478226864,607.0122578063086 L756.3921566552013,613.0918098239705 M756.3921566552013,613.0918098239705 L753.8043596085403,619.172089645823 M753.8043596085403,619.172089645823 L751.4040445167931,625.2339757245437 M751.4040445167931,625.2339757245437 L749.1985300515599,631.2584545506178 M749.1985300515599,631.2584545506178 L747.1944678420365,637.226671904374 M747.1944678420365,637.226671904374 L745.3978228824411,643.1200256068117 M745.3978228824411,643.1200256068117 L743.8138543452702,648.9202205562668 M743.8138543452702,648.9202205562668 L742.4471028138083,654.6093240696576 M742.4471028138083,654.6093240696576 L741.3013760717164,660.1698534234407 M741.3013760717164,660.1698534234407 L740.3797447858957,665.584802544575 M740.3797447858957,665.584802544575 L739.684533677464,670.8377318152142 M811.6556685331583,531.7335988714105 L811.6508411131243,531.8214217054473 M811.6508411131243,531.8214217054473 L811.6286826040663,531.9211707740332 M811.6286826040663,531.9211707740332 L811.590487637308,532.0270666991073 M811.590487637308,532.0270666991073 L811.538467697484,532.1329474091635 M811.538467697484,532.1329474091635 L811.475646242796,532.232675827889 M811.475646242796,532.232675827889 L811.4056814312122,532.320428308467 M811.4056814312122,532.320428308467 L811.3326285490108,532.3911339137361 M811.3326285490108,532.3911339137361 L811.2607363853773,532.4406749420143 M811.2607363853773,532.4406749420143 L811.1941828248679,532.4661743823754 M811.1941828248679,532.4661743823754 L811.1368325038737,532.4661389382017 M811.1368325038737,532.4661389382017 L811.0920263257129,532.4405791391566 M811.0920263257129,532.4405791391566 L811.0623608080094,532.3909759661739 M811.0623608080094,532.3909759661739 L811.0495635033343,532.3202102115829 M883.4075081570346,392.76339204622684 L882.5742577602654,398.2691329652837 M882.5742577602654,398.2691329652837 L881.5249525197113,403.90459263439163 M881.5249525197113,403.90459263439163 L880.2630162711795,409.6537617190892 M880.2630162711795,409.6537617190892 L878.7924355255151,415.5004280231228 M878.7924355255151,415.5004280231228 L877.1176928746639,421.4282110118778 M877.1176928746639,421.4282110118778 L875.2438108254909,427.42057236503126 M875.2438108254909,427.42057236503126 L873.1763040244824,433.4608473761259 M873.1763040244824,433.4608473761259 L870.921165099304,439.532339077247 M870.921165099304,439.532339077247 L868.4848421364253,445.61829893272 M868.4848421364253,445.61829893272 L865.8742375540268,451.7020006308976 M865.8742375540268,451.7020006308976 L863.0967043296874,457.7667185373044 M863.0967043296874,457.7667185373044 L860.1599735502645,463.79586339237176 M860.1599735502645,463.79586339237176 L857.0721994376175,469.7729160451007 M857.0721994376175,469.7729160451007 L853.8418936594682,475.68152701838756 M853.8418936594682,475.68152701838756 L850.4779389775346,481.5055170185427 M850.4779389775346,481.5055170185427 L846.989535920596,487.2289584301558 M846.989535920596,487.2289584301558 L843.3862347602882,492.8361107705589 M843.3862347602882,492.8361107705589 L839.6778472215971,498.3115936771535 M839.6778472215971,498.3115936771535 L835.8744993374888,503.6402987901163 M835.8744993374888,503.6402987901163 L831.9865457004511,508.8074882482688 M831.9865457004511,508.8074882482688 L828.0245867012071,513.7987990181123 M828.0245867012071,513.7987990181123 L823.9994331692527,518.6003077873557 M823.9994331692527,518.6003077873557 L819.9220921827099,523.1985284566998 M819.9220921827099,523.1985284566998 L815.803734623166,527.5804563359054 M815.803734623166,527.5804563359054 L811.6556685331583,531.7335988714105 M646.4809174256005,559.348784545694 L883.4075081570346,392.76339204622684 M636.0688688896003,665.4567109806936 L646.4809174256005,559.348784545694 M623.7830104353341,674.3404822080088 L636.0688688896003,665.4567109806936 M613.9115145931854,776.9280762798458 L623.7830104353341,674.3404822080088 M739.684533677464,670.8377318152142 L724.8560253078257,662.3118483977739 M724.8560253078257,662.3118483977739 L723.2866396140274,676.219845921754 M599.0453134425096,767.9458614978075 L608.6344397868958,665.4567180788345 M620.9273763093099,656.6168769900985 L608.6344397868958,665.4567180788345 M620.9273763093099,656.6168769900985 L631.0465853128254,550.6202518343932 M868.1449811563974,384.85204632561823 L631.0465853128254,550.6202518343932 M868.1449811563974,384.85204632561823 L867.326523660687,390.3512433892496 M867.326523660687,390.3512433892496 L866.2917546712328,395.97947050894186 M866.2917546712328,395.97947050894186 L865.0440572518365,401.720738752776 M865.0440572518365,401.720738752776 L863.5873784357765,407.5588577644213 M863.5873784357765,407.5588577644213 L861.9261625436908,413.47747009617626 M861.9261625436908,413.47747009617626 L860.0653951894141,419.4600619057111 M860.0653951894141,419.4600619057111 L858.0105554589471,425.4899942259117 M858.0105554589471,425.4899942259117 L855.7676020038438,431.5505970118571 M855.7676020038438,431.5505970118571 L853.3429503854705,437.6251498182112 M853.3429503854705,437.6251498182112 L850.7434721703454,443.69695556942884 M850.7434721703454,443.69695556942884 L847.9764910698169,449.749319054534 M847.9764910698169,449.749319054534 L845.0497106834433,455.7656823561664 M845.0497106834433,455.7656823561664 L841.9712594408694,461.72955879966344 M841.9712594408694,461.72955879966344 L838.7496250088851,467.6246322958157 M838.7496250088851,467.6246322958157 L835.3936679652692,473.4347579274795 M835.3936679652692,473.4347579274795 L831.912568545216,479.1440432697689 M831.912568545216,479.1440432697689 L828.3158584912936,484.7367840191554 M828.3158584912936,484.7367840191554 L824.6133330144252,490.19763663794845 M824.6133330144252,490.19763663794845 L820.8151035095785,495.51153048622837 M820.8151035095785,495.51153048622837 L816.9315118301625,500.66376603055915 M816.9315118301625,500.66376603055915 L812.9731475672085,505.64001924960826 M812.9731475672085,505.64001924960826 L808.9508127593036,510.42640640626894 M808.9508127593036,510.42640640626894 L804.8755076251606,515.0094815237061 M804.8755076251606,515.0094815237061 L800.7583981319154,519.3762804767092 M800.7583981319154,519.3762804767092 L796.6107893419322,523.5143516374876 M796.0046891488572,524.0987736349075 L796.0177453373495,524.1695285435076 M796.0177453373495,524.1695285435076 L796.0476545380694,524.2191851300148 M796.0476545380694,524.2191851300148 L796.0926750346451,524.2448594832841 M796.0926750346451,524.2448594832841 L796.1501978923772,524.2450639800716 M796.1501978923772,524.2450639800716 L796.216872131581,524.2197782447855 M796.216872131581,524.2197782447855 L796.2888261472718,524.1704831531721 M796.2888261472718,524.1704831531721 L796.36187845288,524.1000414240963 M796.36187845288,524.1000414240963 L796.431780307376,524.0125554089326 M796.431780307376,524.0125554089326 L796.4944800231259,523.9130806128372 M796.4944800231259,523.9130806128372 L796.5463265797313,523.8074259061436 M796.5463265797313,523.8074259061436 L796.5843065422306,523.7017152449748 M796.5843065422306,523.7017152449748 L796.6062209699736,523.6020999563392 M796.6062209699736,523.6020999563392 L796.6107893419322,523.5143516374876 M724.8560253078257,662.3118483977739 L725.537111787335,657.0642687871451 M725.537111787335,657.0642687871451 L726.4447845851654,651.655483100779 M726.4447845851654,651.655483100779 L727.5767617943324,646.1019126615882 M727.5767617943324,646.1019126615882 L728.9300153115377,640.4205422584827 M728.9300153115377,640.4205422584827 L730.5007794291708,634.6288304433924 M730.5007794291708,634.6288304433924 L732.2845550932549,628.7446828938208 M732.2845550932549,628.7446828938208 L734.2761238928587,622.7863649984149 M734.2761238928587,622.7863649984149 L736.469560697917,616.7724466219966 M736.469560697917,616.7724466219966 L738.858252732509,610.7217471981314 M738.858252732509,610.7217471981314 L741.4349189350736,604.6532431365471 M741.4349189350736,604.6532431365471 L744.1916381600887,598.5860167317697 M744.1916381600887,598.5860167317697 L747.1198703686167,592.5391730566105 M747.1198703686167,592.5391730566105 L750.2104907390429,586.5317852477604 M750.2104907390429,586.5317852477604 L753.4538221877807,580.5828041203827 M753.4538221877807,580.5828041203827 L756.8396673645694,574.711001001503 M756.8396673645694,574.711001001503 L760.3573541487348,568.9348856839771 M760.3573541487348,568.9348856839771 L763.9957649820186,563.2726532369743 M763.9957649820186,563.2726532369743 L767.7433880291195,557.742105556406 M767.7433880291195,557.742105556406 L771.5883546529075,552.3605787655391 M771.5883546529075,552.3605787655391 L775.5184884937281,547.1448851891807 M775.5184884937281,547.1448851891807 L779.5213473878335,542.1112835513399 M779.5213473878335,542.1112835513399 L783.584278041067,537.275344860719 M783.584278041067,537.275344860719 L787.69445409561,532.6519770000959 M787.69445409561,532.6519770000959 L791.8389279863846,528.2553335783685 M791.8389279863846,528.2553335783685 L796.0046891488572,524.0987736349075 M608.6344397868958,665.4567180788345 L623.7830104353341,674.3404822080088 M811.0495635033343,532.3202102115829 L796.0046891488572,524.0987736349075 M811.6556685331583,531.7335988714105 L796.6107893419322,523.5143516374876 M883.4075081570346,392.76339204622684 L868.1449811563974,384.85204632561823 M636.0688688896003,665.4567109806936 L620.9273763093099,656.6168769900985" stroke="black"  stroke-width="4"  fill="red"/>
<path d="M791.067195950266,635.7749961065591 L792.6361477134168,623.0510460690288 M792.6361477134168,623.0510460690288 L792.8046736303539,623.1681995662541 M792.8046736303539,623.1681995662541 L792.9290298681245,623.3039197687015 M792.9290298681245,623.3039197687015 L793.0020185930149,623.4503363521741 M793.0020185930149,623.4503363521741 L793.0193318270473,623.5989204361883 M793.0193318270473,623.5989204361883 L792.9800245534731,623.7410603822547 M792.9800245534731,623.7410603822547 L792.8863045013426,623.8684650177186 M792.8863045013426,623.8684650177186 L792.7436623496284,623.9737473599922 M792.7436623496284,623.9737473599922 L792.5603853789704,624.0507855694466 M792.5603853789704,624.0507855694466 L792.3470882539888,624.0950707318362 M792.3470882539888,624.0950707318362 L792.1162247639292,624.1040678530763 M792.1162247639292,624.1040678530763 L791.8811724208223,624.0772132480098 M791.8811724208223,624.0772132480098 L791.6556391811015,624.0161046310888 M791.6556391811015,624.0161046310888 L791.4527115932239,623.9242774054259 M791.4527115932239,623.9242774054259 L791.2841944525813,623.8070737606629 M791.2841944525813,623.8070737606629 L791.1598836990735,623.6713149001696 M791.1598836990735,623.6713149001696 L791.087014109352,623.5249066515046 M791.087014109352,623.5249066515046 L791.069782492452,623.3763287920243 M791.069782492452,623.3763287920243 L791.1091625419323,623.2342181870684 M791.1091625419323,623.2342181870684 L791.2029298354313,623.106859281398 M791.2029298354313,623.106859281398 L791.3455828879252,623.0016285865165 M791.3455828879252,623.0016285865165 L791.5288319221135,622.9246361129959 M791.5288319221135,622.9246361129959 L791.7420686543088,622.8803802801574 M791.7420686543088,622.8803802801574 L791.9728531558582,622.8713893886858 M791.9728531558582,622.8713893886858 L792.2077786328945,622.8981990302958 M792.2077786328945,622.8981990302958 L792.4332500701413,622.9592689903187 M792.4332500701413,622.9592689903187 L792.6361477134168,623.0510460690288 M791.067195950266,635.7749961065591 L790.8647655013873,635.6830821081638 M790.8647655013873,635.6830821081638 L790.6397950881343,635.6219210339942 M790.6397950881343,635.6219210339942 L790.4053753222896,635.5950713919754 M790.4053753222896,635.5950713919754 L790.1750719731177,635.6040756980944 M790.1750719731177,635.6040756980944 L789.9622639032942,635.6483975604006 M789.9622639032942,635.6483975604006 L789.7793660210583,635.7255049007191 M789.7793660210583,635.7255049007191 L789.6369663052186,635.8308925802071 M789.6369663052186,635.8308925802071 L789.5433398071128,635.9584414640024 M789.5433398071128,635.9584414640024 L789.5039797002033,636.1007640290069 M789.5039797002033,636.1007640290069 L789.5211093810686,636.249563468802 M789.5211093810686,636.249563468802 L789.5937610082493,636.3961900364145 M789.5937610082493,636.3961900364145 L789.7177503341023,636.5321513130255 M789.7177503341023,636.5321513130255 L789.8858612827252,636.6495296904582 M789.8858612827252,636.6495296904582 L790.0883215282637,636.7414938050007 M790.0883215282637,636.7414938050007 L790.3133534673071,636.8026935123215 M790.3133534673071,636.8026935123215 L790.5478996457997,636.8295881462876 M790.5478996457997,636.8295881462876 L790.7782816544424,636.8205776142269 M790.7782816544424,636.8205776142269 L790.9911498763323,636.7762264403871 M790.9911498763323,636.7762264403871 L791.1740755979002,636.6990733922304 M791.1740755979002,636.6990733922304 L791.3164644815712,636.5936340970773 M791.3164644815712,636.5936340970773 L791.4100439569537,636.4660395115807 M791.4100439569537,636.4660395115807 L791.449331606619,636.3236876234903 M791.449331606619,636.3236876234903 L791.4321206542053,636.1748819629847 M791.4321206542053,636.1748819629847 L791.359350296619,636.028247009573 M791.359350296619,636.028247009573 L791.2353156604776,635.8923243672601 M791.2353156604776,635.8923243672601 L791.067195950266,635.7749961065591 M793.523341044525,622.3964057340354 L793.9446981953973,622.6892071573117 M793.9446981953973,622.6892071573117 L794.255652594443,623.0284202234635 M794.255652594443,623.0284202234635 L794.4382285003011,623.394419020585 M794.4382285003011,623.394419020585 L794.4816928358376,623.7659008997914 M794.4816928358376,623.7659008997914 L794.3835092565774,624.1212824727329 M794.3835092565774,624.1212824727329 L794.1493214647436,624.4398931764464 M794.1493214647436,624.4398931764464 L793.7927410839826,624.7031926015253 M793.7927410839826,624.7031926015253 L793.3344725782155,624.8958606125002 M793.3344725782155,624.8958606125002 L792.8011593507337,625.0066585645296 M792.8011593507337,625.0066585645296 L792.2238332529593,625.0291463892457 M792.2238332529593,625.0291463892457 L791.6360701438435,624.9619938255511 M791.6360701438435,624.9619938255511 L791.0721470561544,624.8091614086043 M791.0721470561544,624.8091614086043 L790.5647505068613,624.5794842500395 M790.5647505068613,624.5794842500395 L790.1434955697722,624.2863960550307 M790.1434955697722,624.2863960550307 L789.83277808015,623.9469147273945 M789.83277808015,623.9469147273945 L789.6506981204351,623.5808281134545 M789.6506981204351,623.5808281134545 L789.6077439124239,623.2093851442374 M789.6077439124239,623.2093851442374 L789.7063822982224,622.8541869438864 M789.7063822982224,622.8541869438864 L789.9408653754109,622.5358620639657 M789.9408653754109,622.5358620639657 L790.2975138856513,622.2728854330379 M790.2975138856513,622.2728854330379 L790.755607760147,622.0805032515717 M790.755607760147,622.0805032515717 L791.2885435842537,621.9698886597785 M791.2885435842537,621.9698886597785 L791.8653759787054,621.9474397426266 M791.8653759787054,621.9474397426266 L792.4525948222548,622.0144511882766 M792.4525948222548,622.0144511882766 L793.0161790111011,622.1670686453955 M793.0161790111011,622.1670686453955 L793.523341044525,622.3964057340354 M793.7080006677364,620.900461772815 L794.1294772674379,621.1932115250531 M794.1294772674379,621.1932115250531 L794.4405262737772,621.5323647448422 M794.4405262737772,621.5323647448422 L794.6231664694454,621.8982989879283 M794.6231664694454,621.8982989879283 L794.6666609996026,622.2697153651698 M794.6666609996026,622.2697153651698 L794.5684717519317,622.6250342931207 M794.5684717519317,622.6250342931207 L794.3342427321455,622.9435888486609 M794.3342427321455,622.9435888486609 L793.9775879527689,623.2068418836883 M793.9775879527689,623.2068418836883 L793.5192161944782,623.3994759551249 M793.5192161944782,623.3994759551249 L792.9857768653441,623.5102543918329 M792.9857768653441,623.5102543918329 L792.4083091626004,623.532738255881 M792.4083091626004,623.532738255881 L791.8203971898714,623.4655975196409 M791.8203971898714,623.4655975196409 L791.2563266741473,623.3127920231317 M791.2563266741473,623.3127920231317 L790.7487926846744,623.0831553268522 M790.7487926846744,623.0831553268522 L790.3274183226162,622.7901187759852 M790.3274183226162,622.7901187759852 L790.016606340553,622.4506972822998 M790.016606340553,622.4506972822998 L789.8344623199624,622.0846752095891 M789.8344623199624,622.0846752095891 L789.7914781716039,621.7132977450926 M789.7914781716039,621.7132977450926 L789.890122460274,621.358162202719 M789.890122460274,621.358162202719 L790.1246469263446,621.0398934912141 M790.1246469263446,621.0398934912141 L790.4813698857389,620.7769632731987 M790.4813698857389,620.7769632731987 L790.9395669413287,620.5846150515138 M790.9395669413287,620.5846150515138 L791.4726286900451,620.4740199880279 M791.4726286900451,620.4740199880279 L792.0496024473758,620.4515750342994 M792.0496024473758,620.4515750342994 L792.636969889761,620.5185746490871 M792.636969889761,620.5185746490871 L793.2007013161341,620.6711651639581 M793.2007013161341,620.6711651639581 L793.7080006677364,620.900461772815 M793.7080006677364,620.900461772815 L793.523341044525,622.3964057340354" stroke="black"  stroke-width="4"  fill="red"/>
<path d="M58.040016151832674,292.1396141395327 L-67.74354140491442,365.0695215502233 M58.040016151832674,292.1396141395327 L46.30109655234804,285.3621472548787 M-79.47696316159517,357.9801438888726 L46.30109655234804,285.3621472548787 M-67.74354140491442,365.0695215502233 L-79.47696316159517,357.9801438888726 M-67.74354140491442,365.0695215502233 L-69.50192984130865,267.76879787808986 M-69.50192984130865,267.76879787808986 L-57.08277130626533,260.7842259433769 M-57.08277130626533,260.7842259433769 L-58.69813456928853,160.55093714374743 M-58.69813456928853,160.55093714374743 L182.29213878784367,29.339558176497462 M182.29213878784367,29.339558176497462 L182.07504584116464,34.51177912818508 M182.07504584116464,34.51177912818508 L181.63402961006398,39.783999327268475 M181.63402961006398,39.783999327268475 L180.97078563048353,45.14122713730103 M180.97078563048353,45.14122713730103 L180.08761879764234,50.56832948583417 M180.08761879764234,50.56832948583417 L178.98737416504457,56.05005828295117 M178.98737416504457,56.05005828295117 L177.67348752155783,61.571066862385806 M177.67348752155783,61.571066862385806 L176.14993649973178,67.11593579074344 M176.14993649973178,67.11593579074344 L174.42123709312102,72.6692627903542 M174.42123709312102,72.6692627903542 L172.49241609182377,78.21564307946699 M172.49241609182377,78.21564307946699 L170.36901923891514,83.73974149073007 M170.36901923891514,83.73974149073007 L168.0571040183138,89.22627295836253 M168.0571040183138,89.22627295836253 L165.56317610134886,94.6601256593874 M165.56317610134886,94.6601256593874 L162.8942304874372,100.02630441822191 M162.8942304874372,100.02630441822191 L160.05769059666147,105.31002001208219 M160.05769059666147,105.31002001208219 L157.06142285305424,110.49669286956777 M157.06142285305424,110.49669286956777 L153.9136870121502,115.57202646066355 M153.9136870121502,115.57202646066355 L150.62316259265498,120.52195068315461 M150.62316259265498,120.52195068315461 L147.1988718754941,125.3327787455712 M147.1988718754941,125.3327787455712 L143.65022638690903,129.99113029466469 M143.65022638690903,129.99113029466469 L139.98694302397143,134.48401694180336 M139.98694302397143,134.48401694180336 L136.21906266030896,138.7988496421981 M136.21906266030896,138.7988496421981 L132.35691793775567,142.92349779011744 M132.35691793775567,142.92349779011744 L128.41111594154376,146.8462860285082 M128.41111594154376,146.8462860285082 L124.39250654182592,150.55603355208143 M124.39250654182592,150.55603355208143 L120.31215546378178,154.0420810292506 M120.31215546378178,154.0420810292506 L120.31800786304228,154.12581103947184 M120.31800786304228,154.12581103947184 L120.30612013176767,154.21889617519253 M120.30612013176767,154.21889617519253 L120.27719296788524,154.31594436830164 M120.27719296788524,154.31594436830164 L120.23289732970989,154.4113069117389 M120.23289732970989,154.4113069117389 L120.17580993771571,154.49945722392755 M120.17580993771571,154.49945722392755 L120.10925306088586,154.5752463772276 M120.10925306088586,154.5752463772276 L120.03708653784093,154.63429615097556 M120.03708653784093,154.63429615097556 L119.96350702657446,154.6731669558106 M119.96350702657446,154.6731669558106 L119.89279080144394,154.68960184561558 M119.89279080144394,154.68960184561558 L119.82904263640722,154.68263451219372 M119.82904263640722,154.68263451219372 L119.77597718778111,154.6526791170155 M119.77597718778111,154.6526791170155 L119.7366694895158,154.60147152866944 M119.7366694895158,154.60147152866944 L119.7134074877385,154.5319864000951 M119.7134074877385,154.5319864000951 L115.61588308387479,158.0331106745943 M115.61588308387479,158.0331106745943 L111.57229420452154,161.76683840329088 M111.57229420452154,161.76683840329088 L107.59530296068073,165.72190194392533 M107.59530296068073,165.72190194392533 L103.69739953961806,169.88627724560502 M103.69739953961806,169.88627724560502 L99.89084416005699,174.24721509431595 M99.89084416005699,174.24721509431595 L96.18762239514274,178.79132173605626 M96.18762239514274,178.79132173605626 L92.5994014249298,183.5045297667724 M92.5994014249298,183.5045297667724 L89.13748755629416,188.37221930435533 M89.13748755629416,188.37221930435533 L85.81278489943372,193.37924031007833 M85.81278489943372,193.37924031007833 L82.63574956806849,198.50996101120808 M82.63574956806849,198.50996101120808 L79.6163584427211,203.74833157438928 M79.6163584427211,203.74833157438928 L76.76406342553679,209.0779516641702 M76.76406342553679,209.0779516641702 L74.08776660764931,214.48211624849864 M74.08776660764931,214.48211624849864 L71.59578100056223,219.9438871473754 M71.59578100056223,219.9438871473754 L69.29580299123029,225.446142250167 M69.29580299123029,225.446142250167 L67.19488816252243,230.97165660515822 M67.19488816252243,230.97165660515822 L65.29942080322792,236.50314904495883 M65.29942080322792,236.50314904495883 L63.61510103679785,242.02335772056404 M63.61510103679785,242.02335772056404 L62.14692009066147,247.51508407444084 M62.14692009066147,247.51508407444084 L60.899150280976016,252.96127790680634 M60.899150280976016,252.96127790680634 L59.87533050886873,258.3450863522747 M59.87533050886873,258.3450863522747 L59.078258750388216,263.6499040879684 M59.078258750388216,263.6499040879684 L58.50998685527105,268.85945452231084 M58.50998685527105,268.85945452231084 L58.17181847952162,273.95781383958325 M58.17181847952162,273.95781383958325 L58.064309848696155,278.929495432343 M58.064309848696155,278.929495432343 L58.040016151832674,292.1396141395327 M58.064309848696155,278.929495432343 L46.301097822142765,272.1660522151969 M46.301097822142765,272.1660522151969 L46.30109655234804,285.3621472548787 M46.301097822142765,272.1660522151969 L46.399568745948955,267.19985847778673 M46.399568745948955,267.19985847778673 L46.728711429678015,262.1075597867264 M46.728711429678015,262.1075597867264 L47.28799662113863,256.9046243118602 M47.28799662113863,256.9046243118602 L48.07614779215703,251.60695534712687 M48.07614779215703,251.60695534712687 L49.09114023259599,246.23080698303397 M49.09114023259599,246.23080698303397 L50.33020308688231,240.79276011080395 M50.33020308688231,240.79276011080395 L51.78982441987074,235.30964135252634 M51.78982441987074,235.30964135252634 L53.465758648292024,229.7984729457994 M53.465758648292024,229.7984729457994 L55.35304097279061,224.27642387355343 M55.35304097279061,224.27642387355343 L57.44599724726203,218.7607249375218 M57.44599724726203,218.7607249375218 L59.738268652053875,213.26862490866148 M59.738268652053875,213.26862490866148 L62.22282443404646,207.817315130863 M62.22282443404646,207.817315130863 L64.89199233467178,202.42388303439066 M64.89199233467178,202.42388303439066 L67.73748263443315,197.1052312119121 M67.73748263443315,197.1052312119121 L70.7504156226093,191.87802833788987 M70.7504156226093,191.87802833788987 L73.92136075953562,186.75863780156766 M73.92136075953562,186.75863780156766 L77.2403614328943,181.7630720279413 M77.2403614328943,181.7630720279413 L80.69698060679002,176.90692510556102 M80.69698060679002,176.90692510556102 L84.28033195234781,172.2053092674592 M84.28033195234781,172.2053092674592 L87.9791255839259,167.67280662965686 M87.9791255839259,167.67280662965686 L91.78170936175314,163.32344699119528 M91.78170936175314,163.32344699119528 L95.67611116839169,159.17058689225013 M95.67611116839169,159.17058689225013 L99.65008273246332,155.2269387867674 M99.65008273246332,155.2269387867674 L103.69114417946355,151.5044906016497 M103.69114417946355,151.5044906016497 L107.78664205703791,148.0144746387415 M107.78664205703791,148.0144746387415 L107.81005891364492,148.08392364109704 M107.81005891364492,148.08392364109704 L107.84950505194541,148.13514365911817 M107.84950505194541,148.13514365911817 L107.90268448078842,148.16515930779434 M107.90268448078842,148.16515930779434 L107.96651556268068,148.1722312243262 M107.96651556268068,148.1722312243262 L108.03727879498388,148.15593915945226 M108.03727879498388,148.15593915945226 L108.11086669764092,148.1172411151647 M108.11086669764092,148.1172411151647 L108.18300250324324,148.0583839984149 M108.18300250324324,148.0583839984149 L108.24949134874419,147.98279618898943 M108.24949134874419,147.98279618898943 L108.30647730708654,147.8948442513701 M108.30647730708654,147.8948442513701 L108.35064404581209,147.79966554996412 M108.35064404581209,147.79966554996412 L108.3794223030365,147.70277599786903 M108.3794223030365,147.70277599786903 L108.39114980156711,147.60981509338353 M108.39114980156711,147.60981509338353 L108.38513511284884,147.52616768874867 M170.20065100582508,23.071923720154246 L169.99304751672753,28.237802420172727 M169.99304751672753,28.237802420172727 L169.56145518347307,33.50320210721054 M169.56145518347307,33.50320210721054 L168.90754236703071,38.85315015808294 M168.90754236703071,38.85315015808294 L168.03358736275243,44.27253349008083 M168.03358736275243,44.27253349008083 L166.942409179852,49.746124850997205 M166.942409179852,49.746124850997205 L165.63741821354608,55.2585993484646 M165.63741821354608,55.2585993484646 L164.12256735137623,60.79456016917851 M164.12256735137623,60.79456016917851 L162.4023486582505,66.338628417731 M162.4023486582505,66.338628417731 L160.48176574415072,71.87542345762716 M160.48176574415072,71.87542345762716 L158.36634206359486,77.38963498849517 M158.36634206359486,77.38963498849517 L156.0621136547466,82.86600357036826 M156.0621136547466,82.86600357036826 L153.57556573933817,88.28944354439852 M153.57556573933817,88.28944354439852 L150.91367379557545,93.64498660008536 M150.91367379557545,93.64498660008536 L148.08384273956432,98.91787090300852 M148.08384273956432,98.91787090300852 L145.09392152022582,104.09354484201651 M145.09392152022582,104.09354484201651 L141.95215351494562,109.15774027795652 M141.95215351494562,109.15774027795652 L138.6672028698855,114.09641606524605 M138.6672028698855,114.09641606524605 L135.24807768985642,118.8959146507118 M135.24807768985642,118.8959146507118 L131.704176411827,123.54288539136405 M131.704176411827,123.54288539136405 L128.0452039777038,128.0243698611609 M128.0452039777038,128.0243698611609 L124.2811904549859,132.3278092745186 M124.2811904549859,132.3278092745186 L120.42245888232901,136.44110347766724 M120.42245888232901,136.44110347766724 L116.4796078984117,140.35260774737458 M116.4796078984117,140.35260774737458 L112.46348010035211,144.05117200832223 M112.46348010035211,144.05117200832223 L108.38513511284884,147.52616768874867 M170.20065100582508,23.071923720154246 L-70.7914215819361,153.71185589904144 M-68.99395871825442,253.83029331127238 L-70.7914215819361,153.71185589904144 M-68.99395871825442,253.83029331127238 L-81.41200069898264,260.784227338939 M-79.47696316159517,357.9801438888726 L-81.41200069898264,260.784227338939 M-81.41200069898264,260.784227338939 L-69.50192984130865,267.76879787808986 M119.7134074877385,154.5319864000951 L107.78664205703791,148.0144746387415 M120.31215546378178,154.0420810292506 L108.38513511284884,147.52616768874867 M182.29213878784367,29.339558176497462 L170.20065100582508,23.071923720154246 M-58.69813456928853,160.55093714374743 L-70.7914215819361,153.71185589904144 M-57.08277130626533,260.7842259433769 L-68.99395871825442,253.83029331127238" stroke="black"  stroke-width="4"  fill="red"/>
<path d="M113.57980536732782,253.21384136511955 L113.70621694911603,241.14656005164636 M113.70621694911603,241.14656005164636 L113.8364426454599,241.23975253856747 M113.8364426454599,241.23975253856747 L113.92409502970077,241.34771631649545 M113.92409502970077,241.34771631649545 L113.96408029616612,241.46417720137396 M113.96408029616612,241.46417720137396 L113.9540599426129,241.5823737843068 M113.9540599426129,241.5823737843068 L113.89462135991408,241.6954297155712 M113.89462135991408,241.6954297155712 L113.78920592037161,241.79677844748227 M113.78920592037161,241.79677844748227 L113.64394177225671,241.88052448021807 M113.64394177225671,241.88052448021807 L113.46726941308157,241.94179862224337 M113.46726941308157,241.94179862224337 L113.26946359453854,241.9770345277853 M113.26946359453854,241.9770345277853 L113.06201477609306,241.98418749624534 M113.06201477609306,241.98418749624534 L112.85699642862829,241.9628353736053 M112.85699642862829,241.9628353736053 L112.66631863636923,241.9142257089443 M112.66631863636923,241.9142257089443 L112.50107018068513,241.84118365854636 M112.50107018068513,241.84118365854636 L112.37085971921454,241.747955925351 M112.37085971921454,241.747955925351 L112.28324942539001,241.63996472046642 M112.28324942539001,241.63996472046642 L112.24332404996704,241.52349084240655 M112.24332404996704,241.52349084240655 L112.25340837813542,241.4052986762889 M112.25340837813542,241.4052986762889 L112.3129003598292,241.29226355977397 M112.3129003598292,241.29226355977397 L112.41834639192012,241.1909472728807 M112.41834639192012,241.1909472728807 L112.56361131679489,241.10723788219582 M112.56361131679489,241.10723788219582 L112.7402544590035,241.04599618540675 M112.7402544590035,241.04599618540675 L112.93800776102478,241.01078109403227 M112.93800776102478,241.01078109403227 L113.14539279213017,241.00363254315374 M113.14539279213017,241.00363254315374 L113.35035069764842,241.02497167123732 M113.35035069764842,241.02497167123732 L113.54098523667437,241.0735539093082 M113.54098523667437,241.0735539093082 L113.70621694911603,241.14656005164636 M113.57980536732782,253.21384136511955 L113.4148864438925,253.14069306568575 M113.4148864438925,253.14069306568575 L113.22461134452288,253.0920162250677 M113.22461134452288,253.0920162250677 L113.02003864618513,253.0706355431327 M113.02003864618513,253.0706355431327 L112.81304224088029,253.0777980145009 M112.81304224088029,253.0777980145009 L112.61565839620619,253.11308167990717 M112.61565839620619,253.11308167990717 L112.43934410627764,253.17444262858078 M112.43934410627764,253.17444262858078 L112.29434831745789,253.25831501376098 M112.29434831745789,253.25831501376098 L112.18909606669575,253.35982856718704 M112.18909606669575,253.35982856718704 L112.12971123168285,253.47308375277782 M112.12971123168285,253.47308375277782 L112.11964118696858,253.59150601197973 M112.11964118696858,253.59150601197973 L112.15948711254953,253.70820662171104 M112.15948711254953,253.70820662171104 L112.24692883918146,253.81640803117642 M112.24692883918146,253.81640803117642 L112.37689139323516,253.90981722070921 M112.37689139323516,253.90981722070921 L112.54182699684469,253.98300143124862 M112.54182699684469,253.98300143124862 L112.73214518626241,254.03170570030812 M112.73214518626241,254.03170570030812 L112.93677809951606,254.05309937767663 M112.93677809951606,254.05309937767663 L113.1438380532826,254.04593248842878 M113.1438380532826,254.04593248842878 L113.34127421848888,254.01062800745012 M113.34127421848888,254.01062800745012 L113.51761761717393,253.9492346113504 M113.51761761717393,253.9492346113504 L113.6626126335961,253.86532558164612 M113.6626126335961,253.86532558164612 L113.76783440774557,253.76377958101227 M113.76783440774557,253.76377958101227 L113.82716604470932,253.6505035792672 M113.82716604470932,253.6505035792672 L113.83717235473858,253.53207690295204 M113.83717235473858,253.53207690295204 L113.79726676205178,253.41538928727903 M113.79726676205178,253.41538928727903 L113.70978310165793,253.30721530662146 M113.70978310165793,253.30721530662146 L113.57980536732782,253.21384136511955 M114.60972846479484,240.62579325017742 L114.93532213677798,240.8587063033491 M114.93532213677798,240.8587063033491 L115.15453398074436,241.12856284981433 M115.15453398074436,241.12856284981433 L115.25460282221371,241.41969484346384 M115.25460282221371,241.41969484346384 L115.22967561068685,241.71519143648572 M115.22967561068685,241.71519143648572 L115.08117530360971,241.99787328385537 M115.08117530360971,241.99787328385537 L114.81769440065517,242.25130613984828 M114.81769440065517,242.25130613984828 L114.45454010764638,242.46073731398724 M114.45454010764638,242.46073731398724 L114.0128041233445,242.61398338040328 M114.0128041233445,242.61398338040328 L113.51818587586342,242.70211452137391 M113.51818587586342,242.70211452137391 L112.99944964645186,242.7200030775985 M112.99944964645186,242.7200030775985 L112.48678319715447,242.666602198659 M112.48678319715447,242.666602198659 L112.01001018030365,242.54502541375086 M112.01001018030365,242.54502541375086 L111.59686135158671,242.36235237816794 M111.59686135158671,242.36235237816794 L111.27135980447576,242.12921729784398 M111.27135980447576,242.12921729784398 L111.05241043491782,241.85918900185885 M111.05241043491782,241.85918900185885 L110.95271650763482,241.5679761307244 M110.95271650763482,241.5679761307244 L110.97804326214009,241.2725069768532 M110.97804326214009,241.2725069768532 L111.12687731586965,240.98995522298372 M111.12687731586965,240.98995522298372 L111.39054942200818,240.7367251489518 M111.39054942200818,240.7367251489518 L111.753708569732,240.52752298480573 M111.753708569732,240.52752298480573 L112.19526194826778,240.3744797006923 M112.19526194826778,240.3744797006923 L112.6895519646369,240.2864786517046 M112.6895519646369,240.2864786517046 L113.20788982141119,240.2686178675272 M113.20788982141119,240.2686178675272 L113.72017791343274,240.32193720524538 M113.72017791343274,240.32193720524538 L114.19668118823279,240.44334290296223 M114.19668118823279,240.44334290296223 L114.60972846479484,240.62579325017742 M114.62478462777074,239.20742376392246 L114.95045118309542,239.44028327402475 M114.95045118309542,239.44028327402475 L115.16971264774338,239.71007779417897 M115.16971264774338,239.71007779417897 L115.26980495386931,240.00114288279684 M115.26980495386931,240.00114288279684 L115.24487367203551,240.2965715798835 M115.24487367203551,240.2965715798835 L115.09634198299943,240.57918848718037 M115.09634198299943,240.57918848718037 L114.83280419557906,240.83256313193056 M114.83280419557906,240.83256313193056 L114.4695708166081,241.041946208397 M114.4695708166081,241.041946208397 L114.02773813790219,241.19515708442174 M114.02773813790219,241.19515708442174 L113.5330112164608,241.2832679890406 M113.5330112164608,241.2832679890406 L113.01416065959461,241.30115243789277 M113.01416065959461,241.30115243789277 L112.50138089011074,241.24776382040528 M112.50138089011074,241.24776382040528 L112.02450215974574,241.12621495240433 M112.02450215974574,241.12621495240433 L111.61126137798522,240.94358386676112 M111.61126137798522,240.94358386676112 L111.28568698699132,240.71050233151118 M111.28568698699132,240.71050233151118 L111.06668811182811,240.4405360635172 M111.06668811182811,240.4405360635172 L110.96697088471524,240.14939009809814 M110.96697088471524,240.14939009809814 L110.99230188591673,239.85398883994202 M110.99230188591673,239.85398883994202 L111.1411674693934,239.57150202492784 M111.1411674693934,239.57150202492784 L111.40489654526556,239.3183301602412 M111.40489654526556,239.3183301602412 L111.76813478216326,239.10917609162482 M111.76813478216326,239.10917609162482 L112.20978477552319,238.95616799600515 M112.20978477552319,238.95616799600515 L112.70418332171306,238.86818718215198 M112.70418332171306,238.86818718215198 L113.22263533032697,238.85033050505064 M113.22263533032697,238.85033050505064 L113.73503657543051,238.90363758215267 M113.73503657543051,238.90363758215267 L114.21164544386039,239.0250153644904 M114.21164544386039,239.0250153644904 L114.62478462777074,239.20742376392246 M114.62478462777074,239.20742376392246 L114.60972846479484,240.62579325017742" stroke="black"  stroke-width="4"  fill="red"/>
<path d="M-68.99395871825442,253.83029331127238 L-81.41200069898264,260.784227338939 M-81.41200069898264,260.784227338939 L-83.40750815703461,160.55093851630733 M-70.7914215819361,153.71185589904144 L-83.40750815703461,160.55093851630733 M-68.99395871825442,253.83029331127238 L-70.7914215819361,153.71185589904144 M-67.74354140491442,365.0695215502233 L-14.914307783912932,396.989143674584 M-14.914307783912932,396.989143674584 L-15.048700186409576,383.2046798939709 M-15.048700186409576,383.2046798939709 L46.30048164043484,420.1184771704877 M46.30048164043484,433.9753502295607 L46.30048164043484,420.1184771704877 M46.30048164043484,433.9753502295607 L318.95989353613504,598.7171948453292 M318.95989353613504,598.7171948453292 L319.5950987040244,584.5598240742262 M319.5950987040244,584.5598240742262 L388.723561276296,626.1544138868899 M387.9182329545905,640.3820835005657 L388.723561276296,626.1544138868899 M387.9182329545905,640.3820835005657 L599.0453134425096,767.9458614978075 M599.0453134425096,767.9458614978075 L608.6344397868958,665.4567180788345 M608.6344397868958,665.4567180788345 L623.7830104353341,674.3404822080088 M623.7830104353341,674.3404822080088 L634.003939744819,568.1214690204229 M-83.40750815703461,160.55093851630733 L634.003939744819,568.1214690204229 M-81.41200069898264,260.784227338939 L-69.50192984130865,267.76879787808986 M-67.74354140491442,365.0695215502233 L-69.50192984130865,267.76879787808986 M636.0688688896003,665.4567109806936 L620.9273763093099,656.6168769900985 M611.1524415092981,759.0073009410538 L620.9273763093099,656.6168769900985 M611.1524415092981,759.0073009410538 L400.1017829856744,632.052138367515 M400.1017829856744,632.052138367515 L400.9338711977143,617.8383393342193 M400.9338711977143,617.8383393342193 L331.82278104869124,576.4380227501139 M331.16069453846706,590.5813978683461 L331.82278104869124,576.4380227501139 M331.16069453846706,590.5813978683461 L58.53230197849922,426.5848382663345 M58.53230197849922,426.5848382663345 L58.559396881755674,412.7422889545578 M58.559396881755674,412.7422889545578 L-2.7909904139159494,375.99094483422215 M-2.683684992081055,389.7610461383429 L-2.7909904139159494,375.99094483422215 M-2.683684992081055,389.7610461383429 L-55.516358443263414,357.98014247232214 M-55.516358443263414,357.98014247232214 L-57.08277130626533,260.7842259433769 M-57.08277130626533,260.7842259433769 L-68.99395871825442,253.83029331127238 M646.4809174256005,559.348784545694 L-70.7914215819361,153.71185589904144 M636.0688688896003,665.4567109806936 L646.4809174256005,559.348784545694 M-67.74354140491442,365.0695215502233 L-55.516358443263414,357.98014247232214 M-69.50192984130865,267.76879787808986 L-57.08277130626533,260.7842259433769 M-2.683684992081055,389.7610461383429 L-14.914307783912932,396.989143674584 M-2.7909904139159494,375.99094483422215 L-15.048700186409576,383.2046798939709 M46.30048164043484,433.9753502295607 L58.53230197849922,426.5848382663345 M46.30048164043484,420.1184771704877 L58.559396881755674,412.7422889545578 M331.16069453846706,590.5813978683461 L318.95989353613504,598.7171948453292 M331.82278104869124,576.4380227501139 L319.5950987040244,584.5598240742262 M387.9182329545905,640.3820835005657 L400.1017829856744,632.052138367515 M388.723561276296,626.1544138868899 L400.9338711977143,617.8383393342193 M611.1524415092981,759.0073009410538 L599.0453134425096,767.9458614978075 M620.9273763093099,656.6168769900985 L608.6344397868958,665.4567180788345 M623.7830104353341,674.3404822080088 L636.0688688896003,665.4567109806936 M634.003939744819,568.1214690204229 L646.4809174256005,559.348784545694" stroke="black"  stroke-width="4"  fill="red"/></svg>