<svg viewBox="0 0 800 800" xmlns="http://www.w3.org/2000/svg"><path d="M-495.3228666480286,89.0120728444229 L-515.4038869205448,96.0146402869488 M-515.4038864164947,90.77639844350614 L-515.4038869205448,96.0146402869488 M-515.4038864164947,90.77639844350614 L-515.4039997418527,90.73054380619476 M-515.4039997418527,90.73054380619476 L-515.4040677393155,90.68463699163595 M-515.4040677393155,90.68463699163595 L-515.4040904058064,90.63871253452993 M-495.27248792747685,83.68930412384492 L-515.4040904058064,90.63871253452993 M-495.3228666480286,89.0120728444229 L-495.27248792747685,83.68930412384492 M1225.4449977301076,703.0758508833906 L1207.808342310566,696.9256735278138 M1218.3140026546955,758.1672543551433 L1207.808342310566,696.9256735278138 M1218.3140026546955,758.1672543551433 L368.112063757261,446.6833449866227 M365.3884220059765,450.4141671648952 L368.112063757261,446.6833449866227 M170.914940018449,378.7843040105988 L365.3884220059765,450.4141671648952 M174.17141040701722,375.63035142445847 L170.914940018449,378.7843040105988 M174.17141040701722,375.63035142445847 L-370.51791277107986,176.0754550961466 M-374.56571879175635,177.86896817886628 L-370.51791277107986,176.0754550961466 M-470.30713125667,142.60480669539652 L-374.56571879175635,177.86896817886628 M-466.2275437427147,141.0108326160754 L-470.30713125667,142.60480669539652 M-466.2275437427147,141.0108326160754 L-549.2493963535686,110.59456322038125 M-511.5176378641727,97.36983606392971 L-549.2493963535686,110.59456322038125 M-511.5176378641727,97.36983606392971 L-515.4038869205448,96.0146402869488 M1219.5719511442064,671.5152810135958 L-495.3228666480286,89.0120728444229 M1225.4449977301076,703.0758508833906 L1219.5719511442064,671.5152810135958 M-503.15576451326956,93.08786531207886 L-503.21041374650565,93.07310947519545 M-503.21041374650565,93.07310947519545 L-503.27355188652336,93.06329039719373 M-503.27355188652336,93.06329039719373 L-503.3415096525234,93.05897777944415 M-503.3415096525234,93.05897777944415 L-503.4103407212681,93.06042231553926 M-503.4103407212681,93.06042231553926 L-503.476046130025,93.06753997471134 M-503.476046130025,93.06753997471134 L-503.53481011889676,93.07991773093863 M-503.53481011889676,93.07991773093863 L-503.5832177430634,93.09683666166688 M-503.5832177430634,93.09683666166688 L-503.6184562635473,93.11731445377245 M-503.6184562635473,93.11731445377245 L-503.6384760101589,93.14016140673448 M-503.6384760101589,93.14016140673448 L-503.64211224757366,93.16405052112583 M-503.64211224757366,93.16405052112583 L-503.62915098544795,93.18759321809233 M-503.62915098544795,93.18759321809233 L-503.60034438256514,93.20942138926085 M-503.60034438256514,93.20942138926085 L-503.55736405050106,93.22826540670815 M-503.55736405050106,93.22826540670815 L-503.5027082878107,93.24302994921266 M-503.5027082878107,93.24302994921266 L-503.43955298623007,93.25285568675355 M-503.43955298623007,93.25285568675355 L-503.3715711640996,93.25717145955264 M-503.3715711640996,93.25717145955264 L-503.30271465516694,93.25572585101077 M-503.30271465516694,93.25572585101077 L-503.23698825054214,93.24860313770091 M-503.23698825054214,93.24860313770091 L-503.1782125197833,93.23621750336429 M-503.1782125197833,93.23621750336429 L-503.12980509777674,93.21928967548718 M-503.12980509777674,93.21928967548718 L-503.0945786771895,93.19880400532537 M-503.0945786771895,93.19880400532537 L-503.0745801561234,93.17595199824541 M-503.0745801561234,93.17595199824541 L-503.0709694076311,93.15206181143225 M-503.0709694076311,93.15206181143225 L-503.0839545825114,93.1285222694325 M-503.0839545825114,93.1285222694325 L-503.11277804432075,93.10670075791637 M-503.11277804432075,93.10670075791637 L-503.15576451326956,93.08786531207886 M1213.7008238861497,683.762932109762 L1213.4840950769978,683.6969212677245 M1213.4840950769978,683.6969212677245 L1213.2834578812951,683.6530571415597 M1213.2834578812951,683.6530571415597 L1213.1101921344505,683.6337559560243 M1213.1101921344505,683.6337559560243 L1212.974744357871,683.6402725591545 M1212.974744357871,683.6402725591545 L1212.8845308320913,683.6720742390482 M1212.8845308320913,683.6720742390482 L1212.8448651144397,683.7273429395116 M1212.8448651144397,683.7273429395116 L1212.8583303900807,683.8029657468667 M1212.8583303900807,683.8029657468667 L1212.9241553711124,683.8945558097741 M1212.9241553711124,683.8945558097741 L1213.0382557612413,683.9967015046177 M1213.0382557612413,683.9967015046177 L1213.1939427347177,684.103446903735 M1213.1939427347177,684.103446903735 L1213.382626260304,684.2087419948812 M1213.382626260304,684.2087419948812 L1213.5929563407742,684.3063322325263 M1213.5929563407742,684.3063322325263 L1213.8130727565501,684.3906645394111 M1213.8130727565501,684.3906645394111 L1214.0297323546918,684.4566804504282 M1214.0297323546918,684.4566804504282 L1214.2305426553614,684.5006075071128 M1214.2305426553614,684.5006075071128 L1214.4039617348315,684.5199385631824 M1214.4039617348315,684.5199385631824 L1214.5397303172697,684.5134884131844 M1214.5397303172697,684.5134884131844 L1214.6297417608891,684.4815622816307 M1214.6297417608891,684.4815622816307 L1214.6693460940621,684.4262191733378 M1214.6693460940621,684.4262191733378 L1214.6557510774899,684.3505122457295 M1214.6557510774899,684.3505122457295 L1214.5897577826374,684.2588476609387 M1214.5897577826374,684.2588476609387 L1214.4757120470642,684.1567308299766 M1214.4757120470642,684.1567308299766 L1214.3196729327472,684.0498986610123 M1214.3196729327472,684.0498986610123 L1214.1309281514948,683.9446333993549 M1214.1309281514948,683.9446333993549 L1213.9206191039714,683.8471061045868 M1213.9206191039714,683.8471061045868 L1213.7008238861497,683.762932109762 M-511.50798626157166,92.12160987617864 L-515.4038864164947,90.77639844350614 M-511.50798626157166,92.12160987617864 L-511.5176378641727,97.36983606392971 M-511.5079364413998,91.98366086433697 L-511.5079984026595,92.02967313318482 M-511.5079984026595,92.02967313318482 L-511.5080150295654,92.07566767071421 M-511.5080150295654,92.07566767071421 L-511.50798626157166,92.12160987617864 M-515.4040904058064,90.63871253452993 L-511.5079364413998,91.98366086433697 M1217.1542428127043,688.7160621062601 L1234.9380412145867,694.8550109714085 M1234.9380412145867,694.8550109714085 L1228.7696243430153,663.3555838641619 M1228.7696243430153,663.3555838641619 L-495.27248792747685,83.68930412384492 M-511.5079364413998,91.98366086433697 L-549.3377982394919,105.10922629028744 M-549.3377982394919,105.10922629028744 L-466.09194413975,135.3038752600453 M-466.09194413975,135.3038752600453 L-470.1824368924398,136.88647686249766 M-470.1824368924398,136.88647686249766 L-374.1525366041217,171.90519699748572 M-374.1525366041217,171.90519699748572 L-370.09409875528524,170.1238825094632 M-370.09409875528524,170.1238825094632 L176.84757191660015,368.50867814244646 M176.84757191660015,368.50867814244646 L173.58884061818412,371.6471725458476 M173.58884061818412,371.6471725458476 L369.12255514448293,442.95142679783373 M369.12255514448293,442.95142679783373 L371.84193102551194,439.23635927503454 M371.84193102551194,439.23635927503454 L1228.2275306812155,749.861589131853 M1217.1542428127043,688.7160621062601 L1228.2275306812155,749.861589131853 M-502.8229829263182,87.62960657483904 L-502.7152323547948,87.67632176945949 M-502.7152323547948,87.67632176945949 L-502.6429558787256,87.73044845704953 M-502.6429558787256,87.73044845704953 L-502.6103626251946,87.7888446082402 M-502.6103626251946,87.7888446082402 L-502.6193606719771,87.84811821307585 M-502.6193606719771,87.84811821307585 L-502.6694402084403,87.9048239565684 M-502.6694402084403,87.9048239565684 L-502.75770226487236,87.9556636399106 M-502.75770226487236,87.9556636399106 L-502.87902399224595,87.99767841580558 M-502.87902399224595,87.99767841580558 L-503.02635458037,88.02842175373462 M-503.02635458037,88.02842175373462 L-503.1911252843199,88.04610280830587 M-503.1911252843199,88.04610280830587 L-503.36374899617374,88.04969135269829 M-503.36374899617374,88.04969135269829 L-503.5341798348177,88.0389780684211 M-503.5341798348177,88.0389780684211 L-503.69250027955513,88.01458761072007 M-503.69250027955513,88.01458761072007 L-503.8295003256376,87.97794088539996 M-503.8295003256376,87.97794088539996 L-503.9372133760122,87.93117204041812 M-503.9372133760122,87.93117204041812 L-504.0093841487012,87.87700387556976 M-504.0093841487012,87.87700387556976 L-504.0418269965189,87.81858817261548 M-504.0418269965189,87.81858817261548 L-504.03266893518094,87.75932120316179 M-504.03266893518094,87.75932120316179 L-503.982456065213,87.7026468874327 M-503.982456065213,87.7026468874327 L-503.89411799888285,87.6518561913602 M-503.89411799888285,87.6518561913602 L-503.77279499838573,87.60989673984938 M-503.77279499838573,87.60989673984938 L-503.6255381655824,87.5792023891907 M-503.6255381655824,87.5792023891907 L-503.46089934873817,87.56155276242066 M-503.46089934873817,87.56155276242066 L-503.2884353445618,87.55797091985409 M-503.2884353445618,87.55797091985409 L-503.1181558145595,87.56866451917426 M-503.1181558145595,87.56866451917426 L-502.9599429790626,87.59301363246436 M-502.9599429790626,87.59301363246436 L-502.8229829263182,87.62960657483904 M1222.8807229874867,675.1088472566266 L1223.4347186348366,675.3187137637917 M1223.4347186348366,675.3187137637917 L1223.9654083131925,675.5619679147574 M1223.9654083131925,675.5619679147574 L1224.4419919279255,675.8245165103015 M1224.4419919279255,675.8245165103015 L1224.8365358462322,676.0910488625047 M1224.8365358462322,676.0910488625047 L1225.1260712582332,676.3460797390715 M1225.1260712582332,676.3460797390715 L1225.293828645404,676.5748126716444 M1225.293828645404,676.5748126716444 L1225.3298204776108,676.7638645949589 M1225.3298204776108,676.7638645949589 L1225.2318843554915,676.9022030940912 M1225.2318843554915,676.9022030940912 L1225.005825124121,676.9817984625417 M1225.005825124121,676.9817984625417 L1224.6646431852612,676.9979487852729 M1224.6646431852612,676.9979487852729 L1224.2281891371629,676.9496991557471 M1224.2281891371629,676.9496991557471 L1223.7221153707244,676.8399402331079 M1223.7221153707244,676.8399402331079 L1223.1758971028942,676.6750743532482 M1223.1758971028942,676.6750743532482 L1222.62105038274,676.4646192337739 M1222.62105038274,676.4646192337739 L1222.0902244165184,676.2209702703951 M1222.0902244165184,676.2209702703951 L1221.6140260834084,675.9582346032842 M1221.6140260834084,675.9582346032842 L1221.220300731671,675.6917658415741 M1221.220300731671,675.6917658415741 L1220.93182953993,675.4370345896612 M1220.93182953993,675.4370345896612 L1220.7651385202828,675.2087687535409 M1220.7651385202828,675.2087687535409 L1220.7299706222855,675.0202443165824 M1220.7299706222855,675.0202443165824 L1220.8282994387193,674.882372819035 M1220.8282994387193,674.882372819035 L1221.0542305999963,674.8030771538547 M1221.0542305999963,674.8030771538547 L1221.3947926029107,674.7869904053282 M1221.3947926029107,674.7869904053282 L1221.830276814206,674.8350528717626 M1221.830276814206,674.8350528717626 L1222.3352535415036,674.9444170249769 M1222.3352535415036,674.9444170249769 L1222.8807229874867,675.1088472566266 M1219.5719511442064,671.5152810135958 L1228.7696243430153,663.3555838641619 M1234.694038425486,695.0659446780808 L1216.914033280166,688.9267046453929 M1234.694038425486,695.0659446780808 L1225.4449977301076,703.0758508833906 M1216.914033280166,688.9267046453929 L1207.808342310566,696.9256735278138 M1216.914033280166,688.9267046453929 L1216.9940684630449,688.8566034491832 M1216.9940684630449,688.8566034491832 L1217.0741583775846,688.7863716424042 M1217.0741583775846,688.7863716424042 L1217.1542428127043,688.7160621062601 M1218.3140026546955,758.1672543551433 L1228.2275306812155,749.861589131853 M368.112063757261,446.6833449866227 L371.84193102551194,439.23635927503454 M365.3884220059765,450.4141671648952 L369.12255514448293,442.95142679783373 M170.914940018449,378.7843040105988 L173.58884061818412,371.6471725458476 M174.17141040701722,375.63035142445847 L176.84757191660015,368.50867814244646 M-370.51791277107986,176.0754550961466 L-370.09409875528524,170.1238825094632 M-374.56571879175635,177.86896817886628 L-374.1525366041217,171.90519699748572 M-470.30713125667,142.60480669539652 L-470.1824368924398,136.88647686249766 M-466.2275437427147,141.0108326160754 L-466.09194413975,135.3038752600453 M-549.2493963535686,110.59456322038125 L-549.3377982394919,105.10922629028744 M1234.9380412145867,694.8550109714085 L1234.85669308732,694.9254184113895 M1234.85669308732,694.9254184113895 L1234.775338437302,694.9957472985936 M1234.775338437302,694.9957472985936 L1234.694038425486,695.0659446780808 M-503.15576451326956,93.08786531207886 L-503.1280563224791,88.29740789423033 M-503.1280563224791,88.29740789423033 L-503.0849716193195,88.31611536794605 M-503.0849716193195,88.31611536794605 L-503.05608180090576,88.33778862311988 M-503.05608180090576,88.33778862311988 L-503.04306600706286,88.3611682409254 M-503.04306600706286,88.3611682409254 L-503.0466836650512,88.38489612611716 M-503.0466836650512,88.38489612611716 L-503.06672623131044,88.4075928891346 M-503.06672623131044,88.4075928891346 L-503.1020312825209,88.42793939459807 M-503.1020312825209,88.42793939459807 L-503.1505473540078,88.44475222984579 M-503.1505473540078,88.44475222984579 L-503.2094554401533,88.4570537287209 M-503.2094554401533,88.4570537287209 L-503.275330207749,88.46412805811588 M-503.275330207749,88.46412805811588 L-503.344342459074,88.46556384682879 M-503.344342459074,88.46556384682879 L-503.41247833989814,88.4612773905601 M-503.41247833989814,88.4612773905601 L-503.4757770562345,88.45151839867242 M-503.4757770562345,88.45151839867242 L-503.53055724564103,88.43685415236962 M-503.53055724564103,88.43685415236962 L-503.57363578499894,88.41813814586521 M-503.57363578499894,88.41813814586521 L-503.60250866845695,88.39645826131755 M-503.60250866845695,88.39645826131755 L-503.6155004413804,88.37307550288972 M-503.6155004413804,88.37307550288972 L-503.61185717894614,88.34934868524397 M-503.61185717894614,88.34934868524397 L-503.5917932907262,88.32665695336527 M-503.5917932907262,88.32665695336527 L-503.55647608439824,88.3063182901401 M-503.55647608439824,88.3063182901401 L-503.5079598093761,88.28951431158947 M-503.5079598093761,88.28951431158947 L-503.44906351790314,88.27722065500535 M-503.44906351790314,88.27722065500535 L-503.3832098410278,88.27015135676925 M-503.3832098410278,88.27015135676925 L-503.3142231450827,88.26871663562724 M-503.3142231450827,88.26871663562724 L-503.24611142952915,88.27299995119103 M-503.24611142952915,88.27299995119103 L-503.1828299528438,88.28275231381747 M-503.1828299528438,88.28275231381747 L-503.1280563224791,88.29740789423033 M1213.7008238861497,683.762932109762 L1221.991468345708,676.4416544337566 M1221.991468345708,676.4416544337566 L1222.212943122319,676.5256795880578 M1222.212943122319,676.5256795880578 L1222.4249856690546,676.623034506026 M1222.4249856690546,676.623034506026 L1222.6154182373432,676.7281138053993 M1222.6154182373432,676.7281138053993 L1222.7730000903323,676.834757340732 M1222.7730000903323,676.834757340732 L1222.8883522056651,676.9366939550553 M1222.8883522056651,676.9366939550553 L1222.9553437291613,677.0281968452725 M1222.9553437291613,677.0281968452725 L1222.9695669661508,677.1037702814197 M1222.9695669661508,677.1037702814197 L1222.930184181463,677.1590158360559 M1222.930184181463,677.1590158360559 L1222.8399782803806,677.190885703108 M1222.8399782803806,677.190885703108 L1222.7036062418513,677.1973244868457 M1222.7036062418513,677.1973244868457 L1222.5292113742964,677.1780274964453 M1222.5292113742964,677.1780274964453 L1222.3271110526287,677.1341778609824 M1222.3271110526287,677.1341778609824 L1222.1089212871568,677.0682783336786 M1222.1089212871568,677.0682783336786 L1221.8871221176694,676.9840947558084 M1221.8871221176694,676.9840947558084 L1221.6750578656754,676.8866767047682 M1221.6750578656754,676.8866767047682 L1221.484686919264,676.7815674857698 M1221.484686919264,676.7815674857698 L1221.3274601652618,676.6750106156128 M1221.3274601652618,676.6750106156128 L1221.2120537300827,676.5730454170546 M1221.2120537300827,676.5730454170546 L1221.1452326953333,676.4816172739042 M1221.1452326953333,676.4816172739042 L1221.1311410749975,676.4061282121975 M1221.1311410749975,676.4061282121975 L1221.1705863900895,676.3509572902301 M1221.1705863900895,676.3509572902301 L1221.2609961700502,676.3192118840302 M1221.2609961700502,676.3192118840302 L1221.397044897598,676.312706813223 M1221.397044897598,676.312706813223 L1221.571284735118,676.3319738428288 M1221.571284735118,676.3319738428288 L1221.7732098173926,676.3757603576141 M1221.7732098173926,676.3757603576141 L1221.991468345708,676.4416544337566 M-502.8229829263182,87.62960657483904 L-502.82632078735946,88.19287175804072 M-502.82632078735946,88.19287175804072 L-502.7185991025092,88.23962469398668 M-502.7185991025092,88.23962469398668 L-502.64634215279716,88.29379510790443 M-502.64634215279716,88.29379510790443 L-502.61375792582885,88.35223843119036 M-502.61375792582885,88.35223843119036 L-502.6227539677134,88.41155991339383 M-502.6227539677134,88.41155991339383 L-502.67282057721627,88.46831145677453 M-502.67282057721627,88.46831145677453 L-502.7610595298037,88.51919219935996 M-502.7610595298037,88.51919219935996 L-502.882349315646,88.56124090533513 M-502.882349315646,88.56124090533513 L-503.02964098082384,88.59200906968152 M-503.02964098082384,88.59200906968152 L-503.1943680458255,88.60970440194501 M-503.1943680458255,88.60970440194501 L-503.3669459448264,88.6132958440972 M-503.3669459448264,88.6132958440972 L-503.53733146643003,88.60257390877376 M-503.53733146643003,88.60257390877376 L-503.69560973041735,88.57816375518752 M-503.69560973041735,88.57816375518752 L-503.8325731882876,88.54148743561706 M-503.8325731882876,88.54148743561706 L-503.9402573715231,88.49468082024111 M-503.9402573715231,88.49468082024111 L-504.0124086737526,88.44046890656108 M-504.0124086737526,88.44046890656108 L-504.0448425746598,88.38200602092928 M-504.0448425746598,88.38200602092928 L-504.03568660320923,88.3226911776963 M-504.03568660320923,88.3226911776963 L-503.98548673115624,88.26597107911721 M-503.98548673115624,88.26597107911721 L-503.89717180930984,88.21513935035955 M-503.89717180930984,88.21513935035955 L-503.77588075135725,88.17314599876215 M-503.77588075135725,88.17314599876215 L-503.62866280265575,88.14242684824416 M-503.62866280265575,88.14242684824416 L-503.4640675549564,88.12476296081996 M-503.4640675549564,88.12476296081996 L-503.2916492788879,88.12117822413575 M-503.2916492788879,88.12117822413575 L-503.1214149855548,88.13188046381242 M-503.1214149855548,88.13188046381242 L-502.96324427339357,88.15624925059103 M-502.96324427339357,88.15624925059103 L-502.82632078735946,88.19287175804072 M1222.8807229874867,675.1088472566266 L1221.9034653061424,675.9721488839002 M1221.9034653061424,675.9721488839002 L1222.4569651354684,676.1820601960319 M1222.4569651354684,676.1820601960319 L1222.987142646509,676.4253662242534 M1222.987142646509,676.4253662242534 L1223.4632274412195,676.6879707447129 M1223.4632274412195,676.6879707447129 L1223.8573150736413,676.9545597991043 M1223.8573150736413,676.9545597991043 L1224.1464633088674,677.2096448637787 M1224.1464633088674,677.2096448637787 L1224.3139251265964,677.438426340814 M1224.3139251265964,677.438426340814 L1224.3497304385107,677.6275183470741 M1224.3497304385107,677.6275183470741 L1224.2517278045723,677.7658861539508 M1224.2517278045723,677.7658861539508 L1224.0257258817098,677.8454983763315 M1224.0257258817098,677.8454983763315 L1223.684721879238,677.8616521180327 M1223.684721879238,677.8616521180327 L1223.2485560262546,677.8133922734364 M1223.2485560262546,677.8133922734364 L1222.7428636802126,677.7036101046451 M1222.7428636802126,677.7036101046451 L1222.1970977817462,677.5387092844837 M1222.1970977817462,677.5387092844837 L1221.642748227441,677.328209522967 M1221.642748227441,677.328209522967 L1221.1124349283984,677.084508820479 M1221.1124349283984,677.084508820479 L1220.6367351461279,676.8217172939098 M1220.6367351461279,676.8217172939098 L1220.243465103678,676.555191807761 M1220.243465103678,676.555191807761 L1219.9553796286016,676.3004062629007 M1219.9553796286016,676.3004062629007 L1219.788982568865,676.0720917188787 M1219.788982568865,676.0720917188787 L1219.753999801325,675.8835270144045 M1219.753999801325,675.8835270144045 L1219.8523942779236,675.7456260457061 M1219.8523942779236,675.7456260457061 L1220.0782680116802,675.6663134217276 M1220.0782680116802,675.6663134217276 L1220.4186527197478,675.6502232319858 M1220.4186527197478,675.6502232319858 L1220.8538499911554,675.6982959789805 M1220.8538499911554,675.6982959789805 L1221.3584468786019,675.8076835164791 M1221.3584468786019,675.8076835164791 L1221.9034653061424,675.9721488839002" stroke="black"  stroke-width="4"  fill="red"/>
<path d="M1225.4449977301076,703.0758508833906 L1238.2550801696414,771.9146547235089 M1225.4449977301076,703.0758508833906 L1207.808342310566,696.9256735278138 M1219.4864047110025,765.0016420034717 L1207.808342310566,696.9256735278138 M1238.2550801696414,771.9146547235089 L1219.4864047110025,765.0016420034717 M1234.694038425486,695.0659446780808 L1225.4449977301076,703.0758508833906 M1280.7226161628103,636.1553311741584 L1279.0382355852491,639.6438119182528 M1279.0382355852491,639.6438119182528 L1277.1832123391125,643.1939855482747 M1277.1832123391125,643.1939855482747 L1275.164113171257,646.7930973109383 M1275.164113171257,646.7930973109383 L1272.9882309293523,650.4281360121129 M1272.9882309293523,650.4281360121129 L1270.6633822276533,654.0860422899598 M1270.6633822276533,654.0860422899598 L1268.1981471319116,657.7535338341129 M1268.1981471319116,657.7535338341129 L1265.6015345076828,661.4174210328799 M1265.6015345076828,661.4174210328799 L1262.883027317802,665.0645950918222 M1262.883027317802,665.0645950918222 L1260.0527493435777,668.6819009691112 M1260.0527493435777,668.6819009691112 L1257.1210648920444,672.2565049425589 M1257.1210648920444,672.2565049425589 L1254.0986818541462,675.7758197479275 M1254.0986818541462,675.7758197479275 L1250.9967511576072,679.2274263088441 M1250.9967511576072,679.2274263088441 L1247.8265296935322,682.5993746690765 M1247.8265296935322,682.5993746690765 L1244.5994810639174,685.8800996577525 M1244.5994810639174,685.8800996577525 L1241.3272506957899,689.0584416835645 M1241.3272506957899,689.0584416835645 L1238.0215185312143,692.1237706313523 M1238.0215185312143,692.1237706313523 L1234.694038425486,695.0659446780808 M1280.9616196639734,635.6367588424018 L1280.9019948393168,635.667204907046 M1280.9019948393168,635.667204907046 L1280.8388750362722,635.7109634911253 M1280.8388750362722,635.7109634911253 L1280.775896251096,635.7655206123427 M1280.775896251096,635.7655206123427 L1280.7168166158901,635.8276146222922 M1280.7168166158901,635.8276146222922 L1280.66501042192,635.8936917649564 M1280.66501042192,635.8936917649564 L1280.623536795955,635.9598678094585 M1280.623536795955,635.9598678094585 L1280.5947107986938,636.0223807182012 M1280.5947107986938,636.0223807182012 L1280.5803156668087,636.0775070011782 M1280.5803156668087,636.0775070011782 L1280.5810543052487,636.1221579598723 M1280.5810543052487,636.1221579598723 L1280.5970265893905,636.1536184560998 M1280.5970265893905,636.1536184560998 L1280.6272488972743,636.1701081064668 M1280.6272488972743,636.1701081064668 L1280.6699404494486,636.1706891526162 M1280.6699404494486,636.1706891526162 L1280.7226161628103,636.1553311741584 M1328.0079537410822,575.3165009351408 L1324.441679926879,578.5504805715852 M1324.441679926879,578.5504805715852 L1320.933337272391,581.8726898054247 M1320.933337272391,581.8726898054247 L1317.492193098363,585.2735842123739 M1317.492193098363,585.2735842123739 L1314.1275191698153,588.7432976193684 M1314.1275191698153,588.7432976193684 L1310.8480923434697,592.2721006230554 M1310.8480923434697,592.2721006230554 L1307.6624784255457,595.8501426000203 M1307.6624784255457,595.8501426000203 L1304.578930661438,599.4675683392845 M1304.578930661438,599.4675683392845 L1301.6055410723459,603.1143802104548 M1301.6055410723459,603.1143802104548 L1298.7499439564592,606.7807181294602 M1298.7499439564592,606.7807181294602 L1296.019406160435,610.4567864326409 M1296.019406160435,610.4567864326409 L1293.4211711646806,614.1325553359902 M1293.4211711646806,614.1325553359902 L1290.9618390215935,617.7983126535687 M1290.9618390215935,617.7983126535687 L1288.647840223087,621.4442616345261 M1288.647840223087,621.4442616345261 L1286.4852625255428,625.0606747650106 M1286.4852625255428,625.0606747650106 L1284.4798710472185,628.637885477739 M1284.4798710472185,628.637885477739 L1282.6369967435269,632.1663827273703 M1282.6369967435269,632.1663827273703 L1280.9616196639734,635.6367588424018 M1356.3573163221279,666.5069255899007 L1328.0079537410822,575.3165009351408 M1294.6964942973025,717.376631893779 L1356.3573163221279,666.5069255899007 M1296.3685419625897,724.2357486255141 L1294.6964942973025,717.376631893779 M1238.2550801696414,771.9146547235089 L1296.3685419625897,724.2357486255141 M1234.694038425486,695.0659446780808 L1216.914033280166,688.9267046453929 M1216.914033280166,688.9267046453929 L1207.808342310566,696.9256735278138 M1219.4864047110025,765.0016420034717 L1276.6383323814646,717.376615508957 M1275.0919533819736,710.5980489679475 L1276.6383323814646,717.376615508957 M1275.0919533819736,710.5980489679475 L1335.7146873634754,659.8076409493301 M1309.2195249824315,569.6757986463833 L1335.7146873634754,659.8076409493301 M1309.2195249824315,569.6757986463833 L1305.708388485263,572.9023923925313 M1305.708388485263,572.9023923925313 L1302.2525302346987,576.2161103832386 M1302.2525302346987,576.2161103832386 L1298.8610969974977,579.6074332952087 M1298.8610969974977,579.6074332952087 L1295.5432441085775,583.0665219844368 M1295.5432441085775,583.0665219844368 L1292.307643629835,586.5836750170477 M1292.307643629835,586.5836750170477 L1289.162763713259,590.149071353514 M1289.162763713259,590.149071353514 L1286.1167682406833,593.7528866463813 M1286.1167682406833,593.7528866463813 L1283.1776657286516,597.3851558105337 M1283.1776657286516,597.3851558105337 L1280.3530171345094,601.0360524114369 M1280.3530171345094,601.0360524114369 L1277.650024522631,604.695815752543 M1277.650024522631,604.695815752543 L1275.0758696196733,608.3544529790331 M1275.0758696196733,608.3544529790331 L1272.6371032735694,612.0022898194702 M1272.6371032735694,612.0022898194702 L1270.3401116464313,615.6295691920955 M1270.3401116464313,615.6295691920955 L1268.190945644895,619.226604819426 M1268.190945644895,619.226604819426 L1266.195340514869,622.7837729984576 M1266.195340514869,622.7837729984576 L1264.358606027228,626.2916071441496 M1264.358606027228,626.2916071441496 L1262.6857081249088,629.7407456926039 M1262.4467808498723,630.2560682918493 L1262.3952922833553,630.2716315953794 M1262.3952922833553,630.2716315953794 L1262.3537169571434,630.2713383174191 M1262.3537169571434,630.2713383174191 L1262.3244750291358,630.255202146591 M1262.3244750291358,630.255202146591 L1262.3092899245873,630.2241403188102 M1262.3092899245873,630.2241403188102 L1262.3090986571572,630.1799101240722 M1262.3090986571572,630.1799101240722 L1262.3237718364305,630.1252020732902 M1262.3237718364305,630.1252020732902 L1262.3525882874362,630.0630807529733 M1262.3525882874362,630.0630807529733 L1262.3937670601101,629.9972467778621 M1262.3937670601101,629.9972467778621 L1262.445008738545,629.9314424697893 M1262.445008738545,629.9314424697893 L1262.5032877268989,629.8695361241757 M1262.5032877268989,629.8695361241757 L1262.5652753641673,629.8150707183897 M1262.5652753641673,629.8150707183897 L1262.6272725819606,629.7713023735041 M1262.6272725819606,629.7713023735041 L1262.6857081249088,629.7407456926039 M1216.914033280166,688.9267046453929 L1220.1905200109093,685.9891493119405 M1220.1905200109093,685.9891493119405 L1223.447191154388,682.9298131283954 M1223.447191154388,682.9298131283954 L1226.6724826683683,679.7588216519662 M1226.6724826683683,679.7588216519662 L1229.8548975851443,676.4867823730551 M1229.8548975851443,676.4867823730551 L1232.9829670224537,673.1248258252667 M1232.9829670224537,673.1248258252667 L1236.0453950206359,669.6844819030948 M1236.0453950206359,669.6844819030948 L1239.0310828872605,666.1776591766952 M1239.0310828872605,666.1776591766952 L1241.929029915622,662.6167292177868 M1241.929029915622,662.6167292177868 L1244.7286651388406,659.0142263143218 M1244.7286651388406,659.0142263143218 L1247.419749369002,655.3829258193323 M1247.419749369002,655.3829258193323 L1249.9922737773798,651.7359191478981 M1249.9922737773798,651.7359191478981 L1252.4368540058738,648.0862471105299 M1252.4368540058738,648.0862471105299 L1254.744566121485,644.4470270805143 M1254.744566121485,644.4470270805143 L1256.906902224371,640.8314652339525 M1256.906902224371,640.8314652339525 L1258.9161000230554,637.2525417892994 M1258.9161000230554,637.2525417892994 L1260.7649071973917,633.7231859291089 M1260.7649071973917,633.7231859291089 L1262.4467808498723,630.2560682918493 M1276.6383323814646,717.376615508957 L1296.3685419625897,724.2357486255141 M1280.7226161628103,636.1553311741584 L1262.4467808498723,630.2560682918493 M1280.9616196639734,635.6367588424018 L1262.6857081249088,629.7407456926039 M1328.0079537410822,575.3165009351408 L1309.2195249824315,569.6757986463833 M1356.3573163221279,666.5069255899007 L1335.7146873634754,659.8076409493301 M1294.6964942973025,717.376631893779 L1275.0919533819736,710.5980489679475" stroke="black"  stroke-width="4"  fill="red"/>
<path d="M1213.7008238861497,683.762932109762 L1221.991468345708,676.4416544337566 M1221.991468345708,676.4416544337566 L1222.212943122319,676.5256795880578 M1222.212943122319,676.5256795880578 L1222.4249856690546,676.623034506026 M1222.4249856690546,676.623034506026 L1222.6154182373432,676.7281138053993 M1222.6154182373432,676.7281138053993 L1222.7730000903323,676.834757340732 M1222.7730000903323,676.834757340732 L1222.8883522056651,676.9366939550553 M1222.8883522056651,676.9366939550553 L1222.9553437291613,677.0281968452725 M1222.9553437291613,677.0281968452725 L1222.9695669661508,677.1037702814197 M1222.9695669661508,677.1037702814197 L1222.930184181463,677.1590158360559 M1222.930184181463,677.1590158360559 L1222.8399782803806,677.190885703108 M1222.8399782803806,677.190885703108 L1222.7036062418513,677.1973244868457 M1222.7036062418513,677.1973244868457 L1222.5292113742964,677.1780274964453 M1222.5292113742964,677.1780274964453 L1222.3271110526287,677.1341778609824 M1222.3271110526287,677.1341778609824 L1222.1089212871568,677.0682783336786 M1222.1089212871568,677.0682783336786 L1221.8871221176694,676.9840947558084 M1221.8871221176694,676.9840947558084 L1221.6750578656754,676.8866767047682 M1221.6750578656754,676.8866767047682 L1221.484686919264,676.7815674857698 M1221.484686919264,676.7815674857698 L1221.3274601652618,676.6750106156128 M1221.3274601652618,676.6750106156128 L1221.2120537300827,676.5730454170546 M1221.2120537300827,676.5730454170546 L1221.1452326953333,676.4816172739042 M1221.1452326953333,676.4816172739042 L1221.1311410749975,676.4061282121975 M1221.1311410749975,676.4061282121975 L1221.1705863900895,676.3509572902301 M1221.1705863900895,676.3509572902301 L1221.2609961700502,676.3192118840302 M1221.2609961700502,676.3192118840302 L1221.397044897598,676.312706813223 M1221.397044897598,676.312706813223 L1221.571284735118,676.3319738428288 M1221.571284735118,676.3319738428288 L1221.7732098173926,676.3757603576141 M1221.7732098173926,676.3757603576141 L1221.991468345708,676.4416544337566 M1213.7008238861497,683.762932109762 L1213.4840950769978,683.6969212677245 M1213.4840950769978,683.6969212677245 L1213.2834578812951,683.6530571415597 M1213.2834578812951,683.6530571415597 L1213.1101921344505,683.6337559560243 M1213.1101921344505,683.6337559560243 L1212.974744357871,683.6402725591545 M1212.974744357871,683.6402725591545 L1212.8845308320913,683.6720742390482 M1212.8845308320913,683.6720742390482 L1212.8448651144397,683.7273429395116 M1212.8448651144397,683.7273429395116 L1212.8583303900807,683.8029657468667 M1212.8583303900807,683.8029657468667 L1212.9241553711124,683.8945558097741 M1212.9241553711124,683.8945558097741 L1213.0382557612413,683.9967015046177 M1213.0382557612413,683.9967015046177 L1213.1939427347177,684.103446903735 M1213.1939427347177,684.103446903735 L1213.382626260304,684.2087419948812 M1213.382626260304,684.2087419948812 L1213.5929563407742,684.3063322325263 M1213.5929563407742,684.3063322325263 L1213.8130727565501,684.3906645394111 M1213.8130727565501,684.3906645394111 L1214.0297323546918,684.4566804504282 M1214.0297323546918,684.4566804504282 L1214.2305426553614,684.5006075071128 M1214.2305426553614,684.5006075071128 L1214.4039617348315,684.5199385631824 M1214.4039617348315,684.5199385631824 L1214.5397303172697,684.5134884131844 M1214.5397303172697,684.5134884131844 L1214.6297417608891,684.4815622816307 M1214.6297417608891,684.4815622816307 L1214.6693460940621,684.4262191733378 M1214.6693460940621,684.4262191733378 L1214.6557510774899,684.3505122457295 M1214.6557510774899,684.3505122457295 L1214.5897577826374,684.2588476609387 M1214.5897577826374,684.2588476609387 L1214.4757120470642,684.1567308299766 M1214.4757120470642,684.1567308299766 L1214.3196729327472,684.0498986610123 M1214.3196729327472,684.0498986610123 L1214.1309281514948,683.9446333993549 M1214.1309281514948,683.9446333993549 L1213.9206191039714,683.8471061045868 M1213.9206191039714,683.8471061045868 L1213.7008238861497,683.762932109762 M1221.9034653061424,675.9721488839002 L1222.4569651354684,676.1820601960319 M1222.4569651354684,676.1820601960319 L1222.987142646509,676.4253662242534 M1222.987142646509,676.4253662242534 L1223.4632274412195,676.6879707447129 M1223.4632274412195,676.6879707447129 L1223.8573150736413,676.9545597991043 M1223.8573150736413,676.9545597991043 L1224.1464633088674,677.2096448637787 M1224.1464633088674,677.2096448637787 L1224.3139251265964,677.438426340814 M1224.3139251265964,677.438426340814 L1224.3497304385107,677.6275183470741 M1224.3497304385107,677.6275183470741 L1224.2517278045723,677.7658861539508 M1224.2517278045723,677.7658861539508 L1224.0257258817098,677.8454983763315 M1224.0257258817098,677.8454983763315 L1223.684721879238,677.8616521180327 M1223.684721879238,677.8616521180327 L1223.2485560262546,677.8133922734364 M1223.2485560262546,677.8133922734364 L1222.7428636802126,677.7036101046451 M1222.7428636802126,677.7036101046451 L1222.1970977817462,677.5387092844837 M1222.1970977817462,677.5387092844837 L1221.642748227441,677.328209522967 M1221.642748227441,677.328209522967 L1221.1124349283984,677.084508820479 M1221.1124349283984,677.084508820479 L1220.6367351461279,676.8217172939098 M1220.6367351461279,676.8217172939098 L1220.243465103678,676.555191807761 M1220.243465103678,676.555191807761 L1219.9553796286016,676.3004062629007 M1219.9553796286016,676.3004062629007 L1219.788982568865,676.0720917188787 M1219.788982568865,676.0720917188787 L1219.753999801325,675.8835270144045 M1219.753999801325,675.8835270144045 L1219.8523942779236,675.7456260457061 M1219.8523942779236,675.7456260457061 L1220.0782680116802,675.6663134217276 M1220.0782680116802,675.6663134217276 L1220.4186527197478,675.6502232319858 M1220.4186527197478,675.6502232319858 L1220.8538499911554,675.6982959789805 M1220.8538499911554,675.6982959789805 L1221.3584468786019,675.8076835164791 M1221.3584468786019,675.8076835164791 L1221.9034653061424,675.9721488839002 M1222.8807229874867,675.1088472566266 L1223.4347186348366,675.3187137637917 M1223.4347186348366,675.3187137637917 L1223.9654083131925,675.5619679147574 M1223.9654083131925,675.5619679147574 L1224.4419919279255,675.8245165103015 M1224.4419919279255,675.8245165103015 L1224.8365358462322,676.0910488625047 M1224.8365358462322,676.0910488625047 L1225.1260712582332,676.3460797390715 M1225.1260712582332,676.3460797390715 L1225.293828645404,676.5748126716444 M1225.293828645404,676.5748126716444 L1225.3298204776108,676.7638645949589 M1225.3298204776108,676.7638645949589 L1225.2318843554915,676.9022030940912 M1225.2318843554915,676.9022030940912 L1225.005825124121,676.9817984625417 M1225.005825124121,676.9817984625417 L1224.6646431852612,676.9979487852729 M1224.6646431852612,676.9979487852729 L1224.2281891371629,676.9496991557471 M1224.2281891371629,676.9496991557471 L1223.7221153707244,676.8399402331079 M1223.7221153707244,676.8399402331079 L1223.1758971028942,676.6750743532482 M1223.1758971028942,676.6750743532482 L1222.62105038274,676.4646192337739 M1222.62105038274,676.4646192337739 L1222.0902244165184,676.2209702703951 M1222.0902244165184,676.2209702703951 L1221.6140260834084,675.9582346032842 M1221.6140260834084,675.9582346032842 L1221.220300731671,675.6917658415741 M1221.220300731671,675.6917658415741 L1220.93182953993,675.4370345896612 M1220.93182953993,675.4370345896612 L1220.7651385202828,675.2087687535409 M1220.7651385202828,675.2087687535409 L1220.7299706222855,675.0202443165824 M1220.7299706222855,675.0202443165824 L1220.8282994387193,674.882372819035 M1220.8282994387193,674.882372819035 L1221.0542305999963,674.8030771538547 M1221.0542305999963,674.8030771538547 L1221.3947926029107,674.7869904053282 M1221.3947926029107,674.7869904053282 L1221.830276814206,674.8350528717626 M1221.830276814206,674.8350528717626 L1222.3352535415036,674.9444170249769 M1222.3352535415036,674.9444170249769 L1222.8807229874867,675.1088472566266 M1222.8807229874867,675.1088472566266 L1221.9034653061424,675.9721488839002" stroke="black"  stroke-width="4"  fill="red"/>
<path d="M-511.5176378641727,97.36983606392971 L-553.3306160800676,112.02500323985822 M-511.5176378641727,97.36983606392971 L-515.4038869205448,96.0146402869488 M-557.2142280758463,110.59456350607553 L-515.4038869205448,96.0146402869488 M-553.3306160800676,112.02500323985822 L-557.2142280758463,110.59456350607553 M-553.3306160800676,112.02500323985822 L-553.8912924703812,80.99987966973873 M-553.8912924703812,80.99987966973873 L-549.7484164756913,79.63036515886739 M-549.7484164756913,79.63036515886739 L-550.2623720592073,47.73942173333438 M-550.2623720592073,47.73942173333438 L-490.7474095122137,29.285873681670353 M-490.7474095122137,29.285873681670353 L-490.80718738645646,31.252868645414992 M-490.80718738645646,31.252868645414992 L-490.941975390047,33.2338334383457 M-490.941975390047,33.2338334383457 L-491.15119045687345,35.22294247474218 M-491.15119045687345,35.22294247474218 L-491.43404400026657,37.214230416146165 M-491.43404400026657,37.214230416146165 L-491.78955168562334,39.201876108618706 M-491.78955168562334,39.201876108618706 L-492.21652707692124,41.18005146368472 M-492.21652707692124,41.18005146368472 L-492.71359584287165,43.142991405684825 M-492.71359584287165,43.142991405684825 L-493.2791924754324,45.08491567933345 M-493.2791924754324,45.08491567933345 L-493.9115715640512,47.00020413929781 M-493.9115715640512,47.00020413929781 L-494.60881162361693,48.883355981386046 M-494.60881162361693,48.883355981386046 L-495.36881722115993,50.72880737161694 M-495.36881722115993,50.72880737161694 L-496.18932581917545,52.53128223979013 M-496.18932581917545,52.53128223979013 L-497.06791604801253,54.285541269859834 M-497.06791604801253,54.285541269859834 L-498.0020112955003,55.98648410798745 M-498.0020112955003,55.98648410798745 L-498.98888730727094,57.629146903901415 M-498.98888730727094,57.629146903901415 L-500.0256737625656,59.20876887850255 M-500.0256737625656,59.20876887850255 L-501.10936862274104,60.72075761572444 M-501.10936862274104,60.72075761572444 L-501.0978363725842,60.74753326145935 M-501.0978363725842,60.74753326145935 L-501.0918330162867,60.77922745446796 M-501.0918330162867,60.77922745446796 L-501.0917084313155,60.8140163833167 M-501.0917084313155,60.8140163833167 L-501.09746711932166,60.84982199139273 M-501.09746711932166,60.84982199139273 L-501.1087763917004,60.884596579163144 M-501.1087763917004,60.884596579163144 L-501.1249778358979,60.916291166762164 M-501.1249778358979,60.916291166762164 L-501.14513015879993,60.94311617774332 M-501.14513015879993,60.94311617774332 L-501.1680636304968,60.96345346101401 M-501.1680636304968,60.96345346101401 L-501.1924443067177,60.976194589572174 M-501.1924443067177,60.976194589572174 L-501.2168570475794,60.980521415069234 M-501.2168570475794,60.980521415069234 L-501.2398827304444,60.976213539214996 M-501.2398827304444,60.976213539214996 L-501.2601828064196,60.96353525709554 M-501.2601828064196,60.96353525709554 L-501.27657761581247,60.94322621931491 M-501.27657761581247,60.94322621931491 L-502.3652967785283,62.46247817316049 M-502.3652967785283,62.46247817316049 L-503.4070916535999,64.05060667659382 M-503.4070916535999,64.05060667659382 L-504.3984462112446,65.7023015765077 M-504.3984462112446,65.7023015765077 L-505.33602305238776,67.41199365337008 M-505.33602305238776,67.41199365337008 L-506.21667645332286,69.17396903181327 M-506.21667645332286,69.17396903181327 L-507.03746617900197,70.98223810323645 M-507.03746617900197,70.98223810323645 L-507.79566766604205,72.83072029857118 M-507.79566766604205,72.83072029857118 L-508.48878401575485,74.71321865750076 M-508.48878401575485,74.71321865750076 L-509.11455310511315,76.62332332267238 M-509.11455310511315,76.62332332267238 L-509.6709573653427,78.55463167254902 M-509.6709573653427,78.55463167254902 L-510.15623084188087,80.50068692893228 M-510.15623084188087,80.50068692893228 L-510.5688633125342,82.45491643178013 M-510.5688633125342,82.45491643178013 L-510.9076060198172,84.41081483904884 M-510.9076060198172,84.41081483904884 L-511.17147460375224,86.36188154961667 M-511.17147460375224,86.36188154961667 L-511.35975075167187,88.30162762085035 M-511.35975075167187,88.30162762085035 L-511.47198302513084,90.22365154390366 M-511.47198302513084,90.22365154390366 L-511.50798626157166,92.12160987617864 M-511.50798626157166,92.12160987617864 L-511.5176378641727,97.36983606392971 M-511.50798626157166,92.12160987617864 L-515.4038864164947,90.77639844350614 M-515.4038864164947,90.77639844350614 L-515.4038869205448,96.0146402869488 M-515.4038864164947,90.77639844350614 L-515.3713524820207,88.88210272512839 M-515.3713524820207,88.88210272512839 L-515.2625850798486,86.96387917239747 M-515.2625850798486,86.96387917239747 L-515.0777582490869,85.02805824942135 M-515.0777582490869,85.02805824942135 L-514.8173122995363,83.08102796488043 M-514.8173122995363,83.08102796488043 L-514.4819543496931,81.12926319443233 M-514.4819543496931,81.12926319443233 L-514.0726576333495,79.17925006530766 M-514.0726576333495,79.17925006530766 L-513.5906598573986,77.23747906891577 M-513.5906598573986,77.23747906891577 L-513.0374601491208,75.31050753555053 M-513.0374601491208,75.31050753555053 L-512.4148136563673,73.40477681179215 M-512.4148136563673,73.40477681179215 L-511.72472731336643,71.52667388867923 M-511.72472731336643,71.52667388867923 L-510.96945266460216,69.68259269974595 M-510.96945266460216,69.68259269974595 L-510.1514764891001,67.87871444468533 M-510.1514764891001,67.87871444468533 L-509.27351351164384,66.12110393346103 M-509.27351351164384,66.12110393346103 L-508.33849436087553,64.41573499730538 M-508.33849436087553,64.41573499730538 L-507.34955572832393,62.768306104589044 M-507.34955572832393,62.768306104589044 L-506.3100263125049,61.18437121293505 M-506.3100263125049,61.18437121293505 L-505.22341398679373,59.66922561101467 M-505.22341398679373,59.66922561101467 L-505.20697089851353,59.689511817088885 M-505.20697089851353,59.689511817088885 L-505.1866341371042,59.70218627186671 M-505.1866341371042,59.70218627186671 L-505.1635854990674,59.70650955138967 M-505.1635854990674,59.70650955138967 L-505.1391648935153,59.702216490888304 M-505.1391648935153,59.702216490888304 L-505.1147919584603,59.68952558584897 M-505.1147919584603,59.68952558584897 L-505.09188123972297,59.66925191497768 M-505.09188123972297,59.66925191497768 L-505.07176549716826,59.6425003515331 M-505.07176549716826,59.6425003515331 L-505.055612225133,59.61088466453941 M-505.055612225133,59.61088466453941 L-505.0443600146373,59.57618994936996 M-505.0443600146373,59.57618994936996 L-505.03866391103634,59.540460489361976 M-505.03866391103634,59.540460489361976 L-505.03885302563174,59.50573962697308 M-505.03885302563174,59.50573962697308 L-505.0449190033862,59.47410135068577 M-505.0449190033862,59.47410135068577 L-505.0565083594894,59.447366258898626 M-494.74620988471406,28.085345276491125 L-494.8023588034687,30.048324290567166 M-494.8023588034687,30.048324290567166 L-494.93354155360703,32.02518056925243 M-494.93354155360703,32.02518056925243 L-495.13918596355006,34.01010001633426 M-495.13918596355006,34.01010001633426 L-495.418514392024,35.99712916449647 M-495.418514392024,35.99712916449647 L-495.77055297330435,37.980458546823456 M-495.77055297330435,37.980458546823456 L-496.1941255379834,39.954271900638616 M-496.1941255379834,39.954271900638616 L-496.68786769592134,41.912815975329636 M-496.68786769592134,41.912815975329636 L-497.25022369708404,43.85032251307763 M-497.25022369708404,43.85032251307763 L-497.87945738672386,45.761183194161276 M-497.87945738672386,45.761183194161276 L-498.5736561130924,47.639908961481524 M-498.5736561130924,47.639908961481524 L-499.33073319696564,49.48094802290541 M-499.33073319696564,49.48094802290541 L-500.1484341300138,51.27903595979876 M-500.1484341300138,51.27903595979876 L-501.0243453239416,53.02894522008586 M-501.0243453239416,53.02894522008586 L-501.95589751747775,54.72558713509727 M-501.95589751747775,54.72558713509727 L-502.94037339234274,56.36400947193954 M-502.94037339234274,56.36400947193954 L-503.97490903353105,57.93946288201937 M-503.97490903353105,57.93946288201937 L-505.0565083594894,59.447366258898626 M-494.74620988471406,28.085345276491125 L-554.2597260254233,46.442134838218976 M-553.6883433447263,78.26807255947364 L-554.2597260254233,46.442134838218976 M-553.6883433447263,78.26807255947364 L-557.8306828376769,79.63036543238297 M-557.2142280758463,110.59456350607553 L-557.8306828376769,79.63036543238297 M-557.8306828376769,79.63036543238297 L-553.8912924703812,80.99987966973873 M-501.27657761581247,60.94322621931491 L-505.22341398679373,59.66922561101467 M-501.10936862274104,60.72075761572444 L-505.0565083594894,59.447366258898626 M-490.7474095122137,29.285873681670353 L-494.74620988471406,28.085345276491125 M-550.2623720592073,47.73942173333438 L-554.2597260254233,46.442134838218976 M-549.7484164756913,79.63036515886739 L-553.6883433447263,78.26807255947364" stroke="black"  stroke-width="4"  fill="red"/>
<path d="M-503.15576451326956,93.08786531207886 L-503.1280563224791,88.29740789423033 M-503.1280563224791,88.29740789423033 L-503.0849716193195,88.31611536794605 M-503.0849716193195,88.31611536794605 L-503.05608180090576,88.33778862311988 M-503.05608180090576,88.33778862311988 L-503.04306600706286,88.3611682409254 M-503.04306600706286,88.3611682409254 L-503.0466836650512,88.38489612611716 M-503.0466836650512,88.38489612611716 L-503.06672623131044,88.4075928891346 M-503.06672623131044,88.4075928891346 L-503.1020312825209,88.42793939459807 M-503.1020312825209,88.42793939459807 L-503.1505473540078,88.44475222984579 M-503.1505473540078,88.44475222984579 L-503.2094554401533,88.4570537287209 M-503.2094554401533,88.4570537287209 L-503.275330207749,88.46412805811588 M-503.275330207749,88.46412805811588 L-503.344342459074,88.46556384682879 M-503.344342459074,88.46556384682879 L-503.41247833989814,88.4612773905601 M-503.41247833989814,88.4612773905601 L-503.4757770562345,88.45151839867242 M-503.4757770562345,88.45151839867242 L-503.53055724564103,88.43685415236962 M-503.53055724564103,88.43685415236962 L-503.57363578499894,88.41813814586521 M-503.57363578499894,88.41813814586521 L-503.60250866845695,88.39645826131755 M-503.60250866845695,88.39645826131755 L-503.6155004413804,88.37307550288972 M-503.6155004413804,88.37307550288972 L-503.61185717894614,88.34934868524397 M-503.61185717894614,88.34934868524397 L-503.5917932907262,88.32665695336527 M-503.5917932907262,88.32665695336527 L-503.55647608439824,88.3063182901401 M-503.55647608439824,88.3063182901401 L-503.5079598093761,88.28951431158947 M-503.5079598093761,88.28951431158947 L-503.44906351790314,88.27722065500535 M-503.44906351790314,88.27722065500535 L-503.3832098410278,88.27015135676925 M-503.3832098410278,88.27015135676925 L-503.3142231450827,88.26871663562724 M-503.3142231450827,88.26871663562724 L-503.24611142952915,88.27299995119103 M-503.24611142952915,88.27299995119103 L-503.1828299528438,88.28275231381747 M-503.1828299528438,88.28275231381747 L-503.1280563224791,88.29740789423033 M-503.15576451326956,93.08786531207886 L-503.21041374650565,93.07310947519545 M-503.21041374650565,93.07310947519545 L-503.27355188652336,93.06329039719373 M-503.27355188652336,93.06329039719373 L-503.3415096525234,93.05897777944415 M-503.3415096525234,93.05897777944415 L-503.4103407212681,93.06042231553926 M-503.4103407212681,93.06042231553926 L-503.476046130025,93.06753997471134 M-503.476046130025,93.06753997471134 L-503.53481011889676,93.07991773093863 M-503.53481011889676,93.07991773093863 L-503.5832177430634,93.09683666166688 M-503.5832177430634,93.09683666166688 L-503.6184562635473,93.11731445377245 M-503.6184562635473,93.11731445377245 L-503.6384760101589,93.14016140673448 M-503.6384760101589,93.14016140673448 L-503.64211224757366,93.16405052112583 M-503.64211224757366,93.16405052112583 L-503.62915098544795,93.18759321809233 M-503.62915098544795,93.18759321809233 L-503.60034438256514,93.20942138926085 M-503.60034438256514,93.20942138926085 L-503.55736405050106,93.22826540670815 M-503.55736405050106,93.22826540670815 L-503.5027082878107,93.24302994921266 M-503.5027082878107,93.24302994921266 L-503.43955298623007,93.25285568675355 M-503.43955298623007,93.25285568675355 L-503.3715711640996,93.25717145955264 M-503.3715711640996,93.25717145955264 L-503.30271465516694,93.25572585101077 M-503.30271465516694,93.25572585101077 L-503.23698825054214,93.24860313770091 M-503.23698825054214,93.24860313770091 L-503.1782125197833,93.23621750336429 M-503.1782125197833,93.23621750336429 L-503.12980509777674,93.21928967548718 M-503.12980509777674,93.21928967548718 L-503.0945786771895,93.19880400532537 M-503.0945786771895,93.19880400532537 L-503.0745801561234,93.17595199824541 M-503.0745801561234,93.17595199824541 L-503.0709694076311,93.15206181143225 M-503.0709694076311,93.15206181143225 L-503.0839545825114,93.1285222694325 M-503.0839545825114,93.1285222694325 L-503.11277804432075,93.10670075791637 M-503.11277804432075,93.10670075791637 L-503.15576451326956,93.08786531207886 M-502.82632078735946,88.19287175804072 L-502.7185991025092,88.23962469398668 M-502.7185991025092,88.23962469398668 L-502.64634215279716,88.29379510790443 M-502.64634215279716,88.29379510790443 L-502.61375792582885,88.35223843119036 M-502.61375792582885,88.35223843119036 L-502.6227539677134,88.41155991339383 M-502.6227539677134,88.41155991339383 L-502.67282057721627,88.46831145677453 M-502.67282057721627,88.46831145677453 L-502.7610595298037,88.51919219935996 M-502.7610595298037,88.51919219935996 L-502.882349315646,88.56124090533513 M-502.882349315646,88.56124090533513 L-503.02964098082384,88.59200906968152 M-503.02964098082384,88.59200906968152 L-503.1943680458255,88.60970440194501 M-503.1943680458255,88.60970440194501 L-503.3669459448264,88.6132958440972 M-503.3669459448264,88.6132958440972 L-503.53733146643003,88.60257390877376 M-503.53733146643003,88.60257390877376 L-503.69560973041735,88.57816375518752 M-503.69560973041735,88.57816375518752 L-503.8325731882876,88.54148743561706 M-503.8325731882876,88.54148743561706 L-503.9402573715231,88.49468082024111 M-503.9402573715231,88.49468082024111 L-504.0124086737526,88.44046890656108 M-504.0124086737526,88.44046890656108 L-504.0448425746598,88.38200602092928 M-504.0448425746598,88.38200602092928 L-504.03568660320923,88.3226911776963 M-504.03568660320923,88.3226911776963 L-503.98548673115624,88.26597107911721 M-503.98548673115624,88.26597107911721 L-503.89717180930984,88.21513935035955 M-503.89717180930984,88.21513935035955 L-503.77588075135725,88.17314599876215 M-503.77588075135725,88.17314599876215 L-503.62866280265575,88.14242684824416 M-503.62866280265575,88.14242684824416 L-503.4640675549564,88.12476296081996 M-503.4640675549564,88.12476296081996 L-503.2916492788879,88.12117822413575 M-503.2916492788879,88.12117822413575 L-503.1214149855548,88.13188046381242 M-503.1214149855548,88.13188046381242 L-502.96324427339357,88.15624925059103 M-502.96324427339357,88.15624925059103 L-502.82632078735946,88.19287175804072 M-502.8229829263182,87.62960657483904 L-502.7152323547948,87.67632176945949 M-502.7152323547948,87.67632176945949 L-502.6429558787256,87.73044845704953 M-502.6429558787256,87.73044845704953 L-502.6103626251946,87.7888446082402 M-502.6103626251946,87.7888446082402 L-502.6193606719771,87.84811821307585 M-502.6193606719771,87.84811821307585 L-502.6694402084403,87.9048239565684 M-502.6694402084403,87.9048239565684 L-502.75770226487236,87.9556636399106 M-502.75770226487236,87.9556636399106 L-502.87902399224595,87.99767841580558 M-502.87902399224595,87.99767841580558 L-503.02635458037,88.02842175373462 M-503.02635458037,88.02842175373462 L-503.1911252843199,88.04610280830587 M-503.1911252843199,88.04610280830587 L-503.36374899617374,88.04969135269829 M-503.36374899617374,88.04969135269829 L-503.5341798348177,88.0389780684211 M-503.5341798348177,88.0389780684211 L-503.69250027955513,88.01458761072007 M-503.69250027955513,88.01458761072007 L-503.8295003256376,87.97794088539996 M-503.8295003256376,87.97794088539996 L-503.9372133760122,87.93117204041812 M-503.9372133760122,87.93117204041812 L-504.0093841487012,87.87700387556976 M-504.0093841487012,87.87700387556976 L-504.0418269965189,87.81858817261548 M-504.0418269965189,87.81858817261548 L-504.03266893518094,87.75932120316179 M-504.03266893518094,87.75932120316179 L-503.982456065213,87.7026468874327 M-503.982456065213,87.7026468874327 L-503.89411799888285,87.6518561913602 M-503.89411799888285,87.6518561913602 L-503.77279499838573,87.60989673984938 M-503.77279499838573,87.60989673984938 L-503.6255381655824,87.5792023891907 M-503.6255381655824,87.5792023891907 L-503.46089934873817,87.56155276242066 M-503.46089934873817,87.56155276242066 L-503.2884353445618,87.55797091985409 M-503.2884353445618,87.55797091985409 L-503.1181558145595,87.56866451917426 M-503.1181558145595,87.56866451917426 L-502.9599429790626,87.59301363246436 M-502.9599429790626,87.59301363246436 L-502.8229829263182,87.62960657483904 M-502.8229829263182,87.62960657483904 L-502.82632078735946,88.19287175804072" stroke="black"  stroke-width="4"  fill="red"/>
<path d="M-553.6883433447263,78.26807255947364 L-557.8306828376769,79.63036543238297 M-557.8306828376769,79.63036543238297 L-558.4655878300553,47.739421993808776 M-554.2597260254233,46.442134838218976 L-558.4655878300553,47.739421993808776 M-553.6883433447263,78.26807255947364 L-554.2597260254233,46.442134838218976 M-553.3306160800676,112.02500323985822 L-470.30713125667,142.60480669539652 M-470.30713125667,142.60480669539652 L-470.1824368924398,136.88647686249766 M-470.1824368924398,136.88647686249766 L-374.1525366041217,171.90519699748572 M-374.56571879175635,177.86896817886628 L-374.1525366041217,171.90519699748572 M-374.56571879175635,177.86896817886628 L170.914940018449,378.7843040105988 M170.914940018449,378.7843040105988 L173.58884061818412,371.6471725458476 M173.58884061818412,371.6471725458476 L369.12255514448293,442.95142679783373 M365.3884220059765,450.4141671648952 L369.12255514448293,442.95142679783373 M365.3884220059765,450.4141671648952 L1219.4864047110025,765.0016420034717 M1219.4864047110025,765.0016420034717 L1276.6383323814646,717.376615508957 M1276.6383323814646,717.376615508957 L1296.3685419625897,724.2357486255141 M1296.3685419625897,724.2357486255141 L1358.4655878300553,673.2885304159636 M-558.4655878300553,47.739421993808776 L1358.4655878300553,673.2885304159636 M-557.8306828376769,79.63036543238297 L-553.8912924703812,80.99987966973873 M-553.3306160800676,112.02500323985822 L-553.8912924703812,80.99987966973873 M1294.6964942973025,717.376631893779 L1275.0919533819736,710.5980489679475 M1218.3140026546955,758.1672543551433 L1275.0919533819736,710.5980489679475 M1218.3140026546955,758.1672543551433 L368.112063757261,446.6833449866227 M368.112063757261,446.6833449866227 L371.84193102551194,439.23635927503454 M371.84193102551194,439.23635927503454 L176.84757191660015,368.50867814244646 M174.17141040701722,375.63035142445847 L176.84757191660015,368.50867814244646 M174.17141040701722,375.63035142445847 L-370.51791277107986,176.0754550961466 M-370.51791277107986,176.0754550961466 L-370.09409875528524,170.1238825094632 M-370.09409875528524,170.1238825094632 L-466.09194413975,135.3038752600453 M-466.2275437427147,141.0108326160754 L-466.09194413975,135.3038752600453 M-466.2275437427147,141.0108326160754 L-549.2493963535686,110.59456322038125 M-549.2493963535686,110.59456322038125 L-549.7484164756913,79.63036515886739 M-549.7484164756913,79.63036515886739 L-553.6883433447263,78.26807255947364 M1356.3573163221279,666.5069255899007 L-554.2597260254233,46.442134838218976 M1294.6964942973025,717.376631893779 L1356.3573163221279,666.5069255899007 M-553.3306160800676,112.02500323985822 L-549.2493963535686,110.59456322038125 M-553.8912924703812,80.99987966973873 L-549.7484164756913,79.63036515886739 M-466.2275437427147,141.0108326160754 L-470.30713125667,142.60480669539652 M-466.09194413975,135.3038752600453 L-470.1824368924398,136.88647686249766 M-374.56571879175635,177.86896817886628 L-370.51791277107986,176.0754550961466 M-374.1525366041217,171.90519699748572 L-370.09409875528524,170.1238825094632 M174.17141040701722,375.63035142445847 L170.914940018449,378.7843040105988 M176.84757191660015,368.50867814244646 L173.58884061818412,371.6471725458476 M365.3884220059765,450.4141671648952 L368.112063757261,446.6833449866227 M369.12255514448293,442.95142679783373 L371.84193102551194,439.23635927503454 M1218.3140026546955,758.1672543551433 L1219.4864047110025,765.0016420034717 M1275.0919533819736,710.5980489679475 L1276.6383323814646,717.376615508957 M1296.3685419625897,724.2357486255141 L1294.6964942973025,717.376631893779 M1358.4655878300553,673.2885304159636 L1356.3573163221279,666.5069255899007" stroke="black"  stroke-width="4"  fill="red"/></svg>