<svg viewBox="0 0 800 800" xmlns="http://www.w3.org/2000/svg"><path d="M-234.8783460883983,33.05546603087316 L-252.07854521941567,42.5057234865418 M-252.07854485115536,38.678650693032125 L-252.07854521941567,42.5057234865418 M-252.07854485115536,38.678650693032125 L-252.07864169929599,38.64516986615541 M-252.07864169929599,38.64516986615541 L-252.07869980983332,38.61166660878911 M-252.07869980983332,38.61166660878911 L-252.0787191805033,38.578137769322154 M-234.84139857671255,29.151773016251468 L-252.0787191805033,38.578137769322154 M-234.8783460883983,33.05546603087316 L-234.84139857671255,29.151773016251468 M1025.1500820096185,744.2497276116494 L1014.0292680834443,738.1396512108295 M1003.7574679954257,798.2089173491286 L1014.0292680834443,738.1396512108295 M1003.7574679954257,798.2089173491286 L437.43530015794977,473.6913382771072 M434.67311015136215,477.87521480745977 L437.43530015794977,473.6913382771072 M292.7298584101602,396.16850540503344 L434.67311015136215,477.87521480745977 M295.7515575202083,392.5028067911592 L292.7298584101602,396.16850540503344 M295.7515575202083,392.5028067911592 L-130.8559878071933,148.04540129677224 M-134.29895736522235,150.35816268696777 L-130.8559878071933,148.04540129677224 M-214.00776210353672,104.47543092144099 L-134.29895736522235,150.35816268696777 M-210.54597165690075,102.38093307730264 L-214.00776210353672,104.47543092144099 M-210.54597165690075,102.38093307730264 L-280.898957871878,62.066811427867606 M-248.75738663442553,44.330457973445505 L-280.898957871878,62.066811427867606 M-248.75738663442553,44.330457973445505 L-252.07854521941567,42.5057234865418 M1030.2948767477676,712.7074540964113 L-234.8783460883983,33.05546603087316 M1025.1500820096185,744.2497276116494 L1030.2948767477676,712.7074540964113 M-241.59918474023686,38.56030352799036 L-241.64590009580115,38.540396079700315 M-241.64590009580115,38.540396079700315 L-241.6998928587385,38.52714884081814 M-241.6998928587385,38.52714884081814 L-241.75802504930698,38.52133052493883 M-241.75802504930698,38.52133052493883 L-241.8169206645531,38.5232794047966 M-241.8169206645531,38.5232794047966 L-241.87315770499276,38.532882093361934 M-241.87315770499276,38.532882093361934 L-241.9234700534597,38.549581278319806 M-241.9234700534597,38.549581278319806 L-241.9649337910755,38.57240690952824 M-241.9649337910755,38.57240690952824 L-241.9951396592444,38.60003358266914 M-241.9951396592444,38.60003358266914 L-242.01233084636203,38.63085613666607 M-242.01233084636203,38.63085613666607 L-242.01550741081542,38.663084248035204 M-242.01550741081542,38.663084248035204 L-242.00448273029815,38.6948446073568 M-242.00448273029815,38.6948446073568 L-241.97989682883917,38.72429161561058 M-241.97989682883917,38.72429161561058 L-241.94317656621467,38.749712608763446 M-241.94317656621467,38.749712608763446 L-241.8964564279595,38.76963011834022 M-241.8964564279595,38.76963011834022 L-241.8424511186738,38.78288504382675 M-241.8424511186738,38.78288504382675 L-241.7843013264826,38.78870700134195 M-241.7843013264826,38.78870700134195 L-241.7253870863217,38.78675688363967 M-241.7253870863217,38.78675688363967 L-241.669134664666,38.777148361464015 M-241.669134664666,38.777148361464015 L-241.61881370215713,38.76044008339795 M-241.61881370215713,38.76044008339795 L-241.57735009115072,38.73760418288123 M-241.57735009115072,38.73760418288123 L-241.5471530612391,38.709968416693414 M-241.5471530612391,38.709968416693414 L-241.529977399181,38.67914002910902 M-241.529977399181,38.67914002910902 L-241.52681949016392,38.64691067992419 M-241.52681949016392,38.64691067992419 L-241.5378616825103,38.61515396214293 M-241.5378616825103,38.61515396214293 L-241.56245994078142,38.585714640624246 M-241.56245994078142,38.585714640624246 L-241.59918474023686,38.56030352799036 M1022.2824984244912,725.0034747824568 L1022.1425043293073,724.9373926735425 M1022.1425043293073,724.9373926735425 L1022.0077447937551,724.8934800584932 M1022.0077447937551,724.8934800584932 L1021.8858133496058,724.8741572503832 M1021.8858133496058,724.8741572503832 L1021.7840365664788,724.8806811734514 M1021.7840365664788,724.8806811734514 L1021.7080413861279,724.912518289121 M1021.7080413861279,724.912518289121 L1021.6622881154506,724.9678474436109 M1021.6622881154506,724.9678474436109 L1021.6496104903445,725.043550643622 M1021.6496104903445,725.043550643622 L1021.6707495912383,725.135234476285 M1021.6707495912383,725.135234476285 L1021.7243104021188,725.2374800998055 M1021.7243104021188,725.2374800998055 L1021.8071410212931,725.3443246906588 M1021.8071410212931,725.3443246906588 L1021.91471710715,725.4497123827055 M1021.91471710715,725.4497123827055 L1022.0405426336963,725.5473837959414 M1022.0405426336963,725.5473837959414 L1022.1775373703977,725.6317826481193 M1022.1775373703977,725.6317826481193 L1022.3174556220474,725.6978483208704 M1022.3174556220474,725.6978483208704 L1022.4522953046135,725.7418073552051 M1022.4522953046135,725.7418073552051 L1022.5743034418281,725.7611521966442 M1022.5743034418281,725.7611521966442 L1022.6762769501636,725.7546974664185 M1022.6762769501636,725.7546974664185 L1022.7521526632374,725.7227483765944 M1022.7521526632374,725.7227483765944 L1022.7978889909994,725.6673643368379 M1022.7978889909994,725.6673643368379 L1022.8105146889343,725.5915990874075 M1022.8105146889343,725.5915990874075 L1022.789300597108,725.4998602853454 M1022.789300597108,725.4998602853454 L1022.7358002474691,725.3976561278025 M1022.7358002474691,725.3976561278025 L1022.6527603616485,725.2907273579308 M1022.6527603616485,725.2907273579308 L1022.5451444353669,725.1853616689395 M1022.5451444353669,725.1853616689395 L1022.4193164630594,725.0877366841084 M1022.4193164630594,725.0877366841084 L1022.2824984244912,725.0034747824568 M-248.7503403601214,40.498924200553176 L-252.07854485115536,38.678650693032125 M-248.7503403601214,40.498924200553176 L-248.75738663442553,44.330457973445505 M-248.7503294609901,40.39829394426749 L-248.7503718391232,40.43186199357183 M-248.7503718391232,40.43186199357183 L-248.75037546947738,40.465404360566595 M-248.75037546947738,40.465404360566595 L-248.7503403601214,40.498924200553176 M-252.0787191805033,38.578137769322154 L-248.7503294609901,40.39829394426749 M1019.0671998255705,733.7143113283066 L1030.2525704747732,739.8311195063995 M1030.2525704747732,739.8311195063995 L1035.3127409409378,708.2558660405798 M1035.3127409409378,708.2558660405798 L-234.84139857671255,29.151773016251468 M-248.7503294609901,40.39829394426749 L-280.9630331287767,58.090941803579994 M-280.9630331287767,58.090941803579994 L-210.4492916791844,98.31197934923176 M-210.4492916791844,98.31197934923176 L-213.91893371079027,100.40187032881556 M-213.91893371079027,100.40187032881556 L-134.0101346498933,146.18936587588547 M-134.0101346498933,146.18936587588547 L-130.55944932852833,143.88114477210166 M-130.55944932852833,143.88114477210166 L297.43925023149916,388.0115994977249 M297.43925023149916,388.0115994977249 L294.41342876779834,391.67474712029696 M294.41342876779834,391.67474712029696 L436.94107198712254,473.34264735073145 M436.94107198712254,473.34264735073145 L439.7048887838898,469.1599185634823 M439.7048887838898,469.1599185634823 L1008.9508736774706,793.857823687174 M1019.0671998255705,733.7143113283066 L1008.9508736774706,793.857823687174 M-241.3180791755865,34.50094070541047 L-241.2260597663335,34.56428930783545 M-241.2260597663335,34.56428930783545 L-241.16440530057503,34.63768629754696 M-241.16440530057503,34.63768629754696 L-241.13670522722464,34.716870317502355 M-241.13670522722464,34.716870317502355 L-241.1445796580299,34.7972415391157 M-241.1445796580299,34.7972415391157 L-241.18758048721747,34.87412844569815 M-241.18758048721747,34.87412844569815 L-241.26321705381406,34.94305955955525 M-241.26321705381406,34.94305955955525 L-241.36709848051441,35.000023941631525 M-241.36709848051441,35.000023941631525 L-241.49318750150542,35.04170547092855 M-241.49318750150542,35.04170547092855 L-241.63415155494,35.065676958835866 M-241.63415155494,35.065676958835866 L-241.78179010575082,35.070542180174186 M-241.78179010575082,35.070542180174186 L-241.9275129826715,35.05601746040759 M-241.9275129826715,35.05601746040759 L-242.0628420467832,35.02294935700081 M-242.0628420467832,35.02294935700081 L-242.1799059208413,34.97326361047374 M-242.1799059208413,34.97326361047374 L-242.2718977296637,34.90985280341329 M-242.2718977296637,34.90985280341329 L-242.33347479959616,34.83640769998709 M-242.33347479959616,34.83640769998709 L-242.36106478387023,34.75720101912657 M-242.36106478387023,34.75720101912657 L-242.35307333537844,34.676837485965905 M-242.35307333537844,34.676837485965905 L-242.30997505324842,34.599987025781445 M-242.30997505324842,34.599987025781445 L-242.23428300701312,34.53111272186874 M-242.23428300701312,34.53111272186874 L-242.13040078385143,34.47421249881029 M-242.13040078385143,34.47421249881029 L-242.0043658320426,34.432587779455275 M-242.0043658320426,34.432587779455275 L-241.86349832668532,34.40865273798619 M-241.86349832668532,34.40865273798619 L-241.71597660157568,34.40379529519345 M-241.71597660157568,34.40379529519345 L-241.5703643785988,34.418297173515725 M-241.5703643785988,34.418297173515725 L-241.4351139026155,34.451317343351604 M-241.4351139026155,34.451317343351604 L-241.3180791755865,34.50094070541047 M1027.3871865783337,720.0926343801573 L1027.731211731186,720.3033918995181 M1027.731211731186,720.3033918995181 L1028.0479074581106,720.5476525463619 M1028.0479074581106,720.5476525463619 L1028.3188862765921,720.8112558293903 M1028.3188862765921,720.8112558293903 L1028.5282494875985,721.0788252783245 M1028.5282494875985,721.0788252783245 L1028.6638124345102,721.3348168168789 M1028.6638124345102,721.3348168168789 L1028.7177468296543,721.5643850003853 M1028.7177468296543,721.5643850003853 L1028.6867848798063,721.75410846781 M1028.6867848798063,721.75410846781 L1028.5726978757175,721.8929275861233 M1028.5726978757175,721.8929275861233 L1028.3821996916295,721.9727953575691 M1028.3821996916295,721.9727953575691 L1028.1262792838024,721.9890005842374 M1028.1262792838024,721.9890005842374 L1027.8198204451955,721.9405865587062 M1027.8198204451955,721.9405865587062 L1027.4808036535605,721.8304495374941 M1027.4808036535605,721.8304495374941 L1027.128955774109,721.6650049477562 M1027.128955774109,721.6650049477562 L1026.7845637022754,721.4537922858212 M1026.7845637022754,721.4537922858212 L1026.4678823665245,721.2092399512605 M1026.4678823665245,721.2092399512605 L1026.197153996377,720.9454984595964 M1026.197153996377,720.9454984595964 L1025.9882198900934,720.677975991375 M1025.9882198900934,720.677975991375 L1025.853166356702,720.4222058157629 M1025.853166356702,720.4222058157629 L1025.799705124891,720.192982723448 M1025.799705124891,720.192982723448 L1025.830995452466,720.0036489632387 M1025.830995452466,720.0036489632387 L1025.9451908001226,719.8651748658874 M1025.9451908001226,719.8651748658874 L1026.1355526719835,719.785528515305 M1026.1355526719835,719.785528515305 L1026.391123139101,719.7693702572744 M1026.391123139101,719.7693702572744 L1026.6970985558235,719.8176460066659 M1026.6970985558235,719.8176460066659 L1027.0356094156177,719.9274913720908 M1027.0356094156177,719.9274913720908 L1027.3871865783337,720.0926343801573 M1030.2948767477676,712.7074540964113 L1035.3127409409378,708.2558660405798 M1030.1216880642228,739.9441893943692 L1018.9379780476395,733.8275547002495 M1030.1216880642228,739.9441893943692 L1025.1500820096185,744.2497276116494 M1018.9379780476395,733.8275547002495 L1014.0292680834443,738.1396512108295 M1018.9379780476395,733.8275547002495 L1018.9810357394986,733.7898817287282 M1018.9810357394986,733.7898817287282 L1019.0241083164867,733.752135125226 M1019.0241083164867,733.752135125226 L1019.0671998255705,733.7143113283066 M1003.7574679954257,798.2089173491286 L1008.9508736774706,793.857823687174 M437.43530015794977,473.6913382771072 L439.7048887838898,469.1599185634823 M434.67311015136215,477.87521480745977 L436.94107198712254,473.34264735073145 M292.7298584101602,396.16850540503344 L294.41342876779834,391.67474712029696 M295.7515575202083,392.5028067911592 L297.43925023149916,388.0115994977249 M-130.8559878071933,148.04540129677224 L-130.55944932852833,143.88114477210166 M-134.29895736522235,150.35816268696777 L-134.0101346498933,146.18936587588547 M-214.00776210353672,104.47543092144099 L-213.91893371079027,100.40187032881556 M-210.54597165690075,102.38093307730264 L-210.4492916791844,98.31197934923176 M-280.898957871878,62.066811427867606 L-280.9630331287767,58.090941803579994 M1030.2525704747732,739.8311195063995 L1030.208925810844,739.8688860470174 M1030.208925810844,739.8688860470174 L1030.1652997069286,739.9065748242879 M1030.1652997069286,739.9065748242879 L1030.1216880642228,739.9441893943692 M-241.59918474023686,38.56030352799036 L-241.57890811574885,35.05468647336545 M-241.57890811574885,35.05468647336545 L-241.54211163855348,35.08003998595757 M-241.54211163855348,35.08003998595757 L-241.51746506455663,35.10941258031562 M-241.51746506455663,35.10941258031562 L-241.50640072840656,35.141097322814346 M-241.50640072840656,35.141097322814346 L-241.50956395979824,35.17325363027953 M-241.50956395979824,35.17325363027953 L-241.52677210647687,35.204012155647774 M-241.52677210647687,35.204012155647774 L-241.5570269014289,35.23158529835791 M-241.5570269014289,35.23158529835791 L-241.5985702025955,35.25436945469852 M-241.5985702025955,35.25436945469852 L-241.648988150057,35.271039874777045 M-241.648988150057,35.271039874777045 L-241.70534921089438,35.28062662633363 M-241.70534921089438,35.28062662633363 L-241.76437742732764,35.28257232558656 M-241.76437742732764,35.28257232558656 L-241.822639901299,35.27676355913479 M-241.822639901299,35.27676355913479 L-241.8767500451571,35.26353866649595 M-241.8767500451571,35.26353866649595 L-241.92356107203545,35.243666287294104 M-241.92356107203545,35.243666287294104 L-241.96035299538335,35.218302897324804 M-241.96035299538335,35.218302897324804 L-241.98498716488257,35.18892261881166 M-241.98498716488257,35.18892261881166 L-241.99603392145093,35.15723423599479 M-241.99603392145093,35.15723423599479 L-241.99285196232324,35.12507916592989 M-241.99285196232324,35.12507916592989 L-241.9756282303024,35.09432647219103 M-241.9756282303024,35.09432647219103 L-241.9453645626363,35.06676241947599 M-241.9453645626363,35.06676241947599 L-241.90382113412397,35.04398852899686 M-241.90382113412397,35.04398852899686 L-241.85341183385685,35.027327198974604 M-241.85341183385685,35.027327198974604 L-241.79706621368155,35.01774627907025 M-241.79706621368155,35.01774627907025 L-241.73805669428532,35.01580181724654 M-241.73805669428532,35.01580181724654 L-241.6798118902118,35.02160694328461 M-241.6798118902118,35.02160694328461 L-241.6257143414898,35.034824151899045 M-241.6257143414898,35.034824151899045 L-241.57890811574885,35.05468647336545 M1022.2824984244912,725.0034747824568 L1026.7801129023455,721.0317347527623 M1026.7801129023455,721.0317347527623 L1026.9176636541242,721.1160734528664 M1026.9176636541242,721.1160734528664 L1027.0442252277728,721.2137874568075 M1027.0442252277728,721.2137874568075 L1027.1525334806443,721.319249272881 M1027.1525334806443,721.319249272881 L1027.236183622838,721.4262756485355 M1027.236183622838,721.4262756485355 L1027.2901759689641,721.5285731487786 M1027.2901759689641,721.5285731487786 L1027.311737049899,721.6203957768523 M1027.311737049899,721.6203957768523 L1027.2992914891859,721.6962302859645 M1027.2992914891859,721.6962302859645 L1027.2535579325374,721.7516649710751 M1027.2535579325374,721.7516649710751 L1027.1775090534607,721.783643282884 M1027.1775090534607,721.783643282884 L1027.0751946118278,721.7901039174533 M1027.0751946118278,721.7901039174533 L1026.9526982951968,721.7707413812611 M1026.9526982951968,721.7707413812611 L1026.8172521597423,721.7267421439949 M1026.8172521597423,721.7267421439949 L1026.6766440164272,721.6606160674537 M1026.6766440164272,721.6606160674537 L1026.538915410321,721.5761400789413 M1026.538915410321,721.5761400789413 L1026.412356161604,721.4783794401769 M1026.412356161604,721.4783794401769 L1026.3040879654698,721.3728955232236 M1026.3040879654698,721.3728955232236 L1026.2206483194595,721.2659534298502 M1026.2206483194595,721.2659534298502 L1026.1665954620614,721.1636145502669 M1026.1665954620614,721.1636145502669 L1026.1451100659729,721.0718471359835 M1026.1451100659729,721.0718471359835 L1026.1576081057156,720.9960749521597 M1026.1576081057156,720.9960749521597 L1026.2033588883962,720.9406953963321 M1026.2033588883962,720.9406953963321 L1026.2795279118704,720.9088292855163 M1026.2795279118704,720.9088292855163 L1026.3816445320429,720.9022994214695 M1026.3816445320429,720.9022994214695 L1026.5040635476428,720.9216398263738 M1026.5040635476428,720.9216398263738 L1026.6394288311392,720.9655924379767 M1026.6394288311392,720.9655924379767 L1026.7801129023455,721.0317347527623 M-241.3180791755865,34.50094070541047 L-241.320521050342,34.913007898870546 M-241.320521050342,34.913007898870546 L-241.22852271023032,34.97637349640837 M-241.22852271023032,34.97637349640837 L-241.1668824550418,35.04979017426763 M-241.1668824550418,35.04979017426763 L-241.13918890490015,35.12899543139804 M-241.13918890490015,35.12899543139804 L-241.14706178798872,35.20938820509542 M-241.14706178798872,35.20938820509542 L-241.19005308404485,35.286295726120045 M-241.19005308404485,35.286295726120045 L-241.2656726823193,35.35524531861881 M-241.2656726823193,35.35524531861881 L-241.3695306894507,35.412224969409976 M-241.3695306894507,35.412224969409976 L-241.4955912006651,35.45391766988888 M-241.4955912006651,35.45391766988888 L-241.636523313108,35.47789558203152 M-241.636523313108,35.47789558203152 L-241.78412835173776,35.48276210718586 M-241.78412835173776,35.48276210718586 L-241.92981809742332,35.46823349494514 M-241.92981809742332,35.46823349494514 L-242.06511634096614,35.43515652920058 M-242.06511634096614,35.43515652920058 L-242.18215349932734,35.38545746564199 M-242.18215349932734,35.38545746564199 L-242.27412425132388,35.32202966093155 M-242.27412425132388,35.32202966093155 L-242.33568714572107,35.24856486735894 M-242.33568714572107,35.24856486735894 L-242.3632706566575,35.169336948412024 M-242.3632706566575,35.169336948412024 L-242.3552808090409,35.08895186347331 M-242.3552808090409,35.08895186347331 L-242.3121921043819,35.01208079034524 M-242.3121921043819,35.01208079034524 L-242.2365170518126,34.94318801012662 M-242.2365170518126,34.94318801012662 L-242.13265824876203,34.88627252099127 M-242.13265824876203,34.88627252099127 L-242.00665178234613,34.84463663279007 M-242.00665178234613,34.84463663279007 L-241.86581617425713,34.820695168584166 M-241.86581617425713,34.820695168584166 L-241.7183279083008,34.81583642230555 M-241.7183279083008,34.81583642230555 L-241.57274876630356,34.830342192142325 M-241.57274876630356,34.830342192142325 L-241.43752907504256,34.863371222365686 M-241.43752907504256,34.863371222365686 L-241.320521050342,34.913007898870546 M1027.3871865783337,720.0926343801573 L1026.8576583624927,720.5604153750262 M1026.8576583624927,720.5604153750262 L1027.2014676015015,720.7711505980644 M1027.2014676015015,720.7711505980644 L1027.517946996799,721.0153853739348 M1027.517946996799,721.0153853739348 L1027.7887216191612,721.2789607007987 M1027.7887216191612,721.2789607007987 L1027.997904727599,721.5465017341828 M1027.997904727599,721.5465017341828 L1028.133322152577,721.8024660501974 M1028.133322152577,721.8024660501974 L1028.1871540497611,722.0320097906667 M1028.1871540497611,722.0320097906667 L1028.1561386825433,722.2217130357865 M1028.1561386825433,722.2217130357865 L1028.0420504811243,722.3605173451663 M1028.0420504811243,722.3605173451663 L1027.8516033513467,722.4403765917223 M1027.8516033513467,722.4403765917223 L1027.5957833358623,722.4565800882594 M1027.5957833358623,722.4565800882594 L1027.289468381583,722.4081712311661 M1027.289468381583,722.4081712311661 L1026.950630487734,722.2980459628654 M1026.950630487734,722.2980459628654 L1026.5989860894847,722.1326190155717 M1026.5989860894847,722.1326190155717 L1026.2548103352133,721.9214288549367 M1026.2548103352133,721.9214288549367 L1025.9383454208626,721.6769025430845 M1025.9383454208626,721.6769025430845 L1025.6678210876494,721.4131890794813 M1025.6678210876494,721.4131890794813 L1025.4590667122616,721.145695002371 M1025.4590667122616,721.145695002371 L1025.3241582018413,720.8899519341458 M1025.3241582018413,720.8899519341458 L1025.270798955908,720.6607531053517 M1025.270798955908,720.6607531053517 L1025.3021422930956,720.4714393647214 M1025.3021422930956,720.4714393647214 L1025.4163386280918,720.3329798968239 M1025.4163386280918,720.3329798968239 L1025.6066494813135,720.2533419559481 M1025.6066494813135,720.2533419559481 L1025.8621198294616,720.2371854036155 M1025.8621198294616,720.2371854036155 L1026.1679518103326,720.2854560565004 M1026.1679518103326,720.2854560565004 L1026.5062842929271,720.3952898207333 M1026.5062842929271,720.3952898207333 L1026.8576583624927,720.5604153750262" stroke="black"  stroke-width="4"  fill="red"/>
<path d="M1025.1500820096185,744.2497276116494 L1014.1874394093977,811.4607027710565 M1025.1500820096185,744.2497276116494 L1014.0292680834443,738.1396512108295 M1002.6291321296583,804.8074012403044 L1014.0292680834443,738.1396512108295 M1014.1874394093977,811.4607027710565 L1002.6291321296583,804.8074012403044 M1030.1216880642228,739.9441893943692 L1025.1500820096185,744.2497276116494 M1059.0306678224993,701.0034008427215 L1057.6696695260903,703.6649634406695 M1057.6696695260903,703.6649634406695 L1056.2381715477438,706.3240021667851 M1056.2381715477438,706.3240021667851 L1054.7411365675134,708.9712447185037 M1054.7411365675134,708.9712447185037 L1053.1837584004993,711.597477378077 M1053.1837584004993,711.597477378077 L1051.5714770464704,714.1935517760571 M1051.5714770464704,714.1935517760571 L1049.9099332855042,716.7504468350182 M1049.9099332855042,716.7504468350182 L1048.204957567906,719.2592934313573 M1048.204957567906,719.2592934313573 L1046.4625240287826,721.7114329006595 M1046.4625240287826,721.7114329006595 L1044.6887305558316,724.098445854788 M1044.6887305558316,724.098445854788 L1042.8897781779222,726.412183371941 M1042.8897781779222,726.412183371941 L1041.0719506802911,728.6447952070939 M1041.0719506802911,728.6447952070939 L1039.2415533551157,730.7887887588126 M1039.2415533551157,730.7887887588126 L1037.404918543991,732.837030974887 M1037.404918543991,732.837030974887 L1035.5683743676652,734.78277883689 M1035.5683743676652,734.78277883689 L1033.7381937457699,736.6197244130078 M1033.7381937457699,736.6197244130078 L1031.9205899183812,738.341997905364 M1031.9205899183812,738.341997905364 L1030.1216880642228,739.9441893943692 M1059.229248714121,700.6037156347716 L1059.2024826853076,700.6112462308059 M1059.2024826853076,700.6112462308059 L1059.171517104611,700.6299397203449 M1059.171517104611,700.6299397203449 L1059.138125742126,700.6587332373168 M1059.138125742126,700.6587332373168 L1059.104269850924,700.6959318421674 M1059.104269850924,700.6959318421674 L1059.0719019980854,700.7393891529346 M1059.0719019980854,700.7393891529346 L1059.0429128075777,700.7865699627863 M1059.0429128075777,700.7865699627863 L1059.018977850834,700.8347404241875 M1059.018977850834,700.8347404241875 L1059.0014945531696,700.8810982082559 M1059.0014945531696,700.8810982082559 L1058.9914750762377,700.9229506945155 M1058.9914750762377,700.9229506945155 L1058.989501773787,700.957868904053 M1058.989501773787,700.957868904053 L1058.995693110206,700.9838196215951 M1058.995693110206,700.9838196215951 L1059.0096841394543,700.9992985672051 M1059.0096841394543,700.9992985672051 L1059.0306678224993,701.0034008427215 M1088.584585653598,660.9958569000877 L1086.680847503683,662.735811233977 M1086.680847503683,662.735811233977 L1084.7731065541536,664.5810114265469 M1084.7731065541536,664.5810114265469 L1082.8668423162428,666.5257645037325 M1082.8668423162428,666.5257645037325 L1080.9674728952164,668.5641772296996 M1080.9674728952164,668.5641772296996 L1079.080379324445,670.6901447734523 M1079.080379324445,670.6901447734523 L1077.210863161338,672.8973829623143 M1077.210863161338,672.8973829623143 L1075.364152730767,675.179441640807 M1075.364152730767,675.179441640807 L1073.5453782821148,677.5297236347106 M1073.5453782821148,677.5297236347106 L1071.7596049166762,679.9414684043081 M1071.7596049166762,679.9414684043081 L1070.0117634861615,682.4078187495099 M1070.0117634861615,682.4078187495099 L1068.3067016371015,684.9217802844175 M1068.3067016371015,684.9217802844175 L1066.6491233811573,687.4762785560608 M1066.6491233811573,687.4762785560608 L1065.0436208720396,690.06414428947 M1065.0436208720396,690.06414428947 L1063.4946477071917,692.6781389671844 M1063.4946477071917,692.6781389671844 L1062.0065078012128,695.3109731750473 M1062.0065078012128,695.3109731750473 L1060.5833790994243,697.9552851773003 M1060.5833790994243,697.9552851773003 L1059.229248714121,700.6037156347716 M1076.5628341273189,754.243478520387 L1088.584585653598,660.9958569000877 M1045.1942220474068,780.1223434343665 L1076.5628341273189,754.243478520387 M1044.2104864052533,786.8284403945486 L1045.1942220474068,780.1223434343665 M1014.1874394093977,811.4607027710565 L1044.2104864052533,786.8284403945486 M1030.1216880642228,739.9441893943692 L1018.9379780476395,733.8275547002495 M1018.9379780476395,733.8275547002495 L1014.0292680834443,738.1396512108295 M1002.6291321296583,804.8074012403044 L1032.2522034260753,780.1223273881074 M1033.282199064208,773.4727657581927 L1032.2522034260753,780.1223273881074 M1033.282199064208,773.4727657581927 L1064.2286077016747,747.5455167184612 M1076.9398035008958,655.0772144609145 L1064.2286077016747,747.5455167184612 M1076.9398035008958,655.0772144609145 L1075.0597265784302,656.8182218363253 M1075.0597265784302,656.8182218363253 L1073.1746368087172,658.663555666641 M1073.1746368087172,658.663555666641 L1071.2899546563465,660.6075258400227 M1071.2899546563465,660.6075258400227 L1069.411042769985,662.6442439612329 M1069.411042769985,662.6442439612329 L1067.5432298717476,664.7676119183142 M1067.5432298717476,664.7676119183142 L1065.6917689126894,666.9713542406313 M1065.6917689126894,666.9713542406313 L1063.861843010411,669.2490313014463 M1063.861843010411,669.2490313014463 L1062.0585409174785,671.5940583596989 M1062.0585409174785,671.5940583596989 L1060.2868893673133,673.9996890964736 M1060.2868893673133,673.9996890964736 L1058.5517847563997,676.4590823648333 M1058.5517847563997,676.4590823648333 L1056.8580434616986,678.9652616127522 M1056.8580434616986,678.9652616127522 L1055.2103421045042,681.5111720630678 M1055.2103421045042,681.5111720630678 L1053.6132487574125,684.0896658473298 M1053.6132487574125,684.0896658473298 L1052.071196532341,686.6935276355755 M1052.071196532341,686.6935276355755 L1050.5884724781781,689.3154929588941 M1050.5884724781781,689.3154929588941 L1049.1692409717416,691.9482268122882 M1049.1692409717416,691.9482268122882 L1047.8174794702031,694.5843983201445 M1047.6191317308267,694.9821794869066 L1047.5986422537078,694.978309969853 M1047.5986422537078,694.978309969853 L1047.5851098789558,694.9631055649087 M1047.5851098789558,694.9631055649087 L1047.579315070629,694.9374552170723 M1047.579315070629,694.9374552170723 L1047.581599662024,694.902845736102 M1047.581599662024,694.902845736102 L1047.591827142408,694.8612923932227 M1047.591827142408,694.8612923932227 L1047.6094031058274,694.8152068158913 M1047.6094031058274,694.8152068158913 L1047.6333099359902,694.7672657868272 M1047.6333099359902,694.7672657868272 L1047.6621519497623,694.7202583387528 M1047.6621519497623,694.7202583387528 L1047.694262010497,694.6769082399265 M1047.694262010497,694.6769082399265 L1047.7277645805893,694.6397444679988 M1047.7277645805893,694.6397444679988 L1047.7607274565603,694.6109113879426 M1047.7607274565603,694.6109113879426 L1047.791214512829,694.592106227261 M1047.791214512829,694.592106227261 L1047.8174794702031,694.5843983201445 M1018.9379780476395,733.8275547002495 L1020.7145292110647,732.2234422348233 M1020.7145292110647,732.2234422348233 L1022.5105692383099,730.5002242903774 M1022.5105692383099,730.5002242903774 L1024.3200510642248,728.6633178093928 M1024.3200510642248,728.6633178093928 L1026.1368371038325,726.7185956288904 M1026.1368371038325,726.7185956288904 L1027.9547272177215,724.6723646734881 M1027.9547272177215,724.6723646734881 L1029.7674630940955,722.5313629022164 M1029.7674630940955,722.5313629022164 L1031.568778555292,720.3027142152143 M1031.568778555292,720.3027142152143 L1033.3524304261234,717.9938979856436 M1033.3524304261234,717.9938979856436 L1035.112193089414,715.61274725417 M1035.112193089414,715.61274725417 L1036.8419189729113,713.1673897792712 M1036.8419189729113,713.1673897792712 L1038.535558737115,710.6662199450554 M1038.535558737115,710.6662199450554 L1040.1871817147505,708.1178677207994 M1040.1871817147505,708.1178677207994 L1041.7909956621045,705.531169982103 M1041.7909956621045,705.531169982103 L1043.341392303606,702.915112184134 M1043.341392303606,702.915112184134 L1044.8329584112423,700.2788038890084 M1044.8329584112423,700.2788038890084 L1046.2605208190087,697.631417044317 M1046.2605208190087,697.631417044317 L1047.6191317308267,694.9821794869066 M1032.2522034260753,780.1223273881074 L1044.2104864052533,786.8284403945486 M1059.0306678224993,701.0034008427215 L1047.6191317308267,694.9821794869066 M1059.229248714121,700.6037156347716 L1047.8174794702031,694.5843983201445 M1088.584585653598,660.9958569000877 L1076.9398035008958,655.0772144609145 M1076.5628341273189,754.243478520387 L1064.2286077016747,747.5455167184612 M1045.1942220474068,780.1223434343665 L1033.282199064208,773.4727657581927" stroke="black"  stroke-width="4"  fill="red"/>
<path d="M1022.2824984244912,725.0034747824568 L1026.7801129023455,721.0317347527623 M1026.7801129023455,721.0317347527623 L1026.9176636541242,721.1160734528664 M1026.9176636541242,721.1160734528664 L1027.0442252277728,721.2137874568075 M1027.0442252277728,721.2137874568075 L1027.1525334806443,721.319249272881 M1027.1525334806443,721.319249272881 L1027.236183622838,721.4262756485355 M1027.236183622838,721.4262756485355 L1027.2901759689641,721.5285731487786 M1027.2901759689641,721.5285731487786 L1027.311737049899,721.6203957768523 M1027.311737049899,721.6203957768523 L1027.2992914891859,721.6962302859645 M1027.2992914891859,721.6962302859645 L1027.2535579325374,721.7516649710751 M1027.2535579325374,721.7516649710751 L1027.1775090534607,721.783643282884 M1027.1775090534607,721.783643282884 L1027.0751946118278,721.7901039174533 M1027.0751946118278,721.7901039174533 L1026.9526982951968,721.7707413812611 M1026.9526982951968,721.7707413812611 L1026.8172521597423,721.7267421439949 M1026.8172521597423,721.7267421439949 L1026.6766440164272,721.6606160674537 M1026.6766440164272,721.6606160674537 L1026.538915410321,721.5761400789413 M1026.538915410321,721.5761400789413 L1026.412356161604,721.4783794401769 M1026.412356161604,721.4783794401769 L1026.3040879654698,721.3728955232236 M1026.3040879654698,721.3728955232236 L1026.2206483194595,721.2659534298502 M1026.2206483194595,721.2659534298502 L1026.1665954620614,721.1636145502669 M1026.1665954620614,721.1636145502669 L1026.1451100659729,721.0718471359835 M1026.1451100659729,721.0718471359835 L1026.1576081057156,720.9960749521597 M1026.1576081057156,720.9960749521597 L1026.2033588883962,720.9406953963321 M1026.2033588883962,720.9406953963321 L1026.2795279118704,720.9088292855163 M1026.2795279118704,720.9088292855163 L1026.3816445320429,720.9022994214695 M1026.3816445320429,720.9022994214695 L1026.5040635476428,720.9216398263738 M1026.5040635476428,720.9216398263738 L1026.6394288311392,720.9655924379767 M1026.6394288311392,720.9655924379767 L1026.7801129023455,721.0317347527623 M1022.2824984244912,725.0034747824568 L1022.1425043293073,724.9373926735425 M1022.1425043293073,724.9373926735425 L1022.0077447937551,724.8934800584932 M1022.0077447937551,724.8934800584932 L1021.8858133496058,724.8741572503832 M1021.8858133496058,724.8741572503832 L1021.7840365664788,724.8806811734514 M1021.7840365664788,724.8806811734514 L1021.7080413861279,724.912518289121 M1021.7080413861279,724.912518289121 L1021.6622881154506,724.9678474436109 M1021.6622881154506,724.9678474436109 L1021.6496104903445,725.043550643622 M1021.6496104903445,725.043550643622 L1021.6707495912383,725.135234476285 M1021.6707495912383,725.135234476285 L1021.7243104021188,725.2374800998055 M1021.7243104021188,725.2374800998055 L1021.8071410212931,725.3443246906588 M1021.8071410212931,725.3443246906588 L1021.91471710715,725.4497123827055 M1021.91471710715,725.4497123827055 L1022.0405426336963,725.5473837959414 M1022.0405426336963,725.5473837959414 L1022.1775373703977,725.6317826481193 M1022.1775373703977,725.6317826481193 L1022.3174556220474,725.6978483208704 M1022.3174556220474,725.6978483208704 L1022.4522953046135,725.7418073552051 M1022.4522953046135,725.7418073552051 L1022.5743034418281,725.7611521966442 M1022.5743034418281,725.7611521966442 L1022.6762769501636,725.7546974664185 M1022.6762769501636,725.7546974664185 L1022.7521526632374,725.7227483765944 M1022.7521526632374,725.7227483765944 L1022.7978889909994,725.6673643368379 M1022.7978889909994,725.6673643368379 L1022.8105146889343,725.5915990874075 M1022.8105146889343,725.5915990874075 L1022.789300597108,725.4998602853454 M1022.789300597108,725.4998602853454 L1022.7358002474691,725.3976561278025 M1022.7358002474691,725.3976561278025 L1022.6527603616485,725.2907273579308 M1022.6527603616485,725.2907273579308 L1022.5451444353669,725.1853616689395 M1022.5451444353669,725.1853616689395 L1022.4193164630594,725.0877366841084 M1022.4193164630594,725.0877366841084 L1022.2824984244912,725.0034747824568 M1026.8576583624927,720.5604153750262 L1027.2014676015015,720.7711505980644 M1027.2014676015015,720.7711505980644 L1027.517946996799,721.0153853739348 M1027.517946996799,721.0153853739348 L1027.7887216191612,721.2789607007987 M1027.7887216191612,721.2789607007987 L1027.997904727599,721.5465017341828 M1027.997904727599,721.5465017341828 L1028.133322152577,721.8024660501974 M1028.133322152577,721.8024660501974 L1028.1871540497611,722.0320097906667 M1028.1871540497611,722.0320097906667 L1028.1561386825433,722.2217130357865 M1028.1561386825433,722.2217130357865 L1028.0420504811243,722.3605173451663 M1028.0420504811243,722.3605173451663 L1027.8516033513467,722.4403765917223 M1027.8516033513467,722.4403765917223 L1027.5957833358623,722.4565800882594 M1027.5957833358623,722.4565800882594 L1027.289468381583,722.4081712311661 M1027.289468381583,722.4081712311661 L1026.950630487734,722.2980459628654 M1026.950630487734,722.2980459628654 L1026.5989860894847,722.1326190155717 M1026.5989860894847,722.1326190155717 L1026.2548103352133,721.9214288549367 M1026.2548103352133,721.9214288549367 L1025.9383454208626,721.6769025430845 M1025.9383454208626,721.6769025430845 L1025.6678210876494,721.4131890794813 M1025.6678210876494,721.4131890794813 L1025.4590667122616,721.145695002371 M1025.4590667122616,721.145695002371 L1025.3241582018413,720.8899519341458 M1025.3241582018413,720.8899519341458 L1025.270798955908,720.6607531053517 M1025.270798955908,720.6607531053517 L1025.3021422930956,720.4714393647214 M1025.3021422930956,720.4714393647214 L1025.4163386280918,720.3329798968239 M1025.4163386280918,720.3329798968239 L1025.6066494813135,720.2533419559481 M1025.6066494813135,720.2533419559481 L1025.8621198294616,720.2371854036155 M1025.8621198294616,720.2371854036155 L1026.1679518103326,720.2854560565004 M1026.1679518103326,720.2854560565004 L1026.5062842929271,720.3952898207333 M1026.5062842929271,720.3952898207333 L1026.8576583624927,720.5604153750262 M1027.3871865783337,720.0926343801573 L1027.731211731186,720.3033918995181 M1027.731211731186,720.3033918995181 L1028.0479074581106,720.5476525463619 M1028.0479074581106,720.5476525463619 L1028.3188862765921,720.8112558293903 M1028.3188862765921,720.8112558293903 L1028.5282494875985,721.0788252783245 M1028.5282494875985,721.0788252783245 L1028.6638124345102,721.3348168168789 M1028.6638124345102,721.3348168168789 L1028.7177468296543,721.5643850003853 M1028.7177468296543,721.5643850003853 L1028.6867848798063,721.75410846781 M1028.6867848798063,721.75410846781 L1028.5726978757175,721.8929275861233 M1028.5726978757175,721.8929275861233 L1028.3821996916295,721.9727953575691 M1028.3821996916295,721.9727953575691 L1028.1262792838024,721.9890005842374 M1028.1262792838024,721.9890005842374 L1027.8198204451955,721.9405865587062 M1027.8198204451955,721.9405865587062 L1027.4808036535605,721.8304495374941 M1027.4808036535605,721.8304495374941 L1027.128955774109,721.6650049477562 M1027.128955774109,721.6650049477562 L1026.7845637022754,721.4537922858212 M1026.7845637022754,721.4537922858212 L1026.4678823665245,721.2092399512605 M1026.4678823665245,721.2092399512605 L1026.197153996377,720.9454984595964 M1026.197153996377,720.9454984595964 L1025.9882198900934,720.677975991375 M1025.9882198900934,720.677975991375 L1025.853166356702,720.4222058157629 M1025.853166356702,720.4222058157629 L1025.799705124891,720.192982723448 M1025.799705124891,720.192982723448 L1025.830995452466,720.0036489632387 M1025.830995452466,720.0036489632387 L1025.9451908001226,719.8651748658874 M1025.9451908001226,719.8651748658874 L1026.1355526719835,719.785528515305 M1026.1355526719835,719.785528515305 L1026.391123139101,719.7693702572744 M1026.391123139101,719.7693702572744 L1026.6970985558235,719.8176460066659 M1026.6970985558235,719.8176460066659 L1027.0356094156177,719.9274913720908 M1027.0356094156177,719.9274913720908 L1027.3871865783337,720.0926343801573 M1027.3871865783337,720.0926343801573 L1026.8576583624927,720.5604153750262" stroke="black"  stroke-width="4"  fill="red"/>
<path d="M-248.75738663442553,44.330457973445505 L-284.3617130339127,63.97762807793879 M-248.75738663442553,44.330457973445505 L-252.07854521941567,42.5057234865418 M-287.6812381571749,62.066811809653245 L-252.07854521941567,42.5057234865418 M-284.3617130339127,63.97762807793879 L-287.6812381571749,62.066811809653245 M-284.3617130339127,63.97762807793879 L-284.76705302784046,41.548070463635554 M-284.76705302784046,41.548070463635554 L-281.2600072878935,39.66369553758284 M-281.2600072878935,39.66369553758284 L-281.63021765923645,16.692142378698918 M-281.63021765923645,16.692142378698918 L-231.0539063241058,-9.731021504706291 M-231.0539063241058,-9.731021504706291 L-231.1021868499888,-8.292307538244586 M-231.1021868499888,-8.292307538244586 L-231.21462439836887,-6.8264543345670745 M-231.21462439836887,-6.8264543345670745 L-231.39074836252848,-5.337893133143609 M-231.39074836252848,-5.337893133143609 L-231.62991023091377,-3.831089497647042 M-231.62991023091377,-3.831089497647042 L-231.93128883241548,-2.3105569998209603 M-231.93128883241548,-2.3105569998209603 L-232.29388656427545,-0.7808238953472255 M-232.29388656427545,-0.7808238953472255 L-232.71654075917104,0.7535690995499067 M-232.71654075917104,0.7535690995499067 L-233.19792173636142,2.288089836239351 M-233.19792173636142,2.288089836239351 L-233.73654063806873,3.8181956935258086 M-233.73654063806873,3.8181956935258086 L-234.33075375150406,5.33939014748006 M-234.33075375150406,5.33939014748006 L-234.9787655651046,6.847188400908749 M-234.9787655651046,6.847188400908749 L-235.67863233065168,8.337167166862741 M-235.67863233065168,8.337167166862741 L-236.428271237829,9.804946733511088 M-236.428271237829,9.804946733511088 L-237.2254630961745,11.24621483000675 M-237.2254630961745,11.24621483000675 L-238.0678592347606,12.656740063064433 M-238.0678592347606,12.656740063064433 L-238.952982634774,14.032356869653654 M-238.952982634774,14.032356869653654 L-239.87824126150144,15.36902144924261 M-239.87824126150144,15.36902144924261 L-239.86835931726375,15.385979910722483 M-239.86835931726375,15.385979910722483 L-239.86320001860645,15.40770635156889 M-239.86320001860645,15.40770635156889 L-239.86306412183865,15.432957958794418 M-239.86306412183865,15.432957958794418 L-239.86795743289326,15.460250673300322 M-239.86795743289326,15.460250673300322 L-239.87759716993514,15.488009990881153 M-239.87759716993514,15.488009990881153 L-239.89142221687985,15.514614829314723 M-239.89142221687985,15.514614829314723 L-239.90862906553912,15.538525681475278 M-239.90862906553912,15.538525681475278 L-239.92821921446853,15.558348407235485 M-239.92821921446853,15.558348407235485 L-239.94905273847564,15.572933424381688 M-239.94905273847564,15.572933424381688 L-239.9699207853605,15.58143380650995 M-239.9699207853605,15.58143380650995 L-239.9896100663492,15.583352724748124 M-239.9896100663492,15.583352724748124 L-240.00697593169537,15.578582705266626 M-240.00697593169537,15.578582705266626 L-240.02100920686667,15.567396679820376 M-240.02100920686667,15.567396679820376 L-240.95050276291693,16.91038937840125 M-240.95050276291693,16.91038937840125 L-241.83979592547416,18.293134223179095 M-241.83979592547416,18.293134223179095 L-242.68591676937763,19.71102915716392 M-242.68591676937763,19.71102915716392 L-243.4860439699994,21.159363912659614 M-243.4860439699994,21.159363912659614 L-244.23751692295525,22.633309010446396 M-244.23751692295525,22.633309010446396 L-244.93784783387036,24.12795099757159 M-244.93784783387036,24.12795099757159 L-245.58472936926137,25.638299980178772 M-245.58472936926137,25.638299980178772 L-246.17604490650638,27.159324369521187 M-246.17604490650638,27.159324369521187 L-246.70987466865756,28.685964397997054 M-246.70987466865756,28.685964397997054 L-247.18450332550037,30.213146585766424 M-247.18450332550037,30.213146585766424 L-247.5984262115661,31.73579757596508 M-247.5984262115661,31.73579757596508 L-247.95035305586543,33.248888438844006 M-247.95035305586543,33.248888438844006 L-248.23921251154877,34.7474284459675 M-248.23921251154877,34.7474284459675 L-248.46415500180353,36.226486530491115 M-248.46415500180353,36.226486530491115 L-248.6245543749368,37.68122774641222 M-248.6245543749368,37.68122774641222 L-248.72000873831837,39.106914186813185 M-248.72000873831837,39.106914186813185 L-248.7503403601214,40.498924200553176 M-248.7503403601214,40.498924200553176 L-248.75738663442553,44.330457973445505 M-248.7503403601214,40.498924200553176 L-252.07854485115536,38.678650693032125 M-252.07854485115536,38.678650693032125 L-252.07854521941567,42.5057234865418 M-252.07854485115536,38.678650693032125 L-252.0507448637518,37.28831843406658 M-252.0507448637518,37.28831843406658 L-251.95781825569907,35.8644668889815 M-251.95781825569907,35.8644668889815 L-251.79993469961983,34.41171171415402 M-251.79993469961983,34.41171171415402 L-251.57748799875776,32.93478422218493 M-251.57748799875776,32.93478422218493 L-251.29109621665827,31.43851219287177 M-251.29109621665827,31.43851219287177 L-250.9416008407593,29.92781896365591 M-250.9416008407593,29.92781896365591 L-250.53006519027667,28.40768702335157 M-250.53006519027667,28.40768702335157 L-250.05777160533626,26.8831365902401 M-250.05777160533626,26.8831365902401 L-249.52621690050637,25.35923184691353 M-249.52621690050637,25.35923184691353 L-248.93710871308656,23.841036704418627 M-248.93710871308656,23.841036704418627 L-248.29235930539767,22.33360100400239 M-248.29235930539767,22.33360100400239 L-247.5940779846792,20.84194609082914 M-247.5940779846792,20.84194609082914 L-246.84456498982127,19.371051334761546 M-246.84456498982127,19.371051334761546 L-246.04630129881434,17.925819453719384 M-246.04630129881434,17.925819453719384 L-245.2019409884797,16.51106901306315 M-245.2019409884797,16.51106901306315 L-244.31429920272785,15.131499260606006 M-244.31429920272785,15.131499260606006 L-243.3863420080221,13.791701140765781 M-243.3863420080221,13.791701140765781 L-243.37227367929142,13.802897402570409 M-243.37227367929142,13.802897402570409 L-243.35488122987772,13.807691043991213 M-243.35488122987772,13.807691043991213 L-243.3351753710374,13.805807754556156 M-243.3351753710374,13.805807754556156 L-243.31430172389446,13.797352940989356 M-243.31430172389446,13.797352940989356 L-243.29347389833902,13.782820779153724 M-243.29347389833902,13.782820779153724 L-243.27390041528588,13.763055127701762 M-243.27390041528588,13.763055127701762 L-243.2567202379705,13.739202252761118 M-243.2567202379705,13.739202252761118 L-243.24293030845104,13.712652922738869 M-243.24293030845104,13.712652922738869 L-243.23333210679243,13.68494342760215 M-243.23333210679243,13.68494342760215 L-243.2284843217402,13.6576919439442 M-243.2284843217402,13.6576919439442 L-243.2286671090534,13.632470597168094 M-243.2286671090534,13.632470597168094 L-243.23387190877315,13.61076166452915 M-243.23387190877315,13.61076166452915 L-243.24379535543721,13.59380696690107 M-234.45701130083944,-11.460702771056447 L-234.50266274336923,-10.02386340304173 M-234.50266274336923,-10.02386340304173 L-234.61248704009358,-8.560019391160324 M-234.61248704009358,-8.560019391160324 L-234.78602160863636,-7.073596025777192 M-234.78602160863636,-7.073596025777192 L-235.02262579623562,-5.569052651315303 M-235.02262579623562,-5.569052651315303 L-235.32148615307256,-4.050896335747609 M-235.32148615307256,-4.050896335747609 L-235.68161259207227,-2.523648574837239 M-235.68161259207227,-2.523648574837239 L-236.10184976213145,-0.9918430829753788 M-236.10184976213145,-0.9918430829753788 L-236.5808750573642,0.5399952200239682 M-236.5808750573642,0.5399952200239682 L-237.11720649692825,2.067331187171874 M-237.11720649692825,2.067331187171874 L-237.70920694695792,3.5856759459405794 M-237.70920694695792,3.5856759459405794 L-238.35508724518422,5.090552573301295 M-238.35508724518422,5.090552573301295 L-239.0529096762084,6.577545821167291 M-239.0529096762084,6.577545821167291 L-239.80059719150825,8.042284196536855 M-239.80059719150825,8.042284196536855 L-240.59593605307418,9.480463802405609 M-240.59593605307418,9.480463802405609 L-241.4365827191133,10.887861754956532 M-241.4365827191133,10.887861754956532 L-242.320065010059,12.26032116079142 M-242.320065010059,12.26032116079142 L-243.24379535543721,13.59380696690107 M-234.45701130083944,-11.460702771056447 L-285.03244387547716,14.844602010012864 M-284.6205368548327,37.78776712307592 L-285.03244387547716,14.844602010012864 M-284.6205368548327,37.78776712307592 L-288.12725350176106,39.66369591407482 M-287.6812381571749,62.066811809653245 L-288.12725350176106,39.66369591407482 M-288.12725350176106,39.66369591407482 L-284.76705302784046,41.548070463635554 M-240.02100920686667,15.567396679820376 L-243.3863420080221,13.791701140765781 M-239.87824126150144,15.36902144924261 L-243.24379535543721,13.59380696690107 M-231.0539063241058,-9.731021504706291 L-234.45701130083944,-11.460702771056447 M-281.63021765923645,16.692142378698918 L-285.03244387547716,14.844602010012864 M-281.2600072878935,39.66369553758284 L-284.6205368548327,37.78776712307592" stroke="black"  stroke-width="4"  fill="red"/>
<path d="M-241.59918474023686,38.56030352799036 L-241.57890811574885,35.05468647336545 M-241.57890811574885,35.05468647336545 L-241.54211163855348,35.08003998595757 M-241.54211163855348,35.08003998595757 L-241.51746506455663,35.10941258031562 M-241.51746506455663,35.10941258031562 L-241.50640072840656,35.141097322814346 M-241.50640072840656,35.141097322814346 L-241.50956395979824,35.17325363027953 M-241.50956395979824,35.17325363027953 L-241.52677210647687,35.204012155647774 M-241.52677210647687,35.204012155647774 L-241.5570269014289,35.23158529835791 M-241.5570269014289,35.23158529835791 L-241.5985702025955,35.25436945469852 M-241.5985702025955,35.25436945469852 L-241.648988150057,35.271039874777045 M-241.648988150057,35.271039874777045 L-241.70534921089438,35.28062662633363 M-241.70534921089438,35.28062662633363 L-241.76437742732764,35.28257232558656 M-241.76437742732764,35.28257232558656 L-241.822639901299,35.27676355913479 M-241.822639901299,35.27676355913479 L-241.8767500451571,35.26353866649595 M-241.8767500451571,35.26353866649595 L-241.92356107203545,35.243666287294104 M-241.92356107203545,35.243666287294104 L-241.96035299538335,35.218302897324804 M-241.96035299538335,35.218302897324804 L-241.98498716488257,35.18892261881166 M-241.98498716488257,35.18892261881166 L-241.99603392145093,35.15723423599479 M-241.99603392145093,35.15723423599479 L-241.99285196232324,35.12507916592989 M-241.99285196232324,35.12507916592989 L-241.9756282303024,35.09432647219103 M-241.9756282303024,35.09432647219103 L-241.9453645626363,35.06676241947599 M-241.9453645626363,35.06676241947599 L-241.90382113412397,35.04398852899686 M-241.90382113412397,35.04398852899686 L-241.85341183385685,35.027327198974604 M-241.85341183385685,35.027327198974604 L-241.79706621368155,35.01774627907025 M-241.79706621368155,35.01774627907025 L-241.73805669428532,35.01580181724654 M-241.73805669428532,35.01580181724654 L-241.6798118902118,35.02160694328461 M-241.6798118902118,35.02160694328461 L-241.6257143414898,35.034824151899045 M-241.6257143414898,35.034824151899045 L-241.57890811574885,35.05468647336545 M-241.59918474023686,38.56030352799036 L-241.64590009580115,38.540396079700315 M-241.64590009580115,38.540396079700315 L-241.6998928587385,38.52714884081814 M-241.6998928587385,38.52714884081814 L-241.75802504930698,38.52133052493883 M-241.75802504930698,38.52133052493883 L-241.8169206645531,38.5232794047966 M-241.8169206645531,38.5232794047966 L-241.87315770499276,38.532882093361934 M-241.87315770499276,38.532882093361934 L-241.9234700534597,38.549581278319806 M-241.9234700534597,38.549581278319806 L-241.9649337910755,38.57240690952824 M-241.9649337910755,38.57240690952824 L-241.9951396592444,38.60003358266914 M-241.9951396592444,38.60003358266914 L-242.01233084636203,38.63085613666607 M-242.01233084636203,38.63085613666607 L-242.01550741081542,38.663084248035204 M-242.01550741081542,38.663084248035204 L-242.00448273029815,38.6948446073568 M-242.00448273029815,38.6948446073568 L-241.97989682883917,38.72429161561058 M-241.97989682883917,38.72429161561058 L-241.94317656621467,38.749712608763446 M-241.94317656621467,38.749712608763446 L-241.8964564279595,38.76963011834022 M-241.8964564279595,38.76963011834022 L-241.8424511186738,38.78288504382675 M-241.8424511186738,38.78288504382675 L-241.7843013264826,38.78870700134195 M-241.7843013264826,38.78870700134195 L-241.7253870863217,38.78675688363967 M-241.7253870863217,38.78675688363967 L-241.669134664666,38.777148361464015 M-241.669134664666,38.777148361464015 L-241.61881370215713,38.76044008339795 M-241.61881370215713,38.76044008339795 L-241.57735009115072,38.73760418288123 M-241.57735009115072,38.73760418288123 L-241.5471530612391,38.709968416693414 M-241.5471530612391,38.709968416693414 L-241.529977399181,38.67914002910902 M-241.529977399181,38.67914002910902 L-241.52681949016392,38.64691067992419 M-241.52681949016392,38.64691067992419 L-241.5378616825103,38.61515396214293 M-241.5378616825103,38.61515396214293 L-241.56245994078142,38.585714640624246 M-241.56245994078142,38.585714640624246 L-241.59918474023686,38.56030352799036 M-241.320521050342,34.913007898870546 L-241.22852271023032,34.97637349640837 M-241.22852271023032,34.97637349640837 L-241.1668824550418,35.04979017426763 M-241.1668824550418,35.04979017426763 L-241.13918890490015,35.12899543139804 M-241.13918890490015,35.12899543139804 L-241.14706178798872,35.20938820509542 M-241.14706178798872,35.20938820509542 L-241.19005308404485,35.286295726120045 M-241.19005308404485,35.286295726120045 L-241.2656726823193,35.35524531861881 M-241.2656726823193,35.35524531861881 L-241.3695306894507,35.412224969409976 M-241.3695306894507,35.412224969409976 L-241.4955912006651,35.45391766988888 M-241.4955912006651,35.45391766988888 L-241.636523313108,35.47789558203152 M-241.636523313108,35.47789558203152 L-241.78412835173776,35.48276210718586 M-241.78412835173776,35.48276210718586 L-241.92981809742332,35.46823349494514 M-241.92981809742332,35.46823349494514 L-242.06511634096614,35.43515652920058 M-242.06511634096614,35.43515652920058 L-242.18215349932734,35.38545746564199 M-242.18215349932734,35.38545746564199 L-242.27412425132388,35.32202966093155 M-242.27412425132388,35.32202966093155 L-242.33568714572107,35.24856486735894 M-242.33568714572107,35.24856486735894 L-242.3632706566575,35.169336948412024 M-242.3632706566575,35.169336948412024 L-242.3552808090409,35.08895186347331 M-242.3552808090409,35.08895186347331 L-242.3121921043819,35.01208079034524 M-242.3121921043819,35.01208079034524 L-242.2365170518126,34.94318801012662 M-242.2365170518126,34.94318801012662 L-242.13265824876203,34.88627252099127 M-242.13265824876203,34.88627252099127 L-242.00665178234613,34.84463663279007 M-242.00665178234613,34.84463663279007 L-241.86581617425713,34.820695168584166 M-241.86581617425713,34.820695168584166 L-241.7183279083008,34.81583642230555 M-241.7183279083008,34.81583642230555 L-241.57274876630356,34.830342192142325 M-241.57274876630356,34.830342192142325 L-241.43752907504256,34.863371222365686 M-241.43752907504256,34.863371222365686 L-241.320521050342,34.913007898870546 M-241.3180791755865,34.50094070541047 L-241.2260597663335,34.56428930783545 M-241.2260597663335,34.56428930783545 L-241.16440530057503,34.63768629754696 M-241.16440530057503,34.63768629754696 L-241.13670522722464,34.716870317502355 M-241.13670522722464,34.716870317502355 L-241.1445796580299,34.7972415391157 M-241.1445796580299,34.7972415391157 L-241.18758048721747,34.87412844569815 M-241.18758048721747,34.87412844569815 L-241.26321705381406,34.94305955955525 M-241.26321705381406,34.94305955955525 L-241.36709848051441,35.000023941631525 M-241.36709848051441,35.000023941631525 L-241.49318750150542,35.04170547092855 M-241.49318750150542,35.04170547092855 L-241.63415155494,35.065676958835866 M-241.63415155494,35.065676958835866 L-241.78179010575082,35.070542180174186 M-241.78179010575082,35.070542180174186 L-241.9275129826715,35.05601746040759 M-241.9275129826715,35.05601746040759 L-242.0628420467832,35.02294935700081 M-242.0628420467832,35.02294935700081 L-242.1799059208413,34.97326361047374 M-242.1799059208413,34.97326361047374 L-242.2718977296637,34.90985280341329 M-242.2718977296637,34.90985280341329 L-242.33347479959616,34.83640769998709 M-242.33347479959616,34.83640769998709 L-242.36106478387023,34.75720101912657 M-242.36106478387023,34.75720101912657 L-242.35307333537844,34.676837485965905 M-242.35307333537844,34.676837485965905 L-242.30997505324842,34.599987025781445 M-242.30997505324842,34.599987025781445 L-242.23428300701312,34.53111272186874 M-242.23428300701312,34.53111272186874 L-242.13040078385143,34.47421249881029 M-242.13040078385143,34.47421249881029 L-242.0043658320426,34.432587779455275 M-242.0043658320426,34.432587779455275 L-241.86349832668532,34.40865273798619 M-241.86349832668532,34.40865273798619 L-241.71597660157568,34.40379529519345 M-241.71597660157568,34.40379529519345 L-241.5703643785988,34.418297173515725 M-241.5703643785988,34.418297173515725 L-241.4351139026155,34.451317343351604 M-241.4351139026155,34.451317343351604 L-241.3180791755865,34.50094070541047 M-241.3180791755865,34.50094070541047 L-241.320521050342,34.913007898870546" stroke="black"  stroke-width="4"  fill="red"/>
<path d="M-284.6205368548327,37.78776712307592 L-288.12725350176106,39.66369591407482 M-288.12725350176106,39.66369591407482 L-288.58458565359774,16.69214274950417 M-285.03244387547716,14.844602010012864 L-288.58458565359774,16.69214274950417 M-284.6205368548327,37.78776712307592 L-285.03244387547716,14.844602010012864 M-284.3617130339127,63.97762807793879 L-214.00776210353672,104.47543092144099 M-214.00776210353672,104.47543092144099 L-213.91893371079027,100.40187032881556 M-213.91893371079027,100.40187032881556 L-134.0101346498933,146.18936587588547 M-134.29895736522235,150.35816268696777 L-134.0101346498933,146.18936587588547 M-134.29895736522235,150.35816268696777 L292.7298584101602,396.16850540503344 M292.7298584101602,396.16850540503344 L294.41342876779834,391.67474712029696 M294.41342876779834,391.67474712029696 L436.94107198712254,473.34264735073145 M434.67311015136215,477.87521480745977 L436.94107198712254,473.34264735073145 M434.67311015136215,477.87521480745977 L1002.6291321296583,804.8074012403044 M1002.6291321296583,804.8074012403044 L1032.2522034260753,780.1223273881074 M1032.2522034260753,780.1223273881074 L1044.2104864052533,786.8284403945486 M1044.2104864052533,786.8284403945486 L1075.6917956837647,760.9997538454677 M-288.58458565359774,16.69214274950417 L1075.6917956837647,760.9997538454677 M-288.12725350176106,39.66369591407482 L-284.76705302784046,41.548070463635554 M-284.3617130339127,63.97762807793879 L-284.76705302784046,41.548070463635554 M1045.1942220474068,780.1223434343665 L1033.282199064208,773.4727657581927 M1003.7574679954257,798.2089173491286 L1033.282199064208,773.4727657581927 M1003.7574679954257,798.2089173491286 L437.43530015794977,473.6913382771072 M437.43530015794977,473.6913382771072 L439.7048887838898,469.1599185634823 M439.7048887838898,469.1599185634823 L297.43925023149916,388.0115994977249 M295.7515575202083,392.5028067911592 L297.43925023149916,388.0115994977249 M295.7515575202083,392.5028067911592 L-130.8559878071933,148.04540129677224 M-130.8559878071933,148.04540129677224 L-130.55944932852833,143.88114477210166 M-130.55944932852833,143.88114477210166 L-210.4492916791844,98.31197934923176 M-210.54597165690075,102.38093307730264 L-210.4492916791844,98.31197934923176 M-210.54597165690075,102.38093307730264 L-280.898957871878,62.066811427867606 M-280.898957871878,62.066811427867606 L-281.2600072878935,39.66369553758284 M-281.2600072878935,39.66369553758284 L-284.6205368548327,37.78776712307592 M1076.5628341273189,754.243478520387 L-285.03244387547716,14.844602010012864 M1045.1942220474068,780.1223434343665 L1076.5628341273189,754.243478520387 M-284.3617130339127,63.97762807793879 L-280.898957871878,62.066811427867606 M-284.76705302784046,41.548070463635554 L-281.2600072878935,39.66369553758284 M-210.54597165690075,102.38093307730264 L-214.00776210353672,104.47543092144099 M-210.4492916791844,98.31197934923176 L-213.91893371079027,100.40187032881556 M-134.29895736522235,150.35816268696777 L-130.8559878071933,148.04540129677224 M-134.0101346498933,146.18936587588547 L-130.55944932852833,143.88114477210166 M295.7515575202083,392.5028067911592 L292.7298584101602,396.16850540503344 M297.43925023149916,388.0115994977249 L294.41342876779834,391.67474712029696 M434.67311015136215,477.87521480745977 L437.43530015794977,473.6913382771072 M436.94107198712254,473.34264735073145 L439.7048887838898,469.1599185634823 M1003.7574679954257,798.2089173491286 L1002.6291321296583,804.8074012403044 M1033.282199064208,773.4727657581927 L1032.2522034260753,780.1223273881074 M1044.2104864052533,786.8284403945486 L1045.1942220474068,780.1223434343665 M1075.6917956837647,760.9997538454677 L1076.5628341273189,754.243478520387" stroke="black"  stroke-width="4"  fill="red"/></svg>