<svg viewBox="0 0 800 800" xmlns="http://www.w3.org/2000/svg"><path d="M195.31205145407796,442.6596109060657 L7.4133708499527415,505.4911035100188 M7.365149097941071,488.8695646021945 L7.4133708499527415,505.4911035100188 M7.365149097941071,488.8695646021945 L7.3641210092492315,488.64030876025856 M7.3641210092492315,488.64030876025856 L7.363237409847159,488.41098942485723 M7.363237409847159,488.41098942485723 L7.362499560857998,488.18160619783714 M195.72948009439483,425.8697674355428 L7.362499560857998,488.18160619783714 M195.31205145407796,442.6596109060657 L195.72948009439483,425.8697674355428 M754.7788799118359,757.4358404098814 L738.3677146940217,751.9034648146892 M551.0896298908389,836.9737186548249 L738.3677146940217,751.9034648146892 M551.0896298908389,836.9737186548249 L317.9645168233367,751.9037542081511 M304.5349741901058,757.4361315272181 L317.9645168233367,751.9037542081511 M229.31364461015949,729.8326742401688 L304.5349741901058,757.4361315272181 M242.76483780326566,724.4625491982628 L229.31364461015949,729.8326742401688 M242.76483780326566,724.4625491982628 L-50.131725546995824,617.5813131833988 M-63.604343642854474,622.3425617614075 L-50.131725546995824,617.5813131833988 M-128.39647875037474,598.5662347014569 L-63.604343642854474,622.3425617614075 M-114.93264061001082,593.9347335936382 L-128.39647875037474,598.5662347014569 M-114.93264061001082,593.9347335936382 L-170.57929440612008,573.6286464556104 M19.759911652905203,509.6532516644446 L-170.57929440612008,573.6286464556104 M19.759911652905203,509.6532516644446 L7.4133708499527415,505.4911035100188 M937.2625690672296,673.9623879419994 L195.31205145407796,442.6596109060657 M754.7788799118359,757.4358404098814 L937.2625690672296,673.9623879419994 M110.01725954820301,475.23854441046797 L109.84401815269229,475.19442795966654 M109.84401815269229,475.19442795966654 L109.64447814064692,475.1650707150776 M109.64447814064692,475.1650707150776 L109.43023572152066,475.15217597795106 M109.43023572152066,475.15217597795106 L109.21372499347677,475.1564956764896 M109.21372499347677,475.1564956764896 L109.00753424221557,475.1777753729284 M109.00753424221557,475.1777753729284 L108.8236307362659,475.2147825973974 M108.8236307362659,475.2147825973974 L108.67270405596855,475.26536710462494 M108.67270405596855,475.26536710462494 L108.56352390431016,475.3265919602119 M108.56352390431016,475.3265919602119 L108.50244332170894,475.39489937832195 M108.50244332170894,475.39489937832195 L108.49300910077972,475.4663242758919 M108.49300910077972,475.4663242758919 L108.53578731572298,475.536711853022 M108.53578731572298,475.536711853022 L108.62828831027593,475.6019741160072 M108.62828831027593,475.6019741160072 L108.76514412015854,475.6583151068161 M108.76514412015854,475.6583151068161 L108.93840681939525,475.70245760928333 M108.93840681939525,475.70245760928333 L109.13800145505445,475.73183478309204 M109.13800145505445,475.73183478309204 L109.35231992050825,475.74473896256495 M109.35231992050825,475.74473896256495 L109.5689107002803,475.74041605404113 M109.5689107002803,475.74041605404113 L109.77516716567828,475.7191212332244 M109.77516716567828,475.7191212332244 L109.95910699654485,475.6820904327941 M109.95910699654485,475.6820904327941 L110.11003228980394,475.63147930003754 M110.11003228980394,475.63147930003754 L110.21917366020818,475.5702308686476 M110.21917366020818,475.5702308686476 L110.28018695286528,475.50190832573674 M110.28018695286528,475.50190832573674 L110.2895407876544,475.4304802187386 M110.2895407876544,475.4304802187386 L110.24668751011757,475.3601020829558 M110.24668751011757,475.3601020829558 L110.15413396835964,475.2948597494566 M110.15413396835964,475.2948597494566 L110.01725954820301,475.23854441046797 M840.5509602579486,711.8219366008216 L840.328442421705,711.7636528633775 M840.328442421705,711.7636528633775 L840.0835316359455,711.7248703074011 M840.0835316359455,711.7248703074011 L839.8304774132102,711.7078449088332 M839.8304774132102,711.7078449088332 L839.5839215081487,711.7135545461874 M839.5839215081487,711.7135545461874 L839.3581844714163,711.7416591721906 M839.3581844714163,711.7416591721906 L839.1664373155972,711.7905535621579 M839.1664373155972,711.7905535621579 L839.0197773557113,711.8573815536954 M839.0197773557113,711.8573815536954 L838.926727800648,711.9382635647177 M838.926727800648,711.9382635647177 L838.8927546050959,712.0285155609257 M838.8927546050959,712.0285155609257 L838.919763544849,712.1228766052209 M838.919763544849,712.1228766052209 L839.006216289029,712.2158615468809 M839.006216289029,712.2158615468809 L839.1471324922004,712.3020845868651 M839.1471324922004,712.3020845868651 L839.3343116054732,712.3765240956405 M839.3343116054732,712.3765240956405 L839.5568725260371,712.4348470912765 M839.5568725260371,712.4348470912765 L839.8018676227621,712.4736599103073 M839.8018676227621,712.4736599103073 L840.0550803148808,712.4907165713264 M840.0550803148808,712.4907165713264 L840.3017400201127,712.4850020569174 M840.3017400201127,712.4850020569174 L840.5275546732707,712.4568744698946 M840.5275546732707,712.4568744698946 L840.7193354455248,712.4079442749583 M840.7193354455248,712.4079442749583 L840.8659773470151,712.3410758505903 M840.8659773470151,712.3410758505903 L840.9589613048568,712.2601580394067 M840.9589613048568,712.2601580394067 L840.9928363699216,712.1698830731302 M840.9928363699216,712.1698830731302 L840.9657192753837,712.0755171558782 M840.9657192753837,712.0755171558782 L840.8791208689499,711.98252962698 M840.8791208689499,711.98252962698 L840.7381473878058,711.8963368509474 M840.7381473878058,711.8963368509474 L840.5509602579486,711.8219366008216 M19.74222072028266,492.99907288880127 L7.365149097941071,488.8695646021945 M19.74222072028266,492.99907288880127 L19.759911652905203,509.6532516644446 M19.740835223384124,492.30975964221716 L19.74115169488209,492.53959480377887 M19.74115169488209,492.53959480377887 L19.741613947563167,492.769365752559 M19.741613947563167,492.769365752559 L19.74222072028266,492.99907288880127 M7.362499560857998,488.18160619783714 L19.740835223384124,492.30975964221716 M740.4830356513924,732.6760316778206 L756.9494658038714,738.1675575342716 M756.9494658038714,738.1675575342716 L939.856282931419,655.320513219566 M939.856282931419,655.320513219566 L195.72948009439483,425.8697674355428 M19.740835223384124,492.30975964221716 L-171.11012489027485,555.769305589815 M-171.11012489027485,555.769305589815 L-115.31849491134585,575.9144421916511 M-115.31849491134585,575.9144421916511 L-128.8201178000959,580.5094161391579 M-128.8201178000959,580.5094161391579 L-63.854665017327534,604.0992980438764 M-63.854665017327534,604.0992980438764 L-50.34418975630962,599.3752418394106 M-50.34418975630962,599.3752418394106 L243.39736908144505,705.4388902873528 M243.39736908144505,705.4388902873528 L229.90850664004722,710.7688928903095 M229.90850664004722,710.7688928903095 L305.36317239156256,738.1675575342716 M305.36317239156256,738.1675575342716 L318.83019161203265,732.6760316778203 M318.83019161203265,732.6760316778203 L552.7201373914023,817.1285724854813 M740.4830356513924,732.6760316778206 L552.7201373914023,817.1285724854813 M111.1686169438621,457.8655004331125 L111.51172363896785,458.0050753675014 M111.51172363896785,458.0050753675014 L111.74381587725253,458.1667942746012 M111.74381587725253,458.1667942746012 L111.85137826232949,458.3412694559338 M111.85137826232949,458.3412694559338 L111.8281137062902,458.51836711174406 M111.8281137062902,458.51836711174406 L111.67533991208262,458.68779099322796 M111.67533991208262,458.68779099322796 L111.4018897394144,458.83968995483383 M111.4018897394144,458.83968995483383 L111.02364573060015,458.9652196059109 M111.02364573060015,458.9652196059109 L110.56257565904122,459.0570749862717 M110.56257565904122,459.0570749862717 L110.04550696437678,459.10990144423954 M110.04550696437678,459.10990144423954 L109.50251551965147,459.12062405131974 M109.50251551965147,459.12062405131974 L108.96520789562163,459.088615022221 M108.96520789562163,459.088615022221 L108.4648482451675,459.0157414942237 M108.4648482451675,459.0157414942237 L108.03054428442022,458.90624884314127 M108.03054428442022,458.90624884314127 L107.68755120661103,458.7665134636885 M107.68755120661103,458.7665134636885 L107.4557884143648,458.60467051634896 M107.4557884143648,458.60467051634896 L107.34869816805514,458.4301368640165 M107.34869816805514,458.4301368640165 L107.37246737166089,458.253059052107 M107.37246737166089,458.253059052107 L107.52566387578344,458.0837291571146 M107.52566387578344,458.0837291571146 L107.79935767898735,457.9319766960292 M107.79935767898735,457.9319766960292 L108.17761042271775,457.8066124940103 M108.17761042271775,457.8066124940103 L108.63845233276874,457.7149036144259 M108.63845233276874,457.7149036144259 L109.15510824143178,457.66217114186384 M109.15510824143178,457.66217114186384 L109.69759714434173,457.6514685784033 M109.69759714434173,457.6514685784033 L110.23442643457491,457.6834187385482 M110.23442643457491,457.6834187385482 L110.73444356258187,457.75616862322397 M110.73444356258187,457.75616862322397 L111.1686169438621,457.8655004331125 M843.8326344341799,692.4804897456572 L844.3022501293622,692.6650257859851 M844.3022501293622,692.6650257859851 L844.6560745629697,692.8788214724209 M844.6560745629697,692.8788214724209 L844.8736469129028,693.1095102682491 M844.8736469129028,693.1095102682491 L844.942179740528,693.3436665932051 M844.942179740528,693.3436665932051 L844.8576682798832,693.5676852930527 M844.8576682798832,693.5676852930527 L844.6249459624614,693.768534120971 M844.6249459624614,693.768534120971 L844.2575311882936,693.9345217607857 M844.2575311882936,693.9345217607857 L843.7767537580028,694.0559860728061 M843.7767537580028,694.0559860728061 L843.2105669934028,694.1258381985083 M843.2105669934028,694.1258381985083 L842.5919239373077,694.1400156840195 M842.5919239373077,694.1400156840195 L841.9568126999889,694.0976793679347 M841.9568126999889,694.0976793679347 L841.3422850783863,694.0013276283446 M841.3422850783863,694.0013276283446 L840.7839680595896,693.856533557984 M840.7839680595896,693.856533557984 L840.314454857077,693.6717700858936 M840.314454857077,693.6717700858936 L839.9609378255816,693.4577693284317 M839.9609378255816,693.4577693284317 L839.7440050482903,693.2270081340117 M839.7440050482903,693.2270081340117 L839.6761521956291,692.9928821291835 M839.6761521956291,692.9928821291835 L839.7612806768575,692.76900632016 M839.7612806768575,692.76900632016 L839.9944156956865,692.5683802169068 M839.9944156956865,692.5683802169068 L840.3619443224413,692.4026441104644 M840.3619443224413,692.4026441104644 L840.8425106788557,692.2814025275829 M840.8425106788557,692.2814025275829 L841.4082097728749,692.2116932831013 M841.4082097728749,692.2116932831013 L842.0262003007947,692.1975461158338 M842.0262003007947,692.1975461158338 L842.6605912178675,692.2397764358315 M842.6605912178675,692.2397764358315 L843.274641000753,692.3359567021854 M843.274641000753,692.3359567021854 L843.8326344341799,692.4804897456572 M937.2625690672296,673.9623879419994 L939.856282931419,655.320513219566 M756.8637500325906,738.933616730074 L740.399519232783,733.4404613541543 M756.8637500325906,738.933616730074 L754.7788799118359,757.4358404098814 M740.399519232783,733.4404613541543 L738.3677146940217,751.9034648146892 M740.399519232783,733.4404613541543 L740.4272140696303,733.1857353085373 M740.4272140696303,733.1857353085373 L740.4550524648769,732.93092559365 M740.4550524648769,732.93092559365 L740.4830356513924,732.6760316778206 M551.0896298908389,836.9737186548249 L552.7201373914023,817.1285724854813 M317.9645168233367,751.9037542081511 L318.83019161203265,732.6760316778203 M304.5349741901058,757.4361315272181 L305.36317239156256,738.1675575342716 M229.31364461015949,729.8326742401688 L229.90850664004722,710.7688928903095 M242.76483780326566,724.4625491982628 L243.39736908144505,705.4388902873528 M-50.131725546995824,617.5813131833988 L-50.34418975630962,599.3752418394106 M-63.604343642854474,622.3425617614075 L-63.854665017327534,604.0992980438764 M-128.39647875037474,598.5662347014569 L-128.8201178000959,580.5094161391579 M-114.93264061001082,593.9347335936382 L-115.31849491134585,575.9144421916511 M-170.57929440612008,573.6286464556104 L-171.11012489027485,555.769305589815 M756.9494658038714,738.1675575342716 L756.9207495849503,738.4229951081252 M756.9207495849503,738.4229951081252 L756.8921780717044,738.678347995093 M756.8921780717044,738.678347995093 L756.8637500325906,738.933616730074 M110.01725954820301,475.23854441046797 L110.20549645728966,459.9728083505862 M110.20549645728966,459.9728083505862 L110.34268752321333,460.0287070990944 M110.34268752321333,460.0287070990944 L110.43545843615152,460.0934668162821 M110.43545843615152,460.0934668162821 L110.4784171661708,460.1633243582935 M110.4784171661708,460.1633243582935 L110.46905068553036,460.2342241191585 M110.46905068553036,460.2342241191585 L110.40790737665293,460.30204130101674 M110.40790737665293,460.30204130101674 L110.29852613010075,460.36283670766625 M110.29852613010075,460.36283670766625 L110.1472650363691,460.41307350262207 M110.1472650363691,460.41307350262207 L109.96291299155268,460.4498304147885 M109.96291299155268,460.4498304147885 L109.7561918798234,460.4709677360063 M109.7561918798234,460.4709677360063 L109.5391110275259,460.47525867182515 M109.5391110275259,460.47525867182515 L109.32430560305727,460.46244993323273 M109.32430560305727,460.46244993323273 L109.12425542861342,460.4332900383372 M109.12425542861342,460.4332900383372 L108.950595114733,460.38947402644044 M108.950595114733,460.38947402644044 L108.8134227390263,460.3335497577457 M108.8134227390263,460.3335497577457 L108.72070460919815,460.2687702136908 M108.72070460919815,460.2687702136908 L108.67782128101288,460.19890327894643 M108.67782128101288,460.19890327894643 L108.68726851267172,460.1280067109843 M108.68726851267172,460.1280067109843 L108.7484794184013,460.06020457604814 M108.7484794184013,460.06020457604814 L108.85789962484898,459.99943262380714 M108.85789962484898,459.99943262380714 L109.00916211506365,459.94922231728344 M109.00916211506365,459.94922231728344 L109.19347767304754,459.91248885968366 M109.19347767304754,459.91248885968366 L109.4001327744619,459.89136658496716 M109.4001327744619,459.89136658496716 L109.61713321243002,459.8870788426044 M109.61713321243002,459.8870788426044 L109.83186224463219,459.8998781874701 M109.83186224463219,459.8998781874701 L110.03185754541835,459.92901825576337 M110.03185754541835,459.92901825576337 L110.20549645728966,459.9728083505862 M840.5509602579486,711.8219366008216 L842.6693139114507,694.8855322190905 M842.6693139114507,694.8855322190905 L842.8570752114488,694.9594320878192 M842.8570752114488,694.9594320878192 L842.9985163428028,695.0450451910889 M842.9985163428028,695.0450451910889 L843.085448783841,695.1374073741063 M843.085448783841,695.1374073741063 L843.1127466580915,695.2311387008634 M843.1127466580915,695.2311387008634 L843.078888774314,695.3208066110916 M843.078888774314,695.3208066110916 L842.9857571333896,695.401180308308 M842.9857571333896,695.401180308308 L842.8388113872925,695.4675991047509 M842.8388113872925,695.4675991047509 L842.6465882516686,695.5162002977113 M842.6465882516686,695.5162002977113 L842.4202183024609,695.5441387605943 M842.4202183024609,695.5441387605943 L842.1729228559232,695.5498148520524 M842.1729228559232,695.5498148520524 L841.9190308053469,695.5328728759868 M841.9190308053469,695.5328728759868 L841.673352408942,695.4943210282498 M841.673352408942,695.4943210282498 L841.450143909545,695.4363901953167 M841.450143909545,695.4363901953167 L841.2623906220401,695.3624512304101 M841.2623906220401,695.3624512304101 L841.1210070319562,695.2768079884358 M841.1210070319562,695.2768079884358 L841.0342208793033,695.1844483381764 M841.0342208793033,695.1844483381764 L841.0070317295088,695.0907218642095 M841.0070317295088,695.0907218642095 L841.0409882823285,695.0010768289884 M841.0409882823285,695.0010768289884 L841.1341859043832,694.9207387837738 M841.1341859043832,694.9207387837738 L841.2811498503086,694.8543602528305 M841.2811498503086,694.8543602528305 L841.4733392360611,694.8057947166601 M841.4733392360611,694.8057947166601 L841.6996311909534,694.7778791197728 M841.6996311909534,694.7778791197728 L841.9468223017543,694.7722078851862 M841.9468223017543,694.7722078851862 L842.2005551565107,694.7891187719531 M842.2005551565107,694.7891187719531 L842.4461487669316,694.8276404818793 M842.4461487669316,694.8276404818793 L842.6693139114507,694.8855322190905 M111.1686169438621,457.8655004331125 L111.1462350813685,459.6604543181928 M111.1462350813685,459.6604543181928 L111.48924866093773,459.8001521022137 M111.48924866093773,459.8001521022137 L111.72127693451336,459.96201334113096 M111.72127693451336,459.96201334113096 L111.82880823760945,460.1366420713621 M111.82880823760945,460.1366420713621 L111.80554731150465,460.31389557344255 M111.80554731150465,460.31389557344255 L111.6528116688363,460.48346853829787 M111.6528116688363,460.48346853829787 L111.37943197392912,460.6355011540611 M111.37943197392912,460.6355011540611 L111.00128668146493,460.7611412513304 M111.00128668146493,460.7611412513304 L110.54033783198145,460.8530774464757 M110.54033783198145,460.8530774464757 L110.02340580675508,460.9059503801059 M110.02340580675508,460.9059503801059 L109.48055851995196,460.916682420606 M109.48055851995196,460.916682420606 L108.94339413977087,460.88464523083235 M108.94339413977087,460.88464523083235 L108.44316847328298,460.81170758938686 M108.44316847328298,460.81170758938686 L108.00898143441219,460.7021186043045 M108.00898143441219,460.7021186043045 L107.66608141419789,460.5622602767372 M107.66608141419789,460.5622602767372 L107.43438241322855,460.4002749213481 M107.43438241322855,460.4002749213481 L107.32732299907724,460.22558768426154 M107.32732299907724,460.22558768426154 L107.35108830431233,460.04835403824165 M107.35108830431233,460.04835403824165 L107.50424643102895,459.87887511759845 M107.50424643102895,459.87887511759845 L107.77786962499829,459.7269890923286 M107.77786962499829,459.7269890923286 L108.15602364541934,459.6015145457254 M108.15602364541934,459.6015145457254 L108.61674445254391,459.50972494132884 M108.61674445254391,459.50972494132884 L109.13326390972918,459.45694605082497 M109.13326390972918,459.45694605082497 L109.67560892147543,459.44623406628045 M109.67560892147543,459.44623406628045 L110.21229522261808,459.47821235089384 M110.21229522261808,459.47821235089384 L110.71217855050918,459.5510262731369 M110.71217855050918,459.5510262731369 L111.1462350813685,459.6604543181928 M843.8326344341799,692.4804897456572 L843.5832028496434,694.4726094846061 M843.5832028496434,694.4726094846061 L844.0526495941699,694.6572932530072 M844.0526495941699,694.6572932530072 L844.4063363529408,694.8712600765185 M844.4063363529408,694.8712600765185 L844.6238102750772,695.1021335144542 M844.6238102750772,695.1021335144542 L844.69228970377,695.3364772384406 M844.69228970377,695.3364772384406 L844.6077730004058,695.5606752065997 M844.6077730004058,695.5606752065997 L844.3750939429522,695.7616847469347 M844.3750939429522,695.7616847469347 L844.0077684327277,695.9278051940939 M844.0077684327277,695.9278051940939 L843.5271210948372,696.0493666842502 M843.5271210948372,696.0493666842502 L842.9610976854642,696.1192746932304 M842.9610976854642,696.1192746932304 L842.3426417267003,696.133463520848 M842.3426417267003,696.133463520848 L841.7077304298025,696.0910933351554 M841.7077304298025,696.0910933351554 L841.093403905976,695.9946645106439 M841.093403905976,695.9946645106439 L840.5352774716723,695.8497545937977 M840.5352774716723,695.8497545937977 L840.0659332046439,695.6648432862689 M840.0659332046439,695.6648432862689 L839.7125536725575,695.4506712851578 M839.7125536725575,695.4506712851578 L839.4957189584322,695.2197254179529 M839.4957189584322,695.2197254179529 L839.4279190851969,694.9854120290923 M839.4279190851969,694.9854120290923 L839.5130524125364,694.7613570224385 M839.5130524125364,694.7613570224385 L839.7461438885537,694.5605703169401 M839.7461438885537,694.5605703169401 L840.1135831470715,694.394701527575 M840.1135831470715,694.394701527575 L840.5940195092319,694.2733628767314 M840.5940195092319,694.2733628767314 L841.1595555261438,694.2035978196482 M841.1595555261438,694.2035978196482 L841.7773593510963,694.1894393252713 M841.7773593510963,694.1894393252713 L842.4115507663464,694.2317034573109 M842.4115507663464,694.2317034573109 L843.0253997830093,694.3279607289012 M843.0253997830093,694.3279607289012 L843.5832028496434,694.4726094846061" stroke="black"  stroke-width="4"  fill="red"/>
<path d="M754.7788799118359,757.4358404098814 L554.3608091876171,849.1130109982986 M754.7788799118359,757.4358404098814 L738.3677146940217,751.9034648146892 M537.769156559477,843.0244856132792 L738.3677146940217,751.9034648146892 M554.3608091876171,849.1130109982986 L537.769156559477,843.0244856132792 M756.8637500325906,738.933616730074 L754.7788799118359,757.4358404098814 M883.1132337599677,435.49465907950764 L876.5972578635492,443.39714742354454 M876.5972578635492,443.39714742354454 L870.1537896550176,451.6256168388803 M870.1537896550176,451.6256168388803 L863.7935309440863,460.16696055658986 M863.7935309440863,460.16696055658986 L857.5270230467611,469.00779518302465 M857.5270230467611,469.00779518302465 L851.3646858035238,478.13382795628297 M851.3646858035238,478.13382795628297 L845.3167449365833,487.53027047904936 M845.3167449365833,487.53027047904936 L839.3932310258981,497.18185015093036 M839.3932310258981,497.18185015093036 L833.6039386923505,507.0727145716985 M833.6039386923505,507.0727145716985 L827.9584017607347,517.1867046484233 M827.9584017607347,517.1867046484233 L822.4658860580753,527.5071239548108 M822.4658860580753,527.5071239548108 L817.1353762037195,538.0167615395022 M817.1353762037195,538.0167615395022 L811.9754934568507,548.6984383807161 M811.9754934568507,548.6984383807161 L806.9945849274857,559.5341235774722 M806.9945849274857,559.5341235774722 L802.2005825378831,570.5060008605789 M802.2005825378831,570.5060008605789 L797.6010517010802,581.5959735886847 M797.6010517010802,581.5959735886847 L793.203204444515,592.7854357156191 M793.203204444515,592.7854357156191 L789.0137836127267,604.0561998433034 M789.0137836127267,604.0561998433034 L785.0391696602421,615.3894934859393 M785.0391696602421,615.3894934859393 L781.2852680440606,626.7668840881164 M781.2852680440606,626.7668840881164 L777.7575729317778,638.169663434817 M777.7575729317778,638.169663434817 L774.4611055478495,649.5793817443456 M774.4611055478495,649.5793817443456 L771.4004490969767,660.9774897670314 M771.4004490969767,660.9774897670314 L768.5796894040905,672.3458674659353 M768.5796894040905,672.3458674659353 L766.0024552141726,683.666463413884 M766.0024552141726,683.666463413884 L763.6719508068425,694.9210624947829 M763.6719508068425,694.9210624947829 L761.5908337947012,706.0923138846281 M761.5908337947012,706.0923138846281 L759.7613436317729,717.162735217387 M759.7613436317729,717.162735217387 L758.1852102480457,728.1154834633985 M758.1852102480457,728.1154834633985 L756.8637500325906,738.933616730074 M883.7309839484174,434.76593143383934 L883.7433881436586,434.87616028354626 M883.7433881436586,434.87616028354626 L883.7371122853763,435.00119483743833 M883.7371122853763,435.00119483743833 L883.7125521052715,435.13361936209765 M883.7125521052715,435.13361936209765 L883.6710883485273,435.266009958929 M883.6710883485273,435.266009958929 L883.6151771551813,435.39039785961256 M883.6151771551813,435.39039785961256 L883.5480494843414,435.49963824117935 M883.5480494843414,435.49963824117935 L883.4735796706275,435.58758614687247 M883.4735796706275,435.58758614687247 L883.3961439323116,435.6487757779571 M883.3961439323116,435.6487757779571 L883.320198091096,435.67996254718184 M883.320198091096,435.67996254718184 L883.2501760933094,435.67916136857684 M883.2501760933094,435.67916136857684 L883.1901529597824,435.64640483742664 M883.1901529597824,435.64640483742664 L883.1436025486398,435.5837133712274 M883.1436025486398,435.5837133712274 L883.1132337599677,435.49465907950764 M1014.0351958635824,122.17226544253163 L1012.229235676891,134.32278669924244 M1012.229235676891,134.32278669924244 L1010.1902741354893,146.4951837709275 M1010.1902741354893,146.4951837709275 L1007.9218143902601,158.6752092365923 M1007.9218143902601,158.6752092365923 L1005.4275446332849,170.8488396910975 M1005.4275446332849,170.8488396910975 L1002.7113746486266,183.00171938594212 M1002.7113746486266,183.00171938594212 L999.777336876389,195.12009992714889 M999.777336876389,195.12009992714889 L996.6296815358312,207.1900001688848 M996.6296815358312,207.1900001688848 L993.2727806067746,219.19800691906448 M993.2727806067746,219.19800691906448 L989.7111764828344,231.1305857344994 M989.7111764828344,231.1305857344994 L985.9496196806085,242.97431203193116 M985.9496196806085,242.97431203193116 L981.9929210404239,254.71629144629765 M981.9929210404239,254.71629144629765 L977.8460946963214,266.34344444899114 M977.8460946963214,266.34344444899114 L973.5142860893843,277.8429026165476 M973.5142860893843,277.8429026165476 L969.0027580743711,289.2022511633704 M969.0027580743711,289.2022511633704 L964.316931148192,300.40885583571173 M964.316931148192,300.40885583571173 L959.4623347468967,311.45063168122 M959.4623347468967,311.45063168122 L954.4446112415887,322.3155129999295 M954.4446112415887,322.3155129999295 L949.2695693508626,332.99154615931707 M949.2695693508626,332.99154615931707 L943.943098838902,343.4671589548667 M943.943098838902,343.4671589548667 L938.4712491781829,353.7306096650599 M938.4712491781829,353.7306096650599 L932.860122461276,363.7708984673519 M932.860122461276,363.7708984673519 L927.1159871935722,373.5768257152546 M927.1159871935722,373.5768257152546 L921.2451971349963,383.13751555826093 M921.2451971349963,383.13751555826093 L915.2542447582289,392.44213176191806 M915.2542447582289,392.44213176191806 L909.1497093103185,401.480263766793 M909.1497093103185,401.480263766793 L902.938246535113,410.2417942888717 M902.938246535113,410.2417942888717 L896.6267045783025,418.716344032715 M896.6267045783025,418.716344032715 L890.2219411561375,426.8943376398631 M890.2219411561375,426.8943376398631 L883.7309839484174,434.76593143383934 M618.0044043655371,249.75756119833216 L1014.0351958635824,122.17226544253163 M591.7186517939576,559.5816464542755 L618.0044043655371,249.75756119833216 M577.8929240198536,565.0179626546696 L591.7186517939576,559.5816464542755 M554.3608091876171,849.1130109982986 L577.8929240198536,565.0179626546696 M756.8637500325906,738.933616730074 L740.399519232783,733.4404613541543 M740.399519232783,733.4404613541543 L738.3677146940217,751.9034648146892 M537.769156559477,843.0244856132792 L560.4870280796933,559.5816464542756 M574.3243492413806,554.1805382764169 L560.4870280796933,559.5816464542756 M574.3243492413806,554.1805382764169 L599.7142963882839,245.15576397264977 M996.2418204154944,118.39327514105412 L599.7142963882839,245.15576397264977 M996.2418204154944,118.39327514105412 L994.4711173981152,130.5128556820182 M994.4711173981152,130.5128556820182 L992.4668514875812,142.65409748998536 M992.4668514875812,142.65409748998536 L990.2324860674973,154.8027831880454 M990.2324860674973,154.8027831880454 L987.771671202189,166.94491861715687 M987.771671202189,166.94491861715687 L985.0882784577511,179.0661778660026 M985.0882784577511,179.0661778660026 L982.1863047974769,191.1528407059293 M982.1863047974769,191.1528407059293 L979.0699651933626,203.1909546074271 M979.0699651933626,203.1909546074271 L975.7435989827784,215.16713352827674 M975.7435989827784,215.16713352827674 L972.2117163817695,227.0678704097943 M972.2117163817695,227.0678704097943 L968.4790370488504,238.87976785425553 M968.4790370488504,238.87976785425553 L964.5503432647238,250.58995739124327 M964.5503432647238,250.58995739124327 L960.4306209259714,262.185385958109 M960.4306209259714,262.185385958109 L956.1249886576322,273.6532112236165 M956.1249886576322,273.6532112236165 L951.6386846636826,284.9810436142707 M951.6386846636826,284.9810436142707 L946.9771048465543,296.15627481776585 M946.9771048465543,296.15627481776585 L942.1457564747864,307.1668448203187 M942.1457564747864,307.1668448203187 L937.1502604405775,318.00071309266787 M937.1502604405775,318.00071309266787 L931.9964051002858,328.64595131776184 M931.9964051002858,328.64595131776184 L926.690061607326,339.09101208612606 M926.690061607326,339.09101208612606 L921.2372609679398,349.32417931618465 M921.2372609679398,349.32417931618465 L915.6440896178035,359.3344775662107 M915.6440896178035,359.3344775662107 L909.9168004269563,369.1107325776105 M909.9168004269563,369.1107325776105 L904.0617330102768,378.6420936738491 M904.0617330102768,378.6420936738491 L898.0853663795206,387.9177503153212 M898.0853663795206,387.9177503153212 L891.9942680969934,396.9273172839098 M891.9942680969934,396.9273172839098 L885.7950835155546,405.66070259301944 M885.7950835155546,405.66070259301944 L879.4946501634095,414.1075536028818 M879.4946501634095,414.1075536028818 L873.0998178593272,422.2583204322308 M873.0998178593272,422.2583204322308 L866.6176060286457,430.10318628155596 M866.00062369796,430.82941241193066 L866.0313568291895,430.91832194667916 M866.0313568291895,430.91832194667916 L866.0782280517312,430.9809497919463 M866.0782280517312,430.9809497919463 L866.1385100449197,431.01372737036274 M866.1385100449197,431.01372737036274 L866.2087135693682,431.0146333058153 M866.2087135693682,431.0146333058153 L866.2847530847162,430.983628869922 M866.2847530847162,430.983628869922 L866.3621897022099,430.92268814733677 M866.3621897022099,430.92268814733677 L866.4365666555823,430.8350419946339 M866.4365666555823,430.8350419946339 L866.5035141371375,430.7261378434084 M866.5035141371375,430.7261378434084 L866.559167693016,430.6021015935147 M866.559167693016,430.6021015935147 L866.6003111105485,430.47005784718556 M866.6003111105485,430.47005784718556 L866.6245076320636,430.33795456287714 M866.6245076320636,430.33795456287714 L866.6303968912559,430.21319762953 M866.6303968912559,430.21319762953 L866.6176060286457,430.10318628155596 M740.399519232783,733.4404613541543 L741.6901899970219,722.6455904957379 M741.6901899970219,722.6455904957379 L743.235727036694,711.7169294358381 M743.235727036694,711.7169294358381 L745.0348613198162,700.671380728452 M745.0348613198162,700.671380728452 L747.0859092993094,689.5257467180752 M747.0859092993094,689.5257467180752 L749.3866790430313,678.2974661608548 M749.3866790430313,678.2974661608548 L751.9345594170775,667.0038450594294 M751.9345594170775,667.0038450594294 L754.7263944198642,655.6630503435622 M754.7263944198642,655.6630503435622 L757.7586024593554,644.29308418433 M757.7586024593554,644.29308418433 L761.0271444014231,632.9120158365954 M761.0271444014231,632.9120158365954 L764.527484318678,621.5383415035386 M764.527484318678,621.5383415035386 L768.2546473317459,610.1904568825246 M768.2546473317459,610.1904568825246 L772.2031857321397,598.8870143490672 M772.2031857321397,598.8870143490672 L776.36723909497,587.6463901253336 M776.36723909497,587.6463901253336 L780.7404723556158,576.4872985776009 M780.7404723556158,576.4872985776009 L785.3161857529997,565.4278693608702 M785.3161857529997,565.4278693608702 L790.0872109399743,554.4866489874408 M790.0872109399743,554.4866489874408 L795.0460241045726,543.6816749586043 M795.0460241045726,543.6816749586043 L800.1847335159387,533.0307043862656 M800.1847335159387,533.0307043862656 L805.4950322743255,522.5517079594449 M805.4950322743255,522.5517079594449 L810.9683362769292,512.2618059698925 M810.9683362769292,512.2618059698925 L816.5956975650072,502.17815020358387 M816.5956975650072,502.17815020358387 L822.3678849051676,492.31737883813116 M822.3678849051676,492.31737883813116 L828.2753969194277,482.6955937784455 M828.2753969194277,482.6955937784455 L834.3084700010643,473.32859088889177 M834.3084700010643,473.32859088889177 L840.4571022986422,464.23158756790235 M840.4571022986422,464.23158756790235 L846.7110948969712,455.4193182658689 M846.7110948969712,455.4193182658689 L853.0600527626821,446.90602313262707 M853.0600527626821,446.90602313262707 L859.4934561957843,438.7050353310726 M859.4934561957843,438.7050353310726 L866.00062369796,430.82941241193066 M560.4870280796933,559.5816464542756 L577.8929240198536,565.0179626546696 M883.1132337599677,435.49465907950764 L866.00062369796,430.82941241193066 M883.7309839484174,434.76593143383934 L866.6176060286457,430.10318628155596 M1014.0351958635824,122.17226544253163 L996.2418204154944,118.39327514105412 M618.0044043655371,249.75756119833216 L599.7142963882839,245.15576397264977 M591.7186517939576,559.5816464542755 L574.3243492413806,554.1805382764169" stroke="black"  stroke-width="4"  fill="red"/>
<path d="M840.5509602579486,711.8219366008216 L842.6693139114507,694.8855322190905 M842.6693139114507,694.8855322190905 L842.8570752114488,694.9594320878192 M842.8570752114488,694.9594320878192 L842.9985163428028,695.0450451910889 M842.9985163428028,695.0450451910889 L843.085448783841,695.1374073741063 M843.085448783841,695.1374073741063 L843.1127466580915,695.2311387008634 M843.1127466580915,695.2311387008634 L843.078888774314,695.3208066110916 M843.078888774314,695.3208066110916 L842.9857571333896,695.401180308308 M842.9857571333896,695.401180308308 L842.8388113872925,695.4675991047509 M842.8388113872925,695.4675991047509 L842.6465882516686,695.5162002977113 M842.6465882516686,695.5162002977113 L842.4202183024609,695.5441387605943 M842.4202183024609,695.5441387605943 L842.1729228559232,695.5498148520524 M842.1729228559232,695.5498148520524 L841.9190308053469,695.5328728759868 M841.9190308053469,695.5328728759868 L841.673352408942,695.4943210282498 M841.673352408942,695.4943210282498 L841.450143909545,695.4363901953167 M841.450143909545,695.4363901953167 L841.2623906220401,695.3624512304101 M841.2623906220401,695.3624512304101 L841.1210070319562,695.2768079884358 M841.1210070319562,695.2768079884358 L841.0342208793033,695.1844483381764 M841.0342208793033,695.1844483381764 L841.0070317295088,695.0907218642095 M841.0070317295088,695.0907218642095 L841.0409882823285,695.0010768289884 M841.0409882823285,695.0010768289884 L841.1341859043832,694.9207387837738 M841.1341859043832,694.9207387837738 L841.2811498503086,694.8543602528305 M841.2811498503086,694.8543602528305 L841.4733392360611,694.8057947166601 M841.4733392360611,694.8057947166601 L841.6996311909534,694.7778791197728 M841.6996311909534,694.7778791197728 L841.9468223017543,694.7722078851862 M841.9468223017543,694.7722078851862 L842.2005551565107,694.7891187719531 M842.2005551565107,694.7891187719531 L842.4461487669316,694.8276404818793 M842.4461487669316,694.8276404818793 L842.6693139114507,694.8855322190905 M840.5509602579486,711.8219366008216 L840.328442421705,711.7636528633775 M840.328442421705,711.7636528633775 L840.0835316359455,711.7248703074011 M840.0835316359455,711.7248703074011 L839.8304774132102,711.7078449088332 M839.8304774132102,711.7078449088332 L839.5839215081487,711.7135545461874 M839.5839215081487,711.7135545461874 L839.3581844714163,711.7416591721906 M839.3581844714163,711.7416591721906 L839.1664373155972,711.7905535621579 M839.1664373155972,711.7905535621579 L839.0197773557113,711.8573815536954 M839.0197773557113,711.8573815536954 L838.926727800648,711.9382635647177 M838.926727800648,711.9382635647177 L838.8927546050959,712.0285155609257 M838.8927546050959,712.0285155609257 L838.919763544849,712.1228766052209 M838.919763544849,712.1228766052209 L839.006216289029,712.2158615468809 M839.006216289029,712.2158615468809 L839.1471324922004,712.3020845868651 M839.1471324922004,712.3020845868651 L839.3343116054732,712.3765240956405 M839.3343116054732,712.3765240956405 L839.5568725260371,712.4348470912765 M839.5568725260371,712.4348470912765 L839.8018676227621,712.4736599103073 M839.8018676227621,712.4736599103073 L840.0550803148808,712.4907165713264 M840.0550803148808,712.4907165713264 L840.3017400201127,712.4850020569174 M840.3017400201127,712.4850020569174 L840.5275546732707,712.4568744698946 M840.5275546732707,712.4568744698946 L840.7193354455248,712.4079442749583 M840.7193354455248,712.4079442749583 L840.8659773470151,712.3410758505903 M840.8659773470151,712.3410758505903 L840.9589613048568,712.2601580394067 M840.9589613048568,712.2601580394067 L840.9928363699216,712.1698830731302 M840.9928363699216,712.1698830731302 L840.9657192753837,712.0755171558782 M840.9657192753837,712.0755171558782 L840.8791208689499,711.98252962698 M840.8791208689499,711.98252962698 L840.7381473878058,711.8963368509474 M840.7381473878058,711.8963368509474 L840.5509602579486,711.8219366008216 M843.5832028496434,694.4726094846061 L844.0526495941699,694.6572932530072 M844.0526495941699,694.6572932530072 L844.4063363529408,694.8712600765185 M844.4063363529408,694.8712600765185 L844.6238102750772,695.1021335144542 M844.6238102750772,695.1021335144542 L844.69228970377,695.3364772384406 M844.69228970377,695.3364772384406 L844.6077730004058,695.5606752065997 M844.6077730004058,695.5606752065997 L844.3750939429522,695.7616847469347 M844.3750939429522,695.7616847469347 L844.0077684327277,695.9278051940939 M844.0077684327277,695.9278051940939 L843.5271210948372,696.0493666842502 M843.5271210948372,696.0493666842502 L842.9610976854642,696.1192746932304 M842.9610976854642,696.1192746932304 L842.3426417267003,696.133463520848 M842.3426417267003,696.133463520848 L841.7077304298025,696.0910933351554 M841.7077304298025,696.0910933351554 L841.093403905976,695.9946645106439 M841.093403905976,695.9946645106439 L840.5352774716723,695.8497545937977 M840.5352774716723,695.8497545937977 L840.0659332046439,695.6648432862689 M840.0659332046439,695.6648432862689 L839.7125536725575,695.4506712851578 M839.7125536725575,695.4506712851578 L839.4957189584322,695.2197254179529 M839.4957189584322,695.2197254179529 L839.4279190851969,694.9854120290923 M839.4279190851969,694.9854120290923 L839.5130524125364,694.7613570224385 M839.5130524125364,694.7613570224385 L839.7461438885537,694.5605703169401 M839.7461438885537,694.5605703169401 L840.1135831470715,694.394701527575 M840.1135831470715,694.394701527575 L840.5940195092319,694.2733628767314 M840.5940195092319,694.2733628767314 L841.1595555261438,694.2035978196482 M841.1595555261438,694.2035978196482 L841.7773593510963,694.1894393252713 M841.7773593510963,694.1894393252713 L842.4115507663464,694.2317034573109 M842.4115507663464,694.2317034573109 L843.0253997830093,694.3279607289012 M843.0253997830093,694.3279607289012 L843.5832028496434,694.4726094846061 M843.8326344341799,692.4804897456572 L844.3022501293622,692.6650257859851 M844.3022501293622,692.6650257859851 L844.6560745629697,692.8788214724209 M844.6560745629697,692.8788214724209 L844.8736469129028,693.1095102682491 M844.8736469129028,693.1095102682491 L844.942179740528,693.3436665932051 M844.942179740528,693.3436665932051 L844.8576682798832,693.5676852930527 M844.8576682798832,693.5676852930527 L844.6249459624614,693.768534120971 M844.6249459624614,693.768534120971 L844.2575311882936,693.9345217607857 M844.2575311882936,693.9345217607857 L843.7767537580028,694.0559860728061 M843.7767537580028,694.0559860728061 L843.2105669934028,694.1258381985083 M843.2105669934028,694.1258381985083 L842.5919239373077,694.1400156840195 M842.5919239373077,694.1400156840195 L841.9568126999889,694.0976793679347 M841.9568126999889,694.0976793679347 L841.3422850783863,694.0013276283446 M841.3422850783863,694.0013276283446 L840.7839680595896,693.856533557984 M840.7839680595896,693.856533557984 L840.314454857077,693.6717700858936 M840.314454857077,693.6717700858936 L839.9609378255816,693.4577693284317 M839.9609378255816,693.4577693284317 L839.7440050482903,693.2270081340117 M839.7440050482903,693.2270081340117 L839.6761521956291,692.9928821291835 M839.6761521956291,692.9928821291835 L839.7612806768575,692.76900632016 M839.7612806768575,692.76900632016 L839.9944156956865,692.5683802169068 M839.9944156956865,692.5683802169068 L840.3619443224413,692.4026441104644 M840.3619443224413,692.4026441104644 L840.8425106788557,692.2814025275829 M840.8425106788557,692.2814025275829 L841.4082097728749,692.2116932831013 M841.4082097728749,692.2116932831013 L842.0262003007947,692.1975461158338 M842.0262003007947,692.1975461158338 L842.6605912178675,692.2397764358315 M842.6605912178675,692.2397764358315 L843.274641000753,692.3359567021854 M843.274641000753,692.3359567021854 L843.8326344341799,692.4804897456572 M843.8326344341799,692.4804897456572 L843.5832028496434,694.4726094846061" stroke="black"  stroke-width="4"  fill="red"/>
<path d="M19.759911652905203,509.6532516644446 L-184.03168438518537,578.1501634757481 M19.759911652905203,509.6532516644446 L7.4133708499527415,505.4911035100188 M-196.35313825992728,573.6286437466358 L7.4133708499527415,505.4911035100188 M-184.03168438518537,578.1501634757481 L-196.35313825992728,573.6286437466358 M-184.03168438518537,578.1501634757481 L-192.0889553650477,324.53249845905634 M-192.0889553650477,324.53249845905634 L-178.10167344588626,320.5445915584629 M-178.10167344588626,320.5445915584629 L-186.21987883377767,47.41446514578206 M-186.21987883377767,47.41446514578206 L220.7988053796803,-46.29676030040241 M220.7988053796803,-46.29676030040241 L220.3870635542463,-35.563684657491876 M220.3870635542463,-35.563684657491876 L219.72540134457063,-24.81731262220842 M219.72540134457063,-24.81731262220842 L218.81565854540474,-14.070481114477161 M218.81565854540474,-14.070481114477161 L217.6599210394395,-3.3358382359538155 M217.6599210394395,-3.3358382359538155 L216.26049015133708,7.373664258251665 M216.26049015133708,7.373664258251665 L214.6198952774139,18.045606155590804 M214.6198952774139,18.045606155590804 L212.74089048433552,28.6673561014793 M212.74089048433552,28.6673561014793 L210.62645240542054,39.22678370886388 M210.62645240542054,39.22678370886388 L208.2797454932413,49.71164871857991 M208.2797454932413,49.71164871857991 L205.70419236114674,60.109811234947074 M205.70419236114674,60.109811234947074 L202.90336680779274,70.40960232572752 M202.90336680779274,70.40960232572752 L199.8810578887444,80.5991937002882 M199.8810578887444,80.5991937002882 L196.64124198344905,90.66695033524684 M196.64124198344905,90.66695033524684 L193.18809816732437,100.60164912457935 M193.18809816732437,100.60164912457935 L189.52596613356445,110.39188026855118 M189.52596613356445,110.39188026855118 L185.65939038796216,120.02673523452313 M185.65939038796216,120.02673523452313 L181.59305689850396,129.49533412325923 M181.59305689850396,129.49533412325923 L177.33186223874065,138.78691350687927 M177.33186223874065,138.78691350687927 L172.88085450076107,147.89106525765396 M172.88085450076107,147.89106525765396 L168.24524828362837,156.79724842382143 M168.24524828362837,156.79724842382143 L163.4304229052459,165.495602869084 M163.4304229052459,165.495602869084 L158.44192604992327,173.97611225467494 M158.44192604992327,173.97611225467494 L153.28545101722978,182.22907102180943 M153.28545101722978,182.22907102180943 L147.96685793291113,190.2448338029817 M147.96685793291113,190.2448338029817 L142.49216504911055,198.01416072022585 M142.49216504911055,198.01416072022585 L136.86751986884173,205.5280993678873 M136.86751986884173,205.5280993678873 L131.09925394899585,212.77749380539876 M131.09925394899585,212.77749380539876 L125.19381749178632,219.75393313808559 M125.19381749178632,219.75393313808559 L119.15781744187439,226.44879834607354 M119.15781744187439,226.44879834607354 L119.18498830586941,226.54862638397253 M119.18498830586941,226.54862638397253 L119.19381037485937,226.66066519020546 M119.19381037485937,226.66066519020546 L119.18378566708537,226.7782710880649 M119.18378566708537,226.7782710880649 L119.1554802585494,226.89485093812345 M119.1554802585494,226.89485093812345 L119.11055503987552,227.0033850148866 M119.11055503987552,227.0033850148866 L119.05161159742306,227.0976399835174 M119.05161159742306,227.0976399835174 L118.98207202937277,227.17231940117153 M118.98207202937277,227.17231940117153 L118.90598588656809,227.2227671153355 M118.90598588656809,227.2227671153355 L118.82776602502213,227.24632877377667 M118.82776602502213,227.24632877377667 L118.75195878951439,227.24148122121073 M118.75195878951439,227.24148122121073 L118.68297419012526,227.20849421882576 M118.68297419012526,227.20849421882576 L118.62482025178468,227.14938924393914 M118.62482025178468,227.14938924393914 L118.58087149670985,227.0675376538925 M118.58087149670985,227.0675376538925 L112.52282067404673,233.78743749323394 M112.52282067404673,233.78743749323394 L106.58473418121025,240.80362213976719 M106.58473418121025,240.80362213976719 L100.77631015846453,248.10512019856174 M100.77631015846453,248.10512019856174 L95.10704222728418,255.68072869898197 M95.10704222728418,255.68072869898197 L89.5861848842793,263.51844479310773 M89.5861848842793,263.51844479310773 L84.22272845592062,271.6058315940493 M84.22272845592062,271.6058315940493 L79.0254012277569,279.9300263701191 M79.0254012277569,279.9300263701191 L74.00261531936496,288.4776497723816 M74.00261531936496,288.4776497723816 L69.16247536094801,297.23504767787176 M69.16247536094801,297.23504767787176 L64.51274374802222,306.18808055243846 M64.51274374802222,306.18808055243846 L60.06083071333711,315.3221403026894 M60.06083071333711,315.3221403026894 L55.81377443058932,324.6226345693426 M55.81377443058932,324.6226345693426 L51.77822940606052,334.0741930592127 M51.77822940606052,334.0741930592127 L47.96044685714617,343.66161665528443 M47.96044685714617,343.66161665528443 L44.36626699661565,353.36943147203317 M44.36626699661565,353.36943147203317 L41.001105748300574,363.1816798245022 M41.001105748300574,363.1816798245022 L37.86994449771271,373.08274697628895 M37.86994449771271,373.08274697628895 L34.97732217289973,383.0564593017506 M34.97732217289973,383.0564593017506 L32.327327639581995,393.08690888165427 M32.327327639581995,393.08690888165427 L29.92359275559386,403.15789893589624 M29.92359275559386,403.15789893589624 L27.76929125051572,413.25341939665236 M27.76929125051572,413.25341939665236 L25.867132092301574,423.35732309949344 M25.867132092301574,423.35732309949344 L24.21935976744078,433.4537973808384 M24.21935976744078,433.4537973808384 L22.82775280882413,443.5270384097805 M22.82775280882413,443.5270384097805 L21.69362968089348,453.56104056744505 M21.69362968089348,453.56104056744505 L20.817841969250594,463.5405170223286 M20.817841969250594,463.5405170223286 L20.200789818660667,473.4500049486612 M20.200789818660667,473.4500049486612 L19.84241661231124,483.2745561307772 M19.84241661231124,483.2745561307772 L19.74222072028266,492.99907288880127 M19.74222072028266,492.99907288880127 L19.759911652905203,509.6532516644446 M19.74222072028266,492.99907288880127 L7.365149097941071,488.8695646021945 M7.365149097941071,488.8695646021945 L7.4133708499527415,505.4911035100188 M7.365149097941071,488.8695646021945 L7.447583461837837,479.1643210626578 M7.447583461837837,479.1643210626578 L7.788163084974087,469.35958241939557 M7.788163084974087,469.35958241939557 L8.387414971382327,459.4704139848669 M8.387414971382327,459.4704139848669 L9.2454207985881,449.5117309269285 M9.2454207985881,449.5117309269285 L10.361806401510023,439.4989610375351 M10.361806401510023,439.4989610375351 L11.735745850549506,429.44735553807504 M11.735745850549506,429.44735553807504 L13.365947663748898,419.372882082975 M13.365947663748898,419.372882082975 L15.250659949374551,409.29130606840863 M15.250659949374551,409.29130606840863 L17.3876649169963,399.21840086670454 M17.3876649169963,399.21840086670454 L19.774280959829582,389.17027287495705 M19.774280959829582,389.17027287495705 L22.40736151758523,379.16289091347926 M22.40736151758523,379.16289091347926 L25.28330231461797,369.2124094275496 M25.28330231461797,369.2124094275496 L28.398041610086068,359.3346939321651 M28.398041610086068,359.3346939321651 L31.74706816797294,349.54587449959 M31.74706816797294,349.54587449959 L35.32542734627896,339.86152291222527 M35.32542734627896,339.86152291222527 L39.12773067597061,330.29755270462465 M39.12773067597061,330.29755270462465 L43.14816458533926,320.8693941772075 M43.14816458533926,320.8693941772075 L47.38050406501321,311.59220306344605 M47.38050406501321,311.59220306344605 L51.81812119865015,302.4813056053506 M51.81812119865015,302.4813056053506 L56.45400302595209,293.5512514812988 M56.45400302595209,293.5512514812988 L61.28076460527825,284.81660588574823 M61.28076460527825,284.81660588574823 L66.29066800488556,276.29146630799073 M66.29066800488556,276.29146630799073 L71.47563218085782,267.98944577179134 M71.47563218085782,267.98944577179134 L76.82726810789802,259.92388310699357 M76.82726810789802,259.92388310699357 L82.33686962133118,252.1076016442645 M82.33686962133118,252.1076016442645 L87.99546771378743,244.5529998842211 M87.99546771378743,244.5529998842211 L93.79382835954425,237.27204335196666 M93.79382835954425,237.27204335196666 L99.7224768606842,230.2758995813042 M99.7224768606842,230.2758995813042 L105.77173350158068,223.57550527953367 M105.77173350158068,223.57550527953367 L105.81586277258509,223.6572233785946 M105.81586277258509,223.6572233785946 L105.87416356189738,223.71625529812172 M105.87416356189738,223.71625529812172 L105.94325293711353,223.7492337925903 M105.94325293711353,223.7492337925903 L106.01911659015445,223.7541380947614 M106.01911659015445,223.7541380947614 L106.09734125076676,223.7306951118942 M106.09734125076676,223.7306951118942 L106.17338058027667,223.68042077529526 M106.17338058027667,223.68042077529526 L106.24282392668965,223.6059599526502 M106.24282392668965,223.6059599526502 L106.30162791392718,223.51195542203845 M106.30162791392718,223.51195542203845 L106.34637820885035,223.40368946036165 M106.34637820885035,223.40368946036165 L106.374483256563,223.2873799901074 M106.374483256563,223.2873799901074 L106.38429425835079,223.17003049944356 M106.38429425835079,223.17003049944356 L106.37525711806597,223.05821975337676 M106.37525711806597,223.05821975337676 L106.34788255795075,222.95857788456692 M207.53848925660986,-49.113010998298705 L207.14696637933991,-38.40429288556288 M207.14696637933991,-38.40429288556288 L206.50538008231365,-27.682404953018022 M206.50538008231365,-27.682404953018022 L205.61554443807472,-16.960159274118496 M205.61554443807472,-16.960159274118496 L204.47952041364465,-6.250179685377361 M204.47952041364465,-6.250179685377361 L203.099584273113,4.4346068438921975 M203.099584273113,4.4346068438921975 L201.47824181633143,15.081803597465068 M201.47824181633143,15.081803597465068 L199.6182235640406,25.67880310446003 M199.6182235640406,25.67880310446003 L197.52248401475754,36.213497713393735 M197.52248401475754,36.213497713393735 L195.19416571170086,46.67367010643511 M195.19416571170086,46.67367010643511 L192.63667003399007,57.04720315889813 M192.63667003399007,57.04720315889813 L189.85355085385686,67.32244968835016 M189.85355085385686,67.32244968835016 L186.8485774494909,77.48760359012158 M186.8485774494909,77.48760359012158 L183.62570722165515,87.53105170679987 M183.62570722165515,87.53105170679987 L180.18910148657721,97.44159205607434 M180.18910148657721,97.44159205607434 L176.54308222604118,107.20783651269653 M176.54308222604118,107.20783651269653 L172.69217761156904,116.81889735563436 M172.69217761156904,116.81889735563436 L168.64105770525782,126.26391563517109 M168.64105770525782,126.26391563517109 L164.3946038073957,135.53214890859476 M164.3946038073957,135.53214890859476 L159.95784977108565,144.61320954312555 M159.95784977108565,144.61320954312555 L155.3359960653179,153.49657767587132 M155.3359960653179,153.49657767587132 L150.53440951117238,162.17241314918556 M150.53440951117238,162.17241314918556 L145.55862533513346,170.6307203071783 M145.55862533513346,170.6307203071783 L140.41432527078553,178.86181399274824 M140.41432527078553,178.86181399274824 L135.10735829525458,186.85606953488082 M135.10735829525458,186.85606953488082 L129.64373255717243,194.6042673343718 M129.64373255717243,194.6042673343718 L124.02958624124335,202.0974750970811 M124.02958624124335,202.0974750970811 L118.27124146656371,209.32655793214985 M118.27124146656371,209.32655793214985 L112.37514059776987,216.28312489604855 M112.37514059776987,216.28312489604855 L106.34788255795075,222.95857788456692 M207.53848925660986,-49.113010998298705 L-199.47260379666272,44.08007515514987 M-190.8734700260245,316.5788185850182 L-199.47260379666272,44.08007515514987 M-190.8734700260245,316.5788185850182 L-204.8573690399021,320.54458916943486 M-196.35313825992728,573.6286437466358 L-204.8573690399021,320.54458916943486 M-204.8573690399021,320.54458916943486 L-192.0889553650477,324.53249845905634 M118.58087149670985,227.0675376538925 L105.77173350158068,223.57550527953367 M119.15781744187439,226.44879834607354 L106.34788255795075,222.95857788456692 M220.7988053796803,-46.29676030040241 L207.53848925660986,-49.113010998298705 M-186.21987883377767,47.41446514578206 L-199.47260379666272,44.08007515514987 M-178.10167344588626,320.5445915584629 L-190.8734700260245,316.5788185850182" stroke="black"  stroke-width="4"  fill="red"/>
<path d="M110.01725954820301,475.23854441046797 L110.20549645728966,459.9728083505862 M110.20549645728966,459.9728083505862 L110.34268752321333,460.0287070990944 M110.34268752321333,460.0287070990944 L110.43545843615152,460.0934668162821 M110.43545843615152,460.0934668162821 L110.4784171661708,460.1633243582935 M110.4784171661708,460.1633243582935 L110.46905068553036,460.2342241191585 M110.46905068553036,460.2342241191585 L110.40790737665293,460.30204130101674 M110.40790737665293,460.30204130101674 L110.29852613010075,460.36283670766625 M110.29852613010075,460.36283670766625 L110.1472650363691,460.41307350262207 M110.1472650363691,460.41307350262207 L109.96291299155268,460.4498304147885 M109.96291299155268,460.4498304147885 L109.7561918798234,460.4709677360063 M109.7561918798234,460.4709677360063 L109.5391110275259,460.47525867182515 M109.5391110275259,460.47525867182515 L109.32430560305727,460.46244993323273 M109.32430560305727,460.46244993323273 L109.12425542861342,460.4332900383372 M109.12425542861342,460.4332900383372 L108.950595114733,460.38947402644044 M108.950595114733,460.38947402644044 L108.8134227390263,460.3335497577457 M108.8134227390263,460.3335497577457 L108.72070460919815,460.2687702136908 M108.72070460919815,460.2687702136908 L108.67782128101288,460.19890327894643 M108.67782128101288,460.19890327894643 L108.68726851267172,460.1280067109843 M108.68726851267172,460.1280067109843 L108.7484794184013,460.06020457604814 M108.7484794184013,460.06020457604814 L108.85789962484898,459.99943262380714 M108.85789962484898,459.99943262380714 L109.00916211506365,459.94922231728344 M109.00916211506365,459.94922231728344 L109.19347767304754,459.91248885968366 M109.19347767304754,459.91248885968366 L109.4001327744619,459.89136658496716 M109.4001327744619,459.89136658496716 L109.61713321243002,459.8870788426044 M109.61713321243002,459.8870788426044 L109.83186224463219,459.8998781874701 M109.83186224463219,459.8998781874701 L110.03185754541835,459.92901825576337 M110.03185754541835,459.92901825576337 L110.20549645728966,459.9728083505862 M110.01725954820301,475.23854441046797 L109.84401815269229,475.19442795966654 M109.84401815269229,475.19442795966654 L109.64447814064692,475.1650707150776 M109.64447814064692,475.1650707150776 L109.43023572152066,475.15217597795106 M109.43023572152066,475.15217597795106 L109.21372499347677,475.1564956764896 M109.21372499347677,475.1564956764896 L109.00753424221557,475.1777753729284 M109.00753424221557,475.1777753729284 L108.8236307362659,475.2147825973974 M108.8236307362659,475.2147825973974 L108.67270405596855,475.26536710462494 M108.67270405596855,475.26536710462494 L108.56352390431016,475.3265919602119 M108.56352390431016,475.3265919602119 L108.50244332170894,475.39489937832195 M108.50244332170894,475.39489937832195 L108.49300910077972,475.4663242758919 M108.49300910077972,475.4663242758919 L108.53578731572298,475.536711853022 M108.53578731572298,475.536711853022 L108.62828831027593,475.6019741160072 M108.62828831027593,475.6019741160072 L108.76514412015854,475.6583151068161 M108.76514412015854,475.6583151068161 L108.93840681939525,475.70245760928333 M108.93840681939525,475.70245760928333 L109.13800145505445,475.73183478309204 M109.13800145505445,475.73183478309204 L109.35231992050825,475.74473896256495 M109.35231992050825,475.74473896256495 L109.5689107002803,475.74041605404113 M109.5689107002803,475.74041605404113 L109.77516716567828,475.7191212332244 M109.77516716567828,475.7191212332244 L109.95910699654485,475.6820904327941 M109.95910699654485,475.6820904327941 L110.11003228980394,475.63147930003754 M110.11003228980394,475.63147930003754 L110.21917366020818,475.5702308686476 M110.21917366020818,475.5702308686476 L110.28018695286528,475.50190832573674 M110.28018695286528,475.50190832573674 L110.2895407876544,475.4304802187386 M110.2895407876544,475.4304802187386 L110.24668751011757,475.3601020829558 M110.24668751011757,475.3601020829558 L110.15413396835964,475.2948597494566 M110.15413396835964,475.2948597494566 L110.01725954820301,475.23854441046797 M111.1462350813685,459.6604543181928 L111.48924866093773,459.8001521022137 M111.48924866093773,459.8001521022137 L111.72127693451336,459.96201334113096 M111.72127693451336,459.96201334113096 L111.82880823760945,460.1366420713621 M111.82880823760945,460.1366420713621 L111.80554731150465,460.31389557344255 M111.80554731150465,460.31389557344255 L111.6528116688363,460.48346853829787 M111.6528116688363,460.48346853829787 L111.37943197392912,460.6355011540611 M111.37943197392912,460.6355011540611 L111.00128668146493,460.7611412513304 M111.00128668146493,460.7611412513304 L110.54033783198145,460.8530774464757 M110.54033783198145,460.8530774464757 L110.02340580675508,460.9059503801059 M110.02340580675508,460.9059503801059 L109.48055851995196,460.916682420606 M109.48055851995196,460.916682420606 L108.94339413977087,460.88464523083235 M108.94339413977087,460.88464523083235 L108.44316847328298,460.81170758938686 M108.44316847328298,460.81170758938686 L108.00898143441219,460.7021186043045 M108.00898143441219,460.7021186043045 L107.66608141419789,460.5622602767372 M107.66608141419789,460.5622602767372 L107.43438241322855,460.4002749213481 M107.43438241322855,460.4002749213481 L107.32732299907724,460.22558768426154 M107.32732299907724,460.22558768426154 L107.35108830431233,460.04835403824165 M107.35108830431233,460.04835403824165 L107.50424643102895,459.87887511759845 M107.50424643102895,459.87887511759845 L107.77786962499829,459.7269890923286 M107.77786962499829,459.7269890923286 L108.15602364541934,459.6015145457254 M108.15602364541934,459.6015145457254 L108.61674445254391,459.50972494132884 M108.61674445254391,459.50972494132884 L109.13326390972918,459.45694605082497 M109.13326390972918,459.45694605082497 L109.67560892147543,459.44623406628045 M109.67560892147543,459.44623406628045 L110.21229522261808,459.47821235089384 M110.21229522261808,459.47821235089384 L110.71217855050918,459.5510262731369 M110.71217855050918,459.5510262731369 L111.1462350813685,459.6604543181928 M111.1686169438621,457.8655004331125 L111.51172363896785,458.0050753675014 M111.51172363896785,458.0050753675014 L111.74381587725253,458.1667942746012 M111.74381587725253,458.1667942746012 L111.85137826232949,458.3412694559338 M111.85137826232949,458.3412694559338 L111.8281137062902,458.51836711174406 M111.8281137062902,458.51836711174406 L111.67533991208262,458.68779099322796 M111.67533991208262,458.68779099322796 L111.4018897394144,458.83968995483383 M111.4018897394144,458.83968995483383 L111.02364573060015,458.9652196059109 M111.02364573060015,458.9652196059109 L110.56257565904122,459.0570749862717 M110.56257565904122,459.0570749862717 L110.04550696437678,459.10990144423954 M110.04550696437678,459.10990144423954 L109.50251551965147,459.12062405131974 M109.50251551965147,459.12062405131974 L108.96520789562163,459.088615022221 M108.96520789562163,459.088615022221 L108.4648482451675,459.0157414942237 M108.4648482451675,459.0157414942237 L108.03054428442022,458.90624884314127 M108.03054428442022,458.90624884314127 L107.68755120661103,458.7665134636885 M107.68755120661103,458.7665134636885 L107.4557884143648,458.60467051634896 M107.4557884143648,458.60467051634896 L107.34869816805514,458.4301368640165 M107.34869816805514,458.4301368640165 L107.37246737166089,458.253059052107 M107.37246737166089,458.253059052107 L107.52566387578344,458.0837291571146 M107.52566387578344,458.0837291571146 L107.79935767898735,457.9319766960292 M107.79935767898735,457.9319766960292 L108.17761042271775,457.8066124940103 M108.17761042271775,457.8066124940103 L108.63845233276874,457.7149036144259 M108.63845233276874,457.7149036144259 L109.15510824143178,457.66217114186384 M109.15510824143178,457.66217114186384 L109.69759714434173,457.6514685784033 M109.69759714434173,457.6514685784033 L110.23442643457491,457.6834187385482 M110.23442643457491,457.6834187385482 L110.73444356258187,457.75616862322397 M110.73444356258187,457.75616862322397 L111.1686169438621,457.8655004331125 M111.1686169438621,457.8655004331125 L111.1462350813685,459.6604543181928" stroke="black"  stroke-width="4"  fill="red"/>
<path d="M-190.8734700260245,316.5788185850182 L-204.8573690399021,320.54458916943486 M-204.8573690399021,320.54458916943486 L-214.03519586358243,47.41446313688584 M-199.47260379666272,44.08007515514987 L-214.03519586358243,47.41446313688584 M-190.8734700260245,316.5788185850182 L-199.47260379666272,44.08007515514987 M-184.03168438518537,578.1501634757481 L-128.39647875037474,598.5662347014569 M-128.39647875037474,598.5662347014569 L-128.8201178000959,580.5094161391579 M-128.8201178000959,580.5094161391579 L-63.854665017327534,604.0992980438764 M-63.604343642854474,622.3425617614075 L-63.854665017327534,604.0992980438764 M-63.604343642854474,622.3425617614075 L229.31364461015949,729.8326742401688 M229.31364461015949,729.8326742401688 L229.90850664004722,710.7688928903095 M229.90850664004722,710.7688928903095 L305.36317239156256,738.1675575342716 M304.5349741901058,757.4361315272181 L305.36317239156256,738.1675575342716 M304.5349741901058,757.4361315272181 L537.769156559477,843.0244856132792 M537.769156559477,843.0244856132792 L560.4870280796933,559.5816464542756 M560.4870280796933,559.5816464542756 L577.8929240198536,565.0179626546696 M577.8929240198536,565.0179626546696 L603.6227462097212,254.39075676963614 M-214.03519586358243,47.41446313688584 L603.6227462097212,254.39075676963614 M-204.8573690399021,320.54458916943486 L-192.0889553650477,324.53249845905634 M-184.03168438518537,578.1501634757481 L-192.0889553650477,324.53249845905634 M591.7186517939576,559.5816464542755 L574.3243492413806,554.1805382764169 M551.0896298908389,836.9737186548249 L574.3243492413806,554.1805382764169 M551.0896298908389,836.9737186548249 L317.9645168233367,751.9037542081511 M317.9645168233367,751.9037542081511 L318.83019161203265,732.6760316778203 M318.83019161203265,732.6760316778203 L243.39736908144505,705.4388902873528 M242.76483780326566,724.4625491982628 L243.39736908144505,705.4388902873528 M242.76483780326566,724.4625491982628 L-50.131725546995824,617.5813131833988 M-50.131725546995824,617.5813131833988 L-50.34418975630962,599.3752418394106 M-50.34418975630962,599.3752418394106 L-115.31849491134585,575.9144421916511 M-114.93264061001082,593.9347335936382 L-115.31849491134585,575.9144421916511 M-114.93264061001082,593.9347335936382 L-170.57929440612008,573.6286464556104 M-170.57929440612008,573.6286464556104 L-178.10167344588626,320.5445915584629 M-178.10167344588626,320.5445915584629 L-190.8734700260245,316.5788185850182 M618.0044043655371,249.75756119833216 L-199.47260379666272,44.08007515514987 M591.7186517939576,559.5816464542755 L618.0044043655371,249.75756119833216 M-184.03168438518537,578.1501634757481 L-170.57929440612008,573.6286464556104 M-192.0889553650477,324.53249845905634 L-178.10167344588626,320.5445915584629 M-114.93264061001082,593.9347335936382 L-128.39647875037474,598.5662347014569 M-115.31849491134585,575.9144421916511 L-128.8201178000959,580.5094161391579 M-63.604343642854474,622.3425617614075 L-50.131725546995824,617.5813131833988 M-63.854665017327534,604.0992980438764 L-50.34418975630962,599.3752418394106 M242.76483780326566,724.4625491982628 L229.31364461015949,729.8326742401688 M243.39736908144505,705.4388902873528 L229.90850664004722,710.7688928903095 M304.5349741901058,757.4361315272181 L317.9645168233367,751.9037542081511 M305.36317239156256,738.1675575342716 L318.83019161203265,732.6760316778203 M551.0896298908389,836.9737186548249 L537.769156559477,843.0244856132792 M574.3243492413806,554.1805382764169 L560.4870280796933,559.5816464542756 M577.8929240198536,565.0179626546696 L591.7186517939576,559.5816464542755 M603.6227462097212,254.39075676963614 L618.0044043655371,249.75756119833216" stroke="black"  stroke-width="4"  fill="red"/></svg>