<svg viewBox="0 0 800 800" xmlns="http://www.w3.org/2000/svg"><path d="M148.17054561310715,246.03948001058234 L20.45871798927402,310.48455790193077 M20.458719424270157,295.57163949776236 L20.45871798927402,310.48455790193077 M20.458719424270157,295.57163949776236 L20.458355496097965,295.43666079595704 M20.458355496097965,295.43666079595704 L20.458137132578315,295.30155446653475 M20.458137132578315,295.30155446653475 L20.45806434276261,295.1663696996806 M148.45188660056704,230.93327659008685 L20.45806434276261,295.1663696996806 M148.17054561310715,246.03948001058234 L148.45188660056704,230.93327659008685 M761.6472133577978,684.4979904995303 L745.6773043371442,676.4393650238119 M626.5508127438262,754.6827670266966 L745.6773043371442,676.4393650238119 M626.5508127438262,754.6827670266966 L399.1342732158415,634.8011409253976 M386.15459648987394,642.6484428877392 L399.1342732158415,634.8011409253976 M312.0945155574176,603.423604228894 L386.15459648987394,642.6484428877392 M325.0953237079541,595.7718351402511 L312.0945155574176,603.423604228894 M325.0953237079541,595.7718351402511 L33.496694617154844,442.0569035135964 M20.45806434276261,448.9626233346672 L33.496694617154844,442.0569035135964 M-44.756290940783686,414.4227938876719 L20.45806434276261,448.9626233346672 M-31.719109254257603,407.67868004825226 L-44.756290940783686,414.4227938876719 M-31.719109254257603,407.67868004825226 L-87.92760314719129,378.0486203235917 M32.93876451392106,316.7821530060482 L-87.92760314719129,378.0486203235917 M32.93876451392106,316.7821530060482 L20.45871798927402,310.48455790193077 M886.6818500850821,601.8902095610647 L148.17054561310715,246.03948001058234 M761.6472133577978,684.4979904995303 L886.6818500850821,601.8902095610647 M91.93015583236019,280.6353904096077 L91.75485660491387,280.567516545879 M91.75485660491387,280.567516545879 L91.55265589528148,280.5223497088867 M91.55265589528148,280.5223497088867 L91.33530513349729,280.5025107786988 M91.33530513349729,280.5025107786988 L91.11541954875258,280.50915676548584 M91.11541954875258,280.50915676548584 L90.90578451159786,280.5418961592156 M90.90578451159786,280.5418961592156 L90.71856783705886,280.59883253644097 M90.71856783705886,280.59883253644097 L90.56465205138176,280.67665733428174 M90.56465205138176,280.67665733428174 L90.4529805003238,280.77085163449783 M90.4529805003238,280.77085163449783 L90.39005073686127,280.87594142530526 M90.39005073686127,280.87594142530526 L90.37951622492506,280.9858262591692 M90.37951622492506,280.9858262591692 L90.42200648333085,281.09411406421566 M90.42200648333085,281.09411406421566 L90.51504772943815,281.19451581087304 M90.51504772943815,281.19451581087304 L90.65324022184245,281.2811919741757 M90.65324022184245,281.2811919741757 L90.82855828778588,281.3491012177569 M90.82855828778588,281.3491012177569 L91.0308076667859,281.3942950920855 M91.0308076667859,281.3942950920855 L91.2482264025823,281.4141468324038 M91.2482264025823,281.4141468324038 L91.46818369755158,281.40749649073194 M91.46818369755158,281.40749649073194 L91.67787774948891,281.3747365782415 M91.67787774948891,281.3747365782415 L91.86512722622342,281.31776821626136 M91.86512722622342,281.31776821626136 L92.01904208589309,281.2399072964145 M92.01904208589309,281.2399072964145 L92.1306791948681,281.1456810116588 M92.1306791948681,281.1456810116588 L92.19354889151572,281.0405707015167 M92.19354889151572,281.0405707015167 L92.20401146996909,280.9306815135236 M92.20401146996909,280.9306815135236 L92.16145389430665,280.82240651725203 M92.16145389430665,280.82240651725203 L92.06836536507325,280.72203180829206 M92.06836536507325,280.72203180829206 L91.93015583236019,280.6353904096077 M817.6464243419963,638.3079727763817 L817.4282912831276,638.2213860214296 M817.4282912831276,638.2213860214296 L817.1865190351447,638.1637699570501 M817.1865190351447,638.1637699570501 L816.9351754720473,638.1384766144902 M816.9351754720473,638.1384766144902 L816.688805046345,638.1469589964282 M816.688805046345,638.1469589964282 L816.4617192788568,638.1887118374914 M816.4617192788568,638.1887118374914 L816.2671664801386,638.2613499920819 M816.2671664801386,638.2613499920819 L816.1164085043946,638.3606297008192 M816.1164085043946,638.3606297008192 L816.0182062683388,638.4807867690023 M816.0182062683388,638.4807867690023 L815.9783232312194,638.6148620604297 M815.9783232312194,638.6148620604297 L815.9990087364207,638.755039716409 M815.9990087364207,638.755039716409 L816.079090730225,638.8931712115614 M816.079090730225,638.8931712115614 L816.2139567309529,639.0212560469739 M816.2139567309529,639.0212560469739 L816.3957578624771,639.1318350746395 M816.3957578624771,639.1318350746395 L816.6139259090925,639.2184723655234 M816.6139259090925,639.2184723655234 L816.8557693040256,639.2761273866545 M816.8557693040256,639.2761273866545 L817.1072548753397,639.3014643281097 M817.1072548753397,639.3014643281097 L817.3537153195513,639.29297566808 M817.3537153195513,639.29297566808 L817.5808695099744,639.2511932699626 M817.5808695099744,639.2511932699626 L817.775453431858,639.1785090246744 M817.775453431858,639.1785090246744 L817.9261981229926,639.0791772679273 M817.9261981229926,639.0791772679273 L818.0243457093037,638.9589741152348 M818.0243457093037,638.9589741152348 L818.0641452323747,638.8248692551047 M818.0641452323747,638.8248692551047 L818.0433665052036,638.6846853263088 M818.0433665052036,638.6846853263088 L817.963151924712,638.5465471450308 M817.963151924712,638.5465471450308 L817.8282346637822,638.4185012675262 M817.8282346637822,638.4185012675262 L817.6464243419963,638.3079727763817 M32.96622619555279,301.8493876762734 L20.458719424270157,295.57163949776236 M32.96622619555279,301.8493876762734 L32.93876451392106,316.7821530060482 M32.96631797947714,301.4435775079389 L32.966141774790685,301.57894277008234 M32.966141774790685,301.57894277008234 L32.96611115297742,301.7142292448246 M32.96611115297742,301.7142292448246 L32.96622619555279,301.8493876762734 M20.45806434276261,295.1663696996806 L32.96631797947714,301.4435775079389 M747.526945366572,660.0424419043524 L763.5424366415303,668.0797402998035 M763.5424366415303,668.0797402998035 L888.839594934907,585.6951401525099 M888.839594934907,585.6951401525099 L148.45188660056704,230.93327659008685 M32.96631797947714,301.4435775079389 L-88.17794847088618,362.5146932472844 M-88.17794847088618,362.5146932472844 L-31.840877618952163,392.05260366916843 M-31.840877618952163,392.05260366916843 L-44.90884081178001,398.77594084820885 M-44.90884081178001,398.77594084820885 L20.45806434276261,433.2105111318183 M20.45806434276261,433.2105111318183 L33.52748633750548,426.3256826520221 M33.52748633750548,426.3256826520221 L325.8526593773563,579.5937643030309 M325.8526593773563,579.5937643030309 L312.82133779362823,587.2242840676527 M312.82133779362823,587.2242840676527 L387.0776079685486,626.3416745619966 M387.0776079685486,626.3416745619966 L400.08763889337376,618.5156702870594 M400.08763889337376,618.5156702870594 L628.1355705705867,738.0827559717461 M747.526945366572,660.0424419043524 L628.1355705705867,738.0827559717461 M93.04900689115595,264.9318203059642 L93.39534711202577,265.1476440110812 M93.39534711202577,265.1476440110812 L93.62869332460167,265.3977030846938 M93.62869332460167,265.3977030846938 L93.7354601033826,265.66747978698464 M93.7354601033826,265.66747978698464 L93.70940067500516,265.94130412988113 M93.70940067500516,265.94130412988113 L93.55199989741885,266.20325659695357 M93.55199989741885,266.20325659695357 L93.27236325054116,266.438107439438 M93.27236325054116,266.438107439438 L92.88673538979174,266.63218464566603 M92.88673538979174,266.63218464566603 L92.41751320006995,266.7741968517091 M92.41751320006995,266.7741968517091 L91.89199622684413,266.85586784106187 M91.89199622684413,266.85586784106187 L91.34074751834879,266.8724451728738 M91.34074751834879,266.8724451728738 L90.79584915946327,266.8229585931516 M90.79584915946327,266.8229585931516 L90.28900201323643,266.71029381249406 M90.28900201323643,266.71029381249406 L89.84968760350296,266.54101237513316 M89.84968760350296,266.54101237513316 L89.50345104949793,266.3249700081429 M89.50345104949793,266.3249700081429 L89.27040103861293,266.07474182235995 M89.27040103861293,266.07474182235995 L89.16405750103189,265.80488545621597 M89.16405750103189,265.80488545621597 L89.19056820611286,265.5310881438168 M89.19056820611286,265.5310881438168 L89.34834608909716,265.2692637871325 M89.34834608909716,265.2692637871325 L89.62819897186239,265.03461263545375 M89.62819897186239,265.03461263545375 L90.01383265894395,264.8407609482521 M90.01383265894395,264.8407609482521 L90.4828489308722,264.6989484333548 M90.4828489308722,264.6989484333548 L91.00799541811034,264.61740555289975 M91.00799541811034,264.61740555289975 L91.55879425446909,264.6008555601639 M91.55879425446909,264.6008555601639 L92.10326523996747,264.6502618609002 M92.10326523996747,264.6502618609002 L92.6098074623273,264.76275814312703 M92.6098074623273,264.76275814312703 L93.04900689115595,264.9318203059642 M820.5952421484741,621.397037848039 L821.051137162047,621.6725252602462 M821.051137162047,621.6725252602462 L821.3895605104486,621.9916839338001 M821.3895605104486,621.9916839338001 L821.5909464375383,622.3360496255017 M821.5909464375383,622.3360496255017 L821.6434566139336,622.6855794784719 M821.6434566139336,622.6855794784719 L821.5440250312023,623.0199653155192 M821.5440250312023,623.0199653155192 L821.2983602579856,623.3197567358327 M821.2983602579856,623.3197567358327 L820.9207386925358,623.5675068227309 M820.9207386925358,623.5675068227309 L820.4330855439908,623.7487983421404 M820.4330855439908,623.7487983421404 L819.8637531270691,623.8530546282906 M819.8637531270691,623.8530546282906 L819.2458716814832,623.8742147969646 M819.2458716814832,623.8742147969646 L818.6153785077489,623.8110269021753 M818.6153785077489,623.8110269021753 L818.0090465074155,623.6672183033974 M818.0090465074155,623.6672183033974 L817.4620224880772,623.4511038317349 M817.4620224880772,623.4511038317349 L817.0062361427921,623.1753257049843 M817.0062361427921,623.1753257049843 L816.6680834809841,622.855898519381 M816.6680834809841,622.855898519381 L816.4672611237521,622.5114425711931 M816.4672611237521,622.5114425711931 L816.4153365747078,622.1619519221833 M816.4153365747078,622.1619519221833 L816.5152928252738,621.8277508431378 M816.5152928252738,621.8277508431378 L816.7613011007865,621.5282474060673 M816.7613011007865,621.5282474060673 L817.1390063240505,621.2808225520924 M817.1390063240505,621.2808225520924 L817.6264641243257,621.0998190216923 M817.6264641243257,621.0998190216923 L818.195366918599,620.9957474811042 M818.195366918599,620.9957474811042 L818.8126829044944,620.9746265139496 M818.8126829044944,620.9746265139496 L819.4425531757951,621.0376740007143 M819.4425531757951,621.0376740007143 L820.0484892542992,621.1812642394001 M820.0484892542992,621.1812642394001 L820.5952421484741,621.397037848039 M886.6818500850821,601.8902095610647 L888.839594934907,585.6951401525099 M763.4928670659762,668.5141733078706 L747.4785838584993,660.4763094014745 M763.4928670659762,668.5141733078706 L761.6472133577978,684.4979904995303 M747.4785838584993,660.4763094014745 L745.6773043371442,676.4393650238119 M747.4785838584993,660.4763094014745 L747.4945566095813,660.3318220461093 M747.4945566095813,660.3318220461093 L747.5106790902404,660.1871819907593 M747.5106790902404,660.1871819907593 L747.526945366572,660.0424419043524 M626.5508127438262,754.6827670266966 L628.1355705705867,738.0827559717461 M399.1342732158415,634.8011409253976 L400.08763889337376,618.5156702870594 M386.15459648987394,642.6484428877392 L387.0776079685486,626.3416745619966 M312.0945155574176,603.423604228894 L312.82133779362823,587.2242840676527 M325.0953237079541,595.7718351402511 L325.8526593773563,579.5937643030309 M33.496694617154844,442.0569035135964 L33.52748633750548,426.3256826520221 M20.45806434276261,448.9626233346672 L20.45806434276261,433.2105111318183 M-44.756290940783686,414.4227938876719 L-44.90884081178001,398.77594084820885 M-31.719109254257603,407.67868004825226 L-31.840877618952163,392.05260366916843 M-87.92760314719129,378.0486203235917 L-88.17794847088618,362.5146932472844 M763.5424366415303,668.0797402998035 L763.5257677190995,668.224669416995 M763.5257677190995,668.224669416995 L763.5092425004622,668.3694979989349 M763.5092425004622,668.3694979989349 L763.4928670659762,668.5141733078706 M91.93015583236019,280.6353904096077 L92.07283111337972,267.0155722870436 M92.07283111337972,267.0155722870436 L92.2113210370901,267.10195867553347 M92.2113210370901,267.10195867553347 L92.30460060968215,267.20203796679743 M92.30460060968215,267.20203796679743 L92.34724877029328,267.309994309928 M92.34724877029328,267.309994309928 L92.33677101097578,267.4195601114874 M92.33677101097578,267.4195601114874 L92.27378124721753,267.52436111495535 M92.27378124721753,267.52436111495535 L92.16192612459673,267.6183101348412 M92.16192612459673,267.6183101348412 L92.00770797216967,267.6959419552566 M92.00770797216967,267.6959419552566 L91.82008754589106,267.75274269799297 M91.82008754589106,267.75274269799297 L91.6099764667486,267.78540622240206 M91.6099764667486,267.78540622240206 L91.38958030262575,267.7920369972486 M91.38958030262575,267.7920369972486 L91.17172641047478,267.77224366547716 M91.17172641047478,267.77224366547716 L90.96907088001126,267.7271827644055 M90.96907088001126,267.7271827644055 L90.79339929576923,267.6594733347041 M90.79339929576923,267.6594733347041 L90.65492647744037,267.57305221408876 M90.65492647744037,267.57305221408876 L90.56169437557242,267.47294591087496 M90.56169437557242,267.47294591087496 L90.51911380062205,267.36497677116745 M90.51911380062205,267.36497677116745 L90.52966378115912,267.25541531959067 M90.52966378115912,267.25541531959067 L90.59271385286957,267.15063481591693 M90.59271385286957,267.15063481591693 L90.7046035568793,267.0567177501124 M90.7046035568793,267.0567177501124 L90.85882264087115,266.9791220173045 M90.85882264087115,266.9791220173045 L91.04641013548968,266.9223532288643 M91.04641013548968,266.9223532288643 L91.256461965026,266.8897102036764 M91.256461965026,266.8897102036764 L91.47678613252742,266.8830837795675 M91.47678613252742,266.8830837795675 L91.69457177832066,266.9028643134076 M91.69457177832066,266.9028643134076 L91.89717844349929,266.9478982028902 M91.89717844349929,266.9478982028902 L92.07283111337972,267.0155722870436 M817.6464243419963,638.3079727763817 L819.4442875395135,623.7275873006816 M819.4442875395135,623.7275873006816 L819.6265717295558,623.8378474597907 M819.6265717295558,623.8378474597907 L819.7618672440275,623.9655825000062 M819.7618672440275,623.9655825000062 L819.8423425508078,624.1033853709714 M819.8423425508078,624.1033853709714 L819.8632491370962,624.2432290518302 M819.8632491370962,624.2432290518302 L819.8234373170873,624.3770084453772 M819.8234373170873,624.3770084453772 L819.725137772754,624.4969198923569 M819.725137772754,624.4969198923569 L819.5741103984434,624.5960106092443 M819.5741103984434,624.5960106092443 L819.3791294858025,624.6685184869193 M819.3791294858025,624.6685184869193 L819.1514869680603,624.7101995039026 M819.1514869680603,624.7101995039026 L818.9044754152945,624.7186675672896 M818.9044754152945,624.7186675672896 L818.6524078824506,624.6933921029746 M818.6524078824506,624.6933921029746 L818.4099856493432,624.6358769784932 M818.4099856493432,624.6358769784932 L818.1912754836684,624.5494499171111 M818.1912754836684,624.5494499171111 L818.0090004961677,624.4391392304323 M818.0090004961677,624.4391392304323 L817.8737564508693,624.3113652392094 M817.8737564508693,624.3113652392094 L817.7934142181008,624.1735689966134 M817.7934142181008,624.1735689966134 L817.7726012784182,624.0337315874601 M817.7726012784182,624.0337315874601 L817.8124970067412,623.8999817573786 M817.8124970067412,623.8999817573786 L817.9108514742785,623.7801163867455 M817.9108514742785,623.7801163867455 L818.0618922232942,623.6810777086489 M818.0618922232942,623.6810777086489 L818.2568418988654,623.6086159135078 M818.2568418988654,623.6086159135078 L818.4844157017548,623.5669644483432 M818.4844157017548,623.5669644483432 L818.7313368331005,623.558502661936 M818.7313368331005,623.558502661936 L818.9832618065069,623.5837345916502 M818.9832618065069,623.5837345916502 L819.2256125488221,623.6412107662804 M819.2256125488221,623.6412107662804 L819.4442875395135,623.7275873006816 M93.04900689115595,264.9318203059642 L93.03201182791986,266.5328443616576 M93.03201182791986,266.5328443616576 L93.37826962200597,266.74874328852195 M93.37826962200597,266.74874328852195 L93.61155964004325,266.9988895061157 M93.61155964004325,266.9988895061157 L93.71829973385633,267.2687602118983 M93.71829973385633,267.2687602118983 L93.69224469912177,267.5426799559939 M93.69224469912177,267.5426799559939 L93.5348791544605,267.8047236761041 M93.5348791544605,267.8047236761041 L93.25530654963023,268.0396563206318 M93.25530654963023,268.0396563206318 L92.86976782423869,268.2338011197419 M92.86976782423869,268.2338011197419 L92.40065468653688,268.3758627814874 M92.40065468653688,268.3758627814874 L91.87526033326532,268.45756221117716 M91.87526033326532,268.45756221117716 L91.32414067391363,268.474145315584 M91.32414067391363,268.474145315584 L90.77937027385138,268.42464150339674 M90.77937027385138,268.42464150339674 L90.27264254320266,268.31193748848597 M90.27264254320266,268.31193748848597 L89.83343205364804,268.1425970966845 M89.83343205364804,268.1425970966845 L89.4872778793461,267.92647948305967 M89.4872778793461,267.92647948305967 L89.25428392515732,267.6761641339208 M89.25428392515732,267.6761641339208 L89.14796687495834,267.4062137552636 M89.14796687495834,267.4062137552636 L89.17447297481584,267.1323210447148 M89.17447297481584,267.1323210447148 L89.33221544749279,266.87040544961565 M89.33221544749279,266.87040544961565 L89.61200418573435,266.635672518687 M89.61200418573435,266.635672518687 L89.99754873336576,266.4417532643449 M89.99754873336576,266.4417532643449 L90.46645604850272,266.29989131653844 M90.46645604850272,266.29989131653844 L90.99148008851938,266.2183200103693 M90.99148008851938,266.2183200103693 L91.54215008632849,266.201764248195 M91.54215008632849,266.201764248195 L92.08649331349181,266.25118777216085 M92.08649331349181,266.25118777216085 L92.59291626424238,266.3637232694799 M92.59291626424238,266.3637232694799 L93.03201182791986,266.5328443616576 M820.5952421484741,621.397037848039 L820.3836116022229,623.111475645369 M820.3836116022229,623.111475645369 L820.8393672436408,623.387042329093 M820.8393672436408,623.387042329093 L821.1776792943086,623.706292824393 M821.1776792943086,623.706292824393 L821.3789884407969,624.0507575704047 M821.3789884407969,624.0507575704047 L821.431460865111,624.4003879424434 M821.431460865111,624.4003879424434 L821.3320327695031,624.7348699238926 M821.3320327695031,624.7348699238926 L821.086412551531,625.0347475256292 M821.086412551531,625.0347475256292 L820.7088740296864,625.2825688219976 M820.7088740296864,625.2825688219976 L820.221337595609,625.4639124424193 M820.221337595609,625.4639124424193 L819.652148776261,625.5681986880402 M819.652148776261,625.5681986880402 L819.0344294450855,625.589364937152 M819.0344294450855,625.589364937152 L818.4041074623207,625.5261588849055 M818.4041074623207,625.5261588849055 L817.7979457291693,625.3823089592432 M817.7979457291693,625.3823089592432 L817.2510811747978,625.1661323752215 M817.2510811747978,625.1661323752215 L816.7954341774749,624.8902749769204 M816.7954341774749,624.8902749769204 L816.4573926749193,624.5707559567749 M816.4573926749193,624.5707559567749 L816.2566468197764,624.2262009588421 M816.2566468197764,624.2262009588421 L816.2047597102973,623.8766097916633 M816.2047597102973,623.8766097916633 L816.3047121835751,623.5423125724548 M816.3047121835751,623.5423125724548 L816.5506757025108,623.2427229605681 M816.5506757025108,623.2427229605681 L816.9282978157845,622.9952269045845 M816.9282978157845,622.9952269045845 L817.41563898536,622.814171279779 M817.41563898536,622.814171279779 L817.9843983968022,622.7100697839587 M817.9843983968022,622.7100697839587 L818.6015525648003,622.6889427372656 M818.6015525648003,622.6889427372656 L819.2312519707258,622.7520083716302 M819.2312519707258,622.7520083716302 L819.8370180199073,622.8956399388268 M819.8370180199073,622.8956399388268 L820.3836116022229,623.111475645369" stroke="black"  stroke-width="4"  fill="red"/>
<path d="M761.6472133577978,684.4979904995303 L629.7286169165568,771.653860279011 M761.6472133577978,684.4979904995303 L745.6773043371442,676.4393650238119 M613.6652441842926,763.1461298551865 L745.6773043371442,676.4393650238119 M629.7286169165568,771.653860279011 L613.6652441842926,763.1461298551865 M763.4928670659762,668.5141733078706 L761.6472133577978,684.4979904995303 M840.1502599419433,518.6145075517597 L835.7217052544644,522.787255774487 M835.7217052544644,522.787255774487 L831.3113561353688,527.2448782939898 M831.3113561353688,527.2448782939898 L826.9331128892883,531.9738644538471 M826.9331128892883,531.9738644538471 L822.6008191144471,536.9598055750814 M822.6008191144471,536.9598055750814 L818.328205832105,542.1873787462579 M818.328205832105,542.1873787462579 L814.1288559875424,547.6402697737556 M814.1288559875424,547.6402697737556 L810.0161096025182,553.3015851934157 M810.0161096025182,553.3015851934157 L806.0030568304988,559.1535615910116 M806.0030568304988,559.1535615910116 L802.1024783000286,565.1777098382527 M802.1024783000286,565.1777098382527 L798.3267619017275,571.3551257287052 M798.3267619017275,571.3551257287052 L794.6879058937021,577.666198941875 M794.6879058937021,577.666198941875 L791.1974228889375,584.0910349179701 M791.1974228889375,584.0910349179701 L787.8663553512027,590.609109847373 M787.8663553512027,590.609109847373 L784.7051676916363,597.1998519039179 M784.7051676916363,597.1998519039179 L781.7237525982763,603.8423545142127 M781.7237525982763,603.8423545142127 L778.9313837794838,610.51557261546 M778.9313837794838,610.51557261546 L776.336681189871,617.1983626311064 M776.336681189871,617.1983626311064 L773.9475762767883,623.869671321503 M773.9475762767883,623.869671321503 L771.7712962033353,630.5084653227768 M771.7712962033353,630.5084653227768 L769.8143326707906,637.0939178920014 M769.8143326707906,637.0939178920014 L768.0824188188764,643.6054910300904 M768.0824188188764,643.6054910300904 L766.580526052347,650.0229060353923 M766.580526052347,650.0229060353923 L765.3128329420223,656.3263771851714 M765.3128329420223,656.3263771851714 L764.2827467391431,662.4964178397225 M764.2827467391431,662.4964178397225 L763.4928670659762,668.5141733078706 M840.7942418759034,518.03125579982 L840.7880991947728,518.1331620515924 M840.7880991947728,518.1331620515924 L840.7635983598963,518.2461018342954 M840.7635983598963,518.2461018342954 L840.7221770311252,518.3634792860793 M840.7221770311252,518.3634792860793 L840.6662239410472,518.4785420848452 M840.6662239410472,518.4785420848452 L840.5990024946533,518.5845293085149 M840.5990024946533,518.5845293085149 L840.5244188596263,518.6753170601789 M840.5244188596263,518.6753170601789 L840.4468024099584,518.7456078024936 M840.4468024099584,518.7456078024936 L840.3706573341598,518.7913874590349 M840.3706573341598,518.7913874590349 L840.3004234713109,518.809878451173 M840.3004234713109,518.809878451173 L840.2401677130687,518.8000853687713 M840.2401677130687,518.8000853687713 L840.1934035172611,518.7625614138813 M840.1934035172611,518.7625614138813 L840.1628426215638,518.6994671982225 M840.1628426215638,518.6994671982225 L840.1502599419433,518.6145075517597 M917.8971240249003,367.6023010053009 L916.9495049400479,373.91256186039436 M916.9495049400479,373.91256186039436 L915.7736700389554,380.3365717978939 M915.7736700389554,380.3365717978939 L914.3734442044675,386.85625366526244 M914.3734442044675,386.85625366526244 L912.7532513116347,393.4533033021803 M912.7532513116347,393.4533033021803 L910.9180142860961,400.1094386476558 M910.9180142860961,400.1094386476558 L908.8732320393179,406.8061840209217 M908.8732320393179,406.8061840209217 L906.6249014252372,413.52510434038345 M906.6249014252372,413.52510434038345 L904.1795321940441,420.24767812444236 M904.1795321940441,420.24767812444236 L901.5440909540511,426.9555171333134 M901.5440909540511,426.9555171333134 L898.7260066674552,433.6303959367249 M898.7260066674552,433.6303959367249 L895.7332014722789,440.25396512698256 M895.7332014722789,440.25396512698256 L892.573964553958,446.8082658464148 M892.573964553958,446.8082658464148 L889.2570188771407,453.2755214896329 M889.2570188771407,453.2755214896329 L885.7914763685957,459.63805117665584 M885.7914763685957,459.63805117665584 L882.1868064902523,465.8786256236426 M882.1868064902523,465.8786256236426 L878.4528313294023,471.98015749971785 M878.4528313294023,471.98015749971785 L874.5997128639491,477.92599739197294 M874.5997128639491,477.92599739197294 L870.6378853974232,483.69991600266303 M870.6378853974232,483.69991600266303 L866.5781128043096,489.2860091662817 M866.5781128043096,489.2860091662817 L862.4313841443887,494.66890594767216 M862.4313841443887,494.66890594767216 L858.2089498903275,499.8336401964582 M858.2089498903275,499.8336401964582 L853.9222777876549,504.76577391012825 M853.9222777876549,504.76577391012825 L849.5830234719743,509.45151296165113 M849.5830234719743,509.45151296165113 L845.2030207201748,513.8775631259226 M845.2030207201748,513.8775631259226 L840.7942418759034,518.03125579982 M666.2424220862828,522.2689470354351 L917.8971240249003,367.6023010053009 M654.2038380102791,644.9527002950833 L666.2424220862828,522.2689470354351 M641.1168550519981,653.3038179233425 L654.2038380102791,644.9527002950833 M629.7286169165568,771.653860279011 L641.1168550519981,653.3038179233425 M763.4928670659762,668.5141733078706 L747.4785838584993,660.4763094014745 M747.4785838584993,660.4763094014745 L745.6773043371442,676.4393650238119 M613.6652441842926,763.1461298551865 L624.723700010417,644.9527069663969 M637.8194654233761,636.6459566723389 L624.723700010417,644.9527069663969 M637.8194654233761,636.6459566723389 L649.5150709169383,514.1369037375265 M901.3825043211126,360.2849576485328 L649.5150709169383,514.1369037375265 M901.3825043211126,360.2849576485328 L900.452159431568,366.58560688292454 M900.452159431568,366.58560688292454 L899.2932846206389,372.99934445988623 M899.2932846206389,372.99934445988623 L897.9096575805542,379.5081213383015 M897.9096575805542,379.5081213383015 L896.3056562936857,386.09366282128383 M896.3056562936857,386.09366282128383 L894.4861595964827,392.73771716768476 M894.4861595964827,392.73771716768476 L892.4566236605145,399.4218403458967 M892.4566236605145,399.4218403458967 L890.223004465009,406.12762983463153 M890.223004465009,406.12762983463153 L887.7917723897198,412.8365978467545 M887.7917723897198,412.8365978467545 L885.1698567042139,419.53039062961466 M885.1698567042139,419.53039062961466 L882.3646511651538,426.19081806097495 M882.3646511651538,426.19081806097495 L879.3840440086179,432.79956730513595 M879.3840440086179,432.79956730513595 L876.236293068407,439.3387165012236 M876.236293068407,439.3387165012236 L872.9300920264862,445.7905269128835 M872.9300920264862,445.7905269128835 L869.4745251714882,452.1373564314809 M869.4745251714882,452.1373564314809 L865.8790369845011,458.3620150236553 M865.8790369845011,458.3620150236553 L862.1534262113338,464.4474554616701 M862.1534262113338,464.4474554616701 L858.3078340009264,470.3770689767008 M858.3078340009264,470.3770689767008 L854.3526760586391,476.1346673479625 M854.3526760586391,476.1346673479625 L850.2986997300076,481.70438820804225 M850.2986997300076,481.70438820804225 L846.156879937375,487.07090268766456 M846.156879937375,487.07090268766456 L841.9384550769513,492.2192872355308 M841.9384550769513,492.2192872355308 L837.6548831078347,497.1351467663603 M837.6548831078347,497.1351467663603 L833.3178124160855,501.8047302159375 M833.3178124160855,501.8047302159375 L828.9390715522715,506.214786721005 M828.9390715522715,506.214786721005 L824.5306299066218,510.35269112106977 M823.8866247862333,510.93366077623114 L823.8995105451637,511.01856130764486 M823.8995105451637,511.01856130764486 L823.9303576325539,511.0816661386448 M823.9303576325539,511.0816661386448 L823.97737438712,511.11926986281526 M823.97737438712,511.11926986281526 L824.0378344765153,511.1292072216993 M824.0378344765153,511.1292072216993 L824.1082125857973,511.110916576675 M824.1082125857973,511.110916576675 L824.1844332339268,511.065381814018 M824.1844332339268,511.065381814018 L824.2620525137455,510.9953661147203 M824.2620525137455,510.9953661147203 L824.3365658655943,510.9048676643471 M824.3365658655943,510.9048676643471 L824.4036480785757,510.7991671799912 M824.4036480785757,510.7991671799912 L824.4594009631563,510.68437193817726 M824.4594009631563,510.68437193817726 L824.5005729462524,510.5672272070396 M824.5005729462524,510.5672272070396 L824.5247896217392,510.4544719102896 M824.5247896217392,510.4544719102896 L824.5306299066218,510.35269112106977 M747.4785838584993,660.4763094014745 L748.2520192226303,654.4666786856963 M748.2520192226303,654.4666786856963 L749.2658623087108,648.3055888795055 M749.2658623087108,648.3055888795055 L750.5175635277191,642.0118672420251 M750.5175635277191,642.0118672420251 L752.0037655978393,635.6049697334072 M752.0037655978393,635.6049697334072 L753.7203389393052,629.1046486103766 M753.7203389393052,629.1046486103766 L755.6623607136511,622.5311461025409 M755.6623607136511,622.5311461025409 L757.8241452928265,615.9049610902358 M757.8241452928265,615.9049610902358 L760.199247536693,609.2468785734278 M760.199247536693,609.2468785734278 L762.7804857020905,602.5778877420897 M762.7804857020905,602.5778877420897 L765.5599721223665,595.9189955587915 M765.5599721223665,595.9189955587915 L768.5291292381663,589.2912972436217 M768.5291292381663,589.2912972436217 L771.6787238473702,582.7157877687218 M771.6787238473702,582.7157877687218 L774.9989018343828,576.2133220751066 M774.9989018343828,576.2133220751066 L778.4792349262922,569.8044192050093 M778.4792349262922,569.8044192050093 L782.1087152131757,563.5095487724122 M782.1087152131757,563.5095487724122 L785.8758615156195,557.3485506839975 M785.8758615156195,557.3485506839975 L789.7687048884674,551.3409798005878 M789.7687048884674,551.3409798005878 L793.7748835543345,545.5056848143141 M793.7748835543345,545.5056848143141 L797.8816406616019,539.8610990166387 M797.8816406616019,539.8610990166387 L802.0759067257558,534.4249302555529 M802.0759067257558,534.4249302555529 L806.3443589652485,529.2140170503642 M806.3443589652485,529.2140170503642 L810.6734291366232,524.244619013379 M810.6734291366232,524.244619013379 L815.0493973242827,519.5320055552186 M815.0493973242827,519.5320055552186 L819.4584277436749,515.0905329674681 M819.4584277436749,515.0905329674681 L823.8866247862333,510.93366077623114 M624.723700010417,644.9527069663969 L641.1168550519981,653.3038179233425 M840.1502599419433,518.6145075517597 L823.8866247862333,510.93366077623114 M840.7942418759034,518.03125579982 L824.5306299066218,510.35269112106977 M917.8971240249003,367.6023010053009 L901.3825043211126,360.2849576485328 M666.2424220862828,522.2689470354351 L649.5150709169383,514.1369037375265 M654.2038380102791,644.9527002950833 L637.8194654233761,636.6459566723389" stroke="black"  stroke-width="4"  fill="red"/>
<path d="M817.6464243419963,638.3079727763817 L819.4442875395135,623.7275873006816 M819.4442875395135,623.7275873006816 L819.6265717295558,623.8378474597907 M819.6265717295558,623.8378474597907 L819.7618672440275,623.9655825000062 M819.7618672440275,623.9655825000062 L819.8423425508078,624.1033853709714 M819.8423425508078,624.1033853709714 L819.8632491370962,624.2432290518302 M819.8632491370962,624.2432290518302 L819.8234373170873,624.3770084453772 M819.8234373170873,624.3770084453772 L819.725137772754,624.4969198923569 M819.725137772754,624.4969198923569 L819.5741103984434,624.5960106092443 M819.5741103984434,624.5960106092443 L819.3791294858025,624.6685184869193 M819.3791294858025,624.6685184869193 L819.1514869680603,624.7101995039026 M819.1514869680603,624.7101995039026 L818.9044754152945,624.7186675672896 M818.9044754152945,624.7186675672896 L818.6524078824506,624.6933921029746 M818.6524078824506,624.6933921029746 L818.4099856493432,624.6358769784932 M818.4099856493432,624.6358769784932 L818.1912754836684,624.5494499171111 M818.1912754836684,624.5494499171111 L818.0090004961677,624.4391392304323 M818.0090004961677,624.4391392304323 L817.8737564508693,624.3113652392094 M817.8737564508693,624.3113652392094 L817.7934142181008,624.1735689966134 M817.7934142181008,624.1735689966134 L817.7726012784182,624.0337315874601 M817.7726012784182,624.0337315874601 L817.8124970067412,623.8999817573786 M817.8124970067412,623.8999817573786 L817.9108514742785,623.7801163867455 M817.9108514742785,623.7801163867455 L818.0618922232942,623.6810777086489 M818.0618922232942,623.6810777086489 L818.2568418988654,623.6086159135078 M818.2568418988654,623.6086159135078 L818.4844157017548,623.5669644483432 M818.4844157017548,623.5669644483432 L818.7313368331005,623.558502661936 M818.7313368331005,623.558502661936 L818.9832618065069,623.5837345916502 M818.9832618065069,623.5837345916502 L819.2256125488221,623.6412107662804 M819.2256125488221,623.6412107662804 L819.4442875395135,623.7275873006816 M817.6464243419963,638.3079727763817 L817.4282912831276,638.2213860214296 M817.4282912831276,638.2213860214296 L817.1865190351447,638.1637699570501 M817.1865190351447,638.1637699570501 L816.9351754720473,638.1384766144902 M816.9351754720473,638.1384766144902 L816.688805046345,638.1469589964282 M816.688805046345,638.1469589964282 L816.4617192788568,638.1887118374914 M816.4617192788568,638.1887118374914 L816.2671664801386,638.2613499920819 M816.2671664801386,638.2613499920819 L816.1164085043946,638.3606297008192 M816.1164085043946,638.3606297008192 L816.0182062683388,638.4807867690023 M816.0182062683388,638.4807867690023 L815.9783232312194,638.6148620604297 M815.9783232312194,638.6148620604297 L815.9990087364207,638.755039716409 M815.9990087364207,638.755039716409 L816.079090730225,638.8931712115614 M816.079090730225,638.8931712115614 L816.2139567309529,639.0212560469739 M816.2139567309529,639.0212560469739 L816.3957578624771,639.1318350746395 M816.3957578624771,639.1318350746395 L816.6139259090925,639.2184723655234 M816.6139259090925,639.2184723655234 L816.8557693040256,639.2761273866545 M816.8557693040256,639.2761273866545 L817.1072548753397,639.3014643281097 M817.1072548753397,639.3014643281097 L817.3537153195513,639.29297566808 M817.3537153195513,639.29297566808 L817.5808695099744,639.2511932699626 M817.5808695099744,639.2511932699626 L817.775453431858,639.1785090246744 M817.775453431858,639.1785090246744 L817.9261981229926,639.0791772679273 M817.9261981229926,639.0791772679273 L818.0243457093037,638.9589741152348 M818.0243457093037,638.9589741152348 L818.0641452323747,638.8248692551047 M818.0641452323747,638.8248692551047 L818.0433665052036,638.6846853263088 M818.0433665052036,638.6846853263088 L817.963151924712,638.5465471450308 M817.963151924712,638.5465471450308 L817.8282346637822,638.4185012675262 M817.8282346637822,638.4185012675262 L817.6464243419963,638.3079727763817 M820.3836116022229,623.111475645369 L820.8393672436408,623.387042329093 M820.8393672436408,623.387042329093 L821.1776792943086,623.706292824393 M821.1776792943086,623.706292824393 L821.3789884407969,624.0507575704047 M821.3789884407969,624.0507575704047 L821.431460865111,624.4003879424434 M821.431460865111,624.4003879424434 L821.3320327695031,624.7348699238926 M821.3320327695031,624.7348699238926 L821.086412551531,625.0347475256292 M821.086412551531,625.0347475256292 L820.7088740296864,625.2825688219976 M820.7088740296864,625.2825688219976 L820.221337595609,625.4639124424193 M820.221337595609,625.4639124424193 L819.652148776261,625.5681986880402 M819.652148776261,625.5681986880402 L819.0344294450855,625.589364937152 M819.0344294450855,625.589364937152 L818.4041074623207,625.5261588849055 M818.4041074623207,625.5261588849055 L817.7979457291693,625.3823089592432 M817.7979457291693,625.3823089592432 L817.2510811747978,625.1661323752215 M817.2510811747978,625.1661323752215 L816.7954341774749,624.8902749769204 M816.7954341774749,624.8902749769204 L816.4573926749193,624.5707559567749 M816.4573926749193,624.5707559567749 L816.2566468197764,624.2262009588421 M816.2566468197764,624.2262009588421 L816.2047597102973,623.8766097916633 M816.2047597102973,623.8766097916633 L816.3047121835751,623.5423125724548 M816.3047121835751,623.5423125724548 L816.5506757025108,623.2427229605681 M816.5506757025108,623.2427229605681 L816.9282978157845,622.9952269045845 M816.9282978157845,622.9952269045845 L817.41563898536,622.814171279779 M817.41563898536,622.814171279779 L817.9843983968022,622.7100697839587 M817.9843983968022,622.7100697839587 L818.6015525648003,622.6889427372656 M818.6015525648003,622.6889427372656 L819.2312519707258,622.7520083716302 M819.2312519707258,622.7520083716302 L819.8370180199073,622.8956399388268 M819.8370180199073,622.8956399388268 L820.3836116022229,623.111475645369 M820.5952421484741,621.397037848039 L821.051137162047,621.6725252602462 M821.051137162047,621.6725252602462 L821.3895605104486,621.9916839338001 M821.3895605104486,621.9916839338001 L821.5909464375383,622.3360496255017 M821.5909464375383,622.3360496255017 L821.6434566139336,622.6855794784719 M821.6434566139336,622.6855794784719 L821.5440250312023,623.0199653155192 M821.5440250312023,623.0199653155192 L821.2983602579856,623.3197567358327 M821.2983602579856,623.3197567358327 L820.9207386925358,623.5675068227309 M820.9207386925358,623.5675068227309 L820.4330855439908,623.7487983421404 M820.4330855439908,623.7487983421404 L819.8637531270691,623.8530546282906 M819.8637531270691,623.8530546282906 L819.2458716814832,623.8742147969646 M819.2458716814832,623.8742147969646 L818.6153785077489,623.8110269021753 M818.6153785077489,623.8110269021753 L818.0090465074155,623.6672183033974 M818.0090465074155,623.6672183033974 L817.4620224880772,623.4511038317349 M817.4620224880772,623.4511038317349 L817.0062361427921,623.1753257049843 M817.0062361427921,623.1753257049843 L816.6680834809841,622.855898519381 M816.6680834809841,622.855898519381 L816.4672611237521,622.5114425711931 M816.4672611237521,622.5114425711931 L816.4153365747078,622.1619519221833 M816.4153365747078,622.1619519221833 L816.5152928252738,621.8277508431378 M816.5152928252738,621.8277508431378 L816.7613011007865,621.5282474060673 M816.7613011007865,621.5282474060673 L817.1390063240505,621.2808225520924 M817.1390063240505,621.2808225520924 L817.6264641243257,621.0998190216923 M817.6264641243257,621.0998190216923 L818.195366918599,620.9957474811042 M818.195366918599,620.9957474811042 L818.8126829044944,620.9746265139496 M818.8126829044944,620.9746265139496 L819.4425531757951,621.0376740007143 M819.4425531757951,621.0376740007143 L820.0484892542992,621.1812642394001 M820.0484892542992,621.1812642394001 L820.5952421484741,621.397037848039 M820.5952421484741,621.397037848039 L820.3836116022229,623.111475645369" stroke="black"  stroke-width="4"  fill="red"/>
<path d="M32.93876451392106,316.7821530060482 L-100.9606309649127,384.6549872418222 M32.93876451392106,316.7821530060482 L20.45871798927402,310.48455790193077 M-113.4340531028738,378.04862164344536 L20.45871798927402,310.48455790193077 M-100.9606309649127,384.6549872418222 L-113.4340531028738,378.04862164344536 M-100.9606309649127,384.6549872418222 L-102.955775044669,274.2533497125504 M-102.955775044669,274.2533497125504 L-89.70441791418995,267.7972658692901 M-89.70441791418995,267.7972658692901 L-91.54045900410603,153.87091813923197 M-91.54045900410603,153.87091813923197 L165.10373770256558,34.05252612545871 M165.10373770256558,34.05252612545871 L164.8659541094894,39.89019969317337 M164.8659541094894,39.89019969317337 L164.39045462489753,45.81348089196376 M164.39045462489753,45.81348089196376 L163.67908662425077,51.80566034731339 M163.67908662425077,51.80566034731339 L162.73434122716776,57.849859390063216 M162.73434122716776,57.849859390063216 L161.55927538959656,63.92925594319502 M161.55927538959656,63.92925594319502 L160.1575697407411,70.02689089815976 M160.1575697407411,70.02689089815976 L158.53347266760397,76.1258824317731 M158.53347266760397,76.1258824317731 L156.69180072299366,82.2093098139045 M156.69180072299366,82.2093098139045 L154.63790484961999,88.2604164280308 M154.63790484961999,88.2604164280308 L152.37768009566503,94.26264017923802 M152.37768009566503,94.26264017923802 L149.9175626655956,100.19934850364575 M149.9175626655956,100.19934850364575 L147.2644559810991,106.05431222158359 M147.2644559810991,106.05431222158359 L144.4257771861645,111.81151815045098 M144.4257771861645,111.81151815045098 L141.40939585150238,117.45508499075606 M141.40939585150238,117.45508499075606 L138.22364394718988,122.96959740864548 M138.22364394718988,122.96959740864548 L134.87726987944495,128.33981562199097 M134.87726987944495,128.33981562199097 L131.37946120889416,133.55095485107472 M131.37946120889416,133.55095485107472 L127.73976655985086,138.5886633808965 M127.73976655985086,138.5886633808965 L123.96814551223144,143.4389404714858 M123.96814551223144,143.4389404714858 L120.0748785348743,148.08832334054424 M120.0748785348743,148.08832334054424 L116.07058925694633,152.5237711037991 M116.07058925694633,152.5237711037991 L111.96621002719593,156.73277775005775 M111.96621002719593,156.73277775005775 L107.77296272543606,160.70347928276203 M107.77296272543606,160.70347928276203 L103.50232819960172,164.42451777491831 M103.50232819960172,164.42451777491831 L99.16601709598154,167.8851565006453 M99.16601709598154,167.8851565006453 L99.17216780484506,167.98063525966987 M99.17216780484506,167.98063525966987 L99.15946914572777,168.0846167201426 M99.15946914572777,168.0846167201426 L99.12867014292249,168.1910287708134 M99.12867014292249,168.1910287708134 L99.08154907266157,168.29375031698189 M99.08154907266157,168.29375031698189 L99.02084794872013,168.3867428683887 M99.02084794872013,168.3867428683887 L98.95009859988437,168.46463548558498 M98.95009859988437,168.46463548558498 L98.8734044815763,168.52288062900973 M98.8734044815763,168.52288062900973 L98.79522463891874,168.5581595513516 M98.79522463891874,168.5581595513516 L98.72010391723876,168.56831318959877 M98.72010391723876,168.56831318959877 L98.65240176773813,168.5528247944281 M98.65240176773813,168.5528247944281 L98.59606354319061,168.512580868046 M98.59606354319061,168.512580868046 L98.5543541146535,168.4499008045669 M98.5543541146535,168.4499008045669 L98.52970087353918,168.36846321730292 M98.52970087353918,168.36846321730292 L94.17478244206319,171.84439634787404 M94.17478244206319,171.84439634787404 L89.87669096253217,175.59036465119883 M89.87669096253217,175.59036465119883 L85.6489338362752,179.5950944733158 M85.6489338362752,179.5950944733158 L81.5048378287018,183.84647740441758 M81.5048378287018,183.84647740441758 L77.45748716278109,188.3315486074028 M77.45748716278109,188.3315486074028 L73.51967645536638,193.03640958667617 M73.51967645536638,193.03640958667617 L69.70386003331748,197.9466058373148 M69.70386003331748,197.9466058373148 L66.02210932410378,203.04685056294494 M66.02210932410378,203.04685056294494 L62.486067086511525,208.32115289698453 M62.486067086511525,208.32115289698453 L59.10689655425887,213.75310049233988 M59.10689655425887,213.75310049233988 L55.89524973145916,219.32558325291282 M55.89524973145916,219.32558325291282 L52.861216239148916,225.02117922637615 M52.861216239148916,225.02117922637615 L50.01429826310573,230.82182832859772 M50.01429826310573,230.82182832859772 L47.363366024208744,236.7093672539423 M47.363366024208744,236.7093672539423 L44.916629654073176,242.6652570710169 M44.916629654073176,242.6652570710169 L42.68161264752905,248.67076105563044 M42.68161264752905,248.67076105563044 L40.66511921212714,254.70697630081898 M40.66511921212714,254.70697630081898 L38.873220122504165,260.75500602303833 M38.873220122504165,260.75500602303833 L37.31122670308423,266.79588899070154 M37.31122670308423,266.79588899070154 L35.98367993495032,272.8107704251584 M35.98367993495032,272.8107704251584 L34.894335108793655,278.78097509848675 M34.894335108793655,278.78097509848675 L34.04615421710349,284.6879772357048 M34.04615421710349,284.6879772357048 L33.44130041694507,290.51361641765425 M33.44130041694507,290.51361641765425 L33.08113659898396,296.23991498409333 M33.08113659898396,296.23991498409333 L32.96622619555279,301.8493876762734 M32.96622619555279,301.8493876762734 L32.93876451392106,316.7821530060482 M32.96622619555279,301.8493876762734 L20.458719424270157,295.57163949776236 M20.458719424270157,295.57163949776236 L20.45871798927402,310.48455790193077 M20.458719424270157,295.57163949776236 L20.563411837443255,289.96982745790154 M20.563411837443255,289.96982745790154 L20.913370274866452,284.2517569132073 M20.913370274866452,284.2517569132073 L21.508061829865653,278.43488759828676 M21.508061829865653,278.43488759828676 L22.346154474777563,272.53716941296307 M22.346154474777563,272.53716941296307 L23.425515698545894,266.5767332159089 M23.425515698545894,266.5767332159089 L24.743214288744696,260.57207320490517 M24.743214288744696,260.57207320490517 L26.29552548685956,254.5418313426665 M26.29552548685956,254.5418313426665 L28.07793866576992,248.5048274587837 M28.07793866576992,248.5048274587837 L30.085172560254364,242.47998630985788 M30.085172560254364,242.47998630985788 L32.31118585554253,236.48616696539435 M32.31118585554253,236.48616696539435 L34.74920335564707,230.54223336358064 M34.74920335564707,230.54223336358064 L37.39172981774857,224.6668823023412 M37.39172981774857,224.6668823023412 L40.230582564524695,218.87861196502024 M40.230582564524695,218.87861196502024 L43.25691771447873,213.1955444139078 M43.25691771447873,213.1955444139078 L46.46125881932676,207.63569770542807 M46.46125881932676,207.63569770542807 L49.83354042739961,202.21645182258544 M49.83354042739961,202.21645182258544 L53.363133740214835,196.9548745798412 M53.363133740214835,196.9548745798412 L57.03889707559051,191.86733637634364 M57.03889707559051,191.86733637634364 L60.84920808699678,186.96978616642596 M60.84920808699678,186.96978616642596 L64.78201411677412,182.27746936783788 M64.78201411677412,182.27746936783788 L68.82487774125912,177.80479991511316 M68.82487774125912,177.80479991511316 L72.96501990320905,173.5656362485595 M72.96501990320905,173.5656362485595 L77.18936991274296,169.57290428312527 M77.18936991274296,169.57290428312527 L81.48461266851064,165.83867461950481 M81.48461266851064,165.83867461950481 L85.83725063405052,162.37418428998032 M85.83725063405052,162.37418428998032 L85.86207931350185,162.45554689068086 M85.86207931350185,162.45554689068086 L85.90394569571981,162.51820387996568 M85.90394569571981,162.51820387996568 L85.96041319999802,162.55847802762943 M85.96041319999802,162.55847802762943 L86.02820948886892,162.57404816730175 M86.02820948886892,162.57404816730175 L86.10338375415495,162.56402300747254 M86.10338375415495,162.56402300747254 L86.1815733017753,162.52891193888078 M86.1815733017753,162.52891193888078 L86.25823292205348,162.4708641156036 M86.25823292205348,162.4708641156036 L86.32890544722744,162.3931869061454 M86.32890544722744,162.3931869061454 L86.38949193058687,162.30041531691333 M86.38949193058687,162.30041531691333 L86.43646713749285,162.1979074886464 M86.43646713749285,162.1979074886464 L86.46709765457854,162.09168939425152 M86.46709765457854,162.09168939425152 L86.47961489092063,161.98787096465097 M86.47961489092063,161.98787096465097 L86.47328041055675,161.89251478160637 M152.22491040720342,28.34613972098896 L151.9978903073544,34.1751151617259 M151.9978903073544,34.1751151617259 L151.53307724911508,40.08925185349551 M151.53307724911508,40.08925185349551 L150.83228791704312,46.071865380529744 M150.83228791704312,46.071865380529744 L149.89798324785215,52.106102949759816 M149.89798324785215,52.106102949759816 L148.73319088089943,58.17516886887006 M148.73319088089943,58.17516886887006 L147.34156269635275,64.26213130996757 M147.34156269635275,64.26213130996757 L145.72731925301798,70.35013627077342 M145.72731925301798,70.35013627077342 L143.8952499809269,76.42229157838358 M143.8952499809269,76.42229157838358 L141.85067975414154,82.46186960645116 M141.85067975414154,82.46186960645116 L139.59947867083224,88.45233768940511 M139.59947867083224,88.45233768940511 L137.14805859806017,94.37709353309612 M137.14805859806017,94.37709353309612 L134.5033000426032,100.21993832879389 M134.5033000426032,100.21993832879389 L131.672598340312,105.96488973282601 M131.672598340312,105.96488973282601 L128.6638021295421,111.5960978123556 M128.6638021295421,111.5960978123556 L125.48522394704241,117.098178710556 M125.48522394704241,117.098178710556 L122.14559365763466,122.45592460087124 M122.14559365763466,122.45592460087124 L118.6540817015304,127.6545828140658 M118.6540817015304,127.6545828140658 L115.020220864892,132.67983384389936 M115.020220864892,132.67983384389936 L111.25395604629182,137.51770947365833 M111.25395604629182,137.51770947365833 L107.36555442856923,142.15477938959634 M107.36555442856923,142.15477938959634 L103.36562753152054,146.5780353384104 M103.36562753152054,146.5780353384104 L99.26509692418841,150.77500391426935 M99.26509692418841,150.77500391426935 L95.07517519226707,154.73385354081898 M95.07517519226707,154.73385354081898 L90.80733506581515,158.44325868206815 M90.80733506581515,158.44325868206815 L86.47328041055675,161.89251478160637 M152.22491040720342,28.34613972098896 L-104.42142089987601,147.60880653562768 M-102.37900031608041,261.37135569302797 L-104.42142089987601,147.60880653562768 M-102.37900031608041,261.37135569302797 L-115.62900652322128,267.79726715907066 M-113.4340531028738,378.04862164344536 L-115.62900652322128,267.79726715907066 M-115.62900652322128,267.79726715907066 L-102.955775044669,274.2533497125504 M98.52970087353918,168.36846321730292 L85.83725063405052,162.37418428998032 M99.16601709598154,167.8851565006453 L86.47328041055675,161.89251478160637 M165.10373770256558,34.05252612545871 L152.22491040720342,28.34613972098896 M-91.54045900410603,153.87091813923197 L-104.42142089987601,147.60880653562768 M-89.70441791418995,267.7972658692901 L-102.37900031608041,261.37135569302797" stroke="black"  stroke-width="4"  fill="red"/>
<path d="M91.93015583236019,280.6353904096077 L92.07283111337972,267.0155722870436 M92.07283111337972,267.0155722870436 L92.2113210370901,267.10195867553347 M92.2113210370901,267.10195867553347 L92.30460060968215,267.20203796679743 M92.30460060968215,267.20203796679743 L92.34724877029328,267.309994309928 M92.34724877029328,267.309994309928 L92.33677101097578,267.4195601114874 M92.33677101097578,267.4195601114874 L92.27378124721753,267.52436111495535 M92.27378124721753,267.52436111495535 L92.16192612459673,267.6183101348412 M92.16192612459673,267.6183101348412 L92.00770797216967,267.6959419552566 M92.00770797216967,267.6959419552566 L91.82008754589106,267.75274269799297 M91.82008754589106,267.75274269799297 L91.6099764667486,267.78540622240206 M91.6099764667486,267.78540622240206 L91.38958030262575,267.7920369972486 M91.38958030262575,267.7920369972486 L91.17172641047478,267.77224366547716 M91.17172641047478,267.77224366547716 L90.96907088001126,267.7271827644055 M90.96907088001126,267.7271827644055 L90.79339929576923,267.6594733347041 M90.79339929576923,267.6594733347041 L90.65492647744037,267.57305221408876 M90.65492647744037,267.57305221408876 L90.56169437557242,267.47294591087496 M90.56169437557242,267.47294591087496 L90.51911380062205,267.36497677116745 M90.51911380062205,267.36497677116745 L90.52966378115912,267.25541531959067 M90.52966378115912,267.25541531959067 L90.59271385286957,267.15063481591693 M90.59271385286957,267.15063481591693 L90.7046035568793,267.0567177501124 M90.7046035568793,267.0567177501124 L90.85882264087115,266.9791220173045 M90.85882264087115,266.9791220173045 L91.04641013548968,266.9223532288643 M91.04641013548968,266.9223532288643 L91.256461965026,266.8897102036764 M91.256461965026,266.8897102036764 L91.47678613252742,266.8830837795675 M91.47678613252742,266.8830837795675 L91.69457177832066,266.9028643134076 M91.69457177832066,266.9028643134076 L91.89717844349929,266.9478982028902 M91.89717844349929,266.9478982028902 L92.07283111337972,267.0155722870436 M91.93015583236019,280.6353904096077 L91.75485660491387,280.567516545879 M91.75485660491387,280.567516545879 L91.55265589528148,280.5223497088867 M91.55265589528148,280.5223497088867 L91.33530513349729,280.5025107786988 M91.33530513349729,280.5025107786988 L91.11541954875258,280.50915676548584 M91.11541954875258,280.50915676548584 L90.90578451159786,280.5418961592156 M90.90578451159786,280.5418961592156 L90.71856783705886,280.59883253644097 M90.71856783705886,280.59883253644097 L90.56465205138176,280.67665733428174 M90.56465205138176,280.67665733428174 L90.4529805003238,280.77085163449783 M90.4529805003238,280.77085163449783 L90.39005073686127,280.87594142530526 M90.39005073686127,280.87594142530526 L90.37951622492506,280.9858262591692 M90.37951622492506,280.9858262591692 L90.42200648333085,281.09411406421566 M90.42200648333085,281.09411406421566 L90.51504772943815,281.19451581087304 M90.51504772943815,281.19451581087304 L90.65324022184245,281.2811919741757 M90.65324022184245,281.2811919741757 L90.82855828778588,281.3491012177569 M90.82855828778588,281.3491012177569 L91.0308076667859,281.3942950920855 M91.0308076667859,281.3942950920855 L91.2482264025823,281.4141468324038 M91.2482264025823,281.4141468324038 L91.46818369755158,281.40749649073194 M91.46818369755158,281.40749649073194 L91.67787774948891,281.3747365782415 M91.67787774948891,281.3747365782415 L91.86512722622342,281.31776821626136 M91.86512722622342,281.31776821626136 L92.01904208589309,281.2399072964145 M92.01904208589309,281.2399072964145 L92.1306791948681,281.1456810116588 M92.1306791948681,281.1456810116588 L92.19354889151572,281.0405707015167 M92.19354889151572,281.0405707015167 L92.20401146996909,280.9306815135236 M92.20401146996909,280.9306815135236 L92.16145389430665,280.82240651725203 M92.16145389430665,280.82240651725203 L92.06836536507325,280.72203180829206 M92.06836536507325,280.72203180829206 L91.93015583236019,280.6353904096077 M93.03201182791986,266.5328443616576 L93.37826962200597,266.74874328852195 M93.37826962200597,266.74874328852195 L93.61155964004325,266.9988895061157 M93.61155964004325,266.9988895061157 L93.71829973385633,267.2687602118983 M93.71829973385633,267.2687602118983 L93.69224469912177,267.5426799559939 M93.69224469912177,267.5426799559939 L93.5348791544605,267.8047236761041 M93.5348791544605,267.8047236761041 L93.25530654963023,268.0396563206318 M93.25530654963023,268.0396563206318 L92.86976782423869,268.2338011197419 M92.86976782423869,268.2338011197419 L92.40065468653688,268.3758627814874 M92.40065468653688,268.3758627814874 L91.87526033326532,268.45756221117716 M91.87526033326532,268.45756221117716 L91.32414067391363,268.474145315584 M91.32414067391363,268.474145315584 L90.77937027385138,268.42464150339674 M90.77937027385138,268.42464150339674 L90.27264254320266,268.31193748848597 M90.27264254320266,268.31193748848597 L89.83343205364804,268.1425970966845 M89.83343205364804,268.1425970966845 L89.4872778793461,267.92647948305967 M89.4872778793461,267.92647948305967 L89.25428392515732,267.6761641339208 M89.25428392515732,267.6761641339208 L89.14796687495834,267.4062137552636 M89.14796687495834,267.4062137552636 L89.17447297481584,267.1323210447148 M89.17447297481584,267.1323210447148 L89.33221544749279,266.87040544961565 M89.33221544749279,266.87040544961565 L89.61200418573435,266.635672518687 M89.61200418573435,266.635672518687 L89.99754873336576,266.4417532643449 M89.99754873336576,266.4417532643449 L90.46645604850272,266.29989131653844 M90.46645604850272,266.29989131653844 L90.99148008851938,266.2183200103693 M90.99148008851938,266.2183200103693 L91.54215008632849,266.201764248195 M91.54215008632849,266.201764248195 L92.08649331349181,266.25118777216085 M92.08649331349181,266.25118777216085 L92.59291626424238,266.3637232694799 M92.59291626424238,266.3637232694799 L93.03201182791986,266.5328443616576 M93.04900689115595,264.9318203059642 L93.39534711202577,265.1476440110812 M93.39534711202577,265.1476440110812 L93.62869332460167,265.3977030846938 M93.62869332460167,265.3977030846938 L93.7354601033826,265.66747978698464 M93.7354601033826,265.66747978698464 L93.70940067500516,265.94130412988113 M93.70940067500516,265.94130412988113 L93.55199989741885,266.20325659695357 M93.55199989741885,266.20325659695357 L93.27236325054116,266.438107439438 M93.27236325054116,266.438107439438 L92.88673538979174,266.63218464566603 M92.88673538979174,266.63218464566603 L92.41751320006995,266.7741968517091 M92.41751320006995,266.7741968517091 L91.89199622684413,266.85586784106187 M91.89199622684413,266.85586784106187 L91.34074751834879,266.8724451728738 M91.34074751834879,266.8724451728738 L90.79584915946327,266.8229585931516 M90.79584915946327,266.8229585931516 L90.28900201323643,266.71029381249406 M90.28900201323643,266.71029381249406 L89.84968760350296,266.54101237513316 M89.84968760350296,266.54101237513316 L89.50345104949793,266.3249700081429 M89.50345104949793,266.3249700081429 L89.27040103861293,266.07474182235995 M89.27040103861293,266.07474182235995 L89.16405750103189,265.80488545621597 M89.16405750103189,265.80488545621597 L89.19056820611286,265.5310881438168 M89.19056820611286,265.5310881438168 L89.34834608909716,265.2692637871325 M89.34834608909716,265.2692637871325 L89.62819897186239,265.03461263545375 M89.62819897186239,265.03461263545375 L90.01383265894395,264.8407609482521 M90.01383265894395,264.8407609482521 L90.4828489308722,264.6989484333548 M90.4828489308722,264.6989484333548 L91.00799541811034,264.61740555289975 M91.00799541811034,264.61740555289975 L91.55879425446909,264.6008555601639 M91.55879425446909,264.6008555601639 L92.10326523996747,264.6502618609002 M92.10326523996747,264.6502618609002 L92.6098074623273,264.76275814312703 M92.6098074623273,264.76275814312703 L93.04900689115595,264.9318203059642 M93.04900689115595,264.9318203059642 L93.03201182791986,266.5328443616576" stroke="black"  stroke-width="4"  fill="red"/>
<path d="M-102.37900031608041,261.37135569302797 L-115.62900652322128,267.79726715907066 M-115.62900652322128,267.79726715907066 L-117.89712402490034,153.87091939618423 M-104.42142089987601,147.60880653562768 L-117.89712402490034,153.87091939618423 M-102.37900031608041,261.37135569302797 L-104.42142089987601,147.60880653562768 M-100.9606309649127,384.6549872418222 L-44.756290940783686,414.4227938876719 M-44.756290940783686,414.4227938876719 L-44.90884081178001,398.77594084820885 M-44.90884081178001,398.77594084820885 L20.45806434276261,433.2105111318183 M20.45806434276261,448.9626233346672 L20.45806434276261,433.2105111318183 M20.45806434276261,448.9626233346672 L312.0945155574176,603.423604228894 M312.0945155574176,603.423604228894 L312.82133779362823,587.2242840676527 M312.82133779362823,587.2242840676527 L387.0776079685486,626.3416745619966 M386.15459648987394,642.6484428877392 L387.0776079685486,626.3416745619966 M386.15459648987394,642.6484428877392 L613.6652441842926,763.1461298551865 M613.6652441842926,763.1461298551865 L624.723700010417,644.9527069663969 M624.723700010417,644.9527069663969 L641.1168550519981,653.3038179233425 M641.1168550519981,653.3038179233425 L652.9389254520787,530.4452584217705 M-117.89712402490034,153.87091939618423 L652.9389254520787,530.4452584217705 M-115.62900652322128,267.79726715907066 L-102.955775044669,274.2533497125504 M-100.9606309649127,384.6549872418222 L-102.955775044669,274.2533497125504 M654.2038380102791,644.9527002950833 L637.8194654233761,636.6459566723389 M626.5508127438262,754.6827670266966 L637.8194654233761,636.6459566723389 M626.5508127438262,754.6827670266966 L399.1342732158415,634.8011409253976 M399.1342732158415,634.8011409253976 L400.08763889337376,618.5156702870594 M400.08763889337376,618.5156702870594 L325.8526593773563,579.5937643030309 M325.0953237079541,595.7718351402511 L325.8526593773563,579.5937643030309 M325.0953237079541,595.7718351402511 L33.496694617154844,442.0569035135964 M33.496694617154844,442.0569035135964 L33.52748633750548,426.3256826520221 M33.52748633750548,426.3256826520221 L-31.840877618952163,392.05260366916843 M-31.719109254257603,407.67868004825226 L-31.840877618952163,392.05260366916843 M-31.719109254257603,407.67868004825226 L-87.92760314719129,378.0486203235917 M-87.92760314719129,378.0486203235917 L-89.70441791418995,267.7972658692901 M-89.70441791418995,267.7972658692901 L-102.37900031608041,261.37135569302797 M666.2424220862828,522.2689470354351 L-104.42142089987601,147.60880653562768 M654.2038380102791,644.9527002950833 L666.2424220862828,522.2689470354351 M-100.9606309649127,384.6549872418222 L-87.92760314719129,378.0486203235917 M-102.955775044669,274.2533497125504 L-89.70441791418995,267.7972658692901 M-31.719109254257603,407.67868004825226 L-44.756290940783686,414.4227938876719 M-31.840877618952163,392.05260366916843 L-44.90884081178001,398.77594084820885 M20.45806434276261,448.9626233346672 L33.496694617154844,442.0569035135964 M20.45806434276261,433.2105111318183 L33.52748633750548,426.3256826520221 M325.0953237079541,595.7718351402511 L312.0945155574176,603.423604228894 M325.8526593773563,579.5937643030309 L312.82133779362823,587.2242840676527 M386.15459648987394,642.6484428877392 L399.1342732158415,634.8011409253976 M387.0776079685486,626.3416745619966 L400.08763889337376,618.5156702870594 M626.5508127438262,754.6827670266966 L613.6652441842926,763.1461298551865 M637.8194654233761,636.6459566723389 L624.723700010417,644.9527069663969 M641.1168550519981,653.3038179233425 L654.2038380102791,644.9527002950833 M652.9389254520787,530.4452584217705 L666.2424220862828,522.2689470354351" stroke="black"  stroke-width="4"  fill="red"/></svg>