<svg viewBox="0 0 800 800" xmlns="http://www.w3.org/2000/svg"><path d="M583.6753066916561,570.4978288055152 L583.6753137535901,570.4974956750289 M583.6724570065209,570.4995556158148 L583.6724640684232,570.4992224853103 M583.6753066916561,570.4978288055152 L583.6724570065209,570.4995556158148 M583.6753137535901,570.4974956750289 L583.6724640684232,570.4992224853103 M555.145995303561,587.7856014571072 L555.1460020485125,587.7852681440488 M583.6724570065209,570.4995556158148 L555.145995303561,587.7856014571072 M583.6724640684232,570.4992224853103 L555.1460020485125,587.7852681440488 M-65.43460228065396,228.6953278322743 L-65.4346025981443,228.69499840353137 M555.145995303561,587.7856014571072 L-65.43460228065396,228.6953278322743 M555.1460020485125,587.7852681440488 L-65.4346025981443,228.69499840353137 M-36.889365665998696,212.21472778872163 L-36.88936566596709,212.21439854289275 M-65.43460228065396,228.6953278322743 L-36.889365665998696,212.21472778872163 M-65.4346025981443,228.69499840353137 L-36.88936566596709,212.21439854289275 M16.149853869408616,242.83692866016298 L16.149854459983032,242.83659907479046 M-36.889365665998696,212.21472778872163 L16.149853869408616,242.83692866016298 M-36.88936566596709,212.21439854289275 L16.149854459983032,242.83659907479046 M17.541267620034716,243.64356102688384 L17.54126822613415,243.6432314325864 M16.149853869408616,242.83692866016298 L16.613006203713212,243.10616268138324 M16.613006203713212,243.10616268138324 L17.076814427267607,243.37504225247955 M17.076814427267607,243.37504225247955 L17.541267620034716,243.64356102688384 M16.149854459983032,242.83659907479046 L16.61300679945515,243.10583309303183 M16.61300679945515,243.10583309303183 L17.07681502818457,243.37471266115307 M17.07681502818457,243.37471266115307 L17.54126822613415,243.6432314325864 M437.27406062783473,321.49027793415377 L437.2740659352062,321.48994748310696 M17.541267620034716,243.64356102688384 L37.04384594527039,254.2923405740621 M37.04384594527039,254.2923405740621 L57.56861404944004,264.3094641542816 M57.56861404944004,264.3094641542816 L79.050751303369,273.66100997926924 M79.050751303369,273.66100997926924 L101.42194133266685,282.3151989057196 M101.42194133266685,282.3151989057196 L124.6105649773267,290.24250636270256 M124.6105649773267,290.24250636270256 L148.54197495390372,297.41580678889835 M148.54197495390372,297.41580678889835 L173.1387782984209,303.8104976422398 M173.1387782984209,303.8104976422398 L198.32101815380474,309.4045563944433 M198.32101815380474,309.4045563944433 L224.00662483723727,314.1787231962015 M224.00662483723727,314.1787231962015 L250.11151189835346,318.1164687543434 M250.11151189835346,318.1164687543434 L276.5500535766546,321.204174744772 M276.5500535766546,321.204174744772 L303.2353706233006,323.43115581314646 M303.2353706233006,323.43115581314646 L330.07958942127584,324.7896690334819 M330.07958942127584,324.7896690334819 L356.99425688418034,325.2750094894294 M356.99425688418034,325.2750094894294 L383.8906122528251,324.8854798543597 M383.8906122528251,324.8854798543597 L410.67997164704514,323.62244420144384 M410.67997164704514,323.62244420144384 L437.27406062783473,321.49027793415377 M17.54126822613415,243.6432314325864 L37.043846769115135,254.29201086203187 M37.043846769115135,254.29201086203187 L57.56861510269516,264.30913433165733 M57.56861510269516,264.30913433165733 L79.05075259696684,273.6606800535352 M79.05075259696684,273.6606800535352 L101.42194287676193,282.3148688846817 M101.42194287676193,282.3148688846817 L124.61056678125226,290.242176254464 M124.61056678125226,290.242176254464 L148.5419770261318,297.41547660183454 M148.5419770261318,297.41547660183454 L173.13878064652556,303.8101673849717 M173.13878064652556,303.8101673849717 L198.32102078442858,309.4042260758109 M198.32102078442858,309.4042260758109 L224.00662775606293,314.1783928252359 M224.00662775606293,314.1783928252359 L250.11151511007722,318.1161383402389 M250.11151511007722,318.1161383402389 L276.5500570849654,321.20384429685726 M276.5500570849654,321.20384429685726 L303.235374430864,323.43082534085534 M303.235374430864,323.43082534085534 L330.07959352972114,324.7893385463241 M330.07959352972114,324.7893385463241 L356.994261294093,325.27467899696103 M356.994261294093,325.27467899696103 L383.8906169637437,324.88514936615354 M383.8906169637437,324.88514936615354 L410.6799766574628,323.6221137270591 M410.6799766574628,323.6221137270591 L437.2740659352062,321.48994748310696 M440.680187102961,320.45905153098215 L440.6801924480877,320.4587210912251 M437.27406062783473,321.49027793415377 L437.241323621009,321.2203101757201 M437.241323621009,321.2203101757201 L437.3148610884243,320.9542265910944 M437.3148610884243,320.9542265910944 L437.490837053418,320.70595631752735 M437.490837053418,320.70595631752735 L437.7600079520463,320.48850278771806 M437.7600079520463,320.48850278771806 L438.1083046121996,320.3132625128319 M438.1083046121996,320.3132625128319 L438.5174590916471,320.1893950606971 M438.5174590916471,320.1893950606971 L438.96605326090173,320.12338423367714 M438.96605326090173,320.12338423367714 L439.4306030651269,320.11870742696476 M439.4306030651269,320.11870742696476 L439.8867869824369,320.17557479192186 M439.8867869824369,320.17557479192186 L440.31070799064275,320.2910375840465 M440.31070799064275,320.2910375840465 L440.680187102961,320.45905153098215 M437.2740659352062,321.48994748310696 L437.24132892791806,321.2199797276286 M437.24132892791806,321.2199797276286 L437.3148663960619,320.9538961459161 M437.3148663960619,320.9538961459161 L437.49084236293663,320.70562587506714 M437.49084236293663,320.70562587506714 L437.76001326450023,320.4881723476385 M437.76001326450023,320.4881723476385 L438.10830992848935,320.31293207467115 M438.10830992848935,320.31293207467115 L438.5174644124721,320.1890646238926 M438.5174644124721,320.1890646238926 L438.9660585867241,320.12305379759533 M438.9660585867241,320.12305379759533 L439.43060839614657,320.1183769909342 M439.43060839614657,320.1183769909342 L439.8867923185826,320.1752443552687 M439.8867923185826,320.1752443552687 L440.3107133315741,320.290707146129 M440.3107133315741,320.290707146129 L440.6801924480877,320.4587210912251 M441.2673483077008,321.09828206551435 L441.2673536596286,321.09795161875877 M440.680187102961,320.45905153098215 L440.949865241123,320.6477786255839 M440.949865241123,320.6477786255839 L441.1483867571885,320.8639049848873 M441.1483867571885,320.8639049848873 L441.2673483077008,321.09828206551435 M440.6801924480877,320.4587210912251 L440.9498705893361,320.64744818376056 M440.9498705893361,320.64744818376056 L441.14839210770094,320.8635745406978 M441.14839210770094,320.8635745406978 L441.2673536596286,321.09795161875877 M865.4345924453816,399.7614795006393 L865.4346025981444,399.7611481973353 M441.2673483077008,321.09828206551435 L467.85259513030553,318.966849504945 M467.85259513030553,318.966849504945 L494.62423380740904,317.7048150948806 M494.62423380740904,317.7048150948806 L521.5033725492702,317.3156740272229 M521.5033725492702,317.3156740272229 L548.410757239175,317.8005190727456 M548.410757239175,317.8005190727456 L575.2671487012466,319.15801075055015 M575.2671487012466,319.15801075055015 L601.9933725035295,321.3843811950888 M601.9933725035295,321.3843811950888 L628.5105671889036,324.4734462652177 M628.5105671889036,324.4734462652177 L654.7403144110839,328.41663237366333 M654.7403144110839,328.41663237366333 L680.6049682101758,333.20298631518347 M680.6049682101758,333.20298631518347 L706.0276553203893,338.8191170994502 M706.0276553203893,338.8191170994502 L730.9327302550265,345.24938922707656 M730.9327302550265,345.24938922707656 L755.2456940370131,352.4758060435629 M755.2456940370131,352.4758060435629 L778.8934971906539,360.4780299387339 M778.8934971906539,360.4780299387339 L801.8047695041056,369.23355334954715 M801.8047695041056,369.23355334954715 L823.9099973658796,378.7175855561152 M823.9099973658796,378.7175855561152 L845.1417247607768,388.90324482187305 M845.1417247607768,388.90324482187305 L865.4345924453816,399.7614795006393 M441.2673536596286,321.09795161875877 L467.85260077898886,318.9665190815274 M467.85260077898886,318.9665190815274 L494.6242397551954,317.7044846852847 M494.6242397551954,317.7044846852847 L521.5033787976772,317.3153436218893 M521.5033787976772,317.3153436218893 L548.4107637888862,317.8001886621015 M548.4107637888862,317.8001886621015 L575.2671555521121,319.1576803250392 M575.2671555521121,319.1576803250392 L601.9933796545632,321.38405074520114 M601.9933796545632,321.38405074520114 L628.510574638285,324.47311578152016 M628.510574638285,324.47311578152016 L654.7403221561605,328.4163018468282 M654.7403221561605,328.4163018468282 L680.6049762474669,333.2026557360181 M680.6049762474669,333.2026557360181 L706.0276636455905,338.81878645892607 M706.0276636455905,338.81878645892607 L730.932738863018,345.24905851635697 M730.932738863018,345.24905851635697 L755.2457029218668,352.4754752540307 M755.2457029218668,352.4754752540307 L778.8935063456444,360.4776990620197 M778.8935063456444,360.4776990620197 L801.8047789217197,369.23322237755383 M801.8047789217197,369.23322237755383 L823.910007037833,378.71725448104473 M823.910007037833,378.71725448104473 L845.1417346780271,388.9029136362502 M845.1417346780271,388.9029136362502 L865.4346025981444,399.7611481973353 M865.4345924453816,399.7614795006393 L583.6753066916561,570.4978288055152 M865.4346025981444,399.7611481973353 L583.6753137535901,570.4974956750289" stroke="black"  stroke-width="4"  fill="red"/></svg>