<svg viewBox="0 0 800 800" xmlns="http://www.w3.org/2000/svg"><path d="M592.4513574846201,526.0582579433692 L592.451370298965,526.0580119011295 M592.4499929199724,526.0587886899484 L592.450005734295,526.0585426476816 M592.4513574846201,526.0582579433692 L592.4499929199724,526.0587886899484 M592.451370298965,526.0580119011295 L592.450005734295,526.0585426476816 M578.7783510877409,531.3763653525432 L578.7783636779188,531.3761190468115 M592.4499929199724,526.0587886899484 L578.7783510877409,531.3763653525432 M592.450005734295,526.0585426476816 L578.7783636779188,531.3761190468115 M-184.94001632371805,273.2188682354906 L-184.94001722730047,273.2186350370623 M578.7783510877409,531.3763653525432 L-184.94001632371805,273.2188682354906 M578.7783636779188,531.3761190468115 L-184.94001722730047,273.2186350370623 M-171.19858635385185,268.62386760672916 L-171.19858702970396,268.6236346474566 M-184.94001632371805,273.2188682354906 L-171.19858635385185,268.62386760672916 M-184.94001722730047,273.2186350370623 L-171.19858702970396,268.6236346474566 M-146.23416136388653,277.03963661090484 L-146.23416162888645,277.0394032137733 M-171.19858635385185,268.62386760672916 L-146.23416136388653,277.03963661090484 M-171.19858702970396,268.6236346474566 L-146.23416162888645,277.0394032137733 M-145.20194963871222,277.3885293504038 L-145.20194988668072,277.38829593513447 M-146.23416136388653,277.03963661090484 L-145.89041790820352,277.15602887597083 M-145.89041790820352,277.15602887597083 L-145.5463473365894,277.27232704900825 M-145.5463473365894,277.27232704900825 L-145.20194963871222,277.3885293504038 M-146.23416162888645,277.0394032137733 L-145.89041816753206,277.1557954727882 M-145.89041816753206,277.1557954727882 L-145.54634759024088,277.27209363977977 M-145.54634759024088,277.27209363977977 L-145.20194988668072,277.38829593513447 M411.0913384521424,324.82322215717295 L411.09134752216085,324.82298628695867 M-145.20194963871222,277.3885293504038 L-130.4442670955093,282.18219590064064 M-130.4442670955093,282.18219590064064 L-115.12757870375208,286.8009684510216 M-115.12757870375208,286.8009684510216 L-99.27327317606301,291.237002531381 M-99.27327317606301,291.237002531381 L-82.90382753552888,295.4827094331681 M-82.90382753552888,295.4827094331681 L-66.04278046528827,299.5307771573473 M-66.04278046528827,299.5307771573473 L-48.714710896670454,303.37418334059134 M-48.714710896670454,303.37418334059134 L-30.945158076371285,307.0062286083821 M-30.945158076371285,307.0062286083821 L-12.760615699551636,310.4205385638131 M-12.760615699551636,310.4205385638131 L5.811512445790413,313.61108555961505 M5.811512445790413,313.61108555961505 L24.74301953885947,316.5722187662773 M24.74301953885947,316.5722187662773 L44.00485383402986,319.2986513853375 M44.00485383402986,319.2986513853375 L63.567301508961236,321.78551664755923 M63.567301508961236,321.78551664755923 L83.39991380075446,324.0283369635513 M83.39991380075446,324.0283369635513 L103.47167294739904,326.0230717576769 M103.47167294739904,326.0230717576769 L123.75098809493625,327.76610680150407 M123.75098809493625,327.76610680150407 L144.2058260984178,329.2542850702955 M144.2058260984178,329.2542850702955 L164.80373721407852,330.48490006801717 M164.80373721407852,330.48490006801717 L185.51193954564837,331.4557127640428 M185.51193954564837,331.4557127640428 L206.29735363956786,332.16494079091945 M206.29735363956786,332.16494079091945 L227.1267674565171,332.6112909973449 M227.1267674565171,332.6112909973449 L247.96682069875305,332.7939502353904 M247.96682069875305,332.7939502353904 L268.7841386620287,332.7125824417301 M268.7841386620287,332.7125824417301 L289.5453607629672,332.36733203105973 M289.5453607629672,332.36733203105973 L310.21728573389134,331.75884539936715 M310.21728573389134,331.75884539936715 L330.76684271463273,330.8882169790006 M330.76684271463273,330.8882169790006 L351.161256187376,329.7570469700024 M351.161256187376,329.7570469700024 L371.3680750919923,328.3673945970954 M371.3680750919923,328.3673945970954 L391.3552930825648,326.721788577408 M391.3552930825648,326.721788577408 L411.0913384521424,324.82322215717295 M-145.20194988668072,277.38829593513447 L-130.4442670995943,282.1819622362866 M-130.4442670995943,282.1819622362866 L-115.12757845401597,286.80073454688227 M-115.12757845401597,286.80073454688227 L-99.27327266292548,291.23676839713903 M-99.27327266292548,291.23676839713903 L-82.90382674979213,295.48247507887345 M-82.90382674979213,295.48247507887345 L-66.04277939816194,299.5305425934066 M-66.04277939816194,299.5305425934066 L-48.71470953979599,303.373948577751 M-48.71470953979599,303.373948577751 L-30.945156421844388,307.00599365771245 M-30.945156421844388,307.00599365771245 L-12.760613739944915,310.4203034366901 M-12.760613739944915,310.4203034366901 L5.81151471740543,313.6108502677057 M5.81151471740543,313.6108502677057 L24.743022128893017,316.5719833215185 M24.743022128893017,316.5719833215185 L44.004856748354314,319.2984157999192 M44.004856748354314,319.2984157999192 L63.56730475289373,321.7852809339047 M63.56730475289373,321.7852809339047 L83.39991737904052,324.0281011342954 M83.39991737904052,324.0281011342954 L103.471676864198,326.02283582564814 M103.471676864198,326.02283582564814 L123.7509923538073,327.7658707797025 M123.7509923538073,327.7658707797025 L144.20583070230975,329.2540489718697 M144.20583070230975,329.2540489718697 L164.80374216531993,330.4846639062455 M164.80374216531993,330.4846639062455 L185.51194484593884,331.45547655230894 M185.51194484593884,331.45547655230894 L206.29735928997206,332.1647045426914 M206.29735928997206,332.1647045426914 L227.12677345746135,332.61105472615145 M227.12677345746135,332.61105472615145 L247.96682705002274,332.79371395479916 M247.96682705002274,332.79371395479916 L268.78414536276796,332.7123461653259 M268.78414536276796,332.7123461653259 L289.5453678116801,332.367095772418 M289.5453678116801,332.367095772418 L310.2172931284465,331.7586091720343 M310.2172931284465,331.7586091720343 L330.76685045226805,330.88798079647086 M330.76685045226805,330.88798079647086 L351.1612642647058,329.75681084569464 M351.1612642647058,329.75681084569464 L371.368083505017,328.36715854433146 M371.368083505017,328.36715854433146 L391.35530182668276,326.72155260938916 M391.35530182668276,326.72155260938916 L411.09134752216085,324.82298628695867 M412.6750022529493,324.49020262896624 L412.6750113486273,324.4899667759114 M411.0913384521424,324.82322215717295 L411.0390133274773,324.7439089147656 M411.0390133274773,324.7439089147656 L411.0430995953599,324.6636443221573 M411.0430995953599,324.6636443221573 L411.1033113972112,324.5870549471963 M411.1033113972112,324.5870549471963 L411.21613514621674,324.51852420822115 M411.21613514621674,324.51852420822115 L411.3751770479971,324.46203704390314 M411.3751770479971,324.46203704390314 L411.5711593875385,324.4208149141373 M411.5711593875385,324.4208149141373 L411.7929189633421,324.39726191993327 M411.7929189633421,324.39726191993327 L412.02755541968736,324.3926974794051 M412.02755541968736,324.3926974794051 L412.2616465627277,324.40740717366316 M412.2616465627277,324.40740717366316 L412.4816776668431,324.44054875118377 M412.4816776668431,324.44054875118377 L412.6750022529493,324.49020262896624 M411.09134752216085,324.82298628695867 L411.0390223964107,324.74367304863745 M411.0390223964107,324.74367304863745 L411.04310866415096,324.66340846016556 M411.04310866415096,324.66340846016556 L411.10332046681015,324.5868190891508 M411.10332046681015,324.5868190891508 L411.2161442175261,324.51828835370634 M411.2161442175261,324.51828835370634 L411.37518612182294,324.4618011922996 M411.37518612182294,324.4618011922996 L411.5711684645396,324.4205790646572 M411.5711684645396,324.4205790646572 L411.79292804399677,324.3970260716669 M411.79292804399677,324.3970260716669 L412.02756450426114,324.39246163137386 M412.02756450426114,324.39246163137386 L412.2616556512621,324.40717132487407 M412.2616556512621,324.40717132487407 L412.4816867591511,324.44031290068665 M412.4816867591511,324.44031290068665 L412.6750113486273,324.4899667759114 M412.94381617659883,324.631312361435 L412.9438252771524,324.6310765011092 M412.6750022529493,324.49020262896624 L412.7863169262828,324.5323740997869 M412.7863169262828,324.5323740997869 L412.87675980967674,324.57984219942136 M412.87675980967674,324.57984219942136 L412.94381617659883,324.631312361435 M412.6750113486273,324.4899667759114 L412.7863260239368,324.53213824455884 M412.7863260239368,324.53213824455884 L412.87676890897126,324.5796063417472 M412.87676890897126,324.5796063417472 L412.9438252771524,324.6310765011092 M984.9399982789184,373.4000430608544 L984.9400172273006,373.39980469920806 M412.94381617659883,324.631312361435 L432.65607981044036,322.73504121838596 M432.65607981044036,322.73504121838596 L452.58162942457386,321.09479389849776 M452.58162942457386,321.09479389849776 L472.69725384147057,319.7120980145428 M472.69725384147057,319.7120980145428 L492.97958780902025,318.5882179319101 M492.97958780902025,318.5882179319101 L513.405190364695,317.72421243150256 M513.405190364695,317.72421243150256 L533.9505021251698,317.12085109114673 M533.9505021251698,317.12085109114673 L554.5919179670486,316.7787030292516 M554.5919179670486,316.7787030292516 L575.3057482539243,316.69808081367523 M575.3057482539243,316.69808081367523 L596.0683001405089,316.87906297323525 M596.0683001405089,316.87906297323525 L616.855783992695,317.32148700930475 M616.855783992695,317.32148700930475 L637.6443235477698,318.0249345148661 M637.6443235477698,318.0249345148661 L658.4101023585217,318.98875882735456 M658.4101023585217,318.98875882735456 L679.1292702495584,320.2120760073967 M679.1292702495584,320.2120760073967 L699.7779148113227,321.6937623526708 M699.7779148113227,321.6937623526708 L720.3322414008139,323.4324367873144 M720.3322414008139,323.4324367873144 L740.7683173967189,325.4264786773592 M740.7683173967189,325.4264786773592 L761.0624302461065,327.67403787467015 M761.0624302461065,327.67403787467015 L781.1907145719342,330.1730006964581 M781.1907145719342,330.1730006964581 L801.1294729687413,332.92101317507627 M801.1294729687413,332.92101317507627 L820.8550201241028,335.91546024996865 M820.8550201241028,335.91546024996865 L840.343836797615,339.1534879694759 M840.343836797615,339.1534879694759 L859.5723580702161,342.63200348697796 M859.5723580702161,342.63200348697796 L878.5172842230709,346.3476379627582 M878.5172842230709,346.3476379627582 L897.1553601424846,350.29678195447104 M897.1553601424846,350.29678195447104 L915.4634051250298,354.4755251707643 M915.4634051250298,354.4755251707643 L933.4185868844927,358.87976466475175 M933.4185868844927,358.87976466475175 L950.9981148669235,363.5050775756022 M950.9981148669235,363.5050775756022 L968.1793376602218,368.34679928863216 M968.1793376602218,368.34679928863216 L984.9399982789184,373.4000430608544 M412.9438252771524,324.6310765011092 L432.65608923610375,322.734805455784 M432.65608923610375,322.734805455784 L452.5816391792779,321.09455822045425 M452.5816391792779,321.09455822045425 L472.6972639288315,319.7118624078021 M472.6972639288315,319.7118624078021 L492.97959823233896,318.58798238313716 M492.97959823233896,318.58798238313716 L513.4052011269566,317.72397692730306 M513.4052011269566,317.72397692730306 L533.9505132290444,317.1206156180781 M533.9505132290444,317.1206156180781 L554.59192941489,316.7784675738378 M554.59192941489,316.7784675738378 L575.3057600477696,316.69784536242173 M575.3057600477696,316.69784536242173 L596.0683122820778,316.87882751264283 M596.0683122820778,316.87882751264283 L616.8557964833883,317.3212515258833 M616.8557964833883,317.3212515258833 L637.6443363886665,318.024698995152 M637.6443363886665,318.024698995152 L658.410115550379,318.9885232579204 M658.410115550379,318.9885232579204 L679.1292837928092,320.2118403748714 M679.1292837928092,320.2118403748714 L699.7779287060723,321.6935266437472 M699.7779287060723,321.6935266437472 L720.3322556468402,323.4322009887687 M720.3322556468402,323.4322009887687 L740.7683319934652,325.4262427760648 M740.7683319934652,325.4262427760648 L761.0624451926842,327.6738018576102 M761.0624451926842,327.6738018576102 L781.1907298671144,330.17276455073943 M781.1907298671144,330.17276455073943 L801.1294886109536,332.92077688794893 M801.1294886109536,332.92077688794893 L820.8550361114317,335.91522380883384 M820.8550361114317,335.91522380883384 L840.343853127798,339.1532513619038 M840.343853127798,339.1532513619038 L859.5723747406362,342.6317667007195 M859.5723747406362,342.6317667007195 L878.5173012307553,346.3474009857646 M878.5173012307553,346.3474009857646 L897.1553774841009,350.29654477490203 M897.1553774841009,350.29654477490203 L915.4634227968793,354.47528777700586 M915.4634227968793,354.47528777700586 L933.4186048825106,358.87952704542977 M933.4186048825106,358.87952704542977 L950.9981331866716,363.5048397195974 M950.9981331866716,363.5048397195974 L968.179356296884,368.3465611850927 M968.179356296884,368.3465611850927 L984.9400172273006,373.39980469920806 M984.9399982789184,373.4000430608544 L592.4513574846201,526.0582579433692 M984.9400172273006,373.39980469920806 L592.451370298965,526.0580119011295" stroke="black"  stroke-width="4"  fill="red"/></svg>