<svg viewBox="0 0 800 800" xmlns="http://www.w3.org/2000/svg"><path d="M-191.54032951003273,17.19018145884104 L-208.35843067526957,26.900116693848815 M-208.35843031970558,23.204985908348362 L-208.35843067526957,26.900116693848815 M-208.35843031970558,23.204985908348362 L-208.35852498928807,23.187230328748853 M-208.35852498928807,23.187230328748853 L-208.35858179210322,23.169452242525892 M-208.35858179210322,23.169452242525892 L-208.35860072666776,23.15165202622967 M-191.50504817340845,13.462528335712534 L-208.35860072666776,23.15165202622967 M-191.54032951003273,17.19018145884104 L-191.50504817340845,13.462528335712534 M1016.0116050628571,733.790329328247 L1005.5555047979544,727.7534983671499 M993.7161919171094,787.0145218926066 L1005.5555047979544,727.7534983671499 M993.7161919171094,787.0145218926066 L457.586737252205,464.51184621473385 M454.84189424930514,468.7067352204591 L457.586737252205,464.51184621473385 M318.9629893069524,386.6081885796533 L454.84189424930514,468.7067352204591 M321.94180865030535,382.9161568982628 L318.9629893069524,386.6081885796533 M321.94180865030535,382.9161568982628 L-90.2108242686196,134.9903513908746 M-93.57389967313384,137.35184495991683 L-90.2108242686196,134.9903513908746 M-171.20798894571772,90.44503553452626 L-93.57389967313384,137.35184495991683 M-167.82750313047904,88.30090653314846 L-171.20798894571772,90.44503553452626 M-167.82750313047904,88.30090653314846 L-236.51563531725867,46.98232904257304 M-205.11208002298906,28.774397700320037 L-236.51563531725867,46.98232904257304 M-205.11208002298906,28.774397700320037 L-208.35843067526957,26.900116693848815 M1022.0133582785313,702.6043048161364 L-191.54032951003273,17.19018145884104 M1016.0116050628571,733.790329328247 L1022.0133582785313,702.6043048161364 M-198.1134523230645,22.846910384770524 L-198.15911713094192,22.82645679770934 M-198.15911713094192,22.82645679770934 L-198.21189853823103,22.812846122829285 M-198.21189853823103,22.812846122829285 L-198.26872894241455,22.806868179128344 M-198.26872894241455,22.806868179128344 L-198.3263079067924,22.808870527501767 M-198.3263079067924,22.808870527501767 L-198.38128989635265,22.818736667535063 M-198.38128989635265,22.818736667535063 L-198.43048165428013,22.83589398491364 M-198.43048165428013,22.83589398491364 L-198.47102436838077,22.859345797969524 M-198.47102436838077,22.859345797969524 L-198.5005622967874,22.88773032100528 M-198.5005622967874,22.88773032100528 L-198.51737749391555,22.919398341682154 M-198.51737749391555,22.919398341682154 L-198.5204919191392,22.952510415656775 M-198.5204919191392,22.952510415656775 L-198.50972264301413,22.985141849231354 M-198.50972264301413,22.985141849231354 L-198.48569489630324,23.015396432642206 M-198.48569489630324,23.015396432642206 L-198.44980316915814,23.041514548434805 M-198.44980316915814,23.041514548434805 L-198.40413379444033,23.06197823194219 M-198.40413379444033,23.06197823194219 L-198.35134041188485,23.075596618621205 M-198.35134041188485,23.075596618621205 L-198.29449320528943,23.081578215894353 M-198.29449320528943,23.081578215894353 L-198.23689646026264,23.079574625619102 M-198.23689646026264,23.079574625619102 L-198.18189978538453,23.069702632854387 M-198.18189978538453,23.069702632854387 L-198.13269980153154,23.05253619256291 M-198.13269980153154,23.05253619256291 L-198.09215720545774,23.02907407653862 M-198.09215720545774,23.02907407653862 L-198.06262771199295,23.000680430651244 M-198.06262771199295,23.000680430651244 L-198.04582733427515,22.969006557266027 M-198.04582733427515,22.969006557266027 L-198.04273071815328,22.935893241418285 M-198.04273071815328,22.935893241418285 L-198.0535167129833,22.90326546132013 M-198.0535167129833,22.90326546132013 L-198.07755625827258,22.873018589839432 M-198.07755625827258,22.873018589839432 L-198.1134523230645,22.846910384770524 M1013.9112094924842,714.7679038887316 L1013.7791654744992,714.7025555007206 M1013.7791654744992,714.7025555007206 L1013.6513943302441,714.6591303231614 M1013.6513943302441,714.6591303231614 L1013.5350978988617,714.6400219681764 M1013.5350978988617,714.6400219681764 L1013.4372611857036,714.6464734881201 M1013.4372611857036,714.6464734881201 L1013.3632993150397,714.6779572391106 M1013.3632993150397,714.6779572391106 L1013.3175517355999,714.7326721558884 M1013.3175517355999,714.7326721558884 L1013.3028413722845,714.8075346647447 M1013.3028413722845,714.8075346647447 L1013.3200268850712,714.8981999212253 M1013.3200268850712,714.8981999212253 L1013.3679526305025,714.9993090898215 M1013.3679526305025,714.9993090898215 L1013.4437962206475,715.1049654991159 M1013.4437962206475,715.1049654991159 L1013.5434221312712,715.2091806012063 M1013.5434221312712,715.2091806012063 L1013.660810748685,715.3057647382557 M1013.660810748685,715.3057647382557 L1013.7893586065263,715.3892236450035 M1013.7893586065263,715.3892236450035 L1013.92132788912,715.4545532768204 M1013.92132788912,715.4545532768204 L1014.0491711759105,715.4980224294586 M1014.0491711759105,715.4980224294586 L1014.1655373637866,715.5171516576083 M1014.1655373637866,715.5171516576083 L1014.2635581785255,715.5107688726357 M1014.2635581785255,715.5107688726357 L1014.3374083163415,715.4791758580109 M1014.3374083163415,715.4791758580109 L1014.383142100631,715.4244089459489 M1014.383142100631,715.4244089459489 L1014.3978067554999,715.3494876548837 M1014.3978067554999,715.3494876548837 L1014.3805541138822,715.2587703234158 M1014.3805541138822,715.2587703234158 L1014.3326881617431,715.1577036228844 M1014.3326881617431,715.1577036228844 L1014.2566494305231,715.0519642815386 M1014.2566494305231,715.0519642815386 L1014.1569862026267,714.9477700239331 M1014.1569862026267,714.9477700239331 L1014.0395938385379,714.8512298706028 M1014.0395938385379,714.8512298706028 L1013.9112094924842,714.7679038887316 M-205.10527737479356,25.075339846318116 L-208.35843031970558,23.204985908348362 M-205.10527737479356,25.075339846318116 L-205.11208002298906,28.774397700320037 M-205.10534941891115,25.02194935479463 L-205.1053632726821,25.039768534825328 M-205.1053632726821,25.039768534825328 L-205.10533925771256,25.05756549098345 M-205.10533925771256,25.05756549098345 L-205.10527737479356,25.075339846318116 M-208.35860072666776,23.15165202622967 L-205.10534941891115,25.02194935479463 M1010.1804539991858,723.6909351034569 L1020.6942349607898,729.7353179639886 M1020.6942349607898,729.7353179639886 L1026.6263902660198,698.5118628316318 M1026.6263902660198,698.5118628316318 L-191.50504817340845,13.462528335712534 M-205.10534941891115,25.02194935479463 L-236.57672113225453,43.19195428526018 M-236.57672113225453,43.19195428526018 L-167.7355426844066,84.43058292819279 M-167.7355426844066,84.43058292819279 L-171.12350675659195,86.57078648238547 M-171.12350675659195,86.57078648238547 L-93.29991619155749,133.39723403887604 M-93.29991619155749,133.39723403887604 L-89.92948488733043,131.03953408226022 M-89.92948488733043,131.03953408226022 L323.5212211569012,378.7130997175876 M323.5212211569012,378.7130997175876 L320.53822146100947,382.4036048445206 M320.53822146100947,382.4036048445206 L456.9542625054685,464.4851246697244 M456.9542625054685,464.4851246697244 L459.70111361426416,460.2903205075852 M459.70111361426416,460.2903205075852 L998.4680670029877,783.0333475275752 M1010.1804539991858,723.6909351034569 L998.4680670029877,783.0333475275752 M-197.83912642081873,18.961438093117295 L-197.74918836041024,19.026550068856636 M-197.74918836041024,19.026550068856636 L-197.68893796032853,19.101989847030154 M-197.68893796032853,19.101989847030154 L-197.66188277754748,19.183377368823187 M-197.66188277754748,19.183377368823187 L-197.6696049989489,19.265984756157934 M-197.6696049989489,19.265984756157934 L-197.71166492027544,19.345010532702588 M-197.71166492027544,19.345010532702588 L-197.7856261816138,19.415858906739402 M-197.7856261816138,19.415858906739402 L-197.88719504875485,19.474407495901175 M-197.88719504875485,19.474407495901175 L-198.01046865129968,19.51724808911223 M-198.01046865129968,19.51724808911223 L-198.1482782603124,19.541886121135462 M-198.1482782603124,19.541886121135462 L-198.29260703918135,19.546886619300267 M-198.29260703918135,19.546886619300267 L-198.43505762195957,19.53195803756762 M-198.43505762195957,19.53195803756762 L-198.56734246952783,19.49797042490195 M-198.56734246952783,19.49797042490195 L-198.68176742637934,19.44690297047441 M-198.68176742637934,19.44690297047441 L-198.77167911947004,19.381728567492587 M-198.77167911947004,19.381728567492587 L-198.8318556314125,19.30624049955503 M-198.8318556314125,19.30624049955503 L-198.8588057179917,19.224830237148353 M-198.8588057179917,19.224830237148353 L-198.85097180087655,19.14223056495956 M-198.85097180087655,19.14223056495956 L-198.8088188655629,19.063241366518923 M-198.8088188655629,19.063241366518923 L-198.73480466173407,18.992450007720265 M-198.73480466173407,18.992450007720265 L-198.63323505223525,18.933965809426866 M-198.63323505223525,18.933965809426866 L-198.510013077537,18.891182231450898 M-198.510013077537,18.891182231450898 L-198.37229563911353,18.8665807775717 M-198.37229563911353,18.8665807775717 L-198.2280783770143,18.8615880871522 M-198.2280783770143,18.8615880871522 L-198.08573341693352,18.876493742717685 M-198.08573341693352,18.876493742717685 L-197.9535235688138,18.91043325077692 M-197.9535235688138,18.91043325077692 L-197.83912642081873,18.961438093117295 M1018.6200428129252,710.2231662911511 L1018.9427724973657,710.4316201088327 M1018.9427724973657,710.4316201088327 L1019.2381483696734,710.6732077929564 M1019.2381483696734,710.6732077929564 L1019.4890201373778,710.9339227686369 M1019.4890201373778,710.9339227686369 L1019.6806666366472,711.1985565496329 M1019.6806666366472,711.1985565496329 L1019.8019348173004,711.4517357678503 M1019.8019348173004,711.4517357678503 L1019.8458257402158,711.678778856558 M1019.8458257402158,711.678778856558 L1019.8096650887328,711.8664133095749 M1019.8096650887328,711.8664133095749 L1019.6955296734616,712.0037026605905 M1019.6955296734616,712.0037026605905 L1019.5101323802439,712.0826898207188 M1019.5101323802439,712.0826898207188 L1019.2641709658469,712.098716327982 M1019.2641709658469,712.098716327982 L1018.9719492967417,712.050836193898 M1018.9719492967417,712.050836193898 L1018.6506089752177,711.9419132423104 M1018.6506089752177,711.9419132423104 L1018.3188463569975,711.7782911401719 M1018.3188463569975,711.7782911401719 L1017.995788868071,711.5694029484141 M1017.995788868071,711.5694029484141 L1017.7004357321787,711.3275389381013 M1017.7004357321787,711.3275389381013 L1017.4497985179833,711.0666930324442 M1017.4497985179833,711.0666930324442 L1017.2585446304054,710.8021037579554 M1017.2585446304054,710.8021037579554 L1017.1377371372471,710.5491342447583 M1017.1377371372471,710.5491342447583 L1017.0942695677747,710.3224180732554 M1017.0942695677747,710.3224180732554 L1017.1307191272606,710.1351528037876 M1017.1307191272606,710.1351528037876 L1017.2449428011269,709.998190303432 M1017.2449428011269,709.998190303432 L1017.4302076628278,709.91941290318 M1017.4302076628278,709.91941290318 L1017.6758461143488,709.9034308909813 M1017.6758461143488,709.9034308909813 L1017.9676282589112,709.9511800311498 M1017.9676282589112,709.9511800311498 L1018.2885133846205,710.0598266868126 M1018.2885133846205,710.0598266868126 L1018.6200428129252,710.2231662911511 M1022.0133582785313,702.6043048161364 L1026.6263902660198,698.5118628316318 M1020.6274367665978,729.7929008138576 L1010.1144821511402,723.7486273358854 M1020.6274367665978,729.7929008138576 L1016.0116050628571,733.790329328247 M1010.1144821511402,723.7486273358854 L1005.5555047979544,727.7534983671499 M1010.1144821511402,723.7486273358854 L1010.1364577952168,723.7294678002756 M1010.1364577952168,723.7294678002756 L1010.1584485668309,723.7102369206714 M1010.1584485668309,723.7102369206714 L1010.1804539991858,723.6909351034569 M993.7161919171094,787.0145218926066 L998.4680670029877,783.0333475275752 M457.586737252205,464.51184621473385 L459.70111361426416,460.2903205075852 M454.84189424930514,468.7067352204591 L456.9542625054685,464.4851246697244 M318.9629893069524,386.6081885796533 L320.53822146100947,382.4036048445206 M321.94180865030535,382.9161568982628 L323.5212211569012,378.7130997175876 M-90.2108242686196,134.9903513908746 L-89.92948488733043,131.03953408226022 M-93.57389967313384,137.35184495991683 L-93.29991619155749,133.39723403887604 M-171.20798894571772,90.44503553452626 L-171.12350675659195,86.57078648238547 M-167.82750313047904,88.30090653314846 L-167.7355426844066,84.43058292819279 M-236.51563531725867,46.98232904257304 L-236.57672113225453,43.19195428526018 M1020.6942349607898,729.7353179639886 L1020.6719544807304,729.7545838597307 M1020.6719544807304,729.7545838597307 L1020.6496882584427,729.7737782782162 M1020.6496882584427,729.7737782782162 L1020.6274367665978,729.7929008138576 M-198.1134523230645,22.846910384770524 L-198.094095990396,19.500402194607886 M-198.094095990396,19.500402194607886 L-198.05813152889823,19.526460204846273 M-198.05813152889823,19.526460204846273 L-198.03404589314027,19.556648928278435 M-198.03404589314027,19.556648928278435 L-198.02323879448204,19.589213987552284 M-198.02323879448204,19.589213987552284 L-198.02634052677035,19.622263653890684 M-198.02634052677035,19.622263653890684 L-198.04317194831742,19.653876649023005 M-198.04317194831742,19.653876649023005 L-198.0727566147906,19.68221572502182 M-198.0727566147906,19.68221572502182 L-198.11337530824164,19.705632751697635 M-198.11337530824164,19.705632751697635 L-198.16266789226643,19.72276620312624 M-198.16266789226643,19.72276620312624 L-198.21776828462498,19.732619225388873 M-198.21776828462498,19.732619225388873 L-198.27547383360331,19.734618965518564 M-198.27547383360331,19.734618965518564 L-198.33242860012228,19.728648862672685 M-198.33242860012228,19.728648862672685 L-198.3853220438382,19.71505664609049 M-198.3853220438382,19.71505664609049 L-198.4310781599977,19.694632288602634 M-198.4310781599977,19.694632288602634 L-198.46703826796386,19.66856436782541 M-198.46703826796386,19.66856436782541 L-198.49111206068142,19.638367932743165 M-198.49111206068142,19.638367932743165 L-198.5019023774737,19.60579922012562 M-198.5019023774737,19.60579922012562 L-198.49878276869129,19.572750795615093 M-198.49878276869129,19.572750795615093 L-198.48193647155028,19.541143652978576 M-198.48193647155028,19.541143652978576 L-198.45234333803091,19.5128136995001 M-198.45234333803091,19.5128136995001 L-198.41172452588285,19.489406975418603 M-198.41172452588285,19.489406975418603 L-198.36244019870094,19.472282646571614 M-198.36244019870094,19.472282646571614 L-198.30735454708213,19.46243547682792 M-198.30735454708213,19.46243547682792 L-198.24966684598348,19.46043697855498 M-198.24966684598348,19.46043697855498 L-198.19272894551273,19.466403427961268 M-198.19272894551273,19.466403427961268 L-198.1398475225286,19.479987933024574 M-198.1398475225286,19.479987933024574 L-198.094095990396,19.500402194607886 M1013.9112094924842,714.7679038887316 L1018.043221593681,711.1190189195304 M1018.043221593681,711.1190189195304 L1018.1722598156239,711.2024324765741 M1018.1722598156239,711.2024324765741 L1018.29030380786,711.2990741304957 M1018.29030380786,711.2990741304957 L1018.3905789664193,711.403377981122 M1018.3905789664193,711.403377981122 L1018.4671538661028,711.5092285884334 M1018.4671538661028,711.5092285884334 L1018.5154484179354,711.610401683078 M1018.5154484179354,711.610401683078 L1018.5329988342992,711.7012145512222 M1018.5329988342992,711.7012145512222 L1018.5184823245875,711.7762147704855 M1018.5184823245875,711.7762147704855 L1018.4727384079781,711.8310393937743 M1018.4727384079781,711.8310393937743 L1018.3987218735926,711.862665705756 M1018.3987218735926,711.862665705756 L1018.3003863749987,711.8690552183664 M1018.3003863749987,711.8690552183664 L1018.1835761369416,711.8499058279886 M1018.1835761369416,711.8499058279886 L1018.055185776557,711.8063908646736 M1018.055185776557,711.8063908646736 L1017.9225978221707,711.7409923994637 M1017.9225978221707,711.7409923994637 L1017.7933950802724,711.6574455844789 M1017.7933950802724,711.6574455844789 L1017.6753547436631,711.5607597516832 M1017.6753547436631,711.5607597516832 L1017.5751170999868,711.4564349640852 M1017.5751170999868,711.4564349640852 L1017.4987384314693,711.3506674000714 M1017.4987384314693,711.3506674000714 L1017.4503840202083,711.249451905654 M1017.4503840202083,711.249451905654 L1017.4329013252502,711.1586913435531 M1017.4329013252502,711.1586913435531 L1017.4474640086364,711.083750167315 M1017.4474640086364,711.083750167315 L1017.4932219514792,711.0289777700125 M1017.4932219514792,711.0289777700125 L1017.5673508134976,710.9974609497447 M1017.5673508134976,710.9974609497447 L1017.6655012327819,710.9910026539085 M1017.6655012327819,710.9910026539085 L1017.7822411865643,711.0101310785078 M1017.7822411865643,711.0101310785078 L1017.9105587993163,711.0536018716268 M1017.9105587993163,711.0536018716268 L1018.043221593681,711.1190189195304 M-197.83912642081873,18.961438093117295 L-197.84145736735422,19.35478611183987 M-197.84145736735422,19.35478611183987 L-197.75153941053918,19.419912900195413 M-197.75153941053918,19.419912900195413 L-197.69130256560493,19.495369837819794 M-197.69130256560493,19.495369837819794 L-197.66425359902587,19.576775868700338 M-197.66425359902587,19.576775868700338 L-197.67197433225897,19.659402039114752 M-197.67197433225897,19.659402039114752 L-197.7140251434014,19.738445781127723 M-197.7140251434014,19.738445781127723 L-197.7879701984425,19.80931025892056 M-197.7879701984425,19.80931025892056 L-197.8895167029807,19.867872154193606 M-197.8895167029807,19.867872154193606 L-198.01276308623187,19.91072248252118 M-198.01276308623187,19.91072248252118 L-198.15054220311322,19.935366112881525 M-198.15054220311322,19.935366112881525 L-198.29483899258298,19.940367747238952 M-198.29483899258298,19.940367747238952 L-198.43725795202306,19.925435773457878 M-198.43725795202306,19.925435773457878 L-198.56951338411113,19.891440437760366 M-198.56951338411113,19.891440437760366 L-198.68391284567917,19.84036137813598 M-198.68391284567917,19.84036137813598 L-198.77380444666812,19.775172162202978 M-198.77380444666812,19.775172162202978 L-198.83396743612616,19.699666934519314 M-198.83396743612616,19.699666934519314 L-198.8609113529924,19.618238162916157 M-198.8609113529924,19.618238162916157 L-198.85307897359144,19.535619707681406 M-198.85307897359144,19.535619707681406 L-198.81093518978298,19.456612543980725 M-198.81093518978298,19.456612543980725 L-198.73693721586324,19.38580508175039 M-198.73693721586324,19.38580508175039 L-198.6353899694608,19.327307577712304 M-198.6353899694608,19.327307577712304 L-198.51219519131803,19.28451426494445 M-198.51219519131803,19.28451426494445 L-198.37450820426568,19.259907212936355 M-198.37450820426568,19.259907212936355 L-198.23032288213858,19.254913386378917 M-198.23032288213858,19.254913386378917 L-198.0880094985572,19.269822433841796 M-198.0880094985572,19.269822433841796 L-197.9558290325159,19.303769664679578 M-197.9558290325159,19.303769664679578 L-197.84145736735422,19.35478611183987 M1018.6200428129252,710.2231662911511 L1018.1336266593848,710.6528624346556 M1018.1336266593848,710.6528624346556 L1018.4561637021388,710.8612907441491 M1018.4561637021388,710.8612907441491 L1018.7513474589257,711.1028488380375 M1018.7513474589257,711.1028488380375 L1019.0020387863162,711.3635318475983 M1019.0020387863162,711.3635318475983 L1019.1935270886015,711.6281331468231 M1019.1935270886015,711.6281331468231 L1019.31466852686,711.8812812560652 M1019.31466852686,711.8812812560652 L1019.358471514028,712.1082964196494 M1019.358471514028,712.1082964196494 L1019.3222669314262,712.2959077749183 M1019.3222669314262,712.2959077749183 L1019.208134172296,712.4331802143688 M1019.208134172296,712.4331802143688 L1019.0227859327392,712.5121576403865 M1019.0227859327392,712.5121576403865 L1018.7769171658358,712.5281821722112 M1018.7769171658358,712.5281821722112 L1018.4848263435149,712.4803079394787 M1018.4848263435149,712.4803079394787 L1018.1636473605931,712.3713984086078 M1018.1636473605931,712.3713984086078 L1017.8320671683443,712.2077964555479 M1017.8320671683443,712.2077964555479 L1017.5092026628638,711.9989339674314 M1017.5092026628638,711.9989339674314 L1017.2140417101593,711.7570996908473 M1017.2140417101593,711.7570996908473 L1016.9635847908601,711.4962858193007 M1016.9635847908601,711.4962858193007 L1016.7724887750805,711.2317290034712 M1016.7724887750805,711.2317290034712 L1016.6518075939057,710.9787904903515 M1016.6518075939057,710.9787904903515 L1016.6084275230266,710.7521020742065 M1016.6084275230266,710.7521020742065 L1016.6449206699986,710.5648597107729 M1016.6449206699986,710.5648597107729 L1016.7591415163558,710.4279139522519 M1016.7591415163558,710.4279139522519 L1016.944357364373,710.3491461771841 M1016.944357364373,710.3491461771841 L1017.1899034107439,710.3331661173172 M1017.1899034107439,710.3331661173172 L1017.4815550977369,710.380909424159 M1017.4815550977369,710.380909424159 L1017.8022793315522,710.4895428025832 M1017.8022793315522,710.4895428025832 L1018.1336266593848,710.6528624346556" stroke="black"  stroke-width="4"  fill="red"/>
<path d="M1016.0116050628571,733.790329328247 L1003.2576881717448,800.0616254810016 M1016.0116050628571,733.790329328247 L1005.5555047979544,727.7534983671499 M992.4180542745225,793.5122778139896 L1005.5555047979544,727.7534983671499 M1003.2576881717448,800.0616254810016 L992.4180542745225,793.5122778139896 M1020.6274367665978,729.7929008138576 L1016.0116050628571,733.790329328247 M1032.1457046158177,706.6774381245775 L1032.2182625843807,707.5485808019005 M1032.2182625843807,707.5485808019005 L1032.193804996967,708.5316013089348 M1032.193804996967,708.5316013089348 L1032.0723329591478,709.6164212804572 M1032.0723329591478,709.6164212804572 L1031.8548927571583,710.7918178605807 M1031.8548927571583,710.7918178605807 L1031.5435738507358,712.04553305215 M1031.5435738507358,712.04553305215 L1031.1414943680552,713.36440745339 M1031.1414943680552,713.36440745339 L1030.652773443097,714.7345224004757 M1030.652773443097,714.7345224004757 L1030.08249302996,716.1413516198186 M1030.08249302996,716.1413516198186 L1029.4366401604623,717.5699310985885 M1029.4366401604623,717.5699310985885 L1028.7220442591026,719.0050278871124 M1028.7220442591026,719.0050278871124 L1027.9463030328805,720.4313127191899 M1027.9463030328805,720.4313127191899 L1027.1176889231056,721.8335459511932 M1027.1176889231056,721.8335459511932 L1026.2450620690308,723.1967457115304 M1026.2450620690308,723.1967457115304 L1025.3377584883667,724.5063714204962 M1025.3377584883667,724.5063714204962 L1024.405488147689,725.7484842550732 M1024.405488147689,725.7484842550732 L1023.4582140720454,726.9099141669424 M1023.4582140720454,726.9099141669424 L1022.5060430090948,727.9784028516215 M1022.5060430090948,727.9784028516215 L1021.5591049757907,728.9427431073773 M1021.5591049757907,728.9427431073773 L1020.6274367665978,729.7929008138576 M1032.111679241236,706.4624033493847 L1032.0819436874172,706.5031751659012 M1032.0819436874172,706.5031751659012 L1032.0549252536389,706.5478240518123 M1032.0549252536389,706.5478240518123 L1032.0321922396074,706.5937574295692 M1032.0321922396074,706.5937574295692 L1032.0150667517498,706.6383050432828 M1032.0150667517498,706.6383050432828 L1032.0045435810987,706.6788788127935 M1032.0045435810987,706.6788788127935 L1032.001233787973,706.7131229994184 M1032.001233787973,706.7131229994184 L1032.0053306866967,706.7390457664847 M1032.0053306866967,706.7390457664847 L1032.0165974214374,706.7551408832335 M1032.0165974214374,706.7551408832335 L1032.034378865078,706.7604722207657 M1032.034378865078,706.7604722207657 L1032.0576430295744,706.7547274874603 M1032.0576430295744,706.7547274874603 L1032.0850388194178,706.7382397350079 M1032.0850388194178,706.7382397350079 L1032.1149726640263,706.7119673731213 M1032.1149726640263,706.7119673731213 L1032.1457046158177,706.6774381245775 M1043.4911730242582,683.5503049654492 L1042.5527723486439,684.4314637798661 M1042.5527723486439,684.4314637798661 L1041.6042239814524,685.4183241045746 M1041.6042239814524,685.4183241045746 L1040.655050010069,686.5008002056047 M1040.655050010069,686.5008002056047 L1039.7147417736167,687.6679182306505 M1039.7147417736167,687.6679182306505 L1038.7926798429423,688.9079108723959 M1038.7926798429423,688.9079108723959 L1037.8980465060165,690.2083293791982 M1037.8980465060165,690.2083293791982 L1037.0397397327285,691.5561688406585 M1037.0397397327285,691.5561688406585 L1036.2263012970448,692.9379779367366 M1036.2263012970448,692.9379779367366 L1035.4658325944356,694.339982687198 M1035.4658325944356,694.339982687198 L1034.7659262290008,695.7482154031525 M1034.7659262290008,695.7482154031525 L1034.1335970796154,697.14863221463 M1034.1335970796154,697.14863221463 L1033.57521394172,698.5272501885627 M1033.57521394172,698.5272501885627 L1033.0964449912647,699.8702653399996 M1033.0964449912647,699.8702653399996 L1032.7021977116774,701.1641830200331 M1032.7021977116774,701.1641830200331 L1032.39657101983,702.3959456845628 M1032.39657101983,702.3959456845628 L1032.1828104140052,703.5530568946713 M1032.1828104140052,703.5530568946713 L1032.0632752237502,704.6236961110428 M1032.0632752237502,704.6236961110428 L1032.0393996059697,705.5968479432954 M1032.0393996059697,705.5968479432954 L1032.111679241236,706.4624033493847 M1026.947694605881,775.0080559381825 L1043.4911730242582,683.5503049654492 M1015.6301542657436,784.3449401100045 L1026.947694605881,775.0080559381825 M1014.4026474651598,790.9177980230895 L1015.6301542657436,784.3449401100045 M1003.2576881717448,800.0616254810016 L1014.4026474651598,790.9177980230895 M1020.6274367665978,729.7929008138576 L1010.1144821511402,723.7486273358854 M1010.1144821511402,723.7486273358854 L1005.5555047979544,727.7534983671499 M992.4180542745225,793.5122778139896 L1003.4192433347146,784.3449243787074 M1004.6855144757628,777.8243001416076 L1003.4192433347146,784.3449243787074 M1004.6855144757628,777.8243001416076 L1015.8568779794327,768.464806215635 M1032.9570060979054,677.7186849746097 L1015.8568779794327,768.464806215635 M1032.9570060979054,677.7186849746097 L1032.0295396971849,678.6005975981491 M1032.0295396971849,678.6005975981491 L1031.0910852466454,679.5873321593392 M1031.0910852466454,679.5873321593392 L1030.1510661538475,680.6688055845057 M1030.1510661538475,680.6688055845057 L1029.2188846929937,681.8340548464037 M1029.2188846929937,681.8340548464037 L1028.3038426730436,683.0713315422313 M1028.3038426730436,683.0713315422313 L1027.4150545921825,684.3682137441394 M1027.4150545921825,684.3682137441394 L1026.5613621071682,685.7117310001925 M1026.5613621071682,685.7117310001925 L1025.7512625178447,687.0884738184775 M1025.7512625178447,687.0884738184775 L1024.9928250680084,688.484717147009 M1024.9928250680084,688.484717147009 L1024.293622638887,689.8865488615074 M1024.293622638887,689.8865488615074 L1023.6606630518088,691.2799869422445 M1023.6606630518088,691.2799869422445 L1023.1003207484468,692.6511160521788 M1023.1003207484468,692.6511160521788 L1022.618282202412,693.9862050491613 M1022.618282202412,693.9862050491613 L1022.2194857974093,695.2718368052551 M1022.2194857974093,695.2718368052551 L1021.9080736861924,696.4950353038519 M1021.9080736861924,696.4950353038519 L1021.6873466567811,697.6433889617294 M1021.6873466567811,697.6433889617294 L1021.5597309496213,698.7051647000198 M1021.5597309496213,698.7051647000198 L1021.5267388193554,699.6694363789816 M1021.5267388193554,699.6694363789816 L1021.588954546319,700.5261851803123 M1021.6201435762484,700.7388759783514 L1021.5897131366535,700.7733783220272 M1021.5897131366535,700.7733783220272 L1021.560145695541,700.7996934734178 M1021.560145695541,700.7996934734178 L1021.5331599072895,700.8162912274965 M1021.5331599072895,700.8162912274965 L1021.5103254866526,700.8222067672241 M1021.5103254866526,700.8222067672241 L1021.4929685666154,700.8170971118802 M1021.4929685666154,700.8170971118802 L1021.4820964707676,700.8012616561232 M1021.4820964707676,700.8012616561232 L1021.4783413794469,700.7756214244444 M1021.4783413794469,700.7756214244444 L1021.4819203155146,700.7416662403359 M1021.4819203155146,700.7416662403359 L1021.492624328416,700.7013711378527 M1021.492624328416,700.7013711378527 L1021.5098318604926,700.6570756785256 M1021.5098318604926,700.6570756785256 L1021.5325433506207,700.6113532949485 M1021.5325433506207,700.6113532949485 L1021.5594379536928,700.5668619867633 M1021.5594379536928,700.5668619867633 L1021.588954546319,700.5261851803123 M1010.1144821511402,723.7486273358854 L1011.0350852443594,722.8973913229704 M1011.0350852443594,722.8973913229704 L1011.9717587457997,721.9329088152629 M1011.9717587457997,721.9329088152629 L1012.9145773349942,720.8652170513535 M1012.9145773349942,720.8652170513535 L1013.8535130575631,719.7055157557825 M1013.8535130575631,719.7055157557825 L1014.7785505346958,718.4660452008995 M1014.7785505346958,718.4660452008995 L1015.679806215988,717.1599470332269 M1015.679806215988,717.1599470332269 L1016.5476367786869,715.8011216494274 M1016.5476367786869,715.8011216494274 L1017.3727590760211,714.404061652368 M1017.3727590760211,714.404061652368 L1018.1463514581792,712.9836919943696 M1018.1463514581792,712.9836919943696 L1018.8601650084886,711.5551871938303 M1018.8601650084886,711.5551871938303 L1019.5066103702923,710.1338040211049 M1019.5066103702923,710.1338040211049 L1020.07885113455,708.7346964975131 M1020.07885113455,708.7346964975131 L1020.5708780758455,707.3727442703923 M1020.5708780758455,707.3727442703923 L1020.9775721771214,706.0623848708913 M1020.9775721771214,706.0623848708913 L1021.294762838915,704.817444947973 M1021.294762838915,704.817444947973 L1021.5192667743374,703.6509897222143 M1021.5192667743374,703.6509897222143 L1021.6489165198022,702.5751819432007 M1021.6489165198022,702.5751819432007 L1021.682575991842,701.6011492812904 M1021.682575991842,701.6011492812904 L1021.6201435762484,700.7388759783514 M1003.4192433347146,784.3449243787074 L1014.4026474651598,790.9177980230895 M1032.1457046158177,706.6774381245775 L1021.6201435762484,700.7388759783514 M1032.111679241236,706.4624033493847 L1021.588954546319,700.5261851803123 M1043.4911730242582,683.5503049654492 L1032.9570060979054,677.7186849746097 M1026.947694605881,775.0080559381825 L1015.8568779794327,768.464806215635 M1015.6301542657436,784.3449401100045 L1004.6855144757628,777.8243001416076" stroke="black"  stroke-width="4"  fill="red"/>
<path d="M1013.9112094924842,714.7679038887316 L1018.043221593681,711.1190189195304 M1018.043221593681,711.1190189195304 L1018.1722598156239,711.2024324765741 M1018.1722598156239,711.2024324765741 L1018.29030380786,711.2990741304957 M1018.29030380786,711.2990741304957 L1018.3905789664193,711.403377981122 M1018.3905789664193,711.403377981122 L1018.4671538661028,711.5092285884334 M1018.4671538661028,711.5092285884334 L1018.5154484179354,711.610401683078 M1018.5154484179354,711.610401683078 L1018.5329988342992,711.7012145512222 M1018.5329988342992,711.7012145512222 L1018.5184823245875,711.7762147704855 M1018.5184823245875,711.7762147704855 L1018.4727384079781,711.8310393937743 M1018.4727384079781,711.8310393937743 L1018.3987218735926,711.862665705756 M1018.3987218735926,711.862665705756 L1018.3003863749987,711.8690552183664 M1018.3003863749987,711.8690552183664 L1018.1835761369416,711.8499058279886 M1018.1835761369416,711.8499058279886 L1018.055185776557,711.8063908646736 M1018.055185776557,711.8063908646736 L1017.9225978221707,711.7409923994637 M1017.9225978221707,711.7409923994637 L1017.7933950802724,711.6574455844789 M1017.7933950802724,711.6574455844789 L1017.6753547436631,711.5607597516832 M1017.6753547436631,711.5607597516832 L1017.5751170999868,711.4564349640852 M1017.5751170999868,711.4564349640852 L1017.4987384314693,711.3506674000714 M1017.4987384314693,711.3506674000714 L1017.4503840202083,711.249451905654 M1017.4503840202083,711.249451905654 L1017.4329013252502,711.1586913435531 M1017.4329013252502,711.1586913435531 L1017.4474640086364,711.083750167315 M1017.4474640086364,711.083750167315 L1017.4932219514792,711.0289777700125 M1017.4932219514792,711.0289777700125 L1017.5673508134976,710.9974609497447 M1017.5673508134976,710.9974609497447 L1017.6655012327819,710.9910026539085 M1017.6655012327819,710.9910026539085 L1017.7822411865643,711.0101310785078 M1017.7822411865643,711.0101310785078 L1017.9105587993163,711.0536018716268 M1017.9105587993163,711.0536018716268 L1018.043221593681,711.1190189195304 M1013.9112094924842,714.7679038887316 L1013.7791654744992,714.7025555007206 M1013.7791654744992,714.7025555007206 L1013.6513943302441,714.6591303231614 M1013.6513943302441,714.6591303231614 L1013.5350978988617,714.6400219681764 M1013.5350978988617,714.6400219681764 L1013.4372611857036,714.6464734881201 M1013.4372611857036,714.6464734881201 L1013.3632993150397,714.6779572391106 M1013.3632993150397,714.6779572391106 L1013.3175517355999,714.7326721558884 M1013.3175517355999,714.7326721558884 L1013.3028413722845,714.8075346647447 M1013.3028413722845,714.8075346647447 L1013.3200268850712,714.8981999212253 M1013.3200268850712,714.8981999212253 L1013.3679526305025,714.9993090898215 M1013.3679526305025,714.9993090898215 L1013.4437962206475,715.1049654991159 M1013.4437962206475,715.1049654991159 L1013.5434221312712,715.2091806012063 M1013.5434221312712,715.2091806012063 L1013.660810748685,715.3057647382557 M1013.660810748685,715.3057647382557 L1013.7893586065263,715.3892236450035 M1013.7893586065263,715.3892236450035 L1013.92132788912,715.4545532768204 M1013.92132788912,715.4545532768204 L1014.0491711759105,715.4980224294586 M1014.0491711759105,715.4980224294586 L1014.1655373637866,715.5171516576083 M1014.1655373637866,715.5171516576083 L1014.2635581785255,715.5107688726357 M1014.2635581785255,715.5107688726357 L1014.3374083163415,715.4791758580109 M1014.3374083163415,715.4791758580109 L1014.383142100631,715.4244089459489 M1014.383142100631,715.4244089459489 L1014.3978067554999,715.3494876548837 M1014.3978067554999,715.3494876548837 L1014.3805541138822,715.2587703234158 M1014.3805541138822,715.2587703234158 L1014.3326881617431,715.1577036228844 M1014.3326881617431,715.1577036228844 L1014.2566494305231,715.0519642815386 M1014.2566494305231,715.0519642815386 L1014.1569862026267,714.9477700239331 M1014.1569862026267,714.9477700239331 L1014.0395938385379,714.8512298706028 M1014.0395938385379,714.8512298706028 L1013.9112094924842,714.7679038887316 M1018.1336266593848,710.6528624346556 L1018.4561637021388,710.8612907441491 M1018.4561637021388,710.8612907441491 L1018.7513474589257,711.1028488380375 M1018.7513474589257,711.1028488380375 L1019.0020387863162,711.3635318475983 M1019.0020387863162,711.3635318475983 L1019.1935270886015,711.6281331468231 M1019.1935270886015,711.6281331468231 L1019.31466852686,711.8812812560652 M1019.31466852686,711.8812812560652 L1019.358471514028,712.1082964196494 M1019.358471514028,712.1082964196494 L1019.3222669314262,712.2959077749183 M1019.3222669314262,712.2959077749183 L1019.208134172296,712.4331802143688 M1019.208134172296,712.4331802143688 L1019.0227859327392,712.5121576403865 M1019.0227859327392,712.5121576403865 L1018.7769171658358,712.5281821722112 M1018.7769171658358,712.5281821722112 L1018.4848263435149,712.4803079394787 M1018.4848263435149,712.4803079394787 L1018.1636473605931,712.3713984086078 M1018.1636473605931,712.3713984086078 L1017.8320671683443,712.2077964555479 M1017.8320671683443,712.2077964555479 L1017.5092026628638,711.9989339674314 M1017.5092026628638,711.9989339674314 L1017.2140417101593,711.7570996908473 M1017.2140417101593,711.7570996908473 L1016.9635847908601,711.4962858193007 M1016.9635847908601,711.4962858193007 L1016.7724887750805,711.2317290034712 M1016.7724887750805,711.2317290034712 L1016.6518075939057,710.9787904903515 M1016.6518075939057,710.9787904903515 L1016.6084275230266,710.7521020742065 M1016.6084275230266,710.7521020742065 L1016.6449206699986,710.5648597107729 M1016.6449206699986,710.5648597107729 L1016.7591415163558,710.4279139522519 M1016.7591415163558,710.4279139522519 L1016.944357364373,710.3491461771841 M1016.944357364373,710.3491461771841 L1017.1899034107439,710.3331661173172 M1017.1899034107439,710.3331661173172 L1017.4815550977369,710.380909424159 M1017.4815550977369,710.380909424159 L1017.8022793315522,710.4895428025832 M1017.8022793315522,710.4895428025832 L1018.1336266593848,710.6528624346556 M1018.6200428129252,710.2231662911511 L1018.9427724973657,710.4316201088327 M1018.9427724973657,710.4316201088327 L1019.2381483696734,710.6732077929564 M1019.2381483696734,710.6732077929564 L1019.4890201373778,710.9339227686369 M1019.4890201373778,710.9339227686369 L1019.6806666366472,711.1985565496329 M1019.6806666366472,711.1985565496329 L1019.8019348173004,711.4517357678503 M1019.8019348173004,711.4517357678503 L1019.8458257402158,711.678778856558 M1019.8458257402158,711.678778856558 L1019.8096650887328,711.8664133095749 M1019.8096650887328,711.8664133095749 L1019.6955296734616,712.0037026605905 M1019.6955296734616,712.0037026605905 L1019.5101323802439,712.0826898207188 M1019.5101323802439,712.0826898207188 L1019.2641709658469,712.098716327982 M1019.2641709658469,712.098716327982 L1018.9719492967417,712.050836193898 M1018.9719492967417,712.050836193898 L1018.6506089752177,711.9419132423104 M1018.6506089752177,711.9419132423104 L1018.3188463569975,711.7782911401719 M1018.3188463569975,711.7782911401719 L1017.995788868071,711.5694029484141 M1017.995788868071,711.5694029484141 L1017.7004357321787,711.3275389381013 M1017.7004357321787,711.3275389381013 L1017.4497985179833,711.0666930324442 M1017.4497985179833,711.0666930324442 L1017.2585446304054,710.8021037579554 M1017.2585446304054,710.8021037579554 L1017.1377371372471,710.5491342447583 M1017.1377371372471,710.5491342447583 L1017.0942695677747,710.3224180732554 M1017.0942695677747,710.3224180732554 L1017.1307191272606,710.1351528037876 M1017.1307191272606,710.1351528037876 L1017.2449428011269,709.998190303432 M1017.2449428011269,709.998190303432 L1017.4302076628278,709.91941290318 M1017.4302076628278,709.91941290318 L1017.6758461143488,709.9034308909813 M1017.6758461143488,709.9034308909813 L1017.9676282589112,709.9511800311498 M1017.9676282589112,709.9511800311498 L1018.2885133846205,710.0598266868126 M1018.2885133846205,710.0598266868126 L1018.6200428129252,710.2231662911511 M1018.6200428129252,710.2231662911511 L1018.1336266593848,710.6528624346556" stroke="black"  stroke-width="4"  fill="red"/>
<path d="M-205.11208002298906,28.774397700320037 L-239.8970132240339,48.94286810230204 M-205.11208002298906,28.774397700320037 L-208.35843067526957,26.900116693848815 M-243.14184347016283,46.982329434314295 L-208.35843067526957,26.900116693848815 M-239.8970132240339,48.94286810230204 L-243.14184347016283,46.982329434314295 M-239.8970132240339,48.94286810230204 L-240.05493630541469,40.2041674916548 M-240.05493630541469,40.2041674916548 L-236.65632000109042,38.25284455634011 M-236.65632000109042,38.25284455634011 L-236.7984175870547,29.43568949424366 M-236.7984175870547,29.43568949424366 L-188.09923630524224,1.7529400874435623 M-188.09923630524224,1.7529400874435623 L-188.13929178468356,2.511660755459957 M-188.13929178468356,2.511660755459957 L-188.24225396455518,3.298066047209886 M-188.24225396455518,3.298066047209886 L-188.40701245097966,4.104155714915805 M-188.40701245097966,4.104155714915805 L-188.63184540749796,4.921752474427876 M-188.63184540749796,4.921752474427876 L-188.91443458998742,5.742575046660647 M-188.91443458998742,5.742575046660647 L-189.25188826690612,6.558319960512449 M-189.25188826690612,6.558319960512449 L-189.64077447531622,7.360745504182205 M-189.64077447531622,7.360745504182205 L-190.07715305268107,8.141743988853989 M-190.07715305268107,8.141743988853989 L-190.5566105710226,8.89342448975276 M-190.5566105710226,8.89342448975276 L-191.07430826956272,9.608186503880233 M-191.07430826956272,9.608186503880233 L-191.6250228491249,10.278791267341887 M-191.6250228491249,10.278791267341887 L-192.2032007388973,10.898435913624837 M-192.2032007388973,10.898435913624837 L-192.80300805983882,11.460814407205703 M-192.80300805983882,11.460814407205703 L-193.41838559941812,11.960183423269939 M-193.41838559941812,11.960183423269939 L-194.04310890999545,12.391418972838892 M-194.04310890999545,12.391418972838892 L-194.67084743164492,12.750069252274557 M-194.67084743164492,12.750069252274557 L-195.29522407278546,13.032396918388827 M-195.29522407278546,13.032396918388827 L-195.90988006312386,13.23542694420928 M-195.90988006312386,13.23542694420928 L-196.50853542818788,13.356971755819472 M-196.50853542818788,13.356971755819472 L-196.5181687361361,13.383568122588144 M-196.5181687361361,13.383568122588144 L-196.53182251636156,13.40920129234155 M-196.53182251636156,13.40920129234155 L-196.5487035064798,13.432382921469696 M-196.5487035064798,13.432382921469696 L-196.5678304761284,13.451764814829858 M-196.5678304761284,13.451764814829858 L-196.5880919077092,13.466220928277494 M-196.5880919077092,13.466220928277494 L-196.6083112688517,13.474911907139472 M-196.6083112688517,13.474911907139472 L-196.62731282262553,13.477331885972092 M-196.62731282262553,13.477331885972092 L-196.64399314880347,13.473339748631645 M-196.64399314880347,13.473339748631645 L-196.65738226861026,13.463167861908005 M-196.65738226861026,13.463167861908005 L-196.6667014322336,13.447406275454568 M-196.6667014322336,13.447406275454568 L-196.67140925716558,13.426970419034603 M-196.67140925716558,13.426970419034603 L-196.67123167967156,13.403048930469765 M-196.67123167967156,13.403048930469765 L-196.66617956313416,13.377032304493127 M-196.66617956313416,13.377032304493127 L-197.26795914878335,13.49935628623848 M-197.26795914878335,13.49935628623848 L-197.88705288395306,13.70420136374986 M-197.88705288395306,13.70420136374986 L-198.51700482796855,13.989544473891726 M-198.51700482796855,13.989544473891726 L-199.15122801667644,14.352505073287887 M-199.15122801667644,14.352505073287887 L-199.78307126638094,14.789370802520125 M-199.78307126638094,14.789370802520125 L-200.40589382519738,15.295634548221699 M-200.40589382519738,15.295634548221699 L-201.01313736320412,15.866040127003089 M-201.01313736320412,15.866040127003089 L-201.59839765620939,16.49463509166128 M-201.59839765620939,16.49463509166128 L-202.1554967269483,17.174838021711196 M-202.1554967269483,17.174838021711196 L-202.67855140936535,17.89950746241476 M-202.67855140936535,17.89950746241476 L-203.16203809366505,18.66101765982296 M-203.16203809366505,18.66101765982296 L-203.60085552133842,19.451348143318285 M-203.60085552133842,19.451348143318285 L-203.99038029184294,20.262165068362663 M-203.99038029184294,20.262165068362663 L-204.326519165435,21.084920663728894 M-204.326519165435,21.084920663728894 L-204.6057529112661,21.91094184622858 M-204.6057529112661,21.91094184622858 L-204.82517479849253,22.731532172755294 M-204.82517479849253,22.731532172755294 L-204.9825210923982,23.538062293219753 M-204.9825210923982,23.538062293219753 L-205.0761941159467,24.32206741311171 M-205.0761941159467,24.32206741311171 L-205.10527737479356,25.075339846318116 M-205.10527737479356,25.075339846318116 L-205.11208002298906,28.774397700320037 M-205.10527737479356,25.075339846318116 L-208.35843031970558,23.204985908348362 M-208.35843031970558,23.204985908348362 L-208.35843067526957,26.900116693848815 M-208.35843031970558,23.204985908348362 L-208.33070273096337,22.452567928575547 M-208.33070273096337,22.452567928575547 L-208.23837315293156,21.66956950118407 M-208.23837315293156,21.66956950118407 L-208.08234406248766,20.8641877121986 M-208.08234406248766,20.8641877121986 L-207.86419932487138,20.044875174741605 M-207.86419932487138,20.044875174741605 L-207.58618921912375,19.220247614488983 M-207.58618921912375,19.220247614488983 L-207.25120753016768,18.398986567405984 M-207.25120753016768,18.398986567405984 L-206.862761188155,17.58974909482521 M-206.862761188155,17.58974909482521 L-206.4249319280956,16.80106602726363 M-206.4249319280956,16.80106602726363 L-205.94233256466327,16.041253541240337 M-205.94233256466327,16.041253541240337 L-205.42005482536354,15.318313930080535 M-205.42005482536354,15.318313930080535 L-204.86361394483902,14.639854464334007 M-204.86361394483902,14.639854464334007 L-204.27888597953597,14.01299803258604 M-204.27888597953597,14.01299803258604 L-203.67204314551134,13.444307615929233 M-203.67204314551134,13.444307615929233 L-203.0494853205936,12.93971755511393 M-203.0494853205936,12.93971755511393 L-202.41776796240015,12.504466467629356 M-202.41776796240015,12.504466467629356 L-201.7835304566272,12.14304462922496 M-201.7835304566272,12.14304462922496 L-201.1534241440536,11.859148467128762 M-201.1534241440536,11.859148467128762 L-200.5340376656577,11.655643667280913 M-200.5340376656577,11.655643667280913 L-199.93183014033718,11.534539649928547 M-199.93183014033718,11.534539649928547 L-199.93683959857958,11.560519215933141 M-199.93683959857958,11.560519215933141 L-199.9369730900969,11.584414711932595 M-199.9369730900969,11.584414711932595 L-199.93222231311654,11.604837155300572 M-199.93222231311654,11.604837155300572 L-199.92286382935777,11.620598687837116 M-199.92286382935777,11.620598687837116 L-199.90944130460412,11.630783882235278 M-199.90944130460412,11.630783882235278 L-199.89273542822048,11.634801912461853 M-199.89273542822048,11.634801912461853 L-199.87371766492015,11.632418905512225 M-199.87371766492015,11.632418905512225 L-199.85349237515948,11.623773829286165 M-199.85349237515948,11.623773829286165 L-199.83323563999443,11.609369879093947 M-199.83323563999443,11.609369879093947 L-199.81412371972033,11.590043380627549 M-199.81412371972033,11.590043380627549 L-199.79726725848536,11.566917159486252 M-199.79726725848536,11.566917159486252 L-199.7836460600513,11.541336189940694 M-199.7836460600513,11.541336189940694 L-199.77405149588242,11.51478578455567 M-191.37704532346356,-0.06162548100166987 L-191.4157330757639,0.6962023926825509 M-191.4157330757639,0.6962023926825509 L-191.5173459911399,1.481573778949837 M-191.5173459911399,1.481573778949837 L-191.6807874377048,2.286498873986716 M-191.6807874377048,2.286498873986716 L-191.9043489447913,3.1028120663805225 M-191.9043489447913,3.1028120663805225 L-192.18572511570005,3.922244884597376 M-192.18572511570005,3.922244884597376 L-192.52203642057452,4.736507684191338 M-192.52203642057452,4.736507684191338 L-192.90986233492117,5.537373463850599 M-192.90986233492117,5.537373463850599 L-193.34527327655996,6.316750009213024 M-193.34527327655996,6.316750009213024 L-193.82386543080213,7.066762497654452 M-193.82386543080213,7.066762497654452 L-194.34080860730523,7.779827005584764 M-194.34080860730523,7.779827005584764 L-194.89088695666544,8.448721689505874 M-194.89088695666544,8.448721689505874 L-195.46855317020277,9.066660779035487 M-195.46855317020277,9.066660779035487 L-196.06797839692376,9.627355364973141 M-196.06797839692376,9.627355364973141 L-196.68310716846804,10.125079116576956 M-196.68310716846804,10.125079116576956 L-197.3077174703402,10.554724742015708 M-197.3077174703402,10.554724742015708 L-197.93547984283714,10.911856675913953 M-197.93547984283714,10.911856675913953 L-198.56001695879206,11.192753199848312 M-198.56001695879206,11.192753199848312 L-199.17496846753943,11.394454124893855 M-199.17496846753943,11.394454124893855 L-199.77405149588242,11.51478578455567 M-191.37704532346356,-0.06162548100166987 L-240.07544565199782,27.502341058422815 M-239.9173186403856,36.30999413162891 L-240.07544565199782,27.502341058422815 M-239.9173186403856,36.30999413162891 L-243.31563554668276,38.25284494623571 M-243.14184347016283,46.982329434314295 L-243.31563554668276,38.25284494623571 M-243.31563554668276,38.25284494623571 L-240.05493630541469,40.2041674916548 M-196.66617956313416,13.377032304493127 L-199.93183014033718,11.534539649928547 M-196.50853542818788,13.356971755819472 L-199.77405149588242,11.51478578455567 M-188.09923630524224,1.7529400874435623 L-191.37704532346356,-0.06162548100166987 M-236.7984175870547,29.43568949424366 L-240.07544565199782,27.502341058422815 M-236.65632000109042,38.25284455634011 L-239.9173186403856,36.30999413162891" stroke="black"  stroke-width="4"  fill="red"/>
<path d="M-198.1134523230645,22.846910384770524 L-198.094095990396,19.500402194607886 M-198.094095990396,19.500402194607886 L-198.05813152889823,19.526460204846273 M-198.05813152889823,19.526460204846273 L-198.03404589314027,19.556648928278435 M-198.03404589314027,19.556648928278435 L-198.02323879448204,19.589213987552284 M-198.02323879448204,19.589213987552284 L-198.02634052677035,19.622263653890684 M-198.02634052677035,19.622263653890684 L-198.04317194831742,19.653876649023005 M-198.04317194831742,19.653876649023005 L-198.0727566147906,19.68221572502182 M-198.0727566147906,19.68221572502182 L-198.11337530824164,19.705632751697635 M-198.11337530824164,19.705632751697635 L-198.16266789226643,19.72276620312624 M-198.16266789226643,19.72276620312624 L-198.21776828462498,19.732619225388873 M-198.21776828462498,19.732619225388873 L-198.27547383360331,19.734618965518564 M-198.27547383360331,19.734618965518564 L-198.33242860012228,19.728648862672685 M-198.33242860012228,19.728648862672685 L-198.3853220438382,19.71505664609049 M-198.3853220438382,19.71505664609049 L-198.4310781599977,19.694632288602634 M-198.4310781599977,19.694632288602634 L-198.46703826796386,19.66856436782541 M-198.46703826796386,19.66856436782541 L-198.49111206068142,19.638367932743165 M-198.49111206068142,19.638367932743165 L-198.5019023774737,19.60579922012562 M-198.5019023774737,19.60579922012562 L-198.49878276869129,19.572750795615093 M-198.49878276869129,19.572750795615093 L-198.48193647155028,19.541143652978576 M-198.48193647155028,19.541143652978576 L-198.45234333803091,19.5128136995001 M-198.45234333803091,19.5128136995001 L-198.41172452588285,19.489406975418603 M-198.41172452588285,19.489406975418603 L-198.36244019870094,19.472282646571614 M-198.36244019870094,19.472282646571614 L-198.30735454708213,19.46243547682792 M-198.30735454708213,19.46243547682792 L-198.24966684598348,19.46043697855498 M-198.24966684598348,19.46043697855498 L-198.19272894551273,19.466403427961268 M-198.19272894551273,19.466403427961268 L-198.1398475225286,19.479987933024574 M-198.1398475225286,19.479987933024574 L-198.094095990396,19.500402194607886 M-198.1134523230645,22.846910384770524 L-198.15911713094192,22.82645679770934 M-198.15911713094192,22.82645679770934 L-198.21189853823103,22.812846122829285 M-198.21189853823103,22.812846122829285 L-198.26872894241455,22.806868179128344 M-198.26872894241455,22.806868179128344 L-198.3263079067924,22.808870527501767 M-198.3263079067924,22.808870527501767 L-198.38128989635265,22.818736667535063 M-198.38128989635265,22.818736667535063 L-198.43048165428013,22.83589398491364 M-198.43048165428013,22.83589398491364 L-198.47102436838077,22.859345797969524 M-198.47102436838077,22.859345797969524 L-198.5005622967874,22.88773032100528 M-198.5005622967874,22.88773032100528 L-198.51737749391555,22.919398341682154 M-198.51737749391555,22.919398341682154 L-198.5204919191392,22.952510415656775 M-198.5204919191392,22.952510415656775 L-198.50972264301413,22.985141849231354 M-198.50972264301413,22.985141849231354 L-198.48569489630324,23.015396432642206 M-198.48569489630324,23.015396432642206 L-198.44980316915814,23.041514548434805 M-198.44980316915814,23.041514548434805 L-198.40413379444033,23.06197823194219 M-198.40413379444033,23.06197823194219 L-198.35134041188485,23.075596618621205 M-198.35134041188485,23.075596618621205 L-198.29449320528943,23.081578215894353 M-198.29449320528943,23.081578215894353 L-198.23689646026264,23.079574625619102 M-198.23689646026264,23.079574625619102 L-198.18189978538453,23.069702632854387 M-198.18189978538453,23.069702632854387 L-198.13269980153154,23.05253619256291 M-198.13269980153154,23.05253619256291 L-198.09215720545774,23.02907407653862 M-198.09215720545774,23.02907407653862 L-198.06262771199295,23.000680430651244 M-198.06262771199295,23.000680430651244 L-198.04582733427515,22.969006557266027 M-198.04582733427515,22.969006557266027 L-198.04273071815328,22.935893241418285 M-198.04273071815328,22.935893241418285 L-198.0535167129833,22.90326546132013 M-198.0535167129833,22.90326546132013 L-198.07755625827258,22.873018589839432 M-198.07755625827258,22.873018589839432 L-198.1134523230645,22.846910384770524 M-197.84145736735422,19.35478611183987 L-197.75153941053918,19.419912900195413 M-197.75153941053918,19.419912900195413 L-197.69130256560493,19.495369837819794 M-197.69130256560493,19.495369837819794 L-197.66425359902587,19.576775868700338 M-197.66425359902587,19.576775868700338 L-197.67197433225897,19.659402039114752 M-197.67197433225897,19.659402039114752 L-197.7140251434014,19.738445781127723 M-197.7140251434014,19.738445781127723 L-197.7879701984425,19.80931025892056 M-197.7879701984425,19.80931025892056 L-197.8895167029807,19.867872154193606 M-197.8895167029807,19.867872154193606 L-198.01276308623187,19.91072248252118 M-198.01276308623187,19.91072248252118 L-198.15054220311322,19.935366112881525 M-198.15054220311322,19.935366112881525 L-198.29483899258298,19.940367747238952 M-198.29483899258298,19.940367747238952 L-198.43725795202306,19.925435773457878 M-198.43725795202306,19.925435773457878 L-198.56951338411113,19.891440437760366 M-198.56951338411113,19.891440437760366 L-198.68391284567917,19.84036137813598 M-198.68391284567917,19.84036137813598 L-198.77380444666812,19.775172162202978 M-198.77380444666812,19.775172162202978 L-198.83396743612616,19.699666934519314 M-198.83396743612616,19.699666934519314 L-198.8609113529924,19.618238162916157 M-198.8609113529924,19.618238162916157 L-198.85307897359144,19.535619707681406 M-198.85307897359144,19.535619707681406 L-198.81093518978298,19.456612543980725 M-198.81093518978298,19.456612543980725 L-198.73693721586324,19.38580508175039 M-198.73693721586324,19.38580508175039 L-198.6353899694608,19.327307577712304 M-198.6353899694608,19.327307577712304 L-198.51219519131803,19.28451426494445 M-198.51219519131803,19.28451426494445 L-198.37450820426568,19.259907212936355 M-198.37450820426568,19.259907212936355 L-198.23032288213858,19.254913386378917 M-198.23032288213858,19.254913386378917 L-198.0880094985572,19.269822433841796 M-198.0880094985572,19.269822433841796 L-197.9558290325159,19.303769664679578 M-197.9558290325159,19.303769664679578 L-197.84145736735422,19.35478611183987 M-197.83912642081873,18.961438093117295 L-197.74918836041024,19.026550068856636 M-197.74918836041024,19.026550068856636 L-197.68893796032853,19.101989847030154 M-197.68893796032853,19.101989847030154 L-197.66188277754748,19.183377368823187 M-197.66188277754748,19.183377368823187 L-197.6696049989489,19.265984756157934 M-197.6696049989489,19.265984756157934 L-197.71166492027544,19.345010532702588 M-197.71166492027544,19.345010532702588 L-197.7856261816138,19.415858906739402 M-197.7856261816138,19.415858906739402 L-197.88719504875485,19.474407495901175 M-197.88719504875485,19.474407495901175 L-198.01046865129968,19.51724808911223 M-198.01046865129968,19.51724808911223 L-198.1482782603124,19.541886121135462 M-198.1482782603124,19.541886121135462 L-198.29260703918135,19.546886619300267 M-198.29260703918135,19.546886619300267 L-198.43505762195957,19.53195803756762 M-198.43505762195957,19.53195803756762 L-198.56734246952783,19.49797042490195 M-198.56734246952783,19.49797042490195 L-198.68176742637934,19.44690297047441 M-198.68176742637934,19.44690297047441 L-198.77167911947004,19.381728567492587 M-198.77167911947004,19.381728567492587 L-198.8318556314125,19.30624049955503 M-198.8318556314125,19.30624049955503 L-198.8588057179917,19.224830237148353 M-198.8588057179917,19.224830237148353 L-198.85097180087655,19.14223056495956 M-198.85097180087655,19.14223056495956 L-198.8088188655629,19.063241366518923 M-198.8088188655629,19.063241366518923 L-198.73480466173407,18.992450007720265 M-198.73480466173407,18.992450007720265 L-198.63323505223525,18.933965809426866 M-198.63323505223525,18.933965809426866 L-198.510013077537,18.891182231450898 M-198.510013077537,18.891182231450898 L-198.37229563911353,18.8665807775717 M-198.37229563911353,18.8665807775717 L-198.2280783770143,18.8615880871522 M-198.2280783770143,18.8615880871522 L-198.08573341693352,18.876493742717685 M-198.08573341693352,18.876493742717685 L-197.9535235688138,18.91043325077692 M-197.9535235688138,18.91043325077692 L-197.83912642081873,18.961438093117295 M-197.83912642081873,18.961438093117295 L-197.84145736735422,19.35478611183987" stroke="black"  stroke-width="4"  fill="red"/>
<path d="M-239.9173186403856,36.30999413162891 L-243.31563554668276,38.25284494623571 M-243.31563554668276,38.25284494623571 L-243.49117302425816,29.435689882236545 M-240.07544565199782,27.502341058422815 L-243.49117302425816,29.435689882236545 M-239.9173186403856,36.30999413162891 L-240.07544565199782,27.502341058422815 M-239.8970132240339,48.94286810230204 L-171.20798894571772,90.44503553452626 M-171.20798894571772,90.44503553452626 L-171.12350675659195,86.57078648238547 M-171.12350675659195,86.57078648238547 L-93.29991619155749,133.39723403887604 M-93.57389967313384,137.35184495991683 L-93.29991619155749,133.39723403887604 M-93.57389967313384,137.35184495991683 L318.9629893069524,386.6081885796533 M318.9629893069524,386.6081885796533 L320.53822146100947,382.4036048445206 M320.53822146100947,382.4036048445206 L456.9542625054685,464.4851246697244 M454.84189424930514,468.7067352204591 L456.9542625054685,464.4851246697244 M454.84189424930514,468.7067352204591 L992.4180542745225,793.5122778139896 M992.4180542745225,793.5122778139896 L1003.4192433347146,784.3449243787074 M1003.4192433347146,784.3449243787074 L1014.4026474651598,790.9177980230895 M1014.4026474651598,790.9177980230895 L1025.754542342272,781.604191275507 M-243.49117302425816,29.435689882236545 L1025.754542342272,781.604191275507 M-243.31563554668276,38.25284494623571 L-240.05493630541469,40.2041674916548 M-239.8970132240339,48.94286810230204 L-240.05493630541469,40.2041674916548 M1015.6301542657436,784.3449401100045 L1004.6855144757628,777.8243001416076 M993.7161919171094,787.0145218926066 L1004.6855144757628,777.8243001416076 M993.7161919171094,787.0145218926066 L457.586737252205,464.51184621473385 M457.586737252205,464.51184621473385 L459.70111361426416,460.2903205075852 M459.70111361426416,460.2903205075852 L323.5212211569012,378.7130997175876 M321.94180865030535,382.9161568982628 L323.5212211569012,378.7130997175876 M321.94180865030535,382.9161568982628 L-90.2108242686196,134.9903513908746 M-90.2108242686196,134.9903513908746 L-89.92948488733043,131.03953408226022 M-89.92948488733043,131.03953408226022 L-167.7355426844066,84.43058292819279 M-167.82750313047904,88.30090653314846 L-167.7355426844066,84.43058292819279 M-167.82750313047904,88.30090653314846 L-236.51563531725867,46.98232904257304 M-236.51563531725867,46.98232904257304 L-236.65632000109042,38.25284455634011 M-236.65632000109042,38.25284455634011 L-239.9173186403856,36.30999413162891 M1026.947694605881,775.0080559381825 L-240.07544565199782,27.502341058422815 M1015.6301542657436,784.3449401100045 L1026.947694605881,775.0080559381825 M-239.8970132240339,48.94286810230204 L-236.51563531725867,46.98232904257304 M-240.05493630541469,40.2041674916548 L-236.65632000109042,38.25284455634011 M-167.82750313047904,88.30090653314846 L-171.20798894571772,90.44503553452626 M-167.7355426844066,84.43058292819279 L-171.12350675659195,86.57078648238547 M-93.57389967313384,137.35184495991683 L-90.2108242686196,134.9903513908746 M-93.29991619155749,133.39723403887604 L-89.92948488733043,131.03953408226022 M321.94180865030535,382.9161568982628 L318.9629893069524,386.6081885796533 M323.5212211569012,378.7130997175876 L320.53822146100947,382.4036048445206 M454.84189424930514,468.7067352204591 L457.586737252205,464.51184621473385 M456.9542625054685,464.4851246697244 L459.70111361426416,460.2903205075852 M993.7161919171094,787.0145218926066 L992.4180542745225,793.5122778139896 M1004.6855144757628,777.8243001416076 L1003.4192433347146,784.3449243787074 M1014.4026474651598,790.9177980230895 L1015.6301542657436,784.3449401100045 M1025.754542342272,781.604191275507 L1026.947694605881,775.0080559381825" stroke="black"  stroke-width="4"  fill="red"/></svg>