<svg viewBox="0 0 800 800" xmlns="http://www.w3.org/2000/svg"><path d="M-92.78726960821803,318.38590590274043 L-92.78726542727532,318.38571332514834 M892.7872542315718,303.4302748537244 L892.7872696082181,303.4300824343678 M-92.78726960821803,318.38590590274043 L-76.08979915689531,307.5497226021431 M-76.08979915689531,307.5497226021431 L-58.753524990166056,297.12023734915 M-58.753524990166056,297.12023734915 L-40.801971992047925,287.10874560703996 M-40.801971992047925,287.10874560703996 L-22.259114656504607,277.526049958184 M-22.259114656504607,277.526049958184 L-3.149443300507869,268.3823594610269 M-3.149443300507869,268.3823594610269 L16.50213516264057,259.68739863734083 M16.50213516264057,259.68739863734083 L36.67030609086237,251.45032049726728 M36.67030609086237,251.45032049726728 L57.32927641315075,243.67972874708755 M57.32927641315075,243.67972874708755 L78.45297348032238,236.3836898237439 M78.45297348032238,236.3836898237439 L100.01495565081223,229.5697628569028 M100.01495565081223,229.5697628569028 L121.98846297239311,223.2449429253802 M121.98846297239311,223.2449429253802 L144.34641440703479,217.41569718578347 M144.34641440703479,217.41569718578347 L167.06150164655583,212.08794038623319 M167.06150164655583,212.08794038623319 L190.10610829917005,207.26708401918637 M190.10610829917005,207.26708401918637 L213.4524108802441,202.95797290822333 M213.4524108802441,202.95797290822333 L237.07242386062944,199.1649473286525 M237.07242386062944,199.1649473286525 L260.9378313806237,195.89178522852814 M260.9378313806237,195.89178522852814 L285.0202993656594,193.14178442516618 M285.0202993656594,193.14178442516618 L309.2913146131975,190.9176657788343 M309.2913146131975,190.9176657788343 L333.7221128881067,189.22163840198584 M333.7221128881067,189.22163840198584 L358.28387968091033,188.05538959689596 M358.28387968091033,188.05538959689596 L382.9477469633339,187.42007371195416 M382.9477469633339,187.42007371195416 L407.6846878232798,187.31629987501208 M407.6846878232798,187.31629987501208 L432.4656735545425,187.74420732969503 M432.4656735545425,187.74420732969503 L457.2616337372658,188.7033473166823 M457.2616337372658,188.7033473166823 L482.04344000267224,190.19280050781828 M482.04344000267224,190.19280050781828 L506.7818653289405,192.21105655223067 M506.7818653289405,192.21105655223067 L531.4478191249725,194.75609961723165 M531.4478191249725,194.75609961723165 L556.0122251992439,197.82546339149542 M556.0122251992439,197.82546339149542 L580.445943234238,201.41600330798394 M580.445943234238,201.41600330798394 L604.7200576308535,205.52420131166775 M604.7200576308535,205.52420131166775 L628.8055345849723,210.14584666175256 M628.8055345849723,210.14584666175256 L652.6735998714869,215.2764134817623 M652.6735998714869,215.2764134817623 L676.2955060776258,220.91060512013314 M676.2955060776258,220.91060512013314 L699.6427650756136,227.042759951594 M699.6427650756136,227.042759951594 L722.6868362016678,233.66657178729872 M722.6868362016678,233.66657178729872 L745.3995442501414,240.7753161509312 M745.3995442501414,240.7753161509312 L767.752831571112,248.3616578560975 M767.752831571112,248.3616578560975 L789.718895640935,256.41766629332517 M789.718895640935,256.41766629332517 L811.2702998072182,264.93498067393784 M811.2702998072182,264.93498067393784 L832.3795780863916,273.90464458691895 M832.3795780863916,273.90464458691895 L853.0198527453606,283.31721021188434 M853.0198527453606,283.31721021188434 L873.1644970667714,293.1626008260722 M873.1644970667714,293.1626008260722 L892.7872542315718,303.4302748537244 M-92.78726542727532,318.38571332514834 L-76.08979479122968,307.54953013914337 M-76.08979479122968,307.54953013914337 L-58.75352043277974,297.1200449967297 M-58.75352043277974,297.1200449967297 L-40.80196723620281,287.1085533610328 M-40.80196723620281,287.1085533610328 L-22.25910969572203,277.5258578142759 M-22.25910969572203,277.5258578142759 L-3.149438128572342,268.38216741476265 M-3.149438128572342,268.38216741476265 L16.502140551682146,259.68720668412993 M16.502140551682146,259.68720668412993 L36.67031170269797,251.45012863239037 M36.67031170269797,251.45012863239037 L57.32928225320302,243.6795369657034 M57.32928225320302,243.6795369657034 L78.45297955374826,236.3834981208961 M78.45297955374826,236.3834981208961 L100.0149619625015,229.5695712275268 M100.0149619625015,229.5695712275268 L121.98846952696829,223.24475136430988 M121.98846952696829,223.24475136430988 L144.34642120885076,217.41550568775875 M144.34642120885076,217.41550568775875 L167.06150869969906,212.08774894590738 M167.06150869969906,212.08774894590738 L190.10611560745883,207.26689263113332 M190.10611560745883,207.26689263113332 L213.4524184472266,202.9577815669452 M213.4524184472266,202.9577815669452 L237.07243168958576,199.16475602858708 M237.07243168958576,199.16475602858708 L260.9378394745627,195.89159396405705 M260.9378394745627,195.89159396405705 L285.02030772731996,193.14159319062168 M285.02030772731996,193.14159319062168 L309.29132324504803,190.91747456850777 M309.29132324504803,190.91747456850777 L333.7221217923436,189.22144721013575 M333.7221217923436,189.22144721013575 L358.2838888594574,188.05519841775526 M358.2838888594574,188.05519841775526 L382.9477564178428,187.41988253973852 M382.9477564178428,187.41988253973852 L407.68469755512774,187.31610870392763 M407.68469755512774,187.31610870392763 L432.4656835648327,187.74401615394623 M432.4656835648327,187.74401615394623 L457.26164402682616,188.70315613048 M457.26164402682616,188.70315613048 L482.04345057205364,190.19260930538758 M482.04345057205364,190.19260930538758 L506.7818761784156,192.2108653278192 M506.7818761784156,192.2108653278192 L531.4478302545351,194.75590836511725 M531.4478302545351,194.75590836511725 L556.0122366086077,197.82527210599306 M556.0122366086077,197.82527210599306 L580.4459549228341,201.41581198345546 M580.4459549228341,201.41581198345546 L604.7200695978313,205.52400994252775 M604.7200695978313,205.52400994252775 L628.8055468291946,210.14565524247774 M628.8055468291946,210.14565524247774 L652.6736123915309,215.2762220068969 M652.6736123915309,215.2762220068969 L676.2955188717806,220.91041358429902 M676.2955188717806,220.91041358429902 L699.6427781418797,227.04256834949615 M699.6427781418797,227.04256834949615 L722.6868495377523,233.66638011373402 M722.6868495377523,233.66638011373402 L745.3995578534593,240.7751244007942 M745.3995578534593,240.7751244007942 L767.7528454387846,248.3614660243885 M767.7528454387846,248.3614660243885 L789.718909769786,256.41747437515744 M789.718909769786,256.41747437515744 L811.270314193775,264.93478866454393 M811.270314193775,264.93478866454393 L832.3795927268811,273.90445248165736 M832.3795927268811,273.90445248165736 L853.0198676357102,283.3170180062457 M853.0198676357102,283.3170180062457 L873.164512202607,293.16240851568693 M873.164512202607,293.16240851568693 L892.7872696082181,303.4300824343678 M416.95179365819536,612.6838912960723 L416.95180397802505,612.6836957228127 M892.7872542315718,303.4302748537244 L416.95179365819536,612.6838912960723 M892.7872696082181,303.4300824343678 L416.95180397802505,612.6836957228127 M416.95179365819536,612.6838912960723 L-92.78726960821803,318.38590590274043 M416.95180397802505,612.6836957228127 L-92.78726542727532,318.38571332514834" stroke="black"  stroke-width="4"  fill="red"/></svg>