<svg viewBox="0 0 800 800" xmlns="http://www.w3.org/2000/svg"><path d="M315.1146574510525,317.0619329931316 L300.8590434946748,324.00729247845084 M300.8590434946748,324.00729247845084 L287.3972216074495,317.06193438063826 M287.3972216074495,317.06193438063826 L301.65096923803526,310.14923419759236 M315.1146574510525,317.0619329931316 L301.65096923803526,310.14923419759236 M300.8590434946748,324.00729247845084 L298.38686142977804,217.75220571795833 M298.38686142977804,217.75220571795833 L312.8571510496129,210.95921460912734 M312.8571510496129,210.95921460912734 L310.5325413368135,101.70264304299155 M310.5325413368135,101.70264304299155 L295.84101616165003,108.33105357678767 M295.84101616165003,108.33105357678767 L294.7265691299127,60.43180386996346 M294.7265691299127,60.43180386996346 L309.5149925714536,53.87788824977201 M309.5149925714536,53.87788824977201 L308.48431414461174,5.436039846621156 M308.48431414461174,5.436039846621156 L483.30665132363964,-70.6265005605635 M483.30665132363964,-70.6265005605635 L483.1329526556398,23.830102861978048 M519.2092731370813,7.553463108873643 L483.1329526556398,23.830102861978048 M519.2092731370813,7.553463108873643 L519.0273932917039,16.153496790397526 M519.0273932917039,16.153496790397526 L518.5956204273707,24.835856602443528 M518.5956204273707,24.835856602443528 L517.9153155128797,33.588911691468525 M517.9153155128797,33.588911691468525 L516.9881184646795,42.40104566294565 M516.9881184646795,42.40104566294565 L515.8159577157858,51.26064279294485 M515.8159577157858,51.26064279294485 L514.4010197717721,60.15603659344822 M514.4010197717721,60.15603659344822 L512.7457697071067,69.07565855428186 M512.7457697071067,69.07565855428186 L510.8529219175573,78.00798526326741 M510.8529219175573,78.00798526326741 L508.7254573370759,86.94152038365053 M508.7254573370759,86.94152038365053 L506.3666036642395,95.86468288502385 M506.3666036642395,95.86468288502385 L503.77983127587106,104.76618725028129 M503.77983127587106,104.76618725028129 L500.96885379600997,113.63464440968835 M500.96885379600997,113.63464440968835 L501.04048232414857,113.66079387851937 M501.04048232414857,113.66079387851937 L501.0987055737474,113.71332200752488 M501.0987055737474,113.71332200752488 L501.1401405241728,113.78917026173008 M501.1401405241728,113.78917026173008 L501.1623808342592,113.88394009184265 M501.1623808342592,113.88394009184265 L501.1641333734993,113.99221583767394 M501.1641333734993,113.99221583767394 L501.1453004876462,114.10758136933941 M501.1453004876462,114.10758136933941 L501.1069736981964,114.22339606948026 M501.1069736981964,114.22339606948026 L501.0513830904561,114.33287332071984 M501.0513830904561,114.33287332071984 L500.9817562279515,114.42975367212932 M500.9817562279515,114.42975367212932 L500.9021406788663,114.50833229227192 M500.9021406788663,114.50833229227192 L500.8171606924756,114.56401451843055 M500.8171606924756,114.56401451843055 L500.73175449059346,114.59365975659887 M500.73175449059346,114.59365975659887 L500.650883503446,114.59549685193304 M500.650883503446,114.59549685193304 L497.8263155952422,123.50918794356642 M497.8263155952422,123.50918794356642 L495.2350855202019,132.4347046579927 M495.2350855202019,132.4347046579927 L492.8810010180928,141.35750295131584 M492.8810010180928,141.35750295131584 L490.7674350235869,150.2629376289029 M490.7674350235869,150.2629376289029 L488.8973119061773,159.13661069506534 M488.8973119061773,159.13661069506534 L487.2731087187133,167.96421702618076 M487.2731087187133,167.96421702618076 L485.89685402941086,176.73161107529543 M485.89685402941086,176.73161107529543 L484.7701276336419,185.4246545633174 M484.7701276336419,185.4246545633174 L483.89405895344953,194.02966422456345 M483.89405895344953,194.02966422456345 L483.2693315664924,202.53309187619485 M483.2693315664924,202.53309187619485 L482.8961856874046,210.92147965466808 M482.8961856874046,210.92147965466808 L482.7744217208861,219.18195487723827 M482.7744217208861,219.18195487723827 L482.7446104807524,235.39233336304406 M517.8161518271324,218.30541847462044 L482.7446104807524,235.39233336304406 M517.8161518271324,218.30541847462044 L517.6408423477257,226.4385709077244 M517.6408423477257,226.4385709077244 L517.222522646553,234.661801877823 M517.222522646553,234.661801877823 L516.562493885725,242.96408685280076 M516.562493885725,242.96408685280076 L515.6623310398736,251.33434511116343 M515.6623310398736,251.33434511116343 L514.5238922643532,259.7614270286684 M514.5238922643532,259.7614270286684 L513.1492880316266,268.2342793282089 M513.1492880316266,268.2342793282089 L511.5409028465672,276.7418192240541 M511.5409028465672,276.7418192240541 L509.7013667381468,285.2728871340936 M509.7013667381468,285.2728871340936 L507.63357077254585,293.8164405195554 M507.63357077254585,293.8164405195554 L505.34064770313194,302.3615009203425 M505.34064770313194,302.3615009203425 L502.8259707586692,310.89698808109495 M502.8259707586692,310.89698808109495 L500.09315014336767,319.4121313019789 M500.09315014336767,319.4121313019789 L500.1628174343028,319.4334409388299 M500.1628174343028,319.4334409388299 L500.2194499850607,319.48036737940237 M500.2194499850607,319.48036737940237 L500.259757397875,319.5501256222702 M500.259757397875,319.5501256222702 L500.28139855731763,319.63872280974 M500.28139855731763,319.63872280974 L500.2831158072009,319.7409430538222 M500.2831158072009,319.7409430538222 L500.2648127306348,319.8508826537385 M500.2648127306348,319.8508826537385 L500.22755036016287,319.9621605991725 M500.22755036016287,319.9621605991725 L500.1734966224401,320.06830914934454 M500.1734966224401,320.06830914934454 L500.1057905386855,320.16310283150204 M500.1057905386855,320.16310283150204 L500.0283673825533,320.2411160189648 M500.0283673825533,320.2411160189648 L499.9457240960607,320.29778854905277 M499.9457240960607,320.29778854905277 L499.86266380704484,320.32976313757547 M499.86266380704484,320.32976313757547 L499.7840110276464,320.3352899644958 M499.7840110276464,320.3352899644958 L497.03788719813394,328.89406088540767 M497.03788719813394,328.89406088540767 L494.51861874953084,337.45341087246265 M494.51861874953084,337.45341087246265 L492.229907821058,345.9992947734577 M492.229907821058,345.9992947734577 L490.17503521985327,354.51790287232024 M490.17503521985327,354.51790287232024 L488.35684871948257,362.99552093793324 M488.35684871948257,362.99552093793324 L486.7777639151954,371.418411319857 M486.7777639151954,371.418411319857 L485.43976213779695,379.7732128406196 M485.43976213779695,379.7732128406196 L484.34439075724976,388.0465625051299 M484.34439075724976,388.0465625051299 L483.4927616465743,396.2254418586285 M483.4927616465743,396.2254418586285 L482.88555522204723,404.29695211554133 M482.88555522204723,404.29695211554133 L482.5230222396975,412.24852790058765 M482.5230222396975,412.24852790058765 L482.40498809541805,420.0678914350503 M482.40498809541805,420.0678914350503 L482.37678387461347,435.4044253091754 M482.37678387461347,435.4044253091754 L516.4986470290863,417.6180773285573 M516.4986470290863,417.6180773285573 L516.3294728422115,425.3215869698866 M516.3294728422115,425.3215869698866 L515.9238019503937,433.12202920267674 M515.9238019503937,433.12202920267674 L515.2828805838374,441.0088651470373 M515.2828805838374,441.0088651470373 L514.4082232834853,448.9715126564917 M514.4082232834853,448.9715126564917 L513.3016221135197,456.9993337570943 M513.3016221135197,456.9993337570943 L511.9651171987303,465.0817172450214 M511.9651171987303,465.0817172450214 L510.4010178475099,473.20795926983783 M510.4010178475099,473.20795926983783 L508.6118733862983,481.36747009226644 M508.6118733862983,481.36747009226644 L506.60049042637934,489.5496064452252 M506.60049042637934,489.5496064452252 L504.36991334640237,497.74372337543264 M504.36991334640237,497.74372337543264 L501.92342185537274,505.9392661400025 M501.92342185537274,505.9392661400025 L499.26453009743744,514.1256626725755 M499.26453009743744,514.1256626725755 L499.3323403643005,514.1426824663971 M499.3323403643005,514.1426824663971 L499.38746691841993,514.1845007677756 M499.38746691841993,514.1845007677756 L499.4267064145937,514.2487302000575 M499.4267064145937,514.2487302000575 L499.4477801576164,514.3315982392386 M499.4477801576164,514.3315982392386 L499.44946301057144,514.4283232014544 M499.44946301057144,514.4283232014544 L499.4316607586644,514.5332457187395 M499.4316607586644,514.5332457187395 L499.3954052839672,514.6403007867948 M499.3954052839672,514.6403007867948 L499.34280604249295,514.7432411942784 M499.34280604249295,514.7432411942784 L499.2769172896798,514.836103881872 M499.2769172896798,514.836103881872 L499.2015690187912,514.9134980604057 M499.2015690187912,514.9134980604057 L499.1211376839994,514.9709010458974 M499.1211376839994,514.9709010458974 L499.0402974639695,515.0050141541144 M499.0402974639695,515.0050141541144 L498.96374456525234,515.0138118710342 M498.96374456525234,515.0138118710342 L496.29182548198264,523.2424523696744 M496.29182548198264,523.2424523696744 L493.84063023479297,531.4614707153688 M493.84063023479297,531.4614707153688 L491.6137599998211,539.6575832326916 M491.6137599998211,539.6575832326916 L489.6144092257666,547.8174992175601 M489.6144092257666,547.8174992175601 L487.8453529248951,555.928134750324 M487.8453529248951,555.928134750324 L486.3089476480161,563.9764743768355 M486.3089476480161,563.9764743768355 L485.00713003062424,571.949704323114 M485.00713003062424,571.949704323114 L483.94141604631875,579.8352219068161 M483.94141604631875,579.8352219068161 L483.1129003505613,587.6205716653012 M483.1129003505613,587.6205716653012 L482.5222592412371,595.2936108691166 M482.5222592412371,595.2936108691166 L482.16975292243745,602.8424065798861 M482.16975292243745,602.8424065798861 L482.05522924811214,610.255326380681 M482.05522924811214,610.255326380681 L482.0285055410552,624.7868052454489 M515.2507650461589,606.3981685449435 L482.0285055410552,624.7868052454489 M515.2507650461589,606.3981685449435 L514.3275199434061,746.067061194493 M481.7702464152442,764.8640118300576 L514.3275199434061,746.067061194493 M481.7702464152442,764.8640118300576 L481.7437317536759,779.2825730169612 M481.7437317536759,779.2825730169612 L313.7183627700258,876.70448443886 M313.7183627700258,876.70448443886 L312.8224251939144,838.1968331483475 M312.8224251939144,838.1968331483475 L326.0413880372205,830.6178713075559 M323.52860276161596,712.5170551650485 L326.0413880372205,830.6178713075559 M323.52860276161596,712.5170551650485 L310.07159925537286,719.9655536187951 M310.07159925537286,719.9655536187951 L307.8642618345367,625.0935648235738 M307.8642618345367,625.0935648235738 L321.5124155448233,617.7563296422406 M321.5124155448233,617.7563296422406 L319.43966140851205,520.3369609688755 M319.43966140851205,520.3369609688755 L305.5948523311206,527.5537003028596 M305.5948523311206,527.5537003028596 L303.26071637024006,427.23187427080234 M303.26071637024006,427.23187427080234 L317.3079270185175,420.14552252738986 M317.3079270185175,420.14552252738986 L315.1146574510525,317.0619329931316 M284.7338114753471,210.9592159661478 L298.38686142977804,217.75220571795833 M287.3972216074495,317.06193438063826 L284.7338114753471,210.9592159661478 M299.20215156910626,204.19863434052132 L284.7338114753471,210.9592159661478 M299.20215156910626,204.19863434052132 L296.6807201641481,95.10632696158223 M296.6807201641481,95.10632696158223 L281.99123273519683,101.70264436708646 M281.99123273519683,101.70264436708646 L280.7907268629188,53.87788955896576 M295.5770731189248,47.3559092985804 L280.7907268629188,53.87788955896576 M295.5770731189248,47.3559092985804 L294.45922038517074,-1.009132001085618 M294.45922038517074,-1.009132001085618 L469.2701488105812,-76.70448443886005 M469.2701488105812,-76.70448443886005 L469.2701488105812,17.60500789290336 M469.2701488105812,17.60500789290336 L505.3471915392135,1.4046043021706964 M505.3471915392135,1.4046043021706964 L505.18107841290526,9.991363651838356 M505.18107841290526,9.991363651838356 L504.7650052279442,18.660011861888393 M504.7650052279442,18.660011861888393 L504.1003108876406,27.39893524293109 M504.1003108876406,27.39893524293109 L503.18861370201245,36.196534683885375 M503.18861370201245,36.196534683885375 L502.0318209473575,45.041211916372276 M502.0318209473575,45.041211916372276 L500.632098306934,53.921318131316866 M500.632098306934,53.921318131316866 L498.9918906660065,62.825302548230184 M498.9918906660065,62.825302548230184 L497.11389274473004,71.74165959311517 M497.11389274473004,71.74165959311517 L495.00106629984305,80.65891094858057 M495.00106629984305,80.65891094858057 L492.6566201289842,89.56549394109834 M492.6566201289842,89.56549394109834 L490.0840066841295,98.45014120439964 M490.0840066841295,98.45014120439964 L487.28692190286745,107.30148222392086 M486.97044454164654,108.26046168628363 L487.0513835867964,108.2587470147846 M487.0513835867964,108.2587470147846 L487.1368105238455,108.2292714900774 M487.1368105238455,108.2292714900774 L487.221762806856,108.17379633419546 M487.221762806856,108.17379633419546 L487.30130364570425,108.09545024644899 M487.30130364570425,108.09545024644899 L487.37081318411646,107.99881434016572 M487.37081318411646,107.99881434016572 L487.4262508063318,107.88957913306751 M487.4262508063318,107.88957913306751 L487.46439765080214,107.77399016807794 M487.46439765080214,107.77399016807794 L487.4830341904053,107.65882086199667 M487.4830341904053,107.65882086199667 L487.4810802000303,107.55070052907274 M487.4810802000303,107.55070052907274 L487.45864526805025,107.45603608213082 M487.45864526805025,107.45603608213082 L487.4170336691466,107.38023719165528 M487.4170336691466,107.38023719165528 L487.35866199447673,107.3276995472371 M487.35866199447673,107.3276995472371 L487.28692190286745,107.30148222392086 M469.2708560351459,212.6702470122055 L469.3775249199789,204.42157318020247 M469.3775249199789,204.42157318020247 L469.73556399579854,196.04559337225993 M469.73556399579854,196.04559337225993 L470.34519500890224,187.55516082112268 M470.34519500890224,187.55516082112268 L471.2062007397362,178.96371210885675 M471.2062007397362,178.96371210885675 L472.3179205503262,170.2847730117359 M472.3179205503262,170.2847730117359 L473.6792479961812,161.53200321474552 M473.6792479961812,161.53200321474552 L475.2886268943421,152.71951579468814 M475.2886268943421,152.71951579468814 L477.1440521109853,143.86143013638753 M477.1440521109853,143.86143013638753 L479.2430701388457,134.972024046932 M479.2430701388457,134.972024046932 L481.5827801500833,126.06566717274319 M481.5827801500833,126.06566717274319 L484.159833036327,117.15697512578771 M484.159833036327,117.15697512578771 L486.97044454164654,108.26046168628363 M469.2708560351459,212.6702470122055 L469.2708544774875,228.8579105817245 M469.2708544774875,228.8579105817245 L504.34305922234023,211.84879533407397 M504.34305922234023,211.84879533407397 L504.182644733318,219.97043348497235 M504.182644733318,219.97043348497235 L503.77915775541936,228.18169048446623 M503.77915775541936,228.18169048446623 L503.13387868018344,236.47155700473482 M503.13387868018344,236.47155700473482 L502.2483620375039,244.8289677893344 M502.2483620375039,244.8289677893344 L501.1244458564216,253.24278898652466 M501.1244458564216,253.24278898652466 L499.7642210844299,261.7019831422459 M499.7642210844299,261.7019831422459 L498.170053095289,270.19548356780126 M498.170053095289,270.19548356780126 L496.34455307034756,278.712147088417 M496.34455307034756,278.712147088417 L494.2905938877431,287.2409476634205 M494.2905938877431,287.2409476634205 L492.01129065767077,295.77092348322014 M492.01129065767077,295.77092348322014 L489.50999920358925,304.2910113349823 M489.50999920358925,304.2910113349823 L486.79031331852383,312.79045741724474 M486.4825856170565,313.71189502195784 L486.56130269490876,313.70650077812115 M486.56130269490876,313.70650077812115 L486.64438263933874,313.67470099043436 M486.64438263933874,313.67470099043436 L486.72699959675936,313.6182354666968 M486.72699959675936,313.6182354666968 L486.80435208450785,313.5404493751828 M486.80435208450785,313.5404493751828 L486.8719473159524,313.4458896510143 M486.8719473159524,313.4458896510143 L486.92585630293706,313.33996843713 M486.92585630293706,313.33996843713 L486.9629485416653,313.22889792638335 M486.9629485416653,313.22889792638335 L486.98106599155886,313.11913380297597 M486.98106599155886,313.11913380297597 L486.97915839618867,313.01704689707856 M486.97915839618867,313.01704689707856 L486.9573331651527,312.92853320538325 M486.9573331651527,312.92853320538325 L486.9168587783346,312.85880367373886 M486.9168587783346,312.85880367373886 L486.8600859432965,312.8118495684728 M486.8600859432965,312.8118495684728 L486.79031331852383,312.79045741724474 M469.2708367308644,413.28624979082224 L469.3745908716965,405.4770930552902 M469.3745908716965,405.4770930552902 L469.7228335055837,397.53633195384026 M469.7228335055837,397.53633195384026 L470.3157604204096,389.476227415528 M470.3157604204096,389.476227415528 L471.1531423139322,381.30932659599245 M471.1531423139322,381.30932659599245 L472.23432058726763,373.04850863496347 M472.23432058726763,373.04850863496347 L473.5582051652245,364.7067712024777 M473.5582051652245,364.7067712024777 L475.12327087714687,356.2974550862375 M475.12327087714687,356.2974550862375 L476.9275583658135,347.8338983055407 M476.9275583658135,347.8338983055407 L478.9686744883077,339.3298139252146 M478.9686744883077,339.3298139252146 L481.2437936734986,330.7988907118578 M481.2437936734986,330.7988907118578 L483.7496572894342,322.2549119044629 M483.7496572894342,322.2549119044629 L486.4825856170565,313.71189502195784 M469.2708367308644,413.28624979082224 L469.2708352569895,428.6032090002937 M503.39330918800545,410.8956483230205 L469.2708352569895,428.6032090002937 M503.39330918800545,410.8956483230205 L503.23822847151354,418.5891822745535 M503.23822847151354,418.5891822745535 L502.84659322235296,426.37917218164455 M502.84659322235296,426.37917218164455 L502.21962994967816,434.25509272946863 M502.21962994967816,434.25509272946863 L501.35883382044653,442.2063756109078 M501.35883382044653,442.2063756109078 L500.26597786468943,450.22239701004946 M500.26597786468943,450.22239701004946 L498.94308364192875,458.2925600627726 M498.94308364192875,458.2925600627726 L497.39244216913227,466.40617563818347 M497.39244216913227,466.40617563818347 L495.61658511204405,474.5526688084743 M495.61658511204405,474.5526688084743 L493.6183017618531,482.7214114624621 M493.6183017618531,482.7214114624621 L491.4006195956922,490.90177406714855 M491.4006195956922,490.90177406714855 L488.9668020076238,499.08321746573023 M488.9668020076238,499.08321746573023 L486.3203472134187,507.2551854914319 M486.02089820908276,508.14174951511256 L486.097511995404,508.1330924017401 M486.097511995404,508.1330924017401 L486.17837069546044,508.09915779846676 M486.17837069546044,508.09915779846676 L486.25877710863335,508.04196079482665 M486.25877710863335,508.04196079482665 L486.33405843366126,507.9647881494376 M486.33405843366126,507.9647881494376 L486.39984215290684,507.87214964711575 M486.39984215290684,507.87214964711575 L486.452304363127,507.76942305671867 M486.452304363127,507.76942305671867 L486.4883987379314,507.66255904246464 M486.4883987379314,507.66255904246464 L486.5060252282712,507.55779368041794 M486.5060252282712,507.55779368041794 L486.5041621098954,507.46118288810044 M486.5041621098954,507.46118288810044 L486.4829141424502,507.37837934720335 M486.4829141424502,507.37837934720335 L486.4435165276023,507.3141610348453 M486.4435165276023,507.3141610348453 L486.3882572238305,507.27229977574 M486.3882572238305,507.27229977574 L486.3203472134187,507.2551854914319 M469.270818452433,603.2413037816391 L469.3718129040417,595.8371952975159 M469.3718129040417,595.8371952975159 L469.7107809058362,588.2978174867646 M469.7107809058362,588.2978174867646 L470.2878947119339,580.6347883113402 M470.2878947119339,580.6347883113402 L471.10291449683916,572.8600249074099 M471.10291449683916,572.8600249074099 L472.1551844531546,564.9856529643109 M472.1551844531546,564.9856529643109 L473.44363072615147,557.0241095527623 M473.44363072615147,557.0241095527623 L474.9667581552845,548.9879778146252 M474.9667581552845,548.9879778146252 L476.7226510572345,540.8900507759454 M476.7226510572345,540.8900507759454 L478.70897396310227,532.7433219642053 M478.70897396310227,532.7433219642053 L480.9229728338493,524.5608523738583 M480.9229728338493,524.5608523738583 L483.36147434348027,516.355908638006 M483.36147434348027,516.355908638006 L486.02089820908276,508.14174951511256 M469.270818452433,603.2413037816391 L469.2708170557603,617.7559544567481 M502.49364013694884,599.4466216007285 L469.2708170557603,617.7559544567481 M502.49364013694884,599.4466216007285 L501.8279526090204,738.9601806615153 M501.8279526090204,738.9601806615153 L469.27014881058125,757.6776936070967 M469.27014881058125,757.6776936070967 L469.27014881058125,772.0809465470063 M469.27014881058125,772.0809465470063 L301.2542069600936,869.0849958025339 M301.2542069600936,869.0849958025339 L300.2885980988839,830.6178728218937 M313.50606401446686,823.0720290885256 L300.2885980988839,830.6178728218937 M310.77943589220166,705.1016759639909 L313.50606401446686,823.0720290885256 M297.32400948990676,712.5170566532613 L310.77943589220166,705.1016759639909 M297.32400948990676,712.5170566532613 L294.9453081680781,617.7563311081776 M308.5918184116137,610.4521692787989 L294.9453081680781,617.7563311081776 M308.5918184116137,610.4521692787989 L306.3429645640258,513.1532085738055 M292.4998690923487,520.3369624106924 L306.3429645640258,513.1532085738055 M292.4998690923487,520.3369624106924 L289.98484500670713,420.14552394311056 M304.0302678617315,413.0920214937859 L289.98484500670713,420.14552394311056 M304.0302678617315,413.0920214937859 L301.65096923803526,310.14923419759236 M317.3079270185175,420.14552252738986 L304.0302678617315,413.0920214937859 M312.8571510496129,210.95921460912734 L299.20215156910626,204.19863434052132 M310.5325413368135,101.70264304299155 L296.6807201641481,95.10632696158223 M295.84101616165003,108.33105357678767 L281.99123273519683,101.70264436708646 M280.7907268629188,53.87788955896576 L294.7265691299127,60.43180386996346 M309.5149925714536,53.87788824977201 L295.5770731189248,47.3559092985804 M308.48431414461174,5.436039846621156 L294.45922038517074,-1.009132001085618 M483.30665132363964,-70.6265005605635 L469.2701488105812,-76.70448443886005 M483.1329526556398,23.830102861978048 L469.2701488105812,17.60500789290336 M519.2092731370813,7.553463108873643 L505.3471915392135,1.4046043021706964 M495.008763103766,12.244926106421872 L494.8136591267978,12.176660510577221 M494.8136591267978,12.176660510577221 L494.5879799092169,12.131232888455088 M494.5879799092169,12.131232888455088 L494.344835800543,12.11128156710754 M494.344835800543,12.11128156710754 L494.0983521590796,12.117963967523679 M494.0983521590796,12.117963967523679 L493.86284436581093,12.150893776269754 M493.86284436581093,12.150893776269754 L493.6519951014957,12.208157551369709 M493.6519951014957,12.208157551369709 L493.47805361298884,12.286430914719176 M493.47805361298884,12.286430914719176 L493.3511295423809,12.381167832385586 M493.3511295423809,12.381167832385586 L493.2786011502643,12.486865969435371 M493.2786011502643,12.486865969435371 L493.26469298304033,12.597383573952584 M493.26469298304033,12.597383573952584 L493.3102169180755,12.706299110920213 M493.3102169180755,12.706299110920213 L493.41253613124195,12.807280947422441 M493.41253613124195,12.807280947422441 L493.5657074901375,12.894458134896809 M493.5657074901375,12.894458134896809 L493.7608329689063,12.962761235070957 M493.7608329689063,12.962761235070957 L493.98656913669276,13.008217531111995 M493.98656913669276,13.008217531111995 L494.22979329176076,13.028182436522002 M494.22979329176076,13.028182436522002 L494.4763617376227,13.021495418971767 M494.4763617376227,13.021495418971767 L494.71193966613953,12.98854384855656 M494.71193966613953,12.98854384855656 L494.9228283290519,12.931246153582038 M494.9228283290519,12.931246153582038 L495.0967694539424,12.852934482352453 M495.0967694539424,12.852934482352453 L495.2236534820229,12.758163644823071 M495.2236534820229,12.758163644823071 L495.2961113257752,12.652443746406107 M495.2961113257752,12.652443746406107 L495.30993460094896,12.541921524405439 M495.30993460094896,12.541921524405439 L495.26433087740014,12.43301957160088 M495.26433087740014,12.43301957160088 L495.1619552583674,12.332066408911714 M495.1619552583674,12.332066408911714 L495.008763103766,12.244926106421872 M500.96885379600997,113.63464440968835 L487.28692190286745,107.30148222392086 M500.650883503446,114.59549685193304 L486.97044454164654,108.26046168628363 M482.7744217208861,219.18195487723827 L469.2708560351459,212.6702470122055 M482.7446104807524,235.39233336304406 L469.2708544774875,228.8579105817245 M517.8161518271324,218.30541847462044 L504.34305922234023,211.84879533407397 M494.28950394003886,223.2311335599924 L494.0998700690243,223.15946286991988 M494.0998700690243,223.15946286991988 L493.8805090973133,223.11176925630994 M493.8805090973133,223.11176925630994 L493.6441644618941,223.09082272143533 M493.6441644618941,223.09082272143533 L493.40456669466397,223.09783845491077 M493.40456669466397,223.09783845491077 L493.1756314522944,223.13241086155065 M493.1756314522944,223.13241086155065 L492.9706597222285,223.19253099891014 M492.9706597222285,223.19253099891014 L492.8015593880479,223.2747085812406 M492.8015593880479,223.2747085812406 L492.6781587178478,223.37417072564492 M492.6781587178478,223.37417072564492 L492.60763105831137,223.48514057019068 M492.60763105831137,223.48514057019068 L492.59408425215133,223.6011699877064 M492.59408425215133,223.6011699877064 L492.6383088780752,223.7155171721444 M492.6383088780752,223.7155171721444 L492.7377431905107,223.82153476434806 M492.7377431905107,223.82153476434806 L492.8866114945428,223.91305911556555 M492.8866114945428,223.91305911556555 L493.07626569173436,223.98476808902606 M493.07626569173436,223.98476808902606 L493.2956804676474,224.03249096523527 M493.2956804676474,224.03249096523527 L493.53210073429045,224.05345136305553 M493.53210073429045,224.05345136305553 L493.77177863307344,224.04643091765521 M493.77177863307344,224.04643091765521 L494.0007801506347,224.0118363025756 M494.0007801506347,224.0118363025756 L494.20578911634243,223.95168154896047 M494.20578911634243,223.95168154896047 L494.37488911654987,223.86946487228272 M494.37488911654987,223.86946487228272 L494.49825195967264,223.76996811163465 M494.49825195967264,223.76996811163465 L494.5687129645798,223.65897605895705 M494.5687129645798,223.65897605895705 L494.582179558681,223.54294192916004 M494.582179558681,223.54294192916004 L494.5378795383903,223.42860860777023 M494.5378795383903,223.42860860777023 L494.4383919217162,223.32262027805837 M494.4383919217162,223.32262027805837 L494.28950394003886,223.2311335599924 M500.09315014336767,319.4121313019789 L486.79031331852383,312.79045741724474 M499.7840110276464,320.3352899644958 L486.4825856170565,313.71189502195784 M482.40498809541805,420.0678914350503 L469.2708367308644,413.28624979082224 M482.37678387461347,435.4044253091754 L469.2708352569895,428.6032090002937 M516.4986470290863,417.6180773285573 L503.39330918800545,410.8956483230205 M493.60935091238366,422.74601641445287 L493.42488878689005,422.67140676128713 M493.42488878689005,422.67140676128713 L493.2115019192818,422.6217573436123 M493.2115019192818,422.6217573436123 L492.9815868119599,422.59995182581014 M492.9815868119599,422.59995182581014 L492.7485006422386,422.6072552639426 M492.7485006422386,422.6072552639426 L492.5257810588183,422.6432454185829 M492.5257810588183,422.6432454185829 L492.3263680733114,422.705830910712 M492.3263680733114,422.705830910712 L492.16184671633346,422.79137824423555 M492.16184671633346,422.79137824423555 L492.04177912017315,422.8949187261733 M492.04177912017315,422.8949187261733 L491.97314479164896,423.01043853685917 M491.97314479164896,423.01043853685917 L491.9599411435644,423.1312251103656 M491.9599411435644,423.1312251103656 L492.0029385404958,423.25026021804797 M492.0029385404958,423.25026021804797 L492.0996461596809,423.3606240106088 M492.0996461596809,423.3606240106088 L492.2444465682227,423.45590023075613 M492.2444465682227,423.45590023075613 L492.4289279390757,423.5305486625613 M492.4289279390757,423.5305486625613 L492.6423657185427,423.5802277143552 M492.6423657185427,423.5802277143552 L492.8723523973879,423.60204727110784 M492.8723523973879,423.60204727110784 L493.1055144016588,423.59473906122764 M493.1055144016588,423.59473906122764 L493.3282967103309,423.5587264161879 M493.3282967103309,423.5587264161879 L493.52774494186986,423.49610586831295 M493.52774494186986,423.49610586831295 L493.69226599138113,423.410518944098 M493.69226599138113,423.410518944098 L493.8122977970147,423.30694340642657 M493.8122977970147,423.30694340642657 L493.8808690509643,423.1914011056533 M493.8808690509643,423.1914011056533 L493.89399679038263,423.07060976003805 M493.89399679038263,423.07060976003805 L493.85092803998634,422.95158869141005 M493.85092803998634,422.95158869141005 L493.7541699692251,422.84125453285935 M493.7541699692251,422.84125453285935 L493.60935091238366,422.74601641445287 M499.26453009743744,514.1256626725755 L486.3203472134187,507.2551854914319 M498.96374456525234,515.0138118710342 L486.02089820908276,508.14174951511256 M482.05522924811214,610.255326380681 L469.270818452433,603.2413037816391 M482.0285055410552,624.7868052454489 L469.2708170557603,617.7559544567481 M515.2507650461589,606.3981685449435 L502.49364013694884,599.4466216007285 M492.9651992072598,611.7003351673656 L492.7856342285244,611.6231939541291 M492.7856342285244,611.6231939541291 L492.5779046940414,611.5718598399935 M492.5779046940414,611.5718598399935 L492.3540785611975,611.549314406692 M492.3540785611975,611.549314406692 L492.1271594194089,611.5568656696122 M492.1271594194089,611.5568656696122 L491.91032690287614,611.5940770504801 M491.91032690287614,611.5940770504801 L491.71617912272853,611.6587861525359 M491.71617912272853,611.6587861525359 L491.55599530113847,611.7472361082996 M491.55599530113847,611.7472361082996 L491.4390854675922,611.8542895443675 M491.4390854675922,611.8542895443675 L491.372245489056,611.973728520281 M491.372245489056,611.973728520281 L491.359368129618,612.0986126846143 M491.359368129618,612.0986126846143 L491.4012045438264,612.2216857095377 M491.4012045438264,612.2216857095377 L491.49533101162865,612.3357930429338 M491.49533101162865,612.3357930429338 L491.63627992071866,612.4343008573071 M491.63627992071866,612.4343008573071 L491.81586314885055,612.5114811127244 M491.81586314885055,612.5114811127244 L492.02364092995504,612.5628450552948 M492.02364092995504,612.5628450552948 L492.2475348929321,612.5854046196023 M492.2475348929321,612.5854046196023 L492.4745259088587,612.5778485536453 M492.4745259088587,612.5778485536453 L492.69141787846934,612.5406145349048 M492.69141787846934,612.5406145349048 L492.8855990703447,612.4758701472372 M492.8855990703447,612.4758701472372 L493.04578260824223,612.3873803411793 M493.04578260824223,612.3873803411793 L493.16265852766776,612.2802916195117 M493.16265852766776,612.2802916195117 L493.22943873081397,612.1608300060394 M493.22943873081397,612.1608300060394 L493.242244147728,612.035941038306 M493.242244147728,612.035941038306 L493.20034010458403,611.9128821444931 M493.20034010458403,611.9128821444931 L493.1061658148526,611.7988046394222 M493.1061658148526,611.7988046394222 L492.9651992072598,611.7003351673656 M514.3275199434061,746.067061194493 L501.8279526090204,738.9601806615153 M469.27014881058125,757.6776936070967 L481.7702464152442,764.8640118300576 M493.4650005706033,750.9248008673294 L493.81032477805803,751.1763745512742 M493.81032477805803,751.1763745512742 L494.0410689889921,751.467852810186 M494.0410689889921,751.467852810186 L494.14379983636303,751.7823123632634 M494.14379983636303,751.7823123632634 L494.1125113468525,752.1014845895622 M494.1125113468525,752.1014845895622 L493.94898556423726,752.4068186133403 M493.94898556423726,752.4068186133403 L493.66269512311754,752.6805575167015 M493.66269512311754,752.6805575167015 L493.2702604046274,752.9067734798448 M493.2702604046274,752.9067734798448 L492.7944886110904,753.0722980349351 M492.7944886110904,753.0722980349351 L492.2630474042553,753.1674927989739 M492.2630474042553,753.1674927989739 L491.7068525770055,753.1868133878579 M491.7068525770055,753.1868133878579 L491.1582636392684,753.1291340545141 M491.1582636392684,753.1291340545141 L490.64919906831653,752.9978150243869 M490.64919906831653,752.9978150243869 L490.2092678886753,752.8005033986683 M490.2092678886753,752.8005033986683 L489.86404671760744,752.5486878423748 M489.86404671760744,752.5486878423748 L489.63358889188703,752.257022487388 M489.63358889188703,752.257022487388 L489.53126453057155,751.9424748253538 M489.53126453057155,751.9424748253538 L489.56298443863255,751.6233324915866 M489.56298443863255,751.6233324915866 L489.72686891998444,751.3181401882575 M489.72686891998444,751.3181401882575 L490.01336285374475,751.0446221882304 M490.01336285374475,751.0446221882304 L490.40579924049,750.8186557050157 M490.40579924049,750.8186557050157 L490.8813704956964,750.6533520532483 M490.8813704956964,750.6533520532483 L491.41245489908545,750.5582990098139 M491.41245489908545,750.5582990098139 L491.9682187098848,750.53900867124 M491.9682187098848,750.53900867124 L492.5163999783989,750.5965991801041 M492.5163999783989,750.5965991801041 L493.02517566678154,750.7277318296889 M493.02517566678154,750.7277318296889 L493.4650005706033,750.9248008673294 M481.7437317536759,779.2825730169612 L469.27014881058125,772.0809465470063 M313.7183627700258,876.70448443886 L301.2542069600936,869.0849958025339 M300.2885980988839,830.6178728218937 L312.8224251939144,838.1968331483475 M323.52860276161596,712.5170551650485 L310.77943589220166,705.1016759639909 M326.0413880372205,830.6178713075559 L313.50606401446686,823.0720290885256 M310.07159925537286,719.9655536187951 L297.32400948990676,712.5170566532613 M294.9453081680781,617.7563311081776 L307.8642618345367,625.0935648235738 M321.5124155448233,617.7563296422406 L308.5918184116137,610.4521692787989 M319.43966140851205,520.3369609688755 L306.3429645640258,513.1532085738055 M305.5948523311206,527.5537003028596 L292.4998690923487,520.3369624106924 M289.98484500670713,420.14552394311056 L303.26071637024006,427.23187427080234 M495.008763103766,12.244926106421872 L495.0629451054296,-3.6487261677042397 M495.0629451054296,-3.6487261677042397 L495.21646154878704,-3.5619290748975345 M495.21646154878704,-3.5619290748975345 L495.3190547850875,-3.4613735099377436 M495.3190547850875,-3.4613735099377436 L495.36475678526915,-3.3529004424931372 M495.36475678526915,-3.3529004424931372 L495.3509067101719,-3.2428134676148375 M495.3509067101719,-3.2428134676148375 L495.2782985091447,-3.1375098861196875 M495.2782985091447,-3.1375098861196875 L495.1511492863919,-3.0431122338243313 M495.1511492863919,-3.0431122338243313 L494.97684352387864,-2.9651089247247455 M494.97684352387864,-2.9651089247247455 L494.76551197320356,-2.908036840502973 M494.76551197320356,-2.908036840502973 L494.5294386574821,-2.875215015150843 M494.5294386574821,-2.875215015150843 L494.28235114411893,-2.8685543271667484 M494.28235114411893,-2.8685543271667484 L494.03861443373427,-2.888440622238136 M494.03861443373427,-2.888440622238136 L493.8124020427881,-2.933717935108916 M493.8124020427881,-2.933717935108916 L493.61686436757276,-3.001752087139721 M493.61686436757276,-3.001752087139721 L493.4633688053733,-3.088585997672112 M493.4633688053733,-3.088585997672112 L493.3608322121216,-3.189170183653914 M493.3608322121216,-3.189170183653914 L493.3152103364995,-3.297656810252306 M493.3152103364995,-3.297656810252306 L493.32914566157024,-3.4077391761478566 M493.32914566157024,-3.4077391761478566 L493.4018247087684,-3.5130210363405467 M493.4018247087684,-3.5130210363405467 L493.52901414351373,-3.6073848312220207 M493.52901414351373,-3.6073848312220207 L493.70332027194473,-3.6853499029699606 M493.70332027194473,-3.6853499029699606 L493.9146122586334,-3.7423881297659136 M493.9146122586334,-3.7423881297659136 L494.15061514391454,-3.7751882335144273 M494.15061514391454,-3.7751882335144273 L494.39761749551076,-3.7818443128644503 M494.39761749551076,-3.7818443128644503 L494.64127382182323,-3.761971576846122 M494.64127382182323,-3.761971576846122 L494.86742902193606,-3.7167228851033087 M494.86742902193606,-3.7167228851033087 L495.0629451054296,-3.6487261677042397 M494.28950394003886,223.2311335599924 L494.3406970363555,208.21424147939675 M494.3406970363555,208.21424147939675 L494.4898913222953,208.3054317311438 M494.4898913222953,208.3054317311438 L494.5895844402487,208.41107661648994 M494.5895844402487,208.41107661648994 L494.6339771955722,208.52503947046958 M494.6339771955722,208.52503947046958 L494.62048515849955,208.64069764098295 M494.62048515849955,208.64069764098295 L494.5498819758828,208.75133008914057 M494.5498819758828,208.75133008914057 L494.42626846658413,208.85050450401366 M494.42626846658413,208.85050450401366 L494.25682386320307,208.9324548289726 M494.25682386320307,208.9324548289726 L494.0513963857387,208.99241470950187 M494.0513963857387,208.99241470950187 L493.82192678087756,209.02689725666193 M493.82192678087756,209.02689725666193 L493.5817584495601,209.03389495980954 M493.5817584495601,209.03389495980954 L493.3448539312158,209.01300246197323 M493.3448539312158,209.01300246197323 L493.1249892569676,208.9654341835809 M493.1249892569676,208.9654341835809 L492.93494567790736,208.8939575168151 M492.93494567790736,208.8939575168151 L492.7857711481876,208.80272967642668 M492.7857711481876,208.80272967642668 L492.6861315523444,208.69705556371443 M492.6861315523444,208.69705556371443 L492.64181450003196,208.58307886332722 M492.64181450003196,208.58307886332722 L492.65538707787175,208.4674253994386 M492.65538707787175,208.4674253994386 L492.72605718858887,208.3568151327551 M492.72605718858887,208.3568151327551 L492.84970868054836,208.25767529257357 M492.84970868054836,208.25767529257357 L493.0191536199572,208.17576401503467 M493.0191536199572,208.17576401503467 L493.2245437098343,208.11583870920902 M493.2245437098343,208.11583870920902 L493.453946768367,208.08137834383055 M493.453946768367,208.08137834383055 L493.6940346399188,208.07438534695174 M493.6940346399188,208.07438534695174 L493.93086321693784,208.09526399848295 M493.93086321693784,208.09526399848295 L494.15067386603675,208.1428030494017 M494.15067386603675,208.1428030494017 L494.3406970363555,208.21424147939675 M493.60935091238366,422.74601641445287 L493.65779577087426,408.53528754366044 M493.65779577087426,408.53528754366044 L493.8029046030739,408.6302699963108 M493.8029046030739,408.6302699963108 L493.89985704343104,408.74030797872217 M493.89985704343104,408.74030797872217 L493.9430134428945,408.85900957024444 M493.9430134428945,408.85900957024444 L493.92986151771197,408.97947670584426 M493.92986151771197,408.97947670584426 L493.86115561599195,409.0947089030979 M493.86115561599195,409.0947089030979 L493.74088651073725,409.19800646958856 M493.74088651073725,409.19800646958856 L493.57603928563054,409.28336371017326 M493.57603928563054,409.28336371017326 L493.3761949599316,409.3458162137213 M493.3761949599316,409.3458162137213 L493.15296966784115,409.38173221994293 M493.15296966784115,409.38173221994293 L492.91934356022557,409.3890208186745 M492.91934356022557,409.3890208186745 L492.688898652012,409.36725981361735 M492.688898652012,409.36725981361735 L492.47503517509006,409.31771407540305 M492.47503517509006,409.31771407540305 L492.29018539394474,409.2432659684791 M492.29018539394474,409.2432659684791 L492.1450952824627,409.14824544004114 M492.1450952824627,409.14824544004114 L492.048193494283,409.03817784432783 M492.048193494283,409.03817784432783 L492.00510873242706,408.9194622235615 M492.00510873242706,408.9194622235615 L492.01833686886397,408.7989998567359 M492.01833686886397,408.7989998567359 L492.08710609687466,408.68379013385356 M492.08710609687466,408.68379013385356 L492.2074111358338,408.5805275985997 M492.2074111358338,408.5805275985997 L492.37225867024716,408.4952099210407 M492.37225867024716,408.4952099210407 L492.57206760999446,408.4327924487418 M492.57206760999446,408.4327924487418 L492.795229927207,408.39689891720326 M492.795229927207,408.39689891720326 L493.0287798981285,408.38961508688493 M493.0287798981285,408.38961508688493 L493.25915294937147,408.4113620628022 M493.25915294937147,408.4113620628022 L493.47296531107895,408.4608781876055 M493.47296531107895,408.4608781876055 L493.65779577087426,408.53528754366044 M492.9651992072598,611.7003351673656 L493.01111137557723,598.2325411401193 M493.01111137557723,598.2325411401193 L493.1523525325213,598.3307906471264 M493.1523525325213,598.3307906471264 L493.2467109408414,598.4446133357902 M493.2467109408414,598.4446133357902 L493.28869795420104,598.5673973687918 M493.28869795420104,598.5673973687918 L493.2758695184236,598.6920074066209 M493.2758695184236,598.6920074066209 L493.20896161470637,598.811202229213 M493.20896161470637,598.811202229213 L493.0918607207438,598.9180518065959 M493.0918607207438,598.9180518065959 L492.93136799503185,599.0063440127257 M492.93136799503185,599.0063440127257 L492.73681137214845,599.070943830502 M492.73681137214845,599.070943830502 L492.51949955596797,599.1080947104359 M492.51949955596797,599.1080947104359 L492.29206870078514,599.1156339048654 M492.29206870078514,599.1156339048654 L492.06774048783245,599.093124712781 M492.06774048783245,599.093124712781 L491.85955930833296,599.0418754606865 M491.85955930833296,599.0418754606865 L491.67962699145806,598.9648675468837 M491.67962699145806,598.9648675468837 L491.53840359990625,598.8665797083836 M491.53840359990625,598.8665797083836 L491.444093198625,598.7527272003415 M491.444093198625,598.7527272003415 L491.40217407636845,598.6299290404676 M491.40217407636845,598.6299290404676 L491.41507473383365,598.5053238045982 M491.41507473383365,598.5053238045982 L491.48204264515,598.3861516127746 M491.48204264515,598.3861516127746 L491.59917758529014,598.279337310408 M491.59917758529014,598.279337310408 L491.75967059634706,598.1910849426196 M491.75967059634706,598.1910849426196 L491.9541936783722,598.1265203998715 M491.9541936783722,598.1265203998715 L492.17144581114314,598.0893921510201 M492.17144581114314,598.0893921510201 L492.3988045134224,598.0818577581869 M492.3988045134224,598.0818577581869 L492.62306463290264,598.1043528235037 M492.62306463290264,598.1043528235037 L492.8311973781971,598.1555722561103 M492.8311973781971,598.1555722561103 L493.01111137557723,598.2325411401193 M493.4650005706033,750.9248008673294 L493.4596244894213,752.4382985562225 M493.4596244894213,752.4382985562225 L493.804871559563,752.6899291619734 M493.804871559563,752.6899291619734 L494.03556402006166,752.9814733611914 M494.03556402006166,752.9814733611914 L494.13827152202816,753.2960040410176 M494.13827152202816,753.2960040410176 L494.10698946450657,753.61524844669 M494.10698946450657,753.61524844669 L493.9434995337503,753.9206515078334 M493.9434995337503,753.9206515078334 L493.65727229448703,754.1944522943227 M493.65727229448703,754.1944522943227 L493.2649244626466,754.4207193898111 M493.2649244626466,754.4207193898111 L492.78925819101704,754.5862813546948 M492.78925819101704,754.5862813546948 L492.25793500111956,754.6814976318308 M492.25793500111956,754.6814976318308 L491.70186381360605,754.7008225868356 M491.70186381360605,754.7008225868356 L491.15339693682284,754.6431302188089 M491.15339693682284,754.6431302188089 L490.64444573843986,754.5117815108732 M490.64444573843986,754.5117815108732 L490.20461264331135,754.314425288895 M490.20461264331135,754.314425288895 L489.8594685642579,754.0625528099453 M489.8594685642579,754.0625528099453 L489.62906236182124,753.7708215138532 M489.62906236182124,753.7708215138532 L489.5267611655082,753.4562027248112 M489.5267611655082,753.4562027248112 L489.55847444971243,753.1369882117455 M489.55847444971243,753.1369882117455 L489.72232291956306,752.831726871596 M489.72232291956306,752.831726871596 L490.00875356069173,752.55814698929 M490.00875356069173,752.55814698929 L490.40110305967517,752.3321293746893 M490.40110305967517,752.3321293746893 L490.87656888177975,752.1667883139779 M490.87656888177975,752.1667883139779 L491.40753542661025,752.071713757991 M491.40753542661025,752.071713757991 L491.963175789273,752.0524190534525 M491.963175789273,752.0524190534525 L492.51123517802404,752.1100225965785 M492.51123517802404,752.1100225965785 L493.01989762265407,752.2411849233347 M493.01989762265407,752.2411849233347 L493.4596244894213,752.4382985562225 M496.14703707505794,-4.133747084542392 L496.53086632231003,-3.9168243874771633 M496.53086632231003,-3.9168243874771633 L496.78745452265116,-3.6654889648029894 M496.78745452265116,-3.6654889648029894 L496.9018607605395,-3.394331869081725 M496.9018607605395,-3.394331869081725 L496.86739231663455,-3.119105326154795 M496.86739231663455,-3.119105326154795 L496.68600746454,-2.8558062505649104 M496.68600746454,-2.8558062505649104 L496.3682095239213,-2.619748143943184 M496.3682095239213,-2.619748143943184 L495.93244583821297,-2.4246681297626083 M495.93244583821297,-2.4246681297626083 L495.4040417251017,-2.281924232595884 M495.4040417251017,-2.281924232595884 L494.81372768391645,-2.1998301408337966 M494.81372768391645,-2.1998301408337966 L494.1958481000778,-2.183168382377289 M494.1958481000778,-2.183168382377289 L493.58635585901277,-2.2329100292087105 M493.58635585901277,-2.2329100292087105 L493.02071726197016,-2.346156557501331 M493.02071726197016,-2.346156557501331 L492.531834941021,-2.5163117536569644 M492.531834941021,-2.5163117536569644 L492.1481325491667,-2.733466180956839 M492.1481325491667,-2.733466180956839 L491.8918976733395,-2.9849807937810056 M491.8918976733395,-2.9849807937810056 L491.77799290881006,-3.256222325647286 M491.77799290881006,-3.256222325647286 L491.8129938180933,-3.531420216610968 M491.8129938180933,-3.531420216610968 L491.9948214582033,-3.7945835343748513 M491.9948214582033,-3.7945835343748513 L492.3128707245502,-4.030430031755145 M492.3128707245502,-4.030430031755145 L492.7486366972872,-4.22527106240193 M492.7486366972872,-4.22527106240193 L493.2767935347623,-4.367803350330519 M493.2767935347623,-4.367803350330519 L493.86666738619704,-4.449761684110058 M493.86666738619704,-4.449761684110058 L494.48401505588976,-4.466394482083615 M494.48401505588976,-4.466394482083615 L495.09300420157507,-4.416737888405123 M495.09300420157507,-4.416737888405123 L495.6582860504608,-4.303669933259243 M495.6582860504608,-4.303669933259243 L496.14703707505794,-4.133747084542392 M495.39456779265987,207.70466853812107 L495.76758956848425,207.9325726340878 M495.76758956848425,207.9325726340878 L496.0169216550187,208.1966302284865 M496.0169216550187,208.1966302284865 L496.1280464640693,208.48151124410154 M496.1280464640693,208.48151124410154 L496.09446437152235,208.7706659826072 M496.09446437152235,208.7706659826072 L495.91808463774254,209.04728805635955 M495.91808463774254,209.04728805635955 L495.60912180526606,209.2952894375198 M495.60912180526606,209.2952894375198 L495.1855109585159,209.5002385098823 M495.1855109585159,209.5002385098823 L494.67187113953,209.65020325015578 M494.67187113953,209.65020325015578 L494.0980736256237,209.7364499465348 M494.0980736256237,209.7364499465348 L493.49750084939495,209.75395449619006 M493.49750084939495,209.75395449619006 L492.90509741623026,209.70169678059065 M492.90509741623026,209.70169678059065 L492.35533405972404,209.58272172535305 M492.35533405972404,209.58272172535305 L491.8801891307521,209.40395876018218 M491.8801891307521,209.40395876018218 L491.50728728217285,209.17581803379514 M491.50728728217285,209.17581803379514 L491.25828903379227,208.9115774439808 M491.25828903379227,208.9115774439808 L491.1476380438972,208.6266102124961 M491.1476380438972,208.6266102124961 L491.1817231790186,208.3374847284144 M491.1817231790186,208.3374847284144 L491.3585212129018,208.0610012885522 M491.3585212129018,208.0610012885522 L491.6677214377381,207.81321599962848 M491.6677214377381,207.81321599962848 L492.0913343846998,207.60851097372495 M492.0913343846998,207.60851097372495 L492.60474053058476,207.4587623256825 M492.60474053058476,207.4587623256825 L493.1781221304144,207.37265426335122 M493.1781221304144,207.37265426335122 L493.7781923702761,207.35517929225153 M493.7781923702761,207.35517929225153 L494.3701204947611,207.40735014375016 M494.3701204947611,207.40735014375016 L494.9195468691303,207.52614285180275 M494.9195468691303,207.52614285180275 L495.39456779265987,207.70466853812107 M494.6830845353248,408.0045206405387 L495.0458907646703,408.2419042793196 M495.0458907646703,408.2419042793196 L495.28836580782206,408.51694389919595 M495.28836580782206,408.51694389919595 L495.3963920795929,408.8136714090426 M495.3963920795929,408.8136714090426 L495.3636522303598,409.11484869699314 M495.3636522303598,409.11484869699314 L495.192008868734,409.4029706655481 M495.192008868734,409.4029706655481 L494.8914032090945,409.66128080155835 M494.8914032090945,409.66128080155835 L494.4792857554007,409.87474812908255 M494.4792857554007,409.87474812908255 L493.97960759752516,410.030945288956 M493.97960759752516,410.030945288956 L493.4214275309073,410.12077612775266 M493.4214275309073,410.12077612775266 L492.8372184535745,410.1390080934367 M492.8372184535745,410.1390080934367 L492.2609717013051,410.0845787470753 M492.2609717013051,410.0845787470753 L491.72621680647643,409.9606593395082 M491.72621680647643,409.9606593395082 L491.26405834832127,409.7744668292501 M491.26405834832127,409.7744668292501 L490.9013656714215,409.536843444636 M490.9013656714215,409.536843444636 L490.6592065477836,409.26161840376557 M490.6592065477836,409.26161840376557 L490.5516286679386,408.96480354879986 M490.5516286679386,408.96480354879986 L490.5848445094952,408.66365589696795 M490.5848445094952,408.66365589696795 L490.7568836599417,408.3756743929088 M490.7568836599417,408.3756743929088 L491.0577139059231,408.11758320254654 M491.0577139059231,408.11758320254654 L491.4698332928167,407.9043631440159 M491.4698332928167,407.9043631440159 L491.9692902878493,407.7483849297832 M491.9692902878493,407.7483849297832 L492.52707676193495,407.65869455563967 M492.52707676193495,407.65869455563967 L493.11081031289973,407.6404925636821 M493.11081031289973,407.6404925636821 L493.6866073021691,407.69483388974146 M493.6866073021691,407.69483388974146 L494.22104338351267,407.8185685515008 M494.22104338351267,407.8185685515008 L494.6830845353248,408.0045206405387 M494.0093275296711,597.683514761725 L494.36246280732183,597.929065517007 M494.36246280732183,597.929065517007 L494.5984478405802,598.2135665215291 M494.5984478405802,598.2135665215291 L494.7035435986001,598.5204999461233 M494.7035435986001,598.5204999461233 L494.6716050695978,598.8320345692633 M494.6716050695978,598.8320345692633 L494.5044504079812,599.1300633709641 M494.5044504079812,599.1300633709641 L494.21176174196717,599.3972540081222 M494.21176174196717,599.3972540081222 L493.8105304895674,599.6180592648294 M493.8105304895674,599.6180592648294 L493.3240750753365,599.7796251722082 M493.3240750753365,599.7796251722082 L492.78068484027284,599.872543441402 M492.78068484027284,599.872543441402 L492.2119713953774,599.8914020106506 M492.2119713953774,599.8914020106506 L491.65102343503537,599.835101996692 M491.65102343503537,599.835101996692 L491.13047932208116,599.7069234363092 M491.13047932208116,599.7069234363092 L490.6806163436243,599.5143309027993 M490.6806163436243,599.5143309027993 L490.3275887395567,599.2685387425757 M490.3275887395567,599.2685387425757 L490.09190311115424,598.9838510174708 M490.09190311115424,598.9838510174708 L489.98723231193213,598.6768296491908 M489.98723231193213,598.6768296491908 L490.01962190718234,598.3653248637742 M490.01962190718234,598.3653248637742 L490.18715161582224,598.0674375040494 M490.18715161582224,598.0674375040494 L490.4800530710963,597.8004673361625 M490.4800530710963,597.8004673361625 L490.8812861069329,597.5799110691703 M490.8812861069329,597.5799110691703 L491.36753189018856,597.4185656310533 M491.36753189018856,597.4185656310533 L491.91054910437504,597.3257888039918 M491.91054910437504,597.3257888039918 L492.4788119128831,597.306960421684 M492.4788119128831,597.306960421684 L493.03933364956947,597.363171793556 M493.03933364956947,597.363171793556 L493.5595756878879,597.4911643317638 M493.5595756878879,597.4911643317638 L494.0093275296711,597.683514761725 M492.4835007112338,753.0009176805872 L492.62158714709415,753.1015991905017 M492.62158714709415,753.1015991905017 L492.71383009595843,753.2182391995931 M492.71383009595843,753.2182391995931 L492.75486405136377,753.3440621573538 M492.75486405136377,753.3440621573538 L492.7423005605865,753.4717560959145 M492.7423005605865,753.4717560959145 L492.67686055376197,753.5939005958057 M492.67686055376197,753.5939005958057 L492.56234535544786,753.7033941757821 M492.56234535544786,753.7033941757821 L492.405406012618,753.7938710588447 M492.405406012618,753.7938710588447 L492.21516393619083,753.860069246091 M492.21516393619083,753.860069246091 L492.00267698275206,753.8981393098237 M492.00267698275206,753.8981393098237 L491.78030064201835,753.9058650359557 M491.78030064201835,753.9058650359557 L491.56096261692556,753.8827989281529 M491.56096261692556,753.8827989281529 L491.3574169993558,753.830281655622 M491.3574169993558,753.830281655622 L491.1814960572085,753.7513683249988 M491.1814960572085,753.7513683249988 L491.04342662554444,753.6506484159294 M491.04342662554444,753.6506484159294 L490.9512295779532,753.533978528636 M490.9512295779532,753.533978528636 L490.91026053142855,753.4081414161353 M490.91026053142855,753.4081414161353 L490.9228930684256,753.2804522890068 M490.9228930684256,753.2804522890068 L490.98839044157745,753.1583304645272 M490.98839044157745,753.1583304645272 L491.1029381840907,753.048872229153 M491.1029381840907,753.048872229153 L491.25987779365903,752.9584352630196 M491.25987779365903,752.9584352630196 L491.45008779825565,752.8922724203875 M491.45008779825565,752.8922724203875 L491.6625176884173,752.8542250323809 M491.6625176884173,752.8542250323809 L491.88482504723027,752.8465041173172 M491.88482504723027,752.8465041173172 L492.1040979742689,752.8695560704849 M492.1040979742689,752.8695560704849 L492.3075972912537,752.9220434647038 M492.3075972912537,752.9220434647038 L492.4835007112338,753.0009176805872 M496.1536742246111,-6.0022662101690685 L496.53759881483234,-5.785444745897166 M496.53759881483234,-5.785444745897166 L496.7942510362417,-5.534226604545324 M496.7942510362417,-5.534226604545324 L496.9086862380537,-5.263196026234027 M496.9086862380537,-5.263196026234027 L496.87420999626687,-4.988097885281036 M496.87420999626687,-4.988097885281036 L496.69278101531506,-4.724921633756026 M496.69278101531506,-4.724921633756026 L496.3749051606637,-4.488973632690318 M496.3749051606637,-4.488973632690318 L495.9390342930428,-4.2939846025578845 M495.9390342930428,-4.2939846025578845 L495.41049995912954,-4.151307275670433 M495.41049995912954,-4.151307275670433 L494.8200402367209,-4.069251467704817 M494.8200402367209,-4.069251467704817 L494.2020079962411,-4.052597479145334 M494.2020079962411,-4.052597479145334 L493.59236501708233,-4.102315929742076 M493.59236501708233,-4.102315929742076 L493.0265863825635,-4.215509645558086 M493.0265863825635,-4.215509645558086 L492.5375828781699,-4.385585485356273 M492.5375828781699,-4.385585485356273 L492.15378520530675,-4.602638629042303 M492.15378520530675,-4.602638629042303 L491.8974864827393,-4.854035921110949 M491.8974864827393,-4.854035921110949 L491.7835530016958,-5.125150917098381 M491.7835530016958,-5.125150917098381 L491.8185619721089,-5.400220412343174 M491.8185619721089,-5.400220412343174 L492.0004339601818,-5.6632609358596255 M492.0004339601818,-5.6632609358596255 L492.31856126524326,-5.898997374161013 M492.31856126524326,-5.898997374161013 L492.75443442158803,-6.0937474732494366 M492.75443442158803,-6.0937474732494366 L493.28272135818526,-6.236213237375978 M493.28272135818526,-6.236213237375978 L493.87274067366394,-6.3181333171767164 M493.87274067366394,-6.3181333171767164 L494.4902407371583,-6.334758351652226 M494.4902407371583,-6.334758351652226 L495.0993803723254,-6.285124935451222 M495.0993803723254,-6.285124935451222 L495.66480208182156,-6.1721097536370735 M495.66480208182156,-6.1721097536370735 L496.1536742246111,-6.0022662101690685 M496.1536742246111,-6.0022662101690685 L496.14703707505794,-4.133747084542392 M495.40083846213787,205.93932247262057 L495.7739502869199,206.16713911542064 M495.7739502869199,206.16713911542064 L496.0233428247099,206.4310953945565 M496.0233428247099,206.4310953945565 L496.1344949607303,206.7158671185041 M496.1344949607303,206.7158671185041 L496.1009054630783,207.0049109398415 M496.1009054630783,207.0049109398415 L495.924484001953,207.28142691710937 M495.924484001953,207.28142691710937 L495.6154475276613,207.52933319008199 M495.6154475276613,207.52933319008199 L495.19173539451845,207.73420367262608 M495.19173539451845,207.73420367262608 L494.677972530937,207.8841109118974 M494.677972530937,207.8841109118974 L494.1040373747931,207.97032454041985 M494.1040373747931,207.97032454041985 L493.5033203749777,207.98782237880752 M493.5033203749777,207.98782237880752 L492.91077453892666,207.93558469903957 M492.91077453892666,207.93558469903957 L492.3608788961282,207.81665526107372 M492.3608788961282,207.81665526107372 L491.8856194991726,207.63796084149408 M491.8856194991726,207.63796084149408 L491.5126276585808,207.40990760217423 M491.5126276585808,207.40990760217423 L491.26356911905896,207.14576835397693 M491.26356911905896,207.14576835397693 L491.15289102941176,206.86091042646203 M491.15289102941176,206.86091042646203 L491.18698381137284,206.57189585538677 M491.18698381137284,206.57189585538677 L491.3638237737826,206.29551849210247 M491.3638237737826,206.29551849210247 L491.6730977548918,206.04782828033734 M491.6730977548918,206.04782828033734 L492.0968119897594,205.84320180920875 M492.0968119897594,205.84320180920875 L492.6103410684619,205.69351063113928 M492.6103410684619,205.69351063113928 L493.18386011106725,205.60743561675778 M493.18386011106725,205.60743561675778 L493.7840743331456,205.58996735263958 M493.7840743331456,205.58996735263958 L494.37614463222616,205.64211818085738 M494.37614463222616,205.64211818085738 L494.925703130508,205.76086529774412 M494.925703130508,205.76086529774412 L495.40083846213787,205.93932247262057 M495.40083846213787,205.93932247262057 L495.39456779265987,207.70466853812107 M494.6890182610279,406.3340324477343 L495.0519096743025,406.57134066011037 M495.0519096743025,406.57134066011037 L495.29444188933405,406.8462928996036 M495.29444188933405,406.8462928996036 L495.40249398600537,407.1429261518662 M495.40249398600537,407.1429261518662 L495.3697470957541,407.4440077825969 M495.3697470957541,407.4440077825969 L495.1980642175029,407.7320382535202 M495.1980642175029,407.7320382535202 L494.8973888462969,407.9902663699817 M494.8973888462969,407.9902663699817 L494.48517552836483,408.20366592435994 M494.48517552836483,408.20366592435994 L493.98538092484665,408.3598134980796 M493.98538092484665,408.3598134980796 L493.427070607473,408.4496158209932 M493.427070607473,408.4496158209932 L492.84272505964447,408.4678419992774 M492.84272505964447,408.4678419992774 L492.2663435669832,408.41342993065535 M492.2663435669832,408.41342993065535 L491.7314635108666,408.2895498610558 M491.7314635108666,408.2895498610558 L491.26919675706404,408.1034164616835 M491.26919675706404,408.1034164616835 L490.9064189486924,407.86586852356663 M490.9064189486924,407.86586852356663 L490.66420280057963,407.59073087875885 M490.66420280057963,407.59073087875885 L490.5565993049987,407.294010288647 M490.5565993049987,407.294010288647 L490.5898224100764,406.992958291581 M490.5898224100764,406.992958291581 L490.76190126230784,406.70506827333526 M490.76190126230784,406.70506827333526 L491.0628013251769,406.4470590841005 M491.0628013251769,406.4470590841005 L491.4750165776637,406.2339067779117 M491.4750165776637,406.2339067779117 L491.974589915417,406.0779781314115 M491.974589915417,406.0779781314115 L492.53250645663826,405.98831626133284 M492.53250645663826,405.98831626133284 L493.1163762559225,405.9701200542138 M493.1163762559225,405.9701200542138 L493.692307775458,406.02444411001846 M493.692307775458,406.02444411001846 L494.2268688686567,406.148139449275 M494.2268688686567,406.148139449275 L494.6890182610279,406.3340324477343 M494.6890182610279,406.3340324477343 L494.6830845353248,408.0045206405387 M494.0149507572192,596.1004393560848 L494.3681667376285,596.3459252077313 M494.3681667376285,596.3459252077313 L494.60420592315785,596.6303510239816 M494.60420592315785,596.6303510239816 L494.7093261244783,596.9372033446448 M494.7093261244783,596.9372033446448 L494.6773808925545,597.2486556616294 M494.6773808925545,597.2486556616294 L494.51018875392407,597.5466057381745 M494.51018875392407,597.5466057381745 L494.2174340001678,597.8137258068213 M494.2174340001678,597.8137258068213 L493.81611188167,598.0344727535999 M493.81611188167,598.0344727535999 L493.32954610378636,598.1959959992494 M493.32954610378636,598.1959959992494 L492.78603242965926,598.2888897348978 M492.78603242965926,598.2888897348978 L492.217189658578,598.3077433249994 M492.217189658578,598.3077433249994 L491.6561140181146,598.2514581758408 M491.6561140181146,598.2514581758408 L491.1354513083709,598.123313459901 M491.1354513083709,598.123313459901 L490.68548572050435,597.9307717831467 M490.68548572050435,597.9307717831467 L490.3323774621072,597.6850445353876 M490.3323774621072,597.6850445353876 L490.0966378174389,597.4004320055242 M490.0966378174389,597.4004320055242 L489.9919427678911,597.0934917443411 M489.9919427678911,597.0934917443411 L490.02433927132097,596.7820692640184 M490.02433927132097,596.7820692640184 L490.1919066277698,596.4842606242299 M490.1919066277698,596.4842606242299 L490.4848742679179,596.2173610167187 M490.4848742679179,596.2173610167187 L490.88619817106945,595.996863050467 M490.88619817106945,595.996863050467 L491.3725542230006,595.8355602659435 M491.3725542230006,595.8355602659435 L491.9156947068378,595.7428079672079 M491.9156947068378,595.7428079672079 L492.4840866365668,595.7239845628937 M492.4840866365668,595.7239845628937 L493.0447358595368,595.7801810733158 M493.0447358595368,595.7801810733158 L493.5650963568181,595.9081397738659 M493.5650963568181,595.9081397738659 L494.0149507572192,596.1004393560848 M494.0149507572192,596.1004393560848 L494.0093275296711,597.683514761725 M492.4396046618154,765.8773069656016 L492.4835007112338,753.0009176805872 M492.4396046618154,765.8773069656016 L492.26403488801736,765.7982816365133 M492.26403488801736,765.7982816365133 L492.0609210457949,765.7456936790942 M492.0609210457949,765.7456936790942 L491.84206303543186,765.7225975585695 M491.84206303543186,765.7225975585695 L491.62017594016737,765.7303332669109 M491.62017594016737,765.7303332669109 L491.40814726207424,765.7684535527569 M491.40814726207424,765.7684535527569 L491.2182961164014,765.8347431578638 M491.2182961164014,765.8347431578638 L491.06165216935887,765.9253533857157 M491.06165216935887,765.9253533857157 L490.94731970871874,766.0350213120192 M490.94731970871874,766.0350213120192 L490.8819447174419,766.1573770714016 M490.8819447174419,766.1573770714016 L490.86933452554285,766.2853107801812 M490.86933452554285,766.2853107801812 L490.91022456571517,766.411388908995 M490.91022456571517,766.411388908995 L491.0022458226378,766.5282822387015 M491.0022458226378,766.5282822387015 L491.14005288344384,766.6291950310117 M491.14005288344384,766.6291950310117 L491.3156401138848,766.7082594763235 M491.3156401138848,766.7082594763235 L491.51880008135487,766.76087731267 M491.51880008135487,766.76087731267 L491.7377229436008,766.7839875881211 M491.7377229436008,766.7839875881211 L491.9596787601772,766.7762470686125 M491.9596787601772,766.7762470686125 L492.17176428620184,766.7381041065734 M492.17176428620184,766.7381041065734 L492.36164738295673,766.6717791561242 M492.36164738295673,766.6717791561242 L492.51829106477135,766.5811290105212 M492.51829106477135,766.5811290105212 L492.63259110463565,766.4714257388875 M492.63259110463565,766.4714257388875 L492.69790894664703,766.3490473036264 M492.69790894664703,766.3490473036264 L492.7104503532993,766.2211087833155 M492.7104503532993,766.2211087833155 L492.6694956493463,766.0950448095331 M492.6694956493463,766.0950448095331 L492.57742866422655,765.978181358644 M492.57742866422655,765.978181358644 L492.4396046618154,765.8773069656016" stroke="black"  stroke-width="4"  fill="red"/></svg>