<svg viewBox="0 0 800 800" xmlns="http://www.w3.org/2000/svg"><path d="M577.9359923980311,548.8690606253552 L577.9360036659749,548.8688481997398 M577.9347204961681,548.8696841816694 L577.9347317640921,548.8694717560358 M577.9359923980311,548.8690606253552 L577.9347204961681,548.8696841816694 M577.9360036659749,548.8688481997398 L577.9347317640921,548.8694717560358 M565.1928003430872,555.1164749105279 L565.1928114161911,555.1162623010446 M577.9347204961681,548.8696841816694 L565.1928003430872,555.1164749105279 M577.9347317640921,548.8694717560358 L565.1928114161911,555.1162623010446 M-144.87038899998333,250.3366579615905 L-144.87038958983499,250.33645464582048 M565.1928003430872,555.1164749105279 L-144.87038899998333,250.3366579615905 M565.1928114161911,555.1162623010446 L-144.87038958983499,250.33645464582048 M-132.06986329511187,244.88372823294515 L-132.06986368734943,244.88352508947207 M-144.87038899998333,250.3366579615905 L-132.06986329511187,244.88372823294515 M-144.87038958983499,250.33645464582048 L-132.06986368734943,244.88352508947207 M-108.74523456795913,254.87004730299157 L-108.74523460154364,254.86984384414166 M-132.06986329511187,244.88372823294515 L-108.74523456795913,254.87004730299157 M-132.06986368734943,244.88352508947207 L-108.74523460154364,254.86984384414166 M-107.78098703591075,255.28397888263237 L-107.78098705463276,255.2837754107253 M-108.74523456795913,254.87004730299157 L-108.42412205483924,255.0081374647508 M-108.42412205483924,255.0081374647508 L-108.10270621169695,255.14611536123414 M-108.10270621169695,255.14611536123414 L-107.78098703591075,255.28397888263237 M-108.74523460154364,254.86984384414166 L-108.42412208347463,255.00793400154487 M-108.42412208347463,255.00793400154487 L-108.1027062353781,255.14591189367582 M-108.1027062353781,255.14591189367582 L-107.78098705463276,255.2837754107253 M410.86496452559413,311.5082815023069 L410.86497260630176,311.50807626819676 M-107.78098703591075,255.28397888263237 L-93.99712956888561,260.9706806000539 M-93.99712956888561,260.9706806000539 L-79.69505522544415,266.4488905543184 M-79.69505522544415,266.4488905543184 L-64.89472814869129,271.7094206089986 M-64.89472814869129,271.7094206089986 L-49.61709983737666,276.7433877406596 M-49.61709983737666,276.7433877406596 L-33.88408422901972,281.5422379463329 M-33.88408422901972,281.5422379463329 L-17.718537889322988,286.0977606301707 M-17.718537889322988,286.0977606301707 L-1.1441857969469993,290.40212719842555 M-1.1441857969469993,290.40212719842555 L15.814382919007926,294.44789274592756 M15.814382919007926,294.44789274592756 L33.131758625258044,298.22801961266816 M33.131758625258044,298.22801961266816 L50.78180365566777,301.7359149001596 M50.78180365566777,301.7359149001596 L68.73761935357038,304.96541126436057 M68.73761935357038,304.96541126436057 L86.9717106319572,307.91083441211083 M86.9717106319572,307.91083441211083 L105.45591679946938,310.5669656390045 M105.45591679946938,310.5669656390045 L124.16156695475661,312.9290966768234 M124.16156695475661,312.9290966768234 L143.05947308701548,314.9930169098103 M143.05947308701548,314.9930169098103 L162.12004724315898,316.75505050173103 M162.12004724315898,316.75505050173103 L181.3133278623652,318.2120459291931 M181.3133278623652,318.2120459291931 L200.60905109534121,319.3613978380894 M200.60905109534121,319.3613978380894 L219.97669333642148,320.2010282127018 M219.97669333642148,320.2010282127018 L239.38559848720286,320.7294353444594 M239.38559848720286,320.7294353444594 L258.80498488474814,320.94567194036165 M258.80498488474814,320.94567194036165 L278.2040555477852,320.84934689362296 M278.2040555477852,320.84934689362296 L297.5520246355702,320.44062816502185 M297.5520246355702,320.44062816502185 L316.8182501388593,319.72026826658214 M316.8182501388593,319.72026826658214 L335.97220467785655,318.68954051434855 M335.97220467785655,318.68954051434855 L354.983626500264,317.350307575785 M354.983626500264,317.350307575785 L373.82254443608804,315.70496641965394 M373.82254443608804,315.70496641965394 L392.4593876170086,313.75646107766227 M392.4593876170086,313.75646107766227 L410.86496452559413,311.5082815023069 M-107.78098705463276,255.2837754107253 L-93.99712937484878,260.9704769488893 M-93.99712937484878,260.9704769488893 L-79.69505481010049,266.44868673068606 M-79.69505481010049,266.44868673068606 L-64.8947275038044,271.7092166199533 M-64.8947275038044,271.7092166199533 L-49.61709895504299,276.74318359350957 M-49.61709895504299,276.74318359350957 L-33.88408310168933,281.5420336486294 M-33.88408310168933,281.5420336486294 L-17.718536509819387,286.0975561897004 M-17.718536509819387,286.0975561897004 L-1.1441841584863255,290.401922623195 M-1.1441841584863255,290.401922623195 L15.814384822797933,294.4476880441531 M15.814384822797933,294.4476880441531 L33.13176080032065,298.2278147927635 M33.13176080032065,298.2278147927635 L50.7818061075003,301.73570997072295 M50.7818061075003,301.73570997072295 L68.73762208720825,304.96520623416257 M68.73762208720825,304.96520623416257 L86.97171365195993,307.9106292900791 M86.97171365195993,307.9106292900791 L105.45592010990629,310.56676043421214 M105.45592010990629,310.56676043421214 L124.16157055919541,312.92889139847273 M124.16157055919541,312.92889139847273 L143.05947698851082,314.9928115672209 M143.05947698851082,314.9928115672209 L162.12005144424336,316.75484510432204 M162.12005144424336,316.75484510432204 L181.3133323650411,318.2118404864717 M181.3133323650411,318.2118404864717 L200.60905590107393,319.36119235963395 M200.60905590107393,319.36119235963395 L219.9766984461346,320.2008227081475 M219.9766984461346,320.2008227081475 L239.38560390127464,320.7292298234835 M239.38560390127464,320.7292298234835 L258.8049906030102,320.9454664126657 M258.8049906030102,320.9454664126657 L278.20406156952106,320.84914136892064 M278.20406156952106,320.84914136892064 L297.552030959518,320.4404226530213 M297.552030959518,320.4404226530213 L316.8182567632141,319.72006277697153 M316.8182567632141,319.72006277697153 L335.97221160027436,318.68933505678103 M335.97221160027436,318.68933505678103 L354.9836337178691,317.3501021598614 M354.9836337178691,317.3501021598614 L373.82255194547906,315.7047610549117 M373.82255194547906,315.7047610549117 L392.4593954142689,313.75625577355675 M392.4593954142689,313.75625577355675 L410.86497260630176,311.50807626819676 M412.343106550348,311.113915447297 L412.3431146534117,311.11371022546894 M410.86496452559413,311.5082815023069 L410.81672653606495,311.4143506508402 M410.81672653606495,311.4143506508402 L410.8210327746409,311.31931005300873 M410.8210327746409,311.31931005300873 L410.87765290489517,311.22860850898826 M410.87765290489517,311.22860850898826 L410.9832467374505,311.14745406648365 M410.9832467374505,311.14745406648365 L411.13182967188163,311.08056580372556 M411.13182967188163,311.08056580372556 L411.31476217331704,311.031745855027 M411.31476217331704,311.031745855027 L411.5215963108901,311.00385412410867 M411.5215963108901,311.00385412410867 L411.7403094869734,310.99844885731443 M411.7403094869734,310.99844885731443 L411.9583806156254,311.01587253840296 M411.9583806156254,311.01587253840296 L412.1632471483839,311.0551148755068 M412.1632471483839,311.0551148755068 L412.343106550348,311.113915447297 M410.86497260630176,311.50807626819676 L410.81673461584637,311.41414541965526 M410.81673461584637,311.41414541965526 L410.8210408543148,311.3191048247835 M410.8210408543148,311.3191048247835 L410.87766098528607,311.2284032835877 M410.87766098528607,311.2284032835877 L410.983254819341,311.147248843611 M410.983254819341,311.147248843611 L411.1318377559692,311.0803605829366 M411.1318377559692,311.0803605829366 L411.31477026017126,311.03154063575755 M411.31477026017126,311.03154063575755 L411.5216044009227,311.0036489057078 M411.5216044009227,311.0036489057078 L411.7403175804111,310.9982436390827 M411.7403175804111,310.9982436390827 L411.9583887125003,311.0156673196283 M411.9583887125003,311.0156673196283 L412.1632552485304,311.0549096555102 M412.1632552485304,311.0549096555102 L412.3431146534117,311.11371022546894 M412.59273987218603,311.28101395941496 L412.5927479794565,311.28080873238207 M412.343106550348,311.113915447297 L412.4465894554032,311.1638509113146 M412.4465894554032,311.1638509113146 L412.53056651232714,311.2200671474494 M412.53056651232714,311.2200671474494 L412.59273987218603,311.28101395941496 M412.3431146534117,311.11371022546894 L412.44659756017495,311.16364568793085 M412.44659756017495,311.16364568793085 L412.53057461851415,311.2198619223151 M412.53057461851415,311.2198619223151 L412.5927479794565,311.28080873238207 M944.870372954589,368.97762675808156 L944.8703895898351,368.97741974599364 M412.59273987218603,311.28101395941496 L430.9776453801519,309.03536762840156 M430.9776453801519,309.03536762840156 L449.5608885215619,307.0927768508967 M449.5608885215619,307.0927768508967 L468.3205515274001,305.45511399172335 M468.3205515274001,305.45511399172335 L487.2345742561521,304.12392648117464 M487.2345742561521,304.12392648117464 L506.2808189331797,303.10050916096327 M506.2808189331797,303.10050916096327 L525.4370325395524,302.38580504873096 M525.4370325395524,302.38580504873096 L544.680915409958,301.9805103068867 M544.680915409958,301.9805103068867 L563.9900871298527,301.8850076995276 M563.9900871298527,301.8850076995276 L583.3421637312405,302.0993931992281 M583.3421637312405,302.0993931992281 L602.7146721304877,302.62346769476915 M602.7146721304877,302.62346769476915 L622.0850613748368,303.45671939501915 M622.0850613748368,303.45671939501915 L641.4308404921882,304.59835666133984 M641.4308404921882,304.59835666133984 L660.7294929857259,306.04729744073404 M660.7294929857259,306.04729744073404 L679.9584518933915,307.8021664845129 M679.9584518933915,307.8021664845129 L699.0952693652158,309.8612747001688 M699.0952693652158,309.8612747001688 L718.1173796744744,312.22264050652245 M718.1173796744744,312.22264050652245 L737.0024343460738,314.884002021486 M737.0024343460738,314.884002021486 L755.7279384648683,317.84278570783397 M755.7279384648683,317.84278570783397 L774.2716594510865,321.09608271868285 M774.2716594510865,321.09608271868285 L792.6112301768677,324.6407450257792 M792.6112301768677,324.6407450257792 L810.7245650810179,328.4732832831488 M810.7245650810179,328.4732832831488 L828.5895734913939,332.589910147355 M828.5895734913939,332.589910147355 L846.1843790638753,336.986531493047 M846.1843790638753,336.986531493047 L863.4871872012876,341.6587543931922 M863.4871872012876,341.6587543931922 L880.4762969048635,346.6018250890255 M880.4762969048635,346.6018250890255 L897.1303554781622,351.81075764513537 M897.1303554781622,351.81075764513537 L913.4280758620533,357.2801841088475 M913.4280758620533,357.2801841088475 L929.3483271723154,363.0044477020616 M929.3483271723154,363.0044477020616 L944.870372954589,368.97762675808156 M412.5927479794565,311.28080873238207 L430.9776537702288,309.0351624713247 M430.9776537702288,309.0351624713247 L449.5608971978453,307.09257175436426 M449.5608971978453,307.09257175436426 L468.32056049300775,305.4549089462538 M468.32056049300775,305.4549089462538 L487.23458351391935,304.1237214772249 M487.23458351391935,304.1237214772249 L506.2808284856591,303.1003041889418 M506.2808284856591,303.1003041889418 L525.4370423890133,302.3856000990123 M525.4370423890133,302.3856000990123 L544.6809255583863,301.98030536981594 M544.6809255583863,301.98030536981594 L563.9900975789491,301.88480276543726 M563.9900975789491,301.88480276543726 L583.342174482421,302.0991882584475 M583.342174482421,302.0991882584475 L602.7146831848821,302.6232627376331 M602.7146831848821,302.6232627376331 L622.0850727332858,303.4565144118841 M622.0850727332858,303.4565144118841 L641.4308521552431,304.5981516425908 M641.4308521552431,304.5981516425908 L660.7295049536486,306.04709237679697 M660.7295049536486,306.04709237679697 L679.9584641661494,307.8019613658686 M679.9584641661494,307.8019613658686 L699.095281942483,309.8610695173601 M699.095281942483,309.8610695173601 L718.1173925556267,312.2224352501672 M718.1173925556267,312.2224352501672 L737.0024475301892,314.88379668228833 M737.0024475301892,314.88379668228833 L755.7279519507221,317.8425802765952 M755.7279519507221,317.8425802765952 L774.2716732371506,321.09587718631303 M774.2716732371506,321.09587718631303 L792.6112442613063,324.6405393833069 M792.6112442613063,324.6405393833069 L810.7245794616869,328.47307752173276 M810.7245794616869,328.47307752173276 L828.5895881658358,332.589704258295 M828.5895881658358,332.589704258295 L846.1843940293187,336.9863254677938 M846.1843940293187,336.9863254677938 L863.4872024546431,341.65854822336075 M863.4872024546431,341.65854822336075 L880.4763124427196,346.60161876640257 M880.4763124427196,346.60161876640257 L897.1303712967859,351.81055116169136 M897.1303712967859,351.81055116169136 L913.4280919573845,357.27997745674793 M913.4280919573845,357.27997745674793 L929.348343539964,363.00424087367605 M929.348343539964,363.00424087367605 L944.8703895898351,368.97741974599364 M944.870372954589,368.97762675808156 L577.9359923980311,548.8690606253552 M944.8703895898351,368.97741974599364 L577.9360036659749,548.8688481997398" stroke="black"  stroke-width="4"  fill="red"/></svg>