<svg viewBox="0 0 800 800" xmlns="http://www.w3.org/2000/svg"><path d="M-86.32843696107841,287.1236928302841 L-86.32843313747628,287.12317903505834 M886.328422209446,331.69414708643137 L886.3284369610785,331.69363280541165 M-86.32843696107841,287.1236928302841 L-51.59110384284838,273.2054247124729 M-51.59110384284838,273.2054247124729 L-15.580398745769003,260.47388090603897 M-15.580398745769003,260.47388090603897 L21.592170298167957,248.96585939795045 M21.592170298167957,248.96585939795045 L59.8119778826557,238.7144303323065 M59.8119778826557,238.7144303323065 L98.96182934297497,229.74903040115066 M98.96182934297497,229.74903040115066 L138.92209413014166,222.09530987211156 M138.92209413014166,222.09530987211156 L179.57108957633807,215.77510170314542 M179.57108957633807,215.77510170314542 L220.78545329630242,210.80642657149167 M220.78545329630242,210.80642657149167 L262.44034557701,207.20342734999133 M262.44034557701,207.20342734999133 L304.40982445519717,204.97631170258728 M304.40982445519717,204.97631170258728 L346.5671447786631,204.13145023493678 M346.5671447786631,204.13145023493678 L388.7851315200123,204.67122092354032 M388.7851315200123,204.67122092354032 L430.9363711984281,206.59407282849486 M430.9363711984281,206.59407282849486 L472.8936405934726,209.89456259145607 M472.8936405934726,209.89456259145607 L514.5301114865617,214.5632750486767 M514.5301114865617,214.5632750486767 L555.7198917367227,220.58702249217333 M555.7198917367227,220.58702249217333 L596.3380072922366,227.948563354945 M596.3380072922366,227.948563354945 L636.2610267831851,236.62694539569623 M636.2610267831851,236.62694539569623 L675.3671953658431,246.59732933792804 M675.3671953658431,246.59732933792804 L713.5367252571411,257.8311222637035 M713.5367252571411,257.8311222637035 L750.652294070788,270.29598696081894 M750.652294070788,270.29598696081894 L786.5992555711532,283.95602463574767 M786.5992555711532,283.95602463574767 L821.2659151441985,298.7716759792536 M821.2659151441985,298.7716759792536 L854.5438986936867,314.6998959516534 M854.5438986936867,314.6998959516534 L886.328422209446,331.69414708643137 M-86.32843313747628,287.12317903505834 L-51.59109963249864,273.2049110693415 M-51.59109963249864,273.2049110693415 L-15.58039413464985,260.4733674021977 M-15.58039413464985,260.4733674021977 L21.59217532287721,248.96534602014788 M21.59217532287721,248.96534602014788 L59.811983332547925,238.7139170668878 M59.811983332547925,238.7139170668878 L98.9618352283951,229.74851723410052 M98.9618352283951,229.74851723410052 L138.92210046016487,222.09479678909952 M138.92210046016487,222.09479678909952 L179.57109635875372,215.77458868957217 M179.57109635875372,215.77458868957217 L220.78546053760033,210.80591361253516 M220.78546053760033,210.80591361253516 L262.44035328236623,207.20291443065491 M262.44035328236623,207.20291443065491 L304.40983262846544,204.97579880774742 M304.40983262846544,204.97579880774742 L346.567153422367,204.1309373493907 M346.567153422367,204.1309373493907 L388.78514063534044,204.6707080320565 M388.78514063534044,204.6707080320565 L430.93638078522986,206.59355991586028 M430.93638078522986,206.59355991586028 L472.8936506502587,209.8940496425256 M472.8936506502587,209.8940496425256 L514.5301220105046,214.56276204842197 M514.5301220105046,214.56276204842197 L555.719902723662,220.586509425729 M555.719902723662,220.586509425729 L596.3380187366829,227.9480502076591 M596.3380187366829,227.9480502076591 L636.2610386783315,236.6264321531745 M636.2610386783315,236.6264321531745 L675.3672077035742,246.5968159860821 M675.3672077035742,246.5968159860821 L713.5367380280466,257.83060878879496 M713.5367380280466,257.83060878879496 L750.6523072641803,270.29547334950473 M750.6523072641803,270.29547334950473 L786.5992691750853,283.9555108751207 M786.5992691750853,283.9555108751207 L821.2659291454879,298.77116205688617 M821.2659291454879,298.77116205688617 L854.5439130779375,314.6993818556356 M854.5439130779375,314.6993818556356 L886.3284369610785,331.69363280541165 M448.4342301693673,595.8690626506092 L448.4342401161384,595.8685455295885 M886.328422209446,331.69414708643137 L448.4342301693673,595.8690626506092 M886.3284369610785,331.69363280541165 L448.4342401161384,595.8685455295885 M448.4342301693673,595.8690626506092 L-86.32843696107841,287.1236928302841 M448.4342401161384,595.8685455295885 L-86.32843313747628,287.12317903505834" stroke="black"  stroke-width="4"  fill="red"/></svg>