<svg viewBox="0 0 800 800" xmlns="http://www.w3.org/2000/svg"><path d="M-276.12991435312074,27.07103168447901 L-294.161692775726,35.96120108588934 M-294.1616923662723,31.706033665051905 L-294.161692775726,35.96120108588934 M-294.1616923662723,31.706033665051905 L-294.16179396458574,31.685582742486645 M-294.16179396458574,31.685582742486645 L-294.1618549247829,31.66509759161022 M-294.1618549247829,31.66509759161022 L-294.16187524518307,31.644592074278705 M-276.08935101102384,22.785307748826938 L-294.16187524518307,31.644592074278705 M-276.12991435312074,27.07103168447901 L-276.08935101102384,22.785307748826938 M1101.1317676093306,723.8796070776219 L1088.4833720261247,717.6435969657773 M1082.1534516315396,779.1471969475394 L1088.4833720261247,717.6435969657773 M1082.1534516315396,779.1471969475394 L447.22741854318406,451.99515819579324 M444.4372838927916,456.13433801694896 L447.22741854318406,451.99515819579324 M289.00373083488887,375.66361357317294 L444.4372838927916,456.13433801694896 M292.1136431065786,372.0712218189328 L289.00373083488887,375.66361357317294 M292.1136431065786,372.0712218189328 L-166.24362359278166,135.89801980359454 M-169.86033772528174,138.10149592345283 L-166.24362359278166,135.89801980359454 M-254.0878749802755,94.4953966760171 L-169.86033772528174,138.10149592345283 M-250.44916487448336,92.51026584663953 L-254.0878749802755,94.4953966760171 M-250.44916487448336,92.51026584663953 L-324.4253139492032,54.39330933899885 M-290.6777366202401,37.67888817686554 L-324.4253139492032,54.39330933899885 M-290.6777366202401,37.67888817686554 L-294.161692775726,35.96120108588934 M1104.1438608944306,691.735547918802 L-276.12991435312074,27.07103168447901 M1101.1317676093306,723.8796070776219 L1104.1438608944306,691.735547918802 M-283.1722527629495,32.24845432115495 L-283.22125433778024,32.229725091476496 M-283.22125433778024,32.229725091476496 L-283.2778833024222,32.217261911412265 M-283.2778833024222,32.217261911412265 L-283.3388485191075,32.21178796769942 M-283.3388485191075,32.21178796769942 L-283.400609532697,32.21362149762848 M-283.400609532697,32.21362149762848 L-283.459577935369,32.22265583002144 M-283.459577935369,32.22265583002144 L-283.51232904392873,32.23836666057002 M-283.51232904392873,32.23836666057002 L-283.55579724651454,32.25984138700784 M-283.55579724651454,32.25984138700784 L-283.58745681363064,32.28583308650809 M-283.58745681363064,32.28583308650809 L-283.6054663461209,32.31483162771593 M-283.6054663461209,32.31483162771593 L-283.60877823500243,32.345152656945174 M-283.60877823500243,32.345152656945174 L-283.59719781628996,32.3750337216602 M-283.59719781628996,32.3750337216602 L-283.57139730325275,32.40273841504052 M-283.57139730325275,32.40273841504052 L-283.53287399611156,32.42665537829657 M-283.53287399611156,32.42665537829657 L-283.4838671695363,32.44539451912806 M-283.4838671695363,32.44539451912806 L-283.4272244183958,32.457865274178914 M-283.4272244183958,32.457865274178914 L-283.36623986483676,32.46334280664695 M-283.36623986483676,32.46334280664695 L-283.30445839347317,32.46150805684829 M-283.30445839347317,32.46150805684829 L-283.24547309902755,32.452467975555294 M-283.24547309902755,32.452467975555294 L-283.1927125342031,32.43674818394038 M-283.1927125342031,32.43674818394038 L-283.1492444772922,32.415263337315764 M-283.1492444772922,32.415263337315764 L-283.11759462441967,32.389262676809494 M-283.11759462441967,32.389262676809494 L-283.09960214920693,32.36025838672424 M-283.09960214920693,32.36025838672424 L-283.0963107532175,32.329936137653704 M-283.0963107532175,32.329936137653704 L-283.10791040548816,32.300058661599905 M-283.10791040548816,32.300058661599905 L-283.13372448694633,32.272361543334796 M-283.13372448694633,32.272361543334796 L-283.1722527629495,32.24845432115495 M1096.4164033831175,704.2519150435411 L1096.2582149065856,704.1846001395977 M1096.2582149065856,704.1846001395977 L1096.1075601587859,704.1398686032315 M1096.1075601587859,704.1398686032315 L1095.9729232007512,704.1201855198127 M1095.9729232007512,704.1201855198127 L1095.8624012613684,704.1268310769262 M1095.8624012613684,704.1268310769262 L1095.7820901224961,704.1592618471417 M1095.7820901224961,704.1592618471417 L1095.7367071370961,704.2156229934552 M1095.7367071370961,704.2156229934552 L1095.7290886395858,704.2927387960765 M1095.7290886395858,704.2927387960765 L1095.7596830679536,704.3861343493694 M1095.7596830679536,704.3861343493694 L1095.8265239451678,704.490290073395 M1095.8265239451678,704.490290073395 L1095.925683009501,704.599132024617 M1095.925683009501,704.599132024617 L1096.0517265590015,704.7064911875891 M1096.0517265590015,704.7064911875891 L1096.1970523057116,704.8059909180272 M1096.1970523057116,704.8059909180272 L1096.353477778714,704.8919705622402 M1096.353477778714,704.8919705622402 L1096.511589002049,704.9592742444495 M1096.511589002049,704.9592742444495 L1096.662343230105,705.0040573213953 M1096.662343230105,705.0040573213953 L1096.7970733771247,705.023764869011 M1096.7970733771247,705.023764869011 L1096.9078210658872,705.0171891107897 M1096.9078210658872,705.0171891107897 L1096.987994513403,704.9846410404423 M1096.987994513403,704.9846410404423 L1097.0333524335958,704.9282189535435 M1097.0333524335958,704.9282189535435 L1097.040903615308,704.8510342557856 M1097.040903615308,704.8510342557856 L1097.0102150736855,704.7575776684937 M1097.0102150736855,704.7575776684937 L1096.943435395341,704.6534609574769 M1096.943435395341,704.6534609574769 L1096.8440343235345,704.5445325678112 M1096.8440343235345,704.5445325678112 L1096.7179453589772,704.4371978354219 M1096.7179453589772,704.4371978354219 L1096.5726208600452,704.3377496556877 M1096.5726208600452,704.3377496556877 L1096.4164033831175,704.2519150435411 M-290.669900525196,33.41787568810673 L-294.1616923662723,31.706033665051905 M-290.669900525196,33.41787568810673 L-290.6777366202401,37.67888817686554 M-290.6699700957522,33.35634966582995 L-290.66998755391774,33.376883426005065 M-290.66998755391774,33.376883426005065 L-290.6699643716802,33.39739672708657 M-290.6699643716802,33.39739672708657 L-290.669900525196,33.41787568810673 M-294.16187524518307,31.644592074278705 L-290.6699700957522,33.35634966582995 M1094.4866146241134,712.3702970429447 L1107.2163494680376,718.6105067064501 M1107.2163494680376,718.6105067064501 L1110.1051466045822,686.4470053749784 M1110.1051466045822,686.4470053749784 L-276.08935101102384,22.785307748826938 M-290.6699700957522,33.35634966582995 L-324.49589259469326,50.01390445934254 M-324.49589259469326,50.01390445934254 L-250.34218134905188,88.00766846371164 M-250.34218134905188,88.00766846371164 L-253.9895562926838,89.98662286047573 M-253.9895562926838,89.98662286047573 L-169.53897532634062,133.46302923504936 M-169.53897532634062,133.46302923504936 L-165.9137635416895,131.2658321827089 M-165.9137635416895,131.2658321827089 L294.044683938919,366.93242812023084 M294.044683938919,366.93242812023084 L290.93087594134806,370.51970957845697 M290.93087594134806,370.51970957845697 L447.0582089146287,450.8963665161982 M447.0582089146287,450.8963665161982 L449.84894187617806,446.76107199396574 M449.84894187617806,446.76107199396574 L1088.386300350046,773.9252462247651 M1094.4866146241134,712.3702970429447 L1088.386300350046,773.9252462247651 M-282.87639780879385,27.811503279983242 L-282.77984904499385,27.871045435912947 M-282.77984904499385,27.871045435912947 L-282.7151391950083,27.940032737932654 M-282.7151391950083,27.940032737932654 L-282.6860359109919,28.014460034857564 M-282.6860359109919,28.014460034857564 L-282.69424182298394,28.0900039051794 M-282.69424182298394,28.0900039051794 L-282.7392905255233,28.162273389190716 M-282.7392905255233,28.162273389190716 L-282.8185731703053,28.227065403561596 M-282.8185731703053,28.227065403561596 L-282.9274874601881,28.28060963660971 M-282.9274874601881,28.28060963660971 L-283.0597036425347,28.319788822315445 M-283.0597036425347,28.319788822315445 L-283.2075326091433,28.342321270549917 M-283.2075326091433,28.342321270549917 L-283.36237405002885,28.346894433846728 M-283.36237405002885,28.346894433846728 L-283.5152182036469,28.33324163697762 M-283.5152182036469,28.33324163697762 L-283.65717214337724,28.30215870542338 M-283.65717214337724,28.30215870542338 L-283.779978820343,28.255455955840205 M-283.779978820343,28.255455955840205 L-283.87649730884846,28.195852546339268 M-283.87649730884846,28.195852546339268 L-283.9411221487004,28.126817873372886 M-283.9411221487004,28.126817873372886 L-283.9701045033705,28.052368259451328 M-283.9701045033705,28.052368259451328 L-283.96177001756405,27.97683196154742 M-283.96177001756405,27.97683196154742 L-283.9166142220489,27.90459836433439 M-283.9166142220489,27.90459836433439 L-283.837270586193,27.83986228764593 M-283.837270586193,27.83986228764593 L-283.72835537963033,27.786381228516063 M-283.72835537963033,27.786381228516063 L-283.59619856500694,27.747257980490986 M-283.59619856500694,27.747257980490986 L-283.4484756499294,27.724761419095557 M-283.4484756499294,27.724761419095557 L-283.2937625618961,27.720195912898248 M-283.2937625618961,27.720195912898248 L-283.1410399877532,27.733826223058998 M-283.1410399877532,27.733826223058998 L-282.99917243042444,27.764861952987417 M-282.99917243042444,27.764861952987417 L-282.87639780879385,27.811503279983242 M1102.4429189037166,698.4901335354249 L1102.835957730674,698.7047190598828 M1102.835957730674,698.7047190598828 L1103.2019595693591,698.9534229645208 M1103.2019595693591,698.9534229645208 L1103.5196760642602,699.2218294704803 M1103.5196760642602,699.2218294704803 L1103.7704717846793,699.4942830218998 M1103.7704717846793,699.4942830218998 L1103.9397494520786,699.7549554447137 M1103.9397494520786,699.7549554447137 L1104.0177242100892,699.9887281070559 M1104.0177242100892,699.9887281070559 L1103.9997080649302,700.181931128178 M1103.9997080649302,700.181931128178 L1103.8867115457117,700.3232989711723 M1103.8867115457117,700.3232989711723 L1103.6853933885411,700.4046341765129 M1103.6853933885411,700.4046341765129 L1103.4073590606715,700.4211372408841 M1103.4073590606715,700.4211372408841 L1103.0687801964505,700.3718335029639 M1103.0687801964505,700.3718335029639 L1102.6895306168833,700.2596735340065 M1102.6895306168833,700.2596735340065 L1102.2916832859023,700.0911928944352 M1102.2916832859023,700.0911928944352 L1101.8981810907087,699.8761091197728 M1101.8981810907087,699.8761091197728 L1101.5321699545057,699.6270813751196 M1101.5321699545057,699.6270813751196 L1101.2147390253413,699.3585214259986 M1101.2147390253413,699.3585214259986 L1100.9644582875887,699.0861200339032 M1100.9644582875887,699.0861200339032 L1100.7958069860522,698.8256933745321 M1100.7958069860522,698.8256933745321 L1100.718426657896,698.5923038422723 M1100.718426657896,698.5923038422723 L1100.7368689491998,698.3995334852336 M1100.7368689491998,698.3995334852336 L1100.8500256784214,698.2585486943855 M1100.8500256784214,698.2585486943855 L1101.0512016550358,698.1774593168333 M1101.0512016550358,698.1774593168333 L1101.3288237338527,698.1610083983901 M1101.3288237338527,698.1610083983901 L1101.6668146951963,698.2101586181758 M1101.6668146951963,698.2101586181758 L1102.0454356844575,698.3219947825249 M1102.0454356844575,698.3219947825249 L1102.4429189037166,698.4901335354249 M1104.1438608944306,691.735547918802 L1110.1051466045822,686.4470053749784 M1107.1294697326036,718.6854433759956 L1094.4009010213767,712.4452951068762 M1107.1294697326036,718.6854433759956 L1101.1317676093306,723.8796070776219 M1094.4009010213767,712.4452951068762 L1088.4833720261247,717.6435969657773 M1094.4009010213767,712.4452951068762 L1094.4294509790836,712.4203805737006 M1094.4294509790836,712.4203805737006 L1094.458028619684,712.395375563626 M1094.458028619684,712.395375563626 L1094.4866146241134,712.3702970429447 M1082.1534516315396,779.1471969475394 L1088.386300350046,773.9252462247651 M447.22741854318406,451.99515819579324 L449.84894187617806,446.76107199396574 M444.4372838927916,456.13433801694896 L447.0582089146287,450.8963665161982 M289.00373083488887,375.66361357317294 L290.93087594134806,370.51970957845697 M292.1136431065786,372.0712218189328 L294.044683938919,366.93242812023084 M-166.24362359278166,135.89801980359454 L-165.9137635416895,131.2658321827089 M-169.86033772528174,138.10149592345283 L-169.53897532634062,133.46302923504936 M-254.0878749802755,94.4953966760171 L-253.9895562926838,89.98662286047573 M-250.44916487448336,92.51026584663953 L-250.34218134905188,88.00766846371164 M-324.4253139492032,54.39330933899885 L-324.49589259469326,50.01390445934254 M1107.2163494680376,718.6105067064501 L1107.1873752602658,718.6355653950774 M1107.1873752602658,718.6355653950774 L1107.158408821375,718.6605499359418 M1107.158408821375,718.6605499359418 L1107.1294697326036,718.6854433759956 M-283.1722527629495,32.24845432115495 L-283.14997808397993,28.39739447004024 M-283.14997808397993,28.39739447004024 L-283.11137100250767,28.421227283470728 M-283.11137100250767,28.421227283470728 L-283.0855037691076,28.44883820117434 M-283.0855037691076,28.44883820117434 L-283.0738797097995,28.4786226954609 M-283.0738797097995,28.4786226954609 L-283.0771768704658,28.508850583497292 M-283.0771768704658,28.508850583497292 L-283.09520495328684,28.53776461858888 M-283.09520495328684,28.53776461858888 L-283.126918194244,28.563684374587012 M-283.126918194244,28.563684374587012 L-283.17047373796004,28.5851023710037 M-283.17047373796004,28.5851023710037 L-283.22334080497217,28.60077325198199 M-283.22334080497217,28.60077325198199 L-283.28244542276457,28.60978520652418 M-283.28244542276457,28.60978520652418 L-283.344352099969,28.61161424784933 M-283.344352099969,28.61161424784933 L-283.405460456579,28.60615375773085 M-283.405460456579,28.60615375773085 L-283.4622184082302,28.5937218037771 M-283.4622184082302,28.5937218037771 L-283.5113251307796,28.575040968865892 M-283.5113251307796,28.575040968865892 L-283.5499272238642,28.551198424816675 M-283.5499272238642,28.551198424816675 L-283.5757808339997,28.523579940263517 M-283.5757808339997,28.523579940263517 L-283.5873855817981,28.493791861231557 M-283.5873855817981,28.493791861231557 L-283.58406784503677,28.463565191705413 M-283.58406784503677,28.463565191705413 L-283.566022635545,28.434656899218226 M-283.566022635545,28.434656899218226 L-283.53429964065776,28.408746094448077 M-283.53429964065776,28.408746094448077 L-283.4907439503793,28.387338207175503 M-283.4907439503793,28.387338207175503 L-283.43788637774605,28.371676277485562 M-283.43788637774605,28.371676277485562 L-283.3787987201117,28.362670065570285 M-283.3787987201117,28.362670065570285 L-283.3169125836706,28.360842242783804 M-283.3169125836706,28.360842242783804 L-283.2558236425152,28.36629914806275 M-283.2558236425152,28.36629914806275 L-283.19907953353527,28.378723535295478 M-283.19907953353527,28.378723535295478 L-283.14997808397993,28.39739447004024 M1096.4164033831175,704.2519150435411 L1101.7672219124493,699.5267301151268 M1101.7672219124493,699.5267301151268 L1101.924364570821,699.6126088836866 M1101.924364570821,699.6126088836866 L1102.0706238076782,699.7121082729996 M1102.0706238076782,699.7121082729996 L1102.197603339115,699.8194983361024 M1102.197603339115,699.8194983361024 L1102.297798348473,699.9284829417468 M1102.297798348473,699.9284829417468 L1102.3652282816613,700.0326534455397 M1102.3652282816613,700.0326534455397 L1102.3963879196986,700.1261583679258 M1102.3963879196986,700.1261583679258 L1102.3890991797707,700.2033830207074 M1102.3890991797707,700.2033830207074 L1102.343779730608,700.2598343351634 M1102.343779730608,700.2598343351634 L1102.2634205396703,700.2923992737751 M1102.2634205396703,700.2923992737751 L1102.1522713048587,700.2989784406252 M1102.1522713048587,700.2989784406252 L1102.0169480347429,700.2792606780495 M1102.0169480347429,700.2792606780495 L1101.8654443374392,700.2344543966269 M1101.8654443374392,700.2344543966269 L1101.706470345257,700.1671158612377 M1101.706470345257,700.1671158612377 L1101.5491181577725,700.081091728167 M1101.5491181577725,700.081091728167 L1101.4028574681597,699.9815405630438 M1101.4028574681597,699.9815405630438 L1101.2759236094562,699.8741259626777 M1101.2759236094562,699.8741259626777 L1101.1759721808746,699.7652278720607 M1101.1759721808746,699.7652278720607 L1101.1084810496968,699.6610184857675 M1101.1084810496968,699.6610184857675 L1101.077416482042,699.5675748638979 M1101.077416482042,699.5675748638979 L1101.0847733180137,699.4904194070967 M1101.0847733180137,699.4904194070967 L1101.1301182566328,699.4340292993352 M1101.1301182566328,699.4340292993352 L1101.2106160246578,699.4015818722029 M1101.2106160246578,699.4015818722029 L1101.3215381252317,699.3949329025368 M1101.3215381252317,699.3949329025368 L1101.4567673949468,699.4146260940877 M1101.4567673949468,699.4146260940877 L1101.6081706494501,699.4593806098687 M1101.6081706494501,699.4593806098687 L1101.7672219124493,699.5267301151268 M-282.87639780879385,27.811503279983242 L-282.8790805396484,28.26421502186929 M-282.8790805396484,28.26421502186929 L-282.78255494275277,28.323779127395596 M-282.78255494275277,28.323779127395596 L-282.71786072795203,28.39279185804179 M-282.71786072795203,28.39279185804179 L-282.6887646353754,28.46724658536732 M-282.6887646353754,28.46724658536732 L-282.69696887200075,28.54281829399673 M-282.69696887200075,28.54281829399673 L-282.74200712462107,28.615114406283908 M-282.74200712462107,28.615114406283908 L-282.82127114786044,28.679930290967206 M-282.82127114786044,28.679930290967206 L-282.9301597242676,28.733494248464126 M-282.9301597242676,28.733494248464126 L-283.0623445955507,28.77268786571244 M-283.0623445955507,28.77268786571244 L-283.2101384756156,28.795228613267625 M-283.2101384756156,28.795228613267625 L-283.3649430978736,28.799803460946862 M-283.3649430978736,28.799803460946862 L-283.517750845758,28.786145635455398 M-283.517750845758,28.786145635455398 L-283.6596709133171,28.755051254937655 M-283.6596709133171,28.755051254937655 L-283.78244822368765,28.70833130189186 M-283.78244822368765,28.70833130189186 L-283.8789435594322,28.648705934812085 M-283.8789435594322,28.648705934812085 L-283.9435528044012,28.57964582701038 M-283.9435528044012,28.57964582701038 L-283.9725280250169,28.50516877979277 M-283.9725280250169,28.50516877979277 L-283.9641952757627,28.42960464456047 M-283.9641952757627,28.42960464456047 L-283.9190499812148,28.35734442375997 M-283.9190499812148,28.35734442375997 L-283.8397249960965,28.292584484066936 M-283.8397249960965,28.292584484066936 L-283.73083550366346,28.239083708741532 M-283.73083550366346,28.239083708741532 L-283.5987099720661,28.19994603648189 M-283.5987099720661,28.19994603648189 L-283.4510220932269,28.177441180453968 M-283.4510220932269,28.177441180453968 L-283.29634576279284,28.172873990884852 M-283.29634576279284,28.172873990884852 L-283.14365953653487,28.18650932670994 M-283.14365953653487,28.18650932670994 L-283.00182581009676,28.217556499455554 M-283.00182581009676,28.217556499455554 L-282.8790805396484,28.26421502186929 M1102.4429189037166,698.4901335354249 L1101.812749609554,699.0468200547476 M1101.812749609554,699.0468200547476 L1102.205515683044,699.2613929995896 M1102.205515683044,699.2613929995896 L1102.571241744199,699.5100822878093 M1102.571241744199,699.5100822878093 L1102.8886954372717,699.7784729752299 M1102.8886954372717,699.7784729752299 L1103.1392567179844,700.0509104226807 M1103.1392567179844,700.0509104226807 L1103.308341959733,700.3115673936277 M1103.308341959733,700.3115673936277 L1103.3861774758116,700.5453261618369 M1103.3861774758116,700.5453261618369 L1103.368083495572,700.7385176737929 M1103.368083495572,700.7385176737929 L1103.2550751211809,700.8798770803998 M1103.2550751211809,700.8798770803998 L1103.0538117343108,700.9612074261445 M1103.0538117343108,700.9612074261445 L1102.7758956886282,700.9777095039806 M1102.7758956886282,700.9777095039806 L1102.4374917293242,700.928408712869 M1102.4374917293242,700.928408712869 L1102.058463363003,700.8162554417743 M1102.058463363003,700.8162554417743 L1101.660870650943,700.6477848483161 M1101.660870650943,700.6477848483161 L1101.267641776061,700.4327138723377 M1101.267641776061,700.4327138723377 L1100.9019065696536,700.1837009094255 M1100.9019065696536,700.1837009094255 L1100.5847382526963,699.915156857177 M1100.5847382526963,699.915156857177 L1100.3346914665842,699.6427715424229 M1100.3346914665842,699.6427715424229 L1100.166231916071,699.3823602094544 M1100.166231916071,699.3823602094544 L1100.0889901230219,699.1489843757366 M1100.0889901230219,699.1489843757366 L1100.1075096724899,698.9562253069862 M1100.1075096724899,698.9562253069862 L1100.220677942079,698.8152487569745 M1100.220677942079,698.8152487569745 L1100.4217991675312,698.7341641135208 M1100.4217991675312,698.7341641135208 L1100.699303313146,698.717714154992 M1100.699303313146,698.717714154992 L1101.0371199684973,698.7668615063413 M1101.0371199684973,698.7668615063413 L1101.4155204558194,698.8786911381324 M1101.4155204558194,698.8786911381324 L1101.812749609554,699.0468200547476" stroke="black"  stroke-width="4"  fill="red"/>
<path d="M1101.1317676093306,723.8796070776219 L1094.6759006861314,792.774474752333 M1101.1317676093306,723.8796070776219 L1088.4833720261247,717.6435969657773 M1081.4553718447949,785.9299710241334 L1088.4833720261247,717.6435969657773 M1094.6759006861314,792.774474752333 L1081.4553718447949,785.9299710241334 M1107.1294697326036,718.6854433759956 L1101.1317676093306,723.8796070776219 M1119.6731069361754,692.8459366362994 L1119.9414044241412,693.6762389260318 M1119.9414044241412,693.6762389260318 L1120.0887155370951,694.6434532749207 M1120.0887155370951,694.6434532749207 L1120.1131260437608,695.7377508139912 M1120.1131260437608,695.7377508139912 L1120.0140055661784,696.9479048850429 M1120.0140055661784,696.9479048850429 L1119.7920952194747,698.2613383646814 M1119.7920952194747,698.2613383646814 L1119.4494923615061,699.6642768992734 M1119.4494923615061,699.6642768992734 L1118.9896319108148,701.1419019749271 M1118.9896319108148,701.1419019749271 L1118.4172039743205,702.678560122428 M1118.4172039743205,702.678560122428 L1117.7381854543364,704.2578743514846 M1117.7381854543364,704.2578743514846 L1116.959788153815,705.8629224947575 M1116.959788153815,705.8629224947575 L1116.0902640896804,707.476532582591 M1116.0902640896804,707.476532582591 L1115.1389439872862,709.0813712031329 M1115.1389439872862,709.0813712031329 L1114.1160354007259,710.6602267258337 M1114.1160354007259,710.6602267258337 L1113.0325366400964,712.1961844365396 M1113.0325366400964,712.1961844365396 L1111.9001295588505,713.6728031335088 M1111.9001295588505,713.6728031335088 L1110.7309533124992,715.0743830682283 M1110.7309533124992,715.0743830682283 L1109.5375955352492,716.3860288559109 M1109.5375955352492,716.3860288559109 L1108.3328094230806,717.5939342426611 M1108.3328094230806,717.5939342426611 L1107.1294697326036,718.6854433759956 M1119.5833316461299,692.6455697388031 L1119.547439981806,692.6937925641083 M1119.547439981806,692.6937925641083 L1119.516245171132,692.7450309305685 M1119.516245171132,692.7450309305685 L1119.4915624318883,692.7963057747619 M1119.4915624318883,692.7963057747619 L1119.4748240077513,692.8446393150039 M1119.4748240077513,692.8446393150039 L1119.466991563666,692.8872329503799 M1119.466991563666,692.8872329503799 L1119.4685262498533,692.9216082433078 M1119.4685262498533,692.9216082433078 L1119.4793388429634,692.9457665531926 M1119.4793388429634,692.9457665531926 L1119.4987978920599,692.9583081673373 M1119.4987978920599,692.9583081673373 L1119.5257984771195,692.9584802096762 M1119.5257984771195,692.9584802096762 L1119.5587330885996,692.9463047984714 M1119.5587330885996,692.9463047984714 L1119.5957202726704,692.9224608472771 M1119.5957202726704,692.9224608472771 L1119.6345997810242,692.8883421377686 M1119.6345997810242,692.8883421377686 L1119.6731069361754,692.8459366362994 M1131.9510772381159,667.0664322600026 L1130.7424793586313,668.194064039737 M1130.7424793586313,668.194064039737 L1129.539081775799,669.4272124671129 M1129.539081775799,669.4272124671129 L1128.3528655407645,670.7533604317009 M1128.3528655407645,670.7533604317009 L1127.1956138495414,672.1591331667396 M1127.1956138495414,672.1591331667396 L1126.0788125917552,673.630414049406 M1126.0788125917552,673.630414049406 L1125.0134918408046,675.1525244557619 M1125.0134918408046,675.1525244557619 L1124.0102034316628,676.7102991326921 M1124.0102034316628,676.7102991326921 L1123.0788603270064,678.288280185903 M1123.0788603270064,678.288280185903 L1122.2287113035898,679.8707943096767 M1122.2287113035898,679.8707943096767 L1121.4681935535589,681.442159537558 M1121.4681935535589,681.442159537558 L1120.8049400020707,682.9867412815667 M1120.8049400020707,682.9867412815667 L1120.245604665734,684.4891918662305 M1120.245604665734,684.4891918662305 L1119.7959391059662,685.9344602676933 M1119.7959391059662,685.9344602676933 L1119.460570200093,687.3080739493086 M1119.460570200093,687.3080739493086 L1119.2430858933237,688.5961582433426 M1119.2430858933237,688.5961582433426 L1119.1459406674392,689.785613677268 M1119.1459406674392,689.785613677268 L1119.170395958507,690.8642641877814 M1119.170395958507,690.8642641877814 L1119.3165738317832,691.8209162986423 M1119.3165738317832,691.8209162986423 L1119.5833316461299,692.6455697388031 M1124.833645838598,761.5792037523603 L1131.9510772381159,667.0664322600026 M1109.9203533427046,773.8825559357691 L1124.833645838598,761.5792037523603 M1109.3393462841996,780.7439223781812 L1109.9203533427046,773.8825559357691 M1094.6759006861314,792.774474752333 L1109.3393462841996,780.7439223781812 M1107.1294697326036,718.6854433759956 L1094.4009010213767,712.4452951068762 M1094.4009010213767,712.4452951068762 L1088.4833720261247,717.6435969657773 M1081.4553718447949,785.9299710241334 L1095.9127692345949,773.8825395236415 M1096.5522930064926,767.0836857793965 L1095.9127692345949,773.8825395236415 M1096.5522930064926,767.0836857793965 L1111.255597445294,754.7650920337474 M1119.2055981070557,661.0929757811614 L1111.255597445294,754.7650920337474 M1119.2055981070557,661.0929757811614 L1118.0123774116666,662.2205173065778 M1118.0123774116666,662.2205173065778 L1116.8231211650316,663.4525628482327 M1116.8231211650316,663.4525628482327 L1115.6496737509917,664.776607825513 M1115.6496737509917,664.776607825513 L1114.50369540201,666.1792991025131 M1114.50369540201,666.1792991025131 L1113.3965636833332,667.6465506266306 M1113.3965636833332,667.6465506266306 L1112.3392165698876,669.1637230563656 M1112.3392165698876,669.1637230563656 L1111.342129645587,670.7156987215188 M1111.342129645587,670.7156987215188 L1110.4151569576925,672.287075301424 M1110.4151569576925,672.287075301424 L1109.5675053800312,673.8622426717909 M1109.5675053800312,673.8622426717909 L1108.8075882857872,675.4255891277585 M1108.8075882857872,675.4255891277585 L1108.1430320526395,676.9615569592132 M1108.1430320526395,676.9615569592132 L1107.5805027870676,678.4548813841691 M1107.5805027870676,678.4548813841691 L1107.1257809279218,679.8905996424899 M1107.1257809279218,679.8905996424899 L1106.7835410423406,681.2543322281032 M1106.7835410423406,681.2543322281032 L1106.5574354531732,682.5323014250879 M1106.5574354531732,682.5323014250879 L1106.4499999952177,683.711507860321 M1106.4499999952177,683.711507860321 L1106.4625942581708,684.779877889903 M1106.4625942581708,684.779877889903 L1106.5954534907196,685.726321771802 M1106.5954534907196,685.726321771802 L1106.8475639439407,686.5409433963321 M1106.9332185595313,686.7386543501708 L1106.8951327858738,686.780998498149 M1106.8951327858738,686.780998498149 L1106.8567699381456,686.8151366264199 M1106.8567699381456,686.8151366264199 L1106.8203646024253,686.8390796427597 M1106.8203646024253,686.8390796427597 L1106.7880430552784,686.8514279873447 M1106.7880430552784,686.8514279873447 L1106.7616515548482,686.8514927066882 M1106.7616515548482,686.8514927066882 L1106.7427616906668,686.8392378833091 M1106.7427616906668,686.8392378833091 L1106.7324456404585,686.8153997221137 M1106.7324456404585,686.8153997221137 L1106.7313059784142,686.7813593395304 M1106.7313059784142,686.7813593395304 L1106.739408964287,686.7390959028152 M1106.739408964287,686.7390959028152 L1106.7562778289337,686.6910686847496 M1106.7562778289337,686.6910686847496 L1106.7809431853875,686.6400584884302 M1106.7809431853875,686.6400584884302 L1106.811973770157,686.5890277214636 M1106.811973770157,686.5890277214636 L1106.8475639439407,686.5409433963321 M1094.4009010213767,712.4452951068762 L1095.5886447656221,711.3534462386135 M1095.5886447656221,711.3534462386135 L1096.779010544299,710.1462971934764 M1096.779010544299,710.1462971934764 L1097.9592818835442,708.8364976191473 M1097.9592818835442,708.8364976191473 L1099.1168493901826,707.4378350206582 M1099.1168493901826,707.4378350206582 L1100.239254312589,705.9651737314986 M1100.239254312589,705.9651737314986 L1101.3144679793013,704.434170415956 M1101.3144679793013,704.434170415956 L1102.3309009788861,702.8612117759151 M1102.3309009788861,702.8612117759151 L1103.2776270179504,701.2631472638859 M1103.2776270179504,701.2631472638859 L1104.1444894761478,699.6571133419242 M1104.1444894761478,699.6571133419242 L1104.9221872927224,698.0603593801346 M1104.9221872927224,698.0603593801346 L1105.6024752007827,696.4899654693166 M1105.6024752007827,696.4899654693166 L1106.1781269732526,694.962755365407 M1106.1781269732526,694.962755365407 L1106.6431287913,693.495002310825 M1106.6431287913,693.495002310825 L1106.9927318300506,692.1022520197523 M1106.9927318300506,692.1022520197523 L1107.2234225427508,690.7992126515807 M1107.2234225427508,690.7992126515807 L1107.333005404454,689.5995469092258 M1107.333005404454,689.5995469092258 L1107.3206228302756,688.5157202736198 M1107.3206228302756,688.5157202736198 L1107.1867717581729,687.5588490749552 M1107.1867717581729,687.5588490749552 L1106.9332185595313,686.7386543501708 M1095.9127692345949,773.8825395236415 L1109.3393462841996,780.7439223781812 M1119.6731069361754,692.8459366362994 L1106.9332185595313,686.7386543501708 M1119.5833316461299,692.6455697388031 L1106.8475639439407,686.5409433963321 M1131.9510772381159,667.0664322600026 L1119.2055981070557,661.0929757811614 M1124.833645838598,761.5792037523603 L1111.255597445294,754.7650920337474 M1109.9203533427046,773.8825559357691 L1096.5522930064926,767.0836857793965" stroke="black"  stroke-width="4"  fill="red"/>
<path d="M1096.4164033831175,704.2519150435411 L1101.7672219124493,699.5267301151268 M1101.7672219124493,699.5267301151268 L1101.924364570821,699.6126088836866 M1101.924364570821,699.6126088836866 L1102.0706238076782,699.7121082729996 M1102.0706238076782,699.7121082729996 L1102.197603339115,699.8194983361024 M1102.197603339115,699.8194983361024 L1102.297798348473,699.9284829417468 M1102.297798348473,699.9284829417468 L1102.3652282816613,700.0326534455397 M1102.3652282816613,700.0326534455397 L1102.3963879196986,700.1261583679258 M1102.3963879196986,700.1261583679258 L1102.3890991797707,700.2033830207074 M1102.3890991797707,700.2033830207074 L1102.343779730608,700.2598343351634 M1102.343779730608,700.2598343351634 L1102.2634205396703,700.2923992737751 M1102.2634205396703,700.2923992737751 L1102.1522713048587,700.2989784406252 M1102.1522713048587,700.2989784406252 L1102.0169480347429,700.2792606780495 M1102.0169480347429,700.2792606780495 L1101.8654443374392,700.2344543966269 M1101.8654443374392,700.2344543966269 L1101.706470345257,700.1671158612377 M1101.706470345257,700.1671158612377 L1101.5491181577725,700.081091728167 M1101.5491181577725,700.081091728167 L1101.4028574681597,699.9815405630438 M1101.4028574681597,699.9815405630438 L1101.2759236094562,699.8741259626777 M1101.2759236094562,699.8741259626777 L1101.1759721808746,699.7652278720607 M1101.1759721808746,699.7652278720607 L1101.1084810496968,699.6610184857675 M1101.1084810496968,699.6610184857675 L1101.077416482042,699.5675748638979 M1101.077416482042,699.5675748638979 L1101.0847733180137,699.4904194070967 M1101.0847733180137,699.4904194070967 L1101.1301182566328,699.4340292993352 M1101.1301182566328,699.4340292993352 L1101.2106160246578,699.4015818722029 M1101.2106160246578,699.4015818722029 L1101.3215381252317,699.3949329025368 M1101.3215381252317,699.3949329025368 L1101.4567673949468,699.4146260940877 M1101.4567673949468,699.4146260940877 L1101.6081706494501,699.4593806098687 M1101.6081706494501,699.4593806098687 L1101.7672219124493,699.5267301151268 M1096.4164033831175,704.2519150435411 L1096.2582149065856,704.1846001395977 M1096.2582149065856,704.1846001395977 L1096.1075601587859,704.1398686032315 M1096.1075601587859,704.1398686032315 L1095.9729232007512,704.1201855198127 M1095.9729232007512,704.1201855198127 L1095.8624012613684,704.1268310769262 M1095.8624012613684,704.1268310769262 L1095.7820901224961,704.1592618471417 M1095.7820901224961,704.1592618471417 L1095.7367071370961,704.2156229934552 M1095.7367071370961,704.2156229934552 L1095.7290886395858,704.2927387960765 M1095.7290886395858,704.2927387960765 L1095.7596830679536,704.3861343493694 M1095.7596830679536,704.3861343493694 L1095.8265239451678,704.490290073395 M1095.8265239451678,704.490290073395 L1095.925683009501,704.599132024617 M1095.925683009501,704.599132024617 L1096.0517265590015,704.7064911875891 M1096.0517265590015,704.7064911875891 L1096.1970523057116,704.8059909180272 M1096.1970523057116,704.8059909180272 L1096.353477778714,704.8919705622402 M1096.353477778714,704.8919705622402 L1096.511589002049,704.9592742444495 M1096.511589002049,704.9592742444495 L1096.662343230105,705.0040573213953 M1096.662343230105,705.0040573213953 L1096.7970733771247,705.023764869011 M1096.7970733771247,705.023764869011 L1096.9078210658872,705.0171891107897 M1096.9078210658872,705.0171891107897 L1096.987994513403,704.9846410404423 M1096.987994513403,704.9846410404423 L1097.0333524335958,704.9282189535435 M1097.0333524335958,704.9282189535435 L1097.040903615308,704.8510342557856 M1097.040903615308,704.8510342557856 L1097.0102150736855,704.7575776684937 M1097.0102150736855,704.7575776684937 L1096.943435395341,704.6534609574769 M1096.943435395341,704.6534609574769 L1096.8440343235345,704.5445325678112 M1096.8440343235345,704.5445325678112 L1096.7179453589772,704.4371978354219 M1096.7179453589772,704.4371978354219 L1096.5726208600452,704.3377496556877 M1096.5726208600452,704.3377496556877 L1096.4164033831175,704.2519150435411 M1101.812749609554,699.0468200547476 L1102.205515683044,699.2613929995896 M1102.205515683044,699.2613929995896 L1102.571241744199,699.5100822878093 M1102.571241744199,699.5100822878093 L1102.8886954372717,699.7784729752299 M1102.8886954372717,699.7784729752299 L1103.1392567179844,700.0509104226807 M1103.1392567179844,700.0509104226807 L1103.308341959733,700.3115673936277 M1103.308341959733,700.3115673936277 L1103.3861774758116,700.5453261618369 M1103.3861774758116,700.5453261618369 L1103.368083495572,700.7385176737929 M1103.368083495572,700.7385176737929 L1103.2550751211809,700.8798770803998 M1103.2550751211809,700.8798770803998 L1103.0538117343108,700.9612074261445 M1103.0538117343108,700.9612074261445 L1102.7758956886282,700.9777095039806 M1102.7758956886282,700.9777095039806 L1102.4374917293242,700.928408712869 M1102.4374917293242,700.928408712869 L1102.058463363003,700.8162554417743 M1102.058463363003,700.8162554417743 L1101.660870650943,700.6477848483161 M1101.660870650943,700.6477848483161 L1101.267641776061,700.4327138723377 M1101.267641776061,700.4327138723377 L1100.9019065696536,700.1837009094255 M1100.9019065696536,700.1837009094255 L1100.5847382526963,699.915156857177 M1100.5847382526963,699.915156857177 L1100.3346914665842,699.6427715424229 M1100.3346914665842,699.6427715424229 L1100.166231916071,699.3823602094544 M1100.166231916071,699.3823602094544 L1100.0889901230219,699.1489843757366 M1100.0889901230219,699.1489843757366 L1100.1075096724899,698.9562253069862 M1100.1075096724899,698.9562253069862 L1100.220677942079,698.8152487569745 M1100.220677942079,698.8152487569745 L1100.4217991675312,698.7341641135208 M1100.4217991675312,698.7341641135208 L1100.699303313146,698.717714154992 M1100.699303313146,698.717714154992 L1101.0371199684973,698.7668615063413 M1101.0371199684973,698.7668615063413 L1101.4155204558194,698.8786911381324 M1101.4155204558194,698.8786911381324 L1101.812749609554,699.0468200547476 M1102.4429189037166,698.4901335354249 L1102.835957730674,698.7047190598828 M1102.835957730674,698.7047190598828 L1103.2019595693591,698.9534229645208 M1103.2019595693591,698.9534229645208 L1103.5196760642602,699.2218294704803 M1103.5196760642602,699.2218294704803 L1103.7704717846793,699.4942830218998 M1103.7704717846793,699.4942830218998 L1103.9397494520786,699.7549554447137 M1103.9397494520786,699.7549554447137 L1104.0177242100892,699.9887281070559 M1104.0177242100892,699.9887281070559 L1103.9997080649302,700.181931128178 M1103.9997080649302,700.181931128178 L1103.8867115457117,700.3232989711723 M1103.8867115457117,700.3232989711723 L1103.6853933885411,700.4046341765129 M1103.6853933885411,700.4046341765129 L1103.4073590606715,700.4211372408841 M1103.4073590606715,700.4211372408841 L1103.0687801964505,700.3718335029639 M1103.0687801964505,700.3718335029639 L1102.6895306168833,700.2596735340065 M1102.6895306168833,700.2596735340065 L1102.2916832859023,700.0911928944352 M1102.2916832859023,700.0911928944352 L1101.8981810907087,699.8761091197728 M1101.8981810907087,699.8761091197728 L1101.5321699545057,699.6270813751196 M1101.5321699545057,699.6270813751196 L1101.2147390253413,699.3585214259986 M1101.2147390253413,699.3585214259986 L1100.9644582875887,699.0861200339032 M1100.9644582875887,699.0861200339032 L1100.7958069860522,698.8256933745321 M1100.7958069860522,698.8256933745321 L1100.718426657896,698.5923038422723 M1100.718426657896,698.5923038422723 L1100.7368689491998,698.3995334852336 M1100.7368689491998,698.3995334852336 L1100.8500256784214,698.2585486943855 M1100.8500256784214,698.2585486943855 L1101.0512016550358,698.1774593168333 M1101.0512016550358,698.1774593168333 L1101.3288237338527,698.1610083983901 M1101.3288237338527,698.1610083983901 L1101.6668146951963,698.2101586181758 M1101.6668146951963,698.2101586181758 L1102.0454356844575,698.3219947825249 M1102.0454356844575,698.3219947825249 L1102.4429189037166,698.4901335354249 M1102.4429189037166,698.4901335354249 L1101.812749609554,699.0468200547476" stroke="black"  stroke-width="4"  fill="red"/>
<path d="M-290.6777366202401,37.67888817686554 L-328.0651522704379,56.19603994896704 M-290.6777366202401,37.67888817686554 L-294.161692775726,35.96120108588934 M-331.54722317101596,54.39330969914943 L-294.161692775726,35.96120108588934 M-328.0651522704379,56.19603994896704 L-331.54722317101596,54.39330969914943 M-328.0651522704379,56.19603994896704 L-328.247715118262,46.09389366475568 M-328.247715118262,46.09389366475568 L-324.5878957380205,44.3051095110643 M-324.5878957380205,44.3051095110643 L-324.75223381159253,34.107932215903986 M-324.75223381159253,34.107932215903986 L-272.4219077051382,8.875334117953003 M-272.4219077051382,8.875334117953003 L-272.4655125788422,9.74462262109347 M-272.4655125788422,9.74462262109347 L-272.57654210281953,10.637064065807976 M-272.57654210281953,10.637064065807976 L-272.75379558204486,11.543610079448172 M-272.75379558204486,11.543610079448172 L-272.995418572571,12.455080803334852 M-272.995418572571,12.455080803334852 L-273.29891918951125,13.362248338532368 M-273.29891918951125,13.362248338532368 L-273.6611931807852,14.255965724854605 M-273.6611931807852,14.255965724854605 L-274.0785589680104,15.127203591351304 M-274.0785589680104,15.127203591351304 L-274.5467924829369,15.96718423857999 M-274.5467924829369,15.96718423857999 L-275.0611638978155,16.767420197353772 M-275.0611638978155,16.767420197353772 L-275.6164892897,17.51984421379302 M-275.6164892897,17.51984421379302 L-276.2071734553667,18.2168252658754 M-276.2071734553667,18.2168252658754 L-276.8272684286196,18.8513183550985 M-276.8272684286196,18.8513183550985 L-277.4705257537414,19.41683268852023 M-277.4705257537414,19.41683268852023 L-278.13045605383877,19.90761288450682 M-278.13045605383877,19.90761288450682 L-278.80039219757805,20.318601894637823 M-278.80039219757805,20.318601894637823 L-279.4735526389102,20.645530298082463 M-279.4735526389102,20.645530298082463 L-280.1431051044053,20.884979566271795 M-280.1431051044053,20.884979566271795 L-280.8022353491315,21.034365854999805 M-280.8022353491315,21.034365854999805 L-281.44421240023155,21.092048042355373 M-281.44421240023155,21.092048042355373 L-281.4545562683081,21.1213829605079 M-281.4545562683081,21.1213829605079 L-281.46921075730097,21.149052299375967 M-281.46921075730097,21.149052299375967 L-281.4873244567102,21.17344619828185 M-281.4873244567102,21.17344619828185 L-281.50784451862864,21.193148317776036 M-281.50784451862864,21.193148317776036 L-281.52957854036276,21.20702154538975 M-281.52957854036276,21.20702154538975 L-281.55126446877466,21.214255972207752 M-281.55126446877466,21.214255972207752 L-281.57164130376066,21.214431208386713 M-281.57164130376066,21.214431208386713 L-281.58952578683545,21.207539961108125 M-281.58952578683545,21.207539961108125 L-281.60387778392044,21.193964421267424 M-281.60387778392044,21.193964421267424 L-281.6138627101061,21.17452069258377 M-281.6138627101061,21.17452069258377 L-281.6189003393256,21.150315862113587 M-281.6189003393256,21.150315862113587 L-281.61869742763884,21.122763918434487 M-281.61869742763884,21.122763918434487 L-281.6132663574116,21.093469707433087 M-281.6132663574116,21.093469707433087 L-282.2586563065274,21.151624118432608 M-282.2586563065274,21.151624118432608 L-282.9227036100931,21.30252666035892 M-282.9227036100931,21.30252666035892 L-283.5984804906366,21.544735930100842 M-283.5984804906366,21.544735930100842 L-284.2789162589363,21.875864297333578 M-284.2789162589363,21.875864297333578 L-284.95686893823654,22.292549921195587 M-284.95686893823654,22.292549921195587 L-285.62520577619443,22.7905037495305 M-285.62520577619443,22.7905037495305 L-286.2768809011061,23.36455650049129 M-286.2768809011061,23.36455650049129 L-286.9050128278816,24.00874896263656 M-286.9050128278816,24.00874896263656 L-287.5029620744026,24.716340376321682 M-287.5029620744026,24.716340376321682 L-288.06440523861454,25.479872624706218 M-288.06440523861454,25.479872624706218 L-288.5834052365128,26.291331932509593 M-288.5834052365128,26.291331932509593 L-289.0544787979668,27.14214359070354 M-289.0544787979668,27.14214359070354 L-289.472656671526,28.023331955910407 M-289.472656671526,28.023331955910407 L-289.8335399871455,28.925596214766415 M-289.8335399871455,28.925596214766415 L-290.13334755223923,29.83939671542032 M-290.13334755223923,29.83939671542032 L-290.3689574463556,30.75512269191944 M-290.3689574463556,30.75512269191944 L-290.5379396232428,31.663102863327254 M-290.5379396232428,31.663102863327254 L-290.63858082282104,32.553806977340855 M-290.63858082282104,32.553806977340855 L-290.669900525196,33.41787568810673 M-290.669900525196,33.41787568810673 L-290.6777366202401,37.67888817686554 M-290.669900525196,33.41787568810673 L-294.1616923662723,31.706033665051905 M-294.1616923662723,31.706033665051905 L-294.161692775726,35.96120108588934 M-294.1616923662723,31.706033665051905 L-294.13193454612497,30.843201960054387 M-294.13193454612497,30.843201960054387 L-294.0328412332259,29.95388132752413 M-294.0328412332259,29.95388132752413 L-293.86537675514273,29.047416441293308 M-293.86537675514273,29.047416441293308 L-293.63123847359225,28.133321430430385 M-293.63123847359225,28.133321430430385 L-293.3328408661497,27.22125008380101 M-293.3328408661497,27.22125008380101 L-292.9732909611221,26.320794642328224 M-292.9732909611221,26.320794642328224 L-292.5563557270633,25.441475285702495 M-292.5563557270633,25.441475285702495 L-292.0864207540619,24.59257272579174 M-292.0864207540619,24.59257272579174 L-291.56844308162226,23.7830420891911 M-291.56844308162226,23.7830420891911 L-291.00789493475315,23.021437365125962 M-291.00789493475315,23.021437365125962 L-290.41070377200185,22.315751739235054 M-290.41070377200185,22.315751739235054 L-289.7831847326556,21.673422981185354 M-289.7831847326556,21.673422981185354 L-289.1319706481788,21.10117209079732 M-289.1319706481788,21.10117209079732 L-288.46393803155115,20.60493931853034 M-288.46393803155115,20.60493931853034 L-287.7861294204869,20.189875919163228 M-287.7861294204869,20.189875919163228 L-287.10567598123794,19.86025409594879 M-287.10567598123794,19.86025409594879 L-286.4297198803192,19.619420198914952 M-286.4297198803192,19.619420198914952 L-285.76533379561624,19.469747905722215 M-285.76533379561624,19.469747905722215 L-285.11944918196457,19.41266626369361 M-285.11944918196457,19.41266626369361 L-285.12483109023947,19.441911561574443 M-285.12483109023947,19.441911561574443 L-285.1249831797502,19.469425043846968 M-285.1249831797502,19.469425043846968 L-285.11989602739493,19.493604106181863 M-285.11989602739493,19.493604106181863 L-285.10986576848427,19.513036266854613 M-285.10986576848427,19.513036266854613 L-285.0954752204775,19.52661507897261 M-285.0954752204775,19.52661507897261 L-285.0775612588802,19.53352428463029 M-285.0775612588802,19.53352428463029 L-285.057165697473,19.53338062179955 M-285.057165697473,19.53338062179955 L-285.0354728875375,19.526189552989536 M-285.0354728875375,19.526189552989536 L-285.0137442302081,19.512368946646575 M-285.0137442302081,19.512368946646575 L-284.9932414597358,19.492725649923557 M-284.9932414597358,19.492725649923557 L-284.9751559891033,19.468393368181466 M-284.9751559891033,19.468393368181466 L-284.96053902894414,19.44078486222469 M-284.96053902894414,19.44078486222469 L-284.95023980555516,19.411506456135612 M-275.94208142716184,7.225525247666951 L-275.98410904471086,8.093536046016368 M-275.98410904471086,8.093536046016368 L-276.093582983651,8.984567050328678 M-276.093582983651,8.984567050328678 L-276.2693183790434,9.889584037269515 M-276.2693183790434,9.889584037269515 L-276.5094761776264,10.79942240486389 M-276.5094761776264,10.79942240486389 L-276.81157930242944,11.70487049347389 M-276.81157930242944,11.70487049347389 L-277.1725375096929,12.596798365677955 M-277.1725375096929,12.596798365677955 L-277.5886823972992,13.466194371811412 M-277.5886823972992,13.466194371811412 L-278.05580202999136,14.304299013038985 M-278.05580202999136,14.304299013038985 L-278.56917764073285,15.102643410056373 M-278.56917764073285,15.102643410056373 L-279.12363511252227,15.853179047779406 M-279.12363511252227,15.853179047779406 L-279.7135878162138,16.54829372078541 M-279.7135878162138,16.54829372078541 L-280.3330949184822,17.180961042639638 M-280.3330949184822,17.180961042639638 L-280.9759137783799,17.744708602896367 M-280.9759137783799,17.744708602896367 L-281.6355592503544,18.233798839131623 M-281.6355592503544,18.233798839131623 L-282.3053669942974,18.643191917107117 M-282.3053669942974,18.643191917107117 L-282.97855672318065,18.968634804763667 M-282.97855672318065,18.968634804763667 L-283.6482958457136,19.20672434788088 M-283.6482958457136,19.20672434788088 L-284.30776832776746,19.35489097130676 M-284.30776832776746,19.35489097130676 L-284.95023980555516,19.411506456135612 M-275.94208142716184,7.225525247666951 L-328.2714345286538,32.3418295955816 M-328.0886181889059,42.52467489314182 L-328.2714345286538,32.3418295955816 M-328.0886181889059,42.52467489314182 L-331.74806540853,44.30510986842421 M-331.54722317101596,54.39330969914943 L-331.74806540853,44.30510986842421 M-331.74806540853,44.30510986842421 L-328.247715118262,46.09389366475568 M-281.6132663574116,21.093469707433087 L-285.11944918196457,19.41266626369361 M-281.44421240023155,21.092048042355373 L-284.95023980555516,19.411506456135612 M-272.4219077051382,8.875334117953003 L-275.94208142716184,7.225525247666951 M-324.75223381159253,34.107932215903986 L-328.2714345286538,32.3418295955816 M-324.5878957380205,44.3051095110643 L-328.0886181889059,42.52467489314182" stroke="black"  stroke-width="4"  fill="red"/>
<path d="M-283.1722527629495,32.24845432115495 L-283.14997808397993,28.39739447004024 M-283.14997808397993,28.39739447004024 L-283.11137100250767,28.421227283470728 M-283.11137100250767,28.421227283470728 L-283.0855037691076,28.44883820117434 M-283.0855037691076,28.44883820117434 L-283.0738797097995,28.4786226954609 M-283.0738797097995,28.4786226954609 L-283.0771768704658,28.508850583497292 M-283.0771768704658,28.508850583497292 L-283.09520495328684,28.53776461858888 M-283.09520495328684,28.53776461858888 L-283.126918194244,28.563684374587012 M-283.126918194244,28.563684374587012 L-283.17047373796004,28.5851023710037 M-283.17047373796004,28.5851023710037 L-283.22334080497217,28.60077325198199 M-283.22334080497217,28.60077325198199 L-283.28244542276457,28.60978520652418 M-283.28244542276457,28.60978520652418 L-283.344352099969,28.61161424784933 M-283.344352099969,28.61161424784933 L-283.405460456579,28.60615375773085 M-283.405460456579,28.60615375773085 L-283.4622184082302,28.5937218037771 M-283.4622184082302,28.5937218037771 L-283.5113251307796,28.575040968865892 M-283.5113251307796,28.575040968865892 L-283.5499272238642,28.551198424816675 M-283.5499272238642,28.551198424816675 L-283.5757808339997,28.523579940263517 M-283.5757808339997,28.523579940263517 L-283.5873855817981,28.493791861231557 M-283.5873855817981,28.493791861231557 L-283.58406784503677,28.463565191705413 M-283.58406784503677,28.463565191705413 L-283.566022635545,28.434656899218226 M-283.566022635545,28.434656899218226 L-283.53429964065776,28.408746094448077 M-283.53429964065776,28.408746094448077 L-283.4907439503793,28.387338207175503 M-283.4907439503793,28.387338207175503 L-283.43788637774605,28.371676277485562 M-283.43788637774605,28.371676277485562 L-283.3787987201117,28.362670065570285 M-283.3787987201117,28.362670065570285 L-283.3169125836706,28.360842242783804 M-283.3169125836706,28.360842242783804 L-283.2558236425152,28.36629914806275 M-283.2558236425152,28.36629914806275 L-283.19907953353527,28.378723535295478 M-283.19907953353527,28.378723535295478 L-283.14997808397993,28.39739447004024 M-283.1722527629495,32.24845432115495 L-283.22125433778024,32.229725091476496 M-283.22125433778024,32.229725091476496 L-283.2778833024222,32.217261911412265 M-283.2778833024222,32.217261911412265 L-283.3388485191075,32.21178796769942 M-283.3388485191075,32.21178796769942 L-283.400609532697,32.21362149762848 M-283.400609532697,32.21362149762848 L-283.459577935369,32.22265583002144 M-283.459577935369,32.22265583002144 L-283.51232904392873,32.23836666057002 M-283.51232904392873,32.23836666057002 L-283.55579724651454,32.25984138700784 M-283.55579724651454,32.25984138700784 L-283.58745681363064,32.28583308650809 M-283.58745681363064,32.28583308650809 L-283.6054663461209,32.31483162771593 M-283.6054663461209,32.31483162771593 L-283.60877823500243,32.345152656945174 M-283.60877823500243,32.345152656945174 L-283.59719781628996,32.3750337216602 M-283.59719781628996,32.3750337216602 L-283.57139730325275,32.40273841504052 M-283.57139730325275,32.40273841504052 L-283.53287399611156,32.42665537829657 M-283.53287399611156,32.42665537829657 L-283.4838671695363,32.44539451912806 M-283.4838671695363,32.44539451912806 L-283.4272244183958,32.457865274178914 M-283.4272244183958,32.457865274178914 L-283.36623986483676,32.46334280664695 M-283.36623986483676,32.46334280664695 L-283.30445839347317,32.46150805684829 M-283.30445839347317,32.46150805684829 L-283.24547309902755,32.452467975555294 M-283.24547309902755,32.452467975555294 L-283.1927125342031,32.43674818394038 M-283.1927125342031,32.43674818394038 L-283.1492444772922,32.415263337315764 M-283.1492444772922,32.415263337315764 L-283.11759462441967,32.389262676809494 M-283.11759462441967,32.389262676809494 L-283.09960214920693,32.36025838672424 M-283.09960214920693,32.36025838672424 L-283.0963107532175,32.329936137653704 M-283.0963107532175,32.329936137653704 L-283.10791040548816,32.300058661599905 M-283.10791040548816,32.300058661599905 L-283.13372448694633,32.272361543334796 M-283.13372448694633,32.272361543334796 L-283.1722527629495,32.24845432115495 M-282.8790805396484,28.26421502186929 L-282.78255494275277,28.323779127395596 M-282.78255494275277,28.323779127395596 L-282.71786072795203,28.39279185804179 M-282.71786072795203,28.39279185804179 L-282.6887646353754,28.46724658536732 M-282.6887646353754,28.46724658536732 L-282.69696887200075,28.54281829399673 M-282.69696887200075,28.54281829399673 L-282.74200712462107,28.615114406283908 M-282.74200712462107,28.615114406283908 L-282.82127114786044,28.679930290967206 M-282.82127114786044,28.679930290967206 L-282.9301597242676,28.733494248464126 M-282.9301597242676,28.733494248464126 L-283.0623445955507,28.77268786571244 M-283.0623445955507,28.77268786571244 L-283.2101384756156,28.795228613267625 M-283.2101384756156,28.795228613267625 L-283.3649430978736,28.799803460946862 M-283.3649430978736,28.799803460946862 L-283.517750845758,28.786145635455398 M-283.517750845758,28.786145635455398 L-283.6596709133171,28.755051254937655 M-283.6596709133171,28.755051254937655 L-283.78244822368765,28.70833130189186 M-283.78244822368765,28.70833130189186 L-283.8789435594322,28.648705934812085 M-283.8789435594322,28.648705934812085 L-283.9435528044012,28.57964582701038 M-283.9435528044012,28.57964582701038 L-283.9725280250169,28.50516877979277 M-283.9725280250169,28.50516877979277 L-283.9641952757627,28.42960464456047 M-283.9641952757627,28.42960464456047 L-283.9190499812148,28.35734442375997 M-283.9190499812148,28.35734442375997 L-283.8397249960965,28.292584484066936 M-283.8397249960965,28.292584484066936 L-283.73083550366346,28.239083708741532 M-283.73083550366346,28.239083708741532 L-283.5987099720661,28.19994603648189 M-283.5987099720661,28.19994603648189 L-283.4510220932269,28.177441180453968 M-283.4510220932269,28.177441180453968 L-283.29634576279284,28.172873990884852 M-283.29634576279284,28.172873990884852 L-283.14365953653487,28.18650932670994 M-283.14365953653487,28.18650932670994 L-283.00182581009676,28.217556499455554 M-283.00182581009676,28.217556499455554 L-282.8790805396484,28.26421502186929 M-282.87639780879385,27.811503279983242 L-282.77984904499385,27.871045435912947 M-282.77984904499385,27.871045435912947 L-282.7151391950083,27.940032737932654 M-282.7151391950083,27.940032737932654 L-282.6860359109919,28.014460034857564 M-282.6860359109919,28.014460034857564 L-282.69424182298394,28.0900039051794 M-282.69424182298394,28.0900039051794 L-282.7392905255233,28.162273389190716 M-282.7392905255233,28.162273389190716 L-282.8185731703053,28.227065403561596 M-282.8185731703053,28.227065403561596 L-282.9274874601881,28.28060963660971 M-282.9274874601881,28.28060963660971 L-283.0597036425347,28.319788822315445 M-283.0597036425347,28.319788822315445 L-283.2075326091433,28.342321270549917 M-283.2075326091433,28.342321270549917 L-283.36237405002885,28.346894433846728 M-283.36237405002885,28.346894433846728 L-283.5152182036469,28.33324163697762 M-283.5152182036469,28.33324163697762 L-283.65717214337724,28.30215870542338 M-283.65717214337724,28.30215870542338 L-283.779978820343,28.255455955840205 M-283.779978820343,28.255455955840205 L-283.87649730884846,28.195852546339268 M-283.87649730884846,28.195852546339268 L-283.9411221487004,28.126817873372886 M-283.9411221487004,28.126817873372886 L-283.9701045033705,28.052368259451328 M-283.9701045033705,28.052368259451328 L-283.96177001756405,27.97683196154742 M-283.96177001756405,27.97683196154742 L-283.9166142220489,27.90459836433439 M-283.9166142220489,27.90459836433439 L-283.837270586193,27.83986228764593 M-283.837270586193,27.83986228764593 L-283.72835537963033,27.786381228516063 M-283.72835537963033,27.786381228516063 L-283.59619856500694,27.747257980490986 M-283.59619856500694,27.747257980490986 L-283.4484756499294,27.724761419095557 M-283.4484756499294,27.724761419095557 L-283.2937625618961,27.720195912898248 M-283.2937625618961,27.720195912898248 L-283.1410399877532,27.733826223058998 M-283.1410399877532,27.733826223058998 L-282.99917243042444,27.764861952987417 M-282.99917243042444,27.764861952987417 L-282.87639780879385,27.811503279983242 M-282.87639780879385,27.811503279983242 L-282.8790805396484,28.26421502186929" stroke="black"  stroke-width="4"  fill="red"/>
<path d="M-328.0886181889059,42.52467489314182 L-331.74806540853,44.30510986842421 M-331.74806540853,44.30510986842421 L-331.951077238116,34.10793257039171 M-328.2714345286538,32.3418295955816 L-331.951077238116,34.10793257039171 M-328.0886181889059,42.52467489314182 L-328.2714345286538,32.3418295955816 M-328.0651522704379,56.19603994896704 L-254.0878749802755,94.4953966760171 M-254.0878749802755,94.4953966760171 L-253.9895562926838,89.98662286047573 M-253.9895562926838,89.98662286047573 L-169.53897532634062,133.46302923504936 M-169.86033772528174,138.10149592345283 L-169.53897532634062,133.46302923504936 M-169.86033772528174,138.10149592345283 L289.00373083488887,375.66361357317294 M289.00373083488887,375.66361357317294 L290.93087594134806,370.51970957845697 M290.93087594134806,370.51970957845697 L447.0582089146287,450.8963665161982 M444.4372838927916,456.13433801694896 L447.0582089146287,450.8963665161982 M444.4372838927916,456.13433801694896 L1081.4553718447949,785.9299710241334 M1081.4553718447949,785.9299710241334 L1095.9127692345949,773.8825395236415 M1095.9127692345949,773.8825395236415 L1109.3393462841996,780.7439223781812 M1109.3393462841996,780.7439223781812 L1124.3157312700314,768.4566204106785 M-331.951077238116,34.10793257039171 L1124.3157312700314,768.4566204106785 M-331.74806540853,44.30510986842421 L-328.247715118262,46.09389366475568 M-328.0651522704379,56.19603994896704 L-328.247715118262,46.09389366475568 M1109.9203533427046,773.8825559357691 L1096.5522930064926,767.0836857793965 M1082.1534516315396,779.1471969475394 L1096.5522930064926,767.0836857793965 M1082.1534516315396,779.1471969475394 L447.22741854318406,451.99515819579324 M447.22741854318406,451.99515819579324 L449.84894187617806,446.76107199396574 M449.84894187617806,446.76107199396574 L294.044683938919,366.93242812023084 M292.1136431065786,372.0712218189328 L294.044683938919,366.93242812023084 M292.1136431065786,372.0712218189328 L-166.24362359278166,135.89801980359454 M-166.24362359278166,135.89801980359454 L-165.9137635416895,131.2658321827089 M-165.9137635416895,131.2658321827089 L-250.34218134905188,88.00766846371164 M-250.44916487448336,92.51026584663953 L-250.34218134905188,88.00766846371164 M-250.44916487448336,92.51026584663953 L-324.4253139492032,54.39330933899885 M-324.4253139492032,54.39330933899885 L-324.5878957380205,44.3051095110643 M-324.5878957380205,44.3051095110643 L-328.0886181889059,42.52467489314182 M1124.833645838598,761.5792037523603 L-328.2714345286538,32.3418295955816 M1109.9203533427046,773.8825559357691 L1124.833645838598,761.5792037523603 M-328.0651522704379,56.19603994896704 L-324.4253139492032,54.39330933899885 M-328.247715118262,46.09389366475568 L-324.5878957380205,44.3051095110643 M-250.44916487448336,92.51026584663953 L-254.0878749802755,94.4953966760171 M-250.34218134905188,88.00766846371164 L-253.9895562926838,89.98662286047573 M-169.86033772528174,138.10149592345283 L-166.24362359278166,135.89801980359454 M-169.53897532634062,133.46302923504936 L-165.9137635416895,131.2658321827089 M292.1136431065786,372.0712218189328 L289.00373083488887,375.66361357317294 M294.044683938919,366.93242812023084 L290.93087594134806,370.51970957845697 M444.4372838927916,456.13433801694896 L447.22741854318406,451.99515819579324 M447.0582089146287,450.8963665161982 L449.84894187617806,446.76107199396574 M1082.1534516315396,779.1471969475394 L1081.4553718447949,785.9299710241334 M1096.5522930064926,767.0836857793965 L1095.9127692345949,773.8825395236415 M1109.3393462841996,780.7439223781812 L1109.9203533427046,773.8825559357691 M1124.3157312700314,768.4566204106785 L1124.833645838598,761.5792037523603" stroke="black"  stroke-width="4"  fill="red"/></svg>