<svg viewBox="0 0 800 800" xmlns="http://www.w3.org/2000/svg"><path d="M641.9773591221169,654.6330738056859 L640.3573066506635,-16.004078959216713 M160.1413530624268,815.7543512607517 L157.86714179450314,144.42777846295212 M641.9773591221169,654.6330738056859 L692.1857502559576,676.2281677985738 M692.1857502559576,676.2281677985738 L725.5087862020833,701.2544477919728 M725.5087862020833,701.2544477919728 L740.0010785776983,728.2608008636307 M740.0010785776983,728.2608008636307 L734.8080273529438,755.6792799416144 M734.8080273529438,755.6792799416144 L710.218144520996,781.9159530911274 M710.218144520996,781.9159530911274 L667.6498240540407,805.4434268925979 M667.6498240540407,805.4434268925979 L609.5705894096037,824.8905221779278 M609.5705894096037,824.8905221779278 L539.3560867529783,839.1225019966805 M539.3560867529783,839.1225019966805 L461.0928546335066,847.308391354687 M461.0928546335066,847.308391354687 L379.34049246662676,848.9698479419894 M379.34049246662676,848.9698479419894 L298.8631655926695,844.0098197023617 M298.8631655926695,844.0098197023617 L224.35038515813426,832.7181341439136 M224.35038515813426,832.7181341439136 L160.1413530624268,815.7543512607517 M640.3573066506635,-16.004078959216713 L690.6332608781506,5.498578027836629 M690.6332608781506,5.498578027836629 L724.0010163147195,30.417747115541715 M724.0010163147195,30.417747115541715 L738.5125618293462,57.30853054956242 M738.5125618293462,57.30853054956242 L733.3121449546495,84.60969319696596 M733.3121449546495,84.60969319696596 L708.6886699642605,110.7341224362026 M708.6886699642605,110.7341224362026 L666.0624539012142,134.16095584725554 M666.0624539012142,134.16095584725554 L607.904367980202,153.52487427282904 M607.904367980202,153.52487427282904 L537.594641411494,167.69598812732147 M537.594641411494,167.69598812732147 L459.2253632918722,175.846870930749 M459.2253632918722,175.846870930749 L377.3623261208854,177.50122256501345 M377.3623261208854,177.50122256501345 L296.7761627680118,172.5624052764906 M296.7761627680118,172.5624052764906 L222.16274319938566,161.31900929413678 M222.16274319938566,161.31900929413678 L157.86714179450314,144.42777846295212 M160.1413530624268,815.7543512607517 L109.97068535611061,794.1087024225417 M109.97068535611061,794.1087024225417 L76.75095780056313,769.0434490774642 M76.75095780056313,769.0434490774642 L62.40389198082971,742.018632492196 M62.40389198082971,742.018632492196 L67.75081820133369,714.6064294882526 M67.75081820133369,714.6064294882526 L92.46797386669573,688.3993342710746 M92.46797386669573,688.3993342710746 L135.10780804022397,664.9179642167 M135.10780804022397,664.9179642167 L193.18641451022563,645.5229368575965 M193.18641451022563,645.5229368575965 L263.32829097761737,631.3370607951656 M263.32829097761737,631.3370607951656 L341.4635364489477,623.1807494576788 M341.4635364489477,623.1807494576788 L423.0618720347991,621.5255689295154 M423.0618720347991,621.5255689295154 L503.3944178056739,626.4671336482425 M503.3944178056739,626.4671336482425 L577.8048303586049,637.7198458334751 M577.8048303586049,637.7198458334751 L641.9773591221169,654.6330738056859 M157.86714179450314,144.42777846295212 L107.62901390801221,122.87471488270967 M107.62901390801221,122.87471488270967 L74.36484707039358,97.91668673274398 M74.36484707039358,97.91668673274398 L59.99892142230169,71.00749392938451 M59.99892142230169,71.00749392938451 L65.35362960284601,43.712588951413636 M65.35362960284601,43.712588951413636 L90.10472136550561,17.617650907151983 M90.10472136550561,17.617650907151983 L132.80264390974503,-5.7632139560591895 M132.80264390974503,-5.7632139560591895 L190.96009910476323,-25.075217144592898 M190.96009910476323,-25.075217144592898 L261.1970021908071,-39.200362441973994 M261.1970021908071,-39.200362441973994 L339.43794682384146,-47.32175396232924 M339.43794682384146,-47.32175396232924 L421.1465404877796,-48.96984794198943 M421.1465404877796,-48.96984794198943 L501.5875312362124,-44.04944003013952 M501.5875312362124,-44.04944003013952 L576.0983065352418,-32.84490313168499 M576.0983065352418,-32.84490313168499 L640.3573066506635,-16.004078959216713" stroke="black"  stroke-width="4"  fill="red"/></svg>