<svg viewBox="0 0 800 800" xmlns="http://www.w3.org/2000/svg"><path d="M284.21427032430046,340.47884160128706 L270.62184210932094,347.16881676670914 M270.62184210932094,347.16881676670914 L257.6200463055458,340.4788429378066 M257.6200463055458,340.4788429378066 L271.21109999245266,333.8200059186587 M284.21427032430046,340.47884160128706 L271.21109999245266,333.8200059186587 M270.62184210932094,347.16881676670914 L268.51559496644694,230.6192723132348 M268.51559496644694,230.6192723132348 L282.33861840964875,224.09464223735398 M282.33861840964875,224.09464223735398 L280.3996542329863,103.78191708114741 M280.3996542329863,103.78191708114741 L266.3380800078994,110.12611113888175 M266.3380800078994,110.12611113888175 L265.5023947880884,63.88332714033959 M265.5023947880884,63.88332714033959 L279.6555611809323,57.610943970902554 M279.6555611809323,57.610943970902554 L278.9019284743695,10.848035308251951 M278.9019284743695,10.848035308251951 L410.8287978449516,-46.55133936099975 M410.8287978449516,-46.55133936099975 L410.6604199391183,45.01185602536634 M548.0114660010142,-16.957143768046024 L410.6604199391183,45.01185602536634 M548.0114660010142,-16.957143768046024 L547.762136499962,-10.800771872351675 M547.762136499962,-10.800771872351675 L547.2650908227337,-4.559525533207761 M547.2650908227337,-4.559525533207761 L546.5222641783463,1.7490092981928456 M546.5222641783463,1.7490092981928456 L545.536261576106,8.107083948621948 M545.536261576106,8.107083948621948 L544.3102765281334,14.49702353406775 M544.3102765281334,14.49702353406775 L542.8481513210096,20.90102374400135 M542.8481513210096,20.90102374400135 L541.1543186661767,27.301375611988192 M541.1543186661767,27.301375611988192 L539.2338021391515,33.680342717687836 M539.2338021391515,33.680342717687836 L537.0921809322118,40.020374511804846 M537.0921809322118,40.020374511804846 L534.7355999841561,46.30413843137353 M534.7355999841561,46.30413843137353 L532.1707669989948,52.51423998454288 M532.1707669989948,52.51423998454288 L529.4048753268379,58.63372098086421 M529.4048753268379,58.63372098086421 L526.4456525225429,64.64586261748548 M526.4456525225429,64.64586261748548 L523.3012965611571,70.53409515384385 M523.3012965611571,70.53409515384385 L519.9804862308763,76.28235050720559 M519.9804862308763,76.28235050720559 L516.4923333944213,81.87475457222303 M516.4923333944213,81.87475457222303 L512.8464066994326,87.2959224566298 M512.8464066994326,87.2959224566298 L509.0526503217792,92.53093342254851 M509.0526503217792,92.53093342254851 L505.1214360890051,97.5652452202446 M505.1214360890051,97.5652452202446 L501.06346971383425,102.38488925653223 M501.06346971383425,102.38488925653223 L496.8898141553386,106.97634849223385 M496.8898141553386,106.97634849223385 L492.6118538429708,111.32667578124114 M492.6118538429708,111.32667578124114 L488.24127480240185,115.423606408012 M488.24127480240185,115.423606408012 L483.790032970853,119.25541387566341 M483.790032970853,119.25541387566341 L479.2703239199866,122.81103069022771 M479.2703239199866,122.81103069022771 L479.27672022259327,122.9119200847581 M479.27672022259327,122.9119200847581 L479.26347076479186,123.02136383335841 M479.26347076479186,123.02136383335841 L479.23135705697314,123.13297102701989 M479.23135705697314,123.13297102701989 L479.1822332804882,123.24032189826448 M479.1822332804882,123.24032189826448 L479.11895799046135,123.33710521991213 M479.11895799046135,123.33710521991213 L479.04521277334845,123.41773170109605 M479.04521277334845,123.41773170109605 L478.96527483502433,123.47749360246888 M478.96527483502433,123.47749360246888 L478.8837917955278,123.51298772890618 M478.8837917955278,123.51298772890618 L478.8055005320798,123.52203652179344 M478.8055005320798,123.52203652179344 L478.7349444769644,123.50419133738876 M478.7349444769644,123.50419133738876 L478.6762353005383,123.46047511246888 M478.6762353005383,123.46047511246888 L478.6327752847485,123.3934077406717 M478.6327752847485,123.3934077406717 L478.6070937098181,123.30692485405149 M478.6070937098181,123.30692485405149 L474.06791529698665,126.87832700992112 M474.06791529698665,126.87832700992112 L469.58786369748566,130.73599201774152 M469.58786369748566,130.73599201774152 L465.1810282876534,134.8683205810513 M465.1810282876534,134.8683205810513 L460.8613107017857,139.26282679871576 M460.8613107017857,139.26282679871576 L456.642360149341,143.90611397668283 M456.642360149341,143.90611397668283 L452.5375242007661,148.78379216749272 M452.5375242007661,148.78379216749272 L448.55979575272437,153.8808756603114 M448.55979575272437,153.8808756603114 L444.7217684798207,159.18149062229733 M444.7217684798207,159.18149062229733 L441.0355889519337,164.6690095405134 M441.0355889519337,164.6690095405134 L437.51290344746167,170.32634845982847 M437.51290344746167,170.32634845982847 L434.164824782731,176.1356749468055 M434.164824782731,176.1356749468055 L431.0018788279213,182.07881435850197 M431.0018788279213,182.07881435850197 L428.03397829247876,188.13690522152376 M428.03397829247876,188.13690522152376 L425.27037616740165,194.29096290290067 M425.27037616740165,194.29096290290067 L422.7196363343608,200.52159178295685 M422.7196363343608,200.52159178295685 L420.38960580778877,206.8091725486063 M420.38960580778877,206.8091725486063 L418.28738064215224,213.13389506235225 M418.28738064215224,213.13389506235225 L416.4192911421935,219.47594008410965 M416.4192911421935,219.47594008410965 L414.79087472735375,225.81540446138817 M414.79087472735375,225.81540446138817 L413.40686457190054,232.13248142154868 M413.40686457190054,232.13248142154868 L412.27117362615536,238.40753755640893 M412.27117362615536,238.40753755640893 L411.3868867266194,244.6210810859716 M411.3868867266194,244.6210810859716 L410.75625487601667,250.75398968984751 M410.75625487601667,250.75398968984751 L410.38069383126265,256.7873179814381 M410.38069383126265,256.7873179814381 L410.2607850291416,262.70262432913506 M410.2607850291416,262.70262432913506 L410.23181601700963,278.4550267421739 M543.3071772446326,212.95746827346312 L410.23181601700963,278.4550267421739 M543.3071772446326,212.95746827346312 L543.069290546675,218.74254263701368 M543.069290546675,218.74254263701368 L542.5911732901895,224.62085544008835 M542.5911732901895,224.62085544008835 L541.8746744742932,230.5758948102888 M541.8746744742932,230.5758948102888 L540.9222973547182,236.59085439336246 M540.9222973547182,236.59085439336246 L539.7371208294132,242.6488606355372 M539.7371208294132,242.6488606355372 L538.3228527614644,248.73303269556305 M538.3228527614644,248.73303269556305 L536.6837787086198,254.82644341174387 M536.6837787086198,254.82644341174387 L534.8247563261993,260.91230759570647 M534.8247563261993,260.91230759570647 L532.7511912275658,266.97367984412244 M532.7511912275658,266.97367984412244 L530.469037826036,272.9939389037142 M530.469037826036,272.9939389037142 L527.984796436825,278.9565248619951 M527.984796436825,278.9565248619951 L525.3054471353917,284.8449587623673 M525.3054471353917,284.8449587623673 L522.4384871402776,290.6431585547573 M522.4384871402776,290.6431585547573 L519.3918734597388,296.33510689396235 M519.3918734597388,296.33510689396235 L516.1740328665876,301.905182013979 M516.1740328665876,301.905182013979 L512.7938117999981,307.33807233567507 M512.7938117999981,307.33807233567507 L509.2605036077713,312.61880219446937 M509.2605036077713,312.61880219446937 L505.58376920298224,317.73271346673846 M505.58376920298224,317.73271346673846 L501.7736832943178,322.665632650752 M501.7736832943178,322.665632650752 L497.8406464834999,327.4038593505084 M497.8406464834999,327.4038593505084 L493.79540739883004,331.9340509230031 M493.79540739883004,331.9340509230031 L489.6490242803992,336.2435851493103 M489.6490242803992,336.2435851493103 L485.4128522604856,340.3201682253574 M485.4128522604856,340.3201682253574 L481.0985056559475,344.152175337598 M481.0985056559475,344.152175337598 L476.7178308071034,347.7285911128206 M476.7178308071034,347.7285911128206 L476.7240669111002,347.8229242476871 M476.7240669111002,347.8229242476871 L476.71125981201624,347.9263039564595 M476.71125981201624,347.9263039564595 L476.6801643684164,348.03274286577215 M476.6801643684164,348.03274286577215 L476.63257681017734,348.13604470159765 M476.63257681017734,348.13604470159765 L476.57126546072703,348.23021114863514 M476.57126546072703,348.23021114863514 L476.4997979642318,348.30977760546705 M476.4997979642318,348.30977760546705 L476.42231916170203,348.3701246701521 M476.42231916170203,348.3701246701521 L476.3433348672649,348.4077124137542 M476.3433348672649,348.4077124137542 L476.2674350233388,348.4203953703204 M476.2674350233388,348.4203953703204 L476.1990254277743,348.4074110061787 M476.1990254277743,348.4074110061787 L476.14209236909613,348.3695250276895 M476.14209236909613,348.3695250276895 L476.09993489131693,348.3089452778341 M476.09993489131693,348.3089452778341 L476.07500727380767,348.22915448347766 M476.07500727380767,348.22915448347766 L471.6756519295736,351.82128650083547 M471.6756519295736,351.82128650083547 L467.3338669606457,355.6786930558161 M467.3338669606457,355.6786930558161 L463.06328120851816,359.78974944141163 M463.06328120851816,359.78974944141163 L458.8773399783982,364.1420384185981 M458.8773399783982,364.1420384185981 L454.7892438463061,368.72220614960884 M454.7892438463061,368.72220614960884 L450.81189897305336,373.51616148353787 M450.81189897305336,373.51616148353787 L446.95786920459835,378.509102400373 M446.95786920459835,378.509102400373 L443.2393311154126,383.68549306961626 M443.2393311154126,383.68549306961626 L439.6680282540422,389.02919195301956 M439.6680282540422,389.02919195301956 L436.25522162444014,394.5234842261311 M436.25522162444014,394.5234842261311 L433.0116555118151,400.15118225567494 M433.0116555118151,400.15118225567494 L429.94750851696466,405.89458644994 M429.94750851696466,405.89458644994 L427.0723656807473,411.7356843535701 M427.0723656807473,411.7356843535701 L424.39517676023235,417.6560608661534 M424.39517676023235,417.6560608661534 L421.92422545956714,423.63715029892 M421.92422545956714,423.63715029892 L419.66710399684825,429.66014014927526 M419.66710399684825,429.66014014927526 L417.6306796539569,435.7061516538063 M417.6306796539569,435.7061516538063 L415.8210810612581,441.7562621985319 M415.8210810612581,441.7562621985319 L414.2436715982979,447.791534916758 M414.2436715982979,447.791534916758 L412.9030384869671,453.7931632280811 M412.9030384869671,453.7931632280811 L411.8029772085274,459.74256799321915 M411.8029772085274,459.74256799321915 L410.9464839668009,465.62126948910725 M410.9464839668009,465.62126948910725 L410.33574973906326,471.4112240489641 M410.33574973906326,471.4112240489641 L409.9721587824762,477.0946182670716 M409.9721587824762,477.0946182670716 L409.8562892775566,482.6541996300001 M409.8562892775566,482.6541996300001 L409.8290879732602,497.44538027106364 M409.8290879732602,497.44538027106364 L538.8875353972986,428.9604165010296 M538.8875353972986,428.9604165010296 L538.6601847641995,434.4071447582389 M538.6601847641995,434.4071447582389 L538.1996483287804,439.95442876517836 M538.1996483287804,439.95442876517836 L537.5076999508223,445.58652245779115 M537.5076999508223,445.58652245779115 L536.5867479151037,451.28750902298157 M536.5867479151037,451.28750902298157 L535.4397613596628,457.0413988085362 M535.4397613596628,457.0413988085362 L534.0703241077308,462.83208794145406 M534.0703241077308,462.83208794145406 L532.4825825356436,468.6434438572202 M532.4825825356436,468.6434438572202 L530.681243105109,474.459340371034 M530.681243105109,474.459340371034 L528.6715436361486,480.2636363884048 M528.6715436361486,480.2636363884048 L526.45926086407,486.04029935968293 M526.45926086407,486.04029935968293 L524.0507027734493,491.7733960812038 M524.0507027734493,491.7733960812038 L521.4526444199056,497.4471145987811 M521.4526444199056,497.4471145987811 L518.6723686006908,503.045823514071 M518.6723686006908,503.045823514071 L515.7176037856312,508.55409376148145 M515.7176037856312,508.55409376148145 L512.5965381248553,513.9567733727167 M512.5965381248553,513.9567733727167 L509.31777001718854,519.2389340795587 M509.31777001718854,519.2389340795587 L505.8903327245277,524.3859886493653 M505.8903327245277,524.3859886493653 L502.3236171991052,529.3836779547872 M502.3236171991052,529.3836779547872 L498.6274186424631,534.2181084534241 M498.6274186424631,534.2181084534241 L494.81184951238976,538.8758286003471 M494.81184951238976,538.8758286003471 L490.8873598795927,543.3437782030887 M490.8873598795927,543.3437782030887 L486.86470327347655,547.6093968978893 M486.86470327347655,547.6093968978893 L482.7549189389477,551.6606085927442 M482.7549189389477,551.6606085927442 L478.56929897946384,555.4858621477093 M478.56929897946384,555.4858621477093 L474.3193604263592,559.0741591224028 M474.3193604263592,559.0741591224028 L474.3254439947391,559.16250816142 M474.3254439947391,559.16250816142 L474.31305079586156,559.2603453664743 M474.31305079586156,559.2603453664743 L474.28291131381536,559.3620036612572 M474.28291131381536,559.3620036612572 L474.23676654139814,559.4615657554422 M474.23676654139814,559.4615657554422 L474.17730075669397,559.5532619054233 M474.17730075669397,559.5532619054233 L474.1079746350221,559.6317358266722 M474.1079746350221,559.6317358266722 L474.0328085981588,559.692454523107 M474.0328085981588,559.692454523107 L473.9561737230038,559.731881048273 M473.9561737230038,559.731881048273 L473.8825238467953,559.7477262673898 M473.8825238467953,559.7477262673898 L473.8161340283492,559.739057425618 M473.8161340283492,559.739057425618 L473.76087285700567,559.7063882562699 M473.76087285700567,559.7063882562699 L473.71994261214525,559.6516118715915 M473.71994261214525,559.6516118715915 L473.69572569366665,559.577910320091 M473.69572569366665,559.577910320091 L469.4278376937275,563.1817886447942 M469.4278376937275,563.1817886447942 L465.21604092147345,567.0319314141243 M465.21604092147345,567.0319314141243 L461.0735326507675,571.1167266292931 M461.0735326507675,571.1167266292931 L457.0133315288376,575.4237602951499 M457.0133315288376,575.4237602951499 L453.0482169821953,579.9398481920604 M453.0482169821953,579.9398481920604 L449.1906825370972,584.6511199759402 M449.1906825370972,584.6511199759402 L445.4528901184543,589.5429876911048 M445.4528901184543,589.5429876911048 L441.84662561677055,594.600278531969 M441.84662561677055,594.600278531969 L438.3832559049938,599.8072283761992 M438.3832559049938,599.8072283761992 L435.07368064837107,605.1475846753164 M435.07368064837107,605.1475846753164 L431.9282998652491,610.6046437571829 M431.9282998652491,610.6046437571829 L428.9569663243889,616.1612862201387 M428.9569663243889,616.1612862201387 L426.1689591482808,621.8001066115977 M426.1689591482808,621.8001066115977 L423.5729432553874,627.503400631095 M423.5729432553874,627.503400631095 L421.1769402614582,633.2532866008346 M421.1769402614582,633.2532866008346 L418.9883034686342,639.0317323442071 M418.9883034686342,639.0317323442071 L417.01368582219845,644.820667858289 M417.01368582219845,644.820667858289 L415.25902667648114,650.6020066545798 M415.25902667648114,650.6020066545798 L413.7295259137414,656.3577208321923 M413.7295259137414,656.3577208321923 L412.42963351751484,662.0699306234026 M412.42963351751484,662.0699306234026 L411.3630345459619,667.7209269535851 M411.3630345459619,667.7209269535851 L410.5326412087579,673.2932821133671 M410.5326412087579,673.2932821133671 L409.9405876260679,678.769877521764 M409.9405876260679,678.769877521764 L409.5882276705419,684.1339580181075 M409.5882276705419,684.1339580181075 L409.47613585384346,689.3692122700284 M409.47613585384346,689.3692122700284 L409.4505452089687,703.2845689359647 M534.727463554035,632.2772946606223 L409.4505452089687,703.2845689359647 M534.727463554035,632.2772946606223 L533.5125358588531,691.6549485763792 M409.3394563090224,763.3463094805788 L533.5125358588531,691.6549485763792 M409.3394563090224,763.3463094805788 L409.3137538483176,777.3231992618144 M409.3137538483176,777.3231992618144 L279.753002664179,852.4431415774538 M279.753002664179,852.4431415774538 L279.0802851432461,815.2182029581359 M279.0802851432461,815.2182029581359 L291.74813626745055,807.9552155805904 M291.74813626745055,807.9552155805904 L291.14196312291875,770.3421725894302 M291.14196312291875,770.3421725894302 L278.3998182686034,777.5644525311698 M278.3998182686034,777.5644525311698 L276.54632007195835,675.000814073464 M276.54632007195835,675.000814073464 L289.4909079294177,667.8941995405678 M289.4909079294177,667.8941995405678 L287.78764545914885,562.2067650222709 M287.78764545914885,562.2067650222709 L274.63408054860804,569.1867142958386 M274.63408054860804,569.1867142958386 L272.66026204944137,459.96513140133857 M272.66026204944137,459.96513140133857 L286.02965949445843,453.1237377317208 M286.02965949445843,453.1237377317208 L284.21427032430046,340.47884160128706 M255.3029963451566,224.0946435407901 L268.51559496644694,230.6192723132348 M257.6200463055458,340.4788429378066 L255.3029963451566,224.0946435407901 M269.1245756765304,217.60088487108024 L266.9677905707383,97.46824736913771 M266.9677905707383,97.46824736913771 L252.90773481837334,103.7819183484869 M252.90773481837334,103.7819183484869 L251.98853399898576,57.61094522387748 M266.14015271838656,51.36893138608161 L251.98853399898576,57.61094522387748 M266.14015271838656,51.36893138608161 L265.30192997590075,4.680038459982143 M265.30192997590075,4.680038459982143 L397.2222634622249,-52.443141577453844 M397.2222634622249,-52.443141577453844 L397.2222634622249,38.97744904587449 M397.2222634622249,38.97744904587449 L534.5818750629992,-22.70391330239505 M534.5818750629992,-22.70391330239505 L534.343907632359,-16.557042682068243 M534.343907632359,-16.557042682068243 L533.8581421075781,-10.325748375532157 M533.8581421075781,-10.325748375532157 L533.1264813130765,-4.027589266943835 M533.1264813130765,-4.027589266943835 L532.1514984146872,2.3197139430676543 M532.1514984146872,2.3197139430676543 L530.9363560000638,8.698514813097063 M530.9363560000638,8.698514813097063 L529.4848660347608,15.091038360505877 M529.4848660347608,15.091038360505877 L527.8014318851579,21.47960545089569 M527.8014318851579,21.47960545089569 L525.8910485299531,27.846510214900604 M525.8910485299531,27.846510214900604 L523.7592676805045,34.17423304563363 M523.7592676805045,34.17423304563363 L521.4122079782909,40.445472718849885 M521.4122079782909,40.445472718849885 L518.8565514791003,46.64286691798765 M518.8565514791003,46.64286691798765 L516.0994673882146,52.74948966530707 M516.0994673882146,52.74948966530707 L513.1486602854458,58.7486548023179 M513.1486602854458,58.7486548023179 L510.0123060962899,64.62382573961986 M510.0123060962899,64.62382573961986 L506.69906314224033,70.35896759239256 M506.69906314224033,70.35896759239256 L503.21802376095536,75.93823991090926 M503.21802376095536,75.93823991090926 L499.57873857460595,81.34629155685286 M499.57873857460595,81.34629155685286 L495.79113508627836,86.56823559479608 M495.79113508627836,86.56823559479608 L491.86556967067264,91.58956385437449 M491.86556967067264,91.58956385437449 L487.81273405886714,96.3963417079155 M487.81273405886714,96.3963417079155 L483.6436784683251,100.97508620188762 M483.6436784683251,100.97508620188762 L479.36977598805134,105.31288419480785 M479.36977598805134,105.31288419480785 L475.0027028686355,109.39750472231714 M475.0027028686355,109.39750472231714 L470.5544065108063,113.21725496097025 M470.5544065108063,113.21725496097025 L466.03707535801465,116.76110080582447 M465.3741469607745,117.2553040175419 L465.40001369161905,117.34170052666195 M465.40001369161905,117.34170052666195 L465.4436393692084,117.40873565522315 M465.4436393692084,117.40873565522315 L465.5024850142355,117.45247569186557 M465.5024850142355,117.45247569186557 L465.5731404631947,117.47039934015572 M465.5731404631947,117.47039934015572 L465.6514882858513,117.46147906273518 M465.6514882858513,117.46147906273518 L465.7329816245678,117.42615615210286 M465.7329816245678,117.42615615210286 L465.81288321428093,117.36659804777787 M465.81288321428093,117.36659804777787 L465.88654741279333,117.2861961985742 M465.88654741279333,117.2861961985742 L465.94970176914114,117.18964527178173 M465.94970176914114,117.18964527178173 L465.99867165292164,117.08252109992543 M465.99867165292164,117.08252109992543 L466.03060758282896,116.97112162950418 M466.03060758282896,116.97112162950418 L466.0436655969382,116.86185467270906 M466.0436655969382,116.86185467270906 L466.03707535801465,116.76110080582447 M397.2229463014167,256.3508110381342 L397.3320758800747,250.4438959625551 M397.3320758800747,250.4438959625551 L397.69687080952565,244.419540449411 M397.69687080952565,244.419540449411 L398.3167818604061,238.2961582004981 M398.3167818604061,238.2961582004981 L399.1904258434154,232.09266435680843 M399.1904258434154,232.09266435680843 L400.3155840987473,225.82814915634444 M400.3155840987473,225.82814915634444 L401.6892042783286,219.5220702217856 M401.6892042783286,219.5220702217856 L403.3074056626271,213.1940250888601 M403.3074056626271,213.1940250888601 L405.1654871237692,206.86378294570105 M405.1654871237692,206.86378294570105 L407.2579429810386,200.55120781878236 M407.2579429810386,200.55120781878236 L409.5784740390241,194.27607859341478 M409.5784740390241,194.27607859341478 L412.12001488212906,188.0581638016187 M412.12001488212906,188.0581638016187 L414.8747483354648,181.91704022378374 M414.8747483354648,181.91704022378374 L417.8341395168074,175.8720601626898 M417.8341395168074,175.8720601626898 L420.9889632592866,169.94216450359437 M420.9889632592866,169.94216450359437 L424.3293340430393,164.14617021884794 M424.3293340430393,164.14617021884794 L427.84475153281534,158.5022076139541 M427.84475153281534,158.5022076139541 L431.52412742972894,153.02806453686452 M431.52412742972894,153.02806453686452 L435.3558382263066,147.7407808090103 M435.3558382263066,147.7407808090103 L439.32775891976405,142.6569399284466 M439.32775891976405,142.6569399284466 L443.4273156672866,137.79237236929907 M443.4273156672866,137.79237236929907 L447.64153343164156,133.16202143295612 M447.64153343164156,133.16202143295612 L451.95708108092305,128.78023527729977 M451.95708108092305,128.78023527729977 L456.360323702242,124.66037009587933 M456.360323702242,124.66037009587933 L460.83737198173606,120.81487254795144 M460.83737198173606,120.81487254795144 L465.3741469607745,117.2553040175419 M397.2229463014167,256.3508110381342 L397.2229447877377,272.0814272695048 M397.2229447877377,272.0814272695048 L530.306089171816,206.87831727789145 M530.306089171816,206.87831727789145 L530.0788521301146,212.6552696719786 M530.0788521301146,212.6552696719786 L529.6113090395769,218.52498795820594 M529.6113090395769,218.52498795820594 L528.9052787027651,224.47098372138504 M528.9052787027651,224.47098372138504 L527.9632344841974,230.47647520752844 M527.9632344841974,230.47647520752844 L526.7882260525413,236.5246142052431 M526.7882260525413,236.5246142052431 L525.3839328799017,242.59854598684285 M525.3839328799017,242.59854598684285 L523.7546128498018,248.68137027670105 M523.7546128498018,248.68137027670105 L521.9050970114606,254.75632931741075 M521.9050970114606,254.75632931741075 L519.8407648468927,260.80650607365715 M519.8407648468927,260.80650607365715 L517.5675460227965,266.8153079921474 M517.5675460227965,266.8153079921474 L515.0919169903361,272.76620456759844 M515.0919169903361,272.76620456759844 L512.420834804585,278.64274686106575 M512.420834804585,278.64274686106575 L509.5617751305698,284.4288831287315 M509.5617751305698,284.4288831287315 L506.52267419450266,290.1086269980869 M506.52267419450266,290.1086269980869 L503.31193937666666,295.6663879578951 M503.31193937666666,295.6663879578951 L499.9383988849718,301.0868860304754 M499.9383988849718,301.0868860304754 L496.4113290562469,306.35517753899 M496.4113290562469,306.35517753899 L492.7403748773051,311.456636661087 M492.7403748773051,311.456636661087 L488.9355965554204,316.37712239301015 M488.9355965554204,316.37712239301015 L485.00738148127715,321.10296693456047 M485.00738148127715,321.10296693456047 L480.9664661469112,325.62086054327483 M480.9664661469112,325.62086054327483 L476.82389834538697,329.91821369525985 M476.82389834538697,329.91821369525985 L472.5910236812465,333.9827655805681 M472.5910236812465,333.9827655805681 L468.2794484358167,337.80292419261906 M468.2794484358167,337.80292419261906 L463.90101224210935,341.36770682318695 M463.2584730245426,341.8665937130683 L463.28357432995386,341.94632122839204 M463.28357432995386,341.94632122839204 L463.3258870861149,342.0068901362075 M463.3258870861149,342.0068901362075 L463.38294805812865,342.044818281623 M463.38294805812865,342.044818281623 L463.4514507682762,342.05789539130114 M463.4514507682762,342.05789539130114 L463.52740348582836,342.0453503630149 M463.52740348582836,342.0453503630149 L463.6063973921897,342.00793768735275 M463.6063973921897,342.00793768735275 L463.68384191243877,341.94779270547605 M463.68384191243877,341.94779270547605 L463.7552332805041,341.8684435548736 M463.7552332805041,341.8684435548736 L463.8164310771309,341.7744970299035 M463.8164310771309,341.7744970299035 L463.86387423599723,341.6714049569126 M463.86387423599723,341.6714049569126 L463.89480281205124,341.5651534662384 M463.89480281205124,341.5651534662384 L463.9074303035727,341.4619279468653 M463.9074303035727,341.4619279468653 L463.90101224210935,341.36770682318695 M397.2229251644516,476.01262175690636 L397.3286740351497,470.46015818663795 M397.3286740351497,470.46015818663795 L397.6821572760705,464.78446947982957 M397.6821572760705,464.78446947982957 L398.2828267989161,459.00278447665653 M398.2828267989161,459.00278447665653 L399.12932885573963,453.13289056865074 M399.12932885573963,453.13289056865074 L400.2195028020946,447.1928035007718 M400.2195028020946,447.1928035007718 L401.5503829841255,441.2009729348306 M401.5503829841255,441.2009729348306 L403.1182040836745,435.1759462707067 M403.1182040836745,435.1759462707067 L404.9184089051151,429.1364965535097 M404.9184089051151,429.1364965535097 L406.9456637982474,423.1015255002234 M406.9456637982474,423.1015255002234 L409.19386930964293,417.0899191978792 M409.19386930964293,417.0899191978792 L411.65618675002753,411.1205186250391 M411.65618675002753,411.1205186250391 L414.32505187516045,405.21209733123305 M414.32505187516045,405.21209733123305 L417.19220802554304,399.3831812090262 M417.19220802554304,399.3831812090262 L420.2487317489929,393.65214467772967 M420.2487317489929,393.65214467772967 L423.48506311829163,388.03695903924364 M423.48506311829163,388.03695903924364 L426.89104764279256,382.55528225098135 M426.89104764279256,382.55528225098135 L430.4559637817965,377.2242601693192 M430.4559637817965,377.2242601693192 L434.16857200691095,372.0605657636701 M434.16857200691095,372.0605657636701 L438.01714879836146,367.08029885650166 M438.01714879836146,367.08029885650166 L441.98953612531494,362.2989538535393 M441.98953612531494,362.2989538535393 L446.0731869797402,357.7312919068646 M446.0731869797402,357.7312919068646 L450.25521039096134,353.39136392209787 M450.25521039096134,353.39136392209787 L454.52241929457887,349.2924842445097 M454.52241929457887,349.2924842445097 L458.86137986825787,345.44703172579113 M458.86137986825787,345.44703172579113 L463.2584730245426,341.8665937130683 M397.2229251644516,476.01262175690636 L397.22292374293744,490.78543261493746 M526.2884644026208,422.5989542836744 L397.22292374293744,490.78543261493746 M526.2884644026208,422.5989542836744 L526.0711159000521,428.0387478270299 M526.0711159000521,428.0387478270299 L525.6205120527256,433.5786089448221 M525.6205120527256,433.5786089448221 L524.9383981094262,439.2028121768263 M524.9383981094262,439.2028121768263 L524.0271542873377,444.895462333701 M524.0271542873377,444.895462333701 L522.8897223126845,450.640592188945 M522.8897223126845,450.640592188945 L521.5296592417609,456.42212125881025 M521.5296592417609,456.42212125881025 L519.9510854370474,462.22394116784426 M519.9510854370474,462.22394116784426 L518.1586821653791,468.0299507007544 M518.1586821653791,468.0299507007544 L516.1576627994036,473.82403451761434 M516.1576627994036,473.82403451761434 L513.953780613151,479.59018650355983 M513.953780613151,479.59018650355983 L511.5533210859446,485.3125005977687 M511.5533210859446,485.3125005977687 L508.96303768780433,490.97519259310707 M508.96303768780433,490.97519259310707 L506.1901926979729,496.56265947098 M506.1901926979729,496.56265947098 L503.2424950974042,502.0595010781376 M503.2424950974042,502.0595010781376 L500.12811471968564,507.45059485681674 M500.12811471968564,507.45059485681674 L496.8556326503967,512.7210424550076 M496.8556326503967,512.7210424550076 L493.4340660725723,517.8562869943868 M493.4340660725723,517.8562869943868 L489.87279096721005,522.8421000507874 M489.87279096721005,522.8421000507874 L486.1815887747356,527.6646191942316 M486.1815887747356,527.6646191942316 L482.3705594293481,532.3104241879927 M482.3705594293481,532.3104241879927 L478.4501416223602,536.766486458163 M478.4501416223602,536.766486458163 L474.4310787915775,541.0202774048391 M474.4310787915775,541.0202774048391 L470.32440130723944,545.059752849594 M470.32440130723944,545.059752849594 L466.1413936326178,548.8733936264562 M466.1413936326178,548.8733936264562 L461.89356639209564,552.4502332606803 M461.2701999114228,552.9523288808257 L461.2945800204915,553.0259867016312 M461.2945800204915,553.0259867016312 L461.33565616882044,553.0807700152889 M461.33565616882044,553.0807700152889 L461.3910374778014,553.1134963605891 M461.3910374778014,553.1134963605891 L461.45751470781056,553.1222693092075 M461.45751470781056,553.1222693092075 L461.5312141605176,553.1065690684775 M461.5312141605176,553.1065690684775 L461.60785792309645,553.0673199604795 M461.60785792309645,553.0673199604795 L461.68299163614574,553.0068008103258 M461.68299163614574,553.0068008103258 L461.7522461115789,552.9285369536315 M461.7522461115789,552.9285369536315 L461.8116050469813,552.8370492265467 M461.8116050469813,552.8370492265467 L461.85761402049235,552.7376817636748 M461.85761402049235,552.7376817636748 L461.8875966118033,552.6361930150432 M461.8875966118033,552.6361930150432 L461.8998209746856,552.5384904277512 M461.8998209746856,552.5384904277512 L461.89356639209564,552.4502332606803 M397.22290529676894,682.4836615685412 L397.32547662584,677.254430304823 M397.32547662584,677.254430304823 L397.6683285937437,671.8969628053744 M397.6683285937437,671.8969628053744 L398.250915112377,666.4275502046321 M398.250915112377,666.4275502046321 L399.07191089345287,660.8629253103547 M399.07191089345287,660.8629253103547 L400.1292104274894,655.2201823013737 M400.1292104274894,655.2201823013737 L401.4199300560094,649.5167225213727 M401.4199300560094,649.5167225213727 L402.94041317609634,643.7702267801587 M402.94041317609634,643.7702267801587 L404.68623797419315,637.9985448472708 M404.68623797419315,637.9985448472708 L406.652232430096,632.2196729736306 M406.652232430096,632.2196729736306 L408.8324845896664,626.4516644974517 M408.8324845896664,626.4516644974517 L411.220368331531,620.7125549354877 M411.220368331531,620.7125549354877 L413.80855656966685,615.0203407244345 M413.80855656966685,615.0203407244345 L416.5890531131602,609.3928667687371 M416.5890531131602,609.3928667687371 L419.5532176416975,603.8477996724198 M419.5532176416975,603.8477996724198 L422.69179459563054,598.4025064943562 M422.69179459563054,598.4025064943562 L425.9949537825761,593.0740676363232 M425.9949537825761,593.0740676363232 L429.45231654256867,587.8791473932491 M429.45231654256867,587.8791473932491 L433.0530033135425,582.8339587150358 M433.0530033135425,582.8339587150358 L436.7856660123529,577.954226033507 M436.7856660123529,577.954226033507 L440.6385360603604,573.2550826018906 M440.6385360603604,573.2550826018906 L444.5994673981731,568.7510770534601 M444.5994673981731,568.7510770534601 L448.6559806930011,564.4560408918812 M448.6559806930011,564.4560408918812 L452.79530911973256,560.3831200391053 M452.79530911973256,560.3831200391053 L457.0044449071935,556.5446909277066 M457.0044449071935,556.5446909277066 L461.2701999114228,552.9523288808257 M397.22290529676894,682.4836615685412 L397.2229039592487,696.3835819346589 M522.5063048123817,625.6766240351456 L397.2229039592487,696.3835819346589 M522.5063048123817,625.6766240351456 L521.4016540690451,684.9892716095571 M521.4016540690451,684.9892716095571 L397.22226346222493,756.3801235738713 M397.22226346222493,756.3801235738713 L397.22226346222493,770.3421740325 M397.22226346222493,770.3421740325 L267.6671752478582,845.1408390879503 M267.6671752478582,845.1408390879503 L266.9268604580618,807.9552170318123 M279.5935940408101,800.7237860723469 L266.9268604580618,807.9552170318123 M279.5935940408101,800.7237860723469 L278.91904423675896,763.1514535903302 M266.17803630286545,770.3421740325 L278.91904423675896,763.1514535903302 M266.17803630286545,770.3421740325 L264.13843751558744,667.8942009604782 M277.081834536145,660.819122758581 L264.13843751558744,667.8942009604782 M277.081834536145,660.819122758581 L275.1866621819156,555.2582799917609 M262.03434548856194,562.2067664168244 L275.1866621819156,555.2582799917609 M262.03434548856194,562.2067664168244 L259.86265186145056,453.12373909854193 M273.2307399624936,446.31367798352323 L259.86265186145056,453.12373909854193 M273.2307399624936,446.31367798352323 L271.21109999245266,333.8200059186587 M286.02965949445843,453.1237377317208 L273.2307399624936,446.31367798352323 M282.33861840964875,224.09464223735398 L269.1245756765304,217.60088487108024 M280.3996542329863,103.78191708114741 L266.9677905707383,97.46824736913771 M266.3380800078994,110.12611113888175 L252.90773481837334,103.7819183484869 M251.98853399898576,57.61094522387748 L265.5023947880884,63.88332714033959 M279.6555611809323,57.610943970902554 L266.14015271838656,51.36893138608161 M278.9019284743695,10.848035308251951 L265.30192997590075,4.680038459982143 M410.8287978449516,-46.55133936099975 L397.2222634622249,-52.443141577453844 M410.6604199391183,45.01185602536634 L397.2222634622249,38.97744904587449 M548.0114660010142,-16.957143768046024 L534.5818750629992,-22.70391330239505 M474.1362926561621,10.392174754113285 L473.9475616433939,10.327207074677233 M473.9475616433939,10.327207074677233 L473.72990947515365,10.283974244668116 M473.72990947515365,10.283974244668116 L473.4959853783219,10.264984821228722 M473.4959853783219,10.264984821228722 L473.2593662399884,10.271346224243075 M473.2593662399884,10.271346224243075 L473.03381011112776,10.302683724229666 M473.03381011112776,10.302683724229666 L472.8324086741993,10.357182177304992 M472.8324086741993,10.357182177304992 L472.66686885327334,10.431674805046498 M472.66686885327334,10.431674805046498 L472.54680942159536,10.52183630487633 M472.54680942159536,10.52183630487633 L472.4792161267209,10.622427144523897 M472.4792161267209,10.622427144523897 L472.46801342774313,10.72760811516656 M472.46801342774313,10.72760811516656 L472.5138712817107,10.831260787731594 M472.5138712817107,10.831260787731594 L472.6141201407357,10.927365280331742 M472.6141201407357,10.927365280331742 L472.76294214175766,11.010331904124541 M472.76294214175766,11.010331904124541 L472.9516943506155,11.075334951800983 M472.9516943506155,11.075334951800983 L473.1694012738172,11.118594820356975 M473.1694012738172,11.118594820356975 L473.40340181190265,11.137597054499963 M473.40340181190265,11.137597054499963 L473.6401015700502,11.131231296406156 M473.6401015700502,11.131231296406156 L473.8657240240948,11.099873276740084 M473.8657240240948,11.099873276740084 L474.06716230000575,11.045342837478245 M474.06716230000575,11.045342837478245 L474.23270103319174,10.970814086113933 M474.23270103319174,10.970814086113933 L474.35272169958404,10.880620600313023 M474.35272169958404,10.880620600313023 L474.42024743349873,10.780009240412426 M474.42024743349873,10.780009240412426 L474.4313692504109,10.674823915445756 M474.4313692504109,10.674823915445756 L474.3854357266512,10.571184052228773 M474.3854357266512,10.571184052228773 L474.2851337410215,10.475106598536172 M474.2851337410215,10.475106598536172 L474.1362926561621,10.392174754113285 M479.2703239199866,122.81103069022771 L466.03707535801465,116.76110080582447 M478.6070937098181,123.30692485405149 L465.3741469607745,117.2553040175419 M410.2607850291416,262.70262432913506 L397.2229463014167,256.3508110381342 M410.23181601700963,278.4550267421739 L397.2229447877377,272.0814272695048 M543.3071772446326,212.95746827346312 L530.306089171816,206.87831727789145 M471.7113617306799,241.8766893024083 L471.5286411236396,241.8080157019599 M471.5286411236396,241.8080157019599 L471.3178907813398,241.76231670021977 M471.3178907813398,241.76231670021977 L471.09135896579994,241.74224402935386 M471.09135896579994,241.74224402935386 L470.8621937128081,241.74896831824276 M470.8621937128081,241.74896831824276 L470.643719887316,241.78209344858493 M470.643719887316,241.78209344858493 L470.44861827188964,241.83970067418502 M470.44861827188964,241.83970067418502 L470.2882296941974,241.91844248197862 M470.2882296941974,241.91844248197862 L470.1718736064195,242.01374674422595 M470.1718736064195,242.01374674422595 L470.10632016727686,242.12007497747354 M470.10632016727686,242.12007497747354 L470.0953752248477,242.2312548637807 M470.0953752248477,242.2312548637807 L470.13969295451955,242.34081900171168 M470.13969295451955,242.34081900171168 L470.23669325404944,242.44240422304523 M470.23669325404944,242.44240422304523 L470.38074666032196,242.53010214241044 M470.38074666032196,242.53010214241044 L470.56348713687015,242.59881195927963 M470.56348713687015,242.59881195927963 L470.77428881147574,242.64453864047866 M470.77428881147574,242.64453864047866 L471.0008923122411,242.66462442570838 M471.0008923122411,242.66462442570838 L471.2301331849469,242.65789567850896 M471.2301331849469,242.65789567850896 L471.44866923716916,242.62474954209594 M471.44866923716916,242.62474954209594 L471.64380543350984,242.56710957212027 M471.64380543350984,242.56710957212027 L471.80419302314624,242.48833078444233 M471.80419302314624,242.48833078444233 L471.9205127802392,242.39299377803968 M471.9205127802392,242.39299377803968 L471.9860028701264,242.2866445381345 M471.9860028701264,242.2866445381345 L471.99687195462366,242.1754601942897 M471.99687195462366,242.1754601942897 L471.9524832404886,242.06590916933487 M471.9524832404886,242.06590916933487 L471.8554330877817,241.9643516278299 M471.8554330877817,241.9643516278299 L471.7113617306799,241.8766893024083 M476.7178308071034,347.7285911128206 L463.90101224210935,341.36770682318695 M476.07500727380767,348.22915448347766 L463.2584730245426,341.8665937130683 M409.8562892775566,482.6541996300001 L397.2229251644516,476.01262175690636 M409.8290879732602,497.44538027106364 L397.22292374293744,490.78543261493746 M538.8875353972986,428.9604165010296 L526.2884644026208,422.5989542836744 M469.43466314916566,459.21090710485225 L469.25758197765236,459.139095107123 M469.25758197765236,459.139095107123 L469.0533092089282,459.09130759139225 M469.0533092089282,459.09130759139225 L468.83371677854257,459.07031755361913 M468.83371677854257,459.07031755361913 L468.61155013346354,459.07734915890757 M468.61155013346354,459.07734915890757 L468.399727398559,459.1119881732137 M468.399727398559,459.1119881732137 L468.2105434645247,459.1722281024769 M468.2105434645247,459.1722281024769 L468.0549952640713,459.2545683597431 M468.0549952640713,459.2545683597431 L467.9421209921571,459.35422777297845 M467.9421209921571,459.35422777297845 L467.87848812146217,459.4654146753055 M467.87848812146217,459.4654146753055 L467.8677908362805,459.58167464723874 M467.8677908362805,459.58167464723874 L467.9106681785147,459.69624476343574 M467.9106681785147,459.69624476343574 L468.00462371081494,459.80247115871606 M468.00462371081494,459.80247115871606 L468.1442045583405,459.89417558399987 M468.1442045583405,459.89417558399987 L468.32130439468705,459.9660243052691 M468.32130439468705,459.9660243052691 L468.52562538421535,460.01383988042727 M468.52562538421535,460.01383988042727 L468.74528517423863,460.0348432125914 M468.74528517423863,460.0348432125914 L468.9675228900717,460.02780708779073 M468.9675228900717,460.02780708779073 L469.1794041217188,459.99314677905403 M469.1794041217188,459.99314677905403 L469.3686205799953,459.932873655918 M469.3686205799953,459.932873655918 L469.524167880259,459.8504959111274 M469.524167880259,459.8504959111274 L469.63700803376497,459.7508033042427 M469.63700803376497,459.7508033042427 L469.7005813850165,459.6395951068898 M469.7005813850165,459.6395951068898 L469.7112073824106,459.5233306162286 M469.7112073824106,459.5233306162286 L469.6682633189833,459.4087737930156 M469.6682633189833,459.4087737930156 L469.57426091347094,459.3025754575374 M469.57426091347094,459.3025754575374 L469.43466314916566,459.21090710485225 M474.3193604263592,559.0741591224028 L461.89356639209564,552.4502332606803 M473.69572569366665,559.577910320091 L461.2701999114228,552.9523288808257 M409.47613585384346,689.3692122700284 L397.22290529676894,682.4836615685412 M409.4505452089687,703.2845689359647 L397.2229039592487,696.3835819346589 M534.727463554035,632.2772946606223 L522.5063048123817,625.6766240351456 M467.29300795008896,663.6538497381638 L467.1212285585634,663.57938693391 M467.1212285585634,663.57938693391 L466.9230470621063,663.5298353718082 M466.9230470621063,663.5298353718082 L466.70998150494756,663.50807048497 M466.70998150494756,663.50807048497 L466.4943986669232,663.5153616635904 M466.4943986669232,663.5153616635904 L466.28883402867,663.5512793702084 M466.28883402867,663.5512793702084 L466.10521938140903,663.6137429854766 M466.10521938140903,663.6137429854766 L465.9542280042751,663.6991226151614 M465.9542280042751,663.6991226151614 L465.8446333117379,663.8024605043909 M465.8446333117379,663.8024605043909 L465.78281186900847,663.9177511258524 M465.78281186900847,663.9177511258524 L465.77235255187713,664.0383017823976 M465.77235255187713,664.0383017823976 L465.8138798865975,664.157099944566 M465.8138798865975,664.157099944566 L465.90497586134325,664.2672462307166 M465.90497586134325,664.2672462307166 L466.04035345431356,664.3623344801559 M466.04035345431356,664.3623344801559 L466.2121504133834,664.4368342438081 M466.2121504133834,664.4368342438081 L466.41037729369447,664.4864140378936 M466.41037729369447,664.4864140378936 L466.6235062649254,664.5081923008792 M466.6235062649254,664.5081923008792 L466.83915602319877,664.5008965749528 M466.83915602319877,664.5008965749528 L467.044775753793,664.4649574429504 M467.044775753793,664.4649574429504 L467.2284210467666,664.4024604296777 M467.2284210467666,664.4024604296777 L467.37941160146016,664.3170430819323 M467.37941160146016,664.3170430819323 L467.4889741918066,664.2136717949232 M467.4889741918066,664.2136717949232 L467.55073960782465,664.0983597474782 M467.55073960782465,664.0983597474782 L467.5611318064183,663.977804544416 M467.5611318064183,663.977804544416 L467.519541640928,663.8590197569795 M467.519541640928,663.8590197569795 L467.4284015135291,663.7489017031897 M467.4284015135291,663.7489017031897 L467.29300795008896,663.6538497381638 M533.5125358588531,691.6549485763792 L521.4016540690451,684.9892716095571 M397.22226346222493,756.3801235738713 L409.3394563090224,763.3463094805788 M467.59864226878943,722.8008578817185 L467.93409000641816,723.0407111751317 M467.93409000641816,723.0407111751317 L468.15993684596225,723.3186087975023 M468.15993684596225,723.3186087975023 L468.2630353591348,723.618415835969 M468.2630353591348,723.618415835969 L468.2373552825331,723.9227175410351 M468.2373552825331,723.9227175410351 L468.0843625412194,724.2138226625723 M468.0843625412194,724.2138226625723 L467.8129095684642,724.4748072493045 M467.8129095684642,724.4748072493045 L467.43876671217504,724.6904790097294 M467.43876671217504,724.6904790097294 L466.9836638775147,724.8482914743572 M466.9836638775147,724.8482914743572 L466.4740781560823,724.9390487324531 M466.4740781560823,724.9390487324531 L465.9396442615898,724.9574703290466 M465.9396442615898,724.9574703290466 L465.41146348661385,724.9024782192998 M465.41146348661385,724.9024782192998 L464.92026201502057,724.7772787104291 M464.92026201502057,724.7772787104291 L464.49460981625776,724.5891624194006 M464.49460981625776,724.5891624194006 L464.1592570110553,724.3490804324596 M464.1592570110553,724.3490804324596 L463.9336806476996,724.071005903915 M463.9336806476996,724.071005903915 L463.83096847879335,723.7711155595653 M463.83096847879335,723.7711155595653 L463.8570602800728,723.4668421175398 M463.8570602800728,723.4668421175398 L464.01039694412873,723.1758709955224 M464.01039694412873,723.1758709955224 L464.2820469505594,722.9150952792204 M464.2820469505594,722.9150952792204 L464.65619481067995,722.6996594047466 M464.65619481067995,722.6996594047466 L465.1111094731593,722.542055810901 M465.1111094731593,722.542055810901 L465.6203569568039,722.451432550762 M465.6203569568039,722.451432550762 L466.1543803329077,722.4330395600257 M466.1543803329077,722.4330395600257 L466.6821712147707,722.487947680375 M466.6821712147707,722.487947680375 L467.1730947193018,722.6129709651361 M467.1730947193018,722.6129709651361 L467.59864226878943,722.8008578817185 M409.3137538483176,777.3231992618144 L397.22226346222493,770.3421740325 M279.753002664179,852.4431415774538 L267.6671752478582,845.1408390879503 M266.9268604580618,807.9552170318123 L279.0802851432461,815.2182029581359 M291.74813626745055,807.9552155805904 L279.5935940408101,800.7237860723469 M291.14196312291875,770.3421725894302 L278.91904423675896,763.1514535903302 M278.3998182686034,777.5644525311698 L266.17803630286545,770.3421740325 M264.13843751558744,667.8942009604782 L276.54632007195835,675.000814073464 M289.4909079294177,667.8941995405678 L277.081834536145,660.819122758581 M287.78764545914885,562.2067650222709 L275.1866621819156,555.2582799917609 M274.63408054860804,569.1867142958386 L262.03434548856194,562.2067664168244 M259.86265186145056,453.12373909854193 L272.66026204944137,459.96513140133857 M474.1362926561621,10.392174754113285 L474.2967177939358,-4.922049147537052 M474.2967177939358,-4.922049147537052 L474.44587460469904,-4.839447121676017 M474.44587460469904,-4.839447121676017 L474.54639192607306,-4.743751752297953 M474.54639192607306,-4.743751752297953 L474.59242787106393,-4.640524030872598 M474.59242787106393,-4.640524030872598 L474.58128955912474,-4.535756975464608 M474.58128955912474,-4.535756975464608 L474.51362936825507,-4.435545679751499 M474.51362936825507,-4.435545679751499 L474.3933640532033,-4.345710819085355 M474.3933640532033,-4.345710819085355 L474.2274846940298,-4.271478397045655 M474.2274846940298,-4.271478397045655 L474.02562960626335,-4.21716476723617 M474.02562960626335,-4.21716476723617 L473.79953840209396,-4.185931422790134 M473.79953840209396,-4.185931422790134 L473.56234519818514,-4.179590973887343 M473.56234519818514,-4.179590973887343 L473.32785525257646,-4.198517658123876 M473.32785525257646,-4.198517658123876 L473.10969140656846,-4.241605530007291 M473.10969140656846,-4.241605530007291 L472.92054134240794,-4.306350126650557 M472.92054134240794,-4.306350126650557 L472.7714036915841,-4.388986866454502 M472.7714036915841,-4.388986866454502 L472.67093971698773,-4.4847092233982835 M472.67093971698773,-4.4847092233982835 L472.62497975700876,-4.587949729848958 M472.62497975700876,-4.587949729848958 L472.6361992890845,-4.69271243920133 M472.6361992890845,-4.69271243920133 L472.7039273243702,-4.792903253625241 M472.7039273243702,-4.792903253625241 L472.8242315686249,-4.882706189055625 M472.8242315686249,-4.882706189055625 L472.9901120223597,-4.956902556064335 M472.9901120223597,-4.956902556064335 L473.1919301193067,-5.011184260423477 M473.1919301193067,-5.011184260423477 L473.41795472258553,-5.0423971241530126 M473.41795472258553,-5.0423971241530126 L473.6550669702539,-5.048733226245815 M473.6550669702539,-5.048733226245815 L473.88948015455105,-5.0298193283877595 M473.88948015455105,-5.0298193283877595 L474.1075890152132,-4.986758443709505 M474.1075890152132,-4.986758443709505 L474.2967177939358,-4.922049147537052 M471.7113617306799,241.8766893024083 L471.86182127039604,227.51378389163986 M471.86182127039604,227.51378389163986 L472.0061884284378,227.60116662144227 M472.0061884284378,227.60116662144227 L472.1034401777831,227.70240026307533 M472.1034401777831,227.70240026307533 L472.1479245595293,227.81160191120728 M472.1479245595293,227.81160191120728 L472.1370396082078,227.92243168718437 M472.1370396082078,227.92243168718437 L472.07142303602956,228.0284417952725 M472.07142303602956,228.0284417952725 L471.9548734913816,228.12347480023652 M471.9548734913816,228.12347480023652 L471.7941661602996,228.2020023957216 M471.7941661602996,228.2020023957216 L471.5986388466591,228.25945858197264 M471.5986388466591,228.25945858197264 L471.3796630537549,228.29249903488176 M471.3796630537549,228.29249903488176 L471.14995937295356,228.29920632826557 M471.14995937295356,228.29920632826557 L470.92289694565716,228.27918458438495 M470.92289694565716,228.27918458438495 L470.7116669000429,228.23360369994603 M470.7116669000429,228.23360369994603 L470.5285535291346,228.16511296590642 M470.5285535291346,228.16511296590642 L470.3842043912742,228.077694683369 M470.3842043912742,228.077694683369 L470.2870026952287,227.97643339444136 M470.2870026952287,227.97643339444136 L470.2425895843199,227.86721864874585 M470.2425895843199,227.86721864874585 L470.2535507006097,227.75639332506685 M470.2535507006097,227.75639332506685 L470.3192308793872,227.65040419894635 M470.3192308793872,227.65040419894635 L470.4358169034279,227.55540389965105 M470.4358169034279,227.55540389965105 L470.5965252285659,227.47691324058542 M470.5965252285659,227.47691324058542 L470.79201782320985,227.4194897602232 M470.79201782320985,227.4194897602232 L471.0109311388568,227.3864702886952 M471.0109311388568,227.3864702886952 L471.2405588943544,227.37976744838198 M471.2405588943544,227.37976744838198 L471.4675493457956,227.3997760933126 M471.4675493457956,227.3997760933126 L471.6787278499991,227.44532933082624 M471.6787278499991,227.44532933082624 L471.86182127039604,227.51378389163986 M469.43466314916566,459.21090710485225 L469.5760569144582,445.7134227951111 M469.5760569144582,445.7134227951111 L469.71593238120056,445.8048546320495 M469.71593238120056,445.8048546320495 L469.8101239165875,445.9107789763902 M469.8101239165875,445.9107789763902 L469.85315753813256,446.02504026018534 M469.85315753813256,446.02504026018534 L469.84251628017967,446.1410048234901 M469.84251628017967,446.1410048234901 L469.77882373439405,446.25192615377864 M469.77882373439405,446.25192615377864 L469.665767342108,446.3513616124151 M469.665767342108,446.3513616124151 L469.5099193233564,446.4335268809398 M469.5099193233564,446.4335268809398 L469.3203351396537,446.4936445477205 M469.3203351396537,446.4936445477205 L469.1080405670091,446.52821546279364 M469.1080405670091,446.52821546279364 L468.8853679157096,446.5352334406611 M468.8853679157096,446.5352334406611 L468.6652769209918,446.51428427857354 M468.6652769209918,446.51428427857354 L468.46055351950025,446.4665920275929 M468.46055351950025,446.4665920275929 L468.2831034743322,446.3949286215449 M468.2831034743322,446.3949286215449 L468.14324498774806,446.30346073397203 M468.14324498774806,446.30346073397203 L468.0491005080074,446.19750834740995 M468.0491005080074,446.19750834740995 L468.0061338685973,446.08323377895937 M468.0061338685973,446.08323377895937 L468.01684669402334,445.9672737315513 M468.01684669402334,445.9672737315513 L468.0805989935939,445.85637368294647 M468.0805989935939,445.85637368294647 L468.1936896396109,445.75697139716254 M468.1936896396109,445.75697139716254 L468.34953856385084,445.67484359267485 M468.34953856385084,445.67484359267485 L468.53909009737225,445.61475909896956 M468.53909009737225,445.61475909896956 L468.75132594495267,445.5802094649853 M468.75132594495267,445.5802094649853 L468.9739272470902,445.57319600379856 M468.9739272470902,445.57319600379856 L469.19395061747053,445.59413187982443 M469.19395061747053,445.59413187982443 L469.39862560779136,445.64179608895796 M469.39862560779136,445.64179608895796 L469.5760569144582,445.7134227951111 M467.29300795008896,663.6538497381638 L467.4261313989687,650.945851908167 M467.4261313989687,650.945851908167 L467.56178617780256,651.040704423834 M467.56178617780256,651.040704423834 L467.6531040894113,651.1505914282527 M467.6531040894113,651.1505914282527 L467.69477826898157,651.2691269979916 M467.69477826898157,651.2691269979916 L467.6843713926852,651.3894292860944 M467.6843713926852,651.3894292860944 L467.6224934588257,651.5044994344843 M467.6224934588257,651.5044994344843 L467.51272701494514,651.6076538849588 M467.51272701494514,651.6076538849588 L467.3614531162638,651.6928920668081 M467.3614531162638,651.6928920668081 L467.1774614521267,651.7552579958974 M467.1774614521267,651.7552579958974 L466.9714524720449,651.7911217495753 M466.9714524720449,651.7911217495753 L466.75539320644543,651.7984021737172 M466.75539320644543,651.7984021737172 L466.5418583140208,651.7766695878386 M466.5418583140208,651.7766695878386 L466.34325269046,651.7271937831039 M466.34325269046,651.7271937831039 L466.17112619911006,651.6528502817971 M466.17112619911006,651.6528502817971 L466.035487448819,651.5579614884014 M466.035487448819,651.5579614884014 L465.94421385663367,651.4480462573215 M465.94421385663367,651.4480462573215 L465.9026027462679,651.329497315551 M465.9026027462679,651.329497315551 L465.9130769965911,651.2091995730473 M465.9130769965911,651.2091995730473 L465.97501117116303,651.0941508463152 M465.97501117116303,651.0941508463152 L466.08480984073117,650.9910297868779 M466.08480984073117,650.9910297868779 L466.2360845665497,650.9058293154744 M466.2360845665497,650.9058293154744 L466.4200454697955,650.8434967776471 M466.4200454697955,650.8434967776471 L466.62599914887136,650.8076544450282 M466.62599914887136,650.8076544450282 L466.841991239865,650.800378567274 M466.841991239865,650.800378567274 L467.0554624764517,650.8220977797058 M467.0554624764517,650.8220977797058 L467.25402254235695,650.8715453581564 M467.25402254235695,650.8715453581564 L467.4261313989687,650.945851908167 M467.59864226878943,722.8008578817185 L467.5831339037914,724.2618271691895 M467.5831339037914,724.2618271691895 L467.9185065690749,724.501735613803 M467.9185065690749,724.501735613803 L468.14430229761274,724.7796971254045 M468.14430229761274,724.7796971254045 L468.247376641383,725.0795730783518 M468.247376641383,725.0795730783518 L468.22170075733726,725.3839447185632 M468.22170075733726,725.3839447185632 L468.06874034051907,725.6751167306057 M468.06874034051907,725.6751167306057 L467.7973459607176,725.9361612769172 M467.7973459607176,725.9361612769172 L467.42328456568583,726.151882579597 M467.42328456568583,726.151882579597 L466.9682813295829,726.3097312915364 M466.9682813295829,726.3097312915364 L466.4588075460623,726.4005093937697 M466.4588075460623,726.4005093937697 L465.9244914127746,726.418935221098 M465.9244914127746,726.418935221098 L465.39642736148306,726.3639304816343 M465.39642736148306,726.3639304816343 L464.90533477844036,726.2387022173905 M464.90533477844036,726.2387022173905 L464.4797772944708,726.0505427164832 M464.4797772944708,726.0505427164832 L464.1444995209697,725.8104055762767 M464.1444995209697,725.8104055762767 L463.91897415008776,725.5322671567708 M463.91897415008776,725.5322671567708 L463.8162859808065,725.2323078972362 M463.8162859808065,725.2323078972362 L463.8423734078431,724.9279645202924 M463.8423734078431,724.9279645202924 L463.9956775951763,724.6369265090234 M463.9956775951763,724.6369265090234 L464.26726892082473,724.3760908350965 M464.26726892082473,724.3760908350965 L464.6413353163798,724.1606054205753 M464.6413353163798,724.1606054205753 L465.0961504622718,724.0029655813726 M465.0961504622718,724.0029655813726 L465.6052861564733,723.9123214783499 M465.6052861564733,723.9123214783499 L466.13919195226157,723.8939242571842 M466.13919195226157,723.8939242571842 L466.66686628256366,723.9488450063891 M466.66686628256366,723.9488450063891 L467.1576810220293,724.0738970449497 M467.1576810220293,724.0738970449497 L467.5831339037914,724.2618271691895 M475.3284082910554,-5.383625734049076 L475.70133721820025,-5.17718759238835 M475.70133721820025,-5.17718759238835 L475.95273277788306,-4.938001072467898 M475.95273277788306,-4.938001072467898 L476.06795754772725,-4.679952067197519 M476.06795754772725,-4.679952067197519 L476.04026830265,-4.4180290680451435 M476.04026830265,-4.4180290680451435 L475.87124050742204,-4.167459772595464 M475.87124050742204,-4.167459772595464 L475.5706506062765,-3.9428125857348277 M475.5706506062765,-3.9428125857348277 L475.1559595437062,-3.7571662342376158 M475.1559595437062,-3.7571662342376158 L474.65125211522985,-3.621322400221743 M474.65125211522985,-3.621322400221743 L474.0858932389318,-3.543198547879456 M474.0858932389318,-3.543198547879456 L473.49276460882,-3.5273411779744492 M473.49276460882,-3.5273411779744492 L472.9063875191863,-3.5746785052101018 M472.9063875191863,-3.5746785052101018 L472.36087772683595,-3.682449856118069 M472.36087772683595,-3.682449856118069 L471.88796689186177,-3.844378060867882 M471.88796689186177,-3.844378060867882 L471.5151541726025,-4.051034705050711 M471.5151541726025,-4.051034705050711 L471.2640913537203,-4.290390190668859 M471.2640913537203,-4.290390190668859 L471.1493421724488,-4.548518810063115 M471.1493421724488,-4.548518810063115 L471.1775387012627,-4.810414793486473 M471.1775387012627,-4.810414793486473 L471.34699052782224,-5.060856079585278 M471.34699052782224,-5.060856079585278 L471.64782373618624,-5.28530373312941 M471.64782373618624,-5.28530373312941 L472.06252163972,-5.470724743457822 M472.06252163972,-5.470724743457822 L472.5669978759234,-5.606369043814425 M472.5669978759234,-5.606369043814425 L473.1319404930389,-5.684364888291441 M473.1319404930389,-5.684364888291441 L473.72456348857645,-5.7001949472305 M473.72456348857645,-5.7001949472305 L474.3104601378454,-5.652937822570607 M474.3104601378454,-5.652937822570607 L474.85562694829184,-5.545334850306119 M474.85562694829184,-5.545334850306119 L475.3284082910554,-5.383625734049076 M472.8613575320919,227.02548959944443 L473.22231016416004,227.2438778196353 M473.22231016416004,227.2438778196353 L473.46553555259993,227.49690870659975 M473.46553555259993,227.49690870659975 L473.57687281259643,227.76989215494723 M473.57687281259643,227.76989215494723 L473.54980735844487,228.0469719933107 M473.54980735844487,228.0469719933107 L473.38588080166915,228.31203941130696 M473.38588080166915,228.31203941130696 L473.0945757170707,228.54968343050217 M473.0945757170707,228.54968343050217 L472.6928143694964,228.7460692319197 M472.6928143694964,228.7460692319197 L472.2039306480614,228.88977091149272 M472.2039306480614,228.88977091149272 L471.6563682229205,228.972413592445 M471.6563682229205,228.972413592445 L471.08197264571237,228.98918816225944 M471.08197264571237,228.98918816225944 L470.51417358874596,228.9391127954623 M470.51417358874596,228.9391127954623 L469.9860046660357,228.8251076170351 M469.9860046660357,228.8251076170351 L469.52818793328515,228.65381240511766 M469.52818793328515,228.65381240511766 L469.1673444990371,228.43520035078342 M469.1673444990371,228.43520035078342 L468.9244312888862,228.18199635783253 M468.9244312888862,228.18199635783253 L468.81354013179174,227.9089313589557 M468.81354013179174,227.9089313589557 L468.8410812859802,227.63187919183105 M468.8410812859802,227.63187919183105 L469.00540538749857,227.3669429124574 M469.00540538749857,227.3669429124574 L469.2969384680182,227.1295033042989 M469.2969384680182,227.1295033042989 L469.69870602840064,226.93334835265944 M469.69870602840064,226.93334835265944 L470.18737275643423,226.78985108447165 M470.18737275643423,226.78985108447165 L470.73454469532453,226.7073395406177 M470.73454469532453,226.7073395406177 L471.30846607023057,226.6905929543089 M471.30846607023057,226.6905929543089 L471.87581461800835,226.74058614811514 M471.87581461800835,226.74058614811514 L472.4036620616895,226.85441884158965 M472.4036620616895,226.85441884158965 L472.8613575320919,227.02548959944443 M470.54538229400026,445.2024988334535 L470.8951037228079,445.43100879558574 M470.8951037228079,445.43100879558574 L471.1306728935224,445.69576563376074 M471.1306728935224,445.69576563376074 L471.2383754345485,445.9813980002517 M471.2383754345485,445.9813980002517 L471.21191046933325,446.2713147894633 M471.21191046933325,446.2713147894633 L471.0527868841129,446.54866095426314 M471.0527868841129,446.54866095426314 L470.7702104925348,446.7973119903354 M470.7702104925348,446.7973119903354 L470.3805971032058,447.0027928477771 M470.3805971032058,447.0027928477771 L469.90657509688685,447.15314909667984 M469.90657509688685,447.15314909667984 L469.37572293700737,447.2396185951933 M469.37572293700737,447.2396185951933 L468.8189133368774,447.25716990180763 M468.8189133368774,447.25716990180763 L468.2685512681675,447.2047758045328 M468.2685512681675,447.2047758045328 L467.75665474138884,447.08549141959094 M467.75665474138884,447.08549141959094 L467.31299846982915,446.9062635175308 M467.31299846982915,446.9062635175308 L466.9633798450825,446.6775265338553 M466.9633798450825,446.6775265338553 L466.72810413769525,446.41259410701224 M466.72810413769525,446.41259410701224 L466.62082087448607,446.12687903503803 M466.62082087448607,446.12687903503803 L466.6477328157976,445.8369903073583 M466.6477328157976,445.8369903073583 L466.8072298654579,445.5597771544278 M466.8072298654579,445.5597771544278 L467.09002034258555,445.311333449297 M467.09002034258555,445.311333449297 L467.47963939117733,445.10608673919984 M467.47963939117733,445.10608673919984 L467.9534573341709,444.95593782159017 M467.9534573341709,444.95593782159017 L468.4839424592113,444.86960133339767 M468.4839424592113,444.86960133339767 L469.0403064475376,444.8520784149949 M469.0403064475376,444.8520784149949 L469.59024522473385,444.90438915552915 M469.59024522473385,444.90438915552915 L470.10183981611544,445.0234986016161 M470.10183981611544,445.0234986016161 L470.54538229400026,445.2024988334535 M468.3670182738875,650.4158098888888 L468.7061861748579,650.6528710437142 M468.7061861748579,650.6528710437142 L468.9345660968636,650.9275341311238 M468.9345660968636,650.9275341311238 L469.03886290585694,651.223852200485 M469.03886290585694,651.223852200485 L469.0129759151803,651.5246132418777 M469.0129759151803,651.5246132418777 L468.8583823950105,651.8123318235425 M468.8583823950105,651.8123318235425 L468.5840270582432,652.070280753742 M468.5840270582432,652.070280753742 L468.2058486750102,652.283444258269 M468.2058486750102,652.283444258269 L467.7458115205316,652.4394215649083 M467.7458115205316,652.4394215649083 L467.23067993057845,652.5291235067261 M467.23067993057845,652.5291235067261 L466.6904114550665,652.5473309055368 M466.6904114550665,652.5473309055368 L466.1564473158011,652.4929782252325 M466.1564473158011,652.4929782252325 L465.6598505053337,652.3692345684829 M465.6598505053337,652.3692345684829 L465.2295050696772,652.1833059382038 M465.2295050696772,652.1833059382038 L464.8904341251549,651.9460162786861 M464.8904341251549,651.9460162786861 L464.6623305842268,651.6711764377067 M464.6623305842268,651.6711764377067 L464.5584285777967,651.374775128909 M464.5584285777967,651.374775128909 L464.58473634530134,651.0740423286059 M464.58473634530134,651.0740423286059 L464.73968137301364,650.7864576336574 M464.73968137301364,650.7864576336574 L465.0142381200723,650.528717398058 M465.0142381200723,650.528717398058 L465.39242167287665,650.3157895809102 M465.39242167287665,650.3157895809102 L465.85226657207386,650.1600209692233 M465.85226657207386,650.1600209692233 L466.3670525277388,650.0704529125612 M466.3670525277388,650.0704529125612 L466.90690147266656,650.0522740936863 M466.90690147266656,650.0522740936863 L467.44046714297457,650.1065428589778 M467.44046714297457,650.1065428589778 L467.93677983337415,650.2301104362839 M467.93677983337415,650.2301104362839 L468.3670182738875,650.4158098888888 M466.65248600980135,724.79823486144 L466.78662294988754,724.8942263238439 M466.78662294988754,724.8942263238439 L466.8769079162453,725.0054327233333 M466.8769079162453,725.0054327233333 L466.91809411407553,725.1253914348313 M466.91809411407553,725.1253914348313 L466.90777280574736,725.2471379749411 M466.90777280574736,725.2471379749411 L466.8465490240352,725.3635894672668 M466.8465490240352,725.3635894672668 L466.7379675006103,725.4679821421523 M466.7379675006103,725.4679821421523 L466.58834043867546,725.5542434322889 M466.58834043867546,725.5542434322889 L466.4063618405731,725.6173579031531 M466.4063618405731,725.6173579031531 L466.20261505345246,725.6536520961063 M466.20261505345246,725.6536520961063 L465.9889356452248,725.6610198993027 M465.9889356452248,725.6610198993027 L465.7777597055867,725.6390264796037 M465.7777597055867,725.6390264796037 L465.5813550303642,725.5889568554103 M465.5813550303642,725.5889568554103 L465.4111434452336,725.5137210347309 M465.4111434452336,725.5137210347309 L465.2770221975901,725.4176932674538 M465.2770221975901,725.4176932674538 L465.1867805858068,725.306458617257 M465.1867805858068,725.306458617257 L465.14565607780725,725.186486522336 M465.14565607780725,725.186486522336 L465.1560432821865,725.0647445316974 M465.1560432821865,725.0647445316974 L465.2173220666976,724.9483144792786 M465.2173220666976,724.9483144792786 L465.3259351014979,724.8439552238757 M465.3259351014979,724.8439552238757 L465.4755629635223,724.7577316763104 M465.4755629635223,724.7577316763104 L465.65751146714564,724.6946506251537 M465.65751146714564,724.6946506251537 L465.86120416044497,724.6583778715079 M465.86120416044497,724.6583778715079 L466.0748178655214,724.6510146185724 M466.0748178655214,724.6510146185724 L466.2859315478787,724.6729946534319 M466.2859315478787,724.6729946534319 L466.4822916707854,724.7230360272952 M466.4822916707854,724.7230360272952 L466.65248600980135,724.79823486144 M475.347519341061,-7.1839868367788995 L475.7205410929425,-6.9776459699413635 M475.7205410929425,-6.9776459699413635 L475.972000001475,-6.7385721457025625 M475.972000001475,-6.7385721457025625 L476.0872549491624,-6.4806447109311875 M476.0872549491624,-6.4806447109311875 L476.05956093577834,-6.218845094129733 M476.05956093577834,-6.218845094129733 L475.89049368428465,-5.968393820230119 M475.89049368428465,-5.968393820230119 L475.58983191157165,-5.743852434874327 M475.58983191157165,-5.743852434874327 L475.1750407317462,-5.558293509353632 M475.1750407317462,-5.558293509353632 L474.67021075472456,-5.4225136436921275 M474.67021075472456,-5.4225136436921275 L474.10471403345105,-5.344426577954664 M474.10471403345105,-5.344426577954664 L473.5114402877991,-5.328576674751389 M473.5114402877991,-5.328576674751389 L472.92491926864324,-5.375891712288819 M472.92491926864324,-5.375891712288819 L472.37927511679186,-5.483612315341816 M472.37927511679186,-5.483612315341816 L471.9062473151278,-5.645464266368776 M471.9062473151278,-5.645464266368776 L471.5333418262346,-5.85202358632381 M471.5333418262346,-5.85202358632381 L471.2822158203118,-6.091266337928403 M471.2822158203118,-6.091266337928403 L471.1674366932746,-6.349273368867614 M471.1674366932746,-6.349273368867614 L471.1956382390296,-6.6110459760219555 M471.1956382390296,-6.6110459760219555 L471.3651297303998,-6.861369269556064 M471.3651297303998,-6.861369269556064 L471.6660349309307,-7.08571116677706 M471.6660349309307,-7.08571116677706 L472.0808329567439,-7.271044802154222 M472.0808329567439,-7.271044802154222 L472.585431629791,-7.406625179338619 M472.585431629791,-7.406625179338619 L473.15051188904533,-7.484584266196123 M473.15051188904533,-7.484584266196123 L473.74327975269955,-7.500406864653883 M473.74327975269955,-7.500406864653883 L474.32932009584994,-7.453172011459571 M474.32932009584994,-7.453172011459571 L474.87462109646685,-7.345619748994807 M474.87462109646685,-7.345619748994807 L475.347519341061,-7.1839868367788995 M475.347519341061,-7.1839868367788995 L475.3284082910554,-5.383625734049076 M472.87928023166296,225.33707733773625 L473.24031982310964,225.5553830878256 M473.24031982310964,225.5553830878256 L473.4836045124112,225.80831843283562 M473.4836045124112,225.80831843283562 L473.5949699561276,226.08119881771688 M473.5949699561276,226.08119881771688 L473.5678999112094,226.35817405918158 M473.5678999112094,226.35817405918158 L473.40393623886365,226.62314142732285 M473.40393623886365,226.62314142732285 L473.11256365231964,226.86069575793937 M473.11256365231964,226.86069575793937 L472.71070833286643,227.05700744927614 M472.71070833286643,227.05700744927614 L472.2217096271452,227.20065490438088 M472.2217096271452,227.20065490438088 L471.6740178994988,227.28326640251203 M471.6740178994988,227.28326640251203 L471.09948622954255,227.30003464307237 M471.09948622954255,227.30003464307237 L470.53155221974106,227.2499781704786 M470.53155221974106,227.2499781704786 L470.00325734461273,227.13601600956466 M470.00325734461273,227.13601600956466 L469.5453309927335,226.96478543659106 M469.5453309927335,226.96478543659106 L469.1844006492941,226.7462558837508 M469.1844006492941,226.7462558837508 L468.94142828533427,226.49314745716288 M468.94142828533427,226.49314745716288 L468.8305091553409,226.22018553314297 M468.8305091553409,226.22018553314297 L468.85805512607783,225.9432379590642 M468.85805512607783,225.9432379590642 L469.02241653247796,225.67840171111015 M469.02241653247796,225.67840171111015 L469.3140172243398,225.4410517627946 M469.3140172243398,225.4410517627946 L469.71587876101995,225.24497088878306 M469.71587876101995,225.24497088878306 L470.2046603717684,225.10152781632797 M470.2046603717684,225.10152781632797 L470.7519614288728,225.01904743686012 M470.7519614288728,225.01904743686012 L471.32601867181006,225.00230717583491 M471.32601867181006,225.00230717583491 L471.8935019584683,225.05228148706317 M471.8935019584683,225.05228148706317 L472.42147520089975,225.1660711871983 M472.42147520089975,225.1660711871983 L472.87928023166296,225.33707733773625 M472.87928023166296,225.33707733773625 L472.8613575320919,227.02548959944443 M470.56222413240454,443.6159093602116 L470.9120271939612,443.84434954977166 M470.9120271939612,443.84434954977166 L471.14765199325194,444.10902555796844 M471.14765199325194,444.10902555796844 L471.25538091456946,444.39457073337553 M471.25538091456946,444.39457073337553 L471.2289115305092,444.68439903657463 M471.2289115305092,444.68439903657463 L471.06975296859,444.9616605642442 M471.06975296859,444.9616605642442 L470.7871130581765,445.21023573014213 M470.7871130581765,445.21023573014213 L470.3974112935095,445.41565389702635 M470.3974112935095,445.41565389702635 L469.92328118787293,445.56596427758814 M469.92328118787293,445.56596427758814 L469.3923074978097,445.6524073989204 M469.3923074978097,445.6524073989204 L468.8353700116503,445.6699533517189 M468.8353700116503,445.6699533517189 L468.28488115246114,445.6175752367773 M468.28488115246114,445.6175752367773 L467.7728663153011,445.4983272400156 M467.7728663153011,445.4983272400156 L467.3291071010339,445.3191540162884 M467.3291071010339,445.3191540162884 L466.97940688937746,445.09048682225813 M466.97940688937746,445.09048682225813 L466.74407568745124,444.825635238731 M466.74407568745124,444.825635238731 L466.6367662360339,444.5400073640128 M466.6367662360339,444.5400073640128 L466.66368280183656,444.2502071202636 M466.66368280183656,444.2502071202636 L466.8232150005682,443.9730785944164 M466.8232150005682,443.9730785944164 L467.1060690960709,443.7247107437994 M467.1060690960709,443.7247107437994 L467.4957765239024,443.51952670657386 M467.4957765239024,443.51952670657386 L467.9697024735838,443.3694236416444 M467.9697024735838,443.3694236416444 L468.50030896086804,443.2831135205864 M468.50030896086804,443.2831135205864 L469.0568006305184,443.2655959538181 M469.0568006305184,443.2655959538181 L469.60686600334344,443.3178907183898 M469.60686600334344,443.3178907183898 L470.118578765228,443.4369637894357 M470.118578765228,443.4369637894357 L470.56222413240454,443.6159093602116 M470.56222413240454,443.6159093602116 L470.54538229400026,445.2024988334535 M468.38287415742406,648.9221025331849 L468.7221188392467,649.1591048397265 M468.7221188392467,649.1591048397265 L468.9505510481791,649.4336997543885 M468.9505510481791,649.4336997543885 L469.05487260123397,649.7299442880152 M469.05487260123397,649.7299442880152 L469.02898135748626,650.030630703701 M469.02898135748626,650.030630703701 L468.8743548201651,650.3182779076888 M468.8743548201651,650.3182779076888 L468.59993960541345,650.5761628554023 M468.59993960541345,650.5761628554023 L468.2216779579963,650.7892734932211 M468.2216779579963,650.7892734932211 L467.7615389888386,650.9452121199539 M467.7615389888386,650.9452121199539 L467.24629296074215,651.0348918186565 M467.24629296074215,651.0348918186565 L466.70590408537026,651.0530947027723 M466.70590408537026,651.0530947027723 L466.1718205992473,650.9987554998613 M466.1718205992473,650.9987554998613 L465.6751124454714,650.875042528371 M465.6751124454714,650.875042528371 L465.2446701516971,650.6891600076783 M465.2446701516971,650.6891600076783 L464.9055224683018,650.4519292021412 M464.9055224683018,650.4519292021412 L464.6773667629601,650.1771575384491 M464.6773667629601,650.1771575384491 L464.5734401879709,649.8808297674133 M464.5734401879709,649.8808297674133 L464.5997523963816,649.5801715921409 M464.5997523963816,649.5801715921409 L464.7547305986409,649.292658271488 M464.7547305986409,649.292658271488 L465.02934731451563,649.0349820131031 M465.02934731451563,649.0349820131031 L465.4076141349624,648.8221070567104 M465.4076141349624,648.8221070567104 L465.8675607641309,648.6663771196586 M465.8675607641309,648.6663771196586 L466.3824610044724,648.5768313027302 M466.3824610044724,648.5768313027302 L466.92243016225865,648.5586569977904 M466.92243016225865,648.5586569977904 L467.4561150014694,648.6129122878834 M467.4561150014694,648.6129122878834 L467.95253890748745,648.7364491843025 M467.95253890748745,648.7364491843025 L468.38287415742406,648.9221025331849 M468.38287415742406,648.9221025331849 L468.3670182738875,650.4158098888888 M466.5222777387105,737.2279490883054 L466.65248600980135,724.79823486144 M466.5222777387105,737.2279490883054 L466.35240558311443,737.1526038274698 M466.35240558311443,737.1526038274698 L466.1564156953995,737.1024650097334 M466.1564156953995,737.1024650097334 L465.94569878966877,737.0804421729797 M465.94569878966877,737.0804421729797 L465.7324853825151,737.0878197644978 M465.7324853825151,737.0878197644978 L465.52917324297294,737.1241631517516 M465.52917324297294,737.1241631517516 L465.3475634684931,737.1873670364453 M465.3475634684931,737.1873670364453 L465.1982128258495,737.2737584739393 M465.1982128258495,737.2737584739393 L465.0897993924734,737.3783209206463 M465.0897993924734,737.3783209206463 L465.0286309727238,737.494977651772 M465.0286309727238,737.494977651772 L465.018258480793,737.6169566461904 M465.018258480793,737.6169566461904 L465.05930115272633,737.7371622825206 M465.05930115272633,737.7371622825206 L465.1493691345115,737.8486134506554 M465.1493691345115,737.8486134506554 L465.28323502900076,737.9448281241923 M465.28323502900076,737.9448281241923 L465.4531243657491,738.0202103747005 M465.4531243657491,738.0202103747005 L465.64915863769374,738.0703774446736 M465.64915863769374,738.0703774446736 L465.859937566856,738.0924136671701 M465.859937566856,738.0924136671701 L466.0732164311079,738.0850315250842 M466.0732164311079,738.0850315250842 L466.2765824625953,738.0486666970759 M466.2765824625953,738.0486666970759 L466.45822222009417,737.985429390419 M466.45822222009417,737.985429390419 L466.6075720671417,737.8990002078065 M466.6075720671417,737.8990002078065 L466.71595410855986,737.7944043393609 M466.71595410855986,737.7944043393609 L466.77706773249173,737.6777261668813 M466.77706773249173,737.6777261668813 L466.7873745755078,737.5557426226846 M466.7873745755078,737.5557426226846 L466.7462704444061,737.4355503706809 M466.7462704444061,737.4355503706809 L466.65615926940575,737.3241274551601 M466.65615926940575,737.3241274551601 L466.5222777387105,737.2279490883054" stroke="black"  stroke-width="4"  fill="red"/></svg>