<svg viewBox="0 0 800 800" xmlns="http://www.w3.org/2000/svg"><path d="M-351.6520494053525,54.028394213272804 L-370.2911797743337,62.39829960793321 M-370.29117934148746,57.90002795284363 L-370.2911797743337,62.39829960793321 M-370.29117934148746,57.90002795284363 L-370.2912844103008,57.858569646242984 M-370.2912844103008,57.858569646242984 L-370.29134745361785,57.81710568078631 M-370.29134745361785,57.81710568078631 L-370.2913684686606,57.77560636832351 M-351.60864627978685,49.442632673377034 L-370.2913684686606,57.77560636832351 M-351.6520494053525,54.028394213272804 L-351.60864627978685,49.442632673377034 M1120.85416568834,731.9972638555283 L1106.8890680256688,725.7262353746399 M1104.5344799474078,787.7418249975482 L1106.8890680256688,725.7262353746399 M1104.5344799474078,787.7418249975482 L411.69343474366246,462.0707467066902 M408.9052637464956,466.127319921608 L411.69343474366246,462.0707467066902 M242.56164071552087,387.5503363021355 L408.9052637464956,466.127319921608 M245.72408395526838,384.0565790867639 L242.56164071552087,387.5503363021355 M245.72408395526838,384.0565790867639 L-237.38445216910725,156.9706132937361 M-241.1287631285535,159.0658759590139 L-237.38445216910725,156.9706132937361 M-328.7358416120769,117.68226385824926 L-241.1287631285535,159.0658759590139 M-324.9668532578746,115.80236092281393 L-328.7358416120769,117.68226385824926 M-324.9668532578746,115.80236092281393 L-401.61438978548244,79.77405970988082 M-366.6880787612753,64.0162724727279 L-401.61438978548244,79.77405970988082 M-366.6880787612753,64.0162724727279 L-370.2911797743337,62.39829960793321 M1121.741743218053,699.7133469360099 L-351.6520494053525,54.028394213272804 M1120.85416568834,731.9972638555283 L1121.741743218053,699.7133469360099 M-358.92882398012875,58.901976357849776 L-358.9794983391773,58.88434198810728 M-358.9794983391773,58.88434198810728 L-359.038055496507,58.87260738893923 M-359.038055496507,58.87260738893923 L-359.1010922961227,58.8674534490284 M-359.1010922961227,58.8674534490284 L-359.1649480392548,58.869179791489444 M-359.1649480392548,58.869179791489444 L-359.2259126750455,58.87768598456694 M-359.2259126750455,58.87768598456694 L-359.2804456384099,58.89247839066462 M-359.2804456384099,58.89247839066462 L-359.3253777949151,58.91269778192304 M-359.3253777949151,58.91269778192304 L-359.35809835080136,58.93717015489574 M-359.35809835080136,58.93717015489574 L-359.37670416603146,58.96447367737056 M-359.37670416603146,58.96447367737056 L-359.380112891531,58.99302246562621 M-359.380112891531,58.99302246562621 L-359.3681240974204,59.02115708461639 M-359.3681240974204,59.02115708461639 L-359.341433643021,59.047242604358246 M-359.341433643021,59.047242604358246 L-359.3015904346314,59.06976181882146 M-359.3015904346314,59.06976181882146 L-359.2509104548069,59.08740584717526 M-359.2509104548069,59.08740584717526 L-359.19233853553817,59.09914783047452 M-359.19233853553817,59.09914783047452 L-359.12928103472996,59.10430526872045 M-359.12928103472996,59.10430526872045 L-359.0654033931489,59.102577737124875 M-359.0654033931489,59.102577737124875 L-359.0044206786149,59.0940659399937 M-359.0044206786149,59.0940659399937 L-358.94987759762785,59.079264798607824 M-358.94987759762785,59.079264798607824 L-358.9049456025683,59.05903554214524 M-358.9049456025683,59.05903554214524 L-358.87223545021243,59.03455443394341 M-358.87223545021243,59.03455443394341 L-358.8536478971473,59.00724530743679 M-358.8536478971473,59.00724530743679 L-358.85026110901606,58.97869533007429 M-358.85026110901606,58.97869533007429 L-358.8622704898189,58.95056420932741 M-358.8622704898189,58.95056420932741 L-358.88897546447095,58.92448607384222 M-358.88897546447095,58.92448607384222 L-358.92882398012875,58.901976357849776 M1114.3982654556212,712.2721894336386 L1114.22451794383,712.2046052543401 M1114.22451794383,712.2046052543401 L1114.0604431051488,712.1596950257542 M1114.0604431051488,712.1596950257542 L1113.9152762079293,712.1399333747563 M1113.9152762079293,712.1399333747563 L1113.797754117205,712.1466054542478 M1113.797754117205,712.1466054542478 L1113.714345545462,712.1791657172622 M1113.714345545462,712.1791657172622 L1113.6699532680693,712.2357521519687 M1113.6699532680693,712.2357521519687 L1113.6673768752646,712.3131767059872 M1113.6673768752646,712.3131767059872 L1113.7067731043044,712.4069469670294 M1113.7067731043044,712.4069469670294 L1113.7856452006931,712.511521572476 M1113.7856452006931,712.511521572476 L1113.8993618746065,712.6208023820953 M1113.8993618746065,712.6208023820953 L1114.0416774627377,712.7285955565968 M1114.0416774627377,712.7285955565968 L1114.204015625462,712.8284985295893 M1114.204015625462,712.8284985295893 L1114.3772317812804,712.914827401167 M1114.3772317812804,712.914827401167 L1114.5509024678483,712.9824049568338 M1114.5509024678483,712.9824049568338 L1114.7150948356712,713.0273705107315 M1114.7150948356712,713.0273705107315 L1114.8603699932926,713.0471584223832 M1114.8603699932926,713.0471584223832 L1114.9781429321117,713.0405558451246 M1114.9781429321117,713.0405558451246 L1115.0613975114281,713.0078750905225 M1115.0613975114281,713.0078750905225 L1115.10575647921,712.9512232402369 M1115.10575647921,712.9512232402369 L1115.1082507204842,712.8737247319696 M1115.1082507204842,712.8737247319696 L1115.0687423568486,712.7798889550755 M1115.0687423568486,712.7798889550755 L1114.9899309022162,712.6753508053062 M1114.9899309022162,712.6753508053062 L1114.875943538995,712.5659826320272 M1114.875943538995,712.5659826320272 L1114.7335779932882,712.4582156820965 M1114.7335779932882,712.4582156820965 L1114.5712452289113,712.3583680452823 M1114.5712452289113,712.3583680452823 L1114.3982654556212,712.2721894336386 M-366.67979363683935,59.51109246995452 L-370.29117934148746,57.90002795284363 M-366.67979363683935,59.51109246995452 L-366.6880787612753,64.0162724727279 M-366.6797534528632,59.386479378084005 L-366.67980888698526,59.42804262951478 M-366.67980888698526,59.42804262951478 L-366.67982226249046,59.46957041550189 M-366.67982226249046,59.46957041550189 L-366.67979363683935,59.51109246995452 M-370.2913684686606,57.77560636832351 L-366.6797534528632,59.386479378084005 M1113.7525357380073,719.6972841024406 L1127.8148652459502,725.9694440529397 M1127.8148652459502,725.9694440529397 L1128.5400097558854,693.6822785461233 M1128.5400097558854,693.6822785461233 L-351.60864627978685,49.442632673377034 M-366.6797534528632,59.386479378084005 L-401.6901044103071,75.07596731783599 M-401.6901044103071,75.07596731783599 L-324.851670550466,110.95468596683713 M-324.851670550466,110.95468596683713 L-328.62996793874754,112.82702770980814 M-328.62996793874754,112.82702770980814 L-240.78127500184792,154.05031687167337 M-240.78127500184792,154.05031687167337 L-237.02785003845008,151.96288965535393 M-237.02785003845008,151.96288965535393 L247.85921519008411,378.37466974977974 M247.85921519008411,378.37466974977974 L244.6931988722813,381.8608163584738 M244.6931988722813,381.8608163584738 L411.8267029057786,460.2887648580315 M411.8267029057786,460.2887648580315 L414.61437609874315,456.2388478826142 M414.61437609874315,456.2388478826142 L1111.7034147529462,781.7356108280707 M1113.7525357380073,719.6972841024406 L1111.7034147529462,781.7356108280707 M-358.6220697008862,54.169373784634786 L-358.52220406950084,54.22538199560063 M-358.52220406950084,54.22538199560063 L-358.4552545212771,54.29027515996995 M-358.4552545212771,54.29027515996995 L-358.4251193716084,54.36028595199957 M-358.4251193716084,54.36028595199957 L-358.4335619780477,54.43134756541292 M-358.4335619780477,54.43134756541292 L-358.4801029393361,54.49932954865551 M-358.4801029393361,54.49932954865551 L-358.5620473334484,54.560278070976665 M-358.5620473334484,54.560278070976665 L-358.6746385472869,54.61064631813116 M-358.6746385472869,54.61064631813116 L-358.8113331434108,54.64750174536107 M-358.8113331434108,54.64750174536107 L-358.9641813849905,54.66869783254651 M-358.9641813849905,54.66869783254651 L-359.1242906223016,54.672999774861864 M-359.1242906223016,54.672999774861864 L-359.28234417435533,54.66015669109737 M-359.28234417435533,54.66015669109737 L-359.42914563513295,54.63091727219387 M-359.42914563513295,54.63091727219387 L-359.5561557172441,54.58698460064733 M-359.5561557172441,54.58698460064733 L-359.65598897520863,54.53091672803362 M-359.65598897520863,54.53091672803362 L-359.72284752905534,54.46597742884529 M-359.72284752905534,54.46597742884529 L-359.7528532273409,54.395944898024936 M-359.7528532273409,54.395944898024936 L-359.74427295911687,54.32489066129051 M-359.74427295911687,54.32489066129051 L-359.6976173216085,54.25694363052946 M-359.6976173216085,54.25694363052946 L-359.6156075981262,54.19604958954699 M-359.6156075981262,54.19604958954699 L-359.5030153681238,54.14574287157109 M-359.5030153681238,54.14574287157109 L-359.366384301843,54.10894192567889 M-359.366384301843,54.10894192567889 L-359.213649582015,54.08778079101518 M-359.213649582015,54.08778079101518 L-359.05367776154685,54.083486305036274 M-359.05367776154685,54.083486305036274 L-358.89575438156214,54.09630749035563 M-358.89575438156214,54.09630749035563 L-358.7490454363558,54.12550093371249 M-358.7490454363558,54.12550093371249 L-358.6220697008862,54.169373784634786 M1121.2409139826343,705.7597992522132 L1121.676345638809,705.9751267619005 M1121.676345638809,705.9751267619005 L1122.0854046126885,706.2246962869656 M1122.0854046126885,706.2246962869656 L1122.4443447348776,706.4940438094725 M1122.4443447348776,706.4940438094725 L1122.7321173071455,706.7674598079358 M1122.7321173071455,706.7674598079358 L1122.931971742359,707.0290598906014 M1122.931971742359,707.0290598906014 L1123.0323479444985,707.2636701649797 M1123.0323479444985,707.2636701649797 L1123.0272353167331,707.4575694907923 M1123.0272353167331,707.4575694907923 L1122.9168863735426,707.5994491489336 M1122.9168863735426,707.5994491489336 L1122.7078123829006,707.6810797145976 M1122.7078123829006,707.6810797145976 L1122.4120586128374,707.6976427874903 M1122.4120586128374,707.6976427874903 L1122.0468288517852,707.6481598505717 M1122.0468288517852,707.6481598505717 L1121.6335692040159,707.5355931159588 M1121.6335692040159,707.5355931159588 L1121.1963367661197,707.366503779012 M1121.1963367661197,707.366503779012 L1120.7603493085246,707.1506469910621 M1120.7603493085246,707.1506469910621 L1120.3512544190016,706.9007299185671 M1120.3512544190016,706.9007299185671 L1119.992628475735,706.6312177197619 M1119.992628475735,706.6312177197619 L1119.7054481760974,706.3578576990581 M1119.7054481760974,706.3578576990581 L1119.5063283552936,706.09652137148 M1119.5063283552936,706.09652137148 L1119.4066610214088,705.8623222750641 M1119.4066610214088,705.8623222750641 L1119.4122941779503,705.6688872874803 M1119.4122941779503,705.6688872874803 L1119.5228560299909,705.5274187236937 M1119.5228560299909,705.5274187236937 L1119.7317868286243,705.446051982212 M1119.7317868286243,705.446051982212 L1120.027073813033,705.4295448727119 M1120.027073813033,705.4295448727119 L1120.3916200965355,705.4788630528429 M1120.3916200965355,705.4788630528429 L1120.8041364930727,705.5910822779845 M1120.8041364930727,705.5910822779845 L1121.2409139826343,705.7597992522132 M1121.741743218053,699.7133469360099 L1128.5400097558854,693.6822785461233 M1127.6269784369938,726.1318344937622 L1113.5672807577712,719.8597046508743 M1127.6269784369938,726.1318344937622 L1120.85416568834,731.9972638555283 M1113.5672807577712,719.8597046508743 L1106.8890680256688,725.7262353746399 M1113.5672807577712,719.8597046508743 L1113.629032219256,719.8056353405153 M1113.629032219256,719.8056353405153 L1113.6907691559359,719.7515080946049 M1113.6907691559359,719.7515080946049 L1113.7525357380073,719.6972841024406 M1104.5344799474078,787.7418249975482 L1111.7034147529462,781.7356108280707 M411.69343474366246,462.0707467066902 L414.61437609874315,456.2388478826142 M408.9052637464956,466.127319921608 L411.8267029057786,460.2887648580315 M242.56164071552087,387.5503363021355 L244.6931988722813,381.8608163584738 M245.72408395526838,384.0565790867639 L247.85921519008411,378.37466974977974 M-237.38445216910725,156.9706132937361 L-237.02785003845008,151.96288965535393 M-241.1287631285535,159.0658759590139 L-240.78127500184792,154.05031687167337 M-328.7358416120769,117.68226385824926 L-328.62996793874754,112.82702770980814 M-324.9668532578746,115.80236092281393 L-324.851670550466,110.95468596683713 M-401.61438978548244,79.77405970988082 L-401.6901044103071,75.07596731783599 M1127.8148652459502,725.9694440529397 L1127.752221940048,726.0236587098605 M1127.752221940048,726.0236587098605 L1127.6896079359672,726.0777759220182 M1127.6896079359672,726.0777759220182 L1127.6269784369938,726.1318344937622 M-358.92882398012875,58.901976357849776 L-358.90497844711854,54.77933221426929 M-358.90497844711854,54.77933221426929 L-358.86504551455175,54.8017529839118 M-358.86504551455175,54.8017529839118 L-358.8382835768298,54.827728076441815 M-358.8382835768298,54.827728076441815 L-358.8262480000062,54.85574804690816 M-358.8262480000062,54.85574804690816 L-358.8296408907843,54.884185223978534 M-358.8296408907843,54.884185223978534 L-358.8482664974506,54.91138645743547 M-358.8482664974506,54.91138645743547 L-358.8810444504686,54.9357708494195 M-358.8810444504686,54.9357708494195 L-358.9260700553343,54.955920189998324 M-358.9260700553343,54.955920189998324 L-358.9807271161691,54.970662860911716 M-358.9807271161691,54.970662860911716 L-359.0418375513425,54.97914103362177 M-359.0418375513425,54.97914103362177 L-359.1058492271652,54.98086174094891 M-359.1058492271652,54.98086174094891 L-359.1690392765721,54.9757246761867 M-359.1690392765721,54.9757246761867 L-359.2277345501939,54.964029077977614 M-359.2277345501939,54.964029077977614 L-359.2785215135841,54.94645475151833 M-359.2785215135841,54.94645475151833 L-359.31844911728774,54.9240245009093 M-359.31844911728774,54.9240245009093 L-359.34519647399566,54.89804203786059 M-359.34519647399566,54.89804203786059 L-359.35721137773965,54.87001857565923 M-359.35721137773965,54.87001857565923 L-359.3537964573684,54.841582585483366 M-359.3537964573684,54.841582585483366 L-359.3351525116036,54.814386945632236 M-359.3351525116036,54.814386945632236 L-359.3023641110368,54.79001127262609 M-359.3023641110368,54.79001127262609 L-359.2573383437068,54.76987177889748 M-359.2573383437068,54.76987177889748 L-359.202691442709,54.7551378270208 M-359.202691442709,54.7551378270208 L-359.1415991620552,54.74666524793838 M-359.1415991620552,54.74666524793838 L-359.0776094766604,54.74494572753349 M-359.0776094766604,54.74494572753349 L-359.0144402155562,54.750079300469224 M-359.0144402155562,54.750079300469224 L-358.95575976615976,54.76176752828468 M-358.95575976615976,54.76176752828468 L-358.90497844711854,54.77933221426929 M1114.3982654556212,712.2721894336386 L1120.5076158575898,706.8771624329022 M1120.5076158575898,706.8771624329022 L1120.6817031135413,706.9633463015975 M1120.6817031135413,706.9633463015975 L1120.8451624040054,707.0632000865023 M1120.8451624040054,707.0632000865023 L1120.9886087644963,707.1709737410584 M1120.9886087644963,707.1709737410584 L1121.1035675831613,707.2803487917179 M1121.1035675831613,707.2803487917179 L1121.1831835850649,707.3848935840088 M1121.1831835850649,707.3848935840088 L1121.22328558675,707.4787353807064 M1121.22328558675,707.4787353807064 L1121.221137040162,707.5562389015931 M1121.221137040162,707.5562389015931 L1121.17685564972,707.6128944395376 M1121.17685564972,707.6128944395376 L1121.0934083917546,707.6455773304305 M1121.0934083917546,707.6455773304305 L1120.9751808708597,707.6521803400884 M1120.9751808708597,707.6521803400884 L1120.829216707092,707.6323911333405 M1120.829216707092,707.6323911333405 L1120.6641418637082,707.5874226454667 M1120.6641418637082,707.5874226454667 L1120.489445915894,707.5198407038257 M1120.489445915894,707.5198407038257 L1120.3151203672692,707.43350627018 M1120.3151203672692,707.43350627018 L1120.151655378839,707.3335969178544 M1120.151655378839,707.3335969178544 L1120.0082592671188,707.2257969291384 M1120.0082592671188,707.2257969291384 L1119.8935730409532,707.1165092843198 M1119.8935730409532,707.1165092843198 L1119.813896461404,707.011928206908 M1119.813896461404,707.011928206908 L1119.7739078212999,706.9181521998443 M1119.7739078212999,706.9181521998443 L1119.7761395379787,706.8407229422515 M1119.7761395379787,706.8407229422515 L1119.8204548143492,706.7841330932494 M1119.8204548143492,706.7841330932494 L1119.904057158045,706.7515708745627 M1119.904057158045,706.7515708745627 L1120.0220321736565,706.7448983951311 M1120.0220321736565,706.7448983951311 L1120.1678870629544,706.7646612314851 M1120.1678870629544,706.7646612314851 L1120.3328431526916,706.8095741628505 M1120.3328431526916,706.8095741628505 L1120.5076158575898,706.8771624329022 M-358.6220697008862,54.169373784634786 L-358.624941816676,54.6540442986211 M-358.624941816676,54.6540442986211 L-358.525101003994,54.71007874467534 M-358.525101003994,54.71007874467534 L-358.45816821385733,54.775002303129554 M-358.45816821385733,54.775002303129554 L-358.4280407840083,54.8450458827636 M-358.4280407840083,54.8450458827636 L-358.43648161768533,54.91614077226393 M-358.43648161768533,54.91614077226393 L-358.48301141098386,54.98415458605979 M-358.48301141098386,54.98415458605979 L-358.5649358860628,55.04513164287067 M-358.5649358860628,55.04513164287067 L-358.67749958464515,55.09552346907344 M-358.67749958464515,55.09552346907344 L-358.81416066834106,55.13239614838449 M-358.81416066834106,55.13239614838449 L-358.96697135062425,55.15360215704362 M-358.96697135062425,55.15360215704362 L-359.12704116933946,55.157906112974274 M-359.12704116933946,55.157906112974274 L-359.28505574014184,55.14505701769269 M-359.28505574014184,55.14505701769269 L-359.43182092789584,55.11580391212243 M-359.43182092789584,55.11580391212243 L-359.55879955713544,55.07185067498364 M-359.55879955713544,55.07185067498364 L-359.6586080120484,55.01575655405861 M-359.6586080120484,55.01575655405861 L-359.72544985246566,54.95078685052522 M-359.72544985246566,54.95078685052522 L-359.75544789453295,54.88072152729478 M-359.75544789453295,54.88072152729478 L-359.7468694669001,54.80963401610097 M-359.7468694669001,54.80963401610097 L-359.7002250539837,54.74165516254493 M-359.7002250539837,54.74165516254493 L-359.61823528192053,54.68073259916571 M-359.61823528192053,54.68073259916571 L-359.5056705679249,54.630402315799074 M-359.5056705679249,54.630402315799074 L-359.3690729830149,54.593584129918725 M-359.3690729830149,54.593584129918725 L-359.2163757667339,54.57241308153954 M-359.2163757667339,54.57241308153954 L-359.0564432972136,54.568116583610276 M-359.0564432972136,54.568116583610276 L-358.89855883434643,54.580943775566425 M-358.89855883434643,54.580943775566425 L-358.75188611638293,54.61015089540456 M-358.75188611638293,54.61015089540456 L-358.624941816676,54.6540442986211 M1121.2409139826343,705.7597992522132 L1120.5212318068918,706.3955607359029 M1120.5212318068918,706.3955607359029 L1120.9563368412619,706.6108872341923 M1120.9563368412619,706.6108872341923 L1121.365063320037,706.8604555449225 M1121.365063320037,706.8604555449225 L1121.7236843609933,707.1298017061417 M1121.7236843609933,707.1298017061417 L1122.011169943882,707.4032162689059 M1122.011169943882,707.4032162689059 L1122.2107861944319,707.6648149271294 M1122.2107861944319,707.6648149271294 L1122.3109868470162,707.8994238817843 M1122.3109868470162,707.8994238817843 L1122.3057716687324,708.0933220867296 M1122.3057716687324,708.0933220867296 L1122.1953991986697,708.2352009074247 M1122.1953991986697,708.2352009074247 L1121.9863820247576,708.3168309846429 M1121.9863820247576,708.3168309846429 L1121.6907621982893,708.3333939578386 M1121.6907621982893,708.3333939578386 L1121.3257357051325,708.2839113181789 M1121.3257357051325,708.2839113181789 L1120.9127366548828,708.1713452531689 M1120.9127366548828,708.1713452531689 L1120.4758069387567,708.0022569047683 M1120.4758069387567,708.0022569047683 L1120.0401468397947,707.7864013486286 M1120.0401468397947,707.7864013486286 L1119.6313846679695,707.5364856600723 M1119.6313846679695,707.5364856600723 L1119.2730775916773,707.2669749029168 M1119.2730775916773,707.2669749029168 L1118.9861836793868,706.9936162905951 M1118.9861836793868,706.9936162905951 L1118.7873011914555,706.7322812587461 M1118.7873011914555,706.7322812587461 L1118.6878085004766,706.4980832813976 M1118.6878085004766,706.4980832813976 L1118.6935434539614,706.3046491880825 M1118.6935434539614,706.3046491880825 L1118.804128405057,706.1631812611269 M1118.804128405057,706.1631812611269 L1119.0130023825427,706.0818148793438 M1119.0130023825427,706.0818148793438 L1119.3081558437195,706.0653078422308 M1119.3081558437195,706.0653078422308 L1119.6724996082226,706.1146258055048 M1119.6724996082226,706.1146258055048 L1120.084756312656,706.2268445306289 M1120.084756312656,706.2268445306289 L1120.5212318068918,706.3955607359029" stroke="black"  stroke-width="4"  fill="red"/>
<path d="M1120.85416568834,731.9972638555283 L1118.9424315638566,801.5328971730568 M1120.85416568834,731.9972638555283 L1106.8890680256688,725.7262353746399 M1104.2739453670083,794.6038344376756 L1106.8890680256688,725.7262353746399 M1118.9424315638566,801.5328971730568 L1104.2739453670083,794.6038344376756 M1127.6269784369938,726.1318344937622 L1120.85416568834,731.9972638555283 M1166.37277891799,676.2751381739877 L1164.676486186722,679.4966962111489 M1164.676486186722,679.4966962111489 L1162.87344365268,682.732456318585 M1162.87344365268,682.732456318585 L1160.969399109535,685.9720313682601 M1160.969399109535,685.9720313682601 L1158.970506224094,689.2049852417741 M1158.970506224094,689.2049852417741 L1156.883243137291,692.420925753264 M1156.883243137291,692.420925753264 L1154.714399728637,695.6095313145413 M1154.714399728637,695.6095313145413 L1152.471040748141,698.7606061074783 M1152.471040748141,698.7606061074783 L1150.160491290824,701.8641050914334 M1150.160491290824,701.8641050914334 L1147.7902526838916,704.9102224252825 M1147.7902526838916,704.9102224252825 L1145.368056100145,707.8893571037564 M1145.368056100145,707.8893571037564 L1142.9017550485996,710.7922124565436 M1142.9017550485996,710.7922124565436 L1140.399287344163,713.6098387759064 M1140.399287344163,713.6098387759064 L1137.8687283442696,716.333589433656 M1137.8687283442696,716.333589433656 L1135.318139559992,718.9552545027016 M1135.318139559992,718.9552545027016 L1132.7556005345075,721.4670327151063 M1132.7556005345075,721.4670327151063 L1130.1892179974275,723.8615204084931 M1130.1892179974275,723.8615204084931 L1127.6269784369938,726.1318344937622 M1166.6076725319174,675.8145373774537 L1166.5682787133062,675.828704590033 M1166.5682787133062,675.828704590033 L1166.5243561594793,675.8554286103924 M1166.5243561594793,675.8554286103924 L1166.4784471413388,675.8931612380921 M1166.4784471413388,675.8931612380921 L1166.4332294343105,675.9397021542574 M1166.4332294343105,675.9397021542574 L1166.3913301752507,675.992345071575 M1166.3913301752507,675.992345071575 L1166.35518671519,676.0480295877725 M1166.35518671519,676.0480295877725 L1166.3268610832506,676.1035545948188 M1166.3268610832506,676.1035545948188 L1166.3080641004276,676.1556361843681 M1166.3080641004276,676.1556361843681 L1166.2998303288632,676.2012988096325 M1166.2998303288632,676.2012988096325 L1166.3026585448315,676.2378743331177 M1166.3026585448315,676.2378743331177 L1166.316395952405,676.2632270272629 M1166.316395952405,676.2632270272629 L1166.3402154250919,676.2759070138982 M1166.3402154250919,676.2759070138982 L1166.37277891799,676.2751381739877 M1206.1964476531498,624.7895269502582 L1203.4525416384095,627.283350801246 M1203.4525416384095,627.283350801246 L1200.729537267827,629.8772347648825 M1200.729537267827,629.8772347648825 L1198.0340541229411,632.5642900514716 M1198.0340541229411,632.5642900514716 L1195.3727740555328,635.3373314771408 M1195.3727740555328,635.3373314771408 L1192.752069559887,638.1891996981835 M1192.752069559887,638.1891996981835 L1190.1783049698467,641.1125103749222 M1190.1783049698467,641.1125103749222 L1187.657658608624,644.0998220637869 M1187.657658608624,644.0998220637869 L1185.1960420317853,647.1436969793024 M1185.1960420317853,647.1436969793024 L1182.7993984453522,650.2364644388125 M1182.7993984453522,650.2364644388125 L1180.473337271875,653.3705388121782 M1180.473337271875,653.3705388121782 L1178.2233840644376,656.5382040726881 M1178.2233840644376,656.5382040726881 L1176.0548988597593,659.7316981269385 M1176.0548988597593,659.7316981269385 L1173.9730416446039,662.9432419693698 M1173.9730416446039,662.9432419693698 L1171.9826910226843,666.1651211547147 M1171.9826910226843,666.1651211547147 L1170.0886893314544,669.3894739686131 M1170.0886893314544,669.3894739686131 L1168.2955723318253,672.6085327167998 M1168.2955723318253,672.6085327167998 L1166.6076725319174,675.8145373774537 M1209.8519160775081,719.7613824970505 L1206.1964476531498,624.7895269502582 M1163.1518545076021,758.2885759145776 L1209.8519160775081,719.7613824970505 M1163.177098891555,765.2407802568815 L1163.1518545076021,758.2885759145776 M1118.9424315638566,801.5328971730568 L1163.177098891555,765.2407802568815 M1127.6269784369938,726.1318344937622 L1113.5672807577712,719.8597046508743 M1113.5672807577712,719.8597046508743 L1106.8890680256688,725.7262353746399 M1104.2739453670083,794.6038344376756 L1147.853721195145,758.2885592923244 M1147.904906990683,751.4055936731446 L1147.853721195145,758.2885592923244 M1147.904906990683,751.4055936731446 L1193.9034199859643,712.8675223945895 M1191.387237931229,618.8335740884214 L1193.9034199859643,712.8675223945895 M1191.387237931229,618.8335740884214 L1188.6813909582415,621.3255754260142 M1188.6813909582415,621.3255754260142 L1185.9947973367541,623.9165926683621 M1185.9947973367541,623.9165926683621 L1183.3339990867503,626.5997476964329 M1183.3339990867503,626.5997476964329 L1180.7056025716338,629.367867594575 M1180.7056025716338,629.367867594575 L1178.115912126498,632.213806826641 M1178.115912126498,632.213806826641 L1175.5712267770273,635.1301964172945 M1175.5712267770273,635.1301964172945 L1173.0776647204523,638.1096117199634 M1173.0776647204523,638.1096117199634 L1170.641083757619,641.1446333019429 M1170.641083757619,641.1446333019429 L1168.267375159763,644.227610292041 M1168.267375159763,644.227610292041 L1165.9621033673845,647.350978309554 M1165.9621033673845,647.350978309554 L1163.7307522783142,650.5070441071401 M1163.7307522783142,650.5070441071401 L1161.5786445611727,653.6880698210642 M1161.5786445611727,653.6880698210642 L1159.5109075688727,656.8863021917913 M1159.5109075688727,656.8863021917913 L1157.532392988305,660.0940539923016 M1157.532392988305,660.0940539923016 L1155.647918427808,663.3034922855442 M1155.647918427808,663.3034922855442 L1153.8620008209014,666.5068796854315 M1153.8620008209014,666.5068796854315 L1152.178958209117,669.6964880586798 M1151.9445830252594,670.1546716664642 L1151.9127805780302,670.155694703238 M1151.9127805780302,670.155694703238 L1151.8896624506783,670.1433243549708 M1151.8896624506783,670.1433243549708 L1151.8765265992477,670.1183187437371 M1151.8765265992477,670.1183187437371 L1151.8741647737288,670.082107560926 M1151.8741647737288,670.082107560926 L1151.8827028332198,670.0368053574986 M1151.8827028332198,670.0368053574986 L1151.9016246413437,669.9850593553898 M1151.9016246413437,669.9850593553898 L1151.9298875740492,669.9298256183913 M1151.9298875740492,669.9298256183913 L1151.9657853554586,669.8743711212675 M1151.9657853554586,669.8743711212675 L1152.0072697024618,669.8218836304169 M1152.0072697024618,669.8218836304169 L1152.0519274148508,669.775414530605 M1152.0519274148508,669.775414530605 L1152.097163860716,669.7376659182937 M1152.097163860716,669.7376659182937 L1152.1403404964349,669.7108390489681 M1152.1403404964349,669.7108390489681 L1152.178958209117,669.6964880586798 M1113.5672807577712,719.8597046508743 L1116.0942132106354,717.5895238240583 M1116.0942132106354,717.5895238240583 L1118.6264943517458,715.196344529261 M1118.6264943517458,715.196344529261 L1121.156253198466,712.6870506964481 M1121.156253198466,712.6870506964481 L1123.6754961775434,710.0690421546192 M1123.6754961775434,710.0690421546192 L1126.176252381002,707.3501116116821 M1126.176252381002,707.3501116116821 L1128.6505644446756,704.5384557013557 M1128.6505644446756,704.5384557013557 L1131.090457049625,701.6427030530197 M1131.090457049625,701.6427030530197 L1133.4880861389547,698.6717807253845 M1133.4880861389547,698.6717807253845 L1135.8356863808795,695.6349581667462 M1135.8356863808795,695.6349581667462 L1138.1256086944989,692.5418047374405 M1138.1256086944989,692.5418047374405 L1140.3504262350752,689.4020903394414 M1140.3504262350752,689.4020903394414 L1142.5028815916337,686.225819973766 M1142.5028815916337,686.225819973766 L1144.575969806426,683.0231455493924 M1144.575969806426,683.0231455493924 L1146.562952757108,679.8043410841325 M1146.562952757108,679.8043410841325 L1148.4573956871507,676.5797478463331 M1148.4573956871507,676.5797478463331 L1150.2531798668938,673.3597479342978 M1150.2531798668938,673.3597479342978 L1151.9445830252594,670.1546716664642 M1147.853721195145,758.2885592923244 L1163.177098891555,765.2407802568815 M1166.37277891799,676.2751381739877 L1151.9445830252594,670.1546716664642 M1166.6076725319174,675.8145373774537 L1152.178958209117,669.6964880586798 M1206.1964476531498,624.7895269502582 L1191.387237931229,618.8335740884214 M1209.8519160775081,719.7613824970505 L1193.9034199859643,712.8675223945895 M1163.1518545076021,758.2885759145776 L1147.904906990683,751.4055936731446" stroke="black"  stroke-width="4"  fill="red"/>
<path d="M1114.3982654556212,712.2721894336386 L1120.5076158575898,706.8771624329022 M1120.5076158575898,706.8771624329022 L1120.6817031135413,706.9633463015975 M1120.6817031135413,706.9633463015975 L1120.8451624040054,707.0632000865023 M1120.8451624040054,707.0632000865023 L1120.9886087644963,707.1709737410584 M1120.9886087644963,707.1709737410584 L1121.1035675831613,707.2803487917179 M1121.1035675831613,707.2803487917179 L1121.1831835850649,707.3848935840088 M1121.1831835850649,707.3848935840088 L1121.22328558675,707.4787353807064 M1121.22328558675,707.4787353807064 L1121.221137040162,707.5562389015931 M1121.221137040162,707.5562389015931 L1121.17685564972,707.6128944395376 M1121.17685564972,707.6128944395376 L1121.0934083917546,707.6455773304305 M1121.0934083917546,707.6455773304305 L1120.9751808708597,707.6521803400884 M1120.9751808708597,707.6521803400884 L1120.829216707092,707.6323911333405 M1120.829216707092,707.6323911333405 L1120.6641418637082,707.5874226454667 M1120.6641418637082,707.5874226454667 L1120.489445915894,707.5198407038257 M1120.489445915894,707.5198407038257 L1120.3151203672692,707.43350627018 M1120.3151203672692,707.43350627018 L1120.151655378839,707.3335969178544 M1120.151655378839,707.3335969178544 L1120.0082592671188,707.2257969291384 M1120.0082592671188,707.2257969291384 L1119.8935730409532,707.1165092843198 M1119.8935730409532,707.1165092843198 L1119.813896461404,707.011928206908 M1119.813896461404,707.011928206908 L1119.7739078212999,706.9181521998443 M1119.7739078212999,706.9181521998443 L1119.7761395379787,706.8407229422515 M1119.7761395379787,706.8407229422515 L1119.8204548143492,706.7841330932494 M1119.8204548143492,706.7841330932494 L1119.904057158045,706.7515708745627 M1119.904057158045,706.7515708745627 L1120.0220321736565,706.7448983951311 M1120.0220321736565,706.7448983951311 L1120.1678870629544,706.7646612314851 M1120.1678870629544,706.7646612314851 L1120.3328431526916,706.8095741628505 M1120.3328431526916,706.8095741628505 L1120.5076158575898,706.8771624329022 M1114.3982654556212,712.2721894336386 L1114.22451794383,712.2046052543401 M1114.22451794383,712.2046052543401 L1114.0604431051488,712.1596950257542 M1114.0604431051488,712.1596950257542 L1113.9152762079293,712.1399333747563 M1113.9152762079293,712.1399333747563 L1113.797754117205,712.1466054542478 M1113.797754117205,712.1466054542478 L1113.714345545462,712.1791657172622 M1113.714345545462,712.1791657172622 L1113.6699532680693,712.2357521519687 M1113.6699532680693,712.2357521519687 L1113.6673768752646,712.3131767059872 M1113.6673768752646,712.3131767059872 L1113.7067731043044,712.4069469670294 M1113.7067731043044,712.4069469670294 L1113.7856452006931,712.511521572476 M1113.7856452006931,712.511521572476 L1113.8993618746065,712.6208023820953 M1113.8993618746065,712.6208023820953 L1114.0416774627377,712.7285955565968 M1114.0416774627377,712.7285955565968 L1114.204015625462,712.8284985295893 M1114.204015625462,712.8284985295893 L1114.3772317812804,712.914827401167 M1114.3772317812804,712.914827401167 L1114.5509024678483,712.9824049568338 M1114.5509024678483,712.9824049568338 L1114.7150948356712,713.0273705107315 M1114.7150948356712,713.0273705107315 L1114.8603699932926,713.0471584223832 M1114.8603699932926,713.0471584223832 L1114.9781429321117,713.0405558451246 M1114.9781429321117,713.0405558451246 L1115.0613975114281,713.0078750905225 M1115.0613975114281,713.0078750905225 L1115.10575647921,712.9512232402369 M1115.10575647921,712.9512232402369 L1115.1082507204842,712.8737247319696 M1115.1082507204842,712.8737247319696 L1115.0687423568486,712.7798889550755 M1115.0687423568486,712.7798889550755 L1114.9899309022162,712.6753508053062 M1114.9899309022162,712.6753508053062 L1114.875943538995,712.5659826320272 M1114.875943538995,712.5659826320272 L1114.7335779932882,712.4582156820965 M1114.7335779932882,712.4582156820965 L1114.5712452289113,712.3583680452823 M1114.5712452289113,712.3583680452823 L1114.3982654556212,712.2721894336386 M1120.5212318068918,706.3955607359029 L1120.9563368412619,706.6108872341923 M1120.9563368412619,706.6108872341923 L1121.365063320037,706.8604555449225 M1121.365063320037,706.8604555449225 L1121.7236843609933,707.1298017061417 M1121.7236843609933,707.1298017061417 L1122.011169943882,707.4032162689059 M1122.011169943882,707.4032162689059 L1122.2107861944319,707.6648149271294 M1122.2107861944319,707.6648149271294 L1122.3109868470162,707.8994238817843 M1122.3109868470162,707.8994238817843 L1122.3057716687324,708.0933220867296 M1122.3057716687324,708.0933220867296 L1122.1953991986697,708.2352009074247 M1122.1953991986697,708.2352009074247 L1121.9863820247576,708.3168309846429 M1121.9863820247576,708.3168309846429 L1121.6907621982893,708.3333939578386 M1121.6907621982893,708.3333939578386 L1121.3257357051325,708.2839113181789 M1121.3257357051325,708.2839113181789 L1120.9127366548828,708.1713452531689 M1120.9127366548828,708.1713452531689 L1120.4758069387567,708.0022569047683 M1120.4758069387567,708.0022569047683 L1120.0401468397947,707.7864013486286 M1120.0401468397947,707.7864013486286 L1119.6313846679695,707.5364856600723 M1119.6313846679695,707.5364856600723 L1119.2730775916773,707.2669749029168 M1119.2730775916773,707.2669749029168 L1118.9861836793868,706.9936162905951 M1118.9861836793868,706.9936162905951 L1118.7873011914555,706.7322812587461 M1118.7873011914555,706.7322812587461 L1118.6878085004766,706.4980832813976 M1118.6878085004766,706.4980832813976 L1118.6935434539614,706.3046491880825 M1118.6935434539614,706.3046491880825 L1118.804128405057,706.1631812611269 M1118.804128405057,706.1631812611269 L1119.0130023825427,706.0818148793438 M1119.0130023825427,706.0818148793438 L1119.3081558437195,706.0653078422308 M1119.3081558437195,706.0653078422308 L1119.6724996082226,706.1146258055048 M1119.6724996082226,706.1146258055048 L1120.084756312656,706.2268445306289 M1120.084756312656,706.2268445306289 L1120.5212318068918,706.3955607359029 M1121.2409139826343,705.7597992522132 L1121.676345638809,705.9751267619005 M1121.676345638809,705.9751267619005 L1122.0854046126885,706.2246962869656 M1122.0854046126885,706.2246962869656 L1122.4443447348776,706.4940438094725 M1122.4443447348776,706.4940438094725 L1122.7321173071455,706.7674598079358 M1122.7321173071455,706.7674598079358 L1122.931971742359,707.0290598906014 M1122.931971742359,707.0290598906014 L1123.0323479444985,707.2636701649797 M1123.0323479444985,707.2636701649797 L1123.0272353167331,707.4575694907923 M1123.0272353167331,707.4575694907923 L1122.9168863735426,707.5994491489336 M1122.9168863735426,707.5994491489336 L1122.7078123829006,707.6810797145976 M1122.7078123829006,707.6810797145976 L1122.4120586128374,707.6976427874903 M1122.4120586128374,707.6976427874903 L1122.0468288517852,707.6481598505717 M1122.0468288517852,707.6481598505717 L1121.6335692040159,707.5355931159588 M1121.6335692040159,707.5355931159588 L1121.1963367661197,707.366503779012 M1121.1963367661197,707.366503779012 L1120.7603493085246,707.1506469910621 M1120.7603493085246,707.1506469910621 L1120.3512544190016,706.9007299185671 M1120.3512544190016,706.9007299185671 L1119.992628475735,706.6312177197619 M1119.992628475735,706.6312177197619 L1119.7054481760974,706.3578576990581 M1119.7054481760974,706.3578576990581 L1119.5063283552936,706.09652137148 M1119.5063283552936,706.09652137148 L1119.4066610214088,705.8623222750641 M1119.4066610214088,705.8623222750641 L1119.4122941779503,705.6688872874803 M1119.4122941779503,705.6688872874803 L1119.5228560299909,705.5274187236937 M1119.5228560299909,705.5274187236937 L1119.7317868286243,705.446051982212 M1119.7317868286243,705.446051982212 L1120.027073813033,705.4295448727119 M1120.027073813033,705.4295448727119 L1120.3916200965355,705.4788630528429 M1120.3916200965355,705.4788630528429 L1120.8041364930727,705.5910822779845 M1120.8041364930727,705.5910822779845 L1121.2409139826343,705.7597992522132 M1121.2409139826343,705.7597992522132 L1120.5212318068918,706.3955607359029" stroke="black"  stroke-width="4"  fill="red"/>
<path d="M-366.6880787612753,64.0162724727279 L-405.384644465689,81.47509452685301 M-366.6880787612753,64.0162724727279 L-370.2911797743337,62.39829960793321 M-408.9856510810978,79.77406004968577 L-370.2911797743337,62.39829960793321 M-405.384644465689,81.47509452685301 L-408.9856510810978,79.77406004968577 M-405.384644465689,81.47509452685301 L-405.89285312369384,53.353281862002575 M-405.89285312369384,53.353281862002575 L-402.06688929064035,51.69646588291283 M-402.06688929064035,51.69646588291283 L-402.53265425359746,22.795750413218116 M-402.53265425359746,22.795750413218116 L-347.4205742273223,-0.042582353339298606 M-347.4205742273223,-0.042582353339298606 L-347.47522626063096,1.7343015481990847 M-347.47522626063096,1.7343015481990847 L-347.599045157123,3.5321095152995667 M-347.599045157123,3.5321095152995667 L-347.7915353199196,5.346080389301733 M-347.7915353199196,5.346080389301733 L-348.05203528698075,7.171316990961657 M-348.05203528698075,7.171316990961657 L-348.379714866556,9.003026983095765 M-348.379714866556,9.003026983095765 L-348.7735815258766,10.836336784863533 M-348.7735815258766,10.836336784863533 L-349.23248698511964,12.666412827253339 M-349.23248698511964,12.666412827253339 L-349.7551211933803,14.488515399802509 M-349.7551211933803,14.488515399802509 L-350.34002643677854,16.297816685796533 M-350.34002643677854,16.297816685796533 L-350.9855968600191,18.0896404429198 M-350.9855968600191,18.0896404429198 L-351.690080704009,19.85930574456006 M-351.690080704009,19.85930574456006 L-352.45158874797903,21.60218729623182 M-352.45158874797903,21.60218729623182 L-353.2680948664223,23.31374183836823 M-353.2680948664223,23.31374183836823 L-354.13744365527384,24.989567993269873 M-354.13744365527384,24.989567993269873 L-355.0573531075089,26.62525173828635 M-355.0573531075089,26.62525173828635 L-356.02541984186655,28.216547293393546 M-356.02541984186655,28.216547293393546 L-357.0391233987839,29.759314898940943 M-357.0391233987839,29.759314898940943 L-357.0274165430833,29.779805404678996 M-357.0274165430833,29.779805404678996 L-357.0207346613006,29.80544720466304 M-357.0207346613006,29.80544720466304 L-357.0194640254372,29.834755842446782 M-357.0194640254372,29.834755842446782 L-357.02367933246364,29.866021791113496 M-357.02367933246364,29.866021791113496 L-357.0331344876604,29.897427583152535 M-357.0331344876604,29.897427583152535 L-357.04728057061754,29.927146331253198 M-357.04728057061754,29.927146331253198 L-357.0652962237914,29.953475890459686 M-357.0652962237914,29.953475890459686 L-357.086133685365,29.974843466490483 M-357.086133685365,29.974843466490483 L-357.1085821770604,29.990044959086504 M-357.1085821770604,29.990044959086504 L-357.13133864400277,29.99818460094201 M-357.13133864400277,29.99818460094201 L-357.1530803352813,29.99878206663095 M-357.1530803352813,29.99878206663095 L-357.1725427843455,29.991821375474615 M-357.1725427843455,29.991821375474615 L-357.1885955912933,29.977677689747566 M-357.1885955912933,29.977677689747566 L-358.20685867763154,31.527630598060853 M-358.20685867763154,31.527630598060853 L-359.1792280004199,33.12679528819973 M-359.1792280004199,33.12679528819973 L-360.10275621197957,34.770359260323914 M-360.10275621197957,34.770359260323914 L-360.97465390530726,36.45334055534272 M-360.97465390530726,36.45334055534272 L-361.7922997362915,38.17064122689061 M-361.7922997362915,38.17064122689061 L-362.55324705938324,39.91705422337168 M-362.55324705938324,39.91705422337168 L-363.2552353591459,41.68728777089058 M-363.2552353591459,41.68728777089058 L-363.8961958221804,43.475972364752465 M-363.8961958221804,43.475972364752465 L-364.47425920238265,45.27771412063839 M-364.47425920238265,45.27771412063839 L-364.9877620744336,47.087057202322114 M-364.9877620744336,47.087057202322114 L-365.4352503028182,48.89855048284346 M-365.4352503028182,48.89855048284346 L-365.81548490397176,50.70676995701092 M-365.81548490397176,50.70676995701092 L-366.12744392944023,52.50627948610463 M-366.12744392944023,52.50627948610463 L-366.37032514204907,54.29172663930382 M-366.37032514204907,54.29172663930382 L-366.5435472475633,56.05781776309777 M-366.5435472475633,56.05781776309777 L-366.6467499499611,57.79930755826649 M-366.6467499499611,57.79930755826649 L-366.67979363683935,59.51109246995452 M-366.67979363683935,59.51109246995452 L-366.6880787612753,64.0162724727279 M-366.67979363683935,59.51109246995452 L-370.29117934148746,57.90002795284363 M-370.29117934148746,57.90002795284363 L-370.2911797743337,62.39829960793321 M-370.29117934148746,57.90002795284363 L-370.26125873088745,56.19092309360701 M-370.26125873088745,56.19092309360701 L-370.16117589173905,54.45226530235641 M-370.16117589173905,54.45226530235641 L-369.99106151994033,52.689149626188 M-369.99106151994033,52.689149626188 L-369.7512668629338,50.90681223079207 M-369.7512668629338,50.90681223079207 L-369.4423642013704,49.11053716154254 M-369.4423642013704,49.11053716154254 L-369.0651467703956,47.30566675925513 M-369.0651467703956,47.30566675925513 L-368.62062747772075,45.49762656297395 M-368.62062747772075,45.49762656297395 L-368.11003639941737,43.69182963200137 M-368.11003639941737,43.69182963200137 L-367.53481882158394,41.89371575397672 M-367.53481882158394,41.89371575397672 L-366.89662941433016,40.10872908722382 M-366.89662941433016,40.10872908722382 L-366.19732888356896,38.34225162141706 M-366.19732888356896,38.34225162141706 L-365.43897764490976,36.599640712340204 M-365.43897764490976,36.599640712340204 L-364.6238280531526,34.88617583832735 M-364.6238280531526,34.88617583832735 L-363.75431884251725,33.20705164043642 M-363.75431884251725,33.20705164043642 L-362.83306373545986,31.567353606474512 M-362.83306373545986,31.567353606474512 L-361.86284481987354,29.97205122130049 M-361.86284481987354,29.97205122130049 L-360.8466025238797,28.42594460533161 M-360.8466025238797,28.42594460533161 L-360.8305101299552,28.440087680752526 M-360.8305101299552,28.440087680752526 L-360.811018548339,28.447063803969968 M-360.811018548339,28.447063803969968 L-360.78925981681425,28.44649686905177 M-360.78925981681425,28.44649686905177 L-360.76649942787003,28.438401109858205 M-360.76649942787003,28.438401109858205 L-360.7440603475617,28.423254289035583 M-360.7440603475617,28.423254289035583 L-360.7232450604366,28.401948979048314 M-360.7232450604366,28.401948979048314 L-360.7052631265294,28.37568572204617 M-360.7052631265294,28.37568572204617 L-360.69116027041866,28.34603339124908 M-360.69116027041866,28.34603339124908 L-360.6817553835431,28.314690313492406 M-360.6817553835431,28.314690313492406 L-360.677594461323,28.283479730536897 M-360.677594461323,28.283479730536897 L-360.6789204376795,28.254215890901833 M-360.6789204376795,28.254215890901833 L-360.68565538659243,28.228605709665146 M-360.68565538659243,28.228605709665146 L-360.6974099635613,28.20813181188322 M-351.1261751998045,-1.5328971730566536 L-351.17756201235875,0.24100659440102845 M-351.17756201235875,0.24100659440102845 L-351.2981351896806,2.035717188728313 M-351.2981351896806,2.035717188728313 L-351.4874079395838,3.8464813249074155 M-351.4874079395838,3.8464813249074155 L-351.7447276604232,5.668410055095478 M-351.7447276604232,5.668410055095478 L-352.06927262198315,7.496719250942647 M-352.06927262198315,7.496719250942647 L-352.4600587036034,9.326543821228086 M-352.4600587036034,9.326543821228086 L-352.9159457659724,11.153058771048109 M-352.9159457659724,11.153058771048109 L-353.435631520774,12.97153298025114 M-353.435631520774,12.97153298025114 L-354.01766598913014,14.77714752361635 M-354.01766598913014,14.77714752361635 L-354.66045057717724,16.565234976484476 M-354.66045057717724,16.565234976484476 L-355.3622406076196,18.331123415457455 M-355.3622406076196,18.331123415457455 L-356.1211536587091,20.070196637094796 M-356.1211536587091,20.070196637094796 L-356.93517007530477,21.777920528474397 M-356.93517007530477,21.777920528474397 L-357.8021404938954,23.449902819290514 M-357.8021404938954,23.449902819290514 L-358.71978881139785,25.081738808262855 M-358.71978881139785,25.081738808262855 L-359.68571708719037,26.669191965175855 M-359.68571708719037,26.669191965175855 L-360.6974099635613,28.20813181188322 M-351.1261751998045,-1.5328971730566536 L-406.23711193996405,21.194470085674368 M-405.7190987153076,50.04773635301274 L-406.23711193996405,21.194470085674368 M-405.7190987153076,50.04773635301274 L-409.54463750728064,51.696466213872895 M-408.9856510810978,79.77406004968577 L-409.54463750728064,51.696466213872895 M-409.54463750728064,51.696466213872895 L-405.89285312369384,53.353281862002575 M-357.1885955912933,29.977677689747566 L-360.8466025238797,28.42594460533161 M-357.0391233987839,29.759314898940943 L-360.6974099635613,28.20813181188322 M-347.4205742273223,-0.042582353339298606 L-351.1261751998045,-1.5328971730566536 M-402.53265425359746,22.795750413218116 L-406.23711193996405,21.194470085674368 M-402.06688929064035,51.69646588291283 L-405.7190987153076,50.04773635301274" stroke="black"  stroke-width="4"  fill="red"/>
<path d="M-358.92882398012875,58.901976357849776 L-358.90497844711854,54.77933221426929 M-358.90497844711854,54.77933221426929 L-358.86504551455175,54.8017529839118 M-358.86504551455175,54.8017529839118 L-358.8382835768298,54.827728076441815 M-358.8382835768298,54.827728076441815 L-358.8262480000062,54.85574804690816 M-358.8262480000062,54.85574804690816 L-358.8296408907843,54.884185223978534 M-358.8296408907843,54.884185223978534 L-358.8482664974506,54.91138645743547 M-358.8482664974506,54.91138645743547 L-358.8810444504686,54.9357708494195 M-358.8810444504686,54.9357708494195 L-358.9260700553343,54.955920189998324 M-358.9260700553343,54.955920189998324 L-358.9807271161691,54.970662860911716 M-358.9807271161691,54.970662860911716 L-359.0418375513425,54.97914103362177 M-359.0418375513425,54.97914103362177 L-359.1058492271652,54.98086174094891 M-359.1058492271652,54.98086174094891 L-359.1690392765721,54.9757246761867 M-359.1690392765721,54.9757246761867 L-359.2277345501939,54.964029077977614 M-359.2277345501939,54.964029077977614 L-359.2785215135841,54.94645475151833 M-359.2785215135841,54.94645475151833 L-359.31844911728774,54.9240245009093 M-359.31844911728774,54.9240245009093 L-359.34519647399566,54.89804203786059 M-359.34519647399566,54.89804203786059 L-359.35721137773965,54.87001857565923 M-359.35721137773965,54.87001857565923 L-359.3537964573684,54.841582585483366 M-359.3537964573684,54.841582585483366 L-359.3351525116036,54.814386945632236 M-359.3351525116036,54.814386945632236 L-359.3023641110368,54.79001127262609 M-359.3023641110368,54.79001127262609 L-359.2573383437068,54.76987177889748 M-359.2573383437068,54.76987177889748 L-359.202691442709,54.7551378270208 M-359.202691442709,54.7551378270208 L-359.1415991620552,54.74666524793838 M-359.1415991620552,54.74666524793838 L-359.0776094766604,54.74494572753349 M-359.0776094766604,54.74494572753349 L-359.0144402155562,54.750079300469224 M-359.0144402155562,54.750079300469224 L-358.95575976615976,54.76176752828468 M-358.95575976615976,54.76176752828468 L-358.90497844711854,54.77933221426929 M-358.92882398012875,58.901976357849776 L-358.9794983391773,58.88434198810728 M-358.9794983391773,58.88434198810728 L-359.038055496507,58.87260738893923 M-359.038055496507,58.87260738893923 L-359.1010922961227,58.8674534490284 M-359.1010922961227,58.8674534490284 L-359.1649480392548,58.869179791489444 M-359.1649480392548,58.869179791489444 L-359.2259126750455,58.87768598456694 M-359.2259126750455,58.87768598456694 L-359.2804456384099,58.89247839066462 M-359.2804456384099,58.89247839066462 L-359.3253777949151,58.91269778192304 M-359.3253777949151,58.91269778192304 L-359.35809835080136,58.93717015489574 M-359.35809835080136,58.93717015489574 L-359.37670416603146,58.96447367737056 M-359.37670416603146,58.96447367737056 L-359.380112891531,58.99302246562621 M-359.380112891531,58.99302246562621 L-359.3681240974204,59.02115708461639 M-359.3681240974204,59.02115708461639 L-359.341433643021,59.047242604358246 M-359.341433643021,59.047242604358246 L-359.3015904346314,59.06976181882146 M-359.3015904346314,59.06976181882146 L-359.2509104548069,59.08740584717526 M-359.2509104548069,59.08740584717526 L-359.19233853553817,59.09914783047452 M-359.19233853553817,59.09914783047452 L-359.12928103472996,59.10430526872045 M-359.12928103472996,59.10430526872045 L-359.0654033931489,59.102577737124875 M-359.0654033931489,59.102577737124875 L-359.0044206786149,59.0940659399937 M-359.0044206786149,59.0940659399937 L-358.94987759762785,59.079264798607824 M-358.94987759762785,59.079264798607824 L-358.9049456025683,59.05903554214524 M-358.9049456025683,59.05903554214524 L-358.87223545021243,59.03455443394341 M-358.87223545021243,59.03455443394341 L-358.8536478971473,59.00724530743679 M-358.8536478971473,59.00724530743679 L-358.85026110901606,58.97869533007429 M-358.85026110901606,58.97869533007429 L-358.8622704898189,58.95056420932741 M-358.8622704898189,58.95056420932741 L-358.88897546447095,58.92448607384222 M-358.88897546447095,58.92448607384222 L-358.92882398012875,58.901976357849776 M-358.624941816676,54.6540442986211 L-358.525101003994,54.71007874467534 M-358.525101003994,54.71007874467534 L-358.45816821385733,54.775002303129554 M-358.45816821385733,54.775002303129554 L-358.4280407840083,54.8450458827636 M-358.4280407840083,54.8450458827636 L-358.43648161768533,54.91614077226393 M-358.43648161768533,54.91614077226393 L-358.48301141098386,54.98415458605979 M-358.48301141098386,54.98415458605979 L-358.5649358860628,55.04513164287067 M-358.5649358860628,55.04513164287067 L-358.67749958464515,55.09552346907344 M-358.67749958464515,55.09552346907344 L-358.81416066834106,55.13239614838449 M-358.81416066834106,55.13239614838449 L-358.96697135062425,55.15360215704362 M-358.96697135062425,55.15360215704362 L-359.12704116933946,55.157906112974274 M-359.12704116933946,55.157906112974274 L-359.28505574014184,55.14505701769269 M-359.28505574014184,55.14505701769269 L-359.43182092789584,55.11580391212243 M-359.43182092789584,55.11580391212243 L-359.55879955713544,55.07185067498364 M-359.55879955713544,55.07185067498364 L-359.6586080120484,55.01575655405861 M-359.6586080120484,55.01575655405861 L-359.72544985246566,54.95078685052522 M-359.72544985246566,54.95078685052522 L-359.75544789453295,54.88072152729478 M-359.75544789453295,54.88072152729478 L-359.7468694669001,54.80963401610097 M-359.7468694669001,54.80963401610097 L-359.7002250539837,54.74165516254493 M-359.7002250539837,54.74165516254493 L-359.61823528192053,54.68073259916571 M-359.61823528192053,54.68073259916571 L-359.5056705679249,54.630402315799074 M-359.5056705679249,54.630402315799074 L-359.3690729830149,54.593584129918725 M-359.3690729830149,54.593584129918725 L-359.2163757667339,54.57241308153954 M-359.2163757667339,54.57241308153954 L-359.0564432972136,54.568116583610276 M-359.0564432972136,54.568116583610276 L-358.89855883434643,54.580943775566425 M-358.89855883434643,54.580943775566425 L-358.75188611638293,54.61015089540456 M-358.75188611638293,54.61015089540456 L-358.624941816676,54.6540442986211 M-358.6220697008862,54.169373784634786 L-358.52220406950084,54.22538199560063 M-358.52220406950084,54.22538199560063 L-358.4552545212771,54.29027515996995 M-358.4552545212771,54.29027515996995 L-358.4251193716084,54.36028595199957 M-358.4251193716084,54.36028595199957 L-358.4335619780477,54.43134756541292 M-358.4335619780477,54.43134756541292 L-358.4801029393361,54.49932954865551 M-358.4801029393361,54.49932954865551 L-358.5620473334484,54.560278070976665 M-358.5620473334484,54.560278070976665 L-358.6746385472869,54.61064631813116 M-358.6746385472869,54.61064631813116 L-358.8113331434108,54.64750174536107 M-358.8113331434108,54.64750174536107 L-358.9641813849905,54.66869783254651 M-358.9641813849905,54.66869783254651 L-359.1242906223016,54.672999774861864 M-359.1242906223016,54.672999774861864 L-359.28234417435533,54.66015669109737 M-359.28234417435533,54.66015669109737 L-359.42914563513295,54.63091727219387 M-359.42914563513295,54.63091727219387 L-359.5561557172441,54.58698460064733 M-359.5561557172441,54.58698460064733 L-359.65598897520863,54.53091672803362 M-359.65598897520863,54.53091672803362 L-359.72284752905534,54.46597742884529 M-359.72284752905534,54.46597742884529 L-359.7528532273409,54.395944898024936 M-359.7528532273409,54.395944898024936 L-359.74427295911687,54.32489066129051 M-359.74427295911687,54.32489066129051 L-359.6976173216085,54.25694363052946 M-359.6976173216085,54.25694363052946 L-359.6156075981262,54.19604958954699 M-359.6156075981262,54.19604958954699 L-359.5030153681238,54.14574287157109 M-359.5030153681238,54.14574287157109 L-359.366384301843,54.10894192567889 M-359.366384301843,54.10894192567889 L-359.213649582015,54.08778079101518 M-359.213649582015,54.08778079101518 L-359.05367776154685,54.083486305036274 M-359.05367776154685,54.083486305036274 L-358.89575438156214,54.09630749035563 M-358.89575438156214,54.09630749035563 L-358.7490454363558,54.12550093371249 M-358.7490454363558,54.12550093371249 L-358.6220697008862,54.169373784634786 M-358.6220697008862,54.169373784634786 L-358.624941816676,54.6540442986211" stroke="black"  stroke-width="4"  fill="red"/>
<path d="M-405.7190987153076,50.04773635301274 L-409.54463750728064,51.696466213872895 M-409.54463750728064,51.696466213872895 L-410.12001115768385,22.795750734664864 M-406.23711193996405,21.194470085674368 L-410.12001115768385,22.795750734664864 M-405.7190987153076,50.04773635301274 L-406.23711193996405,21.194470085674368 M-405.384644465689,81.47509452685301 L-328.7358416120769,117.68226385824926 M-328.7358416120769,117.68226385824926 L-328.62996793874754,112.82702770980814 M-328.62996793874754,112.82702770980814 L-240.78127500184792,154.05031687167337 M-241.1287631285535,159.0658759590139 L-240.78127500184792,154.05031687167337 M-241.1287631285535,159.0658759590139 L242.56164071552087,387.5503363021355 M242.56164071552087,387.5503363021355 L244.6931988722813,381.8608163584738 M244.6931988722813,381.8608163584738 L411.8267029057786,460.2887648580315 M408.9052637464956,466.127319921608 L411.8267029057786,460.2887648580315 M408.9052637464956,466.127319921608 L1104.2739453670083,794.6038344376756 M1104.2739453670083,794.6038344376756 L1147.853721195145,758.2885592923244 M1147.853721195145,758.2885592923244 L1163.177098891555,765.2407802568815 M1163.177098891555,765.2407802568815 L1210.1200111576838,726.7266969988997 M-410.12001115768385,22.795750734664864 L1210.1200111576838,726.7266969988997 M-409.54463750728064,51.696466213872895 L-405.89285312369384,53.353281862002575 M-405.384644465689,81.47509452685301 L-405.89285312369384,53.353281862002575 M1163.1518545076021,758.2885759145776 L1147.904906990683,751.4055936731446 M1104.5344799474078,787.7418249975482 L1147.904906990683,751.4055936731446 M1104.5344799474078,787.7418249975482 L411.69343474366246,462.0707467066902 M411.69343474366246,462.0707467066902 L414.61437609874315,456.2388478826142 M414.61437609874315,456.2388478826142 L247.85921519008411,378.37466974977974 M245.72408395526838,384.0565790867639 L247.85921519008411,378.37466974977974 M245.72408395526838,384.0565790867639 L-237.38445216910725,156.9706132937361 M-237.38445216910725,156.9706132937361 L-237.02785003845008,151.96288965535393 M-237.02785003845008,151.96288965535393 L-324.851670550466,110.95468596683713 M-324.9668532578746,115.80236092281393 L-324.851670550466,110.95468596683713 M-324.9668532578746,115.80236092281393 L-401.61438978548244,79.77405970988082 M-401.61438978548244,79.77405970988082 L-402.06688929064035,51.69646588291283 M-402.06688929064035,51.69646588291283 L-405.7190987153076,50.04773635301274 M1209.8519160775081,719.7613824970505 L-406.23711193996405,21.194470085674368 M1163.1518545076021,758.2885759145776 L1209.8519160775081,719.7613824970505 M-405.384644465689,81.47509452685301 L-401.61438978548244,79.77405970988082 M-405.89285312369384,53.353281862002575 L-402.06688929064035,51.69646588291283 M-324.9668532578746,115.80236092281393 L-328.7358416120769,117.68226385824926 M-324.851670550466,110.95468596683713 L-328.62996793874754,112.82702770980814 M-241.1287631285535,159.0658759590139 L-237.38445216910725,156.9706132937361 M-240.78127500184792,154.05031687167337 L-237.02785003845008,151.96288965535393 M245.72408395526838,384.0565790867639 L242.56164071552087,387.5503363021355 M247.85921519008411,378.37466974977974 L244.6931988722813,381.8608163584738 M408.9052637464956,466.127319921608 L411.69343474366246,462.0707467066902 M411.8267029057786,460.2887648580315 L414.61437609874315,456.2388478826142 M1104.5344799474078,787.7418249975482 L1104.2739453670083,794.6038344376756 M1147.904906990683,751.4055936731446 L1147.853721195145,758.2885592923244 M1163.177098891555,765.2407802568815 L1163.1518545076021,758.2885759145776 M1210.1200111576838,726.7266969988997 L1209.8519160775081,719.7613824970505" stroke="black"  stroke-width="4"  fill="red"/></svg>