<svg viewBox="0 0 800 800" xmlns="http://www.w3.org/2000/svg"><path d="M481.4291571568781,379.03190975964236 L402.43700015064917,424.6380528710579 M402.4370033970912,390.9000335581558 L402.43700015064917,424.6380528710579 M402.4370033970912,390.9000335581558 L402.43611902769334,390.4733133363262 M402.43611902769334,390.4733133363262 L402.43558838559835,390.0463676263317 M402.43558838559835,390.0463676263317 L402.4354114987542,389.6191964421029 M481.5957875550525,344.10981955710923 L402.4354114987542,389.6191964421029 M481.4291571568781,379.03190975964236 L481.5957875550525,344.10981955710923 M727.3885439691612,612.2488724769652 L695.8018362362127,594.012282317109 M319.1930880863637,820.5570615774362 L695.8018362362127,594.012282317109 M319.1930880863637,820.5570615774362 L251.7361981156789,779.5038668386933 M219.7681088212573,798.5533008566418 L251.7361981156789,779.5038668386933 M193.27609634471528,782.358414408129 L219.7681088212573,798.5533008566418 M225.24269458449982,763.3803402389682 L193.27609634471528,782.358414408129 M225.24269458449982,763.3803402389682 L89.66622777765377,680.8706500319199 M57.7106959459079,699.4856516178397 L89.66622777765377,680.8706500319199 M31.82294921654875,683.6601601018192 L57.7106959459079,699.4856516178397 M63.77571400894357,665.1140934504518 L31.82294921654875,683.6601601018192 M63.77571400894357,665.1140934504518 L56.181904350063235,660.4926211757822 M432.76501374840336,442.14793579462264 L56.181904350063235,660.4926211757822 M432.76501374840336,442.14793579462264 L402.43700015064917,424.6380528710579 M806.3299867563937,564.5521551291937 L481.4291571568781,379.03190975964236 M727.3885439691612,612.2488724769652 L806.3299867563937,564.5521551291937 M458.76915100889374,409.55556810260856 L458.34227426364333,409.36342753909463 M458.34227426364333,409.36342753909463 L457.84842743564155,409.23556625855196 M457.84842743564155,409.23556625855196 L457.31630056029934,409.17941082504996 M457.31630056029934,409.17941082504996 L456.7768088300855,409.19821926757146 M456.7768088300855,409.19821926757146 L456.2612866530836,409.2909041483338 M456.2612866530836,409.2909041483338 L455.79968647331657,409.4520793339015 M455.79968647331657,409.4520793339015 L455.41882559487414,409.6723871825418 M455.41882559487414,409.6723871825418 L455.1408399962218,409.9390315281264 M455.1408399962218,409.9390315281264 L454.9818885839524,410.23652481069945 M454.9818885839524,410.23652481069945 L454.95122842213533,410.5475802049749 M454.95122842213533,410.5475802049749 L455.0506476267301,410.85412398019906 M455.0506476267301,410.85412398019906 L455.27438622249855,411.1383360233494 M455.27438622249855,411.1383360233494 L455.60944748228616,411.38369331580117 M455.60944748228616,411.38369331580117 L456.0363666712597,411.57592898569834 M456.0363666712597,411.57592898569834 L456.53032564724214,411.7038629132519 M456.53032564724214,411.7038629132519 L457.06261020212173,411.76005276275157 M457.06261020212173,411.76005276275157 L457.6022690199231,411.74123262245683 M457.6022690199231,411.74123262245683 L458.11792941581905,411.64849260726373 M458.11792941581905,411.64849260726373 L458.5796072807915,411.48723148375626 M458.5796072807915,411.48723148375626 L458.96046751436415,411.2668265799145 M458.96046751436415,411.2668265799145 L459.2383742858074,411.00009629641977 M459.2383742858074,411.00009629641977 L459.39718674652556,410.70254788018076 M459.39718674652556,410.70254788018076 L459.4276796653051,410.39148078724656 M459.4276796653051,410.39148078724656 L459.3281032385208,410.0849714282755 M459.3281032385208,410.0849714282755 L459.1042534601522,409.80083203186865 M459.1042534601522,409.80083203186865 L458.76915100889374,409.55556810260856 M752.740691257266,578.3051185962432 L752.2980706409978,578.1050238996223 M752.2980706409978,578.1050238996223 L751.7894632303107,577.9718765449488 M751.7894632303107,577.9718765449488 L751.2443772521647,577.9133875702809 M751.2443772521647,577.9133875702809 L750.6945394054987,577.9329842355547 M750.6945394054987,577.9329842355547 L750.1718116105428,578.0294914762117 M750.1718116105428,578.0294914762117 L749.7066234688889,578.197334879998 M749.7066234688889,578.197334879998 L749.3259817580126,578.426758870191 M749.3259817580126,578.426758870191 L749.0520100284411,578.7044379638402 M749.0520100284411,578.7044379638402 L748.9006535142225,579.01425476991 M748.9006535142225,579.01425476991 L748.8806698440528,579.3381727092694 M748.8806698440528,579.3381727092694 L748.9933005044695,579.6574127852853 M748.9933005044695,579.6574127852853 L749.2319591231949,579.9533828393919 M749.2319591231949,579.9533828393919 L749.5828210539216,580.2088985871867 M749.5828210539216,580.2088985871867 L750.0254624919796,580.4090789013379 M750.0254624919796,580.4090789013379 L750.5342146881433,580.5423179850718 M750.5342146881433,580.5423179850718 L751.0794408537329,580.6008290111009 M751.0794408537329,580.6008290111009 L751.6294775637734,580.5812344374062 M751.6294775637734,580.5812344374062 L752.1523219561054,580.4846540831946 M752.1523219561054,580.4846540831946 L752.6175878062036,580.3167193521243 M752.6175878062036,580.3167193521243 L752.9982252399486,580.0871922195064 M752.9982252399486,580.0871922195064 L753.2721116866787,579.8094217975753 M753.2721116866787,579.8094217975753 L753.4233467442234,579.499560923668 M753.4233467442234,579.499560923668 L753.4431305199032,579.1756160274011 M753.4431305199032,579.1756160274011 L753.330362705484,578.8564270510053 M753.330362705484,578.8564270510053 L753.0915657043074,578.5605196759843 M753.0915657043074,578.5605196759843 L752.740691257266,578.3051185962432 M432.8271246360672,408.3740641742821 L402.4370033970912,390.9000335581558 M432.8271246360672,408.3740641742821 L432.76501374840336,442.14793579462264 M432.82789230770226,407.0918631032703 L432.82728263211,407.5194898752569 M432.82728263211,407.5194898752569 L432.827026750882,407.9468902369012 M432.827026750882,407.9468902369012 L432.8271246360672,408.3740641742821 M402.4354114987542,389.6191964421029 L432.82789230770226,407.0918631032703 M696.4353164251681,558.6400266101269 L728.0919284559891,576.8394435354339 M728.0919284559891,576.8394435354339 L807.201262366588,529.2393643216906 M807.201262366588,529.2393643216906 L481.5957875550525,344.10981955710923 M432.82789230770226,407.0918631032703 L55.42641622522535,624.9847069120505 M55.42641622522535,624.9847069120505 L63.03639169581618,629.5968992333069 M63.03639169581618,629.5968992333069 L31.01210120874481,648.1058354259221 M31.01210120874481,648.1058354259221 L56.95508170722263,663.8997827569962 M56.95508170722263,663.8997827569962 L88.98215743222858,645.321898868464 M88.98215743222858,645.321898868464 L224.85138380655712,727.66841956363 M224.85138380655712,727.66841956363 L192.81316849729726,746.6094570516996 M192.81316849729726,746.6094570516996 L219.3630532713667,762.7728844494245 M219.3630532713667,762.7728844494245 L251.40276955601556,743.7604684730672 M251.40276955601556,743.7604684730672 L319.0080306767061,784.7341177867054 M696.4353164251681,558.6400266101269 L319.0080306767061,784.7341177867054 M461.26227757998424,373.20035160670744 L462.10189177179814,373.81202269945794 M462.10189177179814,373.81202269945794 L462.662918511299,374.52071695692456 M462.662918511299,374.52071695692456 L462.91269618551837,375.2852874614406 M462.91269618551837,375.2852874614406 L462.83662199417495,376.0613162629212 M462.83662199417495,376.0613162629212 L462.439028761939,376.8036991427585 M462.439028761939,376.8036991427585 L461.74294805819557,377.4692622951583 M461.74294805819557,377.4692622951583 L460.78879033657694,378.0192791459023 M460.78879033657694,378.0192791459023 L459.63200856079965,378.42173215251864 M459.63200856079965,378.42173215251864 L458.33987331588804,378.65318674836743 M458.33987331588804,378.65318674836743 L456.9875526262544,378.7001624317138 M456.9875526262544,378.7001624317138 L455.6537247403059,378.559922084225 M455.6537247403059,378.559922084225 L454.41599558870337,378.2406356890929 M454.41599558870337,378.2406356890929 L453.34635594608835,377.7608962512346 M453.34635594608835,377.7608962512346 L452.50699227483125,377.1486370750192 M452.50699227483125,377.1486370750192 L451.94666184646184,376.4394879159948 M451.94666184646184,376.4394879159948 L451.69787249409654,375.6747031851693 M451.69787249409654,375.6747031851693 L451.7749956276506,374.89874706377657 M451.7749956276506,374.89874706377657 L452.1734609926342,374.1567087601312 M452.1734609926342,374.1567087601312 L452.8700364642082,373.4916827075643 M452.8700364642082,373.4916827075643 L453.82419824198814,372.9422724371992 M453.82419824198814,372.9422724371992 L454.9804924329836,372.54035653038983 M454.9804924329836,372.54035653038983 L456.27176015331827,372.30924651110985 M456.27176015331827,372.30924651110985 L457.6230328783989,372.2623443777468 M457.6230328783989,372.2623443777468 L458.9558695657641,372.4023687592186 M458.9558695657641,372.4023687592186 L460.19289633421585,372.72120199252424 M460.19289633421585,372.72120199252424 L461.26227757998424,373.20035160670744 M755.8700559192653,541.5397260473968 L756.7493056933886,542.1767521391419 M756.7493056933886,542.1767521391419 L757.3478283107941,542.9148376541394 M757.3478283107941,542.9148376541394 L757.6307618785577,543.7111184831024 M757.6307618785577,543.7111184831024 L757.5815550085767,544.5193241345197 M757.5815550085767,544.5193241345197 L757.2030266336767,545.2925094526393 M757.2030266336767,545.2925094526393 L756.5170399943486,545.9856765721736 M756.5170399943486,545.9856765721736 L755.5634497265264,546.5585113883905 M755.5634497265264,546.5585113883905 L754.3976738575375,546.9776669740851 M754.3976738575375,546.9776669740851 L753.0874713980625,547.2187155715974 M753.0874713980625,547.2187155715974 L751.709118503127,547.2676493800253 M751.709118503127,547.2676493800253 L750.3427583131668,547.1215876627219 M750.3427583131668,547.1215876627219 L749.0679104985288,546.789050653903 M749.0679104985288,546.789050653903 L747.9587471227749,546.2894153855395 M747.9587471227749,546.2894153855395 L747.0797092995406,545.6517488283807 M747.0797092995406,545.6517488283807 L746.4818964825633,544.9131807435888 M746.4818964825633,544.9131807435888 L746.2000079484503,544.1166857959413 M746.2000079484503,544.1166857959413 L746.2502854341749,543.3085433592893 M746.2502854341749,543.3085433592893 L746.6297603531857,542.535738769791 M746.6297603531857,542.535738769791 L747.316257013928,541.8431280144811 M747.316257013928,541.8431280144811 L748.2698741874481,541.2709379036617 M748.2698741874481,541.2709379036617 L749.4351876824987,540.8523676679827 M749.4351876824987,540.8523676679827 L750.7444741658837,540.6116708064781 M750.7444741658837,540.6116708064781 L752.1217629312248,540.5628292066372 M752.1217629312248,540.5628292066372 L753.4870590060416,540.7086478199503 M753.4870590060416,540.7086478199503 L754.7611567417714,541.0407022554192 M754.7611567417714,541.0407022554192 L755.8700559192653,541.5397260473968 M806.3299867563937,564.5521551291937 L807.201262366588,529.2393643216906 M728.0677157650503,578.1345954976816 L696.4136626598277,559.933816082042 M728.0677157650503,578.1345954976816 L727.3885439691612,612.2488724769652 M696.4136626598277,559.933816082042 L695.8018362362127,594.012282317109 M696.4136626598277,559.933816082042 L696.4205265860937,559.5027875406162 M696.4205265860937,559.5027875406162 L696.4277444985582,559.0715243787059 M696.4277444985582,559.0715243787059 L696.4353164251681,558.6400266101269 M319.1930880863637,820.5570615774362 L319.0080306767061,784.7341177867054 M251.7361981156789,779.5038668386933 L251.40276955601556,743.7604684730672 M219.7681088212573,798.5533008566418 L219.3630532713667,762.7728844494245 M193.27609634471528,782.358414408129 L192.81316849729726,746.6094570516996 M225.24269458449982,763.3803402389682 L224.85138380655712,727.66841956363 M89.66622777765377,680.8706500319199 L88.98215743222858,645.321898868464 M57.7106959459079,699.4856516178397 L56.95508170722263,663.8997827569962 M31.82294921654875,683.6601601018192 L31.01210120874481,648.1058354259221 M63.77571400894357,665.1140934504518 L63.03639169581618,629.5968992333069 M56.181904350063235,660.4926211757822 L55.42641622522535,624.9847069120505 M728.0919284559891,576.8394435354339 L728.0835035421733,577.2713964610297 M728.0835035421733,577.2713964610297 L728.075432654508,577.7031137863792 M728.075432654508,577.7031137863792 L728.0677157650503,578.1345954976816 M458.76915100889374,409.55556810260856 L458.8758789626848,378.2481794237106 M458.8758789626848,378.2481794237106 L459.2116194892465,378.4929743808916 M459.2116194892465,378.4929743808916 L459.43589710225274,378.7765705054966 M459.43589710225274,378.7765705054966 L459.5356662193923,379.08249386305823 M459.5356662193923,379.08249386305823 L459.5051196057242,379.3929662849439 M459.5051196057242,379.3929662849439 L459.3460101159862,379.6899459155251 M459.3460101159862,379.6899459155251 L459.0675802127034,379.95616635902735 M459.0675802127034,379.95616635902735 L458.68600111500507,380.1761499958838 M458.68600111500507,380.1761499958838 L458.2234504342241,380.3371029099412 M458.2234504342241,380.3371029099412 L457.7068140159506,380.42966568168777 M457.7068140159506,380.42966568168777 L457.16613274434275,380.44844985366996 M457.16613274434275,380.44844985366996 L456.6328387710365,380.3923673924842 M456.6328387710365,380.3923673924842 L456.13794213331545,380.26467797372794 M456.13794213331545,380.26467797372794 L455.7102115645469,380.0728097209841 M455.7102115645469,380.0728097209841 L455.37451238163925,379.8279214008857 M455.37451238163925,379.8279214008857 L455.15034637204644,379.5442526310335 M455.15034637204644,379.5442526310335 L455.0507350730277,379.2382948579274 M455.0507350730277,379.2382948579274 L455.08144956425764,378.9278341344596 M455.08144956425764,378.9278341344596 L455.24069853330656,378.6309096364089 M455.24069853330656,378.6309096364089 L455.5192075638874,378.36477512904696 M455.5192075638874,378.36477512904696 L455.900787310128,378.14488854539303 M455.900787310128,378.14488854539303 L456.36326001211864,377.9840215675055 M456.36326001211864,377.9840215675055 L456.87975768791085,377.89151392905416 M456.87975768791085,377.89151392905416 L457.42027123829206,377.8727414546043 M457.42027123829206,377.8727414546043 L457.9534069335252,377.9287895005012 M457.9534069335252,377.9287895005012 L458.4481909969543,378.0564062737427 M458.4481909969543,378.0564062737427 L458.8758789626848,378.2481794237106 M752.740691257266,578.3051185962432 L753.4179857731817,546.6815876729105 M753.4179857731817,546.6815876729105 L753.7695592477521,546.9365201803676 M753.7695592477521,546.9365201803676 L754.008841883985,547.2318847055623 M754.008841883985,547.2318847055623 L754.1218535541423,547.5504881664858 M754.1218535541423,547.5504881664858 L754.1020577183788,547.8738388709098 M754.1020577183788,547.8738388709098 L753.9505552601852,548.1831314314896 M753.9505552601852,548.1831314314896 L753.6761616090191,548.4603924343953 M753.6761616090191,548.4603924343953 L753.2948065963492,548.6894986508331 M753.2948065963492,548.6894986508331 L752.8286544969294,548.8571254316912 M752.8286544969294,548.8571254316912 L752.3048067231041,548.9535286875997 M752.3048067231041,548.9535286875997 L751.7537078350922,548.9730873314687 M751.7537078350922,548.9730873314687 L751.2074225262886,548.9146835954086 M751.2074225262886,548.9146835954086 L750.6976757560565,548.7816888341769 M750.6976757560565,548.7816888341769 L750.2541622726797,548.5818756089825 M750.2541622726797,548.5818756089825 L749.9026014026576,548.3268284505165 M749.9026014026576,548.3268284505165 L749.6634576305041,548.0314012121947 M749.6634576305041,548.0314012121947 L749.5505836901805,547.712746674788 M749.5505836901805,547.712746674788 L749.5705801473941,547.3894229018208 M749.5705801473941,547.3894229018208 L749.7222045849883,547.0801744413361 M749.7222045849883,547.0801744413361 L749.9966838564822,546.8030047754651 M749.9966838564822,546.8030047754651 L750.378043171143,546.5740017113374 M750.378043171143,546.5740017113374 L750.8441172686557,546.4064662665158 M750.8441172686557,546.4064662665158 L751.367847950622,546.3101361031349 M751.367847950622,546.3101361031349 L751.9187472542919,546.2905753955205 M751.9187472542919,546.2905753955205 L752.4648917821901,546.3489570500717 M752.4648917821901,546.3489570500717 L752.9744932481019,546.4818601014863 M752.9744932481019,546.4818601014863 L753.4179857731817,546.6815876729105 M461.26227757998424,373.20035160670744 L461.24920628651745,376.8802388299012 M461.24920628651745,376.8802388299012 L462.08863292825157,377.49204832116254 M462.08863292825157,377.49204832116254 L462.64953384280597,378.2009029045371 M462.64953384280597,378.2009029045371 L462.89925475548785,378.9656463451703 M462.89925475548785,378.9656463451703 L462.8231962027503,379.74185064209865 M462.8231962027503,379.74185064209865 L462.42569013998866,380.48440137796933 M462.42569013998866,380.48440137796933 L461.729763103942,381.1501149917368 M461.729763103942,381.1501149917368 L460.77581663674033,381.7002561646156 M460.77581663674033,381.7002561646156 L459.61929142476356,382.10280012863586 M459.61929142476356,382.10280012863586 L458.32744312381226,382.3343070309879 M458.32744312381226,382.3343070309879 L456.97542304929624,382.3812933300306 M456.97542304929624,382.3812933300306 L455.6418919398464,382.24102129028125 M455.6418919398464,382.24102129028125 L454.4044384399814,381.9216627371346 M454.4044384399814,381.9216627371346 L453.3350372780379,381.4418148688459 M453.3350372780379,381.4418148688459 L452.4958610467226,380.8294172920521 M452.4958610467226,380.8294172920521 L451.9356561341459,380.1201078051774 M451.9356561341459,380.1201078051774 L451.6869231046923,379.35515013760454 M451.6869231046923,379.35515013760454 L451.7640301331371,378.5790185209468 M451.7640301331371,378.5790185209468 L452.16240794049526,377.8368123625928 M452.16240794049526,377.8368123625928 L452.85882952366376,377.1716358507232 M452.85882952366376,377.1716358507232 L453.8127800443226,376.6221012605554 M453.8127800443226,376.6221012605554 L454.96881788743787,376.2200943984069 M454.96881788743787,376.2200943984069 L456.2597990488916,375.9889320739485 M456.2597990488916,375.9889320739485 L457.61077162470605,375.94201932526846 M457.61077162470605,375.94201932526846 L458.94331197611626,376.0820753979771 M458.94331197611626,376.0820753979771 L460.180063406032,376.40098078774867 M460.180063406032,376.40098078774867 L461.24920628651745,376.8802388299012 M755.8700559192653,541.5397260473968 L755.7899117817515,545.2569372843457 M755.7899117817515,545.2569372843457 L756.6689560668244,545.8941017005399 M756.6689560668244,545.8941017005399 L757.267335860382,546.6323474566286 M757.267335860382,546.6323474566286 L757.5501976010185,547.428801128 M757.5501976010185,547.428801128 L757.5009941192213,548.2371821751212 M757.5009941192213,548.2371821751212 L757.1225441811714,549.0105352557538 M757.1225441811714,549.0105352557538 L756.4367065181052,549.7038527482505 M756.4367065181052,549.7038527482505 L755.4833271215032,550.2768118133635 M755.4833271215032,550.2768118133635 L754.3178117649636,550.6960583033895 M754.3178117649636,550.6960583033895 L753.0079043084306,550.937159173984 M753.0079043084306,550.937159173984 L751.6298637151999,550.9861035936677 M751.6298637151999,550.9861035936677 L750.2638149463871,550.8400102026177 M750.2638149463871,550.8400102026177 L748.9892595278507,550.5074010782373 M748.9892595278507,550.5074010782373 L747.8803524963957,550.0076574453226 M747.8803524963957,550.0076574453226 L747.0015200663829,549.3698525667296 M747.0015200663829,549.3698525667296 L746.4038497558586,548.631124245596 M746.4038497558586,548.631124245596 L746.1220325826282,547.8344564609359 M746.1220325826282,547.8344564609359 L746.1723061881974,547.0261386246691 M746.1723061881974,547.0261386246691 L746.5517022431591,546.2531662721993 M746.5517022431591,546.2531662721993 L747.2380496852834,545.5604051351627 M747.2380496852834,545.5604051351627 L748.1914559692791,544.9880907691021 M748.1914559692791,544.9880907691021 L749.3565091618211,544.5694296266191 M749.3565091618211,544.5694296266191 L750.6655010486675,544.328680485282 M750.6655010486675,544.328680485282 L752.0424779998625,544.2798282765661 M752.0424779998625,544.2798282765661 L753.4074631327583,544.4256785627302 M753.4074631327583,544.4256785627302 L754.6812688171831,544.75780511851 M754.6812688171831,544.75780511851 L755.7899117817515,545.2569372843457" stroke="black"  stroke-width="4"  fill="red"/>
<path d="M727.3885439691612,612.2488724769652 L318.82214855068145,859.1062289176919 M727.3885439691612,612.2488724769652 L695.8018362362127,594.012282317109 M287.2221934402129,839.7887955877294 L695.8018362362127,594.012282317109 M318.82214855068145,859.1062289176919 L287.2221934402129,839.7887955877294 M728.0677157650503,578.1345954976816 L727.3885439691612,612.2488724769652 M771.8858798780623,352.2676294946736 L765.2509912445046,371.94693243904624 M765.2509912445046,371.94693243904624 L759.1357737579037,391.573622080829 M759.1357737579037,391.573622080829 L753.5492652029552,411.11591728634346 M753.5492652029552,411.11591728634346 L748.4995422446923,430.5423074239054 M748.4995422446923,430.5423074239054 L743.993691085464,449.82160698584255 M743.993691085464,449.82160698584255 L740.0378073374134,468.92302117879484 M740.0378073374134,468.92302117879484 L736.6369924178928,487.8161986845258 M736.6369924178928,487.8161986845258 L733.7953508384792,506.471276146449 M733.7953508384792,506.471276146449 L731.515985999632,524.8589934902229 M731.515985999632,524.8589934902229 L729.8010086714846,542.9506590042739 M729.8010086714846,542.9506590042739 L728.651538930131,560.7182905646 M728.651538930131,560.7182905646 L728.0677157650503,578.1345954976816 M772.6311689363633,350.1418729911547 L772.7899796232177,350.17254980204336 M772.7899796232177,350.17254980204336 L772.9178976725168,350.2632242905471 M772.9178976725168,350.2632242905471 L773.0074909581299,350.40859918082606 M773.0074909581299,350.40859918082606 L773.0535559060654,350.60024696140187 M773.0535559060654,350.60024696140187 L773.0534149012112,350.82702391787626 M773.0534149012112,350.82702391787626 L773.0070845980586,351.07573178995847 M773.0070845980586,351.07573178995847 L772.9172507323381,351.3319500946607 M772.9172507323381,351.3319500946607 L772.7891399429218,351.5807708071739 M772.7891399429218,351.5807708071739 L772.6301915305062,351.80773662200784 M772.6301915305062,351.80773662200784 L772.4496445787038,351.99967120600235 M772.4496445787038,351.99967120600235 L772.2579856858365,352.1454194364406 M772.2579856858365,352.1454194364406 L772.0663535576864,352.2364985867808 M772.0663535576864,352.2364985867808 L771.8858798780623,352.2676294946736 M817.2671703676322,121.26822480002153 L816.5426844751139,139.37233515612644 M816.5426844751139,139.37233515612644 L815.2577024466607,157.73638547125117 M815.2577024466607,157.73638547125117 L813.4156002221141,176.33543579978507 M813.4156002221141,176.33543579978507 L811.0203864538373,195.14443721030565 M811.0203864538373,195.14443721030565 L808.0767247475542,214.13820076940192 M808.0767247475542,214.13820076940192 L804.5898651427915,233.29141872254067 M804.5898651427915,233.29141872254067 L800.5656874886986,252.5788524281195 M800.5656874886986,252.5788524281195 L796.010641806278,271.9750861393934 M796.010641806278,271.9750861393934 L790.9317790426173,291.45483692640113 M790.9317790426173,291.45483692640113 L785.336710807506,310.9927552361758 M785.336710807506,310.9927552361758 L779.2336030219358,330.56349556130834 M779.2336030219358,330.56349556130834 L772.6311689363633,350.1418729911547 M349.3483180766081,389.2686863128678 L817.2671703676322,121.26822480002153 M350.08106928407545,617.6379632939893 L349.3483180766081,389.2686863128678 M317.6654433575952,636.7208187354324 L350.08106928407545,617.6379632939893 M318.82214855068145,859.1062289176919 L317.6654433575952,636.7208187354324 M728.0677157650503,578.1345954976816 L696.4136626598277,559.933816082042 M696.4136626598277,559.933816082042 L695.8018362362127,594.012282317109 M287.2221934402129,839.7887955877294 L285.63192697040887,617.6379632939893 M318.0466936340471,598.6409323971586 L285.63192697040887,617.6379632939893 M318.0466936340471,598.6409323971586 L316.8682824847529,370.52709225619344 M784.8116157012464,103.72755717403675 L316.8682824847529,370.52709225619344 M784.8116157012464,103.72755717403675 L784.1226287845755,121.81009504473269 M784.1226287845755,121.81009504473269 L782.8729462418607,140.15130759564238 M782.8729462418607,140.15130759564238 L781.0658948259384,158.72628518160207 M781.0658948259384,158.72628518160207 L778.7054349761672,177.51000994548065 M778.7054349761672,177.51000994548065 L775.7961830407683,196.4773249096113 M775.7961830407683,196.4773249096113 L772.3433427246782,215.60295503554886 M772.3433427246782,215.60295503554886 L768.3527489094365,234.86169507048882 M768.3527489094365,234.86169507048882 L763.830807451558,254.2281635212719 M763.830807451558,254.2281635212719 L758.7845266049178,273.67711233613215 M758.7845266049178,273.67711233613215 L753.2214763077097,293.1832276446706 M753.2214763077097,293.1832276446706 L747.1497819656397,312.7212003776953 M747.1497819656397,312.7212003776953 L740.578117773812,332.2658826793605 M739.8361320866445,334.3879282178402 L740.0167760172824,334.3571803083033 M740.0167760172824,334.3571803083033 L740.2084725414443,334.2665696852342 M740.2084725414443,334.2665696852342 L740.4000862083792,334.1213483032463 M740.4000862083792,334.1213483032463 L740.5804809601811,333.9299682565475 M740.5804809601811,333.9299682565475 L740.7391790471017,333.703552454774 M740.7391790471017,333.703552454774 L740.8669558979848,333.45524528447766 M740.8669558979848,333.45524528447766 L740.9563916172262,333.1994742287151 M740.9563916172262,333.1994742287151 L741.0022827315863,332.95112129712265 M741.0022827315863,332.95112129712265 L741.0019689728254,332.72458639908314 M741.0019689728254,332.72458639908314 L740.9554601467087,332.53305369299153 M740.9554601467087,332.53305369299153 L740.8654596828858,332.38766019866966 M740.8654596828858,332.38766019866966 L740.737194778126,332.296834520118 M740.737194778126,332.296834520118 L740.578117773812,332.2658826793605 M696.4136626598277,559.933816082042 L696.9634095791232,542.5363834663608 M696.9634095791232,542.5363834663608 L698.0788306475713,524.7891841653786 M698.0788306475713,524.7891841653786 L699.7598379136441,506.71948019410786 M699.7598379136441,506.71948019410786 L702.0053627769976,488.3552196982497 M702.0053627769976,488.3552196982497 L704.8133464371117,469.72505707144853 M704.8133464371117,469.72505707144853 L708.1807376974346,450.85821189709776 M708.1807376974346,450.85821189709776 L712.1034845660408,431.7845038445684 M712.1034845660408,431.7845038445684 L716.5765382549916,412.53423751060825 M716.5765382549916,412.53423751060825 L721.5938558217276,393.13815802318885 M721.5938558217276,393.13815802318885 L727.148403685125,373.627398385535 M727.148403685125,373.627398385535 L733.2321576306183,354.03341400144257 M733.2321576306183,354.03341400144257 L739.8361320866445,334.3879282178402 M285.63192697040887,617.6379632939893 L317.6654433575952,636.7208187354324 M771.8858798780623,352.2676294946736 L739.8361320866445,334.3879282178402 M772.6311689363633,350.1418729911547 L740.578117773812,332.2658826793605 M817.2671703676322,121.26822480002153 L784.8116157012464,103.72755717403675 M349.3483180766081,389.2686863128678 L316.8682824847529,370.52709225619344 M350.08106928407545,617.6379632939893 L318.0466936340471,598.6409323971586" stroke="black"  stroke-width="4"  fill="red"/>
<path d="M752.740691257266,578.3051185962432 L753.4179857731817,546.6815876729105 M753.4179857731817,546.6815876729105 L753.7695592477521,546.9365201803676 M753.7695592477521,546.9365201803676 L754.008841883985,547.2318847055623 M754.008841883985,547.2318847055623 L754.1218535541423,547.5504881664858 M754.1218535541423,547.5504881664858 L754.1020577183788,547.8738388709098 M754.1020577183788,547.8738388709098 L753.9505552601852,548.1831314314896 M753.9505552601852,548.1831314314896 L753.6761616090191,548.4603924343953 M753.6761616090191,548.4603924343953 L753.2948065963492,548.6894986508331 M753.2948065963492,548.6894986508331 L752.8286544969294,548.8571254316912 M752.8286544969294,548.8571254316912 L752.3048067231041,548.9535286875997 M752.3048067231041,548.9535286875997 L751.7537078350922,548.9730873314687 M751.7537078350922,548.9730873314687 L751.2074225262886,548.9146835954086 M751.2074225262886,548.9146835954086 L750.6976757560565,548.7816888341769 M750.6976757560565,548.7816888341769 L750.2541622726797,548.5818756089825 M750.2541622726797,548.5818756089825 L749.9026014026576,548.3268284505165 M749.9026014026576,548.3268284505165 L749.6634576305041,548.0314012121947 M749.6634576305041,548.0314012121947 L749.5505836901805,547.712746674788 M749.5505836901805,547.712746674788 L749.5705801473941,547.3894229018208 M749.5705801473941,547.3894229018208 L749.7222045849883,547.0801744413361 M749.7222045849883,547.0801744413361 L749.9966838564822,546.8030047754651 M749.9966838564822,546.8030047754651 L750.378043171143,546.5740017113374 M750.378043171143,546.5740017113374 L750.8441172686557,546.4064662665158 M750.8441172686557,546.4064662665158 L751.367847950622,546.3101361031349 M751.367847950622,546.3101361031349 L751.9187472542919,546.2905753955205 M751.9187472542919,546.2905753955205 L752.4648917821901,546.3489570500717 M752.4648917821901,546.3489570500717 L752.9744932481019,546.4818601014863 M752.9744932481019,546.4818601014863 L753.4179857731817,546.6815876729105 M752.740691257266,578.3051185962432 L752.2980706409978,578.1050238996223 M752.2980706409978,578.1050238996223 L751.7894632303107,577.9718765449488 M751.7894632303107,577.9718765449488 L751.2443772521647,577.9133875702809 M751.2443772521647,577.9133875702809 L750.6945394054987,577.9329842355547 M750.6945394054987,577.9329842355547 L750.1718116105428,578.0294914762117 M750.1718116105428,578.0294914762117 L749.7066234688889,578.197334879998 M749.7066234688889,578.197334879998 L749.3259817580126,578.426758870191 M749.3259817580126,578.426758870191 L749.0520100284411,578.7044379638402 M749.0520100284411,578.7044379638402 L748.9006535142225,579.01425476991 M748.9006535142225,579.01425476991 L748.8806698440528,579.3381727092694 M748.8806698440528,579.3381727092694 L748.9933005044695,579.6574127852853 M748.9933005044695,579.6574127852853 L749.2319591231949,579.9533828393919 M749.2319591231949,579.9533828393919 L749.5828210539216,580.2088985871867 M749.5828210539216,580.2088985871867 L750.0254624919796,580.4090789013379 M750.0254624919796,580.4090789013379 L750.5342146881433,580.5423179850718 M750.5342146881433,580.5423179850718 L751.0794408537329,580.6008290111009 M751.0794408537329,580.6008290111009 L751.6294775637734,580.5812344374062 M751.6294775637734,580.5812344374062 L752.1523219561054,580.4846540831946 M752.1523219561054,580.4846540831946 L752.6175878062036,580.3167193521243 M752.6175878062036,580.3167193521243 L752.9982252399486,580.0871922195064 M752.9982252399486,580.0871922195064 L753.2721116866787,579.8094217975753 M753.2721116866787,579.8094217975753 L753.4233467442234,579.499560923668 M753.4233467442234,579.499560923668 L753.4431305199032,579.1756160274011 M753.4431305199032,579.1756160274011 L753.330362705484,578.8564270510053 M753.330362705484,578.8564270510053 L753.0915657043074,578.5605196759843 M753.0915657043074,578.5605196759843 L752.740691257266,578.3051185962432 M755.7899117817515,545.2569372843457 L756.6689560668244,545.8941017005399 M756.6689560668244,545.8941017005399 L757.267335860382,546.6323474566286 M757.267335860382,546.6323474566286 L757.5501976010185,547.428801128 M757.5501976010185,547.428801128 L757.5009941192213,548.2371821751212 M757.5009941192213,548.2371821751212 L757.1225441811714,549.0105352557538 M757.1225441811714,549.0105352557538 L756.4367065181052,549.7038527482505 M756.4367065181052,549.7038527482505 L755.4833271215032,550.2768118133635 M755.4833271215032,550.2768118133635 L754.3178117649636,550.6960583033895 M754.3178117649636,550.6960583033895 L753.0079043084306,550.937159173984 M753.0079043084306,550.937159173984 L751.6298637151999,550.9861035936677 M751.6298637151999,550.9861035936677 L750.2638149463871,550.8400102026177 M750.2638149463871,550.8400102026177 L748.9892595278507,550.5074010782373 M748.9892595278507,550.5074010782373 L747.8803524963957,550.0076574453226 M747.8803524963957,550.0076574453226 L747.0015200663829,549.3698525667296 M747.0015200663829,549.3698525667296 L746.4038497558586,548.631124245596 M746.4038497558586,548.631124245596 L746.1220325826282,547.8344564609359 M746.1220325826282,547.8344564609359 L746.1723061881974,547.0261386246691 M746.1723061881974,547.0261386246691 L746.5517022431591,546.2531662721993 M746.5517022431591,546.2531662721993 L747.2380496852834,545.5604051351627 M747.2380496852834,545.5604051351627 L748.1914559692791,544.9880907691021 M748.1914559692791,544.9880907691021 L749.3565091618211,544.5694296266191 M749.3565091618211,544.5694296266191 L750.6655010486675,544.328680485282 M750.6655010486675,544.328680485282 L752.0424779998625,544.2798282765661 M752.0424779998625,544.2798282765661 L753.4074631327583,544.4256785627302 M753.4074631327583,544.4256785627302 L754.6812688171831,544.75780511851 M754.6812688171831,544.75780511851 L755.7899117817515,545.2569372843457 M755.8700559192653,541.5397260473968 L756.7493056933886,542.1767521391419 M756.7493056933886,542.1767521391419 L757.3478283107941,542.9148376541394 M757.3478283107941,542.9148376541394 L757.6307618785577,543.7111184831024 M757.6307618785577,543.7111184831024 L757.5815550085767,544.5193241345197 M757.5815550085767,544.5193241345197 L757.2030266336767,545.2925094526393 M757.2030266336767,545.2925094526393 L756.5170399943486,545.9856765721736 M756.5170399943486,545.9856765721736 L755.5634497265264,546.5585113883905 M755.5634497265264,546.5585113883905 L754.3976738575375,546.9776669740851 M754.3976738575375,546.9776669740851 L753.0874713980625,547.2187155715974 M753.0874713980625,547.2187155715974 L751.709118503127,547.2676493800253 M751.709118503127,547.2676493800253 L750.3427583131668,547.1215876627219 M750.3427583131668,547.1215876627219 L749.0679104985288,546.789050653903 M749.0679104985288,546.789050653903 L747.9587471227749,546.2894153855395 M747.9587471227749,546.2894153855395 L747.0797092995406,545.6517488283807 M747.0797092995406,545.6517488283807 L746.4818964825633,544.9131807435888 M746.4818964825633,544.9131807435888 L746.2000079484503,544.1166857959413 M746.2000079484503,544.1166857959413 L746.2502854341749,543.3085433592893 M746.2502854341749,543.3085433592893 L746.6297603531857,542.535738769791 M746.6297603531857,542.535738769791 L747.316257013928,541.8431280144811 M747.316257013928,541.8431280144811 L748.2698741874481,541.2709379036617 M748.2698741874481,541.2709379036617 L749.4351876824987,540.8523676679827 M749.4351876824987,540.8523676679827 L750.7444741658837,540.6116708064781 M750.7444741658837,540.6116708064781 L752.1217629312248,540.5628292066372 M752.1217629312248,540.5628292066372 L753.4870590060416,540.7086478199503 M753.4870590060416,540.7086478199503 L754.7611567417714,541.0407022554192 M754.7611567417714,541.0407022554192 L755.8700559192653,541.5397260473968 M755.8700559192653,541.5397260473968 L755.7899117817515,545.2569372843457" stroke="black"  stroke-width="4"  fill="red"/>
<path d="M432.76501374840336,442.14793579462264 L24.22999090495,679.01849319284 M432.76501374840336,442.14793579462264 L402.43700015064917,424.6380528710579 M-6.075101761829615,660.4926248774473 L402.43700015064917,424.6380528710579 M24.22999090495,679.01849319284 L-6.075101761829615,660.4926248774473 M24.22999090495,679.01849319284 L19.107804525678773,458.8654689229143 M19.107804525678773,458.8654689229143 L51.502803007550085,440.57502904035346 M51.502803007550085,440.57502904035346 L46.695507110636186,214.6322975319996 M46.695507110636186,214.6322975319996 L514.6553238641536,-42.27893604084875 M514.6553238641536,-42.27893604084875 L514.256015431355,-24.379112864035392 M514.256015431355,-24.379112864035392 L513.2946081532821,-6.231022377317515 M513.2946081532821,-6.231022377317515 L511.7740250289173,12.140681466382603 M511.7740250289173,12.140681466382603 L509.6978304621186,30.711242855708974 M509.6978304621186,30.711242855708974 L507.0702523341477,49.45577410587572 M507.0702523341477,49.45577410587572 L503.89611322045647,68.34927572742754 M503.89611322045647,68.34927572742754 L500.18087782388574,87.36682349203227 M500.18087782388574,87.36682349203227 L495.9305882058485,106.4833240692302 M495.9305882058485,106.4833240692302 L491.151900653304,125.67382263792422 M491.151900653304,125.67382263792422 L485.8520413213854,144.91330517082696 M485.8520413213854,144.91330517082696 L480.0388011239954,164.17676863440244 M480.0388011239954,164.17676863440244 L473.72053154070494,183.43937621232087 M473.72053154070494,183.43937621232087 L473.8817214827122,183.472559652697 M473.8817214827122,183.472559652697 L474.012767632544,183.5645846691562 M474.012767632544,183.5645846691562 L474.10605554503184,183.71007587845895 M474.10605554503184,183.71007587845895 L474.15616730074964,183.9005988971426 M474.15616730074964,183.9005988971426 L474.1601899334181,184.12507544222026 M474.1601899334181,184.12507544222026 L474.1178978332145,184.37044126552877 M474.1178978332145,184.37044126552877 L474.03174256929066,184.62246960197757 M474.03174256929066,184.62246960197757 L473.90673674509424,184.86649614624986 M473.90673674509424,184.86649614624986 L473.75013923417373,185.08834200264124 M473.75013923417373,185.08834200264124 L473.57105281963976,185.27512822018804 M473.57105281963976,185.27512822018804 L473.3798791921295,185.41599874753257 M473.3798791921295,185.41599874753257 L473.18772867826186,185.50275446437425 M473.18772867826186,185.50275446437425 L473.0057633160362,185.53036727056372 M473.0057633160362,185.53036727056372 L466.6563753095721,204.89274731720553 M466.6563753095721,204.89274731720553 L460.8314984738906,224.2127155314898 M460.8314984738906,224.2127155314898 L455.53969013928054,243.45903219705198 M455.53969013928054,243.45903219705198 L450.78854475912425,262.6007046096077 M450.78854475912425,262.6007046096077 L446.58466517872273,281.60704016707615 M446.58466517872273,281.60704016707615 L442.93366361948443,300.4477108718212 M442.93366361948443,300.4477108718212 L439.8401588769213,319.09280510651394 M439.8401588769213,319.09280510651394 L437.30777423822383,337.51287127092024 M437.30777423822383,337.51287127092024 L435.3391351548351,355.67903157062165 M435.3391351548351,355.67903157062165 L433.9358769643145,373.5629473170266 M433.9358769643145,373.5629473170266 L433.0986491929083,391.13695856819226 M433.0986491929083,391.13695856819226 L432.8271246360672,408.3740641742821 M432.8271246360672,408.3740641742821 L432.76501374840336,442.14793579462264 M432.8271246360672,408.3740641742821 L402.4370033970912,390.9000335581558 M402.4370033970912,390.9000335581558 L402.43700015064917,424.6380528710579 M402.4370033970912,390.9000335581558 L402.6770856972444,373.68177731926323 M402.6770856972444,373.68177731926323 L403.48285151399125,356.1280834477377 M403.48285151399125,356.1280834477377 L404.85467479058053,338.2659223797661 M404.85467479058053,338.2659223797661 L406.79195322251735,320.1229202267574 M406.79195322251735,320.1229202267574 L409.29309923176135,301.7273787113909 M409.29309923176135,301.7273787113909 L412.3555354275187,283.1081356936344 M412.3555354275187,283.1081356936344 L415.97568696237386,264.29459984778765 M415.97568696237386,264.29459984778765 L420.1489836718934,245.3166370340873 M420.1489836718934,245.3166370340873 L424.86986209493324,226.20452675023614 M424.86986209493324,226.20452675023614 L430.13176819594617,206.9889104578107 M430.13176819594617,206.9889104578107 L435.92715627013814,187.7007271932331 M435.92715627013814,187.7007271932331 L442.247517612799,168.3711606349161 M442.247517612799,168.3711606349161 L442.4296242822538,168.3439030740373 M442.4296242822538,168.3439030740373 L442.6218177011664,168.2575864634596 M442.6218177011664,168.2575864634596 L442.8129333147435,168.1172134047608 M442.8129333147435,168.1172134047608 L442.9918641855878,167.93095409322032 M442.9918641855878,167.93095409322032 L443.1482176649419,167.7096339716049 M443.1482176649419,167.7096339716049 L443.27290511922865,167.46610145494316 M443.27290511922865,167.46610145494316 L443.3586861749164,167.21450674912444 M443.3586861749164,167.21450674912444 L443.400570001554,166.9694889361532 M443.400570001554,166.9694889361532 L443.39612870500764,166.74525460899235 M443.39612870500764,166.74525460899235 L443.3456122559549,166.55485390594305 M443.3456122559549,166.55485390594305 L443.2519571567465,166.4093579947891 M443.2519571567465,166.4093579947891 L443.1206026291285,166.3172015445752 M443.1206026291285,166.3172015445752 L442.95918109298424,166.2837675374247 M483.5197288288418,-59.10622891769185 L483.1531391276355,-41.22782487782507 M483.1531391276355,-41.22782487782507 L482.22431835684387,-23.10233869147646 M482.22431835684387,-23.10233869147646 L480.73614363769394,-4.754394442159139 M480.73614363769394,-4.754394442159139 L478.6921343411119,13.791282650323126 M478.6921343411119,13.791282650323126 L476.09647414344136,32.509836317608574 M476.09647414344136,32.509836317608574 L472.95394222119194,51.376299199274854 M472.95394222119194,51.376299199274854 L469.2699610911181,70.36577981278128 M469.2699610911181,70.36577981278128 L465.05053132951014,89.45321838917448 M465.05053132951014,89.45321838917448 L460.30226905320535,108.61369423781707 M460.30226905320535,108.61369423781707 L455.03236115350336,127.82222821435198 M455.03236115350336,127.82222821435198 L449.24856031279467,147.05385287059684 M449.24856031279467,147.05385287059684 L442.95918109298424,166.2837675374247 M483.5197288288418,-59.10622891769185 L15.579487329323854,196.67776636310387 M20.795759933221802,422.3651331333357 L15.579487329323854,196.67776636310387 M20.795759933221802,422.3651331333357 L-11.59551398122727,440.5750326948691 M-6.075101761829615,660.4926248774473 L-11.59551398122727,440.5750326948691 M-11.59551398122727,440.5750326948691 L19.107804525678773,458.8654689229143 M473.0057633160362,185.53036727056372 L442.247517612799,168.3711606349161 M473.72053154070494,183.43937621232087 L442.95918109298424,166.2837675374247 M514.6553238641536,-42.27893604084875 L483.5197288288418,-59.10622891769185 M46.695507110636186,214.6322975319996 L15.579487329323854,196.67776636310387 M51.502803007550085,440.57502904035346 L20.795759933221802,422.3651331333357" stroke="black"  stroke-width="4"  fill="red"/>
<path d="M458.76915100889374,409.55556810260856 L458.8758789626848,378.2481794237106 M458.8758789626848,378.2481794237106 L459.2116194892465,378.4929743808916 M459.2116194892465,378.4929743808916 L459.43589710225274,378.7765705054966 M459.43589710225274,378.7765705054966 L459.5356662193923,379.08249386305823 M459.5356662193923,379.08249386305823 L459.5051196057242,379.3929662849439 M459.5051196057242,379.3929662849439 L459.3460101159862,379.6899459155251 M459.3460101159862,379.6899459155251 L459.0675802127034,379.95616635902735 M459.0675802127034,379.95616635902735 L458.68600111500507,380.1761499958838 M458.68600111500507,380.1761499958838 L458.2234504342241,380.3371029099412 M458.2234504342241,380.3371029099412 L457.7068140159506,380.42966568168777 M457.7068140159506,380.42966568168777 L457.16613274434275,380.44844985366996 M457.16613274434275,380.44844985366996 L456.6328387710365,380.3923673924842 M456.6328387710365,380.3923673924842 L456.13794213331545,380.26467797372794 M456.13794213331545,380.26467797372794 L455.7102115645469,380.0728097209841 M455.7102115645469,380.0728097209841 L455.37451238163925,379.8279214008857 M455.37451238163925,379.8279214008857 L455.15034637204644,379.5442526310335 M455.15034637204644,379.5442526310335 L455.0507350730277,379.2382948579274 M455.0507350730277,379.2382948579274 L455.08144956425764,378.9278341344596 M455.08144956425764,378.9278341344596 L455.24069853330656,378.6309096364089 M455.24069853330656,378.6309096364089 L455.5192075638874,378.36477512904696 M455.5192075638874,378.36477512904696 L455.900787310128,378.14488854539303 M455.900787310128,378.14488854539303 L456.36326001211864,377.9840215675055 M456.36326001211864,377.9840215675055 L456.87975768791085,377.89151392905416 M456.87975768791085,377.89151392905416 L457.42027123829206,377.8727414546043 M457.42027123829206,377.8727414546043 L457.9534069335252,377.9287895005012 M457.9534069335252,377.9287895005012 L458.4481909969543,378.0564062737427 M458.4481909969543,378.0564062737427 L458.8758789626848,378.2481794237106 M458.76915100889374,409.55556810260856 L458.34227426364333,409.36342753909463 M458.34227426364333,409.36342753909463 L457.84842743564155,409.23556625855196 M457.84842743564155,409.23556625855196 L457.31630056029934,409.17941082504996 M457.31630056029934,409.17941082504996 L456.7768088300855,409.19821926757146 M456.7768088300855,409.19821926757146 L456.2612866530836,409.2909041483338 M456.2612866530836,409.2909041483338 L455.79968647331657,409.4520793339015 M455.79968647331657,409.4520793339015 L455.41882559487414,409.6723871825418 M455.41882559487414,409.6723871825418 L455.1408399962218,409.9390315281264 M455.1408399962218,409.9390315281264 L454.9818885839524,410.23652481069945 M454.9818885839524,410.23652481069945 L454.95122842213533,410.5475802049749 M454.95122842213533,410.5475802049749 L455.0506476267301,410.85412398019906 M455.0506476267301,410.85412398019906 L455.27438622249855,411.1383360233494 M455.27438622249855,411.1383360233494 L455.60944748228616,411.38369331580117 M455.60944748228616,411.38369331580117 L456.0363666712597,411.57592898569834 M456.0363666712597,411.57592898569834 L456.53032564724214,411.7038629132519 M456.53032564724214,411.7038629132519 L457.06261020212173,411.76005276275157 M457.06261020212173,411.76005276275157 L457.6022690199231,411.74123262245683 M457.6022690199231,411.74123262245683 L458.11792941581905,411.64849260726373 M458.11792941581905,411.64849260726373 L458.5796072807915,411.48723148375626 M458.5796072807915,411.48723148375626 L458.96046751436415,411.2668265799145 M458.96046751436415,411.2668265799145 L459.2383742858074,411.00009629641977 M459.2383742858074,411.00009629641977 L459.39718674652556,410.70254788018076 M459.39718674652556,410.70254788018076 L459.4276796653051,410.39148078724656 M459.4276796653051,410.39148078724656 L459.3281032385208,410.0849714282755 M459.3281032385208,410.0849714282755 L459.1042534601522,409.80083203186865 M459.1042534601522,409.80083203186865 L458.76915100889374,409.55556810260856 M461.24920628651745,376.8802388299012 L462.08863292825157,377.49204832116254 M462.08863292825157,377.49204832116254 L462.64953384280597,378.2009029045371 M462.64953384280597,378.2009029045371 L462.89925475548785,378.9656463451703 M462.89925475548785,378.9656463451703 L462.8231962027503,379.74185064209865 M462.8231962027503,379.74185064209865 L462.42569013998866,380.48440137796933 M462.42569013998866,380.48440137796933 L461.729763103942,381.1501149917368 M461.729763103942,381.1501149917368 L460.77581663674033,381.7002561646156 M460.77581663674033,381.7002561646156 L459.61929142476356,382.10280012863586 M459.61929142476356,382.10280012863586 L458.32744312381226,382.3343070309879 M458.32744312381226,382.3343070309879 L456.97542304929624,382.3812933300306 M456.97542304929624,382.3812933300306 L455.6418919398464,382.24102129028125 M455.6418919398464,382.24102129028125 L454.4044384399814,381.9216627371346 M454.4044384399814,381.9216627371346 L453.3350372780379,381.4418148688459 M453.3350372780379,381.4418148688459 L452.4958610467226,380.8294172920521 M452.4958610467226,380.8294172920521 L451.9356561341459,380.1201078051774 M451.9356561341459,380.1201078051774 L451.6869231046923,379.35515013760454 M451.6869231046923,379.35515013760454 L451.7640301331371,378.5790185209468 M451.7640301331371,378.5790185209468 L452.16240794049526,377.8368123625928 M452.16240794049526,377.8368123625928 L452.85882952366376,377.1716358507232 M452.85882952366376,377.1716358507232 L453.8127800443226,376.6221012605554 M453.8127800443226,376.6221012605554 L454.96881788743787,376.2200943984069 M454.96881788743787,376.2200943984069 L456.2597990488916,375.9889320739485 M456.2597990488916,375.9889320739485 L457.61077162470605,375.94201932526846 M457.61077162470605,375.94201932526846 L458.94331197611626,376.0820753979771 M458.94331197611626,376.0820753979771 L460.180063406032,376.40098078774867 M460.180063406032,376.40098078774867 L461.24920628651745,376.8802388299012 M461.26227757998424,373.20035160670744 L462.10189177179814,373.81202269945794 M462.10189177179814,373.81202269945794 L462.662918511299,374.52071695692456 M462.662918511299,374.52071695692456 L462.91269618551837,375.2852874614406 M462.91269618551837,375.2852874614406 L462.83662199417495,376.0613162629212 M462.83662199417495,376.0613162629212 L462.439028761939,376.8036991427585 M462.439028761939,376.8036991427585 L461.74294805819557,377.4692622951583 M461.74294805819557,377.4692622951583 L460.78879033657694,378.0192791459023 M460.78879033657694,378.0192791459023 L459.63200856079965,378.42173215251864 M459.63200856079965,378.42173215251864 L458.33987331588804,378.65318674836743 M458.33987331588804,378.65318674836743 L456.9875526262544,378.7001624317138 M456.9875526262544,378.7001624317138 L455.6537247403059,378.559922084225 M455.6537247403059,378.559922084225 L454.41599558870337,378.2406356890929 M454.41599558870337,378.2406356890929 L453.34635594608835,377.7608962512346 M453.34635594608835,377.7608962512346 L452.50699227483125,377.1486370750192 M452.50699227483125,377.1486370750192 L451.94666184646184,376.4394879159948 M451.94666184646184,376.4394879159948 L451.69787249409654,375.6747031851693 M451.69787249409654,375.6747031851693 L451.7749956276506,374.89874706377657 M451.7749956276506,374.89874706377657 L452.1734609926342,374.1567087601312 M452.1734609926342,374.1567087601312 L452.8700364642082,373.4916827075643 M452.8700364642082,373.4916827075643 L453.82419824198814,372.9422724371992 M453.82419824198814,372.9422724371992 L454.9804924329836,372.54035653038983 M454.9804924329836,372.54035653038983 L456.27176015331827,372.30924651110985 M456.27176015331827,372.30924651110985 L457.6230328783989,372.2623443777468 M457.6230328783989,372.2623443777468 L458.9558695657641,372.4023687592186 M458.9558695657641,372.4023687592186 L460.19289633421585,372.72120199252424 M460.19289633421585,372.72120199252424 L461.26227757998424,373.20035160670744 M461.26227757998424,373.20035160670744 L461.24920628651745,376.8802388299012" stroke="black"  stroke-width="4"  fill="red"/>
<path d="M20.795759933221802,422.3651331333357 L-11.59551398122727,440.5750326948691 M-11.59551398122727,440.5750326948691 L-17.267170367632218,214.63230113537517 M15.579487329323854,196.67776636310387 L-17.267170367632218,214.63230113537517 M20.795759933221802,422.3651331333357 L15.579487329323854,196.67776636310387 M24.22999090495,679.01849319284 L31.82294921654875,683.6601601018192 M31.82294921654875,683.6601601018192 L31.01210120874481,648.1058354259221 M31.01210120874481,648.1058354259221 L56.95508170722263,663.8997827569962 M57.7106959459079,699.4856516178397 L56.95508170722263,663.8997827569962 M57.7106959459079,699.4856516178397 L193.27609634471528,782.358414408129 M193.27609634471528,782.358414408129 L192.81316849729726,746.6094570516996 M192.81316849729726,746.6094570516996 L219.3630532713667,762.7728844494245 M219.7681088212573,798.5533008566418 L219.3630532713667,762.7728844494245 M219.7681088212573,798.5533008566418 L287.2221934402129,839.7887955877294 M287.2221934402129,839.7887955877294 L285.63192697040887,617.6379632939893 M285.63192697040887,617.6379632939893 L317.6654433575952,636.7208187354324 M317.6654433575952,636.7208187354324 L316.47628551452834,408.09613866784025 M-17.267170367632218,214.63230113537517 L316.47628551452834,408.09613866784025 M-11.59551398122727,440.5750326948691 L19.107804525678773,458.8654689229143 M24.22999090495,679.01849319284 L19.107804525678773,458.8654689229143 M350.08106928407545,617.6379632939893 L318.0466936340471,598.6409323971586 M319.1930880863637,820.5570615774362 L318.0466936340471,598.6409323971586 M319.1930880863637,820.5570615774362 L251.7361981156789,779.5038668386933 M251.7361981156789,779.5038668386933 L251.40276955601556,743.7604684730672 M251.40276955601556,743.7604684730672 L224.85138380655712,727.66841956363 M225.24269458449982,763.3803402389682 L224.85138380655712,727.66841956363 M225.24269458449982,763.3803402389682 L89.66622777765377,680.8706500319199 M89.66622777765377,680.8706500319199 L88.98215743222858,645.321898868464 M88.98215743222858,645.321898868464 L63.03639169581618,629.5968992333069 M63.77571400894357,665.1140934504518 L63.03639169581618,629.5968992333069 M63.77571400894357,665.1140934504518 L56.181904350063235,660.4926211757822 M56.181904350063235,660.4926211757822 L51.502803007550085,440.57502904035346 M51.502803007550085,440.57502904035346 L20.795759933221802,422.3651331333357 M349.3483180766081,389.2686863128678 L15.579487329323854,196.67776636310387 M350.08106928407545,617.6379632939893 L349.3483180766081,389.2686863128678 M24.22999090495,679.01849319284 L56.181904350063235,660.4926211757822 M19.107804525678773,458.8654689229143 L51.502803007550085,440.57502904035346 M63.77571400894357,665.1140934504518 L31.82294921654875,683.6601601018192 M63.03639169581618,629.5968992333069 L31.01210120874481,648.1058354259221 M57.7106959459079,699.4856516178397 L89.66622777765377,680.8706500319199 M56.95508170722263,663.8997827569962 L88.98215743222858,645.321898868464 M225.24269458449982,763.3803402389682 L193.27609634471528,782.358414408129 M224.85138380655712,727.66841956363 L192.81316849729726,746.6094570516996 M219.7681088212573,798.5533008566418 L251.7361981156789,779.5038668386933 M219.3630532713667,762.7728844494245 L251.40276955601556,743.7604684730672 M319.1930880863637,820.5570615774362 L287.2221934402129,839.7887955877294 M318.0466936340471,598.6409323971586 L285.63192697040887,617.6379632939893 M317.6654433575952,636.7208187354324 L350.08106928407545,617.6379632939893 M316.47628551452834,408.09613866784025 L349.3483180766081,389.2686863128678" stroke="black"  stroke-width="4"  fill="red"/></svg>