<svg viewBox="0 0 800 800" xmlns="http://www.w3.org/2000/svg"><path d="M486.01267934463226,417.8317654050046 L402.7258053350318,460.6580913130463 M402.7258089466684,423.1248583727247 L402.7258053350318,460.6580913130463 M402.7258089466684,423.1248583727247 L402.72487611015157,422.6500097366246 M402.72487611015157,422.6500097366246 L402.72431638549983,422.1749442921248 M402.72431638549983,422.1749442921248 L402.7241298037809,421.69959950703117 M486.19794276172917,379.00460161032015 L402.7241298037809,421.69959950703117 M486.01267934463226,417.8317654050046 L486.19794276172917,379.00460161032015 M745.8746284660284,637.1060618341478 L712.4815960615653,619.9352822768955 M314.69861095363683,833.5351239654515 L712.4815960615653,619.9352822768955 M314.69861095363683,833.5351239654515 L243.40901712290866,794.7800614207672 M209.58879082764128,812.7604920858415 L243.40901712290866,794.7800614207672 M181.60239487210836,797.4741296438374 L209.58879082764128,812.7604920858415 M215.4208594153789,779.5648982506517 L181.60239487210836,797.4741296438374 M215.4208594153789,779.5648982506517 L72.28947470498991,701.754583049117 M38.484071882116325,719.3019148008507 L72.28947470498991,701.754583049117 M11.171909983920557,704.3838236499257 L38.484071882116325,719.3019148008507 M44.97404983851294,686.9051366958595 L11.171909983920557,704.3838236499257 M44.97404983851294,686.9051366958595 L36.96339033427574,682.5503130332638 M434.71609241683177,477.10757576841377 L36.96339033427574,682.5503130332638 M434.71609241683177,477.10757576841377 L402.7258053350318,460.6580913130463 M829.1018933457858,592.2056817823386 L486.01267934463226,417.8317654050046 M745.8746284660284,637.1060618341478 L829.1018933457858,592.2056817823386 M462.1326830410669,446.49206087356015 L461.68243142629666,446.3116135726983 M461.68243142629666,446.3116135726983 L461.1615805695988,446.1915339100325 M461.1615805695988,446.1915339100325 L460.6003887531264,446.13879615186534 M460.6003887531264,446.13879615186534 L460.0314589896822,446.1564598895652 M460.0314589896822,446.1564598895652 L459.4878346680734,446.24350391938265 M459.4878346680734,446.24350391938265 L459.00110031965795,446.3948701523112 M459.00110031965795,446.3948701523112 L458.5995330730821,446.6017708193398 M458.5995330730821,446.6017708193398 L458.30647238580684,446.8521889104725 M458.30647238580684,446.8521889104725 L458.13895384999654,447.1315797154042 M458.13895384999654,447.1315797154042 L458.10673416249347,447.4237085546406 M458.10673416249347,447.4237085546406 L458.2116932392371,447.7116014677433 M458.2116932392371,447.7116014677433 L458.44775089739835,447.97852240972156 M458.44775089739835,447.97852240972156 L458.8011953515776,448.20895328323525 M458.8011953515776,448.20895328323525 L459.25149412136994,448.38949473483876 M459.25149412136994,448.38949473483876 L459.77246973352203,448.50964634868546 M459.77246973352203,448.50964634868546 L460.3338369282618,448.56241819320564 M460.3338369282618,448.56241819320564 L460.9029525145996,448.54474286977666 M460.9029525145996,448.54474286977666 L461.44673053506386,448.45764423361913 M461.44673053506386,448.45764423361913 L461.9335512469498,448.30619288588434 M461.9335512469498,448.30619288588434 L462.33511773717845,448.099196093272 M462.33511773717845,448.099196093272 L462.62809072156364,447.84869288736274 M462.62809072156364,447.84869288736274 L462.79545469920856,447.56924747684843 M462.79545469920856,447.56924747684843 L462.8274883814959,447.2771070510058 M462.8274883814959,447.2771070510058 L462.72235446289386,446.9892482245092 M462.72235446289386,446.9892482245092 L462.48617318154203,446.7223992334465 M462.48617318154203,446.7223992334465 L462.1326830410669,446.49206087356015 M772.5632249669981,605.1494296391677 L772.095432685063,604.9610914612217 M772.095432685063,604.9610914612217 L771.5581392126328,604.8357674262359 M771.5581392126328,604.8357674262359 L770.9825164396234,604.7807151496805 M770.9825164396234,604.7807151496805 L770.4020676803954,604.7991603483542 M770.4020676803954,604.7991603483542 L769.8504277222867,604.889997058227 M769.8504277222867,604.889997058227 L769.3597086262665,605.0479786687042 M769.3597086262665,605.0479786687042 L768.9583989670376,605.2639232105987 M768.9583989670376,605.2639232105987 L768.6698235961913,605.5252885816458 M768.6698235961913,605.5252885816458 L768.5107782197483,605.8169047018822 M768.5107782197483,605.8169047018822 L768.4904658224983,606.1217948430485 M768.4904658224983,606.1217948430485 L768.6101524532388,606.4222831926044 M768.6101524532388,606.4222831926044 L768.8628401258385,606.7008695061816 M768.8628401258385,606.7008695061816 L769.2338920127878,606.9413784684535 M769.2338920127878,606.9413784684535 L769.7017092158513,607.1298024913804 M769.7017092158513,607.1298024913804 L770.2391628181292,607.2552169197993 M770.2391628181292,607.2552169197993 L770.8149433991016,607.3102918723688 M770.8149433991016,607.3102918723688 L771.3956123349366,607.2918479897605 M771.3956123349366,607.2918479897605 L771.9473835610709,607.2009393856388 M771.9473835610709,607.2009393856388 L772.4381890392355,607.0428670185497 M772.4381890392355,607.0428670185497 L772.8394936650902,606.8268199787308 M772.8394936650902,606.8268199787308 L773.1279737401596,606.565363850081 M773.1279737401596,606.565363850081 L773.2868821301021,606.2737031749275 M773.2868821301021,606.2737031749275 L773.3069731373183,605.9687870077422 M773.3069731373183,605.9687870077422 L773.1871322684011,605.6683486760584 M773.1871322684011,605.6683486760584 L772.9342920011028,605.3898254123515 M772.9342920011028,605.3898254123515 L772.5632249669981,605.1494296391677 M434.7852062694416,439.5257205892922 L402.7258089466684,423.1248583727247 M434.7852062694416,439.5257205892922 L434.71609241683177,477.10757576841377 M434.78615307018043,438.0986109744099 L434.78546421465717,438.5745736789829 M434.78546421465717,438.5745736789829 L434.7851486631603,439.0502560127645 M434.7851486631603,439.0502560127645 L434.7852062694416,439.5257205892922 M402.7241298037809,421.69959950703117 L434.78615307018043,438.0986109744099 M713.1880237371748,580.4949729155592 L746.659190202717,597.6147297735179 M746.659190202717,597.6147297735179 L830.0729872084505,552.8472583104879 M830.0729872084505,552.8472583104879 L486.19794276172917,379.00460161032015 M434.78615307018043,438.0986109744099 L36.12027442128249,642.9238959279326 M36.12027442128249,642.9238959279326 L44.14892406519016,647.265926808212 M44.14892406519016,647.265926808212 L10.266734193372997,664.6933839668382 M10.266734193372997,664.6933839668382 L37.64037772683531,679.5678970555887 M37.64037772683531,679.5678970555887 L71.52585324514905,662.0718377868794 M71.52585324514905,662.0718377868794 L214.98356294769138,739.6562178719257 M214.98356294769138,739.6562178719257 L181.08493440884422,757.5139670870893 M181.08493440884422,757.5139670870893 L209.1359223595391,772.7565410950015 M209.1359223595391,772.7565410950015 L243.03632504567418,754.8276308378663 M243.03632504567418,754.8276308378663 L314.4916486713892,793.4718905208941 M713.1880237371748,580.4949729155592 L314.4916486713892,793.4718905208941 M464.76849431999744,406.2931370178966 L465.6542873214278,406.86703211650706 M465.6542873214278,406.86703211650706 L466.2463016248357,407.5319642116027 M466.2463016248357,407.5319642116027 L466.51006820797375,408.249329218909 M466.51006820797375,408.249329218909 L466.4301616894991,408.9774525532539 M466.4301616894991,408.9774525532539 L466.0111276012472,409.6740140329565 M466.0111276012472,409.6740140329565 L465.2772351478955,410.2985031192661 M465.2772351478955,410.2985031192661 L464.2710874319173,410.81458082456527 M464.2710874319173,410.81458082456527 L463.05115888233,411.1922026062615 M463.05115888233,411.1922026062615 L461.68839466377085,411.40937744367557 M461.68839466377085,411.40937744367557 L460.2620758110867,411.4534550101414 M460.2620758110867,411.4534550101414 L458.85519097590833,411.3218667297076 M458.85519097590833,411.3218667297076 L457.5496016431314,411.02227948732946 M457.5496016431314,411.02227948732946 L456.42124906245124,410.57214114208455 M456.42124906245124,410.57214114208455 L455.5357344164785,409.9976640320331 M455.5357344164785,409.9976640320331 L454.9444946020508,409.3322818114816 M454.9444946020508,409.3322818114816 L454.68182726703844,408.6147047613914 M454.68182726703844,408.6147047613914 L454.7629007170534,407.8866533735113 M454.7629007170534,407.8866533735113 L455.18290511826393,407.19043288604826 M455.18290511826393,407.19043288604826 L455.9173481768932,406.56647531317594 M455.9173481768932,406.56647531317594 L456.9235006518678,406.05099787919573 M456.9235006518678,406.05099787919573 L458.1428870238729,405.67390761091906 M458.1428870238729,405.67390761091906 L459.5046863361201,405.4570737661277 M459.5046863361201,405.4570737661277 L460.92983940431503,405.4130689623245 M460.92983940431503,405.4130689623245 L462.3356216161665,405.5444435676592 M462.3356216161665,405.5444435676592 L463.6404293358175,405.8435823169033 M463.6404293358175,405.8435823169033 L464.76849431999744,406.2931370178966 M775.9085073295699,564.4129186613559 L776.8384798251155,565.0119468688938 M776.8384798251155,565.0119468688938 L777.4722964598773,565.7060127901492 M777.4722964598773,565.7060127901492 L777.7730363333667,566.4548109120037 M777.7730363333667,566.4548109120037 L777.7231020431591,567.2148309114775 M777.7231020431591,567.2148309114775 L777.3253470476284,567.9419261834773 M777.3253470476284,567.9419261834773 L776.6027395812687,568.5937795704376 M776.6027395812687,568.5937795704376 L775.5972590664666,569.1324771803746 M775.5972590664666,569.1324771803746 L774.367338850223,569.526656446265 M774.367338850223,569.526656446265 L772.984468531394,569.7533426248053 M772.984468531394,569.7533426248053 L771.5291593311463,569.7993608950615 M771.5291593311463,569.7993608950615 L770.0860343627207,569.6620018085905 M770.0860343627207,569.6620018085905 L768.739086164601,569.3492789769607 M768.739086164601,569.3492789769607 L767.5666855454724,568.8794170252017 M767.5666855454724,568.8794170252017 L766.6369491901775,568.2797536355488 M766.6369491901775,568.2797536355488 L766.0039226687575,567.5852085512272 M766.0039226687575,567.5852085512272 L765.7043458655728,566.8361970603687 M765.7043458655728,566.8361970603687 L765.7554754659925,566.0762405912944 M765.7554754659925,566.0762405912944 L766.1542852712683,565.3495225982376 M766.1542852712683,565.3495225982376 L766.8774643144143,564.6982224097228 M766.8774643144143,564.6982224097228 L767.8829765035889,564.1601649538576 M767.8829765035889,564.1601649538576 L769.1123812353961,563.7665661437813 M769.1123812353961,563.7665661437813 L770.4942327302625,563.540229980061 M770.4942327302625,563.540229980061 L771.9483542560183,563.4943025055403 M771.9483542560183,563.4943025055403 L773.3902936907026,563.6314209661227 M773.3902936907026,563.6314209661227 L774.7364043581889,563.9436646311442 M774.7364043581889,563.9436646311442 L775.9085073295699,564.4129186613559 M829.1018933457858,592.2056817823386 L830.0729872084505,552.8472583104879 M746.6320864884257,599.0595279046535 L713.1637805935542,581.9378999439871 M746.6320864884257,599.0595279046535 L745.8746284660284,637.1060618341478 M713.1637805935542,581.9378999439871 L712.4815960615653,619.9352822768955 M713.1637805935542,581.9378999439871 L713.1714878351844,581.4571714494743 M713.1714878351844,581.4571714494743 L713.1795684937185,580.9762168762654 M713.1795684937185,580.9762168762654 L713.1880237371748,580.4949729155592 M314.69861095363683,833.5351239654515 L314.4916486713892,793.4718905208941 M243.40901712290866,794.7800614207672 L243.03632504567418,754.8276308378663 M209.58879082764128,812.7604920858415 L209.1359223595391,772.7565410950015 M181.60239487210836,797.4741296438374 L181.08493440884422,757.5139670870893 M215.4208594153789,779.5648982506517 L214.98356294769138,739.6562178719257 M72.28947470498991,701.754583049117 L71.52585324514905,662.0718377868794 M38.484071882116325,719.3019148008507 L37.64037772683531,679.5678970555887 M11.171909983920557,704.3838236499257 L10.266734193372997,664.6933839668382 M44.97404983851294,686.9051366958595 L44.14892406519016,647.265926808212 M36.96339033427574,682.5503130332638 L36.12027442128249,642.9238959279326 M746.659190202717,597.6147297735179 L746.6497813377403,598.0965985003456 M746.6497813377403,598.0965985003456 L746.6407471974678,598.5781767470394 M746.6407471974678,598.5781767470394 L746.6320864884257,599.0595279046535 M462.1326830410669,446.49206087356015 L462.2513922417555,411.6701144789382 M462.2513922417555,411.6701144789382 L462.6055924764608,411.8998178486577 M462.6055924764608,411.8998178486577 L462.84225007479733,412.16593123412474 M462.84225007479733,412.16593123412474 L462.9475988053118,412.4529965819148 M462.9475988053118,412.4529965819148 L462.9155058954165,412.74433177289757 M462.9155058954165,412.74433177289757 L462.7478120122058,413.0230069835552 M462.7478120122058,413.0230069835552 L462.4542575800412,413.2728197953775 M462.4542575800412,413.2728197953775 L462.05189185429435,413.4792461245546 M462.05189185429435,413.4792461245546 L461.5641005709232,413.63028010154926 M461.5641005709232,413.63028010154926 L461.01923707310686,413.7171387162863 M461.01923707310686,413.7171387162863 L460.4489842483876,413.7347653315767 M460.4489842483876,413.7347653315767 L459.88649420031805,413.68213891167727 M459.88649420031805,413.68213891167727 L459.3644754431999,413.56231840811836 M459.3644754431999,413.56231840811836 L458.9132738981618,413.38227450208603 M458.9132738981618,413.38227450208603 L458.5591195278681,413.1524786877377 M458.5591195278681,413.1524786877377 L458.3225860461815,412.8862934062864 M458.3225860461815,412.8862934062864 L458.21741285650006,412.59919399791397 M458.21741285650006,412.59919399791397 L458.24969251596895,412.30787038469146 M458.24969251596895,412.30787038469146 L458.4175415765679,412.02924973792744 M458.4175415765679,412.02924973792744 L458.71118406385074,411.77952197590014 M458.71118406385074,411.77952197590014 L459.1135505504882,411.57319169891923 M459.1135505504882,411.57319169891923 L459.60125512620715,411.42224277174887 M459.60125512620715,411.42224277174887 L460.1459643111073,411.3354387216626 M460.1459643111073,411.3354387216626 L460.7160305696701,411.31782368325605 M460.7160305696701,411.31782368325605 L461.2783445372757,411.3704160428258 M461.2783445372757,411.3704160428258 L461.80023803867823,411.49016465013574 M461.80023803867823,411.49016465013574 L462.2513922417555,411.6701144789382 M772.5632249669981,605.1494296391677 L773.3182426953233,569.8969273402455 M773.3182426953233,569.8969273402455 L773.690091539473,570.136681114311 M773.690091539473,570.136681114311 L773.943476147241,570.4144605951694 M773.943476147241,570.4144605951694 L774.0635920671674,570.714096668122 M774.0635920671674,570.714096668122 L774.0434908730505,571.0181986695698 M774.0434908730505,571.0181986695698 L773.8842875065296,571.3090806201272 M773.8842875065296,571.3090806201272 L773.5952448011219,571.5698387086235 M773.5952448011219,571.5698387086235 L773.1931425342151,571.7853089702883 M773.1931425342151,571.7853089702883 L772.7013507611288,571.9429593495637 M772.7013507611288,571.9429593495637 L772.1484619439531,572.0336252714759 M772.1484619439531,572.0336252714759 L771.566609099397,572.0520199183441 M771.566609099397,572.0520199183441 L770.989647213192,571.9970919882971 M770.989647213192,571.9970919882971 L770.4510835441857,571.8720123596988 M770.4510835441857,571.8720123596988 L769.9822922056844,571.6840913597821 M769.9822922056844,571.6840913597821 L769.610458613928,571.4442244962175 M769.610458613928,571.4442244962175 L769.3572271635418,571.1663819776178 M769.3572271635418,571.1663819776178 L769.2372661619391,570.8666959463383 M769.2372661619391,570.8666959463383 L769.257589598949,570.5626199265723 M769.257589598949,570.5626199265723 L769.4169305711205,570.2717825305276 M769.4169305711205,570.2717825305276 L769.7060689709737,570.0111151421029 M769.7060689709737,570.0111151421029 L770.1081763021481,569.7957473133887 M770.1081763021481,569.7957473133887 L770.59988134913,569.6381876331941 M770.59988134913,569.6381876331941 L771.1526383142282,569.5475935321186 M771.1526383142282,569.5475935321186 L771.7342701367659,569.529197597858 M771.7342701367659,569.529197597858 L772.3110735129507,569.5841028384261 M772.3110735129507,569.5841028384261 L772.8494764431775,569.7090921587305 M772.8494764431775,569.7090921587305 L773.3182426953233,569.8969273402455 M464.76849431999744,406.2931370178966 L464.75395424817174,410.3865210943427 M464.75395424817174,410.3865210943427 L465.63953850486683,410.96060352367977 M465.63953850486683,410.96060352367977 L466.2314127029808,411.62575263931933 M466.2314127029808,411.62575263931933 L466.49511599295573,412.3433517483701 M466.49511599295573,412.3433517483701 L466.4152267163163,413.0717126614744 M466.4152267163163,413.0717126614744 L465.9962894493287,413.76850138976647 M465.9962894493287,413.76850138976647 L465.2625678088752,414.3931941850211 M465.2625678088752,414.3931941850211 L464.25665499282485,414.9094402164592 M464.25665499282485,414.9094402164592 L463.03701177870033,415.2871851540697 M463.03701177870033,415.2871851540697 L461.67456672660285,415.5044308157844 M461.67456672660285,415.5044308157844 L460.2485822840299,415.5485227563029 M460.2485822840299,415.5485227563029 L458.842027621969,415.41689156349196 M458.842027621969,415.41689156349196 L457.53674499164794,415.1172066182893 M457.53674499164794,415.1172066182893 L456.40865778728784,414.6669214609327 M456.40865778728784,414.6669214609327 L455.5233517570197,414.0922569669141 M455.5233517570197,414.0922569669141 L454.9322516852797,413.4266576843031 M454.9322516852797,413.4266576843031 L454.6696471288933,412.70884651319307 M454.6696471288933,412.70884651319307 L454.75070278971526,411.9805575530628 M454.75070278971526,411.9805575530628 L455.1706099141632,411.28410984831555 M455.1706099141632,411.28410984831555 L455.90488190079327,410.6599486152945 M455.90488190079327,410.6599486152945 L456.9107994724941,410.14430291028395 M456.9107994724941,410.14430291028395 L458.1299007622118,409.7670895348891 M458.1299007622118,409.7670895348891 L459.4913813596943,409.5501848971021 M459.4913813596943,409.5501848971021 L460.91620056432924,409.5061657260221 M460.91620056432924,409.5061657260221 L462.32165311997363,409.63758322392573 M462.32165311997363,409.63758322392573 L463.62615450478404,409.9368196350114 M463.62615450478404,409.9368196350114 L464.75395424817174,410.3865210943427 M775.9085073295699,564.4129186613559 L775.8191572509494,568.5571159360798 M775.8191572509494,568.5571159360798 L776.7488998918653,569.1563335924769 M776.7488998918653,569.1563335924769 L777.3825564116255,569.8506189904205 M777.3825564116255,569.8506189904205 L777.6832152513527,570.5996538616073 M777.6832152513527,570.5996538616073 L777.6332837697837,571.3599141216254 M777.6332837697837,571.3599141216254 L777.2356152984327,572.08723921114 M777.2356152984327,572.08723921114 L776.5131731005334,572.7392986045706 M776.5131731005334,572.7392986045706 L775.5079270101243,573.27816643954 M775.5079270101243,573.27816643954 L774.2782967520124,573.6724702517688 M774.2782967520124,573.6724702517688 L772.8957550607769,573.8992280503917 M772.8957550607769,573.8992280503917 L771.4407940041679,573.9452608594297 M771.4407940041679,573.9452608594297 L769.9980164271294,573.8078583760135 M769.9980164271294,573.8078583760135 L768.6513946253539,573.4950367388589 M768.6513946253539,573.4950367388589 L767.4792803989933,573.0250263212831 M767.4792803989933,573.0250263212831 L766.5497737863363,572.4251734308738 M766.5497737863363,572.4251734308738 L765.916907007178,571.7304088331783 M765.916907007178,571.7304088331783 L765.6174106896623,570.9811605799168 M765.6174106896623,570.9811605799168 L765.6685369017927,570.2209638518968 M765.6685369017927,570.2209638518968 L766.0672596796502,569.4940160734764 M766.0672596796502,569.4940160734764 L766.7902731676147,568.8425099175797 M766.7902731676147,568.8425099175797 L767.795550909644,568.3042822856941 M767.795550909644,568.3042822856941 L769.0246659297479,567.910558976986 M769.0246659297479,567.910558976986 L770.4061892744104,567.684151216716 M770.4061892744104,567.684151216716 L771.8599632306933,567.63820921363 M771.8599632306933,567.63820921363 L773.3015558382199,567.7753710494695 M773.3015558382199,567.7753710494695 L774.6473405161627,568.0877134833296 M774.6473405161627,568.0877134833296 L775.8191572509494,568.5571159360798" stroke="black"  stroke-width="4"  fill="red"/>
<path d="M745.8746284660284,637.1060618341478 L314.2837112256489,869.9455794970096 M745.8746284660284,637.1060618341478 L712.4815960615653,619.9352822768955 M280.87506820413654,851.6975483202264 L712.4815960615653,619.9352822768955 M314.2837112256489,869.9455794970096 L280.87506820413654,851.6975483202264 M746.6320864884257,599.0595279046535 L745.8746284660284,637.1060618341478 M793.1175543897725,351.17718704598394 L786.0953952132074,372.4815019029189 M786.0953952132074,372.4815019029189 L779.6216068115472,393.7816545803855 M779.6216068115472,393.7816545803855 L773.7057625757224,415.0430016374371 M773.7057625757224,415.0430016374371 L768.3564179197007,436.23072137872987 M768.3564179197007,436.23072137872987 L763.581063139524,457.31063313768914 M763.581063139524,457.31063313768914 L759.3861328813833,478.2488348937587 M759.3861328813833,478.2488348937587 L755.7770005514907,499.0118599122944 M755.7770005514907,499.0118599122944 L752.7579840766576,519.5663193064219 M752.7579840766576,519.5663193064219 L750.3323231332575,539.8799529435978 M750.3323231332575,539.8799529435978 L748.5022046096523,559.9208143216556 M748.5022046096523,559.9208143216556 L747.2687639522733,579.6574835404627 M747.2687639522733,579.6574835404627 L746.6320864884257,599.0595279046535 M793.9062542078403,348.8788397870661 L794.0736405860998,348.9303886694004 M794.0736405860998,348.9303886694004 L794.2083751484987,349.04567568452467 M794.2083751484987,349.04567568452467 L794.3026295058322,349.2179870927059 M794.3026295058322,349.2179870927059 L794.3509295458156,349.43733078846844 M794.3509295458156,349.43733078846844 L794.3504629168979,349.6911753308567 M794.3504629168979,349.6911753308567 L794.3012718416054,349.96447772188867 M794.3012718416054,349.96447772188867 L794.2062054074879,350.2415052251065 M794.2062054074879,350.2415052251065 L794.0707971845573,350.5060264846236 M794.0707971845573,350.5060264846236 L793.9029048117242,350.7429105418572 M793.9029048117242,350.7429105418572 L793.7122913536211,350.9382155781534 M793.7122913536211,350.9382155781534 L793.5100293720734,351.0805259337902 M793.5100293720734,351.0805259337902 L793.3078683678968,351.1617951164686 M793.3078683678968,351.1617951164686 L793.1175543897725,351.17718704598394 M841.3090282125106,97.45064116843878 L840.5168160270543,117.65570716444245 M840.5168160270543,117.65570716444245 L839.1332826172669,138.0883276207669 M839.1332826172669,138.0883276207669 L837.1621182792,158.721018545177 M837.1621182792,158.721018545177 L834.6076693256899,179.52629098739624 M834.6076693256899,179.52629098739624 L831.474961197255,200.47661741391903 M831.474961197255,200.47661741391903 L827.7696290418334,221.54431522967877 M827.7696290418334,221.54431522967877 L823.4979596382332,242.70189304628116 M823.4979596382332,242.70189304628116 L818.6668248452632,263.92193065489914 M818.6668248452632,263.92193065489914 L813.2837228713593,285.1770344233556 M813.2837228713593,285.1770344233556 L807.3567365006334,306.4395777758717 M807.3567365006334,306.4395777758717 L800.8945073681455,327.68259400403474 M800.8945073681455,327.68259400403474 L793.9062542078403,348.8788397870661 M346.488756900799,346.97264828386574 L841.3090282125106,97.45064116843878 M347.31032306750546,603.0219997839545 L346.488756900799,346.97264828386574 M312.98855876856487,620.9426251238938 L347.31032306750546,603.0219997839545 M314.2837112256489,869.9455794970096 L312.98855876856487,620.9426251238938 M746.6320864884257,599.0595279046535 L713.1637805935542,581.9378999439871 M713.1637805935542,581.9378999439871 L712.4815960615653,619.9352822768955 M280.87506820413654,851.6975483202264 L279.0949245845328,603.0219997839545 M313.4156700055588,585.186670613286 L279.0949245845328,603.0219997839545 M313.4156700055588,585.186670613286 L312.09477877462666,329.49189780251515 M806.9440204526522,81.15296727344878 L312.09477877462666,329.49189780251515 M806.9440204526522,81.15296727344878 L806.1915990180362,101.32896329970833 M806.1915990180362,101.32896329970833 L804.8476234869001,121.73132279401182 M804.8476234869001,121.73132279401182 L802.9157291444644,142.33260031745021 M802.9157291444644,142.33260031745021 L800.4002084969904,163.10534594245428 M800.4002084969904,163.10534594245428 L797.3060343593588,184.02207175380045 M797.3060343593588,184.02207175380045 L793.6387901341018,205.05513545367364 M793.6387901341018,205.05513545367364 L789.4047124928347,226.17708627726608 M789.4047124928347,226.17708627726608 L784.6106245147122,247.3605450650764 M784.6106245147122,247.3605450650764 L779.2639769206131,268.5781598380091 M779.2639769206131,268.5781598380091 L773.3728057321157,289.80234660003146 M773.3728057321157,289.80234660003146 L766.9457083126315,311.006180968085 M766.9457083126315,311.006180968085 L759.9918597512827,332.1624630221619 M759.2068532362804,334.45642702280145 L759.3973589506674,334.44138181438404 M759.3973589506674,334.44138181438404 L759.5995932613043,334.3605665202268 M759.5995932613043,334.3605665202268 L759.8018060857696,334.21879069288036 M759.8018060857696,334.21879069288036 L759.9922503302199,334.02407006323006 M759.9922503302199,334.02407006323006 L760.1598633971706,333.7877862537955 M760.1598633971706,333.7877862537955 L760.2948987927459,333.5238459655253 M760.2948987927459,333.5238459655253 L760.3895200689586,333.2473467415118 M760.3895200689586,333.2473467415118 L760.4382197797348,332.97448905673923 M760.4382197797348,332.97448905673923 L760.4381771049352,332.7209800250607 M760.4381771049352,332.7209800250607 L760.3893799916368,332.50184274001367 M760.3893799916368,332.50184274001367 L760.294669258443,332.32959693938164 M760.294669258443,332.32959693938164 L760.1595454988327,332.2142309331666 M760.1595454988327,332.2142309331666 L759.9918597512827,332.1624630221619 M713.1637805935542,581.9378999439871 L713.7623646190244,562.561511083824 M713.7623646190244,562.561511083824 L714.9577413789432,542.8520733008835 M714.9577413789432,542.8520733008835 L716.7498824138198,522.8399770260185 M716.7498824138198,522.8399770260185 L719.1377102725359,502.55659598812224 M719.1377102725359,502.55659598812224 L722.1190962993278,482.0338272222376 M722.1190962993278,482.0338272222376 L725.6908588895435,461.3038784067559 M725.6908588895435,461.3038784067559 L729.8487396572843,440.4000819314641 M729.8487396572843,440.4000819314641 L734.5874241509786,419.35584542804463 M734.5874241509786,419.35584542804463 L739.9005368209961,398.205008789712 M739.9005368209961,398.205008789712 L745.7806463171298,376.98168779928983 M745.7806463171298,376.98168779928983 L752.2192567473193,355.72063607892517 M752.2192567473193,355.72063607892517 L759.2068532362804,334.45642702280145 M279.0949245845328,603.0219997839545 L312.98855876856487,620.9426251238938 M793.1175543897725,351.17718704598394 L759.2068532362804,334.45642702280145 M793.9062542078403,348.8788397870661 L759.9918597512827,332.1624630221619 M841.3090282125106,97.45064116843878 L806.9440204526522,81.15296727344878 M346.488756900799,346.97264828386574 L312.09477877462666,329.49189780251515 M347.31032306750546,603.0219997839545 L313.4156700055588,585.186670613286" stroke="black"  stroke-width="4"  fill="red"/>
<path d="M772.5632249669981,605.1494296391677 L773.3182426953233,569.8969273402455 M773.3182426953233,569.8969273402455 L773.690091539473,570.136681114311 M773.690091539473,570.136681114311 L773.943476147241,570.4144605951694 M773.943476147241,570.4144605951694 L774.0635920671674,570.714096668122 M774.0635920671674,570.714096668122 L774.0434908730505,571.0181986695698 M774.0434908730505,571.0181986695698 L773.8842875065296,571.3090806201272 M773.8842875065296,571.3090806201272 L773.5952448011219,571.5698387086235 M773.5952448011219,571.5698387086235 L773.1931425342151,571.7853089702883 M773.1931425342151,571.7853089702883 L772.7013507611288,571.9429593495637 M772.7013507611288,571.9429593495637 L772.1484619439531,572.0336252714759 M772.1484619439531,572.0336252714759 L771.566609099397,572.0520199183441 M771.566609099397,572.0520199183441 L770.989647213192,571.9970919882971 M770.989647213192,571.9970919882971 L770.4510835441857,571.8720123596988 M770.4510835441857,571.8720123596988 L769.9822922056844,571.6840913597821 M769.9822922056844,571.6840913597821 L769.610458613928,571.4442244962175 M769.610458613928,571.4442244962175 L769.3572271635418,571.1663819776178 M769.3572271635418,571.1663819776178 L769.2372661619391,570.8666959463383 M769.2372661619391,570.8666959463383 L769.257589598949,570.5626199265723 M769.257589598949,570.5626199265723 L769.4169305711205,570.2717825305276 M769.4169305711205,570.2717825305276 L769.7060689709737,570.0111151421029 M769.7060689709737,570.0111151421029 L770.1081763021481,569.7957473133887 M770.1081763021481,569.7957473133887 L770.59988134913,569.6381876331941 M770.59988134913,569.6381876331941 L771.1526383142282,569.5475935321186 M771.1526383142282,569.5475935321186 L771.7342701367659,569.529197597858 M771.7342701367659,569.529197597858 L772.3110735129507,569.5841028384261 M772.3110735129507,569.5841028384261 L772.8494764431775,569.7090921587305 M772.8494764431775,569.7090921587305 L773.3182426953233,569.8969273402455 M772.5632249669981,605.1494296391677 L772.095432685063,604.9610914612217 M772.095432685063,604.9610914612217 L771.5581392126328,604.8357674262359 M771.5581392126328,604.8357674262359 L770.9825164396234,604.7807151496805 M770.9825164396234,604.7807151496805 L770.4020676803954,604.7991603483542 M770.4020676803954,604.7991603483542 L769.8504277222867,604.889997058227 M769.8504277222867,604.889997058227 L769.3597086262665,605.0479786687042 M769.3597086262665,605.0479786687042 L768.9583989670376,605.2639232105987 M768.9583989670376,605.2639232105987 L768.6698235961913,605.5252885816458 M768.6698235961913,605.5252885816458 L768.5107782197483,605.8169047018822 M768.5107782197483,605.8169047018822 L768.4904658224983,606.1217948430485 M768.4904658224983,606.1217948430485 L768.6101524532388,606.4222831926044 M768.6101524532388,606.4222831926044 L768.8628401258385,606.7008695061816 M768.8628401258385,606.7008695061816 L769.2338920127878,606.9413784684535 M769.2338920127878,606.9413784684535 L769.7017092158513,607.1298024913804 M769.7017092158513,607.1298024913804 L770.2391628181292,607.2552169197993 M770.2391628181292,607.2552169197993 L770.8149433991016,607.3102918723688 M770.8149433991016,607.3102918723688 L771.3956123349366,607.2918479897605 M771.3956123349366,607.2918479897605 L771.9473835610709,607.2009393856388 M771.9473835610709,607.2009393856388 L772.4381890392355,607.0428670185497 M772.4381890392355,607.0428670185497 L772.8394936650902,606.8268199787308 M772.8394936650902,606.8268199787308 L773.1279737401596,606.565363850081 M773.1279737401596,606.565363850081 L773.2868821301021,606.2737031749275 M773.2868821301021,606.2737031749275 L773.3069731373183,605.9687870077422 M773.3069731373183,605.9687870077422 L773.1871322684011,605.6683486760584 M773.1871322684011,605.6683486760584 L772.9342920011028,605.3898254123515 M772.9342920011028,605.3898254123515 L772.5632249669981,605.1494296391677 M775.8191572509494,568.5571159360798 L776.7488998918653,569.1563335924769 M776.7488998918653,569.1563335924769 L777.3825564116255,569.8506189904205 M777.3825564116255,569.8506189904205 L777.6832152513527,570.5996538616073 M777.6832152513527,570.5996538616073 L777.6332837697837,571.3599141216254 M777.6332837697837,571.3599141216254 L777.2356152984327,572.08723921114 M777.2356152984327,572.08723921114 L776.5131731005334,572.7392986045706 M776.5131731005334,572.7392986045706 L775.5079270101243,573.27816643954 M775.5079270101243,573.27816643954 L774.2782967520124,573.6724702517688 M774.2782967520124,573.6724702517688 L772.8957550607769,573.8992280503917 M772.8957550607769,573.8992280503917 L771.4407940041679,573.9452608594297 M771.4407940041679,573.9452608594297 L769.9980164271294,573.8078583760135 M769.9980164271294,573.8078583760135 L768.6513946253539,573.4950367388589 M768.6513946253539,573.4950367388589 L767.4792803989933,573.0250263212831 M767.4792803989933,573.0250263212831 L766.5497737863363,572.4251734308738 M766.5497737863363,572.4251734308738 L765.916907007178,571.7304088331783 M765.916907007178,571.7304088331783 L765.6174106896623,570.9811605799168 M765.6174106896623,570.9811605799168 L765.6685369017927,570.2209638518968 M765.6685369017927,570.2209638518968 L766.0672596796502,569.4940160734764 M766.0672596796502,569.4940160734764 L766.7902731676147,568.8425099175797 M766.7902731676147,568.8425099175797 L767.795550909644,568.3042822856941 M767.795550909644,568.3042822856941 L769.0246659297479,567.910558976986 M769.0246659297479,567.910558976986 L770.4061892744104,567.684151216716 M770.4061892744104,567.684151216716 L771.8599632306933,567.63820921363 M771.8599632306933,567.63820921363 L773.3015558382199,567.7753710494695 M773.3015558382199,567.7753710494695 L774.6473405161627,568.0877134833296 M774.6473405161627,568.0877134833296 L775.8191572509494,568.5571159360798 M775.9085073295699,564.4129186613559 L776.8384798251155,565.0119468688938 M776.8384798251155,565.0119468688938 L777.4722964598773,565.7060127901492 M777.4722964598773,565.7060127901492 L777.7730363333667,566.4548109120037 M777.7730363333667,566.4548109120037 L777.7231020431591,567.2148309114775 M777.7231020431591,567.2148309114775 L777.3253470476284,567.9419261834773 M777.3253470476284,567.9419261834773 L776.6027395812687,568.5937795704376 M776.6027395812687,568.5937795704376 L775.5972590664666,569.1324771803746 M775.5972590664666,569.1324771803746 L774.367338850223,569.526656446265 M774.367338850223,569.526656446265 L772.984468531394,569.7533426248053 M772.984468531394,569.7533426248053 L771.5291593311463,569.7993608950615 M771.5291593311463,569.7993608950615 L770.0860343627207,569.6620018085905 M770.0860343627207,569.6620018085905 L768.739086164601,569.3492789769607 M768.739086164601,569.3492789769607 L767.5666855454724,568.8794170252017 M767.5666855454724,568.8794170252017 L766.6369491901775,568.2797536355488 M766.6369491901775,568.2797536355488 L766.0039226687575,567.5852085512272 M766.0039226687575,567.5852085512272 L765.7043458655728,566.8361970603687 M765.7043458655728,566.8361970603687 L765.7554754659925,566.0762405912944 M765.7554754659925,566.0762405912944 L766.1542852712683,565.3495225982376 M766.1542852712683,565.3495225982376 L766.8774643144143,564.6982224097228 M766.8774643144143,564.6982224097228 L767.8829765035889,564.1601649538576 M767.8829765035889,564.1601649538576 L769.1123812353961,563.7665661437813 M769.1123812353961,563.7665661437813 L770.4942327302625,563.540229980061 M770.4942327302625,563.540229980061 L771.9483542560183,563.4943025055403 M771.9483542560183,563.4943025055403 L773.3902936907026,563.6314209661227 M773.3902936907026,563.6314209661227 L774.7364043581889,563.9436646311442 M774.7364043581889,563.9436646311442 L775.9085073295699,564.4129186613559 M775.9085073295699,564.4129186613559 L775.8191572509494,568.5571159360798" stroke="black"  stroke-width="4"  fill="red"/>
<path d="M434.71609241683177,477.10757576841377 L3.162254209238256,700.0088944378174 M434.71609241683177,477.10757576841377 L402.7258053350318,460.6580913130463 M-28.801051400417748,682.5503165212442 L402.7258053350318,460.6580913130463 M3.162254209238256,700.0088944378174 L-28.801051400417748,682.5503165212442 M3.162254209238256,700.0088944378174 L-2.5591180489938665,454.1026910397562 M-2.5591180489938665,454.1026910397562 L31.73823738433788,436.9683153002329 M31.73823738433788,436.9683153002329 L26.36162931276607,184.26793238420737 M26.36162931276607,184.26793238420737 L521.2301528703198,-54.34740780787274 M521.2301528703198,-54.34740780787274 L520.8016949021027,-34.416365414679035 M520.8016949021027,-34.416365414679035 L519.7800520906076,-14.26873552630991 M519.7800520906076,-14.26873552630991 L518.1684088950641,6.068360747200131 M518.1684088950641,6.068360747200131 L515.9706165360703,26.56780162911116 M515.9706165360703,26.56780162911116 L513.1912158955357,47.20243222258989 M513.1912158955357,47.20243222258989 L509.83536538969037,67.94494884772746 M509.83536538969037,67.94494884772746 L505.90888980966247,88.7682419485518 M505.90888980966247,88.7682419485518 L501.41821097086404,109.64527702899784 M501.41821097086404,109.64527702899784 L496.3703886512036,130.54905169943038 M496.3703886512036,130.54905169943038 L490.77307366254746,151.45233921867248 M490.77307366254746,151.45233921867248 L484.63449827798723,172.3285701483942 M484.63449827798723,172.3285701483942 L477.96347744985445,193.1509084155732 M477.96347744985445,193.1509084155732 L478.1335297668605,193.2044371419355 M478.1335297668605,193.2044371419355 L478.27176451124046,193.32039815197993 M478.27176451124046,193.32039815197993 L478.37014959594717,193.4920388120181 M478.37014959594717,193.4920388120181 L478.42297122450907,193.7094058294772 M478.42297122450907,193.7094058294772 L478.42715811465143,193.96007987659948 M478.42715811465143,193.96007987659948 L478.3824768207653,194.22920603987313 M478.3824768207653,194.22920603987313 L478.291516980348,194.50129219758048 M478.291516980348,194.50129219758048 L478.1595711870682,194.76039585837577 M478.1595711870682,194.76039585837577 L477.99430021370574,194.991697630864 M477.99430021370574,194.991697630864 L477.8053116839707,195.1815823244374 M477.8053116839707,195.1815823244374 L477.603582538054,195.3189499901997 M477.603582538054,195.3189499901997 L477.40083542438686,195.39603852282073 M477.40083542438686,195.39603852282073 L477.20884838708014,195.40825621804584 M477.20884838708014,195.40825621804584 L470.5053838045316,216.33732266183404 M470.5053838045316,216.33732266183404 L464.35568889292966,237.27141164215004 M464.35568889292966,237.27141164215004 L458.7687996129261,258.17653465014087 M458.7687996129261,258.17653465014087 L453.7527252476258,279.0185070075099 M453.7527252476258,279.0185070075099 L449.3144157282849,299.76375569669256 M449.3144157282849,299.76375569669256 L445.4597644465092,320.37896107881215 M445.4597644465092,320.37896107881215 L442.19360532880137,340.8312110144167 M442.19360532880137,340.8312110144167 L439.51971192807264,361.0876473898239 M439.51971192807264,361.0876473898239 L437.4407934332184,381.11650345384055 M437.4407934332184,381.11650345384055 L435.95850521279164,400.8862986703449 M435.95850521279164,400.8862986703449 L435.07345378615895,420.36604877279194 M435.07345378615895,420.36604877279194 L434.7852062694416,439.5257205892922 M434.7852062694416,439.5257205892922 L434.71609241683177,477.10757576841377 M434.7852062694416,439.5257205892922 L402.7258089466684,423.1248583727247 M402.7258089466684,423.1248583727247 L402.7258053350318,460.6580913130463 M402.7258089466684,423.1248583727247 L402.9790632328668,403.9905256539223 M402.9790632328668,403.9905256539223 L403.8290957920631,384.5375926326009 M403.8290957920631,384.5375926326009 L405.2763913056449,364.79605068401054 M405.2763913056449,364.79605068401054 L407.3203961801671,344.7968386027968 M407.3203961801671,344.7968386027968 L409.9595082880685,324.5713883828024 M409.9595082880685,324.5713883828024 L413.1910716345777,304.1514154674287 M413.1910716345777,304.1514154674287 L417.01136731348333,283.5697228538827 M417.01136731348333,283.5697228538827 L421.415615613956,262.8591651743126 M421.415615613956,262.8591651743126 L426.39797759988744,242.05300175362356 M426.39797759988744,242.05300175362356 L431.95155776925054,221.18474275053018 M431.95155776925054,221.18474275053018 L438.06840191137377,200.2885070096611 M438.06840191137377,200.2885070096611 L444.7395283291342,179.39821542450932 M444.7395283291342,179.39821542450932 L444.93167295917107,179.3863168960762 M444.93167295917107,179.3863168960762 L445.1344680216619,179.3096519931147 M445.1344680216619,179.3096519931147 L445.33613289282164,179.17278765231333 M445.33613289282164,179.17278765231333 L445.5249482465373,178.9834570267326 M445.5249482465373,178.9834570267326 L445.689947325552,178.75272779105273 M445.689947325552,178.75272779105273 L445.82153861827453,178.4941816314797 M445.82153861827453,178.4941816314797 L445.91208151658424,178.22260588179927 M445.91208151658424,178.22260588179927 L445.95630789084925,177.95391319367866 M445.95630789084925,177.95391319367866 L445.9516542765628,177.70357071485705 M445.9516542765628,177.70357071485705 L445.89838176844466,177.48641369005986 M445.89838176844466,177.48641369005986 L445.7995874662891,177.31484953192182 M445.7995874662891,177.31484953192182 L445.66100891113456,177.19882710514446 M445.66100891113456,177.19882710514446 L445.49069819925774,177.1451025843096 M488.3401039841676,-69.94557949700959 L487.9481530462009,-50.04310894814944 M487.9481530462009,-50.04310894814944 L486.9628644941575,-29.925161843640012 M486.9628644941575,-29.925161843640012 L485.38737164488447,-9.61882152130147 M485.38737164488447,-9.61882152130147 L483.225475620659,10.848828445058757 M483.225475620659,10.848828445058757 L480.4816682282173,31.45067191220187 M480.4816682282173,31.45067191220187 L477.1610595655463,52.15944459314494 M477.1610595655463,52.15944459314494 L473.26942755508236,72.94807660902654 M473.26942755508236,72.94807660902654 L468.81314831730253,93.78957352875898 M468.81314831730253,93.78957352875898 L463.7992370746929,114.65697358392788 M463.7992370746929,114.65697358392788 L458.2353007096746,135.52309153242675 M458.2353007096746,135.52309153242675 L452.12952981405306,156.36139914659566 M452.12952981405306,156.36139914659566 L445.49069819925774,177.1451025843096 M488.3401039841676,-69.94557949700959 L-6.505271140552679,167.5633196228631 M-0.6727411076087151,419.9136940568511 L-6.505271140552679,167.5633196228631 M-0.6727411076087151,419.9136940568511 L-34.96569629331998,436.9683187233287 M-28.801051400417748,682.5503165212442 L-34.96569629331998,436.9683187233287 M-34.96569629331998,436.9683187233287 L-2.5591180489938665,454.1026910397562 M477.20884838708014,195.40825621804584 L444.7395283291342,179.39821542450932 M477.96347744985445,193.1509084155732 L445.49069819925774,177.1451025843096 M521.2301528703198,-54.34740780787274 L488.3401039841676,-69.94557949700959 M26.36162931276607,184.26793238420737 L-6.505271140552679,167.5633196228631 M31.73823738433788,436.9683153002329 L-0.6727411076087151,419.9136940568511" stroke="black"  stroke-width="4"  fill="red"/>
<path d="M462.1326830410669,446.49206087356015 L462.2513922417555,411.6701144789382 M462.2513922417555,411.6701144789382 L462.6055924764608,411.8998178486577 M462.6055924764608,411.8998178486577 L462.84225007479733,412.16593123412474 M462.84225007479733,412.16593123412474 L462.9475988053118,412.4529965819148 M462.9475988053118,412.4529965819148 L462.9155058954165,412.74433177289757 M462.9155058954165,412.74433177289757 L462.7478120122058,413.0230069835552 M462.7478120122058,413.0230069835552 L462.4542575800412,413.2728197953775 M462.4542575800412,413.2728197953775 L462.05189185429435,413.4792461245546 M462.05189185429435,413.4792461245546 L461.5641005709232,413.63028010154926 M461.5641005709232,413.63028010154926 L461.01923707310686,413.7171387162863 M461.01923707310686,413.7171387162863 L460.4489842483876,413.7347653315767 M460.4489842483876,413.7347653315767 L459.88649420031805,413.68213891167727 M459.88649420031805,413.68213891167727 L459.3644754431999,413.56231840811836 M459.3644754431999,413.56231840811836 L458.9132738981618,413.38227450208603 M458.9132738981618,413.38227450208603 L458.5591195278681,413.1524786877377 M458.5591195278681,413.1524786877377 L458.3225860461815,412.8862934062864 M458.3225860461815,412.8862934062864 L458.21741285650006,412.59919399791397 M458.21741285650006,412.59919399791397 L458.24969251596895,412.30787038469146 M458.24969251596895,412.30787038469146 L458.4175415765679,412.02924973792744 M458.4175415765679,412.02924973792744 L458.71118406385074,411.77952197590014 M458.71118406385074,411.77952197590014 L459.1135505504882,411.57319169891923 M459.1135505504882,411.57319169891923 L459.60125512620715,411.42224277174887 M459.60125512620715,411.42224277174887 L460.1459643111073,411.3354387216626 M460.1459643111073,411.3354387216626 L460.7160305696701,411.31782368325605 M460.7160305696701,411.31782368325605 L461.2783445372757,411.3704160428258 M461.2783445372757,411.3704160428258 L461.80023803867823,411.49016465013574 M461.80023803867823,411.49016465013574 L462.2513922417555,411.6701144789382 M462.1326830410669,446.49206087356015 L461.68243142629666,446.3116135726983 M461.68243142629666,446.3116135726983 L461.1615805695988,446.1915339100325 M461.1615805695988,446.1915339100325 L460.6003887531264,446.13879615186534 M460.6003887531264,446.13879615186534 L460.0314589896822,446.1564598895652 M460.0314589896822,446.1564598895652 L459.4878346680734,446.24350391938265 M459.4878346680734,446.24350391938265 L459.00110031965795,446.3948701523112 M459.00110031965795,446.3948701523112 L458.5995330730821,446.6017708193398 M458.5995330730821,446.6017708193398 L458.30647238580684,446.8521889104725 M458.30647238580684,446.8521889104725 L458.13895384999654,447.1315797154042 M458.13895384999654,447.1315797154042 L458.10673416249347,447.4237085546406 M458.10673416249347,447.4237085546406 L458.2116932392371,447.7116014677433 M458.2116932392371,447.7116014677433 L458.44775089739835,447.97852240972156 M458.44775089739835,447.97852240972156 L458.8011953515776,448.20895328323525 M458.8011953515776,448.20895328323525 L459.25149412136994,448.38949473483876 M459.25149412136994,448.38949473483876 L459.77246973352203,448.50964634868546 M459.77246973352203,448.50964634868546 L460.3338369282618,448.56241819320564 M460.3338369282618,448.56241819320564 L460.9029525145996,448.54474286977666 M460.9029525145996,448.54474286977666 L461.44673053506386,448.45764423361913 M461.44673053506386,448.45764423361913 L461.9335512469498,448.30619288588434 M461.9335512469498,448.30619288588434 L462.33511773717845,448.099196093272 M462.33511773717845,448.099196093272 L462.62809072156364,447.84869288736274 M462.62809072156364,447.84869288736274 L462.79545469920856,447.56924747684843 M462.79545469920856,447.56924747684843 L462.8274883814959,447.2771070510058 M462.8274883814959,447.2771070510058 L462.72235446289386,446.9892482245092 M462.72235446289386,446.9892482245092 L462.48617318154203,446.7223992334465 M462.48617318154203,446.7223992334465 L462.1326830410669,446.49206087356015 M464.75395424817174,410.3865210943427 L465.63953850486683,410.96060352367977 M465.63953850486683,410.96060352367977 L466.2314127029808,411.62575263931933 M466.2314127029808,411.62575263931933 L466.49511599295573,412.3433517483701 M466.49511599295573,412.3433517483701 L466.4152267163163,413.0717126614744 M466.4152267163163,413.0717126614744 L465.9962894493287,413.76850138976647 M465.9962894493287,413.76850138976647 L465.2625678088752,414.3931941850211 M465.2625678088752,414.3931941850211 L464.25665499282485,414.9094402164592 M464.25665499282485,414.9094402164592 L463.03701177870033,415.2871851540697 M463.03701177870033,415.2871851540697 L461.67456672660285,415.5044308157844 M461.67456672660285,415.5044308157844 L460.2485822840299,415.5485227563029 M460.2485822840299,415.5485227563029 L458.842027621969,415.41689156349196 M458.842027621969,415.41689156349196 L457.53674499164794,415.1172066182893 M457.53674499164794,415.1172066182893 L456.40865778728784,414.6669214609327 M456.40865778728784,414.6669214609327 L455.5233517570197,414.0922569669141 M455.5233517570197,414.0922569669141 L454.9322516852797,413.4266576843031 M454.9322516852797,413.4266576843031 L454.6696471288933,412.70884651319307 M454.6696471288933,412.70884651319307 L454.75070278971526,411.9805575530628 M454.75070278971526,411.9805575530628 L455.1706099141632,411.28410984831555 M455.1706099141632,411.28410984831555 L455.90488190079327,410.6599486152945 M455.90488190079327,410.6599486152945 L456.9107994724941,410.14430291028395 M456.9107994724941,410.14430291028395 L458.1299007622118,409.7670895348891 M458.1299007622118,409.7670895348891 L459.4913813596943,409.5501848971021 M459.4913813596943,409.5501848971021 L460.91620056432924,409.5061657260221 M460.91620056432924,409.5061657260221 L462.32165311997363,409.63758322392573 M462.32165311997363,409.63758322392573 L463.62615450478404,409.9368196350114 M463.62615450478404,409.9368196350114 L464.75395424817174,410.3865210943427 M464.76849431999744,406.2931370178966 L465.6542873214278,406.86703211650706 M465.6542873214278,406.86703211650706 L466.2463016248357,407.5319642116027 M466.2463016248357,407.5319642116027 L466.51006820797375,408.249329218909 M466.51006820797375,408.249329218909 L466.4301616894991,408.9774525532539 M466.4301616894991,408.9774525532539 L466.0111276012472,409.6740140329565 M466.0111276012472,409.6740140329565 L465.2772351478955,410.2985031192661 M465.2772351478955,410.2985031192661 L464.2710874319173,410.81458082456527 M464.2710874319173,410.81458082456527 L463.05115888233,411.1922026062615 M463.05115888233,411.1922026062615 L461.68839466377085,411.40937744367557 M461.68839466377085,411.40937744367557 L460.2620758110867,411.4534550101414 M460.2620758110867,411.4534550101414 L458.85519097590833,411.3218667297076 M458.85519097590833,411.3218667297076 L457.5496016431314,411.02227948732946 M457.5496016431314,411.02227948732946 L456.42124906245124,410.57214114208455 M456.42124906245124,410.57214114208455 L455.5357344164785,409.9976640320331 M455.5357344164785,409.9976640320331 L454.9444946020508,409.3322818114816 M454.9444946020508,409.3322818114816 L454.68182726703844,408.6147047613914 M454.68182726703844,408.6147047613914 L454.7629007170534,407.8866533735113 M454.7629007170534,407.8866533735113 L455.18290511826393,407.19043288604826 M455.18290511826393,407.19043288604826 L455.9173481768932,406.56647531317594 M455.9173481768932,406.56647531317594 L456.9235006518678,406.05099787919573 M456.9235006518678,406.05099787919573 L458.1428870238729,405.67390761091906 M458.1428870238729,405.67390761091906 L459.5046863361201,405.4570737661277 M459.5046863361201,405.4570737661277 L460.92983940431503,405.4130689623245 M460.92983940431503,405.4130689623245 L462.3356216161665,405.5444435676592 M462.3356216161665,405.5444435676592 L463.6404293358175,405.8435823169033 M463.6404293358175,405.8435823169033 L464.76849431999744,406.2931370178966 M464.76849431999744,406.2931370178966 L464.75395424817174,410.3865210943427" stroke="black"  stroke-width="4"  fill="red"/>
<path d="M-0.6727411076087151,419.9136940568511 L-34.96569629331998,436.9683187233287 M-34.96569629331998,436.9683187233287 L-41.309028212510555,184.2679357371651 M-6.505271140552679,167.5633196228631 L-41.309028212510555,184.2679357371651 M-0.6727411076087151,419.9136940568511 L-6.505271140552679,167.5633196228631 M3.162254209238256,700.0088944378174 L11.171909983920557,704.3838236499257 M11.171909983920557,704.3838236499257 L10.266734193372997,664.6933839668382 M10.266734193372997,664.6933839668382 L37.64037772683531,679.5678970555887 M38.484071882116325,719.3019148008507 L37.64037772683531,679.5678970555887 M38.484071882116325,719.3019148008507 L181.60239487210836,797.4741296438374 M181.60239487210836,797.4741296438374 L181.08493440884422,757.5139670870893 M181.08493440884422,757.5139670870893 L209.1359223595391,772.7565410950015 M209.58879082764128,812.7604920858415 L209.1359223595391,772.7565410950015 M209.58879082764128,812.7604920858415 L280.87506820413654,851.6975483202264 M280.87506820413654,851.6975483202264 L279.0949245845328,603.0219997839545 M279.0949245845328,603.0219997839545 L312.98855876856487,620.9426251238938 M312.98855876856487,620.9426251238938 L311.65490886031216,364.5382416569403 M-41.309028212510555,184.2679357371651 L311.65490886031216,364.5382416569403 M-34.96569629331998,436.9683187233287 L-2.5591180489938665,454.1026910397562 M3.162254209238256,700.0088944378174 L-2.5591180489938665,454.1026910397562 M347.31032306750546,603.0219997839545 L313.4156700055588,585.186670613286 M314.69861095363683,833.5351239654515 L313.4156700055588,585.186670613286 M314.69861095363683,833.5351239654515 L243.40901712290866,794.7800614207672 M243.40901712290866,794.7800614207672 L243.03632504567418,754.8276308378663 M243.03632504567418,754.8276308378663 L214.98356294769138,739.6562178719257 M215.4208594153789,779.5648982506517 L214.98356294769138,739.6562178719257 M215.4208594153789,779.5648982506517 L72.28947470498991,701.754583049117 M72.28947470498991,701.754583049117 L71.52585324514905,662.0718377868794 M71.52585324514905,662.0718377868794 L44.14892406519016,647.265926808212 M44.97404983851294,686.9051366958595 L44.14892406519016,647.265926808212 M44.97404983851294,686.9051366958595 L36.96339033427574,682.5503130332638 M36.96339033427574,682.5503130332638 L31.73823738433788,436.9683153002329 M31.73823738433788,436.9683153002329 L-0.6727411076087151,419.9136940568511 M346.488756900799,346.97264828386574 L-6.505271140552679,167.5633196228631 M347.31032306750546,603.0219997839545 L346.488756900799,346.97264828386574 M3.162254209238256,700.0088944378174 L36.96339033427574,682.5503130332638 M-2.5591180489938665,454.1026910397562 L31.73823738433788,436.9683153002329 M44.97404983851294,686.9051366958595 L11.171909983920557,704.3838236499257 M44.14892406519016,647.265926808212 L10.266734193372997,664.6933839668382 M38.484071882116325,719.3019148008507 L72.28947470498991,701.754583049117 M37.64037772683531,679.5678970555887 L71.52585324514905,662.0718377868794 M215.4208594153789,779.5648982506517 L181.60239487210836,797.4741296438374 M214.98356294769138,739.6562178719257 L181.08493440884422,757.5139670870893 M209.58879082764128,812.7604920858415 L243.40901712290866,794.7800614207672 M209.1359223595391,772.7565410950015 L243.03632504567418,754.8276308378663 M314.69861095363683,833.5351239654515 L280.87506820413654,851.6975483202264 M313.4156700055588,585.186670613286 L279.0949245845328,603.0219997839545 M312.98855876856487,620.9426251238938 L347.31032306750546,603.0219997839545 M311.65490886031216,364.5382416569403 L346.488756900799,346.97264828386574" stroke="black"  stroke-width="4"  fill="red"/></svg>