<svg viewBox="0 0 800 800" xmlns="http://www.w3.org/2000/svg"><path d="M675.0669051735987,282.68960346893437 L675.066892522919,282.68086073253653 M124.62806067877978,517.1724995740806 L124.62803954111712,517.1637494241731 M675.0669051735987,282.68960346893437 L732.6226711798307,314.119842794702 M732.6226711798307,314.119842794702 L770.8750111535091,350.5429464314293 M770.8750111535091,350.5429464314293 L787.5913339688789,389.8467133265658 M787.5913339688789,389.8467133265658 L781.7870149261071,429.749050056751 M781.7870149261071,429.749050056751 L753.7851815944372,467.9303452083477 M753.7851815944372,467.9303452083477 L705.2018024752364,502.16808290914923 M705.2018024752364,502.16808290914923 L638.853506338105,530.4672745317293 M638.853506338105,530.4672745317293 L558.5965255454346,551.1770980752262 M558.5965255454346,551.1770980752262 L469.1013909344199,563.0887360564593 M469.1013909344199,563.0887360564593 L375.5812237879545,565.5063792904693 M375.5812237879545,565.5063792904693 L283.48495253330304,558.2888564229215 M283.48495253330304,558.2888564229215 L198.17819138970754,541.8577519835089 M198.17819138970754,541.8577519835089 L124.62806067877978,517.1724995740806 M675.066892522919,282.68086073253653 L732.6226594118077,314.1110990640591 M732.6226594118077,314.1110990640591 L770.8749999713434,350.53420154880587 M770.8749999713434,350.53420154880587 L787.5913230414326,389.8379672011215 M787.5913230414326,389.8379672011215 L781.7870039070337,429.74030266980117 M781.7870039070337,429.74030266980117 L753.7851701422805,467.9215966145566 M753.7851701422805,467.9215966145566 L705.2017902733548,502.1593332333505 M705.2017902733548,502.1593332333505 L638.8534931132226,530.4585239617663 M638.8534931132226,530.4585239617663 L558.5965110837333,551.1683468509655 M558.5965110837333,551.1683468509655 L469.1013750941595,563.0799844559006 M469.1013750941595,563.0799844559006 L375.5812065078768,565.4976276135494 M375.5812065078768,565.4976276135494 L283.48493383625726,558.2801049739865 M283.48493383625726,558.2801049739865 L198.1781713813,541.8490010536552 M198.1781713813,541.8490010536552 L124.62803954111712,517.1637494241731 M124.62806067877978,517.1724995740806 L67.1122661241833,485.67363598677184 M67.1122661241833,485.67363598677184 L28.970071246263274,449.197589495976 M28.970071246263274,449.197589495976 L12.40868888262105,409.8687516589198 M12.40868888262105,409.8687516589198 L18.377301091525055,369.9749369842757 M18.377301091525055,369.9749369842757 L46.51514303920101,331.8338046440331 M46.51514303920101,331.8338046440331 L95.17508797495032,297.6586695619626 M95.17508797495032,297.6586695619626 L161.5229670135493,269.430179098541 M161.5229670135493,269.430179098541 L241.70264330607893,248.7829581795886 M241.70264330607893,248.7829581795886 L331.06129530505905,236.91148312192672 M331.06129530505905,236.91148312192672 L424.4170685952513,234.50236192128796 M424.4170685952513,234.50236192128796 L516.3586951578953,241.69481384239043 M516.3586951578953,241.69481384239043 L601.5559357214945,258.07302007590624 M601.5559357214945,258.07302007590624 L675.0669051735987,282.68960346893437 M124.62803954111712,517.1637494241731 L67.11224410510033,485.6648868321936 M67.11224410510033,485.6648868321936 L28.970048644714893,449.18884149425867 M28.970048644714893,449.18884149425867 L12.408666031121243,409.86000490044535 M12.408666031121243,409.86000490044535 L18.377278336705444,369.966191487154 M18.377278336705444,369.966191487154 L46.51512072164462,331.8250603530978 M46.51512072164462,331.8250603530978 L95.1750664094684,297.6499263520309 M95.1750664094684,297.6499263520309 L161.52294647104907,269.42143678161665 M161.52294647104907,269.42143678161665 L241.70262399801425,248.77421651595068 M241.70262399801425,248.77421651595068 L331.06127737135137,236.90274183393922 M331.06127737135137,236.90274183393922 L424.41705209630334,234.49362070952338 M424.41705209630334,234.49362070952338 L516.358680071161,241.68607240302663 M516.358680071161,241.68607240302663 L601.5559219427587,258.06427811831236 M601.5559219427587,258.06427811831236 L675.066892522919,282.68086073253653" stroke="black"  stroke-width="4"  fill="red"/></svg>