<svg viewBox="0 0 800 800" xmlns="http://www.w3.org/2000/svg"><path d="M593.382911533774,573.1982852559167 L593.3829186980877,573.1979667607608 M593.3801891062228,573.1999397762108 L593.3801962705061,573.1996212810376 M593.382911533774,573.1982852559167 L593.3801891062228,573.1999397762108 M593.3829186980877,573.1979667607608 L593.3801962705061,573.1996212810376 M566.1275813171848,589.762361295285 L566.1275881787159,589.7620426257373 M593.3801891062228,573.1999397762108 L566.1275813171848,589.762361295285 M593.3801962705061,573.1996212810376 L566.1275881787159,589.7620426257373 M-62.55544793092815,225.98372903574506 L-62.555448234262485,225.98341429531666 M566.1275813171848,589.762361295285 L-62.55544793092815,225.98372903574506 M566.1275881787159,589.7620426257373 L-62.555448234262485,225.98341429531666 M-35.28296430073749,210.23795327038493 L-35.282964300707306,210.23763870471498 M-62.55544793092815,225.98372903574506 L-35.28296430073749,210.23795327038493 M-62.555448234262485,225.98341429531666 L-35.282964300707306,210.23763870471498 M15.323023475730338,239.45532744298544 L15.323024039209884,239.45501255334796 M-35.28296430073749,210.23795327038493 L15.323023475730338,239.45532744298544 M-35.282964300707306,210.23763870471498 L15.323024039209884,239.45501255334796 M16.72075790740581,240.26546194283748 L16.720758486480918,240.26514704423624 M15.323023475730338,239.45532744298544 L15.788308356854259,239.72571096083863 M15.788308356854259,239.72571096083863 L16.25422157241178,239.99575681169097 M16.25422157241178,239.99575681169097 L16.72075790740581,240.26546194283748 M15.323024039209884,239.45501255334796 L15.7883089255252,239.72539606820942 M15.7883089255252,239.72539606820942 L16.25422214628128,239.9954419160738 M16.25422214628128,239.9954419160738 L16.720758486480918,240.26514704423624 M435.2043874318705,324.56802718175004 L435.20439270175984,324.56771135600593 M16.72075790740581,240.26546194283748 L36.21095077256041,250.9386499505049 M36.21095077256041,250.9386499505049 L56.676398601654455,261.01592187207444 M56.676398601654455,261.01592187207444 L78.05904740144865,270.46640163718075 M78.05904740144865,270.46640163718075 L100.29775365681962,279.2610041470332 M100.29775365681962,279.2610041470332 L123.32851748798669,287.37257688394044 M123.32851748798669,287.37257688394044 L147.0846482129615,294.775987066929 M147.0846482129615,294.775987066929 L171.49698001632942,301.448218715787 M171.49698001632942,301.448218715787 L196.4940996299871,307.36847709625255 M196.4940996299871,307.36847709625255 L222.00257340949406,312.5182582502282 M222.00257340949406,312.5182582502282 L247.94723979036394,316.88145462529224 M247.94723979036394,316.88145462529224 L274.2513387989916,320.4443473262706 M274.2513387989916,320.4443473262706 L300.83690680212237,323.19574947731564 M300.83690680212237,323.19574947731564 L327.6250236714137,325.1270135353242 M327.6250236714137,325.1270135353242 L354.5359659139807,326.23204223445543 M354.5359659139807,326.23204223445543 L381.48966763042245,326.50736253452635 M381.48966763042245,326.50736253452635 L408.4058665969586,325.9521100013292 M408.4058665969586,325.9521100013292 L435.2043874318705,324.56802718175004 M16.720758486480918,240.26514704423624 L36.21095156925156,250.93833493390525 M36.21095156925156,250.93833493390525 L56.6763996271207,261.0156067442286 M56.6763996271207,261.0156067442286 L78.0590486661929,270.4660864051531 M78.0590486661929,270.4660864051531 L100.29775517064786,279.26068881817986 M100.29775517064786,279.26068881817986 L123.32851925996988,287.3722614658891 M123.32851925996988,287.3722614658891 L147.0846502513998,294.7756715675571 M147.0846502513998,294.7756715675571 L171.4969823287189,301.44790314319954 M171.4969823287189,301.44790314319954 L196.4941022229889,307.3681614587596 M196.4941022229889,307.3681614587596 L222.00257628890813,312.5179425563216 M222.00257628890813,312.5179425563216 L247.94724296110508,316.88113888362125 M247.94724296110508,316.88113888362125 L274.25134226506805,320.4440315456182 M274.25134226506805,320.4440315456182 L300.8369105666196,323.1954336665742 M300.8369105666196,323.1954336665742 L327.6250277364819,325.1266977034695 M327.6250277364819,325.1266977034695 L354.53597028082424,326.231726390523 M354.53597028082424,326.231726390523 L381.48967229929576,326.5070466875849 M381.48967229929576,326.5070466875849 L408.4058715671637,325.9517941604562 M408.4058715671637,325.9517941604562 L435.20439270175984,324.56771135600593 M438.4752481569627,323.63728122663497 L438.4752534631424,323.63696541106594 M435.2043874318705,324.56802718175004 L435.19850685699805,324.2892698650637 M435.19850685699805,324.2892698650637 L435.31005936605607,324.01946120230593 M435.31005936605607,324.01946120230593 L435.5322480460226,323.77503631220736 M435.5322480460226,323.77503631220736 L435.8515535241828,323.5708493056429 M435.8515535241828,323.5708493056429 L436.24854497258775,323.41932075602574 M436.24854497258775,323.41932075602574 L436.6991021113794,323.3296890127716 M436.6991021113794,323.3296890127716 L437.17577620109114,323.3073772664204 M437.17577620109114,323.3073772664204 L437.6495821205939,323.3537504196188 M437.6495821205939,323.3537504196188 L438.09171025800924,323.4659933522082 M438.09171025800924,323.4659933522082 L438.4752481569627,323.63728122663497 M435.20439270175984,324.56771135600593 L435.1985121267187,324.28895404236687 M435.1985121267187,324.28895404236687 L435.3100646369263,324.0191453825587 M435.3100646369263,324.0191453825587 L435.53225331929127,323.7747204951323 M435.53225331929127,323.7747204951323 L435.85155880095226,323.57053349080036 M435.85155880095226,323.57053349080036 L436.24855025374745,323.4190049428398 M436.24855025374745,323.4190049428398 L436.6991073975523,323.32937320056567 M436.6991073975523,323.32937320056567 L437.1757814925943,323.30706145445845 M437.1757814925943,323.30706145445845 L437.6495874174209,323.35343460714967 M437.6495874174209,323.35343460714967 L438.0917155598295,323.46567753851195 M438.0917155598295,323.46567753851195 L438.4752534631424,323.63696541106594 M439.0529421494916,324.30475609693815 L439.05294746238997,324.3044402740719 M438.4752481569627,323.63728122663497 L438.7513025196806,323.83367264823494 M438.7513025196806,323.83367264823494 L438.94710689151157,324.0598946611607 M438.94710689151157,324.0598946611607 L439.0529421494916,324.30475609693815 M438.4752534631424,323.63696541106594 L438.75130782902545,323.83335683051894 M438.75130782902545,323.83335683051894 L438.94711220313343,324.0595788409714 M438.94711220313343,324.0595788409714 L439.05294746238997,324.3044402740719 M862.555438117743,409.612147696226 L862.5554482342625,409.611830946488 M439.0529421494916,324.30475609693815 L465.84539791969917,322.92099277916645 M465.84539791969917,322.92099277916645 L492.7515308238053,322.36600707591265 M492.7515308238053,322.36600707591265 L519.7005965199194,322.64117823007996 M519.7005965199194,322.64117823007996 L546.6217429152309,323.74583415785276 M546.6217429152309,323.74583415785276 L573.4441564217004,325.67725018844976 M573.4441564217004,325.67725018844976 L600.0972096350351,328.43066838257425 M600.0972096350351,328.43066838257425 L626.5106532651178,331.99933753808716 M626.5106532651178,331.99933753808716 L652.6147215957792,336.37445194107147 M652.6147215957792,336.37445194107147 L678.3402671012161,341.5452207832543 M678.3402671012161,341.5452207832543 L703.6190003265515,347.4988732533303 M703.6190003265515,347.4988732533303 L728.38349917404,354.220599187516 M728.38349917404,354.220599187516 L752.5674663153916,361.693743697783 M752.5674663153916,361.693743697783 L776.1059100293814,369.89964429280553 M776.1059100293814,369.89964429280553 L798.9351337915934,378.8177346484839 M798.9351337915934,378.8177346484839 L820.9930682541824,388.42564675582184 M820.9930682541824,388.42564675582184 L842.219345658883,398.6991147511302 M842.219345658883,398.6991147511302 L862.555438117743,409.612147696226 M439.05294746238997,324.3044402740719 L465.8454035321462,322.9206769714291 M465.8454035321462,322.9206769714291 L492.75153673735906,322.3656912742439 M492.75153673735906,322.3656912742439 L519.7006027353989,322.64086242540225 M519.7006027353989,322.64086242540225 L546.6217494327142,323.74551834109695 M546.6217494327142,323.74551834109695 L573.4441632405229,325.67693435058095 M573.4441632405229,325.67693435058095 L600.0972167537909,328.43035251461686 M600.0972167537909,328.43035251461686 L626.5106606816605,331.99902163114996 M626.5106606816605,331.99902163114996 L652.6147293072243,336.3741359863732 M652.6147293072243,336.3741359863732 L678.3402751039441,341.544904772148 M678.3402751039441,341.544904772148 L703.619008616213,347.49855717732737 M703.619008616213,347.49855717732737 L728.3835077455599,354.220283038311 M728.3835077455599,354.220283038311 L752.5674751629765,361.69342746727614 M752.5674751629765,361.69342746727614 L776.1059191465295,369.899327973126 M776.1059191465295,369.899327973126 L798.9351431711,378.81741823201196 M798.9351431711,378.81741823201196 L820.9930778881537,388.4253302352105 M820.9930778881537,388.4253302352105 L842.2193555387466,398.69879811932583 M842.2193555387466,398.69879811932583 L862.5554482342625,409.611830946488 M862.555438117743,409.612147696226 L593.382911533774,573.1982852559167 M862.5554482342625,409.611830946488 L593.3829186980877,573.1979667607608" stroke="black"  stroke-width="4"  fill="red"/></svg>