<svg viewBox="0 0 800 800" xmlns="http://www.w3.org/2000/svg"><path d="M268.4859275455726,237.38965767731213 L211.49619270323507,269.05107228711563 M211.49619511639708,243.9727539835221 L211.49619270323507,269.05107228711563 M211.49619511639708,243.9727539835221 L211.49555696934476,243.75063094786367 M211.49555696934476,243.75063094786367 L211.49517407019619,243.5283377626874 M211.49517407019619,243.5283377626874 L211.4950464338903,243.30591576700223 M268.6084050824236,211.72104236728387 L211.4950464338903,243.30591576700223 M268.4859275455726,237.38965767731213 L268.6084050824236,211.72104236728387 M819.0189812501492,606.5684618872092 L794.539541755871,592.9685827176656 M523.1820384920829,762.1475276992276 L794.539541755871,592.9685827176656 M523.1820384920829,762.1475276992276 L357.5651520306136,665.0600786427542 M334.4753688383428,678.9919540285259 L357.5651520306136,665.0600786427542 M277.3015722947605,645.3224611068867 L334.4753688383428,678.9919540285259 M300.39408413154683,631.5454216488481 L277.3015722947605,645.3224611068867 M300.39408413154683,631.5454216488481 L55.548365175770186,488.0126770494925 M32.46082462634547,501.13641227127084 L55.548365175770186,488.0126770494925 M-21.40170371241237,469.41691616852404 L32.46082462634547,501.13641227127084 M1.68111884074699,456.4347767151521 L-21.40170371241237,469.41691616852404 M1.68111884074699,456.4347767151521 L-38.47403767776336,432.8951377559776 M233.37981858453736,281.20881257552276 L-38.47403767776336,432.8951377559776 M233.37981858453736,281.20881257552276 L211.49619270323507,269.05107228711563 M875.7843823567612,571.0057066069471 L268.4859275455726,237.38965767731213 M819.0189812501492,606.5684618872092 L875.7843823567612,571.0057066069471 M252.14045961378997,258.5795417891816 L251.83244562866093,258.4461462937169 M251.83244562866093,258.4461462937169 L251.47611817844916,258.3573773941047 M251.47611817844916,258.3573773941047 L251.09217797880723,258.3183909713072 M251.09217797880723,258.3183909713072 L250.70293077685494,258.33144890326463 M250.70293077685494,258.33144890326463 L250.33098438204888,258.3957962394947 M250.33098438204888,258.3957962394947 L249.99794915621783,258.5076936686107 M249.99794915621783,258.5076936686107 L249.72317315403592,258.6606446534938 M249.72317315403592,258.6606446534938 L249.5226266065144,258.84576543295464 M249.5226266065144,258.84576543295464 L249.40796709114176,259.0523036936595 M249.40796709114176,259.0523036936595 L249.3858723508036,259.26825791258756 M249.3858723508036,259.26825791258756 L249.45763116189516,259.4810801822223 M249.45763116189516,259.4810801822223 L249.619086265946,259.6783986034086 M249.619086265946,259.6783986034086 L249.86085904290036,259.84874174452057 M249.86085904290036,259.84874174452057 L250.16890421661702,259.9822045010916 M250.16890421661702,259.9822045010916 L250.52531411373388,260.071024786807 M250.52531411373388,260.071024786807 L250.9093702271092,260.1100355534004 M250.9093702271092,260.1100355534004 L251.29874025443064,260.0969693471455 M251.29874025443064,260.0969693471455 L251.67078824917104,260.0325830121526 M251.67078824917104,260.0325830121526 L252.0038805736579,259.92062479573383 M252.0038805736579,259.92062479573383 L252.27865609286607,259.7676051598693 M252.27865609286607,259.7676051598693 L252.47914468643063,259.5824235931267 M252.47914468643063,259.5824235931267 L252.5937020531469,259.3758463342 M252.5937020531469,259.3758463342 L252.61567385169218,259.1598838403479 M252.61567385169218,259.1598838403479 L252.5437994693969,258.9470859146899 M252.5437994693969,258.9470859146899 L252.3822626414605,258.7498188794176 M252.3822626414605,258.7498188794176 L252.14045961378997,258.5795417891816 M836.3718730860523,581.2576318001663 L836.0314757084138,581.1084610242291 M836.0314757084138,581.1084610242291 L835.6449104155317,581.009199771167 M835.6449104155317,581.009199771167 L835.2346233313133,580.9656071644936 M835.2346233313133,580.9656071644936 L834.8244184291184,580.9801947920384 M834.8244184291184,580.9801947920384 L834.4381790303489,581.0521516377034 M834.4381790303489,581.0521516377034 L834.0983332418951,581.1772897192072 M834.0983332418951,581.1772897192072 L833.8245917654053,581.3483257531254 M833.8245917654053,581.3483257531254 L833.6328653913705,581.5553259305002 M833.6328653913705,581.5553259305002 L833.5343334922402,581.7862858141739 M833.5343334922402,581.7862858141739 L833.5347501953007,582.0277916953426 M833.5347501953007,582.0277916953426 L833.6340386667886,582.265778710639 M833.6340386667886,582.265778710639 L833.8264741759494,582.486429335037 M833.8264741759494,582.486429335037 L834.1008885230857,582.676921294305 M834.1008885230857,582.676921294305 L834.4413273080861,582.8261708940822 M834.4413273080861,582.8261708940822 L834.8279907750601,582.9254929106215 M834.8279907750601,582.9254929106215 L835.2384103104379,582.9691143022008 M835.2384103104379,582.9691143022008 L835.6487123999718,582.9544952357207 M835.6487123999718,582.9544952357207 L836.0350608749181,582.8824922721441 M836.0350608749181,582.8824922721441 L836.3750026445416,582.7573039651564 M836.3750026445416,582.7573039651564 L836.64873559383,582.5861867497297 M836.64873559383,582.5861867497297 L836.8403508858337,582.3790930331052 M836.8403508858337,582.3790930331052 L836.9387640206637,582.1480870334785 M836.9387640206637,582.1480870334785 L836.9382480749409,581.906593023923 M836.9382480749409,581.906593023923 L836.8388331996227,581.6686347960838 M836.8388331996227,581.6686347960838 L836.646312281483,581.4480449359319 M836.646312281483,581.4480449359319 L836.3718730860523,581.2576318001663 M233.42599087516032,256.10182933041847 L211.49619511639708,243.9727539835221 M233.42599087516032,256.10182933041847 L233.37981858453736,281.20881257552276 M233.42607104094873,255.43422781397456 L233.4257890597342,255.65690487477926 M233.4257890597342,255.65690487477926 L233.42576231742078,255.8794525090754 M233.42576231742078,255.8794525090754 L233.42599087516032,256.10182933041847 M211.4950464338903,243.30591576700223 L233.42607104094873,255.43422781397456 M795.8712355386212,566.4780840204417 L820.4098173826552,580.0484293703267 M820.4098173826552,580.0484293703267 L877.2973277252097,544.5624970212765 M877.2973277252097,544.5624970212765 L268.6084050824236,211.72104236728387 M233.42607104094873,255.43422781397456 L-39.030057114478154,406.76224454594336 M-39.030057114478154,406.76224454594336 L1.2125167162062098,430.24795908630404 M1.2125167162062098,430.24795908630404 L-21.923023746039178,443.20054091724893 M-21.923023746039178,443.20054091724893 L32.05788445967403,474.8483619237241 M32.05788445967403,474.8483619237241 L55.19817471949216,461.7541882473217 M55.19817471949216,461.7541882473217 L300.5986279817403,604.9707980407486 M300.5986279817403,604.9707980407486 L277.45333278865826,618.7183241504335 M277.45333278865826,618.7183241504335 L334.76057614657407,652.3163024070107 M334.76057614657407,652.3163024070107 L357.90312373811526,638.4139131574898 M357.90312373811526,638.4139131574898 L523.9148640263921,735.298977198451 M795.8712355386212,566.4780840204417 L523.9148640263921,735.298977198451 M253.94083678790355,231.90998215977925 L254.5467104938914,232.33451322610352 M254.5467104938914,232.33451322610352 L254.95158374176737,232.82638483189413 M254.95158374176737,232.82638483189413 L255.13188499528917,233.35703933108712 M255.13188499528917,233.35703933108712 L255.0770721475768,233.89564843507347 M255.0770721475768,233.89564843507347 L254.79026576492157,234.4109071130672 M254.79026576492157,234.4109071130672 L254.2880787815016,234.87284974403707 M254.2880787815016,234.87284974403707 L253.5996647073107,235.25459705177803 M253.5996647073107,235.25459705177803 L252.76503222164558,235.53392610900858 M252.76503222164558,235.53392610900858 L251.83271845559,235.69457117131844 M251.83271845559,235.69457117131844 L250.85696036956728,235.72717547707367 M250.85696036956728,235.72717547707367 L249.89452895747144,235.62983919876817 M249.89452895747144,235.62983919876817 L249.00142239269167,235.40823309809204 M249.00142239269167,235.40823309809204 L248.22958778394434,235.0752624724053 M248.22958778394434,235.0752624724053 L247.62389817555794,234.65031552661196 M247.62389817555794,234.65031552661196 L247.21953680683805,234.15812224482866 M247.21953680683805,234.15812224482866 L247.0399620881903,233.62731624233865 M247.0399620881903,233.62731624233865 L247.0955460941923,233.08875854037362 M247.0955460941923,233.08875854037362 L247.38299366662136,232.5737435322756 M247.38299366662136,232.5737435322756 L247.88554443379013,232.1121807158828 M247.88554443379013,232.1121807158828 L248.5739615461984,231.73086235646116 M248.5739615461984,231.73086235646116 L249.4082356284879,231.45191311379114 M249.4082356284879,231.45191311379114 L250.33991165646103,231.29151172164586 M250.33991165646103,231.29151172164586 L251.314899316494,231.25895942167045 M251.314899316494,231.25895942167045 L252.27660203893646,231.3561429892203 M252.27660203893646,231.3561429892203 L253.169192176391,231.57742862137536 M253.169192176391,231.57742862137536 L253.94083678790355,231.90998215977925 M839.5036758456083,553.7302750389667 L840.1915015501709,554.2051188762091 M840.1915015501709,554.2051188762091 L840.6741944544397,554.7552748720135 M840.6741944544397,554.7552748720135 L840.9237007785862,555.3488263643576 M840.9237007785862,555.3488263643576 L840.9254358529467,555.9512839339911 M840.9254358529467,555.9512839339911 L840.6791880979613,556.5276105647861 M840.6791880979613,556.5276105647861 L840.1992961898193,557.0443382746666 M840.1992961898193,557.0443382746666 L839.5135212843991,557.4713489229803 M839.5135212843991,557.4713489229803 L838.6617143413771,557.783782263868 M838.6617143413771,557.783782263868 L837.693499578817,557.9634917338099 M837.693499578817,557.9634917338099 L836.6651126117781,557.9999583259923 M836.6651126117781,557.9999583259923 L835.6364277933126,557.8910775898071 M835.6364277933126,557.8910775898071 L834.6673174029412,557.6432016915983 M834.6673174029412,557.6432016915983 L833.8141117522166,557.2707443484325 M833.8141117522166,557.2707443484325 L833.126441939195,556.7954078198755 M833.126441939195,556.7954078198755 L832.6442851897526,556.2448720122613 M832.6442851897526,556.2448720122613 L832.3955724691989,555.6511405808524 M832.3955724691989,555.6511405808524 L832.3947066395692,555.0487441763073 M832.3947066395692,555.0487441763073 L832.641660834728,554.4726841884471 M832.641660834728,554.4726841884471 L833.122043463206,553.9564274032316 M833.122043463206,553.9564274032316 L833.80787202969,553.5299241888471 M833.80787202969,553.5299241888471 L834.6592832806978,553.2179185379962 M834.6592832806978,553.2179185379962 L835.6268525691094,553.0385189380675 M835.6268525691094,553.0385189380675 L836.6543832268585,553.0021135034838 M836.6543832268585,553.0021135034838 L837.6822363843503,553.1108142981276 M837.6822363843503,553.1108142981276 L838.6507302906061,553.3583103908302 M838.6507302906061,553.3583103908302 L839.5036758456083,553.7302750389667 M875.7843823567612,571.0057066069471 L877.2973277252097,544.5624970212765 M820.3748695671181,580.7353668582939 L795.8378217095083,567.1642554111467 M820.3748695671181,580.7353668582939 L819.0189812501492,606.5684618872092 M795.8378217095083,567.1642554111467 L794.539541755871,592.9685827176656 M795.8378217095083,567.1642554111467 L795.8487044389053,566.9357056837262 M795.8487044389053,566.9357056837262 L795.8598430903112,566.7069677065765 M795.8598430903112,566.7069677065765 L795.8712355386212,566.4780840204417 M523.1820384920829,762.1475276992276 L523.9148640263921,735.298977198451 M357.5651520306136,665.0600786427542 L357.90312373811526,638.4139131574898 M334.4753688383428,678.9919540285259 L334.76057614657407,652.3163024070107 M277.3015722947605,645.3224611068867 L277.45333278865826,618.7183241504335 M300.39408413154683,631.5454216488481 L300.5986279817403,604.9707980407486 M55.548365175770186,488.0126770494925 L55.19817471949216,461.7541882473217 M32.46082462634547,501.13641227127084 L32.05788445967403,474.8483619237241 M-21.40170371241237,469.41691616852404 L-21.923023746039178,443.20054091724893 M1.68111884074699,456.4347767151521 L1.2125167162062098,430.24795908630404 M-38.47403767776336,432.8951377559776 L-39.030057114478154,406.76224454594336 M820.4098173826552,580.0484293703267 L820.3979136730152,580.2775691696704 M820.3979136730152,580.2775691696704 L820.3862636611419,580.5065625284516 M820.3862636611419,580.5065625284516 L820.3748695671181,580.7353668582939 M252.14045961378997,258.5795417891816 L252.21891798113302,235.56470346174953 M252.21891798113302,235.56470346174953 L252.46119016245177,235.7346099461745 M252.46119016245177,235.7346099461745 L252.62304160572148,235.93144765725287 M252.62304160572148,235.93144765725287 L252.6950577512606,236.14378248783407 M252.6950577512606,236.14378248783407 L252.67304659315892,236.35927503157723 M252.67304659315892,236.35927503157723 L252.55827097972195,236.56540279329258 M252.55827097972195,236.56540279329258 L252.3573979126079,236.75018144319284 M252.3573979126079,236.75018144319284 L252.08209401335228,236.90286815768675 M252.08209401335228,236.90286815768675 L251.74836011192082,237.01458279931606 M251.74836011192082,237.01458279931606 L251.3755946446762,237.07882906015956 M251.3755946446762,237.07882906015956 L250.98547298522442,237.09186684088954 M250.98547298522442,237.09186684088954 L250.60067479642856,237.05294094254594 M250.60067479642856,237.05294094254594 L250.2435755503646,236.9643138900018 M250.2435755503646,236.9643138900018 L249.93493384048895,236.83114149880606 M249.93493384048895,236.83114149880606 L249.6926920237795,236.6611689788376 M249.6926920237795,236.6611689788376 L249.53092261954038,236.46427989468015 M249.53092261954038,236.46427989468015 L249.45902249153147,236.25192072620308 M249.45902249153147,236.25192072620308 L249.48115706668307,236.03643645531682 M249.48115706668307,236.03643645531682 L249.59603522409122,235.83034768208233 M249.59603522409122,235.83034768208233 L249.79696646997098,235.64562980428056 M249.79696646997098,235.64562980428056 L250.07227085500284,235.49301172362055 M250.07227085500284,235.49301172362055 L250.40594743793292,235.38135785411066 M250.40594743793292,235.38135785411066 L250.77861091311252,235.31715058228886 M250.77861091311252,235.31715058228886 L251.1686092726137,235.3041210737897 M251.1686092726137,235.3041210737897 L251.55329109936207,235.3430226344178 M251.55329109936207,235.3430226344178 L251.91030757918026,235.431598313694 M251.91030757918026,235.431598313694 L252.21891798113302,235.56470346174953 M836.3718730860523,581.2576318001663 L837.6475419998981,557.5761918310053 M837.6475419998981,557.5761918310053 L837.922582467135,557.7662326977774 M837.922582467135,557.7662326977774 L838.1155439499785,557.9863913227578 M838.1155439499785,557.9863913227578 L838.215213068172,558.2238843991283 M838.215213068172,558.2238843991283 L838.2157821053077,558.4649063853387 M838.2157821053077,558.4649063853387 L838.117217802758,558.6954608989033 M838.117217802758,558.6954608989033 L837.925255863981,558.9021498955867 M837.925255863981,558.9021498955867 L837.6510008108255,559.0729327215823 M837.6510008108255,559.0729327215823 L837.3103918208251,559.1978764040387 M837.3103918208251,559.1978764040387 L836.9232698932421,559.2697386749128 M836.9232698932421,559.2697386749128 L836.5121330849759,559.2843291763924 M836.5121330849759,559.2843291763924 L836.10086607938,559.2407930194905 M836.10086607938,559.2407930194905 L835.7133917105282,559.1416650795786 M835.7133917105282,559.1416650795786 L835.3722257301663,558.9927071283648 M835.3722257301663,558.9927071283648 L835.09721019582,558.802587431541 M835.09721019582,558.802587431541 L834.9043344579887,558.5823680372655 M834.9043344579887,558.5823680372655 L834.8047922541157,558.3448461710461 M834.8047922541157,558.3448461710461 L834.8043229429625,558.1038123563662 M834.8043229429625,558.1038123563662 L834.9030065052038,557.8733039625865 M834.9030065052038,557.8733039625865 L835.0950799200014,557.6667084687944 M835.0950799200014,557.6667084687944 L835.3693435526955,557.4960068310527 M835.3693435526955,557.4960068310527 L835.7098562602212,557.3711134223836 M835.7098562602212,557.3711134223836 L836.0968686756978,557.2992972732532 M836.0968686756978,557.2992972732532 L836.5079078259193,557.2847381691906 M836.5079078259193,557.2847381691906 L836.9190418327496,557.328245538795 M836.9190418327496,557.328245538795 L837.3064176131288,557.4273127101808 M837.3064176131288,557.4273127101808 L837.6475419998981,557.5761918310053 M253.94083678790355,231.90998215977925 L253.9312274265477,234.61525124170353 M253.9312274265477,234.61525124170353 L254.536963227672,235.039891663 M254.536963227672,235.039891663 L254.9417439430042,235.5318899517488 M254.9417439430042,235.5318899517488 L255.12200343327817,236.06268110055856 M255.12200343327817,236.06268110055856 L255.06720204716703,236.60142887922544 M255.06720204716703,236.60142887922544 L254.7804597145098,237.11682019790453 M254.7804597145098,237.11682019790453 L254.27838567209557,237.57888172636092 M254.27838567209557,237.57888172636092 L253.59012688050882,237.96072727739718 M253.59012688050882,237.96072727739718 L252.75568299459525,238.24012821293556 M252.75568299459525,238.24012821293556 L251.8235801707288,238.40081461034788 M251.8235801707288,238.40081461034788 L250.8480430855251,238.43342730516457 M250.8480430855251,238.43342730516457 L249.88582985980185,238.33606598205813 M249.88582985980185,238.33606598205813 L248.99292595786955,238.11440285886633 M248.99292595786955,238.11440285886633 L248.2212666906131,237.78134654744758 M248.2212666906131,237.78134654744758 L247.61571490463513,237.35629023394097 M247.61571490463513,237.35629023394097 L247.2114458369166,236.86397025910196 M247.2114458369166,236.86397025910196 L247.03191255298975,236.33302760244078 M247.03191255298975,236.33302760244078 L247.0874847479575,235.79433122731834 M247.0874847479575,235.79433122731834 L247.37486797962885,235.27918358608022 M247.37486797962885,235.27918358608022 L247.87730564044,234.81750188396205 M247.87730564044,234.81750188396205 L248.56556746818052,234.4360852945275 M248.56556746818052,234.4360852945275 L249.399653112416,234.1570641853107 M249.399653112416,234.1570641853107 L250.3311184866152,233.9966214656083 M250.3311184866152,233.9966214656083 L251.305885494765,233.96406077825023 M251.305885494765,233.96406077825023 L252.26737036082528,234.06126938573533 M252.26737036082528,234.06126938573533 L253.15975807006384,234.28261203061953 M253.15975807006384,234.28261203061953 L253.9312274265477,234.61525124170353 M839.5036758456083,553.7302750389667 L839.3533141914529,556.5142504933151 M839.3533141914529,556.5142504933151 L840.0409631212633,556.9892042598162 M840.0409631212633,556.9892042598162 L840.5235264271532,557.5394875972554 M840.5235264271532,557.5394875972554 L840.772957870938,558.1331764482472 M840.772957870938,558.1331764482472 L840.7746771709965,558.7357734083594 M840.7746771709965,558.7357734083594 L840.528473709453,559.3122333561945 M840.528473709453,559.3122333561945 L840.0486835963161,559.8290805736855 M840.0486835963161,559.8290805736855 L839.3630621137686,560.2561899637217 M839.3630621137686,560.2561899637217 L838.5114513082458,560.5686955421729 M838.5114513082458,560.5686955421729 L837.5434639626219,560.7484465590715 M837.5434639626219,560.7484465590715 L836.5153224712133,560.7849215816307 M836.5153224712133,560.7849215816307 L835.48688687706,560.6760156739881 M835.48688687706,560.6760156739881 L834.5180149367231,560.4280824673151 M834.5180149367231,560.4280824673151 L833.6650230888863,560.0555390033157 M833.6650230888863,560.0555390033157 L832.9775299884269,559.580092549526 M832.9775299884269,559.580092549526 L832.4955025901932,559.0294294033805 M832.4955025901932,559.0294294033805 L832.2468643744689,558.4355606147944 M832.2468643744689,558.4355606147944 L832.2460139012787,557.8330248192703 M832.2460139012787,557.8330248192703 L832.4929234484953,557.2568315070148 M832.4929234484953,557.2568315070148 L832.973204044431,556.7404552155175 M832.973204044431,556.7404552155175 L833.6588791494966,556.313853255264 M833.6588791494966,556.313853255264 L834.5100944322813,556.0017753581784 M834.5100944322813,556.0017753581784 L835.4774366144636,555.8223342139372 M835.4774366144636,555.8223342139372 L836.5047222051537,555.7859203484772 M836.5047222051537,555.7859203484772 L837.5323265412026,555.8946463160488 M837.5323265412026,555.8946463160488 L838.5005823022966,556.142199720319 M838.5005823022966,556.142199720319 L839.3533141914529,556.5142504933151" stroke="black"  stroke-width="4"  fill="red"/>
<path d="M819.0189812501492,606.5684618872092 L524.6511251374778,790.9859384703345 M819.0189812501492,606.5684618872092 L794.539541755871,592.9685827176656 M500.10847210868224,776.5328370079999 L794.539541755871,592.9685827176656 M524.6511251374778,790.9859384703345 L500.10847210868224,776.5328370079999 M820.3748695671181,580.7353668582939 L819.0189812501492,606.5684618872092 M854.2524472321106,459.2735442888802 L849.4184436568528,469.59936393269135 M849.4184436568528,469.59936393269135 L844.9128105340346,479.99622827428533 M844.9128105340346,479.99622827428533 L840.7494542991849,490.43145332024545 M840.7494542991849,490.43145332024545 L836.9411260288416,500.87225628912785 M836.9411260288416,500.87225628912785 L833.4993776513257,511.2858909588057 M833.4993776513257,511.2858909588057 L830.4345199662245,521.6398029794555 M830.4345199662245,521.6398029794555 L827.7555969376729,531.9017126788822 M827.7555969376729,531.9017126788822 L825.4703576654554,542.0397199459218 M825.4703576654554,542.0397199459218 L823.5852319898748,552.0224891176799 M823.5852319898748,552.0224891176799 L822.1053235455371,561.8192355561469 M822.1053235455371,561.8192355561469 L821.0343959443711,571.3999225405166 M821.0343959443711,571.3999225405166 L820.3748695671181,580.7353668582939 M855.009629898917,457.7190433906199 L855.1021666412685,457.77754121277667 M855.1021666412685,457.77754121277667 L855.1673186841854,457.8777970393785 M855.1673186841854,457.8777970393785 L855.2013021346534,458.0140157691223 M855.2013021346534,458.0140157691223 L855.2021451854266,458.1782469446876 M855.2021451854266,458.1782469446876 L855.1698006822983,458.36094301650365 M855.1698006822983,458.36094301650365 L855.1061476071927,458.5515017426912 M855.1061476071927,458.5515017426912 L855.014885582465,458.73887396853564 M855.014885582465,458.73887396853564 L854.9013162602073,458.9121570526292 M854.9013162602073,458.9121570526292 L854.7720418351348,459.06123920204817 M854.7720418351348,459.06123920204817 L854.6345696705946,459.17750160833646 M854.6345696705946,459.17750160833646 L854.4968856738494,459.2542054960185 M854.4968856738494,459.2542054960185 L854.3669973395222,459.2868144556253 M854.3669973395222,459.2868144556253 L854.2524472321106,459.2735442888802 M889.2588115051947,335.5000753727419 L888.5135659116429,345.0818025210708 M888.5135659116429,345.0818025210708 L887.3637587580852,354.8671865635931 M887.3637587580852,354.8671865635931 L885.8134748993339,364.82861658760464 M885.8134748993339,364.82861658760464 L883.8678411240364,374.9380211681086 M883.8678411240364,374.9380211681086 L881.5329988804124,385.16711781270624 M881.5329988804124,385.16711781270624 L878.8160740431379,395.48745117725736 M878.8160740431379,395.48745117725736 L875.7251842069732,405.8703239187028 M875.7251842069732,405.8703239187028 L872.2693738549353,416.28706570467506 M872.2693738549353,416.28706570467506 L868.4586219039518,426.7088791160141 M868.4586219039518,426.7088791160141 L864.3037850004412,437.1071869807555 M864.3037850004412,437.1071869807555 L859.8166032092245,447.4533541177012 M859.8166032092245,447.4533541177012 L855.009629898917,457.7190433906199 M554.7826916785316,537.0060343351745 L889.2588115051947,335.5000753727419 M551.2152731873633,658.0140126329907 L554.7826916785316,537.0060343351745 M527.9131674248741,672.3354559279494 L551.2152731873633,658.0140126329907 M524.6511251374778,790.9859384703345 L527.9131674248741,672.3354559279494 M820.3748695671181,580.7353668582939 L795.8378217095083,567.1642554111467 M795.8378217095083,567.1642554111467 L794.539541755871,592.9685827176656 M500.10847210868224,776.5328370079999 L503.1077198219251,658.0140240770177 M526.4133884938385,643.7604633215935 L503.1077198219251,658.0140240770177 M526.4133884938385,643.7604633215935 L529.7124416953496,522.8929548374149 M864.270123417054,322.3345461656645 L529.7124416953496,522.8929548374149 M864.270123417054,322.3345461656645 L863.5459687732132,331.90433151554316 M863.5459687732132,331.90433151554316 L862.417023308634,341.67672393528414 M862.417023308634,341.67672393528414 L860.8873128048767,351.62414870166515 M860.8873128048767,351.62414870166515 L858.9619060323116,361.7185728340084 M858.9619060323116,361.7185728340084 L856.646888027527,371.9317542512675 M856.646888027527,371.9317542512675 L853.9493299088542,382.23527992570195 M853.9493299088542,382.23527992570195 L850.8772960289605,392.60049687128196 M850.8772960289605,392.60049687128196 L847.4397796614392,402.9987807781229 M847.4397796614392,402.9987807781229 L843.646710198796,413.40138214706036 M843.646710198796,413.40138214706036 L839.5088971540561,423.7797731900302 M839.5088971540561,423.7797731900302 L835.038035200789,434.1053699354462 M835.038035200789,434.1053699354462 L830.246634752849,444.3498878142716 M829.4917591217605,445.90111977250655 L829.606538742559,445.9146256298141 M829.606538742559,445.9146256298141 L829.7365763607854,445.8823335668205 M829.7365763607854,445.8823335668205 L829.8743204876929,445.8060094887081 M829.8743204876929,445.8060094887081 L830.0117603045055,445.69016763462145 M830.0117603045055,445.69016763462145 L830.1409117439227,445.54152236576533 M830.1409117439227,445.54152236576533 L830.2542744896532,445.3686671633756 M830.2542744896532,445.3686671633756 L830.3452584409818,445.181688911701 M830.3452584409818,445.181688911701 L830.4085781384974,444.99146735306147 M830.4085781384974,444.99146735306147 L830.4405532742888,444.8090320787647 M830.4405532742888,444.8090320787647 L830.4393262999382,444.6449701956926 M830.4393262999382,444.6449701956926 L830.404966689292,444.50881940871795 M830.404966689292,444.50881940871795 L830.3394681886393,444.40852618237835 M830.3394681886393,444.40852618237835 L830.246634752849,444.3498878142716 M795.8378217095083,567.1642554111467 L796.4768204411489,557.8396480887582 M796.4768204411489,557.8396480887582 L797.5273612461843,548.2709907596854 M797.5273612461843,548.2709907596854 L798.9870855695804,538.487430030021 M798.9870855695804,538.487430030021 L800.8522915876932,528.518961642837 M800.8522915876932,528.518961642837 L803.117937201947,518.3963250334118 M803.117937201947,518.3963250334118 L805.7776534421996,508.1508067074851 M805.7776534421996,508.1508067074851 L808.8237514705818,497.8142537126526 M808.8237514705818,497.8142537126526 L812.247246598236,487.4188890456527 M812.247246598236,487.4188890456527 L816.0378861220861,476.99720699563375 M816.0378861220861,476.99720699563375 L820.1841748809234,466.58189054202563 M820.1841748809234,466.58189054202563 L824.6734169389666,456.2056563590477 M824.6734169389666,456.2056563590477 L829.4917591217605,445.90111977250655 M503.1077198219251,658.0140240770177 L527.9131674248741,672.3354559279494 M854.2524472321106,459.2735442888802 L829.4917591217605,445.90111977250655 M855.009629898917,457.7190433906199 L830.246634752849,444.3498878142716 M889.2588115051947,335.5000753727419 L864.270123417054,322.3345461656645 M554.7826916785316,537.0060343351745 L529.7124416953496,522.8929548374149 M551.2152731873633,658.0140126329907 L526.4133884938385,643.7604633215935" stroke="black"  stroke-width="4"  fill="red"/>
<path d="M836.3718730860523,581.2576318001663 L837.6475419998981,557.5761918310053 M837.6475419998981,557.5761918310053 L837.922582467135,557.7662326977774 M837.922582467135,557.7662326977774 L838.1155439499785,557.9863913227578 M838.1155439499785,557.9863913227578 L838.215213068172,558.2238843991283 M838.215213068172,558.2238843991283 L838.2157821053077,558.4649063853387 M838.2157821053077,558.4649063853387 L838.117217802758,558.6954608989033 M838.117217802758,558.6954608989033 L837.925255863981,558.9021498955867 M837.925255863981,558.9021498955867 L837.6510008108255,559.0729327215823 M837.6510008108255,559.0729327215823 L837.3103918208251,559.1978764040387 M837.3103918208251,559.1978764040387 L836.9232698932421,559.2697386749128 M836.9232698932421,559.2697386749128 L836.5121330849759,559.2843291763924 M836.5121330849759,559.2843291763924 L836.10086607938,559.2407930194905 M836.10086607938,559.2407930194905 L835.7133917105282,559.1416650795786 M835.7133917105282,559.1416650795786 L835.3722257301663,558.9927071283648 M835.3722257301663,558.9927071283648 L835.09721019582,558.802587431541 M835.09721019582,558.802587431541 L834.9043344579887,558.5823680372655 M834.9043344579887,558.5823680372655 L834.8047922541157,558.3448461710461 M834.8047922541157,558.3448461710461 L834.8043229429625,558.1038123563662 M834.8043229429625,558.1038123563662 L834.9030065052038,557.8733039625865 M834.9030065052038,557.8733039625865 L835.0950799200014,557.6667084687944 M835.0950799200014,557.6667084687944 L835.3693435526955,557.4960068310527 M835.3693435526955,557.4960068310527 L835.7098562602212,557.3711134223836 M835.7098562602212,557.3711134223836 L836.0968686756978,557.2992972732532 M836.0968686756978,557.2992972732532 L836.5079078259193,557.2847381691906 M836.5079078259193,557.2847381691906 L836.9190418327496,557.328245538795 M836.9190418327496,557.328245538795 L837.3064176131288,557.4273127101808 M837.3064176131288,557.4273127101808 L837.6475419998981,557.5761918310053 M836.3718730860523,581.2576318001663 L836.0314757084138,581.1084610242291 M836.0314757084138,581.1084610242291 L835.6449104155317,581.009199771167 M835.6449104155317,581.009199771167 L835.2346233313133,580.9656071644936 M835.2346233313133,580.9656071644936 L834.8244184291184,580.9801947920384 M834.8244184291184,580.9801947920384 L834.4381790303489,581.0521516377034 M834.4381790303489,581.0521516377034 L834.0983332418951,581.1772897192072 M834.0983332418951,581.1772897192072 L833.8245917654053,581.3483257531254 M833.8245917654053,581.3483257531254 L833.6328653913705,581.5553259305002 M833.6328653913705,581.5553259305002 L833.5343334922402,581.7862858141739 M833.5343334922402,581.7862858141739 L833.5347501953007,582.0277916953426 M833.5347501953007,582.0277916953426 L833.6340386667886,582.265778710639 M833.6340386667886,582.265778710639 L833.8264741759494,582.486429335037 M833.8264741759494,582.486429335037 L834.1008885230857,582.676921294305 M834.1008885230857,582.676921294305 L834.4413273080861,582.8261708940822 M834.4413273080861,582.8261708940822 L834.8279907750601,582.9254929106215 M834.8279907750601,582.9254929106215 L835.2384103104379,582.9691143022008 M835.2384103104379,582.9691143022008 L835.6487123999718,582.9544952357207 M835.6487123999718,582.9544952357207 L836.0350608749181,582.8824922721441 M836.0350608749181,582.8824922721441 L836.3750026445416,582.7573039651564 M836.3750026445416,582.7573039651564 L836.64873559383,582.5861867497297 M836.64873559383,582.5861867497297 L836.8403508858337,582.3790930331052 M836.8403508858337,582.3790930331052 L836.9387640206637,582.1480870334785 M836.9387640206637,582.1480870334785 L836.9382480749409,581.906593023923 M836.9382480749409,581.906593023923 L836.8388331996227,581.6686347960838 M836.8388331996227,581.6686347960838 L836.646312281483,581.4480449359319 M836.646312281483,581.4480449359319 L836.3718730860523,581.2576318001663 M839.3533141914529,556.5142504933151 L840.0409631212633,556.9892042598162 M840.0409631212633,556.9892042598162 L840.5235264271532,557.5394875972554 M840.5235264271532,557.5394875972554 L840.772957870938,558.1331764482472 M840.772957870938,558.1331764482472 L840.7746771709965,558.7357734083594 M840.7746771709965,558.7357734083594 L840.528473709453,559.3122333561945 M840.528473709453,559.3122333561945 L840.0486835963161,559.8290805736855 M840.0486835963161,559.8290805736855 L839.3630621137686,560.2561899637217 M839.3630621137686,560.2561899637217 L838.5114513082458,560.5686955421729 M838.5114513082458,560.5686955421729 L837.5434639626219,560.7484465590715 M837.5434639626219,560.7484465590715 L836.5153224712133,560.7849215816307 M836.5153224712133,560.7849215816307 L835.48688687706,560.6760156739881 M835.48688687706,560.6760156739881 L834.5180149367231,560.4280824673151 M834.5180149367231,560.4280824673151 L833.6650230888863,560.0555390033157 M833.6650230888863,560.0555390033157 L832.9775299884269,559.580092549526 M832.9775299884269,559.580092549526 L832.4955025901932,559.0294294033805 M832.4955025901932,559.0294294033805 L832.2468643744689,558.4355606147944 M832.2468643744689,558.4355606147944 L832.2460139012787,557.8330248192703 M832.2460139012787,557.8330248192703 L832.4929234484953,557.2568315070148 M832.4929234484953,557.2568315070148 L832.973204044431,556.7404552155175 M832.973204044431,556.7404552155175 L833.6588791494966,556.313853255264 M833.6588791494966,556.313853255264 L834.5100944322813,556.0017753581784 M834.5100944322813,556.0017753581784 L835.4774366144636,555.8223342139372 M835.4774366144636,555.8223342139372 L836.5047222051537,555.7859203484772 M836.5047222051537,555.7859203484772 L837.5323265412026,555.8946463160488 M837.5323265412026,555.8946463160488 L838.5005823022966,556.142199720319 M838.5005823022966,556.142199720319 L839.3533141914529,556.5142504933151 M839.5036758456083,553.7302750389667 L840.1915015501709,554.2051188762091 M840.1915015501709,554.2051188762091 L840.6741944544397,554.7552748720135 M840.6741944544397,554.7552748720135 L840.9237007785862,555.3488263643576 M840.9237007785862,555.3488263643576 L840.9254358529467,555.9512839339911 M840.9254358529467,555.9512839339911 L840.6791880979613,556.5276105647861 M840.6791880979613,556.5276105647861 L840.1992961898193,557.0443382746666 M840.1992961898193,557.0443382746666 L839.5135212843991,557.4713489229803 M839.5135212843991,557.4713489229803 L838.6617143413771,557.783782263868 M838.6617143413771,557.783782263868 L837.693499578817,557.9634917338099 M837.693499578817,557.9634917338099 L836.6651126117781,557.9999583259923 M836.6651126117781,557.9999583259923 L835.6364277933126,557.8910775898071 M835.6364277933126,557.8910775898071 L834.6673174029412,557.6432016915983 M834.6673174029412,557.6432016915983 L833.8141117522166,557.2707443484325 M833.8141117522166,557.2707443484325 L833.126441939195,556.7954078198755 M833.126441939195,556.7954078198755 L832.6442851897526,556.2448720122613 M832.6442851897526,556.2448720122613 L832.3955724691989,555.6511405808524 M832.3955724691989,555.6511405808524 L832.3947066395692,555.0487441763073 M832.3947066395692,555.0487441763073 L832.641660834728,554.4726841884471 M832.641660834728,554.4726841884471 L833.122043463206,553.9564274032316 M833.122043463206,553.9564274032316 L833.80787202969,553.5299241888471 M833.80787202969,553.5299241888471 L834.6592832806978,553.2179185379962 M834.6592832806978,553.2179185379962 L835.6268525691094,553.0385189380675 M835.6268525691094,553.0385189380675 L836.6543832268585,553.0021135034838 M836.6543832268585,553.0021135034838 L837.6822363843503,553.1108142981276 M837.6822363843503,553.1108142981276 L838.6507302906061,553.3583103908302 M838.6507302906061,553.3583103908302 L839.5036758456083,553.7302750389667 M839.5036758456083,553.7302750389667 L839.3533141914529,556.5142504933151" stroke="black"  stroke-width="4"  fill="red"/>
<path d="M233.37981858453736,281.20881257552276 L-61.55249289443941,445.77222587527064 M233.37981858453736,281.20881257552276 L211.49619270323507,269.05107228711563 M-83.41893058683371,432.895140328847 L211.49619270323507,269.05107228711563 M-61.55249289443941,445.77222587527064 L-83.41893058683371,432.895140328847 M-61.55249289443941,445.77222587527064 L-64.23544235409378,330.4582966717996 M-64.23544235409378,330.4582966717996 L-40.92471482229831,317.7134015044618 M-40.92471482229831,317.7134015044618 L-43.42392068625702,200.25081721315306 M-43.42392068625702,200.25081721315306 L291.8799955490328,20.765335340803517 M291.8799955490328,20.765335340803517 L291.6143798260945,30.048614735501417 M291.6143798260945,30.048614735501417 L290.94023277195754,39.51120557340613 M290.94023277195754,39.51120557340613 L289.8602836741418,49.126393949563976 M289.8602836741418,49.126393949563976 L288.37832468969475,58.867057881220376 M288.37832468969475,58.867057881220376 L286.49919622389524,68.70590954836183 M286.49919622389524,68.70590954836183 L284.22875796681905,78.61553203515484 M284.22875796681905,78.61553203515484 L281.57389304606374,88.56831349337688 M281.57389304606374,88.56831349337688 L278.5424551923987,98.53670690830819 M278.5424551923987,98.53670690830819 L275.14326845243346,108.49308173958462 M275.14326845243346,108.49308173958462 L271.38608669490384,118.41006045535931 M271.38608669490384,118.41006045535931 L267.2815846351103,128.26024930765522 M267.2815846351103,128.26024930765522 L262.841303691023,138.01658277304398 M262.841303691023,138.01658277304398 L262.94029198943116,138.07809416771192 M262.94029198943116,138.07809416771192 L263.0131023260269,138.1789059959902 M263.0131023260269,138.1789059959902 L263.0555073781575,138.31319023500401 M263.0555073781575,138.31319023500401 L263.06504412298386,138.47310994872186 M263.06504412298386,138.47310994872186 L263.0411599787924,138.64936829481775 M263.0411599787924,138.64936829481775 L262.98524297856466,138.83173663003947 M262.98524297856466,138.83173663003947 L262.90054450981455,139.0096410038159 M262.90054450981455,139.0096410038159 L262.79198405223536,139.17272911118278 M262.79198405223536,139.17272911118278 L262.6658706946281,139.31148272044163 M262.6658706946281,139.31148272044163 L262.52953038716464,139.4178817318964 M262.52953038716464,139.4178817318964 L262.39088418130905,139.48575994229498 M262.39088418130905,139.48575994229498 L262.25799162417616,139.51109629263362 M262.25799162417616,139.51109629263362 L262.13857552651564,139.492526120364 M262.13857552651564,139.492526120364 L257.673350302212,149.3062873121017 M257.673350302212,149.3062873121017 L253.55207291607184,159.20567729993434 M253.55207291607184,159.20567729993434 L249.78740559104324,169.159663770284 M249.78740559104324,169.159663770284 L246.39081652763076,179.13705822945212 M246.39081652763076,179.13705822945212 L243.37254192790044,189.10664404307406 M243.37254192790044,189.10664404307406 L240.74155080322043,199.0373240758021 M240.74155080322043,199.0373240758021 L238.50552268685777,208.89819861785486 M238.50552268685777,208.89819861785486 L236.67082396461126,218.65866478946583 M236.67082396461126,218.65866478946583 L235.24249204386587,228.28859417694596 M235.24249204386587,228.28859417694596 L234.22422703809787,237.7583183130295 M234.22422703809787,237.7583183130295 L233.6183872745858,247.0388188202588 M233.6183872745858,247.0388188202588 L233.42599087516032,256.10182933041847 M233.42599087516032,256.10182933041847 L233.37981858453736,281.20881257552276 M233.42599087516032,256.10182933041847 L211.49619511639708,243.9727539835221 M211.49619511639708,243.9727539835221 L211.49619270323507,269.05107228711563 M211.49619511639708,243.9727539835221 L211.67210554983768,234.92045626675088 M211.67210554983768,234.92045626675088 L212.26148189321367,225.65167399479722 M212.26148189321367,225.65167399479722 L213.26335532894973,216.19463762228926 M213.26335532894973,216.19463762228926 L214.6754171056824,206.5783259448874 M214.6754171056824,206.5783259448874 L216.4940167925077,196.83236432383347 M216.4940167925077,196.83236432383347 L218.71416644569018,186.98683480578597 M218.71416644569018,186.98683480578597 L221.32954897474696,177.07229068120773 M221.32954897474696,177.07229068120773 L224.3325336729253,167.11957912744435 M224.3325336729253,167.11957912744435 L227.71419973306308,157.15974201117925 M227.71419973306308,157.15974201117925 L231.4643584145124,147.22393814481163 M231.4643584145124,147.22393814481163 L235.57158799436667,137.34329593656668 M235.57158799436667,137.34329593656668 L240.02327153610213,127.5487856253315 M240.02327153610213,127.5487856253315 L240.14284420724277,127.56754015808957 M240.14284420724277,127.56754015808957 L240.27582609791722,127.5424630852616 M240.27582609791722,127.5424630852616 L240.4144890062334,127.47490412428078 M240.4144890062334,127.47490412428078 L240.5507725504899,127.36886568516496 M240.5507725504899,127.36886568516496 L240.67675894491896,127.2304930409598 M240.67675894491896,127.2304930409598 L240.78512953646475,127.06778421089297 M240.78512953646475,127.06778421089297 L240.86958634132077,126.8902353418755 M240.86958634132077,126.8902353418755 L240.92522394959917,126.7081780731512 M240.92522394959917,126.7081780731512 L240.94880716366617,126.53216830830229 M240.94880716366617,126.53216830830229 L240.93896541390365,126.37242026493351 M240.93896541390365,126.37242026493351 L240.89626901475765,126.23822080338897 M240.89626901475765,126.23822080338897 L240.8231979843447,126.13740189023781 M240.8231979843447,126.13740189023781 L240.72399473871639,126.07579198544437 M269.57561937955757,9.014061529665355 L269.32691843164883,18.285673564840124 M269.32691843164883,18.285673564840124 L268.6695989328835,27.735718397607343 M268.6695989328835,27.735718397607343 L267.6063418623125,37.33751691039811 M267.6063418623125,37.33751691039811 L266.1408916766753,47.06398380606555 M266.1408916766753,47.06398380606555 L264.27804213970234,56.887869566234826 M264.27804213970234,56.887869566234826 L262.02360741022613,66.78179713791752 M262.02360741022613,66.78179713791752 L259.38442608679406,76.71819622326922 M259.38442608679406,76.71819622326922 L256.3683088051123,86.66956268915231 M256.3683088051123,86.66956268915231 L252.98403767745737,96.60831042988104 M252.98403767745737,96.60831042988104 L249.24132637710125,106.50710748052592 M249.24132637710125,106.50710748052592 L245.15081064940495,116.33860714489225 M245.15081064940495,116.33860714489225 L240.72399473871639,126.07579198544437 M269.57561937955757,9.014061529665355 L-65.71393827345543,187.7028453969315 M-63.00228010297246,305.0255082539205 L-65.71393827345543,187.7028453969315 M-63.00228010297246,305.0255082539205 L-86.31024391056508,317.7134040508633 M-83.41893058683371,432.895140328847 L-86.31024391056508,317.7134040508633 M-86.31024391056508,317.7134040508633 L-64.23544235409378,330.4582966717996 M262.13857552651564,139.492526120364 L240.02327153610213,127.5487856253315 M262.841303691023,138.01658277304398 L240.72399473871639,126.07579198544437 M291.8799955490328,20.765335340803517 L269.57561937955757,9.014061529665355 M-43.42392068625702,200.25081721315306 L-65.71393827345543,187.7028453969315 M-40.92471482229831,317.7134015044618 L-63.00228010297246,305.0255082539205" stroke="black"  stroke-width="4"  fill="red"/>
<path d="M252.14045961378997,258.5795417891816 L252.21891798113302,235.56470346174953 M252.21891798113302,235.56470346174953 L252.46119016245177,235.7346099461745 M252.46119016245177,235.7346099461745 L252.62304160572148,235.93144765725287 M252.62304160572148,235.93144765725287 L252.6950577512606,236.14378248783407 M252.6950577512606,236.14378248783407 L252.67304659315892,236.35927503157723 M252.67304659315892,236.35927503157723 L252.55827097972195,236.56540279329258 M252.55827097972195,236.56540279329258 L252.3573979126079,236.75018144319284 M252.3573979126079,236.75018144319284 L252.08209401335228,236.90286815768675 M252.08209401335228,236.90286815768675 L251.74836011192082,237.01458279931606 M251.74836011192082,237.01458279931606 L251.3755946446762,237.07882906015956 M251.3755946446762,237.07882906015956 L250.98547298522442,237.09186684088954 M250.98547298522442,237.09186684088954 L250.60067479642856,237.05294094254594 M250.60067479642856,237.05294094254594 L250.2435755503646,236.9643138900018 M250.2435755503646,236.9643138900018 L249.93493384048895,236.83114149880606 M249.93493384048895,236.83114149880606 L249.6926920237795,236.6611689788376 M249.6926920237795,236.6611689788376 L249.53092261954038,236.46427989468015 M249.53092261954038,236.46427989468015 L249.45902249153147,236.25192072620308 M249.45902249153147,236.25192072620308 L249.48115706668307,236.03643645531682 M249.48115706668307,236.03643645531682 L249.59603522409122,235.83034768208233 M249.59603522409122,235.83034768208233 L249.79696646997098,235.64562980428056 M249.79696646997098,235.64562980428056 L250.07227085500284,235.49301172362055 M250.07227085500284,235.49301172362055 L250.40594743793292,235.38135785411066 M250.40594743793292,235.38135785411066 L250.77861091311252,235.31715058228886 M250.77861091311252,235.31715058228886 L251.1686092726137,235.3041210737897 M251.1686092726137,235.3041210737897 L251.55329109936207,235.3430226344178 M251.55329109936207,235.3430226344178 L251.91030757918026,235.431598313694 M251.91030757918026,235.431598313694 L252.21891798113302,235.56470346174953 M252.14045961378997,258.5795417891816 L251.83244562866093,258.4461462937169 M251.83244562866093,258.4461462937169 L251.47611817844916,258.3573773941047 M251.47611817844916,258.3573773941047 L251.09217797880723,258.3183909713072 M251.09217797880723,258.3183909713072 L250.70293077685494,258.33144890326463 M250.70293077685494,258.33144890326463 L250.33098438204888,258.3957962394947 M250.33098438204888,258.3957962394947 L249.99794915621783,258.5076936686107 M249.99794915621783,258.5076936686107 L249.72317315403592,258.6606446534938 M249.72317315403592,258.6606446534938 L249.5226266065144,258.84576543295464 M249.5226266065144,258.84576543295464 L249.40796709114176,259.0523036936595 M249.40796709114176,259.0523036936595 L249.3858723508036,259.26825791258756 M249.3858723508036,259.26825791258756 L249.45763116189516,259.4810801822223 M249.45763116189516,259.4810801822223 L249.619086265946,259.6783986034086 M249.619086265946,259.6783986034086 L249.86085904290036,259.84874174452057 M249.86085904290036,259.84874174452057 L250.16890421661702,259.9822045010916 M250.16890421661702,259.9822045010916 L250.52531411373388,260.071024786807 M250.52531411373388,260.071024786807 L250.9093702271092,260.1100355534004 M250.9093702271092,260.1100355534004 L251.29874025443064,260.0969693471455 M251.29874025443064,260.0969693471455 L251.67078824917104,260.0325830121526 M251.67078824917104,260.0325830121526 L252.0038805736579,259.92062479573383 M252.0038805736579,259.92062479573383 L252.27865609286607,259.7676051598693 M252.27865609286607,259.7676051598693 L252.47914468643063,259.5824235931267 M252.47914468643063,259.5824235931267 L252.5937020531469,259.3758463342 M252.5937020531469,259.3758463342 L252.61567385169218,259.1598838403479 M252.61567385169218,259.1598838403479 L252.5437994693969,258.9470859146899 M252.5437994693969,258.9470859146899 L252.3822626414605,258.7498188794176 M252.3822626414605,258.7498188794176 L252.14045961378997,258.5795417891816 M253.9312274265477,234.61525124170353 L254.536963227672,235.039891663 M254.536963227672,235.039891663 L254.9417439430042,235.5318899517488 M254.9417439430042,235.5318899517488 L255.12200343327817,236.06268110055856 M255.12200343327817,236.06268110055856 L255.06720204716703,236.60142887922544 M255.06720204716703,236.60142887922544 L254.7804597145098,237.11682019790453 M254.7804597145098,237.11682019790453 L254.27838567209557,237.57888172636092 M254.27838567209557,237.57888172636092 L253.59012688050882,237.96072727739718 M253.59012688050882,237.96072727739718 L252.75568299459525,238.24012821293556 M252.75568299459525,238.24012821293556 L251.8235801707288,238.40081461034788 M251.8235801707288,238.40081461034788 L250.8480430855251,238.43342730516457 M250.8480430855251,238.43342730516457 L249.88582985980185,238.33606598205813 M249.88582985980185,238.33606598205813 L248.99292595786955,238.11440285886633 M248.99292595786955,238.11440285886633 L248.2212666906131,237.78134654744758 M248.2212666906131,237.78134654744758 L247.61571490463513,237.35629023394097 M247.61571490463513,237.35629023394097 L247.2114458369166,236.86397025910196 M247.2114458369166,236.86397025910196 L247.03191255298975,236.33302760244078 M247.03191255298975,236.33302760244078 L247.0874847479575,235.79433122731834 M247.0874847479575,235.79433122731834 L247.37486797962885,235.27918358608022 M247.37486797962885,235.27918358608022 L247.87730564044,234.81750188396205 M247.87730564044,234.81750188396205 L248.56556746818052,234.4360852945275 M248.56556746818052,234.4360852945275 L249.399653112416,234.1570641853107 M249.399653112416,234.1570641853107 L250.3311184866152,233.9966214656083 M250.3311184866152,233.9966214656083 L251.305885494765,233.96406077825023 M251.305885494765,233.96406077825023 L252.26737036082528,234.06126938573533 M252.26737036082528,234.06126938573533 L253.15975807006384,234.28261203061953 M253.15975807006384,234.28261203061953 L253.9312274265477,234.61525124170353 M253.94083678790355,231.90998215977925 L254.5467104938914,232.33451322610352 M254.5467104938914,232.33451322610352 L254.95158374176737,232.82638483189413 M254.95158374176737,232.82638483189413 L255.13188499528917,233.35703933108712 M255.13188499528917,233.35703933108712 L255.0770721475768,233.89564843507347 M255.0770721475768,233.89564843507347 L254.79026576492157,234.4109071130672 M254.79026576492157,234.4109071130672 L254.2880787815016,234.87284974403707 M254.2880787815016,234.87284974403707 L253.5996647073107,235.25459705177803 M253.5996647073107,235.25459705177803 L252.76503222164558,235.53392610900858 M252.76503222164558,235.53392610900858 L251.83271845559,235.69457117131844 M251.83271845559,235.69457117131844 L250.85696036956728,235.72717547707367 M250.85696036956728,235.72717547707367 L249.89452895747144,235.62983919876817 M249.89452895747144,235.62983919876817 L249.00142239269167,235.40823309809204 M249.00142239269167,235.40823309809204 L248.22958778394434,235.0752624724053 M248.22958778394434,235.0752624724053 L247.62389817555794,234.65031552661196 M247.62389817555794,234.65031552661196 L247.21953680683805,234.15812224482866 M247.21953680683805,234.15812224482866 L247.0399620881903,233.62731624233865 M247.0399620881903,233.62731624233865 L247.0955460941923,233.08875854037362 M247.0955460941923,233.08875854037362 L247.38299366662136,232.5737435322756 M247.38299366662136,232.5737435322756 L247.88554443379013,232.1121807158828 M247.88554443379013,232.1121807158828 L248.5739615461984,231.73086235646116 M248.5739615461984,231.73086235646116 L249.4082356284879,231.45191311379114 M249.4082356284879,231.45191311379114 L250.33991165646103,231.29151172164586 M250.33991165646103,231.29151172164586 L251.314899316494,231.25895942167045 M251.314899316494,231.25895942167045 L252.27660203893646,231.3561429892203 M252.27660203893646,231.3561429892203 L253.169192176391,231.57742862137536 M253.169192176391,231.57742862137536 L253.94083678790355,231.90998215977925 M253.94083678790355,231.90998215977925 L253.9312274265477,234.61525124170353" stroke="black"  stroke-width="4"  fill="red"/>
<path d="M-63.00228010297246,305.0255082539205 L-86.31024391056508,317.7134040508633 M-86.31024391056508,317.7134040508633 L-89.25881150519456,200.2508197315286 M-65.71393827345543,187.7028453969315 L-89.25881150519456,200.2508197315286 M-63.00228010297246,305.0255082539205 L-65.71393827345543,187.7028453969315 M-61.55249289443941,445.77222587527064 L-21.40170371241237,469.41691616852404 M-21.40170371241237,469.41691616852404 L-21.923023746039178,443.20054091724893 M-21.923023746039178,443.20054091724893 L32.05788445967403,474.8483619237241 M32.46082462634547,501.13641227127084 L32.05788445967403,474.8483619237241 M32.46082462634547,501.13641227127084 L277.3015722947605,645.3224611068867 M277.3015722947605,645.3224611068867 L277.45333278865826,618.7183241504335 M277.45333278865826,618.7183241504335 L334.76057614657407,652.3163024070107 M334.4753688383428,678.9919540285259 L334.76057614657407,652.3163024070107 M334.4753688383428,678.9919540285259 L500.10847210868224,776.5328370079999 M500.10847210868224,776.5328370079999 L503.1077198219251,658.0140240770177 M503.1077198219251,658.0140240770177 L527.9131674248741,672.3354559279494 M527.9131674248741,672.3354559279494 L531.2438848987986,551.1870462275618 M-89.25881150519456,200.2508197315286 L531.2438848987986,551.1870462275618 M-86.31024391056508,317.7134040508633 L-64.23544235409378,330.4582966717996 M-61.55249289443941,445.77222587527064 L-64.23544235409378,330.4582966717996 M551.2152731873633,658.0140126329907 L526.4133884938385,643.7604633215935 M523.1820384920829,762.1475276992276 L526.4133884938385,643.7604633215935 M523.1820384920829,762.1475276992276 L357.5651520306136,665.0600786427542 M357.5651520306136,665.0600786427542 L357.90312373811526,638.4139131574898 M357.90312373811526,638.4139131574898 L300.5986279817403,604.9707980407486 M300.39408413154683,631.5454216488481 L300.5986279817403,604.9707980407486 M300.39408413154683,631.5454216488481 L55.548365175770186,488.0126770494925 M55.548365175770186,488.0126770494925 L55.19817471949216,461.7541882473217 M55.19817471949216,461.7541882473217 L1.2125167162062098,430.24795908630404 M1.68111884074699,456.4347767151521 L1.2125167162062098,430.24795908630404 M1.68111884074699,456.4347767151521 L-38.47403767776336,432.8951377559776 M-38.47403767776336,432.8951377559776 L-40.92471482229831,317.7134015044618 M-40.92471482229831,317.7134015044618 L-63.00228010297246,305.0255082539205 M554.7826916785316,537.0060343351745 L-65.71393827345543,187.7028453969315 M551.2152731873633,658.0140126329907 L554.7826916785316,537.0060343351745 M-61.55249289443941,445.77222587527064 L-38.47403767776336,432.8951377559776 M-64.23544235409378,330.4582966717996 L-40.92471482229831,317.7134015044618 M1.68111884074699,456.4347767151521 L-21.40170371241237,469.41691616852404 M1.2125167162062098,430.24795908630404 L-21.923023746039178,443.20054091724893 M32.46082462634547,501.13641227127084 L55.548365175770186,488.0126770494925 M32.05788445967403,474.8483619237241 L55.19817471949216,461.7541882473217 M300.39408413154683,631.5454216488481 L277.3015722947605,645.3224611068867 M300.5986279817403,604.9707980407486 L277.45333278865826,618.7183241504335 M334.4753688383428,678.9919540285259 L357.5651520306136,665.0600786427542 M334.76057614657407,652.3163024070107 L357.90312373811526,638.4139131574898 M523.1820384920829,762.1475276992276 L500.10847210868224,776.5328370079999 M526.4133884938385,643.7604633215935 L503.1077198219251,658.0140240770177 M527.9131674248741,672.3354559279494 L551.2152731873633,658.0140126329907 M531.2438848987986,551.1870462275618 L554.7826916785316,537.0060343351745" stroke="black"  stroke-width="4"  fill="red"/></svg>