<svg viewBox="0 0 800 800" xmlns="http://www.w3.org/2000/svg"><path d="M-300.0718959231966,42.78054470768967 L-318.13591588098916,51.61969906830666 M-318.1359154743029,47.393290276926905 L-318.13591588098916,51.61969906830666 M-318.1359154743029,47.393290276926905 L-318.136017255344,47.35630635103354 M-318.136017255344,47.35630635103354 L-318.1360783257903,47.3192872449921 M-318.1360783257903,47.3192872449921 L-318.13609868314745,47.28226081671846 M-300.0311397344859,38.47444554393326 L-318.13609868314745,47.28226081671846 M-300.0718959231966,42.78054470768967 L-300.0311397344859,38.47444554393326 M1083.5218408626552,737.4839938631893 L1070.7813431759005,731.2497669848944 M1064.7605972196025,792.7492827685971 L1070.7813431759005,731.2497669848944 M1064.7605972196025,792.7492827685971 L425.8312766684735,465.9638378232179 M423.04361455846924,470.09307938554787 L425.8312766684735,465.9638378232179 M266.8801733366224,389.8398772867795 L423.04361455846924,470.09307938554787 M269.99157281829935,386.25839103153305 L266.8801733366224,389.8398772867795 M269.99157281829935,386.25839103153305 L-189.93384934784342,151.02590303957356 M-193.55750511622034,153.21856711553306 L-189.93384934784342,151.02590303957356 M-277.9797178100737,109.83355431141456 L-193.55750511622034,153.21856711553306 M-274.33387214828144,107.85884509261524 L-277.9797178100737,109.83355431141456 M-274.33387214828144,107.85884509261524 L-348.4569317314116,69.94802111338026 M-314.6455835851551,53.327601220001384 L-348.4569317314116,69.94802111338026 M-314.6455835851551,53.327601220001384 L-318.13591588098916,51.61969906830666 M1086.3683159049583,705.3524336633278 L-300.0718959231966,42.78054470768967 M1083.5218408626552,737.4839938631893 L1086.3683159049583,705.3524336633278 M-307.1266004891918,47.928181680871376 L-307.1756915010362,47.90955981968443 M-307.1756915010362,47.90955981968443 L-307.23242341839807,47.89716808844901 M-307.23242341839807,47.89716808844901 L-307.29349912370935,47.89172552610802 M-307.29349912370935,47.89172552610802 L-307.35537175029435,47.89354854463403 M-307.35537175029435,47.89354854463403 L-307.41444641066437,47.90253108469034 M-307.41444641066437,47.90253108469034 L-307.46729225482727,47.918151849171466 M-307.46729225482727,47.918151849171466 L-307.510838167787,47.939503469785336 M-307.510838167787,47.939503469785336 L-307.54255390459707,47.96534617436242 M-307.54255390459707,47.96534617436242 L-307.5605947965919,47.99417849049706 M-307.5605947965919,47.99417849049706 L-307.56391140616745,48.02432572098917 M-307.56391140616745,48.02432572098917 L-307.55230878582097,48.054035515909334 M-307.55230878582097,48.054035515909334 L-307.52646043274626,48.08158142012326 M-307.52646043274626,48.08158142012326 L-307.4878664201897,48.105361308412625 M-307.4878664201897,48.105361308412625 L-307.4387701315409,48.12399305300954 M-307.4387701315409,48.12399305300954 L-307.38202436132474,48.13639233822005 M-307.38202436132474,48.13639233822005 L-307.3209292263723,48.14183847936181 M-307.3209292263723,48.14183847936181 L-307.2590360440839,48.1400142443498 M-307.2590360440839,48.1400142443498 L-307.19994441128495,48.13102597133991 M-307.19994441128495,48.13102597133991 L-307.1470890659525,48.115396270648716 M-307.1470890659525,48.115396270648716 L-307.103543299801,48.09403455791954 M-307.103543299801,48.09403455791954 L-307.07183732414614,48.06818291719259 M-307.07183732414614,48.06818291719259 L-307.0538135713714,48.03934486812676 M-307.0538135713714,48.03934486812676 L-307.05051755289026,48.00919642117708 M-307.05051755289026,48.00919642117708 L-307.06213949875894,47.97949020496378 M-307.06213949875894,47.97949020496378 L-307.08800148491423,47.951951854853235 M-307.08800148491423,47.951951854853235 L-307.1266004891918,47.928181680871376 M1078.6760500018706,717.8629583714197 L1078.516778902544,717.7956715614655 M1078.516778902544,717.7956715614655 L1078.365200668929,717.7509587137839 M1078.365200668929,717.7509587137839 L1078.2298510199903,717.7312838589255 M1078.2298510199903,717.7312838589255 L1078.118870536329,717.7379266375037 M1078.118870536329,717.7379266375037 L1078.0383792776638,717.7703438533114 M1078.0383792776638,717.7703438533114 L1077.9931054438505,717.8266814634119 M1077.9931054438505,717.8266814634119 L1077.9858804829166,717.9037651036223 M1077.9858804829166,717.9037651036223 L1078.0171300579395,717.9971217680023 M1078.0171300579395,717.9971217680023 L1078.0848483091602,718.1012342043987 M1078.0848483091602,718.1012342043987 L1078.1850557218297,718.2100310124285 M1078.1850557218297,718.2100310124285 L1078.3122600510387,718.3173457393762 M1078.3122600510387,718.3173457393762 L1078.4587895662687,718.4168043685431 M1078.4587895662687,718.4168043685431 L1078.6163936946614,718.5027485596765 M1078.6163936946614,718.5027485596765 L1078.7755876061722,718.5700245306685 M1078.7755876061722,718.5700245306685 L1078.9272666186685,718.6147891888289 M1078.9272666186685,718.6147891888289 L1079.0627105401916,718.6344886359943 M1079.0627105401916,718.6344886359943 L1079.1739185438933,718.6279155802832 M1079.1739185438933,718.6279155802832 L1079.2542709704223,718.5953808916223 M1079.2542709704223,718.5953808916223 L1079.2995191442365,718.538982021813 M1079.2995191442365,718.538982021813 L1079.3066757207976,718.4618291256878 M1079.3066757207976,718.4618291256878 L1079.2753307354665,718.368411107696 M1079.2753307354665,718.368411107696 L1079.2076736096492,718.2643374470691 M1079.2076736096492,718.2643374470691 L1079.1072221607626,718.1554541894853 M1079.1072221607626,718.1554541894853 L1078.9799720912645,718.0481640210544 M1078.9799720912645,718.0481640210544 L1078.8334441241493,717.9487572125435 M1078.8334441241493,717.9487572125435 L1078.6760500018706,717.8629583714197 M-314.6378003447942,49.095329381254885 L-318.1359154743029,47.393290276926905 M-314.6378003447942,49.095329381254885 L-314.6455835851551,53.327601220001384 M-314.637778929301,48.984145601124 L-314.6378267739535,49.021223558980466 M-314.6378267739535,49.021223558980466 L-314.6378339287187,49.05829411792638 M-314.6378339287187,49.05829411792638 L-314.6378003447942,49.095329381254885 M-318.13609868314745,47.28226081671846 L-314.637778929301,48.984145601124 M1076.8463793196145,725.9221853733542 L1089.6693594338365,732.1603900780942 M1089.6693594338365,732.1603900780942 L1092.3897163662148,700.0105604398177 M1092.3897163662148,700.0105604398177 L-300.0311397344859,38.47444554393326 M-314.637778929301,48.984145601124 L-348.52786131264634,65.54684067113828 M-348.52786131264634,65.54684067113828 L-274.2263241113202,103.33248920924495 M-274.2263241113202,103.33248920924495 L-277.8808787731166,105.30091791541236 M-277.8808787731166,105.30091791541236 L-193.23432994885763,148.5539353687256 M-193.23432994885763,148.5539353687256 L-189.60213440321763,146.36766735728668 M-189.60213440321763,146.36766735728668 L271.93712381116745,381.0809835861728 M271.93712381116745,381.0809835861728 L268.8218548585878,384.6571729310838 M268.8218548585878,384.6571729310838 L425.68600186580693,464.8122150744897 M425.68600186580693,464.8122150744897 L428.4741800490772,460.687064603968 M428.4741800490772,460.687064603968 L1071.060692823417,787.4709918493575 M1076.8463793196145,725.9221853733542 L1071.060692823417,787.4709918493575 M-306.8301402820093,43.47136430516463 L-306.7334135892809,43.53056084007699 M-306.7334135892809,43.53056084007699 L-306.6685831284442,43.59914773057574 M-306.6685831284442,43.59914773057574 L-306.63942359526163,43.67314308390456 M-306.63942359526163,43.67314308390456 L-306.647640939922,43.748248575509535 M-306.647640939922,43.748248575509535 L-306.692768144483,43.82009872438107 M-306.692768144483,43.82009872438107 L-306.7721918426489,43.88451482600709 M-306.7721918426489,43.88451482600709 L-306.88130156527075,43.93774842926962 M-306.88130156527075,43.93774842926962 L-307.01375620229055,43.97670033653651 M-307.01375620229055,43.97670033653651 L-307.1618527630227,43.99910207956998 M-307.1618527630227,43.99910207956998 L-307.3169753425095,44.003648715561326 M-307.3169753425095,44.003648715561326 L-307.4700977877761,43.99007511423821 M-307.4700977877761,43.99007511423821 L-307.61231094926666,43.959172490436174 M-307.61231094926666,43.959172490436174 L-307.7353426777122,43.91274067141643 M-307.7353426777122,43.91274067141643 L-307.83203895291877,43.85348305655151 M-307.83203895291877,43.85348305655151 L-307.8967839968549,43.784848929820726 M-307.8967839968549,43.784848929820726 L-307.9258220213594,43.71083132259167 M-307.9258220213594,43.71083132259167 L-307.9174754847535,43.635733382035596 M-307.9174754847535,43.635733382035596 L-307.8722406712882,43.56391901809684 M-307.8722406712882,43.56391901809684 L-307.7927556866756,43.499558695372684 M-307.7927556866756,43.499558695372684 L-307.68364504022463,43.44638808670766 M-307.68364504022463,43.44638808670766 L-307.5512500536397,43.40749195834104 M-307.5512500536397,43.40749195834104 L-307.4032600522447,43.38512600028088 M-307.4032600522447,43.38512600028088 L-307.2482664420178,43.380586999528816 M-307.2482664420178,43.380586999528816 L-307.09526616062885,43.39413817822356 M-307.09526616062885,43.39413817822356 L-306.9531397990095,43.424993734131704 M-306.9531397990095,43.424993734131704 L-306.8301402820093,43.47136430516463 M1084.7609923557113,712.0475995145244 L1085.1570078545114,712.2620870709856 M1085.1570078545114,712.2620870709856 L1085.5260569651568,712.5106778922404 M1085.5260569651568,712.5106778922404 L1085.8467145565528,712.7789629117838 M1085.8467145565528,712.7789629117838 L1086.100173044873,713.0512937348474 M1086.100173044873,713.0512937348474 L1086.2716800841474,713.3118492924507 M1086.2716800841474,713.3118492924507 L1086.3513213604788,713.5455176120079 M1086.3513213604788,713.5455176120079 L1086.3343105597983,713.7386347285186 M1086.3343105597983,713.7386347285186 L1086.2215992002516,713.8799399038994 M1086.2215992002516,713.8799399038994 L1086.019829883159,713.9612391262802 M1086.019829883159,713.9612391262802 L1085.7406335299145,713.9777348961051 M1085.7406335299145,713.9777348961051 L1085.4002494814074,713.9284529574837 M1085.4002494814074,713.9284529574837 L1085.0186581244498,713.8163426517525 M1085.0186581244498,713.8163426517525 L1084.618069069061,713.6479368028541 M1084.618069069061,713.6479368028541 L1084.2215835780657,713.432948836804 M1084.2215835780657,713.432948836804 L1083.8525232454037,713.1840324836568 M1083.8525232454037,713.1840324836568 L1083.5321532691205,712.9155932193004 M1083.5321532691205,712.9155932193004 L1083.2792153172609,712.6433148280632 M1083.2792153172609,712.6433148280632 L1083.1083424288904,712.3830063178743 M1083.1083424288904,712.3830063178743 L1083.0293038173797,712.1497231300331 M1083.0293038173797,712.1497231300331 L1083.0467475604662,711.9570409380273 M1083.0467475604662,711.9570409380273 L1083.1596229301936,711.8161208160217 M1083.1596229301936,711.8161208160217 L1083.361250003569,711.7350687057398 M1083.361250003569,711.7350687057398 L1083.6400301923798,711.7186253542758 M1083.6400301923798,711.7186253542758 L1083.9798194669013,711.7677529727174 M1083.9798194669013,711.7677529727174 L1084.360773984894,711.8795377821459 M1084.360773984894,711.8795377821459 L1084.7609923557113,712.0475995145244 M1086.3683159049583,705.3524336633278 L1092.3897163662148,700.0105604398177 M1089.5115777677197,732.2967282446025 L1076.6907206421072,726.0586259035111 M1089.5115777677197,732.2967282446025 L1083.5218408626552,737.4839938631893 M1076.6907206421072,726.0586259035111 L1070.7813431759005,731.2497669848944 M1076.6907206421072,726.0586259035111 L1076.7425896792302,726.0132272830361 M1076.7425896792302,726.0132272830361 L1076.7944889171933,725.9677356782507 M1076.7944889171933,725.9677356782507 L1076.8463793196145,725.9221853733542 M1064.7605972196025,792.7492827685971 L1071.060692823417,787.4709918493575 M425.8312766684735,465.9638378232179 L428.4741800490772,460.687064603968 M423.04361455846924,470.09307938554787 L425.68600186580693,464.8122150744897 M266.8801733366224,389.8398772867795 L268.8218548585878,384.6571729310838 M269.99157281829935,386.25839103153305 L271.93712381116745,381.0809835861728 M-189.93384934784342,151.02590303957356 L-189.60213440321763,146.36766735728668 M-193.55750511622034,153.21856711553306 L-193.23432994885763,148.5539353687256 M-277.9797178100737,109.83355431141456 L-277.8808787731166,105.30091791541236 M-274.33387214828144,107.85884509261524 L-274.2263241113202,103.33248920924495 M-348.4569317314116,69.94802111338026 L-348.52786131264634,65.54684067113828 M1089.6693594338365,732.1603900780942 L1089.6167620132856,732.2059069151525 M1089.6167620132856,732.2059069151525 L1089.5641549352165,732.2513643903785 M1089.5641549352165,732.2513643903785 L1089.5115777677197,732.2967282446025 M-307.1266004891918,47.928181680871376 L-307.10421900735764,44.058656727548794 M-307.10421900735764,44.058656727548794 L-307.0655408154903,44.08235140147451 M-307.0655408154903,44.08235140147451 L-307.03962541757824,44.10980228669979 M-307.03962541757824,44.10980228669979 L-307.0279789422883,44.1394141572718 M-307.0279789422883,44.1394141572718 L-307.0312807476655,44.16946685898779 M-307.0312807476655,44.16946685898779 L-307.0493402736312,44.198213329003806 M-307.0493402736312,44.198213329003806 L-307.0811099367447,44.22398287826587 M-307.0811099367447,44.22398287826587 L-307.12474360548845,44.24527675996944 M-307.12474360548845,44.24527675996944 L-307.17770596105083,44.260856832383354 M-307.17770596105083,44.260856832383354 L-307.2369174879359,44.26981656594148 M-307.2369174879359,44.26981656594148 L-307.2989364762957,44.271635008719045 M-307.2989364762957,44.271635008719045 L-307.3601560090749,44.26620615998968 M-307.3601560090749,44.26620615998968 L-307.41701753451275,44.25384624519393 M-307.41701753451275,44.25384624519393 L-307.4662142014963,44.23527366199346 M-307.4662142014963,44.23527366199346 L-307.5048873819685,44.211569284752045 M-307.5048873819685,44.211569284752045 L-307.53078909153123,44.18411085410395 M-307.53078909153123,44.18411085410395 L-307.54241616274146,44.15449540893735 M-307.54241616274146,44.15449540893735 L-307.5390936824183,44.12444392228116 M-307.5390936824183,44.12444392228116 L-307.52101694729754,44.09570317860846 M-307.52101694729754,44.09570317860846 L-307.48923748303105,44.0699425552275 M-307.48923748303105,44.0699425552275 L-307.44560366658175,44.048658754042094 M-307.44560366658175,44.048658754042094 L-307.3926508505979,44.03308760756943 M-307.3926508505979,44.03308760756943 L-307.3334563650569,44.02413360037701 M-307.3334563650569,44.02413360037701 L-307.2714580160357,44.02231637268767 M-307.2714580160357,44.02231637268767 L-307.2102579920919,44.02774164672866 M-307.2102579920919,44.02774164672866 L-307.1534103761204,44.04009401622977 M-307.1534103761204,44.04009401622977 L-307.10421900735764,44.058656727548794 M1078.6760500018706,717.8629583714197 L1084.0813531518043,713.0896593261295 M1084.0813531518043,713.0896593261295 L1084.2396855772213,713.1754995055729 M1084.2396855772213,713.1754995055729 L1084.3871620896591,713.274954259192 M1084.3871620896591,713.274954259192 L1084.51531642524,713.3822962356802 M1084.51531642524,713.3822962356802 L1084.6165745969395,713.4912321350242 M1084.6165745969395,713.4912321350242 L1084.6848930930262,713.5953561727898 M1084.6848930930262,713.5953561727898 L1084.7167180061651,713.6888194605333 M1084.7167180061651,713.6888194605333 L1084.7098298755623,713.7660097804666 M1084.7098298755623,713.7660097804666 L1084.664622999408,713.8224360277486 M1084.664622999408,713.8224360277486 L1084.5840843414765,713.8549865175116 M1084.5840843414765,713.8549865175116 L1084.4724709842355,713.8615627662584 M1084.4724709842355,713.8615627662584 L1084.3364270462414,713.8418537502737 M1084.3364270462414,713.8418537502737 L1084.183988996743,713.7970673560054 M1084.183988996743,713.7970673560054 L1084.0239206236083,713.7297587388566 M1084.0239206236083,713.7297587388566 L1083.865376632144,713.6437728787253 M1083.865376632144,713.6437728787253 L1083.7178983599938,713.5442660787293 M1083.7178983599938,713.5442660787293 L1083.5897900248858,713.436899436752 M1083.5897900248858,713.436899436752 L1083.4887774864233,713.3280500610808 M1083.4887774864233,713.3280500610808 L1083.4203978702276,713.2238873810849 M1083.4203978702276,713.2238873810849 L1083.3886693437278,713.130485714198 M1083.3886693437278,713.130485714198 L1083.3956266558514,713.0533649518454 M1083.3956266558514,713.0533649518454 L1083.4408596269745,712.9970002311079 M1083.4408596269745,712.9970002311079 L1083.5215380175646,712.964567423449 M1083.5215380175646,712.964567423449 L1083.6329224502706,712.9579214505744 M1083.6329224502706,712.9579214505744 L1083.768871289763,712.9776057671328 M1083.768871289763,712.9776057671328 L1083.9212075791663,713.0223401252456 M1083.9212075791663,713.0223401252456 L1084.0813531518043,713.0896593261295 M-306.8301402820093,43.47136430516463 L-306.83283589134817,43.92624929566654 M-306.83283589134817,43.92624929566654 L-306.7361324780301,43.98546810184604 M-306.7361324780301,43.98546810184604 L-306.67131772894913,44.05408079368124 M-306.67131772894913,44.05408079368124 L-306.6421654233658,44.12810397952609 M-306.6421654233658,44.12810397952609 L-306.6503810862672,44.20323771760303 M-306.6503810862672,44.20323771760303 L-306.69549779229624,44.27511488523891 M-306.69549779229624,44.27511488523891 L-306.7749027808769,44.33955520727608 M-306.7749027808769,44.33955520727608 L-306.8839866676476,44.39280882431888 M-306.8839866676476,44.39280882431888 L-307.01640984400683,44.431775374842005 M-307.01640984400683,44.431775374842005 L-307.1644711500901,44.45418553895746 M-307.1644711500901,44.45418553895746 L-307.3195567341386,44.458733884043966 M-307.3195567341386,44.458733884043966 L-307.47264259847145,44.44515518032085 M-307.47264259847145,44.44515518032085 L-307.614821724422,44.41424093959006 M-307.614821724422,44.41424093959006 L-307.73782394425643,44.367791664741446 M-307.73782394425643,44.367791664741446 L-307.83449695430477,44.308511770229984 M-307.83449695430477,44.308511770229984 L-307.89922632709977,44.23985183564673 M-307.89922632709977,44.23985183564673 L-307.928257181837,44.16580639286144 M-307.928257181837,44.16580639286144 L-307.9199123886531,44.09068020686175 M-307.9199123886531,44.09068020686175 L-307.87468812516715,44.0188388290797 M-307.87468812516715,44.0188388290797 L-307.79522187956445,43.954454293615015 M-307.79522187956445,43.954454293615015 L-307.6861370696254,43.90126367983254 M-307.6861370696254,43.90126367983254 L-307.55377351544666,43.86235291588042 M-307.55377351544666,43.86235291588042 L-307.40581871800407,43.83997854165932 M-307.40581871800407,43.83997854165932 L-307.25086204171157,43.83543783287212 M-307.25086204171157,43.83543783287212 L-307.09789828295584,43.84899411086326 M-307.09789828295584,43.84899411086326 L-306.95580591527244,43.879861277247585 M-306.95580591527244,43.879861277247585 L-306.83283589134817,43.92624929566654 M1084.7609923557113,712.0475995145244 L1084.1243933423361,712.6099659964246 M1084.1243933423361,712.6099659964246 L1084.520132210669,712.8244418109554 M1084.520132210669,712.8244418109554 L1084.888901460941,713.0730189862408 M1084.888901460941,713.0730189862408 L1085.2092921984818,713.3412892340612 M1085.2092921984818,713.3412892340612 L1085.462512462876,713.6136050152097 M1085.462512462876,713.6136050152097 L1085.6338237805116,713.8741461365615 M1085.6338237805116,713.8741461365615 L1085.713323198795,714.1078014723674 M1085.713323198795,714.1078014723674 L1085.6962327810268,714.3009078317971 M1085.6962327810268,714.3009078317971 L1085.5835087230487,714.4422051209208 M1085.5835087230487,714.4422051209208 L1085.3817943204574,714.5234998001529 M1085.3817943204574,714.5234998001529 L1085.102717373806,714.5399946476442 M1085.102717373806,714.5399946476442 L1084.7625102692452,714.4907154640197 M1084.7625102692452,714.4907154640197 L1084.3811429583957,714.3786114197354 M1084.3811429583957,714.3786114197354 L1083.9808119829997,714.2102149612148 M1083.9808119829997,714.2102149612148 L1083.5846037013664,713.9952389564253 M1083.5846037013664,713.9952389564253 L1083.2158233862613,713.7463364150075 M1083.2158233862613,713.7463364150075 L1082.8957200723692,713.4779120009154 M1082.8957200723692,713.4779120009154 L1082.643019848186,713.2056486248952 M1082.643019848186,713.2056486248952 L1082.4723419941802,712.9453544251618 M1082.4723419941802,712.9453544251618 L1082.393444519676,712.7120840249635 M1082.393444519676,712.7120840249635 L1082.4109672904085,712.5194123685766 M1082.4109672904085,712.5194123685766 L1082.5238550357965,712.3784999367593 M1082.5238550357965,712.3784999367593 L1082.7254272122236,712.297452243797 M1082.7254272122236,712.297452243797 L1083.0040883485906,712.2810097879753 M1083.0040883485906,712.2810097879753 L1083.3437012888198,712.3301347299999 M1083.3437012888198,712.3301347299999 L1083.7244324858436,712.4419134437231 M1083.7244324858436,712.4419134437231 L1084.1243933423361,712.6099659964246" stroke="black"  stroke-width="4"  fill="red"/>
<path d="M1083.5218408626552,737.4839938631893 L1077.4184965195361,806.3797239387707 M1083.5218408626552,737.4839938631893 L1070.7813431759005,731.2497669848944 M1064.0964338050528,799.5334468393881 L1070.7813431759005,731.2497669848944 M1077.4184965195361,806.3797239387707 L1064.0964338050528,799.5334468393881 M1089.5115777677197,732.2967282446025 L1083.5218408626552,737.4839938631893 M1122.6619842227356,688.3073518529438 L1121.2049943761135,691.1983609203666 M1121.2049943761135,691.1983609203666 L1119.6546439037147,694.100572033784 M1119.6546439037147,694.100572033784 L1118.0163271875313,697.0037927538446 M1118.0163271875313,697.0037927538446 L1116.2957979896132,699.8978074491697 M1116.2957979896132,699.8978074491697 L1114.4991380481172,702.7724276054267 M1114.4991380481172,702.7724276054267 L1112.6327040484243,705.617563381637 M1112.6327040484243,705.617563381637 L1110.7031150234375,708.4232516925584 M1110.7031150234375,708.4232516925584 L1108.7171980341911,711.1797243205281 M1108.7171980341911,711.1797243205281 L1106.6820149282298,713.8773977170604 M1106.6820149282298,713.8773977170604 L1104.6048071717607,716.5069359180644 M1104.6048071717607,716.5069359180644 L1102.4928604926308,719.0593796783381 M1102.4928604926308,719.0593796783381 L1100.353672366757,721.5260074621425 M1100.353672366757,721.5260074621425 L1098.1947164487349,723.8985471190911 M1098.1947164487349,723.8985471190911 L1096.0235101182361,726.1691206121653 M1096.0235101182361,726.1691206121653 L1093.8476215799765,728.3302384591259 M1093.8476215799765,728.3302384591259 L1091.6744986102772,730.3749466508657 M1091.6744986102772,730.3749466508657 L1089.5115777677197,732.2967282446025 M1122.8731349100274,687.8743332111818 L1122.8387969841945,687.8869265105475 M1122.8387969841945,687.8869265105475 L1122.800307925125,687.9113802208905 M1122.800307925125,687.9113802208905 L1122.7599439112767,687.9462395677208 M1122.7599439112767,687.9462395677208 L1122.7199945341417,687.9895240958336 M1122.7199945341417,687.9895240958336 L1122.682844244037,688.0386657548139 M1122.682844244037,688.0386657548139 L1122.6506031119368,688.0908501576165 M1122.6506031119368,688.0908501576165 L1122.6251439541572,688.1430454915334 M1122.6251439541572,688.1430454915334 L1122.6079742803568,688.1921970214634 M1122.6079742803568,688.1921970214634 L1122.6000665078134,688.2354685347827 M1122.6000665078134,688.2354685347827 L1122.6019108529867,688.2703221826023 M1122.6019108529867,688.2703221826023 L1122.6133643734959,688.2947631585445 M1122.6133643734959,688.2947631585445 L1122.6337853636137,688.3073493947627 M1122.6337853636137,688.3073493947627 L1122.6619842227356,688.3073518529438 M1156.5935366343635,643.0522713268047 L1154.2969658987618,645.1458242611842 M1154.2969658987618,645.1458242611842 L1152.0094125725573,647.3431974376907 M1152.0094125725573,647.3431974376907 L1149.7372674888454,649.6377679143318 M1149.7372674888454,649.6377679143318 L1147.486914271324,652.0226458254805 M1147.486914271324,652.0226458254805 L1145.2646134745314,654.4907887883563 M1145.2646134745314,654.4907887883563 L1143.0764730442872,657.0350224423297 M1143.0764730442872,657.0350224423297 L1140.9285011435904,659.6480145569609 M1140.9285011435904,659.6480145569609 L1138.8265765155334,662.3222980566599 M1138.8265765155334,662.3222980566599 L1136.7764390009688,665.0502934761213 M1136.7764390009688,665.0502934761213 L1134.7836597359171,667.8243413159403 M1134.7836597359171,667.8243413159403 L1132.8536526664377,670.6366967203279 M1132.8536526664377,670.6366967203279 L1130.991664998517,673.4795417163056 M1130.991664998517,673.4795417163056 L1129.202766573887,676.3450088693247 M1129.202766573887,676.3450088693247 L1127.491859950492,679.2251741798427 M1127.491859950492,679.2251741798427 L1125.86366875461,682.1120763143209 M1125.86366875461,682.1120763143209 L1124.3226440292867,684.9977976837582 M1124.3226440292867,684.9977976837582 L1122.8731349100274,687.8743332111818 M1152.7744257189295,737.8657540757139 L1156.5935366343635,643.0522713268047 M1114.4252874712697,769.5034996587987 L1152.7744257189295,737.8657540757139 M1113.9738557159087,776.3880578991169 L1114.4252874712697,769.5034996587987 M1077.4184965195361,806.3797239387707 L1113.9738557159087,776.3880578991169 M1089.5115777677197,732.2967282446025 L1076.6907206421072,726.0586259035111 M1076.6907206421072,726.0586259035111 L1070.7813431759005,731.2497669848944 M1064.0964338050528,799.5334468393881 L1100.1335856263283,769.5034831928227 M1100.647312346025,762.6829894160891 L1100.1335856263283,769.5034831928227 M1100.647312346025,762.6829894160891 L1138.4461978957472,731.0146581873258 M1143.1912200252848,637.0751443078822 L1138.4461978957472,731.0146581873258 M1143.1912200252848,637.0751443078822 L1140.9250588675723,639.1683675399496 M1140.9250588675723,639.1683675399496 L1138.666567354157,641.3644051375979 M1138.666567354157,641.3644051375979 L1136.4220634590063,643.656641380014 M1136.4220634590063,643.656641380014 L1134.1978612218572,646.0381955905376 M1134.1978612218572,646.0381955905376 L1132.0001562800765,648.5020364723584 M1132.0001562800765,648.5020364723584 L1129.8349967366617,651.0410027371672 M1129.8349967366617,651.0410027371672 L1127.7083350017674,653.6477770494347 M1127.7083350017674,653.6477770494347 L1125.6259985400336,656.3149091259177 M1125.6259985400336,656.3149091259177 L1123.593680316687,659.0348381077201 M1123.593680316687,659.0348381077201 L1121.616909282929,661.7999249153634 M1121.616909282929,661.7999249153634 L1119.7010616363418,664.6024469316691 M1119.7010616363418,664.6024469316691 L1117.85135131257,667.434610262633 M1117.85135131257,667.434610262633 L1116.0728193078667,670.2885733200918 M1116.0728193078667,670.2885733200918 L1114.3703435631915,673.1564397574878 M1114.3703435631915,673.1564397574878 L1112.748627338426,676.0302776800005 M1112.748627338426,676.0302776800005 L1111.2121067968947,678.9022008251699 M1111.2121067968947,678.9022008251699 L1109.7651191517207,681.7642371625261 M1109.554187930283,682.1950122238887 L1109.526630718873,682.1952509435579 M1109.526630718873,682.1952509435579 L1109.5068076356424,682.1829570439633 M1109.5068076356424,682.1829570439633 L1109.4958734995394,682.1588425667197 M1109.4958734995394,682.1588425667197 L1109.4944401517212,682.1243306030607 M1109.4944401517212,682.1243306030607 L1109.5026261649982,682.0813960826978 M1109.5026261649982,682.0813960826978 L1109.5199256077285,682.032557318077 M1109.5199256077285,682.032557318077 L1109.5453581572224,681.9806323220347 M1109.5453581572224,681.9806323220347 L1109.577418257034,681.9286601640392 M1109.577418257034,681.9286601640392 L1109.6142435967847,681.8796603292806 M1109.6142435967847,681.8796603292806 L1109.6537423112507,681.8364389373102 M1109.6537423112507,681.8364389373102 L1109.6935570079352,681.8015604173282 M1109.6935570079352,681.8015604173282 L1109.7314292185513,681.7770062825962 M1109.7314292185513,681.7770062825962 L1109.7651191517207,681.7642371625261 M1076.6907206421072,726.0586259035111 L1078.8250790172783,724.135952411032 M1078.8250790172783,724.135952411032 L1080.9706706913223,722.0914505371902 M1080.9706706913223,722.0914505371902 L1083.1201607103371,719.9316408692022 M1083.1201607103371,719.9316408692022 L1085.26619894569,717.6634764034052 M1085.26619894569,717.6634764034052 L1087.4013122713454,715.2944409868542 M1087.4013122713454,715.2944409868542 L1089.5180734466392,712.8324023000505 M1089.5180734466392,712.8324023000505 L1091.6090940630643,710.2856174533805 M1091.6090940630643,710.2856174533805 L1093.666957888684,707.6627883617265 M1093.666957888684,707.6627883617265 L1095.6844532744922,704.9728500561424 M1095.6844532744922,704.9728500561424 L1097.6544079337705,702.2251098961821 M1097.6544079337705,702.2251098961821 L1099.5698225317935,699.429118535535 M1099.5698225317935,699.429118535535 L1101.423925202406,696.5946071909236 M1101.423925202406,696.5946071909236 L1103.2101452272427,693.7314980515374 M1103.2101452272427,693.7314980515374 L1104.9221667822105,690.8498364170778 M1104.9221667822105,690.8498364170778 L1106.5539414917032,687.9597628530745 M1106.5539414917032,687.9597628530745 L1108.0997409568445,685.0714419343769 M1108.0997409568445,685.0714419343769 L1109.554187930283,682.1950122238887 M1100.1335856263283,769.5034831928227 L1113.9738557159087,776.3880578991169 M1122.6619842227356,688.3073518529438 L1109.554187930283,682.1950122238887 M1122.8731349100274,687.8743332111818 L1109.7651191517207,681.7642371625261 M1156.5935366343635,643.0522713268047 L1143.1912200252848,637.0751443078822 M1152.7744257189295,737.8657540757139 L1138.4461978957472,731.0146581873258 M1114.4252874712697,769.5034996587987 L1100.647312346025,762.6829894160891" stroke="black"  stroke-width="4"  fill="red"/>
<path d="M1078.6760500018706,717.8629583714197 L1084.0813531518043,713.0896593261295 M1084.0813531518043,713.0896593261295 L1084.2396855772213,713.1754995055729 M1084.2396855772213,713.1754995055729 L1084.3871620896591,713.274954259192 M1084.3871620896591,713.274954259192 L1084.51531642524,713.3822962356802 M1084.51531642524,713.3822962356802 L1084.6165745969395,713.4912321350242 M1084.6165745969395,713.4912321350242 L1084.6848930930262,713.5953561727898 M1084.6848930930262,713.5953561727898 L1084.7167180061651,713.6888194605333 M1084.7167180061651,713.6888194605333 L1084.7098298755623,713.7660097804666 M1084.7098298755623,713.7660097804666 L1084.664622999408,713.8224360277486 M1084.664622999408,713.8224360277486 L1084.5840843414765,713.8549865175116 M1084.5840843414765,713.8549865175116 L1084.4724709842355,713.8615627662584 M1084.4724709842355,713.8615627662584 L1084.3364270462414,713.8418537502737 M1084.3364270462414,713.8418537502737 L1084.183988996743,713.7970673560054 M1084.183988996743,713.7970673560054 L1084.0239206236083,713.7297587388566 M1084.0239206236083,713.7297587388566 L1083.865376632144,713.6437728787253 M1083.865376632144,713.6437728787253 L1083.7178983599938,713.5442660787293 M1083.7178983599938,713.5442660787293 L1083.5897900248858,713.436899436752 M1083.5897900248858,713.436899436752 L1083.4887774864233,713.3280500610808 M1083.4887774864233,713.3280500610808 L1083.4203978702276,713.2238873810849 M1083.4203978702276,713.2238873810849 L1083.3886693437278,713.130485714198 M1083.3886693437278,713.130485714198 L1083.3956266558514,713.0533649518454 M1083.3956266558514,713.0533649518454 L1083.4408596269745,712.9970002311079 M1083.4408596269745,712.9970002311079 L1083.5215380175646,712.964567423449 M1083.5215380175646,712.964567423449 L1083.6329224502706,712.9579214505744 M1083.6329224502706,712.9579214505744 L1083.768871289763,712.9776057671328 M1083.768871289763,712.9776057671328 L1083.9212075791663,713.0223401252456 M1083.9212075791663,713.0223401252456 L1084.0813531518043,713.0896593261295 M1078.6760500018706,717.8629583714197 L1078.516778902544,717.7956715614655 M1078.516778902544,717.7956715614655 L1078.365200668929,717.7509587137839 M1078.365200668929,717.7509587137839 L1078.2298510199903,717.7312838589255 M1078.2298510199903,717.7312838589255 L1078.118870536329,717.7379266375037 M1078.118870536329,717.7379266375037 L1078.0383792776638,717.7703438533114 M1078.0383792776638,717.7703438533114 L1077.9931054438505,717.8266814634119 M1077.9931054438505,717.8266814634119 L1077.9858804829166,717.9037651036223 M1077.9858804829166,717.9037651036223 L1078.0171300579395,717.9971217680023 M1078.0171300579395,717.9971217680023 L1078.0848483091602,718.1012342043987 M1078.0848483091602,718.1012342043987 L1078.1850557218297,718.2100310124285 M1078.1850557218297,718.2100310124285 L1078.3122600510387,718.3173457393762 M1078.3122600510387,718.3173457393762 L1078.4587895662687,718.4168043685431 M1078.4587895662687,718.4168043685431 L1078.6163936946614,718.5027485596765 M1078.6163936946614,718.5027485596765 L1078.7755876061722,718.5700245306685 M1078.7755876061722,718.5700245306685 L1078.9272666186685,718.6147891888289 M1078.9272666186685,718.6147891888289 L1079.0627105401916,718.6344886359943 M1079.0627105401916,718.6344886359943 L1079.1739185438933,718.6279155802832 M1079.1739185438933,718.6279155802832 L1079.2542709704223,718.5953808916223 M1079.2542709704223,718.5953808916223 L1079.2995191442365,718.538982021813 M1079.2995191442365,718.538982021813 L1079.3066757207976,718.4618291256878 M1079.3066757207976,718.4618291256878 L1079.2753307354665,718.368411107696 M1079.2753307354665,718.368411107696 L1079.2076736096492,718.2643374470691 M1079.2076736096492,718.2643374470691 L1079.1072221607626,718.1554541894853 M1079.1072221607626,718.1554541894853 L1078.9799720912645,718.0481640210544 M1078.9799720912645,718.0481640210544 L1078.8334441241493,717.9487572125435 M1078.8334441241493,717.9487572125435 L1078.6760500018706,717.8629583714197 M1084.1243933423361,712.6099659964246 L1084.520132210669,712.8244418109554 M1084.520132210669,712.8244418109554 L1084.888901460941,713.0730189862408 M1084.888901460941,713.0730189862408 L1085.2092921984818,713.3412892340612 M1085.2092921984818,713.3412892340612 L1085.462512462876,713.6136050152097 M1085.462512462876,713.6136050152097 L1085.6338237805116,713.8741461365615 M1085.6338237805116,713.8741461365615 L1085.713323198795,714.1078014723674 M1085.713323198795,714.1078014723674 L1085.6962327810268,714.3009078317971 M1085.6962327810268,714.3009078317971 L1085.5835087230487,714.4422051209208 M1085.5835087230487,714.4422051209208 L1085.3817943204574,714.5234998001529 M1085.3817943204574,714.5234998001529 L1085.102717373806,714.5399946476442 M1085.102717373806,714.5399946476442 L1084.7625102692452,714.4907154640197 M1084.7625102692452,714.4907154640197 L1084.3811429583957,714.3786114197354 M1084.3811429583957,714.3786114197354 L1083.9808119829997,714.2102149612148 M1083.9808119829997,714.2102149612148 L1083.5846037013664,713.9952389564253 M1083.5846037013664,713.9952389564253 L1083.2158233862613,713.7463364150075 M1083.2158233862613,713.7463364150075 L1082.8957200723692,713.4779120009154 M1082.8957200723692,713.4779120009154 L1082.643019848186,713.2056486248952 M1082.643019848186,713.2056486248952 L1082.4723419941802,712.9453544251618 M1082.4723419941802,712.9453544251618 L1082.393444519676,712.7120840249635 M1082.393444519676,712.7120840249635 L1082.4109672904085,712.5194123685766 M1082.4109672904085,712.5194123685766 L1082.5238550357965,712.3784999367593 M1082.5238550357965,712.3784999367593 L1082.7254272122236,712.297452243797 M1082.7254272122236,712.297452243797 L1083.0040883485906,712.2810097879753 M1083.0040883485906,712.2810097879753 L1083.3437012888198,712.3301347299999 M1083.3437012888198,712.3301347299999 L1083.7244324858436,712.4419134437231 M1083.7244324858436,712.4419134437231 L1084.1243933423361,712.6099659964246 M1084.7609923557113,712.0475995145244 L1085.1570078545114,712.2620870709856 M1085.1570078545114,712.2620870709856 L1085.5260569651568,712.5106778922404 M1085.5260569651568,712.5106778922404 L1085.8467145565528,712.7789629117838 M1085.8467145565528,712.7789629117838 L1086.100173044873,713.0512937348474 M1086.100173044873,713.0512937348474 L1086.2716800841474,713.3118492924507 M1086.2716800841474,713.3118492924507 L1086.3513213604788,713.5455176120079 M1086.3513213604788,713.5455176120079 L1086.3343105597983,713.7386347285186 M1086.3343105597983,713.7386347285186 L1086.2215992002516,713.8799399038994 M1086.2215992002516,713.8799399038994 L1086.019829883159,713.9612391262802 M1086.019829883159,713.9612391262802 L1085.7406335299145,713.9777348961051 M1085.7406335299145,713.9777348961051 L1085.4002494814074,713.9284529574837 M1085.4002494814074,713.9284529574837 L1085.0186581244498,713.8163426517525 M1085.0186581244498,713.8163426517525 L1084.618069069061,713.6479368028541 M1084.618069069061,713.6479368028541 L1084.2215835780657,713.432948836804 M1084.2215835780657,713.432948836804 L1083.8525232454037,713.1840324836568 M1083.8525232454037,713.1840324836568 L1083.5321532691205,712.9155932193004 M1083.5321532691205,712.9155932193004 L1083.2792153172609,712.6433148280632 M1083.2792153172609,712.6433148280632 L1083.1083424288904,712.3830063178743 M1083.1083424288904,712.3830063178743 L1083.0293038173797,712.1497231300331 M1083.0293038173797,712.1497231300331 L1083.0467475604662,711.9570409380273 M1083.0467475604662,711.9570409380273 L1083.1596229301936,711.8161208160217 M1083.1596229301936,711.8161208160217 L1083.361250003569,711.7350687057398 M1083.361250003569,711.7350687057398 L1083.6400301923798,711.7186253542758 M1083.6400301923798,711.7186253542758 L1083.9798194669013,711.7677529727174 M1083.9798194669013,711.7677529727174 L1084.360773984894,711.8795377821459 M1084.360773984894,711.8795377821459 L1084.7609923557113,712.0475995145244 M1084.7609923557113,712.0475995145244 L1084.1243933423361,712.6099659964246" stroke="black"  stroke-width="4"  fill="red"/>
<path d="M-314.6455835851551,53.327601220001384 L-352.10391560127925,71.7407447575066 M-314.6455835851551,53.327601220001384 L-318.13591588098916,51.61969906830666 M-355.59234759122296,69.94802147152916 L-318.13591588098916,51.61969906830666 M-352.10391560127925,71.7407447575066 L-355.59234759122296,69.94802147152916 M-352.10391560127925,71.7407447575066 L-352.55296260113096,46.89265252483881 M-352.55296260113096,46.89265252483881 L-348.85681859066403,45.135041910414884 M-348.85681859066403,45.135041910414884 L-349.2673942496084,19.658822697625624 M-349.2673942496084,19.658822697625624 L-296.02568265055027,-4.782714000487772 M-296.02568265055027,-4.782714000487772 L-296.07730252514204,-3.1947152650834596 M-296.07730252514204,-3.1947152650834596 L-296.1963305822776,-1.5829651909221525 M-296.1963305822776,-1.5829651909221525 L-296.3822638028613,0.04772926219277451 M-296.3822638028613,0.04772926219277451 L-296.6344125831855,1.6924694305955654 M-296.6344125831855,1.6924694305955654 L-296.95190744844035,3.3463504423575614 M-296.95190744844035,3.3463504423575614 L-297.33369499046626,5.004483691590849 M-297.33369499046626,5.004483691590849 L-297.778549527554,6.661969209956055 M-297.778549527554,6.661969209956055 L-298.2850711023557,8.313919017227818 M-298.2850711023557,8.313919017227818 L-298.8516940804526,9.955470988796776 M-298.8516940804526,9.955470988796776 L-299.47669133144063,11.581814921980651 M-299.47669133144063,11.581814921980651 L-300.1581777415905,13.18818980644096 M-300.1581777415905,13.18818980644096 L-300.89411351248214,14.769895397574771 M-300.89411351248214,14.769895397574771 L-301.68231406635323,16.32230705057316 M-301.68231406635323,16.32230705057316 L-302.52045253596384,17.840873080529775 M-302.52045253596384,17.840873080529775 L-303.4060669548152,19.3211288159049 M-303.4060669548152,19.3211288159049 L-304.336561978982,20.75876508169216 M-304.336561978982,20.75876508169216 L-305.30922148765376,22.149517687129787 M-305.30922148765376,22.149517687129787 L-305.2988445168712,22.16920041013293 M-305.2988445168712,22.16920041013293 L-305.293431574803,22.193730891320968 M-305.293431574803,22.193730891320968 L-305.2932978714173,22.221656414175982 M-305.2932978714173,22.221656414175982 L-305.29844933503034,22.251392044509032 M-305.29844933503034,22.251392044509032 L-305.3085878881717,22.281166337461684 M-305.3085878881717,22.281166337461684 L-305.3231236583798,22.309282227762083 M-305.3231236583798,22.309282227762083 L-305.3412117947622,22.33410601094471 M-305.3412117947622,22.33410601094471 L-305.36180257540684,22.354176075441615 M-305.36180257540684,22.354176075441615 L-305.38369796093286,22.368343086660843 M-305.38369796093286,22.368343086660843 L-305.40562736028926,22.375763380549017 M-305.40562736028926,22.375763380549017 L-305.4263159692092,22.376030668274325 M-305.4263159692092,22.376030668274325 L-305.44456090600966,22.369112987655228 M-305.44456090600966,22.369112987655228 L-305.459301950365,22.355414714622157 M-305.459301950365,22.355414714622157 L-306.4364306485147,23.75278987119009 M-306.4364306485147,23.75278987119009 L-307.37134238206863,25.19794360216889 M-307.37134238206863,25.19794360216889 L-308.2609035707467,26.686068629705005 M-308.2609035707467,26.686068629705005 L-309.1021394705367,28.21219445468671 M-309.1021394705367,28.21219445468671 L-309.8922451628125,29.771210013088137 M-309.8922451628125,29.771210013088137 L-310.6285983804187,31.357901724394083 M-310.6285983804187,31.357901724394083 L-311.30876764617915,32.966961322001794 M-311.30876764617915,32.966961322001794 L-311.930523132496,34.59302352556608 M-311.930523132496,34.59302352556608 L-312.4918430695161,36.23064534706759 M-312.4918430695161,36.23064534706759 L-312.9909218837895,37.87434293406943 M-312.9909218837895,37.87434293406943 L-313.4261769570064,39.5186839865753 M-313.4261769570064,39.5186839865753 L-313.79625209772166,41.15816751563017 M-313.79625209772166,41.15816751563017 L-314.10002273459804,42.78738583354499 M-314.10002273459804,42.78738583354499 L-314.3365986626236,44.40097416339427 M-314.3365986626236,44.40097416339427 L-314.5053256409267,45.99360202092913 M-314.5053256409267,45.99360202092913 L-314.60578642175756,47.56008996373305 M-314.60578642175756,47.56008996373305 L-314.6378003447942,49.095329381254885 M-314.6378003447942,49.095329381254885 L-314.6455835851551,53.327601220001384 M-314.6378003447942,49.095329381254885 L-318.1359154743029,47.393290276926905 M-318.1359154743029,47.393290276926905 L-318.13591588098916,51.61969906830666 M-318.1359154743029,47.393290276926905 L-318.1066983800456,45.86023345396319 M-318.1066983800456,45.86023345396319 L-318.009030340804,44.296082883624365 M-318.009030340804,44.296082883624365 L-317.843083088463,42.70593941824495 M-317.843083088463,42.70593941824495 L-317.60926497514833,41.09497419213676 M-317.60926497514833,41.09497419213676 L-317.3082212268755,39.468508725550976 M-317.3082212268755,39.468508725550976 L-316.9408331247038,37.83189834831148 M-316.9408331247038,37.83189834831148 L-316.5082163867362,36.19054081764136 M-316.5082163867362,36.19054081764136 L-316.01171832464297,34.549926651509395 M-316.01171832464297,34.549926651509395 L-315.45291294331923,32.91547738551276 M-315.45291294331923,32.91547738551276 L-314.83359724464935,31.292665661194064 M-314.83359724464935,31.292665661194064 L-314.1557846342075,29.686922961728897 M-314.1557846342075,29.686922961728897 L-313.42169684556575,28.103602845617218 M-313.42169684556575,28.103602845617218 L-312.6337574915028,26.548001633205672 M-312.6337574915028,26.548001633205672 L-311.79458126840336,25.025320816446992 M-311.79458126840336,25.025320816446992 L-310.9069658300334,23.540659263820203 M-310.9069658300334,23.540659263820203 L-309.9738790261831,22.098975257027348 M-309.9738790261831,22.098975257027348 L-308.9984479523083,20.705063894542093 M-308.9984479523083,20.705063894542093 L-308.98366811650715,20.718764587393537 M-308.98366811650715,20.718764587393537 L-308.9653937496272,20.725699643050348 M-308.9653937496272,20.725699643050348 L-308.944686786321,20.725463678335814 M-308.944686786321,20.725463678335814 L-308.92275114509107,20.718086809818487 M-308.92275114509107,20.718086809818487 L-308.90086203987266,20.703972837233948 M-308.90086203987266,20.703972837233948 L-308.8802896580012,20.68396231576878 M-308.8802896580012,20.68396231576878 L-308.86223100317693,20.65920114229266 M-308.86223100317693,20.65920114229266 L-308.8477340481729,20.631147265542722 M-308.8477340481729,20.631147265542722 L-308.83764138913455,20.601430787225695 M-308.83764138913455,20.601430787225695 L-308.83254029371847,20.57174546034878 M-308.83254029371847,20.57174546034878 L-308.8327258305378,20.5438597469809 M-308.8327258305378,20.5438597469809 L-308.8381891304125,20.519356319800067 M-308.8381891304125,20.519356319800067 L-308.8486120053095,20.499686285083044 M-299.606605852107,-6.379723938770553 L-299.65531496836047,-4.794144163107603 M-299.65531496836047,-4.794144163107603 L-299.7714502670401,-3.1849397093473044 M-299.7714502670401,-3.1849397093473044 L-299.9545175213526,-1.5569101751830203 M-299.9545175213526,-1.5569101751830203 L-300.2038358655543,0.08505346790292379 M-300.2038358655543,0.08505346790292379 L-300.51854435211544,1.7360542422132426 M-300.51854435211544,1.7360542422132426 L-300.8975978414063,3.3912116198417266 M-300.8975978414063,3.3912116198417266 L-301.3397787220283,5.045633926696496 M-301.3397787220283,5.045633926696496 L-301.843694862519,6.694441671223899 M-301.843694862519,6.694441671223899 L-302.40778819198863,8.332781388987371 M-302.40778819198863,8.332781388987371 L-303.03033883733747,9.955851675176973 M-303.03033883733747,9.955851675176973 L-303.70946864579696,11.558900464201088 M-303.70946864579696,11.558900464201088 L-304.44314446741157,13.137236591837677 M-304.44314446741157,13.137236591837677 L-305.22918804501967,14.686244603571822 M-305.22918804501967,14.686244603571822 L-306.06527851506087,16.20138212493987 M-306.06527851506087,16.20138212493987 L-306.9489595827047,17.67819389392639 M-306.9489595827047,17.67819389392639 L-307.87764112336345,19.112380152844707 M-307.87764112336345,19.112380152844707 L-308.8486120053095,20.499686285083044 M-299.606605852107,-6.379723938770553 L-352.84728919776103,17.947082497594124 M-352.3905799744773,43.38572421354752 L-352.84728919776103,17.947082497594124 M-352.3905799744773,43.38572421354752 L-356.08634001281905,45.1350422615381 M-355.59234759122296,69.94802147152916 L-356.08634001281905,45.1350422615381 M-356.08634001281905,45.1350422615381 L-352.55296260113096,46.89265252483881 M-305.459301950365,22.355414714622157 L-308.9984479523083,20.705063894542093 M-305.30922148765376,22.149517687129787 L-308.8486120053095,20.499686285083044 M-296.02568265055027,-4.782714000487772 L-299.606605852107,-6.379723938770553 M-349.2673942496084,19.658822697625624 L-352.84728919776103,17.947082497594124 M-348.85681859066403,45.135041910414884 L-352.3905799744773,43.38572421354752" stroke="black"  stroke-width="4"  fill="red"/>
<path d="M-307.1266004891918,47.928181680871376 L-307.10421900735764,44.058656727548794 M-307.10421900735764,44.058656727548794 L-307.0655408154903,44.08235140147451 M-307.0655408154903,44.08235140147451 L-307.03962541757824,44.10980228669979 M-307.03962541757824,44.10980228669979 L-307.0279789422883,44.1394141572718 M-307.0279789422883,44.1394141572718 L-307.0312807476655,44.16946685898779 M-307.0312807476655,44.16946685898779 L-307.0493402736312,44.198213329003806 M-307.0493402736312,44.198213329003806 L-307.0811099367447,44.22398287826587 M-307.0811099367447,44.22398287826587 L-307.12474360548845,44.24527675996944 M-307.12474360548845,44.24527675996944 L-307.17770596105083,44.260856832383354 M-307.17770596105083,44.260856832383354 L-307.2369174879359,44.26981656594148 M-307.2369174879359,44.26981656594148 L-307.2989364762957,44.271635008719045 M-307.2989364762957,44.271635008719045 L-307.3601560090749,44.26620615998968 M-307.3601560090749,44.26620615998968 L-307.41701753451275,44.25384624519393 M-307.41701753451275,44.25384624519393 L-307.4662142014963,44.23527366199346 M-307.4662142014963,44.23527366199346 L-307.5048873819685,44.211569284752045 M-307.5048873819685,44.211569284752045 L-307.53078909153123,44.18411085410395 M-307.53078909153123,44.18411085410395 L-307.54241616274146,44.15449540893735 M-307.54241616274146,44.15449540893735 L-307.5390936824183,44.12444392228116 M-307.5390936824183,44.12444392228116 L-307.52101694729754,44.09570317860846 M-307.52101694729754,44.09570317860846 L-307.48923748303105,44.0699425552275 M-307.48923748303105,44.0699425552275 L-307.44560366658175,44.048658754042094 M-307.44560366658175,44.048658754042094 L-307.3926508505979,44.03308760756943 M-307.3926508505979,44.03308760756943 L-307.3334563650569,44.02413360037701 M-307.3334563650569,44.02413360037701 L-307.2714580160357,44.02231637268767 M-307.2714580160357,44.02231637268767 L-307.2102579920919,44.02774164672866 M-307.2102579920919,44.02774164672866 L-307.1534103761204,44.04009401622977 M-307.1534103761204,44.04009401622977 L-307.10421900735764,44.058656727548794 M-307.1266004891918,47.928181680871376 L-307.1756915010362,47.90955981968443 M-307.1756915010362,47.90955981968443 L-307.23242341839807,47.89716808844901 M-307.23242341839807,47.89716808844901 L-307.29349912370935,47.89172552610802 M-307.29349912370935,47.89172552610802 L-307.35537175029435,47.89354854463403 M-307.35537175029435,47.89354854463403 L-307.41444641066437,47.90253108469034 M-307.41444641066437,47.90253108469034 L-307.46729225482727,47.918151849171466 M-307.46729225482727,47.918151849171466 L-307.510838167787,47.939503469785336 M-307.510838167787,47.939503469785336 L-307.54255390459707,47.96534617436242 M-307.54255390459707,47.96534617436242 L-307.5605947965919,47.99417849049706 M-307.5605947965919,47.99417849049706 L-307.56391140616745,48.02432572098917 M-307.56391140616745,48.02432572098917 L-307.55230878582097,48.054035515909334 M-307.55230878582097,48.054035515909334 L-307.52646043274626,48.08158142012326 M-307.52646043274626,48.08158142012326 L-307.4878664201897,48.105361308412625 M-307.4878664201897,48.105361308412625 L-307.4387701315409,48.12399305300954 M-307.4387701315409,48.12399305300954 L-307.38202436132474,48.13639233822005 M-307.38202436132474,48.13639233822005 L-307.3209292263723,48.14183847936181 M-307.3209292263723,48.14183847936181 L-307.2590360440839,48.1400142443498 M-307.2590360440839,48.1400142443498 L-307.19994441128495,48.13102597133991 M-307.19994441128495,48.13102597133991 L-307.1470890659525,48.115396270648716 M-307.1470890659525,48.115396270648716 L-307.103543299801,48.09403455791954 M-307.103543299801,48.09403455791954 L-307.07183732414614,48.06818291719259 M-307.07183732414614,48.06818291719259 L-307.0538135713714,48.03934486812676 M-307.0538135713714,48.03934486812676 L-307.05051755289026,48.00919642117708 M-307.05051755289026,48.00919642117708 L-307.06213949875894,47.97949020496378 M-307.06213949875894,47.97949020496378 L-307.08800148491423,47.951951854853235 M-307.08800148491423,47.951951854853235 L-307.1266004891918,47.928181680871376 M-306.83283589134817,43.92624929566654 L-306.7361324780301,43.98546810184604 M-306.7361324780301,43.98546810184604 L-306.67131772894913,44.05408079368124 M-306.67131772894913,44.05408079368124 L-306.6421654233658,44.12810397952609 M-306.6421654233658,44.12810397952609 L-306.6503810862672,44.20323771760303 M-306.6503810862672,44.20323771760303 L-306.69549779229624,44.27511488523891 M-306.69549779229624,44.27511488523891 L-306.7749027808769,44.33955520727608 M-306.7749027808769,44.33955520727608 L-306.8839866676476,44.39280882431888 M-306.8839866676476,44.39280882431888 L-307.01640984400683,44.431775374842005 M-307.01640984400683,44.431775374842005 L-307.1644711500901,44.45418553895746 M-307.1644711500901,44.45418553895746 L-307.3195567341386,44.458733884043966 M-307.3195567341386,44.458733884043966 L-307.47264259847145,44.44515518032085 M-307.47264259847145,44.44515518032085 L-307.614821724422,44.41424093959006 M-307.614821724422,44.41424093959006 L-307.73782394425643,44.367791664741446 M-307.73782394425643,44.367791664741446 L-307.83449695430477,44.308511770229984 M-307.83449695430477,44.308511770229984 L-307.89922632709977,44.23985183564673 M-307.89922632709977,44.23985183564673 L-307.928257181837,44.16580639286144 M-307.928257181837,44.16580639286144 L-307.9199123886531,44.09068020686175 M-307.9199123886531,44.09068020686175 L-307.87468812516715,44.0188388290797 M-307.87468812516715,44.0188388290797 L-307.79522187956445,43.954454293615015 M-307.79522187956445,43.954454293615015 L-307.6861370696254,43.90126367983254 M-307.6861370696254,43.90126367983254 L-307.55377351544666,43.86235291588042 M-307.55377351544666,43.86235291588042 L-307.40581871800407,43.83997854165932 M-307.40581871800407,43.83997854165932 L-307.25086204171157,43.83543783287212 M-307.25086204171157,43.83543783287212 L-307.09789828295584,43.84899411086326 M-307.09789828295584,43.84899411086326 L-306.95580591527244,43.879861277247585 M-306.95580591527244,43.879861277247585 L-306.83283589134817,43.92624929566654 M-306.8301402820093,43.47136430516463 L-306.7334135892809,43.53056084007699 M-306.7334135892809,43.53056084007699 L-306.6685831284442,43.59914773057574 M-306.6685831284442,43.59914773057574 L-306.63942359526163,43.67314308390456 M-306.63942359526163,43.67314308390456 L-306.647640939922,43.748248575509535 M-306.647640939922,43.748248575509535 L-306.692768144483,43.82009872438107 M-306.692768144483,43.82009872438107 L-306.7721918426489,43.88451482600709 M-306.7721918426489,43.88451482600709 L-306.88130156527075,43.93774842926962 M-306.88130156527075,43.93774842926962 L-307.01375620229055,43.97670033653651 M-307.01375620229055,43.97670033653651 L-307.1618527630227,43.99910207956998 M-307.1618527630227,43.99910207956998 L-307.3169753425095,44.003648715561326 M-307.3169753425095,44.003648715561326 L-307.4700977877761,43.99007511423821 M-307.4700977877761,43.99007511423821 L-307.61231094926666,43.959172490436174 M-307.61231094926666,43.959172490436174 L-307.7353426777122,43.91274067141643 M-307.7353426777122,43.91274067141643 L-307.83203895291877,43.85348305655151 M-307.83203895291877,43.85348305655151 L-307.8967839968549,43.784848929820726 M-307.8967839968549,43.784848929820726 L-307.9258220213594,43.71083132259167 M-307.9258220213594,43.71083132259167 L-307.9174754847535,43.635733382035596 M-307.9174754847535,43.635733382035596 L-307.8722406712882,43.56391901809684 M-307.8722406712882,43.56391901809684 L-307.7927556866756,43.499558695372684 M-307.7927556866756,43.499558695372684 L-307.68364504022463,43.44638808670766 M-307.68364504022463,43.44638808670766 L-307.5512500536397,43.40749195834104 M-307.5512500536397,43.40749195834104 L-307.4032600522447,43.38512600028088 M-307.4032600522447,43.38512600028088 L-307.2482664420178,43.380586999528816 M-307.2482664420178,43.380586999528816 L-307.09526616062885,43.39413817822356 M-307.09526616062885,43.39413817822356 L-306.9531397990095,43.424993734131704 M-306.9531397990095,43.424993734131704 L-306.8301402820093,43.47136430516463 M-306.8301402820093,43.47136430516463 L-306.83283589134817,43.92624929566654" stroke="black"  stroke-width="4"  fill="red"/>
<path d="M-352.3905799744773,43.38572421354752 L-356.08634001281905,45.1350422615381 M-356.08634001281905,45.1350422615381 L-356.5935366343633,19.65882304121709 M-352.84728919776103,17.947082497594124 L-356.5935366343633,19.65882304121709 M-352.3905799744773,43.38572421354752 L-352.84728919776103,17.947082497594124 M-352.10391560127925,71.7407447575066 L-277.9797178100737,109.83355431141456 M-277.9797178100737,109.83355431141456 L-277.8808787731166,105.30091791541236 M-277.8808787731166,105.30091791541236 L-193.23432994885763,148.5539353687256 M-193.55750511622034,153.21856711553306 L-193.23432994885763,148.5539353687256 M-193.55750511622034,153.21856711553306 L266.8801733366224,389.8398772867795 M266.8801733366224,389.8398772867795 L268.8218548585878,384.6571729310838 M268.8218548585878,384.6571729310838 L425.68600186580693,464.8122150744897 M423.04361455846924,470.09307938554787 L425.68600186580693,464.8122150744897 M423.04361455846924,470.09307938554787 L1064.0964338050528,799.5334468393881 M1064.0964338050528,799.5334468393881 L1100.1335856263283,769.5034831928227 M1100.1335856263283,769.5034831928227 L1113.9738557159087,776.3880578991169 M1113.9738557159087,776.3880578991169 L1152.4958006918323,744.7829161547982 M-356.5935366343633,19.65882304121709 L1152.4958006918323,744.7829161547982 M-356.08634001281905,45.1350422615381 L-352.55296260113096,46.89265252483881 M-352.10391560127925,71.7407447575066 L-352.55296260113096,46.89265252483881 M1114.4252874712697,769.5034996587987 L1100.647312346025,762.6829894160891 M1064.7605972196025,792.7492827685971 L1100.647312346025,762.6829894160891 M1064.7605972196025,792.7492827685971 L425.8312766684735,465.9638378232179 M425.8312766684735,465.9638378232179 L428.4741800490772,460.687064603968 M428.4741800490772,460.687064603968 L271.93712381116745,381.0809835861728 M269.99157281829935,386.25839103153305 L271.93712381116745,381.0809835861728 M269.99157281829935,386.25839103153305 L-189.93384934784342,151.02590303957356 M-189.93384934784342,151.02590303957356 L-189.60213440321763,146.36766735728668 M-189.60213440321763,146.36766735728668 L-274.2263241113202,103.33248920924495 M-274.33387214828144,107.85884509261524 L-274.2263241113202,103.33248920924495 M-274.33387214828144,107.85884509261524 L-348.4569317314116,69.94802111338026 M-348.4569317314116,69.94802111338026 L-348.85681859066403,45.135041910414884 M-348.85681859066403,45.135041910414884 L-352.3905799744773,43.38572421354752 M1152.7744257189295,737.8657540757139 L-352.84728919776103,17.947082497594124 M1114.4252874712697,769.5034996587987 L1152.7744257189295,737.8657540757139 M-352.10391560127925,71.7407447575066 L-348.4569317314116,69.94802111338026 M-352.55296260113096,46.89265252483881 L-348.85681859066403,45.135041910414884 M-274.33387214828144,107.85884509261524 L-277.9797178100737,109.83355431141456 M-274.2263241113202,103.33248920924495 L-277.8808787731166,105.30091791541236 M-193.55750511622034,153.21856711553306 L-189.93384934784342,151.02590303957356 M-193.23432994885763,148.5539353687256 L-189.60213440321763,146.36766735728668 M269.99157281829935,386.25839103153305 L266.8801733366224,389.8398772867795 M271.93712381116745,381.0809835861728 L268.8218548585878,384.6571729310838 M423.04361455846924,470.09307938554787 L425.8312766684735,465.9638378232179 M425.68600186580693,464.8122150744897 L428.4741800490772,460.687064603968 M1064.7605972196025,792.7492827685971 L1064.0964338050528,799.5334468393881 M1100.647312346025,762.6829894160891 L1100.1335856263283,769.5034831928227 M1113.9738557159087,776.3880578991169 L1114.4252874712697,769.5034996587987 M1152.4958006918323,744.7829161547982 L1152.7744257189295,737.8657540757139" stroke="black"  stroke-width="4"  fill="red"/></svg>