<svg viewBox="0 0 800 800" xmlns="http://www.w3.org/2000/svg"><path d="M-308.5278814428799,45.51861259538316 L-326.6692309426576,54.294053231381895 M-326.6692305329175,50.03590955232755 L-326.6692309426576,54.294053231381895 M-326.6692305329175,50.03590955232755 L-326.66933275574297,49.99667163606142 M-326.66933275574297,49.99667163606142 L-326.6693940913607,49.95742649003682 M-326.6693940913607,49.95742649003682 L-326.6694145371383,49.91814601253998 M-308.4867681857836,41.17478733589115 L-326.6694145371383,49.91814601253998 M-308.5278814428799,45.51861259538316 L-308.4867681857836,41.17478733589115 M1086.9020924264994,738.074951285186 L1074.0005034399467,731.8341200248859 M1068.4476083022366,793.419367521502 L1074.0005034399467,731.8341200248859 M1068.4476083022366,793.419367521502 L422.3915611244886,466.70245935323226 M419.603416316814,470.8227931818095 L422.3915611244886,466.70245935323226 M262.08162836403835,390.7795003644695 L419.603416316814,470.8227931818095 M265.20010006250163,387.20918880344743 L262.08162836403835,390.7795003644695 M265.20010006250163,387.20918880344743 L-197.83437358633307,153.04809354440465 M-201.4742612381949,155.22770596915802 L-197.83437358633307,153.04809354440465 M-286.3248400777595,112.11164046454229 L-201.4742612381949,155.22770596915802 M-282.6624315882964,110.14970886494825 L-286.3248400777595,112.11164046454229 M-282.6624315882964,110.14970886494825 L-357.1250291102093,72.49323967343821 M-323.16373438512926,55.98975230549587 L-357.1250291102093,72.49323967343821 M-323.16373438512926,55.98975230549587 L-326.6692309426576,54.294053231381895 M1089.4976067248272,705.9143878088609 L-308.5278814428799,45.51861259538316 M1086.9020924264994,738.074951285186 L1089.4976067248272,705.9143878088609 M-315.6124434842294,50.629031156404494 L-315.6617474104436,50.61054336388918 M-315.6617474104436,50.61054336388918 L-315.7187247660838,50.59824084960775 M-315.7187247660838,50.59824084960775 L-315.7800641747267,50.592837472753786 M-315.7800641747267,50.592837472753786 L-315.8422034630307,50.59464736582913 M-315.8422034630307,50.59464736582913 L-315.9015322579987,50.60356523357018 M-315.9015322579987,50.60356523357018 L-315.9546049568937,50.6190735342762 M-315.9546049568937,50.6190735342762 L-315.9983372647771,50.64027143577209 M-315.9983372647771,50.64027143577209 L-316.03018810607387,50.66592809535791 M-316.03018810607387,50.66592809535791 L-316.04830495023896,50.694552853323216 M-316.04830495023896,50.694552853323216 L-316.05163393478256,50.724483070466476 M-316.05163393478256,50.724483070466476 L-316.03997937562985,50.753979011527804 M-316.03997937562985,50.753979011527804 L-316.014017777547,50.78132664719766 M-316.014017777547,50.78132664719766 L-315.97525578077375,50.804935381082714 M-315.97525578077375,50.804935381082714 L-315.92594653137917,50.82343302947311 M-315.92594653137917,50.82343302947311 L-315.86895520028065,50.83574307697188 M-315.86895520028065,50.83574307697188 L-315.80759619049707,50.84115002279236 M-315.80759619049707,50.84115002279236 L-315.74543616538017,50.839338916573865 M-315.74543616538017,50.839338916573865 L-315.6860902487556,50.83041533163282 M-315.6860902487556,50.83041533163282 L-315.6330079655304,50.81489811927281 M-315.6330079655304,50.81489811927281 L-315.58927580641307,50.793690153393925 M-315.58927580641307,50.793690153393925 L-315.5574348128996,50.76802458221414 M-315.5574348128996,50.76802458221414 L-315.5393352594069,50.73939410707118 M-315.5393352594069,50.73939410707118 L-315.53602704753916,50.70946267681302 M-315.53602704753916,50.70946267681302 L-315.54770110232494,50.6799703046247 M-315.54770110232494,50.6799703046247 L-315.57367645316094,50.65263020230009 M-315.57367645316094,50.65263020230009 L-315.6124434842294,50.629031156404494 M1081.8479993971407,718.4347195489412 L1081.6868206519068,718.3673749264833 M1081.6868206519068,718.3673749264833 L1081.5335915626388,718.3226236920415 M1081.5335915626388,718.3226236920415 L1081.3969402785588,718.3029319536427 M1081.3969402785588,718.3029319536427 L1081.2850864171653,718.3095804320501 M1081.2850864171653,718.3095804320501 L1081.2041966465429,718.3420254710783 M1081.2041966465429,718.3420254710783 L1081.1590229866802,718.3984114651806 M1081.1590229866802,718.3984114651806 L1081.1523936108556,718.4755613687844 M1081.1523936108556,718.4755613687844 L1081.1846997262421,718.5689983816213 M1081.1846997262421,718.5689983816213 L1081.2538717707032,718.6732005479603 M1081.2538717707032,718.6732005479603 L1081.3558452689897,718.7820912633603 M1081.3558452689897,718.7820912633603 L1081.4850295084198,718.8894987587712 M1081.4850295084198,718.8894987587712 L1081.6336342190136,718.9890434896291 M1081.6336342190136,718.9890434896291 L1081.7932914842493,719.0750621793813 M1081.7932914842493,719.0750621793813 L1081.9543930345628,719.1423965292804 M1081.9543930345628,719.1423965292804 L1082.1077250615906,719.1872000624453 M1082.1077250615906,719.1872000624453 L1082.2444724327133,719.206916624901 M1082.2444724327133,719.206916624901 L1082.3565568836113,719.2003378578601 M1082.3565568836113,719.2003378578601 L1082.4373058507838,719.167774907499 M1082.4373058507838,719.167774907499 L1082.4824528881152,719.1113270763968 M1082.4824528881152,719.1113270763968 L1082.489012121767,719.0341072642336 M1082.489012121767,719.0341072642336 L1082.4566084465291,718.9406083196089 M1082.4566084465291,718.9406083196089 L1082.3874975013573,718.8364446259035 M1082.3874975013573,718.8364446259035 L1082.2852764728473,718.7274673148237 M1082.2852764728473,718.7274673148237 L1082.1560459261775,718.6200846093607 M1082.1560459261775,718.6200846093607 L1082.0074432351034,718.5205921874991 M1082.0074432351034,718.5205921874991 L1081.8479993971407,718.4347195489412 M-323.15589254104657,51.72561367733158 L-326.6692305329175,50.03590955232755 M-323.15589254104657,51.72561367733158 L-323.16373438512926,55.98975230549587 M-323.15585951691025,51.60768400268546 L-323.15591142530707,51.647019961598346 M-323.15591142530707,51.647019961598346 L-323.15592241522404,51.68632047267192 M-323.15592241522404,51.68632047267192 L-323.15589254104657,51.72561367733158 M-326.6694145371383,49.91814601253998 L-323.15585951691025,51.60768400268546 M1080.169894586453,726.4148694479544 L1093.1558587319935,732.6593368424436 M1093.1558587319935,732.6593368424436 L1095.6206822007405,700.4823138020295 M1095.6206822007405,700.4823138020295 L-308.4867681857836,41.17478733589115 M-323.15585951691025,51.60768400268546 L-357.1966035813938,68.05204381048071 M-357.1966035813938,68.05204381048071 L-282.5538560337434,105.58010802399133 M-282.5538560337434,105.58010802399133 L-286.2250543494422,107.5355899697426 M-286.2250543494422,107.5355899697426 L-201.1478196203219,150.51592707031705 M-201.1478196203219,150.51592707031705 L-197.49931475325366,148.34290001241914 M-197.49931475325366,148.34290001241914 L267.17086263349756,381.9646895096665 M267.17086263349756,381.9646895096665 L264.0485566175719,385.5294078484675 M264.0485566175719,385.5294078484675 L422.2827646494002,465.46806151656256 M422.2827646494002,465.46806151656256 L425.0712986647052,461.352143715283 M425.0712986647052,461.352143715283 L1074.8608904402047,788.0462476515653 M1080.169894586453,726.4148694479544 L1074.8608904402047,788.0462476515653 M-315.31459843854464,46.13502331795689 L-315.2174496345083,46.19378709005571 M-315.2174496345083,46.19378709005571 L-315.152334195752,46.26187262132515 M-315.152334195752,46.26187262132515 L-315.1230434427771,46.33532714400508 M-315.1230434427771,46.33532714400508 L-315.13129104728114,46.40988375846689 M-315.13129104728114,46.40988375846689 L-315.1766083282341,46.48120888414087 M-315.1766083282341,46.48120888414087 L-315.25637095460706,46.54515433751578 M-315.25637095460706,46.54515433751578 L-315.36594880713494,46.59799903380667 M-315.36594880713494,46.59799903380667 L-315.4989735703142,46.63666639305495 M-315.4989735703142,46.63666639305495 L-315.64770907459297,46.658904497144704 M-315.64770907459297,46.658904497144704 L-315.80350220177206,46.66341792187359 M-315.80350220177206,46.66341792187359 L-315.95728773176006,46.649943470734286 M-315.95728773176006,46.649943470734286 L-316.1001178874244,46.61926658755851 M-316.1001178874244,46.61926658755851 L-316.2236845969197,46.573173970047606 M-316.2236845969197,46.573173970047606 L-316.32080271954203,46.514349291588815 M-316.32080271954203,46.514349291588815 L-316.3858319890787,46.44621665900115 M-316.3858319890787,46.44621665900115 L-316.41500016210114,46.37273994542909 M-316.41500016210114,46.37273994542909 L-316.4066222233282,46.298190860696934 M-316.4066222233282,46.298190860696934 L-316.3611963803547,46.226901418033094 M-316.3611963803547,46.226901418033094 L-316.2813719223542,46.16301158469042 M-316.2813719223542,46.16301158469042 L-316.1717931336475,46.110229703575726 M-316.1717931336475,46.110229703575726 L-316.0388285442143,46.071617964358325 M-316.0388285442143,46.071617964358325 L-315.8902005383585,46.04941554331907 M-315.8902005383585,46.04941554331907 L-315.73453751978604,46.04490973189519 M-315.73453751978604,46.04490973189519 L-315.58087523370864,46.058361824645544 M-315.58087523370864,46.058361824645544 L-315.43813264872176,46.088991773610815 M-315.43813264872176,46.088991773610815 L-315.31459843854464,46.13502331795689 M1088.0321236638654,712.5280572455764 L1088.4333214910473,712.7427159342509 M1088.4333214910473,712.7427159342509 L1088.807621249392,712.9915057997958 M1088.807621249392,712.9915057997958 L1089.1332931911095,713.2600064785304 M1089.1332931911095,713.2600064785304 L1089.3912361682087,713.532557111125 M1089.3912361682087,713.532557111125 L1089.5664366899503,713.7933238209829 M1089.5664366899503,713.7933238209829 L1089.6487660302823,714.0271822080937 M1089.6487660302823,714.0271822080937 L1089.6332791505768,714.2204569103103 M1089.6332791505768,714.2204569103103 L1089.5208380438924,714.3618776805645 M1089.5208380438924,714.3618776805645 L1089.3180704143945,714.4432435202801 M1089.3180704143945,714.4432435202801 L1089.036663876228,714.459752816733 M1089.036663876228,714.459752816733 L1088.6929865058037,714.4104304764904 M1088.6929865058037,714.4104304764904 L1088.3072129363554,714.2982283724577 M1088.3072129363554,714.2982283724577 L1087.9017967341704,714.129684917465 M1087.9017967341704,714.129684917465 L1087.5001179483036,713.9145217854461 M1087.5001179483036,713.9145217854461 L1087.1258039450865,713.6654033269108 M1087.1258039450865,713.6654033269108 L1086.8004231899647,713.3967469529421 M1086.8004231899647,713.3967469529421 L1086.5430100969775,713.1242492452099 M1086.5430100969775,713.1242492452099 L1086.3684567071023,712.8637319058452 M1086.3684567071023,712.8637319058452 L1086.2867436756453,712.6302622719888 M1086.2867436756453,712.6302622719888 L1086.3026746757164,712.4374265840385 M1086.3026746757164,712.4374265840385 L1086.4152859429876,712.2963944879654 M1086.4152859429876,712.2963944879654 L1086.61791104815,712.2152780840399 M1086.61791104815,712.2152780840399 L1086.8988947689666,712.1988216988586 M1086.8988947689666,712.1988216988586 L1087.2419658635145,712.2479882677882 M1087.2419658635145,712.2479882677882 L1087.6270888848403,712.3598618147496 M1087.6270888848403,712.3598618147496 L1088.0321236638654,712.5280572455764 M1089.4976067248272,705.9143878088609 L1095.6206822007405,700.4823138020295 M1092.9871117562427,732.8051686456639 L1080.0034306146642,726.5607994351232 M1092.9871117562427,732.8051686456639 L1086.9020924264994,738.074951285186 M1080.0034306146642,726.5607994351232 L1074.0005034399467,731.8341200248859 M1080.0034306146642,726.5607994351232 L1080.0589145832007,726.5122266600705 M1080.0589145832007,726.5122266600705 L1080.1143893420815,726.4635949572314 M1080.1143893420815,726.4635949572314 L1080.169894586453,726.4148694479544 M1068.4476083022366,793.419367521502 L1074.8608904402047,788.0462476515653 M422.3915611244886,466.70245935323226 L425.0712986647052,461.352143715283 M419.603416316814,470.8227931818095 L422.2827646494002,465.46806151656256 M262.08162836403835,390.7795003644695 L264.0485566175719,385.5294078484675 M265.20010006250163,387.20918880344743 L267.17086263349756,381.9646895096665 M-197.83437358633307,153.04809354440465 L-197.49931475325366,148.34290001241914 M-201.4742612381949,155.22770596915802 L-201.1478196203219,150.51592707031705 M-286.3248400777595,112.11164046454229 L-286.2250543494422,107.5355899697426 M-282.6624315882964,110.14970886494825 L-282.5538560337434,105.58010802399133 M-357.1250291102093,72.49323967343821 L-357.1966035813938,68.05204381048071 M1093.1558587319935,732.6593368424436 L1093.0995929583075,732.7080302774475 M1093.0995929583075,732.7080302774475 L1093.043357379275,732.756629259848 M1093.043357379275,732.756629259848 L1092.9871117562427,732.8051686456639 M-315.6124434842294,50.629031156404494 L-315.5898645376319,46.72536660343678 M-315.5898645376319,46.72536660343678 L-315.5510176138265,46.748888363333606 M-315.5510176138265,46.748888363333606 L-315.524988372435,46.776138931691605 M-315.524988372435,46.776138931691605 L-315.5132895636459,46.805534726250244 M-315.5132895636459,46.805534726250244 L-315.51660360520077,46.835368146031385 M-315.51660360520077,46.835368146031385 L-315.5347392396502,46.86390487531412 M-315.5347392396502,46.86390487531412 L-315.56664447556454,46.889486412587644 M-315.56664447556454,46.889486412587644 L-315.61046530717704,46.91062494234865 M-315.61046530717704,46.91062494234865 L-315.66365554076197,46.9260913520265 M-315.66365554076197,46.9260913520265 L-315.72312240713586,46.9349857221398 M-315.72312240713586,46.9349857221398 L-315.7854093481078,46.93679089905106 M-315.7854093481078,46.93679089905106 L-315.8468938550145,46.931401654865056 M-315.8468938550145,46.931401654865056 L-315.9040019661835,46.91913190945718 M-315.9040019661835,46.91913190945718 L-315.95341248467025,46.90069482243473 M-315.95341248467025,46.90069482243473 L-315.9922543542491,46.87716338638063 M-315.9922543542491,46.87716338638063 L-316.0182697868838,46.84990529401057 M-316.0182697868838,46.84990529401057 L-316.02994902043497,46.8205059350006 M-316.02994902043497,46.8205059350006 L-316.0266141212327,46.7906737268313 M-316.0266141212327,46.7906737268313 L-316.00846112524016,46.762142707642965 M-316.00846112524016,46.762142707642965 L-315.9765460010069,46.736570070922596 M-315.9765460010069,46.736570070922596 L-315.9327250197151,46.71544159307564 M-315.9327250197151,46.71544159307564 L-315.87954440937847,46.69998408401091 M-315.87954440937847,46.69998408401091 L-315.820094734494,46.69109542401435 M-315.820094734494,46.69109542401435 L-315.7578286150863,46.68929145874324 M-315.7578286150863,46.68929145874324 L-315.69636378957307,46.69467713838441 M-315.69636378957307,46.69467713838441 L-315.6392697112333,46.70693935990812 M-315.6392697112333,46.70693935990812 L-315.5898645376319,46.72536660343678 M1081.8479993971407,718.4347195489412 L1087.3453881159755,713.5801018530725 M1087.3453881159755,713.5801018530725 L1087.5057919689325,713.6660114779287 M1087.5057919689325,713.6660114779287 L1087.6553660021411,713.765546803589 M1087.6553660021411,713.765546803589 L1087.7855233859143,713.872975877157 M1087.7855233859143,713.872975877157 L1087.888572154813,713.9820003104938 M1087.888572154813,713.9820003104938 L1087.9583626916271,714.0862091067951 M1087.9583626916271,714.0862091067951 L1087.9912607135764,714.1797485876256 M1087.9912607135764,714.1797485876256 L1087.984979654788,714.2570019148986 M1087.984979654788,714.2570019148986 L1087.9398783863621,714.3134742666024 M1087.9398783863621,714.3134742666024 L1087.8589421866245,714.3460513701789 M1087.8589421866245,714.3460513701789 L1087.7464459117166,714.3526329973429 M1087.7464459117166,714.3526329973429 L1087.6090869808336,714.332907863821 M1087.6090869808336,714.332907863821 L1087.4549799895622,714.2880848619739 M1087.4549799895622,714.2880848619739 L1087.2929845809604,714.220721273982 M1087.2929845809604,714.220721273982 L1087.1323656966624,714.1346652696753 M1087.1323656966624,714.1346652696753 L1086.9827894216435,714.0350774081127 M1086.9827894216435,714.0350774081127 L1086.8526786095097,713.9276234370633 M1086.8526786095097,713.9276234370633 L1086.7498790069849,713.8186856697569 M1086.7498790069849,713.8186856697569 L1086.6800273831386,713.7144385392193 M1086.6800273831386,713.7144385392193 L1086.6472279287243,713.6209612588239 M1086.6472279287243,713.6209612588239 L1086.653579954372,713.5437781433594 M1086.653579954372,713.5437781433594 L1086.6987082976998,713.4873678968919 M1086.6987082976998,713.4873678968919 L1086.7797862257394,713.45490891084 M1086.7797862257394,713.45490891084 L1086.8920504741702,713.4482575751995 M1086.8920504741702,713.4482575751995 L1087.0293124683326,713.467957776983 M1087.0293124683326,713.467957776983 L1087.1833155101153,713.5127282532454 M1087.1833155101153,713.5127282532454 L1087.3453881159755,713.5801018530725 M-315.31459843854464,46.13502331795689 L-315.3173178537188,46.59392555123577 M-315.3173178537188,46.59392555123577 L-315.2201925366519,46.65271212105438 M-315.2201925366519,46.65271212105438 L-315.15509295071547,46.72082406364001 M-315.15509295071547,46.72082406364001 L-315.125809491665,46.79430707693524 M-315.125809491665,46.79430707693524 L-315.13405540207395,46.86889260586179 M-315.13405540207395,46.86889260586179 L-315.17936209414495,46.94024538935855 M-315.17936209414495,46.94024538935855 L-315.25910584776057,47.00421563609848 M-315.25910584776057,47.00421563609848 L-315.36865763789183,47.057080819671114 M-315.36865763789183,47.057080819671114 L-315.5016506636571,47.09576316865082 M-315.5016506636571,47.09576316865082 L-315.6503506024412,47.11800989308745 M-315.6503506024412,47.11800989308745 L-315.80610640736757,47.12252506735433 M-315.80610640736757,47.12252506735433 L-315.95985503270185,47.1090453930766 M-315.95985503270185,47.1090453930766 L-316.1026508510804,47.07835661809281 M-316.1026508510804,47.07835661809281 L-316.2261877897772,47.03224613174791 M-316.2261877897772,47.03224613174791 L-316.3232824398692,46.97339864656465 M-316.3232824398692,46.97339864656465 L-316.3882958977416,46.90523959566167 M-316.3882958977416,46.90523959566167 L-316.4174568354433,46.831734388206314 M-316.4174568354433,46.831734388206314 L-316.4090806532531,46.75715639011514 M-316.4090806532531,46.75715639011514 L-316.3636654512984,46.68583929491564 M-316.3636654512984,46.68583929491564 L-316.2838598958756,46.62192467644934 M-316.2838598958756,46.62192467644934 L-316.1743071702383,46.56912231736044 M-316.1743071702383,46.56912231736044 L-316.0413742895897,46.53049559665283 M-316.0413742895897,46.53049559665283 L-315.89278179785606,46.50828456055393 M-315.89278179785606,46.50828456055393 L-315.73715603921084,46.50377700073011 M-315.73715603921084,46.50377700073011 L-315.5835305987064,46.51723431328605 M-315.5835305987064,46.51723431328605 L-315.4408223088428,46.54787614712518 M-315.4408223088428,46.54787614712518 L-315.3173178537188,46.59392555123577 M1088.0321236638654,712.5280572455764 L1087.3846592889595,713.1000221010363 M1087.3846592889595,713.1000221010363 L1087.785574071222,713.3146703422486 M1087.785574071222,713.3146703422486 L1088.1595872288187,713.5634480614059 M1088.1595872288187,713.5634480614059 L1088.4849856410972,713.8319355859533 M1088.4849856410972,713.8319355859533 L1088.742684173934,714.1044728176595 M1088.742684173934,714.1044728176595 L1088.917683571264,714.365226660486 M1088.917683571264,714.365226660486 L1088.9998667824564,714.5990734704271 M1088.9998667824564,714.5990734704271 L1088.984297398084,714.7923385775384 M1088.984297398084,714.7923385775384 L1088.8718422584714,714.9337523114716 M1088.8718422584714,714.9337523114716 L1088.6691298391013,715.0151140969338 M1088.6691298391013,715.0151140969338 L1088.3878446179508,715.0316225702408 M1088.3878446179508,715.0316225702408 L1088.0443476052815,714.9823026886563 M1088.0443476052815,714.9823026886563 L1087.6588027969574,714.8701061718259 M1087.6588027969574,714.8701061718259 L1087.253650415365,714.7015710941072 M1087.253650415365,714.7015710941072 L1086.8522552729607,714.48641862951 M1086.8522552729607,714.48641862951 L1086.4782280356187,714.2373124839693 M1086.4782280356187,714.2373124839693 L1086.1531206153707,713.9686693431304 M1086.1531206153707,713.9686693431304 L1085.895951456962,713.6961850094518 M1085.895951456962,713.6961850094518 L1085.721598483534,713.4356804106795 M1085.721598483534,713.4356804106795 L1085.640030836965,713.2022221568823 M1085.640030836965,713.2022221568823 L1085.6560437318535,713.009395841443 M1085.6560437318535,713.009395841443 L1085.7686686963532,712.86837058462 M1085.7686686963532,712.86837058462 L1085.9712386064436,712.7872581084762 M1085.9712386064436,712.7872581084762 L1086.2521013729086,712.7708025196127 M1086.2521013729086,712.7708025196127 L1086.5949927369356,712.8199667088656 M1086.5949927369356,712.8199667088656 L1086.9798877448793,712.9318348352142 M1086.9798877448793,712.9318348352142 L1087.3846592889595,713.1000221010363" stroke="black"  stroke-width="4"  fill="red"/>
<path d="M1086.9020924264994,738.074951285186 L1081.3334509481506,807.0750133756527 M1086.9020924264994,738.074951285186 L1074.0005034399467,731.8341200248859 M1067.834801651593,800.2157950267164 L1074.0005034399467,731.8341200248859 M1081.3334509481506,807.0750133756527 L1067.834801651593,800.2157950267164 M1092.9871117562427,732.8051686456639 L1086.9020924264994,738.074951285186 M1128.697257959569,686.4398783112033 L1127.074120745929,689.5055213849173 M1127.074120745929,689.5055213849173 L1125.359895974818,692.5758222830763 M1125.359895974818,692.5758222830763 L1123.5600183832382,695.6409847543848 M1123.5600183832382,695.6409847543848 L1121.6802652981066,698.6911994524611 M1121.6802652981066,698.6911994524611 L1119.7266829860257,701.7167284285745 M1119.7266829860257,701.7167284285745 L1117.705575004657,704.7079295909998 M1117.705575004657,704.7079295909998 L1115.6234685175925,707.6553075201952 M1115.6234685175925,707.6553075201952 L1113.4871013074007,710.5495361949419 M1113.4871013074007,710.5495361949419 L1111.3033462080614,713.3815389697762 M1111.3033462080614,713.3815389697762 L1109.0792592828266,716.1424581670592 M1109.0792592828266,716.1424581670592 L1106.8219838029008,718.8237442337438 M1106.8219838029008,718.8237442337438 L1104.5387163179282,721.4171943519556 M1104.5387163179282,721.4171943519556 L1102.2367550453087,723.9149127669307 M1102.2367550453087,723.9149127669307 L1099.923364566825,726.3094305437114 M1099.923364566825,726.3094305437114 L1097.6058051008542,728.5936800903125 M1097.6058051008542,728.5936800903125 L1095.2913415156665,730.7609847396051 M1095.2913415156665,730.7609847396051 L1092.9871117562427,732.8051686456639 M1128.9228735762292,686.0008845563376 L1128.888731099128,686.0115251613917 M1128.888731099128,686.0115251613917 L1128.8500232192398,686.0343004546705 M1128.8500232192398,686.0343004546705 L1128.8089904678238,686.0678908437066 M1128.8089904678238,686.0678908437066 L1128.7680262032118,686.1103376304768 M1128.7680262032118,686.1103376304768 L1128.7295106292277,686.159172372751 M1128.7295106292277,686.159172372751 L1128.6956842145087,686.2115561331577 M1128.6956842145087,686.2115561331577 L1128.6684782751288,686.2644760728987 M1128.6684782751288,686.2644760728987 L1128.64953195811,686.3148054361292 M1128.64953195811,686.3148054361292 L1128.639894439523,686.3596652193271 M1128.639894439523,686.3596652193271 L1128.640143769084,686.3964357344083 M1128.640143769084,686.3964357344083 L1128.6502757828418,686.4229709726428 M1128.6502757828418,686.4229709726428 L1128.6696758842822,686.4377497808181 M1128.6696758842822,686.4377497808181 L1128.697257959569,686.4398783112033 M1165.3636971495753,638.6099393470843 L1162.902107798788,640.8501202432157 M1162.902107798788,640.8501202432157 L1160.4516835618624,643.1926746734738 M1160.4516835618624,643.1926746734738 L1158.0185254422304,645.6312540033971 M1158.0185254422304,645.6312540033971 L1155.6086785820148,648.1593265757932 M1155.6086785820148,648.1593265757932 L1153.228035886103,650.7702560130665 M1153.228035886103,650.7702560130665 L1150.8824131852887,653.4572497909454 M1150.8824131852887,653.4572497909454 L1148.5774959947285,656.2134159729513 M1148.5774959947285,656.2134159729513 L1146.318872744535,659.0317236745911 M1146.318872744535,659.0317236745911 L1144.111960338494,661.9050951204492 M1144.111960338494,661.9050951204492 L1141.962079505533,664.8263338047847 M1141.962079505533,664.8263338047847 L1139.8743600820253,667.7882137481073 M1139.8743600820253,667.7882137481073 L1137.8538149480257,670.7834256328762 M1137.8538149480257,670.7834256328762 L1135.9053083491556,673.8046037607048 M1135.9053083491556,673.8046037607048 L1134.0335235569246,676.8443642079314 M1134.0335235569246,676.8443642079314 L1132.2429723048617,679.8953005762211 M1132.2429723048617,679.8953005762211 L1130.5380243867673,682.9499612949315 M1130.5380243867673,682.9499612949315 L1128.9228735762292,686.0008845563376 M1162.7548848605802,733.5004434180258 L1165.3636971495753,638.6099393470843 M1121.192648610154,767.7889702647868 L1162.7548848605802,733.5004434180258 M1120.8101668028783,774.6865345236982 L1121.192648610154,767.7889702647868 M1081.3334509481506,807.0750133756527 L1120.8101668028783,774.6865345236982 M1092.9871117562427,732.8051686456639 L1080.0034306146642,726.5607994351232 M1080.0034306146642,726.5607994351232 L1074.0005034399467,731.8341200248859 M1067.834801651593,800.2157950267164 L1106.748302022705,767.7889537685447 M1107.1951180684969,760.9562682601883 L1106.748302022705,767.7889537685447 M1107.1951180684969,760.9562682601883 L1148.15643387893,726.6384174086226 M1151.7255895415196,632.6333152359863 L1148.15643387893,726.6384174086226 M1151.7255895415196,632.6333152359863 L1149.2968888583341,634.8729471172961 M1149.2968888583341,634.8729471172961 L1146.8779591249693,637.213947793927 M1146.8779591249693,637.213947793927 L1144.4748319601558,639.6499761610645 M1144.4748319601558,639.6499761610645 L1142.0934866373016,642.1745096743883 M1142.0934866373016,642.1745096743883 L1139.7397550476612,644.7809227468138 M1139.7397550476612,644.7809227468138 L1137.4193956319552,647.4624352105639 M1137.4193956319552,647.4624352105639 L1135.1380407114777,650.212169000383 M1135.1380407114777,650.212169000383 L1132.901229328973,653.0231087477252 M1132.901229328973,653.0231087477252 L1130.7143334877808,655.8881936451015 M1130.7143334877808,655.8881936451015 L1128.582632491348,658.8002456928675 M1128.582632491348,658.8002456928675 L1126.511219402937,661.7520589647946 M1126.511219402937,661.7520589647946 L1124.5050738134933,664.7363456791 M1124.5050738134933,664.7363456791 L1122.5690305608928,667.7457632219393 M1122.5690305608928,667.7457632219393 L1120.7077476836637,670.7729522742563 M1120.7077476836637,670.7729522742563 L1118.9257156465173,673.8105325794614 M1118.9257156465173,673.8105325794614 L1117.2272864657323,676.851080264727 M1117.2272864657323,676.851080264727 L1115.6166400036075,679.8871627943544 M1115.3915174188362,680.3239631920071 L1115.3645893025443,680.3220882088858 M1115.3645893025443,680.3220882088858 L1115.3457904803722,680.3076119144974 M1115.3457904803722,680.3076119144974 L1115.3361727014512,680.2814105932396 M1115.3361727014512,680.2814105932396 L1115.3363203154017,680.2449859666544 M1115.3363203154017,680.2449859666544 L1115.346214561232,680.2004639441047 M1115.346214561232,680.2004639441047 L1115.3652627477634,680.1504446211108 M1115.3652627477634,680.1504446211108 L1115.392409078747,680.097788977842 M1115.392409078747,680.097788977842 L1115.426018651555,680.0456084292277 M1115.426018651555,680.0456084292277 L1115.4641722921212,679.9969040124929 M1115.4641722921212,679.9969040124929 L1115.504650599686,679.9545071055591 M1115.504650599686,679.9545071055591 L1115.5451015798224,679.9208832349274 M1115.5451015798224,679.9208832349274 L1115.5831658108539,679.8979930557305 M1115.5831658108539,679.8979930557305 L1115.6166400036075,679.8871627943544 M1080.0034306146642,726.5607994351232 L1082.2770271924803,724.5157881372363 M1082.2770271924803,724.5157881372363 L1084.5618905004417,722.3487599097523 M1084.5618905004417,722.3487599097523 L1086.8509817404786,720.0658943807565 M1086.8509817404786,720.0658943807565 L1089.1371331827404,717.6738677364038 M1089.1371331827404,717.6738677364038 L1091.4131778731182,715.1797427198337 M1091.4131778731182,715.1797427198337 L1093.6719406663512,712.5909790445302 M1093.6719406663512,712.5909790445302 L1095.9062092999736,709.9154589064908 M1095.9062092999736,709.9154589064908 L1098.1088678324102,707.1613672169262 M1098.1088678324102,707.1613672169262 L1100.2728488762557,704.337231360806 M1100.2728488762557,704.337231360806 L1102.3911671049107,701.4518827053585 M1102.3911671049107,701.4518827053585 L1104.4570139681275,698.5143675134647 M1104.4570139681275,698.5143675134647 L1106.4637102282602,695.533977544316 M1106.4637102282602,695.533977544316 L1108.4047805908988,692.5201702492787 M1108.4047805908988,692.5201702492787 L1110.2739665764445,689.4825462236532 M1110.2739665764445,689.4825462236532 L1112.0652599178748,686.4307986599257 M1112.0652599178748,686.4307986599257 L1113.772914149088,683.37468910013 M1113.772914149088,683.37468910013 L1115.3915174188362,680.3239631920071 M1106.748302022705,767.7889537685447 L1120.8101668028783,774.6865345236982 M1128.697257959569,686.4398783112033 L1115.3915174188362,680.3239631920071 M1128.9228735762292,686.0008845563376 L1115.6166400036075,679.8871627943544 M1165.3636971495753,638.6099393470843 L1151.7255895415196,632.6333152359863 M1162.7548848605802,733.5004434180258 L1148.15643387893,726.6384174086226 M1121.192648610154,767.7889702647868 L1107.1951180684969,760.9562682601883" stroke="black"  stroke-width="4"  fill="red"/>
<path d="M1081.8479993971407,718.4347195489412 L1087.3453881159755,713.5801018530725 M1087.3453881159755,713.5801018530725 L1087.5057919689325,713.6660114779287 M1087.5057919689325,713.6660114779287 L1087.6553660021411,713.765546803589 M1087.6553660021411,713.765546803589 L1087.7855233859143,713.872975877157 M1087.7855233859143,713.872975877157 L1087.888572154813,713.9820003104938 M1087.888572154813,713.9820003104938 L1087.9583626916271,714.0862091067951 M1087.9583626916271,714.0862091067951 L1087.9912607135764,714.1797485876256 M1087.9912607135764,714.1797485876256 L1087.984979654788,714.2570019148986 M1087.984979654788,714.2570019148986 L1087.9398783863621,714.3134742666024 M1087.9398783863621,714.3134742666024 L1087.8589421866245,714.3460513701789 M1087.8589421866245,714.3460513701789 L1087.7464459117166,714.3526329973429 M1087.7464459117166,714.3526329973429 L1087.6090869808336,714.332907863821 M1087.6090869808336,714.332907863821 L1087.4549799895622,714.2880848619739 M1087.4549799895622,714.2880848619739 L1087.2929845809604,714.220721273982 M1087.2929845809604,714.220721273982 L1087.1323656966624,714.1346652696753 M1087.1323656966624,714.1346652696753 L1086.9827894216435,714.0350774081127 M1086.9827894216435,714.0350774081127 L1086.8526786095097,713.9276234370633 M1086.8526786095097,713.9276234370633 L1086.7498790069849,713.8186856697569 M1086.7498790069849,713.8186856697569 L1086.6800273831386,713.7144385392193 M1086.6800273831386,713.7144385392193 L1086.6472279287243,713.6209612588239 M1086.6472279287243,713.6209612588239 L1086.653579954372,713.5437781433594 M1086.653579954372,713.5437781433594 L1086.6987082976998,713.4873678968919 M1086.6987082976998,713.4873678968919 L1086.7797862257394,713.45490891084 M1086.7797862257394,713.45490891084 L1086.8920504741702,713.4482575751995 M1086.8920504741702,713.4482575751995 L1087.0293124683326,713.467957776983 M1087.0293124683326,713.467957776983 L1087.1833155101153,713.5127282532454 M1087.1833155101153,713.5127282532454 L1087.3453881159755,713.5801018530725 M1081.8479993971407,718.4347195489412 L1081.6868206519068,718.3673749264833 M1081.6868206519068,718.3673749264833 L1081.5335915626388,718.3226236920415 M1081.5335915626388,718.3226236920415 L1081.3969402785588,718.3029319536427 M1081.3969402785588,718.3029319536427 L1081.2850864171653,718.3095804320501 M1081.2850864171653,718.3095804320501 L1081.2041966465429,718.3420254710783 M1081.2041966465429,718.3420254710783 L1081.1590229866802,718.3984114651806 M1081.1590229866802,718.3984114651806 L1081.1523936108556,718.4755613687844 M1081.1523936108556,718.4755613687844 L1081.1846997262421,718.5689983816213 M1081.1846997262421,718.5689983816213 L1081.2538717707032,718.6732005479603 M1081.2538717707032,718.6732005479603 L1081.3558452689897,718.7820912633603 M1081.3558452689897,718.7820912633603 L1081.4850295084198,718.8894987587712 M1081.4850295084198,718.8894987587712 L1081.6336342190136,718.9890434896291 M1081.6336342190136,718.9890434896291 L1081.7932914842493,719.0750621793813 M1081.7932914842493,719.0750621793813 L1081.9543930345628,719.1423965292804 M1081.9543930345628,719.1423965292804 L1082.1077250615906,719.1872000624453 M1082.1077250615906,719.1872000624453 L1082.2444724327133,719.206916624901 M1082.2444724327133,719.206916624901 L1082.3565568836113,719.2003378578601 M1082.3565568836113,719.2003378578601 L1082.4373058507838,719.167774907499 M1082.4373058507838,719.167774907499 L1082.4824528881152,719.1113270763968 M1082.4824528881152,719.1113270763968 L1082.489012121767,719.0341072642336 M1082.489012121767,719.0341072642336 L1082.4566084465291,718.9406083196089 M1082.4566084465291,718.9406083196089 L1082.3874975013573,718.8364446259035 M1082.3874975013573,718.8364446259035 L1082.2852764728473,718.7274673148237 M1082.2852764728473,718.7274673148237 L1082.1560459261775,718.6200846093607 M1082.1560459261775,718.6200846093607 L1082.0074432351034,718.5205921874991 M1082.0074432351034,718.5205921874991 L1081.8479993971407,718.4347195489412 M1087.3846592889595,713.1000221010363 L1087.785574071222,713.3146703422486 M1087.785574071222,713.3146703422486 L1088.1595872288187,713.5634480614059 M1088.1595872288187,713.5634480614059 L1088.4849856410972,713.8319355859533 M1088.4849856410972,713.8319355859533 L1088.742684173934,714.1044728176595 M1088.742684173934,714.1044728176595 L1088.917683571264,714.365226660486 M1088.917683571264,714.365226660486 L1088.9998667824564,714.5990734704271 M1088.9998667824564,714.5990734704271 L1088.984297398084,714.7923385775384 M1088.984297398084,714.7923385775384 L1088.8718422584714,714.9337523114716 M1088.8718422584714,714.9337523114716 L1088.6691298391013,715.0151140969338 M1088.6691298391013,715.0151140969338 L1088.3878446179508,715.0316225702408 M1088.3878446179508,715.0316225702408 L1088.0443476052815,714.9823026886563 M1088.0443476052815,714.9823026886563 L1087.6588027969574,714.8701061718259 M1087.6588027969574,714.8701061718259 L1087.253650415365,714.7015710941072 M1087.253650415365,714.7015710941072 L1086.8522552729607,714.48641862951 M1086.8522552729607,714.48641862951 L1086.4782280356187,714.2373124839693 M1086.4782280356187,714.2373124839693 L1086.1531206153707,713.9686693431304 M1086.1531206153707,713.9686693431304 L1085.895951456962,713.6961850094518 M1085.895951456962,713.6961850094518 L1085.721598483534,713.4356804106795 M1085.721598483534,713.4356804106795 L1085.640030836965,713.2022221568823 M1085.640030836965,713.2022221568823 L1085.6560437318535,713.009395841443 M1085.6560437318535,713.009395841443 L1085.7686686963532,712.86837058462 M1085.7686686963532,712.86837058462 L1085.9712386064436,712.7872581084762 M1085.9712386064436,712.7872581084762 L1086.2521013729086,712.7708025196127 M1086.2521013729086,712.7708025196127 L1086.5949927369356,712.8199667088656 M1086.5949927369356,712.8199667088656 L1086.9798877448793,712.9318348352142 M1086.9798877448793,712.9318348352142 L1087.3846592889595,713.1000221010363 M1088.0321236638654,712.5280572455764 L1088.4333214910473,712.7427159342509 M1088.4333214910473,712.7427159342509 L1088.807621249392,712.9915057997958 M1088.807621249392,712.9915057997958 L1089.1332931911095,713.2600064785304 M1089.1332931911095,713.2600064785304 L1089.3912361682087,713.532557111125 M1089.3912361682087,713.532557111125 L1089.5664366899503,713.7933238209829 M1089.5664366899503,713.7933238209829 L1089.6487660302823,714.0271822080937 M1089.6487660302823,714.0271822080937 L1089.6332791505768,714.2204569103103 M1089.6332791505768,714.2204569103103 L1089.5208380438924,714.3618776805645 M1089.5208380438924,714.3618776805645 L1089.3180704143945,714.4432435202801 M1089.3180704143945,714.4432435202801 L1089.036663876228,714.459752816733 M1089.036663876228,714.459752816733 L1088.6929865058037,714.4104304764904 M1088.6929865058037,714.4104304764904 L1088.3072129363554,714.2982283724577 M1088.3072129363554,714.2982283724577 L1087.9017967341704,714.129684917465 M1087.9017967341704,714.129684917465 L1087.5001179483036,713.9145217854461 M1087.5001179483036,713.9145217854461 L1087.1258039450865,713.6654033269108 M1087.1258039450865,713.6654033269108 L1086.8004231899647,713.3967469529421 M1086.8004231899647,713.3967469529421 L1086.5430100969775,713.1242492452099 M1086.5430100969775,713.1242492452099 L1086.3684567071023,712.8637319058452 M1086.3684567071023,712.8637319058452 L1086.2867436756453,712.6302622719888 M1086.2867436756453,712.6302622719888 L1086.3026746757164,712.4374265840385 M1086.3026746757164,712.4374265840385 L1086.4152859429876,712.2963944879654 M1086.4152859429876,712.2963944879654 L1086.61791104815,712.2152780840399 M1086.61791104815,712.2152780840399 L1086.8988947689666,712.1988216988586 M1086.8988947689666,712.1988216988586 L1087.2419658635145,712.2479882677882 M1087.2419658635145,712.2479882677882 L1087.6270888848403,712.3598618147496 M1087.6270888848403,712.3598618147496 L1088.0321236638654,712.5280572455764 M1088.0321236638654,712.5280572455764 L1087.3846592889595,713.1000221010363" stroke="black"  stroke-width="4"  fill="red"/>
<path d="M-323.16373438512926,55.98975230549587 L-360.788592853008,74.27354806392714 M-323.16373438512926,55.98975230549587 L-326.6692309426576,54.294053231381895 M-364.29216316953875,72.49324002910299 L-326.6692309426576,54.294053231381895 M-360.788592853008,74.27354806392714 L-364.29216316953875,72.49324002910299 M-360.788592853008,74.27354806392714 L-361.26878695695177,47.70192552037423 M-361.26878695695177,47.70192552037423 L-357.5526430431689,45.95979557562242 M-357.5526430431689,45.95979557562242 L-357.99243585396016,18.670652120955197 M-357.99243585396016,18.670652120955197 L-304.42763388270873,-5.496307632629964 M-304.42763388270873,-5.496307632629964 L-304.4802653307481,-3.8141460582128275 M-304.4802653307481,-3.8141460582128275 L-304.60019736237496,-2.108848952964877 M-304.60019736237496,-2.108848952964877 L-304.786952609262,-0.38499002133869453 M-304.786952609262,-0.38499002133869453 L-305.0398926819603,1.3528075064562017 M-305.0398926819603,1.3528075064562017 L-305.3582134689634,3.099937638310564 M-305.3582134689634,3.099937638310564 L-305.7409528389197,4.851767537517674 M-305.7409528389197,4.851767537517674 L-306.1869961808611,6.603679531520697 M-306.1869961808611,6.603679531520697 L-306.69506978462994,8.351049458799366 M-306.69506978462994,8.351049458799366 L-307.2637570457616,10.089307703744453 M-307.2637570457616,10.089307703744453 L-307.8914950782888,11.8138901247886 M-307.8914950782888,11.8138901247886 L-308.5765791716418,13.5203080714262 M-308.5765791716418,13.5203080714262 L-309.31716996133173,15.204104381913453 M-309.31716996133173,15.204104381913453 L-310.11129401641404,16.860878589429888 M-310.11129401641404,16.860878589429888 L-310.9568510809912,18.486315261145933 M-310.9568510809912,18.486315261145933 L-311.85161795686963,20.07618222858281 M-311.85161795686963,20.07618222858281 L-312.7932520323284,21.626314606458152 M-312.7932520323284,21.626314606458152 L-313.7792963160873,23.132642841499433 M-313.7792963160873,23.132642841499433 L-313.76790206525925,23.151477263360505 M-313.76790206525925,23.151477263360505 L-313.76139610587165,23.175417755785986 M-313.76139610587165,23.175417755785986 L-313.76015454936976,23.20307833080915 M-313.76015454936976,23.20307833080915 L-313.7642503879754,23.23284561384139 M-313.7642503879754,23.23284561384139 L-313.7734445039948,23.262989195501348 M-313.7734445039948,23.262989195501348 L-313.78720313177894,23.291755650667483 M-313.78720313177894,23.291755650667483 L-313.8047274015363,23.31749684620104 M-313.8047274015363,23.31749684620104 L-313.8249981291631,23.338676446603586 M-313.8249981291631,23.338676446603586 L-313.84683745118423,23.354099237243986 M-313.84683745118423,23.354099237243986 L-313.86897766695574,23.362857331098553 M-313.86897766695574,23.362857331098553 L-313.8901318416863,23.36443485099096 M-313.8901318416863,23.36443485099096 L-313.90906967301,23.35875781088879 M-313.90906967301,23.35875781088879 L-313.92469123924457,23.34612840832699 M-313.92469123924457,23.34612840832699 L-314.9151638546854,24.859468714278364 M-314.9151638546854,24.859468714278364 L-315.8609719157239,26.417212041207563 M-315.8609719157239,26.417212041207563 L-316.7592538062702,28.01467775234073 M-316.7592538062702,28.01467775234073 L-317.60730109861834,29.64703271186795 M-317.60730109861834,29.64703271186795 L-318.4025683205316,31.309342197032322 M-318.4025683205316,31.309342197032322 L-319.14267934681175,32.99657657790914 M-319.14267934681175,32.99657657790914 L-319.82543846425415,34.70363476984244 M-319.82543846425415,34.70363476984244 L-320.4488357483789,36.42535096165125 M-320.4488357483789,36.42535096165125 L-321.011054678308,38.1565453061728 M-321.011054678308,38.1565453061728 L-321.510478203277,39.8919885264724 M-321.510478203277,39.8919885264724 L-321.9456921029375,41.62646500137964 M-321.9456921029375,41.62646500137964 L-322.3154906922632,43.35479411303686 M-322.3154906922632,43.35479411303686 L-322.6188786706168,45.071793071149614 M-322.6188786706168,45.071793071149614 L-322.85507374520023,46.772367601364124 M-322.85507374520023,46.772367601364124 L-323.0235078679448,48.45148831502195 M-323.0235078679448,48.45148831502195 L-323.1238273366864,50.1041807554484 M-323.1238273366864,50.1041807554484 L-323.15589254104657,51.72561367733158 M-323.15589254104657,51.72561367733158 L-323.16373438512926,55.98975230549587 M-323.15589254104657,51.72561367733158 L-326.6692305329175,50.03590955232755 M-326.6692305329175,50.03590955232755 L-326.6692309426576,54.294053231381895 M-326.6692305329175,50.03590955232755 L-326.6401210611873,48.41681213380241 M-326.6401210611873,48.41681213380241 L-326.54275415635595,46.766609745963706 M-326.54275415635595,46.766609745963706 L-326.3772609932348,45.09012621141022 M-326.3772609932348,45.09012621141022 L-326.14398671614435,43.39232794762006 M-326.14398671614435,43.39232794762006 L-325.84349085109477,41.67823581858204 M-325.84349085109477,41.67823581858204 L-325.4765471823408,39.952935082234774 M-325.4765471823408,39.952935082234774 L-325.04414246781266,38.221598997016144 M-325.04414246781266,38.221598997016144 L-324.54747397822166,36.48939827623417 M-324.54747397822166,36.48939827623417 L-323.9879475766719,34.761538223547916 M-323.9879475766719,34.761538223547916 L-323.36717204772117,33.04323743501732 M-323.36717204772117,33.04323743501732 L-322.6869558511164,31.339664820561836 M-322.6869558511164,31.339664820561836 L-321.9493009863006,29.65597496737621 M-321.9493009863006,29.65597496737621 L-321.1563954668677,27.99725754550991 M-321.1563954668677,27.99725754550991 L-320.31060795500366,26.368530609165134 M-320.31060795500366,26.368530609165134 L-319.4144767343753,24.774717206293587 M-319.4144767343753,24.774717206293587 L-318.4707033303881,23.22063872928652 M-318.4707033303881,23.22063872928652 L-317.4821428345008,21.710964102317064 M-317.4821428345008,21.710964102317064 L-317.4664838422434,21.72359812992204 M-317.4664838422434,21.72359812992204 L-317.44751847553175,21.729294815128526 M-317.44751847553175,21.729294815128526 L-317.4263482041275,21.727750778275322 M-317.4263482041275,21.727750778275322 L-317.4042042995836,21.71903808306797 M-317.4042042995836,21.71903808306797 L-317.3823738989789,21.703669957379304 M-317.3823738989789,21.703669957379304 L-317.36212416236435,21.682551096622603 M-317.36212416236435,21.682551096622603 L-317.3446317999071,21.65687323813171 M-317.3446317999071,21.65687323813171 L-317.3309140679555,21.628168977402595 M-317.3309140679555,21.628168977402595 L-317.32176750313954,21.598082869621237 M-317.32176750313954,21.598082869621237 L-317.317723104199,21.568364999220023 M-317.317723104199,21.568364999220023 L-317.3190169991865,21.540742902378724 M-317.3190169991865,21.540742902378724 L-317.32557314199676,21.516827710501218 M-317.32557314199676,21.516827710501218 L-317.3370125156632,21.498003945857306 M-308.0300954738302,-7.075013375652816 L-308.0796407716382,-5.395457630598571 M-308.0796407716382,-5.395457630598571 L-308.19650479247,-3.692890237977508 M-308.19650479247,-3.692890237977508 L-308.38021857793274,-1.971877833622898 M-308.38021857793274,-1.971877833622898 L-308.6301520414049,-0.2370363509400022 M-308.6301520414049,-0.2370363509400022 L-308.9455091353484,1.5070356571083607 M-308.9455091353484,1.5070356571083607 L-309.325335640184,3.255712998216552 M-309.325335640184,3.255712998216552 L-309.76852462961654,5.004385787298247 M-309.76852462961654,5.004385787298247 L-310.2738098843247,6.748437843896795 M-310.2738098843247,6.748437843896795 L-310.8397819977413,8.483307622595703 M-310.8397819977413,8.483307622595703 L-311.46488507751565,10.204439228144338 M-311.46488507751565,10.204439228144338 L-312.14742107740653,11.90735233238621 M-312.14742107740653,11.90735233238621 L-312.8855570581643,13.58759823627048 M-312.8855570581643,13.58759823627048 L-313.67732573114745,15.240785047679992 M-313.67732573114745,15.240785047679992 L-314.5206326569421,16.86260597809735 M-314.5206326569421,16.86260597809735 L-315.4132601386416,18.44883757948986 M-315.4132601386416,18.44883757948986 L-316.35287078777947,19.995323790533973 M-316.35287078777947,19.995323790533973 L-317.3370125156632,21.498003945857306 M-308.0300954738302,-7.075013375652816 L-361.59384960933744,16.97780163352445 M-361.10465400648,44.225930280087255 L-361.59384960933744,16.97780163352445 M-361.10465400648,44.225930280087255 L-364.8204076901185,45.95979592364847 M-364.29216316953875,72.49324002910299 L-364.8204076901185,45.95979592364847 M-364.8204076901185,45.95979592364847 L-361.26878695695177,47.70192552037423 M-313.92469123924457,23.34612840832699 L-317.4821428345008,21.710964102317064 M-313.7792963160873,23.132642841499433 L-317.3370125156632,21.498003945857306 M-304.42763388270873,-5.496307632629964 L-308.0300954738302,-7.075013375652816 M-357.99243585396016,18.670652120955197 L-361.59384960933744,16.97780163352445 M-357.5526430431689,45.95979557562242 L-361.10465400648,44.225930280087255" stroke="black"  stroke-width="4"  fill="red"/>
<path d="M-315.6124434842294,50.629031156404494 L-315.5898645376319,46.72536660343678 M-315.5898645376319,46.72536660343678 L-315.5510176138265,46.748888363333606 M-315.5510176138265,46.748888363333606 L-315.524988372435,46.776138931691605 M-315.524988372435,46.776138931691605 L-315.5132895636459,46.805534726250244 M-315.5132895636459,46.805534726250244 L-315.51660360520077,46.835368146031385 M-315.51660360520077,46.835368146031385 L-315.5347392396502,46.86390487531412 M-315.5347392396502,46.86390487531412 L-315.56664447556454,46.889486412587644 M-315.56664447556454,46.889486412587644 L-315.61046530717704,46.91062494234865 M-315.61046530717704,46.91062494234865 L-315.66365554076197,46.9260913520265 M-315.66365554076197,46.9260913520265 L-315.72312240713586,46.9349857221398 M-315.72312240713586,46.9349857221398 L-315.7854093481078,46.93679089905106 M-315.7854093481078,46.93679089905106 L-315.8468938550145,46.931401654865056 M-315.8468938550145,46.931401654865056 L-315.9040019661835,46.91913190945718 M-315.9040019661835,46.91913190945718 L-315.95341248467025,46.90069482243473 M-315.95341248467025,46.90069482243473 L-315.9922543542491,46.87716338638063 M-315.9922543542491,46.87716338638063 L-316.0182697868838,46.84990529401057 M-316.0182697868838,46.84990529401057 L-316.02994902043497,46.8205059350006 M-316.02994902043497,46.8205059350006 L-316.0266141212327,46.7906737268313 M-316.0266141212327,46.7906737268313 L-316.00846112524016,46.762142707642965 M-316.00846112524016,46.762142707642965 L-315.9765460010069,46.736570070922596 M-315.9765460010069,46.736570070922596 L-315.9327250197151,46.71544159307564 M-315.9327250197151,46.71544159307564 L-315.87954440937847,46.69998408401091 M-315.87954440937847,46.69998408401091 L-315.820094734494,46.69109542401435 M-315.820094734494,46.69109542401435 L-315.7578286150863,46.68929145874324 M-315.7578286150863,46.68929145874324 L-315.69636378957307,46.69467713838441 M-315.69636378957307,46.69467713838441 L-315.6392697112333,46.70693935990812 M-315.6392697112333,46.70693935990812 L-315.5898645376319,46.72536660343678 M-315.6124434842294,50.629031156404494 L-315.6617474104436,50.61054336388918 M-315.6617474104436,50.61054336388918 L-315.7187247660838,50.59824084960775 M-315.7187247660838,50.59824084960775 L-315.7800641747267,50.592837472753786 M-315.7800641747267,50.592837472753786 L-315.8422034630307,50.59464736582913 M-315.8422034630307,50.59464736582913 L-315.9015322579987,50.60356523357018 M-315.9015322579987,50.60356523357018 L-315.9546049568937,50.6190735342762 M-315.9546049568937,50.6190735342762 L-315.9983372647771,50.64027143577209 M-315.9983372647771,50.64027143577209 L-316.03018810607387,50.66592809535791 M-316.03018810607387,50.66592809535791 L-316.04830495023896,50.694552853323216 M-316.04830495023896,50.694552853323216 L-316.05163393478256,50.724483070466476 M-316.05163393478256,50.724483070466476 L-316.03997937562985,50.753979011527804 M-316.03997937562985,50.753979011527804 L-316.014017777547,50.78132664719766 M-316.014017777547,50.78132664719766 L-315.97525578077375,50.804935381082714 M-315.97525578077375,50.804935381082714 L-315.92594653137917,50.82343302947311 M-315.92594653137917,50.82343302947311 L-315.86895520028065,50.83574307697188 M-315.86895520028065,50.83574307697188 L-315.80759619049707,50.84115002279236 M-315.80759619049707,50.84115002279236 L-315.74543616538017,50.839338916573865 M-315.74543616538017,50.839338916573865 L-315.6860902487556,50.83041533163282 M-315.6860902487556,50.83041533163282 L-315.6330079655304,50.81489811927281 M-315.6330079655304,50.81489811927281 L-315.58927580641307,50.793690153393925 M-315.58927580641307,50.793690153393925 L-315.5574348128996,50.76802458221414 M-315.5574348128996,50.76802458221414 L-315.5393352594069,50.73939410707118 M-315.5393352594069,50.73939410707118 L-315.53602704753916,50.70946267681302 M-315.53602704753916,50.70946267681302 L-315.54770110232494,50.6799703046247 M-315.54770110232494,50.6799703046247 L-315.57367645316094,50.65263020230009 M-315.57367645316094,50.65263020230009 L-315.6124434842294,50.629031156404494 M-315.3173178537188,46.59392555123577 L-315.2201925366519,46.65271212105438 M-315.2201925366519,46.65271212105438 L-315.15509295071547,46.72082406364001 M-315.15509295071547,46.72082406364001 L-315.125809491665,46.79430707693524 M-315.125809491665,46.79430707693524 L-315.13405540207395,46.86889260586179 M-315.13405540207395,46.86889260586179 L-315.17936209414495,46.94024538935855 M-315.17936209414495,46.94024538935855 L-315.25910584776057,47.00421563609848 M-315.25910584776057,47.00421563609848 L-315.36865763789183,47.057080819671114 M-315.36865763789183,47.057080819671114 L-315.5016506636571,47.09576316865082 M-315.5016506636571,47.09576316865082 L-315.6503506024412,47.11800989308745 M-315.6503506024412,47.11800989308745 L-315.80610640736757,47.12252506735433 M-315.80610640736757,47.12252506735433 L-315.95985503270185,47.1090453930766 M-315.95985503270185,47.1090453930766 L-316.1026508510804,47.07835661809281 M-316.1026508510804,47.07835661809281 L-316.2261877897772,47.03224613174791 M-316.2261877897772,47.03224613174791 L-316.3232824398692,46.97339864656465 M-316.3232824398692,46.97339864656465 L-316.3882958977416,46.90523959566167 M-316.3882958977416,46.90523959566167 L-316.4174568354433,46.831734388206314 M-316.4174568354433,46.831734388206314 L-316.4090806532531,46.75715639011514 M-316.4090806532531,46.75715639011514 L-316.3636654512984,46.68583929491564 M-316.3636654512984,46.68583929491564 L-316.2838598958756,46.62192467644934 M-316.2838598958756,46.62192467644934 L-316.1743071702383,46.56912231736044 M-316.1743071702383,46.56912231736044 L-316.0413742895897,46.53049559665283 M-316.0413742895897,46.53049559665283 L-315.89278179785606,46.50828456055393 M-315.89278179785606,46.50828456055393 L-315.73715603921084,46.50377700073011 M-315.73715603921084,46.50377700073011 L-315.5835305987064,46.51723431328605 M-315.5835305987064,46.51723431328605 L-315.4408223088428,46.54787614712518 M-315.4408223088428,46.54787614712518 L-315.3173178537188,46.59392555123577 M-315.31459843854464,46.13502331795689 L-315.2174496345083,46.19378709005571 M-315.2174496345083,46.19378709005571 L-315.152334195752,46.26187262132515 M-315.152334195752,46.26187262132515 L-315.1230434427771,46.33532714400508 M-315.1230434427771,46.33532714400508 L-315.13129104728114,46.40988375846689 M-315.13129104728114,46.40988375846689 L-315.1766083282341,46.48120888414087 M-315.1766083282341,46.48120888414087 L-315.25637095460706,46.54515433751578 M-315.25637095460706,46.54515433751578 L-315.36594880713494,46.59799903380667 M-315.36594880713494,46.59799903380667 L-315.4989735703142,46.63666639305495 M-315.4989735703142,46.63666639305495 L-315.64770907459297,46.658904497144704 M-315.64770907459297,46.658904497144704 L-315.80350220177206,46.66341792187359 M-315.80350220177206,46.66341792187359 L-315.95728773176006,46.649943470734286 M-315.95728773176006,46.649943470734286 L-316.1001178874244,46.61926658755851 M-316.1001178874244,46.61926658755851 L-316.2236845969197,46.573173970047606 M-316.2236845969197,46.573173970047606 L-316.32080271954203,46.514349291588815 M-316.32080271954203,46.514349291588815 L-316.3858319890787,46.44621665900115 M-316.3858319890787,46.44621665900115 L-316.41500016210114,46.37273994542909 M-316.41500016210114,46.37273994542909 L-316.4066222233282,46.298190860696934 M-316.4066222233282,46.298190860696934 L-316.3611963803547,46.226901418033094 M-316.3611963803547,46.226901418033094 L-316.2813719223542,46.16301158469042 M-316.2813719223542,46.16301158469042 L-316.1717931336475,46.110229703575726 M-316.1717931336475,46.110229703575726 L-316.0388285442143,46.071617964358325 M-316.0388285442143,46.071617964358325 L-315.8902005383585,46.04941554331907 M-315.8902005383585,46.04941554331907 L-315.73453751978604,46.04490973189519 M-315.73453751978604,46.04490973189519 L-315.58087523370864,46.058361824645544 M-315.58087523370864,46.058361824645544 L-315.43813264872176,46.088991773610815 M-315.43813264872176,46.088991773610815 L-315.31459843854464,46.13502331795689 M-315.31459843854464,46.13502331795689 L-315.3173178537188,46.59392555123577" stroke="black"  stroke-width="4"  fill="red"/>
<path d="M-361.10465400648,44.225930280087255 L-364.8204076901185,45.95979592364847 M-364.8204076901185,45.95979592364847 L-365.3636971495755,18.670652460760152 M-361.59384960933744,16.97780163352445 L-365.3636971495755,18.670652460760152 M-361.10465400648,44.225930280087255 L-361.59384960933744,16.97780163352445 M-360.788592853008,74.27354806392714 L-286.3248400777595,112.11164046454229 M-286.3248400777595,112.11164046454229 L-286.2250543494422,107.5355899697426 M-286.2250543494422,107.5355899697426 L-201.1478196203219,150.51592707031705 M-201.4742612381949,155.22770596915802 L-201.1478196203219,150.51592707031705 M-201.4742612381949,155.22770596915802 L262.08162836403835,390.7795003644695 M262.08162836403835,390.7795003644695 L264.0485566175719,385.5294078484675 M264.0485566175719,385.5294078484675 L422.2827646494002,465.46806151656256 M419.603416316814,470.8227931818095 L422.2827646494002,465.46806151656256 M419.603416316814,470.8227931818095 L1067.834801651593,800.2157950267164 M1067.834801651593,800.2157950267164 L1106.748302022705,767.7889537685447 M1106.748302022705,767.7889537685447 L1120.8101668028783,774.6865345236982 M1120.8101668028783,774.6865345236982 L1162.564385495379,740.4294895841311 M-365.3636971495755,18.670652460760152 L1162.564385495379,740.4294895841311 M-364.8204076901185,45.95979592364847 L-361.26878695695177,47.70192552037423 M-360.788592853008,74.27354806392714 L-361.26878695695177,47.70192552037423 M1121.192648610154,767.7889702647868 L1107.1951180684969,760.9562682601883 M1068.4476083022366,793.419367521502 L1107.1951180684969,760.9562682601883 M1068.4476083022366,793.419367521502 L422.3915611244886,466.70245935323226 M422.3915611244886,466.70245935323226 L425.0712986647052,461.352143715283 M425.0712986647052,461.352143715283 L267.17086263349756,381.9646895096665 M265.20010006250163,387.20918880344743 L267.17086263349756,381.9646895096665 M265.20010006250163,387.20918880344743 L-197.83437358633307,153.04809354440465 M-197.83437358633307,153.04809354440465 L-197.49931475325366,148.34290001241914 M-197.49931475325366,148.34290001241914 L-282.5538560337434,105.58010802399133 M-282.6624315882964,110.14970886494825 L-282.5538560337434,105.58010802399133 M-282.6624315882964,110.14970886494825 L-357.1250291102093,72.49323967343821 M-357.1250291102093,72.49323967343821 L-357.5526430431689,45.95979557562242 M-357.5526430431689,45.95979557562242 L-361.10465400648,44.225930280087255 M1162.7548848605802,733.5004434180258 L-361.59384960933744,16.97780163352445 M1121.192648610154,767.7889702647868 L1162.7548848605802,733.5004434180258 M-360.788592853008,74.27354806392714 L-357.1250291102093,72.49323967343821 M-361.26878695695177,47.70192552037423 L-357.5526430431689,45.95979557562242 M-282.6624315882964,110.14970886494825 L-286.3248400777595,112.11164046454229 M-282.5538560337434,105.58010802399133 L-286.2250543494422,107.5355899697426 M-201.4742612381949,155.22770596915802 L-197.83437358633307,153.04809354440465 M-201.1478196203219,150.51592707031705 L-197.49931475325366,148.34290001241914 M265.20010006250163,387.20918880344743 L262.08162836403835,390.7795003644695 M267.17086263349756,381.9646895096665 L264.0485566175719,385.5294078484675 M419.603416316814,470.8227931818095 L422.3915611244886,466.70245935323226 M422.2827646494002,465.46806151656256 L425.0712986647052,461.352143715283 M1068.4476083022366,793.419367521502 L1067.834801651593,800.2157950267164 M1107.1951180684969,760.9562682601883 L1106.748302022705,767.7889537685447 M1120.8101668028783,774.6865345236982 L1121.192648610154,767.7889702647868 M1162.564385495379,740.4294895841311 L1162.7548848605802,733.5004434180258" stroke="black"  stroke-width="4"  fill="red"/></svg>