<svg viewBox="0 0 800 800" xmlns="http://www.w3.org/2000/svg"><path d="M-459.590687053028,79.90973194405439 L-479.31208936473,87.27724525393904 M-479.3120888793974,82.23351971109463 L-479.31208936473,87.27724525393904 M-479.3120888793974,82.23351971109463 L-479.31220014363066,82.1870165347949 M-479.31220014363066,82.1870165347949 L-479.31226690444157,82.14049479397971 M-479.31226690444157,82.14049479397971 L-479.3122891587217,82.09395449142448 M-459.54209050467944,74.77525880451259 L-479.3122891587217,82.09395449142448 M-459.590687053028,79.90973194405439 L-459.54209050467944,74.77525880451259 M1195.6730550067252,713.0173383621222 L1179.0406596762994,706.8038166257379 M1185.7809317283716,768.5637414588097 L1179.0406596762994,706.8038166257379 M1185.7809317283716,768.5637414588097 L378.03970035821203,451.8240419439806 M375.2904687546752,455.65671733496316 L378.03970035821203,451.8240419439806 M188.19261726578225,381.90445183655356 L375.2904687546752,455.65671733496316 M191.4304726583323,378.6489353469176 L188.19261726578225,381.90445183655356 M191.4304726583323,378.6489353469176 L-337.43736207690847,171.26390589516137 M-341.4093571414644,173.14018696585887 L-337.43736207690847,171.26390589516137 M-435.1028476221502,136.20706811700632 L-341.4093571414644,173.14018696585887 M-431.1009602191741,134.53558402810086 L-435.1028476221502,136.20706811700632 M-431.1009602191741,134.53558402810086 L-512.5273050507587,102.60585827818699 M-475.4965121259478,88.70266664628997 L-512.5273050507587,102.60585827818699 M-475.4965121259478,88.70266664628997 L-479.31208936473,87.27724525393904 M1191.7647959303974,681.1049085695084 L-459.590687053028,79.90973194405439 M1195.6730550067252,713.0173383621222 L1191.7647959303974,681.1049085695084 M-467.2849638551205,84.19836166245875 L-467.3386210763904,84.18283740425335 M-467.3386210763904,84.18283740425335 L-467.4006160809291,84.17250698180715 M-467.4006160809291,84.17250698180715 L-467.46734599527383,84.16796977531737 M-467.46734599527383,84.16796977531737 L-467.5349357618361,84.16948953884838 M-467.5349357618361,84.16948953884838 L-467.59945849712904,84.17697786381984 M-467.59945849712904,84.17697786381984 L-467.65716709217133,84.19000020696285 M-467.65716709217133,84.19000020696285 L-467.7047079166439,84.20780019428332 M-467.7047079166439,84.20780019428332 L-467.7393185977993,84.22934434420779 M-467.7393185977993,84.22934434420779 L-467.75898600279174,84.2533809912398 M-467.75898600279174,84.2533809912398 L-467.7625659279977,84.27851402786592 M-467.7625659279977,84.27851402786592 L-467.74984774199424,84.3032825692635 M-467.74984774199424,84.3032825692635 L-467.721569532707,84.32624727610403 M-467.721569532707,84.32624727610403 L-467.67937227385187,84.34607242496884 M-467.67937227385187,84.34607242496884 L-467.62570875558686,84.3616056796036 M-467.62570875558686,84.3616056796036 L-467.563697203085,84.37194298308555 M-467.563697203085,84.37194298308555 L-467.4969440902988,84.37648344956176 M-467.4969440902988,84.37648344956176 L-467.4293297888569,84.3749625779144 M-467.4293297888569,84.3749625779144 L-467.3647868032166,84.36746903070446 M-467.3647868032166,84.36746903070446 L-467.3070668812386,84.35443854742601 M-467.3070668812386,84.35443854742601 L-467.2595262482429,84.33662936703763 M-467.2595262482429,84.33662936703763 L-467.2249272331137,84.31507707703264 M-467.2249272331137,84.31507707703264 L-467.20528029600894,84.29103520778278 M-467.20528029600894,84.29103520778278 L-467.2017249518419,84.26590106306605 M-467.2017249518419,84.26590106306605 L-467.21446620048755,84.24113578156937 M-467.21446620048755,84.24113578156937 L-467.2427606710945,84.2181779558814 M-467.2427606710945,84.2181779558814 L-467.2849638551205,84.19836166245875 M1185.4355178946278,693.4970129028425 L1185.2304884981356,693.4302504044994 M1185.2304884981356,693.4302504044994 L1185.0397322890283,693.3858866424515 M1185.0397322890283,693.3858866424515 L1184.873976852068,693.3663655653114 M1184.873976852068,693.3663655653114 L1184.7432113447223,693.3729564125903 M1184.7432113447223,693.3729564125903 L1184.6546056546874,693.4051203706631 M1184.6546056546874,693.4051203706631 L1184.6133756806669,693.4610185198482 M1184.6133756806669,693.4610185198482 L1184.6221795454364,693.5375022554641 M1184.6221795454364,693.5375022554641 L1184.6805156202956,693.6301345138311 M1184.6805156202956,693.6301345138311 L1184.7847488516989,693.7334418540493 M1184.7847488516989,693.7334418540493 L1184.9287665816043,693.8414004627848 M1184.9287665816043,693.8414004627848 L1185.104631056942,693.9478915335955 M1185.104631056942,693.9478915335955 L1185.3017588337095,694.046589574357 M1185.3017588337095,694.046589574357 L1185.5090369608072,694.1318786729502 M1185.5090369608072,694.1318786729502 L1185.7139941343364,694.1986432352413 M1185.7139941343364,694.1986432352413 L1185.9049074908305,694.243068283793 M1185.9049074908305,694.243068283793 L1186.0708034967636,694.2626184511206 M1186.0708034967636,694.2626184511206 L1186.2018706857632,694.25609519354 M1186.2018706857632,694.25609519354 L1186.2902878348593,694.2238071624122 M1186.2902878348593,694.2238071624122 L1186.3314648440003,694.1678365492498 M1186.3314648440003,694.1678365492498 L1186.322545156985,694.0912708909631 M1186.322545156985,694.0912708909631 L1186.264056990877,693.9985660575438 M1186.264056990877,693.9985660575438 L1186.1598806889335,693.8952896997664 M1186.1598806889335,693.8952896997664 L1186.015533304025,693.7872437153765 M1186.015533304025,693.7872437153765 L1185.8396104586025,693.6807816947805 M1185.8396104586025,693.6807816947805 L1185.6424988451288,693.5821449525582 M1185.6424988451288,693.5821449525582 L1185.4355178946278,693.4970129028425 M-475.48721977628884,83.64979047219964 L-479.3120888793974,82.23351971109463 M-475.48721977628884,83.64979047219964 L-475.4965121259478,88.70266664628997 M-475.48716280044664,83.50997141012544 L-475.48722630145494,83.55659641841237 M-475.48722630145494,83.55659641841237 L-475.4872452923662,83.60320277336507 M-475.4872452923662,83.60320277336507 L-475.48721977628884,83.64979047219964 M-479.3122891587217,82.09395449142448 L-475.48716280044664,83.50997141012544 M1187.6959568210561,699.2008573299665 L1204.4610304905611,705.4070909901769 M1204.4610304905611,705.4070909901769 L1200.2972341788684,673.5353732589061 M1200.2972341788684,673.5353732589061 L-459.54209050467944,74.77525880451259 M-475.48716280044664,83.50997141012544 L-512.6124553583779,97.32228177849436 M-512.6124553583779,97.32228177849436 L-430.97061627783626,129.0498208063202 M-430.97061627783626,129.0498208063202 L-434.98299914531685,130.71096470660154 M-434.98299914531685,130.71096470660154 L-341.0131759596104,167.42180416607619 M-341.0131759596104,167.42180416607619 L-337.03093736908886,165.55652940579677 M-337.03093736908886,165.55652940579677 L193.96261723235853,371.9105130601976 M193.96261723235853,371.9105130601976 L190.72208756740906,375.15283134599287 M190.72208756740906,375.15283134599287 L378.8059946054311,448.6308680401587 M378.8059946054311,448.6308680401587 L381.55208690100176,444.81127432611487 M381.55208690100176,444.81127432611487 L1194.9246763078306,760.9030094609674 M1187.6959568210561,699.2008573299665 L1194.9246763078306,760.9030094609674 M-466.95870103564505,78.92537291432029 L-466.85291892412056,78.97456888193517 M-466.85291892412056,78.97456888193517 L-466.78197278490074,79.03156972762497 M-466.78197278490074,79.03156972762497 L-466.74999411622,79.09306651157135 M-466.74999411622,79.09306651157135 L-466.75885480233273,79.1554870880766 M-466.75885480233273,79.1554870880766 L-466.8080525369288,79.2152032330776 M-466.8080525369288,79.2152032330776 L-466.89473918790543,79.26874170317922 M-466.89473918790543,79.26874170317922 L-467.01388322682635,79.31298666189281 M-467.01388322682635,79.31298666189281 L-467.15856039929486,79.34536180394122 M-467.15856039929486,79.34536180394122 L-467.320356392803,79.3639813080448 M-467.320356392803,79.3639813080448 L-467.4898573796306,79.36776031727976 M-467.4898573796306,79.36776031727976 L-467.65719944699924,79.35647841418927 M-467.65719944699924,79.35647841418927 L-467.8126450406469,79.33079337654317 M-467.8126450406469,79.33079337654317 L-467.9471515581404,79.29220146109247 M-467.9471515581404,79.29220146109247 L-468.05289746285587,79.24295000855858 M-468.05289746285587,79.24295000855858 L-468.1237416581282,79.18590626508495 M-468.1237416581282,79.18590626508495 L-468.1555752777865,79.12438926160519 M-468.1555752777865,79.12438926160519 L-468.1465602923072,79.06197554690488 M-468.1465602923072,79.06197554690488 L-468.0972339953079,79.0022919050648 M-468.0972339953079,79.0022919050648 L-468.0104740666702,78.94880409848247 M-468.0104740666702,78.94880409848247 L-467.89132882206763,78.90461635724637 M-467.89132882206763,78.90461635724637 L-467.7467227921162,78.87229187871765 M-467.7467227921162,78.87229187871765 L-467.5850539912326,78.85370487781353 M-467.5850539912326,78.85370487781353 L-467.4157070131496,78.8499328003548 M-467.4157070131496,78.8499328003548 L-467.24851084989973,78.8611943436531 M-467.24851084989973,78.8611943436531 L-467.0931690051003,78.88683662341708 M-467.0931690051003,78.88683662341708 L-466.95870103564505,78.92537291432029 M1193.9676749752778,685.4354094464642 L1194.489193554262,685.6478116315407 M1194.489193554262,685.6478116315407 L1194.9863992957378,685.894001126637 M1194.9863992957378,685.894001126637 L1195.4304336923567,686.1597133927806 M1195.4304336923567,686.1597133927806 L1195.7952677308283,686.4294526415889 M1195.7952677308283,686.4294526415889 L1196.0596629356853,686.6875475234824 M1196.0596629356853,686.6875475234824 L1196.2083105089298,686.9190247625289 M1196.2083105089298,686.9190247625289 L1196.2323506608957,687.1103422292455 M1196.2323506608957,687.1103422292455 L1196.1303232143348,687.2503370025127 M1196.1303232143348,687.2503370025127 L1195.9082671139315,687.3308847483416 M1195.9082671139315,687.3308847483416 L1195.57895908138,687.3472282611145 M1195.57895908138,687.3472282611145 L1195.161557806486,687.298401417409 M1195.161557806486,687.298401417409 L1194.6805898419536,687.1873288524831 M1194.6805898419536,687.1873288524831 L1194.1640643308135,687.0204882526202 M1194.1640643308135,687.0204882526202 L1193.6417809033212,686.8075096813675 M1193.6417809033212,686.8075096813675 L1193.144470154917,686.5609355087452 M1193.144470154917,686.5609355087452 L1192.700802893716,686.2950409731834 M1192.700802893716,686.2950409731834 L1192.3367240035698,686.0253636824934 M1192.3367240035698,686.0253636824934 L1192.0732988681468,685.767560733852 M1192.0732988681468,685.767560733852 L1191.9256143220912,685.5365386008236 M1191.9256143220912,685.5365386008236 L1191.902309273746,685.3457350797939 M1191.902309273746,685.3457350797939 L1192.0046754495395,685.2061953200828 M1192.0046754495395,685.2061953200828 L1192.2265967018009,685.1259395840704 M1192.2265967018009,685.1259395840704 L1192.5553268017686,685.1096580135365 M1192.5553268017686,685.1096580135365 L1192.9718394085564,685.158302498673 M1192.9718394085564,685.158302498673 L1193.45181202133,685.2689904279936 M1193.45181202133,685.2689904279936 L1193.9676749752778,685.4354094464642 M1191.7647959303974,681.1049085695084 L1200.2972341788684,673.5353732589061 M1204.2236096974946,705.6123389322188 L1187.462130793571,699.4059062819578 M1204.2236096974946,705.6123389322188 L1195.6730550067252,713.0173383621222 M1187.462130793571,699.4059062819578 L1179.0406596762994,706.8038166257379 M1187.462130793571,699.4059062819578 L1187.5400739279814,699.3376350549555 M1187.5400739279814,699.3376350549555 L1187.6180159419475,699.2692854038639 M1187.6180159419475,699.2692854038639 L1187.6959568210561,699.2008573299665 M1185.7809317283716,768.5637414588097 L1194.9246763078306,760.9030094609674 M378.03970035821203,451.8240419439806 L381.55208690100176,444.81127432611487 M375.2904687546752,455.65671733496316 L378.8059946054311,448.6308680401587 M188.19261726578225,381.90445183655356 L190.72208756740906,375.15283134599287 M191.4304726583323,378.6489353469176 L193.96261723235853,371.9105130601976 M-337.43736207690847,171.26390589516137 L-337.03093736908886,165.55652940579677 M-341.4093571414644,173.14018696585887 L-341.0131759596104,167.42180416607619 M-435.1028476221502,136.20706811700632 L-434.98299914531685,130.71096470660154 M-431.1009602191741,134.53558402810086 L-430.97061627783626,129.0498208063202 M-512.5273050507587,102.60585827818699 L-512.6124553583779,97.32228177849436 M1204.4610304905611,705.4070909901769 L1204.3818922752755,705.4755861915934 M1204.3818922752755,705.4755861915934 L1204.302752005972,705.5440021726703 M1204.302752005972,705.5440021726703 L1204.2236096974946,705.6123389322188 M-467.2849638551205,84.19836166245875 L-467.2582430929797,79.57862036731456 M-467.2582430929797,79.57862036731456 L-467.21594520962617,79.59831913082951 M-467.21594520962617,79.59831913082951 L-467.18758678687357,79.62114079808435 M-467.18758678687357,79.62114079808435 L-467.17481605332,79.64575920607251 M-467.17481605332,79.64575920607251 L-467.17837810416415,79.67074429456994 M-467.17837810416415,79.67074429456994 L-467.19806755807167,79.6946435898584 M-467.19806755807167,79.6946435898584 L-467.23274243820583,79.71606807351634 M-467.23274243820583,79.71606807351634 L-467.28038787836726,79.73377164714361 M-467.28038787836726,79.73377164714361 L-467.33823545997006,79.74672486244725 M-467.33823545997006,79.74672486244725 L-467.4029215325735,79.75417397512541 M-467.4029215325735,79.75417397512541 L-467.4706860271235,79.75568582850434 M-467.4706860271235,79.75568582850434 L-467.53758769914225,79.7511722855536 M-467.53758769914225,79.7511722855536 L-467.59973753677934,79.74089627959916 M-467.59973753677934,79.74089627959916 L-467.653521020545,79.72545513469686 M-467.653521020545,79.72545513469686 L-467.6958129532045,79.70574754854135 M-467.6958129532045,79.70574754854135 L-467.7241550426129,79.68291902574356 M-467.7241550426129,79.68291902574356 L-467.7369026110732,79.65829736998683 M-467.7369026110732,79.65829736998683 L-467.7333158697812,79.633313385456 M-467.7333158697812,79.633313385456 L-467.7136058566846,79.60941929294995 M-467.7136058566846,79.60941929294995 L-467.67891925824506,79.58800291907772 M-467.67891925824506,79.58800291907772 L-467.6312736253278,79.57030850430459 M-467.6312736253278,79.57030850430459 L-467.5734374206743,79.5573633988414 M-467.5734374206743,79.5573633988414 L-467.5087716882663,79.54991948896611 M-467.5087716882663,79.54991948896611 L-467.44103183769664,79.54840873957937 M-467.44103183769664,79.54840873957937 L-467.3741534674774,79.55291903467645 M-467.3741534674774,79.55291903467645 L-467.312020251743,79.56318818520424 M-467.312020251743,79.56318818520424 L-467.2582430929797,79.57862036731456 M1185.4355178946278,693.4970129028425 L1193.120430483042,686.7106431278438 M1193.120430483042,686.7106431278438 L1193.3289252962716,686.7956751628799 M1193.3289252962716,686.7956751628799 L1193.5275939339838,686.8941960958608 M1193.5275939339838,686.8941960958608 L1193.7050274587443,687.000533205092 M1193.7050274587443,687.000533205092 L1193.8507502537216,687.1084525104383 M1193.8507502537216,687.1084525104383 L1193.9560852728775,687.2116078668263 M1193.9560852728775,687.2116078668263 L1194.015451856578,687.304204155903 M1194.015451856578,687.304204155903 L1194.0249151473015,687.380680217318 M1194.0249151473015,687.380680217318 L1193.9839152035781,687.436585362915 M1193.9839152035781,687.436585362915 L1193.8953014953156,687.4688356386222 M1193.8953014953156,687.4688356386222 L1193.7636716713907,687.475351269342 M1193.7636716713907,687.475351269342 L1193.596881094397,687.455823960672 M1193.596881094397,687.455823960672 L1193.4047944710007,687.4114508663868 M1193.4047944710007,687.4114508663868 L1193.1984527165203,687.3447644130832 M1193.1984527165203,687.3447644130832 L1192.9896579184244,687.2595751464402 M1192.9896579184244,687.2595751464402 L1192.7909725639295,687.1609927040878 M1192.7909725639295,687.1609927040878 L1192.613597758146,687.0546264447256 M1192.613597758146,687.0546264447256 L1192.4682072680187,686.9467944581269 M1192.4682072680187,686.9467944581269 L1192.3628155655535,686.8436083701658 M1192.3628155655535,686.8436083701658 L1192.3036029590846,686.7510849057583 M1192.3036029590846,686.7510849057583 L1192.2942571024585,686.6746910487816 M1192.2942571024585,686.6746910487816 L1192.3353109787633,686.6188586163968 M1192.3353109787633,686.6188586163968 L1192.4241148133995,686.5867324830563 M1192.4241148133995,686.5867324830563 L1192.5554406951162,686.5801493875974 M1192.5554406951162,686.5801493875974 L1192.7220892103167,686.5996475060263 M1192.7220892103167,686.5996475060263 L1192.9140168279184,686.6439591030166 M1192.9140168279184,686.6439591030166 L1193.120430483042,686.7106431278438 M-466.95870103564505,78.92537291432029 L-466.9619198237914,79.46854450608657 M-466.9619198237914,79.46854450608657 L-466.8561655580979,79.51777513597528 M-466.8561655580979,79.51777513597528 L-466.78523823653495,79.57481614025977 M-466.78523823653495,79.57481614025977 L-466.75326825929346,79.63635624693052 M-466.75326825929346,79.63635624693052 L-466.7621269988076,79.698820793361 M-466.7621269988076,79.698820793361 L-466.81131225515674,79.7585789998679 M-466.81131225515674,79.7585789998679 L-466.8979766156622,79.8121551773745 M-466.8979766156622,79.8121551773745 L-467.01708984400216,79.85643129602306 M-467.01708984400216,79.85643129602306 L-467.1617294763296,79.888829237425 M-467.1617294763296,79.888829237425 L-467.3234833850106,79.90746185339117 M-467.3234833850106,79.90746185339117 L-467.49294019378704,79.91124352376676 M-467.49294019378704,79.91124352376676 L-467.66023856420543,79.89995367603342 M-467.66023856420543,79.89995367603342 L-467.81564348796473,79.87425055071037 M-467.81564348796473,79.87425055071037 L-467.95011473081445,79.83563145727254 M-467.95011473081445,79.83563145727254 L-468.0558328082159,79.78634531786963 M-468.0558328082159,79.78634531786963 L-468.12665823878024,79.72926139675326 M-468.12665823878024,79.72926139675326 L-468.1584832424396,79.667701061598 M-468.1584832424396,79.667701061598 L-468.14947028404424,79.60524338000727 M-468.14947028404424,79.60524338000727 L-468.1001565324783,79.5455176910798 M-468.1001565324783,79.5455176910798 L-468.0134189327831,79.49199219956711 M-468.0134189327831,79.49199219956711 L-467.89430449970416,79.44777332377805 M-467.89430449970416,79.44777332377805 L-467.74973597309133,79.41542606837021 M-467.74973597309133,79.41542606837021 L-467.5881091909192,79.39682597002218 M-467.5881091909192,79.39682597002218 L-467.41880631062907,79.39305123450708 M-467.41880631062907,79.39305123450708 L-467.2516537682209,79.4043207133983 M-467.2516537682209,79.4043207133983 L-467.09635253895,79.42998106188969 M-467.09635253895,79.42998106188969 L-466.9619198237914,79.46854450608657 M1193.9676749752778,685.4354094464642 L1193.0619692368252,686.2355026590976 M1193.0619692368252,686.2355026590976 L1193.5830410261153,686.4479351317343 M1193.5830410261153,686.4479351317343 L1194.0797868642842,686.694159680027 M1194.0797868642842,686.694159680027 L1194.5233749132792,686.9599097160966 M1194.5233749132792,686.9599097160966 L1194.8878022791903,687.2296872403732 M1194.8878022791903,687.2296872403732 L1195.1518541712524,687.487818682343 M1195.1518541712524,687.487818682343 L1195.300241737231,687.719328658507 M1195.300241737231,687.719328658507 L1195.3241205318616,687.9106731452138 M1195.3241205318616,687.9106731452138 L1195.222039857989,688.0506876686304 M1195.222039857989,688.0506876686304 L1195.0000417010385,688.1312467697301 M1195.0000417010385,688.1312467697301 L1194.670899537554,688.1475925858069 M1194.670899537554,688.1475925858069 L1194.2537623923229,688.0987588601616 M1194.2537623923229,688.0987588601616 L1193.7731412134788,687.9876706317981 M1193.7731412134788,687.9876706317981 L1193.2570248956288,687.8208064826273 M1193.2570248956288,687.8208064826273 L1192.7351894175756,687.6077978123031 M1192.7351894175756,687.6077978123031 L1192.238338983893,687.361188740263 M1192.238338983893,687.361188740263 L1191.7951178137666,687.095256507639 M1191.7951178137666,687.095256507639 L1191.431444730414,686.8255409167123 M1191.431444730414,686.8255409167123 L1191.1683616312896,686.5677012912917 M1191.1683616312896,686.5677012912917 L1191.0209356973508,686.336646239213 M1191.0209356973508,686.336646239213 L1190.9977908124981,686.1458154927384 M1190.9977908124981,686.1458154927384 L1191.100209496636,686.0062558009812 M1191.100209496636,686.0062558009812 L1191.322072725504,685.9259885929642 M1191.322072725504,685.9259885929642 L1191.6506375343645,685.9097046943645 M1191.6506375343645,685.9097046943645 L1192.066887115034,685.9583561343403 M1192.066887115034,685.9583561343403 L1192.5465143177382,686.0690598808607 M1192.5465143177382,686.0690598808607 L1193.0619692368252,686.2355026590976" stroke="black"  stroke-width="4"  fill="red"/>
<path d="M1195.6730550067252,713.0173383621222 L1204.1693978345586,782.393226370536 M1195.6730550067252,713.0173383621222 L1179.0406596762994,706.8038166257379 M1186.5314386191747,775.4405038216064 L1179.0406596762994,706.8038166257379 M1204.1693978345586,782.393226370536 L1186.5314386191747,775.4405038216064 M1204.2236096974946,705.6123389322188 L1195.6730550067252,713.0173383621222 M1250.6217632183063,647.0781875780185 L1248.7589977563587,650.6638902126701 M1248.7589977563587,650.6638902126701 L1246.7477272468811,654.2904540749256 M1246.7477272468811,654.2904540749256 L1244.594474675527,657.9460451765134 M1244.594474675527,657.9460451765134 L1242.30634190681,661.6186770589501 M1242.30634190681,661.6186770589501 L1239.890878882966,665.2963509906533 M1239.890878882966,665.2963509906533 L1237.3560682206005,668.967088016079 M1237.3560682206005,668.967088016079 L1234.7103095479931,672.6189695181276 M1234.7103095479931,672.6189695181276 L1231.9624590362912,676.2401176426333 M1231.9624590362912,676.2401176426333 L1229.121634960152,679.8188822775953 M1229.121634960152,679.8188822775953 L1226.1973143379685,683.3437711013706 M1226.1973143379685,683.3437711013706 L1223.199137316761,686.803626416583 M1223.199137316761,686.803626416583 L1220.137118111282,690.1874528623723 M1220.137118111282,690.1874528623723 L1217.021218949328,693.4847892067055 M1217.021218949328,693.4847892067055 L1213.8616760028824,696.6854276475982 M1213.8616760028824,696.6854276475982 L1210.6687484055458,699.7796302349334 M1210.6687484055458,699.7796302349334 L1207.4526427836406,702.7581896052244 M1207.4526427836406,702.7581896052244 L1204.2236096974946,705.6123389322188 M1250.8772717577006,646.5674841714887 L1250.823973536693,646.5912806035685 M1250.823973536693,646.5912806035685 L1250.7663872614087,646.6285027681537 M1250.7663872614087,646.6285027681537 L1250.7077589557446,646.6770708694211 M1250.7077589557446,646.6770708694211 L1250.6515950278283,646.7340764575345 M1250.6515950278283,646.7340764575345 L1250.6011284924168,646.7962312834553 M1250.6011284924168,646.7962312834553 L1250.5592656722004,646.8599476507067 M1250.5592656722004,646.8599476507067 L1250.5284775333423,646.9214908021057 M1250.5284775333423,646.9214908021057 L1250.51051884199,646.9773141240507 M1250.51051884199,646.9773141240507 L1250.5064468697813,647.0241622183187 M1250.5064468697813,647.0241622183187 L1250.5165246109916,647.0592932927675 M1250.5165246109916,647.0592932927675 L1250.5401239479372,647.0807030228449 M1250.5401239479372,647.0807030228449 L1250.5758663709023,647.0871514259281 M1250.5758663709023,647.0871514259281 L1250.6217632183063,647.0781875780185 M1298.42929072332,586.4777180513338 L1294.950998830271,589.6306413947208 M1294.950998830271,589.6306413947208 L1291.5208885658597,592.8744808210477 M1291.5208885658597,592.8744808210477 L1288.1470311185792,596.20085732372 M1288.1470311185792,596.20085732372 L1284.8375282388754,599.6011051840447 M1284.8375282388754,599.6011051840447 L1281.6000410055933,603.0666821426513 M1281.6000410055933,603.0666821426513 L1278.442177207238,606.5888445953182 M1278.442177207238,606.5888445953182 L1275.3712692680053,610.1588562429969 M1275.3712692680053,610.1588562429969 L1272.3942721562196,613.7680664833097 M1272.3942721562196,613.7680664833097 L1269.5181485405544,617.4076005369158 M1269.5181485405544,617.4076005369158 L1266.7494062612311,621.0687624879174 M1266.7494062612311,621.0687624879174 L1264.0944180986019,624.7427584582342 M1264.0944180986019,624.7427584582342 L1261.559321967428,628.4207981381563 M1261.559321967428,628.4207981381563 L1259.1499785902122,632.0941301298113 M1259.1499785902122,632.0941301298113 L1256.8718716603742,635.75414029503 M1256.8718716603742,635.75414029503 L1254.7304206006172,639.392080109871 M1254.7304206006172,639.392080109871 L1252.7306398422645,642.9993695274696 M1252.7306398422645,642.9993695274696 L1250.8772717577006,646.5674841714887 M1320.0213523106943,679.161075418329 L1298.42929072332,586.4777180513338 M1259.713883486674,728.9142756882359 L1320.0213523106943,679.161075418329 M1260.915971553433,735.8357769216469 L1259.713883486674,728.9142756882359 M1204.1693978345586,782.393226370536 L1260.915971553433,735.8357769216469 M1204.2236096974946,705.6123389322188 L1187.462130793571,699.4059062819578 M1187.462130793571,699.4059062819578 L1179.0406596762994,706.8038166257379 M1186.5314386191747,775.4405038216064 L1242.3647843607175,728.9142591505506 M1241.2741727731675,722.0708802856279 L1242.3647843607175,728.9142591505506 M1241.2741727731675,722.0708802856279 L1300.5938301204267,672.3722045196821 M1280.6579223815418,580.7252195771866 L1300.5938301204267,672.3722045196821 M1280.6579223815418,580.7252195771866 L1277.2320856642398,583.8721664786403 M1277.2320856642398,583.8721664786403 L1273.8520543790285,587.108939095246 M1273.8520543790285,587.108939095246 L1270.5257985084188,590.4271782302286 M1270.5257985084188,590.4271782302286 L1267.2613215319122,593.8182395174671 M1267.2613215319122,593.8182395174671 L1264.0661963828427,597.2736030199917 M1264.0661963828427,597.2736030199917 L1260.9479466007845,600.784548900943 M1260.9479466007845,600.784548900943 L1257.9138274133068,604.3423657104072 M1257.9138274133068,604.3423657104072 L1254.9707252382289,607.9384288288036 M1254.9707252382289,607.9384288288036 L1252.125536525726,611.5638909328475 M1252.125536525726,611.5638909328475 L1249.384712251003,615.210084532206 M1249.384712251003,615.210084532206 L1246.7545726628784,618.868245623216 M1246.7545726628784,618.868245623216 L1244.2412087622922,622.5296150478551 M1244.2412087622922,622.5296150478551 L1241.8504405651881,626.185473892863 M1241.8504405651881,626.185473892863 L1239.5877185874917,629.8272417098023 M1239.5877185874917,629.8272417098023 L1237.4584317400702,633.4462053287019 M1237.4584317400702,633.4462053287019 L1235.4675716920822,637.0338213522143 M1235.4675716920822,637.0338213522143 L1233.6198636774172,640.5816035743253 M1233.3649177770378,641.0893279852729 L1233.3200821464864,641.0985282943308 M1233.3200821464864,641.0985282943308 L1233.2853219059405,641.0923892166866 M1233.2853219059405,641.0923892166866 L1233.2625700102801,641.0713435963463 M1233.2625700102801,641.0713435963463 L1233.2531556010238,641.0366102385786 M1233.2531556010238,641.0366102385786 L1233.2576676102074,640.9901704035761 M1233.2576676102074,640.9901704035761 L1233.2758179219984,640.9347421645994 M1233.2758179219984,640.9347421645994 L1233.3065383442242,640.8735579571243 M1233.3065383442242,640.8735579571243 L1233.348077513802,640.8101435840452 M1233.348077513802,640.8101435840452 L1233.3979838629446,640.7482162318963 M1233.3979838629446,640.7482162318963 L1233.45338322371,640.6913504295985 M1233.45338322371,640.6913504295985 L1233.5110865043632,640.6428263217986 M1233.5110865043632,640.6428263217986 L1233.5676425699505,640.6055496927786 M1233.5676425699505,640.6055496927786 L1233.6198636774172,640.5816035743253 M1187.462130793571,699.4059062819578 L1190.6429614147903,696.5550817400784 M1190.6429614147903,696.5550817400784 L1193.8125520978235,693.5811732762409 M1193.8125520978235,693.5811732762409 L1196.96081445586,690.4929382342592 M1196.96081445586,690.4929382342592 L1200.0776985713094,687.2995689281032 M1200.0776985713094,687.2995689281032 L1203.1530978505045,684.0107825682082 M1203.1530978505045,684.0107825682082 L1206.1769231965338,680.6367605885473 M1206.1769231965338,680.6367605885473 L1209.1393500499819,677.1879325117435 M1209.1393500499819,677.1879325117435 L1212.0304973230243,673.6752564256733 M1212.0304973230243,673.6752564256733 L1214.8408468754503,670.1098477136726 M1214.8408468754503,670.1098477136726 L1217.5610357863682,666.5031513386008 M1217.5610357863682,666.5031513386008 L1220.1820489457034,662.8667653854926 M1220.1820489457034,662.8667653854926 L1222.6951239269604,659.2125111685798 M1222.6951239269604,659.2125111685798 L1225.0919425489813,655.5522467577558 M1225.0919425489813,655.5522467577558 L1227.3645920035485,651.8978867918189 M1227.3645920035485,651.8978867918189 L1229.505580484917,648.2613623274686 M1229.505580484917,648.2613623274686 L1231.507852477596,644.6545891243902 M1231.507852477596,644.6545891243902 L1233.3649177770378,641.0893279852729 M1242.3647843607175,728.9142591505506 L1260.915971553433,735.8357769216469 M1250.6217632183063,647.0781875780185 L1233.3649177770378,641.0893279852729 M1250.8772717577006,646.5674841714887 L1233.6198636774172,640.5816035743253 M1298.42929072332,586.4777180513338 L1280.6579223815418,580.7252195771866 M1320.0213523106943,679.161075418329 L1300.5938301204267,672.3722045196821 M1259.713883486674,728.9142756882359 L1241.2741727731675,722.0708802856279" stroke="black"  stroke-width="4"  fill="red"/>
<path d="M1185.4355178946278,693.4970129028425 L1193.120430483042,686.7106431278438 M1193.120430483042,686.7106431278438 L1193.3289252962716,686.7956751628799 M1193.3289252962716,686.7956751628799 L1193.5275939339838,686.8941960958608 M1193.5275939339838,686.8941960958608 L1193.7050274587443,687.000533205092 M1193.7050274587443,687.000533205092 L1193.8507502537216,687.1084525104383 M1193.8507502537216,687.1084525104383 L1193.9560852728775,687.2116078668263 M1193.9560852728775,687.2116078668263 L1194.015451856578,687.304204155903 M1194.015451856578,687.304204155903 L1194.0249151473015,687.380680217318 M1194.0249151473015,687.380680217318 L1193.9839152035781,687.436585362915 M1193.9839152035781,687.436585362915 L1193.8953014953156,687.4688356386222 M1193.8953014953156,687.4688356386222 L1193.7636716713907,687.475351269342 M1193.7636716713907,687.475351269342 L1193.596881094397,687.455823960672 M1193.596881094397,687.455823960672 L1193.4047944710007,687.4114508663868 M1193.4047944710007,687.4114508663868 L1193.1984527165203,687.3447644130832 M1193.1984527165203,687.3447644130832 L1192.9896579184244,687.2595751464402 M1192.9896579184244,687.2595751464402 L1192.7909725639295,687.1609927040878 M1192.7909725639295,687.1609927040878 L1192.613597758146,687.0546264447256 M1192.613597758146,687.0546264447256 L1192.4682072680187,686.9467944581269 M1192.4682072680187,686.9467944581269 L1192.3628155655535,686.8436083701658 M1192.3628155655535,686.8436083701658 L1192.3036029590846,686.7510849057583 M1192.3036029590846,686.7510849057583 L1192.2942571024585,686.6746910487816 M1192.2942571024585,686.6746910487816 L1192.3353109787633,686.6188586163968 M1192.3353109787633,686.6188586163968 L1192.4241148133995,686.5867324830563 M1192.4241148133995,686.5867324830563 L1192.5554406951162,686.5801493875974 M1192.5554406951162,686.5801493875974 L1192.7220892103167,686.5996475060263 M1192.7220892103167,686.5996475060263 L1192.9140168279184,686.6439591030166 M1192.9140168279184,686.6439591030166 L1193.120430483042,686.7106431278438 M1185.4355178946278,693.4970129028425 L1185.2304884981356,693.4302504044994 M1185.2304884981356,693.4302504044994 L1185.0397322890283,693.3858866424515 M1185.0397322890283,693.3858866424515 L1184.873976852068,693.3663655653114 M1184.873976852068,693.3663655653114 L1184.7432113447223,693.3729564125903 M1184.7432113447223,693.3729564125903 L1184.6546056546874,693.4051203706631 M1184.6546056546874,693.4051203706631 L1184.6133756806669,693.4610185198482 M1184.6133756806669,693.4610185198482 L1184.6221795454364,693.5375022554641 M1184.6221795454364,693.5375022554641 L1184.6805156202956,693.6301345138311 M1184.6805156202956,693.6301345138311 L1184.7847488516989,693.7334418540493 M1184.7847488516989,693.7334418540493 L1184.9287665816043,693.8414004627848 M1184.9287665816043,693.8414004627848 L1185.104631056942,693.9478915335955 M1185.104631056942,693.9478915335955 L1185.3017588337095,694.046589574357 M1185.3017588337095,694.046589574357 L1185.5090369608072,694.1318786729502 M1185.5090369608072,694.1318786729502 L1185.7139941343364,694.1986432352413 M1185.7139941343364,694.1986432352413 L1185.9049074908305,694.243068283793 M1185.9049074908305,694.243068283793 L1186.0708034967636,694.2626184511206 M1186.0708034967636,694.2626184511206 L1186.2018706857632,694.25609519354 M1186.2018706857632,694.25609519354 L1186.2902878348593,694.2238071624122 M1186.2902878348593,694.2238071624122 L1186.3314648440003,694.1678365492498 M1186.3314648440003,694.1678365492498 L1186.322545156985,694.0912708909631 M1186.322545156985,694.0912708909631 L1186.264056990877,693.9985660575438 M1186.264056990877,693.9985660575438 L1186.1598806889335,693.8952896997664 M1186.1598806889335,693.8952896997664 L1186.015533304025,693.7872437153765 M1186.015533304025,693.7872437153765 L1185.8396104586025,693.6807816947805 M1185.8396104586025,693.6807816947805 L1185.6424988451288,693.5821449525582 M1185.6424988451288,693.5821449525582 L1185.4355178946278,693.4970129028425 M1193.0619692368252,686.2355026590976 L1193.5830410261153,686.4479351317343 M1193.5830410261153,686.4479351317343 L1194.0797868642842,686.694159680027 M1194.0797868642842,686.694159680027 L1194.5233749132792,686.9599097160966 M1194.5233749132792,686.9599097160966 L1194.8878022791903,687.2296872403732 M1194.8878022791903,687.2296872403732 L1195.1518541712524,687.487818682343 M1195.1518541712524,687.487818682343 L1195.300241737231,687.719328658507 M1195.300241737231,687.719328658507 L1195.3241205318616,687.9106731452138 M1195.3241205318616,687.9106731452138 L1195.222039857989,688.0506876686304 M1195.222039857989,688.0506876686304 L1195.0000417010385,688.1312467697301 M1195.0000417010385,688.1312467697301 L1194.670899537554,688.1475925858069 M1194.670899537554,688.1475925858069 L1194.2537623923229,688.0987588601616 M1194.2537623923229,688.0987588601616 L1193.7731412134788,687.9876706317981 M1193.7731412134788,687.9876706317981 L1193.2570248956288,687.8208064826273 M1193.2570248956288,687.8208064826273 L1192.7351894175756,687.6077978123031 M1192.7351894175756,687.6077978123031 L1192.238338983893,687.361188740263 M1192.238338983893,687.361188740263 L1191.7951178137666,687.095256507639 M1191.7951178137666,687.095256507639 L1191.431444730414,686.8255409167123 M1191.431444730414,686.8255409167123 L1191.1683616312896,686.5677012912917 M1191.1683616312896,686.5677012912917 L1191.0209356973508,686.336646239213 M1191.0209356973508,686.336646239213 L1190.9977908124981,686.1458154927384 M1190.9977908124981,686.1458154927384 L1191.100209496636,686.0062558009812 M1191.100209496636,686.0062558009812 L1191.322072725504,685.9259885929642 M1191.322072725504,685.9259885929642 L1191.6506375343645,685.9097046943645 M1191.6506375343645,685.9097046943645 L1192.066887115034,685.9583561343403 M1192.066887115034,685.9583561343403 L1192.5465143177382,686.0690598808607 M1192.5465143177382,686.0690598808607 L1193.0619692368252,686.2355026590976 M1193.9676749752778,685.4354094464642 L1194.489193554262,685.6478116315407 M1194.489193554262,685.6478116315407 L1194.9863992957378,685.894001126637 M1194.9863992957378,685.894001126637 L1195.4304336923567,686.1597133927806 M1195.4304336923567,686.1597133927806 L1195.7952677308283,686.4294526415889 M1195.7952677308283,686.4294526415889 L1196.0596629356853,686.6875475234824 M1196.0596629356853,686.6875475234824 L1196.2083105089298,686.9190247625289 M1196.2083105089298,686.9190247625289 L1196.2323506608957,687.1103422292455 M1196.2323506608957,687.1103422292455 L1196.1303232143348,687.2503370025127 M1196.1303232143348,687.2503370025127 L1195.9082671139315,687.3308847483416 M1195.9082671139315,687.3308847483416 L1195.57895908138,687.3472282611145 M1195.57895908138,687.3472282611145 L1195.161557806486,687.298401417409 M1195.161557806486,687.298401417409 L1194.6805898419536,687.1873288524831 M1194.6805898419536,687.1873288524831 L1194.1640643308135,687.0204882526202 M1194.1640643308135,687.0204882526202 L1193.6417809033212,686.8075096813675 M1193.6417809033212,686.8075096813675 L1193.144470154917,686.5609355087452 M1193.144470154917,686.5609355087452 L1192.700802893716,686.2950409731834 M1192.700802893716,686.2950409731834 L1192.3367240035698,686.0253636824934 M1192.3367240035698,686.0253636824934 L1192.0732988681468,685.767560733852 M1192.0732988681468,685.767560733852 L1191.9256143220912,685.5365386008236 M1191.9256143220912,685.5365386008236 L1191.902309273746,685.3457350797939 M1191.902309273746,685.3457350797939 L1192.0046754495395,685.2061953200828 M1192.0046754495395,685.2061953200828 L1192.2265967018009,685.1259395840704 M1192.2265967018009,685.1259395840704 L1192.5553268017686,685.1096580135365 M1192.5553268017686,685.1096580135365 L1192.9718394085564,685.158302498673 M1192.9718394085564,685.158302498673 L1193.45181202133,685.2689904279936 M1193.45181202133,685.2689904279936 L1193.9676749752778,685.4354094464642 M1193.9676749752778,685.4354094464642 L1193.0619692368252,686.2355026590976" stroke="black"  stroke-width="4"  fill="red"/>
<path d="M-475.4965121259478,88.70266664628997 L-516.5307273755257,104.10894107410951 M-475.4965121259478,88.70266664628997 L-479.31208936473,87.27724525393904 M-520.3438103182187,102.60585857840442 L-479.31208936473,87.27724525393904 M-516.5307273755257,104.10894107410951 L-520.3438103182187,102.60585857840442 M-516.5307273755257,104.10894107410951 L-517.1028532080386,72.45026066946616 M-517.1028532080386,72.45026066946616 L-513.0365642379356,71.00632624063826 M-513.0365642379356,71.00632624063826 L-513.56168270775,38.422725731851585 M-513.56168270775,38.422725731851585 L-455.07033504987066,18.879110691155915 M-455.07033504987066,18.879110691155915 L-455.12949302494474,20.871456277739696 M-455.12949302494474,20.871456277739696 L-455.2618792583404,22.87937942902738 M-455.2618792583404,22.87937942902738 L-455.4669563803859,24.897597815225595 M-455.4669563803859,24.897597815225595 L-455.7440128858784,26.920696841905226 M-455.7440128858784,26.920696841905226 L-456.09216036461237,28.943400571836605 M-456.09216036461237,28.943400571836605 L-456.51034019904114,30.960361510649363 M-456.51034019904114,30.960361510649363 L-456.997330679131,32.96629593459846 M-456.997330679131,32.96629593459846 L-457.5517406876527,34.95604478617793 M-457.5517406876527,34.95604478617793 L-458.17202451779576,36.92436727972279 M-458.17202451779576,36.92436727972279 L-458.8564815127752,38.866210056390685 M-458.8564815127752,38.866210056390685 L-459.60325829655676,40.77653100771067 M-459.60325829655676,40.77653100771067 L-460.41035769701716,42.65036583482811 M-460.41035769701716,42.65036583482811 L-461.27563927848337,44.48285735933632 M-461.27563927848337,44.48285735933632 L-462.19682735329775,46.269321621506606 M-462.19682735329775,46.269321621506606 L-463.1715136217058,48.005073686652736 M-463.1715136217058,48.005073686652736 L-464.1971626798768,49.68563003019818 M-464.1971626798768,49.68563003019818 L-465.2711163907286,51.30663789139123 M-465.2711163907286,51.30663789139123 L-465.2587299144502,51.33094957976533 M-465.2587299144502,51.33094957976533 L-465.2516659519963,51.36047543773793 M-465.2516659519963,51.36047543773793 L-465.2503331749456,51.39355638815209 M-465.2503331749456,51.39355638815209 L-465.25480958822686,51.42821265008166 M-465.25480958822686,51.42821265008166 L-465.26483396147864,51.462446875520925 M-465.26483396147864,51.462446875520925 L-465.2798244413432,51.49428460881256 M-465.2798244413432,51.49428460881256 L-465.2989103302157,51.521853418987575 M-465.2989103302157,51.521853418987575 L-465.32098207019726,51.54357056084473 M-465.32098207019726,51.54357056084473 L-465.34475686873384,51.55816608759966 M-465.34475686873384,51.55816608759966 L-465.3688546981009,51.56477775114968 M-465.3688546981009,51.56477775114968 L-465.3918750678997,51.56304624963525 M-465.3918750678997,51.56304624963525 L-465.41247904439615,51.553076285773955 M-465.41247904439615,51.553076285773955 L-465.4294697957903,51.53539712671778 M-465.4294697957903,51.53539712671778 L-466.5082703986068,53.16399703721845 M-466.5082703986068,53.16399703721845 L-467.53850422247024,54.85297603819015 M-467.53850422247024,54.85297603819015 L-468.5170360249531,56.59721740936095 M-468.5170360249531,56.59721740936095 L-469.4408989733911,58.391395397267786 M-469.4408989733911,58.391395397267786 L-470.30730562503663,60.230051478515975 M-470.30730562503663,60.230051478515975 L-471.11365506981474,62.10760161187977 M-471.11365506981474,62.10760161187977 L-471.8575450810067,64.01834566600934 M-471.8575450810067,64.01834566600934 L-472.5367780167653,65.95644115911608 M-472.5367780167653,65.95644115911608 L-473.1493694419635,67.91601357076757 M-473.1493694419635,67.91601357076757 L-473.6935547194255,69.89109684128607 M-473.6935547194255,69.89109684128607 L-474.16779280119306,71.87574188572671 M-474.16779280119306,71.87574188572671 L-474.5707720561363,73.86388978605788 M-474.5707720561363,73.86388978605788 L-474.9014129324239,75.8496142806315 M-474.9014129324239,75.8496142806315 L-475.1588700089155,77.82692620433932 M-475.1588700089155,77.82692620433932 L-475.3425336157027,79.78991412734683 M-475.3425336157027,79.78991412734683 L-475.45202984553544,81.73278275713915 M-475.45202984553544,81.73278275713915 L-475.48721977628884,83.64979047219964 M-475.48721977628884,83.64979047219964 L-475.4965121259478,88.70266664628997 M-475.48721977628884,83.64979047219964 L-479.3120888793974,82.23351971109463 M-479.3120888793974,82.23351971109463 L-479.31208936473,87.27724525393904 M-479.3120888793974,82.23351971109463 L-479.2804023720113,80.32003689904707 M-479.2804023720113,80.32003689904707 L-479.1744062605884,78.38083599210745 M-479.1744062605884,78.38083599210745 L-478.99422942581884,76.42164739535997 M-478.99422942581884,76.42164739535997 L-478.7402357325652,74.44825469893584 M-478.7402357325652,74.44825469893584 L-478.413024686874,72.46655703900757 M-478.413024686874,72.46655703900757 L-478.01343149008676,70.48253077640743 M-478.01343149008676,70.48253077640743 L-477.54252567219123,68.5020891307895 M-477.54252567219123,68.5020891307895 L-477.0016086760313,66.53127739645959 M-477.0016086760313,66.53127739645959 L-476.3922116380352,64.5760309168125 M-476.3922116380352,64.5760309168125 L-475.71608932265895,62.64230168026279 M-475.71608932265895,62.64230168026279 L-474.97521652942316,60.7359500267508 M-474.97521652942316,60.7359500267508 L-474.1717813895764,58.862804061470456 M-474.1717813895764,58.862804061470456 L-473.3081769452491,57.02854957360836 M-473.3081769452491,57.02854957360836 L-472.3869952001014,55.238756270698275 M-472.3869952001014,55.238756270698275 L-471.41101498339276,53.498868397596425 M-471.41101498339276,53.498868397596425 L-470.3831948223741,51.81419752069496 M-470.3831948223741,51.81419752069496 L-469.30666210334607,50.18984643362893 M-469.30666210334607,50.18984643362893 L-469.2896268099614,50.207511431026205 M-469.2896268099614,50.207511431026205 L-469.2689900598373,50.217485681755306 M-469.2689900598373,50.217485681755306 L-469.24595049586776,50.219239574975404 M-469.24595049586776,50.219239574975404 L-469.2218481757486,50.21266711181954 M-469.2218481757486,50.21266711181954 L-469.19808389767286,50.19812536177818 M-469.19808389767286,50.19812536177818 L-469.17603705171973,50.17647342307424 M-469.17603705171973,50.17647342307424 L-469.15698897020275,50.14897743884109 M-469.15698897020275,50.14897743884109 L-469.1420470509021,50.1172159588931 M-469.1420470509021,50.1172159588931 L-469.1320791284046,50.08305694309155 M-469.1320791284046,50.08305694309155 L-469.12766380290293,50.04847050662562 M-469.12766380290293,50.04847050662562 L-469.1290587859352,50.01544997071471 M-469.1290587859352,50.01544997071471 L-469.1361823502202,49.985971499277696 M-469.1361823502202,49.985971499277696 L-469.1486224660073,49.96169151975687 M-459.00100459804037,17.60677362946393 L-459.0564890938665,19.59522064485742 M-459.0564890938665,19.59522064485742 L-459.18522447638236,21.599147223542843 M-459.18522447638236,21.599147223542843 L-459.3866832636161,23.61328101068773 M-459.3866832636161,23.61328101068773 L-459.66016389327206,25.632217730151297 M-459.66016389327206,25.632217730151297 L-460.0047874422887,27.6506916009227 M-460.0047874422887,27.6506916009227 L-460.4195047179917,29.663365529724217 M-460.4195047179917,29.663365529724217 L-460.90310312356087,31.66496618453766 M-460.90310312356087,31.66496618453766 L-461.45420022431085,33.65034479482904 M-461.45420022431085,33.65034479482904 L-462.0712589598236,35.61427114591817 M-462.0712589598236,35.61427114591817 L-462.75258678272917,37.551702236974734 M-462.75258678272917,37.551702236974734 L-463.49633822053784,39.45760644947535 M-463.49633822053784,39.45760644947535 L-464.30052368351767,41.32702998370661 M-464.30052368351767,41.32702998370661 L-465.16300994634355,43.1551261269326 M-465.16300994634355,43.1551261269326 L-466.08152804671465,44.93722123181669 M-466.08152804671465,44.93722123181669 L-467.05367625542385,46.668640859686946 M-467.05367625542385,46.668640859686946 L-468.0769252179682,48.344911791228014 M-468.0769252179682,48.344911791228014 L-469.1486224660073,49.96169151975687 M-459.00100459804037,17.60677362946393 L-517.4909802981489,37.04964820800012 M-516.9071328762726,69.56987032022789 L-517.4909802981489,37.04964820800012 M-516.9071328762726,69.56987032022789 L-520.9729137090799,71.0063265290305 M-520.3438103182187,102.60585857840442 L-520.9729137090799,71.0063265290305 M-520.9729137090799,71.0063265290305 L-517.1028532080386,72.45026066946616 M-465.4294697957903,51.53539712671778 L-469.30666210334607,50.18984643362893 M-465.2711163907286,51.30663789139123 L-469.1486224660073,49.96169151975687 M-455.07033504987066,18.879110691155915 L-459.00100459804037,17.60677362946393 M-513.56168270775,38.422725731851585 L-517.4909802981489,37.04964820800012 M-513.0365642379356,71.00632624063826 L-516.9071328762726,69.56987032022789" stroke="black"  stroke-width="4"  fill="red"/>
<path d="M-467.2849638551205,84.19836166245875 L-467.2582430929797,79.57862036731456 M-467.2582430929797,79.57862036731456 L-467.21594520962617,79.59831913082951 M-467.21594520962617,79.59831913082951 L-467.18758678687357,79.62114079808435 M-467.18758678687357,79.62114079808435 L-467.17481605332,79.64575920607251 M-467.17481605332,79.64575920607251 L-467.17837810416415,79.67074429456994 M-467.17837810416415,79.67074429456994 L-467.19806755807167,79.6946435898584 M-467.19806755807167,79.6946435898584 L-467.23274243820583,79.71606807351634 M-467.23274243820583,79.71606807351634 L-467.28038787836726,79.73377164714361 M-467.28038787836726,79.73377164714361 L-467.33823545997006,79.74672486244725 M-467.33823545997006,79.74672486244725 L-467.4029215325735,79.75417397512541 M-467.4029215325735,79.75417397512541 L-467.4706860271235,79.75568582850434 M-467.4706860271235,79.75568582850434 L-467.53758769914225,79.7511722855536 M-467.53758769914225,79.7511722855536 L-467.59973753677934,79.74089627959916 M-467.59973753677934,79.74089627959916 L-467.653521020545,79.72545513469686 M-467.653521020545,79.72545513469686 L-467.6958129532045,79.70574754854135 M-467.6958129532045,79.70574754854135 L-467.7241550426129,79.68291902574356 M-467.7241550426129,79.68291902574356 L-467.7369026110732,79.65829736998683 M-467.7369026110732,79.65829736998683 L-467.7333158697812,79.633313385456 M-467.7333158697812,79.633313385456 L-467.7136058566846,79.60941929294995 M-467.7136058566846,79.60941929294995 L-467.67891925824506,79.58800291907772 M-467.67891925824506,79.58800291907772 L-467.6312736253278,79.57030850430459 M-467.6312736253278,79.57030850430459 L-467.5734374206743,79.5573633988414 M-467.5734374206743,79.5573633988414 L-467.5087716882663,79.54991948896611 M-467.5087716882663,79.54991948896611 L-467.44103183769664,79.54840873957937 M-467.44103183769664,79.54840873957937 L-467.3741534674774,79.55291903467645 M-467.3741534674774,79.55291903467645 L-467.312020251743,79.56318818520424 M-467.312020251743,79.56318818520424 L-467.2582430929797,79.57862036731456 M-467.2849638551205,84.19836166245875 L-467.3386210763904,84.18283740425335 M-467.3386210763904,84.18283740425335 L-467.4006160809291,84.17250698180715 M-467.4006160809291,84.17250698180715 L-467.46734599527383,84.16796977531737 M-467.46734599527383,84.16796977531737 L-467.5349357618361,84.16948953884838 M-467.5349357618361,84.16948953884838 L-467.59945849712904,84.17697786381984 M-467.59945849712904,84.17697786381984 L-467.65716709217133,84.19000020696285 M-467.65716709217133,84.19000020696285 L-467.7047079166439,84.20780019428332 M-467.7047079166439,84.20780019428332 L-467.7393185977993,84.22934434420779 M-467.7393185977993,84.22934434420779 L-467.75898600279174,84.2533809912398 M-467.75898600279174,84.2533809912398 L-467.7625659279977,84.27851402786592 M-467.7625659279977,84.27851402786592 L-467.74984774199424,84.3032825692635 M-467.74984774199424,84.3032825692635 L-467.721569532707,84.32624727610403 M-467.721569532707,84.32624727610403 L-467.67937227385187,84.34607242496884 M-467.67937227385187,84.34607242496884 L-467.62570875558686,84.3616056796036 M-467.62570875558686,84.3616056796036 L-467.563697203085,84.37194298308555 M-467.563697203085,84.37194298308555 L-467.4969440902988,84.37648344956176 M-467.4969440902988,84.37648344956176 L-467.4293297888569,84.3749625779144 M-467.4293297888569,84.3749625779144 L-467.3647868032166,84.36746903070446 M-467.3647868032166,84.36746903070446 L-467.3070668812386,84.35443854742601 M-467.3070668812386,84.35443854742601 L-467.2595262482429,84.33662936703763 M-467.2595262482429,84.33662936703763 L-467.2249272331137,84.31507707703264 M-467.2249272331137,84.31507707703264 L-467.20528029600894,84.29103520778278 M-467.20528029600894,84.29103520778278 L-467.2017249518419,84.26590106306605 M-467.2017249518419,84.26590106306605 L-467.21446620048755,84.24113578156937 M-467.21446620048755,84.24113578156937 L-467.2427606710945,84.2181779558814 M-467.2427606710945,84.2181779558814 L-467.2849638551205,84.19836166245875 M-466.9619198237914,79.46854450608657 L-466.8561655580979,79.51777513597528 M-466.8561655580979,79.51777513597528 L-466.78523823653495,79.57481614025977 M-466.78523823653495,79.57481614025977 L-466.75326825929346,79.63635624693052 M-466.75326825929346,79.63635624693052 L-466.7621269988076,79.698820793361 M-466.7621269988076,79.698820793361 L-466.81131225515674,79.7585789998679 M-466.81131225515674,79.7585789998679 L-466.8979766156622,79.8121551773745 M-466.8979766156622,79.8121551773745 L-467.01708984400216,79.85643129602306 M-467.01708984400216,79.85643129602306 L-467.1617294763296,79.888829237425 M-467.1617294763296,79.888829237425 L-467.3234833850106,79.90746185339117 M-467.3234833850106,79.90746185339117 L-467.49294019378704,79.91124352376676 M-467.49294019378704,79.91124352376676 L-467.66023856420543,79.89995367603342 M-467.66023856420543,79.89995367603342 L-467.81564348796473,79.87425055071037 M-467.81564348796473,79.87425055071037 L-467.95011473081445,79.83563145727254 M-467.95011473081445,79.83563145727254 L-468.0558328082159,79.78634531786963 M-468.0558328082159,79.78634531786963 L-468.12665823878024,79.72926139675326 M-468.12665823878024,79.72926139675326 L-468.1584832424396,79.667701061598 M-468.1584832424396,79.667701061598 L-468.14947028404424,79.60524338000727 M-468.14947028404424,79.60524338000727 L-468.1001565324783,79.5455176910798 M-468.1001565324783,79.5455176910798 L-468.0134189327831,79.49199219956711 M-468.0134189327831,79.49199219956711 L-467.89430449970416,79.44777332377805 M-467.89430449970416,79.44777332377805 L-467.74973597309133,79.41542606837021 M-467.74973597309133,79.41542606837021 L-467.5881091909192,79.39682597002218 M-467.5881091909192,79.39682597002218 L-467.41880631062907,79.39305123450708 M-467.41880631062907,79.39305123450708 L-467.2516537682209,79.4043207133983 M-467.2516537682209,79.4043207133983 L-467.09635253895,79.42998106188969 M-467.09635253895,79.42998106188969 L-466.9619198237914,79.46854450608657 M-466.95870103564505,78.92537291432029 L-466.85291892412056,78.97456888193517 M-466.85291892412056,78.97456888193517 L-466.78197278490074,79.03156972762497 M-466.78197278490074,79.03156972762497 L-466.74999411622,79.09306651157135 M-466.74999411622,79.09306651157135 L-466.75885480233273,79.1554870880766 M-466.75885480233273,79.1554870880766 L-466.8080525369288,79.2152032330776 M-466.8080525369288,79.2152032330776 L-466.89473918790543,79.26874170317922 M-466.89473918790543,79.26874170317922 L-467.01388322682635,79.31298666189281 M-467.01388322682635,79.31298666189281 L-467.15856039929486,79.34536180394122 M-467.15856039929486,79.34536180394122 L-467.320356392803,79.3639813080448 M-467.320356392803,79.3639813080448 L-467.4898573796306,79.36776031727976 M-467.4898573796306,79.36776031727976 L-467.65719944699924,79.35647841418927 M-467.65719944699924,79.35647841418927 L-467.8126450406469,79.33079337654317 M-467.8126450406469,79.33079337654317 L-467.9471515581404,79.29220146109247 M-467.9471515581404,79.29220146109247 L-468.05289746285587,79.24295000855858 M-468.05289746285587,79.24295000855858 L-468.1237416581282,79.18590626508495 M-468.1237416581282,79.18590626508495 L-468.1555752777865,79.12438926160519 M-468.1555752777865,79.12438926160519 L-468.1465602923072,79.06197554690488 M-468.1465602923072,79.06197554690488 L-468.0972339953079,79.0022919050648 M-468.0972339953079,79.0022919050648 L-468.0104740666702,78.94880409848247 M-468.0104740666702,78.94880409848247 L-467.89132882206763,78.90461635724637 M-467.89132882206763,78.90461635724637 L-467.7467227921162,78.87229187871765 M-467.7467227921162,78.87229187871765 L-467.5850539912326,78.85370487781353 M-467.5850539912326,78.85370487781353 L-467.4157070131496,78.8499328003548 M-467.4157070131496,78.8499328003548 L-467.24851084989973,78.8611943436531 M-467.24851084989973,78.8611943436531 L-467.0931690051003,78.88683662341708 M-467.0931690051003,78.88683662341708 L-466.95870103564505,78.92537291432029 M-466.95870103564505,78.92537291432029 L-466.9619198237914,79.46854450608657" stroke="black"  stroke-width="4"  fill="red"/>
<path d="M-516.9071328762726,69.56987032022789 L-520.9729137090799,71.0063265290305 M-520.9729137090799,71.0063265290305 L-521.6216085550197,38.42272600753063 M-517.4909802981489,37.04964820800012 L-521.6216085550197,38.42272600753063 M-516.9071328762726,69.56987032022789 L-517.4909802981489,37.04964820800012 M-516.5307273755257,104.10894107410951 L-435.1028476221502,136.20706811700632 M-435.1028476221502,136.20706811700632 L-434.98299914531685,130.71096470660154 M-434.98299914531685,130.71096470660154 L-341.0131759596104,167.42180416607619 M-341.4093571414644,173.14018696585887 L-341.0131759596104,167.42180416607619 M-341.4093571414644,173.14018696585887 L188.19261726578225,381.90445183655356 M188.19261726578225,381.90445183655356 L190.72208756740906,375.15283134599287 M190.72208756740906,375.15283134599287 L378.8059946054311,448.6308680401587 M375.2904687546752,455.65671733496316 L378.8059946054311,448.6308680401587 M375.2904687546752,455.65671733496316 L1186.5314386191747,775.4405038216064 M1186.5314386191747,775.4405038216064 L1242.3647843607175,728.9142591505506 M1242.3647843607175,728.9142591505506 L1260.915971553433,735.8357769216469 M1260.915971553433,735.8357769216469 L1321.6216085550197,686.030133325161 M-521.6216085550197,38.42272600753063 L1321.6216085550197,686.030133325161 M-520.9729137090799,71.0063265290305 L-517.1028532080386,72.45026066946616 M-516.5307273755257,104.10894107410951 L-517.1028532080386,72.45026066946616 M1259.713883486674,728.9142756882359 L1241.2741727731675,722.0708802856279 M1185.7809317283716,768.5637414588097 L1241.2741727731675,722.0708802856279 M1185.7809317283716,768.5637414588097 L378.03970035821203,451.8240419439806 M378.03970035821203,451.8240419439806 L381.55208690100176,444.81127432611487 M381.55208690100176,444.81127432611487 L193.96261723235853,371.9105130601976 M191.4304726583323,378.6489353469176 L193.96261723235853,371.9105130601976 M191.4304726583323,378.6489353469176 L-337.43736207690847,171.26390589516137 M-337.43736207690847,171.26390589516137 L-337.03093736908886,165.55652940579677 M-337.03093736908886,165.55652940579677 L-430.97061627783626,129.0498208063202 M-431.1009602191741,134.53558402810086 L-430.97061627783626,129.0498208063202 M-431.1009602191741,134.53558402810086 L-512.5273050507587,102.60585827818699 M-512.5273050507587,102.60585827818699 L-513.0365642379356,71.00632624063826 M-513.0365642379356,71.00632624063826 L-516.9071328762726,69.56987032022789 M1320.0213523106943,679.161075418329 L-517.4909802981489,37.04964820800012 M1259.713883486674,728.9142756882359 L1320.0213523106943,679.161075418329 M-516.5307273755257,104.10894107410951 L-512.5273050507587,102.60585827818699 M-517.1028532080386,72.45026066946616 L-513.0365642379356,71.00632624063826 M-431.1009602191741,134.53558402810086 L-435.1028476221502,136.20706811700632 M-430.97061627783626,129.0498208063202 L-434.98299914531685,130.71096470660154 M-341.4093571414644,173.14018696585887 L-337.43736207690847,171.26390589516137 M-341.0131759596104,167.42180416607619 L-337.03093736908886,165.55652940579677 M191.4304726583323,378.6489353469176 L188.19261726578225,381.90445183655356 M193.96261723235853,371.9105130601976 L190.72208756740906,375.15283134599287 M375.2904687546752,455.65671733496316 L378.03970035821203,451.8240419439806 M378.8059946054311,448.6308680401587 L381.55208690100176,444.81127432611487 M1185.7809317283716,768.5637414588097 L1186.5314386191747,775.4405038216064 M1241.2741727731675,722.0708802856279 L1242.3647843607175,728.9142591505506 M1260.915971553433,735.8357769216469 L1259.713883486674,728.9142756882359 M1321.6216085550197,686.030133325161 L1320.0213523106943,679.161075418329" stroke="black"  stroke-width="4"  fill="red"/></svg>