<svg viewBox="0 0 800 800" xmlns="http://www.w3.org/2000/svg"><path d="M695.2472411632762,301.1523087547539 L695.2472169458849,301.14228372008074 M104.4017739824742,498.7252905441419 L104.40173998643718,498.7152552220068 M695.2472411632762,301.1523087547539 L756.8146623248145,327.63302675542946 M756.8146623248145,327.63302675542946 L797.6766246810116,358.3211943239294 M797.6766246810116,358.3211943239294 L815.4476196907331,391.4374021141557 M815.4476196907331,391.4374021141557 L809.079704594318,425.05897434304643 M809.079704594318,425.05897434304643 L778.926663669511,457.2313716096105 M778.926663669511,457.2313716096105 L726.7277850529458,486.08164654753637 M726.7277850529458,486.08164654753637 L655.5088389894906,509.9284075921023 M655.5088389894906,509.9284075921023 L569.4091700081685,527.3801975354872 M569.4091700081685,527.3801975354872 L473.4398456671804,537.4180435270973 M473.4398456671804,537.4180435270973 L373.1920185846184,539.4553842014284 M373.1920185846184,539.4553842014284 L274.507687824133,533.3732106701646 M274.507687824133,533.3732106701646 L183.1373086637816,519.526920344957 M183.1373086637816,519.526920344957 L104.4017739824742,498.7252905441419 M695.2472169458849,301.14228372008074 L756.8146391173976,327.623000341453 M756.8146391173976,327.623000341453 L797.6766021420915,358.31116631165787 M797.6766021420915,358.31116631165787 L815.4475974396255,391.4273723773658 M815.4475974396255,391.4273723773658 L809.0796822331118,425.04894285566115 M809.0796822331118,425.04894285566115 L778.9266408061592,457.2213384473289 M778.9266408061592,457.2213384473289 L726.7277613241477,486.07161188348255 M726.7277613241477,486.07161188348255 L655.5088140819901,509.91837168691563 M655.5088140819901,509.91837168691563 L569.409143677218,527.3701607220282 M569.409143677218,527.3701607220282 L473.43981775100497,537.4080061912973 M473.43981775100497,537.4080061912973 L373.1919890140189,539.4453467596031 M373.1919890140189,539.4453467596031 L274.50765662659114,533.3631735448434 M274.50765662659114,533.3631735448434 L183.13727596183207,519.5168839402177 M183.13727596183207,519.5168839402177 L104.40173998643718,498.7152552220068 M104.4017739824742,498.7252905441419 L42.88061070926119,472.18258028711716 M42.88061070926119,472.18258028711716 L2.145328994459078,441.4466221261973 M2.145328994459078,441.4466221261973 L-15.44758374001185,408.3077736798441 M-15.44758374001185,408.3077736798441 L-8.890981325488838,374.6938974094519 M-8.890981325488838,374.6938974094519 L21.41812634354733,342.5577697180561 M21.41812634354733,342.5577697180561 L73.7046977618927,313.7640289320989 M73.7046977618927,313.7640289320989 L144.92287353418442,289.98111554073694 M144.92287353418442,289.98111554073694 L230.93348554556655,272.5858597605984 M230.93348554556655,272.5858597605984 L326.7458678358096,262.58428345235006 M326.7458678358096,262.58428345235006 L426.8048217206831,260.5546387181821 M426.8048217206831,260.5546387181821 L525.3116164369249,266.61417158438417 M525.3116164369249,266.61417158438417 L616.5564682434258,280.41267129076004 M616.5564682434258,280.41267129076004 L695.2472411632762,301.1523087547539 M104.40173998643718,498.7152552220068 L42.88057570478827,472.17254634655546 M42.88057570478827,472.17254634655546 L2.1452933256748565,441.43658978563326 M2.1452933256748565,441.43658978563326 L-15.447619690733063,408.2977430646133 M-15.447619690733063,408.2977430646133 L-8.891017159892726,374.68386854449636 M-8.891017159892726,374.68386854449636 L21.418091016427525,342.5477425267309 M21.418091016427525,342.5477425267309 L73.70466330309841,313.7540032405377 M73.70466330309841,313.7540032405377 L144.92284025405434,289.97109108799486 M144.92284025405434,289.97109108799486 L230.93345368593918,272.5758362141205 M230.93345368593918,272.5758362141205 L326.7458375562262,262.5742604269326 M326.7458375562262,262.5742604269326 L426.8047930892958,260.54461579855706 M426.8047930892958,260.54461579855706 L525.3115894266314,266.60414834904077 M525.3115894266314,266.60414834904077 L616.5564427334109,280.4026473365375 M616.5564427334109,280.4026473365375 L695.2472169458849,301.14228372008074" stroke="black"  stroke-width="4"  fill="red"/></svg>