<svg viewBox="0 0 800 800" xmlns="http://www.w3.org/2000/svg"><path d="M610.3298226505256,93.98097803781087 L574.552257535117,74.44728483488518 M702.3921426706866,42.931008603289854 L666.6183542985996,23.61602753497317 M610.3298226505256,93.98097803781087 L610.6493563454917,100.68650155729728 M610.6493563454917,100.68650155729728 L611.6930429875267,106.87625595384037 M611.6930429875267,106.87625595384037 L613.4434419861141,112.45268919923171 M613.4434419861141,112.45268919923171 L615.871873945181,117.32821106351042 M615.871873945181,117.32821106351042 L618.9389521749285,121.42672109885928 M618.9389521749285,121.42672109885928 L622.5952937724328,124.68454106282815 M622.5952937724328,124.68454106282815 L626.7823359240733,127.05156371623576 M626.7823359240733,127.05156371623576 L631.4333277781932,128.4918453861642 M631.4333277781932,128.4918453861642 L636.4744276057049,128.98402016826947 M636.4744276057049,128.98402016826947 L641.8258926586177,128.52178077753604 M641.8258926586177,128.52178077753604 L647.4033722173685,127.11365919322611 M647.4033722173685,127.11365919322611 L653.119184473198,124.78294732732877 M653.119184473198,124.78294732732877 L658.8837359001348,121.56717559485446 M658.8837359001348,121.56717559485446 L664.6068929060045,117.51752827615269 M664.6068929060045,117.51752827615269 L670.19928229058,112.69804781750202 M670.19928229058,112.69804781750202 L675.5737765649444,107.18448987930503 M675.5737765649444,107.18448987930503 L680.64666304366,101.063278102433 M680.64666304366,101.063278102433 L685.3389946811697,94.43001649291773 M685.3389946811697,94.43001649291773 L689.5777449874347,87.38826903903418 M689.5777449874347,87.38826903903418 L693.2968782836485,80.04777818192179 M693.2968782836485,80.04777818192179 L696.4383322992599,72.52288562631429 M696.4383322992599,72.52288562631429 L698.9529752445319,64.93088416578621 M698.9529752445319,64.93088416578621 L700.801236890594,57.39012935154187 M700.801236890594,57.39012935154187 L701.9538126854625,50.01841533952438 M701.9538126854625,50.01841533952438 L702.3921426706866,42.931008603289854 M574.552257535117,74.44728483488518 L574.8845393926158,81.14572897795995 M574.8845393926158,81.14572897795995 L575.9407855846106,87.33027047000405 M575.9407855846106,87.33027047000405 L577.703358670695,92.90343759277414 M577.703358670695,92.90343759277414 L580.1433890789626,97.77768846848176 M580.1433890789626,97.77768846848176 L583.2213098260713,101.87693831199164 M583.2213098260713,101.87693831199164 L586.8875698948075,105.13749217122268 M586.8875698948075,105.13749217122268 L591.0834533586172,107.50919403062755 M591.0834533586172,107.50919403062755 L595.7420732568303,108.9560206554736 M595.7420732568303,108.9560206554736 L600.7894705727865,109.4564974847255 M600.7894705727865,109.4564974847255 L606.1458061731948,109.004181268828 M606.1458061731948,109.004181268828 L611.7266547945167,107.60744346575325 M611.7266547945167,107.60744346575325 L617.444283153874,105.28939345201877 M617.444283153874,105.28939345201877 L623.2090699291043,102.08736034879416 M623.2090699291043,102.08736034879416 L628.9308778924735,98.05231158119653 M628.9308778924735,98.05231158119653 L634.5203544197191,93.24806043458085 M634.5203544197191,93.24806043458085 L639.890416439614,87.7501250170281 M639.890416439614,87.7501250170281 L644.9574190187882,81.64468621360106 M644.9574190187882,81.64468621360106 L649.6425050727723,75.02710401855342 M649.6425050727723,75.02710401855342 L653.872759437701,68.00070040506114 M653.872759437701,68.00070040506114 L657.5822771327771,60.67498149002432 M657.5822771327771,60.67498149002432 L660.7131442205541,53.16406162834801 M660.7131442205541,53.16406162834801 L663.2163929543588,45.585018537675694 M663.2163929543588,45.585018537675694 L665.0526300932952,38.05600796591398 M665.0526300932952,38.05600796591398 L666.1927387808892,30.694642379140987 M666.1927387808892,30.694642379140987 L666.6183542985996,23.61602753497317 M610.3669359159537,93.9603981625122 L610.3298226505256,93.98097803781087 M574.5893718746887,74.42679337700196 L574.552257535117,74.44728483488518 M574.5893718746887,74.42679337700196 L610.3669359159537,93.9603981625122 M702.3921426706866,42.931008603289854 L702.3554452276014,42.95135789871722 M666.581654906681,23.63628989320216 L702.3554452276014,42.95135789871722 M666.6183542985996,23.61602753497317 L666.581654906681,23.63628989320216 M702.3554452276014,42.95135789871722 L702.3840810249844,42.20671022094547 M702.3840810249844,42.20671022094547 L702.4045706316822,41.46629256661845 M702.4045706316822,41.46629256661845 L702.4169124250302,40.73017143565062 M702.4169124250302,40.73017143565062 L610.3443163476325,91.77347650379801 M610.3443163476325,91.77347650379801 L610.3436122237797,92.5072676581475 M610.3436122237797,92.5072676581475 L610.3511451838112,93.23626809359286 M610.3511451838112,93.23626809359286 L610.3669359159537,93.9603981625122 M666.581654906681,23.63628989320216 L666.6089359103617,22.892536216479755 M666.6089359103617,22.892536216479755 L666.6280697533309,22.152993706408324 M666.6280697533309,22.152993706408324 L666.6390549367857,21.41772878611539 M666.6390549367857,21.41772878611539 L574.5626808392775,72.24232567813203 M574.5626808392775,72.24232567813203 L574.5633340874341,72.9752788057009 M574.5633340874341,72.9752788057009 L574.5722242443322,73.703461211822 M574.5722242443322,73.703461211822 L574.5893718746887,74.42679337700196 M610.3443163476325,91.77347650379801 L594.3112165005875,83.02192317576538 M594.3112165005875,83.02192317576538 L590.557686974253,80.97308582482009 M590.557686974253,80.97308582482009 L574.5626808392775,72.24232567813203 M702.4169124250302,40.73017143565062 L666.6390549367857,21.41772878611539 M594.3112165005875,83.02192317576538 L594.6499186287572,82.76730409033343 M594.6499186287572,82.76730409033343 L594.879546360299,82.47801823778121 M594.879546360299,82.47801823778121 L594.9891821007291,82.16784352624268 M594.9891821007291,82.16784352624268 L594.9736098505089,81.851550859562 M594.9736098505089,81.851550859562 L594.8335989233963,81.54418967958065 M594.8335989233963,81.54418967958065 L594.5758051606767,81.26039871014729 M594.5758051606767,81.26039871014729 L594.2125260832029,81.01367638449562 M594.2125260832029,81.01367638449562 L593.7610508540031,80.81576430309303 M593.7610508540031,80.81576430309303 L593.2428767870592,80.67607404453622 M593.2428767870592,80.67607404453622 L592.6826496507124,80.60125770089513 M592.6826496507124,80.60125770089513 L592.1070475324295,80.59486316544655 M592.1070475324295,80.59486316544655 L591.5434440019369,80.65720196217217 M591.5434440019369,80.65720196217217 L591.0186670135721,80.78530728213872 M591.0186670135721,80.78530728213872 L590.557686974253,80.97308582482009 M590.557686974253,80.97308582482009 L590.1397587635164,81.2467836736729 M590.1397587635164,81.2467836736729 L589.8574759916974,81.56891777044791 M589.8574759916974,81.56891777044791 L589.7281154843877,81.9197978339655 M589.7281154843877,81.9197978339655 L589.7595912997352,82.27798589219253 M589.7595912997352,82.27798589219253 L589.9500092681842,82.6215777948812 M589.9500092681842,82.6215777948812 L590.2877398487524,82.92956747453474 M590.2877398487524,82.92956747453474 L590.752143864187,83.18311789443584 M590.752143864187,83.18311789443584 L591.3148310670138,83.36671869400931 M591.3148310670138,83.36671869400931 L591.9413995162283,83.46913890156628 M591.9413995162283,83.46913890156628 L592.5935321544318,83.48410644948098 M592.5935321544318,83.48410644948098 L593.2313342160271,83.41071282761868 M593.2313342160271,83.41071282761868 L593.8158129617204,83.25344268330952 M593.8158129617204,83.25344268330952 L594.3112165005875,83.02192317576538 M594.2125260832029,81.01367638449562 L594.428712974159,43.32275613007249 M594.428712974159,43.32275613007249 L594.8251603634437,43.5972411440481 M594.8251603634437,43.5972411440481 L595.0906862415752,43.91523794008833 M595.0906862415752,43.91523794008833 L595.2098596086994,44.25826671043069 M595.2098596086994,44.25826671043069 L595.1757296795568,44.60640072772179 M595.1757296795568,44.60640072772179 L594.9902672517835,44.939401871629 M594.9902672517835,44.939401871629 L594.6642312796857,45.237917047394774 M594.6642312796857,45.237917047394774 L594.2165681211086,45.4845851756715 M594.2165681211086,45.4845851756715 L593.673289098925,45.66506413725864 M593.673289098925,45.66506413725864 L593.0659829539368,45.76885317401991 M593.0659829539368,45.76885317401991 L592.4299490126193,45.789917894822736 M592.4299490126193,45.789917894822736 L591.8021769983975,45.72703045493711 M591.8021769983975,45.72703045493711 L591.2191569982849,45.583853811358836 M591.2191569982849,45.583853811358836 L590.7147946381376,45.36870947046384 M590.7147946381376,45.36870947046384 L590.318396223702,45.09411776537172 M590.318396223702,45.09411776537172 L590.053003712733,44.77603796672361 M590.053003712733,44.77603796672361 L589.9340193424803,44.43296987443932 M589.9340193424803,44.43296987443932 L589.968350604962,44.08484922328273 M589.968350604962,44.08484922328273 L590.1539805768157,43.751911071395625 M590.1539805768157,43.751911071395625 L590.4801119233366,43.45349408382151 M590.4801119233366,43.45349408382151 L590.9277764363883,43.20693684519654 M590.9277764363883,43.20693684519654 L591.4709624828167,43.02655607246169 M591.4709624828167,43.02655607246169 L592.0781026225695,42.92283002796779 M592.0781026225695,42.92283002796779 L592.7139355570703,42.90177867361069 M592.7139355570703,42.90177867361069 L593.3415176138019,42.96462679052297 M593.3415176138019,42.96462679052297 L593.9244022190835,43.107720432904216 M593.9244022190835,43.107720432904216 L594.428712974159,43.32275613007249 M591.7712054017745,60.706309107680966 L591.7384838026753,60.93902375096377 M591.7384838026753,60.93902375096377 L591.6468622345966,61.17092839109148 M591.6468622345966,61.17092839109148 L591.5064710022048,61.39439189167172 M591.5064710022048,61.39439189167172 L591.3297035542403,61.604726646522295 M591.3297035542403,61.604726646522295 L591.1295100763716,61.797740589753516 M591.1295100763716,61.797740589753516 L590.9186912373605,61.96893453805569 M590.9186912373605,61.96893453805569 L590.7098761450688,62.112855943355044 M590.7098761450688,62.112855943355044 L590.5796020690696,62.18971384800864 M590.5796020690696,62.18971384800864 L590.4419637524084,62.25794659400805 M590.4419637524084,62.25794659400805 L590.3192705632551,62.303558713796235 M590.3192705632551,62.303558713796235 L590.2257323840495,62.32378902447198 M590.2257323840495,62.32378902447198 L590.1337768231413,62.323193858922764 M590.1337768231413,62.323193858922764 L590.0522358694349,62.29032795359893 M590.0522358694349,62.29032795359893 L589.9922767581486,62.2225953626255 M589.9922767581486,62.2225953626255 L589.9514392950473,62.119401842817865 M589.9514392950473,62.119401842817865 L589.9312676666005,62.015718779433996 M589.9312676666005,62.015718779433996 L589.9198810940361,61.895239824973146 M589.9198810940361,61.895239824973146 L589.9158866239352,61.75714465844487 M589.9158866239352,61.75714465844487 L589.9185495602517,61.61343024748555 M589.9185495602517,61.61343024748555 L589.930860767766,61.41864711301355 M589.930860767766,61.41864711301355 L589.9578567624853,61.187571670144735 M589.9578567624853,61.187571670144735 L590.0009554903623,60.952915427518235 M590.0009554903623,60.952915427518235 L590.0628395919036,60.72333199205298 M590.0628395919036,60.72333199205298 L590.1458580874591,60.507207358873984 M590.1458580874591,60.507207358873984 L590.2515626338215,60.312553029406445 M590.2515626338215,60.312553029406445 L590.3801268477209,60.14704938732234 M590.3801268477209,60.14704938732234 L590.5296581856519,60.01774089621102 M590.5296581856519,60.01774089621102 L590.6558033376948,59.946654382856195 M590.6558033376948,59.946654382856195 L590.7865904956225,59.90206777488993 M590.7865904956225,59.90206777488993 L590.9215179029093,59.88290640204423 M590.9215179029093,59.88290640204423 L591.0573020457415,59.88890936762289 M591.0573020457415,59.88890936762289 L591.2338303461979,59.934324252745455 M591.2338303461979,59.934324252745455 L591.4171064560106,60.032287066591266 M591.4171064560106,60.032287066591266 L591.5730638495404,60.17354696124795 M591.5730638495404,60.17354696124795 L591.6585034040568,60.291983615607876 M591.6585034040568,60.291983615607876 L591.7219347630007,60.424553403187815 M591.7219347630007,60.424553403187815 L591.7580283015557,60.55588356724252 M591.7580283015557,60.55588356724252 L591.768114209964,60.63031886341713 M591.768114209964,60.63031886341713 L591.7712054017745,60.706309107680966 M595.0278564195207,62.479827485600424 L595.020736016796,62.26906550766205 M595.020736016796,62.26906550766205 L595.0076436032193,62.16164914814732 M595.0076436032193,62.16164914814732 L594.9812071690606,62.053204215297626 M594.9812071690606,62.053204215297626 L594.941759952716,61.9715368104479 M594.941759952716,61.9715368104479 L594.8875006607113,61.91658085563813 M594.8875006607113,61.91658085563813 L594.8168359114579,61.88788225652246 M594.8168359114579,61.88788225652246 L594.7286789232701,61.884939009787445 M594.7286789232701,61.884939009787445 L594.6227045166156,61.90696044533843 M594.6227045166156,61.90696044533843 L594.4997087858594,61.95304371981359 M594.4997087858594,61.95304371981359 L594.3795986233376,62.01205248926726 M594.3795986233376,62.01205248926726 L594.2277292080241,62.10122070385319 M594.2277292080241,62.10122070385319 L594.047510669397,62.224672406911054 M594.047510669397,62.224672406911054 L593.9082909761582,62.3327300164479 M593.9082909761582,62.3327300164479 L593.7291443200709,62.49033647019371 M593.7291443200709,62.49033647019371 L593.5422116818545,62.685163415667716 M593.5422116818545,62.685163415667716 L593.3821029016553,62.89484533344017 M593.3821029016553,62.89484533344017 L593.2912160877972,63.050653284997 M593.2912160877972,63.050653284997 L593.2238601043223,63.2104043060632 M593.2238601043223,63.2104043060632 L593.1850334309158,63.363208009381765 M593.1850334309158,63.363208009381765 L593.1725924329303,63.50121837468305 M593.1725924329303,63.50121837468305 L593.187532901534,63.66397288369711 M593.187532901534,63.66397288369711 L593.2422755136361,63.835831748646 M593.2422755136361,63.835831748646 L593.3328537931536,63.98964982277289 M593.3328537931536,63.98964982277289 L593.4531149904917,64.1200560801351 M593.4531149904917,64.1200560801351 L593.5963190196485,64.22225390812486 M593.5963190196485,64.22225390812486 L593.7555838693893,64.29196406071037 M593.7555838693893,64.29196406071037 L593.9240673815957,64.32552023319249 M593.9240673815957,64.32552023319249 L594.0950844398204,64.32022623716125 M594.0950844398204,64.32022623716125 L594.2618976880053,64.27466604122816 M594.2618976880053,64.27466604122816 L594.3897358503104,64.20857115786902 M594.3897358503104,64.20857115786902 L594.499680560479,64.12529210585319 M594.499680560479,64.12529210585319 L594.6308274975784,63.984191433692615 M594.6308274975784,63.984191433692615 L594.7225494217753,63.84820213389031 M594.7225494217753,63.84820213389031 L594.8037635598139,63.689700131745326 M594.8037635598139,63.689700131745326 L594.8897791737161,63.45828307158922 M594.8897791737161,63.45828307158922 L594.9585228600099,63.18163468800503 M594.9585228600099,63.18163468800503 L594.9900531413095,62.993017688633245 M594.9900531413095,62.993017688633245 L595.0114147968197,62.8073836040723 M595.0114147968197,62.8073836040723 L595.0228765699005,62.64765859301309 M595.0228765699005,62.64765859301309 L595.0263862862039,62.56189841584569 M595.0263862862039,62.56189841584569 L595.0278564195207,62.479827485600424 M597.2130480732164,41.78889911403792 L598.2042433825227,42.47491524181794 M598.2042433825227,42.47491524181794 L598.8683141954639,43.2697472685976 M598.8683141954639,43.2697472685976 L599.1665992676485,44.12724791769938 M599.1665992676485,44.12724791769938 L599.0816528166856,44.99760461114124 M599.0816528166856,44.99760461114124 L598.618309255047,45.83022853962075 M598.618309255047,45.83022853962075 L597.8034062627853,46.57669724684291 M597.8034062627853,46.57669724684291 L596.6842509811752,47.193575609020854 M596.6842509811752,47.193575609020854 L595.3258852486767,47.64495285555745 M595.3258852486767,47.64495285555745 L593.8073031412615,47.904544628285976 M593.8073031412615,47.904544628285976 L592.2168474287199,47.957231025049396 M592.2168474287199,47.957231025049396 L590.6470565935213,47.799940098816364 M590.6470565935213,47.799940098816364 L589.1892606159756,47.44183932728379 M589.1892606159756,47.44183932728379 L587.9282516081064,46.903782809352606 M587.9282516081064,46.903782809352606 L586.9373529809941,46.2170947351438 M586.9373529809941,46.2170947351438 L586.2741148072464,45.42174345836855 M586.2741148072464,45.42174345836855 L585.9770118657176,44.56399753544861 M585.9770118657176,44.56399753544861 L586.0632157469335,43.69372389323655 M586.0632157469335,43.69372389323655 L586.5276064613734,42.86149366717808 M586.5276064613734,42.86149366717808 L587.3431055419816,42.115638634115214 M587.3431055419816,42.115638634115214 L588.4622692891414,41.49945333248661 M588.4622692891414,41.49945333248661 L589.8200539249638,41.04868976008294 M589.8200539249638,41.04868976008294 L591.3375984973413,40.78949169020956 M591.3375984973413,40.78949169020956 L592.9267988202296,40.73688932031001 M592.9267988202296,40.73688932031001 L594.4954015208184,40.893933992968414 M594.4954015208184,40.893933992968414 L595.9523521862563,41.25151648999213 M595.9523521862563,41.25151648999213 L597.2130480732164,41.78889911403792 M591.7712054017745,60.706309107680966 L575.5094746885215,51.85043903760686 M575.5094746885215,51.85043903760686 L575.4837807629638,51.60087619838686 M575.4837807629638,51.60087619838686 L575.4056720182923,51.39550758841631 M575.4056720182923,51.39550758841631 L575.2796907298272,51.246224728467666 M575.2796907298272,51.246224728467666 L575.1131402788341,51.16178643920557 M575.1131402788341,51.16178643920557 L574.9157155245457,51.14704670075071 M574.9157155245457,51.14704670075071 L574.6988753966023,51.20289578488689 M574.6988753966023,51.20289578488689 L574.4752298809772,51.32605871666158 M574.4752298809772,51.32605871666158 L574.2577760198765,51.50938049431659 M574.2577760198765,51.50938049431659 L574.0591612056629,51.74223106760991 M574.0591612056629,51.74223106760991 L573.8909172879181,52.01106134847089 M573.8909172879181,52.01106134847089 L573.7628413793025,52.3002825400647 M573.7628413793025,52.3002825400647 L573.6823633013987,52.59301874611026 M573.6823633013987,52.59301874611026 L573.6541654902474,52.87229261975608 M573.6541654902474,52.87229261975608 L573.6798898355104,53.12182687951713 M573.6798898355104,53.12182687951713 L573.7580338270128,53.3272122518631 M573.7580338270128,53.3272122518631 L573.8840477125893,53.47642622935291 M573.8840477125893,53.47642622935291 L574.0506202023751,53.5608192012258 M574.0506202023751,53.5608192012258 L574.248051548628,53.57551385091506 M574.248051548628,53.57551385091506 L574.4648811520406,53.51966395199821 M574.4648811520406,53.51966395199821 L574.6885017195223,53.396484956822064 M574.6885017195223,53.396484956822064 L574.9059219239914,53.213135546951264 M574.9059219239914,53.213135546951264 L575.1045018025891,52.98031181275138 M575.1045018025891,52.98031181275138 L575.2727176649471,52.71152297536611 M575.2727176649471,52.71152297536611 L575.4007786722091,52.422382060027246 M575.4007786722091,52.422382060027246 L575.4812588531614,52.129653140132916 M575.4812588531614,52.129653140132916 L575.5094746885215,51.85043903760686 M611.3278625840626,71.3565417345302 L595.0278564195207,62.479827485600424 M611.3278625840626,71.3565417345302 L611.299159488183,71.63612601294989 M611.299159488183,71.63612601294989 L611.2182218454789,71.92933188773543 M611.2182218454789,71.92933188773543 L611.0897599224681,72.21902871065151 M611.0897599224681,72.21902871065151 L610.9212229310976,72.48842018400887 M610.9212229310976,72.48842018400887 L610.7224203376124,72.72185825067612 M610.7224203376124,72.72185825067612 L610.504888747126,72.90579804635718 M610.504888747126,72.90579804635718 L610.2812746600621,73.02950911672332 M610.2812746600621,73.02950911672332 L610.0645690271442,73.08580186320086 M610.0645690271442,73.08580186320086 L609.8673718724565,73.07143511486709 M609.8673718724565,73.07143511486709 L609.7011302146018,72.98723604783987 M609.7011302146018,72.98723604783987 L609.5755246090848,72.83807063643405 M609.5755246090848,72.83807063643405 L609.4978426777934,72.6325856582132 M609.4978426777934,72.6325856582132 L609.4726071578029,72.38280949084299 M609.4726071578029,72.38280949084299 L609.5012923199208,72.10316534786591 M609.5012923199208,72.10316534786591 L609.5822278712426,71.80995209366392 M609.5822278712426,71.80995209366392 L609.710704860534,71.52017477557774 M609.710704860534,71.52017477557774 L609.879270015221,71.25074167249494 M609.879270015221,71.25074167249494 L610.0781076327764,71.01727661677705 M610.0781076327764,71.01727661677705 L610.2956728663671,70.83336441303163 M610.2956728663671,70.83336441303163 L610.5193118993902,70.70966941557117 M610.5193118993902,70.70966941557117 L610.7360280664986,70.65337754098584 M610.7360280664986,70.65337754098584 L610.9332185382866,70.66778953883983 M610.9332185382866,70.66778953883983 L611.0994380488919,70.75203411179854 M611.0994380488919,70.75203411179854 L611.2250108939197,70.90126861783699 M611.2250108939197,70.90126861783699 L611.3026575699837,71.10673691271847 M611.3026575699837,71.10673691271847 L611.3278625840626,71.3565417345302 M597.2130480732164,41.78889911403792 L597.3303215109831,21.836487579221796 M597.3303215109831,21.836487579221796 L598.322536730949,22.521686293274456 M598.322536730949,22.521686293274456 L598.9872953592323,23.315571380898973 M598.9872953592323,23.315571380898973 L599.2858960368455,24.17205058913538 M599.2858960368455,24.17205058913538 L599.200874424034,25.041370697427737 M599.200874424034,25.041370697427737 L598.7370690870034,25.873003139997877 M598.7370690870034,25.873003139997877 L597.9213443585618,26.61858308762919 M597.9213443585618,26.61858308762919 L596.8010550303222,27.234727077765 M596.8010550303222,27.234727077765 L595.4413088464153,27.685567029918047 M595.4413088464153,27.685567029918047 L593.9211802115242,27.944849819847946 M593.9211802115242,27.944849819847946 L592.3291019543392,27.997473507734185 M592.3291019543392,27.997473507734185 L590.7577070725815,27.840369795578397 M590.7577070725815,27.840369795578397 L589.2984189734864,27.4826952710103 M589.2984189734864,27.4826952710103 L588.0361166319435,26.945279255563605 M588.0361166319435,26.945279255563605 L587.0441986895992,26.25940870970794 M587.0441986895992,26.25940870970794 L586.3802743947017,25.465004461931017 M586.3802743947017,25.465004461931017 L586.0828582569809,24.608280021582686 M586.0828582569809,24.608280021582686 L586.1691398689314,23.73904295072714 M586.1691398689314,23.73904295072714 L586.6339945013499,22.90780414283438 M586.6339945013499,22.90780414283438 L587.4503165426624,22.162837763769573 M587.4503165426624,22.162837763769573 L588.5706143623879,21.547386714930212 M588.5706143623879,21.547386714930212 L589.9297782710235,21.097160331316843 M589.9297782710235,21.097160331316843 L591.4488672577567,20.838271176499006 M591.4488672577567,20.838271176499006 L593.0396875626534,20.785731500521308 M593.0396875626534,20.785731500521308 L594.6098918821706,20.942589001971896 M594.6098918821706,20.942589001971896 L596.0683329361398,21.299745340711752 M596.0683329361398,21.299745340711752 L597.3303215109831,21.836487579221796 M516.3246033122352,561.6837186798873 L481.3103033033561,541.4682031442746 M481.3103033033561,541.4682031442746 L106.1059720424281,758.0684581038894 M141.10378477158986,779.2142684994786 L106.1059720424281,758.0684581038894 M516.3246033122352,561.6837186798873 L141.10378477158986,779.2142684994786 M516.708517916866,347.26739687805053 L481.29999920411467,327.2836749734897 M516.708517916866,347.26739687805053 L516.3246033122352,561.6837186798873 M481.29999920411467,327.2836749734897 L481.3103033033561,541.4682031442746 M138.6821587433746,520.6272735631803 L481.29999920411467,327.2836749734897 M140.64089813589425,629.4375024391236 L138.6821587433746,520.6272735631803 M140.64089813589425,629.4375024391236 L103.95682943564054,650.3780765549432 M106.1059720424281,758.0684581038894 L103.95682943564054,650.3780765549432 M141.10378477158986,779.2142684994786 L139.15036560950938,671.4100214223005 M103.95682943564054,650.3780765549432 L139.15036560950938,671.4100214223005 M139.15036560950938,671.4100214223005 L175.83767921110888,650.3780723525367 M175.83767921110888,650.3780723525367 L174.07691982767744,541.4499414846447 M174.07691982767744,541.4499414846447 L516.708517916866,347.26739687805053 M174.07691982767744,541.4499414846447 L138.6821587433746,520.6272735631803 M175.83767921110888,650.3780723525367 L140.64089813589425,629.4375024391236 M591.8222158313527,497.7502911135701 L592.0292636673107,461.6527116561284 M592.0292636673107,461.6527116561284 L592.4171613358565,461.93376674413815 M592.4171613358565,461.93376674413815 L592.6769255630271,462.25937465561356 M592.6769255630271,462.25937465561356 L592.7934604248859,462.6106131211615 M592.7934604248859,462.6106131211615 L592.7599693440138,462.9670784340545 M592.7599693440138,462.9670784340545 L592.5783866241229,463.3080481745617 M592.5783866241229,463.3080481745617 L592.2592464609133,463.61370625322354 M592.2592464609133,463.61370625322354 L591.821094662572,463.8662763567289 M591.821094662572,463.8662763567289 L591.2893899024358,464.05107341271594 M591.2893899024358,464.05107341271594 L590.6950477758717,464.15734560843595 M590.6950477758717,464.15734560843595 L590.0726137863949,464.1789142975778 M590.0726137863949,464.1789142975778 L589.4582863681214,464.1145222845614 M589.4582863681214,464.1145222845614 L588.887773781044,463.96792008845574 M588.887773781044,463.96792008845574 L588.3942540393098,463.74762815519574 M588.3942540393098,463.74762815519574 L588.0064033373596,463.4664661806084 M588.0064033373596,463.4664661806084 L587.7467668543194,463.1407750978408 M587.7467668543194,463.1407750978408 L587.6304130012472,462.78949723043775 M587.6304130012472,462.78949723043775 L587.6640968921406,462.43304531084283 M587.6640968921406,462.43304531084283 L587.8458400502634,462.09213869037336 M587.8458400502634,462.09213869037336 L588.1650715272999,461.78657899944864 M588.1650715272999,461.78657899944864 L588.6032245950541,461.5341200109535 M588.6032245950541,461.5341200109535 L589.1348402893947,461.34942134336546 M589.1348402893947,461.34942134336546 L589.7290234199318,461.24321226793063 M589.7290234199318,461.24321226793063 L590.3512649054042,461.22165697239876 M590.3512649054042,461.22165697239876 L590.9654104145991,461.28600958252673 M590.9654104145991,461.28600958252673 L591.5357933572161,461.4325286087538 M591.5357933572161,461.4325286087538 L592.0292636673107,461.6527116561284 M591.8222158313527,497.7502911135701 L591.3296808263567,497.5296838654709 M591.3296808263567,497.5296838654709 L590.7603765739944,497.3828825475656 M590.7603765739944,497.3828825475656 L590.147390468991,497.31840594941883 M590.147390468991,497.31840594941883 L589.5263217982473,497.3400027756711 M589.5263217982473,497.3400027756711 L588.9332567794787,497.4464164820714 M588.9332567794787,497.4464164820714 L588.4026395815235,497.63147099425896 M588.4026395815235,497.63147099425896 L587.9653073807424,497.8844163538474 M587.9653073807424,497.8844163538474 L587.6466714442447,498.1905646821459 M587.6466714442447,498.1905646821459 L587.4652638481148,498.53212798909055 M587.4652638481148,498.53212798909055 L587.431635996596,498.88926649029145 M587.431635996596,498.88926649029145 L587.5477630392766,499.2412209235774 M587.5477630392766,499.2412209235774 L587.8069030012678,499.5675392476632 M587.8069030012678,499.5675392476632 L588.1940162681706,499.8492426718276 M588.1940162681706,499.8492426718276 L588.6866005195084,500.069958811688 M588.6866005195084,500.069958811688 L589.2560339260249,500.2168433025182 M589.2560339260249,500.2168433025182 L589.8692012537983,500.28135930499667 M589.8692012537983,500.28135930499667 L590.4904617034479,500.2597490846437 M590.4904617034479,500.2597490846437 L591.0836851204758,500.1532722556463 M591.0836851204758,500.1532722556463 L591.6143910507242,499.9681193514558 M591.6143910507242,499.9681193514558 L592.0517219892608,499.71506287278726 M592.0517219892608,499.71506287278726 L592.3702669581282,499.40881615314777 M592.3702669581282,499.40881615314777 L592.551514721938,499.06718972385363 M592.551514721938,499.06718972385363 L592.5849504902621,498.71003782886396 M592.5849504902621,498.71003782886396 L592.4686431200196,498.3581227988763 M592.4686431200196,498.3581227988763 L592.2093758934731,498.0318876491291 M592.2093758934731,498.0318876491291 L591.8222158313527,497.7502911135701 M594.7544637809547,460.08213351037733 L595.7242813470557,460.78457453935164 M595.7242813470557,460.78457453935164 L596.3739373664189,461.5984339323187 M596.3739373664189,461.5984339323187 L596.6656112581586,462.47645872771926 M596.6656112581586,462.47645872771926 L596.5822459278941,463.36764362932547 M596.5822459278941,463.36764362932547 L596.1285883422368,464.2201893587836 M596.1285883422368,464.2201893587836 L595.3309170805601,464.98451561411224 M595.3309170805601,464.98451561411224 L594.2355400352967,465.61614933451506 M594.2355400352967,465.61614933451506 L592.9061171600146,466.0783220835742 M592.9061171600146,466.0783220835742 L591.4199583640943,466.34412201525265 M591.4199583640943,466.34412201525265 L589.8635183536862,466.39806837171653 M589.8635183536862,466.39806837171653 L588.3273542056249,466.23701589901503 M588.3273542056249,466.23701589901503 L586.9008373787499,465.8703508504683 M586.9008373787499,465.8703508504683 L585.6669391250653,465.3194250957022 M585.6669391250653,465.3194250957022 L584.6974058919013,464.61631077608536 M584.6974058919013,464.61631077608536 L584.0485473874401,463.80193106718167 M584.0485473874401,463.80193106718167 L583.7580056813895,462.92366051018075 M583.7580056813895,462.92366051018075 L583.8425751907298,462.03255881790517 M583.8425751907298,462.03255881790517 L584.2972355175373,461.18040759098005 M584.2972355175373,461.18040759098005 L585.0954774889058,460.4166962569651 M585.0954774889058,460.4166962569651 L586.1908624680784,459.7857570055983 M586.1908624680784,459.7857570055983 L587.5197286838554,459.32419917782227 M587.5197286838554,459.32419917782227 L589.0048937523924,459.058793749108 M589.0048937523924,459.058793749108 L590.5601314961782,459.0049316009551 M590.5601314961782,459.0049316009551 L592.0951578316493,459.1657373089472 M592.0951578316493,459.1657373089472 L593.5208652665701,459.53188304039537 M593.5208652665701,459.53188304039537 L594.7544637809547,460.08213351037733 M594.7794021109003,455.83923050059076 L595.7494364789175,456.54151174719675 M595.7494364789175,456.54151174719675 L596.3992386655009,457.3551860426961 M596.3992386655009,457.3551860426961 L596.6909795656777,458.23301118221093 M596.6909795656777,458.23301118221093 L596.6075981458987,459.12399347239733 M596.6075981458987,459.12399347239733 L596.1538422632664,459.97634540993204 M596.1538422632664,459.97634540993204 L595.355996171556,460.74049795545756 M595.355996171556,460.74049795545756 L594.2603779016449,461.371988144003 M594.2603779016449,461.371988144003 L592.9306614260113,461.8340558812113 M592.9306614260113,461.8340558812113 L591.4441737382309,462.0997954241152 M591.4441737382309,462.0997954241152 L589.8873886959708,462.15372952456835 M589.8873886959708,462.15372952456835 L588.3508834735865,461.9927136415978 M588.3508834735865,461.9927136415978 L586.924049394664,461.6261319007209 M586.924049394664,461.6261319007209 L585.6898761791358,461.0753313301993 M585.6898761791358,461.0753313301993 L584.7201262680378,460.37237679658676 M584.7201262680378,460.37237679658676 L584.0711219488619,459.55818218824237 M584.0711219488619,459.55818218824237 L583.7805137355829,458.6801112884245 M583.7805137355829,458.6801112884245 L583.8650998687923,457.7892122072027 M583.8650998687923,457.7892122072027 L584.3198589382034,456.93725476994086 M584.3198589382034,456.93725476994086 L585.1182759942244,456.173717142206 M585.1182759942244,456.173717142206 L586.2139022033222,455.54292141871787 M586.2139022033222,455.54292141871787 L587.5430617741783,455.0814685992698 M587.5430617741783,455.0814685992698 L589.0285552949429,454.8161235570698 M589.0285552949429,454.8161235570698 L590.5841375374979,454.76227366433454 M590.5841375374979,454.76227366433454 L592.1195044423401,454.92304278412007 M592.1195044423401,454.92304278412007 L593.5455287689022,455.28910521076295 M593.5455287689022,455.28910521076295 L594.7794021109003,455.83923050059076 M594.7794021109003,455.83923050059076 L594.7544637809547,460.08213351037733 M517.081331093344,139.0512231365164 L170.67510732744557,330.99922306157487 M170.67510732744557,330.99922306157487 L133.35679867179124,351.6777623475194 M133.35679867179124,351.6777623475194 L97.58308757496991,330.99922719321444 M481.2899935323231,119.30236175889735 L97.58308757496991,330.99922719321444 M517.081331093344,139.0512231365164 L481.2899935323231,119.30236175889735 M170.67510732744557,330.99922306157487 L517.081331093344,139.0512231365164 M97.58308757496991,330.99922719321444 L481.2899935323231,119.30236175889735 M517.0773647650651,141.2664176364177 L170.71130698028833,333.2386889189362 M170.71130698028833,333.2386889189362 L133.39742430815056,353.91978813735534 M133.39742430815056,353.91978813735534 L97.6277798810271,333.2386930510884 M97.6277798810271,333.2386930510884 L481.29009997939335,121.5150069381657 M517.0773647650651,141.2664176364177 L481.29009997939335,121.5150069381657 M170.71130698028833,333.2386889189362 L517.0773647650651,141.2664176364177 M481.29009997939335,121.5150069381657 L97.6277798810271,333.2386930510884 M517.0733993394092,143.48110802137285 L481.2902064022917,123.72714967175034 M133.4380404839818,356.1612918246491 L97.67246180258098,335.47763855674424 M517.0733993394092,143.48110802137285 L170.74749822194252,335.47763442408 M170.74749822194252,335.47763442408 L133.4380404839818,356.1612918246491 M481.2902064022917,123.72714967175034 L97.67246180258098,335.47763855674424 M170.74749822194252,335.47763442408 L517.0733993394092,143.48110802137285 M97.67246180258098,335.47763855674424 L481.2902064022917,123.72714967175034" stroke="black"  stroke-width="4"  fill="red"/></svg>