<svg viewBox="0 0 800 800" xmlns="http://www.w3.org/2000/svg"><path d="M636.6824884543166,259.5005250384402 L636.6837015237252,259.44454132282135 M163.296979129198,540.5420617313739 L163.29818705964135,540.486074909636 M636.6824884543166,259.5005250384402 L689.3493008783407,297.20866854052565 M689.3493008783407,297.20866854052565 L725.1971446852549,340.89346579515495 M725.1971446852549,340.89346579515495 L742.1488014171628,388.0147099105998 M742.1488014171628,388.0147099105998 L739.2219306632614,435.83459150133876 M739.2219306632614,435.83459150133876 L716.5732580261247,481.5762984174826 M716.5732580261247,481.5762984174826 L675.527786281571,522.5784197400017 M675.527786281571,522.5784197400017 L618.4711832011526,556.4558706540156 M618.4711832011526,556.4558706540156 L548.7116783484234,581.2437274166014 M548.7116783484234,581.2437274166014 L470.3067126110691,595.5003432232361 M470.3067126110691,595.5003432232361 L387.81822217947047,598.3911447767623 M387.81822217947047,598.3911447767623 L306.0374261389079,589.7552164782282 M306.0374261389079,589.7552164782282 L229.71724854558124,570.0924555171623 M229.71724854558124,570.0924555171623 L163.296979129198,540.5420617313739 M636.6837015237252,259.44454132282135 L689.3505145525996,297.15268440810996 M689.3505145525996,297.15268440810996 L725.1983587799041,340.8374811798949 M725.1983587799041,340.8374811798949 L742.1500157233386,387.95872477453304 M742.1500157233386,387.95872477453304 L739.223144959833,435.77860583676465 M739.223144959833,435.77860583676465 L716.5744720923831,481.52031224738766 M716.5744720923831,481.52031224738766 L675.5289999102824,522.5224331167819 M675.5289999102824,522.5224331167819 L618.4723962104763,556.3998836564169 M618.4723962104763,556.3998836564169 L548.7128905924183,581.1877401450802 M548.7128905924183,581.1877401450802 L470.30792398838094,595.4443557941731 M470.30792398838094,595.4443557941731 L387.81943263913854,598.3351573157533 M387.81943263913854,598.3351573157533 L306.0386356832896,589.6992291126508 M306.0386356832896,589.6992291126508 L229.71845723022125,570.0364683688704 M229.71845723022125,570.0364683688704 L163.29818705964135,540.486074909636 M163.296979129198,540.5420617313739 L110.63295074673078,502.82664311819735 M110.63295074673078,502.82664311819735 L74.79344904090976,459.13623727107733 M74.79344904090976,459.13623727107733 L57.84998427666142,412.01019197213463 M57.84998427666142,412.01019197213463 L60.79353915670072,364.193357700512 M60.79353915670072,364.193357700512 L83.4530477521912,318.4559073235778 M83.4530477521912,318.4559073235778 L124.50482049337006,277.4604207180346 M124.50482049337006,277.4604207180346 L181.56174628630106,243.59046221086464 M181.56174628630106,243.59046221086464 L251.31552167769405,218.80924005072484 M251.31552167769405,218.80924005072484 L329.71001815046475,204.55688122668107 M329.71001815046475,204.55688122668107 L412.181902241442,201.66483829955996 M412.181902241442,201.66483829955996 L493.9542774284055,210.3002537436123 M493.9542774284055,210.3002537436123 L570.265629801972,229.95740674273839 M570.265629801972,229.95740674273839 L636.6824884543166,259.5005250384402 M163.29818705964135,540.486074909636 L110.63415807238198,502.77065671325727 M110.63415807238198,502.77065671325727 L74.79465594640351,459.0802513489816 M74.79465594640351,459.0802513489816 L57.851190970875905,411.95420657086834 M57.851190970875905,411.95420657086834 L60.79474586081051,364.13737282772854 M60.79474586081051,364.13737282772854 L83.45425468684698,318.399922956316 M83.45425468684698,318.399922956316 L124.50602786574746,277.40443680390035 M124.50602786574746,277.40443680390035 L181.56295427806617,243.53447867110845 M181.56295427806617,243.53447867110845 L251.31673043462797,218.75325678489025 M251.31673043462797,218.75325678489025 L329.7112277738779,204.50089811839098 M329.7112277738779,204.50089811839098 L412.18311278216424,201.6088552232377 M412.18311278216424,201.6088552232377 L493.9554888841958,210.24427057183584 M493.9554888841958,210.24427057183584 L570.2668421173003,229.90142335367545 M570.2668421173003,229.90142335367545 L636.6837015237252,259.44454132282135" stroke="black"  stroke-width="4"  fill="red"/></svg>