<svg viewBox="0 0 800 800" xmlns="http://www.w3.org/2000/svg"><path d="M317.0227003927994,434.6327995444991 L303.0047656241709,441.73841013726246 M303.0047656241709,441.73841013726246 L289.75504052169515,434.63280096407425 M289.75504052169515,434.63280096407425 L303.7711983541369,427.5600622831302 M317.0227003927994,434.6327995444991 L303.7711983541369,427.5600622831302 M303.0047656241709,441.73841013726246 L301.3033214867872,368.6098582385636 M301.3033214867872,368.6098582385636 L315.4688678520829,361.60272690399006 M315.4688678520829,361.60272690399006 L313.88286602309984,287.0606988903333 M313.88286602309984,287.0606988903333 L299.5665684704008,293.9637206995819 M299.5665684704008,293.9637206995819 L296.34785536750206,155.62251805845264 M296.34785536750206,155.62251805845264 L310.9437429361847,148.92202119355088 M310.9437429361847,148.92202119355088 L307.89084734273536,5.436039846621156 M307.89084734273536,5.436039846621156 L482.7131845217633,-70.6265005605635 M482.7131845217633,-70.6265005605635 L482.20467393378374,205.89941352989456 M517.4169244712657,188.92079650142043 L482.20467393378374,205.89941352989456 M517.4169244712657,188.92079650142043 L517.2543030284174,194.78757510902548 M517.2543030284174,194.78757510902548 L516.8440942313896,200.74845304397772 M516.8440942313896,200.74845304397772 L516.1879767923504,206.78666815940866 M516.1879767923504,206.78666815940866 L515.2882703884361,212.88522744072367 M515.2882703884361,212.88522744072367 L514.1479255341259,219.02722031605143 M514.1479255341259,219.02722031605143 L512.770508396974,225.19543754528027 M512.770508396974,225.19543754528027 L511.16020000372583,231.3728390351894 M511.16020000372583,231.3728390351894 L509.3217658546185,237.54244663719675 M509.3217658546185,237.54244663719675 L507.2605561651625,243.68716981288898 M507.2605561651625,243.68716981288898 L504.98248063043036,249.79012339078892 M504.98248063043036,249.79012339078892 L502.49400259683955,255.834562531345 M502.49400259683955,255.834562531345 L499.8021069661955,261.8039906996515 M499.8021069661955,261.8039906996515 L499.8620858904425,261.8474767599031 M499.8620858904425,261.8474767599031 L499.9061965808964,261.9146512695817 M499.9061965808964,261.9146512695817 L499.9318780429997,262.00162992604487 M499.9318780429997,262.00162992604487 L499.9376390031971,262.1032589103246 M499.9376390031971,262.1032589103246 L499.9231453668026,262.2137083916426 M499.9231453668026,262.2137083916426 L499.88923945529774,262.3265688895982 M499.88923945529774,262.3265688895982 L499.8378930001185,262.4352454735581 M499.8378930001185,262.4352454735581 L499.7720881833862,262.53344045049084 M499.7720881833862,262.53344045049084 L499.69564938619504,262.61539514847743 M499.69564938619504,262.61539514847743 L499.6130166790007,262.6764258489441 M499.6130166790007,262.6764258489441 L499.52899078055776,262.71299651248654 M499.52899078055776,262.71299651248654 L499.4484562253973,262.72290856236964 M499.4484562253973,262.72290856236964 L499.37609332830954,262.7056024714424 M499.37609332830954,262.7056024714424 L496.66912202126036,268.71010591102225 M496.66912202126036,268.71010591102225 L494.1706216805584,274.78458564412927 M494.1706216805584,274.78458564412927 L491.8882808288031,280.9099540559242 M491.8882808288031,280.9099540559242 L489.8290606685677,287.0669308004638 M489.8290606685677,287.0669308004638 L487.99917159780045,293.2362287875566 M487.99917159780045,293.2362287875566 L486.4040520532064,299.3985802821435 M486.4040520532064,299.3985802821435 L485.0483552857626,305.53465403611034 M485.0483552857626,305.53465403611034 L483.9359344894834,311.6253424142492 M483.9359344894834,311.6253424142492 L483.0698333852101,317.65188615651886 M483.0698333852101,317.65188615651886 L482.45228206396087,323.59552334552717 M482.45228206396087,323.59552334552717 L482.08469342770337,329.43813587600596 M482.08469342770337,329.43813587600596 L481.9676656633298,335.1616842013186 M481.9676656633298,335.1616842013186 L481.93846887468436,351.0379440411697 M516.4609652848421,333.53868896333694 L481.93846887468436,351.0379440411697 M516.4609652848421,333.53868896333694 L516.3022494725258,339.1817953672952 M516.3022494725258,339.1817953672952 L515.9007470356769,344.92393255944353 M515.9007470356769,344.92393255944353 L515.2580942482296,350.7487167782404 M515.2580942482296,350.7487167782404 L514.376554741604,356.63993277336255 M514.376554741604,356.63993277336255 L513.2590150735247,362.5810078025331 M513.2590150735247,362.5810078025331 L511.9089647421501,368.5554468018392 M511.9089647421501,368.5554468018392 L510.3304996039157,374.5466370533164 M510.3304996039157,374.5466370533164 L508.52829025374405,380.5380305154396 M508.52829025374405,380.5380305154396 L506.50758185799526,386.51305324396594 M506.50758185799526,386.51305324396594 L504.2741700818068,392.4553088544037 M504.2741700818068,392.4553088544037 L501.8343958176569,398.348414179142 M501.8343958176569,398.348414179142 L499.19511305129294,404.17620719138625 M499.19511305129294,404.17620719138625 L499.2539343114113,404.2160318718894 M499.2539343114113,404.2160318718894 L499.29719662336544,404.2791306554594 M499.29719662336544,404.2791306554594 L499.3223882279709,404.3618552818763 M499.3223882279709,404.3618552818763 L499.32804594358987,404.4593781526032 M499.32804594358987,404.4593781526032 L499.313841971746,404.5660298833268 M499.313841971746,404.5660298833268 L499.2806017903079,404.67562132079473 M499.2806017903079,404.67562132079473 L499.230258202396,404.78179846982556 M499.230258202396,404.78179846982556 L499.16573526603906,404.87838266553575 M499.16573526603906,404.87838266553575 L499.09078276984934,404.95973639092944 M499.09078276984934,404.95973639092944 L499.00975469052656,405.0211582195056 M499.00975469052656,405.0211582195056 L498.92735854376934,405.0590890134707 M498.92735854376934,405.0590890134707 L498.84838403091027,405.071278030759 M498.84838403091027,405.071278030759 L498.77742060130225,405.05708243014453 M498.77742060130225,405.05708243014453 L496.1233355433789,410.91914103738185 M496.1233355433789,410.91914103738185 L493.6736674872951,416.8416153278301 M493.6736674872951,416.8416153278301 L491.43594942565005,422.8058453962269 M491.43594942565005,422.8058453962269 L489.4170024862643,428.7931118975346 M489.4170024862643,428.7931118975346 L487.6229133931012,434.784713040764 M487.6229133931012,434.784713040764 L486.05901398747005,440.76188852995085 M486.05901398747005,440.76188852995085 L484.7298676369731,446.7059688169678 M484.7298676369731,446.7059688169678 L483.6392549730088,452.598549243772 M483.6392549730088,452.598549243772 L482.79016510270003,458.42135709925105 M482.79016510270003,458.42135709925105 L482.1847903487195,464.1564204241455 M482.1847903487195,464.1564204241455 L481.8245237319265,469.7861834320888 M481.8245237319265,469.7861834320888 L481.7099603912559,475.293392220191 M481.7099603912559,475.293392220191 L481.6818836973491,490.56058113340214 M481.6818836973491,490.56058113340214 L515.5417840427062,472.59279913467935 M515.5417840427062,472.59279913467935 L515.386796109882,478.02500819260115 M515.386796109882,478.02500819260115 L514.9936406940013,483.5605791482693 M514.9936406940013,483.5605791482693 L514.3639116525637,489.18379024557305 M514.3639116525637,489.18379024557305 L513.4998210548479,494.8788598256183 M513.4998210548479,494.8788598256183 L512.4041922775125,500.62983885616586 M512.4041922775125,500.62983885616586 L511.0804430586036,506.42063280537604 M511.0804430586036,506.42063280537604 L509.53258639420415,512.235210843814 M509.53258639420415,512.235210843814 L507.7652019799189,518.0573860520147 M507.7652019799189,518.0573860520147 L505.78343371323564,523.8711244633928 M505.78343371323564,523.8711244633928 L503.5929683219417,529.6603463879335 M503.5929683219417,529.6603463879335 L501.20002812446086,535.40913910122 M501.20002812446086,535.40913910122 L498.61134091561945,541.1016867413713 M498.61134091561945,541.1016867413713 L498.66904845448215,541.1380710929468 M498.66904845448215,541.1380710929468 L498.7114942947441,541.1973784453892 M498.7114942947441,541.1973784453892 L498.73621437070057,541.276107761661 M498.73621437070057,541.276107761661 L498.74177255531686,541.369736717614 M498.74177255531686,541.369736717614 L498.7278467977789,541.472822253005 M498.7278467977789,541.472822253005 L498.69524660312806,541.5793343569046 M498.69524660312806,541.5793343569046 L498.6458675634228,541.683097363348 M498.6458675634228,541.683097363348 L498.5825775196166,541.7781209894567 M498.5825775196166,541.7781209894567 L498.50905473155694,541.8588347298239 M498.50905473155694,541.8588347298239 L498.42957014809184,541.9205733928435 M498.42957014809184,541.9205733928435 L498.3487416326754,541.9597590787778 M498.3487416326754,541.9597590787778 L498.2712676664453,541.9740944416146 M498.2712676664453,541.9740944416146 L498.20165081196546,541.9627371061566 M498.20165081196546,541.9627371061566 L495.59842493800994,547.6888004962781 M495.59842493800994,547.6888004962781 L493.1957171398775,553.4662934386907 M493.1957171398775,553.4662934386907 L491.0009104753016,559.2771122530995 M491.0009104753016,559.2771122530995 L489.02069163642005,565.1030450282869 M489.02069163642005,565.1030450282869 L487.26102877988797,570.92584653667 M487.26102877988797,570.92584653667 L485.7271508418751,576.7273856895638 M485.7271508418751,576.7273856895638 L484.42353486968244,582.489568850609 M484.42353486968244,582.489568850609 L483.35389190287003,588.1945202302727 M483.35389190287003,588.1945202302727 L482.52115791639636,593.8246246985669 M482.52115791639636,593.8246246985669 L481.9274889791863,599.3625193813187 M481.9274889791863,599.3625193813187 L481.5742585391749,604.7912656690949 M481.5742585391749,604.7912656690949 L481.46205860030716,610.094287471693 M481.46205860030716,610.094287471693 L481.4350387391789,624.7868052454489 M514.6572982442826,606.3981685449435 L481.4350387391789,624.7868052454489 M514.6572982442826,606.3981685449435 L513.7340531415298,746.067061194493 M481.17677961336784,764.8640118300576 L513.7340531415298,746.067061194493 M481.17677961336784,764.8640118300576 L481.15026495179956,779.2825730169612 M481.15026495179956,779.2825730169612 L313.1248959681494,876.70448443886 M313.1248959681494,876.70448443886 L310.40576021930946,759.8352582564329 M310.40576021930946,759.8352582564329 L323.78247052941595,752.3417489803421 M322.9351359597397,712.5170551650485 L323.78247052941595,752.3417489803421 M322.9351359597397,712.5170551650485 L309.4781324534965,719.9655536187951 M309.4781324534965,719.9655536187951 L307.90768389339024,652.4672288083408 M307.90768389339024,652.4672288083408 L321.50067174764206,645.0972896082019 M321.50067174764206,645.0972896082019 L320.0376898979018,576.3371961241198 M320.0376898979018,576.3371961241198 L306.30594317188115,583.6239580199989 M306.30594317188115,583.6239580199989 L304.6719643948637,513.395086456672 M304.6719643948637,513.395086456672 L318.54533035787273,506.19635226984735 M318.54533035787273,506.19635226984735 L317.0227003927994,434.6327995444991 M287.92182608215967,361.6027283038573 L301.3033214867872,368.6098582385636 M289.75504052169515,434.63280096407425 L287.92182608215967,361.6027283038573 M302.0855403305668,354.62834465580306 L287.92182608215967,361.6027283038573 M302.0855403305668,354.62834465580306 L300.3650662047045,280.19027277052385 M300.3650662047045,280.19027277052385 L286.05065825817485,287.0607002693685 M286.05065825817485,287.0607002693685 L282.58307552873435,148.92202253206685 M297.17696379837156,142.25376298354638 L282.58307552873435,148.92202253206685 M297.17696379837156,142.25376298354638 L293.86575358329446,-1.009132001085618 M293.86575358329446,-1.009132001085618 L468.67668200870486,-76.70448443886005 M468.67668200870486,-76.70448443886005 L468.67668200870486,199.406438893892 M468.67668200870486,199.406438893892 L503.8896039534178,182.50543759873992 M503.8896039534178,182.50543759873992 L503.73769472478943,188.3637462238937 M503.73769472478943,188.3637462238937 L503.33814185852935,194.31566512561815 M503.33814185852935,194.31566512561815 L502.69259350168693,200.3444566635908 M502.69259350168693,200.3444566635908 L501.80333911617254,206.43315337330003 M501.80333911617254,206.43315337330003 L500.6732999329359,212.5648708491905 M500.6732999329359,212.5648708491905 L499.30601305685354,218.72242716671195 M499.30601305685354,218.72242716671195 L497.7056315441292,224.8888100751653 M497.7056315441292,224.8888100751653 L495.87689379319863,231.04706992914325 M495.87689379319863,231.04706992914325 L493.8251234652825,237.18014562587354 M493.8251234652825,237.18014562587354 L491.5562048112229,243.27118191708195 M491.5562048112229,243.27118191708195 L489.07657671317077,249.30346448858705 M489.07657671317077,249.30346448858705 L486.3932007513557,255.26052776908693 M485.96845565819643,256.1602420582105 L486.0409177502909,256.17763744592884 M486.0409177502909,256.17763744592884 L486.1215088551614,256.16786465323145 M486.1215088551614,256.16786465323145 L486.20554534054514,256.1314751337736 M486.20554534054514,256.1314751337736 L486.2881421889095,256.0706568330453 M486.2881421889095,256.0706568330453 L486.36450074443303,255.98893346378338 M486.36450074443303,255.98893346378338 L486.4301854532076,255.89097541400287 M486.4301854532076,255.89097541400287 L486.48137900791414,255.78252751818803 M486.48137900791414,255.78252751818803 L486.51510807925666,255.66987421028742 M486.51510807925666,255.66987421028742 L486.5294112781093,255.55959833225205 M486.5294112781093,255.55959833225205 L486.52345733427336,255.45809929067076 M486.52345733427336,255.45809929067076 L486.497591418281,255.37119946891698 M486.497591418281,255.37119946891698 L486.4533157076791,255.30404796637924 M486.4533157076791,255.30404796637924 L486.3932007513557,255.26052776908693 M468.6773780884077,328.49106410750755 L468.78397986982924,322.77533149538334 M468.78397986982924,322.77533149538334 L469.1411559890164,316.94111312470204 M469.1411559890164,316.94111312470204 L469.7483397944009,311.0064222454355 M469.7483397944009,311.0064222454355 L470.60414947770323,304.98934896589134 M470.60414947770323,304.98934896589134 L471.706386654314,298.90862476686203 M471.706386654314,298.90862476686203 L473.05203874886166,292.7829769313135 M473.05203874886166,292.7829769313135 L474.63728381220545,286.63147914092167 M474.63728381220545,286.63147914092167 L476.45749972382197,280.47342692738937 M476.45749972382197,280.47342692738937 L478.5072785514891,274.32805099343295 M478.5072785514891,274.32805099343295 L480.78043994082293,268.2146000272404 M480.78043994082293,268.2146000272404 L483.27005224032445,262.1523147098891 M483.27005224032445,262.1523147098891 L485.96845565819643,256.1602420582105 M468.6773780884077,328.49106410750755 L468.6773765627445,344.3462229923746 M468.6773765627445,344.3462229923746 L503.20050559414096,326.9253953300021 M503.20050559414096,326.9253953300021 L503.05208367361917,332.560845625726 M503.05208367361917,332.560845625726 L502.66082170179766,338.29482646977914 M502.66082170179766,338.29482646977914 L502.02832618555766,344.11097682174017 M502.02832618555766,344.11097682174017 L501.1568320831467,349.9931046950435 M501.1568320831467,349.9931046950435 L500.04919740553754,355.9246618559511 M500.04919740553754,355.9246618559511 L498.70888402486446,361.8891784188186 M498.70888402486446,361.8891784188186 L497.13996073987533,367.8700677997149 M497.13996073987533,367.8700677997149 L495.34707196601113,373.8508087873457 M495.34707196601113,373.8508087873457 L493.33543740151987,379.8148551099044 M493.33543740151987,379.8148551099044 L491.1108283059216,385.7458386265814 M491.1108283059216,385.7458386265814 L488.67956191558716,391.62740521867505 M488.67956191558716,391.62740521867505 L486.0484696562425,397.4434224253329 M485.63199676425086,398.3224874055086 L485.70305547474373,398.33678110329697 M485.70305547474373,398.33678110329697 L485.7820843661581,398.32473703183354 M485.7820843661581,398.32473703183354 L485.86449070759727,398.28698969001914 M485.86449070759727,398.28698969001914 L485.9454842880568,398.22577909567195 M485.9454842880568,398.22577909567195 L486.0203595765746,398.1446521263463 M486.0203595765746,398.1446521263463 L486.0847670338242,398.0482970691047 M486.0847670338242,398.0482970691047 L486.134963625331,397.94233809596784 M486.134963625331,397.94233809596784 L486.16803385120056,397.8329411881813 M486.16803385120056,397.8329411881813 L486.1820547566356,397.72644905636463 M486.1820547566356,397.72644905636463 L486.1762114873178,397.62904159230794 M486.1762114873178,397.62904159230794 L486.1508426296709,397.546381470283 M486.1508426296709,397.546381470283 L486.1074217051598,397.48329251232707 M486.1074217051598,397.48329251232707 L486.0484696562425,397.4434224253329 M468.677364621629,468.44195041199185 L468.7819024644344,462.94179165671744 M468.7819024644344,462.94179165671744 L469.13215690364353,457.31966054587616 M469.13215690364353,457.31966054587616 L469.72756293118607,451.59278733457813 M469.72756293118607,451.59278733457813 L470.56675759750055,445.77870217206055 M470.56675759750055,445.77870217206055 L471.6475788157687,439.89534926560054 M471.6475788157687,439.89534926560054 L472.9670676817264,433.96097163108703 M472.9670676817264,433.96097163108703 L474.52147343762584,427.9939425363175 M474.52147343762584,427.9939425363175 L476.30626252028287,422.0128983203379 M476.30626252028287,422.0128983203379 L478.3161325201617,416.03656452619083 M478.3161325201617,416.03656452619083 L480.54502551068515,410.08360689438774 M480.54502551068515,410.08360689438774 L482.9861486840632,404.17270739506466 M482.9861486840632,404.17270739506466 L485.63199676425086,398.3224874055086 M468.677364621629,468.44195041199185 L468.67736315436775,483.6901783267384 M502.5378602690388,465.80137515747765 L468.67736315436775,483.6901783267384 M502.5378602690388,465.80137515747765 L502.3927720729287,471.22666826560186 M502.3927720729287,471.22666826560186 L502.00946535375505,476.7548144020758 M502.00946535375505,476.7548144020758 L501.38950551379605,482.37011249531 M501.38950551379605,482.37011249531 L500.5350768458184,488.0568024511544 M500.5350768458184,488.0568024511544 L499.44897543275346,493.79895782249207 M499.44897543275346,493.79895782249207 L498.1345922328269,499.580507649422 M498.1345922328269,499.580507649422 L496.5959143697323,505.38544543376474 M496.5959143697323,505.38544543376474 L494.837496141587,511.197609589823 M494.837496141587,511.197609589823 L492.86445709324386,517.0009921370932 M492.86445709324386,517.0009921370932 L490.6824602540207,522.779540255257 M490.6824602540207,522.779540255257 L488.2977052801013,528.5173687340769 M488.2977052801013,528.5173687340769 L485.71689817400267,534.1986899326828 M485.30838142532826,535.0580115301872 L485.3780899624959,535.0694745196005 M485.3780899624959,535.0694745196005 L485.4556161699514,535.0552889142552 M485.4556161699514,535.0552889142552 L485.5364544655924,535.0162883722659 M485.5364544655924,535.0162883722659 L485.61590583425794,534.9547594527153 M485.61590583425794,534.9547594527153 L485.6893543233975,534.8742678805322 M485.6893543233975,534.8742678805322 L485.7525332544261,534.7794659711113 M485.7525332544261,534.7794659711113 L485.8017709116003,534.6759112896908 M485.8017709116003,534.6759112896908 L485.8342075973881,534.5695820662429 M485.8342075973881,534.5695820662429 L485.84795719453905,534.4666433568698 M485.84795719453905,534.4666433568698 L485.8422205087703,534.3731165946423 M485.8422205087703,534.3731165946423 L485.8173299688095,534.2944388976834 M485.8173299688095,534.2944388976834 L485.77473151221966,534.2351296518927 M485.77473151221966,534.2351296518927 L485.71689817400267,534.1986899326828 M468.6773516660346,603.0804521013158 L468.7799039729166,597.7837836855608 M468.7799039729166,597.7837836855608 L469.1234999020236,592.3619745228242 M469.1234999020236,592.3619745228242 L469.7075763707412,586.8315793750357 M469.7075763707412,586.8315793750357 L470.53078887858345,581.20951347503 M470.53078887858345,581.20951347503 L471.59101045691517,575.5131142155655 M471.59101045691517,575.5131142155655 L472.8853340816842,569.7599693674372 M472.8853340816842,569.7599693674372 L474.41007754424226,563.9679255061521 M474.41007754424226,563.9679255061521 L476.1607924447686,558.155045291847 M476.1607924447686,558.155045291847 L478.13227799627873,552.3394273416654 M478.13227799627873,552.3394273416654 L480.31859384734724,546.5392828791487 M480.31859384734724,546.5392828791487 L482.71308051346944,540.7727885221893 M482.71308051346944,540.7727885221893 L485.30838142532826,535.0580115301872 M468.6773516660346,603.0804521013158 L468.67735025388396,617.7559544567481 M501.9001733350725,599.4466216007285 L468.67735025388396,617.7559544567481 M501.9001733350725,599.4466216007285 L501.23448580714404,738.9601806615153 M501.23448580714404,738.9601806615153 L468.6766820087049,757.6776936070967 M468.6766820087049,772.0809465470063 L468.6766820087049,757.6776936070967 M468.6766820087049,772.0809465470063 L300.66074015821727,869.0849958025339 M300.66074015821727,869.0849958025339 L297.730229544546,752.3417504775675 M311.1053900988023,744.8813658140439 L297.730229544546,752.3417504775675 M311.1053900988023,744.8813658140439 L310.18596909032533,705.1016759639909 M296.73054268803037,712.5170566532613 L310.18596909032533,705.1016759639909 M296.73054268803037,712.5170566532613 L295.038159218377,645.0972910806862 M308.62952294063473,637.760442152543 L295.038159218377,645.0972910806862 M308.62952294063473,637.760442152543 L307.0422042657532,569.0834769779218 M293.3121305882835,576.337197579953 L307.0422042657532,569.0834769779218 M293.3121305882835,576.337197579953 L291.55144210608233,506.19635370806026 M305.4230841196785,499.0305886416877 L291.55144210608233,506.19635370806026 M305.4230841196785,499.0305886416877 L303.7711983541369,427.5600622831302 M318.54533035787273,506.19635226984735 L305.4230841196785,499.0305886416877 M315.4688678520829,361.60272690399006 L302.0855403305668,354.62834465580306 M313.88286602309984,287.0606988903333 L300.3650662047045,280.19027277052385 M299.5665684704008,293.9637206995819 L286.05065825817485,287.0607002693685 M282.58307552873435,148.92202253206685 L296.34785536750206,155.62251805845264 M310.9437429361847,148.92202119355088 L297.17696379837156,142.25376298354638 M307.89084734273536,5.436039846621156 L293.86575358329446,-1.009132001085618 M482.7131845217633,-70.6265005605635 L468.67668200870486,-76.70448443886005 M482.20467393378374,205.89941352989456 L468.67668200870486,199.406438893892 M517.4169244712657,188.92079650142043 L503.8896039534178,182.50543759873992 M493.7963173644912,193.81510981962222 L493.6059209048302,193.7438955482774 M493.6059209048302,193.7438955482774 L493.3856790738381,193.6965056687228 M493.3856790738381,193.6965056687228 L493.14838646213167,193.6756925326712 M493.14838646213167,193.6756925326712 L492.9078286485841,193.68266358603793 M492.9078286485841,193.68266358603793 L492.67797702113745,193.7170158182976 M492.67797702113745,193.7170158182976 L492.4721857858024,193.7767530885129 M492.4721857858024,193.7767530885129 L492.30241042279283,193.8584073501401 M492.30241042279283,193.8584073501401 L492.1785184337226,193.95723612811312 M492.1785184337226,193.95723612811312 L492.1077117390671,194.06749935885122 M492.1077117390671,194.06749935885122 L492.09411445720434,194.1827899819744 M492.09411445720434,194.1827899819744 L492.138520141126,194.29640912016632 M492.138520141126,194.29640912016632 L492.23835658249897,194.40175173316075 M492.23835658249897,194.40175173316075 L492.38782474670285,194.49269340417496 M492.38782474670285,194.49269340417496 L492.57824169443285,194.56394586633897 M492.57824169443285,194.56394586633897 L492.79853776285944,194.61136493872644 M492.79853776285944,194.61136493872644 L493.03590661383254,194.63219190467206 M493.03590661383254,194.63219190467206 L493.27654520248655,194.62521615061448 M493.27654520248655,194.62521615061448 L493.5064636367631,194.5908417628635 M493.5064636367631,194.5908417628635 L493.71229240566817,194.531069958923 M493.71229240566817,194.531069958923 L493.88206743067207,194.4493766961557 M493.88206743067207,194.4493766961557 L494.0059212875959,194.35051338446937 M494.0059212875959,194.35051338446937 L494.07666079140256,194.24022799854725 M494.07666079140256,194.24022799854725 L494.0901772166806,194.12493267437762 M494.0901772166806,194.12493267437762 L494.04569553320937,194.0113273661824 M494.04569553320937,194.0113273661824 L493.9458053604019,193.906013945913 M493.9458053604019,193.906013945913 L493.7963173644912,193.81510981962222 M499.8021069661955,261.8039906996515 L486.3932007513557,255.26052776908693 M499.37609332830954,262.7056024714424 L485.96845565819643,256.1602420582105 M481.9676656633298,335.1616842013186 L468.6773780884077,328.49106410750755 M481.93846887468436,351.0379440411697 L468.6773765627445,344.3462229923746 M516.4609652848421,333.53868896333694 L503.20050559414096,326.9253953300021 M493.3027966197047,338.583609817012 L493.11615298243555,338.5102066134326 M493.11615298243555,338.5102066134326 L492.90024610057407,338.4613600579819 M492.90024610057407,338.4613600579819 L492.66761882232674,338.4399071550119 M492.66761882232674,338.4399071550119 L492.43178581851924,338.4470924895787 M492.43178581851924,338.4470924895787 L492.20644419690876,338.48250065499866 M492.20644419690876,338.48250065499866 L492.00468624560176,338.5440741137904 M492.00468624560176,338.5440741137904 L491.83823319185126,338.6282381597402 M491.83823319185126,338.6282381597402 L491.71675944053214,338.7301044821363 M491.71675944053214,338.7301044821363 L491.6473262749043,338.8437565343104 M491.6473262749043,338.8437565343104 L491.63397769946135,338.96259030340514 M491.63397769946135,338.96259030340514 L491.6774926145226,339.0797010320174 M491.6774926145226,339.0797010320174 L491.77535028832455,339.1882807265795 M491.77535028832455,339.1882807265795 L491.9218665359966,339.28201682313846 M491.9218665359966,339.28201682313846 L492.10852987089356,339.3554586242786 M492.10852987089356,339.3554586242786 L492.3244888749156,339.40433467847095 M492.3244888749156,339.40433467847095 L492.55718942353076,339.4258015562572 M492.55718942353076,339.4258015562572 L492.7931000600795,339.41861147174154 M492.7931000600795,339.41861147174154 L493.0185058925473,339.38318091866506 M493.0185058925473,339.38318091866506 L493.22029992256364,339.3215725642724 M493.22029992256364,339.3215725642724 L493.38675265784417,339.23736910849306 M493.38675265784417,339.23736910849306 L493.5081897664734,339.1354678905085 M493.5081897664734,339.1354678905085 L493.57755835942,339.02179345098864 M493.57755835942,339.02179345098864 L493.5908292253526,338.9029549315854 M493.5908292253526,338.9029549315854 L493.54724126578543,338.78585817789286 M493.54724126578543,338.78585817789286 L493.4493319465778,338.67730798196385 M493.4493319465778,338.67730798196385 L493.3027966197047,338.583609817012 M499.19511305129294,404.17620719138625 L486.0484696562425,397.4434224253329 M498.77742060130225,405.05708243014453 L485.63199676425086,398.3224874055086 M481.7099603912559,475.293392220191 L468.677364621629,468.44195041199185 M481.6818836973491,490.56058113340214 L468.67736315436775,483.6901783267384 M515.5417840427062,472.59279913467935 L502.5378602690388,465.80137515747765 M492.8282945242268,477.7732129565477 L492.6452586292767,477.697840778829 M492.6452586292767,477.697840778829 L492.4335193434849,477.6476839190864 M492.4335193434849,477.6476839190864 L492.20537748791145,477.6256555339211 M492.20537748791145,477.6256555339211 L491.9740872676937,477.63303361847636 M491.9740872676937,477.63303361847636 L491.7530820722021,477.66939161455844 M491.7530820722021,477.66939161455844 L491.55520234810206,477.73261675300967 M491.55520234810206,477.73261675300967 L491.39194407306945,477.8190383787685 M491.39194407306945,477.8190383787685 L491.2727959675321,477.9236369925517 M491.2727959675321,477.9236369925517 L491.2046840648292,478.04033729313096 M491.2046840648292,478.04033729313096 L491.1915753084353,478.1623581042942 M491.1915753084353,478.1623581042942 L491.2342344752018,478.2826094795935 M491.2342344752018,478.2826094795935 L491.33019029062285,478.3941008739662 M491.33019029062285,478.3941008739662 L491.47386895895835,478.49035049407075 M491.47386895895835,478.49035049407075 L491.65692380644987,478.56576154734427 M491.65692380644987,478.56576154734427 L491.8687132205018,478.61594811325307 M491.8687132205018,478.61594811325307 L492.09692554764916,478.63799057150055 M492.09692554764916,478.63799057150055 L492.32829043810875,478.6306077035963 M492.32829043810875,478.6306077035963 L492.5493573969081,478.5942271624358 M492.5493573969081,478.5942271624358 L492.74727182783414,478.53096688301036 M492.74727182783414,478.53096688301036 L492.9105298024555,478.4445055703063 M492.9105298024555,478.4445055703063 L493.02964266916655,478.3398718155611 M493.02964266916655,478.3398718155611 L493.0976924672548,478.22314897021613 M493.0976924672548,478.22314897021613 L493.110726480991,478.1011233753419 M493.110726480991,478.1011233753419 L493.067997055705,477.98088607322916 M493.067997055705,477.98088607322916 L492.9719915617445,477.86942438491326 M492.9719915617445,477.86942438491326 L492.8282945242268,477.7732129565477 M498.61134091561945,541.1016867413713 L485.71689817400267,534.1986899326828 M498.20165081196546,541.9627371061566 L485.30838142532826,535.0580115301872 M481.46205860030716,610.094287471693 L468.6773516660346,603.0804521013158 M481.4350387391789,624.7868052454489 L468.67735025388396,617.7559544567481 M514.6572982442826,606.3981685449435 L501.9001733350725,599.4466216007285 M492.37173240538345,611.7003351673656 L492.19216742664804,611.6231939541291 M492.19216742664804,611.6231939541291 L491.9844378921651,611.5718598399935 M491.9844378921651,611.5718598399935 L491.7606117593212,611.549314406692 M491.7606117593212,611.549314406692 L491.53369261753255,611.5568656696122 M491.53369261753255,611.5568656696122 L491.3168601009998,611.5940770504801 M491.3168601009998,611.5940770504801 L491.1227123208522,611.6587861525359 M491.1227123208522,611.6587861525359 L490.96252849926213,611.7472361082996 M490.96252849926213,611.7472361082996 L490.84561866571585,611.8542895443675 M490.84561866571585,611.8542895443675 L490.7787786871797,611.973728520281 M490.7787786871797,611.973728520281 L490.7659013277417,612.0986126846143 M490.7659013277417,612.0986126846143 L490.80773774195006,612.2216857095377 M490.80773774195006,612.2216857095377 L490.9018642097523,612.3357930429338 M490.9018642097523,612.3357930429338 L491.04281311884233,612.4343008573071 M491.04281311884233,612.4343008573071 L491.2223963469742,612.5114811127244 M491.2223963469742,612.5114811127244 L491.4301741280787,612.5628450552948 M491.4301741280787,612.5628450552948 L491.65406809105576,612.5854046196023 M491.65406809105576,612.5854046196023 L491.8810591069824,612.5778485536453 M491.8810591069824,612.5778485536453 L492.097951076593,612.5406145349048 M492.097951076593,612.5406145349048 L492.2921322684684,612.4758701472372 M492.2921322684684,612.4758701472372 L492.4523158063659,612.3873803411793 M492.4523158063659,612.3873803411793 L492.5691917257914,612.2802916195117 M492.5691917257914,612.2802916195117 L492.63597192893764,612.1608300060394 M492.63597192893764,612.1608300060394 L492.64877734585167,612.035941038306 M492.64877734585167,612.035941038306 L492.6068733027077,611.9128821444931 M492.6068733027077,611.9128821444931 L492.51269901297627,611.7988046394222 M492.51269901297627,611.7988046394222 L492.37173240538345,611.7003351673656 M513.7340531415298,746.067061194493 L501.23448580714404,738.9601806615153 M468.6766820087049,757.6776936070967 L481.17677961336784,764.8640118300576 M492.871533768727,750.9248008673294 L493.2168579761817,751.1763745512742 M493.2168579761817,751.1763745512742 L493.44760218711576,751.467852810186 M493.44760218711576,751.467852810186 L493.5503330344867,751.7823123632634 M493.5503330344867,751.7823123632634 L493.51904454497617,752.1014845895622 M493.51904454497617,752.1014845895622 L493.35551876236093,752.4068186133403 M493.35551876236093,752.4068186133403 L493.0692283212412,752.6805575167015 M493.0692283212412,752.6805575167015 L492.67679360275105,752.9067734798448 M492.67679360275105,752.9067734798448 L492.20102180921407,753.0722980349351 M492.20102180921407,753.0722980349351 L491.66958060237897,753.1674927989739 M491.66958060237897,753.1674927989739 L491.1133857751292,753.1868133878579 M491.1133857751292,753.1868133878579 L490.56479683739207,753.1291340545141 M490.56479683739207,753.1291340545141 L490.0557322664402,752.9978150243869 M490.0557322664402,752.9978150243869 L489.61580108679897,752.8005033986683 M489.61580108679897,752.8005033986683 L489.2705799157311,752.5486878423748 M489.2705799157311,752.5486878423748 L489.0401220900107,752.257022487388 M489.0401220900107,752.257022487388 L488.9377977286952,751.9424748253538 M488.9377977286952,751.9424748253538 L488.9695176367562,751.6233324915866 M488.9695176367562,751.6233324915866 L489.1334021181081,751.3181401882575 M489.1334021181081,751.3181401882575 L489.4198960518684,751.0446221882304 M489.4198960518684,751.0446221882304 L489.8123324386137,750.8186557050157 M489.8123324386137,750.8186557050157 L490.28790369382006,750.6533520532483 M490.28790369382006,750.6533520532483 L490.8189880972091,750.5582990098139 M490.8189880972091,750.5582990098139 L491.3747519080085,750.53900867124 M491.3747519080085,750.53900867124 L491.9229331765226,750.5965991801041 M491.9229331765226,750.5965991801041 L492.4317088649052,750.7277318296889 M492.4317088649052,750.7277318296889 L492.871533768727,750.9248008673294 M481.15026495179956,779.2825730169612 L468.6766820087049,772.0809465470063 M313.1248959681494,876.70448443886 L300.66074015821727,869.0849958025339 M297.730229544546,752.3417504775675 L310.40576021930946,759.8352582564329 M323.78247052941595,752.3417489803421 L311.1053900988023,744.8813658140439 M322.9351359597397,712.5170551650485 L310.18596909032533,705.1016759639909 M309.4781324534965,719.9655536187951 L296.73054268803037,712.5170566532613 M295.038159218377,645.0972910806862 L307.90768389339024,652.4672288083408 M321.50067174764206,645.0972896082019 L308.62952294063473,637.760442152543 M320.0376898979018,576.3371961241198 L307.0422042657532,569.0834769779218 M306.30594317188115,583.6239580199989 L293.3121305882835,576.337197579953 M291.55144210608233,506.19635370806026 L304.6719643948637,513.395086456672 M493.7963173644912,193.81510981962222 L493.84792208114686,178.67747375881038 M493.84792208114686,178.67747375881038 L493.99771885757644,178.76807512657857 M493.99771885757644,178.76807512657857 L494.09781619964883,178.87303781282267 M494.09781619964883,178.87303781282267 L494.1423913806928,178.9862647899076 M494.1423913806928,178.9862647899076 L494.12884932493535,179.10117617401866 M494.12884932493535,179.10117617401866 L494.05796651636234,179.21109432134782 M494.05796651636234,179.21109432134782 L493.9338599919291,179.30962844376202 M493.9338599919291,179.30962844376202 L493.76373760426543,179.3910496998034 M493.76373760426543,179.3910496998034 L493.55748696634595,179.45062249307816 M493.55748696634595,179.45062249307816 L493.32709668498876,179.4848824334018 M493.32709668498876,179.4848824334018 L493.0859637203101,179.49183496232166 M493.0859637203101,179.49183496232166 L492.8481067199238,179.47107733807232 M492.8481067199238,179.47107733807232 L492.627357128094,179.4238161459983 M492.627357128094,179.4238161459983 L492.43654765695834,179.35280092281724 M492.43654765695834,179.35280092281724 L492.28677079174645,179.26216205780926 M492.28677079174645,179.26216205780926 L492.1867274016072,179.15717021627486 M492.1867274016072,179.15717021627486 L492.14222853248464,179.04392942692803 M492.14222853248464,179.04392942692803 L492.1558517775089,178.9290227378352 M492.1558517775089,178.9290227378352 L492.2268020537119,178.81912671727972 M492.2268020537119,178.81912671727972 L492.35094686776284,178.72062708429476 M492.35094686776284,178.72062708429476 L492.5210695955199,178.6392447793812 M492.5210695955199,178.6392447793812 L492.72728254609495,178.57970647554762 M492.72728254609495,178.57970647554762 L492.9576057462131,178.54546866230444 M492.9576057462131,178.54546866230444 L493.19865760360636,178.5385208280479 M493.19865760360636,178.5385208280479 L493.4364380508738,178.55926464013746 M493.4364380508738,178.55926464013746 L493.6571331816451,178.60649667681372 M493.6571331816451,178.60649667681372 L493.84792208114686,178.67747375881038 M493.3027966197047,338.583609817012 L493.3523916955071,324.0354782399404 M493.3523916955071,324.0354782399404 L493.4992237146747,324.12890392242383 M493.4992237146747,324.12890392242383 L493.5973320613722,324.2371384597629 M493.5973320613722,324.2371384597629 L493.64100979750845,324.3538947198141 M493.64100979750845,324.3538947198141 L493.62771421850044,324.4723876998851 M493.62771421850044,324.4723876998851 L493.5582078252141,324.58573163326537 M493.5582078252141,324.58573163326537 L493.43652782173206,324.687336590409 M493.43652782173206,324.687336590409 L493.2697411976283,324.77129524927193 M493.2697411976283,324.77129524927193 L493.06754169051857,324.83272450148684 M493.06754169051857,324.83272450148684 L492.8416823676705,324.8680520564287 M492.8416823676705,324.8680520564287 L492.6052966082564,324.8752212392686 M492.6052966082564,324.8752212392686 L492.3721269394411,324.8538167662026 M492.3721269394411,324.8538167662026 L492.15573210970075,324.8050827981844 M492.15573210970075,324.8050827981844 L491.9686915880085,324.73185450368703 M491.9686915880085,324.73185450368703 L491.82187872301677,324.6383909230424 M491.82187872301677,324.6383909230424 L491.7238222294966,324.5301269136007 M491.7238222294966,324.5301269136007 L491.68021783218086,324.41335669119803 M491.68021783218086,324.41335669119803 L491.6935914341308,324.2948684571633 M491.6935914341308,324.2948684571633 L491.76316266084575,324.18154689099447 M491.76316266084575,324.18154689099447 L491.88487945534496,324.0799767980551 M491.88487945534496,324.0799767980551 L492.05166639984697,323.9960575135775 M492.05166639984697,323.9960575135775 L492.2538296833347,323.93466312557916 M492.2538296833347,323.93466312557916 L492.47962453676894,323.89935793815886 M492.47962453676894,323.89935793815886 L492.7159323504749,323.8921935009961 M492.7159323504749,323.8921935009961 L492.94902845324015,323.91358401181446 M492.94902845324015,323.91358401181446 L493.16537095016184,323.9622885076212 M493.16537095016184,323.9622885076212 L493.3523916955071,324.0354782399404 M492.8282945242268,477.7732129565477 L492.87599485592716,463.78088225396687 M492.87599485592716,463.78088225396687 L493.019977192204,463.87684870349585 M493.019977192204,463.87684870349585 L493.11617404153577,463.9880265966299 M493.11617404153577,463.9880265966299 L493.1589897396312,464.1079577774665 M493.1589897396312,464.1079577774665 L493.1459318823218,464.2296727168957 M493.1459318823218,464.2296727168957 L493.07774947791614,464.3460984243568 M493.07774947791614,464.3460984243568 L492.9584029340532,464.4504658307721 M492.9584029340532,464.4504658307721 L492.7948237771237,464.536707064134 M492.7948237771237,464.536707064134 L492.59651932593414,464.5998063263372 M492.59651932593414,464.5998063263372 L492.37501618499005,464.63609426993014 M492.37501618499005,464.63609426993014 L492.143194324029,464.643458346796 M492.143194324029,464.643458346796 L491.9145308168582,464.6214719917049 M491.9145308168582,464.6214719917049 L491.70232226090985,464.57141316452123 M491.70232226090985,464.57141316452123 L491.5189046835457,464.49619405930446 M491.5189046835457,464.49619405930446 L491.3749407872291,464.4001894393467 M491.3749407872291,464.4001894393467 L491.2787938124413,464.2889818572556 M491.2787938124413,464.2889818572556 L491.2360486504866,464.1690366113331 M491.2360486504866,464.1690366113331 L491.24918154609054,464.04732645286134 M491.24918154609054,464.04732645286134 L491.31742630103776,463.9309232771887 M491.31742630103776,463.9309232771887 L491.4368082236041,463.8265909915074 M491.4368082236041,463.8265909915074 L491.60038768272864,463.74038942224604 M491.60038768272864,463.74038942224604 L491.7986572903738,463.6773252807891 M491.7986572903738,463.6773252807891 L492.0200984241097,463.6410598692971 M492.0200984241097,463.6410598692971 L492.2518453196222,463.6337005730267 M492.2518453196222,463.6337005730267 L492.4804380763326,463.65567286313654 M492.4804380763326,463.65567286313654 L492.69259630534606,463.7057020012534 M492.69259630534606,463.7057020012534 L492.87599485592716,463.78088225396687 M492.37173240538345,611.7003351673656 L492.4176445737009,598.2325411401193 M492.4176445737009,598.2325411401193 L492.558885730645,598.3307906471264 M492.558885730645,598.3307906471264 L492.6532441389651,598.4446133357902 M492.6532441389651,598.4446133357902 L492.6952311523247,598.5673973687918 M492.6952311523247,598.5673973687918 L492.68240271654724,598.6920074066209 M492.68240271654724,598.6920074066209 L492.61549481283004,598.811202229213 M492.61549481283004,598.811202229213 L492.49839391886746,598.9180518065959 M492.49839391886746,598.9180518065959 L492.3379011931555,599.0063440127257 M492.3379011931555,599.0063440127257 L492.1433445702721,599.070943830502 M492.1433445702721,599.070943830502 L491.92603275409164,599.1080947104359 M491.92603275409164,599.1080947104359 L491.6986018989088,599.1156339048654 M491.6986018989088,599.1156339048654 L491.4742736859561,599.093124712781 M491.4742736859561,599.093124712781 L491.26609250645663,599.0418754606865 M491.26609250645663,599.0418754606865 L491.08616018958173,598.9648675468837 M491.08616018958173,598.9648675468837 L490.9449367980299,598.8665797083836 M490.9449367980299,598.8665797083836 L490.8506263967487,598.7527272003415 M490.8506263967487,598.7527272003415 L490.8087072744921,598.6299290404676 M490.8087072744921,598.6299290404676 L490.8216079319573,598.5053238045982 M490.8216079319573,598.5053238045982 L490.88857584327366,598.3861516127746 M490.88857584327366,598.3861516127746 L491.0057107834138,598.279337310408 M491.0057107834138,598.279337310408 L491.16620379447073,598.1910849426196 M491.16620379447073,598.1910849426196 L491.36072687649585,598.1265203998715 M491.36072687649585,598.1265203998715 L491.5779790092668,598.0893921510201 M491.5779790092668,598.0893921510201 L491.8053377115461,598.0818577581869 M491.8053377115461,598.0818577581869 L492.0295978310263,598.1043528235037 M492.0295978310263,598.1043528235037 L492.23773057632076,598.1555722561103 M492.23773057632076,598.1555722561103 L492.4176445737009,598.2325411401193 M492.871533768727,750.9248008673294 L492.86615768754496,752.4382985562225 M492.86615768754496,752.4382985562225 L493.2114047576867,752.6899291619734 M493.2114047576867,752.6899291619734 L493.4420972181853,752.9814733611914 M493.4420972181853,752.9814733611914 L493.54480472015183,753.2960040410176 M493.54480472015183,753.2960040410176 L493.51352266263024,753.61524844669 M493.51352266263024,753.61524844669 L493.35003273187397,753.9206515078334 M493.35003273187397,753.9206515078334 L493.0638054926107,754.1944522943227 M493.0638054926107,754.1944522943227 L492.6714576607703,754.4207193898111 M492.6714576607703,754.4207193898111 L492.1957913891407,754.5862813546948 M492.1957913891407,754.5862813546948 L491.66446819924323,754.6814976318308 M491.66446819924323,754.6814976318308 L491.1083970117297,754.7008225868356 M491.1083970117297,754.7008225868356 L490.5599301349465,754.6431302188089 M490.5599301349465,754.6431302188089 L490.0509789365635,754.5117815108732 M490.0509789365635,754.5117815108732 L489.611145841435,754.314425288895 M489.611145841435,754.314425288895 L489.26600176238156,754.0625528099453 M489.26600176238156,754.0625528099453 L489.0355955599449,753.7708215138532 M489.0355955599449,753.7708215138532 L488.9332943636319,753.4562027248112 M488.9332943636319,753.4562027248112 L488.9650076478361,753.1369882117455 M488.9650076478361,753.1369882117455 L489.1288561176867,752.831726871596 M489.1288561176867,752.831726871596 L489.4152867588154,752.55814698929 M489.4152867588154,752.55814698929 L489.80763625779883,752.3321293746893 M489.80763625779883,752.3321293746893 L490.2831020799034,752.1667883139779 M490.2831020799034,752.1667883139779 L490.8140686247339,752.071713757991 M490.8140686247339,752.071713757991 L491.3697089873967,752.0524190534525 M491.3697089873967,752.0524190534525 L491.9177683761477,752.1100225965785 M491.9177683761477,752.1100225965785 L492.42643082077774,752.2411849233347 M492.42643082077774,752.2411849233347 L492.86615768754496,752.4382985562225 M494.906006580612,178.1711919443911 L495.28053486892196,178.3976240089107 M495.28053486892196,178.3976240089107 L495.53087831697303,178.65997623968167 M495.53087831697303,178.65997623968167 L495.6424603357061,178.94301762813657 M495.6424603357061,178.94301762813657 L495.6087544003826,179.23030537573615 M495.6087544003826,179.23030537573615 L495.43167662465527,179.5051415990585 M495.43167662465527,179.5051415990585 L495.1214818292414,179.75154208611136 M495.1214818292414,179.75154208611136 L494.6961765297925,179.95516830570253 M494.6961765297925,179.95516830570253 L494.18047824339703,180.10416516700172 M494.18047824339703,180.10416516700172 L493.60437803985553,180.18985525215393 M493.60437803985553,180.18985525215393 L493.0013924610972,180.2072468350694 M493.0013924610972,180.2072468350694 L492.4066066760666,180.15532637056637 M492.4066066760666,180.15532637056637 L491.85463020645807,180.03711916305818 M491.85463020645807,180.03711916305818 L491.377570251142,179.85950998312106 M491.377570251142,179.85950998312106 L491.00316284449434,179.63284187042595 M491.00316284449434,179.63284187042595 L490.7531559182714,179.3703070968057 M490.7531559182714,179.3703070968057 L490.64205152710514,179.08717970379902 M490.64205152710514,179.08717970379902 L490.67626455676896,178.7999211391277 M490.67626455676896,178.7999211391277 L490.8537640046558,178.52522320781983 M490.8537640046558,178.52522320781983 L491.1641981109165,178.27903828011281 M491.1641981109165,178.27903828011281 L491.58950553598754,178.07565550515355 M491.58950553598754,178.07565550515355 L492.10496827579425,177.92687420319524 M492.10496827579425,177.92687420319524 L492.6806492220714,177.84132241021487 M492.6806492220714,177.84132241021487 L493.283128218821,177.8239603322664 M493.283128218821,177.8239603322664 L493.8774348687387,177.875794148172 M493.8774348687387,177.875794148172 L494.42907163449706,177.99381945687534 M494.42907163449706,177.99381945687534 L494.906006580612,178.1711919443911 M494.38973782148406,323.51341192260395 L494.75685281859245,323.74690398795707 M494.75685281859245,323.74690398795707 L495.00221986611325,324.0174352572758 M495.00221986611325,324.0174352572758 L495.11155267990193,324.30929956666785 M495.11155267990193,324.30929956666785 L495.0784570586663,324.605541414871 M495.0784570586663,324.605541414871 L494.9048153263356,324.88894253396234 M494.9048153263356,324.88894253396234 L494.6006840266522,325.14302082532754 M494.6006840266522,325.14302082532754 L494.1837180973118,325.352991345164 M494.1837180973118,325.352991345164 L493.67815040320806,325.50663006109096 M493.67815040320806,325.50663006109096 L493.11338247059854,325.5949895931369 M493.11338247059854,325.5949895931369 L492.5222708576213,325.6129229516137 M492.5222708576213,325.6129229516137 L491.93920900046226,325.55938506879835 M491.93920900046226,325.55938506879835 L491.3981234354404,325.4374953428652 M491.3981234354404,325.4374953428652 L490.93048729929586,325.2543527095202 M490.93048729929586,325.2543527095202 L490.5634885227953,325.02062203754247 M490.5634885227953,325.02062203754247 L490.3184448932595,324.7499062352581 M490.3184448932595,324.7499062352581 L490.20957111176335,324.4579549932944 M490.20957111176335,324.4579549932944 L490.2431540444883,324.16174264186316 M490.2431540444883,324.16174264186316 L490.4172009852391,323.878481317519 M490.4172009852391,323.878481317519 L490.72156222948644,323.6246209278477 M490.72156222948644,323.6246209278477 L491.13853016135164,323.4148964980026 M491.13853016135164,323.4148964980026 L491.64387145715756,323.2614756837629 M491.64387145715756,323.2614756837629 L492.20823645639405,323.1732559466213 M492.20823645639405,323.1732559466213 L492.7988612405457,323.1553524169925 M492.7988612405457,323.1553524169925 L493.38146264517036,323.2088027031176 M493.38146264517036,323.2088027031176 L493.92222179445866,323.3305085602053 M493.92222179445866,323.3305085602053 L494.38973782148406,323.51341192260395 M493.89339990064974,463.24461587011785 L494.2533893718489,463.48445931164247 M494.2533893718489,463.48445931164247 L494.49397398808435,463.7623485681151 M494.49397398808435,463.7623485681151 L494.6011464342673,464.06214998227176 M494.6011464342673,464.06214998227176 L494.56863957788266,464.3664468078788 M494.56863957788266,464.3664468078788 L494.39830310889545,464.6575526525565 M494.39830310889545,464.6575526525565 L494.10000281339876,464.9185375612774 M494.10000281339876,464.9185375612774 L493.6910555161415,465.13421506002464 M493.6910555161415,465.13421506002464 L493.1952280694383,465.29202928584004 M493.1952280694383,465.29202928584004 L492.6413551864365,465.3827900615536 M492.6413551864365,465.3827900615536 L492.06165893110494,465.4012107611142 M492.06165893110494,465.4012107611142 L491.48986775537054,465.3462179673347 M491.48986775537054,465.3462179673347 L490.9592516443438,465.22101570096214 M490.9592516443438,465.22101570096214 L490.5006742306346,465.0328955094693 M490.5006742306346,465.0328955094693 L490.14079658392006,464.7928117122479 M490.14079658392006,464.7928117122479 L489.9005230320736,464.51473655843705 M489.9005230320736,464.51473655843705 L489.79379208855994,464.2148475786478 M489.79379208855994,464.2148475786478 L489.8267676088075,463.9105804635561 M489.8267676088075,463.9105804635561 L489.9974937681904,463.61961544223027 M489.9974937681904,463.61961544223027 L490.296015181261,463.35885003851536 M490.296015181261,463.35885003851536 L490.70496436727007,463.1434204404794 M490.70496436727007,463.1434204404794 L491.2005740411857,462.9858257196621 M491.2005740411857,462.9858257196621 L491.75405937958413,462.8952057674575 M491.75405937958413,462.8952057674575 L492.33328742629567,462.8768151195168 M492.33328742629567,462.8768151195168 L492.9046357598103,462.9317196654878 M492.9046357598103,462.9317196654878 L493.43493797901453,463.0567367167023 M493.43493797901453,463.0567367167023 L493.89339990064974,463.24461587011785 M493.4158607277948,597.683514761725 L493.7689960054455,597.929065517007 M493.7689960054455,597.929065517007 L494.0049810387039,598.2135665215291 M494.0049810387039,598.2135665215291 L494.1100767967238,598.5204999461233 M494.1100767967238,598.5204999461233 L494.07813826772144,598.8320345692633 M494.07813826772144,598.8320345692633 L493.9109836061049,599.1300633709641 M493.9109836061049,599.1300633709641 L493.61829494009083,599.3972540081222 M493.61829494009083,599.3972540081222 L493.21706368769105,599.6180592648294 M493.21706368769105,599.6180592648294 L492.7306082734602,599.7796251722082 M492.7306082734602,599.7796251722082 L492.1872180383965,599.872543441402 M492.1872180383965,599.872543441402 L491.6185045935011,599.8914020106506 M491.6185045935011,599.8914020106506 L491.05755663315904,599.835101996692 M491.05755663315904,599.835101996692 L490.5370125202048,599.7069234363092 M490.5370125202048,599.7069234363092 L490.087149541748,599.5143309027993 M490.087149541748,599.5143309027993 L489.73412193768036,599.2685387425757 M489.73412193768036,599.2685387425757 L489.4984363092779,598.9838510174708 M489.4984363092779,598.9838510174708 L489.3937655100558,598.6768296491908 M489.3937655100558,598.6768296491908 L489.426155105306,598.3653248637742 M489.426155105306,598.3653248637742 L489.5936848139459,598.0674375040494 M489.5936848139459,598.0674375040494 L489.88658626921995,597.8004673361625 M489.88658626921995,597.8004673361625 L490.2878193050566,597.5799110691703 M490.2878193050566,597.5799110691703 L490.7740650883122,597.4185656310533 M490.7740650883122,597.4185656310533 L491.3170823024987,597.3257888039918 M491.3170823024987,597.3257888039918 L491.88534511100676,597.306960421684 M491.88534511100676,597.306960421684 L492.44586684769314,597.363171793556 M492.44586684769314,597.363171793556 L492.96610888601157,597.4911643317638 M492.96610888601157,597.4911643317638 L493.4158607277948,597.683514761725 M491.89003390935744,753.0009176805872 L492.0281203452178,753.1015991905017 M492.0281203452178,753.1015991905017 L492.1203632940821,753.2182391995931 M492.1203632940821,753.2182391995931 L492.16139724948744,753.3440621573538 M492.16139724948744,753.3440621573538 L492.14883375871017,753.4717560959145 M492.14883375871017,753.4717560959145 L492.08339375188564,753.5939005958057 M492.08339375188564,753.5939005958057 L491.9688785535715,753.7033941757821 M491.9688785535715,753.7033941757821 L491.8119392107417,753.7938710588447 M491.8119392107417,753.7938710588447 L491.6216971343145,753.860069246091 M491.6216971343145,753.860069246091 L491.40921018087573,753.8981393098237 M491.40921018087573,753.8981393098237 L491.186833840142,753.9058650359557 M491.186833840142,753.9058650359557 L490.96749581504923,753.8827989281529 M490.96749581504923,753.8827989281529 L490.76395019747946,753.830281655622 M490.76395019747946,753.830281655622 L490.5880292553322,753.7513683249988 M490.5880292553322,753.7513683249988 L490.4499598236681,753.6506484159294 M490.4499598236681,753.6506484159294 L490.35776277607687,753.533978528636 M490.35776277607687,753.533978528636 L490.3167937295522,753.4081414161353 M490.3167937295522,753.4081414161353 L490.32942626654926,753.2804522890068 M490.32942626654926,753.2804522890068 L490.3949236397011,753.1583304645272 M490.3949236397011,753.1583304645272 L490.5094713822144,753.048872229153 M490.5094713822144,753.048872229153 L490.6664109917827,752.9584352630196 M490.6664109917827,752.9584352630196 L490.8566209963793,752.8922724203875 M490.8566209963793,752.8922724203875 L491.069050886541,752.8542250323809 M491.069050886541,752.8542250323809 L491.29135824535393,752.8465041173172 M491.29135824535393,752.8465041173172 L491.51063117239255,752.8695560704849 M491.51063117239255,752.8695560704849 L491.7141304893774,752.9220434647038 M491.7141304893774,752.9220434647038 L491.89003390935744,753.0009176805872 M494.9123277184779,176.3916377994171 L495.286946784636,176.61798055593908 M495.286946784636,176.61798055593908 L495.53735117536377,176.8802293223203 M495.53735117536377,176.8802293223203 L495.64896074629655,177.16315910043505 M495.64896074629655,177.16315910043505 L495.6152473515808,177.45033357733888 M495.6152473515808,177.45033357733888 L495.4381275176093,177.7250614525901 M495.4381275176093,177.7250614525901 L495.12785849189197,177.97136481277354 M495.12785849189197,177.97136481277354 L494.7024510940529,178.17491077426268 M494.7024510940529,178.17491077426268 L494.18662877474435,178.32384891382523 M494.18662877474435,178.32384891382523 L493.61038982188126,178.4095052290514 M493.61038982188126,178.4095052290514 L493.007258858231,178.42688995820737 M493.007258858231,178.42688995820737 L492.4123295225256,178.3749899549278 M492.4123295225256,178.3749899549278 L491.8602196992989,178.25682933317248 M491.8602196992989,178.25682933317248 L491.38304435133165,178.07929015397016 M491.38304435133165,178.07929015397016 L491.00854622446366,177.85271138538494 M491.00854622446366,177.85271138538494 L490.7584785176119,177.59028010421892 M490.7584785176119,177.59028010421892 L490.6473468042101,177.30726433466052 M490.6473468042101,177.30726433466052 L490.68156753792704,177.02011903624955 M490.68156753792704,177.02011903624955 L490.85910924767677,176.74552943181058 M490.85910924767677,176.74552943181058 L491.1696177000892,176.49944159792418 M491.1696177000892,176.49944159792418 L491.595027225088,176.2961390437434 M491.595027225088,176.2961390437434 L492.11061388468255,176.14741643047296 M492.11061388468255,176.14741643047296 L492.68643337840945,176.0618983862159 M492.68643337840945,176.0618983862159 L493.28905751576065,176.0445431574647 M493.28905751576065,176.0445431574647 L493.88350748529837,176.09635652550892 M493.88350748529837,176.09635652550892 L494.4352774403253,176.21433527627008 M494.4352774403253,176.21433527627008 L494.9123277184779,176.3916377994171 M494.9123277184779,176.3916377994171 L494.906006580612,178.1711919443911 M494.3958125429945,321.8032299786664 L494.76301475955387,322.0366416609585 M494.76301475955387,322.0366416609585 L495.00844035090256,322.30707980685656 M495.00844035090256,322.30707980685656 L495.11779961779047,322.5988436626345 M495.11779961779047,322.5988436626345 L495.08469680283184,322.8949835645301 M495.08469680283184,322.8949835645301 L494.9110146284625,323.1782871693863 M494.9110146284625,323.1782871693863 L494.6068119723026,323.43227804702366 M494.6068119723026,323.43227804702366 L494.1897479095854,323.6421763358894 M494.1897479095854,323.6421763358894 L493.6840610083429,323.79576220376214 M493.6840610083429,323.79576220376214 L493.1191597319284,323.88409134395033 M493.1191597319284,323.88409134395033 L492.5279084041719,323.9020185342799 M492.5279084041719,323.9020185342799 L491.94470860032317,323.8484990658776 M491.94470860032317,323.8484990658776 L491.4034948926943,323.7266512657623 M491.4034948926943,323.7266512657623 L490.9357478782817,323.5435716315788 M490.9357478782817,323.5435716315788 L490.56866193665104,323.3099213683305 M490.56866193665104,323.3099213683305 L490.32355991596785,323.03929870945717 M490.32355991596785,323.03929870945717 L490.2146598980309,322.7474479304094 M490.2146598980309,322.7474479304094 L490.2482502549646,322.451337522142 M490.2482502549646,322.451337522142 L490.42233782956356,322.16817369694866 M490.42233782956356,322.16817369694866 L490.7267705394007,321.91440069749217 M490.7267705394007,321.91440069749217 L491.14383660606273,321.7047484720636 M491.14383660606273,321.7047484720636 L491.64929700240896,321.55138048236546 M491.64929700240896,321.55138048236546 L492.21379515525416,321.4631911219975 M492.21379515525416,321.4631911219975 L492.80455942404166,321.44529375725756 M492.80455942404166,321.44529375725756 L493.38729855769054,321.4987256385001 M493.38729855769054,321.4987256385001 L493.9281856947792,321.6203895895317 M493.9281856947792,321.6203895895317 L494.3958125429945,321.8032299786664 M494.3958125429945,321.8032299786664 L494.38973782148406,323.51341192260395 M493.8992423388486,461.59982733140384 L494.2593156762944,461.8395984966767 M494.2593156762944,461.8395984966767 L494.4999565763947,462.1174040226786 M494.4999565763947,462.1174040226786 L494.60715444102357,462.41711511703693 M494.60715444102357,462.41711511703693 L494.57464064276184,462.7213202823292 M494.57464064276184,462.7213202823292 L494.40426525655965,463.0123384530881 M494.40426525655965,463.0123384530881 L494.1058963147066,463.2732447703887 M494.1058963147066,463.2732447703887 L493.69685462252477,463.4888573290308 M493.69685462252477,463.4888573290308 L493.20091251820696,463.6466240416913 M493.20091251820696,463.6466240416913 L492.64691138707525,463.73735749373634 M492.64691138707525,463.73735749373634 L492.06708076172595,463.75577264786864 M492.06708076172595,463.75577264786864 L491.49515692142563,463.7007964094531 M491.49515692142563,463.7007964094531 L490.9644175792253,463.57563183642253 M490.9644175792253,463.57563183642253 L490.5057335418082,463.3875682847395 M490.5057335418082,463.3875682847395 L490.1457720801092,463.1475567804065 M490.1457720801092,463.1475567804065 L489.90544238841966,462.8695653700735 M489.90544238841966,462.8695653700735 L489.79868623081984,462.56976671609317 M489.79868623081984,462.56976671609317 L489.83166891032937,462.2655912592895 M489.83166891032937,462.2655912592895 L490.00243416782325,461.9747139020889 M490.00243416782325,461.9747139020889 L490.3010243301405,461.71402707452893 M490.3010243301405,461.71402707452893 L490.7100679123878,461.49866239935784 M490.7100679123878,461.49866239935784 L491.20579214335356,461.3411151764299 M491.20579214335356,461.3411151764299 L491.75940555047816,461.25052253810014 M491.75940555047816,461.25052253810014 L492.33876775013925,461.23213743345843 M492.33876775013925,461.23213743345843 L492.9102485429284,461.2870254302818 M492.9102485429284,461.2870254302818 L493.44067384731824,461.41200480095597 M493.44067384731824,461.41200480095597 L493.8992423388486,461.59982733140384 M493.8992423388486,461.59982733140384 L493.89339990064974,463.24461587011785 M493.42148395534286,596.1004393560848 L493.77469993575215,596.3459252077313 M493.77469993575215,596.3459252077313 L494.0107391212815,596.6303510239816 M494.0107391212815,596.6303510239816 L494.115859322602,596.9372033446448 M494.115859322602,596.9372033446448 L494.08391409067815,597.2486556616294 M494.08391409067815,597.2486556616294 L493.91672195204774,597.5466057381745 M493.91672195204774,597.5466057381745 L493.6239671982915,597.8137258068213 M493.6239671982915,597.8137258068213 L493.22264507979366,598.0344727535999 M493.22264507979366,598.0344727535999 L492.73607930191,598.1959959992494 M492.73607930191,598.1959959992494 L492.1925656277829,598.2888897348978 M492.1925656277829,598.2888897348978 L491.62372285670165,598.3077433249994 M491.62372285670165,598.3077433249994 L491.06264721623825,598.2514581758408 M491.06264721623825,598.2514581758408 L490.54198450649454,598.123313459901 M490.54198450649454,598.123313459901 L490.092018918628,597.9307717831467 M490.092018918628,597.9307717831467 L489.7389106602309,597.6850445353876 M489.7389106602309,597.6850445353876 L489.50317101556254,597.4004320055242 M489.50317101556254,597.4004320055242 L489.39847596601476,597.0934917443411 M489.39847596601476,597.0934917443411 L489.43087246944464,596.7820692640184 M489.43087246944464,596.7820692640184 L489.5984398258935,596.4842606242299 M489.5984398258935,596.4842606242299 L489.8914074660416,596.2173610167187 M489.8914074660416,596.2173610167187 L490.2927313691931,595.996863050467 M490.2927313691931,595.996863050467 L490.77908742112425,595.8355602659435 M490.77908742112425,595.8355602659435 L491.3222279049615,595.7428079672079 M491.3222279049615,595.7428079672079 L491.8906198346905,595.7239845628937 M491.8906198346905,595.7239845628937 L492.45126905766045,595.7801810733158 M492.45126905766045,595.7801810733158 L492.9716295549418,595.9081397738659 M492.9716295549418,595.9081397738659 L493.42148395534286,596.1004393560848 M493.42148395534286,596.1004393560848 L493.4158607277948,597.683514761725 M491.84613785993906,765.8773069656016 L491.89003390935744,753.0009176805872 M491.84613785993906,765.8773069656016 L491.67056808614103,765.7982816365133 M491.67056808614103,765.7982816365133 L491.46745424391855,765.7456936790942 M491.46745424391855,765.7456936790942 L491.24859623355553,765.7225975585695 M491.24859623355553,765.7225975585695 L491.02670913829104,765.7303332669109 M491.02670913829104,765.7303332669109 L490.8146804601979,765.7684535527569 M490.8146804601979,765.7684535527569 L490.6248293145251,765.8347431578638 M490.6248293145251,765.8347431578638 L490.46818536748253,765.9253533857157 M490.46818536748253,765.9253533857157 L490.3538529068424,766.0350213120192 M490.3538529068424,766.0350213120192 L490.2884779155656,766.1573770714016 M490.2884779155656,766.1573770714016 L490.2758677236665,766.2853107801812 M490.2758677236665,766.2853107801812 L490.31675776383884,766.411388908995 M490.31675776383884,766.411388908995 L490.4087790207615,766.5282822387015 M490.4087790207615,766.5282822387015 L490.5465860815675,766.6291950310117 M490.5465860815675,766.6291950310117 L490.72217331200847,766.7082594763235 M490.72217331200847,766.7082594763235 L490.92533327947854,766.76087731267 M490.92533327947854,766.76087731267 L491.14425614172444,766.7839875881211 M491.14425614172444,766.7839875881211 L491.3662119583009,766.7762470686125 M491.3662119583009,766.7762470686125 L491.5782974843255,766.7381041065734 M491.5782974843255,766.7381041065734 L491.7681805810804,766.6717791561242 M491.7681805810804,766.6717791561242 L491.924824262895,766.5811290105212 M491.924824262895,766.5811290105212 L492.0391243027593,766.4714257388875 M492.0391243027593,766.4714257388875 L492.1044421447707,766.3490473036264 M492.1044421447707,766.3490473036264 L492.11698355142295,766.2211087833155 M492.11698355142295,766.2211087833155 L492.07602884746996,766.0950448095331 M492.07602884746996,766.0950448095331 L491.9839618623502,765.978181358644 M491.9839618623502,765.978181358644 L491.84613785993906,765.8773069656016" stroke="black"  stroke-width="4"  fill="red"/></svg>