<svg viewBox="0 0 800 800" xmlns="http://www.w3.org/2000/svg"><path d="M719.8082341945083,-62.256494191775346 L637.9170913659582,-106.96709579056824 M786.2606890353018,-178.89660470338458 L704.8477259242409,-222.8530854889832 M719.8082341945083,-62.256494191775346 L715.4237745246537,-54.765856996903494 M715.4237745246537,-54.765856996903494 L711.6417659366361,-48.329176003192515 M711.6417659366361,-48.329176003192515 L708.5212657022257,-43.046908863840144 M708.5212657022257,-43.046908863840144 L706.1105361813825,-39.00068300395651 M706.1105361813825,-39.00068300395651 L704.4462352904848,-36.25192916647484 M704.4462352904848,-36.25192916647484 L703.5530783996,-34.84132724025494 M703.5530783996,-34.84132724025494 L703.443399053047,-34.78808227359514 M703.443399053047,-34.78808227359514 L704.1171478932774,-36.08995562132259 M704.1171478932774,-36.08995562132259 L705.5620487695724,-38.72356812840553 M705.5620487695724,-38.72356812840553 L707.7537407368345,-42.64468183316603 M707.7537407368345,-42.64468183316603 L710.6564197736807,-47.78933956169203 M710.6564197736807,-47.78933956169203 L714.2233735459449,-54.074820663254286 M714.2233735459449,-54.074820663254286 L718.3978524350423,-61.4011762501932 M718.3978524350423,-61.4011762501932 L723.1139550892622,-69.65278742989904 M723.1139550892622,-69.65278742989904 L728.2976185422776,-78.70009988283527 M728.2976185422776,-78.70009988283527 L733.8678950924441,-88.40185474599093 M733.8678950924441,-88.40185474599093 L739.7380406662196,-98.6069867233955 M739.7380406662196,-98.6069867233955 L745.8169531990243,-109.15712678487489 M745.8169531990243,-109.15712678487489 L752.0103558845567,-119.88866213224355 M752.0103558845567,-119.88866213224355 L758.2223208895266,-130.63537607036415 M758.2223208895266,-130.63537607036415 L764.3566244155554,-141.230796719311 M764.3566244155554,-141.230796719311 L770.3181389809633,-151.51060883558785 M770.3181389809633,-151.51060883558785 L776.0142756671776,-161.3151410128712 M776.0142756671776,-161.3151410128712 L781.3562804483518,-170.4916058880417 M781.3562804483518,-170.4916058880417 L786.2606890353018,-178.89660470338458 M637.9170913659582,-106.96709579056824 L633.5933699077232,-99.4754197160828 M633.5933699077232,-99.4754197160828 L629.8748341292339,-93.03167532103816 M629.8748341292339,-93.03167532103816 L626.8195282277338,-87.73644717514344 M626.8195282277338,-87.73644717514344 L624.4746783701448,-83.67158602935069 M624.4746783701448,-83.67158602935069 L622.8759015560227,-80.89883757060852 M622.8759015560227,-80.89883757060852 L622.0468823818628,-79.45928171944706 M622.0468823818628,-79.45928171944706 L621.9989513327037,-79.3726012224115 M621.9989513327037,-79.3726012224115 L622.7310980899128,-80.63710381781038 M622.7310980899128,-80.63710381781038 L624.2301414134909,-83.23001560224384 M624.2301414134909,-83.23001560224384 L626.4708863113792,-87.1077522982223 M626.4708863113792,-87.1077522982223 L629.4167759283737,-92.20704760605804 M629.4167759283737,-92.20704760605804 L633.0204375249414,-98.44589807675675 M633.0204375249414,-98.44589807675675 L637.2245624139978,-105.72508649532028 M637.2245624139978,-105.72508649532028 L641.9627995073733,-113.92972889458906 M641.9627995073733,-113.92972889458906 L647.1607510594549,-122.93099870755759 M647.1607510594549,-122.93099870755759 L652.7372541874447,-132.5883459093866 M652.7372541874447,-132.5883459093866 L658.6054717753996,-142.75138617005905 M658.6054717753996,-142.75138617005905 L664.6743316117245,-153.26239320940476 M664.6743316117245,-153.26239320940476 L670.8497109150248,-163.95835017434 M670.8497109150248,-163.95835017434 L677.0359558723012,-174.67358153677378 M677.0359558723012,-174.67358153677378 L683.1372335208689,-185.24209457695542 M683.1372335208689,-185.24209457695542 L689.0589201189505,-195.49998410334956 M689.0589201189505,-195.49998410334956 L694.7090342683096,-205.28791498436567 M694.7090342683096,-205.28791498436567 L699.9995271210264,-214.4533569888663 M699.9995271210264,-214.4533569888663 L704.8477259242409,-222.8530854889832 M719.835100620885,-62.30365125992557 L719.8082341945083,-62.256494191775346 M637.9441503721246,-107.0139466792607 L637.9170913659582,-106.96709579056824 M637.9441503721246,-107.0139466792607 L719.835100620885,-62.30365125992557 M786.2606890353018,-178.89660470338458 L786.2342763053566,-178.85024398206588 M704.8211223995895,-222.80702323656442 L786.2342763053566,-178.85024398206588 M704.8477259242409,-222.8530854889832 L704.8211223995895,-222.80702323656442 M786.2342763053566,-178.85024398206588 L786.743601000755,-179.72256782637487 M786.743601000755,-179.72256782637487 L787.2472739546392,-180.58496215125706 M787.2472739546392,-180.58496215125706 L787.7452500822819,-181.43734975480675 M787.7452500822819,-181.43734975480675 L721.2941167468671,-64.79900244786859 M721.2941167468671,-64.79900244786859 L720.8016260670774,-63.95642870588381 M720.8016260670774,-63.95642870588381 L720.3152671216812,-63.12461013906159 M720.3152671216812,-63.12461013906159 L719.835100620885,-62.30365125992557 M704.8211223995895,-222.80702323656442 L705.3243661981269,-223.67893091728638 M705.3243661981269,-223.67893091728638 L705.8219130400194,-224.5409749399778 M705.8219130400194,-224.5409749399778 L706.313718384923,-225.39307813473442 M706.313718384923,-225.39307813473442 L639.384161025846,-109.50896823289531 M639.384161025846,-109.50896823289531 L638.8979652641738,-108.66657276012756 M638.8979652641738,-108.66657276012756 L638.4179416379357,-107.83486413228184 M638.4179416379357,-107.83486413228184 L637.9441503721246,-107.0139466792607 M721.2941167468671,-64.79900244786859 L684.5692058030636,-84.84503344986388 M684.5692058030636,-84.84503344986388 L675.9771281322191,-89.53495783456219 M675.9771281322191,-89.53495783456219 L639.384161025846,-109.50896823289531 M787.7452500822819,-181.43734975480675 L706.313718384923,-225.39307813473442 M684.5692058030636,-84.84503344986388 L684.7198913444026,-85.42776868592318 M684.7198913444026,-85.42776868592318 L684.655701316,-86.09014017379741 M684.655701316,-86.09014017379741 L684.3804285068854,-86.80021472250246 M684.3804285068854,-86.80021472250246 L683.9066130668034,-87.52449511697614 M683.9066130668034,-87.52449511697614 L683.2582094234658,-88.22777917815074 M683.2582094234658,-88.22777917815074 L682.4647011886645,-88.87733151026987 M682.4647011886645,-88.87733151026987 L681.5635919045453,-89.44242406668945 M681.5635919045453,-89.44242406668945 L680.5995278740702,-89.89520919927963 M680.5995278740702,-89.89520919927963 L679.6170503593712,-90.21489373513032 M679.6170503593712,-90.21489373513032 L678.6626025943897,-90.38641756251309 M678.6626025943897,-90.38641756251309 L677.7833123266992,-90.4007177328267 M677.7833123266992,-90.4007177328267 L677.0192582677428,-90.25804580030763 M677.0192582677428,-90.25804580030763 L676.4072537421853,-89.96494290056035 M676.4072537421853,-89.96494290056035 L675.9771281322191,-89.53495783456219 M675.9771281322191,-89.53495783456219 L675.7334317544155,-88.90875759242135 M675.7334317544155,-88.90875759242135 L675.7648373681914,-88.17110625364239 M675.7648373681914,-88.17110625364239 L676.0675589551956,-87.36812835951878 M676.0675589551956,-87.36812835951878 L676.624039159251,-86.54838452675176 M676.624039159251,-86.54838452675176 L677.4008786274699,-85.76169364568705 M677.4008786274699,-85.76169364568705 L678.3500491325176,-85.05646417076332 M678.3500491325176,-85.05646417076332 L679.4135592507173,-84.47582010207225 M679.4135592507173,-84.47582010207225 L680.5262952838239,-84.05533477930476 M680.5262952838239,-84.05533477930476 L681.6191773773953,-83.82130069059895 M681.6191773773953,-83.82130069059895 L682.6278797934447,-83.78667142339509 M682.6278797934447,-83.78667142339509 L683.488170339655,-83.95492538713461 M683.488170339655,-83.95492538713461 L684.1493975531139,-84.31470846142565 M684.1493975531139,-84.31470846142565 L684.5692058030636,-84.84503344986388 M681.5635919045453,-89.44242406668945 L706.8146033377761,-132.92047826885482 M706.8146033377761,-132.92047826885482 L707.8092751775439,-132.29051802198046 M707.8092751775439,-132.29051802198046 L708.6669963042332,-131.56133063975722 M708.6669963042332,-131.56133063975722 L709.339646417744,-130.77434355038167 M709.339646417744,-130.77434355038167 L709.7862510453633,-129.9762733420621 M709.7862510453633,-129.9762733420621 L709.982934549289,-129.21236279943332 M709.982934549289,-129.21236279943332 L709.9178746150592,-128.52720304340983 M709.9178746150592,-128.52720304340983 L709.5935274763106,-127.96135375045833 M709.5935274763106,-127.96135375045833 L709.0287183783112,-127.54772659901028 M709.0287183783112,-127.54772659901028 L708.2575699635545,-127.30969518912934 M708.2575699635545,-127.30969518912934 L707.3252563797869,-127.26091657796405 M707.3252563797869,-127.26091657796405 L706.2838850142398,-127.40538873348578 M706.2838850142398,-127.40538873348578 L705.195860677246,-127.73368819327243 M705.195860677246,-127.73368819327243 L704.1227354694929,-128.22766582824897 M704.1227354694929,-128.22766582824897 L703.1289919487335,-128.85742731162372 M703.1289919487335,-128.85742731162372 L702.2713965440926,-129.5869029524756 M702.2713965440926,-129.5869029524756 L701.5990946680959,-130.3740266515524 M701.5990946680959,-130.3740266515524 L701.1519269146647,-131.17262326412038 M701.1519269146647,-131.17262326412038 L700.956818113149,-131.93574221134168 M700.956818113149,-131.93574221134168 L701.022310419421,-132.6205606805288 M701.022310419421,-132.6205606805288 L701.3469014303573,-133.18602472913972 M701.3469014303573,-133.18602472913972 L701.911709916958,-133.59931111610967 M701.911709916958,-133.59931111610967 L702.681560746656,-133.837696359642 M702.681560746656,-133.837696359642 L703.6144963563893,-133.88585552213317 M703.6144963563893,-133.88585552213317 L704.6553464086683,-133.74152016426888 M704.6553464086683,-133.74152016426888 L705.7428801053284,-133.41350890648118 M705.7428801053284,-133.41350890648118 L706.8146033377761,-132.92047826885482 M690.5079417302059,-113.2832861278921 L690.3145261842237,-113.00939277405632 M690.3145261842237,-113.00939277405632 L690.0542136318218,-112.72460824006885 M690.0542136318218,-112.72460824006885 L689.7494306447443,-112.43661993817022 M689.7494306447443,-112.43661993817022 L689.428815477253,-112.14714135615577 M689.428815477253,-112.14714135615577 L689.1177183740292,-111.85938478284334 M689.1177183740292,-111.85938478284334 L688.841634819817,-111.57682457082319 M688.841634819817,-111.57682457082319 L688.6203178777905,-111.30736451970643 M688.6203178777905,-111.30736451970643 L688.5129577900079,-111.1420969137389 M688.5129577900079,-111.1420969137389 L688.4329671069991,-110.96890264016656 M688.4329671069991,-110.96890264016656 L688.3976684818463,-110.81792429822235 M688.3976684818463,-110.81792429822235 L688.4023881389458,-110.70760458943096 M688.4023881389458,-110.70760458943096 L688.4458281176812,-110.60901969113638 M688.4458281176812,-110.60901969113638 L688.5377297739851,-110.54147093156644 M688.5377297739851,-110.54147093156644 L688.6627361406445,-110.5264629368703 M688.6627361406445,-110.5264629368703 L688.8077126656644,-110.57002320087122 M688.8077126656644,-110.57002320087122 L688.9245555664984,-110.64669201451852 M688.9245555664984,-110.64669201451852 L689.0367724683292,-110.75855098570173 M689.0367724683292,-110.75855098570173 L689.1433556400643,-110.90624236791973 M689.1433556400643,-110.90624236791973 L689.2339275787326,-111.07665244049258 M689.2339275787326,-111.07665244049258 L689.3335698839073,-111.32738500513096 M689.3335698839073,-111.32738500513096 L689.4289422468446,-111.64749130094151 M689.4289422468446,-111.64749130094151 L689.5092639037557,-111.99449368554542 M689.5092639037557,-111.99449368554542 L689.5844733709182,-112.35208959350348 M689.5844733709182,-112.35208959350348 L689.6603620111055,-112.70636546002697 M689.6603620111055,-112.70636546002697 L689.7447864776532,-113.04219270327212 M689.7447864776532,-113.04219270327212 L689.8400682555621,-113.34682289339253 M689.8400682555621,-113.34682289339253 L689.9482079312584,-113.6069421380389 M689.9482079312584,-113.6069421380389 L690.0396979972611,-113.76871391651275 M690.0396979972611,-113.76871391651275 L690.1351883076404,-113.89201825480723 M690.1351883076404,-113.89201825480723 L690.2320576301117,-113.9794961104617 M690.2320576301117,-113.9794961104617 L690.3282481237657,-114.02995675484544 M690.3282481237657,-114.02995675484544 L690.448537148648,-114.04122049578018 M690.448537148648,-114.04122049578018 L690.5604056461307,-113.98308878432181 M690.5604056461307,-113.98308878432181 L690.6325466471953,-113.8585336406095 M690.6325466471953,-113.8585336406095 L690.6504363558179,-113.73994243513334 M690.6504363558179,-113.73994243513334 L690.6362637848251,-113.59927777451321 M690.6362637848251,-113.59927777451321 L690.5920608452907,-113.45430974460032 M690.5920608452907,-113.45430974460032 L690.5544068590825,-113.37045829763338 M690.5544068590825,-113.37045829763338 L690.5079417302059,-113.2832861278921 M697.9708762149621,-109.21909521833368 L698.1355775361553,-109.44259007771143 M698.1355775361553,-109.44259007771143 L698.242812511995,-109.53601104036079 M698.242812511995,-109.53601104036079 L698.3734343092165,-109.60725457601711 M698.3734343092165,-109.60725457601711 L698.4963062794432,-109.63145691699992 M698.4963062794432,-109.63145691699992 L698.6023859178822,-109.61215628256286 M698.6023859178822,-109.61215628256286 L698.6819112132271,-109.55404134030505 M698.6819112132271,-109.55404134030505 L698.7284907292724,-109.46045544744993 M698.7284907292724,-109.46045544744993 L698.736199933066,-109.33555270463967 M698.736199933066,-109.33555270463967 L698.6995925771353,-109.184321243054 M698.6995925771353,-109.184321243054 L698.6310855635384,-109.03327033361438 M698.6310855635384,-109.03327033361438 L698.5078749161803,-108.84016493943363 M698.5078749161803,-108.84016493943363 L698.3189148554357,-108.60758796968184 M698.3189148554357,-108.60758796968184 L698.1453480083637,-108.42373503391354 M698.1453480083637,-108.42373503391354 L697.8895904080691,-108.17670965879279 M697.8895904080691,-108.17670965879279 L697.5797885210814,-107.8963492411558 M697.5797885210814,-107.8963492411558 L697.2706740537142,-107.61524441578058 M697.2706740537142,-107.61524441578058 L697.0655237171213,-107.4161568697391 M697.0655237171213,-107.4161568697391 L696.8809105899963,-107.21931898662751 M696.8809105899963,-107.21931898662751 L696.733281939938,-107.03638139797022 M696.733281939938,-107.03638139797022 L696.6271154909409,-106.87501535346928 M696.6271154909409,-106.87501535346928 L696.5363484885129,-106.69038226607245 M696.5363484885129,-106.69038226607245 L696.4874649614721,-106.50197637600195 M696.4874649614721,-106.50197637600195 L696.489802357688,-106.34253517559864 M696.489802357688,-106.34253517559864 L696.5342016234335,-106.22010420708011 M696.5342016234335,-106.22010420708011 L696.6119604156265,-106.14112617532555 M696.6119604156265,-106.14112617532555 L696.7139813953854,-106.11135861794992 M696.7139813953854,-106.11135861794992 L696.8307754824964,-106.13587740674939 M696.8307754824964,-106.13587740674939 L696.952266715216,-106.21873901820618 M696.952266715216,-106.21873901820618 L697.0727728817583,-106.35962559643758 M697.0727728817583,-106.35962559643758 L697.1656630068592,-106.51450002539696 M697.1656630068592,-106.51450002539696 L697.2457134384385,-106.68762584133219 M697.2457134384385,-106.68762584133219 L697.341347273983,-106.95727625802283 M697.341347273983,-106.95727625802283 L697.4110685544274,-107.20079286659802 M697.4110685544274,-107.20079286659802 L697.4762577593228,-107.47219254192078 M697.4762577593228,-107.47219254192078 L697.5559957864716,-107.85000519028199 M697.5559957864716,-107.85000519028199 L697.6471345600039,-108.27583846410016 M697.6471345600039,-108.27583846410016 L697.7147431496942,-108.55054305317026 M697.7147431496942,-108.55054305317026 L697.7904620272711,-108.80793236875616 M697.7904620272711,-108.80793236875616 L697.8696143947691,-109.01606966286181 M697.8696143947691,-109.01606966286181 L697.9186742424663,-109.1220709367517 M697.9186742424663,-109.1220709367517 L697.9708762149621,-109.21909521833368 M708.8322929174956,-136.437975866932 L711.3171486511401,-134.8646217092146 M711.3171486511401,-134.8646217092146 L713.4622188938956,-133.04191618673667 M713.4622188938956,-133.04191618673667 L715.1439671797598,-131.0749865099906 M715.1439671797598,-131.0749865099906 L716.2635098397022,-129.0785826185047 M716.2635098397022,-129.0785826185047 L716.7556664159438,-127.1686777543573 M716.7556664159438,-127.1686777543573 L716.5922511303015,-125.4560067975408 M716.5922511303015,-125.4560067975408 L715.7818411545159,-124.04066067172425 M715.7818411545159,-124.04066067172425 L714.3714049240716,-123.00510196198775 M714.3714049240716,-123.00510196198775 L712.443600824603,-122.40932150669232 M712.443600824603,-122.40932150669232 L710.1099002592564,-122.28843855131345 M710.1099002592564,-122.28843855131345 L707.5060183454007,-122.6495844927149 M707.5060183454007,-122.6495844927149 L704.7845148142769,-123.47116981131785 M704.7845148142769,-123.47116981131785 L702.1026222076507,-124.70594295383125 M702.1026222076507,-124.70594295383125 L699.6180358145921,-126.28106179666338 M699.6180358145921,-126.28106179666338 L697.4737511239564,-128.10556935786917 M697.4737511239564,-128.10556935786917 L695.7941788520056,-130.07335288381637 M695.7941788520056,-130.07335288381637 L694.6777038635664,-132.06946652972965 M694.6777038635664,-132.06946652972965 L694.1888036208275,-133.9780038196459 M694.1888036208275,-133.9780038196459 L694.3549188287325,-135.68854281260155 M694.3549188287325,-135.68854281260155 L695.16685289415,-137.1014813381771 M695.16685289415,-137.1014813381771 L696.5772881327302,-138.13490851825281 M696.5772881327302,-138.13490851825281 L698.5035675623913,-138.72932104184838 M698.5035675623913,-138.72932104184838 L700.8345678776823,-138.84991382635235 M700.8345678776823,-138.84991382635235 L703.4351924844814,-138.4896221509307 M703.4351924844814,-138.4896221509307 L706.153629090697,-137.66983867340332 M706.153629090697,-137.66983867340332 L708.8322929174956,-136.437975866932 M690.5079417302059,-113.2832861278921 L653.2679613490582,-133.56356462240547 M653.2679613490582,-133.56356462240547 L653.424458787862,-133.83473830101866 M653.424458787862,-133.83473830101866 L653.5326129375499,-134.02219671968032 M653.5326129375499,-134.02219671968032 L653.5861673303552,-134.11509582243798 M653.5861673303552,-134.11509582243798 L653.581946277398,-134.107926989117 M653.581946277398,-134.107926989117 L653.5202344432018,-134.00117501631303 M653.5202344432018,-134.00117501631303 L653.404589201471,-133.80099354504273 M653.404589201471,-133.80099354504273 L653.2417529184913,-133.51905361319314 M653.2417529184913,-133.51905361319314 L653.0411869749769,-133.17173695392103 M653.0411869749769,-133.17173695392103 L652.8145358763359,-132.77920813996207 M652.8145358763359,-132.77920813996207 L652.5749802100436,-132.36429416710052 M652.5749802100436,-132.36429416710052 L652.336427741302,-131.95108346463712 M652.336427741302,-131.95108346463712 L652.1127837669046,-131.56366224202975 M652.1127837669046,-131.56366224202975 L651.9170252297936,-131.22451060708318 M651.9170252297936,-131.22451060708318 L651.7605616688179,-130.95339558612432 M651.7605616688179,-130.95339558612432 L651.6524215069494,-130.76596135671753 M651.6524215069494,-130.76596135671753 L651.5989426964043,-130.67319316690464 M651.5989426964043,-130.67319316690464 L651.6032213788112,-130.68046182148282 M651.6032213788112,-130.68046182148282 L651.6649821472602,-130.7872985703234 M651.6649821472602,-130.7872985703234 L651.7806339604522,-130.98749144123667 M651.7806339604522,-130.98749144123667 L651.9434727173466,-131.26943569224022 M651.9434727173466,-131.26943569224022 L652.144036470505,-131.61674860074527 M652.144036470505,-131.61674860074527 L652.3706414455137,-132.00919754566803 M652.3706414455137,-132.00919754566803 L652.6101400789776,-132.424012738893 M652.6101400789776,-132.424012738893 L652.8486152107071,-132.83708946482875 M652.8486152107071,-132.83708946482875 L653.0722414935844,-133.22448003197587 M653.0722414935844,-133.22448003197587 L653.2679613490582,-133.56356462240547 M735.3436275183758,-88.8665118715644 L697.9708762149621,-109.21909521833368 M735.3436275183758,-88.8665118715644 L735.1457883302664,-88.52712517416057 M735.1457883302664,-88.52712517416057 L734.9204462923954,-88.13900525390909 M734.9204462923954,-88.13900525390909 L734.6807593841168,-87.72481437174793 M734.6807593841168,-87.72481437174793 L734.440623172175,-87.30856479353952 M734.440623172175,-87.30856479353952 L734.2139916357555,-86.91444467543806 M734.2139916357555,-86.91444467543806 L734.0140138576644,-86.5653207489886 M734.0140138576644,-86.5653207489886 L733.8523398685793,-86.28153090632713 M733.8523398685793,-86.28153090632713 L733.7383639879681,-86.07956508353254 M733.7383639879681,-86.07956508353254 L733.678692623691,-85.9711311110832 M733.678692623691,-85.9711311110832 L733.6767956163603,-85.96253370598879 M733.6767956163603,-85.96253370598879 L733.7328100263421,-86.05431903938188 M733.7328100263421,-86.05431903938188 L733.8434926777591,-86.24117337131247 M733.8434926777591,-86.24117337131247 L734.0023570351495,-86.51214523056751 M734.0023570351495,-86.51214523056751 L734.2002358605441,-86.85159886114616 M734.2002358605441,-86.85159886114616 L734.4255959972288,-87.23974964647459 M734.4255959972288,-87.23974964647459 L734.6653610950543,-87.65407502597827 M734.6653610950543,-87.65407502597827 L734.9055546434665,-88.0704240684563 M734.9055546434665,-88.0704240684563 L735.1322322771102,-88.46462475729732 M735.1322322771102,-88.46462475729732 L735.3322116068503,-88.81375298242801 M735.3322116068503,-88.81375298242801 L735.4938825277823,-89.09753879248728 M735.4938825277823,-89.09753879248728 L735.607851423294,-89.29949317518458 M735.607851423294,-89.29949317518458 L735.667473204614,-89.40784199544669 M735.667473204614,-89.40784199544669 L735.6693121355474,-89.41633896375333 M735.6693121355474,-89.41633896375333 L735.6132217122649,-89.32442199334946 M735.6132217122649,-89.32442199334946 L735.5025255553628,-89.13754283355229 M735.5025255553628,-89.13754283355229 L735.3436275183758,-88.8665118715644 M708.8322929174956,-136.437975866932 L722.2205696984238,-159.4904352643007 M722.2205696984238,-159.4904352643007 L724.7108081652441,-157.91730584775996 M724.7108081652441,-157.91730584775996 L726.8609814792744,-156.0948599850244 M726.8609814792744,-156.0948599850244 L728.5472590282516,-154.12820967187236 M728.5472590282516,-154.12820967187236 L729.6704914287056,-152.13208843632674 M729.6704914287056,-152.13208843632674 L730.1652832516975,-150.2224531385118 M730.1652832516975,-150.2224531385118 L730.0032960378121,-148.51002320927637 M730.0032960378121,-148.51002320927637 L729.1930216374603,-147.09487576777065 M729.1930216374603,-147.09487576777065 L727.7814199998029,-146.05946214158485 M727.7814199998029,-146.05946214158485 L725.851218493237,-145.46376504635373 M725.851218493237,-145.46376504635373 L723.5140266912767,-145.34289899481882 M723.5140266912767,-145.34289899481882 L720.9057630008265,-145.70399442504913 M720.9057630008265,-145.70399442504913 L718.1792447322059,-146.52546472399627 M718.1792447322059,-146.52546472399627 L715.4919943454915,-147.7600647148547 M715.4919943454915,-147.7600647148547 L713.0020226878514,-149.33496217950596 M713.0020226878514,-149.33496217950596 L710.8526355876402,-151.15921261097174 M710.8526355876402,-151.15921261097174 L709.168539947339,-153.12671797209987 M709.168539947339,-153.12671797209987 L708.0483849951361,-155.12254855457832 M708.0483849951361,-155.12254855457832 L707.5568609236689,-157.0308143581342 M707.5568609236689,-157.0308143581342 L707.721558506566,-158.7411093303017 M707.721558506566,-158.7411093303017 L708.5333640756617,-160.1538457913748 M708.5333640756617,-160.1538457913748 L709.9449668107445,-161.18712489529844 M709.9449668107445,-161.18712489529844 L711.8736402727336,-161.78145213829885 M711.8736402727336,-161.78145213829885 L714.2081237544935,-161.90202761156706 M714.2081237544935,-161.90202761156706 L716.813119220722,-161.54178764667904 M716.813119220722,-161.54178764667904 L719.5365593061797,-160.72212171853425 M719.5365593061797,-160.72212171853425 L722.2205696984238,-159.4904352643007 M375.8011197289543,529.2696905476969 L296.9394885808106,483.7389065755833 M296.9394885808106,483.7389065755833 L12.254749917718073,976.6630300383649 M92.90642822442896,1025.3930781347344 L12.254749917718073,976.6630300383649 M375.8011197289543,529.2696905476969 L92.90642822442896,1025.3930781347344 M517.4550303200704,286.9334656870378 L436.7995381384062,241.41343309518015 M517.4550303200704,286.9334656870378 L375.8011197289543,529.2696905476969 M436.7995381384062,241.41343309518015 L296.9394885808106,483.7389065755833 M180.0103706149439,686.0320013314622 L436.7995381384062,241.41343309518015 M109.50649161331603,808.1916278231229 L180.0103706149439,686.0320013314622 M109.50649161331603,808.1916278231229 L81.53357337205307,856.6257251148945 M12.254749917718073,976.6630300383649 L81.53357337205307,856.6257251148945 M92.90642822442896,1025.3930781347344 L163.11910767166228,905.3819072412389 M81.53357337205307,856.6257251148945 L163.11910767166228,905.3819072412389 M163.11910767166228,905.3819072412389 L190.91442062170427,856.6258418855778 M190.91442062170427,856.6258418855778 L262.3679529575038,734.4828040886605 M262.3679529575038,734.4828040886605 L517.4550303200704,286.9334656870378 M262.3679529575038,734.4828040886605 L180.0103706149439,686.0320013314622 M190.91442062170427,856.6258418855778 L109.50649161331603,808.1916278231229 M405.6680818670575,385.60389125668826 L429.32944756529105,344.8629433922706 M429.32944756529105,344.8629433922706 L430.27988573548646,345.494020793295 M430.27988573548646,345.494020793295 L431.09580906029987,346.2244989713872 M431.09580906029987,346.2244989713872 L431.73145272665533,347.01287637362566 M431.73145272665533,347.01287637362566 L432.148073426235,347.8123535070599 M432.148073426235,347.8123535070599 L432.32345039991014,348.57760795531794 M432.32345039991014,348.57760795531794 L432.2470173482852,349.26397074600754 M432.2470173482852,349.26397074600754 L431.9219495965135,349.83081192231566 M431.9219495965135,349.83081192231566 L431.367116208914,350.24516317489906 M431.367116208914,350.24516317489906 L430.6160054037755,350.4836109218286 M430.6160054037755,350.4836109218286 L429.7126112261176,350.5324748180856 M429.7126112261176,350.5324748180856 L428.7074485693174,350.3877500333283 M428.7074485693174,350.3877500333283 L427.66073600121126,350.05887613313735 M427.66073600121126,350.05887613313735 L426.63169554568594,349.5640332103276 M426.63169554568594,349.5640332103276 L425.6821557082985,348.9331669299527 M425.6821557082985,348.9331669299527 L424.86635565633514,348.2024092365764 M424.86635565633514,348.2024092365764 L424.23104086663625,347.4138993682245 M424.23104086663625,347.4138993682245 L423.81387022764466,346.6138934112514 M423.81387022764466,346.6138934112514 L423.63998594932673,345.84942493402104 M423.63998594932673,345.84942493402104 L423.7168176259238,345.16339307839644 M423.7168176259238,345.16339307839644 L424.0421065526625,344.5969254613583 M424.0421065526625,344.5969254613583 L424.59693289190363,344.1829046373259 M424.59693289190363,344.1829046373259 L425.34680232768005,343.9440954031197 M425.34680232768005,343.9440954031197 L426.25079986305536,343.89585055263524 M426.25079986305536,343.89585055263524 L427.2554766756366,344.04044268902726 M427.2554766756366,344.04044268902726 L428.30173501560785,344.36903712884305 M428.30173501560785,344.36903712884305 L429.32944756529105,344.8629433922706 M405.6680818670575,385.60389125668826 L404.6440924979852,385.1099613764245 M404.6440924979852,385.1099613764245 L403.60133402429165,384.7813511705199 M403.60133402429165,384.7813511705199 L402.5997330615628,384.6367520829026 M402.5997330615628,384.6367520829026 L401.6982059978054,384.68499925366996 M401.6982059978054,384.68499925366996 L400.9500547205498,384.9238199594838 M400.9500547205498,384.9238199594838 L400.3961044042244,385.3378606178312 M400.3961044042244,385.3378606178312 L400.0707899470326,385.9043552616722 M400.0707899470326,385.9043552616722 L399.99303251013043,386.59041967735993 M399.99303251013043,386.59041967735993 L400.16515282655746,387.3549242163308 M400.16515282655746,387.3549242163308 L400.57981360236045,388.1549676619388 M400.57981360236045,388.1549676619388 L401.21202181433,388.94351423053195 M401.21202181433,388.94351423053195 L402.024301834801,389.67430571483965 M402.024301834801,389.67430571483965 L402.9701102999388,390.30520099583555 M402.9701102999388,390.30520099583555 L403.99542136994387,390.8000665553018 M403.99542136994387,390.8000665553018 L405.0386310470094,391.1289554458708 M405.0386310470094,391.1289554458708 L406.0407148949271,391.27368681365624 M406.0407148949271,391.27368681365624 L406.94164019397067,391.22482069568196 M406.94164019397067,391.22482069568196 L407.6910280791999,390.9863620934957 M407.6910280791999,390.9863620934957 L408.244985953208,390.57199192378084 M408.244985953208,390.57199192378084 L408.5700811028819,390.0051247575748 M408.5700811028819,390.0051247575748 L408.64744271168456,389.3187303254135 M408.64744271168456,389.3187303254135 L408.4738365833073,388.55344037732357 M408.4738365833073,388.55344037732357 L408.0597246049383,387.75392590711726 M408.0597246049383,387.75392590711726 L407.42718915001933,386.96551143694523 M407.42718915001933,386.96551143694523 L406.6147860871097,386.2349986920635 M406.6147860871097,386.2349986920635 L405.6680818670575,385.60389125668826 M431.35158648880133,341.3391737370439 L433.7259537030495,342.9153405215666 M433.7259537030495,342.9153405215666 L435.7665023846657,344.7412899056744 M435.7665023846657,344.7412899056744 L437.3557207841568,346.71170263296517 M437.3557207841568,346.71170263296517 L438.4001538918674,348.71162320661097 M438.4001538918674,348.71162320661097 L438.83899720702357,350.6248748826192 M438.83899720702357,350.6248748826192 L438.64715339099166,352.3405324754376 M438.64715339099166,352.3405324754376 L437.83489925656977,353.75833636296557 M437.83489925656977,353.75833636296557 L436.44932258000335,354.7956873763733 M436.44932258000335,354.7956873763733 L434.57161103063845,355.3924967048206 M434.57161103063845,355.3924967048206 L432.3103485443535,355.51358821379563 M432.3103485443535,355.51358821379563 L429.79703244590564,355.1518190009947 M429.79703244590564,355.1518190009947 L427.178899224602,354.32881349802665 M427.178899224602,354.32881349802665 L424.60720546403536,353.0918999825353 M424.60720546403536,353.0918999825353 L422.2331564648139,351.51404042458125 M422.2331564648139,351.51404042458125 L420.193378049129,349.68634366044625 M420.193378049129,349.68634366044625 L418.6062146885688,347.7151029825518 M418.6062146885688,347.7151029825518 L417.5646503160806,345.71546385087004 M417.5646503160806,345.71546385087004 L417.1288320303811,343.80353826839837 M417.1288320303811,343.80353826839837 L417.3231650214657,342.08994797357536 M417.3231650214657,342.08994797357536 L418.13680139822463,340.6744786599129 M418.13680139822463,340.6744786599129 L419.5223366402115,339.6391945234309 M419.5223366402115,339.6391945234309 L421.3985936575864,339.04371163509313 M421.3985936575864,339.04371163509313 L423.6573206341509,338.9229014956427 M423.6573206341509,338.9229014956427 L426.1676010366846,339.28384235373505 M426.1676010366846,339.28384235373505 L428.7828949470186,340.1051006683865 M428.7828949470186,340.1051006683865 L431.35158648880133,341.3391737370439 M434.1358701955578,336.5450849867857 L436.51133590890095,338.1212410352391 M436.51133590890095,338.1212410352391 L438.552921597955,339.947178127587 M438.552921597955,339.947178127587 L440.1430557393451,341.9175777660903 M440.1430557393451,341.9175777660903 L441.1882295947853,343.91748524118157 M441.1882295947853,343.91748524118157 L441.62759550742703,345.83072456188347 M441.62759550742703,345.83072456188347 L441.43602586869383,347.5463712214432 M441.43602586869383,347.5463712214432 L440.6237810878665,348.9641661780288 M440.6237810878665,348.9641661780288 L439.2379482794513,350.00151071675646 M439.2379482794513,350.00151071675646 L437.3597302586859,350.59831634306374 M437.3597302586859,350.59831634306374 L435.0977401602013,350.71940710291983 M435.0977401602013,350.71940710291983 L432.5835176732271,350.35764013020525 M432.5835176732271,350.35764013020525 L429.96435255678625,349.5346397461808 M429.96435255678625,349.5346397461808 L427.3915610475051,348.29773398382713 M427.3915610475051,348.29773398382713 L425.01641309229854,346.7198844202803 M425.01641309229854,346.7198844202803 L422.975597837074,344.89219937905546 M422.975597837074,344.89219937905546 L421.3875199369613,342.92097152041424 M421.3875199369613,342.92097152041424 L420.3452167779651,340.9213455789095 M420.3452167779651,340.9213455789095 L419.90887816539544,339.00943278344494 M419.90887816539544,339.00943278344494 L420.1029390396452,337.29585409488027 M420.1029390396452,337.29585409488027 L420.9165674404758,335.8803944721667 M420.9165674404758,335.8803944721667 L422.3023591934834,334.8451174832262 M422.3023591934834,334.8451174832262 L424.17912197694386,334.24963872884473 M424.17912197694386,334.24963872884473 L426.43857493660835,334.1288294301103 M426.43857493660835,334.1288294301103 L428.9497595479115,334.4897677784529 M428.9497595479115,334.4897677784529 L431.56608312329445,335.311020405371 M431.56608312329445,335.311020405371 L434.1358701955578,336.5450849867857 M434.1358701955578,336.5450849867857 L431.35158648880133,341.3391737370439 M656.5612171101402,48.955791644753845 L401.6414739253214,496.4079268980413 M401.6414739253214,496.4079268980413 L373.8433023854086,545.2011315995442 M373.8433023854086,545.2011315995442 L289.4312211815086,496.40781004845667 M574.1294349607015,3.4717737310929806 L289.4312211815086,496.40781004845667 M656.5612171101402,48.955791644753845 L574.1294349607015,3.4717737310929806 M401.6414739253214,496.4079268980413 L656.5612171101402,48.955791644753845 M289.4312211815086,496.40781004845667 L574.1294349607015,3.4717737310929806 M655.0731586344136,51.501506562712166 L400.15085691332933,498.95599532915276 M400.15085691332933,498.95599532915276 L372.3525783322639,547.7491548412909 M372.3525783322639,547.7491548412909 L287.96061849592115,498.9558784796054 M287.96061849592115,498.9558784796054 L572.6604549950571,6.0169699242487695 M655.0731586344136,51.501506562712166 L572.6604549950571,6.0169699242487695 M400.15085691332933,498.95599532915276 L655.0731586344136,51.501506562712166 M572.6604549950571,6.0169699242487695 L287.96061849592115,498.9558784796054 M653.5856143061683,54.04634189634726 L571.1919809200572,8.561289596976167 M370.86238778092047,550.2962661939591 L286.49054032310596,501.5030381034685 M653.5856143061683,54.04634189634726 L398.6607715525297,501.50315495297036 M398.6607715525297,501.50315495297036 L370.86238778092047,550.2962661939591 M571.1919809200572,8.561289596976167 L286.49054032310596,501.5030381034685 M398.6607715525297,501.50315495297036 L653.5856143061683,54.04634189634726 M286.49054032310596,501.5030381034685 L571.1919809200572,8.561289596976167" stroke="black"  stroke-width="4"  fill="red"/></svg>