<svg viewBox="0 0 800 800" xmlns="http://www.w3.org/2000/svg"><path d="M-86.70151530966325,303.48460041623423 L-86.70151139162635,303.48405928438365 M886.7015004749585,321.6807957290457 L886.7015153096631,321.6802543985334 M-86.70151530966325,303.48460041623423 L-53.93099736995282,287.5960162897221 M-53.93099736995282,287.5960162897221 L-19.5999907715493,272.911625140581 M-19.5999907715493,272.911625140581 L16.16922137238157,259.4803201274393 M16.16922137238157,259.4803201274393 L53.250086799846486,247.34671367668273 M53.250086799846486,247.34671367668273 L91.51198058329544,236.55089149816467 M91.51198058329544,236.55089149816467 L130.8209269306641,227.12851834033756 M130.8209269306641,227.12851834033756 L171.03972026926215,219.11056743503173 M171.03972026926215,219.11056743503173 L212.02847973409962,212.52337101810434 M212.02847973409962,212.52337101810434 L253.6451086997704,207.3885024567299 M253.6451086997704,207.3885024567299 L295.745622652086,203.72276469023325 M295.745622652086,203.72276469023325 L338.1846115567157,201.53812871043505 M338.1846115567157,201.53812871043505 L380.8156987826169,200.84174612304554 M380.8156987826169,200.84174612304554 L423.4919043764553,201.63587998695198 M423.4919043764553,201.63587998695198 L466.0660991378504,203.9179403069083 M466.0660991378504,203.9179403069083 L508.3913856263373,207.68046865135813 M508.3913856263373,207.68046865135813 L550.3217508091243,212.91116524268494 M550.3217508091243,212.91116524268494 L591.7120802808868,219.59294840533937 M591.7120802808868,219.59294840533937 L632.4189593665712,227.70388064378903 M632.4189593665712,227.70388064378903 L672.300810901379,237.21731448316064 M672.300810901379,237.21731448316064 L711.218686862916,248.1020307960498 M711.218686862916,248.1020307960498 L749.0363410607872,260.32207879569216 M749.0363410607872,260.32207879569216 L785.6206878350849,273.83698346136407 M785.6206878350849,273.83698346136407 L820.8423446802101,288.60190625364817 M820.8423446802101,288.60190625364817 L854.5762552791409,304.56767619318225 M854.5762552791409,304.56767619318225 L886.7015004749585,321.6807957290457 M-86.70151139162635,303.48405928438365 L-53.93099308755188,287.5954753315874 M-53.93099308755188,287.5954753315874 L-19.599986107571112,272.9110843432019 M-19.599986107571112,272.9110843432019 L16.169226433818153,259.4797794772709 M16.169226433818153,259.4797794772709 L53.250092273253244,247.34617315964385 M53.250092273253244,247.34617315964385 L91.51198648177854,236.55035109969072 M91.51198648177854,236.55035109969072 L130.8209332658954,227.1279780454321 M130.8209332658954,227.1279780454321 L171.039727051451,219.11002722832154 M171.039727051451,219.11002722832154 L212.0284869719692,212.5228308838956 M212.0284869719692,212.5228308838956 L253.64511640053888,207.3879623790653 M253.64511640053888,207.3879623790653 L295.7456308214496,203.72222465294982 M295.7456308214496,203.72222465294982 L338.1846201988344,201.53758869722304 M338.1846201988344,201.53758869722304 L380.81570790010596,200.84120611750757 M380.81570790010596,200.84120611750757 L423.49191397037816,201.63533997266273 M423.49191397037816,201.63533997266273 L466.0661092077153,203.91740026747448 M466.0661092077153,203.91740026747448 L508.3913961700962,207.67992857047773 M508.3913961700962,207.67992857047773 L550.3217618231795,212.91062510420693 M550.3217618231795,212.91062510420693 L591.7120917600935,219.59240819332138 M591.7120917600935,219.59240819332138 L632.4189713042492,227.703340342557 M632.4189713042492,227.703340342557 L672.300823289326,237.21677407736468 M672.300823289326,237.21677407736468 L711.2186996914261,248.10149027071975 M711.2186996914261,248.10149027071975 L749.0363543186693,260.3215381362928 M749.0363543186693,260.3215381362928 L785.6207015096877,273.83644265384885 M785.6207015096877,273.83644265384885 L820.84235875745,288.6013652845087 M820.84235875745,288.6013652845087 L854.5762697435357,304.56713504949835 M854.5762697435357,304.56713504949835 L886.7015153096631,321.6802543985334 M425.4212102608458,599.1587938824925 L425.4212200332638,599.1582495601327 M886.7015004749585,321.6807957290457 L425.4212102608458,599.1587938824925 M886.7015153096631,321.6802543985334 L425.4212200332638,599.1582495601327 M425.4212102608458,599.1587938824925 L-86.70151530966325,303.48460041623423 M425.4212200332638,599.1582495601327 L-86.70151139162635,303.48405928438365" stroke="black"  stroke-width="4"  fill="red"/></svg>