<svg viewBox="0 0 800 800" xmlns="http://www.w3.org/2000/svg"><path d="M-238.2952435695538,34.66754601215672 L-255.51675010218787,44.10049814039485 M-255.51674973343734,40.26833057636048 L-255.51675010218787,44.10049814039485 M-255.51674973343734,40.26833057636048 L-255.51684670305133,40.2330337844009 M-255.51684670305133,40.2330337844009 L-255.51690488655254,40.19771446440575 M-255.51690488655254,40.19771446440575 L-255.5169242815681,40.162369456365866 M-238.25819807243215,30.7535003365835 L-255.5169242815681,40.162369456365866 M-238.2952435695538,34.66754601215672 L-238.25819807243215,30.7535003365835 M1024.8384476208137,745.4053759490077 L1013.6772424634237,739.2919102224494 M1003.5088251803995,799.4000048883288 L1013.6772424634237,739.2919102224494 M1003.5088251803995,799.4000048883288 L435.3675705298433,474.8184103451065 M432.6047768954527,479.00083698259255 L435.3675705298433,474.8184103451065 M290.3026950495931,397.33318811225286 L432.6047768954527,479.00083698259255 M293.3265874555676,393.6697727495281 L290.3026950495931,397.33318811225286 M293.3265874555676,393.6697727495281 L-134.12034836565,149.46746060305327 M-137.5677927169686,151.77685960575462 L-134.12034836565,149.46746060305327 M-217.39418758404486,105.96422002925823 L-137.5677927169686,151.77685960575462 M-213.92783657312157,103.87309200751235 L-217.39418758404486,105.96422002925823 M-213.92783657312157,103.87309200751235 L-284.374285029358,63.6267265435294 M-252.1914137157372,45.92192600066335 L-284.374285029358,63.6267265435294 M-252.1914137157372,45.92192600066335 L-255.51675010218787,44.10049814039485 M1029.9269873254466,713.8469684384304 L-238.2952435695538,34.66754601215672 M1024.8384476208137,745.4053759490077 L1029.9269873254466,713.8469684384304 M-245.02430995553618,40.162266273198384 L-245.07108397091304,40.142395227578504 M-245.07108397091304,40.142395227578504 L-245.1251443558233,40.12917221328104 M-245.1251443558233,40.12917221328104 L-245.18334920197913,40.12336453726226 M-245.18334920197913,40.12336453726226 L-245.24231828911275,40.12530985322206 M-245.24231828911275,40.12530985322206 L-245.29862535108055,40.134894981630396 M-245.29862535108055,40.134894981630396 L-245.34900020588702,40.15156363001853 M-245.34900020588702,40.15156363001853 L-245.39051530311565,40.17434752320332 M-245.39051530311565,40.17434752320332 L-245.42075839988001,40.20192368168972 M-245.42075839988001,40.20192368168972 L-245.43797051821377,40.23268988049688 M-245.43797051821377,40.23268988049688 L-245.441150497094,40.26485907023016 M-245.441150497094,40.26485907023016 L-245.43011151100995,40.2965613665329 M-245.43011151100995,40.2965613665329 L-245.4054944123875,40.325954543994726 M-245.4054944123875,40.325954543994726 L-245.36872787011418,40.351329068499865 M-245.36872787011418,40.351329068499865 L-245.3219490593458,40.371210171124574 M-245.3219490593458,40.371210171124574 L-245.26787609447842,40.384440868852835 M-245.26787609447842,40.384440868852835 L-245.2096535996743,40.39025218500399 M-245.2096535996743,40.39025218500399 L-245.1506658379559,40.38830563171064 M-245.1506658379559,40.38830563171064 L-245.09434335383685,40.378714672100614 M-245.09434335383685,40.378714672100614 L-245.04395986216537,40.36203693435857 M-245.04395986216537,40.36203693435857 L-245.00244489206398,40.33924277610538 M-245.00244489206398,40.33924277610538 L-244.97221065729684,40.31165752832629 M-244.97221065729684,40.31165752832629 L-244.95501410554607,40.28088549834024 M-244.95501410554607,40.28088549834024 L-244.9518528318972,40.248715071302286 M-244.9518528318972,40.248715071302286 L-244.96290937646847,40.21701641503648 M-244.96290937646847,40.21701641503648 L-244.98753886473673,40.187630921136076 M-244.98753886473673,40.187630921136076 L-245.02430995553618,40.162266273198384 M1021.9220960819925,726.1488765450824 L1021.7816205542945,726.0827614226439 M1021.7816205542945,726.0827614226439 L1021.6464403362763,726.0388268777876 M1021.6464403362763,726.0388268777876 L1021.5241725295002,726.0194944220098 M1021.5241725295002,726.0194944220098 L1021.4221641057029,726.02602160226 M1021.4221641057029,726.02602160226 L1021.3460544262805,726.0578746152369 M1021.3460544262805,726.0578746152369 L1021.300310616341,726.1132314055665 M1021.300310616341,726.1132314055665 L1021.2877664991729,726.1889724347095 M1021.2877664991729,726.1889724347095 L1021.3091554315597,726.2807021081496 M1021.3091554315597,726.2807021081496 L1021.3630672964648,726.3829988868974 M1021.3630672964648,726.3829988868974 L1021.4463296686674,726.489896971872 M1021.4463296686674,726.489896971872 L1021.5543941619601,726.595337466609 M1021.5543941619601,726.595337466609 L1021.6807354931191,726.6930578501199 M1021.6807354931191,726.6930578501199 L1021.8182442769851,726.7774990441112 M1021.8182442769851,726.7774990441112 L1021.9586439119723,726.8435978780442 M1021.9586439119723,726.8435978780442 L1022.0939047792867,726.8875789855117 M1022.0939047792867,726.8875789855117 L1022.2162497110849,726.9069335426491 M1022.2162497110849,726.9069335426491 L1022.3184556293099,726.9004755704766 M1022.3184556293099,726.9004755704766 L1022.3944453660736,726.8685104360175 M1022.3944453660736,726.8685104360175 L1022.4401720289009,726.8130985909561 M1022.4401720289009,726.8130985909561 L1022.4526638239374,726.7372953208082 M1022.4526638239374,726.7372953208082 L1022.4311994055618,726.6455105082437 M1022.4311994055618,726.6455105082437 L1022.3773480284792,726.5432551250985 M1022.3773480284792,726.5432551250985 L1022.2938755250191,726.4362727995988 M1022.2938755250191,726.4362727995988 L1022.1857710396478,726.3308543758542 M1022.1857710396478,726.3308543758542 L1022.0594273514444,726.233180564102 M1022.0594273514444,726.233180564102 L1021.9220960819925,726.1488765450824 M-252.18435801739656,42.08526774458147 L-255.51674973343734,40.26833057636048 M-252.18435801739656,42.08526774458147 L-252.1914137157372,45.92192600066335 M-252.18433730560105,41.97918225629115 L-252.18438300346565,42.014568819860074 M-252.18438300346565,42.014568819860074 L-252.18438990466643,42.04992959471389 M-252.18438990466643,42.04992959471389 L-252.18435801739656,42.08526774458147 M-255.5169242815681,40.162369456365866 L-252.18433730560105,41.97918225629115 M1018.740675612737,734.8441690869226 L1029.9668711090596,740.9643081318354 M1029.9668711090596,740.9643081318354 L1034.9698132306494,709.3732356503275 M1034.9698132306494,709.3732356503275 L-238.25819807243215,30.7535003365835 M-252.18433730560105,41.97918225629115 L-284.4385365514288,59.63991966549628 M-284.4385365514288,59.63991966549628 L-213.8308773483907,99.79238565797499 M-213.8308773483907,99.79238565797499 L-217.3051019880561,101.87886441299844 M-217.3051019880561,101.87886441299844 L-137.27808851346776,147.59533960884102 M-137.27808851346776,147.59533960884102 L-133.82290718987235,145.29052760429437 M-133.82290718987235,145.29052760429437 L295.0208264391026,389.16114482883677 M295.0208264391026,389.16114482883677 L291.99281678254397,392.8219430043763 M291.99281678254397,392.8219430043763 L434.8821977407265,474.4493655046341 M434.8821977407265,474.4493655046341 L437.6465924752231,470.2681562360377 M437.6465924752231,470.2681562360377 L1008.7295877133656,795.0259913491409 M1018.740675612737,734.8441690869226 L1008.7295877133656,795.0259913491409 M-244.742823108111,36.092702624935896 L-244.65068741041569,36.15593379451991 M-244.65068741041569,36.15593379451991 L-244.5889544407761,36.22919474124188 M-244.5889544407761,36.22919474124188 L-244.56121822770706,36.3082320124098 M-244.56121822770706,36.3082320124098 L-244.56910100945663,36.388454306897586 M-244.56910100945663,36.388454306897586 L-244.6121542211049,36.465198763367425 M-244.6121542211049,36.465198763367425 L-244.68788417982591,36.534002184122244 M-244.68788417982591,36.534002184122244 L-244.7918945936234,36.59086105338099 M-244.7918945936234,36.59086105338099 L-244.9181407005658,36.6324653846782 M-244.9181407005658,36.6324653846782 L-245.05928079713726,36.65639247788272 M-245.05928079713726,36.65639247788272 L-245.20710409529875,36.66124868917035 M-245.20710409529875,36.66124868917035 L-245.3530096602566,36.64675086841129 M-245.3530096602566,36.64675086841129 L-245.48850871084528,36.61374400805386 M-245.48850871084528,36.61374400805386 L-245.60571997298007,36.56415028792287 M-245.60571997298007,36.56415028792287 L-245.6978279977734,36.50085694061346 M-245.6978279977734,36.50085694061346 L-245.75948336523072,36.42754790121779 M-245.75948336523072,36.42754790121779 L-245.78710919546347,36.34848797886667 M-245.78710919546347,36.34848797886667 L-245.77910908284707,36.2682733695537 M-245.77910908284707,36.2682733695537 L-245.73595815700526,36.191565343640036 M-245.73595815700526,36.191565343640036 L-245.6601725692783,36.12281870813666 M-245.6601725692783,36.12281870813666 L-245.5561613557545,36.066023970008246 M-245.5561613557545,36.066023970008246 L-245.42996946158019,36.024476423960095 M-245.42996946158019,36.024476423960095 L-245.2889261706282,36.00058576135194 M-245.2889261706282,36.00058576135194 L-245.1412200105616,35.99573732516512 M-245.1412200105616,35.99573732516512 L-244.99542539562276,36.01021231453586 M-244.99542539562276,36.01021231453586 L-244.86000514440593,36.04317126202943 M-244.86000514440593,36.04317126202943 L-244.742823108111,36.092702624935896 M1027.0511587000299,721.2155344862274 L1027.3964802475816,721.426394821025 M1027.3964802475816,721.426394821025 L1027.7144798397671,721.670774817504 M1027.7144798397671,721.670774817504 L1027.9866943353802,721.9345071302855 M1027.9866943353802,721.9345071302855 L1028.1971526775526,722.2022077934614 M1028.1971526775526,722.2022077934614 L1028.3336064408034,722.4583250977882 M1028.3336064408034,722.4583250977882 L1028.3881756446197,722.6880062562427 M1028.3881756446197,722.6880062562427 L1028.3575549989791,722.8778232263319 M1028.3575549989791,722.8778232263319 L1028.2434957438497,723.0167108377991 M1028.2434957438497,723.0167108377991 L1028.0527103645745,723.0966180457656 M1028.0527103645745,723.0966180457656 L1027.7962041863666,723.1128312767944 M1027.7962041863666,723.1128312767944 L1027.4888951161056,723.0643933404533 M1027.4888951161056,723.0643933404533 L1027.1488137461595,722.9542019544315 M1027.1488137461595,722.9542019544315 L1026.795749015423,722.7886757774679 M1026.795749015423,722.7886757774679 L1026.4500580734002,722.5773590943554 M1026.4500580734002,722.5773590943554 L1026.1320723035346,722.3326865096501 M1026.1320723035346,722.3326865096501 L1025.8601092116955,722.0688155615505 M1025.8601092116955,722.0688155615505 L1025.6500822350745,721.8011620241277 M1025.6500822350745,721.8011620241277 L1025.5141409333098,721.5452667661427 M1025.5141409333098,721.5452667661427 L1025.4600480305157,721.3159317642585 M1025.4600480305157,721.3159317642585 L1025.4909995616642,721.1265057045036 M1025.4909995616642,721.1265057045036 L1025.6051684635725,720.9879641791606 M1025.6051684635725,720.9879641791606 L1025.7958173319853,720.908279075637 M1025.7958173319853,720.908279075637 L1026.0519719132205,720.8921129582495 M1026.0519719132205,720.8921129582495 L1026.3587948269667,720.9404121915593 M1026.3587948269667,720.9404121915593 L1026.6983670800876,721.0503110213826 M1026.6983670800876,721.0503110213826 L1027.0511587000299,721.2155344862274 M1029.9269873254466,713.8469684384304 L1034.9698132306494,709.3732356503275 M1029.8285671131523,741.0838046203298 L1018.6041291195338,734.9638462478406 M1029.8285671131523,741.0838046203298 L1024.8384476208137,745.4053759490077 M1018.6041291195338,734.9638462478406 L1013.6772424634237,739.2919102224494 M1018.6041291195338,734.9638462478406 L1018.6496281688942,734.9240290159025 M1018.6496281688942,734.9240290159025 L1018.6951423108751,734.8841378221305 M1018.6951423108751,734.8841378221305 L1018.740675612737,734.8441690869226 M1003.5088251803995,799.4000048883288 L1008.7295877133656,795.0259913491409 M435.3675705298433,474.8184103451065 L437.6465924752231,470.2681562360377 M432.6047768954527,479.00083698259255 L434.8821977407265,474.4493655046341 M290.3026950495931,397.33318811225286 L291.99281678254397,392.8219430043763 M293.3265874555676,393.6697727495281 L295.0208264391026,389.16114482883677 M-134.12034836565,149.46746060305327 L-133.82290718987235,145.29052760429437 M-137.5677927169686,151.77685960575462 L-137.27808851346776,147.59533960884102 M-217.39418758404486,105.96422002925823 L-217.3051019880561,101.87886441299844 M-213.92783657312157,103.87309200751235 L-213.8308773483907,99.79238565797499 M-284.374285029358,63.6267265435294 L-284.4385365514288,59.63991966549628 M1029.9668711090596,740.9643081318354 L1029.9207523600196,741.0042172172364 M1029.9207523600196,741.0042172172364 L1029.8746524011974,741.0440481886092 M1029.8746524011974,741.0440481886092 L1029.8285671131523,741.0838046203298 M-245.02430995553618,40.162266273198384 L-245.00397918320346,36.647287620541874 M-245.00397918320346,36.647287620541874 L-244.96713622148968,36.67259421105064 M-244.96713622148968,36.67259421105064 L-244.94245828642033,36.70191244789538 M-244.94245828642033,36.70191244789538 L-244.9313795366976,36.73353855726799 M-244.9313795366976,36.73353855726799 L-244.93454614469374,36.765635362465275 M-244.93454614469374,36.765635362465275 L-244.9517752656859,36.79633697532813 M-244.9517752656859,36.79633697532813 L-244.98206741786794,36.82385910218653 M-244.98206741786794,36.82385910218653 L-245.0236622894115,36.84660110521645 M-245.0236622894115,36.84660110521645 L-245.0741430239491,36.86324068421993 M-245.0741430239491,36.86324068421993 L-245.13057443679008,36.8728097002562 M-245.13057443679008,36.8728097002562 L-245.18967647910506,36.87475179999757 M-245.18967647910506,36.87475179999757 L-245.24801195708164,36.86895377970603 M-245.24801195708164,36.86895377970603 L-245.3021900374473,36.855753353415935 M-245.3021900374473,36.855753353415935 L-245.34905998094916,36.835917739682884 M-245.34905998094916,36.835917739682884 L-245.38589837705217,36.81060127593969 M-245.38589837705217,36.81060127593969 L-245.4105638745957,36.78127535826212 M-245.4105638745957,36.78127535826212 L-245.4216249978017,36.74964561014531 M-245.4216249978017,36.74964561014531 L-245.41843961197833,36.7175500418133 M-245.41843961197833,36.7175500418133 L-245.40119486387312,36.68685425805853 M-245.40119486387312,36.68685425805853 L-245.37089381509497,36.65934121726502 M-245.37089381509497,36.65934121726502 L-245.32929881568384,36.63660947565825 M-245.32929881568384,36.63660947565825 L-245.27882675129877,36.61997898278082 M-245.27882675129877,36.61997898278082 L-245.2224108202979,36.61041579587561 M-245.2224108202979,36.61041579587561 L-245.16332752498488,36.608474933028276 M-245.16332752498488,36.608474933028276 L-245.10500976421122,36.614269314480055 M-245.10500976421122,36.614269314480055 L-245.05084431279124,36.62746206006784 M-245.05084431279124,36.62746206006784 L-245.00397918320346,36.647287620541874 M1021.9220960819925,726.1488765450824 L1026.4422688858047,722.1572157759265 M1026.4422688858047,722.1572157759265 L1026.5803378417338,722.2415958323395 M1026.5803378417338,722.2415958323395 L1026.7074203153477,722.3393577817085 M1026.7074203153477,722.3393577817085 L1026.8162222241142,722.444871381462 M1026.8162222241142,722.444871381462 L1026.900309693604,722.5519503478968 M1026.900309693604,722.5519503478968 L1026.954657111094,722.6542981518401 M1026.954657111094,722.6542981518401 L1026.9764716738975,722.7461659631758 M1026.9764716738975,722.7461659631758 L1026.9641620880875,722.8220378099909 M1026.9641620880875,722.8220378099909 L1026.9184390641865,722.8774998012334 M1026.9184390641865,722.8774998012334 L1026.842275785028,722.9094938697629 M1026.842275785028,722.9094938697629 L1026.7397273221434,722.9159576881148 M1026.7397273221434,722.9159576881148 L1026.6168914629488,722.8965856105465 M1026.6168914629488,722.8965856105465 L1026.4810204219596,722.8525646963158 M1026.4810204219596,722.8525646963158 L1026.3399264153563,722.7864060540978 M1026.3399264153563,722.7864060540978 L1026.201678779318,722.7018884847166 M1026.201678779318,722.7018884847166 L1026.0745985399203,722.6040797565495 M1026.0745985399203,722.6040797565495 L1025.9658368406824,722.4985439876846 M1025.9658368406824,722.4985439876846 L1025.881960740822,722.3915493644452 M1025.881960740822,722.3915493644452 L1025.827552786624,722.2891602527006 M1025.827552786624,722.2891602527006 L1025.805814410286,722.1973478256157 M1025.805814410286,722.1973478256157 L1025.8181768757315,722.1215384965049 M1025.8181768757315,722.1215384965049 L1025.863917333293,722.066131804746 M1025.863917333293,722.066131804746 L1025.940201237501,722.0342500843171 M1025.940201237501,722.0342500843171 L1026.042551102234,722.0277170220452 M1026.042551102234,722.0277170220452 L1026.1653092232968,722.0470668999999 M1026.1653092232968,722.0470668999999 L1026.3010989035972,722.0910410446206 M1026.3010989035972,722.0910410446206 L1026.4422688858047,722.1572157759265 M-244.742823108111,36.092702624935896 L-244.74527151010886,36.50587129277932 M-244.74527151010886,36.50587129277932 L-244.65315693840796,36.56911959228199 M-244.65315693840796,36.56911959228199 L-244.59143821794942,36.64240038334225 M-244.59143821794942,36.64240038334225 L-244.5637085462024,36.721459060192956 M-244.5637085462024,36.721459060192956 L-244.5715897767799,36.801703077801335 M-244.5715897767799,36.801703077801335 L-244.61463343045534,36.878468312337475 M-244.61463343045534,36.878468312337475 L-244.690346376055,36.94729035842914 M-244.690346376055,36.94729035842914 L-244.79433330812117,37.0041646176324 M-244.79433330812117,37.0041646176324 L-244.92055082937327,37.04578020881752 M-244.92055082937327,37.04578020881752 L-245.06165889970885,37.06971377727348 M-245.06165889970885,37.06971377727348 L-245.2094485960837,37.07457130273116 M-245.2094485960837,37.07457130273116 L-245.35532094106566,37.06006955858652 M-245.35532094106566,37.06006955858652 L-245.49078908838487,37.02705376551603 M-245.49078908838487,37.02705376551603 L-245.6079735629803,36.97744662261357 M-245.6079735629803,36.97744662261357 L-245.70006047414472,36.914136142706184 M-245.70006047414472,36.914136142706184 L-245.76170162759865,36.8408072568634 M-245.76170162759865,36.8408072568634 L-245.78932096658457,36.76172592786628 M-245.78932096658457,36.76172592786628 L-245.78132245851657,36.68148959575626 M-245.78132245851657,36.68148959575626 L-245.73818113516927,36.604760793358196 M-245.73818113516927,36.604760793358196 L-245.66241258601212,36.53599553498367 M-245.66241258601212,36.53599553498367 L-245.558424854765,36.479185409695674 M-245.558424854765,36.479185409695674 L-245.43226152179795,36.43762660622525 M-245.43226152179795,36.43762660622525 L-245.29125021317986,36.41372946994761 M-245.29125021317986,36.41372946994761 L-245.14357760165467,36.40887971993851 M-245.14357760165467,36.40887971993851 L-244.99781615622987,36.4233586316829 M-244.99781615622987,36.4233586316829 L-244.86242677228847,36.45632650982964 M-244.86242677228847,36.45632650982964 L-244.74527151010886,36.50587129277932 M1027.0511587000299,721.2155344862274 L1026.5189700020471,721.6856657297628 M1026.5189700020471,721.6856657297628 L1026.8640741674226,721.8965039948662 M1026.8640741674226,721.8965039948662 L1027.1818558962436,722.1408583828347 M1027.1818558962436,722.1408583828347 L1027.4538646894093,722.4045630224659 M1027.4538646894093,722.4045630224659 L1027.6641415362228,722.6722355571185 M1027.6641415362228,722.6722355571185 L1027.8004485794074,722.9283259132806 M1027.8004485794074,722.9283259132806 L1027.8549143514206,723.1579828745587 M1027.8549143514206,723.1579828745587 L1027.8242396739176,723.3477798253934 M1027.8242396739176,723.3477798253934 L1027.7101789623848,723.4866527764184 M1027.7101789623848,723.4866527764184 L1027.5194447486715,723.5665515448973 M1027.5194447486715,723.5665515448973 L1027.2630394383193,723.5827630631204 M1027.2630394383193,723.5827630631204 L1026.9558750644364,723.5343302434535 M1026.9558750644364,723.5343302434535 L1026.615973692826,723.4241504925565 M1026.615973692826,723.4241504925565 L1026.263113768047,723.2586417810214 M1026.263113768047,723.2586417810214 L1025.9176406159525,723.0473473730867 M1025.9176406159525,723.0473473730867 L1025.5998728007094,722.8027005490817 M1025.5998728007094,722.8027005490817 L1025.3281152512943,722.5388573462435 M1025.3281152512943,722.5388573462435 L1025.1182693953929,722.2712319128316 M1025.1182693953929,722.2712319128316 L1024.9824743103165,722.0153634875144 M1024.9824743103165,722.0153634875144 L1024.9284843223884,721.7860525027527 M1024.9284843223884,721.7860525027527 L1024.9594894734641,721.5966462589204 M1024.9594894734641,721.5966462589204 L1025.0736596192369,721.4581192140029 M1025.0736596192369,721.4581192140029 L1025.2642573574265,721.3784424344394 M1025.2642573574265,721.3784424344394 L1025.5203113461384,721.3622780053508 M1025.5203113461384,721.3622780053508 L1025.826990015784,721.410572194133 M1025.826990015784,721.410572194133 L1026.1663827959278,721.5204595410046 M1026.1663827959278,721.5204595410046 L1026.5189700020471,721.6856657297628" stroke="black"  stroke-width="4"  fill="red"/>
<path d="M1024.8384476208137,745.4053759490077 L1013.9938560740204,812.6620073570075 M1024.8384476208137,745.4053759490077 L1013.6772424634237,739.2919102224494 M1002.3917192392073,806.0035015580725 L1013.6772424634237,739.2919102224494 M1013.9938560740204,812.6620073570075 L1002.3917192392073,806.0035015580725 M1029.8285671131523,741.0838046203298 L1024.8384476208137,745.4053759490077 M1060.5918378585002,700.479965294971 L1059.0983185000503,703.2747644907108 M1059.0983185000503,703.2747644907108 L1057.5379318525045,706.0601627981125 M1057.5379318525045,706.0601627981125 L1055.9155946459875,708.8273514464289 M1055.9155946459875,708.8273514464289 L1054.2364533033235,711.5675748678123 M1054.2364533033235,711.5675748678123 L1052.5058227560557,714.2722015071454 M1052.5058227560557,714.2722015071454 L1050.7292190024937,716.9327076826166 M1050.7292190024937,716.9327076826166 L1048.91230489048,719.5407437515767 M1048.91230489048,719.5407437515767 L1047.060845686596,722.0881826212631 M1047.060845686596,722.0881826212631 L1045.180739926031,724.567105489584 M1045.180739926031,724.567105489584 L1043.2779321279402,726.9698879214386 M1043.2779321279402,726.9698879214386 L1041.358452874468,729.2891701168271 M1041.358452874468,729.2891701168271 L1039.4283404147416,731.5179333980195 M1039.4283404147416,731.5179333980195 L1037.4936310049095,733.6495108089432 M1037.4936310049095,733.6495108089432 L1035.5603576359733,735.677590730917 M1035.5603576359733,735.677590730917 L1033.6344994276558,737.5962611211455 M1033.6344994276558,737.5962611211455 L1031.7219572095476,739.4000287984352 M1031.7219572095476,739.4000287984352 L1029.8285671131523,741.0838046203298 M1060.8007433546004,700.0786998972864 L1060.7747740358725,700.0840204547196 M1060.7747740358725,700.0840204547196 L1060.744248262561,700.100689723238 M1060.744248262561,700.100689723238 L1060.7109416320395,700.1277341547809 M1060.7109416320395,700.1277341547809 L1060.6767802581949,700.1635914329281 M1060.6767802581949,700.1635914329281 L1060.6437578963223,700.2061684915645 M1060.6437578963223,700.2061684915645 L1060.6137783036665,700.2530052819016 M1060.6137783036665,700.2530052819016 L1060.588605732267,700.3013616339223 M1060.588605732267,700.3013616339223 L1060.569683360029,700.3484441790176 M1060.569683360029,700.3484441790176 L1060.5581186474524,700.3915101525199 M1060.5581186474524,700.3915101525199 L1060.5545894956513,700.428054386411 M1060.5545894956513,700.428054386411 L1060.5592842660371,700.4559676938908 M1060.5592842660371,700.4559676938908 L1060.5719513256934,700.4736077916078 M1060.5719513256934,700.4736077916078 L1060.5918378585002,700.479965294971 M1092.1258862741731,658.6673412131923 L1090.1115426376136,660.5053000966727 M1090.1115426376136,660.5053000966727 L1088.094094045584,662.4474719470893 M1088.094094045584,662.4474719470893 L1086.0786828926696,664.4884888148989 M1086.0786828926696,664.4884888148989 L1084.0704176793806,666.6227960819052 M1084.0704176793806,666.6227960819052 L1082.074338114631,668.8446766190602 M1082.074338114631,668.8446766190602 L1080.0954215583015,671.148258588817 M1080.0954215583015,671.148258588817 L1078.138572779518,673.527532973968 M1078.138572779518,673.527532973968 L1076.2086425325208,675.9763279193941 M1076.2086425325208,675.9763279193941 L1074.3103718298905,678.4883817170225 M1074.3103718298905,678.4883817170225 L1072.448409996287,681.0573222049716 M1072.448409996287,681.0573222049716 L1070.6273222673012,683.6766651811677 M1070.6273222673012,683.6766651811677 L1068.8515618053916,686.3398497669275 M1068.8515618053916,686.3398497669275 L1067.125477747434,689.0402306008574 M1067.125477747434,689.0402306008574 L1065.4533126927895,691.7710891698775 M1065.4533126927895,691.7710891698775 L1063.8391662834713,694.5256700355795 M1063.8391662834713,694.5256700355795 L1062.2870270377625,697.297156263814 M1062.2870270377625,697.297156263814 L1060.8007433546004,700.0786998972864 M1080.500814362482,752.0215207429394 L1092.1258862741731,658.6673412131923 M1046.9628653280843,779.6900720432673 L1080.500814362482,752.0215207429394 M1045.9983295283628,786.4040933132337 L1046.9628653280843,779.6900720432673 M1013.9938560740204,812.6620073570075 L1045.9983295283628,786.4040933132337 M1029.8285671131523,741.0838046203298 L1018.6041291195338,734.9638462478406 M1018.6041291195338,734.9638462478406 L1013.6772424634237,739.2919102224494 M1002.3917192392073,806.0035015580725 L1033.968901431581,779.6900559783326 M1034.980272361161,773.0328726548169 L1033.968901431581,779.6900559783326 M1034.980272361161,773.0328726548169 L1068.0654192142076,745.3137646955015 M1080.3913330545968,652.7441014337537 L1068.0654192142076,745.3137646955015 M1080.3913330545968,652.7441014337537 L1078.402141756953,654.5831257337564 M1078.402141756953,654.5831257337564 L1076.408821571839,656.525447396168 M1076.408821571839,656.525447396168 L1074.4164597990557,658.565701534862 M1074.4164597990557,658.565701534862 L1072.4301127017334,660.698338199107 M1072.4301127017334,660.698338199107 L1070.454771092649,662.9176466363568 M1070.454771092649,662.9176466363568 L1068.4953665252262,665.2177629830537 M1068.4953665252262,665.2177629830537 L1066.556761064048,667.5926877455481 M1066.556761064048,667.5926877455481 L1064.6437656872301,670.0362602368039 M1064.6437656872301,670.0362602368039 L1062.7610849934265,672.5422314176959 M1062.7610849934265,672.5422314176959 L1060.9133350409281,675.1042433556755 M1060.9133350409281,675.1042433556755 L1059.105050765983,677.7158276178643 M1059.105050765983,677.7158276178643 L1057.3406582141552,680.3704405968858 M1057.3406582141552,680.3704405968858 L1055.6244824621756,683.0614557423766 M1055.6244824621756,683.0614557423766 L1053.960745015573,685.7821748491596 M1053.960745015573,685.7821748491596 L1052.3535277804033,688.5258643210059 M1052.3535277804033,688.5258643210059 L1050.8068044302704,691.285730580071 M1050.8068044302704,691.285730580071 L1049.3244117029349,694.0549505644001 M1049.115948671818,694.4543869798836 L1049.0965565967228,694.4482726219758 M1049.0965565967228,694.4482726219758 L1049.0843424603397,694.4309146694414 M1049.0843424603397,694.4309146694414 L1049.0800325603245,694.4033060997258 M1049.0800325603245,694.4033060997258 L1049.0838564204182,694.3670714916135 M1049.0838564204182,694.3670714916135 L1049.0956083408016,694.3243020200936 M1049.0956083408016,694.3243020200936 L1049.1145996431371,694.2774856556616 M1049.1145996431371,694.2774856556616 L1049.1397189619406,694.2293497084389 M1049.1397189619406,694.2293497084389 L1049.1695259565226,694.1826747189095 M1049.1695259565226,694.1826747189095 L1049.2022666921919,694.140191490748 M1049.2022666921919,694.140191490748 L1049.2360535887433,694.1043546155047 M1049.2360535887433,694.1043546155047 L1049.2689147401968,694.0772559665418 M1049.2689147401968,694.0772559665418 L1049.2989498097913,694.060461009931 M1049.2989498097913,694.060461009931 L1049.3244117029349,694.0549505644001 M1018.6041291195338,734.9638462478406 L1020.4739297002582,733.2780589594784 M1020.4739297002582,733.2780589594784 L1022.3636575173718,731.4732534530756 M1022.3636575173718,731.4732534530756 L1024.267551767157,729.5545261218333 M1024.267551767157,729.5545261218333 L1026.1797845519898,727.5273737208565 M1026.1797845519898,727.5273737208565 L1028.0944474047183,725.3977081775631 M1028.0944474047183,725.3977081775631 L1030.005575349539,723.1718372630453 M1030.005575349539,723.1718372630453 L1031.907196835163,720.8564203075637 M1031.907196835163,720.8564203075637 L1033.7933349805255,718.4584646268622 M1033.7933349805255,718.4584646268622 L1035.6580170969053,715.9853149576527 M1035.6580170969053,715.9853149576527 L1037.4953521300033,713.4445769896311 M1037.4953521300033,713.4445769896311 L1039.2994911021326,710.8441472310267 M1039.2994911021326,710.8441472310267 L1041.0647133454447,708.1921269712851 M1041.0647133454447,708.1921269712851 L1042.7853961306794,705.4968367430789 M1042.7853961306794,705.4968367430789 L1044.456058590054,702.7667679063719 M1044.456058590054,702.7667679063719 L1046.0714153943159,700.010516657239 M1046.0714153943159,700.010516657239 L1047.6263446955418,697.2368003769657 M1047.6263446955418,697.2368003769657 L1049.115948671818,694.4543869798836 M1033.968901431581,779.6900559783326 L1045.9983295283628,786.4040933132337 M1060.5918378585002,700.479965294971 L1049.115948671818,694.4543869798836 M1060.8007433546004,700.0786998972864 L1049.3244117029349,694.0549505644001 M1092.1258862741731,658.6673412131923 L1080.3913330545968,652.7441014337537 M1080.500814362482,752.0215207429394 L1068.0654192142076,745.3137646955015 M1046.9628653280843,779.6900720432673 L1034.980272361161,773.0328726548169" stroke="black"  stroke-width="4"  fill="red"/>
<path d="M1021.9220960819925,726.1488765450824 L1026.4422688858047,722.1572157759265 M1026.4422688858047,722.1572157759265 L1026.5803378417338,722.2415958323395 M1026.5803378417338,722.2415958323395 L1026.7074203153477,722.3393577817085 M1026.7074203153477,722.3393577817085 L1026.8162222241142,722.444871381462 M1026.8162222241142,722.444871381462 L1026.900309693604,722.5519503478968 M1026.900309693604,722.5519503478968 L1026.954657111094,722.6542981518401 M1026.954657111094,722.6542981518401 L1026.9764716738975,722.7461659631758 M1026.9764716738975,722.7461659631758 L1026.9641620880875,722.8220378099909 M1026.9641620880875,722.8220378099909 L1026.9184390641865,722.8774998012334 M1026.9184390641865,722.8774998012334 L1026.842275785028,722.9094938697629 M1026.842275785028,722.9094938697629 L1026.7397273221434,722.9159576881148 M1026.7397273221434,722.9159576881148 L1026.6168914629488,722.8965856105465 M1026.6168914629488,722.8965856105465 L1026.4810204219596,722.8525646963158 M1026.4810204219596,722.8525646963158 L1026.3399264153563,722.7864060540978 M1026.3399264153563,722.7864060540978 L1026.201678779318,722.7018884847166 M1026.201678779318,722.7018884847166 L1026.0745985399203,722.6040797565495 M1026.0745985399203,722.6040797565495 L1025.9658368406824,722.4985439876846 M1025.9658368406824,722.4985439876846 L1025.881960740822,722.3915493644452 M1025.881960740822,722.3915493644452 L1025.827552786624,722.2891602527006 M1025.827552786624,722.2891602527006 L1025.805814410286,722.1973478256157 M1025.805814410286,722.1973478256157 L1025.8181768757315,722.1215384965049 M1025.8181768757315,722.1215384965049 L1025.863917333293,722.066131804746 M1025.863917333293,722.066131804746 L1025.940201237501,722.0342500843171 M1025.940201237501,722.0342500843171 L1026.042551102234,722.0277170220452 M1026.042551102234,722.0277170220452 L1026.1653092232968,722.0470668999999 M1026.1653092232968,722.0470668999999 L1026.3010989035972,722.0910410446206 M1026.3010989035972,722.0910410446206 L1026.4422688858047,722.1572157759265 M1021.9220960819925,726.1488765450824 L1021.7816205542945,726.0827614226439 M1021.7816205542945,726.0827614226439 L1021.6464403362763,726.0388268777876 M1021.6464403362763,726.0388268777876 L1021.5241725295002,726.0194944220098 M1021.5241725295002,726.0194944220098 L1021.4221641057029,726.02602160226 M1021.4221641057029,726.02602160226 L1021.3460544262805,726.0578746152369 M1021.3460544262805,726.0578746152369 L1021.300310616341,726.1132314055665 M1021.300310616341,726.1132314055665 L1021.2877664991729,726.1889724347095 M1021.2877664991729,726.1889724347095 L1021.3091554315597,726.2807021081496 M1021.3091554315597,726.2807021081496 L1021.3630672964648,726.3829988868974 M1021.3630672964648,726.3829988868974 L1021.4463296686674,726.489896971872 M1021.4463296686674,726.489896971872 L1021.5543941619601,726.595337466609 M1021.5543941619601,726.595337466609 L1021.6807354931191,726.6930578501199 M1021.6807354931191,726.6930578501199 L1021.8182442769851,726.7774990441112 M1021.8182442769851,726.7774990441112 L1021.9586439119723,726.8435978780442 M1021.9586439119723,726.8435978780442 L1022.0939047792867,726.8875789855117 M1022.0939047792867,726.8875789855117 L1022.2162497110849,726.9069335426491 M1022.2162497110849,726.9069335426491 L1022.3184556293099,726.9004755704766 M1022.3184556293099,726.9004755704766 L1022.3944453660736,726.8685104360175 M1022.3944453660736,726.8685104360175 L1022.4401720289009,726.8130985909561 M1022.4401720289009,726.8130985909561 L1022.4526638239374,726.7372953208082 M1022.4526638239374,726.7372953208082 L1022.4311994055618,726.6455105082437 M1022.4311994055618,726.6455105082437 L1022.3773480284792,726.5432551250985 M1022.3773480284792,726.5432551250985 L1022.2938755250191,726.4362727995988 M1022.2938755250191,726.4362727995988 L1022.1857710396478,726.3308543758542 M1022.1857710396478,726.3308543758542 L1022.0594273514444,726.233180564102 M1022.0594273514444,726.233180564102 L1021.9220960819925,726.1488765450824 M1026.5189700020471,721.6856657297628 L1026.8640741674226,721.8965039948662 M1026.8640741674226,721.8965039948662 L1027.1818558962436,722.1408583828347 M1027.1818558962436,722.1408583828347 L1027.4538646894093,722.4045630224659 M1027.4538646894093,722.4045630224659 L1027.6641415362228,722.6722355571185 M1027.6641415362228,722.6722355571185 L1027.8004485794074,722.9283259132806 M1027.8004485794074,722.9283259132806 L1027.8549143514206,723.1579828745587 M1027.8549143514206,723.1579828745587 L1027.8242396739176,723.3477798253934 M1027.8242396739176,723.3477798253934 L1027.7101789623848,723.4866527764184 M1027.7101789623848,723.4866527764184 L1027.5194447486715,723.5665515448973 M1027.5194447486715,723.5665515448973 L1027.2630394383193,723.5827630631204 M1027.2630394383193,723.5827630631204 L1026.9558750644364,723.5343302434535 M1026.9558750644364,723.5343302434535 L1026.615973692826,723.4241504925565 M1026.615973692826,723.4241504925565 L1026.263113768047,723.2586417810214 M1026.263113768047,723.2586417810214 L1025.9176406159525,723.0473473730867 M1025.9176406159525,723.0473473730867 L1025.5998728007094,722.8027005490817 M1025.5998728007094,722.8027005490817 L1025.3281152512943,722.5388573462435 M1025.3281152512943,722.5388573462435 L1025.1182693953929,722.2712319128316 M1025.1182693953929,722.2712319128316 L1024.9824743103165,722.0153634875144 M1024.9824743103165,722.0153634875144 L1024.9284843223884,721.7860525027527 M1024.9284843223884,721.7860525027527 L1024.9594894734641,721.5966462589204 M1024.9594894734641,721.5966462589204 L1025.0736596192369,721.4581192140029 M1025.0736596192369,721.4581192140029 L1025.2642573574265,721.3784424344394 M1025.2642573574265,721.3784424344394 L1025.5203113461384,721.3622780053508 M1025.5203113461384,721.3622780053508 L1025.826990015784,721.410572194133 M1025.826990015784,721.410572194133 L1026.1663827959278,721.5204595410046 M1026.1663827959278,721.5204595410046 L1026.5189700020471,721.6856657297628 M1027.0511587000299,721.2155344862274 L1027.3964802475816,721.426394821025 M1027.3964802475816,721.426394821025 L1027.7144798397671,721.670774817504 M1027.7144798397671,721.670774817504 L1027.9866943353802,721.9345071302855 M1027.9866943353802,721.9345071302855 L1028.1971526775526,722.2022077934614 M1028.1971526775526,722.2022077934614 L1028.3336064408034,722.4583250977882 M1028.3336064408034,722.4583250977882 L1028.3881756446197,722.6880062562427 M1028.3881756446197,722.6880062562427 L1028.3575549989791,722.8778232263319 M1028.3575549989791,722.8778232263319 L1028.2434957438497,723.0167108377991 M1028.2434957438497,723.0167108377991 L1028.0527103645745,723.0966180457656 M1028.0527103645745,723.0966180457656 L1027.7962041863666,723.1128312767944 M1027.7962041863666,723.1128312767944 L1027.4888951161056,723.0643933404533 M1027.4888951161056,723.0643933404533 L1027.1488137461595,722.9542019544315 M1027.1488137461595,722.9542019544315 L1026.795749015423,722.7886757774679 M1026.795749015423,722.7886757774679 L1026.4500580734002,722.5773590943554 M1026.4500580734002,722.5773590943554 L1026.1320723035346,722.3326865096501 M1026.1320723035346,722.3326865096501 L1025.8601092116955,722.0688155615505 M1025.8601092116955,722.0688155615505 L1025.6500822350745,721.8011620241277 M1025.6500822350745,721.8011620241277 L1025.5141409333098,721.5452667661427 M1025.5141409333098,721.5452667661427 L1025.4600480305157,721.3159317642585 M1025.4600480305157,721.3159317642585 L1025.4909995616642,721.1265057045036 M1025.4909995616642,721.1265057045036 L1025.6051684635725,720.9879641791606 M1025.6051684635725,720.9879641791606 L1025.7958173319853,720.908279075637 M1025.7958173319853,720.908279075637 L1026.0519719132205,720.8921129582495 M1026.0519719132205,720.8921129582495 L1026.3587948269667,720.9404121915593 M1026.3587948269667,720.9404121915593 L1026.6983670800876,721.0503110213826 M1026.6983670800876,721.0503110213826 L1027.0511587000299,721.2155344862274 M1027.0511587000299,721.2155344862274 L1026.5189700020471,721.6856657297628" stroke="black"  stroke-width="4"  fill="red"/>
<path d="M-252.1914137157372,45.92192600066335 L-287.84160517274825,65.53420741926482 M-252.1914137157372,45.92192600066335 L-255.51675010218787,44.10049814039485 M-291.165301265621,63.6267269246473 L-255.51675010218787,44.10049814039485 M-287.84160517274825,65.53420741926482 L-291.165301265621,63.6267269246473 M-287.84160517274825,65.53420741926482 L-288.27229720028777,41.70179070629172 M-288.27229720028777,41.70179070629172 L-284.75791316320306,39.822601235281184 M-284.75791316320306,39.822601235281184 L-285.15187858208697,15.377047401055904 M-285.15187858208697,15.377047401055904 L-234.43478437278156,-10.93948464418878 M-234.43478437278156,-10.93948464418878 L-234.4837672866247,-9.42516565658633 M-234.4837672866247,-9.42516565658633 L-234.59660447242368,-7.884076375664563 M-234.59660447242368,-7.884076375664563 L-234.77285232118277,-6.320379167214924 M-234.77285232118277,-6.320379167214924 L-235.01191346661335,-4.738283359282946 M-235.01191346661335,-4.738283359282946 L-235.31303185507772,-3.142018399258916 M-235.31303185507772,-3.142018399258916 L-235.67530046419824,-1.535833245013805 M-235.67530046419824,-1.535833245013805 L-236.09766620851735,0.07601575094048485 M-236.09766620851735,0.07601575094048485 L-236.57892372074582,1.6892515652349402 M-236.57892372074582,1.6892515652349402 L-237.11773062749057,3.2996263947069906 M-237.11773062749057,3.2996263947069906 L-237.71260469334197,4.902910039849985 M-237.71260469334197,4.902910039849985 L-238.3619273928539,6.494888268340446 M-238.3619273928539,6.494888268340446 L-239.06395142405086,8.071389221779782 M-239.06395142405086,8.071389221779782 L-239.81680103829603,9.628280236421233 M-239.81680103829603,9.628280236421233 L-240.61847880855794,11.16147470448243 M-240.61847880855794,11.16147470448243 L-241.4668696861172,12.66696346164855 M-241.4668696861172,12.66696346164855 L-242.35974437340496,14.140794404142525 M-242.35974437340496,14.140794404142525 L-243.29476417649732,15.579098287186412 M-243.29476417649732,15.579098287186412 L-243.2839476134343,15.595039567609831 M-243.2839476134343,15.595039567609831 L-243.27776713259823,15.615989413825787 M-243.27776713259823,15.615989413825787 L-243.2765800027014,15.640728473285606 M-243.2765800027014,15.640728473285606 L-243.28045610795994,15.667826365900225 M-243.28045610795994,15.667826365900225 L-243.28916911991178,15.695701294313096 M-243.28916911991178,15.695701294313096 L-243.30221328948778,15.722744790345132 M-243.30221328948778,15.722744790345132 L-243.31883096254046,15.747368480459272 M-243.31883096254046,15.747368480459272 L-243.33805601869972,15.76815592256986 M-243.33805601869972,15.76815592256986 L-243.35877107516887,15.783893067890517 M-243.35877107516887,15.783893067890517 L-243.3797737239654,15.793661526161372 M-243.3797737239654,15.793661526161372 L-243.39984327105822,15.796906396988561 M-243.39984327105822,15.796906396988561 L-243.4178122755734,15.793423010520542 M-243.4178122755734,15.793423010520542 L-243.43263735001824,15.783426984170092 M-243.43263735001824,15.783426984170092 L-244.37184422626092,17.228387468280573 M-244.37184422626092,17.228387468280573 L-245.2686575779369,18.70939809191958 M-245.2686575779369,18.70939809191958 L-246.120373084506,20.2220086058706 M-246.120373084506,20.2220086058706 L-246.92443099528805,21.76165846789246 M-246.92443099528805,21.76165846789246 L-247.67842522354454,23.323723142275696 M-247.67842522354454,23.323723142275696 L-248.38010914723577,24.903488210631792 M-248.38010914723577,24.903488210631792 L-249.02740611235845,26.496190513531758 M-249.02740611235845,26.496190513531758 L-249.6184145370779,28.097050065940152 M-249.6184145370779,28.097050065940152 L-250.15141482330614,29.701245430555957 M-250.15141482330614,29.701245430555957 L-250.62487540277039,31.303978403192787 M-250.62487540277039,31.303978403192787 L-251.03745561213236,32.90044102870877 M-251.03745561213236,32.90044102870877 L-251.38801123978192,34.48587359410601 M-251.38801123978192,34.48587359410601 L-251.67559638554076,36.05556937879635 M-251.67559638554076,36.05556937879635 L-251.899465790632,37.60487328438262 M-251.899465790632,37.60487328438262 L-252.0590762157551,39.12921800969377 M-252.0590762157551,39.12921800969377 L-252.15408665634345,40.62414022457142 M-252.15408665634345,40.62414022457142 L-252.18435801739656,42.08526774458147 M-252.18435801739656,42.08526774458147 L-252.1914137157372,45.92192600066335 M-252.18435801739656,42.08526774458147 L-255.51674973343734,40.26833057636048 M-255.51674973343734,40.26833057636048 L-255.51675010218787,44.10049814039485 M-255.51674973343734,40.26833057636048 L-255.4891373867481,38.80897041225819 M-255.4891373867481,38.80897041225819 L-255.39678290352663,37.3159724859193 M-255.39678290352663,37.3159724859193 L-255.2398177544319,35.79370331218769 M-255.2398177544319,35.79370331218769 L-255.01857531350674,34.24662002061285 M-255.01857531350674,34.24662002061285 L-254.73359115611822,32.67928316988838 M-254.73359115611822,32.67928316988838 L-254.38560286996676,31.09634059913253 M-254.38560286996676,31.09634059913253 L-253.97554873967817,29.502491304739863 M-253.97554873967817,29.502491304739863 L-253.504565410164,27.902486820340357 M-253.504565410164,27.902486820340357 L-252.9739860327519,26.30112648322512 M-252.9739860327519,26.30112648322512 L-252.38533481948593,24.703199528736093 M-252.38533481948593,24.703199528736093 L-251.74032410491327,23.11351804874289 M-251.74032410491327,23.11351804874289 L-251.04084841464123,21.536852403672867 M-251.04084841464123,21.536852403672867 L-250.28897750359283,19.977955840924608 M-250.28897750359283,19.977955840924608 L-249.48695130858505,18.44153263619961 M-249.48695130858505,18.44153263619961 L-248.63716951413267,16.93219702919066 M-248.63716951413267,16.93219702919066 L-247.74218570241578,15.454499100779913 M-247.74218570241578,15.454499100779913 L-246.80469834060762,14.012878554195197 M-246.80469834060762,14.012878554195197 L-246.78983967518275,14.022887376348763 M-246.78983967518275,14.022887376348763 L-246.77184593566585,14.026396777257105 M-246.77184593566585,14.026396777257105 L-246.75176197034068,14.023189644364493 M-246.75176197034068,14.023189644364493 L-246.73075602943595,14.013468432255081 M-246.73075602943595,14.013468432255081 L-246.71004902251025,13.997785310576091 M-246.71004902251025,13.997785310576091 L-246.69084288177123,13.977055527783875 M-246.69084288177123,13.977055527783875 L-246.67425388041875,13.9524897746997 M-246.67425388041875,13.9524897746997 L-246.66124650046515,13.925501144164514 M-246.66124650046515,13.925501144164514 L-246.65257622694787,13.897674802358893 M-246.65257622694787,13.897674802358893 L-246.6487463458709,13.870616409634692 M-246.6487463458709,13.870616409634692 L-246.64998048723692,13.84590545805014 M-246.64998048723692,13.84590545805014 L-246.65620604691753,13.824970704833788 M-246.65620604691753,13.824970704833788 L-246.66706313433224,13.80903061973595 M-237.84728077646673,-12.662007357007383 L-237.8934941789721,-11.14967721718699 M-237.8934941789721,-11.14967721718699 L-238.0035776800005,-9.610709539327047 M-238.0035776800005,-9.610709539327047 L-238.17709524095403,-8.049261088057108 M-238.17709524095403,-8.049261088057108 L-238.41345695027894,-6.469535344878068 M-238.41345695027894,-6.469535344878068 L-238.7119140356665,-4.875755685159049 M-238.7119140356665,-4.875755685159049 L-239.0715665873489,-3.272164776365969 M-239.0715665873489,-3.272164776365969 L-239.49136844476925,-1.6630124786926217 M-239.49136844476925,-1.6630124786926217 L-239.97012099523363,-0.05256908750072853 M-239.97012099523363,-0.05256908750072853 L-240.5064883722887,1.5549244781385596 M-240.5064883722887,1.5549244781385596 L-241.09899461886573,3.1552450858619636 M-241.09899461886573,3.1552450858619636 L-241.74602726693593,4.744185757547257 M-241.74602726693593,4.744185757547257 L-242.44584481122945,6.31758203909294 M-242.44584481122945,6.31758203909294 L-243.19657704749739,7.871308832649731 M-243.19657704749739,7.871308832649731 L-243.99623183766528,9.401287246289655 M-243.99623183766528,9.401287246289655 L-244.84269911569095,10.903515944336277 M-244.84269911569095,10.903515944336277 L-245.7337543054091,12.37405079159123 M-245.7337543054091,12.37405079159123 L-246.66706313433224,13.80903061973595 M-237.84728077646673,-12.662007357007383 L-288.56348841539796,13.536796551120858 M-288.12515598044,37.95185365288796 L-288.56348841539796,13.536796551120858 M-288.12515598044,37.95185365288796 L-291.63920878830413,39.82260161073532 M-291.165301265621,63.6267269246473 L-291.63920878830413,39.82260161073532 M-291.63920878830413,39.82260161073532 L-288.27229720028777,41.70179070629172 M-243.43263735001824,15.783426984170092 L-246.80469834060762,14.012878554195197 M-243.29476417649732,15.579098287186412 L-246.66706313433224,13.80903061973595 M-234.43478437278156,-10.93948464418878 L-237.84728077646673,-12.662007357007383 M-285.15187858208697,15.377047401055904 L-288.56348841539796,13.536796551120858 M-284.75791316320306,39.822601235281184 L-288.12515598044,37.95185365288796" stroke="black"  stroke-width="4"  fill="red"/>
<path d="M-245.02430995553618,40.162266273198384 L-245.00397918320346,36.647287620541874 M-245.00397918320346,36.647287620541874 L-244.96713622148968,36.67259421105064 M-244.96713622148968,36.67259421105064 L-244.94245828642033,36.70191244789538 M-244.94245828642033,36.70191244789538 L-244.9313795366976,36.73353855726799 M-244.9313795366976,36.73353855726799 L-244.93454614469374,36.765635362465275 M-244.93454614469374,36.765635362465275 L-244.9517752656859,36.79633697532813 M-244.9517752656859,36.79633697532813 L-244.98206741786794,36.82385910218653 M-244.98206741786794,36.82385910218653 L-245.0236622894115,36.84660110521645 M-245.0236622894115,36.84660110521645 L-245.0741430239491,36.86324068421993 M-245.0741430239491,36.86324068421993 L-245.13057443679008,36.8728097002562 M-245.13057443679008,36.8728097002562 L-245.18967647910506,36.87475179999757 M-245.18967647910506,36.87475179999757 L-245.24801195708164,36.86895377970603 M-245.24801195708164,36.86895377970603 L-245.3021900374473,36.855753353415935 M-245.3021900374473,36.855753353415935 L-245.34905998094916,36.835917739682884 M-245.34905998094916,36.835917739682884 L-245.38589837705217,36.81060127593969 M-245.38589837705217,36.81060127593969 L-245.4105638745957,36.78127535826212 M-245.4105638745957,36.78127535826212 L-245.4216249978017,36.74964561014531 M-245.4216249978017,36.74964561014531 L-245.41843961197833,36.7175500418133 M-245.41843961197833,36.7175500418133 L-245.40119486387312,36.68685425805853 M-245.40119486387312,36.68685425805853 L-245.37089381509497,36.65934121726502 M-245.37089381509497,36.65934121726502 L-245.32929881568384,36.63660947565825 M-245.32929881568384,36.63660947565825 L-245.27882675129877,36.61997898278082 M-245.27882675129877,36.61997898278082 L-245.2224108202979,36.61041579587561 M-245.2224108202979,36.61041579587561 L-245.16332752498488,36.608474933028276 M-245.16332752498488,36.608474933028276 L-245.10500976421122,36.614269314480055 M-245.10500976421122,36.614269314480055 L-245.05084431279124,36.62746206006784 M-245.05084431279124,36.62746206006784 L-245.00397918320346,36.647287620541874 M-245.02430995553618,40.162266273198384 L-245.07108397091304,40.142395227578504 M-245.07108397091304,40.142395227578504 L-245.1251443558233,40.12917221328104 M-245.1251443558233,40.12917221328104 L-245.18334920197913,40.12336453726226 M-245.18334920197913,40.12336453726226 L-245.24231828911275,40.12530985322206 M-245.24231828911275,40.12530985322206 L-245.29862535108055,40.134894981630396 M-245.29862535108055,40.134894981630396 L-245.34900020588702,40.15156363001853 M-245.34900020588702,40.15156363001853 L-245.39051530311565,40.17434752320332 M-245.39051530311565,40.17434752320332 L-245.42075839988001,40.20192368168972 M-245.42075839988001,40.20192368168972 L-245.43797051821377,40.23268988049688 M-245.43797051821377,40.23268988049688 L-245.441150497094,40.26485907023016 M-245.441150497094,40.26485907023016 L-245.43011151100995,40.2965613665329 M-245.43011151100995,40.2965613665329 L-245.4054944123875,40.325954543994726 M-245.4054944123875,40.325954543994726 L-245.36872787011418,40.351329068499865 M-245.36872787011418,40.351329068499865 L-245.3219490593458,40.371210171124574 M-245.3219490593458,40.371210171124574 L-245.26787609447842,40.384440868852835 M-245.26787609447842,40.384440868852835 L-245.2096535996743,40.39025218500399 M-245.2096535996743,40.39025218500399 L-245.1506658379559,40.38830563171064 M-245.1506658379559,40.38830563171064 L-245.09434335383685,40.378714672100614 M-245.09434335383685,40.378714672100614 L-245.04395986216537,40.36203693435857 M-245.04395986216537,40.36203693435857 L-245.00244489206398,40.33924277610538 M-245.00244489206398,40.33924277610538 L-244.97221065729684,40.31165752832629 M-244.97221065729684,40.31165752832629 L-244.95501410554607,40.28088549834024 M-244.95501410554607,40.28088549834024 L-244.9518528318972,40.248715071302286 M-244.9518528318972,40.248715071302286 L-244.96290937646847,40.21701641503648 M-244.96290937646847,40.21701641503648 L-244.98753886473673,40.187630921136076 M-244.98753886473673,40.187630921136076 L-245.02430995553618,40.162266273198384 M-244.74527151010886,36.50587129277932 L-244.65315693840796,36.56911959228199 M-244.65315693840796,36.56911959228199 L-244.59143821794942,36.64240038334225 M-244.59143821794942,36.64240038334225 L-244.5637085462024,36.721459060192956 M-244.5637085462024,36.721459060192956 L-244.5715897767799,36.801703077801335 M-244.5715897767799,36.801703077801335 L-244.61463343045534,36.878468312337475 M-244.61463343045534,36.878468312337475 L-244.690346376055,36.94729035842914 M-244.690346376055,36.94729035842914 L-244.79433330812117,37.0041646176324 M-244.79433330812117,37.0041646176324 L-244.92055082937327,37.04578020881752 M-244.92055082937327,37.04578020881752 L-245.06165889970885,37.06971377727348 M-245.06165889970885,37.06971377727348 L-245.2094485960837,37.07457130273116 M-245.2094485960837,37.07457130273116 L-245.35532094106566,37.06006955858652 M-245.35532094106566,37.06006955858652 L-245.49078908838487,37.02705376551603 M-245.49078908838487,37.02705376551603 L-245.6079735629803,36.97744662261357 M-245.6079735629803,36.97744662261357 L-245.70006047414472,36.914136142706184 M-245.70006047414472,36.914136142706184 L-245.76170162759865,36.8408072568634 M-245.76170162759865,36.8408072568634 L-245.78932096658457,36.76172592786628 M-245.78932096658457,36.76172592786628 L-245.78132245851657,36.68148959575626 M-245.78132245851657,36.68148959575626 L-245.73818113516927,36.604760793358196 M-245.73818113516927,36.604760793358196 L-245.66241258601212,36.53599553498367 M-245.66241258601212,36.53599553498367 L-245.558424854765,36.479185409695674 M-245.558424854765,36.479185409695674 L-245.43226152179795,36.43762660622525 M-245.43226152179795,36.43762660622525 L-245.29125021317986,36.41372946994761 M-245.29125021317986,36.41372946994761 L-245.14357760165467,36.40887971993851 M-245.14357760165467,36.40887971993851 L-244.99781615622987,36.4233586316829 M-244.99781615622987,36.4233586316829 L-244.86242677228847,36.45632650982964 M-244.86242677228847,36.45632650982964 L-244.74527151010886,36.50587129277932 M-244.742823108111,36.092702624935896 L-244.65068741041569,36.15593379451991 M-244.65068741041569,36.15593379451991 L-244.5889544407761,36.22919474124188 M-244.5889544407761,36.22919474124188 L-244.56121822770706,36.3082320124098 M-244.56121822770706,36.3082320124098 L-244.56910100945663,36.388454306897586 M-244.56910100945663,36.388454306897586 L-244.6121542211049,36.465198763367425 M-244.6121542211049,36.465198763367425 L-244.68788417982591,36.534002184122244 M-244.68788417982591,36.534002184122244 L-244.7918945936234,36.59086105338099 M-244.7918945936234,36.59086105338099 L-244.9181407005658,36.6324653846782 M-244.9181407005658,36.6324653846782 L-245.05928079713726,36.65639247788272 M-245.05928079713726,36.65639247788272 L-245.20710409529875,36.66124868917035 M-245.20710409529875,36.66124868917035 L-245.3530096602566,36.64675086841129 M-245.3530096602566,36.64675086841129 L-245.48850871084528,36.61374400805386 M-245.48850871084528,36.61374400805386 L-245.60571997298007,36.56415028792287 M-245.60571997298007,36.56415028792287 L-245.6978279977734,36.50085694061346 M-245.6978279977734,36.50085694061346 L-245.75948336523072,36.42754790121779 M-245.75948336523072,36.42754790121779 L-245.78710919546347,36.34848797886667 M-245.78710919546347,36.34848797886667 L-245.77910908284707,36.2682733695537 M-245.77910908284707,36.2682733695537 L-245.73595815700526,36.191565343640036 M-245.73595815700526,36.191565343640036 L-245.6601725692783,36.12281870813666 M-245.6601725692783,36.12281870813666 L-245.5561613557545,36.066023970008246 M-245.5561613557545,36.066023970008246 L-245.42996946158019,36.024476423960095 M-245.42996946158019,36.024476423960095 L-245.2889261706282,36.00058576135194 M-245.2889261706282,36.00058576135194 L-245.1412200105616,35.99573732516512 M-245.1412200105616,35.99573732516512 L-244.99542539562276,36.01021231453586 M-244.99542539562276,36.01021231453586 L-244.86000514440593,36.04317126202943 M-244.86000514440593,36.04317126202943 L-244.742823108111,36.092702624935896 M-244.742823108111,36.092702624935896 L-244.74527151010886,36.50587129277932" stroke="black"  stroke-width="4"  fill="red"/>
<path d="M-288.12515598044,37.95185365288796 L-291.63920878830413,39.82260161073532 M-291.63920878830413,39.82260161073532 L-292.12588627417324,15.377047770400623 M-288.56348841539796,13.536796551120858 L-292.12588627417324,15.377047770400623 M-288.12515598044,37.95185365288796 L-288.56348841539796,13.536796551120858 M-287.84160517274825,65.53420741926482 L-217.39418758404486,105.96422002925823 M-217.39418758404486,105.96422002925823 L-217.3051019880561,101.87886441299844 M-217.3051019880561,101.87886441299844 L-137.27808851346776,147.59533960884102 M-137.5677927169686,151.77685960575462 L-137.27808851346776,147.59533960884102 M-137.5677927169686,151.77685960575462 L290.3026950495931,397.33318811225286 M290.3026950495931,397.33318811225286 L291.99281678254397,392.8219430043763 M291.99281678254397,392.8219430043763 L434.8821977407265,474.4493655046341 M432.6047768954527,479.00083698259255 L434.8821977407265,474.4493655046341 M432.6047768954527,479.00083698259255 L1002.3917192392073,806.0035015580725 M1002.3917192392073,806.0035015580725 L1033.968901431581,779.6900559783326 M1033.968901431581,779.6900559783326 L1045.9983295283628,786.4040933132337 M1045.9983295283628,786.4040933132337 L1079.658206782068,758.788011301679 M-292.12588627417324,15.377047770400623 L1079.658206782068,758.788011301679 M-291.63920878830413,39.82260161073532 L-288.27229720028777,41.70179070629172 M-287.84160517274825,65.53420741926482 L-288.27229720028777,41.70179070629172 M1046.9628653280843,779.6900720432673 L1034.980272361161,773.0328726548169 M1003.5088251803995,799.4000048883288 L1034.980272361161,773.0328726548169 M1003.5088251803995,799.4000048883288 L435.3675705298433,474.8184103451065 M435.3675705298433,474.8184103451065 L437.6465924752231,470.2681562360377 M437.6465924752231,470.2681562360377 L295.0208264391026,389.16114482883677 M293.3265874555676,393.6697727495281 L295.0208264391026,389.16114482883677 M293.3265874555676,393.6697727495281 L-134.12034836565,149.46746060305327 M-134.12034836565,149.46746060305327 L-133.82290718987235,145.29052760429437 M-133.82290718987235,145.29052760429437 L-213.8308773483907,99.79238565797499 M-213.92783657312157,103.87309200751235 L-213.8308773483907,99.79238565797499 M-213.92783657312157,103.87309200751235 L-284.374285029358,63.6267265435294 M-284.374285029358,63.6267265435294 L-284.75791316320306,39.822601235281184 M-284.75791316320306,39.822601235281184 L-288.12515598044,37.95185365288796 M1080.500814362482,752.0215207429394 L-288.56348841539796,13.536796551120858 M1046.9628653280843,779.6900720432673 L1080.500814362482,752.0215207429394 M-287.84160517274825,65.53420741926482 L-284.374285029358,63.6267265435294 M-288.27229720028777,41.70179070629172 L-284.75791316320306,39.822601235281184 M-213.92783657312157,103.87309200751235 L-217.39418758404486,105.96422002925823 M-213.8308773483907,99.79238565797499 L-217.3051019880561,101.87886441299844 M-137.5677927169686,151.77685960575462 L-134.12034836565,149.46746060305327 M-137.27808851346776,147.59533960884102 L-133.82290718987235,145.29052760429437 M293.3265874555676,393.6697727495281 L290.3026950495931,397.33318811225286 M295.0208264391026,389.16114482883677 L291.99281678254397,392.8219430043763 M432.6047768954527,479.00083698259255 L435.3675705298433,474.8184103451065 M434.8821977407265,474.4493655046341 L437.6465924752231,470.2681562360377 M1003.5088251803995,799.4000048883288 L1002.3917192392073,806.0035015580725 M1034.980272361161,773.0328726548169 L1033.968901431581,779.6900559783326 M1045.9983295283628,786.4040933132337 L1046.9628653280843,779.6900720432673 M1079.658206782068,758.788011301679 L1080.500814362482,752.0215207429394" stroke="black"  stroke-width="4"  fill="red"/></svg>