<svg viewBox="0 0 800 800" xmlns="http://www.w3.org/2000/svg"><path d="M634.1144009829586,262.07173264846097 L634.1156803231715,262.01600777286694 M165.85790236710454,537.9667711037127 L165.85917667960166,537.9110431223344 M634.1144009829586,262.07173264846097 L686.4006809923158,299.08938866698736 M686.4006809923158,299.08938866698736 L722.0427201132698,341.9721402230789 M722.0427201132698,341.9721402230789 L738.9684654890734,388.23471081929165 M738.9684654890734,388.23471081929165 L736.1929205717315,435.1788995773477 M736.1929205717315,435.1788995773477 L713.8857491747331,480.0787444412854 M713.8857491747331,480.0787444412854 L673.3308129600773,520.329995320084 M673.3308129600773,520.329995320084 L616.8852675683302,553.5912508968868 M616.8852675683302,553.5912508968868 L547.8357866896549,577.9251567201682 M547.8357866896549,577.9251567201682 L470.1985102600156,591.9164723787035 M470.1985102600156,591.9164723787035 L388.4770047302882,594.7585432992564 M388.4770047302882,594.7585432992564 L307.4173757339595,586.280770118985 M307.4173757339595,586.280770118985 L231.74864170816727,566.9759983258773 M231.74864170816727,566.9759983258773 L165.85790236710454,537.9667711037127 M634.1156803231715,262.01600777286694 L686.4019609286042,299.03366337464286 M686.4019609286042,299.03366337464286 L722.0440004649136,341.9164144479728 M722.0440004649136,341.9164144479728 L738.9697460512689,388.1789845233816 M738.9697460512689,388.1789845233816 L736.1942011273059,435.12317275298483 M736.1942011273059,435.12317275298483 L713.8870295070519,480.0230171115072 M713.8870295070519,480.0230171115072 L673.3320928653411,520.2742675372301 M673.3320928653411,520.2742675372301 L616.8865468675795,553.535522739643 M616.8865468675795,553.535522739643 L547.8370652391459,577.8694282890356 M547.8370652391459,577.8694282890356 L470.19978795960196,591.8607437900919 M470.19978795960196,591.8607437900919 L388.47828152924194,594.702814678647 M388.47828152924194,594.702814678647 L307.4186516337213,586.2250415938015 M307.4186516337213,586.2250415938015 L231.74991676278296,566.9202700179776 M231.74991676278296,566.9202700179776 L165.85917667960166,537.9110431223344 M165.85790236710454,537.9667711037127 L113.57433554998715,500.9420388917097 M113.57433554998715,500.9420388917097 L77.94046974298544,458.0538322899556 M77.94046974298544,458.0538322899556 L61.030253948731115,411.79078205202495 M61.030253948731115,411.79078205202495 L63.81468622600369,364.84536694879716 M63.81468622600369,364.84536694879716 L86.13250600927859,319.9496618527046 M86.13250600927859,319.9496618527046 L126.69364613713697,279.70486414745756 M126.69364613713697,279.70486414745756 L183.13952883517777,246.45089704111342 M183.13952883517777,246.45089704111342 L252.18340310409258,222.12344449753618 M252.18340310409258,222.12344449753618 L329.8104142999364,208.13626818060766 M329.8104142999364,208.13626818060766 L411.5231137979572,205.29718093713745 M411.5231137979572,205.29718093713745 L492.5669740263402,213.77026545052468 M492.5669740263402,213.77026545052468 L568.2270298156363,233.0695819883731 M568.2270298156363,233.0695819883731 L634.1144009829586,262.07173264846097 M165.85917667960166,537.9110431223344 L113.57560926646693,500.8863113270854 M113.57560926646693,500.8863113270854 L77.94174304428452,457.99810520810024 M77.94174304428452,457.99810520810024 L61.03152703976957,411.7350554909426 M61.03152703976957,411.7350554909426 L63.81595932388154,364.7896409161931 M63.81595932388154,364.7896409161931 L86.1337793306302,319.8939363255213 M86.1337793306302,319.8939363255213 L126.6949198856455,279.64913907334994 M126.6949198856455,279.64913907334994 L183.14080318980268,246.39517234138475 M183.14080318980268,246.39517234138475 L252.1846782083594,222.06772007170548 M252.1846782083594,222.06772007170548 L329.81169025386043,208.08054391225596 M329.81169025386043,208.08054391225596 L411.52439065232466,205.2414567007454 M411.52439065232466,205.2414567007454 L492.5682517795067,213.7145411187339 M492.5682517795067,213.7145411187339 L568.2283084137889,233.01385743930223 M568.2283084137889,233.01385743930223 L634.1156803231715,262.01600777286694" stroke="black"  stroke-width="4"  fill="red"/></svg>