<svg viewBox="0 0 800 800" xmlns="http://www.w3.org/2000/svg"><path d="M640.7259790802418,258.71448056470945 L640.726519148091,258.65841919836384 M159.2536164625708,541.328064935431 L159.25415121159313,541.272000463181 M640.7259790802418,258.71448056470945 L692.6313296149383,296.6340789647347 M692.6313296149383,296.6340789647347 L727.5296406739217,340.5621477448731 M727.5296406739217,340.5621477448731 L743.3953599066008,387.94642876537 M743.3953599066008,387.94642876537 L739.3065441726358,436.03541638375646 M739.3065441726358,436.03541638375646 L715.49637379856,482.03137511152454 M715.49637379856,482.03137511152454 L673.349344925984,523.2628571864207 M673.349344925984,523.2628571864207 L615.3142772303545,557.331973598124 M615.3142772303545,557.331973598124 L544.763282628548,582.2584942674894 M544.763282628548,582.2584942674894 L465.7989186289269,596.5932451892568 M465.7989186289269,596.5932451892568 L383.0076887608302,599.5018355209231 M383.0076887608302,599.5018355209231 L301.20725497280364,590.8170580089172 M301.20725497280364,590.8170580089172 L225.14903200596746,571.043224351044 M225.14903200596746,571.043224351044 L159.2536164625708,541.328064935431 M640.726519148091,258.65841919836384 L692.6318702707358,296.5780171816132 M692.6318702707358,296.5780171816132 L727.5301817289655,340.50608547895536 M727.5301817289655,340.50608547895536 L743.3959011490224,387.8903659786829 M743.3959011490224,387.8903659786829 L739.3070853796744,435.97935306858017 M739.3070853796744,435.97935306858017 L715.4969147494339,481.97531129088384 M715.4969147494339,481.97531129088384 L673.3498854147911,523.2067929126824 M673.3498854147911,523.2067929126824 L615.3148170780478,557.2759089500105 M615.3148170780478,557.2759089500105 L544.7638216933337,582.2024293454742 M544.7638216933337,582.2024293454742 L465.7994568145223,596.5371801097263 M465.7994568145223,596.5371801097263 L383.00822602207336,599.4457704094311 M383.00822602207336,599.4457704094311 L301.20779131827294,590.7609929928585 M301.20779131827294,590.7609929928585 L225.14956749748671,570.9871595522654 M225.14956749748671,570.9871595522654 L159.25415121159313,541.272000463181 M159.2536164625708,541.328064935431 L107.35124134459329,503.401130209284 M107.35124134459329,503.401130209284 L72.46145404389245,459.4674058509536 M72.46145404389245,459.4674058509536 L56.60409885097761,412.078289298388 M56.60409885097761,412.078289298388 L60.70960842206114,363.9923685914109 M60.70960842206114,363.9923685914109 L84.5305723569254,318.0007019966124 M84.5305723569254,318.0007019966124 L126.68377742254233,276.77591031459815 M126.68377742254233,276.77591031459815 L184.7189887975619,242.71434974065596 M184.7189887975619,242.71434974065596 L255.26406165094522,217.7945194614549 M255.26406165094522,217.7945194614549 L334.2177953280043,203.4640608121008 M334.2177953280043,203.4640608121008 L416.99236599852884,200.55422520615866 M416.99236599852884,200.55422520615866 L498.7843338437524,209.2384793551446 M498.7843338437524,209.2384793551446 L574.8338179666462,229.00665762350036 M574.8338179666462,229.00665762350036 L640.7259790802418,258.71448056470945 M159.25415121159313,541.272000463181 L107.35177550574008,503.3450661538045 M107.35177550574008,503.3450661538045 L72.46198780596751,459.41134227827024 M72.46198780596751,459.41134227827024 L56.604632425907766,412.0222262464922 M56.604632425907766,412.0222262464922 L60.71014203270897,363.93630606798433 M60.71014203270897,363.93630606798433 L84.53110622397799,317.94463997865387 M84.53110622397799,317.94463997865387 L126.6843117518074,276.7198487497353 M126.6843117518074,276.7198487497353 L184.71952376794798,242.65828855017207 M184.71952376794798,242.65828855017207 L255.26459740410792,217.73845854487445 M255.26459740410792,217.73845854487445 L334.21833196010994,203.40800005303754 M334.21833196010994,203.40800005303754 L416.9929035546811,200.49816447907688 M416.9929035546811,200.49816447907688 L498.78487231542385,209.18241853260952 M498.78487231542385,209.18241853260952 L574.8343572920712,228.95059658368336 M574.8343572920712,228.95059658368336 L640.726519148091,258.65841919836384" stroke="black"  stroke-width="4"  fill="red"/></svg>