<svg viewBox="0 0 800 800" xmlns="http://www.w3.org/2000/svg"><path d="M265.5973484057404,247.5530597477981 L207.51794337144634,278.5058228638288 M207.51794587841414,252.45264593156986 L207.51794337144634,278.5058228638288 M207.51794587841414,252.45264593156986 L207.51729543315497,252.2218570752962 M207.51729543315497,252.2218570752962 L207.51690515466566,251.9908784961114 M207.51690515466566,251.9908784961114 L207.51677505845407,251.75979608184406 M265.72455960110796,220.89237305394448 L207.51677505845407,251.75979608184406 M265.5973484057404,247.5530597477981 L265.72455960110796,220.89237305394448 M827.4391606863376,608.8857596203517 L802.4324493553243,595.5587182523965 M525.7341725203421,761.4319566089478 L802.4324493553243,595.5587182523965 M525.7341725203421,761.4319566089478 L356.59774879498764,666.218075789889 M333.03801416377325,679.8772079373513 L356.59774879498764,666.218075789889 M274.6751993779655,646.8690903138249 L333.03801416377325,679.8772079373513 M298.2378346326899,633.3648689567912 L274.6751993779655,646.8690903138249 M298.2378346326899,633.3648689567912 L48.45205073741619,492.75013125417166 M24.894691717758235,505.6013257762386 L48.45205073741619,492.75013125417166 M-30.021468006604437,474.5425246154879 L24.894691717758235,505.6013257762386 M-6.469115171355156,461.8327378855332 L-30.021468006604437,474.5425246154879 M-6.469115171355156,461.8327378855332 L-47.40219382442194,438.7898167536609 M229.82333545354624,290.39322697193876 L-47.40219382442194,438.7898167536609 M229.82333545354624,290.39322697193876 L207.51794337144634,278.5058228638288 M885.2805448163997,574.0390758484795 L265.5973484057404,247.5530597477981 M827.4391606863376,608.8857596203517 L885.2805448163997,574.0390758484795 M248.94234805742752,268.2679264946181 L248.62840321532167,268.13751196269584 M248.62840321532167,268.13751196269584 L248.26522411316506,268.05072683056187 M248.26522411316506,268.05072683056187 L247.87390937284403,268.0126116754677 M247.87390937284403,268.0126116754677 L247.47719298543393,268.02537778792265 M247.47719298543393,268.02537778792265 L247.09811637219377,268.08828710239453 M247.09811637219377,268.08828710239453 L246.7587039959841,268.19768393543325 M246.7587039959841,268.19768393543325 L246.47867430426243,268.3472170269239 M246.47867430426243,268.3472170269239 L246.27430287879383,268.5282012452657 M246.27430287879383,268.5282012452657 L246.15746973152085,268.73012463727054 M246.15746973152085,268.73012463727054 L246.134979371516,268.9412539032727 M246.134979371516,268.9412539032727 L246.20814386352345,269.149321500478 M246.20814386352345,269.149321500478 L246.37272470042677,269.34223189192323 M246.37272470042677,269.34223189192323 L246.61916182978626,269.50876983164494 M246.61916182978626,269.50876983164494 L246.9331390573965,269.63925137288936 M246.9331390573965,269.63925137288936 L247.29640380943255,269.7260877074463 M247.29640380943255,269.7260877074463 L247.68783895989225,269.7642271193191 M247.68783895989225,269.7642271193191 L248.08468293240617,269.7514527621431 M248.08468293240617,269.7514527621431 L248.46386507827555,269.68850458831 M248.46386507827555,269.68850458831 L248.80333675784283,269.57904718525384 M248.80333675784283,269.57904718525384 L249.08336593823918,269.42944568817603 M249.08336593823918,269.42944568817603 L249.28767715484094,269.2484008998374 M249.28767715484094,269.2484008998374 L249.40440418855172,269.0464386490106 M249.40440418855172,269.0464386490106 L249.42676684019466,268.83530113766346 M249.42676684019466,268.83530113766346 L249.35348230068547,268.6272577974169 M249.35348230068547,268.6272577974169 L249.18881657936504,268.4343986082056 M249.18881657936504,268.4343986082056 L248.94234805742752,268.2679264946181 M845.0909613376598,584.0837039312084 L844.7433218534718,583.937544381468 M844.7433218534718,583.937544381468 L844.3486855087322,583.8402869419436 M844.3486855087322,583.8402869419436 L843.9299668932481,583.7975743717943 M843.9299668932481,583.7975743717943 L843.5114588866713,583.8118675065831 M843.5114588866713,583.8118675065831 L843.1175280830919,583.8823717195205 M843.1175280830919,583.8823717195205 L842.7710489990209,584.0049836519149 M842.7710489990209,584.0049836519149 L842.4921169047179,584.1725671695128 M842.4921169047179,584.1725671695128 L842.2969443185193,584.3753891243548 M842.2969443185193,584.3753891243548 L842.1969118279953,584.6016875068074 M842.1969118279953,584.6016875068074 L842.1978615643643,584.8383194177704 M842.1978615643643,584.8383194177704 L842.2996848281553,585.07150386178 M842.2996848281553,585.07150386178 L842.496510754612,585.2877021021154 M842.496510754612,585.2877021021154 L842.7769164567708,585.4743504945785 M842.7769164567708,585.4743504945785 L843.1245992235708,585.6205888469514 M843.1245992235708,585.6205888469514 L843.5193379082182,585.7179070336044 M843.5193379082182,585.7179070336044 L843.938194476943,585.760648380915 M843.938194476943,585.760648380915 L844.3568044050851,585.7463242468795 M844.3568044050851,585.7463242468795 L844.7508486607505,585.6757739284383 M844.7508486607505,585.6757739284383 L845.0974267413014,585.5531113528435 M845.0974267413014,585.5531113528435 L845.3763497778907,585.385446675579 M845.3763497778907,585.385446675579 L845.5714073272604,585.182531637884 M845.5714073272604,585.182531637884 L845.6713160748373,584.9561871518862 M845.6713160748373,584.9561871518862 L845.67026223371,584.7195666781125 M845.67026223371,584.7195666781125 L845.5683074402361,584.4864110138147 M845.5683074402361,584.4864110138147 L845.3713927331551,584.2702735213768 M845.3713927331551,584.2702735213768 L845.0909613376598,584.0837039312084 M229.87130657570333,264.3080979042903 L207.51794587841414,252.45264593156986 M229.87130657570333,264.3080979042903 L229.82333545354624,290.39322697193876 M229.87141257287084,263.6143969434731 L229.87111707478857,263.8457636839929 M229.87111707478857,263.8457636839929 L229.87108169486243,264.0770260021233 M229.87108169486243,264.0770260021233 L229.87130657570333,264.3080979042903 M207.51677505845407,251.75979608184406 L229.87141257287084,263.6143969434731 M803.8190133409471,567.9771815427389 L828.8874380047981,581.2708960316504 M828.8874380047981,581.2708960316504 L886.8555625395024,546.5109676816527 M886.8555625395024,546.5109676816527 L265.72455960110796,220.89237305394448 M229.87141257287084,263.6143969434731 L-47.9804773344693,411.61051291047033 M-47.9804773344693,411.61051291047033 L-6.956559684326862,434.5929540755908 M-6.956559684326862,434.5929540755908 L-30.563798481311096,447.26956689659875 M-30.563798481311096,447.26956689659875 L24.475420908166654,478.2478548059811 M24.475420908166654,478.2478548059811 L48.087700309990794,465.42987895403684 M48.087700309990794,465.42987895403684 L298.4508588665522,605.6884620203942 M298.4508588665522,605.6884620203942 L274.83326680105375,619.1593269611501 M274.83326680105375,619.1593269611501 L333.33514288786046,652.0865374259588 M333.33514288786046,652.0865374259588 L356.94981376127544,638.4607779302168 M356.94981376127544,638.4607779302168 L526.4980654108307,733.4451904725771 M803.8190133409471,567.9771815427389 L526.4980654108307,733.4451904725771 M250.77893219626037,240.62194722806666 L251.39652288417795,241.0368482326666 M251.39652288417795,241.0368482326666 L251.80925871135202,241.51756374029355 M251.80925871135202,241.51756374029355 L251.99310953935287,242.03618433499446 M251.99310953935287,242.03618433499446 L251.93732453495124,242.5625810813653 M251.93732453495124,242.5625810813653 L251.6450782185932,243.06615867304944 M251.6450782185932,243.06615867304944 L251.13329753212707,243.5176304287499 M251.13329753212707,243.5176304287499 L250.43169230895228,243.8907257357727 M250.43169230895228,243.8907257357727 L249.58103784889113,244.16372464206086 M249.58103784889113,244.16372464206086 L248.63080362069928,244.32072940611073 M248.63080362069928,244.32072940611073 L247.6362701684139,244.35259490302263 M247.6362701684139,244.35259490302263 L246.6553021568991,244.25746427187235 M246.6553021568991,244.25746427187235 L245.74497751625734,244.04088001933036 M245.74497751625734,244.04088001933036 L244.95824570634005,243.71545551065952 M244.95824570634005,243.71545551065952 L244.34084618736597,243.30014022565084 M244.34084618736597,243.30014022565084 L243.92864210059355,242.81910429901114 M243.92864210059355,242.81910429901114 L243.74554598858828,242.30033277632901 M243.74554598858828,242.30033277632901 L243.80213212692837,241.77398723861094 M243.80213212692837,241.77398723861094 L244.09504457620437,241.27065237325775 M244.09504457620437,241.27065237325775 L244.60720323229367,240.81955896137617 M244.60720323229367,240.81955896137617 L245.3088116724365,240.44689094165471 M245.3088116724365,240.44689094165471 L246.1590938597961,240.1742703791712 M246.1590938597961,240.1742703791712 L247.10866560983607,240.01750834172245 M247.10866560983607,240.01750834172245 L248.10239870356418,239.98569464353267 M248.10239870356418,239.98569464353267 L249.08260971752873,240.08067316662027 M249.08260971752873,240.08067316662027 L249.9923978020147,240.29693818023932 M249.9923978020147,240.29693818023932 L250.77893219626037,240.62194722806666 M848.3137645080712,555.4903684836131 L849.0166462182967,555.9554708004638 M849.0166462182967,555.9554708004638 L849.5103861467944,556.4943421343794 M849.5103861467944,556.4943421343794 L849.766287647265,557.0757211383594 M849.766287647265,557.0757211383594 L849.7693912735665,557.6658260065872 M849.7693912735665,557.6658260065872 L849.5194020561369,558.2303380137434 M849.5194020561369,558.2303380137434 L849.0308754048165,558.7364747766248 M849.0308754048165,558.7364747766248 L848.3320706792124,559.1547346955608 M848.3320706792124,559.1547346955608 L847.4635958118902,559.4607661195981 M847.4635958118902,559.4607661195981 L846.4760468067122,559.6367935502929 M846.4760468067122,559.6367935502929 L845.4267832833457,559.672513010773 M845.4267832833457,559.672513010773 L844.3768966260011,559.5658630621475 M844.3768966260011,559.5658630621475 L843.3874946323301,559.3230660326718 M843.3874946323301,559.3230660326718 L842.516088189531,558.9582409573482 M842.516088189531,558.9582409573482 L841.8133676814489,558.4926462216263 M841.8133676814489,558.4926462216263 L841.3201851209137,557.9533952859265 M841.3201851209137,557.9533952859265 L841.0651094804907,557.3718364423836 M841.0651094804907,557.3718364423836 L841.0629110090445,556.7817927054211 M841.0629110090445,556.7817927054211 L841.3136371552646,556.2175476248996 M841.3136371552646,556.2175476248996 L841.8026749604826,555.7118810951289 M841.8026749604826,555.7118810951289 L842.5015366935593,555.2941283295272 M842.5015366935593,555.2941283295272 L843.3696013614558,554.988524790176 M843.3696013614558,554.988524790176 L844.3564782058259,554.8128066270011 M844.3564782058259,554.8128066270011 L845.4048503164538,554.7771482903023 M845.4048503164538,554.7771482903023 L846.4538706830358,554.8836183968867 M846.4538706830358,554.8836183968867 L847.4426299699667,555.1260358308749 M847.4426299699667,555.1260358308749 L848.3137645080712,555.4903684836131 M885.2805448163997,574.0390758484795 L886.8555625395024,546.5109676816527 M828.8510192494995,581.9862901189932 L803.7841953918426,568.6917108216113 M828.8510192494995,581.9862901189932 L827.4391606863376,608.8857596203517 M803.7841953918426,568.6917108216113 L802.4324493553243,595.5587182523965 M803.7841953918426,568.6917108216113 L803.7955408798219,568.4537134776999 M803.7955408798219,568.4537134776999 L803.8071483431678,568.2155075240906 M803.8071483431678,568.2155075240906 L803.8190133409471,567.9771815427389 M525.7341725203421,761.4319566089478 L526.4980654108307,733.4451904725771 M356.59774879498764,666.218075789889 L356.94981376127544,638.4607779302168 M333.03801416377325,679.8772079373513 L333.33514288786046,652.0865374259588 M274.6751993779655,646.8690903138249 L274.83326680105375,619.1593269611501 M298.2378346326899,633.3648689567912 L298.4508588665522,605.6884620203942 M48.45205073741619,492.75013125417166 L48.087700309990794,465.42987895403684 M24.894691717758235,505.6013257762386 L24.475420908166654,478.2478548059811 M-30.021468006604437,474.5425246154879 L-30.563798481311096,447.26956689659875 M-6.469115171355156,461.8327378855332 L-6.956559684326862,434.5929540755908 M-47.40219382442194,438.7898167536609 L-47.9804773344693,411.61051291047033 M828.8874380047981,581.2708960316504 L828.8750394927981,581.5095110229868 M828.8750394927981,581.5095110229868 L828.8628983613169,581.7480052819191 M828.8628983613169,581.7480052819191 L828.8510192494995,581.9862901189932 M248.94234805742752,268.2679264946181 L249.02385025483318,244.36021645496066 M249.02385025483318,244.36021645496066 L249.27080622709747,244.52627569711754 M249.27080622709747,244.52627569711754 L249.43579888102386,244.71865659693856 M249.43579888102386,244.71865659693856 L249.50923080413196,244.9261840216025 M249.50923080413196,244.9261840216025 L249.48682738773573,245.1367979765465 M249.48682738773573,245.1367979765465 L249.36987375539996,245.3382594532089 M249.36987375539996,245.3382594532089 L249.16516325043375,245.51885535840552 M249.16516325043375,245.51885535840552 L248.88458527193308,245.66808595098274 M248.88458527193308,245.66808595098274 L248.54444718081538,245.77727198845471 M248.54444718081538,245.77727198845471 L248.16451975554622,245.84006410582515 M248.16451975554622,245.84006410582515 L247.76689498993215,245.85280679411085 M247.76689498993215,245.85280679411085 L247.37468894587653,245.81476193395065 M247.37468894587653,245.81476193395065 L247.01070804675606,245.72814087998103 M247.01070804675606,245.72814087998103 L246.69611106377306,245.59798283281503 M246.69611106377306,245.59798283281503 L246.4491866045749,245.4318577973915 M246.4491866045749,245.4318577973915 L246.28427916868634,245.239425721805 M246.28427916868634,245.239425721805 L246.2109677656128,245.03187405272215 M246.2109677656128,245.03187405272215 L246.23349939356137,244.82126833886045 M246.23349939356137,244.82126833886045 L246.35055955803568,244.61984570093256 M246.35055955803568,244.61984570093256 L246.5553305099379,244.43931033442078 M246.5553305099379,244.43931033442078 L246.83590900278818,244.29014811206895 M246.83590900278818,244.29014811206895 L247.17598755783473,244.18102261330293 M247.17598755783473,244.18102261330293 L247.5558090353344,244.11826933520547 M247.5558090353344,244.11826933520547 L247.9533057133832,244.10553488737855 M247.9533057133832,244.10553488737855 L248.3453908726226,244.14355550329924 M248.3453908726226,244.14355550329924 L248.70928578371553,244.23012538131545 M248.70928578371553,244.23012538131545 L249.02385025483318,244.36021645496066 M845.0909613376598,584.0837039312084 L846.4190546732764,559.4290601913768 M846.4190546732764,559.4290601913768 L846.700113785512,559.615210014804 M846.700113785512,559.615210014804 L846.8974891741768,559.830861246799 M846.8974891741768,559.830861246799 L846.9997108293146,560.0634924018033 M846.9997108293146,560.0634924018033 L847.0008221460346,560.2995806123317 M847.0008221460346,560.2995806123317 L846.900758123671,560.5254159884856 M846.900758123671,560.5254159884856 L846.705341566779,560.72787464724 M846.705341566779,560.72787464724 L846.4258765243096,560.8951622502718 M846.4258765243096,560.8951622502718 L846.0786049364472,561.0175489733682 M846.0786049364472,561.0175489733682 L845.6837560889587,561.087940638104 M845.6837560889587,561.087940638104 L845.2642772616391,561.1022325604397 M845.2642772616391,561.1022325604397 L844.8445379885313,561.0595873290818 M844.8445379885313,561.0595873290818 L844.4489541656408,560.9624879947384 M844.4489541656408,560.9624879947384 L844.1005129558644,560.8165785209211 M844.1005129558644,560.8165785209211 L843.8194796257321,560.6303499086644 M843.8194796257321,560.6303499086644 L843.6221933738063,560.4146379391518 M843.6221933738063,560.4146379391518 L843.5201037902334,560.1819780093535 M843.5201037902334,560.1819780093535 L843.519097093427,559.9458784076971 M843.519097093427,559.9458784076971 L843.6192853856253,559.7200891272107 M843.6192853856253,559.7200891272107 L843.8148173972777,559.5177234912969 M843.8148173972777,559.5177234912969 L844.0942915541887,559.3505170340638 M844.0942915541887,559.3505170340638 L844.4414638280989,559.2281809896215 M844.4414638280989,559.2281809896215 L844.8361987610642,559.1578354225112 M844.8361987610642,559.1578354225112 L845.2555751653365,559.1435744500181 M845.2555751653365,559.1435744500181 L845.6751759030917,559.186190909132 M845.6751759030917,559.186190909132 L846.0706569450392,559.2832295067267 M846.0706569450392,559.2832295067267 L846.4190546732764,559.4290601913768 M250.77893219626037,240.62194722806666 L250.76894968698002,243.432266531954 M250.76894968698002,243.432266531954 L251.3863970853688,243.8472893489827 M251.3863970853688,243.8472893489827 L251.79903675191952,244.3281459732337 M251.79903675191952,244.3281459732337 L251.98284415717194,244.84691878947552 M251.98284415717194,244.84691878947552 L251.9270710215569,245.37347001608833 M251.9270710215569,245.37347001608833 L251.63489120715366,245.87719536899615 M251.63489120715366,245.87719536899615 L251.12322781739215,246.32879957829917 M251.12322781739215,246.32879957829917 L250.42178388396837,246.70200433144774 M250.42178388396837,246.70200433144774 L249.5713253331482,246.97508331335584 M249.5713253331482,246.97508331335584 L248.62131023336082,247.13213412689402 M248.62131023336082,247.13213412689402 L247.62700636763503,247.16400896969478 M247.62700636763503,247.16400896969478 L246.64626502705073,247.06885043725077 M246.64626502705073,247.06885043725077 L245.73615093785253,246.85220265882396 M245.73615093785253,246.85220265882396 L244.94960130242993,246.5266826929572 M244.94960130242993,246.5266826929572 L244.33234498572472,246.11124556972206 M244.33234498572472,246.11124556972206 L243.9202368144388,245.63006850626402 M243.9202368144388,245.63006850626402 L243.7371837773489,245.1111447527291 M243.7371837773489,245.1111447527291 L243.79375767690584,244.5846447379065 M243.79375767690584,244.5846447379065 L244.08660331633894,244.08116212652405 M244.08660331633894,244.08116212652405 L244.59864450060735,243.62993628472407 M244.59864450060735,243.62993628472407 L245.30009164877208,243.25715884562504 M245.30009164877208,243.25715884562504 L246.15017809806318,242.9844582312056 M246.15017809806318,242.9844582312056 L247.09953102505648,242.8276501594633 M247.09953102505648,242.8276501594633 L248.09303490168503,242.79582711869526 M248.09303490168503,242.79582711869526 L249.07301959413172,242.89083353341854 M249.07301959413172,242.89083353341854 L249.98259737564467,243.10716205307463 M249.98259737564467,243.10716205307463 L250.76894968698002,243.432266531954 M848.3137645080712,555.4903684836131 L848.157217534145,558.3888663440647 M848.157217534145,558.3888663440647 L848.8599146850236,558.8540925949289 M848.8599146850236,558.8540925949289 L849.3535190889302,559.393107496499 M849.3535190889302,559.393107496499 L849.6093419863921,559.9746413650961 M849.6093419863921,559.9746413650961 L849.6124285378128,560.5649033925131 M849.6124285378128,560.5649033925131 L849.3624848135366,561.1295657147857 M849.3624848135366,561.1295657147857 L848.8740635884769,561.6358372256066 M848.8740635884769,561.6358372256066 L848.1754181397787,562.0542084805239 M848.1754181397787,562.0542084805239 L847.3071471468252,562.3603213570601 M847.3071471468252,562.3603213570601 L846.3198347268731,562.5363956350861 M846.3198347268731,562.5363956350861 L845.2708267453631,562.5721246014941 M845.2708267453631,562.5721246014941 L844.2211996889216,562.4654462700672 M844.2211996889216,562.4654462700672 L843.2320462268208,562.2225846212483 M843.2320462268208,562.2225846212483 L842.3608627862886,561.8576624398145 M842.3608627862886,561.8576624398145 L841.6583267722949,561.3919437592967 M841.6583267722949,561.3919437592967 L841.1652794743927,560.8525492476305 M841.1652794743927,560.8525492476305 L840.9102820383264,560.2708355355326 M840.9102820383264,560.2708355355326 L840.9081001977422,559.6806346407195 M840.9081001977422,559.6806346407195 L841.158780473542,559.1162392457527 M841.158780473542,559.1162392457527 L841.6477125996005,558.6104379835127 M841.6477125996005,558.6104379835127 L842.3464150139878,558.1925738930347 M842.3464150139878,558.1925738930347 L843.2142759864207,557.88688890538 M843.2142759864207,557.88688890538 L844.2009165753598,557.7111239068195 M844.2009165753598,557.7111239068195 L845.2490335780776,557.6754560655313 M845.2490335780776,557.6754560655313 L846.2977947720428,557.7819545509792 M846.2977947720428,557.7819545509792 L847.2863058519106,558.0244365959987 M847.2863058519106,558.0244365959987 L848.157217534145,558.3888663440647" stroke="black"  stroke-width="4"  fill="red"/>
<path d="M827.4391606863376,608.8857596203517 L527.2656157343807,789.7260481947444 M827.4391606863376,608.8857596203517 L802.4324493553243,595.5587182523965 M502.19168924230917,775.5450475358247 L802.4324493553243,595.5587182523965 M527.2656157343807,789.7260481947444 L502.19168924230917,775.5450475358247 M828.8510192494995,581.9862901189932 L827.4391606863376,608.8857596203517 M863.5014343425769,456.5831482112915 L858.5654843948546,467.166768516846 M858.5654843948546,467.166768516846 L853.963896226195,477.83761319800936 M853.963896226195,477.83761319800936 L849.7108837986789,488.56210868023953 M849.7108837986789,488.56210868023953 L845.8194826254864,499.306510550459 M845.8194826254864,499.306510550459 L842.3015024444683,510.03708864365706 M842.3015024444683,510.03708864365706 L839.1674901637225,520.7201760456157 M839.1674901637225,520.7201760456157 L836.4266916124152,531.3224791028103 M836.4266916124152,531.3224791028103 L834.0870336581547,541.8109845648685 M834.0870336581547,541.8109845648685 L832.1550979573742,552.1531748004074 M832.1550979573742,552.1531748004074 L830.6361093160773,562.3171032559416 M830.6361093160773,562.3171032559416 L829.5339216018252,572.2715994123656 M829.5339216018252,572.2715994123656 L828.8510192494995,581.9862901189932 M864.2745086196139,454.99101693450905 L864.3686684843819,455.0558413489114 M864.3686684843819,455.0558413489114 L864.4348897373318,455.16310626371217 M864.4348897373318,455.16310626371217 L864.4693239188928,455.30665575653074 M864.4693239188928,455.30665575653074 L864.4699731699011,455.4781119592999 M864.4699731699011,455.4781119592999 L864.4368016688575,455.66750738321934 M864.4368016688575,455.66750738321934 L864.3717364418405,455.8638511247473 M864.3717364418405,455.8638511247473 L864.2785591498096,456.05575900590895 M864.2785591498096,456.05575900590895 L864.1626851811388,456.23201910343596 M864.1626851811388,456.23201910343596 L864.0308434410629,456.3824775476738 M864.0308434410629,456.3824775476738 L863.890697571841,456.49830472041435 M863.890697571841,456.49830472041435 L863.7503887408186,456.5727877897042 M863.7503887408186,456.5727877897042 L863.6180698962569,456.6016487892535 M863.6180698962569,456.6016487892535 L863.5014343425769,456.5831482112915 M899.3129201453962,328.78167954871 L898.5411302017897,338.75610737274314 M898.5411302017897,338.75610737274314 L897.3571059928083,348.9264411246853 M897.3571059928083,348.9264411246853 L895.7650594483953,359.2640395762872 M895.7650594483953,359.2640395762872 L893.7702612276321,369.7398272158339 M893.7702612276321,369.7398272158339 L891.3790124626535,380.324553217874 M891.3790124626535,380.324553217874 L888.5986138133396,390.988829704191 M888.5986138133396,390.988829704191 L885.4373729181009,401.70305941400903 M885.4373729181009,401.70305941400903 L881.9045405341981,412.4376681549076 M881.9045405341981,412.4376681549076 L878.0103057173576,423.1631702323501 M878.0103057173576,423.1631702323501 L873.7657656279891,433.8500300743424 M873.7657656279891,433.8500300743424 L869.1828962740576,444.4690052319482 M869.1828962740576,444.4690052319482 L864.2745086196139,454.99101693450905 M558.1688500421095,525.741300255287 L899.3129201453962,328.78167954871 M554.4475582347673,651.9687107420363 L558.1688500421095,525.741300255287 M530.6671983109446,666.000057370998 L554.4475582347673,651.9687107420363 M527.2656157343807,789.7260481947444 L530.6671983109446,666.000057370998 M828.8510192494995,581.9862901189932 L803.7841953918426,568.6917108216113 M803.7841953918426,568.6917108216113 L802.4324493553243,595.5587182523965 M502.19168924230917,775.5450475358247 L505.3189228244496,651.9687219536851 M529.1030773759906,638.0052910322969 L505.3189228244496,651.9687219536851 M529.1030773759906,638.0052910322969 L532.5440786252439,511.9372277777586 M873.7749605689969,315.92323666848796 L532.5440786252439,511.9372277777586 M873.7749605689969,315.92323666848796 L873.0251940043972,325.88430691671493 M873.0251940043972,325.88430691671493 L871.8629504688984,336.0402462050343 M871.8629504688984,336.0402462050343 L870.292380274296,346.362453101121 M870.292380274296,346.362453101121 L868.3186935807641,356.82189407155397 M868.3186935807641,356.82189407155397 L865.948132715778,367.389362132036 M865.948132715778,367.389362132036 L863.1879412783351,378.0355150481221 M863.1879412783351,378.0355150481221 L860.0463714413779,388.7308031556505 M860.0463714413779,388.7308031556505 L856.5326205304009,399.4457014640561 M856.5326205304009,399.4457014640561 L852.6568263461402,410.1507750583536 M852.6568263461402,410.1507750583536 L848.4300365905328,420.8165408800851 M848.4300365905328,420.8165408800851 L843.8641803502749,431.4138103332172 M843.8641803502749,431.4138103332172 L838.9720238137709,441.9135599596242 M838.2013538121437,443.50226007426835 L838.3182297506578,443.5209830343088 M838.3182297506578,443.5209830343088 L838.4507051037685,443.49243121099346 M838.4507051037685,443.49243121099346 L838.5910776099108,443.4183260603109 M838.5910776099108,443.4183260603109 L838.7311905013237,443.302923642941 M838.7311905013237,443.302923642941 L838.8629044854895,443.15291213463297 M838.8629044854895,443.15291213463297 L838.9785635368237,442.9770950820151 M838.9785635368237,442.9770950820151 L839.0714510357316,442.7856007257367 M839.0714510357316,442.7856007257367 L839.1361685698121,442.5896168954863 M839.1361685698121,442.5896168954863 L839.1689546217174,442.4005068885045 M839.1689546217174,442.4005068885045 L839.1679045319622,442.2292450452333 M839.1679045319622,442.2292450452333 L839.1330774250246,442.08578755288283 M839.1330774250246,442.08578755288283 L839.0664940769068,441.97850688366105 M839.0664940769068,441.97850688366105 L838.9720238137709,441.9135599596242 M803.7841953918426,568.6917108216113 L804.4456772256668,558.9891824262205 M804.4456772256668,558.9891824262205 L805.5265929617983,549.0480421193819 M805.5265929617983,549.0480421193819 L807.0245227205904,538.8986221135516 M807.0245227205904,538.8986221135516 L808.9356770558171,528.5720476271507 M808.9356770558171,528.5720476271507 L811.2548954230832,518.1002156071962 M811.2548954230832,518.1002156071962 L813.9756598361787,507.515590074588 M813.9756598361787,507.515590074588 L817.0901063658464,496.8511268251266 M817.0901063658464,496.8511268251266 L820.5890509424582,486.1400585680058 M820.5890509424582,486.1400585680058 L824.4620074882216,475.41598777873236 M824.4620074882216,475.41598777873236 L828.6972255067363,464.71257718591073 M828.6972255067363,464.71257718591073 L833.2817270767353,454.0635009729375 M833.2817270767353,454.0635009729375 L838.2013538121437,443.50226007426835 M505.3189228244496,651.9687219536851 L530.6671983109446,666.000057370998 M863.5014343425769,456.5831482112915 L838.2013538121437,443.50226007426835 M864.2745086196139,454.99101693450905 L838.9720238137709,441.9135599596242 M899.3129201453962,328.78167954871 L873.7749605689969,315.92323666848796 M558.1688500421095,525.741300255287 L532.5440786252439,511.9372277777586 M554.4475582347673,651.9687107420363 L529.1030773759906,638.0052910322969" stroke="black"  stroke-width="4"  fill="red"/>
<path d="M845.0909613376598,584.0837039312084 L846.4190546732764,559.4290601913768 M846.4190546732764,559.4290601913768 L846.700113785512,559.615210014804 M846.700113785512,559.615210014804 L846.8974891741768,559.830861246799 M846.8974891741768,559.830861246799 L846.9997108293146,560.0634924018033 M846.9997108293146,560.0634924018033 L847.0008221460346,560.2995806123317 M847.0008221460346,560.2995806123317 L846.900758123671,560.5254159884856 M846.900758123671,560.5254159884856 L846.705341566779,560.72787464724 M846.705341566779,560.72787464724 L846.4258765243096,560.8951622502718 M846.4258765243096,560.8951622502718 L846.0786049364472,561.0175489733682 M846.0786049364472,561.0175489733682 L845.6837560889587,561.087940638104 M845.6837560889587,561.087940638104 L845.2642772616391,561.1022325604397 M845.2642772616391,561.1022325604397 L844.8445379885313,561.0595873290818 M844.8445379885313,561.0595873290818 L844.4489541656408,560.9624879947384 M844.4489541656408,560.9624879947384 L844.1005129558644,560.8165785209211 M844.1005129558644,560.8165785209211 L843.8194796257321,560.6303499086644 M843.8194796257321,560.6303499086644 L843.6221933738063,560.4146379391518 M843.6221933738063,560.4146379391518 L843.5201037902334,560.1819780093535 M843.5201037902334,560.1819780093535 L843.519097093427,559.9458784076971 M843.519097093427,559.9458784076971 L843.6192853856253,559.7200891272107 M843.6192853856253,559.7200891272107 L843.8148173972777,559.5177234912969 M843.8148173972777,559.5177234912969 L844.0942915541887,559.3505170340638 M844.0942915541887,559.3505170340638 L844.4414638280989,559.2281809896215 M844.4414638280989,559.2281809896215 L844.8361987610642,559.1578354225112 M844.8361987610642,559.1578354225112 L845.2555751653365,559.1435744500181 M845.2555751653365,559.1435744500181 L845.6751759030917,559.186190909132 M845.6751759030917,559.186190909132 L846.0706569450392,559.2832295067267 M846.0706569450392,559.2832295067267 L846.4190546732764,559.4290601913768 M845.0909613376598,584.0837039312084 L844.7433218534718,583.937544381468 M844.7433218534718,583.937544381468 L844.3486855087322,583.8402869419436 M844.3486855087322,583.8402869419436 L843.9299668932481,583.7975743717943 M843.9299668932481,583.7975743717943 L843.5114588866713,583.8118675065831 M843.5114588866713,583.8118675065831 L843.1175280830919,583.8823717195205 M843.1175280830919,583.8823717195205 L842.7710489990209,584.0049836519149 M842.7710489990209,584.0049836519149 L842.4921169047179,584.1725671695128 M842.4921169047179,584.1725671695128 L842.2969443185193,584.3753891243548 M842.2969443185193,584.3753891243548 L842.1969118279953,584.6016875068074 M842.1969118279953,584.6016875068074 L842.1978615643643,584.8383194177704 M842.1978615643643,584.8383194177704 L842.2996848281553,585.07150386178 M842.2996848281553,585.07150386178 L842.496510754612,585.2877021021154 M842.496510754612,585.2877021021154 L842.7769164567708,585.4743504945785 M842.7769164567708,585.4743504945785 L843.1245992235708,585.6205888469514 M843.1245992235708,585.6205888469514 L843.5193379082182,585.7179070336044 M843.5193379082182,585.7179070336044 L843.938194476943,585.760648380915 M843.938194476943,585.760648380915 L844.3568044050851,585.7463242468795 M844.3568044050851,585.7463242468795 L844.7508486607505,585.6757739284383 M844.7508486607505,585.6757739284383 L845.0974267413014,585.5531113528435 M845.0974267413014,585.5531113528435 L845.3763497778907,585.385446675579 M845.3763497778907,585.385446675579 L845.5714073272604,585.182531637884 M845.5714073272604,585.182531637884 L845.6713160748373,584.9561871518862 M845.6713160748373,584.9561871518862 L845.67026223371,584.7195666781125 M845.67026223371,584.7195666781125 L845.5683074402361,584.4864110138147 M845.5683074402361,584.4864110138147 L845.3713927331551,584.2702735213768 M845.3713927331551,584.2702735213768 L845.0909613376598,584.0837039312084 M848.157217534145,558.3888663440647 L848.8599146850236,558.8540925949289 M848.8599146850236,558.8540925949289 L849.3535190889302,559.393107496499 M849.3535190889302,559.393107496499 L849.6093419863921,559.9746413650961 M849.6093419863921,559.9746413650961 L849.6124285378128,560.5649033925131 M849.6124285378128,560.5649033925131 L849.3624848135366,561.1295657147857 M849.3624848135366,561.1295657147857 L848.8740635884769,561.6358372256066 M848.8740635884769,561.6358372256066 L848.1754181397787,562.0542084805239 M848.1754181397787,562.0542084805239 L847.3071471468252,562.3603213570601 M847.3071471468252,562.3603213570601 L846.3198347268731,562.5363956350861 M846.3198347268731,562.5363956350861 L845.2708267453631,562.5721246014941 M845.2708267453631,562.5721246014941 L844.2211996889216,562.4654462700672 M844.2211996889216,562.4654462700672 L843.2320462268208,562.2225846212483 M843.2320462268208,562.2225846212483 L842.3608627862886,561.8576624398145 M842.3608627862886,561.8576624398145 L841.6583267722949,561.3919437592967 M841.6583267722949,561.3919437592967 L841.1652794743927,560.8525492476305 M841.1652794743927,560.8525492476305 L840.9102820383264,560.2708355355326 M840.9102820383264,560.2708355355326 L840.9081001977422,559.6806346407195 M840.9081001977422,559.6806346407195 L841.158780473542,559.1162392457527 M841.158780473542,559.1162392457527 L841.6477125996005,558.6104379835127 M841.6477125996005,558.6104379835127 L842.3464150139878,558.1925738930347 M842.3464150139878,558.1925738930347 L843.2142759864207,557.88688890538 M843.2142759864207,557.88688890538 L844.2009165753598,557.7111239068195 M844.2009165753598,557.7111239068195 L845.2490335780776,557.6754560655313 M845.2490335780776,557.6754560655313 L846.2977947720428,557.7819545509792 M846.2977947720428,557.7819545509792 L847.2863058519106,558.0244365959987 M847.2863058519106,558.0244365959987 L848.157217534145,558.3888663440647 M848.3137645080712,555.4903684836131 L849.0166462182967,555.9554708004638 M849.0166462182967,555.9554708004638 L849.5103861467944,556.4943421343794 M849.5103861467944,556.4943421343794 L849.766287647265,557.0757211383594 M849.766287647265,557.0757211383594 L849.7693912735665,557.6658260065872 M849.7693912735665,557.6658260065872 L849.5194020561369,558.2303380137434 M849.5194020561369,558.2303380137434 L849.0308754048165,558.7364747766248 M849.0308754048165,558.7364747766248 L848.3320706792124,559.1547346955608 M848.3320706792124,559.1547346955608 L847.4635958118902,559.4607661195981 M847.4635958118902,559.4607661195981 L846.4760468067122,559.6367935502929 M846.4760468067122,559.6367935502929 L845.4267832833457,559.672513010773 M845.4267832833457,559.672513010773 L844.3768966260011,559.5658630621475 M844.3768966260011,559.5658630621475 L843.3874946323301,559.3230660326718 M843.3874946323301,559.3230660326718 L842.516088189531,558.9582409573482 M842.516088189531,558.9582409573482 L841.8133676814489,558.4926462216263 M841.8133676814489,558.4926462216263 L841.3201851209137,557.9533952859265 M841.3201851209137,557.9533952859265 L841.0651094804907,557.3718364423836 M841.0651094804907,557.3718364423836 L841.0629110090445,556.7817927054211 M841.0629110090445,556.7817927054211 L841.3136371552646,556.2175476248996 M841.3136371552646,556.2175476248996 L841.8026749604826,555.7118810951289 M841.8026749604826,555.7118810951289 L842.5015366935593,555.2941283295272 M842.5015366935593,555.2941283295272 L843.3696013614558,554.988524790176 M843.3696013614558,554.988524790176 L844.3564782058259,554.8128066270011 M844.3564782058259,554.8128066270011 L845.4048503164538,554.7771482903023 M845.4048503164538,554.7771482903023 L846.4538706830358,554.8836183968867 M846.4538706830358,554.8836183968867 L847.4426299699667,555.1260358308749 M847.4426299699667,555.1260358308749 L848.3137645080712,555.4903684836131 M848.3137645080712,555.4903684836131 L848.157217534145,558.3888663440647" stroke="black"  stroke-width="4"  fill="red"/>
<path d="M229.82333545354624,290.39322697193876 L-70.94991384976868,451.394721352445 M229.82333545354624,290.39322697193876 L207.51794337144634,278.5058228638288 M-93.23708496030133,438.7898192720366 L207.51794337144634,278.5058228638288 M-70.94991384976868,451.394721352445 L-93.23708496030133,438.7898192720366 M-70.94991384976868,451.394721352445 L-73.74096038772376,331.434749045396 M-73.74096038772376,331.434749045396 L-49.95138288661121,318.97802397177384 M-49.95138288661121,318.97802397177384 L-52.552071666967095,196.74574631772617 M-52.552071666967095,196.74574631772617 L289.4721818054957,21.72495183649346 M289.4721818054957,21.72495183649346 L289.2002055573222,31.367237490046364 M289.2002055573222,31.367237490046364 L288.5118058988779,41.18142852500978 M288.5118058988779,41.18142852500978 L287.4097832482398,51.13986661922593 M287.4097832482398,51.13986661922593 L285.8980189260839,61.21450982614613 M285.8980189260839,61.21450982614613 L283.98146006551656,71.37718358184952 M283.98146006551656,71.37718358184952 L281.66608996632294,81.59961753113691 M281.66608996632294,81.59961753113691 L278.9589322508346,91.85337685155253 M278.9589322508346,91.85337685155253 L275.8679971754351,102.11008618328356 M275.8679971754351,102.11008618328356 L272.4022801260283,112.34149427396187 M272.4022801260283,112.34149427396187 L268.5717229821517,122.51933958613182 M268.5717229821517,122.51933958613182 L264.387201739443,132.6156833718909 M264.387201739443,132.6156833718909 L259.86047394517675,142.60278336283164 M259.86047394517675,142.60278336283164 L259.96136512945577,142.67018105256784 M259.96136512945577,142.67018105256784 L260.0355704699825,142.77747834476497 M260.0355704699825,142.77747834476497 L260.07878149848966,142.91851529757344 M260.07878149848966,142.91851529757344 L260.08848841883895,143.0850612754714 M260.08848841883895,143.0850612754714 L260.0641288217519,143.26743429685575 M260.0641288217519,143.26743429685575 L260.00711838623977,143.45505097243858 M260.00711838623977,143.45505097243858 L259.9207720754086,143.63703341225005 M259.9207720754086,143.63703341225005 L259.81010524819646,143.80274807919204 M259.81010524819646,143.80274807919204 L259.6815488313885,143.942651002925 M259.6815488313885,143.942651002925 L259.5425711991146,144.04852847382642 M259.5425711991146,144.04852847382642 L259.4012465877513,144.11424519261334 M259.4012465877513,144.11424519261334 L259.26578968050546,144.1360312104017 M259.26578968050546,144.1360312104017 L259.14407302055145,144.1125602726331 M259.14407302055145,144.1125602726331 L254.591950003627,154.15843233506942 M254.591950003627,154.15843233506942 L250.39043715605652,164.30507564284727 M250.39043715605652,164.30507564284727 L246.55245221704888,174.52066117821803 M246.55245221704888,174.52066117821803 L243.08969307377174,184.77313544911172 M243.08969307377174,184.77313544911172 L240.01259880195886,195.0303963371994 M240.01259880195886,195.0303963371994 L237.33031402917743,205.26033730018443 M237.33031402917743,205.26033730018443 L235.0506656383157,215.4311451842272 M235.0506656383157,215.4311451842272 L233.18013921679994,225.51120770871728 M233.18013921679994,225.51120770871728 L231.7238629033372,235.46931997925606 M231.7238629033372,235.46931997925606 L230.68559886899027,245.2747560553359 M230.68559886899027,245.2747560553359 L230.0677389376341,254.8974664178271 M230.0677389376341,254.8974664178271 L229.87130657570333,264.3080979042903 M229.87130657570333,264.3080979042903 L229.82333545354624,290.39322697193876 M229.87130657570333,264.3080979042903 L207.51794587841414,252.45264593156986 M207.51794587841414,252.45264593156986 L207.51794337144634,278.5058228638288 M207.51794587841414,252.45264593156986 L207.69724901349235,243.05390451282707 M207.69724901349235,243.05390451282707 L208.29800272796047,233.44408684990123 M208.29800272796047,233.44408684990123 L209.31923479569866,223.65250636141883 M209.31923479569866,223.65250636141883 L210.7586048460044,213.70916918351725 M210.7586048460044,213.70916918351725 L212.61240236093022,203.64475428840055 M212.61240236093022,203.64475428840055 L214.87555071676996,193.4904163074418 M214.87555071676996,193.4904163074418 L217.54161559587072,183.27771411141927 M217.54161559587072,183.27771411141927 L220.60282078645002,173.0384046317337 M220.60282078645002,173.0384046317337 L224.05007193277453,162.80453535339316 M224.05007193277453,162.80453535339316 L227.87297930614454,152.6081469709823 M227.87297930614454,152.6081469709823 L232.0598933898665,142.48122936203595 M232.0598933898665,142.48122936203595 L236.59794354189467,132.4555460873072 M236.59794354189467,132.4555460873072 L236.71982305643434,132.47918864403061 M236.71982305643434,132.47918864403061 L236.85537277691037,132.45765402510375 M236.85537277691037,132.45765402510375 L236.9967148760146,132.39225379366678 M236.9967148760146,132.39225379366678 L237.13563355909298,132.28673956264106 M237.13563355909298,132.28673956264106 L237.26405798115866,132.1472255481217 M237.26405798115866,132.1472255481217 L237.37452759091286,131.98190276047586 M237.37452759091286,131.98190276047586 L237.46062275987458,131.8002925106781 M237.46062275987458,131.8002925106781 L237.51734283103656,131.61300664349972 M237.51734283103656,131.61300664349972 L237.54138966689698,131.4309038585052 M237.54138966689698,131.4309038585052 L237.53136573834036,131.26455186316798 M237.53136573834036,131.26455186316798 L237.4878518852521,131.12362136033119 M237.4878518852521,131.12362136033119 L237.41337556863817,131.01633675218773 M237.41337556863817,131.01633675218773 L237.31226086514835,130.94885732840072 M266.7295232556884,10.273951805255592 L266.4751326503588,19.903319351035634 M266.4751326503588,19.903319351035634 L265.80422719295495,29.703727877761253 M265.80422719295495,29.703727877761253 L264.7195570980775,39.64755704249865 M264.7195570980775,39.64755704249865 L263.2249541256197,49.70680470825039 M263.2249541256197,49.70680470825039 L261.325316958562,59.853337640477775 M261.325316958562,59.853337640477775 L259.0265816101997,70.05892827973673 M259.0265816101997,70.05892827973673 L256.33572546696917,80.29518620455576 M256.33572546696917,80.29518620455576 L253.26071396717896,90.53378173457213 M253.26071396717896,90.53378173457213 L249.8104992159121,100.74651054086047 M249.8104992159121,100.74651054086047 L245.99498105996275,110.90515941198476 M245.99498105996275,110.90515941198476 L241.8249953070399,120.98183893810813 M241.8249953070399,120.98183893810813 L237.31226086514835,130.94885732840072 M266.7295232556884,10.273951805255592 L-75.27949123315523,184.50247819973742 M-72.45797820828119,306.57812363588255 L-75.27949123315523,184.50247819973742 M-72.45797820828119,306.57812363588255 L-96.24462282255519,318.97802646048774 M-93.23708496030133,438.7898192720366 L-96.24462282255519,318.97802646048774 M-96.24462282255519,318.97802646048774 L-73.74096038772376,331.434749045396 M259.14407302055145,144.1125602726331 L236.59794354189467,132.4555460873072 M259.86047394517675,142.60278336283164 L237.31226086514835,130.94885732840072 M289.4721818054957,21.72495183649346 L266.7295232556884,10.273951805255592 M-52.552071666967095,196.74574631772617 L-75.27949123315523,184.50247819973742 M-49.95138288661121,318.97802397177384 L-72.45797820828119,306.57812363588255" stroke="black"  stroke-width="4"  fill="red"/>
<path d="M248.94234805742752,268.2679264946181 L249.02385025483318,244.36021645496066 M249.02385025483318,244.36021645496066 L249.27080622709747,244.52627569711754 M249.27080622709747,244.52627569711754 L249.43579888102386,244.71865659693856 M249.43579888102386,244.71865659693856 L249.50923080413196,244.9261840216025 M249.50923080413196,244.9261840216025 L249.48682738773573,245.1367979765465 M249.48682738773573,245.1367979765465 L249.36987375539996,245.3382594532089 M249.36987375539996,245.3382594532089 L249.16516325043375,245.51885535840552 M249.16516325043375,245.51885535840552 L248.88458527193308,245.66808595098274 M248.88458527193308,245.66808595098274 L248.54444718081538,245.77727198845471 M248.54444718081538,245.77727198845471 L248.16451975554622,245.84006410582515 M248.16451975554622,245.84006410582515 L247.76689498993215,245.85280679411085 M247.76689498993215,245.85280679411085 L247.37468894587653,245.81476193395065 M247.37468894587653,245.81476193395065 L247.01070804675606,245.72814087998103 M247.01070804675606,245.72814087998103 L246.69611106377306,245.59798283281503 M246.69611106377306,245.59798283281503 L246.4491866045749,245.4318577973915 M246.4491866045749,245.4318577973915 L246.28427916868634,245.239425721805 M246.28427916868634,245.239425721805 L246.2109677656128,245.03187405272215 M246.2109677656128,245.03187405272215 L246.23349939356137,244.82126833886045 M246.23349939356137,244.82126833886045 L246.35055955803568,244.61984570093256 M246.35055955803568,244.61984570093256 L246.5553305099379,244.43931033442078 M246.5553305099379,244.43931033442078 L246.83590900278818,244.29014811206895 M246.83590900278818,244.29014811206895 L247.17598755783473,244.18102261330293 M247.17598755783473,244.18102261330293 L247.5558090353344,244.11826933520547 M247.5558090353344,244.11826933520547 L247.9533057133832,244.10553488737855 M247.9533057133832,244.10553488737855 L248.3453908726226,244.14355550329924 M248.3453908726226,244.14355550329924 L248.70928578371553,244.23012538131545 M248.70928578371553,244.23012538131545 L249.02385025483318,244.36021645496066 M248.94234805742752,268.2679264946181 L248.62840321532167,268.13751196269584 M248.62840321532167,268.13751196269584 L248.26522411316506,268.05072683056187 M248.26522411316506,268.05072683056187 L247.87390937284403,268.0126116754677 M247.87390937284403,268.0126116754677 L247.47719298543393,268.02537778792265 M247.47719298543393,268.02537778792265 L247.09811637219377,268.08828710239453 M247.09811637219377,268.08828710239453 L246.7587039959841,268.19768393543325 M246.7587039959841,268.19768393543325 L246.47867430426243,268.3472170269239 M246.47867430426243,268.3472170269239 L246.27430287879383,268.5282012452657 M246.27430287879383,268.5282012452657 L246.15746973152085,268.73012463727054 M246.15746973152085,268.73012463727054 L246.134979371516,268.9412539032727 M246.134979371516,268.9412539032727 L246.20814386352345,269.149321500478 M246.20814386352345,269.149321500478 L246.37272470042677,269.34223189192323 M246.37272470042677,269.34223189192323 L246.61916182978626,269.50876983164494 M246.61916182978626,269.50876983164494 L246.9331390573965,269.63925137288936 M246.9331390573965,269.63925137288936 L247.29640380943255,269.7260877074463 M247.29640380943255,269.7260877074463 L247.68783895989225,269.7642271193191 M247.68783895989225,269.7642271193191 L248.08468293240617,269.7514527621431 M248.08468293240617,269.7514527621431 L248.46386507827555,269.68850458831 M248.46386507827555,269.68850458831 L248.80333675784283,269.57904718525384 M248.80333675784283,269.57904718525384 L249.08336593823918,269.42944568817603 M249.08336593823918,269.42944568817603 L249.28767715484094,269.2484008998374 M249.28767715484094,269.2484008998374 L249.40440418855172,269.0464386490106 M249.40440418855172,269.0464386490106 L249.42676684019466,268.83530113766346 M249.42676684019466,268.83530113766346 L249.35348230068547,268.6272577974169 M249.35348230068547,268.6272577974169 L249.18881657936504,268.4343986082056 M249.18881657936504,268.4343986082056 L248.94234805742752,268.2679264946181 M250.76894968698002,243.432266531954 L251.3863970853688,243.8472893489827 M251.3863970853688,243.8472893489827 L251.79903675191952,244.3281459732337 M251.79903675191952,244.3281459732337 L251.98284415717194,244.84691878947552 M251.98284415717194,244.84691878947552 L251.9270710215569,245.37347001608833 M251.9270710215569,245.37347001608833 L251.63489120715366,245.87719536899615 M251.63489120715366,245.87719536899615 L251.12322781739215,246.32879957829917 M251.12322781739215,246.32879957829917 L250.42178388396837,246.70200433144774 M250.42178388396837,246.70200433144774 L249.5713253331482,246.97508331335584 M249.5713253331482,246.97508331335584 L248.62131023336082,247.13213412689402 M248.62131023336082,247.13213412689402 L247.62700636763503,247.16400896969478 M247.62700636763503,247.16400896969478 L246.64626502705073,247.06885043725077 M246.64626502705073,247.06885043725077 L245.73615093785253,246.85220265882396 M245.73615093785253,246.85220265882396 L244.94960130242993,246.5266826929572 M244.94960130242993,246.5266826929572 L244.33234498572472,246.11124556972206 M244.33234498572472,246.11124556972206 L243.9202368144388,245.63006850626402 M243.9202368144388,245.63006850626402 L243.7371837773489,245.1111447527291 M243.7371837773489,245.1111447527291 L243.79375767690584,244.5846447379065 M243.79375767690584,244.5846447379065 L244.08660331633894,244.08116212652405 M244.08660331633894,244.08116212652405 L244.59864450060735,243.62993628472407 M244.59864450060735,243.62993628472407 L245.30009164877208,243.25715884562504 M245.30009164877208,243.25715884562504 L246.15017809806318,242.9844582312056 M246.15017809806318,242.9844582312056 L247.09953102505648,242.8276501594633 M247.09953102505648,242.8276501594633 L248.09303490168503,242.79582711869526 M248.09303490168503,242.79582711869526 L249.07301959413172,242.89083353341854 M249.07301959413172,242.89083353341854 L249.98259737564467,243.10716205307463 M249.98259737564467,243.10716205307463 L250.76894968698002,243.432266531954 M250.77893219626037,240.62194722806666 L251.39652288417795,241.0368482326666 M251.39652288417795,241.0368482326666 L251.80925871135202,241.51756374029355 M251.80925871135202,241.51756374029355 L251.99310953935287,242.03618433499446 M251.99310953935287,242.03618433499446 L251.93732453495124,242.5625810813653 M251.93732453495124,242.5625810813653 L251.6450782185932,243.06615867304944 M251.6450782185932,243.06615867304944 L251.13329753212707,243.5176304287499 M251.13329753212707,243.5176304287499 L250.43169230895228,243.8907257357727 M250.43169230895228,243.8907257357727 L249.58103784889113,244.16372464206086 M249.58103784889113,244.16372464206086 L248.63080362069928,244.32072940611073 M248.63080362069928,244.32072940611073 L247.6362701684139,244.35259490302263 M247.6362701684139,244.35259490302263 L246.6553021568991,244.25746427187235 M246.6553021568991,244.25746427187235 L245.74497751625734,244.04088001933036 M245.74497751625734,244.04088001933036 L244.95824570634005,243.71545551065952 M244.95824570634005,243.71545551065952 L244.34084618736597,243.30014022565084 M244.34084618736597,243.30014022565084 L243.92864210059355,242.81910429901114 M243.92864210059355,242.81910429901114 L243.74554598858828,242.30033277632901 M243.74554598858828,242.30033277632901 L243.80213212692837,241.77398723861094 M243.80213212692837,241.77398723861094 L244.09504457620437,241.27065237325775 M244.09504457620437,241.27065237325775 L244.60720323229367,240.81955896137617 M244.60720323229367,240.81955896137617 L245.3088116724365,240.44689094165471 M245.3088116724365,240.44689094165471 L246.1590938597961,240.1742703791712 M246.1590938597961,240.1742703791712 L247.10866560983607,240.01750834172245 M247.10866560983607,240.01750834172245 L248.10239870356418,239.98569464353267 M248.10239870356418,239.98569464353267 L249.08260971752873,240.08067316662027 M249.08260971752873,240.08067316662027 L249.9923978020147,240.29693818023932 M249.9923978020147,240.29693818023932 L250.77893219626037,240.62194722806666 M250.77893219626037,240.62194722806666 L250.76894968698002,243.432266531954" stroke="black"  stroke-width="4"  fill="red"/>
<path d="M-72.45797820828119,306.57812363588255 L-96.24462282255519,318.97802646048774 M-96.24462282255519,318.97802646048774 L-99.31292014539628,196.7457487750597 M-75.27949123315523,184.50247819973742 L-99.31292014539628,196.7457487750597 M-72.45797820828119,306.57812363588255 L-75.27949123315523,184.50247819973742 M-70.94991384976868,451.394721352445 L-30.021468006604437,474.5425246154879 M-30.021468006604437,474.5425246154879 L-30.563798481311096,447.26956689659875 M-30.563798481311096,447.26956689659875 L24.475420908166654,478.2478548059811 M24.894691717758235,505.6013257762386 L24.475420908166654,478.2478548059811 M24.894691717758235,505.6013257762386 L274.6751993779655,646.8690903138249 M274.6751993779655,646.8690903138249 L274.83326680105375,619.1593269611501 M274.83326680105375,619.1593269611501 L333.33514288786046,652.0865374259588 M333.03801416377325,679.8772079373513 L333.33514288786046,652.0865374259588 M333.03801416377325,679.8772079373513 L502.19168924230917,775.5450475358247 M502.19168924230917,775.5450475358247 L505.3189228244496,651.9687219536851 M505.3189228244496,651.9687219536851 L530.6671983109446,666.000057370998 M530.6671983109446,666.000057370998 L534.1419344690044,539.6132464292157 M-99.31292014539628,196.7457487750597 L534.1419344690044,539.6132464292157 M-96.24462282255519,318.97802646048774 L-73.74096038772376,331.434749045396 M-70.94991384976868,451.394721352445 L-73.74096038772376,331.434749045396 M554.4475582347673,651.9687107420363 L529.1030773759906,638.0052910322969 M525.7341725203421,761.4319566089478 L529.1030773759906,638.0052910322969 M525.7341725203421,761.4319566089478 L356.59774879498764,666.218075789889 M356.59774879498764,666.218075789889 L356.94981376127544,638.4607779302168 M356.94981376127544,638.4607779302168 L298.4508588665522,605.6884620203942 M298.2378346326899,633.3648689567912 L298.4508588665522,605.6884620203942 M298.2378346326899,633.3648689567912 L48.45205073741619,492.75013125417166 M48.45205073741619,492.75013125417166 L48.087700309990794,465.42987895403684 M48.087700309990794,465.42987895403684 L-6.956559684326862,434.5929540755908 M-6.469115171355156,461.8327378855332 L-6.956559684326862,434.5929540755908 M-6.469115171355156,461.8327378855332 L-47.40219382442194,438.7898167536609 M-47.40219382442194,438.7898167536609 L-49.95138288661121,318.97802397177384 M-49.95138288661121,318.97802397177384 L-72.45797820828119,306.57812363588255 M558.1688500421095,525.741300255287 L-75.27949123315523,184.50247819973742 M554.4475582347673,651.9687107420363 L558.1688500421095,525.741300255287 M-70.94991384976868,451.394721352445 L-47.40219382442194,438.7898167536609 M-73.74096038772376,331.434749045396 L-49.95138288661121,318.97802397177384 M-6.469115171355156,461.8327378855332 L-30.021468006604437,474.5425246154879 M-6.956559684326862,434.5929540755908 L-30.563798481311096,447.26956689659875 M24.894691717758235,505.6013257762386 L48.45205073741619,492.75013125417166 M24.475420908166654,478.2478548059811 L48.087700309990794,465.42987895403684 M298.2378346326899,633.3648689567912 L274.6751993779655,646.8690903138249 M298.4508588665522,605.6884620203942 L274.83326680105375,619.1593269611501 M333.03801416377325,679.8772079373513 L356.59774879498764,666.218075789889 M333.33514288786046,652.0865374259588 L356.94981376127544,638.4607779302168 M525.7341725203421,761.4319566089478 L502.19168924230917,775.5450475358247 M529.1030773759906,638.0052910322969 L505.3189228244496,651.9687219536851 M530.6671983109446,666.000057370998 L554.4475582347673,651.9687107420363 M534.1419344690044,539.6132464292157 L558.1688500421095,525.741300255287" stroke="black"  stroke-width="4"  fill="red"/></svg>