<svg viewBox="0 0 800 800" xmlns="http://www.w3.org/2000/svg"><path d="M-525.8560545577224,98.86009596982785 L-546.1671332700495,105.61177865103332 M-546.1671327548191,100.25734714903479 L-546.1671332700495,105.61177865103332 M-546.1671327548191,100.25734714903479 L-546.167247399072,100.20796956162718 M-546.167247399072,100.20796956162718 L-546.1673161880324,100.1585746101947 M-546.1673161880324,100.1585746101947 L-546.1673391184037,100.10916229794293 M-525.804504658621,93.41358626334079 L-546.1673391184037,100.10916229794293 M-525.8560545577224,98.86009596982785 L-525.804504658621,93.41358626334079 M1238.8535064782022,698.9770973215636 L1220.5258776736896,692.8847423852092 M1233.7387801607447,753.625526860046 L1220.5258776736896,692.8847423852092 M1233.7387801607447,753.625526860046 L354.5919472356138,446.4111383636583 M351.88979631601364,450.06559004722806 L354.5919472356138,446.4111383636583 M152.48933808692664,380.0079804094993 L351.88979631601364,450.06559004722806 M155.75510038831408,376.928387556837 L152.48933808692664,380.0079804094993 M155.75510038831408,376.928387556837 L-399.3387169879346,182.95304546754534 M-403.4351215441219,184.68877639768002 L-399.3387169879346,182.95304546754534 M-500.49962939956947,150.58600922548675 L-403.4351215441219,184.68877639768002 M-496.37016684548075,149.04578854924347 L-500.49962939956947,150.58600922548675 M-496.37016684548075,149.04578854924347 L-580.416732667432,119.67604807221551 M-542.2356350652801,106.91866252295029 L-580.416732667432,119.67604807221551 M-542.2356350652801,106.91866252295029 L-546.1671332700495,105.61177865103332 M1231.574240763638,667.7310403916977 L-525.8560545577224,98.86009596982785 M1238.8535064782022,698.9770973215636 L1231.574240763638,667.7310403916977 M-533.777573949515,102.78960857810779 L-533.8328582757749,102.7753810499164 M-533.8328582757749,102.7753810499164 L-533.8967281549345,102.76591353314353 M-533.8967281549345,102.76591353314353 L-533.9654717987291,102.76175532520199 M-533.9654717987291,102.76175532520199 L-534.0350972721153,102.76314814075647 M-534.0350972721153,102.76314814075647 L-534.101559484662,102.77001095873328 M-534.101559484662,102.77001095873328 L-534.1609987472157,102.7819455460048 M-534.1609987472157,102.7819455460048 L-534.209960884654,102.79825872768129 M-534.209960884654,102.79825872768129 L-534.2456009374449,102.81800336902245 M-534.2456009374449,102.81800336902245 L-534.2658458674036,102.8400323710589 M-534.2658458674036,102.8400323710589 L-534.2695178161027,102.86306624757333 M-534.2695178161027,102.86306624757333 L-534.2564006612342,102.88576613231692 M-534.2564006612342,102.88576613231692 L-534.2272555844952,102.90681289120573 M-534.2272555844952,102.90681289120573 L-534.1837738223647,102.92498234045644 M-534.1837738223647,102.92498234045644 L-534.1284828137616,102.93921836023299 M-534.1284828137616,102.93921836023299 L-534.0645953695541,102.94869237339293 M-534.0645953695541,102.94869237339293 L-533.9958271057307,102.95285365908813 M-533.9958271057307,102.95285365908813 L-533.9261755970161,102.95145979736094 M-533.9261755970161,102.95145979736094 L-533.859691898567,102.94459204906781 M-533.859691898567,102.94459204906781 L-533.8002406214521,102.93264977669298 M-533.8002406214521,102.93264977669298 L-533.7512786933303,102.91632791583936 M-533.7512786933303,102.91632791583936 L-533.7156510257837,102.89657558944685 M-533.7156510257837,102.89657558944685 L-533.6954278195359,102.87454165711341 M-533.6954278195359,102.87454165711341 L-533.6917819566247,102.8515067344506 M-533.6917819566247,102.8515067344506 L-533.7049235830707,102.82880992738001 M-533.7049235830707,102.82880992738001 L-533.7340859115077,102.80776966498843 M-533.7340859115077,102.80776966498843 L-533.777573949515,102.78960857810779 M1226.0444129881384,679.8513939448253 L1225.8196612373395,679.7860513718133 M1225.8196612373395,679.7860513718133 L1225.6122817430214,679.7426314164763 M1225.6122817430214,679.7426314164763 L1225.4339310294545,679.7235257029577 M1225.4339310294545,679.7235257029577 L1225.2953654775874,679.7299763075923 M1225.2953654775874,679.7299763075923 L1225.204164883511,679.761455935195 M1225.204164883511,679.761455935195 L1225.1657030855058,679.8161650419922 M1225.1657030855058,679.8161650419922 L1225.1825043036101,679.8910223905148 M1225.1825043036101,679.8910223905148 L1225.253604271219,679.98168571257 M1225.253604271219,679.98168571257 L1225.3746025323908,680.0827982996711 M1225.3746025323908,680.0827982996711 L1225.5384075378684,680.1884645637376 M1225.5384075378684,680.1884645637376 L1225.735975268201,680.2926956766366 M1225.735975268201,680.2926956766366 L1225.9554245908744,680.3893002304721 M1225.9554245908744,680.3893002304721 L1226.184379025844,680.4727811018502 M1226.184379025844,680.4727811018502 L1226.4090640718746,680.5381307233486 M1226.4090640718746,680.5381307233486 L1226.616628003951,680.5816145373651 M1226.616628003951,680.5816145373651 L1226.7951410357027,680.6007505619773 M1226.7951410357027,680.6007505619773 L1226.9340405470311,680.594365485845 M1226.9340405470311,680.594365485845 L1227.0250295615424,680.5627614757943 M1227.0250295615424,680.5627614757943 L1227.0634238366297,680.507976863729 M1227.0634238366297,680.507976863729 L1227.0464828800045,680.433034154268 M1227.0464828800045,680.433034154268 L1226.9752030368968,680.3422952112096 M1226.9752030368968,680.3422952112096 L1226.8542575671936,680.2412100089568 M1226.8542575671936,680.2412100089568 L1226.6900848526616,680.135457600024 M1226.6900848526616,680.135457600024 L1226.4924539763792,680.0312567565675 M1226.4924539763792,680.0312567565675 L1226.2730293137602,679.9347160739503 M1226.2730293137602,679.9347160739503 L1226.0444129881384,679.8513939448253 M-542.2257687875374,101.55370300642238 L-546.1671327548191,100.25734714903479 M-542.2257687875374,101.55370300642238 L-542.2356350652801,106.91866252295029 M-542.2257019861622,101.40522602482031 L-542.2257701146796,101.45473580218192 M-542.2257701146796,101.45473580218192 L-542.2257923807058,101.50422813045492 M-542.2257923807058,101.50422813045492 L-542.2257687875374,101.55370300642238 M-546.1673391184037,100.10916229794293 L-542.2257019861622,101.40522602482031 M1230.3523974731847,684.2529364278594 L1248.837502529827,690.3310895778445 M1248.837502529827,690.3310895778445 L1241.2338378406644,659.1615484092799 M1241.2338378406644,659.1615484092799 L-525.804504658621,93.41358626334079 M-542.2257019861622,101.40522602482031 L-580.5072762631437,114.05781805196756 M-580.5072762631437,114.05781805196756 L-496.2310945473439,143.19267646396258 M-496.2310945473439,143.19267646396258 L-500.3717325750488,144.72081851133933 M-500.3717325750488,144.72081851133933 L-403.01066369870284,178.56225511487165 M-403.01066369870284,178.56225511487165 L-398.9033718609493,176.83954278252048 M-398.9033718609493,176.83954278252048 L158.52861834459304,369.5476339454863 M158.52861834459304,369.5476339454863 L155.260903287563,372.61016419971554 M155.260903287563,372.61016419971554 L355.7727347220482,442.30545935271357 M355.7727347220482,442.30545935271357 L358.4698022785392,438.6686829304342 M358.4698022785392,438.6686829304342 L1244.190930543707,744.8685977716186 M1230.3523974731847,684.2529364278594 L1244.190930543707,744.8685977716186 M-533.4406022059688,97.20971044820277 L-533.3315909706498,97.25472032028188 M-533.3315909706498,97.25472032028188 L-533.2584621573269,97.30687124899833 M-533.2584621573269,97.30687124899833 L-533.2254746346666,97.36313593700135 M-533.2254746346666,97.36313593700135 L-533.2345597065996,97.42024620198572 M-533.2345597065996,97.42024620198572 L-533.2852028197626,97.47488246807438 M-533.2852028197626,97.47488246807438 L-533.3744725206955,97.52386687395239 M-533.3744725206955,97.52386687395239 L-533.4971875551056,97.5643485012634 M-533.4971875551056,97.5643485012634 L-533.6462161413167,97.59397004152072 M-533.6462161413167,97.59397004152072 L-533.8128907047349,97.61100594825228 M-533.8128907047349,97.61100594825228 L-533.9875132285117,97.61446355517484 M-533.9875132285117,97.61446355517484 L-534.1599213476923,97.60414117486681 M-534.1599213476923,97.60414117486681 L-534.3200823277986,97.58064068931083 M-534.3200823277986,97.58064068931083 L-534.4586789841089,97.54533119767433 M-534.4586789841089,97.54533119767433 L-534.5676518349787,97.50026902520585 M-534.5676518349787,97.50026902520585 L-534.6406724736607,97.44807766423293 M-534.6406724736607,97.44807766423293 L-534.6735060689379,97.39179391595758 M-534.6735060689379,97.39179391595758 L-534.6642572245751,97.334690119676 M-534.6642572245751,97.334690119676 L-534.6134776404243,97.28008449011196 M-534.6134776404243,97.28008449011196 L-534.5241301323983,97.23114783817908 M-534.5241301323983,97.23114783817908 L-534.4014137796785,97.19072014238202 M-534.4014137796785,97.19072014238202 L-534.2524606659632,97.16114635607062 M-534.2524606659632,97.16114635607062 L-534.0859210757977,97.14414108590063 M-534.0859210757977,97.14414108590063 L-533.9114620066816,97.14069001170003 M-533.9114620066816,97.14069001170003 L-533.7392087498595,97.15099320339982 M-533.7392087498595,97.15099320339982 L-533.5791579178979,97.17445338469702 M-533.5791579178979,97.17445338469702 L-533.4406022059688,97.20971044820277 M1235.6739635006456,670.7865127894513 L1236.2503269140134,670.9941447226322 M1236.2503269140134,670.9941447226322 L1236.8041561397108,671.2348112753868 M1236.8041561397108,671.2348112753868 L1237.3033094611496,671.4945700101525 M1237.3033094611496,671.4945700101525 L1237.7185327082193,671.7582733350991 M1237.7185327082193,671.7582733350991 L1238.0256526531566,672.0106002490004 M1238.0256526531566,672.0106002490004 L1238.206877896589,672.2369105263842 M1238.206877896589,672.2369105263842 L1238.2514261889405,672.4239618540912 M1238.2514261889405,672.4239618540912 L1238.1566323731395,672.5608374366286 M1238.1566323731395,672.5608374366286 L1237.9281210059771,672.639591480938 M1237.9281210059771,672.639591480938 L1237.5790287266868,672.655571129246 M1237.5790287266868,672.655571129246 L1237.1296671249092,672.6078314300357 M1237.1296671249092,672.6078314300357 L1236.606451612825,672.4992328932092 M1236.606451612825,672.4992328932092 L1236.0398586488163,672.336111013507 M1236.0398586488163,672.336111013507 L1235.462582285349,672.1278839237214 M1235.462582285349,672.1278839237214 L1234.9085934624059,671.8868168875354 M1234.9085934624059,671.8868168875354 L1234.4098373017173,671.6268683941414 M1234.4098373017173,671.6268683941414 L1233.9954769691167,671.3632295730902 M1233.9954769691167,671.3632295730902 L1233.6894878935896,671.1112065875975 M1233.6894878935896,671.1112065875975 L1233.5094027177752,670.8853701159644 M1233.5094027177752,670.8853701159644 L1233.4657422090286,670.6988538513549 M1233.4657422090286,670.6988538513549 L1233.560968086585,670.5624519783594 M1233.560968086585,670.5624519783594 L1233.7893572798685,670.484001942229 M1233.7893572798685,670.484001942229 L1234.137800667837,670.4680867812997 M1234.137800667837,670.4680867812997 L1234.586135254558,670.5156366290255 M1234.586135254558,670.5156366290255 L1235.1081814622967,670.6238347260003 M1235.1081814622967,670.6238347260003 L1235.6739635006456,670.7865127894513 M1231.574240763638,667.7310403916977 L1241.2338378406644,659.1615484092799 M1248.5676500548998,690.5644001049609 L1230.0868138116898,684.4858596524205 M1248.5676500548998,690.5644001049609 L1238.8535064782022,698.9770973215636 M1230.0868138116898,684.4858596524205 L1220.5258776736896,692.8847423852092 M1230.0868138116898,684.4858596524205 L1230.1753489444332,684.4082968403286 M1230.1753489444332,684.4082968403286 L1230.263876837717,684.3306557644032 M1230.263876837717,684.3306557644032 L1230.3523974731847,684.2529364278594 M1233.7387801607447,753.625526860046 L1244.190930543707,744.8685977716186 M354.5919472356138,446.4111383636583 L358.4698022785392,438.6686829304342 M351.88979631601364,450.06559004722806 L355.7727347220482,442.30545935271357 M152.48933808692664,380.0079804094993 L155.260903287563,372.61016419971554 M155.75510038831408,376.928387556837 L158.52861834459304,369.5476339454863 M-399.3387169879346,182.95304546754534 L-398.9033718609493,176.83954278252048 M-403.4351215441219,184.68877639768002 L-403.01066369870284,178.56225511487165 M-500.49962939956947,150.58600922548675 L-500.3717325750488,144.72081851133933 M-496.37016684548075,149.04578854924347 L-496.2310945473439,143.19267646396258 M-580.416732667432,119.67604807221551 L-580.5072762631437,114.05781805196756 M1248.837502529827,690.3310895778445 L1248.7475600601556,690.40893886247 M1248.7475600601556,690.40893886247 L1248.6576092288774,690.4867090392188 M1248.6576092288774,690.4867090392188 L1248.5676500548998,690.5644001049609 M-533.777573949515,102.78960857810779 L-533.749216579319,97.88691480666131 M-533.749216579319,97.88691480666131 L-533.705627981805,97.90494083114527 M-533.705627981805,97.90494083114527 L-533.6763977144453,97.92582462267495 M-533.6763977144453,97.92582462267495 L-533.663224721817,97.9483526440631 M-533.663224721817,97.9483526440631 L-533.6668776259047,97.97121627137034 M-533.6668776259047,97.97121627137034 L-533.6871458805986,97.99308635651056 M-533.6871458805986,97.99308635651056 L-533.7228539956105,98.01269180574013 M-533.7228539956105,98.01269180574013 L-533.7719270981875,98.02889230082292 M-533.7719270981875,98.02889230082292 L-533.8315138170892,98.04074577460187 M-533.8315138170892,98.04074577460187 L-533.8981493467638,98.04756245728151 M-533.8981493467638,98.04756245728151 L-533.9679602461833,98.04894595490589 M-533.9679602461833,98.04894595490589 L-534.0368861846468,98.04481561063318 M-534.0368861846468,98.04481561063318 L-534.1009204167694,98.03541204249507 M-534.1009204167694,98.03541204249507 L-534.1563387861258,98.02128187765919 M-534.1563387861258,98.02128187765919 L-534.1999210799136,98.0032475338445 M-534.1999210799136,98.0032475338445 L-534.229134016864,97.98235727936742 M-534.229134016864,97.98235727936742 L-534.2422824259223,97.9598261962002 M-534.2422824259223,97.9598261962002 L-534.238603316427,97.93696360963906 M-534.238603316427,97.93696360963906 L-534.2183132381801,97.91509842933397 M-534.2183132381801,97.91509842933397 L-534.1825926807312,97.89550062546766 M-534.1825926807312,97.89550062546766 L-534.1335193673972,97.87930876474002 M-534.1335193673972,97.87930876474002 L-534.0739447176979,97.86746293637589 M-534.0739447176979,97.86746293637589 L-534.0073307721309,97.86065115855081 M-534.0073307721309,97.86065115855081 L-533.937546027312,97.85926870169635 M-533.937546027312,97.85926870169635 L-533.8686448218915,97.86339598410996 M-533.8686448218915,97.86339598410996 L-533.8046282356847,97.8727930894106 M-533.8046282356847,97.8727930894106 L-533.749216579319,97.88691480666131 M1226.0444129881384,679.8513939448253 L1234.7561085267598,672.158295732957 M1234.7561085267598,672.158295732957 L1234.9865227247033,672.2414323130502 M1234.9865227247033,672.2414323130502 L1235.2078071921183,672.3377580890904 M1235.2078071921183,672.3377580890904 L1235.4072528914385,672.4417270686881 M1235.4072528914385,672.4417270686881 L1235.5730886435667,672.5472442618959 M1235.5730886435667,672.5472442618959 L1235.6954469475531,672.6481047240297 M1235.6954469475531,672.6481047240297 L1235.7678117248079,672.7386420084201 M1235.7678117248079,672.7386420084201 L1235.7854425478117,672.8134182211095 M1235.7854425478117,672.8134182211095 L1235.7473028088857,672.8680811529287 M1235.7473028088857,672.8680811529287 L1235.6561219892783,672.8996149807563 M1235.6561219892783,672.8996149807563 L1235.5165908853996,672.9059858788114 M1235.5165908853996,672.9059858788114 L1235.3370448856958,672.8868923468947 M1235.3370448856958,672.8868923468947 L1235.1281081316924,672.843505103647 M1235.1281081316924,672.843505103647 L1234.9017892514867,672.7783006456968 M1234.9017892514867,672.7783006456968 L1234.6710334663198,672.695005269793 M1234.6710334663198,672.695005269793 L1234.4497235765402,672.598615451248 M1234.4497235765402,672.598615451248 L1234.2503413996337,672.4946161210325 M1234.2503413996337,672.4946161210325 L1234.084876536111,672.3891849315607 M1234.084876536111,672.3891849315607 L1233.9624658433577,672.2882973832886 M1233.9624658433577,672.2882973832886 L1233.8902833296092,672.1978359226978 M1233.8902833296092,672.1978359226978 L1233.8727943166195,672.1231452998641 M1233.8727943166195,672.1231452998641 L1233.9110028579066,672.0685580757988 M1233.9110028579066,672.0685580757988 L1234.0023972082613,672.0371485918326 M1234.0023972082613,672.0371485918326 L1234.1415916734368,672.0307123616938 M1234.1415916734368,672.0307123616938 L1234.3209735083533,672.0497755012298 M1234.3209735083533,672.0497755012298 L1234.5297234872291,672.093098714545 M1234.5297234872291,672.093098714545 L1234.7561085267598,672.158295732957 M-533.4406022059688,97.20971044820277 L-533.4440183555059,97.78618684163763 M-533.4440183555059,97.78618684163763 L-533.3350366915936,97.83123654582977 M-533.3350366915936,97.83123654582977 L-533.2619278710513,97.8834336235119 M-533.2619278710513,97.8834336235119 L-533.2289495957943,97.9397480975145 M-533.2289495957943,97.9397480975145 L-533.2380326250051,97.9969088932288 M-533.2380326250051,97.9969088932288 L-533.2886625166625,98.05159349778904 M-533.2886625166625,98.05159349778904 L-533.3779085793856,98.10062123902611 M-533.3779085793856,98.10062123902611 L-533.5005909290096,98.1411386775394 M-533.5005909290096,98.1411386775394 L-533.6495796833212,98.1707864207396 M-533.6495796833212,98.1707864207396 L-533.8162095860828,98.18783739685063 M-533.8162095860828,98.18783739685063 L-533.9907852221318,98.19129806221576 M-533.9907852221318,98.19129806221576 L-534.1631469589558,98.1809665511592 M-534.1631469589558,98.1809665511592 L-534.3232647647098,98.15744527762365 M-534.3232647647098,98.15744527762365 L-534.4618239688382,98.12210455092054 M-534.4618239688382,98.12210455092054 L-534.5707672685162,98.07700251413644 M-534.5707672685162,98.07700251413644 L-534.6437679722901,98.02476497927188 M-534.6437679722901,98.02476497927188 L-534.6765924026379,97.96843143327192 M-534.6765924026379,97.96843143327192 L-534.6673456890045,97.91127711023688 M-534.6673456890045,97.91127711023688 L-534.6165793998391,97.8566231610751 M-534.6165793998391,97.8566231610751 L-534.5272555721151,97.80764320320247 M-534.5272555721151,97.80764320320247 L-534.404571905243,97.76717972942805 M-534.404571905243,97.76717972942805 L-534.2556585832149,97.73757976959297 M-534.2556585832149,97.73757976959297 L-534.0891635814328,97.72055944891724 M-534.0891635814328,97.72055944891724 L-533.914751312293,97.7171053203071 M-533.914751312293,97.7171053203071 L-533.7425443546007,97.72741763091699 M-533.7425443546007,97.72741763091699 L-533.5825366375293,97.75089857538137 M-533.5825366375293,97.75089857538137 L-533.4440183555059,97.78618684163763 M1235.6739635006456,670.7865127894513 L1234.6469581891724,671.6937610756902 M1234.6469581891724,671.6937610756902 L1235.2227907659935,671.9014487291777 M1235.2227907659935,671.9014487291777 L1235.776070406655,672.142179809485 M1235.776070406655,672.142179809485 L1236.2746872581893,672.4020081209735 M1236.2746872581893,672.4020081209735 L1236.6894185380775,672.665782005055 M1236.6894185380775,672.665782005055 L1236.9961196722306,672.9181763641577 M1236.9961196722306,672.9181763641577 L1237.177023600576,673.1445470744923 M1237.177023600576,673.1445470744923 L1237.2213670339243,673.3316483100693 M1237.2213670339243,673.3316483100693 L1237.1264968528135,673.4685603890796 M1237.1264968528135,673.4685603890796 L1236.898041998285,673.5473354232263 M1236.898041998285,673.5473354232263 L1236.5491359748935,673.5633193296799 M1236.5491359748935,673.5633193296799 L1236.1000795176287,673.5155669083122 M1236.1000795176287,673.5155669083122 L1235.5772699983763,673.40693942193 M1235.5772699983763,673.40693942193 L1235.0111601600183,673.2437740343523 M1235.0111601600183,673.2437740343523 L1234.4344161204708,673.03549136469 M1234.4344161204708,673.03549136469 L1233.8809774494453,672.7943599248222 M1233.8809774494453,672.7943599248222 L1233.3827574820289,672.5343419133981 M1233.3827574820289,672.5343419133981 L1232.9688880597992,672.2706325132606 M1232.9688880597992,672.2706325132606 L1232.6633162003586,672.0185419885609 M1232.6633162003586,672.0185419885609 L1232.4835505719375,671.7926449374274 M1232.4835505719375,671.7926449374274 L1232.4400933868887,671.6060785994512 M1232.4400933868887,671.6060785994512 L1232.5353946786558,671.4696400834625 M1232.5353946786558,671.4696400834625 L1232.7637272095963,671.3911689634638 M1232.7637272095963,671.3911689634638 L1233.111985028354,671.3752495244426 M1233.111985028354,671.3752495244426 L1233.5600158364427,671.4228121530477 M1233.5600158364427,671.4228121530477 L1234.08165778263,671.5310393234358 M1234.08165778263,671.5310393234358 L1234.6469581891724,671.6937610756902" stroke="black"  stroke-width="4"  fill="red"/>
<path d="M1238.8535064782022,698.9770973215636 L1254.7665585953378,767.283455665525 M1238.8535064782022,698.9770973215636 L1220.5258776736896,692.8847423852092 M1235.2155551669348,760.4143813495602 L1220.5258776736896,692.8847423852092 M1254.7665585953378,767.283455665525 L1235.2155551669348,760.4143813495602 M1248.5676500548998,690.5644001049609 L1238.8535064782022,698.9770973215636 M1299.8560754525083,626.5636035293153 L1297.8983528428648,630.3636237441847 M1297.8983528428648,630.3636237441847 L1295.7640182716486,634.2231753579135 M1295.7640182716486,634.2231753579135 L1293.4600472787342,638.1295565991315 M1293.4600472787342,638.1295565991315 L1290.9941142326693,642.0698379802645 M1290.9941142326693,642.0698379802645 L1288.3744443379655,646.03102019211 M1288.3744443379655,646.03102019211 L1285.6097963001916,650.0000698852157 M1285.6097963001916,650.0000698852157 L1282.7094452341894,653.9639639538029 M1282.7094452341894,653.9639639538029 L1279.683227256664,657.90966708713 M1279.683227256664,657.90966708713 L1276.5413178603976,661.8243439728228 M1276.5413178603976,661.8243439728228 L1273.2943413202083,665.6952794016956 M1273.2943413202083,665.6952794016956 L1269.953146785685,669.5100801970164 M1269.953146785685,669.5100801970164 L1266.5290473968166,673.2564790940814 M1266.5290473968166,673.2564790940814 L1263.033333835825,676.9227588155054 M1263.033333835825,676.9227588155054 L1259.4776436254224,680.4974334862718 M1259.4776436254224,680.4974334862718 L1255.8736737871063,683.9694959626088 M1255.8736737871063,683.9694959626088 L1252.233093146769,687.3284881766383 M1252.233093146769,687.3284881766383 L1248.5676500548998,690.5644001049609 M1300.1230243733794,626.0236316151379 L1300.0604131546843,626.0540547232533 M1300.0604131546843,626.0540547232533 L1299.9937287521038,626.0983638577866 M1299.9937287521038,626.0983638577866 L1299.926731517758,626.1540795692033 M1299.926731517758,626.1540795692033 L1299.8634279614184,626.21786596478 M1299.8634279614184,626.21786596478 L1299.807461367976,626.2860445930437 M1299.807461367976,626.2860445930437 L1299.762053964766,626.3546810392065 M1299.762053964766,626.3546810392065 L1299.729888009383,626.419750127219 M1299.729888009383,626.419750127219 L1299.7127934780297,626.4775046682573 M1299.7127934780297,626.4775046682573 L1299.7117793820817,626.5245754649159 M1299.7117793820817,626.5245754649159 L1299.7269350712031,626.5582045775054 M1299.7269350712031,626.5582045775054 L1299.7573315766908,626.5764800784304 M1299.7573315766908,626.5764800784304 L1299.801194386006,626.5783448854763 M1299.801194386006,626.5783448854763 L1299.8560754525083,626.5636035293153 M1352.7838939374137,560.2001420755901 L1348.8214258033272,563.7871713853581 M1348.8214258033272,563.7871713853581 L1344.9264082879686,567.4570818913069 M1344.9264082879686,567.4570818913069 L1341.1078221356015,571.2005579126572 M1341.1078221356015,571.2005579126572 L1337.3746563214586,575.0080071399938 M1337.3746563214586,575.0080071399938 L1333.735371485835,578.8700285437501 M1333.735371485835,578.8700285437501 L1330.1983446521062,582.7770382274985 M1330.1983446521062,582.7770382274985 L1326.771618444694,586.7195044730196 M1326.771618444694,586.7195044730196 L1323.4627852083963,590.6880375792583 M1323.4627852083963,590.6880375792583 L1320.2794297920468,594.6730310440903 M1320.2794297920468,594.6730310440903 L1317.228603332851,598.6651204395728 M1317.228603332851,598.6651204395728 L1314.3171892837754,602.65486587997 M1314.3171892837754,602.65486587997 L1311.5517919610847,606.6328644952846 M1311.5517919610847,606.6328644952846 L1308.9386892580574,610.589789683643 M1308.9386892580574,610.589789683643 L1306.483720873765,614.5165002518258 M1306.483720873765,614.5165002518258 L1304.192645693729,618.4037292515436 M1304.192645693729,618.4037292515436 L1302.070754882047,622.2424271775803 M1302.070754882047,622.2424271775803 L1300.1230243733794,626.0236316151379 M1387.2647998655893,649.7841635134951 L1352.7838939374137,560.2001420755901 M1317.806826841454,707.0864597232005 L1387.2647998655893,649.7841635134951 M1319.8605548982437,713.8774040982084 L1317.806826841454,707.0864597232005 M1254.7665585953378,767.283455665525 L1319.8605548982437,713.8774040982084 M1248.5676500548998,690.5644001049609 L1230.0868138116898,684.4858596524205 M1230.0868138116898,684.4858596524205 L1220.5258776736896,692.8847423852092 M1235.2155551669348,760.4143813495602 L1299.2112034824054,707.0864435041117 M1297.2947489037233,700.3776217843802 L1299.2112034824054,707.0864435041117 M1297.2947489037233,700.3776217843802 L1365.5576373409099,643.1862064761883 M1333.1120999932773,554.6748642506275 L1365.5576373409099,643.1862064761883 M1333.1120999932773,554.6748642506275 L1329.2122674663992,558.2525649393656 M1329.2122674663992,558.2525649393656 L1325.3769794801333,561.9120679231175 M1325.3769794801333,561.9120679231175 L1321.6151000711902,565.6440839316107 M1321.6151000711902,565.6440839316107 L1317.9355050361273,569.4390485088552 M1317.9355050361273,569.4390485088552 L1314.3465539124368,573.2875889310523 M1314.3465539124368,573.2875889310523 L1310.8565272200094,577.180150916116 M1310.8565272200094,577.180150916116 L1307.4733794074814,581.1072331176131 M1307.4733794074814,581.1072331176131 L1304.20462484277,585.0594769550421 M1304.20462484277,585.0594769550421 L1301.0577730306109,589.0273085018321 M1301.0577730306109,589.0273085018321 L1298.0398107436836,593.0013964626339 M1298.0398107436836,593.0013964626339 L1295.1575620414128,596.9723354374139 M1295.1575620414128,596.9723354374139 L1292.41757832455,600.9307581527974 M1292.41757832455,600.9307581527974 L1289.8260917348412,604.8673747598393 M1289.8260917348412,604.8673747598393 L1287.3889049403188,608.7730817807524 M1287.3889049403188,608.7730817807524 L1285.1117427108884,612.6386517067485 M1285.1117427108884,612.6386517067485 L1282.9998710570771,616.4550755489497 M1282.9998710570771,616.4550755489497 L1281.0582471830967,620.2134328528664 M1280.7918747555482,620.7500702221998 L1280.73826787316,620.7650223113765 M1280.73826787316,620.7650223113765 L1280.695587228487,620.7634529828265 M1280.695587228487,620.7634529828265 L1280.6662138048137,620.7455403505562 M1280.6662138048137,620.7455403505562 L1280.6518625195854,620.712320394234 M1280.6518625195854,620.712320394234 L1280.6534148402498,620.6656813481641 M1280.6534148402498,620.6656813481641 L1280.670750680567,620.6083560470167 M1280.670750680567,620.6083560470167 L1280.7028472646516,620.5436887306839 M1280.7028472646516,620.5436887306839 L1280.7478780141173,620.4754033213185 M1280.7478780141173,620.4754033213185 L1280.803183261442,620.4075045449586 M1280.803183261442,620.4075045449586 L1280.8655787335224,620.3439106316534 M1280.8655787335224,620.3439106316534 L1280.9314733065958,620.2882888939496 M1280.9314733065958,620.2882888939496 L1280.996926353132,620.2439695686153 M1280.996926353132,620.2439695686153 L1281.0582471830967,620.2134328528664 M1230.0868138116898,684.4858596524205 L1233.6950259855307,681.2558733308717 M1233.6950259855307,681.2558733308717 L1237.2804028828627,677.9042080917657 M1237.2804028828627,677.9042080917657 L1240.8313916138736,674.4408556823153 M1240.8313916138736,674.4408556823153 L1244.336512281313,670.8762497994767 M1244.336512281313,670.8762497994767 L1247.7842517523195,667.2213669268472 M1247.7842517523195,667.2213669268472 L1251.1631497643775,663.4876561242725 M1251.1631497643775,663.4876561242725 L1254.4620815292255,659.6867922122517 M1254.4620815292255,659.6867922122517 L1257.6698941750146,655.8309938914954 M1257.6698941750146,655.8309938914954 L1260.7758853212158,651.9326005732228 M1260.7758853212158,651.9326005732228 L1263.7695677416177,648.0042683598574 M1263.7695677416177,648.0042683598574 L1266.640889632688,644.0587686966455 M1266.640889632688,644.0587686966455 L1269.3801269746536,640.1090683873822 M1269.3801269746536,640.1090683873822 L1271.9781017021473,636.1681181128827 M1271.9781017021473,636.1681181128827 L1274.4261378710012,632.2488751356188 M1274.4261378710012,632.2488751356188 L1276.7160786954269,628.3642594981313 M1276.7160786954269,628.3642594981313 L1278.8403037334474,624.5271186423824 M1278.8403037334474,624.5271186423824 L1280.7918747555482,620.7500702221998 M1299.2112034824054,707.0864435041117 L1319.8605548982437,713.8774040982084 M1299.8560754525083,626.5636035293153 L1280.7918747555482,620.7500702221998 M1300.1230243733794,626.0236316151379 L1281.0582471830967,620.2134328528664 M1352.7838939374137,560.2001420755901 L1333.1120999932773,554.6748642506275 M1387.2647998655893,649.7841635134951 L1365.5576373409099,643.1862064761883 M1317.806826841454,707.0864597232005 L1297.2947489037233,700.3776217843802" stroke="black"  stroke-width="4"  fill="red"/>
<path d="M1226.0444129881384,679.8513939448253 L1234.7561085267598,672.158295732957 M1234.7561085267598,672.158295732957 L1234.9865227247033,672.2414323130502 M1234.9865227247033,672.2414323130502 L1235.2078071921183,672.3377580890904 M1235.2078071921183,672.3377580890904 L1235.4072528914385,672.4417270686881 M1235.4072528914385,672.4417270686881 L1235.5730886435667,672.5472442618959 M1235.5730886435667,672.5472442618959 L1235.6954469475531,672.6481047240297 M1235.6954469475531,672.6481047240297 L1235.7678117248079,672.7386420084201 M1235.7678117248079,672.7386420084201 L1235.7854425478117,672.8134182211095 M1235.7854425478117,672.8134182211095 L1235.7473028088857,672.8680811529287 M1235.7473028088857,672.8680811529287 L1235.6561219892783,672.8996149807563 M1235.6561219892783,672.8996149807563 L1235.5165908853996,672.9059858788114 M1235.5165908853996,672.9059858788114 L1235.3370448856958,672.8868923468947 M1235.3370448856958,672.8868923468947 L1235.1281081316924,672.843505103647 M1235.1281081316924,672.843505103647 L1234.9017892514867,672.7783006456968 M1234.9017892514867,672.7783006456968 L1234.6710334663198,672.695005269793 M1234.6710334663198,672.695005269793 L1234.4497235765402,672.598615451248 M1234.4497235765402,672.598615451248 L1234.2503413996337,672.4946161210325 M1234.2503413996337,672.4946161210325 L1234.084876536111,672.3891849315607 M1234.084876536111,672.3891849315607 L1233.9624658433577,672.2882973832886 M1233.9624658433577,672.2882973832886 L1233.8902833296092,672.1978359226978 M1233.8902833296092,672.1978359226978 L1233.8727943166195,672.1231452998641 M1233.8727943166195,672.1231452998641 L1233.9110028579066,672.0685580757988 M1233.9110028579066,672.0685580757988 L1234.0023972082613,672.0371485918326 M1234.0023972082613,672.0371485918326 L1234.1415916734368,672.0307123616938 M1234.1415916734368,672.0307123616938 L1234.3209735083533,672.0497755012298 M1234.3209735083533,672.0497755012298 L1234.5297234872291,672.093098714545 M1234.5297234872291,672.093098714545 L1234.7561085267598,672.158295732957 M1226.0444129881384,679.8513939448253 L1225.8196612373395,679.7860513718133 M1225.8196612373395,679.7860513718133 L1225.6122817430214,679.7426314164763 M1225.6122817430214,679.7426314164763 L1225.4339310294545,679.7235257029577 M1225.4339310294545,679.7235257029577 L1225.2953654775874,679.7299763075923 M1225.2953654775874,679.7299763075923 L1225.204164883511,679.761455935195 M1225.204164883511,679.761455935195 L1225.1657030855058,679.8161650419922 M1225.1657030855058,679.8161650419922 L1225.1825043036101,679.8910223905148 M1225.1825043036101,679.8910223905148 L1225.253604271219,679.98168571257 M1225.253604271219,679.98168571257 L1225.3746025323908,680.0827982996711 M1225.3746025323908,680.0827982996711 L1225.5384075378684,680.1884645637376 M1225.5384075378684,680.1884645637376 L1225.735975268201,680.2926956766366 M1225.735975268201,680.2926956766366 L1225.9554245908744,680.3893002304721 M1225.9554245908744,680.3893002304721 L1226.184379025844,680.4727811018502 M1226.184379025844,680.4727811018502 L1226.4090640718746,680.5381307233486 M1226.4090640718746,680.5381307233486 L1226.616628003951,680.5816145373651 M1226.616628003951,680.5816145373651 L1226.7951410357027,680.6007505619773 M1226.7951410357027,680.6007505619773 L1226.9340405470311,680.594365485845 M1226.9340405470311,680.594365485845 L1227.0250295615424,680.5627614757943 M1227.0250295615424,680.5627614757943 L1227.0634238366297,680.507976863729 M1227.0634238366297,680.507976863729 L1227.0464828800045,680.433034154268 M1227.0464828800045,680.433034154268 L1226.9752030368968,680.3422952112096 M1226.9752030368968,680.3422952112096 L1226.8542575671936,680.2412100089568 M1226.8542575671936,680.2412100089568 L1226.6900848526616,680.135457600024 M1226.6900848526616,680.135457600024 L1226.4924539763792,680.0312567565675 M1226.4924539763792,680.0312567565675 L1226.2730293137602,679.9347160739503 M1226.2730293137602,679.9347160739503 L1226.0444129881384,679.8513939448253 M1234.6469581891724,671.6937610756902 L1235.2227907659935,671.9014487291777 M1235.2227907659935,671.9014487291777 L1235.776070406655,672.142179809485 M1235.776070406655,672.142179809485 L1236.2746872581893,672.4020081209735 M1236.2746872581893,672.4020081209735 L1236.6894185380775,672.665782005055 M1236.6894185380775,672.665782005055 L1236.9961196722306,672.9181763641577 M1236.9961196722306,672.9181763641577 L1237.177023600576,673.1445470744923 M1237.177023600576,673.1445470744923 L1237.2213670339243,673.3316483100693 M1237.2213670339243,673.3316483100693 L1237.1264968528135,673.4685603890796 M1237.1264968528135,673.4685603890796 L1236.898041998285,673.5473354232263 M1236.898041998285,673.5473354232263 L1236.5491359748935,673.5633193296799 M1236.5491359748935,673.5633193296799 L1236.1000795176287,673.5155669083122 M1236.1000795176287,673.5155669083122 L1235.5772699983763,673.40693942193 M1235.5772699983763,673.40693942193 L1235.0111601600183,673.2437740343523 M1235.0111601600183,673.2437740343523 L1234.4344161204708,673.03549136469 M1234.4344161204708,673.03549136469 L1233.8809774494453,672.7943599248222 M1233.8809774494453,672.7943599248222 L1233.3827574820289,672.5343419133981 M1233.3827574820289,672.5343419133981 L1232.9688880597992,672.2706325132606 M1232.9688880597992,672.2706325132606 L1232.6633162003586,672.0185419885609 M1232.6633162003586,672.0185419885609 L1232.4835505719375,671.7926449374274 M1232.4835505719375,671.7926449374274 L1232.4400933868887,671.6060785994512 M1232.4400933868887,671.6060785994512 L1232.5353946786558,671.4696400834625 M1232.5353946786558,671.4696400834625 L1232.7637272095963,671.3911689634638 M1232.7637272095963,671.3911689634638 L1233.111985028354,671.3752495244426 M1233.111985028354,671.3752495244426 L1233.5600158364427,671.4228121530477 M1233.5600158364427,671.4228121530477 L1234.08165778263,671.5310393234358 M1234.08165778263,671.5310393234358 L1234.6469581891724,671.6937610756902 M1235.6739635006456,670.7865127894513 L1236.2503269140134,670.9941447226322 M1236.2503269140134,670.9941447226322 L1236.8041561397108,671.2348112753868 M1236.8041561397108,671.2348112753868 L1237.3033094611496,671.4945700101525 M1237.3033094611496,671.4945700101525 L1237.7185327082193,671.7582733350991 M1237.7185327082193,671.7582733350991 L1238.0256526531566,672.0106002490004 M1238.0256526531566,672.0106002490004 L1238.206877896589,672.2369105263842 M1238.206877896589,672.2369105263842 L1238.2514261889405,672.4239618540912 M1238.2514261889405,672.4239618540912 L1238.1566323731395,672.5608374366286 M1238.1566323731395,672.5608374366286 L1237.9281210059771,672.639591480938 M1237.9281210059771,672.639591480938 L1237.5790287266868,672.655571129246 M1237.5790287266868,672.655571129246 L1237.1296671249092,672.6078314300357 M1237.1296671249092,672.6078314300357 L1236.606451612825,672.4992328932092 M1236.606451612825,672.4992328932092 L1236.0398586488163,672.336111013507 M1236.0398586488163,672.336111013507 L1235.462582285349,672.1278839237214 M1235.462582285349,672.1278839237214 L1234.9085934624059,671.8868168875354 M1234.9085934624059,671.8868168875354 L1234.4098373017173,671.6268683941414 M1234.4098373017173,671.6268683941414 L1233.9954769691167,671.3632295730902 M1233.9954769691167,671.3632295730902 L1233.6894878935896,671.1112065875975 M1233.6894878935896,671.1112065875975 L1233.5094027177752,670.8853701159644 M1233.5094027177752,670.8853701159644 L1233.4657422090286,670.6988538513549 M1233.4657422090286,670.6988538513549 L1233.560968086585,670.5624519783594 M1233.560968086585,670.5624519783594 L1233.7893572798685,670.484001942229 M1233.7893572798685,670.484001942229 L1234.137800667837,670.4680867812997 M1234.137800667837,670.4680867812997 L1234.586135254558,670.5156366290255 M1234.586135254558,670.5156366290255 L1235.1081814622967,670.6238347260003 M1235.1081814622967,670.6238347260003 L1235.6739635006456,670.7865127894513 M1235.6739635006456,670.7865127894513 L1234.6469581891724,671.6937610756902" stroke="black"  stroke-width="4"  fill="red"/>
<path d="M-542.2356350652801,106.91866252295029 L-584.5478931697464,121.05638574199884 M-542.2356350652801,106.91866252295029 L-546.1671332700495,105.61177865103332 M-588.4766585147017,119.67604834789455 L-546.1671332700495,105.61177865103332 M-584.5478931697464,121.05638574199884 L-588.4766585147017,119.67604834789455 M-584.5478931697464,121.05638574199884 L-585.156597302476,87.37363886368558 M-585.156597302476,87.37363886368558 L-580.9584629693229,86.06168340025903 M-580.9584629693229,86.06168340025903 L-581.5176060309079,51.36685700729271 M-581.5176060309079,51.36685700729271 L-521.1762465490606,33.85514077588999 M-521.1762465490606,33.85514077588999 L-521.2379250576776,35.970405370832054 M-521.2379250576776,35.970405370832054 L-521.3750466108755,38.098002503872635 M-521.3750466108755,38.098002503872635 L-521.5870504614023,40.23235552339116 M-521.5870504614023,40.23235552339116 L-521.8731972884199,42.36775809784922 M-521.8731972884199,42.36775809784922 L-522.2325664919131,44.49866228368637 M-522.2325664919131,44.49866228368637 L-522.6640630549275,46.61945449269467 M-522.6640630549275,46.61945449269467 L-523.1664249483433,48.72459881393837 M-523.1664249483433,48.72459881393837 L-523.7382166601288,50.808701924358616 M-523.7382166601288,50.808701924358616 L-524.3778443936958,52.86629269331837 M-524.3778443936958,52.86629269331837 L-525.0835557785803,54.89210814199589 M-525.0835557785803,54.89210814199589 L-525.8534420904932,56.88090587506207 M-525.8534420904932,56.88090587506207 L-526.6854474359761,58.827534165527254 M-526.6854474359761,58.827534165527254 L-527.5773692688562,60.726962909164 M-527.5773692688562,60.726962909164 L-528.5268666090581,62.57435325766676 M-528.5268666090581,62.57435325766676 L-529.5314626539247,64.36487218635938 M-529.5314626539247,64.36487218635938 L-530.5885504374967,66.09390712423078 M-530.5885504374967,66.09390712423078 L-531.6953972340109,67.7569904841722 M-531.6953972340109,67.7569904841722 L-531.6826404932108,67.78351198894535 M-531.6826404932108,67.78351198894535 L-531.6753687126736,67.81527948533966 M-531.6753687126736,67.81527948533966 L-531.6740025854147,67.85050728573236 M-531.6740025854147,67.85050728573236 L-531.678622049471,67.88708723260248 M-531.678622049471,67.88708723260248 L-531.6889575268424,67.92291130385064 M-531.6889575268424,67.92291130385064 L-531.7044091099208,67.95591357211356 M-531.7044091099208,67.95591357211356 L-531.724079320026,67.98415253019618 M-531.724079320026,67.98415253019618 L-531.746824644373,68.00600773738262 M-531.746824644373,68.00600773738262 L-531.7713231526495,68.02020074113284 M-531.7713231526495,68.02020074113284 L-531.796152816675,68.02589171219006 M-531.796152816675,68.02589171219006 L-531.8198706268518,68.02277640842044 M-531.8198706268518,68.02277640842044 L-531.8410970872226,68.01104025248856 M-531.8410970872226,68.01104025248856 L-531.8585991933918,67.99131196274897 M-531.8585991933918,67.99131196274897 L-532.9704505367213,69.66220827899122 M-532.9704505367213,69.66220827899122 L-534.0322783390052,71.39996293204979 M-534.0322783390052,71.39996293204979 L-535.0408442334846,73.19930142180272 M-535.0408442334846,73.19930142180272 L-535.9930840118365,75.05471701179852 M-535.9930840118365,75.05471701179852 L-536.8861190489725,76.96055134094206 M-536.8861190489725,76.96055134094206 L-537.717263748197,78.91100192241294 M-537.717263748197,78.91100192241294 L-538.4840381346817,80.90013168705536 M-538.4840381346817,80.90013168705536 L-539.184173992398,82.92184096330152 M-539.184173992398,82.92184096330152 L-539.8156238044173,84.9699844112418 M-539.8156238044173,84.9699844112418 L-540.3765675655143,87.03830764914824 M-540.3765675655143,87.03830764914824 L-540.8654167107308,89.12056252940704 M-540.8654167107308,89.12056252940704 L-541.2808201056253,91.21037230639399 M-541.2808201056253,91.21037230639399 L-541.6216667890151,93.30148927057178 M-541.6216667890151,93.30148927057178 L-541.8870880362849,95.38758707557349 M-541.8870880362849,95.38758707557349 L-542.0764589898331,97.46241020698221 M-542.0764589898331,97.46241020698221 L-542.1893986087955,99.51981490800165 M-542.1893986087955,99.51981490800165 L-542.2257687875374,101.55370300642238 M-542.2257687875374,101.55370300642238 L-542.2356350652801,106.91866252295029 M-542.2257687875374,101.55370300642238 L-546.1671327548191,100.25734714903479 M-546.1671327548191,100.25734714903479 L-546.1671332700495,105.61177865103332 M-546.1671327548191,100.25734714903479 L-546.1344827557225,98.22750237347145 M-546.1344827557225,98.22750237347145 L-546.0252599982227,96.17427672127604 M-546.0252599982227,96.17427672127604 L-545.8395919205866,94.10375548942477 M-545.8395919205866,94.10375548942477 L-545.577848891247,92.02206909316624 M-545.577848891247,92.02206909316624 L-545.2406449623725,89.93545911841852 M-545.2406449623725,89.93545911841852 L-544.828837989847,87.85023748918968 M-544.828837989847,87.85023748918968 L-544.3435282726734,85.77263731247382 M-544.3435282726734,85.77263731247382 L-543.7860561028393,83.70902015462957 M-543.7860561028393,83.70902015462957 L-543.1579994936253,81.66561894031247 M-543.1579994936253,81.66561894031247 L-542.4611679369399,79.64867253858085 M-542.4611679369399,79.64867253858085 L-541.6975986857981,77.66431073929942 M-541.6975986857981,77.66431073929942 L-540.8695498230411,75.71861752409058 M-540.8695498230411,75.71861752409058 L-539.9794915350483,73.81751439419094 M-539.9794915350483,73.81751439419094 L-539.0300999244796,71.96678835826378 M-539.0300999244796,71.96678835826378 L-538.0242444329834,70.17208243788235 M-538.0242444329834,70.17208243788235 L-536.9649804126556,68.43888820743803 M-536.9649804126556,68.43888820743803 L-535.8555378518311,66.7724653723941 M-535.8555378518311,66.7724653723941 L-535.8379883882235,66.79217081968261 M-535.8379883882235,66.79217081968261 L-535.8167270723213,66.80390396997302 M-535.8167270723213,66.80390396997302 L-535.7929888346956,66.80703617056383 M-535.7929888346956,66.80703617056383 L-535.7681543674453,66.80138102316425 M-535.7681543674453,66.80138102316425 L-535.7436670090508,66.78724074065968 M-535.7436670090508,66.78724074065968 L-535.7209481118351,66.76545205937543 M-535.7209481118351,66.76545205937543 L-535.7013180559577,66.73728954915538 M-535.7013180559577,66.73728954915538 L-535.6859180600636,66.70436925051183 M-535.6859180600636,66.70436925051183 L-535.6756425613992,66.6686278611565 M-535.6756425613992,66.6686278611565 L-535.6710880111368,66.63212653803316 M-535.6710880111368,66.63212653803316 L-535.6725202480859,66.59696877027523 M-535.6725202480859,66.59696877027523 L-535.6798553782608,66.56525852328667 M-535.6798553782608,66.56525852328667 L-535.6926691392719,66.53877827824891 M-525.2300218144137,32.71654433447509 L-525.2877933902888,34.82734624539876 M-525.2877933902888,34.82734624539876 L-525.421032476879,36.9503961792779 M-525.421032476879,36.9503961792779 L-525.6291888324661,39.080128727544434 M-525.6291888324661,39.080128727544434 L-525.91153369615,41.21084913288621 M-525.91153369615,41.21084913288621 L-526.2671565390622,43.33702077486612 M-526.2671565390622,43.33702077486612 L-526.6949723453218,45.45304160828272 M-526.6949723453218,45.45304160828272 L-527.1937287519004,47.5533871954774 M-527.1937287519004,47.5533871954774 L-527.7619994516558,49.63267550486694 M-527.7619994516558,49.63267550486694 L-528.3981998114987,51.6854469685253 M-528.3981998114987,51.6854469685253 L-529.1005860509531,53.70644986964737 M-529.1005860509531,53.70644986964737 L-529.8672578145995,55.690453171858564 M-529.8672578145995,55.690453171858564 L-530.6961672345565,57.632316466183 M-530.6961672345565,57.632316466183 L-531.5851193932313,59.52702087644258 M-531.5851193932313,59.52702087644258 L-532.5317804225008,61.36973855745913 M-532.5317804225008,61.36973855745913 L-533.53368046638,63.15564765119393 M-533.53368046638,63.15564765119393 L-534.5882189512556,64.88014648788425 M-534.5882189512556,64.88014648788425 L-535.6926691392719,66.53877827824891 M-525.2300218144137,32.71654433447509 L-585.5698718749494,50.135158672130956 M-584.9482980329074,84.75673726435463 L-585.5698718749494,50.135158672130956 M-584.9482980329074,84.75673726435463 L-589.1458744629736,86.0616836622699 M-588.4766585147017,119.67604834789455 L-589.1458744629736,86.0616836622699 M-589.1458744629736,86.0616836622699 L-585.156597302476,87.37363886368558 M-531.8585991933918,67.99131196274897 L-535.8555378518311,66.7724653723941 M-531.6953972340109,67.7569904841722 L-535.6926691392719,66.53877827824891 M-521.1762465490606,33.85514077588999 L-525.2300218144137,32.71654433447509 M-581.5176060309079,51.36685700729271 L-585.5698718749494,50.135158672130956 M-580.9584629693229,86.06168340025903 L-584.9482980329074,84.75673726435463" stroke="black"  stroke-width="4"  fill="red"/>
<path d="M-533.777573949515,102.78960857810779 L-533.749216579319,97.88691480666131 M-533.749216579319,97.88691480666131 L-533.705627981805,97.90494083114527 M-533.705627981805,97.90494083114527 L-533.6763977144453,97.92582462267495 M-533.6763977144453,97.92582462267495 L-533.663224721817,97.9483526440631 M-533.663224721817,97.9483526440631 L-533.6668776259047,97.97121627137034 M-533.6668776259047,97.97121627137034 L-533.6871458805986,97.99308635651056 M-533.6871458805986,97.99308635651056 L-533.7228539956105,98.01269180574013 M-533.7228539956105,98.01269180574013 L-533.7719270981875,98.02889230082292 M-533.7719270981875,98.02889230082292 L-533.8315138170892,98.04074577460187 M-533.8315138170892,98.04074577460187 L-533.8981493467638,98.04756245728151 M-533.8981493467638,98.04756245728151 L-533.9679602461833,98.04894595490589 M-533.9679602461833,98.04894595490589 L-534.0368861846468,98.04481561063318 M-534.0368861846468,98.04481561063318 L-534.1009204167694,98.03541204249507 M-534.1009204167694,98.03541204249507 L-534.1563387861258,98.02128187765919 M-534.1563387861258,98.02128187765919 L-534.1999210799136,98.0032475338445 M-534.1999210799136,98.0032475338445 L-534.229134016864,97.98235727936742 M-534.229134016864,97.98235727936742 L-534.2422824259223,97.9598261962002 M-534.2422824259223,97.9598261962002 L-534.238603316427,97.93696360963906 M-534.238603316427,97.93696360963906 L-534.2183132381801,97.91509842933397 M-534.2183132381801,97.91509842933397 L-534.1825926807312,97.89550062546766 M-534.1825926807312,97.89550062546766 L-534.1335193673972,97.87930876474002 M-534.1335193673972,97.87930876474002 L-534.0739447176979,97.86746293637589 M-534.0739447176979,97.86746293637589 L-534.0073307721309,97.86065115855081 M-534.0073307721309,97.86065115855081 L-533.937546027312,97.85926870169635 M-533.937546027312,97.85926870169635 L-533.8686448218915,97.86339598410996 M-533.8686448218915,97.86339598410996 L-533.8046282356847,97.8727930894106 M-533.8046282356847,97.8727930894106 L-533.749216579319,97.88691480666131 M-533.777573949515,102.78960857810779 L-533.8328582757749,102.7753810499164 M-533.8328582757749,102.7753810499164 L-533.8967281549345,102.76591353314353 M-533.8967281549345,102.76591353314353 L-533.9654717987291,102.76175532520199 M-533.9654717987291,102.76175532520199 L-534.0350972721153,102.76314814075647 M-534.0350972721153,102.76314814075647 L-534.101559484662,102.77001095873328 M-534.101559484662,102.77001095873328 L-534.1609987472157,102.7819455460048 M-534.1609987472157,102.7819455460048 L-534.209960884654,102.79825872768129 M-534.209960884654,102.79825872768129 L-534.2456009374449,102.81800336902245 M-534.2456009374449,102.81800336902245 L-534.2658458674036,102.8400323710589 M-534.2658458674036,102.8400323710589 L-534.2695178161027,102.86306624757333 M-534.2695178161027,102.86306624757333 L-534.2564006612342,102.88576613231692 M-534.2564006612342,102.88576613231692 L-534.2272555844952,102.90681289120573 M-534.2272555844952,102.90681289120573 L-534.1837738223647,102.92498234045644 M-534.1837738223647,102.92498234045644 L-534.1284828137616,102.93921836023299 M-534.1284828137616,102.93921836023299 L-534.0645953695541,102.94869237339293 M-534.0645953695541,102.94869237339293 L-533.9958271057307,102.95285365908813 M-533.9958271057307,102.95285365908813 L-533.9261755970161,102.95145979736094 M-533.9261755970161,102.95145979736094 L-533.859691898567,102.94459204906781 M-533.859691898567,102.94459204906781 L-533.8002406214521,102.93264977669298 M-533.8002406214521,102.93264977669298 L-533.7512786933303,102.91632791583936 M-533.7512786933303,102.91632791583936 L-533.7156510257837,102.89657558944685 M-533.7156510257837,102.89657558944685 L-533.6954278195359,102.87454165711341 M-533.6954278195359,102.87454165711341 L-533.6917819566247,102.8515067344506 M-533.6917819566247,102.8515067344506 L-533.7049235830707,102.82880992738001 M-533.7049235830707,102.82880992738001 L-533.7340859115077,102.80776966498843 M-533.7340859115077,102.80776966498843 L-533.777573949515,102.78960857810779 M-533.4440183555059,97.78618684163763 L-533.3350366915936,97.83123654582977 M-533.3350366915936,97.83123654582977 L-533.2619278710513,97.8834336235119 M-533.2619278710513,97.8834336235119 L-533.2289495957943,97.9397480975145 M-533.2289495957943,97.9397480975145 L-533.2380326250051,97.9969088932288 M-533.2380326250051,97.9969088932288 L-533.2886625166625,98.05159349778904 M-533.2886625166625,98.05159349778904 L-533.3779085793856,98.10062123902611 M-533.3779085793856,98.10062123902611 L-533.5005909290096,98.1411386775394 M-533.5005909290096,98.1411386775394 L-533.6495796833212,98.1707864207396 M-533.6495796833212,98.1707864207396 L-533.8162095860828,98.18783739685063 M-533.8162095860828,98.18783739685063 L-533.9907852221318,98.19129806221576 M-533.9907852221318,98.19129806221576 L-534.1631469589558,98.1809665511592 M-534.1631469589558,98.1809665511592 L-534.3232647647098,98.15744527762365 M-534.3232647647098,98.15744527762365 L-534.4618239688382,98.12210455092054 M-534.4618239688382,98.12210455092054 L-534.5707672685162,98.07700251413644 M-534.5707672685162,98.07700251413644 L-534.6437679722901,98.02476497927188 M-534.6437679722901,98.02476497927188 L-534.6765924026379,97.96843143327192 M-534.6765924026379,97.96843143327192 L-534.6673456890045,97.91127711023688 M-534.6673456890045,97.91127711023688 L-534.6165793998391,97.8566231610751 M-534.6165793998391,97.8566231610751 L-534.5272555721151,97.80764320320247 M-534.5272555721151,97.80764320320247 L-534.404571905243,97.76717972942805 M-534.404571905243,97.76717972942805 L-534.2556585832149,97.73757976959297 M-534.2556585832149,97.73757976959297 L-534.0891635814328,97.72055944891724 M-534.0891635814328,97.72055944891724 L-533.914751312293,97.7171053203071 M-533.914751312293,97.7171053203071 L-533.7425443546007,97.72741763091699 M-533.7425443546007,97.72741763091699 L-533.5825366375293,97.75089857538137 M-533.5825366375293,97.75089857538137 L-533.4440183555059,97.78618684163763 M-533.4406022059688,97.20971044820277 L-533.3315909706498,97.25472032028188 M-533.3315909706498,97.25472032028188 L-533.2584621573269,97.30687124899833 M-533.2584621573269,97.30687124899833 L-533.2254746346666,97.36313593700135 M-533.2254746346666,97.36313593700135 L-533.2345597065996,97.42024620198572 M-533.2345597065996,97.42024620198572 L-533.2852028197626,97.47488246807438 M-533.2852028197626,97.47488246807438 L-533.3744725206955,97.52386687395239 M-533.3744725206955,97.52386687395239 L-533.4971875551056,97.5643485012634 M-533.4971875551056,97.5643485012634 L-533.6462161413167,97.59397004152072 M-533.6462161413167,97.59397004152072 L-533.8128907047349,97.61100594825228 M-533.8128907047349,97.61100594825228 L-533.9875132285117,97.61446355517484 M-533.9875132285117,97.61446355517484 L-534.1599213476923,97.60414117486681 M-534.1599213476923,97.60414117486681 L-534.3200823277986,97.58064068931083 M-534.3200823277986,97.58064068931083 L-534.4586789841089,97.54533119767433 M-534.4586789841089,97.54533119767433 L-534.5676518349787,97.50026902520585 M-534.5676518349787,97.50026902520585 L-534.6406724736607,97.44807766423293 M-534.6406724736607,97.44807766423293 L-534.6735060689379,97.39179391595758 M-534.6735060689379,97.39179391595758 L-534.6642572245751,97.334690119676 M-534.6642572245751,97.334690119676 L-534.6134776404243,97.28008449011196 M-534.6134776404243,97.28008449011196 L-534.5241301323983,97.23114783817908 M-534.5241301323983,97.23114783817908 L-534.4014137796785,97.19072014238202 M-534.4014137796785,97.19072014238202 L-534.2524606659632,97.16114635607062 M-534.2524606659632,97.16114635607062 L-534.0859210757977,97.14414108590063 M-534.0859210757977,97.14414108590063 L-533.9114620066816,97.14069001170003 M-533.9114620066816,97.14069001170003 L-533.7392087498595,97.15099320339982 M-533.7392087498595,97.15099320339982 L-533.5791579178979,97.17445338469702 M-533.5791579178979,97.17445338469702 L-533.4406022059688,97.20971044820277 M-533.4406022059688,97.20971044820277 L-533.4440183555059,97.78618684163763" stroke="black"  stroke-width="4"  fill="red"/>
<path d="M-584.9482980329074,84.75673726435463 L-589.1458744629736,86.0616836622699 M-589.1458744629736,86.0616836622699 L-589.8366009238684,51.366857254607396 M-585.5698718749494,50.135158672130956 L-589.8366009238684,51.366857254607396 M-584.9482980329074,84.75673726435463 L-585.5698718749494,50.135158672130956 M-584.5478931697464,121.05638574199884 L-500.49962939956947,150.58600922548675 M-500.49962939956947,150.58600922548675 L-500.3717325750488,144.72081851133933 M-500.3717325750488,144.72081851133933 L-403.01066369870284,178.56225511487165 M-403.4351215441219,184.68877639768002 L-403.01066369870284,178.56225511487165 M-403.4351215441219,184.68877639768002 L152.48933808692664,380.0079804094993 M152.48933808692664,380.0079804094993 L155.260903287563,372.61016419971554 M155.260903287563,372.61016419971554 L355.7727347220482,442.30545935271357 M351.88979631601364,450.06559004722806 L355.7727347220482,442.30545935271357 M351.88979631601364,450.06559004722806 L1235.2155551669348,760.4143813495602 M1235.2155551669348,760.4143813495602 L1299.2112034824054,707.0864435041117 M1299.2112034824054,707.0864435041117 L1319.8605548982437,713.8774040982084 M1319.8605548982437,713.8774040982084 L1389.8366009238684,656.4658986633438 M-589.8366009238684,51.366857254607396 L1389.8366009238684,656.4658986633438 M-589.1458744629736,86.0616836622699 L-585.156597302476,87.37363886368558 M-584.5478931697464,121.05638574199884 L-585.156597302476,87.37363886368558 M1317.806826841454,707.0864597232005 L1297.2947489037233,700.3776217843802 M1233.7387801607447,753.625526860046 L1297.2947489037233,700.3776217843802 M1233.7387801607447,753.625526860046 L354.5919472356138,446.4111383636583 M354.5919472356138,446.4111383636583 L358.4698022785392,438.6686829304342 M358.4698022785392,438.6686829304342 L158.52861834459304,369.5476339454863 M155.75510038831408,376.928387556837 L158.52861834459304,369.5476339454863 M155.75510038831408,376.928387556837 L-399.3387169879346,182.95304546754534 M-399.3387169879346,182.95304546754534 L-398.9033718609493,176.83954278252048 M-398.9033718609493,176.83954278252048 L-496.2310945473439,143.19267646396258 M-496.37016684548075,149.04578854924347 L-496.2310945473439,143.19267646396258 M-496.37016684548075,149.04578854924347 L-580.416732667432,119.67604807221551 M-580.416732667432,119.67604807221551 L-580.9584629693229,86.06168340025903 M-580.9584629693229,86.06168340025903 L-584.9482980329074,84.75673726435463 M1387.2647998655893,649.7841635134951 L-585.5698718749494,50.135158672130956 M1317.806826841454,707.0864597232005 L1387.2647998655893,649.7841635134951 M-584.5478931697464,121.05638574199884 L-580.416732667432,119.67604807221551 M-585.156597302476,87.37363886368558 L-580.9584629693229,86.06168340025903 M-496.37016684548075,149.04578854924347 L-500.49962939956947,150.58600922548675 M-496.2310945473439,143.19267646396258 L-500.3717325750488,144.72081851133933 M-403.4351215441219,184.68877639768002 L-399.3387169879346,182.95304546754534 M-403.01066369870284,178.56225511487165 L-398.9033718609493,176.83954278252048 M155.75510038831408,376.928387556837 L152.48933808692664,380.0079804094993 M158.52861834459304,369.5476339454863 L155.260903287563,372.61016419971554 M351.88979631601364,450.06559004722806 L354.5919472356138,446.4111383636583 M355.7727347220482,442.30545935271357 L358.4698022785392,438.6686829304342 M1233.7387801607447,753.625526860046 L1235.2155551669348,760.4143813495602 M1297.2947489037233,700.3776217843802 L1299.2112034824054,707.0864435041117 M1319.8605548982437,713.8774040982084 L1317.806826841454,707.0864597232005 M1389.8366009238684,656.4658986633438 L1387.2647998655893,649.7841635134951" stroke="black"  stroke-width="4"  fill="red"/></svg>