<svg viewBox="0 0 800 800" xmlns="http://www.w3.org/2000/svg"><path d="M-208.10189738630197,31.580195814813806 L-224.89759748658457,41.27719778894016 M-224.89759713605974,37.63443702853772 L-224.89759748658457,41.27719778894016 M-224.89759713605974,37.63443702853772 L-224.89769167646693,37.60088993462284 M-224.89769167646693,37.60088993462284 L-224.89774840235998,37.56731944365271 M-224.89774840235998,37.56731944365271 L-224.89776731148083,37.53372593232109 M-208.0666630430634,27.857507782507355 L-224.89776731148083,37.53372593232109 M-208.10189738630197,31.580195814813806 L-208.0666630430634,27.857507782507355 M997.8416243784907,747.2258598039673 L987.3994512376371,741.197069669902 M975.5759078669314,800.3791597875852 L987.3994512376371,741.197069669902 M975.5759078669314,800.3791597875852 L440.1605570488209,478.3060452899442 M437.4193700714018,482.4953468645932 L440.1605570488209,478.3060452899442 M301.72145061282185,400.50615233541316 L437.4193700714018,482.4953468645932 M304.69630228319295,396.8190382984519 L301.72145061282185,400.50615233541316 M304.69630228319295,396.8190382984519 L-106.90735915492155,149.2234604439035 M-110.26595507213574,151.58180859419065 L-106.90735915492155,149.2234604439035 M-187.7966387188776,104.73747723778138 L-110.26595507213574,151.58180859419065 M-184.42065558093782,102.5962041339011 L-187.7966387188776,104.73747723778138 M-184.42065558093782,102.5962041339011 L-253.01729781319818,61.33266140195224 M-221.65557084871637,43.148982325081136 L-253.01729781319818,61.33266140195224 M-221.65557084871637,43.148982325081136 L-224.89759748658457,41.27719778894016 M1003.8353834893421,716.0813738789952 L-208.10189738630197,31.580195814813806 M997.8416243784907,747.2258598039673 L1003.8353834893421,716.0813738789952 M-214.666265052148,37.22939019502667 L-214.7118690362547,37.208963851357964 M-214.7118690362547,37.208963851357964 L-214.76458014073614,37.19537130537424 M-214.76458014073614,37.19537130537424 L-214.8213348490035,37.18940132406476 M-214.8213348490035,37.18940132406476 L-214.87883712041184,37.19140100538698 M-214.87883712041184,37.19140100538698 L-214.9337458760731,37.20125400410063 M-214.9337458760731,37.20125400410063 L-214.98287211246793,37.218388468591286 M-214.98287211246793,37.218388468591286 L-215.02336082523027,37.24180904473269 M-215.02336082523027,37.24180904473269 L-215.05285941025045,37.270155760673674 M-215.05285941025045,37.270155760673674 L-215.06965221018186,37.301781600763036 M-215.06965221018186,37.301781600763036 L-215.0727624871106,37.33484957072665 M-215.0727624871106,37.33484957072665 L-215.06200755524787,37.36743754048473 M-215.06200755524787,37.36743754048473 L-215.0380118125729,37.39765182595221 M-215.0380118125729,37.39765182595221 L-215.00216789183014,37.4237351534174 M-215.00216789183014,37.4237351534174 L-214.95655934696583,37.44417158008417 M-214.95655934696583,37.44417158008417 L-214.90383628316886,37.45777182759508 M-214.90383628316886,37.45777182759508 L-214.84706479486965,37.46374545761046 M-214.84706479486965,37.46374545761046 L-214.7895447664955,37.46174453604044 M-214.7895447664955,37.46174453604044 L-214.73462134507645,37.451885692391045 M-214.73462134507645,37.451885692391045 L-214.68548689371278,37.43474211713885 M-214.68548689371278,37.43474211713885 L-214.64499829882016,37.41131125175218 M-214.64499829882016,37.41131125175218 L-214.6155081375066,37.382955425110765 M-214.6155081375066,37.382955425110765 L-214.598730137247,37.351323740108626 M-214.598730137247,37.351323740108626 L-214.59563764569884,37.31825452992615 M-214.59563764569884,37.31825452992615 L-214.60640927399788,37.28567020877824 M-214.60640927399788,37.28567020877824 L-214.63041679953596,37.25546362496891 M-214.63041679953596,37.25546362496891 L-214.666265052148,37.22939019502667 M995.7440264543641,728.2287715046953 L995.6121583139409,728.1635101582278 M995.6121583139409,728.1635101582278 L995.4845573559433,728.1201428213378 M995.4845573559433,728.1201428213378 L995.3684158269418,728.1010599179479 M995.3684158269418,728.1010599179479 L995.2707094285288,728.1075028447149 M995.2707094285288,728.1075028447149 L995.1968460722367,728.1389446605581 M995.1968460722367,728.1389446605581 L995.1511594268163,728.1935866991678 M995.1511594268163,728.1935866991678 L995.1364686571392,728.268349494037 M995.1364686571392,728.268349494037 L995.1536312794831,728.3588939878773 M995.1536312794831,728.3588939878773 L995.2014931896622,728.459868482943 M995.2014931896622,728.459868482943 L995.277235759057,728.5653841619576 M995.277235759057,728.5653841619576 L995.3767289717932,728.6694604535339 M995.3767289717932,728.6694604535339 L995.4939612320766,728.7659159442212 M995.4939612320766,728.7659159442212 L995.6223378691072,728.84926368691 M995.6223378691072,728.84926368691 L995.754131373684,728.914506302166 M995.754131373684,728.914506302166 L995.8818043781257,728.9579175555621 M995.8818043781257,728.9579175555621 L995.9980155707074,728.9770213043146 M995.9980155707074,728.9770213043146 L996.0959058254853,728.9706470209662 M996.0959058254853,728.9706470209662 L996.1696575977535,728.9390960870239 M996.1696575977535,728.9390960870239 L996.2153304663982,728.8844021223861 M996.2153304663982,728.8844021223861 L996.2299755885099,728.8095806236033 M996.2299755885099,728.8095806236033 L996.212745926749,728.7189841241375 M996.212745926749,728.7189841241375 L996.1649437302201,728.6180520405705 M996.1649437302201,728.6180520405705 L996.0890062796698,728.512453539967 M996.0890062796698,728.512453539967 L995.9894757993661,728.4083980651119 M995.9894757993661,728.4083980651119 L995.8722397973986,728.3119864995588 M995.8722397973986,728.3119864995588 L995.7440264543641,728.2287715046953 M-221.64886461287824,39.50235036134586 L-224.89759713605974,37.63443702853772 M-221.64886461287824,39.50235036134586 L-221.65557084871637,43.148982325081136 M-221.64884920954466,39.401532096661924 L-221.64889216242398,39.43516142756073 M-221.64889216242398,39.43516142756073 L-221.64889729634638,39.46876764148675 M-221.64889729634638,39.46876764148675 L-221.64886461287824,39.50235036134586 M-224.89776731148083,37.53372593232109 L-221.64884920954466,39.401532096661924 M992.0182401841253,737.1399175844779 L1002.5180171932072,743.1762495591377 M1002.5180171932072,743.1762495591377 L1008.442271095359,711.9943828700684 M1008.442271095359,711.9943828700684 L-208.0666630430634,27.857507782507355 M-221.64884920954466,39.401532096661924 L-253.07830226423425,57.5473352782696 M-253.07830226423425,57.5473352782696 L-184.32881762264833,98.7310356513708 M-184.32881762264833,98.7310356513708 L-187.71226905678373,100.86838853661095 M-187.71226905678373,100.86838853661095 L-109.99233652603618,147.63246506304358 M-109.99233652603618,147.63246506304358 L-106.62639450688516,145.27790547223674 M-106.62639450688516,145.27790547223674 L306.2736110729778,392.62157942854833 M306.2736110729778,392.62157942854833 L303.2945846181368,396.307168944364 M303.2945846181368,396.307168944364 L439.5289247341607,478.27935933700667 M439.5289247341607,478.27935933700667 L442.27211714275563,474.090142492935 M442.27211714275563,474.090142492935 L980.3214536376622,796.4032881939349 M992.0182401841253,737.1399175844779 L980.3214536376622,796.4032881939349 M-214.39230454147014,33.34909320326773 L-214.30248627510457,33.414118452355524 M-214.30248627510457,33.414118452355524 L-214.24231612624226,33.48945774764144 M-214.24231612624226,33.48945774764144 L-214.21529697992582,33.570736864380535 M-214.21529697992582,33.570736864380535 L-214.22300891562486,33.65323422184741 M-214.22300891562486,33.65323422184741 L-214.26501281475123,33.73215473909232 M-214.26501281475123,33.73215473909232 L-214.33887556252955,33.80290874581533 M-214.33887556252955,33.80290874581533 L-214.4403091438396,33.861379350504535 M-214.4403091438396,33.861379350504535 L-214.56341855067944,33.904162881690525 M-214.56341855067944,33.904162881690525 L-214.70104460258472,33.92876809680115 M-214.70104460258472,33.92876809680115 L-214.8451811410623,33.933761934494385 M-214.8451811410623,33.933761934494385 L-214.9874419851344,33.91885323705941 M-214.9874419851344,33.91885323705941 L-215.11955063436517,33.88491089458864 M-215.11955063436517,33.88491089458864 L-215.2338231815679,33.83391146004959 M-215.2338231815679,33.83391146004959 L-215.32361511573595,33.76882386686981 M-215.32361511573595,33.76882386686981 L-215.3837114748751,33.693436346140174 M-215.3837114748751,33.693436346140174 L-215.41062566497385,33.61213451907696 M-215.41062566497385,33.61213451907696 L-215.40280218233568,33.529644866479714 M-215.40280218233568,33.529644866479714 L-215.3607053931131,33.450760878618325 M-215.3607053931131,33.450760878618325 L-215.28678977336176,33.38006381119118 M-215.28678977336176,33.38006381119118 L-215.18535545068266,33.3216575116042 M-215.18535545068266,33.3216575116042 L-215.06229760292297,33.27893091971134 M-215.06229760292297,33.27893091971134 L-214.92476359883938,33.25436223402403 M-214.92476359883938,33.25436223402403 L-214.78073842859544,33.24937619367648 M-214.78073842859544,33.24937619367648 L-214.6385830665356,33.26426199548109 M-214.6385830665356,33.26426199548109 L-214.50654931685688,33.298156297418814 M-214.50654931685688,33.298156297418814 L-214.39230454147014,33.34909320326773 M1000.4465877896366,723.6900873230818 L1000.7688876105299,723.8982634882827 M1000.7688876105299,723.8982634882827 L1001.0638700535176,724.1395293868877 M1001.0638700535176,724.1395293868877 L1001.314407669661,724.399897100232 M1001.314407669661,724.399897100232 L1001.505798903152,724.6641783991934 M1001.505798903152,724.6641783991934 L1001.626905559245,724.9170203924139 M1001.626905559245,724.9170203924139 L1001.6707380211367,725.1437610684457 M1001.6707380211367,725.1437610684457 L1001.6346255342528,725.3311455995761 M1001.6346255342528,725.3311455995761 L1001.5206421429725,725.4682520864478 M1001.5206421429725,725.4682520864478 L1001.33549179183,725.5471340387121 M1001.33549179183,725.5471340387121 L1001.0898579885927,725.5631391992827 M1001.0898579885927,725.5631391992827 L1000.7980255475297,725.5153228396989 M1000.7980255475297,725.5153228396989 L1000.4771132389742,725.4065449693005 M1000.4771132389742,725.4065449693005 L1000.1457925158222,725.2431408055188 M1000.1457925158222,725.2431408055188 L999.8231653270661,725.0345308448116 M999.8231653270661,725.0345308448116 L999.5282055902096,724.7929889880731 M999.5282055902096,724.7929889880731 L999.2779022151597,724.532490519146 M999.2779022151597,724.532490519146 L999.0869030704159,724.2682536674108 M999.0869030704159,724.2682536674108 L998.9662564881994,724.0156210998916 M998.9662564881994,724.0156210998916 L998.9228468158601,723.7892069056234 M998.9228468158601,723.7892069056234 L998.9592478259326,723.6021910663037 M998.9592478259326,723.6021910663037 L999.0733193582516,723.4654109947396 M999.0733193582516,723.4654109947396 L999.2583374542705,723.3867385229596 M999.2583374542705,723.3867385229596 L999.5036487248067,723.3707777981874 M999.5036487248067,723.3707777981874 L999.7950422267566,723.418463338335 M999.7950422267566,723.418463338335 L1000.1154999457997,723.526965280824 M1000.1154999457997,723.526965280824 L1000.4465877896366,723.6900873230818 M1003.8353834893421,716.0813738789952 L1008.442271095359,711.9943828700684 M1002.3919391965799,743.285170591113 L991.8937195212275,737.2490428513215 M1002.3919391965799,743.285170591113 L997.8416243784907,747.2258598039673 M991.8937195212275,737.2490428513215 L987.3994512376371,741.197069669902 M991.8937195212275,737.2490428513215 L991.9352094133897,737.2127406667134 M991.9352094133897,737.2127406667134 L991.9767164569923,737.1763654427873 M991.9767164569923,737.1763654427873 L992.0182401841253,737.1399175844779 M975.5759078669314,800.3791597875852 L980.3214536376622,796.4032881939349 M440.1605570488209,478.3060452899442 L442.27211714275563,474.090142492935 M437.4193700714018,482.4953468645932 L439.5289247341607,478.27935933700667 M301.72145061282185,400.50615233541316 L303.2945846181368,396.307168944364 M304.69630228319295,396.8190382984519 L306.2736110729778,392.62157942854833 M-106.90735915492155,149.2234604439035 L-106.62639450688516,145.27790547223674 M-110.26595507213574,151.58180859419065 L-109.99233652603618,147.63246506304358 M-187.7966387188776,104.73747723778138 L-187.71226905678373,100.86838853661095 M-184.42065558093782,102.5962041339011 L-184.32881762264833,98.7310356513708 M-253.01729781319818,61.33266140195224 L-253.07830226423425,57.5473352782696 M1002.5180171932072,743.1762495591377 L1002.4759747218548,743.2126298813114 M1002.4759747218548,743.2126298813114 L1002.433948565036,743.2489370266724 M1002.433948565036,743.2489370266724 L1002.3919391965799,743.285170591113 M-214.666265052148,37.22939019502667 L-214.64693450137122,33.88733942527074 M-214.64693450137122,33.88733942527074 L-214.61101794315528,33.913362727240155 M-214.61101794315528,33.913362727240155 L-214.58696438853917,33.94351124045187 M-214.58696438853917,33.94351124045187 L-214.57617168452146,33.976032924317224 M-214.57617168452146,33.976032924317224 L-214.57926928542156,34.00903856976913 M-214.57926928542156,34.00903856976913 L-214.59607828816138,34.04060945760585 M-214.59607828816138,34.04060945760585 L-214.62562354899478,34.06891078704365 M-214.62562354899478,34.06891078704365 L-214.6661881399059,34.09229662313908 M-214.6661881399059,34.09229662313908 L-214.7154150681015,34.10940725346842 M-214.7154150681015,34.10940725346842 L-214.7704420688533,34.119247151883656 M-214.7704420688533,34.119247151883656 L-214.82807075625624,34.12124422843624 M-214.82807075625624,34.12124422843624 L-214.8849496612131,34.11528207753821 M-214.8849496612131,34.11528207753821 L-214.93777265289327,34.101707965266485 M-214.93777265289327,34.101707965266485 L-214.98346782366286,34.08131081223854 M-214.98346782366286,34.08131081223854 L-215.01938003414614,34.05527761293081 M-215.01938003414614,34.05527761293081 L-215.04342176149612,34.025121398340616 M-215.04342176149612,34.025121398340616 L-215.05419770600076,33.992596065997645 M-215.05419770600076,33.992596065997645 L-215.05108225241747,33.959591660719525 M-215.05108225241747,33.959591660719525 L-215.03425839389752,33.928026617583384 M-215.03425839389752,33.928026617583384 L-215.00470467729565,33.89973439851508 M-215.00470467729565,33.89973439851508 L-214.96413996784554,33.87635885129123 M-214.96413996784554,33.87635885129123 L-214.91492128549498,33.85925733139271 M-214.91492128549498,33.85925733139271 L-214.85990900584898,33.84942327770102 M-214.85990900584898,33.84942327770102 L-214.8022981425529,33.8474274413511 M-214.8022981425529,33.8474274413511 L-214.74543608117938,33.85338594367579 M-214.74543608117938,33.85338594367579 L-214.69262509421992,33.866952354700004 M-214.69262509421992,33.866952354700004 L-214.64693450137122,33.88733942527074 M995.7440264543641,728.2287715046953 L999.8705348741071,724.5847467101596 M999.8705348741071,724.5847467101596 L999.9994012220932,724.6680491635484 M999.9994012220932,724.6680491635484 L1000.1172879842643,724.7645620944979 M1000.1172879842643,724.7645620944979 L1000.2174295801628,724.8687270164007 M1000.2174295801628,724.8687270164007 L1000.2939024850205,724.9744366347677 M1000.2939024850205,724.9744366347677 L1000.3421327103647,725.0754749707353 M1000.3421327103647,725.0754749707353 L1000.359659750248,725.166166879626 M1000.359659750248,725.166166879626 L1000.3451625759697,725.2410672014771 M1000.3451625759697,725.2410672014771 L1000.2994795885004,725.295818800473 M1000.2994795885004,725.295818800473 L1000.2255616412967,725.3274029874217 M1000.2255616412967,725.3274029874217 L1000.1273571218107,725.3337839894464 M1000.1273571218107,725.3337839894464 L1000.0107024705053,725.3146601053215 M1000.0107024705053,725.3146601053215 L999.8824831211509,725.2712031022668 M999.8824831211509,725.2712031022668 L999.7500717688283,725.205891745301 M999.7500717688283,725.205891745301 L999.6210411200211,725.1224562114658 M999.6210411200211,725.1224562114658 L999.5031580086079,725.0258991604867 M999.5031580086079,725.0258991604867 L999.4030538776237,724.9217133294997 M999.4030538776237,724.9217133294997 L999.3267769425597,724.81608664382 M999.3267769425597,724.81608664382 L999.2784869375175,724.7150059645546 M999.2784869375175,724.7150059645546 L999.261027528838,724.6243662920374 M999.261027528838,724.6243662920374 L999.2755708152893,724.5495249345681 M999.2755708152893,724.5495249345681 L999.3212678103093,724.4948254919955 M999.3212678103093,724.4948254919955 L999.3952979355302,724.4633506509222 M999.3952979355302,724.4633506509222 L999.4933176222248,724.4569009572879 M999.4933176222248,724.4569009572879 L999.609902082871,724.4760039035602 M999.609902082871,724.4760039035602 L999.7380487814903,724.519416795252 M999.7380487814903,724.519416795252 L999.8705348741071,724.5847467101596 M-214.39230454147014,33.34909320326773 L-214.39463238327448,33.74191729753352 M-214.39463238327448,33.74191729753352 L-214.30483419372513,33.80695733950779 M-214.30483419372513,33.80695733950779 L-214.24467758195533,33.88231377138868 M-214.24467758195533,33.88231377138868 L-214.21766464356097,33.96361137256196 M-214.21766464356097,33.96361137256196 L-214.22537509307404,34.046127488090235 M-214.22537509307404,34.046127488090235 L-214.26736989415053,34.125065946873974 M-214.26736989415053,34.125065946873974 L-214.3412164572178,34.19583603590348 M-214.3412164572178,34.19583603590348 L-214.44262770571117,34.25431992898075 M-214.44262770571117,34.25431992898075 L-214.56570992951242,34.29711318231642 M-214.56570992951242,34.29711318231642 L-214.70330552990072,34.32172398830744 M-214.70330552990072,34.32172398830744 L-214.8474101215878,34.326718960679955 M-214.8474101215878,34.326718960679955 L-214.98963938444263,34.311806875714524 M-214.98963938444263,34.311806875714524 L-215.12171865737355,34.27785682049887 M-215.12171865737355,34.27785682049887 L-215.23596574325165,34.22684579622046 M-215.23596574325165,34.22684579622046 L-215.32573761207982,34.16174340981996 M-215.32573761207982,34.16174340981996 L-215.38582046674605,34.08633875220028 M-215.38582046674605,34.08633875220028 L-215.4127284953496,34.005018440594085 M-215.4127284953496,34.005018440594085 L-215.4049065483773,33.92251002996909 M-215.4049065483773,33.92251002996909 L-215.36281889847055,33.84360810077675 M-215.36281889847055,33.84360810077675 L-215.28891948701062,33.77289495136722 M-215.28891948701062,33.77289495136722 L-215.18750749764126,33.7144753637582 M-215.18750749764126,33.7144753637582 L-215.06447681021234,33.67173905003972 M-215.06447681021234,33.67173905003972 L-214.9269732169397,33.64716477368006 M-214.9269732169397,33.64716477368006 L-214.78297994412515,33.64217759870786 M-214.78297994412515,33.64217759870786 L-214.64085611650603,33.65706678789212 M-214.64085611650603,33.65706678789212 L-214.50885170976994,33.690968802321834 M-214.50885170976994,33.690968802321834 L-214.39463238327448,33.74191729753352 M1000.4465877896366,723.6900873230818 L999.9608195237345,724.1192111278231 M999.9608195237345,724.1192111278231 L1000.2829269595325,724.3273618188116 M1000.2829269595325,724.3273618188116 L1000.57771754289,724.5685981665945 M1000.57771754289,724.5685981665945 L1000.828074959059,724.8289339563964 M1000.828074959059,724.8289339563964 L1001.0193082062792,725.0931828168511 M1001.0193082062792,725.0931828168511 L1001.140288288793,725.3459937425325 M1001.140288288793,725.3459937425325 L1001.1840329320642,725.572706530636 M1001.1840329320642,725.572706530636 L1001.1478765725763,725.7600679947836 M1001.1478765725763,725.7600679947836 L1001.0338958338984,725.8971575926162 M1001.0338958338984,725.8971575926162 L1000.8487944710794,725.9760298237347 M1000.8487944710794,725.9760298237347 L1000.6032531919325,725.9920330114985 M1000.6032531919325,725.9920330114985 L1000.3115514233714,725.9442225454056 M1000.3115514233714,725.9442225454056 L999.9908002385221,725.835458077848 M999.9908002385221,725.835458077848 L999.6596616983568,725.6720740363073 M999.6596616983568,725.6720740363073 L999.337227236,725.4634897450048 M999.337227236,725.4634897450048 L999.0424594263509,725.2219775823912 M999.0424594263509,725.2219775823912 L998.7923361060505,724.9615111049063 M998.7923361060505,724.9615111049063 L998.6014946228261,724.6973066685969 M998.6014946228261,724.6973066685969 L998.4809741843503,724.4447050598642 M998.4809741843503,724.4447050598642 L998.4376518940601,724.2183185839849 M998.4376518940601,724.2183185839849 L998.4740964335613,724.0313256201896 M998.4740964335613,724.0313256201896 L998.5881651421373,723.8945622681599 M998.5881651421373,723.8945622681599 L998.7731342897569,723.8158994087444 M998.7731342897569,723.8158994087444 L999.018353278223,723.7999406337035 M999.018353278223,723.7999406337035 L999.3096164963683,723.8476203482937 M999.3096164963683,723.8476203482937 L999.6299135378197,723.9561090312293 M999.6299135378197,723.9561090312293 L999.9608195237345,724.1192111278231" stroke="black"  stroke-width="4"  fill="red"/>
<path d="M997.8416243784907,747.2258598039673 L985.1046952149397,813.4088851349961 M997.8416243784907,747.2258598039673 L987.3994512376371,741.197069669902 M974.2794992938377,806.8682609475884 L987.3994512376371,741.197069669902 M985.1046952149397,813.4088851349961 L974.2794992938377,806.8682609475884 M1002.3919391965799,743.285170591113 L997.8416243784907,747.2258598039673 M1031.1194946430494,705.0817989783795 L1029.6835866100132,707.7582551903881 M1029.6835866100132,707.7582551903881 L1028.1902511748428,710.4201320788743 M1028.1902511748428,710.4201320788743 L1026.644179037733,713.0590457845062 M1026.644179037733,713.0590457845062 L1025.050238092051,715.6666978667531 M1025.050238092051,715.6666978667531 L1023.4134637102345,718.2349000584184 M1023.4134637102345,718.2349000584184 L1021.7390320133711,720.7556090504893 M1021.7390320133711,720.7556090504893 L1020.0322371474315,723.2209640428209 M1020.0322371474315,723.2209640428209 L1018.2984776693183,725.6233078433531 M1018.2984776693183,725.6233078433531 L1016.5432285698885,727.9552230939516 M1016.5432285698885,727.9552230939516 L1014.7720136535684,730.2095659110371 M1014.7720136535684,730.2095659110371 L1012.9903932847769,732.3794813603693 M1012.9903932847769,732.3794813603693 L1011.203938016864,734.4584344072755 M1011.203938016864,734.4584344072755 L1009.4182027414931,736.4402345679352 M1009.4182027414931,736.4402345679352 L1007.6387096331978,738.3190532087092 M1007.6387096331978,738.3190532087092 L1005.8709242682285,740.0894447693452 M1005.8709242682285,740.0894447693452 L1004.120236012139,741.7463621969703 M1004.120236012139,741.7463621969703 L1002.3919391965799,743.285170591113 M1031.3208706923776,704.69709337576 L1031.2981094959327,704.7003977083491 M1031.2981094959327,704.7003977083491 L1031.2708198002977,704.7146904700955 M1031.2708198002977,704.7146904700955 L1031.24059100091,704.7391347831356 M1031.24059100091,704.7391347831356 L1031.2091787058746,704.7723120866103 M1031.2091787058746,704.7723120866103 L1031.1784047192177,704.812295845833 M1031.1784047192177,704.812295845833 L1031.1500607674168,704.856760341977 M1031.1500607674168,704.856760341977 L1031.1257892434865,704.9031267063908 M1031.1257892434865,704.9031267063908 L1031.1070038168507,704.9486971669301 M1031.1070038168507,704.9486971669301 L1031.0947956272178,704.990824116401 M1031.0947956272178,704.990824116401 L1031.0898735869082,705.0270623975434 M1031.0898735869082,705.0270623975434 L1031.0925218639838,705.0553075579955 M1031.0925218639838,705.0553075579955 L1031.102590579961,705.073913150108 M1031.102590579961,705.073913150108 L1031.1194946430494,705.0817989783795 M1060.5461442955338,665.7705372912776 L1058.7106681909668,667.4474664727431 M1058.7106681909668,667.4474664727431 L1056.866852615793,669.2285883962054 M1056.866852615793,669.2285883962054 L1055.0194404674373,671.1089430391708 M1055.0194404674373,671.1089430391708 L1053.1731493644572,673.0833833394142 M1053.1731493644572,673.0833833394142 L1051.3326559137447,675.1465825296593 M1051.3326559137447,675.1465825296593 L1049.5026004494243,677.2930427371257 M1049.5026004494243,677.2930427371257 L1047.687565000198,679.5171225131228 M1047.687565000198,679.5171225131228 L1045.892070682627,681.8130302964562 M1045.892070682627,681.8130302964562 L1044.1205807462,684.1748442734058 M1044.1205807462,684.1748442734058 L1042.3774773022385,686.5965286251228 M1042.3774773022385,686.5965286251228 L1040.6670677300995,689.0719327981476 M1040.6670677300995,689.0719327981476 L1038.9935740418773,691.594811139862 M1038.9935740418773,691.594811139862 L1037.3611242225968,694.158829997328 M1037.3611242225968,694.158829997328 L1035.7737531222208,696.7575757497782 M1035.7737531222208,696.7575757497782 L1034.2353921708925,699.3845680218392 M1034.2353921708925,699.3845680218392 L1032.7498627410243,702.0332690400601 M1032.7498627410243,702.0332690400601 L1031.3208706923776,704.69709337576 M1045.6866410476957,757.9270863446475 L1060.5461442955338,665.7705372912776 M1015.3160413838814,782.9825986527526 L1045.6866410476957,757.9270863446475 M1014.1447543155737,789.5831103795269 L1015.3160413838814,782.9825986527526 M985.1046952149397,813.4088851349961 L1014.1447543155737,789.5831103795269 M1002.3919391965799,743.285170591113 L991.8937195212275,737.2490428513215 M991.8937195212275,737.2490428513215 L987.3994512376371,741.197069669902 M974.2794992938377,806.8682609475884 L1002.9432638546095,782.9825828561941 M1004.1549850158419,776.4352876812623 L1002.9432638546095,782.9825828561941 M1004.1549850158419,776.4352876812623 L1034.1279821504868,751.323573741176 M1049.5931863801065,659.9048274419802 L1034.1279821504868,751.323573741176 M1049.5931863801065,659.9048274419802 L1047.779935740519,661.5833198239814 M1047.779935740519,661.5833198239814 L1045.9574580570568,663.3651346227931 M1045.9574580570568,663.3651346227931 L1044.1304468212431,665.2453133240602 M1044.1304468212431,665.2453133240602 L1042.3035728424481,667.2187119668149 M1042.3035728424481,667.2187119668149 L1040.48146875172,669.2800085680151 M1040.48146875172,669.2800085680151 L1038.6687335287324,671.4237116122624 M1038.6687335287324,671.4237116122624 L1036.8699106351123,673.6441875499534 M1036.8699106351123,673.6441875499534 L1035.089485501646,675.9356543669257 M1035.089485501646,675.9356543669257 L1033.3318882833867,678.2922012549529 M1033.3318882833867,678.2922012549529 L1031.6014708920109,680.7078049534871 M1031.6014708920109,680.7078049534871 L1029.9025132466647,683.176328995565 M1029.9025132466647,683.176328995565 L1028.2392126409904,685.6915432918183 M1028.2392126409904,685.6915432918183 L1026.6156751693222,688.2471312780483 M1026.6156751693222,688.2471312780483 L1025.0359164942486,690.8366978989407 M1025.0359164942486,690.8366978989407 L1023.5038516227585,693.4537828314033 M1023.5038516227585,693.4537828314033 L1022.0232882915689,696.0918698538667 M1022.0232882915689,696.0918698538667 L1020.597921507828,698.7443965879152 M1020.3969638894837,699.1274225307761 L1020.380494387714,699.1197722397958 M1020.380494387714,699.1197722397958 L1020.3708227800578,699.1014372808452 M1020.3708227800578,699.1014372808452 L1020.368511094978,699.0734821286449 M1020.368511094978,699.0734821286449 L1020.3736896879052,699.0375363670225 M1020.3736896879052,699.0375363670225 L1020.3860594587745,698.9956874452316 M1020.3860594587745,698.9956874452316 L1020.404902123913,698.9503643883208 M1020.404902123913,698.9503643883208 L1020.4291232113928,698.9042004305525 M1020.4291232113928,698.9042004305525 L1020.4573120150842,698.8598815855539 M1020.4573120150842,698.8598815855539 L1020.4878351057148,698.8199782639786 M1020.4878351057148,698.8199782639786 L1020.5189153837005,698.7868115249148 M1020.5189153837005,698.7868115249148 L1020.5487502750111,698.7623072690067 M1020.5487502750111,698.7623072690067 L1020.5756070583798,698.7478875474974 M1020.5756070583798,698.7478875474974 L1020.597921507828,698.7443965879152 M991.8937195212275,737.2490428513215 L993.6011096223945,735.7078748873448 M993.6011096223945,735.7078748873448 L995.331569333963,734.0495130090421 M995.331569333963,734.0495130090421 L997.0798704145382,732.2786002863929 M997.0798704145382,732.2786002863929 L998.8406877558064,730.4001885663188 M998.8406877558064,730.4001885663188 L1000.6086179268971,728.4197247703771 M1000.6086179268971,728.4197247703771 L1002.3781985057303,726.3430354187933 M1002.3781985057303,726.3430354187933 L1004.1439316437718,724.1763053846619 M1004.1439316437718,724.1763053846619 L1005.9003009065057,721.9260606075197 M1005.9003009065057,721.9260606075197 L1007.6417967951224,719.5991434448988 M1007.6417967951224,719.5991434448988 L1009.3629428379174,717.202681785386 M1009.3629428379174,717.202681785386 L1011.0583077059443,714.7440736332123 M1011.0583077059443,714.7440736332123 L1012.7225325519278,712.2309535544655 M1012.7225325519278,712.2309535544655 L1014.3503587232942,709.6711565637586 M1014.3503587232942,709.6711565637586 L1015.9366412642435,707.0726971375118 M1015.9366412642435,707.0726971375118 L1017.4763715000861,704.4437318458317 M1017.4763715000861,704.4437318458317 L1018.9647035176258,701.7925246882598 M1018.9647035176258,701.7925246882598 L1020.3969638894837,699.1274225307761 M1002.9432638546095,782.9825828561941 L1014.1447543155737,789.5831103795269 M1031.1194946430494,705.0817989783795 L1020.3969638894837,699.1274225307761 M1031.3208706923776,704.69709337576 L1020.597921507828,698.7443965879152 M1060.5461442955338,665.7705372912776 L1049.5931863801065,659.9048274419802 M1045.6866410476957,757.9270863446475 L1034.1279821504868,751.323573741176 M1015.3160413838814,782.9825986527526 L1004.1549850158419,776.4352876812623" stroke="black"  stroke-width="4"  fill="red"/>
<path d="M995.7440264543641,728.2287715046953 L999.8705348741071,724.5847467101596 M999.8705348741071,724.5847467101596 L999.9994012220932,724.6680491635484 M999.9994012220932,724.6680491635484 L1000.1172879842643,724.7645620944979 M1000.1172879842643,724.7645620944979 L1000.2174295801628,724.8687270164007 M1000.2174295801628,724.8687270164007 L1000.2939024850205,724.9744366347677 M1000.2939024850205,724.9744366347677 L1000.3421327103647,725.0754749707353 M1000.3421327103647,725.0754749707353 L1000.359659750248,725.166166879626 M1000.359659750248,725.166166879626 L1000.3451625759697,725.2410672014771 M1000.3451625759697,725.2410672014771 L1000.2994795885004,725.295818800473 M1000.2994795885004,725.295818800473 L1000.2255616412967,725.3274029874217 M1000.2255616412967,725.3274029874217 L1000.1273571218107,725.3337839894464 M1000.1273571218107,725.3337839894464 L1000.0107024705053,725.3146601053215 M1000.0107024705053,725.3146601053215 L999.8824831211509,725.2712031022668 M999.8824831211509,725.2712031022668 L999.7500717688283,725.205891745301 M999.7500717688283,725.205891745301 L999.6210411200211,725.1224562114658 M999.6210411200211,725.1224562114658 L999.5031580086079,725.0258991604867 M999.5031580086079,725.0258991604867 L999.4030538776237,724.9217133294997 M999.4030538776237,724.9217133294997 L999.3267769425597,724.81608664382 M999.3267769425597,724.81608664382 L999.2784869375175,724.7150059645546 M999.2784869375175,724.7150059645546 L999.261027528838,724.6243662920374 M999.261027528838,724.6243662920374 L999.2755708152893,724.5495249345681 M999.2755708152893,724.5495249345681 L999.3212678103093,724.4948254919955 M999.3212678103093,724.4948254919955 L999.3952979355302,724.4633506509222 M999.3952979355302,724.4633506509222 L999.4933176222248,724.4569009572879 M999.4933176222248,724.4569009572879 L999.609902082871,724.4760039035602 M999.609902082871,724.4760039035602 L999.7380487814903,724.519416795252 M999.7380487814903,724.519416795252 L999.8705348741071,724.5847467101596 M995.7440264543641,728.2287715046953 L995.6121583139409,728.1635101582278 M995.6121583139409,728.1635101582278 L995.4845573559433,728.1201428213378 M995.4845573559433,728.1201428213378 L995.3684158269418,728.1010599179479 M995.3684158269418,728.1010599179479 L995.2707094285288,728.1075028447149 M995.2707094285288,728.1075028447149 L995.1968460722367,728.1389446605581 M995.1968460722367,728.1389446605581 L995.1511594268163,728.1935866991678 M995.1511594268163,728.1935866991678 L995.1364686571392,728.268349494037 M995.1364686571392,728.268349494037 L995.1536312794831,728.3588939878773 M995.1536312794831,728.3588939878773 L995.2014931896622,728.459868482943 M995.2014931896622,728.459868482943 L995.277235759057,728.5653841619576 M995.277235759057,728.5653841619576 L995.3767289717932,728.6694604535339 M995.3767289717932,728.6694604535339 L995.4939612320766,728.7659159442212 M995.4939612320766,728.7659159442212 L995.6223378691072,728.84926368691 M995.6223378691072,728.84926368691 L995.754131373684,728.914506302166 M995.754131373684,728.914506302166 L995.8818043781257,728.9579175555621 M995.8818043781257,728.9579175555621 L995.9980155707074,728.9770213043146 M995.9980155707074,728.9770213043146 L996.0959058254853,728.9706470209662 M996.0959058254853,728.9706470209662 L996.1696575977535,728.9390960870239 M996.1696575977535,728.9390960870239 L996.2153304663982,728.8844021223861 M996.2153304663982,728.8844021223861 L996.2299755885099,728.8095806236033 M996.2299755885099,728.8095806236033 L996.212745926749,728.7189841241375 M996.212745926749,728.7189841241375 L996.1649437302201,728.6180520405705 M996.1649437302201,728.6180520405705 L996.0890062796698,728.512453539967 M996.0890062796698,728.512453539967 L995.9894757993661,728.4083980651119 M995.9894757993661,728.4083980651119 L995.8722397973986,728.3119864995588 M995.8722397973986,728.3119864995588 L995.7440264543641,728.2287715046953 M999.9608195237345,724.1192111278231 L1000.2829269595325,724.3273618188116 M1000.2829269595325,724.3273618188116 L1000.57771754289,724.5685981665945 M1000.57771754289,724.5685981665945 L1000.828074959059,724.8289339563964 M1000.828074959059,724.8289339563964 L1001.0193082062792,725.0931828168511 M1001.0193082062792,725.0931828168511 L1001.140288288793,725.3459937425325 M1001.140288288793,725.3459937425325 L1001.1840329320642,725.572706530636 M1001.1840329320642,725.572706530636 L1001.1478765725763,725.7600679947836 M1001.1478765725763,725.7600679947836 L1001.0338958338984,725.8971575926162 M1001.0338958338984,725.8971575926162 L1000.8487944710794,725.9760298237347 M1000.8487944710794,725.9760298237347 L1000.6032531919325,725.9920330114985 M1000.6032531919325,725.9920330114985 L1000.3115514233714,725.9442225454056 M1000.3115514233714,725.9442225454056 L999.9908002385221,725.835458077848 M999.9908002385221,725.835458077848 L999.6596616983568,725.6720740363073 M999.6596616983568,725.6720740363073 L999.337227236,725.4634897450048 M999.337227236,725.4634897450048 L999.0424594263509,725.2219775823912 M999.0424594263509,725.2219775823912 L998.7923361060505,724.9615111049063 M998.7923361060505,724.9615111049063 L998.6014946228261,724.6973066685969 M998.6014946228261,724.6973066685969 L998.4809741843503,724.4447050598642 M998.4809741843503,724.4447050598642 L998.4376518940601,724.2183185839849 M998.4376518940601,724.2183185839849 L998.4740964335613,724.0313256201896 M998.4740964335613,724.0313256201896 L998.5881651421373,723.8945622681599 M998.5881651421373,723.8945622681599 L998.7731342897569,723.8158994087444 M998.7731342897569,723.8158994087444 L999.018353278223,723.7999406337035 M999.018353278223,723.7999406337035 L999.3096164963683,723.8476203482937 M999.3096164963683,723.8476203482937 L999.6299135378197,723.9561090312293 M999.6299135378197,723.9561090312293 L999.9608195237345,724.1192111278231 M1000.4465877896366,723.6900873230818 L1000.7688876105299,723.8982634882827 M1000.7688876105299,723.8982634882827 L1001.0638700535176,724.1395293868877 M1001.0638700535176,724.1395293868877 L1001.314407669661,724.399897100232 M1001.314407669661,724.399897100232 L1001.505798903152,724.6641783991934 M1001.505798903152,724.6641783991934 L1001.626905559245,724.9170203924139 M1001.626905559245,724.9170203924139 L1001.6707380211367,725.1437610684457 M1001.6707380211367,725.1437610684457 L1001.6346255342528,725.3311455995761 M1001.6346255342528,725.3311455995761 L1001.5206421429725,725.4682520864478 M1001.5206421429725,725.4682520864478 L1001.33549179183,725.5471340387121 M1001.33549179183,725.5471340387121 L1001.0898579885927,725.5631391992827 M1001.0898579885927,725.5631391992827 L1000.7980255475297,725.5153228396989 M1000.7980255475297,725.5153228396989 L1000.4771132389742,725.4065449693005 M1000.4771132389742,725.4065449693005 L1000.1457925158222,725.2431408055188 M1000.1457925158222,725.2431408055188 L999.8231653270661,725.0345308448116 M999.8231653270661,725.0345308448116 L999.5282055902096,724.7929889880731 M999.5282055902096,724.7929889880731 L999.2779022151597,724.532490519146 M999.2779022151597,724.532490519146 L999.0869030704159,724.2682536674108 M999.0869030704159,724.2682536674108 L998.9662564881994,724.0156210998916 M998.9662564881994,724.0156210998916 L998.9228468158601,723.7892069056234 M998.9228468158601,723.7892069056234 L998.9592478259326,723.6021910663037 M998.9592478259326,723.6021910663037 L999.0733193582516,723.4654109947396 M999.0733193582516,723.4654109947396 L999.2583374542705,723.3867385229596 M999.2583374542705,723.3867385229596 L999.5036487248067,723.3707777981874 M999.5036487248067,723.3707777981874 L999.7950422267566,723.418463338335 M999.7950422267566,723.418463338335 L1000.1154999457997,723.526965280824 M1000.1154999457997,723.526965280824 L1000.4465877896366,723.6900873230818 M1000.4465877896366,723.6900873230818 L999.9608195237345,724.1192111278231" stroke="black"  stroke-width="4"  fill="red"/>
<path d="M-221.65557084871637,43.148982325081136 L-256.39417185444313,63.29058909893632 M-221.65557084871637,43.148982325081136 L-224.89759748658457,41.27719778894016 M-259.63468011128236,61.332661793171724 L-224.89759748658457,41.27719778894016 M-256.39417185444313,63.29058909893632 L-259.63468011128236,61.332661793171724 M-256.39417185444313,63.29058909893632 L-256.8029353024381,40.67159407063707 M-256.8029353024381,40.67159407063707 L-253.3814356180966,38.737910984681776 M-253.3814356180966,38.737910984681776 L-253.75512805927076,15.550295396376612 M-253.75512805927076,15.550295396376612 L-204.35125390002872,-11.628315533346154 M-204.35125390002872,-11.628315533346154 L-204.3985852297086,-10.188540907859988 M-204.3985852297086,-10.188540907859988 L-204.50817657343964,-8.720507199105668 M-204.50817657343964,-8.720507199105668 L-204.67959963197904,-7.228189263663182 M-204.67959963197904,-7.228189263663182 L-204.91227574573668,-5.71560777017811 M-204.91227574573668,-5.71560777017811 L-205.20547090884384,-4.186816347505783 M-205.20547090884384,-4.186816347505783 L-205.55830327626086,-2.6459005562331868 M-205.55830327626086,-2.6459005562331868 L-205.96974803218825,-1.0969567556601305 M-205.96974803218825,-1.0969567556601305 L-206.4386314754895,0.45591055488205257 M-206.4386314754895,0.45591055488205257 L-206.96364544305402,2.0085934458773522 M-206.96364544305402,2.0085934458773522 L-207.5433448652484,3.557000532246434 M-207.5433448652484,3.557000532246434 L-208.1761512522778,5.0970556221213315 M-208.1761512522778,5.0970556221213315 L-208.86035991140523,6.624710846047321 M-208.86035991140523,6.624710846047321 L-209.59414041026105,8.135956092153378 M-209.59414041026105,8.135956092153378 L-210.37554316803107,9.626822798934938 M-210.37554316803107,9.626822798934938 L-211.2025032924696,11.093395576343028 M-211.2025032924696,11.093395576343028 L-212.0728441486374,12.531820789294045 M-212.0728441486374,12.531820789294045 L-212.98428199134594,13.938314424189684 M-212.98428199134594,13.938314424189684 L-212.97373284839568,13.952987992061935 M-212.97373284839568,13.952987992061935 L-212.96770321733618,13.97262196447582 M-212.96770321733618,13.97262196447582 L-212.966541645677,13.99607202819277 M-212.966541645677,13.99607202819277 L-212.97031647472613,14.021976421790612 M-212.97031647472613,14.021976421790612 L-212.97880735315516,14.04883212599708 M-212.97880735315516,14.04883212599708 L-212.991521333023,14.07507571342802 M-212.991521333023,14.07507571342802 L-213.00772006826583,14.099185737941696 M-213.00772006826583,14.099185737941696 L-213.02646167579053,14.119758241510283 M-213.02646167579053,14.119758241510283 L-213.046656905419,14.135598006101077 M-213.046656905419,14.135598006101077 L-213.06713354666465,14.145785446250443 M-213.06713354666465,14.145785446250443 L-213.08670140125014,14.149730105921606 M-213.08670140125014,14.149730105921606 L-213.1042222927647,14.147199512624809 M-213.1042222927647,14.147199512624809 L-213.1186787740769,14.13834119995829 M-213.1186787740769,14.13834119995829 L-214.03419266783703,15.551331397524677 M-214.03419266783703,15.551331397524677 L-214.90836411484565,16.996733679451552 M-214.90836411484565,16.996733679451552 L-215.73856116109096,18.470206298704113 M-215.73856116109096,18.470206298704113 L-216.52229249725838,19.967323017032584 M-216.52229249725838,19.967323017032584 L-217.25721607576293,21.483580630984648 M-217.25721607576293,21.483580630984648 L-217.94114493885206,23.014418908327116 M-217.94114493885206,23.014418908327116 L-218.572057293871,24.55523855321536 M-218.572057293871,24.55523855321536 L-219.14810138621556,26.10141030902156 M-219.14810138621556,26.10141030902156 L-219.6676023779438,27.648295995791614 M-219.6676023779438,27.648295995791614 L-220.12906807630793,29.191268958515707 M-220.12906807630793,29.191268958515707 L-220.53119185111927,30.725721561131877 M-220.53119185111927,30.725721561131877 L-220.87285793662397,32.24708468422159 M-220.87285793662397,32.24708468422159 L-221.153143300534,33.75084595227281 M-221.153143300534,33.75084595227281 L-221.3713199608403,35.232561305529316 M-221.3713199608403,35.232561305529316 L-221.52685631601548,36.68787192985815 M-221.52685631601548,36.68787192985815 L-221.619417391174,38.11251773657415 M-221.619417391174,38.11251773657415 L-221.64886461287824,39.50235036134586 M-221.64886461287824,39.50235036134586 L-221.65557084871637,43.148982325081136 M-221.64886461287824,39.50235036134586 L-224.89759713605974,37.63443702853772 M-224.89759713605974,37.63443702853772 L-224.89759748658457,41.27719778894016 M-224.89759713605974,37.63443702853772 L-224.87067705087384,36.24613744338399 M-224.87067705087384,36.24613744338399 L-224.78064010667595,34.823181711059874 M-224.78064010667595,34.823181711059874 L-224.62761765038363,33.36971327011514 M-224.62761765038363,33.36971327011514 L-224.41193739456833,31.889986736814365 M-224.41193739456833,31.889986736814365 L-224.13412366317334,30.388354923895747 M-224.13412366317334,30.388354923895747 L-223.7948971668809,28.86925538066498 M-223.7948971668809,28.86925538066498 L-223.3951737003074,27.337193489575384 M-223.3951737003074,27.337193489575384 L-222.9360618423766,25.796730917586615 M-222.9360618423766,25.796730917586615 L-222.41886111794543,24.252467419167772 M-222.41886111794543,24.252467419167772 L-221.8450567260477,22.709021377099134 M-221.8450567260477,22.709021377099134 L-221.2163166338123,21.171022330042092 M-221.2163166338123,21.171022330042092 L-220.53448588086485,19.643090565386956 M-220.53448588086485,19.643090565386956 L-219.80157973428152,18.129816125939612 M-219.80157973428152,18.129816125939612 L-219.01977883003065,16.635749734695082 M-219.01977883003065,16.635749734695082 L-218.191419123596,15.165384876308224 M-218.191419123596,15.165384876308224 L-217.31898609658288,13.723137901788562 M-217.31898609658288,13.723137901788562 L-216.40510614907157,12.313340534707663 M-216.40510614907157,12.313340534707663 L-216.39061776608548,12.322214790951477 M-216.39061776608548,12.322214790951477 L-216.3730733983515,12.324773781365138 M-216.3730733983515,12.324773781365138 L-216.35349185717837,12.320868323195214 M-216.35349185717837,12.320868323195214 L-216.33301210956688,12.310728604781275 M-216.33301210956688,12.310728604781275 L-216.31282453783615,12.294942309875637 M-216.31282453783615,12.294942309875637 L-216.29410090817748,12.274425920170984 M-216.29410090817748,12.274425920170984 L-216.27792942731503,12.25037139326605 M-216.27792942731503,12.25037139326605 L-216.26525039029616,12.224179458612639 M-216.26525039029616,12.224179458612639 L-216.256800119069,12.197368566348189 M-216.256800119069,12.197368566348189 L-216.2530691961722,12.171499538217859 M-216.2530691961722,12.171499538217859 L-216.25427542660282,12.148073339654104 M-216.25427542660282,12.148073339654104 L-216.26034787426966,12.128450347957028 M-216.26034787426966,12.128450347957028 L-216.27093549871415,12.11377423106262 M-207.67608659946654,-13.40888513499607 L-207.72078875888474,-11.97084495568481 M-207.72078875888474,-11.97084495568481 L-207.82776576979074,-10.504681169047615 M-207.82776576979074,-10.504681169047615 L-207.9965965244769,-9.01436364999671 M-207.9965965244769,-9.01436364999671 L-208.22670943567903,-7.503907833057781 M-208.22670943567903,-7.503907833057781 L-208.51737741881084,-5.97736186152747 M-208.51737741881084,-5.97736186152747 L-208.86772540330617,-4.438805567691247 M-208.86772540330617,-4.438805567691247 L-209.2767351655848,-2.8923293663028744 M-209.2767351655848,-2.8923293663028744 L-209.7432394022992,-1.3420315821317672 M-209.7432394022992,-1.3420315821317672 L-210.26593616031573,0.20798623608249045 M-210.26593616031573,0.20798623608249045 L-210.8433863527057,1.7536392790344166 M-210.8433863527057,1.7536392790344166 L-211.4740172522953,3.2908581282974296 M-211.4740172522953,3.2908581282974296 L-212.15612969375036,4.815601865474321 M-212.15612969375036,4.815601865474321 L-212.8878985218522,6.323867503452107 M-212.8878985218522,6.323867503452107 L-213.6673791852761,7.811693770772706 M-213.6673791852761,7.811693770772706 L-214.49251155917,9.275172720356977 M-214.49251155917,9.275172720356977 L-215.3611235052831,10.710458304410338 M-215.3611235052831,10.710458304410338 L-216.27093549871415,12.11377423106262 M-207.67608659946654,-13.40888513499607 L-257.0791425148914,13.651271335971671 M-256.66331710653617,36.812690112406415 L-257.0791425148914,13.651271335971671 M-256.66331710653617,36.812690112406415 L-260.0845106367474,38.737911371046096 M-259.63468011128236,61.332661793171724 L-260.0845106367474,38.737911371046096 M-260.0845106367474,38.737911371046096 L-256.8029353024381,40.67159407063707 M-213.1186787740769,14.13834119995829 L-216.40510614907157,12.313340534707663 M-212.98428199134594,13.938314424189684 L-216.27093549871415,12.11377423106262 M-204.35125390002872,-11.628315533346154 L-207.67608659946654,-13.40888513499607 M-253.75512805927076,15.550295396376612 L-257.0791425148914,13.651271335971671 M-253.3814356180966,38.737910984681776 L-256.66331710653617,36.812690112406415" stroke="black"  stroke-width="4"  fill="red"/>
<path d="M-214.666265052148,37.22939019502667 L-214.64693450137122,33.88733942527074 M-214.64693450137122,33.88733942527074 L-214.61101794315528,33.913362727240155 M-214.61101794315528,33.913362727240155 L-214.58696438853917,33.94351124045187 M-214.58696438853917,33.94351124045187 L-214.57617168452146,33.976032924317224 M-214.57617168452146,33.976032924317224 L-214.57926928542156,34.00903856976913 M-214.57926928542156,34.00903856976913 L-214.59607828816138,34.04060945760585 M-214.59607828816138,34.04060945760585 L-214.62562354899478,34.06891078704365 M-214.62562354899478,34.06891078704365 L-214.6661881399059,34.09229662313908 M-214.6661881399059,34.09229662313908 L-214.7154150681015,34.10940725346842 M-214.7154150681015,34.10940725346842 L-214.7704420688533,34.119247151883656 M-214.7704420688533,34.119247151883656 L-214.82807075625624,34.12124422843624 M-214.82807075625624,34.12124422843624 L-214.8849496612131,34.11528207753821 M-214.8849496612131,34.11528207753821 L-214.93777265289327,34.101707965266485 M-214.93777265289327,34.101707965266485 L-214.98346782366286,34.08131081223854 M-214.98346782366286,34.08131081223854 L-215.01938003414614,34.05527761293081 M-215.01938003414614,34.05527761293081 L-215.04342176149612,34.025121398340616 M-215.04342176149612,34.025121398340616 L-215.05419770600076,33.992596065997645 M-215.05419770600076,33.992596065997645 L-215.05108225241747,33.959591660719525 M-215.05108225241747,33.959591660719525 L-215.03425839389752,33.928026617583384 M-215.03425839389752,33.928026617583384 L-215.00470467729565,33.89973439851508 M-215.00470467729565,33.89973439851508 L-214.96413996784554,33.87635885129123 M-214.96413996784554,33.87635885129123 L-214.91492128549498,33.85925733139271 M-214.91492128549498,33.85925733139271 L-214.85990900584898,33.84942327770102 M-214.85990900584898,33.84942327770102 L-214.8022981425529,33.8474274413511 M-214.8022981425529,33.8474274413511 L-214.74543608117938,33.85338594367579 M-214.74543608117938,33.85338594367579 L-214.69262509421992,33.866952354700004 M-214.69262509421992,33.866952354700004 L-214.64693450137122,33.88733942527074 M-214.666265052148,37.22939019502667 L-214.7118690362547,37.208963851357964 M-214.7118690362547,37.208963851357964 L-214.76458014073614,37.19537130537424 M-214.76458014073614,37.19537130537424 L-214.8213348490035,37.18940132406476 M-214.8213348490035,37.18940132406476 L-214.87883712041184,37.19140100538698 M-214.87883712041184,37.19140100538698 L-214.9337458760731,37.20125400410063 M-214.9337458760731,37.20125400410063 L-214.98287211246793,37.218388468591286 M-214.98287211246793,37.218388468591286 L-215.02336082523027,37.24180904473269 M-215.02336082523027,37.24180904473269 L-215.05285941025045,37.270155760673674 M-215.05285941025045,37.270155760673674 L-215.06965221018186,37.301781600763036 M-215.06965221018186,37.301781600763036 L-215.0727624871106,37.33484957072665 M-215.0727624871106,37.33484957072665 L-215.06200755524787,37.36743754048473 M-215.06200755524787,37.36743754048473 L-215.0380118125729,37.39765182595221 M-215.0380118125729,37.39765182595221 L-215.00216789183014,37.4237351534174 M-215.00216789183014,37.4237351534174 L-214.95655934696583,37.44417158008417 M-214.95655934696583,37.44417158008417 L-214.90383628316886,37.45777182759508 M-214.90383628316886,37.45777182759508 L-214.84706479486965,37.46374545761046 M-214.84706479486965,37.46374545761046 L-214.7895447664955,37.46174453604044 M-214.7895447664955,37.46174453604044 L-214.73462134507645,37.451885692391045 M-214.73462134507645,37.451885692391045 L-214.68548689371278,37.43474211713885 M-214.68548689371278,37.43474211713885 L-214.64499829882016,37.41131125175218 M-214.64499829882016,37.41131125175218 L-214.6155081375066,37.382955425110765 M-214.6155081375066,37.382955425110765 L-214.598730137247,37.351323740108626 M-214.598730137247,37.351323740108626 L-214.59563764569884,37.31825452992615 M-214.59563764569884,37.31825452992615 L-214.60640927399788,37.28567020877824 M-214.60640927399788,37.28567020877824 L-214.63041679953596,37.25546362496891 M-214.63041679953596,37.25546362496891 L-214.666265052148,37.22939019502667 M-214.39463238327448,33.74191729753352 L-214.30483419372513,33.80695733950779 M-214.30483419372513,33.80695733950779 L-214.24467758195533,33.88231377138868 M-214.24467758195533,33.88231377138868 L-214.21766464356097,33.96361137256196 M-214.21766464356097,33.96361137256196 L-214.22537509307404,34.046127488090235 M-214.22537509307404,34.046127488090235 L-214.26736989415053,34.125065946873974 M-214.26736989415053,34.125065946873974 L-214.3412164572178,34.19583603590348 M-214.3412164572178,34.19583603590348 L-214.44262770571117,34.25431992898075 M-214.44262770571117,34.25431992898075 L-214.56570992951242,34.29711318231642 M-214.56570992951242,34.29711318231642 L-214.70330552990072,34.32172398830744 M-214.70330552990072,34.32172398830744 L-214.8474101215878,34.326718960679955 M-214.8474101215878,34.326718960679955 L-214.98963938444263,34.311806875714524 M-214.98963938444263,34.311806875714524 L-215.12171865737355,34.27785682049887 M-215.12171865737355,34.27785682049887 L-215.23596574325165,34.22684579622046 M-215.23596574325165,34.22684579622046 L-215.32573761207982,34.16174340981996 M-215.32573761207982,34.16174340981996 L-215.38582046674605,34.08633875220028 M-215.38582046674605,34.08633875220028 L-215.4127284953496,34.005018440594085 M-215.4127284953496,34.005018440594085 L-215.4049065483773,33.92251002996909 M-215.4049065483773,33.92251002996909 L-215.36281889847055,33.84360810077675 M-215.36281889847055,33.84360810077675 L-215.28891948701062,33.77289495136722 M-215.28891948701062,33.77289495136722 L-215.18750749764126,33.7144753637582 M-215.18750749764126,33.7144753637582 L-215.06447681021234,33.67173905003972 M-215.06447681021234,33.67173905003972 L-214.9269732169397,33.64716477368006 M-214.9269732169397,33.64716477368006 L-214.78297994412515,33.64217759870786 M-214.78297994412515,33.64217759870786 L-214.64085611650603,33.65706678789212 M-214.64085611650603,33.65706678789212 L-214.50885170976994,33.690968802321834 M-214.50885170976994,33.690968802321834 L-214.39463238327448,33.74191729753352 M-214.39230454147014,33.34909320326773 L-214.30248627510457,33.414118452355524 M-214.30248627510457,33.414118452355524 L-214.24231612624226,33.48945774764144 M-214.24231612624226,33.48945774764144 L-214.21529697992582,33.570736864380535 M-214.21529697992582,33.570736864380535 L-214.22300891562486,33.65323422184741 M-214.22300891562486,33.65323422184741 L-214.26501281475123,33.73215473909232 M-214.26501281475123,33.73215473909232 L-214.33887556252955,33.80290874581533 M-214.33887556252955,33.80290874581533 L-214.4403091438396,33.861379350504535 M-214.4403091438396,33.861379350504535 L-214.56341855067944,33.904162881690525 M-214.56341855067944,33.904162881690525 L-214.70104460258472,33.92876809680115 M-214.70104460258472,33.92876809680115 L-214.8451811410623,33.933761934494385 M-214.8451811410623,33.933761934494385 L-214.9874419851344,33.91885323705941 M-214.9874419851344,33.91885323705941 L-215.11955063436517,33.88491089458864 M-215.11955063436517,33.88491089458864 L-215.2338231815679,33.83391146004959 M-215.2338231815679,33.83391146004959 L-215.32361511573595,33.76882386686981 M-215.32361511573595,33.76882386686981 L-215.3837114748751,33.693436346140174 M-215.3837114748751,33.693436346140174 L-215.41062566497385,33.61213451907696 M-215.41062566497385,33.61213451907696 L-215.40280218233568,33.529644866479714 M-215.40280218233568,33.529644866479714 L-215.3607053931131,33.450760878618325 M-215.3607053931131,33.450760878618325 L-215.28678977336176,33.38006381119118 M-215.28678977336176,33.38006381119118 L-215.18535545068266,33.3216575116042 M-215.18535545068266,33.3216575116042 L-215.06229760292297,33.27893091971134 M-215.06229760292297,33.27893091971134 L-214.92476359883938,33.25436223402403 M-214.92476359883938,33.25436223402403 L-214.78073842859544,33.24937619367648 M-214.78073842859544,33.24937619367648 L-214.6385830665356,33.26426199548109 M-214.6385830665356,33.26426199548109 L-214.50654931685688,33.298156297418814 M-214.50654931685688,33.298156297418814 L-214.39230454147014,33.34909320326773 M-214.39230454147014,33.34909320326773 L-214.39463238327448,33.74191729753352" stroke="black"  stroke-width="4"  fill="red"/>
<path d="M-256.66331710653617,36.812690112406415 L-260.0845106367474,38.737911371046096 M-260.0845106367474,38.737911371046096 L-260.54614429553374,15.550295777494512 M-257.0791425148914,13.651271335971671 L-260.54614429553374,15.550295777494512 M-256.66331710653617,36.812690112406415 L-257.0791425148914,13.651271335971671 M-256.39417185444313,63.29058909893632 L-187.7966387188776,104.73747723778138 M-187.7966387188776,104.73747723778138 L-187.71226905678373,100.86838853661095 M-187.71226905678373,100.86838853661095 L-109.99233652603618,147.63246506304358 M-110.26595507213574,151.58180859419065 L-109.99233652603618,147.63246506304358 M-110.26595507213574,151.58180859419065 L301.72145061282185,400.50615233541316 M301.72145061282185,400.50615233541316 L303.2945846181368,396.307168944364 M303.2945846181368,396.307168944364 L439.5289247341607,478.27935933700667 M437.4193700714018,482.4953468645932 L439.5289247341607,478.27935933700667 M437.4193700714018,482.4953468645932 L974.2794992938377,806.8682609475884 M974.2794992938377,806.8682609475884 L1002.9432638546095,782.9825828561941 M1002.9432638546095,782.9825828561941 L1014.1447543155737,789.5831103795269 M1014.1447543155737,789.5831103795269 L1044.6130130441077,764.5855762098547 M-260.54614429553374,15.550295777494512 L1044.6130130441077,764.5855762098547 M-260.0845106367474,38.737911371046096 L-256.8029353024381,40.67159407063707 M-256.39417185444313,63.29058909893632 L-256.8029353024381,40.67159407063707 M1015.3160413838814,782.9825986527526 L1004.1549850158419,776.4352876812623 M975.5759078669314,800.3791597875852 L1004.1549850158419,776.4352876812623 M975.5759078669314,800.3791597875852 L440.1605570488209,478.3060452899442 M440.1605570488209,478.3060452899442 L442.27211714275563,474.090142492935 M442.27211714275563,474.090142492935 L306.2736110729778,392.62157942854833 M304.69630228319295,396.8190382984519 L306.2736110729778,392.62157942854833 M304.69630228319295,396.8190382984519 L-106.90735915492155,149.2234604439035 M-106.90735915492155,149.2234604439035 L-106.62639450688516,145.27790547223674 M-106.62639450688516,145.27790547223674 L-184.32881762264833,98.7310356513708 M-184.42065558093782,102.5962041339011 L-184.32881762264833,98.7310356513708 M-184.42065558093782,102.5962041339011 L-253.01729781319818,61.33266140195224 M-253.01729781319818,61.33266140195224 L-253.3814356180966,38.737910984681776 M-253.3814356180966,38.737910984681776 L-256.66331710653617,36.812690112406415 M1045.6866410476957,757.9270863446475 L-257.0791425148914,13.651271335971671 M1015.3160413838814,782.9825986527526 L1045.6866410476957,757.9270863446475 M-256.39417185444313,63.29058909893632 L-253.01729781319818,61.33266140195224 M-256.8029353024381,40.67159407063707 L-253.3814356180966,38.737910984681776 M-184.42065558093782,102.5962041339011 L-187.7966387188776,104.73747723778138 M-184.32881762264833,98.7310356513708 L-187.71226905678373,100.86838853661095 M-110.26595507213574,151.58180859419065 L-106.90735915492155,149.2234604439035 M-109.99233652603618,147.63246506304358 L-106.62639450688516,145.27790547223674 M304.69630228319295,396.8190382984519 L301.72145061282185,400.50615233541316 M306.2736110729778,392.62157942854833 L303.2945846181368,396.307168944364 M437.4193700714018,482.4953468645932 L440.1605570488209,478.3060452899442 M439.5289247341607,478.27935933700667 L442.27211714275563,474.090142492935 M975.5759078669314,800.3791597875852 L974.2794992938377,806.8682609475884 M1004.1549850158419,776.4352876812623 L1002.9432638546095,782.9825828561941 M1014.1447543155737,789.5831103795269 L1015.3160413838814,782.9825986527526 M1044.6130130441077,764.5855762098547 L1045.6866410476957,757.9270863446475" stroke="black"  stroke-width="4"  fill="red"/></svg>