<svg viewBox="0 0 800 800" xmlns="http://www.w3.org/2000/svg"><path d="M312.0464389447495,437.92558935292845 L298.0184665467814,445.4837573604048 M298.0184665467814,445.4837573604048 L283.9248728921542,437.925595392441 M283.9248728921542,437.925595392441 L297.95300184725545,430.4034852616803 M312.0464389447495,437.92558935292845 L297.95300184725545,430.4034852616803 M298.0184665467814,445.4837573604048 L298.163888553084,371.05468792080046 M298.163888553084,371.05468792080046 L312.3397874650219,363.59647463403604 M312.3397874650219,363.59647463403604 L312.6394034955993,287.6792881838458 M312.6394034955993,287.6792881838458 L298.3124251662292,295.03151800864555 M298.3124251662292,295.03151800864555 L298.5879659102362,154.00581157977535 M298.5879659102362,154.00581157977535 L313.1951609173548,146.86058857295714 M313.1951609173548,146.86058857295714 L313.7731471540143,0.40951648059046875 M313.7731471540143,0.40951648059046875 L488.55363662093714,-80.71945133034706 M488.55363662093714,-80.71945133034706 L480.92389178386463,201.32009886980933 M516.0904026697713,183.2735670592962 L480.92389178386463,201.32009886980933 M516.0904026697713,183.2735670592962 L515.7781733384722,189.25275598732424 M515.7781733384722,189.25275598732424 L515.2194040938992,195.332788714442 M515.2194040938992,195.332788714442 L514.4161979923474,201.4965770421421 M514.4161979923474,201.4965770421421 L513.3712935284773,207.7267875568106 M513.3712935284773,207.7267875568106 L512.0880464013852,214.0061606015772 M512.0880464013852,214.0061606015772 L510.5704242992284,220.3171221103611 M510.5704242992284,220.3171221103611 L508.8229939412728,226.6422596522437 M508.8229939412728,226.6422596522437 L506.8508938604249,232.9642134765594 M506.8508938604249,232.9642134765594 L504.6598391473557,239.26549856247803 M504.6598391473557,239.26549856247803 L502.25608838847177,245.5288282774214 M502.25608838847177,245.5288282774214 L499.64643967204495,251.73704781151613 M499.64643967204495,251.73704781151613 L496.83819625867727,257.8732443366606 M496.83819625867727,257.8732443366606 L496.8962131162648,257.9162091967335 M496.8962131162648,257.9162091967335 L496.93797267444813,257.9836371795183 M496.93797267444813,257.9836371795183 L496.96105007081985,258.07162951735876 M496.96105007081985,258.07162951735876 L496.9641079424681,258.174971650722 M496.9641079424681,258.174971650722 L496.94696733390174,258.2877355674933 M496.94696733390174,258.2877355674933 L496.9106241701222,258.4033774852694 M496.9106241701222,258.4033774852694 L496.85719273283144,258.5151401985961 M496.85719273283144,258.5151401985961 L496.7897759132288,258.6165470805822 M496.7897759132288,258.6165470805822 L496.7122930838194,258.701651896232 M496.7122930838194,258.701651896232 L496.62924294202946,258.7655893591814 M496.62924294202946,258.7655893591814 L496.5454501754365,258.80465473024987 M496.5454501754365,258.80465473024987 L496.46578761903277,258.8165030735462 M496.46578761903277,258.8165030735462 L496.39488447837755,258.8004625898757 M496.39488447837755,258.8004625898757 L493.5709071664643,264.9726201146537 M493.5709071664643,264.9726201146537 L490.95071556292544,271.2113796625003 M490.95071556292544,271.2113796625003 L488.54239247795624,277.4971058027701 M488.54239247795624,277.4971058027701 L486.35330571684506,283.8099836695635 M486.35330571684506,283.8099836695635 L484.3900800274836,290.1302093638653 M484.3900800274836,290.1302093638653 L482.65857551178146,296.4380175135397 M482.65857551178146,296.4380175135397 L481.16387670726317,302.7135977314278 M481.16387670726317,302.7135977314278 L479.9102705667401,308.93738769003176 M479.9102705667401,308.93738769003176 L478.90123404787835,315.09020073470646 M478.90123404787835,315.09020073470646 L478.1394391710717,321.1528691036856 M478.1394391710717,321.1528691036856 L477.62673304612713,327.10690230215374 M477.62673304612713,327.10690230215374 L477.3641550581086,332.93391207662813 M477.3641550581086,332.93391207662813 L476.92712291111707,349.0890935820973 M511.40657570228905,330.51181886210463 L476.92712291111707,349.0890935820973 M511.40657570228905,330.51181886210463 L511.1042771996964,336.2562779132895 M511.1042771996964,336.2562779132895 L510.56018320663316,342.10665849221004 M510.56018320663316,342.10665849221004 L509.77634285354236,348.04627511859746 M509.77634285354236,348.04627511859746 L508.75541675787633,354.05860308726636 M508.75541675787633,354.05860308726636 L507.5006861210412,360.1267431851772 M507.5006861210412,360.1267431851772 L506.016021686901,366.233864471082 M506.016021686901,366.233864471082 L504.30589209021764,372.3630051479352 M504.30589209021764,372.3630051479352 L502.3753279546621,378.4972583454173 M502.3753279546621,378.4972583454173 L500.2299240667526,384.6196795970317 M500.2299240667526,384.6196795970317 L497.8758104355428,390.71349389221643 M497.8758104355428,390.71349389221643 L495.31965140453315,396.761928232513 M495.31965140453315,396.761928232513 L492.5686087185867,402.74842338022563 M492.5686087185867,402.74842338022563 L492.6255470876879,402.78757548356356 M492.6255470876879,402.78757548356356 L492.66655327443834,402.8507500057589 M492.66655327443834,402.8507500057589 L492.68924614976754,402.9342945133394 M492.68924614976754,402.9342945133394 L492.6923082846753,403.0333333907917 M492.6923082846753,403.0333333907917 L492.6755627829783,403.1421091075906 M492.6755627829783,403.1421091075906 L492.63998260765686,403.2543092557928 M492.63998260765686,403.2543092557928 L492.5876361485808,403.36342850648117 M492.5876361485808,403.36342850648117 L492.521564077309,403.46311716161 M492.521564077309,403.46311716161 L492.44560681193377,403.54755691344405 M492.44560681193377,403.54755691344405 L492.36417603255586,403.61186750314727 M492.36417603255586,403.61186750314727 L492.2820023792434,403.6523221215248 M492.2820023792434,403.6523221215248 L492.20386377921614,403.66652252209747 M492.20386377921614,403.66652252209747 L492.13429941063305,403.6537100424948 M492.13429941063305,403.6537100424948 L489.36782058995925,409.67531442143445 M489.36782058995925,409.67531442143445 L486.8012625080629,415.7535933441654 M486.8012625080629,415.7535933441654 L484.44253819288747,421.86936751888754 M484.44253819288747,421.86936751888754 L482.29885802877334,428.00341442354755 M482.29885802877334,428.00341442354755 L480.376705469257,434.1365476121192 M480.376705469257,434.1365476121192 L478.6818187586766,440.249540348938 M478.6818187586766,440.249540348938 L477.2191736882087,446.32327814777176 M477.2191736882087,446.32327814777176 L475.9929650987531,452.338936576281 M475.9929650987531,452.338936576281 L475.00660171494155,458.277846705873 M475.00660171494155,458.277846705873 L474.26269674018897,464.1216672089442 M474.26269674018897,464.1216672089442 L473.76306256872965,469.8525020545569 M473.76306256872965,469.8525020545569 L473.5087153150812,475.45278456865935 M473.5087153150812,475.45278456865935 L473.08894489087595,490.969875108441 M473.08894489087595,490.969875108441 L506.9082891781437,471.91752161788656 M506.9082891781437,471.91752161788656 L506.6153851788861,477.4410447569321 M506.6153851788861,477.4410447569321 L506.0852564067777,483.074931789168 M506.0852564067777,483.074931789168 L505.3198909566705,488.80318679817555 M505.3198909566705,488.80318679817555 L504.321885104529,494.6097417524338 M504.321885104529,494.6097417524338 L503.09443915633926,500.4783471889508 M503.09443915633926,500.4783471889508 L501.641340097627,506.3925945412908 M501.641340097627,506.3925945412908 L499.96695701515387,512.3361283238071 M499.96695701515387,512.3361283238071 L498.07621860803056,518.2924231610729 M498.07621860803056,518.2924231610729 L495.9746027564978,524.245097429368 M495.9746027564978,524.245097429368 L493.66812062732606,530.177711547222 M493.66812062732606,530.177711547222 L491.1633041224692,536.0739838039631 M491.1633041224692,536.0739838039631 L488.4671781186963,541.917719457306 M488.4671781186963,541.917719457306 L488.5230778546322,541.953297871023 M488.5230778546322,541.953297871023 L488.563356304286,542.0125233549047 M488.563356304286,542.0125233549047 L488.5856767508126,542.0918986812175 M488.5856767508126,542.0918986812175 L488.58874118176175,542.1868647915774 M488.58874118176175,542.1868647915774 L488.5723725286118,542.2919008742324 M488.5723725286118,542.2919008742324 L488.53752328411974,542.4008629698276 M488.53752328411974,542.4008629698276 L488.48621935834296,542.5074332714271 M488.48621935834296,542.5074332714271 L488.4214394402277,542.6054590641332 M488.4214394402277,542.6054590641332 L488.34694958374325,542.6891946486668 M488.34694958374325,542.6891946486668 L488.2670762777477,542.7537996848808 M488.2670762777477,542.7537996848808 L488.18645970890384,542.7955298863346 M488.18645970890384,542.7955298863346 L488.1097865204865,542.8119396716378 M488.1097865204865,542.8119396716378 L488.0415129684699,542.8020659257464 M488.0415129684699,542.8020659257464 L485.3302368816111,548.6801220675798 M485.3302368816111,548.6801220675798 L482.8151628733556,554.6055474543755 M482.8151628733556,554.6055474543755 L480.5040368268841,560.559747821606 M480.5040368268841,560.559747821606 L478.4039190347347,566.5240365492714 M478.4039190347347,566.5240365492714 L476.5211603450957,572.4797117564447 M476.5211603450957,572.4797117564447 L474.8613779498395,578.4082070042258 M474.8613779498395,578.4082070042258 L473.429444867792,584.2910141562309 M473.429444867792,584.2910141562309 L472.2294714369549,590.109867318324 M472.2294714369549,590.109867318324 L471.26479536820295,595.8467868952715 M471.26479536820295,595.8467868952715 L470.5379773034588,601.4840715065584 M470.5379773034588,601.4840715065584 L470.0507938757172,607.0044729915481 M470.0507938757172,607.0044729915481 L469.80424063589305,612.3911339250394 M469.80424063589305,612.3911339250394 L469.4007287696712,627.3072161475952 M502.58473172050003,607.8305359226526 L469.4007287696712,627.3072161475952 M502.58473172050003,607.8305359226526 L498.07686606111986,749.5373631938232 M465.5555457943133,769.4231590340797 L498.07686606111986,749.5373631938232 M465.5555457943133,769.4231590340797 L465.1600749638726,784.0420509520385 M465.1600749638726,784.0420509520385 L297.1554352743027,887.1955459750824 M297.1554352743027,887.1955459750824 L297.386994838076,768.6800386616593 M297.386994838076,768.6800386616593 L310.77244767601314,760.7315236621797 M310.9319472556923,720.3172664347012 L310.77244767601314,760.7315236621797 M310.9319472556923,720.3172664347012 L297.4660454416176,728.2208054972377 M297.4660454416176,728.2208054972377 L297.59993924895014,659.6920337049539 M297.59993924895014,659.6920337049539 L311.2020933734348,651.8672133786928 M311.2020933734348,651.8672133786928 L311.47777483067244,582.0146071959379 M311.47777483067244,582.0146071959379 L297.7365830036502,589.7557993919233 M297.7365830036502,589.7557993919233 L297.8760624066987,518.3682395662597 M297.8760624066987,518.3682395662597 L311.75916372673163,510.7158410852943 M311.75916372673163,510.7158410852943 L312.0464389447495,437.92558935292845 M283.92097198001557,363.5964805935266 L298.163888553084,371.05468792080046 M283.9248728921542,437.925595392441 L283.92097198001557,363.5964805935266 M298.0970324662681,356.17422351831846 L283.92097198001557,363.5964805935266 M298.0970324662681,356.17422351831846 L298.24413286085803,280.36288723847395 M298.24413286085803,280.36288723847395 L283.9169877233041,287.67929405849833 M283.9169877233041,287.67929405849833 L283.9095973302287,146.8605942819309 M298.5169691508068,139.75086655479367 L283.9095973302287,146.8605942819309 M298.5169691508068,139.75086655479367 L298.80069051857964,-6.471011924630147 M298.80069051857964,-6.471011924630147 L473.59773667519573,-87.19554597508238 M473.59773667519573,-87.19554597508238 L466.54337430253315,194.41794104949162 M466.54337430253315,194.41794104949162 L501.7159470699247,176.45645264391783 M501.7159470699247,176.45645264391783 L501.41577874822644,182.42696336568576 M501.41577874822644,182.42696336568576 L500.8689689934886,188.49777975034795 M500.8689689934886,188.49777975034795 L500.0775868203292,194.6518388278269 M500.0775868203292,194.6518388278269 L499.04433716899814,200.87183355476571 M499.04433716899814,200.87183355476571 L497.7725433236642,207.1405313499573 M497.7725433236642,207.1405313499573 L496.2661408906623,213.44038647172673 M496.2661408906623,213.44038647172673 L494.5296658208555,219.75401542901042 M494.5296658208555,219.75401542901042 L492.5682269335781,226.06408816025106 M492.5682269335781,226.06408816025106 L490.3875102967239,232.35315036271177 M490.3875102967239,232.35315036271177 L487.9937467936534,238.60394669546938 M487.9937467936534,238.60394669546938 L485.3937079802878,244.79935433267278 M485.3937079802878,244.79935433267278 L482.5946719330726,250.92249295307346 M482.15272736140514,251.84770523723222 L482.2237530377639,251.86384895607307 M482.2237530377639,251.86384895607307 L482.303491257813,251.8521561500824 M482.303491257813,251.8521561500824 L482.38730838396805,251.81328959898454 M482.38730838396805,251.81328959898454 L482.47033031475485,251.74958257789316 M482.47033031475485,251.74958257789316 L482.5477339788631,251.6647264514928 M482.5477339788631,251.6647264514928 L482.61502511466006,251.5635721694858 M482.61502511466006,251.5635721694858 L482.66829175943246,251.45205121761583 M482.66829175943246,251.45205121761583 L482.704440561908,251.33662620519974 M482.704440561908,251.33662620519974 L482.7213686088769,251.22404168354944 M482.7213686088769,251.22404168354944 L482.7180923100691,251.12083102509803 M482.7180923100691,251.12083102509803 L482.6948031573412,251.03291470737508 M482.6948031573412,251.03291470737508 L482.65285102739233,250.96550273084776 M482.65285102739233,250.96550273084776 L482.5946719330726,250.92249295307346 M463.25169745524624,325.85063094158767 L463.50254568007654,320.03159036149907 M463.50254568007654,320.03159036149907 L464.0035728768578,314.08616020025977 M464.0035728768578,314.08616020025977 L464.7537752809493,308.03270181176055 M464.7537752809493,308.03270181176055 L465.75134078578265,301.889676886177 M465.75134078578265,301.889676886177 L466.993632942123,295.6762217238959 M466.993632942123,295.6762217238959 L468.477209606628,289.4114897785087 M468.477209606628,289.4114897785087 L470.19781862626564,283.1150079957098 M470.19781862626564,283.1150079957098 L472.15041000681254,276.8065494213152 M472.15041000681254,276.8065494213152 L474.3291573565059,270.5058405869808 M474.3291573565059,270.5058405869808 L476.72746899038975,264.23264500278185 M476.72746899038975,264.23264500278185 L479.3380094846344,258.00673571293726 M479.3380094846344,258.00673571293726 L482.15272736140514,251.84770523723222 M463.25169745524624,325.85063094158767 L462.84754926823143,341.9843561224743 M462.84754926823143,341.9843561224743 L497.3327030993818,323.49285766074905 M497.3327030993818,323.49285766074905 L497.0419675806494,329.2295095957355 M497.0419675806494,329.2295095957355 L496.50934068539823,335.0715337937277 M496.50934068539823,335.0715337937277 L495.73683845138146,341.0022680809664 M495.73683845138146,341.0022680809664 L494.72708972139026,347.00521169268177 M494.72708972139026,347.00521169268177 L493.4833441485272,353.0634907039025 M493.4833441485272,353.0634907039025 L492.00944204346615,359.1603002231741 M492.00944204346615,359.1603002231741 L490.3098223247981,365.27870555788525 M490.3098223247981,365.27870555788525 L488.38948695925944,371.40182772978426 M488.38948695925944,371.40182772978426 L486.25400294622057,377.512751102536 M486.25400294622057,377.512751102536 L483.9094737673954,383.59473015713314 M483.9094737673954,383.59473015713314 L481.3625381445838,389.63102228716195 M481.3625381445838,389.63102228716195 L478.6203334907483,395.6050992521775 M478.1873366459555,396.508474772177 L478.2570182547597,396.52139960402644 M478.2570182547597,396.52139960402644 L478.335229225111,396.507360505742 M478.335229225111,396.507360505742 L478.41742603680234,396.46710684775195 M478.41742603680234,396.46710684775195 L478.4988295099529,396.4030251336533 M478.4988295099529,396.4030251336533 L478.5747105691455,396.31882888776533 M478.5747105691455,396.31882888776533 L478.6406619076927,396.21938425719827 M478.6406619076927,396.21938425719827 L478.69285017237473,396.11049533954485 M478.69285017237473,396.11049533954485 L478.7282439026352,395.9984984432863 M478.7282439026352,395.9984984432863 L478.7447855113237,395.8898871062436 M478.7447855113237,395.8898871062436 L478.7415138671995,395.7909641973769 M478.7415138671995,395.7909641973769 L478.7186180467447,395.70748050425397 M478.7186180467447,395.70748050425397 L478.6774273164049,395.64430807960224 M478.6774273164049,395.64430807960224 L478.6203334907483,395.6050992521775 M459.6862089691741,468.1860742719156 L459.92930294380324,462.59294366844426 M459.92930294380324,462.59294366844426 L460.41773239777297,456.86989712510666 M460.41773239777297,456.86989712510666 L461.1505151657757,451.034477243649 M461.1505151657757,451.034477243649 L462.1258726234347,445.104553788174 M462.1258726234347,445.104553788174 L463.34122540714134,439.0984394985361 M463.34122540714134,439.0984394985361 L464.79319847788406,433.03477257005517 M464.79319847788406,433.03477257005517 L466.47763019152876,426.9323448103017 M466.47763019152876,426.9323448103017 L468.3895777561976,420.810236067646 M468.3895777561976,420.810236067646 L470.52333538817436,414.687636710382 M470.52333538817436,414.687636710382 L472.87245126153584,408.5836953425627 M472.87245126153584,408.5836953425627 L475.42974596438137,402.51759514940875 M475.42974596438137,402.51759514940875 L478.1873366459555,396.508474772177 M459.6862089691741,468.1860742719156 L459.29798772217316,483.6839909018471 M493.1227003834406,464.7178655825462 L459.29798772217316,483.6839909018471 M493.1227003834406,464.7178655825462 L492.8408916843832,470.2343712251947 M492.8408916843832,470.2343712251947 L492.32176723492535,475.86068314142665 M492.32176723492535,475.86068314142665 L491.5672835581613,481.5808265577841 M491.5672835581613,481.5808265577841 L490.5800062027846,487.3787555648819 M490.5800062027846,487.3787555648819 L489.3631053689128,493.2382439425494 M489.3631053689128,493.2382439425494 L487.9203385882204,499.14290745216533 M487.9203385882204,499.14290745216533 L486.25604658559075,505.07641579317743 M486.25604658559075,505.07641579317743 L484.37513029904005,511.022269874498 M484.37513029904005,511.022269874498 L482.2830410863004,516.9641151043139 M482.2830410863004,516.9641151043139 L479.9857643873504,522.8855399122873 M479.9857643873504,522.8855399122873 L477.48980759965843,528.7702913380489 M477.48980759965843,528.7702913380489 L474.8021721260129,534.6022041885651 M474.37776791680244,535.4847279339137 L474.44615384719077,535.4947217964648 M474.44615384719077,535.4947217964648 L474.5228962217599,535.4784781201981 M474.5228962217599,535.4784781201981 L474.60353478242223,535.4369503524681 M474.60353478242223,535.4369503524681 L474.68338164647264,535.3725722824606 M474.68338164647264,535.3725722824606 L474.75779814257623,535.2890750214151 M474.75779814257623,535.2890750214151 L474.82246199216956,535.1912850952957 M474.82246199216956,535.1912850952957 L474.87361398402413,535.0849344407516 M474.87361398402413,535.0849344407516 L474.9082841770718,534.9761630629123 M474.9082841770718,534.9761630629123 L474.92445703566307,534.8712777035855 M474.92445703566307,534.8712777035855 L474.92119152754447,534.7764135174951 M474.92119152754447,534.7764135174951 L474.8986764113297,534.6970853896769 M474.8986764113297,534.6970853896769 L474.8582209047298,534.6378496973871 M474.8582209047298,534.6378496973871 L474.8021721260129,534.6022041885651 M456.2600203834593,604.9606209254778 L456.4957684174409,599.5803707288424 M456.4957684174409,599.5803707288424 L456.97219302723477,594.06701727494 M456.97219302723477,594.06701727494 L457.68833117005056,588.4373963878085 M457.68833117005056,588.4373963878085 L458.6424386445459,582.7087323778237 M458.6424386445459,582.7087323778237 L459.8319873037062,576.8987004698145 M459.8319873037062,576.8987004698145 L461.2536716539373,571.0252520280511 M461.2536716539373,571.0252520280511 L462.90341332837,565.1066226661113 M462.90341332837,565.1066226661113 L464.7763709612087,559.1612882872439 M464.7763709612087,559.1612882872439 L466.86695834224236,553.2077814185589 M466.86695834224236,553.2077814185589 L469.1688551067475,547.2647683183329 M469.1688551067475,547.2647683183329 L471.67503066412314,541.3508985251392 M471.67503066412314,541.3508985251392 L474.37776791680244,535.4847279339137 M456.2600203834593,604.9606209254778 L455.88680252503343,619.8595974739559 M489.07586657081833,600.4693545499372 L455.88680252503343,619.8595974739559 M489.07586657081833,600.4693545499372 L484.8561428406987,742.0204549702383 M484.8561428406987,742.0204549702383 L452.33006902128363,761.8198196244805 M451.96425124346035,776.4234385748796 L452.33006902128363,761.8198196244805 M451.96425124346035,776.4234385748796 L283.94802757708266,879.1216985040724 M283.94802757708266,879.1216985040724 L283.9418142695972,760.7315300143061 M297.3274030787268,752.8191983493657 L283.9418142695972,760.7315300143061 M297.3274030787268,752.8191983493657 L297.4057335212937,712.4499285119583 M283.9396932640241,720.3172727507975 L297.4057335212937,712.4499285119583 M283.9396932640241,720.3172727507975 L283.93610089454904,651.8672196317355 M297.53839771711574,644.0785961997518 L283.93610089454904,651.8672196317355 M297.53839771711574,644.0785961997518 L297.67377387296784,574.3095972505356 M283.9324349168178,582.0146133820035 L297.67377387296784,574.3095972505356 M283.9324349168178,582.0146133820035 L283.92869304227474,510.71584720025544 M297.81194610785485,503.09957913492207 L283.92869304227474,510.71584720025544 M297.81194610785485,503.09957913492207 L297.95300184725545,430.4034852616803 M311.75916372673163,510.7158410852943 L297.81194610785485,503.09957913492207 M312.3397874650219,363.59647463403604 L298.0970324662681,356.17422351831846 M312.6394034955993,287.6792881838458 L298.24413286085803,280.36288723847395 M298.3124251662292,295.03151800864555 L283.9169877233041,287.67929405849833 M283.9095973302287,146.8605942819309 L298.5879659102362,154.00581157977535 M313.1951609173548,146.86058857295714 L298.5169691508068,139.75086655479367 M313.7731471540143,0.40951648059046875 L298.80069051857964,-6.471011924630147 M488.55363662093714,-80.71945133034706 L473.59773667519573,-87.19554597508238 M480.92389178386463,201.32009886980933 L466.54337430253315,194.41794104949162 M516.0904026697713,183.2735670592962 L501.7159470699247,176.45645264391783 M492.06771581343116,188.47503291355866 L491.8666673883756,188.39934409529224 M491.8666673883756,188.39934409529224 L491.636449862287,188.3489793027717 M491.636449862287,188.3489793027717 L491.3904308799706,188.32686059536013 M491.3904308799706,188.32686059536013 L491.14290718426867,188.33427328041753 M491.14290718426867,188.33427328041753 L490.90824430625776,188.3707838982998 M490.90824430625776,188.3707838982998 L490.70006867192217,188.43426755744517 M490.70006867192217,188.43426755744517 L490.53049954237326,188.52105083133085 M490.53049954237326,188.52105083133085 L490.40939266419923,188.6260934627483 M490.40939266419923,188.6260934627483 L490.3437633019082,188.7432825580346 M490.3437633019082,188.7432825580346 L490.3374423353157,188.86581207079212 M490.3374423353157,188.86581207079212 L490.3908111960609,188.98656745780028 M490.3908111960609,188.98656745780028 L490.5007725814138,189.09852662721443 M490.5007725814138,189.09852662721443 L490.6609453849446,189.19518339790693 M490.6609453849446,189.19518339790693 L490.86201747514065,189.27091370845375 M490.86201747514065,189.27091370845375 L491.09229465697297,189.32131048641503 M491.09229465697297,189.32131048641503 L491.33839561969353,189.3434443459858 M491.33839561969353,189.3434443459858 L491.5860278746692,189.33603750022687 M491.5860278746692,189.33603750022687 L491.8207602289924,189.29950260621985 M491.8207602289924,189.29950260621985 L492.02895034293374,189.23597012023663 M492.02895034293374,189.23597012023663 L492.1985164257445,189.14914411301123 M492.1985164257445,189.14914411301123 L492.3196034288296,189.0440746317491 M492.3196034288296,189.0440746317491 L492.3851598532783,188.92686126136942 M492.3851598532783,188.92686126136942 L492.39137152623994,188.80431560922358 M492.39137152623994,188.80431560922358 L492.33792284577964,188.6835753757177 M492.33792284577964,188.6835753757177 L492.2279063656101,188.57164819214879 M492.2279063656101,188.57164819214879 L492.06771581343116,188.47503291355866 M496.83819625867727,257.8732443366606 L482.5946719330726,250.92249295307346 M496.39488447837755,258.8004625898757 L482.15272736140514,251.84770523723222 M477.3641550581086,332.93391207662813 L463.25169745524624,325.85063094158767 M476.92712291111707,349.0890935820973 L462.84754926823143,341.9843561224743 M511.40657570228905,330.51181886210463 L497.3327030993818,323.49285766074905 M487.8619255828178,335.8668453835795 L487.66505410753325,335.78892482059945 M487.66505410753325,335.78892482059945 L487.43956787966226,335.7370749367501 M487.43956787966226,335.7370749367501 L487.1985599243012,335.7143040102312 M487.1985599243012,335.7143040102312 L486.95603592070563,335.7219352755177 M486.95603592070563,335.7219352755177 L486.726071382402,335.75952248222796 M486.726071382402,335.75952248222796 L486.52202003631396,335.82487803889177 M486.52202003631396,335.82487803889177 L486.3557610739957,335.9142201358896 M486.3557610739957,335.9142201358896 L486.236957837182,336.02235982682754 M486.236957837182,336.02235982682754 L486.17249211620367,336.14300391907614 M486.17249211620367,336.14300391907614 L486.16612669543974,336.2691456654867 M486.16612669543974,336.2691456654867 L486.2182451497232,336.3934607731859 M486.2182451497232,336.3934607731859 L486.32582262884375,336.508720174621 M486.32582262884375,336.508720174621 L486.4826162847678,336.6082259622491 M486.4826162847678,336.6082259622491 L486.6795104192199,336.68618837594676 M486.6795104192199,336.68618837594676 L486.9050538675524,336.73807052154757 M486.9050538675524,336.73807052154757 L487.14614049659895,336.76085673111993 M487.14614049659895,336.76085673111993 L487.3887691569181,336.7532315845942 M487.3887691569181,336.7532315845942 L487.6188004206008,336.71561989204656 M487.6188004206008,336.71561989204656 L487.82286527708106,336.65021485772814 M487.82286527708106,336.65021485772814 L487.98912137398077,336.5608296582323 M487.98912137398077,336.5608296582323 L488.1079060260183,336.4526631145219 M488.1079060260183,336.4526631145219 L488.17230176609223,336.33199453747585 M488.17230176609223,336.33199453747585 L488.1785618394789,336.2058362832359 M488.1785618394789,336.2058362832359 L488.1263667436107,336.08153645994463 M488.1263667436107,336.08153645994463 L488.0187363335233,335.96630932066915 M488.0187363335233,335.96630932066915 L487.8619255828178,335.8668453835795 M492.5686087185867,402.74842338022563 L478.6203334907483,395.6050992521775 M492.13429941063305,403.6537100424948 L478.1873366459555,396.508474772177 M473.5087153150812,475.45278456865935 L459.6862089691741,468.1860742719156 M473.08894489087595,490.969875108441 L459.29798772217316,483.6839909018471 M506.9082891781437,471.91752161788656 L493.1227003834406,464.7178655825462 M483.82302640830744,477.4099650051061 L483.6301619631396,477.33004764254935 M483.6301619631396,477.33004764254935 L483.4092165206214,477.27686900389426 M483.4092165206214,477.27686900389426 L483.1730195399731,477.25351451646213 M483.1730195399731,477.25351451646213 L482.9352972513799,477.26134135243296 M482.9352972513799,477.26134135243296 L482.7098466290872,477.2998918160831 M482.7098466290872,477.2998918160831 L482.5097594004127,477.3669222114115 M482.5097594004127,477.3669222114115 L482.34668400958446,477.4585537476298 M482.34668400958446,477.4585537476298 L482.23009875252365,477.56946443381344 M482.23009875252365,477.56946443381344 L482.16675691019395,477.69319975277335 M482.16675691019395,477.69319975277335 L482.16035550616846,477.8225733830104 M482.16035550616846,477.8225733830104 L482.2112797897129,477.95007336650326 M482.2112797897129,477.95007336650326 L482.3165741084847,478.06828545802193 M482.3165741084847,478.06828545802193 L482.4701280327189,478.170340220596 M482.4701280327189,478.170340220596 L482.6630141936912,478.2502996543959 M482.6630141936912,478.2502996543959 L482.884014567475,478.3035107248005 M482.884014567475,478.3035107248005 L483.1202871111891,478.32688057581765 M483.1202871111891,478.32688057581765 L483.3581103748746,478.3190601210746 M483.3581103748746,478.3190601210746 L483.5836251317992,478.2804850425631 M483.5836251317992,478.2804850425631 L483.7837249644168,478.21340467864 M483.7837249644168,478.21340467864 L483.9467976570387,478.1217298128023 M483.9467976570387,478.1217298128023 L484.0633655318901,478.0107923625751 M484.0633655318901,478.0107923625751 L484.12664017403927,477.8870324297992 M484.12664017403927,477.8870324297992 L484.1329399526222,477.7576419745218 M484.1329399526222,477.7576419745218 L484.0819420195288,477.6301573559758 M484.0819420195288,477.6301573559758 L483.9765968086713,477.511977696617 M483.9765968086713,477.511977696617 L483.82302640830744,477.4099650051061 M488.4671781186963,541.917719457306 L474.8021721260129,534.6022041885651 M488.0415129684699,542.8020659257464 L474.37776791680244,535.4847279339137 M469.80424063589305,612.3911339250394 L456.2600203834593,604.9606209254778 M469.4007287696712,627.3072161475952 L455.88680252503343,619.8595974739559 M502.58473172050003,607.8305359226526 L489.07586657081833,600.4693545499372 M479.94127717782123,613.445768805059 L479.7522599997918,613.3640674981564 M479.7522599997918,613.3640674981564 L479.535676108076,613.309701742558 M479.535676108076,613.309701742558 L479.30410179570663,613.2858258972929 M479.30410179570663,613.2858258972929 L479.07099477669806,613.2938274577116 M479.07099477669806,613.2938274577116 L478.84988429603425,613.3332385017206 M478.84988429603425,613.3332385017206 L478.6536101633242,613.4017652044025 M478.6536101633242,613.4017652044025 L478.4935988652477,613.4954421242185 M478.4935988652477,613.4954421242185 L478.37915059719046,613.608828399984 M478.37915059719046,613.608828399984 L478.3168948247421,613.7353253807689 M478.3168948247421,613.7353253807689 L478.31046503005643,613.8675863109322 M478.31046503005643,613.8675863109322 L478.3602477173936,613.9979315751759 M478.3602477173936,613.9979315751759 L478.463353389329,614.1187814985681 M478.463353389329,614.1187814985681 L478.61379855538075,614.2231134118956 M478.61379855538075,614.2231134118956 L478.80283656338486,614.3048568921097 M478.80283656338486,614.3048568921097 L479.01947323180536,614.3592551581397 M479.01947323180536,614.3592551581397 L479.2511201775146,614.3831464042632 M479.2511201775146,614.3831464042632 L479.48432469424233,614.3751514713376 M479.48432469424233,614.3751514713376 L479.7054968667794,614.3357157527495 M479.7054968667794,614.3357157527495 L479.90178275480423,614.2671387294612 M479.90178275480423,614.2671387294612 L480.06179150912556,614.1734183749044 M480.06179150912556,614.1734183749044 L480.1762235171195,614.0600055009476 M480.1762235171195,614.0600055009476 L480.23841470762477,613.9334838466311 M480.23841470762477,613.9334838466311 L480.2447463914684,613.8012058198246 M480.2447463914684,613.8012058198246 L480.1948928747745,613.6708759578045 M480.1948928747745,613.6708759578045 L480.091738234103,613.5500585452553 M480.091738234103,613.5500585452553 L479.94127717782123,613.445768805059 M498.07686606111986,749.5373631938232 L484.8561428406987,742.0204549702383 M452.33006902128363,761.8198196244805 L465.5555457943133,769.4231590340797 M476.869644121066,754.6758924884117 L477.2377346891383,754.9420221675226 M477.2377346891383,754.9420221675226 L477.49001417169245,755.250358659875 M477.49001417169245,755.250358659875 L477.6118198403949,755.5830133524444 M477.6118198403949,755.5830133524444 L477.5960276517658,755.9206563283074 M477.5960276517658,755.9206563283074 L477.4435177417736,756.2436635924586 M477.4435177417736,756.2436635924586 L477.16310726418544,756.5332427100252 M477.16310726418544,756.5332427100252 L476.7710871905989,756.7725518065666 M476.7710871905989,756.7725518065666 L476.2902394889667,756.9476595947207 M476.2902394889667,756.9476595947207 L475.7485124900048,757.0483608957845 M475.7485124900048,757.0483608957845 L475.17743374952863,757.0687975991616 M475.17743374952863,757.0687975991616 L474.6102288257746,757.0077783369745 M474.6102288257746,757.0077783369745 L474.0799084087091,756.8688626160092 M474.0799084087091,756.8688626160092 L473.6172963453347,756.6601274068317 M473.6172963453347,756.6601274068317 L473.24930133023884,756.3937341696947 M473.24930133023884,756.3937341696947 L472.99731560721386,756.0851945025581 M472.99731560721386,756.0851945025581 L472.875934614675,755.7524435542117 M472.875934614675,755.7524435542117 L472.89218510627654,755.4148332977201 M472.89218510627654,755.4148332977201 L473.0451031294724,755.0919923407093 M473.0451031294724,755.0919923407093 L473.32571935759654,754.8026414670248 M473.32571935759654,754.8026414670248 L473.71775436336054,754.5636038148549 M473.71775436336054,754.5636038148549 L474.198422757828,754.3887484836417 M474.198422757828,754.3887484836417 L474.739758608471,754.2881892726134 M474.739758608471,754.2881892726134 L475.3103826454653,754.2677852846004 M475.3103826454653,754.2677852846004 L475.8771523028777,754.3287082896884 M475.8771523028777,754.3287082896884 L476.40715660733963,754.4674208392456 M476.40715660733963,754.4674208392456 L476.869644121066,754.6758924884117 M465.1600749638726,784.0420509520385 L451.96425124346035,776.4234385748796 M297.1554352743027,887.1955459750824 L283.94802757708266,879.1216985040724 M283.9418142695972,760.7315300143061 L297.386994838076,768.6800386616593 M310.77244767601314,760.7315236621797 L297.3274030787268,752.8191983493657 M310.9319472556923,720.3172664347012 L297.4057335212937,712.4499285119583 M297.4660454416176,728.2208054972377 L283.9396932640241,720.3172727507975 M283.93610089454904,651.8672196317355 L297.59993924895014,659.6920337049539 M311.2020933734348,651.8672133786928 L297.53839771711574,644.0785961997518 M311.47777483067244,582.0146071959379 L297.67377387296784,574.3095972505356 M297.7365830036502,589.7557993919233 L283.9324349168178,582.0146133820035 M283.92869304227474,510.71584720025544 L297.8760624066987,518.3682395662597 M492.06771581343116,188.47503291355866 L492.50778707288487,173.05274673420445 M492.50778707288487,173.05274673420445 L492.6683315969443,173.14905247135977 M492.6683315969443,173.14905247135977 L492.77859812261465,173.26062107332535 M492.77859812261465,173.26062107332535 L492.8321783814383,173.38097451124577 M492.8321783814383,173.38097451124577 L492.82597218878857,173.5031276057585 M492.82597218878857,173.5031276057585 L492.7602947138805,173.61996552014548 M492.7602947138805,173.61996552014548 L492.6389671604437,173.72469846150568 M492.6389671604437,173.72469846150568 L492.46905503094695,173.81124637519818 M492.46905503094695,173.81124637519818 L492.26043348481426,173.8745753810143 M492.26043348481426,173.8745753810143 L492.0252093540852,173.910993264686 M492.0252093540852,173.910993264686 L491.77705357143384,173.91837638877038 M491.77705357143384,173.91837638877038 L491.53042785764126,173.8963134168598 M491.53042785764126,173.8963134168598 L491.2996551903567,173.84607804628817 M491.2996551903567,173.84607804628817 L491.0981456837394,173.77059028659846 M491.0981456837394,173.77059028659846 L490.9376189773085,173.6742431026455 M490.9376189773085,173.6742431026455 L490.82740777526465,173.5626425497598 M490.82740777526465,173.5626425497598 L490.7739076723792,173.4422739748835 M490.7739076723792,173.4422739748835 L490.78022357573354,173.320136978934 M490.78022357573354,173.320136978934 L490.84597430150063,173.2033233131345 M490.84597430150063,173.2033233131345 L490.9673218672867,173.09861721550436 M490.9673218672867,173.09861721550436 L491.1372370629242,173.01211198849114 M491.1372370629242,173.01211198849114 L491.34584402655116,172.94883173299684 M491.34584402655116,172.94883173299684 L491.5809983899958,172.91243809894254 M491.5809983899958,172.91243809894254 L491.8290452009761,172.905049165138 M491.8290452009761,172.905049165138 L492.07558858438153,172.92709700143405 M492.07558858438153,172.92709700143405 L492.30630133806665,172.97730042149 M492.30630133806665,172.97730042149 L492.50778707288487,173.05274673420445 M487.8619255828178,335.8668453835795 L488.2843445789525,321.06318232666274 M488.2843445789525,321.06318232666274 L488.4414945323083,321.16236912005627 M488.4414945323083,321.16236912005627 L488.54936429626105,321.2772752102404 M488.54936429626105,321.2772752102404 L488.6016849785102,321.4012287260639 M488.6016849785102,321.4012287260639 L488.5954294411979,321.5270355165531 M488.5954294411979,321.5270355165531 L488.5309168143349,321.64736794371527 M488.5309168143349,321.64736794371527 L488.41190064223656,321.75523318159696 M488.41190064223656,321.75523318159696 L488.24531187008813,321.8443694040487 M488.24531187008813,321.8443694040487 L488.0408325169727,321.9095922634821 M488.0408325169727,321.9095922634821 L487.81032899343404,321.9470991975203 M487.81032899343404,321.9470991975203 L487.56719776780596,321.9547031062307 M487.56719776780596,321.9547031062307 L487.32560757280214,321.9319803618125 M487.32560757280214,321.9319803618125 L487.0995888154481,321.8802427232754 M487.0995888154481,321.8802427232754 L486.9022752589964,321.8024974647381 M486.9022752589964,321.8024974647381 L486.7451424656523,321.70326885078737 M486.7451424656523,321.70326885078737 L486.63732584812294,321.58833052155603 M486.63732584812294,321.58833052155603 L486.58508212378433,321.4643617322741 M486.58508212378433,321.4643617322741 L486.5914434015748,321.3385714143765 M486.5914434015748,321.3385714143765 L486.65602630350236,321.21826345447107 M486.65602630350236,321.21826345447107 L486.7750611882167,321.11042507353653 M486.7750611882167,321.11042507353653 L486.9416528436609,321.0213319227045 M486.9416528436609,321.0213319227045 L487.1461185902026,320.9561584820684 M487.1461185902026,320.9561584820684 L487.3765551145133,320.9186760163261 M487.3765551145133,320.9186760163261 L487.61958129462573,320.91106601665047 M487.61958129462573,320.91106601665047 L487.8610924869404,320.93377348896365 M487.8610924869404,320.93377348896365 L488.0870537816144,320.9854788888615 M488.0870537816144,320.9854788888615 L488.2843445789525,321.06318232666274 M483.82302640830744,477.4099650051061 L484.2288322110519,463.18851089120574 M484.2288322110519,463.18851089120574 L484.38272794727084,463.2902757717007 M484.38272794727084,463.2902757717007 L484.4883024880568,463.4081683634976 M484.4883024880568,463.4081683634976 L484.539420409646,463.5353433319144 M484.539420409646,463.5353433319144 L484.5331243204738,463.66441952905467 M484.5331243204738,463.66441952905467 L484.4697367502325,463.78787889877935 M484.4697367502325,463.78787889877935 L484.3529458899309,463.8985469431476 M484.3529458899309,463.8985469431476 L484.1895531359394,463.9899991931188 M484.1895531359394,463.9899991931188 L483.98905476682535,464.05691667125143 M483.98905476682535,464.05691667125143 L483.7630861299473,464.09539808362786 M483.7630861299473,464.09539808362786 L483.5247800315823,464.10319954935244 M483.5247800315823,464.10319954935244 L483.288023852106,464.07988644341617 M483.288023852106,464.07988644341617 L483.0665671406057,464.02680457909895 M483.0665671406057,464.02680457909895 L482.87327846683127,463.9470393080088 M482.87327846683127,463.9470393080088 L482.7193992684863,463.8452323732657 M482.7193992684863,463.8452323732657 L482.6138758229072,463.7273073622714 M482.6138758229072,463.7273073622714 L482.5628318488326,463.6001170350488 M482.5628318488326,463.6001170350488 L482.56922993440844,463.47105763268144 M482.56922993440844,463.47105763268144 L482.632684981617,463.34762286693535 M482.632684981617,463.34762286693535 L482.74949334334065,463.23698159945616 M482.74949334334065,463.23698159945616 L482.91288881203684,463.14557266178656 M482.91288881203684,463.14557266178656 L483.1133744872126,463.0787051087344 M483.1133744872126,463.0787051087344 L483.33927873141636,463.0402483013814 M483.33927873141636,463.0402483013814 L483.57748348770497,463.03244048052204 M483.57748348770497,463.03244048052204 L483.8141637944493,463.0557382290137 M483.8141637944493,463.0557382290137 L484.0355653468648,463.1087876745438 M484.0355653468648,463.1087876745438 L484.2288322110519,463.18851089120574 M479.94127717782123,613.445768805059 L480.331431242887,599.7728294430285 M480.331431242887,599.7728294430285 L480.4822046005959,599.8768979619175 M480.4822046005959,599.8768979619175 L480.58557916199777,599.9974591106152 M480.58557916199777,599.9974591106152 L480.6355474306338,600.127512551648 M480.6355474306338,600.127512551648 L480.62921867644445,600.2595100463036 M480.62921867644445,600.2595100463036 L480.56691832365357,600.3857633960225 M480.56691832365357,600.3857633960225 L480.45227140327904,600.4989357804155 M480.45227140327904,600.4989357804155 L480.29195449812005,600.5924574145772 M480.29195449812005,600.5924574145772 L480.09528512945144,600.6608890369042 M480.09528512945144,600.6608890369042 L479.8736764041412,600.7002411441529 M479.8736764041412,600.7002411441529 L479.64000764345633,600.7082191265033 M479.64000764345633,600.7082191265033 L479.4078958316327,600.6843785339853 M479.4078958316327,600.6843785339853 L479.1908206830989,600.6300956043054 M479.1908206830989,600.6300956043054 L479.00139606942093,600.5485254449932 M479.00139606942093,600.5485254449932 L478.85063866044277,600.4444147584827 M478.85063866044277,600.4444147584827 L478.7473132594861,600.3238211031892 M478.7473132594861,600.3238211031892 L478.69741610120684,600.1937522619451 M478.69741610120684,600.1937522619451 L478.70384331672085,600.061771838093 M478.70384331672085,600.061771838093 L478.76620851221,599.9355431586821 M478.76620851221,599.9355431586821 L478.8808718039477,599.8223973926117 M478.8808718039477,599.8223973926117 L479.0411912681118,599.7289191875165 M479.0411912681118,599.7289191875165 L479.23784879717255,599.6605378556159 M479.23784879717255,599.6605378556159 L479.4593955871809,599.6212104197227 M479.4593955871809,599.6212104197227 L479.6929665033398,599.6132258343512 M479.6929665033398,599.6132258343512 L479.92500539000844,599.6370510280227 M479.92500539000844,599.6370510280227 L480.1420275472989,599.6913014515183 M480.1420275472989,599.6913014515183 L480.331431242887,599.7728294430285 M476.869644121066,754.6758924884117 L476.82563398064553,756.2105514680801 M476.82563398064553,756.2105514680801 L477.1936370466127,756.4767379889528 M477.1936370466127,756.4767379889528 L477.4458549481342,756.7851403262135 M477.4458549481342,756.7851403262135 L477.56762854134604,757.11786604277 M477.56762854134604,757.11786604277 L477.55183566545315,757.4555810927438 M477.55183566545315,757.4555810927438 L477.3993565139456,757.7786572927739 M477.3993565139456,757.7786572927739 L477.1190064714018,758.0682982003339 M477.1190064714018,758.0682982003339 L476.72707300300806,758.3076583519838 M476.72707300300806,758.3076583519838 L476.24633304432166,758.4828034935161 M476.24633304432166,758.4828034935161 L475.7047286601412,758.5835262739982 M475.7047286601412,758.5835262739982 L475.13378026305134,758.6039673363267 M475.13378026305134,758.6039673363267 L474.5667058190013,758.5429350591573 M474.5667058190013,758.5429350591573 L474.0365084155691,758.4039897066099 M474.0365084155691,758.4039897066099 L473.5740047436134,758.1952099681416 M473.5740047436134,758.1952099681416 L473.2060971902538,757.9287598932423 M473.2060971902538,757.9287598932423 L472.95417291652393,757.6201543842803 M472.95417291652393,757.6201543842803 L472.83282380654634,757.2873324134076 M472.83282380654634,757.2873324134076 L472.8490747754886,756.9496500823087 M472.8490747754886,756.9496500823087 L473.0019618563831,756.6267401896644 M473.0019618563831,756.6267401896644 L473.2825175476944,756.3373275197538 M473.2825175476944,756.3373275197538 L473.6744659380274,756.0982388083563 M473.6744659380274,756.0982388083563 L474.15502667318685,755.9233461227029 M474.15502667318685,755.9233461227029 L474.6962400812333,755.8227654273311 M474.6962400812333,755.8227654273311 L475.2667339822964,755.8023570798703 M475.2667339822964,755.8023570798703 L475.8333733601953,755.8632931014012 M475.8333733601953,755.8632931014012 L476.3632547980877,756.0020352856238 M476.3632547980877,756.0020352856238 L476.82563398064553,756.2105514680801 M493.5645585304296,172.51459810789862 L493.9659538714649,172.75528444012434 M493.9659538714649,172.75528444012434 L494.24172318684316,173.03414640225776 M494.24172318684316,173.03414640225776 L494.37583631072505,173.33500675477964 M494.37583631072505,173.33500675477964 L494.3604466204695,173.64038373614522 M494.3604466204695,173.64038373614522 L494.19640389394897,173.93252845224723 M494.19640389394897,173.93252845224723 L493.89318829231956,174.19444300716742 M493.89318829231956,174.19444300716742 L493.4684137560598,174.41089288184415 M493.4684137560598,174.41089288184415 L492.9467654958348,174.5692757087843 M492.9467654958348,174.5692757087843 L492.358564757511,174.66035941676364 M492.358564757511,174.66035941676364 L491.73804677710416,174.67884434532354 M491.73804677710416,174.67884434532354 L491.1213171589833,174.62365268657666 M491.1213171589833,174.62365268657666 L490.5442724315001,174.49800464538095 M490.5442724315001,174.49800464538095 L490.04045477198315,174.30920713431328 M490.04045477198315,174.30920713431328 L489.63917079035434,174.0682617598809 M489.63917079035434,174.0682617598809 L489.3637472484937,173.78920010417502 M489.3637472484937,173.78920010417502 L489.2301351077318,173.48824514513055 M489.2301351077318,173.48824514513055 L489.2460662196164,173.1829003225199 M489.2460662196164,173.1829003225199 L489.4105898465267,172.89091811416188 M489.4105898465267,172.89091811416188 L489.7140517188409,172.62922884225452 M489.7140517188409,172.62922884225452 L490.13884541864377,172.41304576100677 M490.13884541864377,172.41304576100677 L490.6602813448725,172.2549101155222 M490.6602813448725,172.2549101155222 L491.2480229550623,172.16396701288073 M491.2480229550623,172.16396701288073 L491.868004133318,172.145514239139 M491.868004133318,172.145514239139 L492.4842191771743,172.2006112900587 M492.4842191771743,172.2006112900587 L493.06088944383,172.32605964099238 M493.06088944383,172.32605964099238 L493.5645585304296,172.51459810789862 M489.32045511217746,320.5089321230936 L489.7133627831471,320.7568203843735 M489.7133627831471,320.7568203843735 L489.9831361285834,321.0440255367871 M489.9831361285834,321.0440255367871 L490.1140940614407,321.3538859816383 M490.1140940614407,321.3538859816383 L490.0985752375541,321.6683968291961 M490.0985752375541,321.6683968291961 L489.93743876679844,321.9692783702019 M489.93743876679844,321.9692783702019 L489.639997799418,322.23902464301307 M489.639997799418,322.23902464301307 L489.223531311329,322.46194601076104 M489.223531311329,322.46194601076104 L488.7122417687805,322.62506379278744 M488.7122417687805,322.62506379278744 L488.1358479452374,322.7188703416693 M488.1358479452374,322.7188703416693 L487.5278971306752,322.7379078408978 M487.5278971306752,322.7379078408978 L486.9237627833779,322.68106632115735 M486.9237627833779,322.68106632115735 L486.35860744233185,322.55166208063133 M486.35860744233185,322.55166208063133 L485.86528154353516,322.35722011204615 M485.86528154353516,322.35722011204615 L485.4724811218947,322.1090704725675 M485.4724811218947,322.1090704725675 L485.20303994242147,321.8216638257832 M485.20303994242147,321.8216638257832 L485.07256300466963,321.5117079212657 M485.07256300466963,321.5117079212657 L485.088601460792,321.1972295224644 M485.088601460792,321.1972295224644 L485.25019974932593,320.89651218352077 M485.25019974932593,320.89651218352077 L485.5478763231896,320.6269929964268 M485.5478763231896,320.6269929964268 L485.96436083203,320.4043408279981 M485.96436083203,320.4043408279981 L486.4754466810159,320.24147268531476 M486.4754466810159,320.24147268531476 L487.05139916067947,320.14780778086623 M487.05139916067947,320.14780778086623 L487.65883468700974,320.12880272642155 M487.65883468700974,320.12880272642155 L488.26247525854717,320.1855487851809 M488.26247525854717,320.1855487851809 L488.82727145704723,320.3147515346785 M488.82727145704723,320.3147515346785 L489.32045511217746,320.5089321230936 M485.24507313864046,462.61985204962116 L485.62984409027047,462.8741850806934 M485.62984409027047,462.8741850806934 L485.89387554759526,463.16885615818995 M485.89387554759526,463.16885615818995 L486.02182069131095,463.4867702118445 M486.02182069131095,463.4867702118445 L486.00619507135923,463.8094542181334 M486.00619507135923,463.8094542181334 L485.8478657226867,464.1181534908212 M485.8478657226867,464.1181534908212 L485.5559844385979,464.3949074812955 M485.5559844385979,464.3949074812955 L485.14750767761745,464.62361936838334 M485.14750767761745,464.62361936838334 L484.64617365388324,464.79097381193174 M484.64617365388324,464.79097381193174 L484.08112213224706,464.8872166383551 M484.08112213224706,464.8872166383551 L483.4852395565948,464.90674855165963 M483.4852395565948,464.90674855165963 L482.8931963413446,464.84843081270003 M482.8931963413446,464.84843081270003 L482.33945044956806,464.7156656798238 M482.33945044956806,464.7156656798238 L481.85618852487096,464.516173233322 M481.85618852487096,464.516173233322 L481.47152093423756,464.26157736348443 M481.47152093423756,464.26157736348443 L481.20780882273937,463.9667036656773 M481.20780882273937,463.9667036656773 L481.08032585883495,463.6486936189326 M481.08032585883495,463.6486936189326 L481.09645061099263,463.32604224272234 M481.09645061099263,463.32604224272234 L481.2552238252906,463.0175083197827 M481.2552238252906,463.0175083197827 L481.5473307092808,462.7409824538345 M481.5473307092808,462.7409824538345 L481.95582443730893,462.51254127033627 M481.95582443730893,462.51254127033627 L482.45696290806063,462.34543809123386 M482.45696290806063,462.34543809123386 L483.0215898408286,462.24933747061027 M483.0215898408286,462.24933747061027 L483.61697737427926,462.22983818338895 M483.61697737427926,462.22983818338895 L484.2085463763708,462.2880599279376 M484.2085463763708,462.2880599279376 L484.76194752310255,462.42062244386625 M484.76194752310255,462.42062244386625 L485.24507313864046,462.61985204962116 M481.32854934690056,599.1912955541508 L481.7055132378986,599.4513874597216 M481.7055132378986,599.4513874597216 L481.9640411342041,599.7527297734058 M481.9640411342041,599.7527297734058 L482.08910659253934,600.077840053668 M482.08910659253934,600.077840053668 L482.073394221139,600.4078269617368 M482.073394221139,600.4078269617368 L481.91777771478735,600.7235114149872 M481.91777771478735,600.7235114149872 L481.6312528898893,601.0065267189694 M481.6312528898893,601.0065267189694 L481.23046545704926,601.2404122846137 M481.23046545704926,601.2404122846137 L480.73870682975075,601.4115520278147 M480.73870682975075,601.4115520278147 L480.1845598843827,601.5099715595866 M480.1845598843827,601.5099715595866 L479.60027574879143,601.5299452082071 M479.60027574879143,601.5299452082071 L479.01984919468987,601.4703085364066 M479.01984919468987,601.4703085364066 L478.477061289737,601.334540585264 M478.477061289737,601.334540585264 L478.00346117437743,601.1305356983678 M478.00346117437743,601.1305356983678 L477.6265969622556,600.8701802454505 M477.6265969622556,600.8701802454505 L477.36837631948606,600.5686347652156 M477.36837631948606,600.5686347652156 L477.2437553084228,600.2434282330773 M477.2437553084228,600.2434282330773 L477.25994750161385,599.9134740430538 M477.25994750161385,599.9134740430538 L477.4159909640216,599.5979556160687 M477.4159909640216,599.5979556160687 L477.7027319872984,599.3151688208551 M477.7027319872984,599.3151688208551 L478.1035354140563,599.0815546885837 M478.1035354140563,599.0815546885837 L478.595106166581,598.9106671179595 M478.595106166581,598.9106671179595 L479.14884432705014,598.8123899446022 M479.14884432705014,598.8123899446022 L479.7326524962783,598.7924490100204 M479.7326524962783,598.7924490100204 L480.31262325992304,598.8519894286214 M480.31262325992304,598.8519894286214 L480.8550799688702,598.9875542165872 M480.8550799688702,598.9875542165872 L481.32854934690056,599.1912955541508 M475.8505354083885,756.8057108570373 L475.9977249405613,756.9122172267008 M475.9977249405613,756.9122172267008 L476.09857713222937,757.0356023821838 M476.09857713222937,757.0356023821838 L476.14723115766583,757.1687019460968 M476.14723115766583,757.1687019460968 L476.1408724856435,757.3037908533574 M476.1408724856435,757.3037908533574 L476.07982941697287,757.4330008563862 M476.07982941697287,757.4330008563862 L475.96765393727753,757.5488233674272 M475.96765393727753,757.5488233674272 L475.81087874741434,757.6445348356212 M475.81087874741434,757.6445348356212 L475.61861553621065,757.7145687244565 M475.61861553621065,757.7145687244565 L475.40202167264283,757.7548421969063 M475.40202167264283,757.7548421969063 L475.1736849188728,757.7630069679951 M475.1736849188728,757.7630069679951 L474.9469113654185,757.738608192306 M474.9469113654185,757.738608192306 L474.73487058312116,757.6830542987784 M474.73487058312116,757.6830542987784 L474.5498838027852,757.5995742026122 M474.5498838027852,757.5995742026122 L474.4027095527355,757.4930256642583 M474.4027095527355,757.4930256642583 L474.3019043413992,757.3696080013553 M474.3019043413992,757.3696080013553 L474.25331823212787,757.2364930368404 M474.25331823212787,757.2364930368404 L474.2597713774637,757.1014214777279 M474.2597713774637,757.1014214777279 L474.32087632638707,756.9722361456326 M474.32087632638707,756.9722361456326 L474.4330669191371,756.8564399766775 M474.4330669191371,756.8564399766775 L474.5898444964905,756.7607719386508 M474.5898444964905,756.7607719386508 L474.7820968226582,756.6907886184284 M474.7820968226582,756.6907886184284 L474.99863151850377,756.6505398179597 M474.99863151850377,756.6505398179597 L475.2268743744188,756.6423681667708 M475.2268743744188,756.6423681667708 L475.45357831854494,756.6667515432231 M475.45357831854494,756.6667515432231 L475.6655685464682,756.7222729297422 M475.6655685464682,756.7222729297422 L475.8505354083885,756.8057108570373 M493.61655494896866,170.7014530040878 L494.01805436540155,170.94204800005366 M494.01805436540155,170.94204800005366 L494.2938972436483,171.22080415140226 M494.2938972436483,171.22080415140226 L494.42804913499765,171.52155036111674 M494.42804913499765,171.52155036111674 L494.4126611401665,171.82681150204164 M494.4126611401665,171.82681150204164 L494.24858291587157,172.11884541218794 M494.24858291587157,172.11884541218794 L493.94529666290134,172.38066063946337 M493.94529666290134,172.38066063946337 L493.5204204198095,172.59702843728098 M493.5204204198095,172.59702843728098 L492.99864530697437,172.75535121124167 M492.99864530697437,172.75535121124167 L492.4102999482135,172.84640038556188 M492.4102999482135,172.84640038556188 L491.78962800623856,172.86487830588317 M491.78962800623856,172.86487830588317 L491.1727440552445,172.80970757226635 M491.1727440552445,172.80970757226635 L490.59555361755986,172.684107170687 M490.59555361755986,172.684107170687 L490.0916073483073,172.49538124754355 M490.0916073483073,172.49538124754355 L489.69021934201635,172.25452724327982 M489.69021934201635,172.25452724327982 L489.4147224056203,171.97557142449895 M489.4147224056203,171.97557142449895 L489.2810717447628,171.6747306206459 M489.2810717447628,171.6747306206459 L489.29700143096306,171.3695016342662 M489.29700143096306,171.3695016342662 L489.4615607918896,171.07763020787007 M489.4615607918896,171.07763020787007 L489.76509344773945,170.81604023683923 M489.76509344773945,170.81604023683923 L490.189988868667,170.59993919752702 M490.189988868667,170.59993919752702 L490.71155154062103,170.44186356994436 M490.71155154062103,170.44186356994436 L491.2994375512443,170.35095498527787 M491.2994375512443,170.35095498527787 L491.91957242477326,170.33250921556566 M491.91957242477326,170.33250921556566 L492.53594154399434,170.38758535373955 M492.53594154399434,170.38758535373955 L493.1127573311229,170.51298609119686 M493.1127573311229,170.51298609119686 L493.61655494896866,170.7014530040878 M493.61655494896866,170.7014530040878 L493.5645585304296,172.51459810789862 M489.3703636432855,318.7685928582127 L489.7633710414773,319.0163993354013 M489.7633710414773,319.0163993354013 L490.03321479948784,319.3035097444863 M490.03321479948784,319.3035097444863 L490.16420973104357,319.6132679873024 M490.16420973104357,319.6132679873024 L490.1486923194873,319.927675114711 M490.1486923194873,319.927675114711 L489.98752157134993,320.2284574451143 M489.98752157134993,320.2284574451143 L489.6900126069245,320.4981147859885 M489.6900126069245,320.4981147859885 L489.273448346509,320.72096266818215 M489.273448346509,320.72096266818215 L488.7620369375003,320.88402668382605 M488.7620369375003,320.88402668382605 L488.18550424114426,320.977802314413 M488.18550424114426,320.977802314413 L487.5774056388541,320.99683353912366 M487.5774056388541,320.99683353912366 L486.9731231986083,320.9400107537979 M486.9731231986083,320.9400107537979 L486.40782808929464,320.8106491655892 M486.40782808929464,320.8106491655892 L485.9143788786695,320.6162712911448 M485.9143788786695,320.6162712911448 L485.52147877778054,320.3682034583345 M485.52147877778054,320.3682034583345 L485.2519673442308,320.0808915722831 M485.2519673442308,320.0808915722831 L485.12145364049593,319.7710378780462 M485.12145364049593,319.7710378780462 L485.1374909379076,319.4566631965914 M485.1374909379076,319.4566631965914 L485.29912372592855,319.1560450513209 M485.29912372592855,319.1560450513209 L485.5968684207986,318.88661477929486 M485.5968684207986,318.88661477929486 L486.01345071513265,318.66403607316823 M486.01345071513265,318.66403607316823 L486.5246583299355,318.50122167255836 M486.5246583299355,318.50122167255836 L487.1007494752665,318.4075876769162 M487.1007494752665,318.4075876769162 L487.70833253887906,318.38858889418685 M487.70833253887906,318.38858889418685 L488.3121209613113,318.44531622677704 M488.3121209613113,318.44531622677704 L488.8770567498699,318.57447634136145 M488.8770567498699,318.57447634136145 L489.3703636432855,318.7685928582127 M489.3703636432855,318.7685928582127 L489.32045511217746,320.5089321230936 M485.2930170594341,460.9480198795068 L485.67788365663193,461.20227977403897 M485.67788365663193,461.20227977403897 L485.94198257361336,461.49686612744335 M485.94198257361336,461.49686612744335 L486.0699630639741,461.81468878878013 M486.0699630639741,461.81468878878013 L486.054338602426,462.1372800470228 M486.054338602426,462.1372800470228 L485.89597613658293,462.4458906058799 M485.89597613658293,462.4458906058799 L485.60402936360833,462.7225650751015 M485.60402936360833,462.7225650751015 L485.1954585411602,462.9512112538157 M485.1954585411602,462.9512112538157 L484.69400734894634,463.1185176218104 M484.69400734894634,463.1185176218104 L484.1288223662093,463.2147328026665 M484.1288223662093,463.2147328026665 L483.5327978126286,463.23425910563606 M483.5327978126286,463.23425910563606 L482.9406123734459,463.1759581179981 M482.9406123734459,463.1759581179981 L482.3867322992253,463.0432311227885 M482.3867322992253,463.0432311227885 L481.9033520400519,462.8437959867919 M481.9033520400519,462.8437959867919 L481.51858884925855,462.5892732663343 M481.51858884925855,462.5892732663343 L481.2548094275171,462.2944843025178 M481.2548094275171,462.2944843025178 L481.12729133616165,461.9765656527804 M481.12729133616165,461.9765656527804 L481.1434151686743,461.65400702302225 M481.1434151686743,461.65400702302225 L481.3022217092214,461.34556180307413 M481.3022217092214,461.34556180307413 L481.59439419848957,461.06911544999605 M481.59439419848957,461.06911544999605 L482.00298200013606,460.8407399616473 M482.00298200013606,460.8407399616473 L482.504237544493,460.6736848430624 M482.504237544493,460.6736848430624 L483.0689977430882,460.5776118638207 M483.0689977430882,460.5776118638207 L483.6645270186376,460.5581181853405 M483.6645270186376,460.5581181853405 L484.25623801685026,460.6163231832568 M484.25623801685026,460.6163231832568 L484.80977317842314,460.74884757141706 M484.80977317842314,460.74884757141706 L485.2930170594341,460.9480198795068 M485.2930170594341,460.9480198795068 L485.24507313864046,462.61985204962116 M481.3746424179251,597.5840035829777 L481.7516981180414,597.8440301905687 M481.7516981180414,597.8440301905687 L482.0102907023653,598.1452968619925 M482.0102907023653,598.1452968619925 L482.1353899620673,598.4703255481837 M482.1353899620673,598.4703255481837 L482.1196785211167,598.8002296535295 M482.1196785211167,598.8002296535295 L481.9640300013698,599.1158349073146 M481.9640300013698,599.1158349073146 L481.6774420600876,599.3987792198798 M481.6774420600876,599.3987792198798 L481.2765640695998,599.6326061263161 M481.2765640695998,599.6326061263161 L480.7846927054061,599.8037029520419 M480.7846927054061,599.8037029520419 L480.2304174004071,599.9020978045817 M480.2304174004071,599.9020978045817 L479.64599676071157,599.9220664448682 M479.64599676071157,599.9220664448682 L479.06543350960567,599.8624447269557 M479.06543350960567,599.8624447269557 L478.52251667981227,599.726710821482 M478.52251667981227,599.726710821482 L478.04880291210713,599.5227570964894 M478.04880291210713,599.5227570964894 L477.67184693388697,599.262466946031 M477.67184693388697,599.262466946031 L477.4135617441093,598.9609971115093 M477.4135617441093,598.9609971115093 L477.2889071383794,598.6358721750779 M477.2889071383794,598.6358721750779 L477.3050986261569,598.3060007872214 M477.3050986261569,598.3060007872214 L477.4611742990145,597.990561554111 M477.4611742990145,597.990561554111 L477.7479785480981,597.7078457491997 M477.7479785480981,597.7078457491997 L478.148872543734,597.4742902715233 M478.148872543734,597.4742902715233 L478.64055594361946,597.3034456113194 M478.64055594361946,597.3034456113194 L479.19442227942443,597.2051931175439 M479.19442227942443,597.2051931175439 L479.7783667304275,597.1852571907401 M479.7783667304275,597.1852571907401 L480.3584739764118,597.2447826570891 M480.3584739764118,597.2447826570891 L480.90105945237747,597.3803134028386 M480.90105945237747,597.3803134028386 L481.3746424179251,597.5840035829777 M481.3746424179251,597.5840035829777 L481.32854934690056,599.1912955541508 M475.4779964079589,769.8613307235285 L475.8505354083885,756.8057108570373 M475.4779964079589,769.8613307235285 L475.29339819514917,769.7777419538473 M475.29339819514917,769.7777419538473 L475.0818261684726,769.7221201892402 M475.0818261684726,769.7221201892402 L474.8555657026661,769.6976927285608 M474.8555657026661,769.6976927285608 L474.62776584113544,769.7058791538619 M474.62776584113544,769.7058791538619 L474.41164795706925,769.7462007219199 M474.41164795706925,769.7462007219199 L474.2197620661268,769.8163105637582 M474.2197620661268,769.8163105637582 L474.06327921735885,769.9121515494593 M474.06327921735885,769.9121515494593 L473.9512945155227,770.028157039773 M473.9512945155227,770.028157039773 L473.8902946909009,770.1575758786691 M473.8902946909009,770.1575758786691 L473.88383975393424,770.2928915641069 M473.88383975393424,770.2928915641069 L473.93231722270275,770.4262470985959 M473.93231722270275,770.4262470985959 L474.032913240865,770.5498877884091 M474.032913240865,770.5498877884091 L474.1797898784531,770.656628855887 M474.1797898784531,770.656628855887 L474.3644079277791,770.7402597884853 M474.3644079277791,770.7402597884853 L474.57603030890004,770.7959140555114 M474.57603030890004,770.7959140555114 L474.8023601118749,770.8203569132534 M474.8023601118749,770.8203569132534 L475.0302535467258,770.8121773906845 M475.0302535467258,770.8121773906845 L475.246430371201,770.7718311541289 M475.246430371201,770.7718311541289 L475.43832706915407,770.7016707272139 M475.43832706915407,770.7016707272139 L475.5948075443357,770.6057863174773 M475.5948075443357,770.6057863174773 L475.7067772357657,770.4897545124003 M475.7067772357657,770.4897545124003 L475.7677154232448,770.3603110060541 M475.7677154232448,770.3603110060541 L475.77407621478415,770.2249779513143 M475.77407621478415,770.2249779513143 L475.7255310921497,770.0916378152525 M475.7255310921497,770.0916378152525 L475.62488827277105,769.9680296282696 M475.62488827277105,769.9680296282696 L475.4779964079589,769.8613307235285" stroke="black"  stroke-width="4"  fill="red"/></svg>