<svg viewBox="0 0 800 800" xmlns="http://www.w3.org/2000/svg"><path d="M-271.6024928096813,39.203761362130535 L-289.2719575517351,48.33139261631169 M-289.27195716329993,44.29465662443681 L-289.2719575517351,48.33139261631169 M-289.27195716329993,44.29465662443681 L-289.2720566902491,44.25746562449592 M-289.2720566902491,44.25746562449592 L-289.2721164082425,44.22025267244703 M-289.2721164082425,44.22025267244703 L-289.27213631478264,44.18302443039181 M-271.56349287426247,35.08321931426542 L-289.27213631478264,44.18302443039181 M-271.6024928096813,39.203761362130535 L-271.56349287426247,35.08321931426542 M1054.3974983049113,742.4393710251342 L1042.4226863576282,736.2534653499506 M1034.310207180993,797.1795334146394 L1042.4226863576282,736.2534653499506 M1034.310207180993,797.1795334146394 L429.52537979243016,470.95354421659897 M426.74639058563093,475.11423702156424 L429.52537979243016,470.95354421659897 M277.20094608427166,394.07107319482725 L426.74639058563093,475.11423702156424 M280.2729383587415,390.4455302223172 L277.20094608427166,394.07107319482725 M280.2729383587415,390.4455302223172 L-164.26688697616692,150.65703406576313 M-167.80796440554275,152.90739109512953 L-164.26688697616692,150.65703406576313 M-250.0699369119494,108.32715973618207 L-167.80796440554275,152.90739109512953 M-246.50825101982946,106.29535512949138 L-250.0699369119494,108.32715973618207 M-246.50825101982946,106.29535512949138 L-318.9070906153015,67.24281612019382 M-285.8589169018086,50.09448899051421 L-318.9070906153015,67.24281612019382 M-285.8589169018086,50.09448899051421 L-289.2719575517351,48.33139261631169 M1058.3706742409586,710.5331099323303 L-271.6024928096813,39.203761362130535 M1054.3974983049113,742.4393710251342 L1058.3706742409586,710.5331099323303 M-278.50473352422614,44.5199732722694 L-278.5527391873818,44.50074447407809 M-278.5527391873818,44.50074447407809 L-278.6082197434995,44.487948851049396 M-278.6082197434995,44.487948851049396 L-278.6679507753811,44.48232889277904 M-278.6679507753811,44.48232889277904 L-278.7284634706199,44.484211331323195 M-278.7284634706199,44.484211331323195 L-278.7862419181333,44.4934866480728 M-278.7862419181333,44.4934866480728 L-278.83793051659757,44.50961654373782 M-278.83793051659757,44.50961654373782 L-278.8805253866715,44.53166405875254 M-278.8805253866715,44.53166405875254 L-278.911551544481,44.55834899471455 M-278.911551544481,44.55834899471455 L-278.92920444732385,44.58812092798877 M-278.92920444732385,44.58812092798877 L-278.9324572589119,44.619250573568024 M-278.9324572589119,44.619250573568024 L-278.92111882527263,44.64992847491635 M-278.92111882527263,44.64992847491635 L-278.8958473430599,44.67837192650086 M-278.8958473430599,44.67837192650086 L-278.8581094314459,44.70292661449071 M-278.8581094314459,44.70292661449071 L-278.8100987194488,44.72216539731477 M-278.8100987194488,44.72216539731477 L-278.75460491313606,44.73496865022844 M-278.75460491313606,44.73496865022844 L-278.6948552947558,44.74059222326315 M-278.6948552947558,44.74059222326315 L-278.63432293430185,44.73870855600853 M-278.63432293430185,44.73870855600853 L-278.5765282481814,44.72942744869465 M-278.5765282481814,44.72942744869465 L-278.52483055760194,44.713288527019415 M-278.52483055760194,44.713288527019415 L-278.48223582490823,44.69123081847329 M-278.48223582490823,44.69123081847329 L-278.45121900250365,44.664536856561824 M-278.45121900250365,44.664536856561824 L-278.433582494348,44.63475913274601 M-278.433582494348,44.63475913274601 L-278.43034938109327,44.603628258484946 M-278.43034938109327,44.603628258484946 L-278.44170630379836,44.57295397180616 M-278.44170630379836,44.57295397180616 L-278.466990830546,44.5445181502364 M-278.466990830546,44.5445181502364 L-278.50473352422614,44.5199732722694 M1050.5076772707578,722.9629228140641 L1050.3575012671536,722.8960940265972 M1050.3575012671536,722.8960940265972 L1050.2138339774067,722.8516853970257 M1050.2138339774067,722.8516853970257 L1050.0847680409001,722.8321443701327 M1050.0847680409001,722.8321443701327 L1049.9780627072514,722.8387419671376 M1049.9780627072514,722.8387419671376 L1049.8996093146839,722.8709386576 M1049.8996093146839,722.8709386576 L1049.8540145029576,722.9268928757286 M1049.8540145029576,722.9268928757286 L1049.8441162768215,723.0034516481549 M1049.8441162768215,723.0034516481549 L1049.8704949424282,723.0961721861826 M1049.8704949424282,723.0961721861826 L1049.9314386889662,723.1995746199318 M1049.9314386889662,723.1995746199318 L1050.023363978229,723.3076288183491 M1050.023363978229,723.3076288183491 L1050.1412400580227,723.4142103895252 M1050.1412400580227,723.4142103895252 L1050.277953849909,723.512988947113 M1050.277953849909,723.512988947113 L1050.4258097085315,723.5983450197334 M1050.4258097085315,723.5983450197334 L1050.575908909496,723.6651603249891 M1050.575908909496,723.6651603249891 L1050.7196670156832,723.7096183182297 M1050.7196670156832,723.7096183182297 L1050.848818787804,723.7291827760295 M1050.848818787804,723.7291827760295 L1050.955737075398,723.7226547642806 M1050.955737075398,723.7226547642806 L1051.0340608845022,723.6903429936239 M1051.0340608845022,723.6903429936239 L1051.0796343492998,723.6343304088465 M1051.0796343492998,723.6343304088465 L1051.0894722113899,723.5577056511958 M1051.0894722113899,723.5577056511958 L1051.0630080218998,723.4649266570508 M1051.0630080218998,723.4649266570508 L1051.0021252657762,723.3615643229726 M1051.0021252657762,723.3615643229726 L1050.9099724434586,723.2534246025486 M1050.9099724434586,723.2534246025486 L1050.7920533683293,723.1468664300851 M1050.7920533683293,723.1468664300851 L1050.655339085777,723.0481372458635 M1050.655339085777,723.0481372458635 L1050.5076772707578,722.9629228140641 M-285.85148370383706,46.052558767631695 L-289.27195716329993,44.29465662443681 M-285.85148370383706,46.052558767631695 L-285.8589169018086,50.09448899051421 M-285.8514571364168,45.94078266819645 L-285.85150579721846,45.9780589699231 M-285.85150579721846,45.9780589699231 L-285.85151465628076,46.01531989330397 M-285.85151465628076,46.01531989330397 L-285.85148370383706,46.052558767631695 M-289.27213631478264,44.18302443039181 L-285.8514571364168,45.94078266819645 M1047.9981969172363,731.3558991263915 L1060.0468003969204,737.547222812752 M1060.0468003969204,737.547222812752 L1063.91437024776,705.6150312480512 M1063.91437024776,705.6150312480512 L-271.56349287426247,35.08321931426542 M-285.8514571364168,45.94078266819645 L-318.9748554580366,63.0380076985752 M-318.9748554580366,63.0380076985752 L-246.40573000145037,101.98057051955021 M-246.40573000145037,101.98057051955021 L-249.97572873362765,104.0068888087352 M-249.97572873362765,104.0068888087352 L-167.50071352903933,148.4726066886796 M-167.50071352903933,148.4726066886796 L-163.95147658290273,146.22776136559833 M-163.95147658290273,146.22776136559833 L282.09760706242366,385.58980895549337 M282.09760706242366,385.58980895549337 L279.02160586102775,389.2113980892607 M279.02160586102775,389.2113980892607 L429.21253910747396,470.18558947674524 M429.21253910747396,470.18558947674524 L431.99260211131536,466.0275326363899 M431.99260211131536,466.0275326363899 L1040.0813077902174,792.3444404485512 M1047.9981969172363,731.3558991263915 L1040.0813077902174,792.3444404485512 M-278.2152973524985,40.24637355195887 L-278.1207214810353,40.30753027238018 M-278.1207214810353,40.30753027238018 L-278.0573423632352,40.378388025296886 M-278.0573423632352,40.378388025296886 L-278.02885003922927,40.454832989177476 M-278.02885003922927,40.454832989177476 L-278.0369112132132,40.53242450043177 M-278.0369112132132,40.53242450043177 L-278.08106747423153,40.606652593483716 M-278.08106747423153,40.606652593483716 L-278.1587614815144,40.67320033489665 M-278.1587614815144,40.67320033489665 L-278.26548305745337,40.728195338570515 M-278.26548305745337,40.728195338570515 L-278.39502987985156,40.76843598198349 M-278.39502987985156,40.76843598198349 L-278.53986817205623,40.79157885178785 M-278.53986817205623,40.79157885178785 L-278.69157178194496,40.79627590240705 M-278.69157178194496,40.79627590240705 L-278.8413137330283,40.78225324705693 M-278.8413137330283,40.78225324705693 L-278.9803817873999,40.75032823302911 M-278.9803817873999,40.75032823302911 L-279.10068689786146,40.70236014231563 M-279.10068689786146,40.70236014231563 L-279.19523365045666,40.64114170235797 M-279.19523365045666,40.64114170235797 L-279.25853105057024,40.570236215212674 M-279.25853105057024,40.570236215212674 L-279.2869071328821,40.493768765614846 M-279.2869071328821,40.493768765614846 L-279.2787223824132,40.416184883762355 M-279.2787223824132,40.416184883762355 L-279.23446319731374,40.34199295147113 M-279.23446319731374,40.34199295147113 L-279.1567105825919,40.27550157477265 M-279.1567105825919,40.27550157477265 L-279.0499881422802,40.22057022729081 M-279.0499881422802,40.22057022729081 L-278.9204983966006,40.18038594859024 M-278.9204983966006,40.18038594859024 L-278.77576204645857,40.15727923958707 M-278.77576204645857,40.15727923958707 L-278.62418180470047,40.1525899053467 M-278.62418180470047,40.1525899053467 L-278.4745567083428,40.16658990067475 M-278.4745567083428,40.16658990067475 L-278.3355716656222,40.19846735438563 M-278.3355716656222,40.19846735438563 L-278.2152973524985,40.24637355195887 M1056.126204717255,717.577555266178 L1056.4976228278138,717.7906393480338 M1056.4976228278138,717.7906393480338 L1056.8418449181936,718.0376002291661 M1056.8418449181936,718.0376002291661 L1057.1388862958138,718.3041221864191 M1057.1388862958138,718.3041221864191 L1057.3713221112985,718.5746591206638 M1057.3713221112985,718.5746591206638 L1057.5256242000573,718.8334943573534 M1057.5256242000573,718.8334943573534 L1057.5928768574772,719.0656165542624 M1057.5928768574772,719.0656165542624 L1057.5690254739554,719.2574534919466 M1057.5690254739554,719.2574534919466 L1057.455423496899,719.3978205907946 M1057.455423496899,719.3978205907946 L1057.2587612945294,719.4785795745195 M1057.2587612945294,719.4785795745195 L1056.990379213721,719.4949656824291 M1056.990379213721,719.4949656824291 L1056.6658867604751,719.446011317754 M1056.6658867604751,719.446011317754 L1056.304327313023,719.3346456812478 M1056.304327313023,719.3346456812478 L1055.9267421814218,719.1673570728424 M1055.9267421814218,719.1673570728424 L1055.5549042341834,718.9537930099275 M1055.5549042341834,718.9537930099275 L1055.2106839962084,718.7065219489307 M1055.2106839962084,718.7065219489307 L1054.9139129418236,718.4398530210215 M1054.9139129418236,718.4398530210215 L1054.6819539661012,718.1693660459282 M1054.6819539661012,718.1693660459282 L1054.5282259436315,717.9107662059413 M1054.5282259436315,717.9107662059413 L1054.461513226653,717.6790109779987 M1054.461513226653,717.6790109779987 L1054.4857465740502,717.4875884538417 M1054.4857465740502,717.4875884538417 L1054.5994850104637,717.3475882492974 M1054.5994850104637,717.3475882492974 L1054.7960071321672,717.2670647238897 M1054.7960071321672,717.2670647238897 L1055.0640044555514,717.2507285622961 M1055.0640044555514,717.2507285622961 L1055.3879555943395,717.2995358845161 M1055.3879555943395,717.2995358845161 L1055.7489414369218,717.4105913750897 M1055.7489414369218,717.4105913750897 L1056.126204717255,717.577555266178 M1058.3706742409586,710.5331099323303 L1063.91437024776,705.6150312480512 M1059.894403489238,737.6789103031982 L1047.8477961113826,731.4877332106897 M1059.894403489238,737.6789103031982 L1054.3974983049113,742.4393710251342 M1047.8477961113826,731.4877332106897 L1042.4226863576282,736.2534653499506 M1047.8477961113826,731.4877332106897 L1047.8979195949971,731.4438611116576 M1047.8979195949971,731.4438611116576 L1047.9480561886592,731.3999137912512 M1047.9480561886592,731.3999137912512 L1047.9981969172363,731.3558991263915 M1034.310207180993,797.1795334146394 L1040.0813077902174,792.3444404485512 M429.52537979243016,470.95354421659897 L431.99260211131536,466.0275326363899 M426.74639058563093,475.11423702156424 L429.21253910747396,470.18558947674524 M277.20094608427166,394.07107319482725 L279.02160586102775,389.2113980892607 M280.2729383587415,390.4455302223172 L282.09760706242366,385.58980895549337 M-164.26688697616692,150.65703406576313 L-163.95147658290273,146.22776136559833 M-167.80796440554275,152.90739109512953 L-167.50071352903933,148.4726066886796 M-250.0699369119494,108.32715973618207 L-249.97572873362765,104.0068888087352 M-246.50825101982946,106.29535512949138 L-246.40573000145037,101.98057051955021 M-318.9070906153015,67.24281612019382 L-318.9748554580366,63.0380076985752 M1060.0468003969204,737.547222812752 L1059.99599486586,737.5911892349209 M1059.99599486586,737.5911892349209 L1059.9451928652416,737.6350876878232 M1059.9451928652416,737.6350876878232 L1059.894403489238,737.6789103031982 M-278.50473352422614,44.5199732722694 L-278.4833228656838,40.8182935483639 M-278.4833228656838,40.8182935483639 L-278.4455044492795,40.84277137142067 M-278.4455044492795,40.84277137142067 L-278.42016886249485,40.87112951209332 M-278.42016886249485,40.87112951209332 L-278.40878851206617,40.90172000741842 M-278.40878851206617,40.90172000741842 L-278.412027199362,40.932765847945234 M-278.412027199362,40.932765847945234 L-278.42969796524744,40.96246223872379 M-278.42969796524744,40.96246223872379 L-278.46077574468836,40.98908329419953 M-278.46077574468836,40.98908329419953 L-278.5034545931064,41.01108076153929 M-278.5034545931064,41.01108076153929 L-278.5552546706315,41.02717560820156 M-278.5552546706315,41.02717560820156 L-278.6131640600977,41.036431369626484 M-278.6131640600977,41.036431369626484 L-278.67381677039305,41.03830989280442 M-278.67381677039305,41.03830989280442 L-278.7336853825084,41.03270167714834 M-278.7336853825084,41.03270167714834 L-278.7892899065075,41.019933389149344 M-278.7892899065075,41.019933389149344 L-278.83739661902985,41.00074714784148 M-278.83739661902985,41.00074714784148 L-278.87521023493355,40.97625952192942 M-278.87521023493355,40.97625952192942 L-278.90053272545333,40.9478937569512 M-278.90053272545333,40.9478937569512 L-278.91189451330183,40.91729964966123 M-278.91189451330183,40.91729964966123 L-278.90863604921356,40.8862550368969 M-278.90863604921356,40.8862550368969 L-278.89094882321183,40.85656443232705 M-278.89094882321183,40.85656443232705 L-278.8598616709555,40.82995239604713 M-278.8598616709555,40.82995239604713 L-278.8171826843361,40.80796511461119 M-278.8171826843361,40.80796511461119 L-278.76539173488254,40.791879287205404 M-278.76539173488254,40.791879287205404 L-278.70749864851905,40.78262931201186 M-278.70749864851905,40.78262931201186 L-278.6468656817001,40.78075201662517 M-278.6468656817001,40.78075201662517 L-278.58701573018027,40.78635662022157 M-278.58701573018027,40.78635662022157 L-278.5314245093351,40.7991172840446 M-278.5314245093351,40.7991172840446 L-278.4833228656838,40.8182935483639 M1050.5076772707578,722.9629228140641 L1055.4806508674,718.5714040661478 M1055.4806508674,718.5714040661478 L1055.6291513018664,718.6566782813399 M1055.6291513018664,718.6566782813399 L1055.7667097104186,718.7554767764904 M1055.7667097104186,718.7554767764904 L1055.885429900442,718.8621098115676 M1055.885429900442,718.8621098115676 L1055.9782936305364,718.9703255646234 M1055.9782936305364,718.9703255646234 L1056.0397549442441,719.0737606278291 M1056.0397549442441,719.0737606278291 L1056.0666338215167,719.166604950482 M1056.0666338215167,719.166604950482 L1056.0570207569804,719.2432836948819 M1056.0570207569804,719.2432836948819 L1056.011469079748,719.2993357627402 M1056.011469079748,719.2993357627402 L1055.9329645936489,719.3316703170946 M1055.9329645936489,719.3316703170946 L1055.8256715016955,719.3382029325226 M1055.8256715016955,719.3382029325226 L1055.6959733876158,719.3186246781382 M1055.6959733876158,719.3186246781382 L1055.551529842307,719.2741353409582 M1055.551529842307,719.2741353409582 L1055.4006454750468,719.2072729481883 M1055.4006454750468,719.2072729481883 L1055.2519496359134,719.1218567545577 M1055.2519496359134,719.1218567545577 L1055.1143915527423,719.0230086679013 M1055.1143915527423,719.0230086679013 L1054.9957145978342,718.9163521307319 M1054.9957145978342,718.9163521307319 L1054.9030798189697,718.8082219893591 M1054.9030798189697,718.8082219893591 L1054.841557490994,718.7047469374894 M1054.841557490994,718.7047469374894 L1054.8147649738278,718.6119613292221 M1054.8147649738278,718.6119613292221 L1054.82443907723,718.5353488615806 M1054.82443907723,718.5353488615806 L1054.8700124598968,718.4793554182443 M1054.8700124598968,718.4793554182443 L1054.9486473201273,718.4471361643532 M1054.9486473201273,718.4471361643532 L1055.0557262029422,718.4405339444038 M1055.0557262029422,718.4405339444038 L1055.1853377627085,718.4600886643597 M1055.1853377627085,718.4600886643597 L1055.3296896470943,718.5045284197743 M1055.3296896470943,718.5045284197743 L1055.4806508674,718.5714040661478 M-278.2152973524985,40.24637355195887 L-278.2178759289077,40.681509195874014 M-278.2178759289077,40.681509195874014 L-278.12332231705363,40.742685698214416 M-278.12332231705363,40.742685698214416 L-278.05995821820966,40.81356636817998 M-278.05995821820966,40.81356636817998 L-278.0314727964867,40.89003605278219 M-278.0314727964867,40.89003605278219 L-278.0395323501118,40.967652651959895 M-278.0395323501118,40.967652651959895 L-278.0836785574803,41.04190474206575 M-278.0836785574803,41.04190474206575 L-278.1613546579724,41.10847399477012 M-278.1613546579724,41.10847399477012 L-278.26805151227586,41.16348677336384 M-278.26805151227586,41.16348677336384 L-278.39756823490006,41.203740421799864 M-278.39756823490006,41.203740421799864 L-278.5423728007672,41.22689077050899 M-278.5423728007672,41.22689077050899 L-278.6940410218567,41.23158933899907 M-278.6940410218567,41.23158933899907 L-278.84374798326235,41.21756215213185 M-278.84374798326235,41.21756215213185 L-278.9827834851699,41.18562682087952 M-278.9827834851699,41.18562682087952 L-279.1030603754971,41.13764322714735 M-279.1030603754971,41.13764322714735 L-279.19758488183186,41.07640499973678 M-279.19758488183186,41.07640499973678 L-279.2608673009996,41.00547659122657 M-279.2608673009996,41.00547659122657 L-279.2892365351447,40.928984418903894 M-279.2892365351447,40.928984418903894 L-279.28105346272764,40.85137544980455 M-279.28105346272764,40.85137544980455 L-279.23680437940664,40.777159523713465 M-279.23680437940664,40.777159523713465 L-279.1590696989947,40.71064664079586 M-279.1590696989947,40.71064664079586 L-279.05237198092345,40.65569752412256 M-279.05237198092345,40.65569752412256 L-278.92291230856995,40.61550024547131 M-278.92291230856995,40.61550024547131 L-278.77820963732347,40.592386060817546 M-278.77820963732347,40.592386060817546 L-278.62666472681735,40.58769520941087 M-278.62666472681735,40.58769520941087 L-278.47707456559226,40.601699734196416 M-278.47707456559226,40.601699734196416 L-278.33812203642026,40.633587500872125 M-278.33812203642026,40.633587500872125 L-278.2178759289077,40.681509195874014 M1056.126204717255,717.577555266178 L1055.5406092064845,718.0948656614022 M1055.5406092064845,718.0948656614022 L1055.911780130798,718.3079325130792 M1055.911780130798,718.3079325130792 L1056.2557532282003,718.554873390827 M1056.2557532282003,718.554873390827 L1056.552558253108,718.8213737194538 M1056.552558253108,718.8213737194538 L1056.784784195405,719.0918886559037 M1056.784784195405,719.0918886559037 L1056.9389151115438,719.3507028054033 M1056.9389151115438,719.3507028054033 L1057.006045231105,719.5828060574215 M1057.006045231105,719.5828060574215 L1056.982127182699,719.7746273138731 M1056.982127182699,719.7746273138731 L1056.8685183309046,719.9149829248503 M1056.8685183309046,719.9149829248503 L1056.6719094023572,719.9957352938013 M1056.6719094023572,719.9957352938013 L1056.403637710046,720.0121200590894 M1056.403637710046,720.0121200590894 L1056.079306331103,719.9631697050916 M1056.079306331103,719.9631697050916 L1055.717949148091,719.8518131870954 M1055.717949148091,719.8518131870954 L1055.340595675814,719.684538262211 M1055.340595675814,719.684538262211 L1054.969005406392,719.4709916436929 M1054.969005406392,719.4709916436929 L1054.625034284177,719.2237407463604 M1054.625034284177,719.2237407463604 L1054.3284994060496,718.9570935230216 M1054.3284994060496,718.9570935230216 L1054.0967498682467,718.6866285199078 M1054.0967498682467,718.6866285199078 L1053.9431924240946,718.4280496454741 M1053.9431924240946,718.4280496454741 L1053.8766016276238,718.196313172798 M1053.8766016276238,718.196313172798 L1053.9009011410922,718.0049061157328 M1053.9009011410922,718.0049061157328 L1054.0146461862728,717.8649172094734 M1054.0146461862728,717.8649172094734 L1054.211115061707,717.7844001771708 M1054.211115061707,717.7844001771708 L1054.4790023116102,717.7680653323898 M1054.4790023116102,717.7680653323898 L1054.8027929064435,717.8168687199144 M1054.8027929064435,717.8168687199144 L1055.1635771084636,717.92791525224 M1055.1635771084636,717.92791525224 L1055.5406092064845,718.0948656614022" stroke="black"  stroke-width="4"  fill="red"/>
<path d="M1054.3974983049113,742.4393710251342 L1045.9029947488534,810.653780020817 M1054.3974983049113,742.4393710251342 L1042.4226863576282,736.2534653499506 M1033.417052548587,803.8872732733765 L1042.4226863576282,736.2534653499506 M1045.9029947488534,810.653780020817 L1033.417052548587,803.8872732733765 M1059.894403489238,737.6789103031982 L1054.3974983049113,742.4393710251342 M1092.96694533927,694.3736335684331 L1091.4111954276339,697.2976438304884 M1091.4111954276339,697.2976438304884 L1089.777490393701,700.2185660510964 M1089.777490393701,700.2185660510964 L1088.0709837925403,703.1271319157736 M1088.0709837925403,703.1271319157736 L1086.297119507441,706.0140885369007 M1086.297119507441,706.0140885369007 L1084.4615647327269,708.8702757095895 M1084.4615647327269,708.8702757095895 L1082.570199242795,711.6866484834273 M1082.570199242795,711.6866484834273 L1080.6290844201021,714.4543242256913 M1080.6290844201021,714.4543242256913 L1078.6444515351013,717.1646034258832 M1078.6444515351013,717.1646034258832 L1076.6226334216874,719.8090424827087 M1076.6226334216874,719.8090424827087 L1074.5701079501391,722.3794267050281 M1074.5701079501391,722.3794267050281 L1072.4934024752322,724.8678587251145 M1072.4934024752322,724.8678587251145 L1070.3991095292388,727.2667536450101 M1070.3991095292388,727.2667536450101 L1068.2938293503673,729.568891173891 M1068.2938293503673,729.568891173891 L1066.1841774129807,731.767411569916 M1066.1841774129807,731.767411569916 L1064.0767281939925,733.855864563897 M1064.0767281939925,733.855864563897 L1061.977987729278,735.8282309072152 M1061.977987729278,735.8282309072152 L1059.894403489238,737.6789103031982 M1093.183914787701,693.9543390069734 L1093.1541936674296,693.9620724340726 M1093.1541936674296,693.9620724340726 L1093.1199005457916,693.9815377189981 M1093.1199005457916,693.9815377189981 L1093.0830204897443,694.0116069104339 M1093.0830204897443,694.0116069104339 L1093.0457046356214,694.0505267091773 M1093.0457046356214,694.0505267091773 L1093.0101213612043,694.0960335901011 M1093.0101213612043,694.0960335901011 L1092.9783405143635,694.1454821476051 M1092.9783405143635,694.1454821476051 L1092.952177894789,694.1960270894452 M1092.952177894789,694.1960270894452 L1092.933206382959,694.2446845999734 M1092.933206382959,694.2446845999734 L1092.9224816890946,694.2886683207267 M1092.9224816890946,694.2886683207267 L1092.9206430958582,694.3254109832791 M1092.9206430958582,694.3254109832791 L1092.9278067317518,694.3527690863879 M1092.9278067317518,694.3527690863879 L1092.9435330739816,694.3691714797961 M1092.9435330739816,694.3691714797961 L1092.96694533927,694.3736335684331 M1126.8948849471828,649.7419951926607 L1124.673860202154,651.7658969244344 M1124.673860202154,651.7658969244344 L1122.4561402877302,653.8934614285197 M1122.4561402877302,653.8934614285197 L1120.2473108531244,656.1188667563266 M1120.2473108531244,656.1188667563266 L1118.052923288611,658.4360969172182 M1118.052923288611,658.4360969172182 L1115.8784078005626,660.8390119885518 M1115.8784078005626,660.8390119885518 L1113.729139807246,663.3213035628372 M1113.729139807246,663.3213035628372 L1111.610390920618,665.876547169879 M1111.610390920618,665.876547169879 L1109.527358989257,668.4981660300149 M1109.527358989257,668.4981660300149 L1107.4850990020304,671.1795170598461 M1107.4850990020304,671.1795170598461 L1105.4885908427277,673.9138260569725 M1105.4885908427277,673.9138260569725 L1103.5426530793,676.69426923909 M1103.5426530793,676.69426923909 L1101.6520085293002,679.5139263229435 M1101.6520085293002,679.5139263229435 L1099.8212553001688,682.3658052884517 M1099.8212553001688,682.3658052884517 L1098.054836638543,685.2428783170993 M1098.054836638543,685.2428783170993 L1096.357048793499,688.1380789585838 M1096.357048793499,688.1380789585838 L1094.7320671385253,691.0442825869485 M1094.7320671385253,691.0442825869485 L1093.183914787701,693.9543390069734 M1119.2843002150414,744.043418817125 L1126.8948849471828,649.7419951926607 M1082.0563576333743,774.7561865558458 L1119.2843002150414,744.043418817125 M1081.350122122224,781.5713573714803 L1082.0563576333743,774.7561865558458 M1045.9029947488534,810.653780020817 L1081.350122122224,781.5713573714803 M1059.894403489238,737.6789103031982 L1047.8477961113826,731.4877332106897 M1047.8477961113826,731.4877332106897 L1042.4226863576282,736.2534653499506 M1033.417052548587,803.8872732733765 L1068.3755358367364,774.7561702525655 M1069.1364331695079,768.001729783332 L1068.3755358367364,774.7561702525655 M1069.1364331695079,768.001729783332 L1105.8448865245923,737.2469749053018 M1114.2724785326798,643.7794544952874 L1105.8448865245923,737.2469749053018 M1114.2724785326798,643.7794544952874 L1112.0801092940515,645.8037393054444 M1112.0801092940515,645.8037393054444 L1109.8898548257068,647.93072591679 M1109.8898548257068,647.93072591679 L1107.707239170892,650.1545974166759 M1107.707239170892,650.1545974166759 L1105.5377551467507,652.4693444488546 M1105.5377551467507,652.4693444488546 L1103.3867785966638,654.8688354445846 M1103.3867785966638,654.8688354445846 L1101.259633726177,657.3467719326343 M1101.259633726177,657.3467719326343 L1099.1615445956809,659.8967409275708 M1099.1615445956809,659.8967409275708 L1097.0976648315652,662.512178789368 M1097.0976648315652,662.512178789368 L1095.0730091363612,665.1864570675202 M1095.0730091363612,665.1864570675202 L1093.0925201681173,667.9128177349075 M1093.0925201681173,667.9128177349075 L1091.1609833648836,670.6844547627719 M1091.1609833648836,670.6844547627719 L1089.2830914992742,673.494467105865 M1089.2830914992742,673.494467105865 L1087.4634160708088,676.3358835339792 M1087.4634160708088,676.3358835339792 L1085.7063774175283,679.2016985475045 M1085.7063774175283,679.2016985475045 L1084.0162524000202,682.0848695498541 M1084.0162524000202,682.0848695498541 L1082.3972001142092,684.978297304183 M1082.3972001142092,684.978297304183 L1080.8532308375109,687.8748585615733 M1080.6367288589558,688.2921542126276 L1080.613883189496,688.2879415654418 M1080.613883189496,688.2879415654418 L1080.5986766311153,688.2718321628183 M1080.5986766311153,688.2718321628183 L1080.5919562638383,688.2447936038944 M1080.5919562638383,688.2447936038944 L1080.594135533052,688.2083784355265 M1080.594135533052,688.2083784355265 L1080.6050786358483,688.1647111320115 M1080.6050786358483,688.1647111320115 L1080.6241338380569,688.1163406133779 M1080.6241338380569,688.1163406133779 L1080.6502399542633,688.0660365359721 M1080.6502399542633,688.0660365359721 L1080.68182806858,688.0167687542718 M1080.68182806858,688.0167687542718 L1080.7170931810954,687.9713720497233 M1080.7170931810954,687.9713720497233 L1080.7539839644962,687.9324854388036 M1080.7539839644962,687.9324854388036 L1080.790356717553,687.9023705015013 M1080.790356717553,687.9023705015013 L1080.8240898976474,687.8827832094644 M1080.8240898976474,687.8827832094644 L1080.8532308375109,687.8748585615733 M1047.8477961113826,731.4877332106897 L1049.9045932638176,729.6355357672008 M1049.9045932638176,729.6355357672008 L1051.977438332372,727.6626879254383 M1051.977438332372,727.6626879254383 L1054.0599700724936,725.5747958268483 M1054.0599700724936,725.5747958268483 L1056.1457659849023,723.3778805940951 M1056.1457659849023,723.3778805940951 L1058.2283325008102,721.0783903767639 M1058.2283325008102,721.0783903767639 L1060.3011320067085,718.6831787659924 M1060.3011320067085,718.6831787659924 L1062.3576383011352,716.1994558399599 M1062.3576383011352,716.1994558399599 L1064.3913291449503,713.6347922770058 M1064.3913291449503,713.6347922770058 L1066.395742954857,710.9970672231638 M1066.395742954857,710.9970672231638 L1068.3644633589242,708.2944732813133 M1068.3644633589242,708.2944732813133 L1070.2912134980972,705.5354281172197 M1070.2912134980972,705.5354281172197 L1072.1698131856658,702.728601648515 M1072.1698131856658,702.728601648515 L1073.9942464215112,699.8828433871396 M1073.9942464215112,699.8828433871396 L1075.7586730181788,697.0071617885194 M1075.7586730181788,697.0071617885194 L1077.4574593258235,694.1106774200748 M1077.4574593258235,694.1106774200748 L1079.085188913827,691.2026005745012 M1079.085188913827,691.2026005745012 L1080.6367288589558,688.2921542126276 M1068.3755358367364,774.7561702525655 L1081.350122122224,781.5713573714803 M1092.96694533927,694.3736335684331 L1080.6367288589558,688.2921542126276 M1093.183914787701,693.9543390069734 L1080.8532308375109,687.8748585615733 M1126.8948849471828,649.7419951926607 L1114.2724785326798,643.7794544952874 M1119.2843002150414,744.043418817125 L1105.8448865245923,737.2469749053018 M1082.0563576333743,774.7561865558458 L1069.1364331695079,768.001729783332" stroke="black"  stroke-width="4"  fill="red"/>
<path d="M1050.5076772707578,722.9629228140641 L1055.4806508674,718.5714040661478 M1055.4806508674,718.5714040661478 L1055.6291513018664,718.6566782813399 M1055.6291513018664,718.6566782813399 L1055.7667097104186,718.7554767764904 M1055.7667097104186,718.7554767764904 L1055.885429900442,718.8621098115676 M1055.885429900442,718.8621098115676 L1055.9782936305364,718.9703255646234 M1055.9782936305364,718.9703255646234 L1056.0397549442441,719.0737606278291 M1056.0397549442441,719.0737606278291 L1056.0666338215167,719.166604950482 M1056.0666338215167,719.166604950482 L1056.0570207569804,719.2432836948819 M1056.0570207569804,719.2432836948819 L1056.011469079748,719.2993357627402 M1056.011469079748,719.2993357627402 L1055.9329645936489,719.3316703170946 M1055.9329645936489,719.3316703170946 L1055.8256715016955,719.3382029325226 M1055.8256715016955,719.3382029325226 L1055.6959733876158,719.3186246781382 M1055.6959733876158,719.3186246781382 L1055.551529842307,719.2741353409582 M1055.551529842307,719.2741353409582 L1055.4006454750468,719.2072729481883 M1055.4006454750468,719.2072729481883 L1055.2519496359134,719.1218567545577 M1055.2519496359134,719.1218567545577 L1055.1143915527423,719.0230086679013 M1055.1143915527423,719.0230086679013 L1054.9957145978342,718.9163521307319 M1054.9957145978342,718.9163521307319 L1054.9030798189697,718.8082219893591 M1054.9030798189697,718.8082219893591 L1054.841557490994,718.7047469374894 M1054.841557490994,718.7047469374894 L1054.8147649738278,718.6119613292221 M1054.8147649738278,718.6119613292221 L1054.82443907723,718.5353488615806 M1054.82443907723,718.5353488615806 L1054.8700124598968,718.4793554182443 M1054.8700124598968,718.4793554182443 L1054.9486473201273,718.4471361643532 M1054.9486473201273,718.4471361643532 L1055.0557262029422,718.4405339444038 M1055.0557262029422,718.4405339444038 L1055.1853377627085,718.4600886643597 M1055.1853377627085,718.4600886643597 L1055.3296896470943,718.5045284197743 M1055.3296896470943,718.5045284197743 L1055.4806508674,718.5714040661478 M1050.5076772707578,722.9629228140641 L1050.3575012671536,722.8960940265972 M1050.3575012671536,722.8960940265972 L1050.2138339774067,722.8516853970257 M1050.2138339774067,722.8516853970257 L1050.0847680409001,722.8321443701327 M1050.0847680409001,722.8321443701327 L1049.9780627072514,722.8387419671376 M1049.9780627072514,722.8387419671376 L1049.8996093146839,722.8709386576 M1049.8996093146839,722.8709386576 L1049.8540145029576,722.9268928757286 M1049.8540145029576,722.9268928757286 L1049.8441162768215,723.0034516481549 M1049.8441162768215,723.0034516481549 L1049.8704949424282,723.0961721861826 M1049.8704949424282,723.0961721861826 L1049.9314386889662,723.1995746199318 M1049.9314386889662,723.1995746199318 L1050.023363978229,723.3076288183491 M1050.023363978229,723.3076288183491 L1050.1412400580227,723.4142103895252 M1050.1412400580227,723.4142103895252 L1050.277953849909,723.512988947113 M1050.277953849909,723.512988947113 L1050.4258097085315,723.5983450197334 M1050.4258097085315,723.5983450197334 L1050.575908909496,723.6651603249891 M1050.575908909496,723.6651603249891 L1050.7196670156832,723.7096183182297 M1050.7196670156832,723.7096183182297 L1050.848818787804,723.7291827760295 M1050.848818787804,723.7291827760295 L1050.955737075398,723.7226547642806 M1050.955737075398,723.7226547642806 L1051.0340608845022,723.6903429936239 M1051.0340608845022,723.6903429936239 L1051.0796343492998,723.6343304088465 M1051.0796343492998,723.6343304088465 L1051.0894722113899,723.5577056511958 M1051.0894722113899,723.5577056511958 L1051.0630080218998,723.4649266570508 M1051.0630080218998,723.4649266570508 L1051.0021252657762,723.3615643229726 M1051.0021252657762,723.3615643229726 L1050.9099724434586,723.2534246025486 M1050.9099724434586,723.2534246025486 L1050.7920533683293,723.1468664300851 M1050.7920533683293,723.1468664300851 L1050.655339085777,723.0481372458635 M1050.655339085777,723.0481372458635 L1050.5076772707578,722.9629228140641 M1055.5406092064845,718.0948656614022 L1055.911780130798,718.3079325130792 M1055.911780130798,718.3079325130792 L1056.2557532282003,718.554873390827 M1056.2557532282003,718.554873390827 L1056.552558253108,718.8213737194538 M1056.552558253108,718.8213737194538 L1056.784784195405,719.0918886559037 M1056.784784195405,719.0918886559037 L1056.9389151115438,719.3507028054033 M1056.9389151115438,719.3507028054033 L1057.006045231105,719.5828060574215 M1057.006045231105,719.5828060574215 L1056.982127182699,719.7746273138731 M1056.982127182699,719.7746273138731 L1056.8685183309046,719.9149829248503 M1056.8685183309046,719.9149829248503 L1056.6719094023572,719.9957352938013 M1056.6719094023572,719.9957352938013 L1056.403637710046,720.0121200590894 M1056.403637710046,720.0121200590894 L1056.079306331103,719.9631697050916 M1056.079306331103,719.9631697050916 L1055.717949148091,719.8518131870954 M1055.717949148091,719.8518131870954 L1055.340595675814,719.684538262211 M1055.340595675814,719.684538262211 L1054.969005406392,719.4709916436929 M1054.969005406392,719.4709916436929 L1054.625034284177,719.2237407463604 M1054.625034284177,719.2237407463604 L1054.3284994060496,718.9570935230216 M1054.3284994060496,718.9570935230216 L1054.0967498682467,718.6866285199078 M1054.0967498682467,718.6866285199078 L1053.9431924240946,718.4280496454741 M1053.9431924240946,718.4280496454741 L1053.8766016276238,718.196313172798 M1053.8766016276238,718.196313172798 L1053.9009011410922,718.0049061157328 M1053.9009011410922,718.0049061157328 L1054.0146461862728,717.8649172094734 M1054.0146461862728,717.8649172094734 L1054.211115061707,717.7844001771708 M1054.211115061707,717.7844001771708 L1054.4790023116102,717.7680653323898 M1054.4790023116102,717.7680653323898 L1054.8027929064435,717.8168687199144 M1054.8027929064435,717.8168687199144 L1055.1635771084636,717.92791525224 M1055.1635771084636,717.92791525224 L1055.5406092064845,718.0948656614022 M1056.126204717255,717.577555266178 L1056.4976228278138,717.7906393480338 M1056.4976228278138,717.7906393480338 L1056.8418449181936,718.0376002291661 M1056.8418449181936,718.0376002291661 L1057.1388862958138,718.3041221864191 M1057.1388862958138,718.3041221864191 L1057.3713221112985,718.5746591206638 M1057.3713221112985,718.5746591206638 L1057.5256242000573,718.8334943573534 M1057.5256242000573,718.8334943573534 L1057.5928768574772,719.0656165542624 M1057.5928768574772,719.0656165542624 L1057.5690254739554,719.2574534919466 M1057.5690254739554,719.2574534919466 L1057.455423496899,719.3978205907946 M1057.455423496899,719.3978205907946 L1057.2587612945294,719.4785795745195 M1057.2587612945294,719.4785795745195 L1056.990379213721,719.4949656824291 M1056.990379213721,719.4949656824291 L1056.6658867604751,719.446011317754 M1056.6658867604751,719.446011317754 L1056.304327313023,719.3346456812478 M1056.304327313023,719.3346456812478 L1055.9267421814218,719.1673570728424 M1055.9267421814218,719.1673570728424 L1055.5549042341834,718.9537930099275 M1055.5549042341834,718.9537930099275 L1055.2106839962084,718.7065219489307 M1055.2106839962084,718.7065219489307 L1054.9139129418236,718.4398530210215 M1054.9139129418236,718.4398530210215 L1054.6819539661012,718.1693660459282 M1054.6819539661012,718.1693660459282 L1054.5282259436315,717.9107662059413 M1054.5282259436315,717.9107662059413 L1054.461513226653,717.6790109779987 M1054.461513226653,717.6790109779987 L1054.4857465740502,717.4875884538417 M1054.4857465740502,717.4875884538417 L1054.5994850104637,717.3475882492974 M1054.5994850104637,717.3475882492974 L1054.7960071321672,717.2670647238897 M1054.7960071321672,717.2670647238897 L1055.0640044555514,717.2507285622961 M1055.0640044555514,717.2507285622961 L1055.3879555943395,717.2995358845161 M1055.3879555943395,717.2995358845161 L1055.7489414369218,717.4105913750897 M1055.7489414369218,717.4105913750897 L1056.126204717255,717.577555266178 M1056.126204717255,717.577555266178 L1055.5406092064845,718.0948656614022" stroke="black"  stroke-width="4"  fill="red"/>
<path d="M-285.8589169018086,50.09448899051421 L-322.46983327253974,69.09148337469458 M-285.8589169018086,50.09448899051421 L-289.2719575517351,48.33139261631169 M-325.8810983073878,67.24281648953854 L-289.2719575517351,48.33139261631169 M-322.46983327253974,69.09148337469458 L-325.8810983073878,67.24281648953854 M-322.46983327253974,69.09148337469458 L-322.9242670048617,43.94531538315516 M-322.9242670048617,43.94531538315516 L-319.31181684987087,42.12955368382552 M-319.31181684987087,42.12955368382552 L-319.72775088785363,16.320847057238097 M-319.72775088785363,16.320847057238097 L-267.62569594274726,-8.998140707836626 M-267.62569594274726,-8.998140707836626 L-267.67644191468503,-7.40324359967417 M-267.67644191468503,-7.40324359967417 L-267.792720029394,-5.783280326775639 M-267.792720029394,-5.783280326775639 L-267.9740704072876,-4.142607875480849 M-267.9740704072876,-4.142607875480849 L-268.21987578373796,-2.4856383668947615 M-268.21987578373796,-2.4856383668947615 L-268.52935687645424,-0.8167759835323523 M-268.52935687645424,-0.8167759835323523 L-268.90157987170073,0.8595417330463988 M-268.90157987170073,0.8595417330463988 L-269.3354617880759,2.5388840021986425 M-269.3354617880759,2.5388840021986425 L-269.82976402500594,4.216806094113792 M-269.82976402500594,4.216806094113792 L-270.3831081236567,5.8889079688827906 M-270.3831081236567,5.8889079688827906 L-270.9939724868607,7.550787756700856 M-270.9939724868607,7.550787756700856 L-271.66069671392415,9.198108374314359 M-271.66069671392415,9.198108374314359 L-272.3814886160451,10.826556289831842 M-272.3814886160451,10.826556289831842 L-273.1544248098935,12.43186552751547 M-273.1544248098935,12.43186552751547 L-273.97745779852767,14.009844945741463 M-273.97745779852767,14.009844945741463 L-274.8484197956834,15.556376844794897 M-274.8484197956834,15.556376844794897 L-275.76502621405166,17.067402093526937 M-275.76502621405166,17.067402093526937 L-276.7248806157968,18.53894702387271 M-276.7248806157968,18.53894702387271 L-276.7137827176223,18.556270223146043 M-276.7137827176223,18.556270223146043 L-276.7074436670539,18.578651725982922 M-276.7074436670539,18.578651725982922 L-276.70622993507106,18.604795776983735 M-276.70622993507106,18.604795776983735 L-276.71021288242355,18.633177479803635 M-276.71021288242355,18.633177479803635 L-276.71915998422264,18.662146916506458 M-276.71915998422264,18.662146916506458 L-276.73255181535274,18.690018997829327 M-276.73255181535274,18.690018997829327 L-276.7496107952222,18.71519634105948 M-276.7496107952222,18.71519634105948 L-276.7693447999195,18.736177467283994 M-276.7693447999195,18.736177467283994 L-276.79060713860656,18.751776817769553 M-276.79060713860656,18.751776817769553 L-276.8121635971818,18.76107692462415 M-276.8121635971818,18.76107692462415 L-276.8327611686657,18.76353076976784 M-276.8327611686657,18.76353076976784 L-276.8512019175181,18.759012472994243 M-276.8512019175181,18.759012472994243 L-276.86641480017147,18.747758395657797 M-276.86641480017147,18.747758395657797 L-277.8305735594074,20.226136482804463 M-277.8305735594074,20.226136482804463 L-278.7512328701747,21.744544029825647 M-278.7512328701747,21.744544029825647 L-279.62561201853487,23.298425273561577 M-279.62561201853487,23.298425273561577 L-280.4510790016666,24.88308730457345 M-280.4510790016666,24.88308730457345 L-281.2251599629285,26.493748613077003 M-281.2251599629285,26.493748613077003 L-281.94554535568864,28.125545579667573 M-281.94554535568864,28.125545579667573 L-282.6101006640931,29.773555063193953 M-282.6101006640931,29.773555063193953 L-283.2168715972755,31.432800887173073 M-283.2168715972755,31.432800887173073 L-283.76409146903393,33.09830207810876 M-283.76409146903393,33.09830207810876 L-284.25018708814,34.76503948029256 M-284.25018708814,34.76503948029256 L-284.6737820329363,36.4280222831847 M-284.6737820329363,36.4280222831847 L-285.03370212437244,38.08227473943708 M-285.03370212437244,38.08227473943708 L-285.32897742149464,39.72287492728714 M-285.32897742149464,39.72287492728714 L-285.55884457071545,41.34494654289557 M-285.55884457071545,41.34494654289557 L-285.7227481905802,42.94369704356831 M-285.7227481905802,42.94369704356831 L-285.8203410526039,44.514434754450974 M-285.8203410526039,44.514434754450974 L-285.85148370383706,46.052558767631695 M-285.85148370383706,46.052558767631695 L-285.8589169018086,50.09448899051421 M-285.85148370383706,46.052558767631695 L-289.27195716329993,44.29465662443681 M-289.27195716329993,44.29465662443681 L-289.2719575517351,48.33139261631169 M-289.27195716329993,44.29465662443681 L-289.2436160117725,42.75856582602131 M-289.2436160117725,42.75856582602131 L-289.1488215313692,41.19001747902405 M-289.1488215313692,41.19001747902405 L-288.98770514556804,39.59360599086557 M-288.98770514556804,39.59360599086557 L-288.7606060384321,37.97401599938706 M-288.7606060384321,37.97401599938706 L-288.468071509525,36.336032465585106 M-288.468071509525,36.336032465585106 L-288.11085682081966,34.684523595757696 M-288.11085682081966,34.684523595757696 L-287.6899238780703,33.02440275764502 M-287.6899238780703,33.02440275764502 L-287.2064388622297,31.360636689392777 M-287.2064388622297,31.360636689392777 L-286.66177030236406,29.69820680003778 M-286.66177030236406,29.69820680003778 L-286.05748357269886,28.04212245233043 M-286.05748357269886,28.04212245233043 L-285.3953377382186,26.397354538174625 M-285.3953377382186,26.397354538174625 L-284.6772795987506,24.768868839687684 M-284.6772795987506,24.768868839687684 L-283.90543639364955,23.161577876880642 M-283.90543639364955,23.161577876880642 L-283.0821106178802,21.58033444881255 M-283.0821106178802,21.58033444881255 L-282.20976933680004,20.029909103331647 M-282.20976933680004,20.029909103331647 L-281.2910380332196,18.51498367511556 M-281.2910380332196,18.51498367511556 L-280.3286912586027,17.040102829377986 M-280.3286912586027,17.040102829377986 L-280.31344293868017,17.05136595700594 M-280.31344293868017,17.05136595700594 L-280.29497612380953,17.055907394377925 M-280.29497612380953,17.055907394377925 L-280.2743633230227,17.053489400446608 M-280.2743633230227,17.053489400446608 L-280.25280338887376,17.044235792020572 M-280.25280338887376,17.044235792020572 L-280.23154951888125,17.02869087534191 M-280.23154951888125,17.02869087534191 L-280.21183541402456,17.00776894258712 M-280.21183541402456,17.00776894258712 L-280.1948066717123,16.982652158125518 M-280.1948066717123,16.982652158125518 L-280.18145358899017,16.9548384299884 M-280.18145358899017,16.9548384299884 L-280.1725515357639,16.92592178156883 M-280.1725515357639,16.92592178156883 L-280.16861731584333,16.897584234017586 M-280.16861731584333,16.897584234017586 L-280.1698806220985,16.871473137465387 M-280.1698806220985,16.871473137465387 L-280.17626720118756,16.849111467280693 M-280.17626720118756,16.849111467280693 L-280.18740783033695,16.831793829654373 M-271.1306032205242,-10.653780020816953 L-271.1784277779848,-9.06116043865461 M-271.1784277779848,-9.06116043865461 L-271.2918014113627,-7.4436036480746 M-271.2918014113627,-7.4436036480746 L-271.47027220811947,-5.805460348284328 M-271.47027220811947,-5.805460348284328 L-271.7132307718739,-4.151136126258734 M-271.7132307718739,-4.151136126258734 L-272.01990546493346,-2.485028456317252 M-272.01990546493346,-2.485028456317252 L-272.389369976401,-0.8115679456021212 M-272.389369976401,-0.8115679456021212 L-272.82054861486836,0.864821730251947 M-272.82054861486836,0.864821730251947 L-273.31220988823407,2.539703163095396 M-273.31220988823407,2.539703163095396 L-273.8629821705589,4.208683755673803 M-273.8629821705589,4.208683755673803 L-274.47135050574,5.867369278537126 M-274.47135050574,5.867369278537126 L-275.13566082371676,7.511430398451239 M-275.13566082371676,7.511430398451239 L-275.8541270410649,9.136561496890693 M-275.8541270410649,9.136561496890693 L-276.6248316128226,10.73850465030523 M-276.6248316128226,10.73850465030523 L-277.445732572544,12.313076869241002 M-277.445732572544,12.313076869241002 L-278.3146673664003,13.856168710809527 M-278.3146673664003,13.856168710809527 L-279.2293563764106,15.36372942822112 M-279.2293563764106,15.36372942822112 L-280.18740783033695,16.831793829654373 M-271.1306032205242,-10.653780020816953 L-323.2316954483149,14.548867771249093 M-322.7689779208838,40.32217121227302 L-323.2316954483149,14.548867771249093 M-322.7689779208838,40.32217121227302 L-326.3810689567558,42.129554046584644 M-325.8810983073878,67.24281648953854 L-326.3810689567558,42.129554046584644 M-326.3810689567558,42.129554046584644 L-322.9242670048617,43.94531538315516 M-276.86641480017147,18.747758395657797 L-280.3286912586027,17.040102829377986 M-276.7248806157968,18.53894702387271 L-280.18740783033695,16.831793829654373 M-267.62569594274726,-8.998140707836626 L-271.1306032205242,-10.653780020816953 M-319.72775088785363,16.320847057238097 L-323.2316954483149,14.548867771249093 M-319.31181684987087,42.12955368382552 L-322.7689779208838,40.32217121227302" stroke="black"  stroke-width="4"  fill="red"/>
<path d="M-278.50473352422614,44.5199732722694 L-278.4833228656838,40.8182935483639 M-278.4833228656838,40.8182935483639 L-278.4455044492795,40.84277137142067 M-278.4455044492795,40.84277137142067 L-278.42016886249485,40.87112951209332 M-278.42016886249485,40.87112951209332 L-278.40878851206617,40.90172000741842 M-278.40878851206617,40.90172000741842 L-278.412027199362,40.932765847945234 M-278.412027199362,40.932765847945234 L-278.42969796524744,40.96246223872379 M-278.42969796524744,40.96246223872379 L-278.46077574468836,40.98908329419953 M-278.46077574468836,40.98908329419953 L-278.5034545931064,41.01108076153929 M-278.5034545931064,41.01108076153929 L-278.5552546706315,41.02717560820156 M-278.5552546706315,41.02717560820156 L-278.6131640600977,41.036431369626484 M-278.6131640600977,41.036431369626484 L-278.67381677039305,41.03830989280442 M-278.67381677039305,41.03830989280442 L-278.7336853825084,41.03270167714834 M-278.7336853825084,41.03270167714834 L-278.7892899065075,41.019933389149344 M-278.7892899065075,41.019933389149344 L-278.83739661902985,41.00074714784148 M-278.83739661902985,41.00074714784148 L-278.87521023493355,40.97625952192942 M-278.87521023493355,40.97625952192942 L-278.90053272545333,40.9478937569512 M-278.90053272545333,40.9478937569512 L-278.91189451330183,40.91729964966123 M-278.91189451330183,40.91729964966123 L-278.90863604921356,40.8862550368969 M-278.90863604921356,40.8862550368969 L-278.89094882321183,40.85656443232705 M-278.89094882321183,40.85656443232705 L-278.8598616709555,40.82995239604713 M-278.8598616709555,40.82995239604713 L-278.8171826843361,40.80796511461119 M-278.8171826843361,40.80796511461119 L-278.76539173488254,40.791879287205404 M-278.76539173488254,40.791879287205404 L-278.70749864851905,40.78262931201186 M-278.70749864851905,40.78262931201186 L-278.6468656817001,40.78075201662517 M-278.6468656817001,40.78075201662517 L-278.58701573018027,40.78635662022157 M-278.58701573018027,40.78635662022157 L-278.5314245093351,40.7991172840446 M-278.5314245093351,40.7991172840446 L-278.4833228656838,40.8182935483639 M-278.50473352422614,44.5199732722694 L-278.5527391873818,44.50074447407809 M-278.5527391873818,44.50074447407809 L-278.6082197434995,44.487948851049396 M-278.6082197434995,44.487948851049396 L-278.6679507753811,44.48232889277904 M-278.6679507753811,44.48232889277904 L-278.7284634706199,44.484211331323195 M-278.7284634706199,44.484211331323195 L-278.7862419181333,44.4934866480728 M-278.7862419181333,44.4934866480728 L-278.83793051659757,44.50961654373782 M-278.83793051659757,44.50961654373782 L-278.8805253866715,44.53166405875254 M-278.8805253866715,44.53166405875254 L-278.911551544481,44.55834899471455 M-278.911551544481,44.55834899471455 L-278.92920444732385,44.58812092798877 M-278.92920444732385,44.58812092798877 L-278.9324572589119,44.619250573568024 M-278.9324572589119,44.619250573568024 L-278.92111882527263,44.64992847491635 M-278.92111882527263,44.64992847491635 L-278.8958473430599,44.67837192650086 M-278.8958473430599,44.67837192650086 L-278.8581094314459,44.70292661449071 M-278.8581094314459,44.70292661449071 L-278.8100987194488,44.72216539731477 M-278.8100987194488,44.72216539731477 L-278.75460491313606,44.73496865022844 M-278.75460491313606,44.73496865022844 L-278.6948552947558,44.74059222326315 M-278.6948552947558,44.74059222326315 L-278.63432293430185,44.73870855600853 M-278.63432293430185,44.73870855600853 L-278.5765282481814,44.72942744869465 M-278.5765282481814,44.72942744869465 L-278.52483055760194,44.713288527019415 M-278.52483055760194,44.713288527019415 L-278.48223582490823,44.69123081847329 M-278.48223582490823,44.69123081847329 L-278.45121900250365,44.664536856561824 M-278.45121900250365,44.664536856561824 L-278.433582494348,44.63475913274601 M-278.433582494348,44.63475913274601 L-278.43034938109327,44.603628258484946 M-278.43034938109327,44.603628258484946 L-278.44170630379836,44.57295397180616 M-278.44170630379836,44.57295397180616 L-278.466990830546,44.5445181502364 M-278.466990830546,44.5445181502364 L-278.50473352422614,44.5199732722694 M-278.2178759289077,40.681509195874014 L-278.12332231705363,40.742685698214416 M-278.12332231705363,40.742685698214416 L-278.05995821820966,40.81356636817998 M-278.05995821820966,40.81356636817998 L-278.0314727964867,40.89003605278219 M-278.0314727964867,40.89003605278219 L-278.0395323501118,40.967652651959895 M-278.0395323501118,40.967652651959895 L-278.0836785574803,41.04190474206575 M-278.0836785574803,41.04190474206575 L-278.1613546579724,41.10847399477012 M-278.1613546579724,41.10847399477012 L-278.26805151227586,41.16348677336384 M-278.26805151227586,41.16348677336384 L-278.39756823490006,41.203740421799864 M-278.39756823490006,41.203740421799864 L-278.5423728007672,41.22689077050899 M-278.5423728007672,41.22689077050899 L-278.6940410218567,41.23158933899907 M-278.6940410218567,41.23158933899907 L-278.84374798326235,41.21756215213185 M-278.84374798326235,41.21756215213185 L-278.9827834851699,41.18562682087952 M-278.9827834851699,41.18562682087952 L-279.1030603754971,41.13764322714735 M-279.1030603754971,41.13764322714735 L-279.19758488183186,41.07640499973678 M-279.19758488183186,41.07640499973678 L-279.2608673009996,41.00547659122657 M-279.2608673009996,41.00547659122657 L-279.2892365351447,40.928984418903894 M-279.2892365351447,40.928984418903894 L-279.28105346272764,40.85137544980455 M-279.28105346272764,40.85137544980455 L-279.23680437940664,40.777159523713465 M-279.23680437940664,40.777159523713465 L-279.1590696989947,40.71064664079586 M-279.1590696989947,40.71064664079586 L-279.05237198092345,40.65569752412256 M-279.05237198092345,40.65569752412256 L-278.92291230856995,40.61550024547131 M-278.92291230856995,40.61550024547131 L-278.77820963732347,40.592386060817546 M-278.77820963732347,40.592386060817546 L-278.62666472681735,40.58769520941087 M-278.62666472681735,40.58769520941087 L-278.47707456559226,40.601699734196416 M-278.47707456559226,40.601699734196416 L-278.33812203642026,40.633587500872125 M-278.33812203642026,40.633587500872125 L-278.2178759289077,40.681509195874014 M-278.2152973524985,40.24637355195887 L-278.1207214810353,40.30753027238018 M-278.1207214810353,40.30753027238018 L-278.0573423632352,40.378388025296886 M-278.0573423632352,40.378388025296886 L-278.02885003922927,40.454832989177476 M-278.02885003922927,40.454832989177476 L-278.0369112132132,40.53242450043177 M-278.0369112132132,40.53242450043177 L-278.08106747423153,40.606652593483716 M-278.08106747423153,40.606652593483716 L-278.1587614815144,40.67320033489665 M-278.1587614815144,40.67320033489665 L-278.26548305745337,40.728195338570515 M-278.26548305745337,40.728195338570515 L-278.39502987985156,40.76843598198349 M-278.39502987985156,40.76843598198349 L-278.53986817205623,40.79157885178785 M-278.53986817205623,40.79157885178785 L-278.69157178194496,40.79627590240705 M-278.69157178194496,40.79627590240705 L-278.8413137330283,40.78225324705693 M-278.8413137330283,40.78225324705693 L-278.9803817873999,40.75032823302911 M-278.9803817873999,40.75032823302911 L-279.10068689786146,40.70236014231563 M-279.10068689786146,40.70236014231563 L-279.19523365045666,40.64114170235797 M-279.19523365045666,40.64114170235797 L-279.25853105057024,40.570236215212674 M-279.25853105057024,40.570236215212674 L-279.2869071328821,40.493768765614846 M-279.2869071328821,40.493768765614846 L-279.2787223824132,40.416184883762355 M-279.2787223824132,40.416184883762355 L-279.23446319731374,40.34199295147113 M-279.23446319731374,40.34199295147113 L-279.1567105825919,40.27550157477265 M-279.1567105825919,40.27550157477265 L-279.0499881422802,40.22057022729081 M-279.0499881422802,40.22057022729081 L-278.9204983966006,40.18038594859024 M-278.9204983966006,40.18038594859024 L-278.77576204645857,40.15727923958707 M-278.77576204645857,40.15727923958707 L-278.62418180470047,40.1525899053467 M-278.62418180470047,40.1525899053467 L-278.4745567083428,40.16658990067475 M-278.4745567083428,40.16658990067475 L-278.3355716656222,40.19846735438563 M-278.3355716656222,40.19846735438563 L-278.2152973524985,40.24637355195887 M-278.2152973524985,40.24637355195887 L-278.2178759289077,40.681509195874014" stroke="black"  stroke-width="4"  fill="red"/>
<path d="M-322.7689779208838,40.32217121227302 L-326.3810689567558,42.129554046584644 M-326.3810689567558,42.129554046584644 L-326.8948849471831,16.32084741290288 M-323.2316954483149,14.548867771249093 L-326.8948849471831,16.32084741290288 M-322.7689779208838,40.32217121227302 L-323.2316954483149,14.548867771249093 M-322.46983327253974,69.09148337469458 L-250.0699369119494,108.32715973618207 M-250.0699369119494,108.32715973618207 L-249.97572873362765,104.0068888087352 M-249.97572873362765,104.0068888087352 L-167.50071352903933,148.4726066886796 M-167.80796440554275,152.90739109512953 L-167.50071352903933,148.4726066886796 M-167.80796440554275,152.90739109512953 L277.20094608427166,394.07107319482725 M277.20094608427166,394.07107319482725 L279.02160586102775,389.2113980892607 M279.02160586102775,389.2113980892607 L429.21253910747396,470.18558947674524 M426.74639058563093,475.11423702156424 L429.21253910747396,470.18558947674524 M426.74639058563093,475.11423702156424 L1033.417052548587,803.8872732733765 M1033.417052548587,803.8872732733765 L1068.3755358367364,774.7561702525655 M1068.3755358367364,774.7561702525655 L1081.350122122224,781.5713573714803 M1081.350122122224,781.5713573714803 L1118.7307291705063,750.9026207594526 M-326.8948849471831,16.32084741290288 L1118.7307291705063,750.9026207594526 M-326.3810689567558,42.129554046584644 L-322.9242670048617,43.94531538315516 M-322.46983327253974,69.09148337469458 L-322.9242670048617,43.94531538315516 M1082.0563576333743,774.7561865558458 L1069.1364331695079,768.001729783332 M1034.310207180993,797.1795334146394 L1069.1364331695079,768.001729783332 M1034.310207180993,797.1795334146394 L429.52537979243016,470.95354421659897 M429.52537979243016,470.95354421659897 L431.99260211131536,466.0275326363899 M431.99260211131536,466.0275326363899 L282.09760706242366,385.58980895549337 M280.2729383587415,390.4455302223172 L282.09760706242366,385.58980895549337 M280.2729383587415,390.4455302223172 L-164.26688697616692,150.65703406576313 M-164.26688697616692,150.65703406576313 L-163.95147658290273,146.22776136559833 M-163.95147658290273,146.22776136559833 L-246.40573000145037,101.98057051955021 M-246.50825101982946,106.29535512949138 L-246.40573000145037,101.98057051955021 M-246.50825101982946,106.29535512949138 L-318.9070906153015,67.24281612019382 M-318.9070906153015,67.24281612019382 L-319.31181684987087,42.12955368382552 M-319.31181684987087,42.12955368382552 L-322.7689779208838,40.32217121227302 M1119.2843002150414,744.043418817125 L-323.2316954483149,14.548867771249093 M1082.0563576333743,774.7561865558458 L1119.2843002150414,744.043418817125 M-322.46983327253974,69.09148337469458 L-318.9070906153015,67.24281612019382 M-322.9242670048617,43.94531538315516 L-319.31181684987087,42.12955368382552 M-246.50825101982946,106.29535512949138 L-250.0699369119494,108.32715973618207 M-246.40573000145037,101.98057051955021 L-249.97572873362765,104.0068888087352 M-167.80796440554275,152.90739109512953 L-164.26688697616692,150.65703406576313 M-167.50071352903933,148.4726066886796 L-163.95147658290273,146.22776136559833 M280.2729383587415,390.4455302223172 L277.20094608427166,394.07107319482725 M282.09760706242366,385.58980895549337 L279.02160586102775,389.2113980892607 M426.74639058563093,475.11423702156424 L429.52537979243016,470.95354421659897 M429.21253910747396,470.18558947674524 L431.99260211131536,466.0275326363899 M1034.310207180993,797.1795334146394 L1033.417052548587,803.8872732733765 M1069.1364331695079,768.001729783332 L1068.3755358367364,774.7561702525655 M1081.350122122224,781.5713573714803 L1082.0563576333743,774.7561865558458 M1118.7307291705063,750.9026207594526 L1119.2843002150414,744.043418817125" stroke="black"  stroke-width="4"  fill="red"/></svg>