<svg viewBox="0 0 800 800" xmlns="http://www.w3.org/2000/svg"><path d="M-202.31932953743421,17.962130453822283 L-219.3007132197315,27.57382793164919 M-219.30071285714416,23.80570809489751 L-219.3007132197315,27.57382793164919 M-219.30071285714416,23.80570809489751 L-219.3008084581163,23.787599409175016 M-219.3008084581163,23.787599409175016 L-219.30086581978412,23.76946880334083 M-219.30086581978412,23.76946880334083 L-219.3008849406384,23.751316277894546 M-202.28335906088012,14.161666183020657 L-219.3008849406384,23.751316277894546 M-202.31932953743421,17.962130453822283 L-202.28335906088012,14.161666183020657 M1026.8774371233837,732.927697839077 L1016.1515729566404,726.8567120847282 M1004.9145937654621,786.488562150459 L1016.1515729566404,726.8567120847282 M1004.9145937654621,786.488562150459 L456.4682287870976,462.92162868236403 M453.7144165148943,467.1154025140671 L456.4682287870976,462.92162868236403 M315.33452770219014,385.1100096015043 L453.7144165148943,467.1154025140671 M318.33251950689294,381.42569633900825 L315.33452770219014,385.1100096015043 M318.33251950689294,381.42569633900825 L-99.84971501774396,134.71069940159532 M-103.2468428012046,137.05424045379448 L-99.84971501774396,134.71069940159532 M-181.75903476592487,90.52708101079344 L-103.2468428012046,137.05424045379448 M-178.3439249811522,88.40146583804943 L-181.75903476592487,90.52708101079344 M-178.3439249811522,88.40146583804943 L-247.74070180102535,47.459445429067614 M-216.022422692384,29.429385188457786 L-247.74070180102535,47.459445429067614 M-216.022422692384,29.429385188457786 L-219.3007132197315,27.57382793164919 M1032.5488888102875,701.5740609002731 L-202.31932953743421,17.962130453822283 M1026.8774371233837,732.927697839077 L1032.5488888102875,701.5740609002731 M-208.95561893727904,23.561376729472784 L-209.0017323310575,23.54112972023694 M-209.0017323310575,23.54112972023694 L-209.05503106586798,23.527656516007255 M-209.05503106586798,23.527656516007255 L-209.11241748287603,23.521738952070223 M-209.11241748287603,23.521738952070223 L-209.1705588689549,23.52372107578924 M-209.1705588689549,23.52372107578924 L-209.22607702547725,23.5334875644848 M-209.22607702547725,23.5334875644848 L-209.27574756833837,23.550471592277688 M-209.27574756833837,23.550471592277688 L-209.31668386732645,23.573686551566084 M-209.31668386732645,23.573686551566084 L-209.34650731105796,23.601784418653267 M-209.34650731105796,23.601784418653267 L-209.36348334089394,23.633132644179227 M-209.36348334089394,23.633132644179227 L-209.36662454874659,23.665910364020533 M-209.36662454874659,23.665910364020533 L-209.35574641481094,23.69821232039459 M-209.35574641481094,23.69821232039459 L-209.33148047587997,23.7281614464124 M-209.33148047587997,23.7281614464124 L-209.29523503644043,23.75401588375547 M-209.29523503644043,23.75401588375547 L-209.24911698657047,23.77427298427034 M-209.24911698657047,23.77427298427034 L-209.19580604039413,23.787753897038044 M-209.19580604039413,23.787753897038044 L-209.1384024905226,23.793675113002223 M-209.1384024905226,23.793675113002223 L-209.08024297468728,23.791691747906555 M-209.08024297468728,23.791691747906555 L-209.02470984506476,23.781919408954536 M-209.02470984506476,23.781919408954536 L-208.97503091574526,23.764926262106485 M-208.97503091574526,23.764926262106485 L-208.93409473827842,23.74170100420639 M-208.93409473827842,23.74170100420639 L-208.90427989621003,23.71359401812532 M-208.90427989621003,23.71359401812532 L-208.8873189775369,23.682239942365868 M-208.8873189775369,23.682239942365868 L-208.88419592873583,23.649460981176787 M-208.88419592873583,23.649460981176787 L-208.89509110934955,23.617162676734154 M-208.89509110934955,23.617162676734154 L-208.91936907772742,23.587221259385387 M-208.91936907772742,23.587221259385387 L-208.95561893727904,23.561376729472784 M1024.4746708748748,713.8004299006556 L1024.3393936222308,713.734735386476 M1024.3393936222308,713.734735386476 L1024.2087698484877,713.6910802550273 M1024.2087698484877,713.6910802550273 L1024.0901613175693,713.6718707270194 M1024.0901613175693,713.6718707270194 L1023.9906931248674,713.678356404912 M1023.9906931248674,713.678356404912 L1023.9158682420339,713.7100068619035 M1023.9158682420339,713.7100068619035 L1023.8700773624803,713.7650115464509 M1023.8700773624803,713.7650115464509 L1023.8561501793426,713.8402706330158 M1023.8561501793426,713.8402706330158 L1023.8749000562918,713.9314163498244 M1023.8749000562918,713.9314163498244 L1023.9250765294273,714.0330615421846 M1023.9250765294273,714.0330615421846 L1024.0037255792865,714.1392783280431 M1024.0037255792865,714.1392783280431 L1024.1065556382841,714.2440464085315 M1024.1065556382841,714.2440464085315 L1024.227355041068,714.3411432514175 M1024.227355041068,714.3411432514175 L1024.3593276084337,714.425045359353 M1024.3593276084337,714.425045359353 L1024.49452960357,714.4907220278482 M1024.49452960357,714.4907220278482 L1024.6252287045265,714.5344221456343 M1024.6252287045265,714.5344221456343 L1024.7439097645354,714.5536530268101 M1024.7439097645354,714.5536530268101 L1024.8435671723726,714.5472363226999 M1024.8435671723726,714.5472363226999 L1024.9182772040715,714.5154754312588 M1024.9182772040715,714.5154754312588 L1024.9640530618676,714.4604175557348 M1024.9640530618676,714.4604175557348 L1024.977932080646,714.385098335195 M1024.977932080646,714.385098335195 L1024.9591119534305,714.2938993458741 M1024.9591119534305,714.2938993458741 L1024.9089956011637,714.1922962563511 M1024.9089956011637,714.1922962563511 L1024.8301457035225,714.0859959731521 M1024.8301457035225,714.0859959731521 L1024.7272772976135,713.9812492164918 M1024.7272772976135,713.9812492164918 L1024.6064746383843,713.8841973687819 M1024.6064746383843,713.8841973687819 L1024.4746708748748,713.8004299006556 M-216.0154853835336,25.657103269430877 L-219.30071285714416,23.80570809489751 M-216.0154853835336,25.657103269430877 L-216.022422692384,29.429385188457786 M-216.0155571542566,25.60265143325006 L-216.0155714714972,25.62082405890959 M-216.0155714714972,25.62082405890959 L-216.01554754741983,25.638974671136168 M-216.01554754741983,25.638974671136168 L-216.0154853835336,25.657103269430877 M-219.3008849406384,23.751316277894546 L-216.0155571542566,25.60265143325006 M1020.9424285014143,722.6484116872317 L1031.7287008675287,728.7266500016557 M1031.7287008675287,728.7266500016557 L1037.3246935194309,697.3372154254313 M1037.3246935194309,697.3372154254313 L-202.28335906088012,14.161666183020657 M-216.0155571542566,25.60265143325006 L-247.80302212240917,43.59246955166611 M-247.80302212240917,43.59246955166611 L-178.25001965889453,84.44928856089007 M-178.25001965889453,84.44928856089007 L-181.67276173591995,86.57070620350424 M-181.67276173591995,86.57070620350424 L-102.9667586988437,133.0115746564511 M-102.9667586988437,133.0115746564511 L-99.56212637299609,130.6721243886538 M-99.56212637299609,130.6721243886538 L319.95598144440714,377.10541691515505 M319.95598144440714,377.10541691515505 L316.95382647640383,380.78780396924583 M316.95382647640383,380.78780396924583 L455.8898729204375,462.767709024777 M455.8898729204375,462.767709024777 L458.645548648205,458.57443112033764 M458.645548648205,458.57443112033764 L1009.8434877567952,782.3590793564846 M1020.9424285014143,722.6484116872317 L1009.8434877567952,782.3590793564846 M-208.67841038108998,19.60386627014526 L-208.58758390239996,19.668310762142994 M-208.58758390239996,19.668310762142994 L-208.52673443462527,19.742977300305597 M-208.52673443462527,19.742977300305597 L-208.499404471346,19.823530760368328 M-208.499404471346,19.823530760368328 L-208.507192353444,19.90529173468144 M-208.507192353444,19.90529173468144 L-208.54965474426422,19.983507937518482 M-208.54965474426422,19.983507937518482 L-208.62433205138825,20.053630628154792 M-208.62433205138825,20.053630628154792 L-208.72688901740457,20.11157960159329 M-208.72688901740457,20.11157960159329 L-208.85136534801336,20.15398149800268 M-208.85136534801336,20.15398149800268 L-208.99052232878864,20.17836724972841 M-208.99052232878864,20.17836724972841 L-209.1362646642949,20.183316547101185 M-209.1362646642949,20.183316547101185 L-209.28011265036253,20.168540822821 M-209.28011265036253,20.168540822821 L-209.41369735983233,20.13490123615395 M-209.41369735983233,20.13490123615395 L-209.52924896877823,20.0843567497796 M-209.52924896877823,20.0843567497796 L-209.62004856992962,20.019849864157436 M-209.62004856992962,20.019849864157436 L-209.68082269908655,19.94513506382799 M-209.68082269908655,19.94513506382799 L-209.70804550166054,19.86455887482714 M-209.70804550166054,19.86455887482714 L-209.7001437235166,19.782805611843116 M-209.7001437235166,19.782805611843116 L-209.6575864835936,19.70462596688617 M-209.6575864835936,19.70462596688617 L-209.58285518528476,19.63456025996419 M-209.58285518528476,19.63456025996419 L-209.48029745488384,19.576675641792633 M-209.48029745488384,19.576675641792633 L-209.35587376180877,19.534330729094904 M-209.35587376180877,19.534330729094904 L-209.2168107617142,19.509981535289455 M-209.2168107617142,19.509981535289455 L-209.0711821380005,19.505040040896404 M-209.0711821380005,19.505040040896404 L-208.9274418547559,19.519792852582725 M-208.9274418547559,19.519792852582725 L-208.7939336281869,19.553384360342477 M-208.7939336281869,19.553384360342477 L-208.67841038108998,19.60386627014526 M1029.3428135476956,709.1081857910841 L1029.674175578668,709.3177297841984 M1029.674175578668,709.3177297841984 L1029.9781686807341,709.560582159421 M1029.9781686807341,709.560582159421 L1030.2371424865353,709.8226634394083 M1030.2371424865353,709.8226634394083 L1030.4359013195763,710.088685636474 M1030.4359013195763,710.088685636474 L1030.562878000498,710.3431946588354 M1030.562878000498,710.3431946588354 L1030.6107424362356,710.5714315088068 M1030.6107424362356,710.5714315088068 L1030.5765854497117,710.7600533993276 M1030.5765854497117,710.7600533993276 L1030.4623660673449,710.898065749078 M1030.4623660673449,710.898065749078 L1030.2748036262954,710.9774690681053 M1030.2748036262954,710.9774690681053 L1030.0247195965226,710.9935800313243 M1030.0247195965226,710.9935800313243 L1029.7266578947542,710.9454475973758 M1029.7266578947542,710.9454475973758 L1029.3981041536056,710.8359508800164 M1029.3981041536056,710.8359508800164 L1029.0581752170724,710.6714673824114 M1029.0581752170724,710.6714673824114 L1028.7264698979413,710.4614803714231 M1028.7264698979413,710.4614803714231 L1028.4224963863944,710.2183453134368 M1028.4224963863944,710.2183453134368 L1028.1637636200205,709.9561300915758 M1028.1637636200205,709.9561300915758 L1027.965412030302,709.6901534248394 M1027.965412030302,709.6901534248394 L1027.8389154602735,709.4358589315272 M1027.8389154602735,709.4358589315272 L1027.791494148826,709.2079565191256 M1027.791494148826,709.2079565191256 L1027.825955627128,709.0197123048118 M1027.825955627128,709.0197123048118 L1027.9402710937322,708.8820343245617 M1027.9402710937322,708.8820343245617 L1028.1276993860804,708.8028455907073 M1028.1276993860804,708.8028455907073 L1028.3774495782175,708.7867801461126 M1028.3774495782175,708.7867801461126 L1028.6750542133318,708.8347785727741 M1028.6750542133318,708.8347785727741 L1029.0031325775878,708.9439926383242 M1029.0031325775878,708.9439926383242 L1029.3428135476956,709.1081857910841 M1032.5488888102875,701.5740609002731 L1037.3246935194309,697.3372154254313 M1031.6594864605636,728.7863205955849 L1020.8740796169864,722.7081873929448 M1031.6594864605636,728.7863205955849 L1026.8774371233837,732.927697839077 M1020.8740796169864,722.7081873929448 L1016.1515729566404,726.8567120847282 M1020.8740796169864,722.7081873929448 L1020.8968486076983,722.6883335207366 M1020.8968486076983,722.6883335207366 L1020.9196315699085,722.668408286121 M1020.9196315699085,722.668408286121 L1020.9424285014143,722.6484116872317 M1004.9145937654621,786.488562150459 L1009.8434877567952,782.3590793564846 M456.4682287870976,462.92162868236403 L458.645548648205,458.57443112033764 M453.7144165148943,467.1154025140671 L455.8898729204375,462.767709024777 M315.33452770219014,385.1100096015043 L316.95382647640383,380.78780396924583 M318.33251950689294,381.42569633900825 L319.95598144440714,377.10541691515505 M-99.84971501774396,134.71069940159532 L-99.56212637299609,130.6721243886538 M-103.2468428012046,137.05424045379448 L-102.9667586988437,133.0115746564511 M-181.75903476592487,90.52708101079344 L-181.67276173591995,86.57070620350424 M-178.3439249811522,88.40146583804943 L-178.25001965889453,84.44928856089007 M-247.74070180102535,47.459445429067614 L-247.80302212240917,43.59246955166611 M1031.7287008675287,728.7266500016557 L1031.7056158532416,728.7466121158155 M1031.7056158532416,728.7466121158155 L1031.682544383494,728.7665023131548 M1031.682544383494,728.7665023131548 L1031.6594864605636,728.7863205955849 M-208.95561893727904,23.561376729472784 L-208.93588207958112,20.149079727519677 M-208.93588207958112,20.149079727519677 L-208.89956246720453,20.17487109241705 M-208.89956246720453,20.17487109241705 L-208.87523748887168,20.20475092069472 M-208.87523748887168,20.20475092069472 L-208.86432077508664,20.2369827924216 M-208.86432077508664,20.2369827924216 L-208.86744902599492,20.269694336967063 M-208.86744902599492,20.269694336967063 L-208.88444158488323,20.30098393109148 M-208.88444158488323,20.30098393109148 L-208.91431267229075,20.32903311707247 M-208.91431267229075,20.32903311707247 L-208.95532643315119,20.352210616446087 M-208.95532643315119,20.352210616446087 L-209.00509977600154,20.369168821481765 M-209.00509977600154,20.369168821481765 L-209.06073865831831,20.37892106683819 M-209.06073865831831,20.37892106683819 L-209.11900911678538,20.38090035384846 M-209.11900911678538,20.38090035384846 L-209.17652234423576,20.374991312811915 M-209.17652234423576,20.374991312811915 L-209.22993532500436,20.361538119444845 M-209.22993532500436,20.361538119444845 L-209.27614183068295,20.34132267301078 M-209.27614183068295,20.34132267301078 L-209.3124570066018,20.315521402020238 M-209.3124570066018,20.315521402020238 L-209.3367699097132,20.285633866250123 M-209.3367699097132,20.285633866250123 L-209.3476695117895,20.25339834314923 M-209.3476695117895,20.25339834314923 L-209.34452303243938,20.22068803976208 M-209.34452303243938,20.22068803976208 L-209.32751530453584,20.18940429497826 M-209.32751530453584,20.18940429497826 L-209.29763558240347,20.161364226599233 M-209.29763558240347,20.161364226599233 L-209.2566216993248,20.13819702426531 M-209.2566216993248,20.13819702426531 L-209.20685677476035,20.121247936892928 M-209.20685677476035,20.121247936892928 L-209.15123292260432,20.111501540900008 M-209.15123292260432,20.111501540900008 L-209.092980663116,20.109523495077042 M-209.092980663116,20.109523495077042 L-209.03548463405377,20.115428884643734 M-209.03548463405377,20.115428884643734 L-208.9820839114691,20.128874370649328 M-208.9820839114691,20.128874370649328 L-208.93588207958112,20.149079727519677 M1024.4746708748748,713.8004299006556 L1028.7536225348979,710.0217859824362 M1028.7536225348979,710.0217859824362 L1028.8861114396066,710.105637065512 M1028.8861114396066,710.105637065512 L1029.007598185798,710.202785827291 M1029.007598185798,710.202785827291 L1029.1111103084495,710.3076372288921 M1029.1111103084495,710.3076372288921 L1029.1905256173975,710.4140437588134 M1029.1905256173975,710.4140437588134 L1029.2410955387836,710.5157484470877 M1029.2410955387836,710.5157484470877 L1029.2602327622938,710.6070386705074 M1029.2602327622938,710.6070386705074 L1029.2465143681789,710.6824332670843 M1029.2465143681789,710.6824332670843 L1029.2007332875137,710.7375462579397 M1029.2007332875137,710.7375462579397 L1029.1258539791281,710.7693389495329 M1029.1258539791281,710.7693389495329 L1029.0258713055525,710.7757620788226 M1029.0258713055525,710.7757620788226 L1028.906728556342,710.7565119419118 M1028.906728556342,710.7565119419118 L1028.7754587365548,710.7127680736304 M1028.7754587365548,710.7127680736304 L1028.639609775859,710.6470256686893 M1028.639609775859,710.6470256686893 L1028.5069510010285,710.5630396101179 M1028.5069510010285,710.5630396101179 L1028.3854674088668,710.4658456532133 M1028.3854674088668,710.4658456532133 L1028.2819938383082,710.3609728330249 M1028.2819938383082,710.3609728330249 L1028.202780522389,710.2546499088629 M1028.202780522389,710.2546499088629 L1028.1521504199047,710.152903193282 M1028.1521504199047,710.152903193282 L1028.1330840787873,710.0616664791072 M1028.1330840787873,710.0616664791072 L1028.1468511361736,709.9863322837288 M1028.1468511361736,709.9863322837288 L1028.192647489761,709.9312727202201 M1028.192647489761,709.9312727202201 L1028.2676422764364,709.8995906911986 M1028.2676422764364,709.8995906911986 L1028.367434710126,709.8930985442477 M1028.367434710126,709.8930985442477 L1028.4865043709879,709.9123272331016 M1028.4865043709879,709.9123272331016 L1028.6176982194306,709.9560259151352 M1028.6176982194306,709.9560259151352 L1028.7536225348979,710.0217859824362 M-208.67841038108998,19.60386627014526 L-208.68078719234313,20.00495397552129 M-208.68078719234313,20.00495397552129 L-208.58998121630339,20.06941415551296 M-208.58998121630339,20.06941415551296 L-208.52914557448025,20.144098867356604 M-208.52914557448025,20.144098867356604 L-208.50182195413447,20.224671930704744 M-208.50182195413447,20.224671930704744 L-208.509608323237,20.306452798700207 M-208.509608323237,20.306452798700207 L-208.55206142880616,20.38468802946028 M-208.55206142880616,20.38468802946028 L-208.62672221439527,20.454827776370962 M-208.62672221439527,20.454827776370962 L-208.72925638065965,20.512790843077596 M-208.72925638065965,20.512790843077596 L-208.8537049583191,20.55520305057553 M-208.8537049583191,20.55520305057553 L-208.99283084787157,20.57959473188589 M-208.99283084787157,20.57959473188589 L-209.13854056437276,20.58454523268091 M-209.13854056437276,20.58454523268091 L-209.28235630369636,20.569765915643927 M-209.28235630369636,20.569765915643927 L-209.41591101682934,20.536118148996763 M-209.41591101682934,20.536118148996763 L-209.531436626026,20.48556137084779 M-209.531436626026,20.48556137084779 L-209.62221573635452,20.42103879603843 M-209.62221573635452,20.42103879603843 L-209.68297607318868,20.34630582106837 M-209.68297607318868,20.34630582106837 L-209.7101925806951,20.265710028360502 M-209.7101925806951,20.265710028360502 L-209.70229236656314,20.183936871833794 M-209.70229236656314,20.183936871833794 L-209.659744454441,20.105738199665097 M-209.659744454441,20.105738199665097 L-209.5850297019839,20.035655437577475 M-209.5850297019839,20.035655437577475 L-209.48249477184822,19.977756727389817 M-209.48249477184822,19.977756727389817 L-209.35809880831448,19.935401504712218 M-209.35809880831448,19.935401504712218 L-209.21906685747558,19.91104638203325 M-209.21906685747558,19.91104638203325 L-209.07347080187424,19.906103684380014 M-209.07347080187424,19.906103684380014 L-208.9297627171436,19.920860088357017 M-208.9297627171436,19.920860088357017 L-208.79628445251456,19.95445977518193 M-208.79628445251456,19.95445977518193 L-208.68078719234313,20.00495397552129 M1029.3428135476956,709.1081857910841 L1028.8390717340287,709.5531872843095 M1028.8390717340287,709.5531872843095 L1029.17023189504,709.7627069503152 M1029.17023189504,709.7627069503152 L1029.4740232938473,710.0055311028442 M1029.4740232938473,710.0055311028442 L1029.732807268133,710.2675818909935 M1029.732807268133,710.2675818909935 L1029.9313992590185,710.5335731011018 M1029.9313992590185,710.5335731011018 L1030.0582418019076,710.7880524430633 M1030.0582418019076,710.7880524430633 L1030.1060125855251,711.0162626477348 M1030.1060125855251,711.0162626477348 L1030.071807967841,711.2048624972759 M1030.071807967841,711.2048624972759 L1029.9575897750808,711.3428587081597 M1029.9575897750808,711.3428587081597 L1029.7700772388225,711.4222527374353 M1029.7700772388225,711.4222527374353 L1029.5200889783746,711.4383618153591 M1029.5200889783746,711.4383618153591 L1029.2221633339366,711.3902350134375 M1029.2221633339366,711.3902350134375 L1028.8937779225555,711.2807511039058 M1028.8937779225555,711.2807511039058 L1028.5540397754828,711.1162868341856 M1028.5540397754828,711.1162868341856 L1028.2225366921764,710.9063243498846 M1028.2225366921764,710.9063243498846 L1027.9187649599928,710.6632176615973 M1027.9187649599928,710.6632176615973 L1027.6602218741416,710.4010330012289 M1027.6602218741416,710.4010330012289 L1027.4620367830862,710.1350872977727 M1027.4620367830862,710.1350872977727 L1027.3356738938332,709.8808223732971 M1027.3356738938332,709.8808223732971 L1027.2883457681125,709.6529464322758 M1027.2883457681125,709.6529464322758 L1027.3228545090126,709.4647240625364 M1027.3228545090126,709.4647240625364 L1027.4371685997376,709.3270620472684 M1027.4371685997376,709.3270620472684 L1027.6245470257925,709.2478824915739 M1027.6245470257925,709.2478824915739 L1027.874201703247,709.2318189086028 M1027.874201703247,709.2318189086028 L1028.1716706935058,709.2798117729263 M1028.1716706935058,709.2798117729263 L1028.4995812035809,709.3890131776378 M1028.4995812035809,709.3890131776378 L1028.8390717340287,709.5531872843095" stroke="black"  stroke-width="4"  fill="red"/>
<path d="M1026.8774371233837,732.927697839077 L1014.8122581283014,799.627947210331 M1026.8774371233837,732.927697839077 L1016.1515729566404,726.8567120847282 M1003.6815918796883,793.0317960865826 L1016.1515729566404,726.8567120847282 M1014.8122581283014,799.627947210331 L1003.6815918796883,793.0317960865826 M1031.6594864605636,728.7863205955849 L1026.8774371233837,732.927697839077 M1043.3165638712544,705.3164063467854 L1043.4115602772372,706.1845577687046 M1043.4115602772372,706.1845577687046 L1043.4066193926408,707.1676575336636 M1043.4066193926408,707.1676575336636 L1043.3015238876915,708.2556366640948 M1043.3015238876915,708.2556366640948 L1043.0971370919526,709.4372451525991 M1043.0971370919526,709.4372451525991 L1042.795398495889,710.7001655629884 M1042.795398495889,710.7001655629884 L1042.3993144115755,712.0311446158561 M1042.3993144115755,712.0311446158561 L1041.912934890047,713.4161336983487 M1041.912934890047,713.4161336983487 L1041.341311798834,714.8404461794486 M1041.341311798834,714.8404461794486 L1040.6904415206695,716.2889293341656 M1040.6904415206695,716.2889293341656 L1039.9672053111879,717.7461328539965 M1039.9672053111879,717.7461328539965 L1039.1792995897952,719.1964798949112 M1039.1792995897952,719.1964798949112 L1038.335128232306,720.6244674869544 M1038.335128232306,720.6244674869544 L1037.443718062331,722.0148343869054 M1037.443718062331,722.0148343869054 L1036.514619284776,723.3527357330992 M1036.514619284776,723.3527357330992 L1035.5577775034835,724.6239275640322 M1035.5577775034835,724.6239275640322 L1034.5834281348143,725.8149217701381 M1034.5834281348143,725.8149217701381 L1033.6019774328206,726.913138320475 M1033.6019774328206,726.913138320475 L1032.6238708003095,727.9070549462443 M1032.6238708003095,727.9070549462443 L1031.6594864605636,728.7863205955849 M1043.2761203059144,705.1026341289254 L1043.2456272228942,705.1443321145931 M1043.2456272228942,705.1443321145931 L1043.2180797661244,705.189818361078 M1043.2180797661244,705.189818361078 L1043.1950846445668,705.2364449252694 M1043.1950846445668,705.2364449252694 L1043.1779686628197,705.2815105158251 M1043.1779686628197,705.2815105158251 L1043.1677289352715,705.3223944496771 M1043.1677289352715,705.3223944496771 L1043.164964807679,705.356718835085 M1043.164964807679,705.356718835085 L1043.1698369280632,705.3824880032699 M1043.1698369280632,705.3824880032699 L1043.1820596650837,705.3982079391245 M1043.1820596650837,705.3982079391245 L1043.200924272819,705.4029625923753 M1043.200924272819,705.4029625923753 L1043.2253348675602,705.396473982942 M1043.2253348675602,705.396473982942 L1043.2538756714193,705.3791166763352 M1043.2538756714193,705.3791166763352 L1043.2848874762549,705.3518987911356 M1043.2848874762549,705.3518987911356 L1043.3165638712544,705.3164063467854 M1054.7898746383494,681.8430153696125 L1053.8188870732004,682.7539474501244 M1053.8188870732004,682.7539474501244 L1052.8394811018031,683.770761505611 M1052.8394811018031,683.770761505611 L1051.8614725243779,684.8830796341778 M1051.8614725243779,684.8830796341778 L1050.8946446258904,686.0796222240386 M1050.8946446258904,686.0796222240386 L1049.9486247499667,687.3483416007256 M1049.9486247499667,687.3483416007256 L1049.032833952489,688.6765017059007 M1049.032833952489,688.6765017059007 L1048.1563668236695,690.0508344771325 M1048.1563668236695,690.0508344771325 L1047.3279457372846,691.457627173371 M1047.3279457372846,691.457627173371 L1046.5558104799106,692.882870048489 M1046.5558104799106,692.882870048489 L1045.8476686556228,694.3123696731828 M1045.8476686556228,694.3123696731828 L1045.210618835732,695.7318742615824 M1045.210618835732,695.7318742615824 L1044.6510786214358,697.1272150651804 M1044.6510786214358,697.1272150651804 L1044.1747229226642,698.4844316847767 M1044.1747229226642,698.4844316847767 L1043.7864488460593,699.789881541359 M1043.7864488460593,699.789881541359 L1043.4902966739648,701.0303963587968 M1043.4902966739648,701.0303963587968 L1043.2894266532605,702.1933883215885 M1043.2894266532605,702.1933883215885 L1043.186080945459,703.2669708373406 M1043.186080945459,703.2669708373406 L1043.1815411820703,704.2400922880746 M1043.1815411820703,704.2400922880746 L1043.2761203059144,705.1026341289254 M1039.2802030342314,773.8302860561461 L1054.7898746383494,681.8430153696125 M1027.5341979651039,783.5206503505079 L1039.2802030342314,773.8302860561461 M1026.3769060553198,790.139788261322 L1027.5341979651039,783.5206503505079 M1014.8122581283014,799.627947210331 L1026.3769060553198,790.139788261322 M1031.6594864605636,728.7863205955849 L1020.8740796169864,722.7081873929448 M1020.8740796169864,722.7081873929448 L1016.1515729566404,726.8567120847282 M1003.6815918796883,793.0317960865826 L1015.0953643963437,783.5206345096302 M1016.2936321038521,776.9550759133875 L1015.0953643963437,783.5206345096302 M1016.2936321038521,776.9550759133875 L1027.8861905991184,767.2427000886038 M1043.9835762693983,675.9842133383239 L1027.8861905991184,767.2427000886038 M1043.9835762693983,675.9842133383239 L1043.0240359507407,676.8958173111376 M1043.0240359507407,676.8958173111376 L1042.0551919523305,677.9124052681135 M1042.0551919523305,677.9124052681135 L1041.0867570397963,679.0236030062869 M1041.0867570397963,679.0236030062869 L1040.1284213337326,680.21814289468 M1040.1284213337326,680.21814289468 L1039.1897301051965,681.4839974761957 M1039.1897301051965,681.4839974761957 L1038.2800336403036,682.8084589296021 M1038.2800336403036,682.8084589296021 L1037.4083679818802,684.1782951915108 M1037.4083679818802,684.1782951915108 L1036.5834092151554,685.5798369745802 M1036.5834092151554,685.5798369745802 L1035.813363899107,686.9991251909336 M1035.813363899107,686.9991251909336 L1035.1059193371025,688.4220237743731 M1035.1059193371025,688.4220237743731 L1034.4681670552766,689.8343446547243 M1034.4681670552766,689.8343446547243 L1033.906530938299,691.2219886020977 M1033.906530938299,691.2219886020977 L1033.4267055359294,692.571070037217 M1033.4267055359294,692.571070037217 L1033.0336205859503,693.8680258879325 M1033.0336205859503,693.8680258879325 L1032.7313620979721,695.0997714248671 M1032.7313620979721,695.0997714248671 L1032.523148582652,696.2538056982422 M1032.523148582652,696.2538056982422 L1032.4112926214723,697.3183315684865 M1032.4112926214723,697.3183315684865 L1032.3971580163216,698.2823886290331 M1032.3971580163216,698.2823886290331 L1032.4811508665603,699.1359504654782 M1032.5186116194297,699.3473339837384 L1032.4872506084034,699.3827958669873 M1032.4872506084034,699.3827958669873 L1032.4566225526255,699.4100544011332 M1032.4566225526255,699.4100544011332 L1032.4285115142493,699.4275212039141 M1032.4285115142493,699.4275212039141 L1032.4045517075472,699.4341817797882 M1032.4045517075472,699.4341817797882 L1032.38613274896,699.4296515689592 M1032.38613274896,699.4296515689592 L1032.3743246181627,699.414195492193 M1032.3743246181627,699.414195492193 L1032.3698119777064,699.3887142535383 M1032.3698119777064,699.3887142535383 L1032.372859553524,699.3546851423552 M1032.372859553524,699.3546851423552 L1032.3832902183433,699.3140866587938 M1032.3832902183433,699.3140866587938 L1032.400493601924,699.2692801300033 M1032.400493601924,699.2692801300033 L1032.4234675442412,699.2228711942342 M1032.4234675442412,699.2228711942342 L1032.4508863517465,699.1775484873398 M1032.4508863517465,699.1775484873398 L1032.4811508665603,699.1359504654782 M1020.8740796169864,722.7081873929448 L1021.8268764906506,721.8279125436644 M1021.8268764906506,721.8279125436644 L1022.7942388716942,720.8339442314872 M1022.7942388716942,720.8339442314872 L1023.7659053824707,719.7366357075053 M1023.7659053824707,719.7366357075053 L1024.731537461566,718.5475005791787 M1024.731537461566,718.5475005791787 L1025.6808245210038,717.2790994300218 M1025.6808245210038,717.2790994300218 L1026.6036142823928,715.944890328234 M1026.6036142823928,715.944890328234 L1027.4900306882437,714.5590769569577 M1027.4900306882437,714.5590769569577 L1028.3305787336183,713.1364541890872 M1028.3305787336183,713.1364541890872 L1029.1162715171445,711.6922241702517 M1029.1162715171445,711.6922241702517 L1029.8387293830604,710.2418224531797 M1029.8387293830604,710.2418224531797 L1030.4902642637762,708.8007510171036 M1030.4902642637762,708.8007510171036 L1031.0639870654566,707.3843788124628 M1031.0639870654566,707.3843788124628 L1031.5538775779885,706.0077717485259 M1031.5538775779885,706.0077717485259 L1031.9548445190574,704.6855252801371 M1031.9548445190574,704.6855252801371 L1032.2627833347467,703.4315936206473 M1032.2627833347467,703.4315936206473 L1032.4746188148652,702.2591335559324 M1032.4746188148652,702.2591335559324 L1032.5883291124937,701.180365066387 M1032.5883291124937,701.180365066387 L1032.602956233653,700.2064408995967 M1032.602956233653,700.2064408995967 L1032.5186116194297,699.3473339837384 M1015.0953643963437,783.5206345096302 L1026.3769060553198,790.139788261322 M1043.3165638712544,705.3164063467854 L1032.5186116194297,699.3473339837384 M1043.2761203059144,705.1026341289254 L1032.4811508665603,699.1359504654782 M1054.7898746383494,681.8430153696125 L1043.9835762693983,675.9842133383239 M1039.2802030342314,773.8302860561461 L1027.8861905991184,767.2427000886038 M1027.5341979651039,783.5206503505079 L1016.2936321038521,776.9550759133875" stroke="black"  stroke-width="4"  fill="red"/>
<path d="M1024.4746708748748,713.8004299006556 L1028.7536225348979,710.0217859824362 M1028.7536225348979,710.0217859824362 L1028.8861114396066,710.105637065512 M1028.8861114396066,710.105637065512 L1029.007598185798,710.202785827291 M1029.007598185798,710.202785827291 L1029.1111103084495,710.3076372288921 M1029.1111103084495,710.3076372288921 L1029.1905256173975,710.4140437588134 M1029.1905256173975,710.4140437588134 L1029.2410955387836,710.5157484470877 M1029.2410955387836,710.5157484470877 L1029.2602327622938,710.6070386705074 M1029.2602327622938,710.6070386705074 L1029.2465143681789,710.6824332670843 M1029.2465143681789,710.6824332670843 L1029.2007332875137,710.7375462579397 M1029.2007332875137,710.7375462579397 L1029.1258539791281,710.7693389495329 M1029.1258539791281,710.7693389495329 L1029.0258713055525,710.7757620788226 M1029.0258713055525,710.7757620788226 L1028.906728556342,710.7565119419118 M1028.906728556342,710.7565119419118 L1028.7754587365548,710.7127680736304 M1028.7754587365548,710.7127680736304 L1028.639609775859,710.6470256686893 M1028.639609775859,710.6470256686893 L1028.5069510010285,710.5630396101179 M1028.5069510010285,710.5630396101179 L1028.3854674088668,710.4658456532133 M1028.3854674088668,710.4658456532133 L1028.2819938383082,710.3609728330249 M1028.2819938383082,710.3609728330249 L1028.202780522389,710.2546499088629 M1028.202780522389,710.2546499088629 L1028.1521504199047,710.152903193282 M1028.1521504199047,710.152903193282 L1028.1330840787873,710.0616664791072 M1028.1330840787873,710.0616664791072 L1028.1468511361736,709.9863322837288 M1028.1468511361736,709.9863322837288 L1028.192647489761,709.9312727202201 M1028.192647489761,709.9312727202201 L1028.2676422764364,709.8995906911986 M1028.2676422764364,709.8995906911986 L1028.367434710126,709.8930985442477 M1028.367434710126,709.8930985442477 L1028.4865043709879,709.9123272331016 M1028.4865043709879,709.9123272331016 L1028.6176982194306,709.9560259151352 M1028.6176982194306,709.9560259151352 L1028.7536225348979,710.0217859824362 M1024.4746708748748,713.8004299006556 L1024.3393936222308,713.734735386476 M1024.3393936222308,713.734735386476 L1024.2087698484877,713.6910802550273 M1024.2087698484877,713.6910802550273 L1024.0901613175693,713.6718707270194 M1024.0901613175693,713.6718707270194 L1023.9906931248674,713.678356404912 M1023.9906931248674,713.678356404912 L1023.9158682420339,713.7100068619035 M1023.9158682420339,713.7100068619035 L1023.8700773624803,713.7650115464509 M1023.8700773624803,713.7650115464509 L1023.8561501793426,713.8402706330158 M1023.8561501793426,713.8402706330158 L1023.8749000562918,713.9314163498244 M1023.8749000562918,713.9314163498244 L1023.9250765294273,714.0330615421846 M1023.9250765294273,714.0330615421846 L1024.0037255792865,714.1392783280431 M1024.0037255792865,714.1392783280431 L1024.1065556382841,714.2440464085315 M1024.1065556382841,714.2440464085315 L1024.227355041068,714.3411432514175 M1024.227355041068,714.3411432514175 L1024.3593276084337,714.425045359353 M1024.3593276084337,714.425045359353 L1024.49452960357,714.4907220278482 M1024.49452960357,714.4907220278482 L1024.6252287045265,714.5344221456343 M1024.6252287045265,714.5344221456343 L1024.7439097645354,714.5536530268101 M1024.7439097645354,714.5536530268101 L1024.8435671723726,714.5472363226999 M1024.8435671723726,714.5472363226999 L1024.9182772040715,714.5154754312588 M1024.9182772040715,714.5154754312588 L1024.9640530618676,714.4604175557348 M1024.9640530618676,714.4604175557348 L1024.977932080646,714.385098335195 M1024.977932080646,714.385098335195 L1024.9591119534305,714.2938993458741 M1024.9591119534305,714.2938993458741 L1024.9089956011637,714.1922962563511 M1024.9089956011637,714.1922962563511 L1024.8301457035225,714.0859959731521 M1024.8301457035225,714.0859959731521 L1024.7272772976135,713.9812492164918 M1024.7272772976135,713.9812492164918 L1024.6064746383843,713.8841973687819 M1024.6064746383843,713.8841973687819 L1024.4746708748748,713.8004299006556 M1028.8390717340287,709.5531872843095 L1029.17023189504,709.7627069503152 M1029.17023189504,709.7627069503152 L1029.4740232938473,710.0055311028442 M1029.4740232938473,710.0055311028442 L1029.732807268133,710.2675818909935 M1029.732807268133,710.2675818909935 L1029.9313992590185,710.5335731011018 M1029.9313992590185,710.5335731011018 L1030.0582418019076,710.7880524430633 M1030.0582418019076,710.7880524430633 L1030.1060125855251,711.0162626477348 M1030.1060125855251,711.0162626477348 L1030.071807967841,711.2048624972759 M1030.071807967841,711.2048624972759 L1029.9575897750808,711.3428587081597 M1029.9575897750808,711.3428587081597 L1029.7700772388225,711.4222527374353 M1029.7700772388225,711.4222527374353 L1029.5200889783746,711.4383618153591 M1029.5200889783746,711.4383618153591 L1029.2221633339366,711.3902350134375 M1029.2221633339366,711.3902350134375 L1028.8937779225555,711.2807511039058 M1028.8937779225555,711.2807511039058 L1028.5540397754828,711.1162868341856 M1028.5540397754828,711.1162868341856 L1028.2225366921764,710.9063243498846 M1028.2225366921764,710.9063243498846 L1027.9187649599928,710.6632176615973 M1027.9187649599928,710.6632176615973 L1027.6602218741416,710.4010330012289 M1027.6602218741416,710.4010330012289 L1027.4620367830862,710.1350872977727 M1027.4620367830862,710.1350872977727 L1027.3356738938332,709.8808223732971 M1027.3356738938332,709.8808223732971 L1027.2883457681125,709.6529464322758 M1027.2883457681125,709.6529464322758 L1027.3228545090126,709.4647240625364 M1027.3228545090126,709.4647240625364 L1027.4371685997376,709.3270620472684 M1027.4371685997376,709.3270620472684 L1027.6245470257925,709.2478824915739 M1027.6245470257925,709.2478824915739 L1027.874201703247,709.2318189086028 M1027.874201703247,709.2318189086028 L1028.1716706935058,709.2798117729263 M1028.1716706935058,709.2798117729263 L1028.4995812035809,709.3890131776378 M1028.4995812035809,709.3890131776378 L1028.8390717340287,709.5531872843095 M1029.3428135476956,709.1081857910841 L1029.674175578668,709.3177297841984 M1029.674175578668,709.3177297841984 L1029.9781686807341,709.560582159421 M1029.9781686807341,709.560582159421 L1030.2371424865353,709.8226634394083 M1030.2371424865353,709.8226634394083 L1030.4359013195763,710.088685636474 M1030.4359013195763,710.088685636474 L1030.562878000498,710.3431946588354 M1030.562878000498,710.3431946588354 L1030.6107424362356,710.5714315088068 M1030.6107424362356,710.5714315088068 L1030.5765854497117,710.7600533993276 M1030.5765854497117,710.7600533993276 L1030.4623660673449,710.898065749078 M1030.4623660673449,710.898065749078 L1030.2748036262954,710.9774690681053 M1030.2748036262954,710.9774690681053 L1030.0247195965226,710.9935800313243 M1030.0247195965226,710.9935800313243 L1029.7266578947542,710.9454475973758 M1029.7266578947542,710.9454475973758 L1029.3981041536056,710.8359508800164 M1029.3981041536056,710.8359508800164 L1029.0581752170724,710.6714673824114 M1029.0581752170724,710.6714673824114 L1028.7264698979413,710.4614803714231 M1028.7264698979413,710.4614803714231 L1028.4224963863944,710.2183453134368 M1028.4224963863944,710.2183453134368 L1028.1637636200205,709.9561300915758 M1028.1637636200205,709.9561300915758 L1027.965412030302,709.6901534248394 M1027.965412030302,709.6901534248394 L1027.8389154602735,709.4358589315272 M1027.8389154602735,709.4358589315272 L1027.791494148826,709.2079565191256 M1027.791494148826,709.2079565191256 L1027.825955627128,709.0197123048118 M1027.825955627128,709.0197123048118 L1027.9402710937322,708.8820343245617 M1027.9402710937322,708.8820343245617 L1028.1276993860804,708.8028455907073 M1028.1276993860804,708.8028455907073 L1028.3774495782175,708.7867801461126 M1028.3774495782175,708.7867801461126 L1028.6750542133318,708.8347785727741 M1028.6750542133318,708.8347785727741 L1029.0031325775878,708.9439926383242 M1029.0031325775878,708.9439926383242 L1029.3428135476956,709.1081857910841 M1029.3428135476956,709.1081857910841 L1028.8390717340287,709.5531872843095" stroke="black"  stroke-width="4"  fill="red"/>
<path d="M-216.022422692384,29.429385188457786 L-251.15673310431396,49.40126736622693 M-216.022422692384,29.429385188457786 L-219.3007132197315,27.57382793164919 M-254.4334572382288,47.4594458170605 L-219.3007132197315,27.57382793164919 M-251.15673310431396,49.40126736622693 L-254.4334572382288,47.4594458170605 M-251.15673310431396,49.40126736622693 L-251.31785931181685,40.48532122594884 M-251.31785931181685,40.48532122594884 L-247.88423368129577,38.55329240675849 M-247.88423368129577,38.55329240675849 L-248.0292216820901,29.556787107451328 M-248.0292216820901,29.556787107451328 L-198.84247444476568,2.166820753273953 M-198.84247444476568,2.166820753273953 L-198.8830021572105,2.939968617358545 M-198.8830021572105,2.939968617358545 L-198.9870445718002,3.7402436570146165 M-198.9870445718002,3.7402436570146165 L-199.15347927551943,4.559512696124727 M-199.15347927551943,4.559512696124727 L-199.38056655338823,5.3894574867524625 M-199.38056655338823,5.3894574867524625 L-199.66596495309182,6.221681380637165 M-199.66596495309182,6.221681380637165 L-200.00675409434155,7.047761363406664 M-200.00675409434155,7.047761363406664 L-200.399468525541,7.859358527941652 M-200.399468525541,7.859358527941652 L-200.84012981934097,8.648269520729173 M-200.84012981934097,8.648269520729173 L-201.32428202742938,9.406529541813995 M-201.32428202742938,9.406529541813995 L-201.84703988329306,10.126471130785376 M-201.84703988329306,10.126471130785376 L-202.4031300113187,10.800801530507783 M-202.4031300113187,10.800801530507783 L-202.98694569616362,11.422679627870991 M-202.98694569616362,11.422679627870991 L-203.59259732488113,11.985782572366134 M-203.59259732488113,11.985782572366134 L-204.21396766327894,12.48435194387963 M-204.21396766327894,12.48435194387963 L-204.84477270573018,12.913275089028332 M-204.84477270573018,12.913275089028332 L-205.47862117218028,13.268121037045148 M-205.47862117218028,13.268121037045148 L-206.10907466521132,13.545187207434424 M-206.10907466521132,13.545187207434424 L-206.7297131377543,13.741550193511614 M-206.7297131377543,13.741550193511614 L-207.3341958997321,13.855087300374805 M-207.3341958997321,13.855087300374805 L-207.34392467752616,13.882045065350894 M-207.34392467752616,13.882045065350894 L-207.35771297493056,13.907951997018642 M-207.35771297493056,13.907951997018642 L-207.37475967569912,13.93129778532483 M-207.37475967569912,13.93129778532483 L-207.394073974894,13.950732988909579 M-207.394073974894,13.950732988909579 L-207.4145334563085,13.96512620286751 M-207.4145334563085,13.96512620286751 L-207.43495006498483,13.973638002829034 M-207.43495006498483,13.973638002829034 L-207.4541366007395,13.975773702152765 M-207.4541366007395,13.975773702152765 L-207.47097892129716,13.971411674603985 M-207.47097892129716,13.971411674603985 L-207.48449761643315,13.960804254205073 M-207.48449761643315,13.960804254205073 L-207.49390640267382,13.944567559582026 M-207.49390640267382,13.944567559582026 L-207.49865867849894,13.92364311643098 M-207.49865867849894,13.92364311643098 L-207.49847778478147,13.89924721278868 M-207.49847778478147,13.89924721278868 L-207.49337480070153,13.8728009085944 M-207.49337480070153,13.8728009085944 L-208.10102011359209,13.987078929959296 M-208.10102011359209,13.987078929959296 L-208.72615954192895,14.185221195943939 M-208.72615954192895,14.185221195943939 L-209.36227371594464,14.465277804727236 M-209.36227371594464,14.465277804727236 L-210.00271063625974,14.824424780873983 M-210.00271063625974,14.824424780873983 L-210.6407531829209,15.2589929087261 M-210.6407531829209,15.2589929087261 L-211.269694523741,15.764501888458028 M-211.269694523741,15.764501888458028 L-211.88291084963453,16.33570334527184 M-211.88291084963453,16.33570334527184 L-212.47393383571966,16.96663730826532 M-212.47393383571966,16.96663730826532 L-213.0365235480224,17.650699605525233 M-213.0365235480224,17.650699605525233 L-213.5647377328728,18.38070869923456 M-213.5647377328728,18.38070869923456 L-214.05299724863994,19.14897799189663 M-214.05299724863994,19.14897799189663 L-214.49614956787957,19.94741620371758 M-214.49614956787957,19.94741620371758 L-214.88952486578376,20.767606343139448 M-214.88952486578376,20.767606343139448 L-215.22898885199493,21.600894730222024 M-215.22898885199493,21.600894730222024 L-215.51098712991234,22.438499207383074 M-215.51098712991234,22.438499207383074 L-215.73258405085426,23.271597873906217 M-215.73258405085426,23.271597873906217 L-215.89149353200605,24.091425900541708 M-215.89149353200605,24.091425900541708 L-215.98610235130855,24.889380362538304 M-215.98610235130855,24.889380362538304 L-216.0154853835336,25.657103269430877 M-216.0154853835336,25.657103269430877 L-216.022422692384,29.429385188457786 M-216.0154853835336,25.657103269430877 L-219.30071285714416,23.80570809489751 M-219.30071285714416,23.80570809489751 L-219.3007132197315,27.57382793164919 M-219.30071285714416,23.80570809489751 L-219.27271236302806,23.0388866316012 M-219.27271236302806,23.0388866316012 L-219.17947362445238,22.241985425121413 M-219.17947362445238,22.241985425121413 L-219.02190746604788,21.423351364257655 M-219.02190746604788,21.423351364257655 L-218.8016130289077,20.59157470429659 M-218.8016130289077,20.59157470429659 L-218.52086266751178,19.75540616900878 M-218.52086266751178,19.75540616900878 L-218.18257882223884,18.923652290332086 M-218.18257882223884,18.923652290332086 L-217.79030334894685,18.105078772739148 M-217.79030334894685,18.105078772739148 L-217.3481587917462,17.30832194398141 M-217.3481587917462,17.30832194398141 L-216.86080418327344,16.541780761324276 M-216.86080418327344,16.541780761324276 L-216.33338233047652,15.813527998298241 M-216.33338233047652,15.813527998298241 L-215.7714638236297,15.131231477508209 M-215.7714638236297,15.131231477508209 L-215.18098366470917,14.502053931709042 M-215.18098366470917,14.502053931709042 L-214.56817591320794,13.932580905507905 M-214.56817591320794,13.932580905507905 L-213.93950446035478,13.428754125840669 M-213.93950446035478,13.428754125840669 L-213.3015901828869,12.995804316109286 M-213.3015901828869,12.995804316109286 L-212.6611385218148,12.638194909962124 M-212.6611385218148,12.638194909962124 L-212.02486676032595,12.359579216572854 M-212.02486676032595,12.359579216572854 L-211.39942860754627,12.1627664304537 M-211.39942860754627,12.1627664304537 L-210.79134667785002,12.04969294081593 M-210.79134667785002,12.04969294081593 L-210.79640615644917,12.076100710653236 M-210.79640615644917,12.076100710653236 L-210.79654208441616,12.100469091547609 M-210.79654208441616,12.100469091547609 L-210.7917460008273,12.12137862798312 M-210.7917460008273,12.12137862798312 L-210.78229711113386,12.137613897562062 M-210.78229711113386,12.137613897562062 L-210.7687443428481,12.148233454981892 M-210.7687443428481,12.148233454981892 L-210.75187595920897,12.152620474066623 M-210.75187595920897,12.152620474066623 L-210.73267288335296,12.15052116523816 M-210.73267288335296,12.15052116523816 L-210.7122502224803,12.14205504355624 M-210.7122502224803,12.14205504355624 L-210.69179552949504,12.12771413939089 M-210.69179552949504,12.12771413939089 L-210.67249657508387,12.108334835424785 M-210.67249657508387,12.108334835424785 L-210.65547488067887,12.085045286156117 M-210.65547488067887,12.085045286156117 L-210.64171981217385,12.059191673099008 M-210.64171981217385,12.059191673099008 L-210.63203054613007,12.032281203520142 M-202.15284370014774,0.37205278966911237 L-202.19197640353389,1.1442605022935481 M-202.19197640353389,1.1442605022935481 L-202.2946426861696,1.9434550346139758 M-202.2946426861696,1.9434550346139758 L-202.4597341584099,2.7615141095386093 M-202.4597341584099,2.7615141095386093 L-202.68552475215154,3.590131609816808 M-202.68552475215154,3.590131609816808 L-202.96968610087708,4.420924114971626 M-202.96968610087708,4.420924114971626 L-203.3093102764301,5.245482851299926 M-203.3093102764301,5.245482851299926 L-203.70094347884356,6.0554839975143295 M-203.70094347884356,6.0554839975143295 L-204.14061807530175,6.842740033053644 M-204.14061807530175,6.842740033053644 L-204.62388790829164,7.59930257657345 M-204.62388790829164,7.59930257657345 L-205.14587644977644,8.31752103671397 M-205.14587644977644,8.31752103671397 L-205.70131792112556,8.990119830967217 M-205.70131792112556,8.990119830967217 L-206.2846119900796,9.610275156362718 M-206.2846119900796,9.610275156362718 L-206.889874155715,10.171681454805253 M-206.889874155715,10.171681454805253 L-207.5109910111405,10.668597439137102 M-207.5109910111405,10.668597439137102 L-208.1416810202095,11.095927235797546 M-208.1416810202095,11.095927235797546 L-208.77555402357132,11.44925615671849 M-208.77555402357132,11.44925615671849 L-209.40617138430957,11.724897246584362 M-209.40617138430957,11.724897246584362 L-210.02711144082855,11.919941888834899 M-210.02711144082855,11.919941888834899 L-210.63203054613007,12.032281203520142 M-202.15284370014774,0.37205278966911237 L-251.3387858443566,27.643322596315443 M-251.17744946874427,36.62973680850098 L-251.3387858443566,27.643322596315443 M-251.17744946874427,36.62973680850098 L-254.61076654326348,38.55329279279039 M-254.4334572382288,47.4594458170605 L-254.61076654326348,38.55329279279039 M-254.61076654326348,38.55329279279039 L-251.31785931181685,40.48532122594884 M-207.49337480070153,13.8728009085944 L-210.79134667785002,12.04969294081593 M-207.3341958997321,13.855087300374805 L-210.63203054613007,12.032281203520142 M-198.84247444476568,2.166820753273953 L-202.15284370014774,0.37205278966911237 M-248.0292216820901,29.556787107451328 L-251.3387858443566,27.643322596315443 M-247.88423368129577,38.55329240675849 L-251.17744946874427,36.62973680850098" stroke="black"  stroke-width="4"  fill="red"/>
<path d="M-208.95561893727904,23.561376729472784 L-208.93588207958112,20.149079727519677 M-208.93588207958112,20.149079727519677 L-208.89956246720453,20.17487109241705 M-208.89956246720453,20.17487109241705 L-208.87523748887168,20.20475092069472 M-208.87523748887168,20.20475092069472 L-208.86432077508664,20.2369827924216 M-208.86432077508664,20.2369827924216 L-208.86744902599492,20.269694336967063 M-208.86744902599492,20.269694336967063 L-208.88444158488323,20.30098393109148 M-208.88444158488323,20.30098393109148 L-208.91431267229075,20.32903311707247 M-208.91431267229075,20.32903311707247 L-208.95532643315119,20.352210616446087 M-208.95532643315119,20.352210616446087 L-209.00509977600154,20.369168821481765 M-209.00509977600154,20.369168821481765 L-209.06073865831831,20.37892106683819 M-209.06073865831831,20.37892106683819 L-209.11900911678538,20.38090035384846 M-209.11900911678538,20.38090035384846 L-209.17652234423576,20.374991312811915 M-209.17652234423576,20.374991312811915 L-209.22993532500436,20.361538119444845 M-209.22993532500436,20.361538119444845 L-209.27614183068295,20.34132267301078 M-209.27614183068295,20.34132267301078 L-209.3124570066018,20.315521402020238 M-209.3124570066018,20.315521402020238 L-209.3367699097132,20.285633866250123 M-209.3367699097132,20.285633866250123 L-209.3476695117895,20.25339834314923 M-209.3476695117895,20.25339834314923 L-209.34452303243938,20.22068803976208 M-209.34452303243938,20.22068803976208 L-209.32751530453584,20.18940429497826 M-209.32751530453584,20.18940429497826 L-209.29763558240347,20.161364226599233 M-209.29763558240347,20.161364226599233 L-209.2566216993248,20.13819702426531 M-209.2566216993248,20.13819702426531 L-209.20685677476035,20.121247936892928 M-209.20685677476035,20.121247936892928 L-209.15123292260432,20.111501540900008 M-209.15123292260432,20.111501540900008 L-209.092980663116,20.109523495077042 M-209.092980663116,20.109523495077042 L-209.03548463405377,20.115428884643734 M-209.03548463405377,20.115428884643734 L-208.9820839114691,20.128874370649328 M-208.9820839114691,20.128874370649328 L-208.93588207958112,20.149079727519677 M-208.95561893727904,23.561376729472784 L-209.0017323310575,23.54112972023694 M-209.0017323310575,23.54112972023694 L-209.05503106586798,23.527656516007255 M-209.05503106586798,23.527656516007255 L-209.11241748287603,23.521738952070223 M-209.11241748287603,23.521738952070223 L-209.1705588689549,23.52372107578924 M-209.1705588689549,23.52372107578924 L-209.22607702547725,23.5334875644848 M-209.22607702547725,23.5334875644848 L-209.27574756833837,23.550471592277688 M-209.27574756833837,23.550471592277688 L-209.31668386732645,23.573686551566084 M-209.31668386732645,23.573686551566084 L-209.34650731105796,23.601784418653267 M-209.34650731105796,23.601784418653267 L-209.36348334089394,23.633132644179227 M-209.36348334089394,23.633132644179227 L-209.36662454874659,23.665910364020533 M-209.36662454874659,23.665910364020533 L-209.35574641481094,23.69821232039459 M-209.35574641481094,23.69821232039459 L-209.33148047587997,23.7281614464124 M-209.33148047587997,23.7281614464124 L-209.29523503644043,23.75401588375547 M-209.29523503644043,23.75401588375547 L-209.24911698657047,23.77427298427034 M-209.24911698657047,23.77427298427034 L-209.19580604039413,23.787753897038044 M-209.19580604039413,23.787753897038044 L-209.1384024905226,23.793675113002223 M-209.1384024905226,23.793675113002223 L-209.08024297468728,23.791691747906555 M-209.08024297468728,23.791691747906555 L-209.02470984506476,23.781919408954536 M-209.02470984506476,23.781919408954536 L-208.97503091574526,23.764926262106485 M-208.97503091574526,23.764926262106485 L-208.93409473827842,23.74170100420639 M-208.93409473827842,23.74170100420639 L-208.90427989621003,23.71359401812532 M-208.90427989621003,23.71359401812532 L-208.8873189775369,23.682239942365868 M-208.8873189775369,23.682239942365868 L-208.88419592873583,23.649460981176787 M-208.88419592873583,23.649460981176787 L-208.89509110934955,23.617162676734154 M-208.89509110934955,23.617162676734154 L-208.91936907772742,23.587221259385387 M-208.91936907772742,23.587221259385387 L-208.95561893727904,23.561376729472784 M-208.68078719234313,20.00495397552129 L-208.58998121630339,20.06941415551296 M-208.58998121630339,20.06941415551296 L-208.52914557448025,20.144098867356604 M-208.52914557448025,20.144098867356604 L-208.50182195413447,20.224671930704744 M-208.50182195413447,20.224671930704744 L-208.509608323237,20.306452798700207 M-208.509608323237,20.306452798700207 L-208.55206142880616,20.38468802946028 M-208.55206142880616,20.38468802946028 L-208.62672221439527,20.454827776370962 M-208.62672221439527,20.454827776370962 L-208.72925638065965,20.512790843077596 M-208.72925638065965,20.512790843077596 L-208.8537049583191,20.55520305057553 M-208.8537049583191,20.55520305057553 L-208.99283084787157,20.57959473188589 M-208.99283084787157,20.57959473188589 L-209.13854056437276,20.58454523268091 M-209.13854056437276,20.58454523268091 L-209.28235630369636,20.569765915643927 M-209.28235630369636,20.569765915643927 L-209.41591101682934,20.536118148996763 M-209.41591101682934,20.536118148996763 L-209.531436626026,20.48556137084779 M-209.531436626026,20.48556137084779 L-209.62221573635452,20.42103879603843 M-209.62221573635452,20.42103879603843 L-209.68297607318868,20.34630582106837 M-209.68297607318868,20.34630582106837 L-209.7101925806951,20.265710028360502 M-209.7101925806951,20.265710028360502 L-209.70229236656314,20.183936871833794 M-209.70229236656314,20.183936871833794 L-209.659744454441,20.105738199665097 M-209.659744454441,20.105738199665097 L-209.5850297019839,20.035655437577475 M-209.5850297019839,20.035655437577475 L-209.48249477184822,19.977756727389817 M-209.48249477184822,19.977756727389817 L-209.35809880831448,19.935401504712218 M-209.35809880831448,19.935401504712218 L-209.21906685747558,19.91104638203325 M-209.21906685747558,19.91104638203325 L-209.07347080187424,19.906103684380014 M-209.07347080187424,19.906103684380014 L-208.9297627171436,19.920860088357017 M-208.9297627171436,19.920860088357017 L-208.79628445251456,19.95445977518193 M-208.79628445251456,19.95445977518193 L-208.68078719234313,20.00495397552129 M-208.67841038108998,19.60386627014526 L-208.58758390239996,19.668310762142994 M-208.58758390239996,19.668310762142994 L-208.52673443462527,19.742977300305597 M-208.52673443462527,19.742977300305597 L-208.499404471346,19.823530760368328 M-208.499404471346,19.823530760368328 L-208.507192353444,19.90529173468144 M-208.507192353444,19.90529173468144 L-208.54965474426422,19.983507937518482 M-208.54965474426422,19.983507937518482 L-208.62433205138825,20.053630628154792 M-208.62433205138825,20.053630628154792 L-208.72688901740457,20.11157960159329 M-208.72688901740457,20.11157960159329 L-208.85136534801336,20.15398149800268 M-208.85136534801336,20.15398149800268 L-208.99052232878864,20.17836724972841 M-208.99052232878864,20.17836724972841 L-209.1362646642949,20.183316547101185 M-209.1362646642949,20.183316547101185 L-209.28011265036253,20.168540822821 M-209.28011265036253,20.168540822821 L-209.41369735983233,20.13490123615395 M-209.41369735983233,20.13490123615395 L-209.52924896877823,20.0843567497796 M-209.52924896877823,20.0843567497796 L-209.62004856992962,20.019849864157436 M-209.62004856992962,20.019849864157436 L-209.68082269908655,19.94513506382799 M-209.68082269908655,19.94513506382799 L-209.70804550166054,19.86455887482714 M-209.70804550166054,19.86455887482714 L-209.7001437235166,19.782805611843116 M-209.7001437235166,19.782805611843116 L-209.6575864835936,19.70462596688617 M-209.6575864835936,19.70462596688617 L-209.58285518528476,19.63456025996419 M-209.58285518528476,19.63456025996419 L-209.48029745488384,19.576675641792633 M-209.48029745488384,19.576675641792633 L-209.35587376180877,19.534330729094904 M-209.35587376180877,19.534330729094904 L-209.2168107617142,19.509981535289455 M-209.2168107617142,19.509981535289455 L-209.0711821380005,19.505040040896404 M-209.0711821380005,19.505040040896404 L-208.9274418547559,19.519792852582725 M-208.9274418547559,19.519792852582725 L-208.7939336281869,19.553384360342477 M-208.7939336281869,19.553384360342477 L-208.67841038108998,19.60386627014526 M-208.67841038108998,19.60386627014526 L-208.68078719234313,20.00495397552129" stroke="black"  stroke-width="4"  fill="red"/>
<path d="M-251.17744946874427,36.62973680850098 L-254.61076654326348,38.55329279279039 M-254.61076654326348,38.55329279279039 L-254.78987463834937,29.55678749146233 M-251.3387858443566,27.643322596315443 L-254.78987463834937,29.55678749146233 M-251.17744946874427,36.62973680850098 L-251.3387858443566,27.643322596315443 M-251.15673310431396,49.40126736622693 L-181.75903476592487,90.52708101079344 M-181.75903476592487,90.52708101079344 L-181.67276173591995,86.57070620350424 M-181.67276173591995,86.57070620350424 L-102.9667586988437,133.0115746564511 M-103.2468428012046,137.05424045379448 L-102.9667586988437,133.0115746564511 M-103.2468428012046,137.05424045379448 L315.33452770219014,385.1100096015043 M315.33452770219014,385.1100096015043 L316.95382647640383,380.78780396924583 M316.95382647640383,380.78780396924583 L455.8898729204375,462.767709024777 M453.7144165148943,467.1154025140671 L455.8898729204375,462.767709024777 M453.7144165148943,467.1154025140671 L1003.6815918796883,793.0317960865826 M1003.6815918796883,793.0317960865826 L1015.0953643963437,783.5206345096302 M1015.0953643963437,783.5206345096302 L1026.3769060553198,790.139788261322 M1026.3769060553198,790.139788261322 L1038.160344618795,780.4721236024667 M-254.78987463834937,29.55678749146233 L1038.160344618795,780.4721236024667 M-254.61076654326348,38.55329279279039 L-251.31785931181685,40.48532122594884 M-251.15673310431396,49.40126736622693 L-251.31785931181685,40.48532122594884 M1027.5341979651039,783.5206503505079 L1016.2936321038521,776.9550759133875 M1004.9145937654621,786.488562150459 L1016.2936321038521,776.9550759133875 M1004.9145937654621,786.488562150459 L456.4682287870976,462.92162868236403 M456.4682287870976,462.92162868236403 L458.645548648205,458.57443112033764 M458.645548648205,458.57443112033764 L319.95598144440714,377.10541691515505 M318.33251950689294,381.42569633900825 L319.95598144440714,377.10541691515505 M318.33251950689294,381.42569633900825 L-99.84971501774396,134.71069940159532 M-99.84971501774396,134.71069940159532 L-99.56212637299609,130.6721243886538 M-99.56212637299609,130.6721243886538 L-178.25001965889453,84.44928856089007 M-178.3439249811522,88.40146583804943 L-178.25001965889453,84.44928856089007 M-178.3439249811522,88.40146583804943 L-247.74070180102535,47.459445429067614 M-247.74070180102535,47.459445429067614 L-247.88423368129577,38.55329240675849 M-247.88423368129577,38.55329240675849 L-251.17744946874427,36.62973680850098 M1039.2802030342314,773.8302860561461 L-251.3387858443566,27.643322596315443 M1027.5341979651039,783.5206503505079 L1039.2802030342314,773.8302860561461 M-251.15673310431396,49.40126736622693 L-247.74070180102535,47.459445429067614 M-251.31785931181685,40.48532122594884 L-247.88423368129577,38.55329240675849 M-178.3439249811522,88.40146583804943 L-181.75903476592487,90.52708101079344 M-178.25001965889453,84.44928856089007 L-181.67276173591995,86.57070620350424 M-103.2468428012046,137.05424045379448 L-99.84971501774396,134.71069940159532 M-102.9667586988437,133.0115746564511 L-99.56212637299609,130.6721243886538 M318.33251950689294,381.42569633900825 L315.33452770219014,385.1100096015043 M319.95598144440714,377.10541691515505 L316.95382647640383,380.78780396924583 M453.7144165148943,467.1154025140671 L456.4682287870976,462.92162868236403 M455.8898729204375,462.767709024777 L458.645548648205,458.57443112033764 M1004.9145937654621,786.488562150459 L1003.6815918796883,793.0317960865826 M1016.2936321038521,776.9550759133875 L1015.0953643963437,783.5206345096302 M1026.3769060553198,790.139788261322 L1027.5341979651039,783.5206503505079 M1038.160344618795,780.4721236024667 L1039.2802030342314,773.8302860561461" stroke="black"  stroke-width="4"  fill="red"/></svg>