<svg viewBox="0 0 800 800" xmlns="http://www.w3.org/2000/svg"><path d="M192.63268592529323,443.6324871237392 L6.217893074403605,505.96778208493765 M6.217894668888107,489.39741127774766 L6.217893074403605,505.96778208493765 M6.217894668888107,489.39741127774766 L6.217534650868174,489.16886300979763 M6.217534650868174,489.16886300979763 L6.217318629174088,488.9402515381088 M6.217318629174088,488.9402515381088 L6.217246618659658,488.71157687673644 M193.09290056331713,426.89306927941004 L6.217246618659658,488.71157687673644 M192.63268592529323,443.6324871237392 L193.09290056331713,426.89306927941004 M753.1252044052939,755.7262606107289 L736.7341982678228,750.2452689370671 M551.2323893345979,834.5086572045104 L736.7341982678228,750.2452689370671 M551.2323893345979,834.5086572045104 L318.28498831951686,750.245555804241 M304.9801773946085,755.7265491787506 L318.28498831951686,750.245555804241 M229.7934159846384,728.377960784319 L304.9801773946085,755.7265491787506 M243.12150933136945,723.056980941518 L229.7934159846384,728.377960784319 M243.12150933136945,723.056980941518 L-49.73234229189603,617.1241665496842 M-63.08881786871041,621.8443701429903 L-49.73234229189603,617.1241665496842 M-127.8942999229887,598.271889813093 L-63.08881786871041,621.8443701429903 M-114.54494640376834,593.6797709114574 L-127.8942999229887,598.271889813093 M-114.54494640376834,593.6797709114574 L-170.20775275243727,573.5450938335283 M18.56450801076045,510.0963690122146 L-170.20775275243727,573.5450938335283 M18.56450801076045,510.0963690122146 L6.217893074403605,505.96778208493765 M933.9492239444725,673.0119902563978 L192.63268592529323,443.6324871237392 M753.1252044052939,755.7262606107289 L933.9492239444725,673.0119902563978 M108.05195818030603,475.95658064527856 L107.87888846722456,475.9128112560719 M107.87888846722456,475.9128112560719 L107.67978837743209,475.883687602852 M107.67978837743209,475.883687602852 L107.46623773949347,475.8708963564259 M107.46623773949347,475.8708963564259 L107.25064450859594,475.87517874186403 M107.25064450859594,475.87517874186403 L107.04551099935833,475.89629344747595 M107.04551099935833,475.89629344747595 L106.86277104888302,475.93300820980005 M106.86277104888302,475.93300820980005 L106.7130466283968,475.9831897682583 M106.7130466283968,475.9831897682583 L106.6050192052225,476.0439307431277 M106.6050192052225,476.0439307431277 L106.54497478576474,476.1117014597572 M106.54497478576474,476.1117014597572 L106.53642787460365,476.1825586374579 M106.53642787460365,476.1825586374579 L106.57986021046077,476.2523914348318 M106.57986021046077,476.2523914348318 L106.67275808516996,476.31713940867735 M106.67275808516996,476.31713940867735 L106.80973958797455,476.3730334353652 M106.80973958797455,476.3730334353652 L106.9828307417095,476.4168285697782 M106.9828307417095,476.4168285697782 L107.18198525932087,476.44597191538674 M107.18198525932087,476.44597191538674 L107.39561145499619,476.4587724912468 M107.39561145499619,476.4587724912468 L107.61128406405561,476.45448693615685 M107.61128406405561,476.45448693615685 L107.81648259299976,476.43335728288037 M107.81648259299976,476.43335728288037 L107.99925830441504,476.39661922370954 M107.99925830441504,476.39661922370954 L108.14898103692417,476.34641135643903 M108.14898103692417,476.34641135643903 L108.25696970968653,476.2856470844872 M108.25696970968653,476.2856470844872 L108.31694719142439,476.21786142132305 M108.31694719142439,476.21786142132305 L108.32541431758955,476.1470010723127 M108.32541431758955,476.1470010723127 L108.28190762116975,476.07717760464095 M108.28190762116975,476.07717760464095 L108.18895784569321,476.0124493250755 M108.18895784569321,476.0124493250755 L108.05195818030603,475.95658064527856 M838.0444416817298,710.5314864029721 L837.8223615675823,710.4737295273086 M837.8223615675823,710.4737295273086 L837.5781748011021,710.4353010309261 M837.5781748011021,710.4353010309261 L837.3260977250319,710.4184322363749 M837.3260977250319,710.4184322363749 L837.0807290548488,710.424085866931 M837.0807290548488,710.424085866931 L836.8562886857547,710.451939627923 M836.8562886857547,710.451939627923 L836.6658994018038,710.5003902806329 M836.6658994018038,710.5003902806329 L836.5205796840254,710.5666075690971 M836.5205796840254,710.5666075690971 L836.4287570240334,710.6467554885498 M836.4287570240334,710.6467554885498 L836.3958259458306,710.7361925046494 M836.3958259458306,710.7361925046494 L836.4236588436592,710.8296928450404 M836.4236588436592,710.8296928450404 L836.5106376385753,710.9218358195748 M836.5106376385753,710.9218358195748 L836.6517648901682,711.0072782352192 M836.6517648901682,711.0072782352192 L836.838836639971,711.0810398656661 M836.838836639971,711.0810398656661 L837.060959833004,711.1388354677505 M837.060959833004,711.1388354677505 L837.3052304469844,711.177293814535 M837.3052304469844,711.177293814535 L837.5574651021958,711.1941935213417 M837.5574651021958,711.1941935213417 L837.8029365793142,711.1885350835478 M837.8029365793142,711.1885350835478 L838.0274536347969,711.1606586700452 M838.0274536347969,711.1606586700452 L838.2178758752924,711.1121726989895 M838.2178758752924,711.1121726989895 L838.3631772999221,711.0459155294858 M838.3631772999221,711.0459155294858 L838.4549346047248,710.9657322958342 M838.4549346047248,710.9657322958342 L838.4877682124351,710.8762726206454 M838.4877682124351,710.8762726206454 L838.4598280979025,710.78276747371 M838.4598280979025,710.78276747371 L838.3727046975106,710.690621870903 M838.3727046975106,710.690621870903 L838.2315209842851,710.6052093090153 M838.2315209842851,710.6052093090153 L838.0444416817298,710.5314864029721 M18.595040976981522,493.493539458084 L6.217894668888107,489.39741127774766 M18.595040976981522,493.493539458084 L18.56450801076045,510.0963690122146 M18.595657003493272,492.8063577658737 L18.59530762736148,493.03548184068245 M18.59530762736148,493.03548184068245 L18.59510229014296,493.26454240945236 M18.59510229014296,493.26454240945236 L18.595040976981522,493.493539458084 M6.217246618659658,488.71157687673644 L18.595657003493272,492.8063577658737 M738.8960050466732,731.0818719805333 L755.3420958888804,736.5222424633376 M755.3420958888804,736.5222424633376 L936.5805752678581,654.430866272753 M936.5805752678581,654.430866272753 L193.09290056331713,426.89306927941004 M18.595657003493272,492.8063577658737 L-170.68002542785644,555.7421106636427 M-170.68002542785644,555.7421106636427 L-114.87211180679924,575.7167388413068 M-114.87211180679924,575.7167388413068 L-128.25861800104963,580.2725354086941 M-128.25861800104963,580.2725354086941 L-63.2797082708517,603.6596170077581 M-63.2797082708517,603.6596170077581 L-49.88602153781045,598.9763969367027 M-49.88602153781045,598.9763969367027 L243.8124542189488,704.0962172084724 M243.8124542189488,704.0962172084724 L230.4473960869567,709.3772996527235 M230.4473960869567,709.3772996527235 L305.86718632674797,736.5222424633376 M305.86718632674797,736.5222424633376 L319.20875582374595,731.0818719805333 M319.20875582374595,731.0818719805333 L552.9193632326675,814.7309851845757 M738.8960050466732,731.0818719805333 L552.9193632326675,814.7309851845757 M109.24216608259337,458.63792613227724 L109.58557454655494,458.7763953940804 M109.58557454655494,458.7763953940804 L109.81867284719817,458.93683308791117 M109.81867284719817,458.93683308791117 L109.9278874665199,459.10992584731684 M109.9278874665199,459.10992584731684 L109.9068304569912,459.2856185702541 M109.9068304569912,459.2856185702541 L109.75667276792086,459.4537029073539 M109.75667276792086,459.4537029073539 L109.48612817918143,459.60439478383284 M109.48612817918143,459.60439478383284 L109.11087284947894,459.72893256765667 M109.11087284947894,459.72893256765667 L108.65273825751422,459.82005664575604 M108.65273825751422,459.82005664575604 L108.1383433899847,459.87246747647214 M108.1383433899847,459.87246747647214 L107.59764113658031,459.8831035016012 M107.59764113658031,459.8831035016012 L107.06208587361988,459.8513482270249 M107.06208587361988,459.8513482270249 L106.56284443537987,459.779052391411 M106.56284443537987,459.779052391411 L106.12895944329091,459.6704276743293 M106.12895944329091,459.6704276743293 L105.78566179347774,459.5317998715061 M105.78566179347774,459.5317998715061 L105.55288885289673,459.37123960806684 M105.55288885289673,459.37123960806684 L105.44414193923353,459.1980890720489 M105.44414193923353,459.1980890720489 L105.46569982824957,459.02241595669443 M105.46569982824957,459.02241595669443 L105.6162779998308,458.8544244929235 M105.6162779998308,458.8544244929235 L105.88706602504703,458.7038773760902 M105.88706602504703,458.7038773760902 L106.26233198544799,458.5795030828418 M106.26233198544799,458.5795030828418 L106.72024196629246,458.48852376266007 M106.72024196629246,458.48852376266007 L107.23422842925527,458.4362058080469 M107.23422842925527,458.4362058080469 L107.77443236568467,458.42558958626296 M107.77443236568467,458.42558958626296 L108.30951238361996,458.45728668943013 M108.30951238361996,458.45728668943013 L108.80841254773202,458.5294603492106 M108.80841254773202,458.5294603492106 L109.24216608259337,458.63792613227724 M841.3596007610969,691.256157626378 L841.8289306007283,691.4390143294346 M841.8289306007283,691.4390143294346 L842.1832911105502,691.6508641927196 M842.1832911105502,691.6508641927196 L842.4021905743767,691.8794531584892 M842.4021905743767,691.8794531584892 L842.472769723816,692.1114757363291 M842.472769723816,692.1114757363291 L842.390887103115,692.3334589638291 M842.390887103115,692.3334589638291 L842.1612555466171,692.53247473535 M842.1612555466171,692.53247473535 L841.797177505273,692.6969549333165 M841.797177505273,692.6969549333165 L841.3198251900764,692.8173088490089 M841.3198251900764,692.8173088490089 L840.7569160893496,692.8865289310829 M840.7569160893496,692.8865289310829 L840.1412440577175,692.9005752031477 M840.1412440577175,692.9005752031477 L839.5086057997349,692.8586244896406 M839.5086057997349,692.8586244896406 L838.8959134789103,692.7631502959271 M838.8959134789103,692.7631502959271 L838.338687345339,692.6196748836205 M838.338687345339,692.6196748836205 L837.8694570263689,692.4365939232293 M837.8694570263689,692.4365939232293 L837.51539882759,692.2245417068403 M837.51539882759,692.2245417068403 L837.2971326279077,691.9958814047595 M837.2971326279077,691.9958814047595 L837.2272275618844,691.7638887331638 M837.2272275618844,691.7638887331638 L837.3097230263971,691.5420464524088 M837.3097230263971,691.5420464524088 L837.5397657518571,691.3432503665913 M837.5397657518571,691.3432503665913 L837.9039591314721,691.1790182814273 M837.9039591314721,691.1790182814273 L838.3811045254732,691.0588840528446 M838.3811045254732,691.0588840528446 L838.9435318221632,690.9898049138803 M838.9435318221632,690.9898049138803 L839.5585575722079,690.9757885426071 M839.5585575722079,690.9757885426071 L840.1904807668249,691.0176346281683 M840.1904807668249,691.0176346281683 L840.802698120308,691.112939760704 M840.802698120308,691.112939760704 L841.3596007610969,691.256157626378 M933.9492239444725,673.0119902563978 L936.5805752678581,654.430866272753 M755.2545342512614,737.2857379667033 L738.8106355845172,731.8437471356345 M755.2545342512614,737.2857379667033 L753.1252044052939,755.7262606107289 M738.8106355845172,731.8437471356345 L736.7341982678228,750.2452689370671 M738.8106355845172,731.8437471356345 L738.8389491716576,731.5898719387023 M738.8389491716576,731.5898719387023 L738.8674056543788,731.3359135481802 M738.8674056543788,731.3359135481802 L738.8960050466732,731.0818719805333 M551.2323893345979,834.5086572045104 L552.9193632326675,814.7309851845757 M318.28498831951686,750.245555804241 L319.20875582374595,731.0818719805333 M304.9801773946085,755.7265491787506 L305.86718632674797,736.5222424633376 M229.7934159846384,728.377960784319 L230.4473960869567,709.3772996527235 M243.12150933136945,723.056980941518 L243.8124542189488,704.0962172084724 M-49.73234229189603,617.1241665496842 L-49.88602153781045,598.9763969367027 M-63.08881786871041,621.8443701429903 L-63.2797082708517,603.6596170077581 M-127.8942999229887,598.271889813093 L-128.25861800104963,580.2725354086941 M-114.54494640376834,593.6797709114574 L-114.87211180679924,575.7167388413068 M-170.20775275243727,573.5450938335283 L-170.68002542785644,555.7421106636427 M755.3420958888804,736.5222424633376 L755.3127658592747,736.7768246249063 M755.3127658592747,736.7768246249063 L755.2835786513839,737.0313231315329 M755.2835786513839,737.0313231315329 L755.2545342512614,737.2857379667033 M108.05195818030603,475.95658064527856 L108.28162802698455,460.73728272105154 M108.28162802698455,460.73728272105154 L108.41894483471287,460.7927371201513 M108.41894483471287,460.7927371201513 L108.51211371668785,460.8569854338765 M108.51211371668785,460.8569854338765 L108.55572875933643,460.9262911677771 M108.55572875933643,460.9262911677771 L108.54725290284438,460.99662610879795 M108.54725290284438,460.99662610879795 L108.48715004260242,461.06390917517285 M108.48715004260242,461.06390917517285 L108.37892664612991,461.12422292152644 M108.37892664612991,461.12422292152644 L108.22887348072743,461.17405853964044 M108.22887348072743,461.17405853964044 L108.04569078541266,461.2105242214998 M108.04569078541266,461.2105242214998 L107.8400323982072,461.23149722049095 M107.8400323982072,461.23149722049095 L107.62387384593109,461.2357510028254 M107.62387384593109,461.2357510028254 L107.4097638489921,461.22304532954354 M107.4097638489921,461.22304532954354 L107.21015582612313,461.194118052406 M107.21015582612313,461.194118052406 L107.03666786893308,461.1506476192109 M107.03666786893308,461.1506476192109 L106.8993693007339,461.09516800396796 M106.8993693007339,461.09516800396796 L106.80625255106384,461.03090009789696 M106.80625255106384,461.03090009789696 L106.7627122034582,460.9615850825829 M106.7627122034582,460.9615850825829 L106.7712682057421,460.89125329645844 M106.7712682057421,460.89125329645844 L106.83143830818926,460.82398509925645 M106.83143830818926,460.82398509925645 L106.93970063346995,460.7636945294033 M106.93970063346995,460.7636945294033 L107.08975549829745,460.7138850839309 M107.08975549829745,460.7138850839309 L107.27290227455109,460.6774425783375 M107.27290227455109,460.6774425783375 L107.47849535057293,460.6564844496439 M107.47849535057293,460.6564844496439 L107.69457416665034,460.65223382055547 M107.69457416665034,460.65223382055547 L107.90860826325326,460.6649302126915 M107.90860826325326,460.6649302126915 L108.10816160962668,460.693837899365 M108.10816160962668,460.693837899365 L108.28162802698455,460.73728272105154 M838.0444416817298,710.5314864029721 L840.2002021679788,693.6508572871002 M840.2002021679788,693.6508572871002 L840.3878542664228,693.7240826330316 M840.3878542664228,693.7240826330316 L840.5295058123348,693.8089187599618 M840.5295058123348,693.8089187599618 L840.6169649942207,693.9004425108982 M840.6169649942207,693.9004425108982 L840.6450891275844,693.9933166556345 M840.6450891275844,693.9933166556345 L840.6122771789416,694.0821726519962 M840.6122771789416,694.0821726519962 L840.5203777042385,694.1618148240852 M840.5203777042385,694.1618148240852 L840.3747786627058,694.2276249163041 M840.3747786627058,694.2276249163041 L840.1839206025194,694.2757837310273 M840.1839206025194,694.2757837310273 L839.9588547302523,694.3034720530386 M839.9588547302523,694.3034720530386 L839.7127536046659,694.309092311729 M839.7127536046659,694.309092311729 L839.4598448779635,694.2923066323642 M839.4598448779635,694.2923066323642 L839.2148951651349,694.2541077787224 M839.2148951651349,694.2541077787224 L838.9921272819653,694.1967021535248 M838.9921272819653,694.1967021535248 L838.8044827291984,694.1234382448214 M838.8044827291984,694.1234382448214 L838.6628879023159,694.0385723887408 M838.6628879023159,694.0385723887408 L838.5755739440038,693.9470512119293 M838.5755739440038,693.9470512119293 L838.5475575896181,693.8541818536754 M838.5475575896181,693.8541818536754 L838.5804675417734,693.7653484218268 M838.5804675417734,693.7653484218268 L838.6724327531086,693.6857414165395 M838.6724327531086,693.6857414165395 L838.8180502304066,693.6199710389013 M838.8180502304066,693.6199710389013 L839.0088752051896,693.5718473951099 M839.0088752051896,693.5718473951099 L839.2338640200841,693.5441816310595 M839.2338640200841,693.5441816310595 L839.4798618108401,693.5385661595424 M839.4798618108401,693.5385661595424 L839.7326122391584,693.5553210988527 M839.7326122391584,693.5553210988527 L839.9774776335856,693.5934902266849 M839.9774776335856,693.5934902266849 L840.2002021679788,693.6508572871002 M109.24216608259337,458.63792613227724 L109.21491594915324,460.42740254986256 M109.21491594915324,460.42740254986256 L109.55823115521508,460.56599398025753 M109.55823115521508,460.56599398025753 L109.79126497830697,460.7265732168397 M109.79126497830697,460.7265732168397 L109.90044766185679,460.89981867386246 M109.90044766185679,460.89981867386246 L109.87939313559411,461.0756663776325 M109.87939313559411,461.0756663776325 L109.72927222977825,461.2438989743041 M109.72927222977825,461.2438989743041 L109.45879659976396,461.3947237611019 M109.45879659976396,461.3947237611019 L109.08363841463091,461.5193713815024 M109.08363841463091,461.5193713815024 L108.62562350193667,461.6105758234984 M108.62562350193667,461.6105758234984 L108.11136388966463,461.66303287495293 M108.11136388966463,461.66303287495293 L107.57080458259998,461.673678279804 M107.57080458259998,461.673678279804 L107.0353916300881,461.64189500070233 M107.0353916300881,461.64189500070233 L106.53628357380376,461.569535407143 M106.53628357380376,461.569535407143 L106.10251526804524,461.46081489021503 M106.10251526804524,461.46081489021503 L105.75931082038932,461.32206482098366 M105.75931082038932,461.32206482098366 L105.52660218715346,461.1613629390781 M105.52660218715346,461.1613629390781 L105.4178869629539,460.98805966983 M105.4178869629539,460.98805966983 L105.43944210326646,460.8122315857198 M105.43944210326646,460.8122315857198 L105.58998326751652,460.64409191970844 M105.58998326751652,460.64409191970844 L105.86070220271478,460.49341198191803 M105.86070220271478,460.49341198191803 L106.23587101011026,460.36892795301617 M106.23587101011026,460.36892795301617 L106.69366142803807,460.27786835829795 M106.69366142803807,460.27786835829795 L107.20751285023573,460.2255042402785 M107.20751285023573,460.2255042402785 L107.74757410372905,460.21487865102415 M107.74757410372905,460.21487865102415 L108.28251206350734,460.2466037227547 M108.28251206350734,460.2466037227547 L108.78127902849843,460.3188410651129 M108.78127902849843,460.3188410651129 L109.21491594915324,460.42740254986256 M841.3596007610969,691.256157626378 L841.1057764225071,693.2416913788248 M841.1057764225071,693.2416913788248 L841.5749377207359,693.4246949752494 M841.5749377207359,693.4246949752494 L841.9291605016703,693.6367150086453 M841.9291605016703,693.6367150086453 L842.1479610232797,693.8654875732614 M842.1479610232797,693.8654875732614 L842.2184858271843,694.0976964896337 M842.2184858271843,694.0976964896337 L842.1365966439599,694.3198579759111 M842.1365966439599,694.3198579759111 L841.9070067230961,694.5190335484787 M841.9070067230961,694.5190335484787 L841.5430161198761,694.6836458067771 M841.5430161198761,694.6836458067771 L841.0657919671675,694.8040963482119 M841.0657919671675,694.8040963482119 L840.5030443088757,694.8733720011733 M840.5030443088757,694.8733720011733 L839.8875575828521,694.8874295495907 M839.8875575828521,694.8874295495907 L839.2551177036192,694.8454451578359 M839.2551177036192,694.8454451578359 L838.6426252391096,694.7498943147235 M838.6426252391096,694.7498943147235 L838.0855888410282,694.6063037104573 M838.0855888410282,694.6063037104573 L837.6165270505413,694.4230757498954 M837.6165270505413,694.4230757498954 L837.2626064095165,694.2108532573899 M837.2626064095165,694.2108532573899 L837.0444387930166,693.9820093259423 M837.0444387930166,693.9820093259423 L836.9745876584626,693.7498303307326 M836.9745876584626,693.7498303307326 L837.0570892929817,693.5278098615097 M837.0570892929817,693.5278098615097 L837.2870901017869,693.3288540842325 M837.2870901017869,693.3288540842325 L837.6511959381058,693.1644900625037 M837.6511959381058,693.1644900625037 L838.1282132643947,693.0442593177661 M838.1282132643947,693.0442593177661 L838.6904793916771,692.9751246782223 M838.6904793916771,692.9751246782223 L839.3053202248274,692.9610970455118 M839.3053202248274,692.9610970455118 L839.9370454743186,693.0029767520639 M839.9370454743186,693.0029767520639 L840.5490633000578,693.0983584547294 M840.5490633000578,693.0983584547294 L841.1057764225071,693.2416913788248" stroke="black"  stroke-width="4"  fill="red"/>
<path d="M753.1252044052939,755.7262606107289 L554.6168019548317,846.5298922838783 M753.1252044052939,755.7262606107289 L736.7341982678228,750.2452689370671 M538.0412598901167,840.5006702660465 L736.7341982678228,750.2452689370671 M554.6168019548317,846.5298922838783 L538.0412598901167,840.5006702660465 M755.2545342512614,737.2857379667033 L753.1252044052939,755.7262606107289 M881.2126419943216,435.14855452633833 L874.7395769856972,443.008812867085 M874.7395769856972,443.008812867085 L868.3370979942553,451.1940900553203 M868.3370979942553,451.1940900553203 L862.0158616874515,459.6913435760297 M862.0158616874515,459.6913435760297 L855.7863145223802,468.48727647294015 M855.7863145223802,468.48727647294015 L849.6588099178556,477.5676767880029 M849.6588099178556,477.5676767880029 L843.6435063943837,486.91784090512544 M843.6435063943837,486.91784090512544 L837.7503737689909,496.5225820115128 M837.7503737689909,496.5225820115128 L831.9891435666763,506.3661384905745 M831.9891435666763,506.3661384905745 L826.3692979831379,516.4324401682386 M826.3692979831379,516.4324401682386 L820.9000516112052,526.7048831543917 M820.9000516112052,526.7048831543917 L815.5903516375985,537.1663470298962 M815.5903516375985,537.1663470298962 L810.4487753552929,547.7997470526715 M810.4487753552929,547.7997470526715 L805.4836373203979,558.5871469752612 M805.4836373203979,558.5871469752612 L800.7028430748318,569.5108227680315 M800.7028430748318,569.5108227680315 L796.1139366835852,580.5527702409098 M796.1139366835852,580.5527702409098 L791.7241091100205,591.6944789658565 M791.7241091100205,591.6944789658565 L787.5400973723068,602.9178497700592 M787.5400973723068,602.9178497700592 L783.5682722568241,614.2042034546614 M783.5682722568241,614.2042034546614 L779.8145403249777,625.5351953896396 M779.8145403249777,625.5351953896396 L776.2844024768648,636.8922047600522 M776.2844024768648,636.8922047600522 L772.98288922891,648.2568674713405 M772.98288922891,648.2568674713405 L769.9146011023146,659.6107174225456 M769.9146011023146,659.6107174225456 L767.0836449580039,670.9357145615463 M767.0836449580039,670.9357145615463 L764.4936775727039,682.2138843859916 M764.4936775727039,682.2138843859916 L762.1479338707605,693.4270884927731 M762.1479338707605,693.4270884927731 L760.0491104182598,704.558045377886 M760.0491104182598,704.558045377886 L758.1994859938362,715.5893424602444 M758.1994859938362,715.5893424602444 L756.6008380352433,726.504199987508 M756.6008380352433,726.504199987508 L755.2545342512614,737.2857379667033 M881.8262642824324,434.4237549188805 L881.8381405805404,434.53364338013 M881.8381405805404,434.53364338013 L881.831496908642,434.6582393654902 M881.831496908642,434.6582393654902 L881.8067270904465,434.7901623727399 M881.8067270904465,434.7901623727399 L881.7652562881896,434.92200383866543 M881.7652562881896,434.92200383866543 L881.7095040787127,435.04584256410374 M881.7095040787127,435.04584256410374 L881.6427247779671,435.1545525276315 M881.6427247779671,435.1545525276315 L881.5687533355527,435.24202615351476 M881.5687533355527,435.24202615351476 L881.4919424874414,435.30282465656217 M881.4919424874414,435.30282465656217 L881.4167111296757,435.3337250244632 M881.4167111296757,435.3337250244632 L881.3474520779333,435.33275945249875 M881.3474520779333,435.33275945249875 L881.2882007523257,435.2999683042707 M881.2882007523257,435.2999683042707 L881.2423671763657,435.2373809105519 M881.2423671763657,435.2373809105519 L881.2126419943216,435.14855452633833 M1011.8076446357196,123.21958694727766 L1009.9796423967074,135.3214508694922 M1009.9796423967074,135.3214508694922 L1007.9210324201032,147.44485379431228 M1007.9210324201032,147.44485379431228 L1005.6353256995559,159.57559556303352 M1005.6353256995559,159.57559556303352 L1003.1262161685676,171.6996987785127 M1003.1262161685676,171.6996987785127 L1000.397618765012,183.80285463052257 M1000.397618765012,183.80285463052257 L997.4535683484779,195.87135903455226 M997.4535683484779,195.87135903455226 L994.2983166733112,207.8912758639184 M994.2983166733112,207.8912758639184 L990.9362346562847,219.84923463963526 M990.9362346562847,219.84923463963526 L987.3718721374811,231.7317407678787 M987.3718721374811,231.7317407678787 L983.6099572757017,243.52541887543487 M983.6099572757017,243.52541887543487 L979.655285987608,255.2174186962443 M979.655285987608,255.2174186962443 L975.5129122196098,266.79468594606635 M975.5129122196098,266.79468594606635 L971.1879454656481,278.2444030262898 M971.1879454656481,278.2444030262898 L966.6856289319802,289.5541981756718 M966.6856289319802,289.5541981756718 L962.0113816545071,300.7114746430741 M962.0113816545071,300.7114746430741 L957.1707104952492,311.70419011875515 M957.1707104952492,311.70419011875515 L952.1692623791322,322.52031170737007 M952.1692623791322,322.52031170737007 L947.0128209980245,333.1479289853586 M947.0128209980245,333.1479289853586 L941.7072586488531,343.57550875352456 M941.7072586488531,343.57550875352456 L936.2586066359446,353.79134962348894 M936.2586066359446,353.79134962348894 L930.6729461383189,363.7844901242588 M930.6729461383189,363.7844901242588 L924.9565240140588,373.54377054352915 M924.9565240140588,373.54377054352915 L919.1156706617272,383.05835462715163 M919.1156706617272,383.05835462715163 L913.156853856469,392.31744655472517 M913.156853856469,392.31744655472517 L907.086625985868,401.31067562314263 M907.086625985868,401.31067562314263 L900.9116143039086,410.02796433401124 M900.9116143039086,410.02796433401124 L894.6386374906452,418.45897531185335 M894.6386374906452,418.45897531185335 L888.2745210191443,426.5941732627181 M888.2745210191443,426.5941732627181 L881.8262642824324,434.4237549188805 M619.787777083006,249.51272328314224 L1011.8076446357196,123.21958694727766 M592.6425539417489,558.079765719499 L619.787777083006,249.51272328314224 M578.9574435232229,563.4607907684486 L592.6425539417489,558.079765719499 M554.6168019548317,846.5298922838783 L578.9574435232229,563.4607907684486 M755.2545342512614,737.2857379667033 L738.8106355845172,731.8437471356345 M738.8106355845172,731.8437471356345 L736.7341982678228,750.2452689370671 M538.0412598901167,840.5006702660465 L561.5699021493974,558.079765719499 M575.2669410397762,552.7334137848408 L561.5699021493974,558.079765719499 M575.2669410397762,552.7334137848408 L601.519078910873,244.95972906404688 M994.0435512302398,119.4769415562181 L601.519078910873,244.95972906404688 M994.0435512302398,119.4769415562181 L992.2506553281729,131.54810148294757 M992.2506553281729,131.54810148294757 L990.226587935988,143.6405895263282 M990.226587935988,143.6405895263282 L987.9748204899753,155.74023539373445 M987.9748204899753,155.74023539373445 L985.499008997824,167.8330907643566 M985.499008997824,167.8330907643566 L982.8030303798172,179.90487649340878 M982.8030303798172,179.90487649340878 L979.8908842065433,191.94191650398727 M979.8908842065433,191.94191650398727 L976.766787170436,203.9303031260887 M976.766787170436,203.9303031260887 L973.435077719356,215.8566928825095 M973.435077719356,215.8566928825095 L969.9002736997776,227.70761843458615 M969.9002736997776,227.70761843458615 L966.1670725479117,239.46973140793773 M966.1670725479117,239.46973140793773 L962.2402417596323,251.13020727290836 M962.2402417596323,251.13020727290836 L958.1248072648281,262.67601816691877 M958.1248072648281,262.67601816691877 L953.825851842615,274.0943723836036 M953.825851842615,274.0943723836036 L949.3485941691807,285.3729232171787 M949.3485941691807,285.3729232171787 L944.6984288329448,296.49909973490196 M944.6984288329448,296.49909973490196 L939.8808406381803,307.460884406731 M939.8808406381803,307.460884406731 L934.9014551778915,318.24626940674636 M934.9014551778915,318.24626940674636 L929.7660358837041,328.84336946006385 M929.7660358837041,328.84336946006385 L924.480436550365,339.2406760165844 M924.480436550365,339.2406760165844 L919.0506701241221,349.42651317246566 M919.0506701241221,349.42651317246566 L913.4828022249757,359.38994368658723 M913.4828022249757,359.38994368658723 L907.7830641742295,369.1198330721111 M907.7830641742295,369.1198330721111 L901.9577723189647,378.6053700832017 M901.9577723189647,378.6053700832017 L896.0133810657377,387.8357844196788 M896.0133810657377,387.8357844196788 L889.9564312045821,396.8007305417441 M889.9564312045821,396.8007305417441 L883.7935396821373,405.4901560649814 M883.7935396821373,405.4901560649814 L877.5315146481365,413.89375007004537 M877.5315146481365,413.89375007004537 L871.1771737569808,422.002002542133 M871.1771737569808,422.002002542133 L864.737508236508,429.805136886873 M864.1246392869108,430.5274614496416 L864.1547283687843,430.616143276627 M864.1547283687843,430.616143276627 L864.200882773286,430.6786664897701 M864.200882773286,430.6786664897701 L864.260393403052,430.7114773453965 M864.260393403052,430.7114773453965 L864.3298348535185,430.7125456742458 M864.3298348535185,430.7125456742458 L864.4051611278661,430.6818250851319 M864.4051611278661,430.6818250851319 L864.4819743939664,430.6212725326287 M864.4819743939664,430.6212725326287 L864.5558547252889,430.53409746523914 M864.5558547252889,430.53409746523914 L864.6224556846665,430.42572048110264 M864.6224556846665,430.42572048110264 L864.6779521229909,430.3022303285769 M864.6779521229909,430.3022303285769 L864.7191043199904,430.17073290883343 M864.7191043199904,430.17073290883343 L864.7435120269726,430.0391288665214 M864.7435120269726,430.0391288665214 L864.7497703303765,429.9148088060374 M864.7497703303765,429.9148088060374 L864.737508236508,429.805136886873 M738.8106355845172,731.8437471356345 L740.1262530177488,721.0853375304475 M740.1262530177488,721.0853375304475 L741.6944127786202,710.1944217873408 M741.6944127786202,710.1944217873408 L743.5137944039967,699.1878407916012 M743.5137944039967,699.1878407916012 L745.5826667137818,688.0823338648199 M745.5826667137818,688.0823338648199 L747.8987983111323,676.8952702810938 M747.8987983111323,676.8952702810938 L750.4595389501852,665.6438870387512 M750.4595389501852,665.6438870387512 L753.2617018088632,654.3462747223822 M753.2617018088632,654.3462747223822 L756.3016770710452,643.0203589629438 M756.3016770710452,643.0203589629438 L759.5754043606238,631.6841294470678 M759.5754043606238,631.6841294470678 L763.078330207791,620.3559996753041 M763.078330207791,620.3559996753041 L766.8054702038809,609.0542801333173 M766.8054702038809,609.0542801333173 L770.7513696506584,597.7975362931961 M770.7513696506584,597.7975362931961 L774.9101667490639,586.6040569658678 M774.9101667490639,586.6040569658678 L779.2755358223598,575.4924637861911 M779.2755358223598,575.4924637861911 L783.8407826352033,564.4807987242268 M783.8407826352033,564.4807987242268 L788.5987595991413,553.587513266055 M788.5987595991413,553.587513266055 L793.5419639300793,542.8305530476182 M793.5419639300793,542.8305530476182 L798.6625299472922,532.2275835363627 M798.6625299472922,532.2275835363627 L803.9521829632446,521.7964813835465 M803.9521829632446,521.7964813835465 L809.402382503656,511.55427322736386 M809.402382503656,511.55427322736386 L815.0042176814014,501.51802093063327 M815.0042176814014,501.51802093063327 L820.7485081430947,491.7042707641906 M820.7485081430947,491.7042707641906 L826.6258037773747,482.12903632922985 M826.6258037773747,482.12903632922985 L832.6264037165464,472.80802333755685 M832.6264037165464,472.80802333755685 L838.7403665063456,463.756364006981 M838.7403665063456,463.756364006981 L844.9575600712111,454.98870861148464 M844.9575600712111,454.98870861148464 L851.2676554327994,446.51921708128555 M851.2676554327994,446.51921708128555 L857.6602274217474,438.361136765143 M857.6602274217474,438.361136765143 L864.1246392869108,430.5274614496416 M561.5699021493974,558.079765719499 L578.9574435232229,563.4607907684486 M881.2126419943216,435.14855452633833 L864.1246392869108,430.5274614496416 M881.8262642824324,434.4237549188805 L864.737508236508,429.805136886873 M1011.8076446357196,123.21958694727766 L994.0435512302398,119.4769415562181 M619.787777083006,249.51272328314224 L601.519078910873,244.95972906404688 M592.6425539417489,558.079765719499 L575.2669410397762,552.7334137848408" stroke="black"  stroke-width="4"  fill="red"/>
<path d="M838.0444416817298,710.5314864029721 L840.2002021679788,693.6508572871002 M840.2002021679788,693.6508572871002 L840.3878542664228,693.7240826330316 M840.3878542664228,693.7240826330316 L840.5295058123348,693.8089187599618 M840.5295058123348,693.8089187599618 L840.6169649942207,693.9004425108982 M840.6169649942207,693.9004425108982 L840.6450891275844,693.9933166556345 M840.6450891275844,693.9933166556345 L840.6122771789416,694.0821726519962 M840.6122771789416,694.0821726519962 L840.5203777042385,694.1618148240852 M840.5203777042385,694.1618148240852 L840.3747786627058,694.2276249163041 M840.3747786627058,694.2276249163041 L840.1839206025194,694.2757837310273 M840.1839206025194,694.2757837310273 L839.9588547302523,694.3034720530386 M839.9588547302523,694.3034720530386 L839.7127536046659,694.309092311729 M839.7127536046659,694.309092311729 L839.4598448779635,694.2923066323642 M839.4598448779635,694.2923066323642 L839.2148951651349,694.2541077787224 M839.2148951651349,694.2541077787224 L838.9921272819653,694.1967021535248 M838.9921272819653,694.1967021535248 L838.8044827291984,694.1234382448214 M838.8044827291984,694.1234382448214 L838.6628879023159,694.0385723887408 M838.6628879023159,694.0385723887408 L838.5755739440038,693.9470512119293 M838.5755739440038,693.9470512119293 L838.5475575896181,693.8541818536754 M838.5475575896181,693.8541818536754 L838.5804675417734,693.7653484218268 M838.5804675417734,693.7653484218268 L838.6724327531086,693.6857414165395 M838.6724327531086,693.6857414165395 L838.8180502304066,693.6199710389013 M838.8180502304066,693.6199710389013 L839.0088752051896,693.5718473951099 M839.0088752051896,693.5718473951099 L839.2338640200841,693.5441816310595 M839.2338640200841,693.5441816310595 L839.4798618108401,693.5385661595424 M839.4798618108401,693.5385661595424 L839.7326122391584,693.5553210988527 M839.7326122391584,693.5553210988527 L839.9774776335856,693.5934902266849 M839.9774776335856,693.5934902266849 L840.2002021679788,693.6508572871002 M838.0444416817298,710.5314864029721 L837.8223615675823,710.4737295273086 M837.8223615675823,710.4737295273086 L837.5781748011021,710.4353010309261 M837.5781748011021,710.4353010309261 L837.3260977250319,710.4184322363749 M837.3260977250319,710.4184322363749 L837.0807290548488,710.424085866931 M837.0807290548488,710.424085866931 L836.8562886857547,710.451939627923 M836.8562886857547,710.451939627923 L836.6658994018038,710.5003902806329 M836.6658994018038,710.5003902806329 L836.5205796840254,710.5666075690971 M836.5205796840254,710.5666075690971 L836.4287570240334,710.6467554885498 M836.4287570240334,710.6467554885498 L836.3958259458306,710.7361925046494 M836.3958259458306,710.7361925046494 L836.4236588436592,710.8296928450404 M836.4236588436592,710.8296928450404 L836.5106376385753,710.9218358195748 M836.5106376385753,710.9218358195748 L836.6517648901682,711.0072782352192 M836.6517648901682,711.0072782352192 L836.838836639971,711.0810398656661 M836.838836639971,711.0810398656661 L837.060959833004,711.1388354677505 M837.060959833004,711.1388354677505 L837.3052304469844,711.177293814535 M837.3052304469844,711.177293814535 L837.5574651021958,711.1941935213417 M837.5574651021958,711.1941935213417 L837.8029365793142,711.1885350835478 M837.8029365793142,711.1885350835478 L838.0274536347969,711.1606586700452 M838.0274536347969,711.1606586700452 L838.2178758752924,711.1121726989895 M838.2178758752924,711.1121726989895 L838.3631772999221,711.0459155294858 M838.3631772999221,711.0459155294858 L838.4549346047248,710.9657322958342 M838.4549346047248,710.9657322958342 L838.4877682124351,710.8762726206454 M838.4877682124351,710.8762726206454 L838.4598280979025,710.78276747371 M838.4598280979025,710.78276747371 L838.3727046975106,710.690621870903 M838.3727046975106,710.690621870903 L838.2315209842851,710.6052093090153 M838.2315209842851,710.6052093090153 L838.0444416817298,710.5314864029721 M841.1057764225071,693.2416913788248 L841.5749377207359,693.4246949752494 M841.5749377207359,693.4246949752494 L841.9291605016703,693.6367150086453 M841.9291605016703,693.6367150086453 L842.1479610232797,693.8654875732614 M842.1479610232797,693.8654875732614 L842.2184858271843,694.0976964896337 M842.2184858271843,694.0976964896337 L842.1365966439599,694.3198579759111 M842.1365966439599,694.3198579759111 L841.9070067230961,694.5190335484787 M841.9070067230961,694.5190335484787 L841.5430161198761,694.6836458067771 M841.5430161198761,694.6836458067771 L841.0657919671675,694.8040963482119 M841.0657919671675,694.8040963482119 L840.5030443088757,694.8733720011733 M840.5030443088757,694.8733720011733 L839.8875575828521,694.8874295495907 M839.8875575828521,694.8874295495907 L839.2551177036192,694.8454451578359 M839.2551177036192,694.8454451578359 L838.6426252391096,694.7498943147235 M838.6426252391096,694.7498943147235 L838.0855888410282,694.6063037104573 M838.0855888410282,694.6063037104573 L837.6165270505413,694.4230757498954 M837.6165270505413,694.4230757498954 L837.2626064095165,694.2108532573899 M837.2626064095165,694.2108532573899 L837.0444387930166,693.9820093259423 M837.0444387930166,693.9820093259423 L836.9745876584626,693.7498303307326 M836.9745876584626,693.7498303307326 L837.0570892929817,693.5278098615097 M837.0570892929817,693.5278098615097 L837.2870901017869,693.3288540842325 M837.2870901017869,693.3288540842325 L837.6511959381058,693.1644900625037 M837.6511959381058,693.1644900625037 L838.1282132643947,693.0442593177661 M838.1282132643947,693.0442593177661 L838.6904793916771,692.9751246782223 M838.6904793916771,692.9751246782223 L839.3053202248274,692.9610970455118 M839.3053202248274,692.9610970455118 L839.9370454743186,693.0029767520639 M839.9370454743186,693.0029767520639 L840.5490633000578,693.0983584547294 M840.5490633000578,693.0983584547294 L841.1057764225071,693.2416913788248 M841.3596007610969,691.256157626378 L841.8289306007283,691.4390143294346 M841.8289306007283,691.4390143294346 L842.1832911105502,691.6508641927196 M842.1832911105502,691.6508641927196 L842.4021905743767,691.8794531584892 M842.4021905743767,691.8794531584892 L842.472769723816,692.1114757363291 M842.472769723816,692.1114757363291 L842.390887103115,692.3334589638291 M842.390887103115,692.3334589638291 L842.1612555466171,692.53247473535 M842.1612555466171,692.53247473535 L841.797177505273,692.6969549333165 M841.797177505273,692.6969549333165 L841.3198251900764,692.8173088490089 M841.3198251900764,692.8173088490089 L840.7569160893496,692.8865289310829 M840.7569160893496,692.8865289310829 L840.1412440577175,692.9005752031477 M840.1412440577175,692.9005752031477 L839.5086057997349,692.8586244896406 M839.5086057997349,692.8586244896406 L838.8959134789103,692.7631502959271 M838.8959134789103,692.7631502959271 L838.338687345339,692.6196748836205 M838.338687345339,692.6196748836205 L837.8694570263689,692.4365939232293 M837.8694570263689,692.4365939232293 L837.51539882759,692.2245417068403 M837.51539882759,692.2245417068403 L837.2971326279077,691.9958814047595 M837.2971326279077,691.9958814047595 L837.2272275618844,691.7638887331638 M837.2272275618844,691.7638887331638 L837.3097230263971,691.5420464524088 M837.3097230263971,691.5420464524088 L837.5397657518571,691.3432503665913 M837.5397657518571,691.3432503665913 L837.9039591314721,691.1790182814273 M837.9039591314721,691.1790182814273 L838.3811045254732,691.0588840528446 M838.3811045254732,691.0588840528446 L838.9435318221632,690.9898049138803 M838.9435318221632,690.9898049138803 L839.5585575722079,690.9757885426071 M839.5585575722079,690.9757885426071 L840.1904807668249,691.0176346281683 M840.1904807668249,691.0176346281683 L840.802698120308,691.112939760704 M840.802698120308,691.112939760704 L841.3596007610969,691.256157626378 M841.3596007610969,691.256157626378 L841.1057764225071,693.2416913788248" stroke="black"  stroke-width="4"  fill="red"/>
<path d="M18.56450801076045,510.0963690122146 L-183.5471131711074,578.0286202005632 M18.56450801076045,510.0963690122146 L6.217893074403605,505.96778208493765 M-195.87323488319237,573.5450911472853 L6.217893074403605,505.96778208493765 M-183.5471131711074,578.0286202005632 L-195.87323488319237,573.5450911472853 M-183.5471131711074,578.0286202005632 L-190.76461930610105,325.25036114158434 M-190.76461930610105,325.25036114158434 L-176.89931516017464,321.2972312624612 M-176.89931516017464,321.2972312624612 L-184.1184932016697,49.16015481802981 M-184.1184932016697,49.16015481802981 L219.36461845302165,-43.73704697276355 M219.36461845302165,-43.73704697276355 L218.92688775371937,-33.042281075139385 M218.92688775371937,-33.042281075139385 L218.2414308006331,-22.334417563658576 M218.2414308006331,-22.334417563658576 L217.31010266754174,-11.626254270266713 M217.31010266754174,-11.626254270266713 L216.13500223568315,-0.9304011226091689 M216.13500223568315,-0.9304011226091689 L214.71844319747015,9.740229117506601 M214.71844319747015,9.740229117506601 L213.06296427328584,20.373253202932688 M213.06296427328584,20.373253202932688 L211.17132790405333,30.956077353992782 M211.17132790405333,30.956077353992782 L209.04651620096752,41.47660695278353 M209.04651620096752,41.47660695278353 L206.6917078675673,51.92263541336581 M206.6917078675673,51.92263541336581 L204.11030867255886,62.28206348471019 M204.11030867255886,62.28206348471019 L201.3058830771032,72.54325897104889 M201.3058830771032,72.54325897104889 L198.2822677483706,82.69441621140493 M198.2822677483706,82.69441621140493 L195.0434076633145,92.72394190170883 M195.0434076633145,92.72394190170883 L191.5934673308691,102.62064868651112 M191.5934673308691,102.62064868651112 L187.93679073738917,112.37315838705047 M187.93679073738917,112.37315838705047 L184.07790457885585,121.97059776734534 M184.07790457885585,121.97059776734534 L180.02150510264187,131.4021147950083 M180.02150510264187,131.4021147950083 L175.7724683813509,140.65698159184456 M175.7724683813509,140.65698159184456 L171.33582972881584,149.724822272064 M171.33582972881584,149.724822272064 L166.71679023484273,158.59512905940312 M166.71679023484273,158.59512905940312 L161.92071269936844,167.25807324598384 M161.92071269936844,167.25807324598384 L156.95312756401972,175.70367102837497 M156.95312756401972,175.70367102837497 L151.81970903608078,183.92224893998412 M151.81970903608078,183.92224893998412 L146.5262967866945,191.9041941682832 M146.5262967866945,191.9041941682832 L141.07888633371476,199.64029873220295 M141.07888633371476,199.64029873220295 L135.48360072666048,207.12164185891208 M135.48360072666048,207.12164185891208 L129.74674621156464,214.33910071525918 M129.74674621156464,214.33910071525918 L123.87474470939071,221.28429578485122 M123.87474470939071,221.28429578485122 L117.87417913366227,227.94863955206927 M117.87417913366227,227.94863955206927 L117.9008182580746,228.0481760635904 M117.9008182580746,228.0481760635904 L117.90924915698173,228.15985471565193 M117.90924915698173,228.15985471565193 L117.8989725585368,228.27706008840312 M117.8989725585368,228.27706008840312 L117.87060243377783,228.3932119206014 M117.87060243377783,228.3932119206014 L117.82576528017745,228.50132714632753 M117.82576528017745,228.50132714632753 L117.76709123493475,228.59518693517487 M117.76709123493475,228.59518693517487 L117.69796691197718,228.66952268035914 M117.69796691197718,228.66952268035914 L117.62242346355191,228.7196978665762 M117.62242346355191,228.7196978665762 L117.54484150806229,228.74307304947308 M117.54484150806229,228.74307304947308 L117.46973075158718,228.73813642539142 M117.46973075158718,228.73813642539142 L117.40146563329881,228.70516159388478 M117.40146563329881,228.70516159388478 L117.34399272409013,228.64617446799718 M117.34399272409013,228.64617446799718 L117.30067116932656,228.56453297450764 M117.30067116932656,228.56453297450764 L111.27821753072936,235.25376330802044 M111.27821753072936,235.25376330802044 L105.37381377228098,242.23844169428946 M105.37381377228098,242.23844169428946 L99.59712995047948,249.5076414613419 M99.59712995047948,249.5076414613419 L93.95758003914528,257.0502209625986 M93.95758003914528,257.0502209625986 L88.46436808148377,264.85423461631547 M88.46436808148377,264.85423461631547 L83.12643282623299,272.9073058808641 M83.12643282623299,272.9073058808641 L77.95245727025537,281.1966332414339 M77.95245727025537,281.1966332414339 L72.95080540489596,289.7089024939735 M72.95080540489596,289.7089024939735 L68.12954504774109,298.4305234085642 M68.12954504774109,298.4305234085642 L63.49640164763855,307.3474232903674 M63.49640164763855,307.3474232903674 L59.05876211317252,316.4450596484386 M59.05876211317252,316.4450596484386 L54.82363384017276,325.70890870068854 M54.82363384017276,325.70890870068854 L50.79765167973591,335.12366942073834 M50.79765167973591,335.12366942073834 L46.98705270208552,344.6742103419474 M46.98705270208552,344.6742103419474 L43.39766735609601,354.3451257239784 M43.39766735609601,354.3451257239784 L40.034901308624285,364.1205288236581 M40.034901308624285,364.1205288236581 L36.90374039046202,373.9848705353314 M36.90374039046202,373.9848705353314 L34.00872320751273,383.9220471544519 M34.00872320751273,383.9220471544519 L31.35394839173256,393.9162169622083 M31.35394839173256,393.9162169622083 L28.943062451068727,403.9512494565753 M28.943062451068727,403.9512494565753 L26.77925541703945,414.0111999219332 M26.77925541703945,414.0111999219332 L24.86525987039323,424.07998511021856 M24.86525987039323,424.07998511021856 L23.203346729939483,434.141854249479 M23.203346729939483,434.141854249479 L21.795327203975717,444.18106355657335 M21.795327203975717,444.18106355657335 L20.642554233417286,454.18166782358855 M20.642554233417286,454.18166782358855 L19.745921377682976,464.12843534819115 M19.745921377682976,464.12843534819115 L19.10587029779066,474.0059593066418 M19.10587029779066,474.0059593066418 L18.72239334596577,483.79934292709027 M18.72239334596577,483.79934292709027 L18.595040976981522,493.493539458084 M18.595040976981522,493.493539458084 L18.56450801076045,510.0963690122146 M18.595040976981522,493.493539458084 L6.217894668888107,489.39741127774766 M6.217894668888107,489.39741127774766 L6.217893074403605,505.96778208493765 M6.217894668888107,489.39741127774766 L6.327487498510493,479.7223789316847 M6.327487498510493,479.7223789316847 L6.693178282991198,469.9486923146179 M6.693178282991198,469.9486923146179 L7.315441994014861,460.0913660028997 M7.315441994014861,460.0913660028997 L8.194311379560531,450.16526392424055 M8.194311379560531,450.16526392424055 L9.329370784361345,440.18575810123764 M9.329370784361345,440.18575810123764 L10.719752317321536,430.1680448629746 M10.719752317321536,430.1680448629746 L12.36413001802822,420.12803172147994 M12.36413001802822,420.12803172147994 L14.260719302838936,410.0814243004553 M14.260719302838936,410.0814243004553 L16.407275917673246,400.04393437285626 M16.407275917673246,400.04393437285626 L18.801094596573137,390.0316047278168 M18.801094596573137,390.0316047278168 L21.439012415798004,380.0603391569251 M21.439012415798004,380.0603391569251 L24.317410372858262,370.1462261614463 M24.317410372858262,370.1462261614463 L27.432216868742955,360.3050653972666 M27.432216868742955,360.3050653972666 L30.77892088273819,350.55291738092615 M30.77892088273819,350.55291738092615 L34.35256320558426,340.90528861520295 M34.35256320558426,340.90528861520295 L38.14776548894457,331.3780220751561 M38.14776548894457,331.3780220751561 L42.1587237743276,321.98648029057006 M42.1587237743276,321.98648029057006 L46.379227035059216,312.74575172185416 M46.379227035059216,312.74575172185416 L50.80266683211818,303.6710937328668 M50.80266683211818,303.6710937328668 L55.42206079297006,294.77698781641345 M55.42206079297006,294.77698781641345 L60.23004709723324,286.07793394317116 M60.23004709723324,286.07793394317116 L65.21892454616614,277.5879631523601 M65.21892454616614,277.5879631523601 L70.38064868385112,269.32062495229945 M70.38064868385112,269.32062495229945 L75.70687837964545,261.2891934142266 M75.70687837964545,261.2891934142266 L81.18895251428484,253.50643102062952 M81.18895251428484,253.50643102062952 L86.8179534074813,245.984676292759 M86.8179534074813,245.984676292759 L92.58469722867517,238.73583784086884 M92.58469722867517,238.73583784086884 L98.47978866609435,231.77102224965336 M98.47978866609435,231.77102224965336 L104.49357581574844,225.10112179156351 M104.49357581574844,225.10112179156351 L104.5370787325528,225.18263023122006 M104.5370787325528,225.18263023122006 L104.59469964319885,225.24154425027734 M104.59469964319885,225.24154425027734 L104.66307092252009,225.27451000226608 M104.66307092252009,225.27451000226608 L104.73823963829602,225.2795023446514 M104.73823963829602,225.2795023446514 L104.81582800092872,225.2562443993089 M104.81582800092872,225.2562443993089 L104.89132621692391,225.206240831547 M104.89132621692391,225.206240831547 L104.96035578042711,225.13212169964197 M104.96035578042711,225.13212169964197 L105.01889162810085,225.0385102566196 M105.01889162810085,225.0385102566196 L105.0635548404531,224.9306610909283 M105.0635548404531,224.9306610909283 L105.09172525096102,224.81477768909565 M105.09172525096102,224.81477768909565 L105.10178842052864,224.69782705337695 M105.10178842052864,224.69782705337695 L105.0931423383775,224.58637511442714 M105.0931423383775,224.58637511442714 L105.06629902574969,224.4870238639977 M206.10865648232254,-46.52989228387844 L205.6911230450321,-35.859315373314644 M205.6911230450321,-35.859315373314644 L205.0257154382066,-25.175765523141422 M205.0257154382066,-25.175765523141422 L204.11426310345985,-14.492015858847367 M204.11426310345985,-14.492015858847367 L202.95884009629856,-3.8206521777234457 M202.95884009629856,-3.8206521777234457 L201.5617351383022,6.825437407222466 M201.5617351383022,6.825437407222466 L199.92546344206414,17.43389301776199 M199.92546344206414,17.43389301776199 L198.05276399098761,27.99214462863563 M198.05276399098761,27.99214462863563 L195.94659684865928,38.48812023630228 M195.94659684865928,38.48812023630228 L193.6101188974228,48.90963608663549 M193.6101188974228,48.90963608663549 L191.04671475346754,59.244615553077324 M191.04671475346754,59.244615553077324 L188.25992903304086,69.48144806209086 M188.25992903304086,69.48144806209086 L185.25357871926587,79.60835008469019 M185.25357871926587,79.60835008469019 L182.03158988573625,89.61375002816851 M182.03158988573625,89.61375002816851 L178.5981093606373,99.48648153503393 M178.5981093606373,99.48648153503393 L174.9574635000514,109.21518799672901 M174.9574635000514,109.21518799672901 L171.1141627419023,118.78901686241613 M171.1141627419023,118.78901686241613 L167.0728875078911,128.1971369602669 M167.0728875078911,128.1971369602669 L162.8384986716825,137.42884126629417 M162.8384986716825,137.42884126629417 L158.41601738291195,146.47377427307913 M158.41601738291195,146.47377427307913 L153.81063067561183,155.32144917058224 M153.81063067561183,155.32144917058224 L149.02768892610266,163.96205711143364 M149.02768892610266,163.96205711143364 L144.07271019137806,172.38563484965573 M144.07271019137806,172.38563484965573 L138.95135718525307,180.5825291938287 M138.95135718525307,180.5825291938287 L133.66945850296747,188.54314789627335 M133.66945850296747,188.54314789627335 L128.23299963158001,196.25830312221854 M128.23299963158001,196.25830312221854 L122.64809437481972,203.7190940755014 M122.64809437481972,203.7190940755014 L116.92103961497577,210.91641882784813 M116.92103961497577,210.91641882784813 L111.0582495093023,217.84191767227628 M111.0582495093023,217.84191767227628 L105.06629902574969,224.4870238639977 M206.10865648232254,-46.52989228387844 L-197.3766710910686,45.855901459777556 M-189.67596696028238,317.36594679754296 L-197.3766710910686,45.855901459777556 M-189.67596696028238,317.36594679754296 L-203.53825441868207,321.29722889423783 M-195.87323488319237,573.5450911472853 L-203.53825441868207,321.29722889423783 M-203.53825441868207,321.29722889423783 L-190.76461930610105,325.25036114158434 M117.30067116932656,228.56453297450764 L104.49357581574844,225.10112179156351 M117.87417913366227,227.94863955206927 L105.06629902574969,224.4870238639977 M219.36461845302165,-43.73704697276355 L206.10865648232254,-46.52989228387844 M-184.1184932016697,49.16015481802981 L-197.3766710910686,45.855901459777556 M-176.89931516017464,321.2972312624612 L-189.67596696028238,317.36594679754296" stroke="black"  stroke-width="4"  fill="red"/>
<path d="M108.05195818030603,475.95658064527856 L108.28162802698455,460.73728272105154 M108.28162802698455,460.73728272105154 L108.41894483471287,460.7927371201513 M108.41894483471287,460.7927371201513 L108.51211371668785,460.8569854338765 M108.51211371668785,460.8569854338765 L108.55572875933643,460.9262911677771 M108.55572875933643,460.9262911677771 L108.54725290284438,460.99662610879795 M108.54725290284438,460.99662610879795 L108.48715004260242,461.06390917517285 M108.48715004260242,461.06390917517285 L108.37892664612991,461.12422292152644 M108.37892664612991,461.12422292152644 L108.22887348072743,461.17405853964044 M108.22887348072743,461.17405853964044 L108.04569078541266,461.2105242214998 M108.04569078541266,461.2105242214998 L107.8400323982072,461.23149722049095 M107.8400323982072,461.23149722049095 L107.62387384593109,461.2357510028254 M107.62387384593109,461.2357510028254 L107.4097638489921,461.22304532954354 M107.4097638489921,461.22304532954354 L107.21015582612313,461.194118052406 M107.21015582612313,461.194118052406 L107.03666786893308,461.1506476192109 M107.03666786893308,461.1506476192109 L106.8993693007339,461.09516800396796 M106.8993693007339,461.09516800396796 L106.80625255106384,461.03090009789696 M106.80625255106384,461.03090009789696 L106.7627122034582,460.9615850825829 M106.7627122034582,460.9615850825829 L106.7712682057421,460.89125329645844 M106.7712682057421,460.89125329645844 L106.83143830818926,460.82398509925645 M106.83143830818926,460.82398509925645 L106.93970063346995,460.7636945294033 M106.93970063346995,460.7636945294033 L107.08975549829745,460.7138850839309 M107.08975549829745,460.7138850839309 L107.27290227455109,460.6774425783375 M107.27290227455109,460.6774425783375 L107.47849535057293,460.6564844496439 M107.47849535057293,460.6564844496439 L107.69457416665034,460.65223382055547 M107.69457416665034,460.65223382055547 L107.90860826325326,460.6649302126915 M107.90860826325326,460.6649302126915 L108.10816160962668,460.693837899365 M108.10816160962668,460.693837899365 L108.28162802698455,460.73728272105154 M108.05195818030603,475.95658064527856 L107.87888846722456,475.9128112560719 M107.87888846722456,475.9128112560719 L107.67978837743209,475.883687602852 M107.67978837743209,475.883687602852 L107.46623773949347,475.8708963564259 M107.46623773949347,475.8708963564259 L107.25064450859594,475.87517874186403 M107.25064450859594,475.87517874186403 L107.04551099935833,475.89629344747595 M107.04551099935833,475.89629344747595 L106.86277104888302,475.93300820980005 M106.86277104888302,475.93300820980005 L106.7130466283968,475.9831897682583 M106.7130466283968,475.9831897682583 L106.6050192052225,476.0439307431277 M106.6050192052225,476.0439307431277 L106.54497478576474,476.1117014597572 M106.54497478576474,476.1117014597572 L106.53642787460365,476.1825586374579 M106.53642787460365,476.1825586374579 L106.57986021046077,476.2523914348318 M106.57986021046077,476.2523914348318 L106.67275808516996,476.31713940867735 M106.67275808516996,476.31713940867735 L106.80973958797455,476.3730334353652 M106.80973958797455,476.3730334353652 L106.9828307417095,476.4168285697782 M106.9828307417095,476.4168285697782 L107.18198525932087,476.44597191538674 M107.18198525932087,476.44597191538674 L107.39561145499619,476.4587724912468 M107.39561145499619,476.4587724912468 L107.61128406405561,476.45448693615685 M107.61128406405561,476.45448693615685 L107.81648259299976,476.43335728288037 M107.81648259299976,476.43335728288037 L107.99925830441504,476.39661922370954 M107.99925830441504,476.39661922370954 L108.14898103692417,476.34641135643903 M108.14898103692417,476.34641135643903 L108.25696970968653,476.2856470844872 M108.25696970968653,476.2856470844872 L108.31694719142439,476.21786142132305 M108.31694719142439,476.21786142132305 L108.32541431758955,476.1470010723127 M108.32541431758955,476.1470010723127 L108.28190762116975,476.07717760464095 M108.28190762116975,476.07717760464095 L108.18895784569321,476.0124493250755 M108.18895784569321,476.0124493250755 L108.05195818030603,475.95658064527856 M109.21491594915324,460.42740254986256 L109.55823115521508,460.56599398025753 M109.55823115521508,460.56599398025753 L109.79126497830697,460.7265732168397 M109.79126497830697,460.7265732168397 L109.90044766185679,460.89981867386246 M109.90044766185679,460.89981867386246 L109.87939313559411,461.0756663776325 M109.87939313559411,461.0756663776325 L109.72927222977825,461.2438989743041 M109.72927222977825,461.2438989743041 L109.45879659976396,461.3947237611019 M109.45879659976396,461.3947237611019 L109.08363841463091,461.5193713815024 M109.08363841463091,461.5193713815024 L108.62562350193667,461.6105758234984 M108.62562350193667,461.6105758234984 L108.11136388966463,461.66303287495293 M108.11136388966463,461.66303287495293 L107.57080458259998,461.673678279804 M107.57080458259998,461.673678279804 L107.0353916300881,461.64189500070233 M107.0353916300881,461.64189500070233 L106.53628357380376,461.569535407143 M106.53628357380376,461.569535407143 L106.10251526804524,461.46081489021503 M106.10251526804524,461.46081489021503 L105.75931082038932,461.32206482098366 M105.75931082038932,461.32206482098366 L105.52660218715346,461.1613629390781 M105.52660218715346,461.1613629390781 L105.4178869629539,460.98805966983 M105.4178869629539,460.98805966983 L105.43944210326646,460.8122315857198 M105.43944210326646,460.8122315857198 L105.58998326751652,460.64409191970844 M105.58998326751652,460.64409191970844 L105.86070220271478,460.49341198191803 M105.86070220271478,460.49341198191803 L106.23587101011026,460.36892795301617 M106.23587101011026,460.36892795301617 L106.69366142803807,460.27786835829795 M106.69366142803807,460.27786835829795 L107.20751285023573,460.2255042402785 M107.20751285023573,460.2255042402785 L107.74757410372905,460.21487865102415 M107.74757410372905,460.21487865102415 L108.28251206350734,460.2466037227547 M108.28251206350734,460.2466037227547 L108.78127902849843,460.3188410651129 M108.78127902849843,460.3188410651129 L109.21491594915324,460.42740254986256 M109.24216608259337,458.63792613227724 L109.58557454655494,458.7763953940804 M109.58557454655494,458.7763953940804 L109.81867284719817,458.93683308791117 M109.81867284719817,458.93683308791117 L109.9278874665199,459.10992584731684 M109.9278874665199,459.10992584731684 L109.9068304569912,459.2856185702541 M109.9068304569912,459.2856185702541 L109.75667276792086,459.4537029073539 M109.75667276792086,459.4537029073539 L109.48612817918143,459.60439478383284 M109.48612817918143,459.60439478383284 L109.11087284947894,459.72893256765667 M109.11087284947894,459.72893256765667 L108.65273825751422,459.82005664575604 M108.65273825751422,459.82005664575604 L108.1383433899847,459.87246747647214 M108.1383433899847,459.87246747647214 L107.59764113658031,459.8831035016012 M107.59764113658031,459.8831035016012 L107.06208587361988,459.8513482270249 M107.06208587361988,459.8513482270249 L106.56284443537987,459.779052391411 M106.56284443537987,459.779052391411 L106.12895944329091,459.6704276743293 M106.12895944329091,459.6704276743293 L105.78566179347774,459.5317998715061 M105.78566179347774,459.5317998715061 L105.55288885289673,459.37123960806684 M105.55288885289673,459.37123960806684 L105.44414193923353,459.1980890720489 M105.44414193923353,459.1980890720489 L105.46569982824957,459.02241595669443 M105.46569982824957,459.02241595669443 L105.6162779998308,458.8544244929235 M105.6162779998308,458.8544244929235 L105.88706602504703,458.7038773760902 M105.88706602504703,458.7038773760902 L106.26233198544799,458.5795030828418 M106.26233198544799,458.5795030828418 L106.72024196629246,458.48852376266007 M106.72024196629246,458.48852376266007 L107.23422842925527,458.4362058080469 M107.23422842925527,458.4362058080469 L107.77443236568467,458.42558958626296 M107.77443236568467,458.42558958626296 L108.30951238361996,458.45728668943013 M108.30951238361996,458.45728668943013 L108.80841254773202,458.5294603492106 M108.80841254773202,458.5294603492106 L109.24216608259337,458.63792613227724 M109.24216608259337,458.63792613227724 L109.21491594915324,460.42740254986256" stroke="black"  stroke-width="4"  fill="red"/>
<path d="M-189.67596696028238,317.36594679754296 L-203.53825441868207,321.29722889423783 M-203.53825441868207,321.29722889423783 L-211.80764463571973,49.16015282731621 M-197.3766710910686,45.855901459777556 L-211.80764463571973,49.16015282731621 M-189.67596696028238,317.36594679754296 L-197.3766710910686,45.855901459777556 M-183.5471131711074,578.0286202005632 L-127.8942999229887,598.271889813093 M-127.8942999229887,598.271889813093 L-128.25861800104963,580.2725354086941 M-128.25861800104963,580.2725354086941 L-63.2797082708517,603.6596170077581 M-63.08881786871041,621.8443701429903 L-63.2797082708517,603.6596170077581 M-63.08881786871041,621.8443701429903 L229.7934159846384,728.377960784319 M229.7934159846384,728.377960784319 L230.4473960869567,709.3772996527235 M230.4473960869567,709.3772996527235 L305.86718632674797,736.5222424633376 M304.9801773946085,755.7265491787506 L305.86718632674797,736.5222424633376 M304.9801773946085,755.7265491787506 L538.0412598901167,840.5006702660465 M538.0412598901167,840.5006702660465 L561.5699021493974,558.079765719499 M561.5699021493974,558.079765719499 L578.9574435232229,563.4607907684486 M578.9574435232229,563.4607907684486 L605.5591546637402,254.09661685538902 M-211.80764463571973,49.16015282731621 L605.5591546637402,254.09661685538902 M-203.53825441868207,321.29722889423783 L-190.76461930610105,325.25036114158434 M-183.5471131711074,578.0286202005632 L-190.76461930610105,325.25036114158434 M592.6425539417489,558.079765719499 L575.2669410397762,552.7334137848408 M551.2323893345979,834.5086572045104 L575.2669410397762,552.7334137848408 M551.2323893345979,834.5086572045104 L318.28498831951686,750.245555804241 M318.28498831951686,750.245555804241 L319.20875582374595,731.0818719805333 M319.20875582374595,731.0818719805333 L243.8124542189488,704.0962172084724 M243.12150933136945,723.056980941518 L243.8124542189488,704.0962172084724 M243.12150933136945,723.056980941518 L-49.73234229189603,617.1241665496842 M-49.73234229189603,617.1241665496842 L-49.88602153781045,598.9763969367027 M-49.88602153781045,598.9763969367027 L-114.87211180679924,575.7167388413068 M-114.54494640376834,593.6797709114574 L-114.87211180679924,575.7167388413068 M-114.54494640376834,593.6797709114574 L-170.20775275243727,573.5450938335283 M-170.20775275243727,573.5450938335283 L-176.89931516017464,321.2972312624612 M-176.89931516017464,321.2972312624612 L-189.67596696028238,317.36594679754296 M619.787777083006,249.51272328314224 L-197.3766710910686,45.855901459777556 M592.6425539417489,558.079765719499 L619.787777083006,249.51272328314224 M-183.5471131711074,578.0286202005632 L-170.20775275243727,573.5450938335283 M-190.76461930610105,325.25036114158434 L-176.89931516017464,321.2972312624612 M-114.54494640376834,593.6797709114574 L-127.8942999229887,598.271889813093 M-114.87211180679924,575.7167388413068 L-128.25861800104963,580.2725354086941 M-63.08881786871041,621.8443701429903 L-49.73234229189603,617.1241665496842 M-63.2797082708517,603.6596170077581 L-49.88602153781045,598.9763969367027 M243.12150933136945,723.056980941518 L229.7934159846384,728.377960784319 M243.8124542189488,704.0962172084724 L230.4473960869567,709.3772996527235 M304.9801773946085,755.7265491787506 L318.28498831951686,750.245555804241 M305.86718632674797,736.5222424633376 L319.20875582374595,731.0818719805333 M551.2323893345979,834.5086572045104 L538.0412598901167,840.5006702660465 M575.2669410397762,552.7334137848408 L561.5699021493974,558.079765719499 M578.9574435232229,563.4607907684486 L592.6425539417489,558.079765719499 M605.5591546637402,254.09661685538902 L619.787777083006,249.51272328314224" stroke="black"  stroke-width="4"  fill="red"/></svg>