<svg viewBox="0 0 800 800" xmlns="http://www.w3.org/2000/svg"><path d="M565.4507121817178,564.9037257623227 L565.4507221884853,564.9035404619697 M565.4495200532249,564.904414038029 L565.4495300599754,564.9042287376632 M565.4507121817178,564.9037257623227 L565.4495200532249,564.904414038029 M565.4507221884853,564.9035404619697 L565.4495300599754,564.9042287376632 M553.5192323180513,571.7923688734413 L553.5192421539214,571.792183445571 M565.4495200532249,564.904414038029 L553.5192323180513,571.7923688734413 M565.4495300599754,564.9042287376632 L553.5192421539214,571.792183445571 M-109.93905970546678,234.27368463608107 L-109.93906005082937,234.2735057696124 M553.5192323180513,571.7923688734413 L-109.93905970546678,234.27368463608107 M553.5192421539214,571.792183445571 L-109.93906005082937,234.2735057696124 M-97.9588915551675,228.20780986925067 L-97.95889172743261,228.2076311265587 M-109.93905970546678,234.27368463608107 L-97.9588915551675,228.20780986925067 M-109.93906005082937,234.2735057696124 L-97.95889172743261,228.2076311265587 M-76.07199136103179,239.31592447207683 L-76.07199121749522,239.31574550287687 M-97.9588915551675,228.20780986925067 L-76.07199136103179,239.31592447207683 M-97.95889172743261,228.2076311265587 L-76.07199121749522,239.31574550287687 M-75.16731486968013,239.77628538740842 L-75.16731471306076,239.77610640883566 M-76.07199136103179,239.31592447207683 L-75.77071603919211,239.46950475210323 M-75.77071603919211,239.46950475210323 L-75.4691556860929,239.6229583983792 M-75.4691556860929,239.6229583983792 L-75.16731486968013,239.77628538740842 M-76.07199121749522,239.31574550287687 L-75.77071589129895,239.4693257797763 M-75.77071589129895,239.4693257797763 L-75.46915553383889,239.62277942292823 M-75.46915553383889,239.62277942292823 L-75.16731471306076,239.77610640883566 M410.6040742204817,302.2556294449412 L410.6040814822751,302.2554492054172 M-75.16731486968013,239.77628538740842 L-62.2367513334446,246.10027755380443 M-62.2367513334446,246.10027755380443 L-48.82324831634293,252.19142624143623 M-48.82324831634293,252.19142624143623 L-34.945519415251454,258.039627330794 M-34.945519415251454,258.039627330794 L-20.623183579159218,263.6351190046172 M-20.623183579159218,263.6351190046172 L-5.876738886302746,268.9685059719611 M-5.876738886302746,268.9685059719611 L9.27245557926318,274.030774699665 M9.27245557926318,274.030774699665 L24.80225185027541,278.8133339060479 M24.80225185027541,278.8133339060479 L40.689710687646084,283.30801856509026 M40.689710687646084,283.30801856509026 L56.9111470344418,287.507112515961 M56.9111470344418,287.507112515961 L73.44221433384973,291.4033900440852 M73.44221433384973,291.4033900440852 L90.25787001790161,294.99009510142105 M90.25787001790161,294.99009510142105 L107.33253388737148,298.2610126821718 M107.33253388737148,298.2610126821718 L124.64001609812965,301.2104295701878 M124.64001609812965,301.2104295701878 L142.15366554804086,303.833192320133 M142.15366554804086,303.833192320133 L159.8463579389296,306.12469448865477 M159.8463579389296,306.12469448865477 L177.69061315738975,308.0809123541344 M177.69061315738975,308.0809123541344 L195.65860689877707,309.6983987186994 M195.65860689877707,309.6983987186994 L213.722235639955,310.9743067265821 M213.722235639955,310.9743067265821 L231.85316586255874,311.9063626146367 M231.85316586255874,311.9063626146367 L250.02294216459984,312.4929245366711 M250.02294216459984,312.4929245366711 L268.20299850664367,312.7329544568041 M268.20299850664367,312.7329544568041 L286.36473704594096,312.6260319138378 M286.36473704594096,312.6260319138378 L304.47959559414994,312.1723332815726 M304.47959559414994,312.1723332815726 L322.5191250131902,311.37268396303256 M322.5191250131902,311.37268396303256 L340.45498241112057,310.22847579698725 M340.45498241112057,310.22847579698725 L358.25906585293797,308.74174573068694 M358.25906585293797,308.74174573068694 L375.9035359649803,306.91511498386524 M375.9035359649803,306.91511498386524 L393.3609167581958,304.75180356727446 M393.3609167581958,304.75180356727446 L410.6040742204817,302.2556294449412 M-75.16731471306076,239.77610640883566 L-62.23675098959325,246.1000984466041 M-62.23675098959325,246.1000984466041 L-48.82324777783043,252.19124701055634 M-48.82324777783043,252.19124701055634 L-34.94551867492248,258.0394479813641 M-34.94551867492248,258.0394479813641 L-20.623182630150893,263.63493954193973 M-20.623182630150893,263.63493954193973 L-5.876737722061421,268.9683264015041 M-5.876737722061421,268.9683264015041 L9.27245696496442,274.0305950270558 M9.27245696496442,274.0305950270558 L24.802253463320994,278.8131541370627 M24.802253463320994,278.8131541370627 L40.6897125335621,283.3078387056478 M40.6897125335621,283.3078387056478 L56.91114911838099,287.5069325721124 M56.91114911838099,287.5069325721124 L73.44221666057751,291.40321002200585 M73.44221666057751,291.40321002200585 L90.25787259178253,294.98991500740203 M90.25787259178253,294.98991500740203 L107.33253671235764,298.26083252261026 M107.33253671235764,298.26083252261026 L124.64001917774851,301.21024935157754 M124.64001917774851,301.21024935157754 L142.15366888538563,303.83301204905456 M142.15366888538563,303.83301204905456 L159.84636153664985,306.1245141717666 M159.84636153664985,306.1245141717666 L177.69061701768373,308.08073199816306 M177.69061701768373,308.08073199816306 L195.65861102338488,309.6982183304284 M195.65861102338488,309.6982183304284 L213.72224003015333,310.9741263128427 M213.72224003015333,310.9741263128427 L231.85317051915592,311.90618218229815 M231.85317051915592,311.90618218229815 L250.02294708793386,312.49274409263023 M250.02294708793386,312.49274409263023 L268.20300369658025,312.7327740079753 M268.20300369658025,312.7327740079753 L286.36474250187325,312.6258514671418 M286.36474250187325,312.6258514671418 L304.47960131499985,312.1721528439273 M304.47960131499985,312.1721528439273 L322.5191309974107,311.3725035413429 M322.5191309974107,311.3725035413429 L340.4549886566998,310.22829539813404 M340.4549886566998,310.22829539813404 L358.25907235740317,308.74156536151736 M358.25907235740317,308.74156536151736 L375.9035427254057,306.91493465118276 M375.9035427254057,306.91493465118276 L393.36092377120985,304.75162327782846 M393.36092377120985,304.75162327782846 L410.6040814822751,302.2554492054172 M411.98986568041346,301.81774446171937 L411.9898729618578,301.81756423095646 M410.6040742204817,302.2556294449412 L410.55932455488414,302.151333627523 M410.55932455488414,302.151333627523 L410.5637786837244,302.04580531754493 M410.5637786837244,302.04580531754493 L410.6171969372531,301.9450946038055 M410.6171969372531,301.9450946038055 L410.71642881571836,301.8549843163697 M410.71642881571836,301.8549843163697 L410.8558498538531,301.780714401616 M410.8558498538531,301.780714401616 L411.02735364071873,301.72650669215506 M411.02735364071873,301.72650669215506 L411.2211445757288,301.69553680036427 M411.2211445757288,301.69553680036427 L411.42595834096653,301.68953499972133 M411.42595834096653,301.68953499972133 L411.63006923230887,301.708881582622 M411.63006923230887,301.708881582622 L411.8217187563022,301.7524547231136 M411.8217187563022,301.7524547231136 L411.98986568041346,301.81774446171937 M410.6040814822751,302.2554492054172 L410.5593318158774,302.1511533900856 M410.5593318158774,302.1511533900856 L410.5637859446356,302.04562508221886 M410.5637859446356,302.04562508221886 L410.61720419880487,301.94491437049425 M410.61720419880487,301.94491437049425 L410.7164360785954,301.8548040848617 M410.7164360785954,301.8548040848617 L410.85585711866497,301.7805341715938 M410.85585711866497,301.7805341715938 L411.0273609079625,301.7263264632177 M411.0273609079625,301.7263264632177 L411.2211518457626,301.6953565720465 M411.2211518457626,301.6953565720465 L411.4259656139867,301.6893547715236 M411.4259656139867,301.6893547715236 L411.6300765083404,301.7087013540372 M411.6300765083404,301.7087013540372 L411.8217260351968,301.75227449365707 M411.8217260351968,301.75227449365707 L411.9898729618578,301.81756423095646 M412.2228606713619,302.0032831749613 L412.22286795647267,302.0031029404858 M411.98986568041346,301.81774446171937 L412.0865377579089,301.8731906614945 M412.0865377579089,301.8731906614945 L412.1649176256734,301.93561066541713 M412.1649176256734,301.93561066541713 L412.2228606713619,302.0032831749613 M411.9898729618578,301.81756423095646 L412.0865450408444,301.8730104296219 M412.0865450408444,301.8730104296219 L412.1649249098424,301.93543043229573 M412.1649249098424,301.93543043229573 L412.22286795647267,302.0031029404858 M909.9390453090334,366.01329389858154 L909.9390600508293,366.01311239491883 M412.2228606713619,302.0032831749613 L429.44788452210526,299.50974275822546 M429.44788452210526,299.50974275822546 L446.858247824582,297.3525807630064 M446.858247824582,297.3525807630064 L464.43320272373285,295.5339334157262 M464.43320272373285,295.5339334157262 L482.151861399504,294.0555675289303 M482.151861399504,294.0555675289303 L499.9932575655308,292.9189606086517 M499.9932575655308,292.9189606086517 L517.9363130690887,292.12519045472914 M517.9363130690887,292.12519045472914 L535.9599028469702,291.6750515910246 M535.9599028469702,291.6750515910246 L554.0428246799725,291.568981259843 M554.0428246799725,291.568981259843 L572.163872658535,291.80708891326503 M572.163872658535,291.80708891326503 L590.3017584444754,292.3891469893082 M590.3017584444754,292.3891469893082 L608.4351232775925,293.3145714000884 M608.4351232775925,293.3145714000884 L626.542668185921,294.5824580728972 M626.542668185921,294.5824580728972 L644.6030753171297,296.1915713334555 M644.6030753171297,296.1915713334555 L662.5949859359748,298.1403409802945 M662.5949859359748,298.1403409802945 L680.4971607077212,300.42683956417426 M680.4971607077212,300.42683956417426 L698.2882760000005,303.048796840671 M698.2882760000005,303.048796840671 L715.9471535081043,306.0036611784834 M715.9471535081043,306.0036611784834 L733.4525919376304,309.28846991675834 M733.4525919376304,309.28846991675834 L750.7835805188361,312.89991865876857 M750.7835805188361,312.89991865876857 L767.9190130862619,316.8344208261491 M767.9190130862619,316.8344208261491 L784.8380626818434,321.08800425210893 M784.8380626818434,321.08800425210893 L801.5199138959119,325.656359778028 M801.5199138959119,325.656359778028 L817.9439694504649,330.5348320449834 M817.9439694504649,330.5348320449834 L834.08972702999,335.71842892738493 M834.08972702999,335.71842892738493 L849.9367920232885,341.20175333804457 M849.9367920232885,341.20175333804457 L865.465115446508,346.97914660750973 M865.465115446508,346.97914660750973 L880.6547318358691,353.04452295047247 M880.6547318358691,353.04452295047247 L895.4858437928176,359.391473565924 M895.4858437928176,359.391473565924 L909.9390453090334,366.01329389858154 M412.22286795647267,302.0031029404858 L429.4478920554691,299.5095625736576 M429.4478920554691,299.5095625736576 L446.8582556091678,297.35240062164183 M446.8582556091678,297.35240062164183 L464.4332107622564,295.5337533108059 M464.4332107622564,295.5337533108059 L482.1518696944273,294.0553874536487 M482.1518696944273,294.0553874536487 L499.99326611906076,292.91878055616496 M499.99326611906076,292.91878055616496 L517.9363218831763,292.12501041816665 M517.9363218831763,292.12501041816665 L535.9599119233109,291.6748715634941 M535.9599119233109,291.6748715634941 L554.0428340200058,291.5688012344407 M554.0428340200058,291.5688012344407 L572.1638822634425,291.80690888308493 M572.1638822634425,291.80690888308493 L590.3017683151804,292.3889669474497 M590.3017683151804,292.3889669474497 L608.4351334147584,293.31439133966694 M608.4351334147584,293.31439133966694 L626.5426785899508,294.5822779870507 M626.5426785899508,294.5822779870507 L644.6030859881641,296.19139121535443 M644.6030859881641,296.19139121535443 L662.5949968738908,298.14016082315004 M662.5949968738908,298.14016082315004 L680.4971719121315,300.42665936124706 M680.4971719121315,300.42665936124706 L698.2882874702502,303.0486165852803 M698.2882874702502,303.0486165852803 L715.9471652432705,306.00348086401425 M715.9471652432705,306.00348086401425 L733.4526039365194,309.28828953667164 M733.4526039365194,309.28828953667164 L750.7835927799829,312.8997382066092 M750.7835927799829,312.8997382066092 L767.9190256079257,316.8342402955534 M767.9190256079257,316.8342402955534 L784.8380754620086,321.0878236368138 M784.8380754620086,321.0878236368138 L801.5199269322836,325.65617907187874 M801.5199269322836,325.65617907187874 L817.9439827404692,330.5346512419417 M817.9439827404692,330.5346512419417 L834.0897405707699,335.71824802153765 M834.0897405707699,335.71824802153765 L849.9368058117029,341.20157232361123 M849.9368058117029,341.20157232361123 L865.4651294791304,346.9789654788499 M865.4651294791304,346.9789654788499 L880.6547461089849,353.044341702094 M880.6547461089849,353.044341702094 L895.4858583024211,359.3912921924907 M895.4858583024211,359.3912921924907 L909.9390600508293,366.01311239491883 M909.9390453090334,366.01329389858154 L565.4507121817178,564.9037257623227 M909.9390600508293,366.01311239491883 L565.4507221884853,564.9035404619697" stroke="black"  stroke-width="4"  fill="red"/></svg>