<svg viewBox="0 0 800 800" xmlns="http://www.w3.org/2000/svg"><path d="M213.38943036515116,376.0925997680061 L37.88314298478548,450.85698633193203 M37.85516164571601,436.3651945397462 L37.88314298478548,450.85698633193203 M37.85516164571601,436.3651945397462 L37.85443779576974,436.1653855114391 M37.85443779576974,436.1653855114391 L37.85384854959631,435.96550680221543 M37.85384854959631,435.96550680221543 L37.853395080917664,435.76555793131473 M213.76819601052205,361.37852967011764 L37.853395080917664,435.76555793131473 M213.38943036515116,376.0925997680061 L213.76819601052205,361.37852967011764 M729.0478870810391,746.775594308624 L714.0244273596093,740.3433777846567 M539.6609533969382,838.9283086713498 L714.0244273596093,740.3433777846567 M539.6609533969382,838.9283086713498 L325.7435190977393,740.3437143244207 M313.3008225121372,746.7759326992978 L325.7435190977393,740.3437143244207 M243.9601641797003,714.6536530541096 L313.3008225121372,746.7759326992978 M256.42045456245273,708.395938686188 L243.9601641797003,714.6536530541096 M256.42045456245273,708.395938686188 L-15.08513045629752,583.2716445879234 M-27.56432473192217,588.86907337042 L-15.08513045629752,583.2716445879234 M-87.9501912046087,560.8951294232328 L-27.56432473192217,588.86907337042 M-75.4776206205949,555.4395552402135 L-87.9501912046087,560.8951294232328 M-75.4776206205949,555.4395552402135 L-127.4329331960165,531.4957685582368 M49.41861810411899,455.7958403010049 L-127.4329331960165,531.4957685582368 M49.41861810411899,455.7958403010049 L37.88314298478548,450.85698633193203 M900.1542235061147,649.4134913980238 L213.38943036515116,376.0925997680061 M729.0478870810391,746.775594308624 L900.1542235061147,649.4134913980238 M133.60761245584348,414.90761642772156 L133.44576063537312,414.85512458715385 M133.44576063537312,414.85512458715385 L133.2593352335653,414.82019701390993 M133.2593352335653,414.82019701390993 L133.05917925600517,414.80485663301494 M133.05917925600517,414.80485663301494 L132.8569227833733,414.80999244570864 M132.8569227833733,414.80999244570864 L132.66429504698795,414.83531502964485 M132.66429504698795,414.83531502964485 L132.49250271522516,414.87934645265955 M132.49250271522516,414.87934645265955 L132.35153158664997,414.93952818151786 M132.35153158664997,414.93952818151786 L132.24955555515788,415.0123732870534 M132.24955555515788,415.0123732870534 L132.19250825996244,415.0936485719229 M132.19250825996244,415.0936485719229 L132.1837281936161,415.1786248886638 M132.1837281936161,415.1786248886638 L132.2237111010703,415.26237224134206 M132.2237111010703,415.26237224134206 L132.31014274630854,415.34002118114984 M132.31014274630854,415.34002118114984 L132.43801576551311,415.40705171583676 M132.43801576551311,415.40705171583676 L132.59988622170863,415.45957252946846 M132.59988622170863,415.45957252946846 L132.78635930300265,415.4945222527647 M132.78635930300265,415.4945222527647 L132.98658165275208,415.5098731274326 M132.98658165275208,415.5098731274326 L133.1889079850855,415.5047337495062 M133.1889079850855,415.5047337495062 L133.38159306973455,415.47939435239584 M133.38159306973455,415.47939435239584 L133.55341709601214,415.43533672502514 M133.55341709601214,415.43533672502514 L133.69438700649977,415.3751254039425 M133.69438700649977,415.3751254039425 L133.79632918619689,415.3022540937852 M133.79632918619689,415.3022540937852 L133.85331774904108,415.22096199701303 M133.85331774904108,415.22096199701303 L133.86202766210397,415.13598211317407 M133.86202766210397,415.13598211317407 L133.8219792463721,415.0522452545704 M133.8219792463721,415.0522452545704 L133.73550174523297,414.9746184669426 M133.73550174523297,414.9746184669426 L133.60761245584348,414.90761642772156 M809.5015296259294,693.6551353610308 L809.2972833277042,693.5871300198808 M809.2972833277042,693.5871300198808 L809.0717747365895,693.5418825445117 M809.0717747365895,693.5418825445117 L808.8381334528726,693.5220204087593 M808.8381334528726,693.5220204087593 L808.609891622174,693.5286772701237 M808.609891622174,693.5286772701237 L808.4002769642843,693.5614736089148 M808.4002769642843,693.5614736089148 L808.221544916478,693.6185215347948 M808.221544916478,693.6185215347948 L808.0840404810219,693.6964883290661 M808.0840404810219,693.6964883290661 L807.9957376736929,693.7908570479419 M807.9957376736929,693.7908570479419 L807.9618213852502,693.8961623493215 M807.9618213852502,693.8961623493215 L807.9842246908515,694.0062511214182 M807.9842246908515,694.0062511214182 L808.0616440074646,694.1147409241828 M808.0616440074646,694.1147409241828 L808.1896324365669,694.2153407439055 M808.1896324365669,694.2153407439055 L808.3607499700488,694.3021870789577 M808.3607499700488,694.3021870789577 L808.5650321394724,694.3702347948546 M808.5650321394724,694.3702347948546 L808.7906121176889,694.4155149327621 M808.7906121176889,694.4155149327621 L809.0243918135886,694.4354122883918 M809.0243918135886,694.4354122883918 L809.2527225998583,694.4287501669105 M809.2527225998583,694.4287501669105 L809.4624042689211,694.3959290415692 M809.4624042689211,694.3959290415692 L809.6411659966645,694.3388424700839 M809.6411659966645,694.3388424700839 L809.7786560070815,694.2608320376739 M809.7786560070815,694.2608320376739 L809.8669035865644,694.1664246777304 M809.8669035865644,694.1664246777304 L809.9007364745557,694.0610945826013 M809.9007364745557,694.0610945826013 L809.8782407360654,693.9510005511472 M809.8782407360654,693.9510005511472 L809.8006932376368,693.8425064770568 M809.8006932376368,693.8425064770568 L809.6726550165233,693.7419393235434 M809.6726550165233,693.7419393235434 L809.5015296259294,693.6551353610308 M49.417283917197494,441.2805393239531 L37.85516164571601,436.3651945397462 M49.417283917197494,441.2805393239531 L49.41861810411899,455.7958403010049 M49.416620418282264,440.6799273069265 L49.416706174086244,440.8802016420531 M49.416706174086244,440.8802016420531 L49.41692773163527,441.080405486692 M49.41692773163527,441.080405486692 L49.417283917197494,441.2805393239531 M37.853395080917664,435.76555793131473 L49.416620418282264,440.6799273069265 M715.847356284102,723.912909779612 L730.9172082796149,730.3175950625705 M730.9172082796149,730.3175950625705 L902.3980157281742,633.3822476108048 M902.3980157281742,633.3822476108048 L213.76819601052205,361.37852967011764 M49.416620418282264,440.6799273069265 L-127.87662284709302,516.0114119239379 M-127.87662284709302,516.0114119239379 L-75.79491705514988,539.8415251497067 M-75.79491705514988,539.8415251497067 L-88.29991284994588,545.2713860336073 M-88.29991284994588,545.2713860336073 L-27.76350424819867,573.1145737849357 M-27.76350424819867,573.1145737849357 L-15.251834023989602,567.5431624469409 M-15.251834023989602,567.5431624469409 L256.9795778424616,692.1033178747233 M256.9795778424616,692.1033178747233 L244.48696448782027,698.3337780868145 M244.48696448782027,698.3337780868145 L314.02589194038853,730.3175950625705 M314.02589194038853,730.3175950625705 L326.50076690507626,723.912909779612 M326.50076690507626,723.912909779612 L541.0624100663606,822.0861199825583 M715.847356284102,723.912909779612 L541.0624100663606,822.0861199825583 M134.684101005824,399.6233504304075 L135.00461672581173,399.7899600473022 M135.00461672581173,399.7899600473022 L135.22144007635808,399.9830003200372 M135.22144007635808,399.9830003200372 L135.3219465535405,400.1912645267912 M135.3219465535405,400.1912645267912 L135.30025911681236,400.40265405426373 M135.30025911681236,400.40265405426373 L135.15759111483544,400.60488657066804 M135.15759111483544,400.60488657066804 L134.90222412052316,400.7861908521675 M134.90222412052316,400.7861908521675 L134.5489563989678,400.9360263052506 M134.5489563989678,400.9360263052506 L134.11834044457402,401.04565970070365 M134.11834044457402,401.04565970070365 L133.63539525493388,401.10871597034975 M133.63539525493388,401.10871597034975 L133.12824048666022,401.1215123021981 M133.12824048666022,401.1215123021981 L132.6263764351702,401.08330711100007 M132.6263764351702,401.08330711100007 L132.1590068652232,400.9963266732485 M132.1590068652232,400.9963266732485 L131.75331853525824,400.86563735303014 M131.75331853525824,400.86563735303014 L131.43290193203774,400.6988488684077 M131.43290193203774,400.6988488684077 L131.21636592955906,400.50567028514024 M131.21636592955906,400.50567028514024 L131.11627138601642,400.2973409035465 M131.11627138601642,400.2973409035465 L131.13839908003894,400.08597349201546 M131.13839908003894,400.08597349201546 L131.28143590237943,399.88384576496514 M131.28143590237943,399.88384576496514 L131.537015488076,399.70270481636067 M131.537015488076,399.70270481636067 L131.89029087741864,399.55305383035386 M131.89029087741864,399.55305383035386 L132.32070781891593,399.44358376584177 M132.32070781891593,399.44358376584177 L132.8032928998545,399.3806322886756 M132.8032928998545,399.3806322886756 L133.31000925913514,399.3678583083937 M133.31000925913514,399.3678583083937 L133.81145593893427,399.4059978498119 M133.81145593893427,399.4059978498119 L134.2785266822056,399.492840450825 M134.2785266822056,399.492840450825 L134.684101005824,399.6233504304075 M812.402594210535,676.9441598301975 L812.8317828278114,677.1601510409384 M812.8317828278114,677.1601510409384 L813.1530472431787,677.4103852081912 M813.1530472431787,677.4103852081912 L813.3478117577788,677.6803866758846 M813.3478117577788,677.6803866758846 L813.404633557157,677.9544388208458 M813.404633557157,677.9544388208458 L813.3201768816352,678.2166283409082 M813.3201768816352,678.2166283409082 L813.0993118608792,678.4516865577646 M813.0993118608792,678.4516865577646 L812.7548368538219,678.6459518989471 M812.7548368538219,678.6459518989471 L812.3067856634564,678.7880986840999 M812.3067856634564,678.7880986840999 L811.7811739167096,678.8698520560379 M811.7811739167096,678.8698520560379 L811.2086201368704,678.8864415527859 M811.2086201368704,678.8864415527859 L810.6224106205534,678.8368951685638 M810.6224106205534,678.8368951685638 L810.056743894809,678.7241336354392 M810.056743894809,678.7241336354392 L809.5444114980926,678.554677790086 M809.5444114980926,678.554677790086 L809.1153200432252,678.3384418600574 M809.1153200432252,678.3384418600574 L808.79432028928,678.0879842263123 M808.79432028928,678.0879842263123 L808.6001083713029,677.817905863277 M808.6001083713029,677.817905863277 L808.5438674646584,677.5438865390752 M808.5438674646584,677.5438865390752 L808.6288482807995,677.2818517017325 M808.6288482807995,677.2818517017325 L808.8500605815602,677.0470345800609 M808.8500605815602,677.0470345800609 L809.1946264826204,676.8530415315215 M809.1946264826204,676.8530415315215 L809.6424913534086,676.7111358430881 M809.6424913534086,676.7111358430881 L810.167682227345,676.6295371498701 M810.167682227345,676.6295371498701 L810.7396770240946,676.6129804678951 M810.7396770240946,676.6129804678951 L811.3252694807247,676.6624106346005 M811.3252694807247,676.6624106346005 L811.8905354807314,676.7749880237443 M811.8905354807314,676.7749880237443 L812.402594210535,676.9441598301975 M900.1542235061147,649.4134913980238 L902.3980157281742,633.3822476108048 M730.8434504533031,730.9716941880558 L715.7754442010876,724.5659112183573 M730.8434504533031,730.9716941880558 L729.0478870810391,746.775594308624 M715.7754442010876,724.5659112183573 L714.0244273596093,740.3433777846567 M715.7754442010876,724.5659112183573 L715.799280710291,724.3483342990298 M715.799280710291,724.3483342990298 L715.8232510210153,724.1306673622769 M715.8232510210153,724.1306673622769 L715.847356284102,723.912909779612 M539.6609533969382,838.9283086713498 L541.0624100663606,822.0861199825583 M325.7435190977393,740.3437143244207 L326.50076690507626,723.912909779612 M313.3008225121372,746.7759326992978 L314.02589194038853,730.3175950625705 M243.9601641797003,714.6536530541096 L244.48696448782027,698.3337780868145 M256.42045456245273,708.395938686188 L256.9795778424616,692.1033178747233 M-15.08513045629752,583.2716445879234 L-15.251834023989602,567.5431624469409 M-27.56432473192217,588.86907337042 L-27.76350424819867,573.1145737849357 M-87.9501912046087,560.8951294232328 L-88.29991284994588,545.2713860336073 M-75.4776206205949,555.4395552402135 L-75.79491705514988,539.8415251497067 M-127.4329331960165,531.4957685582368 L-127.87662284709302,516.0114119239379 M730.9172082796149,730.3175950625705 L730.8924878380647,730.5357190225334 M730.8924878380647,730.5357190225334 L730.8679022792242,730.7537518536948 M730.8679022792242,730.7537518536948 L730.8434504533031,730.9716941880558 M133.60761245584348,414.90761642772156 L133.7844551137631,401.5647189689997 M133.7844551137631,401.5647189689997 L133.91262078752044,401.6314185171006 M133.91262078752044,401.6314185171006 L133.99928803455572,401.7086948582507 M133.99928803455572,401.7086948582507 L134.03942853967317,401.79205370053944 M134.03942853967317,401.79205370053944 L134.03070769191527,401.8766499715981 M134.03070769191527,401.8766499715981 L133.9736057376869,401.9575751169605 M133.9736057376869,401.9575751169605 L133.87145431604227,402.03011749875134 M133.87145431604227,402.03011749875134 L133.7301914698317,402.09005704481194 M133.7301914698317,402.09005704481194 L133.55800779838978,402.13391581466465 M133.55800779838978,402.13391581466465 L133.36491728116738,402.1591408422762 M133.36491728116738,402.1591408422762 L133.16216334652592,402.1642570237577 M133.16216334652592,402.1642570237577 L132.96151606081725,402.14897543501644 M132.96151606081725,402.14897543501644 L132.7746454368464,402.11418345857084 M132.7746454368464,402.11418345857084 L132.61242797765266,402.06189970434275 M132.61242797765266,402.06189970434275 L132.48427863926963,401.9951717289051 M132.48427863926963,401.9951717289051 L132.39765744039948,401.91787328892826 M132.39765744039948,401.91787328892826 L132.35758272007166,401.8345039778393 M132.35758272007166,401.8345039778393 L132.36637401852641,401.74991126528755 M132.36637401852641,401.74991126528755 L132.4235349553095,401.66900289133673 M132.4235349553095,401.66900289133673 L132.52572037440382,401.5964866510545 M132.52572037440382,401.5964866510545 L132.6669844464481,401.53657662594594 M132.6669844464481,401.53657662594594 L132.83913629143916,401.49274399733724 M132.83913629143916,401.49274399733724 L133.0321692189964,401.46753574240506 M133.0321692189964,401.46753574240506 L133.23485299838984,401.46242311757 M133.23485299838984,401.46242311757 L133.43543362990334,401.4776942378123 M133.43543362990334,401.4776942378123 L133.62225637052683,401.5124641175537 M133.62225637052683,401.5124641175537 L133.7844551137631,401.5647189689997 M809.5015296259294,693.6551353610308 L811.3304504469315,679.1349078274652 M811.3304504469315,679.1349078274652 L811.5020572537933,679.2213704433519 M811.5020572537933,679.2213704433519 L811.6304841550821,679.3215421477581 M811.6304841550821,679.3215421477581 L811.7083050957692,679.4296096262866 M811.7083050957692,679.4296096262866 L811.7309429825723,679.5392707963381 M811.7309429825723,679.5392707963381 L811.6971127696563,679.6441867843444 M811.6971127696563,679.6441867843444 L811.6087280634524,679.7382229997935 M811.6087280634524,679.7382229997935 L811.4709691974276,679.8159267631502 M811.4709691974276,679.8159267631502 L811.291822465033,679.8727889280316 M811.291822465033,679.8727889280316 L811.0816619147361,679.9054810370195 M811.0816619147361,679.9054810370195 L810.8527864308846,679.9121169706848 M810.8527864308846,679.9121169706848 L810.618427717128,679.8922978288981 M810.618427717128,679.8922978288981 L810.3922682359489,679.8471956842391 M810.3922682359489,679.8471956842391 L810.1874397303711,679.7794154675015 M810.1874397303711,679.7794154675015 L810.0158407846166,679.6929105440282 M810.0158407846166,679.6929105440282 L809.8874638893328,679.5927062234861 M809.8874638893328,679.5927062234861 L809.8097716364402,679.4846429623663 M809.8097716364402,679.4846429623663 L809.7872266324962,679.3749870436103 M809.7872266324962,679.3749870436103 L809.8211406679009,679.2700958113472 M809.8211406679009,679.2700958113472 L809.909580899201,679.1760981777331 M809.909580899201,679.1760981777331 L810.0473542947391,679.0984379856227 M810.0473542947391,679.0984379856227 L810.2264712349784,679.041614407107 M810.2264712349784,679.041614407107 L810.4365644707652,679.0089470466738 M810.4365644707652,679.0089470466738 L810.6653505742595,679.0023163650628 M810.6653505742595,679.0023163650628 L810.8995702957604,679.02210038833 M810.8995702957604,679.02210038833 L811.1256580194408,679.0671699205188 M811.1256580194408,679.0671699205188 L811.3304504469315,679.1349078274652 M134.684101005824,399.6233504304075 L134.66309389572712,401.1919952817588 M134.66309389572712,401.1919952817588 L134.98352835731265,401.35869410968337 M134.98352835731265,401.35869410968337 L135.20029588219683,401.55183773712054 M135.20029588219683,401.55183773712054 L135.3007752226432,401.7602134391816 M135.3007752226432,401.7602134391816 L135.27909093278225,401.97171612411796 M135.27909093278225,401.97171612411796 L135.13645619937938,402.17405688583847 M135.13645619937938,402.17405688583847 L134.88115067234662,402.3554582021565 M134.88115067234662,402.3554582021565 L134.52796905968842,402.50537384165625 M134.52796905968842,402.50537384165625 L134.09745884648493,402.61506590533793 M134.09745884648493,402.61506590533793 L133.61463288254942,402.67815591699804 M133.61463288254942,402.67815591699804 L133.1076038750099,402.6909590961659 M133.1076038750099,402.6909590961659 L132.60586479466065,402.65273346124275 M132.60586479466065,402.65273346124275 L132.13861212523648,402.5657064786189 M132.13861212523648,402.5657064786189 L131.7330258186838,402.434947220554 M131.7330258186838,402.434947220554 L131.4126904266721,402.2680694736152 M131.4126904266721,402.2680694736152 L131.19621010855866,402.0747874958837 M131.19621010855866,402.0747874958837 L131.09614249817014,401.8663466003326 M131.09614249817014,401.8663466003326 L131.1182668265742,401.6548660376569 M131.1182668265742,401.6548660376569 L131.26127019625534,401.4526300953711 M131.26127019625534,401.4526300953711 L131.51678820750277,401.27139215883403 M131.51678820750277,401.27139215883403 L131.8699774822419,401.1216610393633 M131.8699774822419,401.1216610393633 L132.3002887796136,401.0121323535082 M132.3002887796136,401.0121323535082 L132.7827548124497,400.94914716440906 M132.7827548124497,400.94914716440906 L133.28934562837196,400.93636634325316 M133.28934562837196,400.93636634325316 L133.79066754465913,400.9745263094923 M133.79066754465913,400.9745263094923 L134.25762153724702,401.0614154158694 M134.25762153724702,401.0614154158694 L134.66309389572712,401.1919952817588 M812.402594210535,676.9441598301975 L812.1872848167816,678.6517659901987 M812.1872848167816,678.6517659901987 L812.6163318154524,678.8678579984995 M812.6163318154524,678.8678579984995 L812.9374818360195,679.1182089291575 M812.9374818360195,679.1182089291575 L813.1321658021861,679.3883363665907 M813.1321658021861,679.3883363665907 L813.1889456301963,679.6625163526578 M813.1889456301963,679.6625163526578 L813.1044880217921,679.924828162663 M813.1044880217921,679.924828162663 L812.88366318726,680.1599960004393 M812.88366318726,680.1599960004393 L812.5392671691388,680.35435192818 M812.5392671691388,680.35435192818 L812.0913291814506,680.4965649909104 M812.0913291814506,680.4965649909104 L811.565858275638,680.5783564790315 M811.565858275638,680.5783564790315 L810.9934647611574,680.594953710161 M810.9934647611574,680.594953710161 L810.407425604546,680.5453842261426 M810.407425604546,680.5453842261426 L809.8419293777315,680.4325701184284 M809.8419293777315,680.4325701184284 L809.3297577260521,680.2630352590716 M809.3297577260521,680.2630352590716 L808.9008078715249,680.046698492045 M808.9008078715249,680.046698492045 L808.5799223703657,679.7961240482509 M808.5799223703657,679.7961240482509 L808.3857907094491,679.5259197068943 M808.3857907094491,679.5259197068943 L808.3295914429134,679.2517725476209 M808.3295914429134,679.2517725476209 L808.4145728812534,678.9896154487761 M808.4145728812534,678.9896154487761 L808.6357447768762,678.7546887505129 M808.6357447768762,678.7546887505129 L808.9802316119876,678.5606051654797 M808.9802316119876,678.5606051654797 L809.4279833626333,678.4186332437973 M809.4279833626333,678.4186332437973 L809.953033618822,678.336996462836 M809.953033618822,678.336996462836 L810.5248684629089,678.3204320525127 M810.5248684629089,678.3204320525127 L811.110290905825,678.3698852920897 M811.110290905825,678.3698852920897 L811.6753866642009,678.482515227523 M811.6753866642009,678.482515227523 L812.1872848167816,678.6517659901987" stroke="black"  stroke-width="4"  fill="red"/>
<path d="M729.0478870810391,746.775594308624 L542.4719028243932,852.9401616728278 M729.0478870810391,746.775594308624 L714.0244273596093,740.3433777846567 M527.3052977373434,845.9141838181233 L714.0244273596093,740.3433777846567 M542.4719028243932,852.9401616728278 L527.3052977373434,845.9141838181233 M730.8434504533031,730.9716941880558 L729.0478870810391,746.775594308624 M846.5124760897284,458.4724315454573 L840.4697152012873,466.0625060868413 M840.4697152012873,466.0625060868413 L834.4990106275252,473.9118763132702 M834.4990106275252,473.9118763132702 L828.6101595817411,482.00809348667815 M828.6101595817411,482.00809348667815 L822.8128011153929,490.3385202299071 M822.8128011153929,490.3385202299071 L817.1164519305962,498.8897943994359 M817.1164519305962,498.8897943994359 L811.5304434548227,507.64818345237626 M811.5304434548227,507.64818345237626 L806.0639243197068,516.5995916049203 M806.0639243197068,516.5995916049203 L800.7258107766629,525.7294910184468 M800.7258107766629,525.7294910184468 L795.5247897883107,535.0231396493205 M795.5247897883107,535.0231396493205 L790.4692882500467,544.465400538044 M790.4692882500467,544.465400538044 L785.5674742630104,554.0407545358187 M785.5674742630104,554.0407545358187 L780.8271792548217,563.7337701560623 M780.8271792548217,563.7337701560623 L776.2559797768213,573.5283485573748 M776.2559797768213,573.5283485573748 L771.8610754110423,583.40863251957 M771.8610754110423,583.40863251957 L767.6493269254702,593.3585865175444 M767.6493269254702,593.3585865175444 L763.6272687541184,603.3618009042484 M763.6272687541184,603.3618009042484 L759.8010082447872,613.4022824986741 M759.8010082447872,613.4022824986741 L756.1763199462523,623.4635977052876 M756.1763199462523,623.4635977052876 L752.7585455421863,633.5296614412446 M752.7585455421863,633.5296614412446 L749.5526513436953,643.5842104233154 M749.5526513436953,643.5842104233154 L746.5631707192024,653.6112593416753 M746.5631707192024,653.6112593416753 L743.7942389691682,663.5947923803237 M743.7942389691682,663.5947923803237 L741.2495377822233,673.5192149065882 M741.2495377822233,673.5192149065882 L738.932334632425,683.3690422350611 M738.932334632425,683.3690422350611 L736.8455021943255,693.1287041639391 M736.8455021943255,693.1287041639391 L734.9914238390604,702.7834154155115 M734.9914238390604,702.7834154155115 L733.3720963521432,712.3183277371019 M733.3720963521432,712.3183277371019 L731.9890539014486,721.719185647517 M731.9890539014486,721.719185647517 L730.8434504533031,730.9716941880558 M847.0856164155791,457.769841870832 L847.0984186952433,457.8596378501817 M847.0984186952433,457.8596378501817 L847.093823825697,457.9646585794426 M847.093823825697,457.9646585794426 L847.0721041786501,458.0786830278332 M847.0721041786501,458.0786830278332 L847.0345118920623,458.19530223883237 M847.0345118920623,458.19530223883237 L846.9832371062294,458.3075209203636 M846.9832371062294,458.3075209203636 L846.9212742568448,458.40887417542586 M846.9212742568448,458.40887417542586 L846.8521836537,458.49365435434396 M846.8521836537,458.49365435434396 L846.7800269074587,458.55662936061856 M846.7800269074587,458.55662936061856 L846.7089590440069,458.5944054716685 M846.7089590440069,458.5944054716685 L846.6431275727273,458.60464055012153 M846.6431275727273,458.60464055012153 L846.586367997653,458.5867251100317 M846.586367997653,458.5867251100317 L846.5419488623261,458.5418089798055 M846.5419488623261,458.5418089798055 L846.5124760897284,458.4724315454573 M966.1743528352438,177.7188408267043 L964.6206320207273,188.0617349430778 M964.6206320207273,188.0617349430778 L962.8472337807395,198.46349448020146 M962.8472337807395,198.46349448020146 L960.8572825147589,208.9112506478681 M960.8572825147589,208.9112506478681 L958.6540231358513,219.3927518672648 M958.6540231358513,219.3927518672648 L956.2409319194228,229.8953051830947 M956.2409319194228,229.8953051830947 L953.6216180686279,240.4066898994206 M953.6216180686279,240.4066898994206 L950.7999032474283,250.91444768973906 M950.7999032474283,250.91444768973906 L947.7797406637951,261.4065624967242 M947.7797406637951,261.4065624967242 L944.5652613771219,271.8708786334632 M944.5652613771219,271.8708786334632 L941.1607773447913,282.29530409121617 M941.1607773447913,282.29530409121617 L937.5706820939977,292.66816737423363 M937.5706820939977,292.66816737423363 L933.7996207189965,302.97758105939886 M933.7996207189965,302.97758105939886 L929.8522947024314,313.21184675662056 M929.8522947024314,313.21184675662056 L925.7335743679191,323.3596004428436 M925.7335743679191,323.3596004428436 L921.4484759231407,333.40927400431195 M921.4484759231407,333.40927400431195 L917.0021329289693,343.34973801333416 M917.0021329289693,343.34973801333416 L912.3997935509965,353.169862205236 M912.3997935509965,353.169862205236 L907.6468715602634,362.85858509517965 M907.6468715602634,362.85858509517965 L902.7488685985707,372.4051523813494 M902.7488685985707,372.4051523813494 L897.7114415849335,381.79864777467174 M897.7114415849335,381.79864777467174 L892.5403116088353,391.02876837219196 M892.5403116088353,391.02876837219196 L887.2413600003738,400.0850250925127 M887.2413600003738,400.0850250925127 L881.8205572395191,408.9571916282572 M881.8205572395191,408.9571916282572 L876.2840095849433,417.6350607227705 M876.2840095849433,417.6350607227705 L870.6379138176949,426.1087742916666 M870.6379138176949,426.1087742916666 L864.8885454814756,434.36871587071454 M864.8885454814756,434.36871587071454 L859.0423613764021,442.4050313808594 M859.0423613764021,442.4050313808594 L853.1058383160414,450.208545268258 M853.1058383160414,450.208545268258 L847.0856164155791,457.769841870832 M597.7348254672577,346.25400973624556 L966.1743528352438,177.7188408267043 M575.4022950951304,606.2702014666074 L597.7348254672577,346.25400973624556 M562.6112361530933,612.8675274941659 L575.4022950951304,606.2702014666074 M542.4719028243932,852.9401616728278 L562.6112361530933,612.8675274941659 M730.8434504533031,730.9716941880558 L715.7754442010876,724.5659112183573 M715.7754442010876,724.5659112183573 L714.0244273596093,740.3433777846567 M527.3052977373434,845.9141838181233 L546.7662662764639,606.2702014666074 M559.5663950332519,599.7120622563476 L546.7662662764639,606.2702014666074 M559.5663950332519,599.7120622563476 L581.1587659230954,340.2229230630746 M949.9860093969019,172.6847551111299 L581.1587659230954,340.2229230630746 M949.9860093969019,172.6847551111299 L948.461585160032,183.0061830916377 M948.461585160032,183.0061830916377 L946.7170433008469,193.3860712178997 M946.7170433008469,193.3860712178997 L944.7554733661577,203.81157427968913 M944.7554733661577,203.81157427968913 L942.5800880890856,214.27046295973332 M942.5800880890856,214.27046295973332 L940.1943311101998,224.75006737472552 M940.1943311101998,224.75006737472552 L937.601781239021,235.23818894074464 M937.601781239021,235.23818894074464 L934.8062299044063,245.7223919225778 M934.8062299044063,245.7223919225778 L931.8116022175946,256.19068202708127 M931.8116022175946,256.19068202708127 L928.6220015178117,266.63092564868646 M928.6220015178117,266.63092564868646 L925.2417130847768,277.0310528613261 M925.2417130847768,277.0310528613261 L921.675105681619,287.3794134945569 M921.675105681619,287.3794134945569 L917.9267999616704,297.6641421456416 M917.9267999616704,297.6641421456416 L914.0014740451466,307.873562114617 M914.0014740451466,307.873562114617 L909.9039767489596,317.996330742997 M909.9039767489596,317.996330742997 L905.6393028130328,328.02090186616095 M905.6393028130328,328.02090186616095 L901.212566356432,337.9361674844421 M901.212566356432,337.9361674844421 L896.6289966876475,347.73101901614086 M896.6289966876475,347.73101901614086 L891.8939896609302,357.3944169288784 M891.8939896609302,357.3944169288784 L887.0130304774646,366.915628632601 M887.0130304774646,366.915628632601 L881.9917597537651,376.28376025485323 M881.9917597537651,376.28376025485323 L876.8358846400758,385.4885305866874 M876.8358846400758,385.4885305866874 L871.5512725677972,394.51947306378383 M871.5512725677972,394.51947306378383 L866.1438813872626,403.3663838695545 M866.1438813872626,403.3663838695545 L860.6198053248906,412.01907873589585 M860.6198053248906,412.01907873589585 L854.9852306404914,420.4677224658384 M854.9852306404914,420.4677224658384 L849.2464234685003,428.7027215652164 M849.2464234685003,428.7027215652164 L843.4098310414035,436.7142460190821 M843.4098310414035,436.7142460190821 L837.4819229108805,444.49314364691895 M837.4819229108805,444.49314364691895 L831.4693316719372,452.0300232735843 M830.8968637988094,452.7303149851451 L830.9266382844398,452.7996402243198 M830.9266382844398,452.7996402243198 L830.9713220321735,452.8445740086212 M830.9713220321735,452.8445740086212 L831.0282939027434,452.8625757564083 M831.0282939027434,452.8625757564083 L831.0942727520071,452.85249085431235 M831.0942727520071,452.85249085431235 L831.1654145308125,452.81492001280066 M831.1654145308125,452.81492001280066 L831.2375678524209,452.7521931652545 M831.2375678524209,452.7521931652545 L831.306577143585,452.6676901201722 M831.306577143585,452.6676901201722 L831.3683863611618,452.5666262844777 M831.3683863611618,452.5666262844777 L831.419443650022,452.45469287023116 M831.419443650022,452.45469287023116 L831.4567669916792,452.33833826371966 M831.4567669916792,452.33833826371966 L831.4781825550674,452.22454202174583 M831.4781825550674,452.22454202174583 L831.4824552093971,452.1197002140593 M831.4824552093971,452.1197002140593 L831.4693316719372,452.0300232735843 M715.7754442010876,724.5659112183573 L716.8952066706079,715.3292005347187 M716.8952066706079,715.3292005347187 L718.2525660535794,705.9449717800985 M718.2525660535794,705.9449717800985 L719.8464077438066,696.4274941587346 M719.8464077438066,696.4274941587346 L721.6752360836565,686.7909959809417 M721.6752360836565,686.7909959809417 L723.7370937235305,677.0502958345098 M723.7370937235305,677.0502958345098 L726.0296358236601,667.2201479875441 M726.0296358236601,667.2201479875441 L728.5500297299457,657.316088842229 M728.5500297299457,657.316088842229 L731.2950470195563,647.3535680140749 M731.2950470195563,647.3535680140749 L734.2610446541025,637.3481435074187 M734.2610446541025,637.3481435074187 L737.4439264596324,627.315792437967 M737.4439264596324,627.315792437967 L740.8391974073693,617.2724601839744 M740.8391974073693,617.2724601839744 L744.4419296141107,607.2343683716466 M744.4419296141107,607.2343683716466 L748.2468186321832,597.2175595684932 M748.2468186321832,597.2175595684932 L752.2481274519259,587.238423121071 M752.2481274519259,587.238423121071 L756.4397843475501,577.3129077071433 M756.4397843475501,577.3129077071433 L760.8152910201941,567.4573767518884 M760.8152910201941,567.4573767518884 L765.3678211187694,557.6878193317247 M765.3678211187694,557.6878193317247 L770.0902083234873,548.0200457242519 M770.0902083234873,548.0200457242519 L774.9749093929058,538.470106652957 M774.9749093929058,538.470106652957 L780.0141236947418,529.0533860510128 M780.0141236947418,529.0533860510128 L785.199713545456,519.7853547798352 M785.199713545456,519.7853547798352 L790.5232807881657,510.6811017360239 M790.5232807881657,510.6811017360239 L795.9761654451188,501.75532119965453 M795.9761654451188,501.75532119965453 L801.5494771192186,493.0224933751977 M801.5494771192186,493.0224933751977 L807.2340911720094,484.4966669316553 M807.2340911720094,484.4966669316553 L813.0206986253768,476.19152785738675 M813.0206986253768,476.19152785738675 L818.899803618981,468.12039235128617 M818.899803618981,468.12039235128617 L824.8617853434232,460.29585319574096 M824.8617853434232,460.29585319574096 L830.8968637988094,452.7303149851451 M546.7662662764639,606.2702014666074 L562.6112361530933,612.8675274941659 M846.5124760897284,458.4724315454573 L830.8968637988094,452.7303149851451 M847.0856164155791,457.769841870832 L831.4693316719372,452.0300232735843 M966.1743528352438,177.7188408267043 L949.9860093969019,172.6847551111299 M597.7348254672577,346.25400973624556 L581.1587659230954,340.2229230630746 M575.4022950951304,606.2702014666074 L559.5663950332519,599.7120622563476" stroke="black"  stroke-width="4"  fill="red"/>
<path d="M809.5015296259294,693.6551353610308 L811.3304504469315,679.1349078274652 M811.3304504469315,679.1349078274652 L811.5020572537933,679.2213704433519 M811.5020572537933,679.2213704433519 L811.6304841550821,679.3215421477581 M811.6304841550821,679.3215421477581 L811.7083050957692,679.4296096262866 M811.7083050957692,679.4296096262866 L811.7309429825723,679.5392707963381 M811.7309429825723,679.5392707963381 L811.6971127696563,679.6441867843444 M811.6971127696563,679.6441867843444 L811.6087280634524,679.7382229997935 M811.6087280634524,679.7382229997935 L811.4709691974276,679.8159267631502 M811.4709691974276,679.8159267631502 L811.291822465033,679.8727889280316 M811.291822465033,679.8727889280316 L811.0816619147361,679.9054810370195 M811.0816619147361,679.9054810370195 L810.8527864308846,679.9121169706848 M810.8527864308846,679.9121169706848 L810.618427717128,679.8922978288981 M810.618427717128,679.8922978288981 L810.3922682359489,679.8471956842391 M810.3922682359489,679.8471956842391 L810.1874397303711,679.7794154675015 M810.1874397303711,679.7794154675015 L810.0158407846166,679.6929105440282 M810.0158407846166,679.6929105440282 L809.8874638893328,679.5927062234861 M809.8874638893328,679.5927062234861 L809.8097716364402,679.4846429623663 M809.8097716364402,679.4846429623663 L809.7872266324962,679.3749870436103 M809.7872266324962,679.3749870436103 L809.8211406679009,679.2700958113472 M809.8211406679009,679.2700958113472 L809.909580899201,679.1760981777331 M809.909580899201,679.1760981777331 L810.0473542947391,679.0984379856227 M810.0473542947391,679.0984379856227 L810.2264712349784,679.041614407107 M810.2264712349784,679.041614407107 L810.4365644707652,679.0089470466738 M810.4365644707652,679.0089470466738 L810.6653505742595,679.0023163650628 M810.6653505742595,679.0023163650628 L810.8995702957604,679.02210038833 M810.8995702957604,679.02210038833 L811.1256580194408,679.0671699205188 M811.1256580194408,679.0671699205188 L811.3304504469315,679.1349078274652 M809.5015296259294,693.6551353610308 L809.2972833277042,693.5871300198808 M809.2972833277042,693.5871300198808 L809.0717747365895,693.5418825445117 M809.0717747365895,693.5418825445117 L808.8381334528726,693.5220204087593 M808.8381334528726,693.5220204087593 L808.609891622174,693.5286772701237 M808.609891622174,693.5286772701237 L808.4002769642843,693.5614736089148 M808.4002769642843,693.5614736089148 L808.221544916478,693.6185215347948 M808.221544916478,693.6185215347948 L808.0840404810219,693.6964883290661 M808.0840404810219,693.6964883290661 L807.9957376736929,693.7908570479419 M807.9957376736929,693.7908570479419 L807.9618213852502,693.8961623493215 M807.9618213852502,693.8961623493215 L807.9842246908515,694.0062511214182 M807.9842246908515,694.0062511214182 L808.0616440074646,694.1147409241828 M808.0616440074646,694.1147409241828 L808.1896324365669,694.2153407439055 M808.1896324365669,694.2153407439055 L808.3607499700488,694.3021870789577 M808.3607499700488,694.3021870789577 L808.5650321394724,694.3702347948546 M808.5650321394724,694.3702347948546 L808.7906121176889,694.4155149327621 M808.7906121176889,694.4155149327621 L809.0243918135886,694.4354122883918 M809.0243918135886,694.4354122883918 L809.2527225998583,694.4287501669105 M809.2527225998583,694.4287501669105 L809.4624042689211,694.3959290415692 M809.4624042689211,694.3959290415692 L809.6411659966645,694.3388424700839 M809.6411659966645,694.3388424700839 L809.7786560070815,694.2608320376739 M809.7786560070815,694.2608320376739 L809.8669035865644,694.1664246777304 M809.8669035865644,694.1664246777304 L809.9007364745557,694.0610945826013 M809.9007364745557,694.0610945826013 L809.8782407360654,693.9510005511472 M809.8782407360654,693.9510005511472 L809.8006932376368,693.8425064770568 M809.8006932376368,693.8425064770568 L809.6726550165233,693.7419393235434 M809.6726550165233,693.7419393235434 L809.5015296259294,693.6551353610308 M812.1872848167816,678.6517659901987 L812.6163318154524,678.8678579984995 M812.6163318154524,678.8678579984995 L812.9374818360195,679.1182089291575 M812.9374818360195,679.1182089291575 L813.1321658021861,679.3883363665907 M813.1321658021861,679.3883363665907 L813.1889456301963,679.6625163526578 M813.1889456301963,679.6625163526578 L813.1044880217921,679.924828162663 M813.1044880217921,679.924828162663 L812.88366318726,680.1599960004393 M812.88366318726,680.1599960004393 L812.5392671691388,680.35435192818 M812.5392671691388,680.35435192818 L812.0913291814506,680.4965649909104 M812.0913291814506,680.4965649909104 L811.565858275638,680.5783564790315 M811.565858275638,680.5783564790315 L810.9934647611574,680.594953710161 M810.9934647611574,680.594953710161 L810.407425604546,680.5453842261426 M810.407425604546,680.5453842261426 L809.8419293777315,680.4325701184284 M809.8419293777315,680.4325701184284 L809.3297577260521,680.2630352590716 M809.3297577260521,680.2630352590716 L808.9008078715249,680.046698492045 M808.9008078715249,680.046698492045 L808.5799223703657,679.7961240482509 M808.5799223703657,679.7961240482509 L808.3857907094491,679.5259197068943 M808.3857907094491,679.5259197068943 L808.3295914429134,679.2517725476209 M808.3295914429134,679.2517725476209 L808.4145728812534,678.9896154487761 M808.4145728812534,678.9896154487761 L808.6357447768762,678.7546887505129 M808.6357447768762,678.7546887505129 L808.9802316119876,678.5606051654797 M808.9802316119876,678.5606051654797 L809.4279833626333,678.4186332437973 M809.4279833626333,678.4186332437973 L809.953033618822,678.336996462836 M809.953033618822,678.336996462836 L810.5248684629089,678.3204320525127 M810.5248684629089,678.3204320525127 L811.110290905825,678.3698852920897 M811.110290905825,678.3698852920897 L811.6753866642009,678.482515227523 M811.6753866642009,678.482515227523 L812.1872848167816,678.6517659901987 M812.402594210535,676.9441598301975 L812.8317828278114,677.1601510409384 M812.8317828278114,677.1601510409384 L813.1530472431787,677.4103852081912 M813.1530472431787,677.4103852081912 L813.3478117577788,677.6803866758846 M813.3478117577788,677.6803866758846 L813.404633557157,677.9544388208458 M813.404633557157,677.9544388208458 L813.3201768816352,678.2166283409082 M813.3201768816352,678.2166283409082 L813.0993118608792,678.4516865577646 M813.0993118608792,678.4516865577646 L812.7548368538219,678.6459518989471 M812.7548368538219,678.6459518989471 L812.3067856634564,678.7880986840999 M812.3067856634564,678.7880986840999 L811.7811739167096,678.8698520560379 M811.7811739167096,678.8698520560379 L811.2086201368704,678.8864415527859 M811.2086201368704,678.8864415527859 L810.6224106205534,678.8368951685638 M810.6224106205534,678.8368951685638 L810.056743894809,678.7241336354392 M810.056743894809,678.7241336354392 L809.5444114980926,678.554677790086 M809.5444114980926,678.554677790086 L809.1153200432252,678.3384418600574 M809.1153200432252,678.3384418600574 L808.79432028928,678.0879842263123 M808.79432028928,678.0879842263123 L808.6001083713029,677.817905863277 M808.6001083713029,677.817905863277 L808.5438674646584,677.5438865390752 M808.5438674646584,677.5438865390752 L808.6288482807995,677.2818517017325 M808.6288482807995,677.2818517017325 L808.8500605815602,677.0470345800609 M808.8500605815602,677.0470345800609 L809.1946264826204,676.8530415315215 M809.1946264826204,676.8530415315215 L809.6424913534086,676.7111358430881 M809.6424913534086,676.7111358430881 L810.167682227345,676.6295371498701 M810.167682227345,676.6295371498701 L810.7396770240946,676.6129804678951 M810.7396770240946,676.6129804678951 L811.3252694807247,676.6624106346005 M811.3252694807247,676.6624106346005 L811.8905354807314,676.7749880237443 M811.8905354807314,676.7749880237443 L812.402594210535,676.9441598301975 M812.402594210535,676.9441598301975 L812.1872848167816,678.6517659901987" stroke="black"  stroke-width="4"  fill="red"/>
<path d="M49.41861810411899,455.7958403010049 L-139.89665271229978,536.8307665622954 M49.41861810411899,455.7958403010049 L37.88314298478548,450.85698633193203 M-151.413036342871,531.4957653612837 L37.88314298478548,450.85698633193203 M-139.89665271229978,536.8307665622954 L-151.413036342871,531.4957653612837 M-139.89665271229978,536.8307665622954 L-146.62668271201892,317.5641082834013 M-146.62668271201892,317.5641082834013 L-133.70499039675883,312.6067990017128 M-133.70499039675883,312.6067990017128 L-140.43673108221026,77.67530287540183 M-140.43673108221026,77.67530287540183 L236.76268170423396,-49.10615139064828 M236.76268170423396,-49.10615139064828 L236.3889614190614,-39.774287956422995 M236.3889614190614,-39.774287956422995 L235.78205374863637,-30.400365677351942 M235.78205374863637,-30.400365677351942 L234.94361234068379,-20.996131495370832 M234.94361234068379,-20.996131495370832 L233.87551562612248,-11.572777023635467 M233.87551562612248,-11.572777023635467 L232.5798527455962,-2.141896295134643 M232.5798527455962,-2.141896295134643 L231.0589333345057,7.285343628908436 M231.0589333345057,7.285343628908436 L229.3152837998456,16.697560863347235 M229.3152837998456,16.697560863347235 L227.35164610575498,26.083776384385033 M227.35164610575498,26.083776384385033 L225.1709539536098,35.43288654905177 M225.1709539536098,35.43288654905177 L222.77636227699963,44.73385080570449 M222.77636227699963,44.73385080570449 L220.1711840975522,53.97601303672661 M220.1711840975522,53.97601303672661 L217.3589951441271,63.148532554015674 M217.3589951441271,63.148532554015674 L214.34347172405114,72.24074226253924 M214.34347172405114,72.24074226253924 L211.12853231923384,81.24229199104616 M211.12853231923384,81.24229199104616 L207.7182432170896,90.14265447375419 M207.7182432170896,90.14265447375419 L204.11686915708083,98.931714459143 M204.11686915708083,98.931714459143 L200.3288136745698,107.59936677557175 M200.3288136745698,107.59936677557175 L196.3586834544967,116.1355854973757 M196.3586834544967,116.1355854973757 L192.21123307395135,124.53063851224408 M192.21123307395135,124.53063851224408 L187.89137842942637,132.77466308743965 M187.89137842942637,132.77466308743965 L183.40419516968404,140.85837277750431 M183.40419516968404,140.85837277750431 L178.75492132334068,148.77233145391915 M178.75492132334068,148.77233145391915 L173.9489359466029,156.5073617161196 M173.9489359466029,156.5073617161196 L168.99177841778067,164.05432570763537 M168.99177841778067,164.05432570763537 L163.8891400235284,171.40442643776896 M163.8891400235284,171.40442643776896 L158.6468365300197,178.54910917637164 M158.6468365300197,178.54910917637164 L153.27085873920845,185.47962967700425 M153.27085873920845,185.47962967700425 L147.76731121571248,192.18788547574047 M147.76731121571248,192.18788547574047 L142.1424517668056,198.66558289521333 M142.1424517668056,198.66558289521333 L142.16776860819243,198.74927472987997 M142.16776860819243,198.74927472987997 L142.17599620931594,198.845585337996 M142.17599620931594,198.845585337996 L142.1666472662646,198.94880960068247 M142.1666472662646,198.94880960068247 L142.14028142037625,199.05314796861285 M142.14028142037625,199.05314796861285 L142.09840938688353,199.1523363823526 M142.09840938688353,199.1523363823526 L142.04348773166845,199.24066363971428 M142.04348773166845,199.24066363971428 L141.97868694387415,199.31316114965398 M141.97868694387415,199.31316114965398 L141.9077853056005,199.36533847234716 M141.9077853056005,199.36533847234716 L141.83489506374195,199.39440518493893 M141.83489506374195,199.39440518493893 L141.7642528475222,199.39853845937648 M141.7642528475222,199.39853845937648 L141.6999728350567,199.37748555349492 M141.6999728350567,199.37748555349492 L141.64577151547508,199.33256781655734 M141.64577151547508,199.33256781655734 L141.60481653038477,199.2663325441033 M141.60481653038477,199.2663325441033 L135.95987426913575,205.76765929951182 M135.95987426913575,205.76765929951182 L130.42708084846214,212.5126085706836 M130.42708084846214,212.5126085706836 L125.01538173686811,219.49066499979472 M125.01538173686811,219.49066499979472 L119.73352870455062,226.69114625655538 M119.73352870455062,226.69114625655538 L114.59005305301685,234.10271086948433 M114.59005305301685,234.10271086948433 L109.59324301927813,241.71367786830933 M109.59324301927813,241.71367786830933 L104.75114880954027,249.5120319192265 M104.75114880954027,249.5120319192265 L100.07152128455567,257.485354009082 M100.07152128455567,257.485354009082 L95.56184391758006,265.6210205149253 M95.56184391758006,265.6210205149253 L91.22927784669565,273.90603205794986 M91.22927784669565,273.90603205794986 L87.08066604236586,282.3270230893612 M87.08066604236586,282.3270230893612 L83.1225080524182,290.87068652238656 M83.1225080524182,290.87068652238656 L79.36095592226542,299.523081830596 M79.36095592226542,299.523081830596 L75.8017952383085,308.2704610396447 M75.8017952383085,308.2704610396447 L72.45043500388812,317.09888227074174 M72.45043500388812,317.09888227074174 L69.31189746330926,325.99402749616456 M69.31189746330926,325.99402749616456 L66.39080703316012,334.94192177520836 M66.39080703316012,334.94192177520836 L63.691386761935064,343.92814756382137 M63.691386761935064,343.92814756382137 L61.217447472249205,352.9385627906435 M61.217447472249205,352.9385627906435 L58.97238495707552,361.9588168722536 M58.97238495707552,361.9588168722536 L56.95917374188781,370.9747654112658 M56.95917374188781,370.9747654112658 L55.180366512055286,379.97218595130005 M55.180366512055286,379.97218595130005 L53.63808920359173,388.93718930025767 M53.63808920359173,388.93718930025767 L52.33404477868493,397.85593331827704 M52.33404477868493,397.85593331827704 L51.26950951961123,406.71444174140146 M51.26950951961123,406.71444174140146 L50.44533716702881,415.4994009148175 M50.44533716702881,415.4994009148175 L49.861964881752726,424.19738204259966 M49.861964881752726,424.19738204259966 L49.519410692463794,432.7954412007384 M49.519410692463794,432.7954412007384 L49.417283917197494,441.2805393239531 M49.417283917197494,441.2805393239531 L49.41861810411899,455.7958403010049 M49.417283917197494,441.2805393239531 L37.85516164571601,436.3651945397462 M37.85516164571601,436.3651945397462 L37.88314298478548,450.85698633193203 M37.85516164571601,436.3651945397462 L37.941790950095594,427.89405213379393 M37.941790950095594,427.89405213379393 L38.268824328041035,419.31050990111567 M38.268824328041035,419.31050990111567 L38.83667460484867,410.62758402947026 M38.83667460484867,410.62758402947026 L39.64534558850835,401.85819476925116 M39.64534558850835,401.85819476925116 L40.69442272268475,393.01574549821555 M40.69442272268475,393.01574549821555 L41.983074555212056,384.1135237199891 M41.983074555212056,384.1135237199891 L43.510048214859296,375.16547753937596 M43.510048214859296,375.16547753937596 L45.273663819325066,366.1854202671269 M45.273663819325066,366.1854202671269 L47.27181852745798,357.1872113313757 M47.27181852745798,357.1872113313757 L49.5019832961388,348.1850420330905 M49.5019832961388,348.1850420330905 L51.96120704387363,339.1930249487335 M51.96120704387363,339.1930249487335 L54.64611775152531,330.22547773063764 M54.64611775152531,330.22547773063764 L57.55292794392676,321.2965091521574 M57.55292794392676,321.2965091521574 L60.67743838748004,312.42050231193934 M60.67743838748004,312.42050231193934 L64.01504763059165,303.61139782928456 M64.01504763059165,303.61139782928456 L67.56075699109363,294.8834782391095 M67.56075699109363,294.8834782391095 L71.30918030009991,286.25065003485986 M71.30918030009991,286.25065003485986 L75.25455441216945,277.726625656332 M75.25455441216945,277.726625656332 L79.39075004110049,269.32530933161706 M79.39075004110049,269.32530933161706 L83.71128919005093,261.05997256896126 M83.71128919005093,261.05997256896126 L88.20935049916636,252.94394491032244 M88.20935049916636,252.94394491032244 L92.87779371695359,244.990190099571 M92.87779371695359,244.990190099571 L97.70915549190408,237.2112965456654 M97.70915549190408,237.2112965456654 L102.69570465980564,229.61964827346014 M102.69570465980564,229.61964827346014 L107.82940986938075,222.22722619303613 M107.82940986938075,222.22722619303613 L113.10200105006885,215.0456774004506 M113.10200105006885,215.0456774004506 L118.5049643409697,208.08631007305974 M118.5049643409697,208.08631007305974 L124.02956408240738,201.35977443864033 M124.02956408240738,201.35977443864033 L129.66687049975639,194.8765541401882 M129.66687049975639,194.8765541401882 L129.70798229520727,194.94272235506105 M129.70798229520727,194.94272235506105 L129.76231118921714,194.9876261115527 M129.76231118921714,194.9876261115527 L129.8266822316653,195.00871879145768 M129.8266822316653,195.00871879145768 L129.89737347598737,195.0046769241252 M129.89737347598737,195.0046769241252 L129.97026791034546,194.9757479039257 M129.97026791034546,194.9757479039257 L130.04112890941553,194.92374632064912 M130.04112890941553,194.92374632064912 L130.10584613951488,194.85145281679013 M130.10584613951488,194.85145281679013 L130.1606466805789,194.7633454785007 M130.1606466805789,194.7633454785007 L130.2023667891163,194.66438043256915 M130.2023667891163,194.66438043256915 L130.22855860921857,194.56025596937366 M130.22855860921857,194.56025596937366 L130.23772193167406,194.45722339603037 M130.23772193167406,194.45722339603037 L130.22930751784259,194.36107145366248 M130.22930751784259,194.36107145366248 L130.2038137400882,194.27749586321556 M224.433476620968,-52.9401616728278 L224.07723960771614,-43.62615796672412 M224.07723960771614,-43.62615796672412 L223.4876971450401,-34.27035421170672 M223.4876971450401,-34.27035421170672 L222.66647989448825,-24.884477309624003 M222.66647989448825,-24.884477309624003 L221.61544477629536,-15.479699923156318 M221.61544477629536,-15.479699923156318 L220.33665906532747,-6.067596433615108 M220.33665906532747,-6.067596433615108 L218.83241177141565,3.340684947783757 M218.83241177141565,3.340684947783757 L217.10520869475113,12.733781592180776 M217.10520869475113,12.733781592180776 L215.15777239073896,22.10073302753233 M215.15777239073896,22.10073302753233 L212.99301732734034,31.430454428121493 M212.99301732734034,31.430454428121493 L210.61407976404723,40.71192403718817 M210.61407976404723,40.71192403718817 L208.024255164868,49.93450388649126 M208.024255164868,49.93450388649126 L205.22710182290427,59.087371966614455 M205.22710182290427,59.087371966614455 L202.22627927259032,68.15987958883886 M202.22627927259032,68.15987958883886 L199.0256902744577,77.14169464275722 M199.0256902744577,77.14169464275722 L195.62938542308382,86.02230838951527 M195.62938542308382,86.02230838951527 L192.04161494908112,94.79162359540783 M192.04161494908112,94.79162359540783 L188.26676824260562,103.439553278978 M188.26676824260562,103.439553278978 L184.30943838549126,111.95608984986472 M184.30943838549126,111.95608984986472 L180.17436724419906,120.33151925819561 M180.17436724419906,120.33151925819561 L175.8664580960084,128.5559973545179 M175.8664580960084,128.5559973545179 L171.3907753860368,136.6202555669305 M171.3907753860368,136.6202555669305 L166.7525459733538,144.5148762443331 M166.7525459733538,144.5148762443331 L161.957138520304,152.23070034201237 M161.957138520304,152.23070034201237 L157.01008237676632,159.75860866887388 M157.01008237676632,159.75860866887388 L151.91705971287473,167.08982269023215 M151.91705971287473,167.08982269023215 L146.6838778662481,174.21580608554962 M146.6838778662481,174.21580608554962 L141.31651911406385,181.1278338070689 M141.31651911406385,181.1278338070689 L135.82108089468568,187.8178218665165 M135.82108089468568,187.8178218665165 L130.2038137400882,194.27749586321556 M224.433476620968,-52.9401616728278 L-152.7627128812867,73.19057812136134 M-145.61371257090036,307.67502641353303 L-152.7627128812867,73.19057812136134 M-145.61371257090036,307.67502641353303 L-158.5327887578162,312.60679603134946 M-151.413036342871,531.4957653612837 L-158.5327887578162,312.60679603134946 M-158.5327887578162,312.60679603134946 L-146.62668271201892,317.5641082834013 M141.60481653038477,199.2663325441033 L129.66687049975639,194.8765541401882 M142.1424517668056,198.66558289521333 L130.2038137400882,194.27749586321556 M236.76268170423396,-49.10615139064828 L224.433476620968,-52.9401616728278 M-140.43673108221026,77.67530287540183 L-152.7627128812867,73.19057812136134 M-133.70499039675883,312.6067990017128 L-145.61371257090036,307.67502641353303" stroke="black"  stroke-width="4"  fill="red"/>
<path d="M133.60761245584348,414.90761642772156 L133.7844551137631,401.5647189689997 M133.7844551137631,401.5647189689997 L133.91262078752044,401.6314185171006 M133.91262078752044,401.6314185171006 L133.99928803455572,401.7086948582507 M133.99928803455572,401.7086948582507 L134.03942853967317,401.79205370053944 M134.03942853967317,401.79205370053944 L134.03070769191527,401.8766499715981 M134.03070769191527,401.8766499715981 L133.9736057376869,401.9575751169605 M133.9736057376869,401.9575751169605 L133.87145431604227,402.03011749875134 M133.87145431604227,402.03011749875134 L133.7301914698317,402.09005704481194 M133.7301914698317,402.09005704481194 L133.55800779838978,402.13391581466465 M133.55800779838978,402.13391581466465 L133.36491728116738,402.1591408422762 M133.36491728116738,402.1591408422762 L133.16216334652592,402.1642570237577 M133.16216334652592,402.1642570237577 L132.96151606081725,402.14897543501644 M132.96151606081725,402.14897543501644 L132.7746454368464,402.11418345857084 M132.7746454368464,402.11418345857084 L132.61242797765266,402.06189970434275 M132.61242797765266,402.06189970434275 L132.48427863926963,401.9951717289051 M132.48427863926963,401.9951717289051 L132.39765744039948,401.91787328892826 M132.39765744039948,401.91787328892826 L132.35758272007166,401.8345039778393 M132.35758272007166,401.8345039778393 L132.36637401852641,401.74991126528755 M132.36637401852641,401.74991126528755 L132.4235349553095,401.66900289133673 M132.4235349553095,401.66900289133673 L132.52572037440382,401.5964866510545 M132.52572037440382,401.5964866510545 L132.6669844464481,401.53657662594594 M132.6669844464481,401.53657662594594 L132.83913629143916,401.49274399733724 M132.83913629143916,401.49274399733724 L133.0321692189964,401.46753574240506 M133.0321692189964,401.46753574240506 L133.23485299838984,401.46242311757 M133.23485299838984,401.46242311757 L133.43543362990334,401.4776942378123 M133.43543362990334,401.4776942378123 L133.62225637052683,401.5124641175537 M133.62225637052683,401.5124641175537 L133.7844551137631,401.5647189689997 M133.60761245584348,414.90761642772156 L133.44576063537312,414.85512458715385 M133.44576063537312,414.85512458715385 L133.2593352335653,414.82019701390993 M133.2593352335653,414.82019701390993 L133.05917925600517,414.80485663301494 M133.05917925600517,414.80485663301494 L132.8569227833733,414.80999244570864 M132.8569227833733,414.80999244570864 L132.66429504698795,414.83531502964485 M132.66429504698795,414.83531502964485 L132.49250271522516,414.87934645265955 M132.49250271522516,414.87934645265955 L132.35153158664997,414.93952818151786 M132.35153158664997,414.93952818151786 L132.24955555515788,415.0123732870534 M132.24955555515788,415.0123732870534 L132.19250825996244,415.0936485719229 M132.19250825996244,415.0936485719229 L132.1837281936161,415.1786248886638 M132.1837281936161,415.1786248886638 L132.2237111010703,415.26237224134206 M132.2237111010703,415.26237224134206 L132.31014274630854,415.34002118114984 M132.31014274630854,415.34002118114984 L132.43801576551311,415.40705171583676 M132.43801576551311,415.40705171583676 L132.59988622170863,415.45957252946846 M132.59988622170863,415.45957252946846 L132.78635930300265,415.4945222527647 M132.78635930300265,415.4945222527647 L132.98658165275208,415.5098731274326 M132.98658165275208,415.5098731274326 L133.1889079850855,415.5047337495062 M133.1889079850855,415.5047337495062 L133.38159306973455,415.47939435239584 M133.38159306973455,415.47939435239584 L133.55341709601214,415.43533672502514 M133.55341709601214,415.43533672502514 L133.69438700649977,415.3751254039425 M133.69438700649977,415.3751254039425 L133.79632918619689,415.3022540937852 M133.79632918619689,415.3022540937852 L133.85331774904108,415.22096199701303 M133.85331774904108,415.22096199701303 L133.86202766210397,415.13598211317407 M133.86202766210397,415.13598211317407 L133.8219792463721,415.0522452545704 M133.8219792463721,415.0522452545704 L133.73550174523297,414.9746184669426 M133.73550174523297,414.9746184669426 L133.60761245584348,414.90761642772156 M134.66309389572712,401.1919952817588 L134.98352835731265,401.35869410968337 M134.98352835731265,401.35869410968337 L135.20029588219683,401.55183773712054 M135.20029588219683,401.55183773712054 L135.3007752226432,401.7602134391816 M135.3007752226432,401.7602134391816 L135.27909093278225,401.97171612411796 M135.27909093278225,401.97171612411796 L135.13645619937938,402.17405688583847 M135.13645619937938,402.17405688583847 L134.88115067234662,402.3554582021565 M134.88115067234662,402.3554582021565 L134.52796905968842,402.50537384165625 M134.52796905968842,402.50537384165625 L134.09745884648493,402.61506590533793 M134.09745884648493,402.61506590533793 L133.61463288254942,402.67815591699804 M133.61463288254942,402.67815591699804 L133.1076038750099,402.6909590961659 M133.1076038750099,402.6909590961659 L132.60586479466065,402.65273346124275 M132.60586479466065,402.65273346124275 L132.13861212523648,402.5657064786189 M132.13861212523648,402.5657064786189 L131.7330258186838,402.434947220554 M131.7330258186838,402.434947220554 L131.4126904266721,402.2680694736152 M131.4126904266721,402.2680694736152 L131.19621010855866,402.0747874958837 M131.19621010855866,402.0747874958837 L131.09614249817014,401.8663466003326 M131.09614249817014,401.8663466003326 L131.1182668265742,401.6548660376569 M131.1182668265742,401.6548660376569 L131.26127019625534,401.4526300953711 M131.26127019625534,401.4526300953711 L131.51678820750277,401.27139215883403 M131.51678820750277,401.27139215883403 L131.8699774822419,401.1216610393633 M131.8699774822419,401.1216610393633 L132.3002887796136,401.0121323535082 M132.3002887796136,401.0121323535082 L132.7827548124497,400.94914716440906 M132.7827548124497,400.94914716440906 L133.28934562837196,400.93636634325316 M133.28934562837196,400.93636634325316 L133.79066754465913,400.9745263094923 M133.79066754465913,400.9745263094923 L134.25762153724702,401.0614154158694 M134.25762153724702,401.0614154158694 L134.66309389572712,401.1919952817588 M134.684101005824,399.6233504304075 L135.00461672581173,399.7899600473022 M135.00461672581173,399.7899600473022 L135.22144007635808,399.9830003200372 M135.22144007635808,399.9830003200372 L135.3219465535405,400.1912645267912 M135.3219465535405,400.1912645267912 L135.30025911681236,400.40265405426373 M135.30025911681236,400.40265405426373 L135.15759111483544,400.60488657066804 M135.15759111483544,400.60488657066804 L134.90222412052316,400.7861908521675 M134.90222412052316,400.7861908521675 L134.5489563989678,400.9360263052506 M134.5489563989678,400.9360263052506 L134.11834044457402,401.04565970070365 M134.11834044457402,401.04565970070365 L133.63539525493388,401.10871597034975 M133.63539525493388,401.10871597034975 L133.12824048666022,401.1215123021981 M133.12824048666022,401.1215123021981 L132.6263764351702,401.08330711100007 M132.6263764351702,401.08330711100007 L132.1590068652232,400.9963266732485 M132.1590068652232,400.9963266732485 L131.75331853525824,400.86563735303014 M131.75331853525824,400.86563735303014 L131.43290193203774,400.6988488684077 M131.43290193203774,400.6988488684077 L131.21636592955906,400.50567028514024 M131.21636592955906,400.50567028514024 L131.11627138601642,400.2973409035465 M131.11627138601642,400.2973409035465 L131.13839908003894,400.08597349201546 M131.13839908003894,400.08597349201546 L131.28143590237943,399.88384576496514 M131.28143590237943,399.88384576496514 L131.537015488076,399.70270481636067 M131.537015488076,399.70270481636067 L131.89029087741864,399.55305383035386 M131.89029087741864,399.55305383035386 L132.32070781891593,399.44358376584177 M132.32070781891593,399.44358376584177 L132.8032928998545,399.3806322886756 M132.8032928998545,399.3806322886756 L133.31000925913514,399.3678583083937 M133.31000925913514,399.3678583083937 L133.81145593893427,399.4059978498119 M133.81145593893427,399.4059978498119 L134.2785266822056,399.492840450825 M134.2785266822056,399.492840450825 L134.684101005824,399.6233504304075 M134.684101005824,399.6233504304075 L134.66309389572712,401.1919952817588" stroke="black"  stroke-width="4"  fill="red"/>
<path d="M-145.61371257090036,307.67502641353303 L-158.5327887578162,312.60679603134946 M-158.5327887578162,312.60679603134946 L-166.1743528352439,77.67530017403669 M-152.7627128812867,73.19057812136134 L-166.1743528352439,77.67530017403669 M-145.61371257090036,307.67502641353303 L-152.7627128812867,73.19057812136134 M-139.89665271229978,536.8307665622954 L-87.9501912046087,560.8951294232328 M-87.9501912046087,560.8951294232328 L-88.29991284994588,545.2713860336073 M-88.29991284994588,545.2713860336073 L-27.76350424819867,573.1145737849357 M-27.56432473192217,588.86907337042 L-27.76350424819867,573.1145737849357 M-27.56432473192217,588.86907337042 L243.9601641797003,714.6536530541096 M243.9601641797003,714.6536530541096 L244.48696448782027,698.3337780868145 M244.48696448782027,698.3337780868145 L314.02589194038853,730.3175950625705 M313.3008225121372,746.7759326992978 L314.02589194038853,730.3175950625705 M313.3008225121372,746.7759326992978 L527.3052977373434,845.9141838181233 M527.3052977373434,845.9141838181233 L546.7662662764639,606.2702014666074 M546.7662662764639,606.2702014666074 L562.6112361530933,612.8675274941659 M562.6112361530933,612.8675274941659 L584.4679535601055,352.3226704843089 M-166.1743528352439,77.67530017403669 L584.4679535601055,352.3226704843089 M-158.5327887578162,312.60679603134946 L-146.62668271201892,317.5641082834013 M-139.89665271229978,536.8307665622954 L-146.62668271201892,317.5641082834013 M575.4022950951304,606.2702014666074 L559.5663950332519,599.7120622563476 M539.6609533969382,838.9283086713498 L559.5663950332519,599.7120622563476 M539.6609533969382,838.9283086713498 L325.7435190977393,740.3437143244207 M325.7435190977393,740.3437143244207 L326.50076690507626,723.912909779612 M326.50076690507626,723.912909779612 L256.9795778424616,692.1033178747233 M256.42045456245273,708.395938686188 L256.9795778424616,692.1033178747233 M256.42045456245273,708.395938686188 L-15.08513045629752,583.2716445879234 M-15.08513045629752,583.2716445879234 L-15.251834023989602,567.5431624469409 M-15.251834023989602,567.5431624469409 L-75.79491705514988,539.8415251497067 M-75.4776206205949,555.4395552402135 L-75.79491705514988,539.8415251497067 M-75.4776206205949,555.4395552402135 L-127.4329331960165,531.4957685582368 M-127.4329331960165,531.4957685582368 L-133.70499039675883,312.6067990017128 M-133.70499039675883,312.6067990017128 L-145.61371257090036,307.67502641353303 M597.7348254672577,346.25400973624556 L-152.7627128812867,73.19057812136134 M575.4022950951304,606.2702014666074 L597.7348254672577,346.25400973624556 M-139.89665271229978,536.8307665622954 L-127.4329331960165,531.4957685582368 M-146.62668271201892,317.5641082834013 L-133.70499039675883,312.6067990017128 M-75.4776206205949,555.4395552402135 L-87.9501912046087,560.8951294232328 M-75.79491705514988,539.8415251497067 L-88.29991284994588,545.2713860336073 M-27.56432473192217,588.86907337042 L-15.08513045629752,583.2716445879234 M-27.76350424819867,573.1145737849357 L-15.251834023989602,567.5431624469409 M256.42045456245273,708.395938686188 L243.9601641797003,714.6536530541096 M256.9795778424616,692.1033178747233 L244.48696448782027,698.3337780868145 M313.3008225121372,746.7759326992978 L325.7435190977393,740.3437143244207 M314.02589194038853,730.3175950625705 L326.50076690507626,723.912909779612 M539.6609533969382,838.9283086713498 L527.3052977373434,845.9141838181233 M559.5663950332519,599.7120622563476 L546.7662662764639,606.2702014666074 M562.6112361530933,612.8675274941659 L575.4022950951304,606.2702014666074 M584.4679535601055,352.3226704843089 L597.7348254672577,346.25400973624556" stroke="black"  stroke-width="4"  fill="red"/></svg>