<svg viewBox="0 0 800 800" xmlns="http://www.w3.org/2000/svg"><path d="M163.93447108337864,612.5534905897449 L163.93447994267558,612.5525284443853 M765.7547922008598,259.72546005243925 L765.7548076516634,259.7245018227595 M163.93447108337864,612.5534905897449 L134.1537866830372,593.655390597048 M134.1537866830372,593.655390597048 L107.81688834131614,573.1455481214368 M107.81688834131614,573.1455481214368 L85.19184027329061,551.2387307714512 M85.19184027329061,551.2387307714512 L66.50694652673587,528.1636110252216 M66.50694652673587,528.1636110252216 L51.948969349061144,504.160371984356 M51.948969349061144,504.160371984356 L41.661187732935105,479.47803022635594 M41.661187732935105,479.47803022635594 L35.74214868891113,454.37175981793956 M35.74214868891113,454.37175981793956 L34.24519234833656,429.100277828483 M34.24519234833656,429.100277828483 L37.17784287990116,403.9230749993305 M37.17784287990116,403.9230749993305 L44.5024022027103,379.0977783167597 M44.5024022027103,379.0977783167597 L56.136489923745785,354.8775534736967 M56.136489923745785,354.8775534736967 L71.95413107416266,331.50848165730514 M71.95413107416266,331.50848165730514 L91.78738192153492,309.22730863215054 M91.78738192153492,309.22730863215054 L115.4284069134826,288.2589761898329 M115.4284069134826,288.2589761898329 L142.63143572749573,268.8145498941161 M142.63143572749573,268.8145498941161 L173.11578818755356,251.08920623957482 M173.11578818755356,251.08920623957482 L206.5686026195349,235.2603981128099 M206.5686026195349,235.2603981128099 L242.64808720725614,221.4861891542281 M242.64808720725614,221.4861891542281 L280.9869508106508,209.9039471386341 M280.9869508106508,209.9039471386341 L321.1962255777055,200.62878830904722 M321.1962255777055,200.62878830904722 L362.86862804557836,193.75292548044322 M362.86862804557836,193.75292548044322 L405.58308252971847,189.3446058239131 M405.58308252971847,189.3446058239131 L448.90847844622795,187.44746682989125 M448.90847844622795,187.44746682989125 L492.40765667655114,188.08035942390032 M492.40765667655114,188.08035942390032 L535.6419724579964,191.23703714595166 M535.6419724579964,191.23703714595166 L578.1752607282276,196.88610869139237 M578.1752607282276,196.88610869139237 L619.5779260597592,204.97165300269398 M619.5779260597592,204.97165300269398 L659.4312995027308,215.41335741537102 M659.4312995027308,215.41335741537102 L697.3314890573163,228.1073789787751 M697.3314890573163,228.1073789787751 L732.8935113778045,242.92737307291486 M732.8935113778045,242.92737307291486 L765.7547922008598,259.72546005243925 M163.93447994267558,612.5525284443853 L134.15379520617785,593.654428659796 M134.15379520617785,593.654428659796 L107.81689656669369,573.144586410249 M107.81689656669369,573.144586410249 L85.19184824230456,551.2377693019641 M85.19184824230456,551.2377693019641 L66.50695428333165,528.1626498105926 M66.50695428333165,528.1626498105926 L51.94897693925304,504.1594110351263 M51.94897693925304,504.1594110351263 L41.661195204308115,479.4770695503435 M41.661195204308115,479.4770695503435 L35.74215609011503,454.37079942015845 M35.74215609011503,454.37079942015845 L34.24519972857502,429.09931771109166 M34.24519972857502,429.09931771109166 L37.17785028841945,403.9221151616096 M37.17785028841945,403.9221151616096 L44.502409688295074,379.09681875511956 M44.502409688295074,379.09681875511956 L56.13649753423101,354.87659418171387 M56.13649753423101,354.87659418171387 L71.95413885595485,331.50752262578925 M71.95413885595485,331.50752262578925 L91.78738991915816,309.2263498492379 M91.78738991915816,309.2263498492379 L115.42841516914837,288.25801764110855 M115.42841516914837,288.25801764110855 L142.63144428069836,268.81359156276216 M142.63144428069836,268.81359156276216 L173.115797074699,251.08824810654318 M173.115797074699,251.08824810654318 L206.5686118736005,235.25944015701734 M206.5686118736005,235.25944015701734 L242.6480968574865,221.48523135277387 M242.6480968574865,221.48523135277387 L280.9869608822903,209.90298946703288 M280.9869608822903,209.90298946703288 L321.19623609177006,200.62783074148314 M321.19623609177006,200.62783074148314 L362.8686390186631,193.75196799003263 M362.8686390186631,193.75196799003263 L405.5830939738512,189.3436483829806 M405.5830939738512,189.3436483829806 L448.90849036876193,187.44650941025506 M448.90849036876193,187.44650941025506 L492.40766908009505,188.0794019971594 M492.40766908009505,188.0794019971594 L535.6419853403927,191.2360796837777 M535.6419853403927,191.2360796837777 L578.1752740825711,196.88515116582153 M578.1752740825711,196.88515116582153 L619.5779398744544,204.97069538641153 M619.5779398744544,204.97069538641153 L659.431313761595,215.412399681993 M659.431313761595,215.412399681993 L697.3315037397238,228.10642110311915 M697.3315037397238,228.10642110311915 L732.8935264588702,242.92641503125722 M732.8935264588702,242.92641503125722 L765.7548076516634,259.7245018227595 M765.7547922008598,259.72546005243925 L163.93447108337864,612.5534905897449 M765.7548076516634,259.7245018227595 L163.93447994267558,612.5525284443853" stroke="black"  stroke-width="4"  fill="red"/></svg>