<svg viewBox="0 0 800 800" xmlns="http://www.w3.org/2000/svg"><path d="M641.9845784545632,260.14755025377093 L641.9845811416078,260.14196068243245 M157.77884310008756,539.7038619038382 L157.77884040706513,539.6982692263202 M641.9845784545632,260.14755025377093 L692.9038822586637,297.6242751326037 M692.9038822586637,297.6242751326037 L726.8219672937961,341.0525532400387 M726.8219672937961,341.0525532400387 L741.7603886043603,387.91323189176046 M741.7603886043603,387.91323189176046 L736.8406590373005,435.485209201564 M736.8406590373005,435.485209201564 L712.337800204047,481.00302488145 M712.337800204047,481.00302488145 L669.6667278739616,521.8177332300041 M669.6667278739616,521.8177332300041 L611.3022092045804,555.5517127068648 M611.3022092045804,555.5517127068648 L540.6361723703872,580.2381019422686 M540.6361723703872,580.2381019422686 L461.780570201237,594.4365748730953 M461.780570201237,594.4365748730953 L379.3272926314108,597.3183677365663 M379.3272926314108,597.3183677365663 L298.0791557287628,588.7152137698844 M298.0791557287628,588.7152137698844 L222.76829621793064,569.1293772007909 M222.76829621793064,569.1293772007909 L157.77884310008756,539.7038619038382 M641.9845811416078,260.14196068243245 L692.9038855116488,297.61868514445666 M692.9038855116488,297.61868514445666 L726.8219709241226,341.04696276904644 M726.8219709241226,341.04696276904644 L741.7603924013375,387.9076408999477 M741.7603924013375,387.9076408999477 L736.8406627803244,435.4796176812235 M736.8406627803244,435.4796176812235 L712.3378036754061,480.99743285559066 M712.3378036754061,480.99743285559066 L669.6667308715308,521.8121407510141 M669.6667308715308,521.8121407510141 L611.3022115536554,555.5461198534665 M611.3022115536554,555.5461198534665 L540.6361739339515,580.2325088149436 M540.6361739339515,580.2325088149436 L461.7805708880384,594.4309815882445 M461.7805708880384,594.4309815882445 L379.3272924013535,597.3127744197454 M379.3272924013535,597.3127744197454 L298.0791545952786,588.7096205485075 M298.0791545952786,588.7096205485075 L222.76829424718431,569.1237841967246 M222.76829424718431,569.1237841967246 L157.77884040706513,539.6982692263202 M157.77884310008756,539.7038619038382 L106.8903520163484,502.1549612985137 M106.8903520163484,502.1549612985137 L73.05764627259919,458.67104205548134 M73.05764627259919,458.67104205548134 L58.239611396360374,411.78400358135366 M58.239611396360374,411.78400358135366 L63.28715551076476,364.22098645596776 M63.28715551076476,364.22098645596776 L87.89597627575677,318.74539830865314 M87.89597627575677,318.74539830865314 L130.62688328981903,277.99651102615246 M130.62688328981903,277.99651102615246 L188.99140199778415,244.33686735782666 M188.99140199778415,244.33686735782666 L259.59760419183687,219.7162992298096 M259.59760419183687,219.7162992298096 L338.3472444018843,205.56005385037753 M338.3472444018843,205.56005385037753 L420.6727073494405,202.6872211954694 M420.6727073494405,202.6872211954694 L501.80045776000213,211.26401529095713 M501.80045776000213,211.26401529095713 L577.0259379887526,230.7942107097062 M577.0259379887526,230.7942107097062 L641.9845784545632,260.14755025377093 M157.77884040706513,539.6982692263202 L106.8903487580701,502.14936903780426 M106.8903487580701,502.14936903780426 L73.05764263887693,458.66545027761714 M73.05764263887693,458.66545027761714 L58.239607598662474,411.77841232431007 M58.239607598662474,411.77841232431007 L63.28715176986066,364.2153957274519 M63.28715176986066,364.2153957274519 L87.8959728088721,318.73980808565597 M87.8959728088721,318.73980808565597 L130.62688029805395,277.990921256286 M130.62688029805395,277.990921256286 L188.9913996545133,244.33127796236855 M188.9913996545133,244.33127796236855 L259.5976026327471,219.71071010827822 M259.5976026327471,219.71071010827822 L338.34724371720273,205.55446488637187 M338.34724371720273,205.55446488637187 L420.6727075787773,202.68163226343376 M420.6727075787773,202.68163226343376 L501.8004588900905,211.25842626347765 M501.8004588900905,211.25842626347765 L577.0259399542058,230.78862146491608 M577.0259399542058,230.78862146491608 L641.9845811416078,260.14196068243245" stroke="black"  stroke-width="4"  fill="red"/></svg>