<svg viewBox="0 0 800 800" xmlns="http://www.w3.org/2000/svg"><path d="M211.8209658771034,376.991554344825 L37.179856175204065,451.3873815860923 M37.17985756730832,436.9202085889236 L37.179856175204065,451.3873815860923 M37.17985756730832,436.9202085889236 L37.17952119855954,436.72073982940003 M37.17952119855954,436.72073982940003 L37.17931936780491,436.52120148094946 M37.17931936780491,436.52120148094946 L37.17925208801961,436.32159355364035 M212.22482037911277,362.30212750156284 L37.17925208801961,436.32159355364035 M211.8209658771034,376.991554344825 L212.22482037911277,362.30212750156284 M728.0986452638788,745.7136260695088 L713.0858531317087,739.3182887342773 M539.7416460828325,837.3269271442955 L713.0858531317087,739.3182887342773 M539.7416460828325,837.3269271442955 L325.9181289467708,739.3186235310461 M313.5467727159654,745.7139627023005 L325.9181289467708,739.3186235310461 M244.2246074132595,713.7748522283347 L313.5467727159654,745.7139627023005 M256.614428178206,707.5525285877795 L244.2246074132595,713.7748522283347 M256.614428178206,707.5525285877795 L-14.867512381220536,583.1158678675686 M-27.279941991657836,588.6833499683864 L-14.867512381220536,583.1158678675686 M-87.67274034485303,560.8583065639884 L-27.279941991657836,588.6833499683864 M-75.26605138225261,555.4315493814823 L-87.67274034485303,560.8583065639884 M-75.26605138225261,555.4315493814823 L-127.22986151717191,531.6133793840088 M48.71533477476419,456.3014093244399 L-127.22986151717191,531.6133793840088 M48.71533477476419,456.3014093244399 L37.179856175204065,451.3873815860923 M898.2428780047912,648.8989747604404 L211.8209658771034,376.991554344825 M728.0986452638788,745.7136260695088 L898.2428780047912,648.8989747604404 M132.45633371601838,415.6169283571338 L132.294578762647,415.56469546084367 M132.294578762647,415.56469546084367 L132.10841222884204,415.52994018294714 M132.10841222884204,415.52994018294714 L131.90866202442248,415.51467547417013 M131.90866202442248,415.51467547417013 L131.70693465299337,415.5197859526269 M131.70693465299337,415.5197859526269 L131.5149287255503,415.54498362290184 M131.5149287255503,415.54498362290184 L131.34381471978725,415.58879783978506 M131.34381471978725,415.58879783978506 L131.2035390168768,415.64868268573434 M131.2035390168768,415.64868268573434 L131.10223520258188,415.7211684267607 M131.10223520258188,415.7211684267607 L131.045797826159,415.8020427435152 M131.045797826159,415.8020427435152 L131.03752983140487,415.88659981604656 M131.03752983140487,415.88659981604656 L131.07789727377553,415.96993397058816 M131.07789727377553,415.96993397058816 L131.16456351881328,416.0471997857356 M131.16456351881328,416.0471997857356 L131.29250747789087,416.11389957581196 M131.29250747789087,416.11389957581196 L131.45428114322675,416.1661612315993 M131.45428114322675,416.1661612315993 L131.6404952487676,416.2009384958272 M131.6404952487676,416.2009384958272 L131.84031155831298,416.2162136208132 M131.84031155831298,416.2162136208132 L132.042108424256,416.2110996034758 M132.042108424256,416.2110996034758 L132.23417132025338,416.1858852443005 M132.23417132025338,416.1858852443005 L132.4053167133385,416.1420450167482 M132.4053167133385,416.1420450167482 L132.54559103385043,416.0821307973042 M132.54559103385043,416.0821307973042 L132.64686101254256,416.0096190453456 M132.64686101254256,416.0096190453456 L132.70323984962033,415.92872804095265 M132.70323984962033,415.92872804095265 L132.7114380166762,415.8441674276891 M132.7114380166762,415.8441674276891 L132.67100544962642,415.76084368965587 M132.67100544962642,415.76084368965587 L132.5842937024263,415.68359986295184 M132.5842937024263,415.68359986295184 L132.45633371601838,415.6169283571338 M808.0585922805546,692.8947156521838 L807.8545839326127,692.8270919537704 M807.8545839326127,692.8270919537704 L807.6294854402438,692.7820983988411 M807.6294854402438,692.7820983988411 L807.3964025097871,692.7623477241366 M807.3964025097871,692.7623477241366 L807.1688348869475,692.7689672290641 M807.1688348869475,692.7689672290641 L806.95997127021,692.8015795224356 M806.95997127021,692.8015795224356 L806.7820233483633,692.8583073023965 M806.7820233483633,692.8583073023965 L806.645290593427,692.935836543827 M806.645290593427,692.935836543827 L806.5577022890516,693.0296756417948 M806.5577022890516,693.0296756417948 L806.5244017333553,693.1343899178296 M806.5244017333553,693.1343899178296 L806.5472861403478,693.2438607885191 M806.5472861403478,693.2438607885191 L806.6250240261397,693.3517416356372 M806.6250240261397,693.3517416356372 L806.7531498808237,693.4517767607581 M806.7531498808237,693.4517767607581 L806.9242156186831,693.5381355835057 M806.9242156186831,693.5381355835057 L807.128259845264,693.6058013004048 M807.128259845264,693.6058013004048 L807.3534294849794,693.6508272432648 M807.3534294849794,693.6508272432648 L807.5866503586876,693.670612896922 M807.5866503586876,693.670612896922 L807.8143064118899,693.6639881761013 M807.8143064118899,693.6639881761013 L808.0232365415559,693.6313513045701 M808.0232365415559,693.6313513045701 L808.2012137863458,693.5745852039138 M808.2012137863458,693.5745852039138 L808.3379319822043,693.4970126912281 M808.3379319822043,693.4970126912281 L808.4254651783338,693.4031352770642 M808.4254651783338,693.4031352770642 L808.4586826795328,693.298396415731 M808.4586826795328,693.298396415731 L808.4357063325479,693.1889203299013 M808.4357063325479,693.1889203299013 L808.3578408289334,693.0810351921854 M808.3578408289334,693.0810351921854 L808.2296656226574,692.9810324586354 M808.2296656226574,692.9810324586354 L808.0585922805546,692.8947156521838 M48.74198334321164,441.8107883807786 L37.17985756730832,436.9202085889236 M48.74198334321164,441.8107883807786 L48.71533477476419,456.3014093244399 M48.742480938186475,441.2112004924688 L48.742180503943814,441.4111330293745 M48.742180503943814,441.4111330293745 L48.74201464327791,441.61099566217416 M48.74201464327791,441.61099566217416 L48.74198334321164,441.8107883807786 M37.17925208801961,436.32159355364035 L48.742480938186475,441.2112004924688 M714.936064868142,722.9166663961398 L729.9951611606491,729.2845297912561 M729.9951611606491,729.2845297912561 L900.5091694586552,632.8956983780449 M900.5091694586552,632.8956983780449 L212.22482037911277,362.30212750156284 M48.742480938186475,441.2112004924688 L-127.63991940792562,516.1556700823014 M-127.63991940792562,516.1556700823014 L-75.5496518925296,539.860449827489 M-75.5496518925296,539.860449827489 L-87.98842820926473,545.2615571988274 M-87.98842820926473,545.2615571988274 L-27.445034631793988,572.956163731455 M-27.445034631793988,572.956163731455 L-15.000473815121609,567.4146360226907 M-15.000473815121609,567.4146360226907 L257.2071033867079,691.2884606413372 M257.2071033867079,691.2884606413372 L244.78533326668173,697.4835890984118 M244.78533326668173,697.4835890984118 L314.3056157170714,729.2845297912561 M314.3056157170714,729.2845297912561 L326.70876999190443,722.9166663961398 M326.70876999190443,722.9166663961398 L541.1757033846524,820.5143878361057 M714.936064868142,722.9166663961398 L541.1757033846524,820.5143878361057 M133.55549014202222,400.3596731653862 L133.87618293922225,400.52545906300884 M133.87618293922225,400.52545906300884 L134.09359383856497,400.71754485767536 M134.09359383856497,400.71754485767536 L134.1950643789816,400.92477920953877 M134.1950643789816,400.92477920953877 L134.1746616966173,401.1351233184345 M134.1746616966173,401.1351233184345 L134.03352470106375,401.33635559897886 M134.03352470106375,401.33635559897886 L133.7798459849621,401.51676306947115 M133.7798459849621,401.51676306947115 L133.42832582542928,401.66585730921537 M133.42832582542928,401.66585730921537 L132.99941495514116,401.7749483298318 M132.99941495514116,401.7749483298318 L132.51803323271042,401.8376926361136 M132.51803323271042,401.8376926361136 L132.01220913929944,401.85042565844435 M132.01220913929944,401.85042565844435 L131.51136549066456,401.8124094852383 M131.51136549066456,401.8124094852383 L131.04464660357655,401.7258593648164 M131.04464660357655,401.7258593648164 L130.63920136226977,401.59581656738305 M130.63920136226977,401.59581656738305 L130.3186061535576,401.42985312781497 M130.3186061535576,401.42985312781497 L130.1014803759831,401.23763004674987 M130.1014803759831,401.23763004674987 L130.00041935470637,401.03033100349853 M130.00041935470637,401.03033100349853 L130.02126024496442,400.82000884639984 M130.02126024496442,400.82000884639984 L130.1627648459592,400.6188805788445 M130.1627648459592,400.6188805788445 L130.41665605137098,400.4386352311433 M130.41665605137098,400.4386352311433 L130.76818491285997,400.28972409179204 M130.76818491285997,400.28972409179204 L131.1968987036858,400.18079519202746 M131.1968987036858,400.18079519202746 L131.6779227073066,400.11815490183665 M131.6779227073066,400.11815490183665 L132.18331069042222,400.1054440657655 M132.18331069042222,400.1054440657655 L132.68373864843045,400.14339507499494 M132.68373864843045,400.14339507499494 L133.1501593869906,400.2298083804699 M133.1501593869906,400.2298083804699 L133.55549014202222,400.3596731653862 M810.979595986352,676.2148687692791 L811.4086522371665,676.4296447803855 M811.4086522371665,676.4296447803855 L811.7302587994989,676.678470948487 M811.7302587994989,676.678470948487 L811.9258202312776,676.9469530191907 M811.9258202312776,676.9469530191907 L811.9838477486996,677.2194627892562 M811.9838477486996,677.2194627892562 L811.9009358219203,677.4801765248708 M811.9009358219203,677.4801765248708 L811.6818648838762,677.7139115274049 M811.6818648838762,677.7139115274049 L811.3393292133694,677.9070831872785 M811.3393292133694,677.9070831872785 L810.8932497107103,678.0484296510797 M810.8932497107103,678.0484296510797 L810.3695273684591,678.1297227089332 M810.3695273684591,678.1297227089332 L809.798670504943,678.1462187961647 M809.798670504943,678.1462187961647 L809.2138665918467,678.0969513878856 M809.2138665918467,678.0969513878856 L808.6492321695837,677.9848247475175 M808.6492321695837,677.9848247475175 L808.1374987467559,677.8163229479056 M808.1374987467559,677.8163229479056 L807.7085380297942,677.601304335561 M807.7085380297942,677.601304335561 L807.3871933929572,677.352256529683 M807.3871933929572,677.352256529683 L807.1921812006742,677.0836982669455 M807.1921812006742,677.0836982669455 L807.1347314700097,676.8112210409633 M807.1347314700097,676.8112210409633 L807.2181653568184,676.5506606841069 M807.2181653568184,676.5506606841069 L807.4375828193351,676.317164744346 M807.4375828193351,676.317164744346 L807.780210226357,676.1242630817125 M807.780210226357,676.1242630817125 L808.2261056569419,675.9831556822063 M808.2261056569419,675.9831556822063 L808.7494102641826,675.9020159991444 M808.7494102641826,675.9020159991444 L809.3197114536729,675.88555245006 M809.3197114536729,675.88555245006 L809.9039010666913,675.9347045654391 M809.9039010666913,675.9347045654391 L810.468136237937,676.0466486692317 M810.468136237937,676.0466486692317 L810.979595986352,676.2148687692791 M898.2428780047912,648.8989747604404 L900.5091694586552,632.8956983780449 M729.9203195772739,729.937476362209 L714.863065521525,723.5685175882659 M729.9203195772739,729.937476362209 L728.0986452638788,745.7136260695088 M714.863065521525,723.5685175882659 L713.0858531317087,739.3182887342773 M714.863065521525,723.5685175882659 L714.8872649928646,723.3513236953798 M714.8872649928646,723.3513236953798 L714.9115981042926,723.1340399610119 M714.9115981042926,723.1340399610119 L714.936064868142,722.9166663961398 M539.7416460828325,837.3269271442955 L541.1757033846524,820.5143878361057 M325.9181289467708,739.3186235310461 L326.70876999190443,722.9166663961398 M313.5467727159654,745.7139627023005 L314.3056157170714,729.2845297912561 M244.2246074132595,713.7748522283347 L244.78533326668173,697.4835890984118 M256.614428178206,707.5525285877795 L257.2071033867079,691.2884606413372 M-14.867512381220536,583.1158678675686 L-15.000473815121609,567.4146360226907 M-27.279941991657836,588.6833499683864 L-27.445034631793988,572.956163731455 M-87.67274034485303,560.8583065639884 L-87.98842820926473,545.2615571988274 M-75.26605138225261,555.4315493814823 L-75.5496518925296,539.860449827489 M-127.22986151717191,531.6133793840088 L-127.63991940792562,516.1556700823014 M729.9951611606491,729.2845297912561 L729.9700803885949,729.5022689595655 M729.9700803885949,729.5022689595655 L729.9451331982366,729.7199178202131 M729.9451331982366,729.7199178202131 L729.9203195772739,729.937476362209 M132.45633371601838,415.6169283571338 L132.65734763419454,402.296543675019 M132.65734763419454,402.296543675019 L132.785584272817,402.3629134886046 M132.785584272817,402.3629134886046 L132.87248672051373,402.4398077943471 M132.87248672051373,402.4398077943471 L132.9130129627631,402.52275451436583 M132.9130129627631,402.52275451436583 L132.90480598601005,402.6069325278999 M132.90480598601005,402.6069325278999 L132.8483162988211,402.6874575499069 M132.8483162988211,402.6874575499069 L132.74683988778554,402.759641242091 M132.74683988778554,402.759641242091 L132.60627554612063,402.81928440416596 M132.60627554612063,402.81928440416596 L132.43477335832756,402.86292629929636 M132.43477335832756,402.86292629929636 L132.2423076501844,402.8880265909696 M132.2423076501844,402.8880265909696 L132.04008541947735,402.893117473113 M132.04008541947735,402.893117473113 L131.83984589880754,402.8779114511022 M131.83984589880754,402.8779114511022 L131.653235362254,402.8432915171867 M131.653235362254,402.8432915171867 L131.4911151274938,402.79126629482687 M131.4911151274938,402.79126629482687 L131.36289457986857,402.72486826504917 M131.36289457986857,402.72486826504917 L131.27603782436705,402.6479520241657 M131.27603782436705,402.6479520241657 L131.23557698087984,402.5649949128891 M131.23557698087984,402.5649949128891 L131.24385408067405,402.4808204315044 M131.24385408067405,402.4808204315044 L131.300402556174,402.4003120566832 M131.300402556174,402.4003120566832 L131.40191294834625,402.3281543123777 M131.40191294834625,402.3281543123777 L131.54247868117875,402.26854045259347 M131.54247868117875,402.26854045259347 L131.7139493516467,402.2249245050792 M131.7139493516467,402.2249245050792 L131.90635785223412,402.19984086185013 M131.90635785223412,402.19984086185013 L132.10851029519773,402.1947535100094 M132.10851029519773,402.1947535100094 L132.30868343043932,402.209949141061 M132.30868343043932,402.209949141061 L132.49524619209564,402.24454714194246 M132.49524619209564,402.24454714194246 L132.65734763419454,402.296543675019 M808.0585922805546,692.8947156521838 L809.9096699107229,678.3998980976013 M809.9096699107229,678.3998980976013 L810.0812240255211,678.4858743095477 M810.0812240255211,678.4858743095477 L810.2097881162433,678.5854824652338 M810.2097881162433,678.5854824652338 L810.2879281021533,678.6929419471473 M810.2879281021533,678.6929419471473 L810.3110484133258,678.8019861250259 M810.3110484133258,678.8019861250259 L810.277836073841,678.906311791274 M810.277836073841,678.906311791274 L810.19016876404,678.9998188782724 M810.19016876404,678.9998188782724 L810.0531850766706,679.0770853971846 M810.0531850766706,679.0770853971846 L809.8748263472605,679.1336275853407 M809.8748263472605,679.1336275853407 L809.6654208076959,679.1661357245764 M809.6654208076959,679.1661357245764 L809.4372232767532,679.172734315238 M809.4372232767532,679.172734315238 L809.2034261668855,679.1530267032216 M809.2034261668855,679.1530267032216 L808.9776792054508,679.1081783617104 M808.9776792054508,679.1081783617104 L808.7730900964464,679.0407795549655 M808.7730900964464,679.0407795549655 L808.6015435883453,678.9547613919816 M808.6015435883453,678.9547613919816 L808.4730290602454,678.8551208950339 M808.4730290602454,678.8551208950339 L808.3950171941635,678.7476656500833 M808.3950171941635,678.7476656500833 L808.3719892693528,678.6386266792449 M808.3719892693528,678.6386266792449 L808.405285082702,678.5343255601103 M808.405285082702,678.5343255601103 L808.4930077968716,678.4408567297967 M808.4930077968716,678.4408567297967 L808.6300061484653,678.3636334149323 M808.6300061484653,678.3636334149323 L808.8083354450334,678.3071294879535 M808.8083354450334,678.3071294879535 L809.017674171768,678.2746458887034 M809.017674171768,678.2746458887034 L809.245782851325,678.2680525058338 M809.245782851325,678.2680525058338 L809.479441441365,678.2877252401964 M809.479441441365,678.2877252401964 L809.7051168870121,678.3325412440804 M809.7051168870121,678.3325412440804 L809.9096699107229,678.3998980976013 M133.55549014202222,400.3596731653862 L133.53164327009614,401.925662375626 M133.53164327009614,401.925662375626 L133.8522547304151,402.09153724690043 M133.8522547304151,402.09153724690043 L134.06960952372577,402.28372612127293 M134.06960952372577,402.28372612127293 L134.17105246129995,402.4910716718073 M134.17105246129995,402.4910716718073 L134.15065230089624,402.70152863712923 M134.15065230089624,402.70152863712923 L134.00954782637166,402.90286887503873 M134.00954782637166,402.90286887503873 L133.75592975078558,403.08337312223773 M133.75592975078558,403.08337312223773 L133.40449484214878,403.23254733511425 M133.40449484214878,403.23254733511425 L132.97568887379578,403.3416968679167 M132.97568887379578,403.3416968679167 L132.4944256053978,403.4044748264706 M132.4944256053978,403.4044748264706 L131.9887266136834,403.41721467790927 M131.9887266136834,403.41721467790927 L131.48800742820833,403.37917811535135 M131.48800742820833,403.37917811535135 L131.0214051143489,403.2925815738523 M131.0214051143489,403.2925815738523 L130.61606176891263,403.1624690245926 M130.61606176891263,403.1624690245926 L130.29554785100942,402.9964165601389 M130.29554785100942,402.9964165601389 L130.07847803981343,402.8040903596474 M130.07847803981343,402.8040903596474 L129.97744441958645,402.5966800990942 M129.97744441958645,402.5966800990942 L129.99828257065792,402.38624509188173 M129.99828257065792,402.38624509188173 L130.1397544674499,402.18500889701056 M130.1397544674499,402.18500889701056 L130.39358492526577,402.00466681944044 M130.39358492526577,402.00466681944044 L130.74502852939878,401.8556757598549 M130.74502852939878,401.8556757598549 L131.17363751393037,401.7466883947408 M131.17363751393037,401.7466883947408 L131.6545432393529,401.68401448232817 M131.6545432393529,401.68401448232817 L132.15980633644062,401.671296823588 M132.15980633644062,401.671296823588 L132.6601100376633,401.70926820328543 M132.6601100376633,401.70926820328543 L133.12641435231882,401.79572789036945 M133.12641435231882,401.79572789036945 L133.53164327009614,401.925662375626 M810.979595986352,676.2148687692791 L810.7616846739188,677.9194738842956 M810.7616846739188,677.9194738842956 L811.1905994964147,678.1343504677666 M811.1905994964147,678.1343504677666 L811.5120916050157,678.3832931384716 M811.5120916050157,678.3832931384716 L811.7075721835324,678.6519008976254 M811.7075721835324,678.6519008976254 L811.7655571962896,678.9245382234094 M811.7655571962896,678.9245382234094 L811.6826436056176,679.1853739760467 M811.6826436056176,679.1853739760467 L811.4636119674399,679.4192183549183 M811.4636119674399,679.4192183549183 L811.1211542955473,679.6124803992816 M811.1211542955473,679.6124803992816 L810.6751869589389,679.7538929928428 M810.6751869589389,679.7538929928428 L810.1516044350033,679.8352240818792 M810.1516044350033,679.8352240818792 L809.580906887953,679.8517278862453 M809.580906887953,679.8517278862453 L808.9962725147332,679.8024374296813 M808.9962725147332,679.8024374296813 L808.4318079485381,679.6902583319718 M808.4318079485381,679.6902583319718 L807.920234842258,679.5216776945942 M807.920234842258,679.5216776945942 L807.4914155365161,679.3065584702097 M807.4914155365161,679.3065584702097 L807.1701852135477,679.0573941149383 M807.1701852135477,679.0573941149383 L806.975253585917,678.788710155069 M806.975253585917,678.788710155069 L806.9178460313126,678.5161053794302 M806.9178460313126,678.5161053794302 L807.0012812732989,678.2554230341176 M807.0012812732989,678.2554230341176 L807.2206592178677,678.0218177625451 M807.2206592178677,678.0218177625451 L807.5632085487675,677.8288257657097 M807.5632085487675,677.8288257657097 L808.008991894128,677.6876522809694 M808.008991894128,677.6876522809694 L808.5321569037089,677.6064745952906 M808.5321569037089,677.6064745952906 L809.1022990866556,677.5900033351321 M809.1022990866556,677.5900033351321 L809.686319503377,677.6391784718126 M809.686319503377,677.6391784718126 L810.2503850744431,677.7511750044588 M810.2503850744431,677.7511750044588 L810.7616846739188,677.9194738842956" stroke="black"  stroke-width="4"  fill="red"/>
<path d="M728.0986452638788,745.7136260695088 L542.6179589777721,851.2549522612729 M728.0986452638788,745.7136260695088 L713.0858531317087,739.3182887342773 M527.4598042667368,844.2710680190085 L713.0858531317087,739.3182887342773 M542.6179589777721,851.2549522612729 L527.4598042667368,844.2710680190085 M729.9203195772739,729.937476362209 L728.0986452638788,745.7136260695088 M845.4287113292746,458.13489392442193 L839.4105299244907,465.6992102930354 M839.4105299244907,465.6992102930354 L833.4632786868185,473.5225198062808 M833.4632786868185,473.5225198062808 L827.5967376873441,481.5924062188775 M827.5967376873441,481.5924062188775 L821.8204856391797,489.8962882037439 M821.8204856391797,489.8962882037439 L816.1440039442919,498.42084953276367 M816.1440039442919,498.42084953276367 L810.5765865272033,507.15240653111124 M810.5765865272033,507.15240653111124 L805.1273467953524,516.0769128712747 M805.1273467953524,516.0769128712747 L799.8051708716253,525.1798895295939 M799.8051708716253,525.1798895295939 L794.6187111257777,534.4466469681387 M794.6187111257777,534.4466469681387 L789.5763673819058,543.8620986946728 M789.5763673819058,543.8620986946728 L784.6862882116827,553.4107738595051 M784.6862882116827,553.4107738595051 L779.9562811602516,563.0772920851679 M779.9562811602516,563.0772920851679 L775.3939048834084,572.8456050404227 M775.3939048834084,572.8456050404227 L771.0063434756294,582.699904781585 M771.0063434756294,582.699904781585 L766.800446532352,592.6242039308809 M766.800446532352,592.6242039308809 L762.7827352108256,602.6021438075859 M762.7827352108256,602.6021438075859 L758.9593173542976,612.6177742745014 M758.9593173542976,612.6177742745014 L755.3359600207448,622.6547108683387 M755.3359600207448,622.6547108683387 L751.9180070299503,632.6969120409502 M751.9180070299503,632.6969120409502 L748.7104279117691,642.7281584495648 M748.7104279117691,642.7281584495648 L745.7177625512697,652.732506643557 M745.7177625512697,652.732506643557 L742.9441555019816,662.6939816864395 M742.9441555019816,662.6939816864395 L740.3933013281649,672.5970270837697 M740.3933013281649,672.5970270837697 L738.0684817390202,682.4261955947006 M738.0684817390202,682.4261955947006 L735.9725896009659,692.1659517130586 M735.9725896009659,692.1659517130586 L734.1080291891749,701.8015425927787 M734.1080291891749,701.8015425927787 L732.4768192869828,711.3181522131265 M732.4768192869828,711.3181522131265 L731.0805216958499,720.7015527702777 M731.0805216958499,720.7015527702777 L729.9203195772739,729.937476362209 M845.9994804165678,457.4347164261558 L846.0119771925135,457.5243874284578 M846.0119771925135,457.5243874284578 L846.0071633996718,457.62922032293795 M846.0071633996718,457.62922032293795 L845.9853243738203,457.7430052046165 M845.9853243738203,457.7430052046165 L845.9477187398354,457.8593466452456 M845.9477187398354,457.8593466452456 L845.8965378972919,457.9712658709844 M845.8965378972919,457.9712658709844 L845.8347705854826,458.07231531673597 M845.8347705854826,458.07231531673597 L845.7659656044377,458.1568045876993 M845.7659656044377,458.1568045876993 L845.6941683718246,458.2195191065087 M845.6941683718246,458.2195191065087 L845.6235126579784,458.2570797558735 M845.6235126579784,458.2570797558735 L845.5581222506844,458.26715720841105 M845.5581222506844,458.26715720841105 L845.5018069884884,458.249151188969 M845.5018069884884,458.249151188969 L845.4578095446504,458.2042165476779 M845.4578095446504,458.2042165476779 L845.4287113292746,458.13489392442193 M964.9112294138324,178.12455087138562 L963.3443424081047,188.44491037471607 M963.3443424081047,188.44491037471607 L961.5591615948326,198.82370991162145 M961.5591615948326,198.82370991162145 L959.558817638775,209.2481054458152 M959.558817638775,209.2481054458152 L957.3465597822167,219.70586876834557 M957.3465597822167,219.70586876834557 L954.9258683844776,230.184331144588 M954.9258683844776,230.184331144588 L952.3003550516785,240.67129509151903 M952.3003550516785,240.67129509151903 L949.4738432673732,251.154325998687 M949.4738432673732,251.154325998687 L946.4502864556673,261.6214306565287 M946.4502864556673,261.6214306565287 L943.2338153187529,272.06047655884663 M943.2338153187529,272.06047655884663 L939.8287403850675,282.45939487899506 M939.8287403850675,282.45939487899506 L936.2394525346017,292.8065365082449 M936.2394525346017,292.8065365082449 L932.4705932895565,303.0900371401379 M932.4705932895565,303.0900371401379 L928.5268687849853,313.29821689176293 M928.5268687849853,313.29821689176293 L924.4131261264115,323.41974267384535 M924.4131261264115,323.41974267384535 L920.134384277764,333.44306517151284 M920.134384277764,333.44306517151284 L915.6957605021742,343.3570817747284 M915.6957605021742,343.3570817747284 L911.1025124020643,353.15067635547973 M911.1025124020643,353.15067635547973 L906.3600358755737,362.8128147768963 M906.3600358755737,362.8128147768963 L901.4738223503537,372.3327655295978 M901.4738223503537,372.3327655295978 L896.4495180591696,381.6996358568436 M896.4495180591696,381.6996358568436 L891.2928317238507,390.90314562935487 M891.2928317238507,390.90314562935487 L886.0096318217741,399.9328294033945 M886.0096318217741,399.9328294033945 L880.6058749144147,408.77848448157766 M880.6058749144147,408.77848448157766 L875.0876525065448,417.4299277397078 M875.0876525065448,417.4299277397078 L869.4611453039511,425.87732511959905 M869.4611453039511,425.87732511959905 L863.7326117691655,434.11108426990245 M863.7326117691655,434.11108426990245 L857.9084910136833,442.12137637285707 M857.9084910136833,442.12137637285707 L851.9952404859318,449.89905041064276 M851.9952404859318,449.89905041064276 L845.9994804165678,457.4347164261558 M598.7594612012022,345.6132308810344 L964.9112294138324,178.12455087138562 M575.9340220471654,605.0761284752532 L598.7594612012022,345.6132308810344 M563.2227106403093,611.6323226081133 L575.9340220471654,605.0761284752532 M542.6179589777721,851.2549522612729 L563.2227106403093,611.6323226081133 M729.9203195772739,729.937476362209 L714.863065521525,723.5685175882659 M714.863065521525,723.5685175882659 L713.0858531317087,739.3182887342773 M527.4598042667368,844.2710680190085 L547.3872673976668,605.0761284752532 M560.1078283283382,598.5587557986933 L547.3872673976668,605.0761284752532 M560.1078283283382,598.5587557986933 L582.1943948039578,339.6212178194983 M948.7382378129328,173.12027457735383 L582.1943948039578,339.6212178194983 M948.7382378129328,173.12027457735383 L947.2005742962199,183.4192491342061 M947.2005742962199,183.4192491342061 L945.4441753194608,193.77626238997584 M945.4441753194608,193.77626238997584 L943.4721368040282,204.17849380905398 M943.4721368040282,204.17849380905398 L941.2876759147903,214.6137373699438 M941.2876759147903,214.6137373699438 L938.8942404791705,225.06934733369349 M938.8942404791705,225.06934733369349 L936.2954118068787,235.5331482565599 M936.2954118068787,235.5331482565599 L933.4949832427089,245.99272804510963 M933.4949832427089,245.99272804510963 L930.4968802049739,256.43611518238924 M930.4968802049739,256.43611518238924 L927.3052057650928,266.8511991709016 M927.3052057650928,266.8511991709016 L923.9242438605677,277.22593319340757 M923.9242438605677,277.22593319340757 L920.3583606887667,287.5486893957297 M920.3583606887667,287.5486893957297 L916.6121734120516,297.8076254170408 M916.6121734120516,297.8076254170408 L912.6903648912564,307.991083014928 M912.6903648912564,307.991083014928 L908.5977607766015,318.08775034329324 M908.5977607766015,318.08775034329324 L904.3393586479613,328.08609998313125 M904.3393586479613,328.08609998313125 L899.9202563840856,337.9750506514996 M899.9202563840856,337.9750506514996 L895.3456928183048,347.7435078722137 M895.3456928183048,347.7435078722137 L890.62104598582,357.38045935482575 M890.62104598582,357.38045935482575 L885.7517909349615,366.87519521845866 M885.7517909349615,366.87519521845866 L880.7435576571563,376.21684503528604 M880.7435576571563,376.21684503528604 L875.6020409912555,385.39515028201225 M875.6020409912555,385.39515028201225 L870.3330955726126,394.3996679386147 M870.3330955726126,394.3996679386147 L864.9426653873613,403.2202177024497 M864.9426653873613,403.2202177024497 L859.4368299617936,411.8466393370126 M859.4368299617936,411.8466393370126 L853.8217595317988,420.26912156751814 M853.8217595317988,420.26912156751814 L848.1037032002935,428.4780949051126 M848.1037032002935,428.4780949051126 L842.2890905625954,436.4637544810077 M842.2890905625954,436.4637544810077 L836.3843718526703,444.2169725339576 M836.3843718526703,444.2169725339576 L830.3961598305457,451.72838346926955 M829.8260554106266,452.42627838855515 L829.855455182085,452.495548300119 M829.855455182085,452.495548300119 L829.8997173168086,452.5404996617269 M829.8997173168086,452.5404996617269 L829.9562451832658,452.5585906929581 M829.9562451832658,452.5585906929581 L830.0217834904229,452.54866183309576 M830.0217834904229,452.54866183309576 L830.09251382414,452.51130467415635 M830.09251382414,452.51130467415635 L830.1643084774514,452.44883644373306 M830.1643084774514,452.44883644373306 L830.233033085244,452.36462245211345 M830.233033085244,452.36462245211345 L830.294647740915,452.2638606967118 M830.294647740915,452.2638606967118 L830.345612043682,452.1522252337026 M830.345612043682,452.1522252337026 L830.3829496160538,452.0361472050422 M830.3829496160538,452.0361472050422 L830.4044853151706,451.92258971924747 M830.4044853151706,451.92258971924747 L830.4089774805486,451.81793536406605 M830.4089774805486,451.81793536406605 L830.3961598305457,451.72838346926955 M714.863065521525,723.5685175882659 L715.9974771661268,714.3483561900683 M715.9974771661268,714.3483561900683 L717.3681449444803,704.9815420699564 M717.3681449444803,704.9815420699564 L718.9739250023263,695.4823174264228 M718.9739250023263,695.4823174264228 L720.8132939878928,685.8648829554412 M720.8132939878928,685.8648829554412 L722.8842724864826,676.1440251059505 M722.8842724864826,676.1440251059505 L725.1844946784986,666.3344658176059 M725.1844946784986,666.3344658176059 L727.7111076296937,656.4517069165777 M727.7111076296937,656.4517069165777 L730.4608685894505,646.5111607177989 M730.4608685894505,646.5111607177989 L733.4301215416435,636.5283472431014 M733.4301215416435,636.5283472431014 L736.6147609484501,626.5192029055534 M736.6147609484501,626.5192029055534 L740.0102851459524,616.4996314150188 M740.0102851459524,616.4996314150188 L743.611762905336,606.4858106660957 M743.611762905336,606.4858106660957 L747.4138875074073,596.4937399071384 M747.4138875074073,596.4937399071384 L751.4109292956978,586.5397596046553 M751.4109292956978,586.5397596046553 L755.5968158954256,576.6397756208623 M755.5968158954256,576.6397756208623 L759.9650621330823,566.8101006914023 M759.9650621330823,566.8101006914023 L764.5088526688639,557.0666760152478 M764.5088526688639,557.0666760152478 L769.2210365053472,547.4252628768159 M769.2210365053472,547.4252628768159 L774.0940881243055,537.90186178394 M774.0940881243055,537.90186178394 L779.1202306044881,528.5118058675107 M779.1202306044881,528.5118058675107 L784.2913456079232,519.2705179853101 M784.2913456079232,519.2705179853101 L789.5990618675282,510.1930368805381 M789.5990618675282,510.1930368805381 L795.0347538199126,501.29400465884055 M795.0347538199126,501.29400465884055 L800.5895610088696,492.58785302455703 M800.5895610088696,492.58785302455703 L806.2543938342592,484.0885815141079 M806.2543938342592,484.0885815141079 L812.0199806348749,475.8098275721338 M812.0199806348749,475.8098275721338 L817.8768606598467,467.7648617937291 M817.8768606598467,467.7648617937291 L823.8154732749695,459.96622128414344 M823.8154732749695,459.96622128414344 L829.8260554106266,452.42627838855515 M547.3872673976668,605.0761284752532 L563.2227106403093,611.6323226081133 M845.4287113292746,458.13489392442193 L829.8260554106266,452.42627838855515 M845.9994804165678,457.4347164261558 L830.3961598305457,451.72838346926955 M964.9112294138324,178.12455087138562 L948.7382378129328,173.12027457735383 M598.7594612012022,345.6132308810344 L582.1943948039578,339.6212178194983 M575.9340220471654,605.0761284752532 L560.1078283283382,598.5587557986933" stroke="black"  stroke-width="4"  fill="red"/>
<path d="M808.0585922805546,692.8947156521838 L809.9096699107229,678.3998980976013 M809.9096699107229,678.3998980976013 L810.0812240255211,678.4858743095477 M810.0812240255211,678.4858743095477 L810.2097881162433,678.5854824652338 M810.2097881162433,678.5854824652338 L810.2879281021533,678.6929419471473 M810.2879281021533,678.6929419471473 L810.3110484133258,678.8019861250259 M810.3110484133258,678.8019861250259 L810.277836073841,678.906311791274 M810.277836073841,678.906311791274 L810.19016876404,678.9998188782724 M810.19016876404,678.9998188782724 L810.0531850766706,679.0770853971846 M810.0531850766706,679.0770853971846 L809.8748263472605,679.1336275853407 M809.8748263472605,679.1336275853407 L809.6654208076959,679.1661357245764 M809.6654208076959,679.1661357245764 L809.4372232767532,679.172734315238 M809.4372232767532,679.172734315238 L809.2034261668855,679.1530267032216 M809.2034261668855,679.1530267032216 L808.9776792054508,679.1081783617104 M808.9776792054508,679.1081783617104 L808.7730900964464,679.0407795549655 M808.7730900964464,679.0407795549655 L808.6015435883453,678.9547613919816 M808.6015435883453,678.9547613919816 L808.4730290602454,678.8551208950339 M808.4730290602454,678.8551208950339 L808.3950171941635,678.7476656500833 M808.3950171941635,678.7476656500833 L808.3719892693528,678.6386266792449 M808.3719892693528,678.6386266792449 L808.405285082702,678.5343255601103 M808.405285082702,678.5343255601103 L808.4930077968716,678.4408567297967 M808.4930077968716,678.4408567297967 L808.6300061484653,678.3636334149323 M808.6300061484653,678.3636334149323 L808.8083354450334,678.3071294879535 M808.8083354450334,678.3071294879535 L809.017674171768,678.2746458887034 M809.017674171768,678.2746458887034 L809.245782851325,678.2680525058338 M809.245782851325,678.2680525058338 L809.479441441365,678.2877252401964 M809.479441441365,678.2877252401964 L809.7051168870121,678.3325412440804 M809.7051168870121,678.3325412440804 L809.9096699107229,678.3998980976013 M808.0585922805546,692.8947156521838 L807.8545839326127,692.8270919537704 M807.8545839326127,692.8270919537704 L807.6294854402438,692.7820983988411 M807.6294854402438,692.7820983988411 L807.3964025097871,692.7623477241366 M807.3964025097871,692.7623477241366 L807.1688348869475,692.7689672290641 M807.1688348869475,692.7689672290641 L806.95997127021,692.8015795224356 M806.95997127021,692.8015795224356 L806.7820233483633,692.8583073023965 M806.7820233483633,692.8583073023965 L806.645290593427,692.935836543827 M806.645290593427,692.935836543827 L806.5577022890516,693.0296756417948 M806.5577022890516,693.0296756417948 L806.5244017333553,693.1343899178296 M806.5244017333553,693.1343899178296 L806.5472861403478,693.2438607885191 M806.5472861403478,693.2438607885191 L806.6250240261397,693.3517416356372 M806.6250240261397,693.3517416356372 L806.7531498808237,693.4517767607581 M806.7531498808237,693.4517767607581 L806.9242156186831,693.5381355835057 M806.9242156186831,693.5381355835057 L807.128259845264,693.6058013004048 M807.128259845264,693.6058013004048 L807.3534294849794,693.6508272432648 M807.3534294849794,693.6508272432648 L807.5866503586876,693.670612896922 M807.5866503586876,693.670612896922 L807.8143064118899,693.6639881761013 M807.8143064118899,693.6639881761013 L808.0232365415559,693.6313513045701 M808.0232365415559,693.6313513045701 L808.2012137863458,693.5745852039138 M808.2012137863458,693.5745852039138 L808.3379319822043,693.4970126912281 M808.3379319822043,693.4970126912281 L808.4254651783338,693.4031352770642 M808.4254651783338,693.4031352770642 L808.4586826795328,693.298396415731 M808.4586826795328,693.298396415731 L808.4357063325479,693.1889203299013 M808.4357063325479,693.1889203299013 L808.3578408289334,693.0810351921854 M808.3578408289334,693.0810351921854 L808.2296656226574,692.9810324586354 M808.2296656226574,692.9810324586354 L808.0585922805546,692.8947156521838 M810.7616846739188,677.9194738842956 L811.1905994964147,678.1343504677666 M811.1905994964147,678.1343504677666 L811.5120916050157,678.3832931384716 M811.5120916050157,678.3832931384716 L811.7075721835324,678.6519008976254 M811.7075721835324,678.6519008976254 L811.7655571962896,678.9245382234094 M811.7655571962896,678.9245382234094 L811.6826436056176,679.1853739760467 M811.6826436056176,679.1853739760467 L811.4636119674399,679.4192183549183 M811.4636119674399,679.4192183549183 L811.1211542955473,679.6124803992816 M811.1211542955473,679.6124803992816 L810.6751869589389,679.7538929928428 M810.6751869589389,679.7538929928428 L810.1516044350033,679.8352240818792 M810.1516044350033,679.8352240818792 L809.580906887953,679.8517278862453 M809.580906887953,679.8517278862453 L808.9962725147332,679.8024374296813 M808.9962725147332,679.8024374296813 L808.4318079485381,679.6902583319718 M808.4318079485381,679.6902583319718 L807.920234842258,679.5216776945942 M807.920234842258,679.5216776945942 L807.4914155365161,679.3065584702097 M807.4914155365161,679.3065584702097 L807.1701852135477,679.0573941149383 M807.1701852135477,679.0573941149383 L806.975253585917,678.788710155069 M806.975253585917,678.788710155069 L806.9178460313126,678.5161053794302 M806.9178460313126,678.5161053794302 L807.0012812732989,678.2554230341176 M807.0012812732989,678.2554230341176 L807.2206592178677,678.0218177625451 M807.2206592178677,678.0218177625451 L807.5632085487675,677.8288257657097 M807.5632085487675,677.8288257657097 L808.008991894128,677.6876522809694 M808.008991894128,677.6876522809694 L808.5321569037089,677.6064745952906 M808.5321569037089,677.6064745952906 L809.1022990866556,677.5900033351321 M809.1022990866556,677.5900033351321 L809.686319503377,677.6391784718126 M809.686319503377,677.6391784718126 L810.2503850744431,677.7511750044588 M810.2503850744431,677.7511750044588 L810.7616846739188,677.9194738842956 M810.979595986352,676.2148687692791 L811.4086522371665,676.4296447803855 M811.4086522371665,676.4296447803855 L811.7302587994989,676.678470948487 M811.7302587994989,676.678470948487 L811.9258202312776,676.9469530191907 M811.9258202312776,676.9469530191907 L811.9838477486996,677.2194627892562 M811.9838477486996,677.2194627892562 L811.9009358219203,677.4801765248708 M811.9009358219203,677.4801765248708 L811.6818648838762,677.7139115274049 M811.6818648838762,677.7139115274049 L811.3393292133694,677.9070831872785 M811.3393292133694,677.9070831872785 L810.8932497107103,678.0484296510797 M810.8932497107103,678.0484296510797 L810.3695273684591,678.1297227089332 M810.3695273684591,678.1297227089332 L809.798670504943,678.1462187961647 M809.798670504943,678.1462187961647 L809.2138665918467,678.0969513878856 M809.2138665918467,678.0969513878856 L808.6492321695837,677.9848247475175 M808.6492321695837,677.9848247475175 L808.1374987467559,677.8163229479056 M808.1374987467559,677.8163229479056 L807.7085380297942,677.601304335561 M807.7085380297942,677.601304335561 L807.3871933929572,677.352256529683 M807.3871933929572,677.352256529683 L807.1921812006742,677.0836982669455 M807.1921812006742,677.0836982669455 L807.1347314700097,676.8112210409633 M807.1347314700097,676.8112210409633 L807.2181653568184,676.5506606841069 M807.2181653568184,676.5506606841069 L807.4375828193351,676.317164744346 M807.4375828193351,676.317164744346 L807.780210226357,676.1242630817125 M807.780210226357,676.1242630817125 L808.2261056569419,675.9831556822063 M808.2261056569419,675.9831556822063 L808.7494102641826,675.9020159991444 M808.7494102641826,675.9020159991444 L809.3197114536729,675.88555245006 M809.3197114536729,675.88555245006 L809.9039010666913,675.9347045654391 M809.9039010666913,675.9347045654391 L810.468136237937,676.0466486692317 M810.468136237937,676.0466486692317 L810.979595986352,676.2148687692791 M810.979595986352,676.2148687692791 L810.7616846739188,677.9194738842956" stroke="black"  stroke-width="4"  fill="red"/>
<path d="M48.71533477476419,456.3014093244399 L-139.6284748852878,536.9205092087434 M48.71533477476419,456.3014093244399 L37.179856175204065,451.3873815860923 M-151.14732891713447,531.613376203735 L37.179856175204065,451.3873815860923 M-139.6284748852878,536.9205092087434 L-151.14732891713447,531.613376203735 M-139.6284748852878,536.9205092087434 L-145.87781268330355,318.0503483376831 M-145.87781268330355,318.0503483376831 L-133.02599826740152,313.1198471822537 M-133.02599826740152,313.1198471822537 L-139.24574728307743,78.65765444851615 M-139.24574728307743,78.65765444851615 L235.92150830566288,-47.44076629179506 M235.92150830566288,-47.44076629179506 L235.53267229800497,-38.12765158932473 M235.53267229800497,-38.12765158932473 L234.91191919110884,-28.772749688638896 M234.91191919110884,-28.772749688638896 L234.06091276364646,-19.387786493835392 M234.06091276364646,-19.387786493835392 L232.9815394853299,-9.983933724079748 M232.9815394853299,-9.983933724079748 L231.675896306622,-0.5727647822537847 M231.675896306622,-0.5727647822537847 L230.1462988565944,8.8345730589499 M230.1462988565944,8.8345730589499 L228.39527893569948,18.226718129421215 M228.39527893569948,18.226718129421215 L226.42558216674672,27.592710880786967 M226.42558216674672,27.592710880786967 L224.24014529313183,36.92146742421892 M224.24014529313183,36.92146742421892 L221.84212515649142,46.201966938719465 M221.84212515649142,46.201966938719465 L219.23483532034538,55.42357235966949 M219.23483532034538,55.42357235966949 L216.4218511396739,64.57546260760353 M216.4218511396739,64.57546260760353 L213.40685694153944,73.64698665023639 M213.40685694153944,73.64698665023639 L210.19375037428233,82.62781978046303 M210.19375037428233,82.62781978046303 L206.7866037331188,91.50745093758349 M206.7866037331188,91.50745093758349 L203.1896680077599,100.27578709216368 M203.1896680077599,100.27578709216368 L199.40735953465037,108.92273556949385 M199.40735953465037,108.92273556949385 L195.44426957279882,117.43829298344178 M195.44426957279882,117.43829298344178 L191.3051451322757,125.81274618324471 M191.3051451322757,125.81274618324471 L186.99489406323414,134.0362519444567 M186.99489406323414,134.0362519444567 L182.51858216475216,142.09954258480627 M182.51858216475216,142.09954258480627 L177.88143714262856,149.99320137284565 M177.88143714262856,149.99320137284565 L173.0888266040737,157.70807017741902 M173.0888266040737,157.70807017741902 L168.1462776375198,165.23503073634924 M168.1462776375198,165.23503073634924 L163.05946786738366,172.56530543339318 M163.05946786738366,172.56530543339318 L157.83419835331404,179.69035886409472 M157.83419835331404,179.69035886409472 L152.47644464990105,186.60146693600313 M152.47644464990105,186.60146693600313 L146.99229430783475,193.29054658009557 M146.99229430783475,193.29054658009557 L141.38798767627577,199.7493243547658 M141.38798767627577,199.7493243547658 L141.41299870298383,199.83289415189324 M141.41299870298383,199.83289415189324 L141.42099630120026,199.9290381923314 M141.42099630120026,199.9290381923314 L141.41150678875374,200.03206122317442 M141.41150678875374,200.03206122317442 L141.38509750275455,200.1361750413356 M141.38509750275455,200.1361750413356 L141.34328218718332,200.23512897433613 M141.34328218718332,200.23512897433613 L141.28851387737802,200.3232253741744 M141.28851387737802,200.3232253741744 L141.2239539661747,200.39550873400538 M141.2239539661747,200.39550873400538 L141.1533671917183,200.44750158198383 M141.1533671917183,200.44750158198383 L141.0808470960227,200.4764237617212 M141.0808470960227,200.4764237617212 L141.0106090482579,200.4804610927265 M141.0106090482579,200.4804610927265 L140.94674371148818,200.45936644603057 M140.94674371148818,200.45936644603057 L140.89294340213547,200.41446339712422 M140.89294340213547,200.41446339712422 L140.85235247119164,200.3482985298159 M140.85235247119164,200.3482985298159 L135.22805629556422,206.83061671899156 M135.22805629556422,206.83061671899156 L129.7147931471926,213.55624021743836 M129.7147931471926,213.55624021743836 L124.32150045272607,220.51467637318854 M124.32150045272607,220.51467637318854 L119.05687741597683,227.6952836188575 M119.05687741597683,227.6952836188575 L113.92942840460836,235.08675366443765 M113.92942840460836,235.08675366443765 L108.94741228384413,242.6774410980688 M108.94741228384413,242.6774410980688 L104.11885204111036,250.45536672125013 M104.11885204111036,250.45536672125013 L99.4514763071627,258.4081473419009 M99.4514763071627,258.4081473419009 L94.95274149215709,266.52319811207224 M94.95274149215709,266.52319811207224 L90.62978909806111,274.7875570716917 M90.62978909806111,274.7875570716917 L86.4894498851283,283.1878946437306 M86.4894498851283,283.1878946437306 L82.53820635011692,291.7109420001908 M82.53820635011692,291.7109420001908 L78.78219930039506,300.34279671827335 M78.78219930039506,300.34279671827335 L75.22720512076131,309.0697481255407 M75.22720512076131,309.0697481255407 L71.87862762396844,317.87789102141994 M71.87862762396844,317.87789102141994 L68.74148130625133,326.7529465070434 M68.74148130625133,326.7529465070434 L65.8203964419526,335.68097286171036 M65.8203964419526,335.68097286171036 L63.119593344694465,344.6475907520546 M63.119593344694465,344.6475907520546 L60.64288945228867,353.6386922234864 M60.64288945228867,353.6386922234864 L58.393687823041375,362.63996142369814 M58.393687823041375,362.63996142369814 L56.374973119939,371.63728731440517 M56.374973119939,371.63728731440517 L54.589310491997765,380.61648033918897 M54.589310491997765,380.61648033918897 L53.038841531394894,389.56368231161 M53.038841531394894,389.56368231161 L51.72528577053754,398.46508183784965 M51.72528577053754,398.46508183784965 L50.649941693435835,407.30673161223774 M50.649941693435835,407.30673161223774 L49.8136854509832,416.07534533935257 M49.8136854509832,416.07534533935257 L49.21697729898915,424.7575217425674 M49.21697729898915,424.7575217425674 L48.8598636377784,433.3403411010159 M48.8598636377784,433.3403411010159 L48.74198334321164,441.8107883807786 M48.74198334321164,441.8107883807786 L48.71533477476419,456.3014093244399 M48.74198334321164,441.8107883807786 L37.17985756730832,436.9202085889236 M37.17985756730832,436.9202085889236 L37.179856175204065,451.3873815860923 M37.17985756730832,436.9202085889236 L37.282241627472445,428.4636792030892 M37.282241627472445,428.4636792030892 L37.62383864952767,419.8953347437583 M37.62383864952767,419.8953347437583 L38.205031926741526,411.2281674296328 M38.205031926741526,411.2281674296328 L39.02579691447556,402.4750733762464 M39.02579691447556,402.4750733762464 L40.0856959733548,393.64942852927857 M40.0856959733548,393.64942852927857 L41.38387524569674,384.76449312467525 M41.38387524569674,384.76449312467525 L42.91905965577894,375.834186410643 M42.91905965577894,375.834186410643 L44.689552740705835,366.8722910675258 M44.689552740705835,366.8722910675258 L46.69323598505321,357.89263563920537 M46.69323598505321,357.89263563920537 L48.92756785608975,348.90937866063103 M48.92756785608975,348.90937866063103 L51.3895871009621,339.93659949013886 M51.3895871009621,339.93659949013886 L54.07591439343025,330.9885812001849 M54.07591439343025,330.9885812001849 L56.982755593436764,322.07939860062004 M56.982755593436764,322.07939860062004 L60.105914144879875,313.22339675557566 M60.105914144879875,313.22339675557566 L63.44078267304786,304.43448322178426 M63.44078267304786,304.43448322178426 L66.98237017116764,295.7269015938226 M66.98237017116764,295.7269015938226 L70.72529558072978,287.11452186834833 M70.72529558072978,287.11452186834833 L74.66380487055818,278.6110193715939 M74.66380487055818,278.6110193715939 L78.79177989818197,270.23026042248694 M78.79177989818197,270.23026042248694 L83.1027596171491,261.9854784706605 M83.1027596171491,261.9854784706605 L87.58993477039888,253.8899672775234 M87.58993477039888,253.8899672775234 L92.246184629519,245.95665336985564 M92.246184629519,245.95665336985564 L97.06407278771826,238.19808659309672 M97.06407278771826,238.19808659309672 L102.03589018717508,230.62661535022528 M102.03589018717508,230.62661535022528 L107.15363256699857,223.25418461956133 M107.15363256699857,223.25418461956133 L112.40905909607602,216.09240614148894 M112.40905909607602,216.09240614148894 L117.79368271084672,209.15255510495388 M117.79368271084672,209.15255510495388 L123.29882018048562,202.44524120743006 M123.29882018048562,202.44524120743006 L128.9155496278011,195.98092553154845 M128.9155496278011,195.98092553154845 L128.9562978293681,196.04702320315494 M128.9562978293681,196.04702320315494 L129.01022633754474,196.09191185689303 M129.01022633754474,196.09191185689303 L129.07418345629043,196.1130456109829 M129.07418345629043,196.1130456109829 L129.1444713683021,196.10909880656038 M129.1444713683021,196.10909880656038 L129.21699652810025,196.08031327617152 M129.21699652810025,196.08031327617152 L129.28754351972532,196.02849502340484 M129.28754351972532,196.02849502340484 L129.35202066481764,195.95641448936772 M129.35202066481764,195.95641448936772 L129.40666854104512,195.86853686245547 M129.40666854104512,195.86853686245547 L129.44833246200471,195.76980525068302 M129.44833246200471,195.76980525068302 L129.4745680712678,195.66590445101951 M129.4745680712678,195.66590445101951 L129.4838721107704,195.5630724359255 M129.4838721107704,195.5630724359255 L129.47568763738417,195.46708663852507 M129.47568763738417,195.46708663852507 L129.45049940540844,195.3836329388298 M223.5946913946533,-51.25495226127293 L223.2233274922378,-41.95963162382941 M223.2233274922378,-41.95963162382941 L222.6199257645343,-32.62278038037243 M222.6199257645343,-32.62278038037243 L221.78612705068713,-23.256104460009965 M221.78612705068713,-23.256104460009965 L220.72379635616562,-13.870756692403916 M220.72379635616562,-13.870756692403916 L219.43500881237264,-4.478290891884967 M219.43500881237264,-4.478290891884967 L217.92205946926913,4.910164458614872 M217.92205946926913,4.910164458614872 L216.18745956709313,14.283266883626197 M216.18745956709313,14.283266883626197 L214.23393536616118,23.630075327168583 M214.23393536616118,23.630075327168583 L212.06440442244707,32.93952465730899 M212.06440442244707,32.93952465730899 L209.6820049494305,42.20061278722142 M209.6820049494305,42.20061278722142 L207.09003299798405,51.40272074300708 M207.09003299798405,51.40272074300708 L204.29204653292754,60.53504606241904 M204.29204653292754,60.53504606241904 L201.29171315422138,69.5869560748099 M201.29171315422138,69.5869560748099 L198.09291482987646,78.5481440417791 M198.09291482987646,78.5481440417791 L194.6997082076673,87.40811738263949 M194.6997082076673,87.40811738263949 L191.11632981038838,96.15680100759118 M191.11632981038838,96.15680100759118 L187.34718187513886,104.78412040058583 M187.34718187513886,104.78412040058583 L183.39684209917812,113.28009042935435 M183.39684209917812,113.28009042935435 L179.27004482429868,121.63501593980459 M179.27004482429868,121.63501593980459 L174.97168532372734,129.83907222189805 M174.97168532372734,129.83907222189805 L170.50681823481125,137.8830093987475 M170.50681823481125,137.8830093987475 L165.88066013588855,145.75742914448324 M165.88066013588855,145.75742914448324 L161.09856828221257,153.4531916106439 M161.09856828221257,153.4531916106439 L156.16605977596646,160.96119712428765 M156.16605977596646,160.96119712428765 L151.08880316739464,168.27268644762785 M151.08880316739464,168.27268644762785 L145.87259112998316,175.37914250641427 M145.87259112998316,175.37914250641427 L140.52339073689473,182.2718603224548 M140.52339073689473,182.2718603224548 L135.04728245595277,188.94277521805157 M135.04728245595277,188.94277521805157 L129.45049940540844,195.3836329388298 M223.5946913946533,-51.25495226127293 L-151.57456690595768,74.19800143886062 M-144.93726856553963,308.2146761118499 L-151.57456690595768,74.19800143886062 M-144.93726856553963,308.2146761118499 L-157.78666046989338,313.1198442279332 M-151.14732891713447,531.613376203735 L-157.78666046989338,313.1198442279332 M-157.78666046989338,313.1198442279332 L-145.87781268330355,318.0503483376831 M140.85235247119164,200.3482985298159 L128.9155496278011,195.98092553154845 M141.38798767627577,199.7493243547658 L129.45049940540844,195.3836329388298 M235.92150830566288,-47.44076629179506 L223.5946913946533,-51.25495226127293 M-139.24574728307743,78.65765444851615 L-151.57456690595768,74.19800143886062 M-133.02599826740152,313.1198471822537 L-144.93726856553963,308.2146761118499" stroke="black"  stroke-width="4"  fill="red"/>
<path d="M132.45633371601838,415.6169283571338 L132.65734763419454,402.296543675019 M132.65734763419454,402.296543675019 L132.785584272817,402.3629134886046 M132.785584272817,402.3629134886046 L132.87248672051373,402.4398077943471 M132.87248672051373,402.4398077943471 L132.9130129627631,402.52275451436583 M132.9130129627631,402.52275451436583 L132.90480598601005,402.6069325278999 M132.90480598601005,402.6069325278999 L132.8483162988211,402.6874575499069 M132.8483162988211,402.6874575499069 L132.74683988778554,402.759641242091 M132.74683988778554,402.759641242091 L132.60627554612063,402.81928440416596 M132.60627554612063,402.81928440416596 L132.43477335832756,402.86292629929636 M132.43477335832756,402.86292629929636 L132.2423076501844,402.8880265909696 M132.2423076501844,402.8880265909696 L132.04008541947735,402.893117473113 M132.04008541947735,402.893117473113 L131.83984589880754,402.8779114511022 M131.83984589880754,402.8779114511022 L131.653235362254,402.8432915171867 M131.653235362254,402.8432915171867 L131.4911151274938,402.79126629482687 M131.4911151274938,402.79126629482687 L131.36289457986857,402.72486826504917 M131.36289457986857,402.72486826504917 L131.27603782436705,402.6479520241657 M131.27603782436705,402.6479520241657 L131.23557698087984,402.5649949128891 M131.23557698087984,402.5649949128891 L131.24385408067405,402.4808204315044 M131.24385408067405,402.4808204315044 L131.300402556174,402.4003120566832 M131.300402556174,402.4003120566832 L131.40191294834625,402.3281543123777 M131.40191294834625,402.3281543123777 L131.54247868117875,402.26854045259347 M131.54247868117875,402.26854045259347 L131.7139493516467,402.2249245050792 M131.7139493516467,402.2249245050792 L131.90635785223412,402.19984086185013 M131.90635785223412,402.19984086185013 L132.10851029519773,402.1947535100094 M132.10851029519773,402.1947535100094 L132.30868343043932,402.209949141061 M132.30868343043932,402.209949141061 L132.49524619209564,402.24454714194246 M132.49524619209564,402.24454714194246 L132.65734763419454,402.296543675019 M132.45633371601838,415.6169283571338 L132.294578762647,415.56469546084367 M132.294578762647,415.56469546084367 L132.10841222884204,415.52994018294714 M132.10841222884204,415.52994018294714 L131.90866202442248,415.51467547417013 M131.90866202442248,415.51467547417013 L131.70693465299337,415.5197859526269 M131.70693465299337,415.5197859526269 L131.5149287255503,415.54498362290184 M131.5149287255503,415.54498362290184 L131.34381471978725,415.58879783978506 M131.34381471978725,415.58879783978506 L131.2035390168768,415.64868268573434 M131.2035390168768,415.64868268573434 L131.10223520258188,415.7211684267607 M131.10223520258188,415.7211684267607 L131.045797826159,415.8020427435152 M131.045797826159,415.8020427435152 L131.03752983140487,415.88659981604656 M131.03752983140487,415.88659981604656 L131.07789727377553,415.96993397058816 M131.07789727377553,415.96993397058816 L131.16456351881328,416.0471997857356 M131.16456351881328,416.0471997857356 L131.29250747789087,416.11389957581196 M131.29250747789087,416.11389957581196 L131.45428114322675,416.1661612315993 M131.45428114322675,416.1661612315993 L131.6404952487676,416.2009384958272 M131.6404952487676,416.2009384958272 L131.84031155831298,416.2162136208132 M131.84031155831298,416.2162136208132 L132.042108424256,416.2110996034758 M132.042108424256,416.2110996034758 L132.23417132025338,416.1858852443005 M132.23417132025338,416.1858852443005 L132.4053167133385,416.1420450167482 M132.4053167133385,416.1420450167482 L132.54559103385043,416.0821307973042 M132.54559103385043,416.0821307973042 L132.64686101254256,416.0096190453456 M132.64686101254256,416.0096190453456 L132.70323984962033,415.92872804095265 M132.70323984962033,415.92872804095265 L132.7114380166762,415.8441674276891 M132.7114380166762,415.8441674276891 L132.67100544962642,415.76084368965587 M132.67100544962642,415.76084368965587 L132.5842937024263,415.68359986295184 M132.5842937024263,415.68359986295184 L132.45633371601838,415.6169283571338 M133.53164327009614,401.925662375626 L133.8522547304151,402.09153724690043 M133.8522547304151,402.09153724690043 L134.06960952372577,402.28372612127293 M134.06960952372577,402.28372612127293 L134.17105246129995,402.4910716718073 M134.17105246129995,402.4910716718073 L134.15065230089624,402.70152863712923 M134.15065230089624,402.70152863712923 L134.00954782637166,402.90286887503873 M134.00954782637166,402.90286887503873 L133.75592975078558,403.08337312223773 M133.75592975078558,403.08337312223773 L133.40449484214878,403.23254733511425 M133.40449484214878,403.23254733511425 L132.97568887379578,403.3416968679167 M132.97568887379578,403.3416968679167 L132.4944256053978,403.4044748264706 M132.4944256053978,403.4044748264706 L131.9887266136834,403.41721467790927 M131.9887266136834,403.41721467790927 L131.48800742820833,403.37917811535135 M131.48800742820833,403.37917811535135 L131.0214051143489,403.2925815738523 M131.0214051143489,403.2925815738523 L130.61606176891263,403.1624690245926 M130.61606176891263,403.1624690245926 L130.29554785100942,402.9964165601389 M130.29554785100942,402.9964165601389 L130.07847803981343,402.8040903596474 M130.07847803981343,402.8040903596474 L129.97744441958645,402.5966800990942 M129.97744441958645,402.5966800990942 L129.99828257065792,402.38624509188173 M129.99828257065792,402.38624509188173 L130.1397544674499,402.18500889701056 M130.1397544674499,402.18500889701056 L130.39358492526577,402.00466681944044 M130.39358492526577,402.00466681944044 L130.74502852939878,401.8556757598549 M130.74502852939878,401.8556757598549 L131.17363751393037,401.7466883947408 M131.17363751393037,401.7466883947408 L131.6545432393529,401.68401448232817 M131.6545432393529,401.68401448232817 L132.15980633644062,401.671296823588 M132.15980633644062,401.671296823588 L132.6601100376633,401.70926820328543 M132.6601100376633,401.70926820328543 L133.12641435231882,401.79572789036945 M133.12641435231882,401.79572789036945 L133.53164327009614,401.925662375626 M133.55549014202222,400.3596731653862 L133.87618293922225,400.52545906300884 M133.87618293922225,400.52545906300884 L134.09359383856497,400.71754485767536 M134.09359383856497,400.71754485767536 L134.1950643789816,400.92477920953877 M134.1950643789816,400.92477920953877 L134.1746616966173,401.1351233184345 M134.1746616966173,401.1351233184345 L134.03352470106375,401.33635559897886 M134.03352470106375,401.33635559897886 L133.7798459849621,401.51676306947115 M133.7798459849621,401.51676306947115 L133.42832582542928,401.66585730921537 M133.42832582542928,401.66585730921537 L132.99941495514116,401.7749483298318 M132.99941495514116,401.7749483298318 L132.51803323271042,401.8376926361136 M132.51803323271042,401.8376926361136 L132.01220913929944,401.85042565844435 M132.01220913929944,401.85042565844435 L131.51136549066456,401.8124094852383 M131.51136549066456,401.8124094852383 L131.04464660357655,401.7258593648164 M131.04464660357655,401.7258593648164 L130.63920136226977,401.59581656738305 M130.63920136226977,401.59581656738305 L130.3186061535576,401.42985312781497 M130.3186061535576,401.42985312781497 L130.1014803759831,401.23763004674987 M130.1014803759831,401.23763004674987 L130.00041935470637,401.03033100349853 M130.00041935470637,401.03033100349853 L130.02126024496442,400.82000884639984 M130.02126024496442,400.82000884639984 L130.1627648459592,400.6188805788445 M130.1627648459592,400.6188805788445 L130.41665605137098,400.4386352311433 M130.41665605137098,400.4386352311433 L130.76818491285997,400.28972409179204 M130.76818491285997,400.28972409179204 L131.1968987036858,400.18079519202746 M131.1968987036858,400.18079519202746 L131.6779227073066,400.11815490183665 M131.6779227073066,400.11815490183665 L132.18331069042222,400.1054440657655 M132.18331069042222,400.1054440657655 L132.68373864843045,400.14339507499494 M132.68373864843045,400.14339507499494 L133.1501593869906,400.2298083804699 M133.1501593869906,400.2298083804699 L133.55549014202222,400.3596731653862 M133.55549014202222,400.3596731653862 L133.53164327009614,401.925662375626" stroke="black"  stroke-width="4"  fill="red"/>
<path d="M-144.93726856553963,308.2146761118499 L-157.78666046989338,313.1198442279332 M-157.78666046989338,313.1198442279332 L-164.91122941383242,78.65765176227319 M-151.57456690595768,74.19800143886062 L-164.91122941383242,78.65765176227319 M-144.93726856553963,308.2146761118499 L-151.57456690595768,74.19800143886062 M-139.6284748852878,536.9205092087434 L-87.67274034485303,560.8583065639884 M-87.67274034485303,560.8583065639884 L-87.98842820926473,545.2615571988274 M-87.98842820926473,545.2615571988274 L-27.445034631793988,572.956163731455 M-27.279941991657836,588.6833499683864 L-27.445034631793988,572.956163731455 M-27.279941991657836,588.6833499683864 L244.2246074132595,713.7748522283347 M244.2246074132595,713.7748522283347 L244.78533326668173,697.4835890984118 M244.78533326668173,697.4835890984118 L314.3056157170714,729.2845297912561 M313.5467727159654,745.7139627023005 L314.3056157170714,729.2845297912561 M313.5467727159654,745.7139627023005 L527.4598042667368,844.2710680190085 M527.4598042667368,844.2710680190085 L547.3872673976668,605.0761284752532 M547.3872673976668,605.0761284752532 L563.2227106403093,611.6323226081133 M563.2227106403093,611.6323226081133 L585.5788074241916,351.6424528988662 M-164.91122941383242,78.65765176227319 L585.5788074241916,351.6424528988662 M-157.78666046989338,313.1198442279332 L-145.87781268330355,318.0503483376831 M-139.6284748852878,536.9205092087434 L-145.87781268330355,318.0503483376831 M575.9340220471654,605.0761284752532 L560.1078283283382,598.5587557986933 M539.7416460828325,837.3269271442955 L560.1078283283382,598.5587557986933 M539.7416460828325,837.3269271442955 L325.9181289467708,739.3186235310461 M325.9181289467708,739.3186235310461 L326.70876999190443,722.9166663961398 M326.70876999190443,722.9166663961398 L257.2071033867079,691.2884606413372 M256.614428178206,707.5525285877795 L257.2071033867079,691.2884606413372 M256.614428178206,707.5525285877795 L-14.867512381220536,583.1158678675686 M-14.867512381220536,583.1158678675686 L-15.000473815121609,567.4146360226907 M-15.000473815121609,567.4146360226907 L-75.5496518925296,539.860449827489 M-75.26605138225261,555.4315493814823 L-75.5496518925296,539.860449827489 M-75.26605138225261,555.4315493814823 L-127.22986151717191,531.6133793840088 M-127.22986151717191,531.6133793840088 L-133.02599826740152,313.1198471822537 M-133.02599826740152,313.1198471822537 L-144.93726856553963,308.2146761118499 M598.7594612012022,345.6132308810344 L-151.57456690595768,74.19800143886062 M575.9340220471654,605.0761284752532 L598.7594612012022,345.6132308810344 M-139.6284748852878,536.9205092087434 L-127.22986151717191,531.6133793840088 M-145.87781268330355,318.0503483376831 L-133.02599826740152,313.1198471822537 M-75.26605138225261,555.4315493814823 L-87.67274034485303,560.8583065639884 M-75.5496518925296,539.860449827489 L-87.98842820926473,545.2615571988274 M-27.279941991657836,588.6833499683864 L-14.867512381220536,583.1158678675686 M-27.445034631793988,572.956163731455 L-15.000473815121609,567.4146360226907 M256.614428178206,707.5525285877795 L244.2246074132595,713.7748522283347 M257.2071033867079,691.2884606413372 L244.78533326668173,697.4835890984118 M313.5467727159654,745.7139627023005 L325.9181289467708,739.3186235310461 M314.3056157170714,729.2845297912561 L326.70876999190443,722.9166663961398 M539.7416460828325,837.3269271442955 L527.4598042667368,844.2710680190085 M560.1078283283382,598.5587557986933 L547.3872673976668,605.0761284752532 M563.2227106403093,611.6323226081133 L575.9340220471654,605.0761284752532 M585.5788074241916,351.6424528988662 L598.7594612012022,345.6132308810344" stroke="black"  stroke-width="4"  fill="red"/></svg>