<svg viewBox="0 0 800 800" xmlns="http://www.w3.org/2000/svg"><path d="M-384.63695171958454,60.124858965275905 L-403.65614523921704,68.16587073176896 M-403.6561447877589,63.47417922867419 L-403.65614523921704,68.16587073176896 M-403.6561447877589,63.47417922867419 L-403.6562520311793,63.43312445957673 M-403.6562520311793,63.43312445957673 L-403.6563163792489,63.39201907190176 M-403.6563163792489,63.39201907190176 L-403.6563378292061,63.350893992555825 M-384.5917658998468,55.35074669567001 L-403.6563378292061,63.350893992555825 M-384.63695171958454,60.124858965275905 L-384.5917658998468,55.35074669567001 M1149.2916266097857,724.7272620914418 L1134.4541525979687,718.4542162375801 M1134.905970872239,780.5951883350208 L1134.4541525979687,718.4542162375801 M1134.905970872239,780.5951883350208 L404.10261318083917,456.86303436246345 M401.3211228813095,460.85630062197987 L404.10261318083917,456.86303436246345 M227.9753014765838,383.6792121598315 L401.3211228813095,460.85630062197987 M231.16784106503997,380.25618015936334 L227.9753014765838,383.6792121598315 M231.16784106503997,380.25618015936334 L-267.621764145827,159.30175846084958 M-271.4459024942149,161.32672551560302 L-267.621764145827,159.30175846084958 M-361.172825339528,121.37847290845764 L-271.4459024942149,161.32672551560302 M-357.32227333142964,119.56611857158583 L-361.172825339528,121.37847290845764 M-357.32227333142964,119.56611857158583 L-435.6426124334198,84.87168016965518 M-399.97847940907866,69.72072881403187 L-435.6426124334198,84.87168016965518 M-399.97847940907866,69.72072881403187 L-403.65614523921704,68.16587073176896 M1148.6906467155427,692.4585030455639 L-384.63695171958454,60.124858965275905 M1149.2916266097857,724.7272620914418 L1148.6906467155427,692.4585030455639 M-392.06041885661557,64.80644650761786 L-392.11214008436525,64.78950438989341 M-392.11214008436525,64.78950438989341 L-392.17190393092505,64.77823045216212 M-392.17190393092505,64.77823045216212 L-392.23623713795814,64.77327884132933 M-392.23623713795814,64.77327884132933 L-392.30140375785527,64.774937412307 M-392.30140375785527,64.774937412307 L-392.363617616095,64.78310967800371 M-392.363617616095,64.78310967800371 L-392.4192656300877,64.79732138890972 M-392.4192656300877,64.79732138890972 L-392.4651138830636,64.81674706188187 M-392.4651138830636,64.81674706188187 L-392.4984983506952,64.84025879583146 M-392.4984983506952,64.84025879583146 L-392.5174772585601,64.86649058579155 M-392.5174772585601,64.86649058579155 L-392.52094652055825,64.89391880738202 M-392.52094652055825,64.89391880738202 L-392.50870210196035,64.92094916193633 M-392.50870210196035,64.92094916193633 L-392.4814546632156,64.94601088350606 M-392.4814546632156,64.94601088350606 L-392.4407854089782,64.96764630064843 M-392.4407854089782,64.96764630064843 L-392.38905832855176,64.98459788532324 M-392.38905832855176,64.98459788532324 L-392.3292791074016,64.99587906185565 M-392.3292791074016,64.99587906185565 L-392.2649243424131,65.00083410217121 M-392.2649243424131,65.00083410217121 L-392.199734919451,64.9991743654628 M-392.199734919451,64.9991743654628 L-392.1375022372463,64.99099660600814 M-392.1375022372463,64.99099660600814 L-392.0818436905174,64.97677633173691 M-392.0818436905174,64.97677633173691 L-392.03599560908356,64.95734098772209 M-392.03599560908356,64.95734098772209 L-392.00262197797656,64.93382069046504 M-392.00262197797656,64.93382069046504 L-391.9836620889687,64.9075834067686 M-391.9836620889687,64.9075834067686 L-391.98021567138926,64.8801540194745 M-391.98021567138926,64.8801540194745 L-391.9924815262816,64.85312709431298 M-391.9924815262816,64.85312709431298 L-392.01974408281535,64.82807261166727 M-392.01974408281535,64.82807261166727 L-392.06041885661557,64.80644650761786 M1141.6404195542525,705.003917182853 L1141.456403007977,704.9363796151554 M1141.456403007977,704.9363796151554 L1141.2835202407193,704.8915005139215 M1141.2835202407193,704.8915005139215 L1141.1314993558237,704.871752598604 M1141.1314993558237,704.871752598604 L1141.0094938316001,704.8784200378957 M1141.0094938316001,704.8784200378957 L1140.9242105160513,704.9109576952053 M1140.9242105160513,704.9109576952053 L1140.8806647442723,704.9675049968273 M1140.8806647442723,704.9675049968273 L1140.8816207326604,705.0448763222814 M1140.8816207326604,705.0448763222814 L1140.927030864381,705.1385826052258 M1140.927030864381,705.1385826052258 L1141.014036524557,705.2430864914272 M1141.014036524557,705.2430864914272 L1141.1375312454031,705.352294109608 M1141.1375312454031,705.352294109608 L1141.2907236526466,705.460015800312 M1141.2907236526466,705.460015800312 L1141.4643865034184,705.5598531527012 M1141.4643865034184,705.5598531527012 L1141.6487346169602,705.6461258084594 M1141.6487346169602,705.6461258084594 L1141.8326752596895,705.7136596749967 M1141.8326752596895,705.7136596749967 L1142.0056880345926,705.7585963123413 M1142.0056880345926,705.7585963123413 L1142.157827465983,705.7783715376881 M1142.157827465983,705.7783715376881 L1142.2801004618852,705.7717731907867 M1142.2801004618852,705.7717731907867 L1142.3652187204402,705.7391134141976 M1142.3652187204402,705.7391134141976 L1142.40872521311,705.6824980829906 M1142.40872521311,705.6824980829906 L1142.4076766249605,705.605049848077 M1142.4076766249605,705.605049848077 L1142.362141830193,705.5112754312686 M1142.362141830193,705.5112754312686 L1142.2751960037742,705.4068062703611 M1142.2751960037742,705.4068062703611 L1142.1514114465833,705.2975109846222 M1142.1514114465833,705.2975109846222 L1141.998166210768,705.1898165664222 M1141.998166210768,705.1898165664222 L1141.824511914057,705.0900367614438 M1141.824511914057,705.0900367614438 L1141.6404195542525,705.003917182853 M-399.96983719887805,65.02137723800547 L-403.6561447877589,63.47417922867419 M-399.96983719887805,65.02137723800547 L-399.97847940907866,69.72072881403187 M-399.9698030061202,64.8978902591947 L-399.96985732274993,64.93908269677269 M-399.96985732274993,64.93908269677269 L-399.9698687384025,64.98025534890195 M-399.9698687384025,64.98025534890195 L-399.96983719887805,65.02137723800547 M-403.6563378292061,63.350893992555825 L-399.9698030061202,64.8978902591947 M1141.8956991054026,711.9174600971626 L1156.8414892298404,718.1892254904212 M1156.8414892298404,718.1892254904212 L1156.0497742928676,685.9298679204546 M1156.0497742928676,685.9298679204546 L-384.5917658998468,55.35074669567001 M-399.9698030061202,64.8978902591947 L-435.72155834828527,79.97308623391325 M-435.72155834828527,79.97308623391325 L-357.20191561296815,114.50064380830622 M-357.20191561296815,114.50064380830622 L-361.0621824381069,116.3045258387512 M-361.0621824381069,116.3045258387512 L-271.0818592090145,156.07221329792466 M-271.0818592090145,156.07221329792466 L-267.24821959979727,154.0561143877363 M-267.24821959979727,154.0561143877363 L233.4352079052303,374.22237174067016 M233.4352079052303,374.22237174067016 L230.23935206390001,377.63604560153783 M230.23935206390001,377.63604560153783 L404.4389466030741,454.62526705066483 M404.4389466030741,454.62526705066483 L407.2191392771956,450.64063457174933 M407.2191392771956,450.64063457174933 L1142.708259430109,774.0583432720105 M1141.8956991054026,711.9174600971626 L1142.708259430109,774.0583432720105 M-391.7468401069309,59.888204974046744 L-391.6448986083127,59.941978070498976 M-391.6448986083127,59.941978070498976 L-391.5765472711654,60.00428177606739 M-391.5765472711654,60.00428177606739 L-391.5457661917735,60.0714991714226 M-391.5457661917735,60.0714991714226 L-391.55435674347314,60.139725750604725 M-391.55435674347314,60.139725750604725 L-391.60183140432196,60.20499583598075 M-391.60183140432196,60.20499583598075 L-391.68544139792994,60.26351326227575 M-391.68544139792994,60.26351326227575 L-391.8003335483652,60.311872598220134 M-391.8003335483652,60.311872598220134 L-391.93983069915964,60.34725815890192 M-391.93983069915964,60.34725815890192 L-392.09582001352624,60.36760894021893 M-392.09582001352624,60.36760894021893 L-392.2592258935581,60.37173932304506 M-392.2592258935581,60.37173932304506 L-392.4205395831236,60.359408418749126 M-392.4205395831236,60.359408418749126 L-392.57037475154345,60.33133509725775 M-392.57037475154345,60.33133509725775 L-392.7000154778257,60.28915459770769 M-392.7000154778257,60.28915459770769 L-392.8019232865754,60.23532304880166 M-392.8019232865754,60.23532304880166 L-392.87017987206445,60.172974146221975 M-392.87017987206445,60.172974146221975 L-392.9008261485644,60.105735451675116 M-392.9008261485644,60.105735451675116 L-392.89209222755517,60.03751610025245 M-392.89209222755517,60.03751610025245 L-392.8444981274074,59.972280258042815 M-392.8444981274074,59.972280258042815 L-392.7608200788327,59.913816207458524 M-392.7608200788327,59.913816207458524 L-392.6459268485289,59.86551715203831 M-392.6459268485289,59.86551715203831 L-392.5064958403592,59.83018496706694 M-392.5064958403592,59.83018496706694 L-392.3506247384487,59.809868428955895 M-392.3506247384487,59.809868428955895 L-392.1873619674295,59.805745350368966 M-392.1873619674295,59.805745350368966 L-392.02618384662287,59.81805480218145 M-392.02618384662287,59.81805480218145 L-391.87644504642094,59.84608307957831 M-391.87644504642094,59.84608307957831 L-391.7468401069309,59.888204974046744 M1149.0297535825493,697.9894993004023 L1149.4933060289216,698.2045890128018 M1149.4933060289216,698.2045890128018 L1149.9310435600823,698.4538864836272 M1149.9310435600823,698.4538864836272 L1150.3175565242545,698.7229446786071 M1150.3175565242545,698.7229446786071 L1150.6301822834607,698.9960715306818 M1150.6301822834607,698.9960715306818 L1150.8507229011036,699.2573992553412 M1150.8507229011036,699.2573992553412 L1150.9664170084795,699.4917688420721 M1150.9664170084795,699.4917688420721 L1150.97034974453,699.685471794231 M1150.97034974453,699.685471794231 L1150.8622422234691,699.8272092234479 M1150.8622422234691,699.8272092234479 L1150.648479403011,699.908758517231 M1150.648479403011,699.908758517231 L1150.3413716522962,699.9253051497155 M1150.3413716522962,699.9253051497155 L1149.958784186689,699.8758713792333 M1149.958784186689,699.8758713792333 L1149.523187563929,699.7634170508807 M1149.523187563929,699.7634170508807 L1149.0599423445658,699.5944980230079 M1149.0599423445658,699.5944980230079 L1148.5957691211693,699.3788611975995 M1148.5957691211693,699.3788611975995 L1148.157975428446,699.1292023661108 M1148.157975428446,699.1292023661108 L1147.7717947223978,698.8599729497948 M1147.7717947223978,698.8599729497948 L1147.459813499079,698.5869043003081 M1147.459813499079,698.5869043003081 L1147.2400819618679,698.3258508136496 M1147.2400819618679,698.3258508136496 L1147.1251763526775,698.0919087471073 M1147.1251763526775,698.0919087471073 L1147.121830676957,697.8986885882655 M1147.121830676957,697.8986885882655 L1147.2301892941684,697.7573785923298 M1147.2301892941684,697.7573785923298 L1147.4438100494244,697.6761036084151 M1147.4438100494244,697.6761036084151 L1147.7504147903658,697.6596151635877 M1147.7504147903658,697.6596151635877 L1148.132253497192,697.7088776290261 M1148.132253497192,697.7088776290261 L1148.5670275251903,697.8209706361552 M1148.5670275251903,697.8209706361552 L1149.0297535825493,697.9894993004023 M1148.6906467155427,692.4585030455639 L1156.0497742928676,685.9298679204546 M1156.6475850979925,718.3568135788598 L1141.704584852401,712.0850145832594 M1156.6475850979925,718.3568135788598 L1149.2916266097857,724.7272620914418 M1141.704584852401,712.0850145832594 L1134.4541525979687,718.4542162375801 M1141.704584852401,712.0850145832594 L1141.76825334752,712.0292685654676 M1141.76825334752,712.0292685654676 L1141.8319740697107,711.9734030431928 M1141.8319740697107,711.9734030431928 L1141.8956991054026,711.9174600971626 M1134.905970872239,780.5951883350208 L1142.708259430109,774.0583432720105 M404.10261318083917,456.86303436246345 L407.2191392771956,450.64063457174933 M401.3211228813095,460.85630062197987 L404.4389466030741,454.62526705066483 M227.9753014765838,383.6792121598315 L230.23935206390001,377.63604560153783 M231.16784106503997,380.25618015936334 L233.4352079052303,374.22237174067016 M-267.621764145827,159.30175846084958 L-267.24821959979727,154.0561143877363 M-271.4459024942149,161.32672551560302 L-271.0818592090145,156.07221329792466 M-361.172825339528,121.37847290845764 L-361.0621824381069,116.3045258387512 M-357.32227333142964,119.56611857158583 L-357.20191561296815,114.50064380830622 M-435.6426124334198,84.87168016965518 L-435.72155834828527,79.97308623391325 M1156.8414892298404,718.1892254904212 L1156.7768347510525,718.2451803732861 M1156.7768347510525,718.2451803732861 L1156.7121838363723,718.301057099377 M1156.7121838363723,718.301057099377 L1156.6475850979925,718.3568135788598 M-392.06041885661557,64.80644650761786 L-392.03558679830144,60.51324242037845 M-392.03558679830144,60.51324242037845 L-391.994824081607,60.53477012129662 M-391.994824081607,60.53477012129662 L-391.96750216633654,60.55971060487536 M-391.96750216633654,60.55971060487536 L-391.9552089895243,60.58661456093114 M-391.9552089895243,60.58661456093114 L-391.9586617195887,60.61391915292006 M-391.9586617195887,60.61391915292006 L-391.9776611960335,60.64003706968572 M-391.9776611960335,60.64003706968572 L-392.0111053969521,60.663450364864445 M-392.0111053969521,60.663450364864445 L-392.05705093190386,60.682797293453405 M-392.05705093190386,60.682797293453405 L-392.11282815342406,60.696952878323486 M-392.11282815342406,60.696952878323486 L-392.17519382930163,60.70509343696767 M-392.17519382930163,60.70509343696767 L-392.2405228308562,60.706745623551 M-392.2405228308562,60.706745623551 L-392.30501563732673,60.70181312371699 M-392.30501563732673,60.70181312371699 L-392.3649233346383,60.69058326587117 M-392.3649233346383,60.69058326587117 L-392.41676185127335,60.67370879646512 M-392.41676185127335,60.67370879646512 L-392.4575190254874,60.652171804806926 M-392.4575190254874,60.652171804806926 L-392.4848257584197,60.62722409980614 M-392.4848257584197,60.62722409980614 L-392.49709740714934,60.6003167226491 M-392.49709740714934,60.6003167226491 L-392.49362173466443,60.57301329354527 M-392.49362173466443,60.57301329354527 L-392.4746031575993,60.54690085723337 M-392.4746031575993,60.54690085723337 L-392.44114807336246,60.52349610465808 M-392.44114807336246,60.52349610465808 L-392.3952023657639,60.50415882372954 M-392.3952023657639,60.50415882372954 L-392.33943572181795,60.49001178152059 M-392.33943572181795,60.49001178152059 L-392.2770889504129,60.48187670335159 M-392.2770889504129,60.48187670335159 L-392.211782849659,60.480225679680586 M-392.211782849659,60.480225679680586 L-392.1473116937159,60.48515475832352 M-392.1473116937159,60.48515475832352 L-392.08741943719724,60.49637739487008 M-392.08741943719724,60.49637739487008 L-392.03558679830144,60.51324242037845 M1141.6404195542525,705.003917182853 L1148.258744496462,699.1594264573966 M1148.258744496462,699.1594264573966 L1148.4440714550258,699.2455209605953 M1148.4440714550258,699.2455209605953 L1148.6189865224621,699.3452717746354 M1148.6189865224621,699.3452717746354 L1148.773446227691,699.4529349768713 M1148.773446227691,699.4529349768713 L1148.8983274449997,699.56219866176 M1148.8983274449997,699.56219866176 L1148.9861871723454,699.6666376917262 M1148.9861871723454,699.6666376917262 L1149.032403059273,699.7603851241981 M1149.032403059273,699.7603851241981 L1149.0338575236085,699.8378111170148 M1149.0338575236085,699.8378111170148 L1148.99045800516,699.8944102143826 M1148.99045800516,699.8944102143826 L1148.9051442338548,699.9270606358605 M1148.9051442338548,699.9270606358605 L1148.7823814333763,699.9336570935864 M1148.7823814333763,699.9336570935864 L1148.629487551247,699.9138875309611 M1148.629487551247,699.9138875309611 L1148.4555005433065,699.8689637711216 M1148.4555005433065,699.8689637711216 L1148.2704218377967,699.8014492831287 M1148.2704218377967,699.8014492831287 L1148.084836942729,699.7152014272058 M1148.084836942729,699.7152014272058 L1147.909912948411,699.6153928359447 M1147.909912948411,699.6153928359447 L1147.7555063834768,699.5077022522946 M1147.7555063834768,699.5077022522946 L1147.6309171376463,699.398526249314 M1147.6309171376463,699.398526249314 L1147.5429976916912,699.2940526911239 M1147.5429976916912,699.2940526911239 L1147.4969078926479,699.2003736646016 M1147.4969078926479,699.2003736646016 L1147.4955472232602,699.1230248883755 M1147.4955472232602,699.1230248883755 L1147.5389867119839,699.0664940922622 M1147.5389867119839,699.0664940922622 L1147.624466783254,699.033965941994 M1147.624466783254,699.033965941994 L1147.74696026558,699.0273004517055 M1147.74696026558,699.0273004517055 L1147.8997344412703,699.0470425952412 M1147.8997344412703,699.0470425952412 L1148.073590025969,699.0919085892051 M1148.073590025969,699.0919085892051 L1148.258744496462,699.1594264573966 M-391.7468401069309,59.888204974046744 L-391.74983115608245,60.392945533172224 M-391.74983115608245,60.392945533172224 L-391.6479155140713,60.446747652587305 M-391.6479155140713,60.446747652587305 L-391.57958164086756,60.50908498249731 M-391.57958164086756,60.50908498249731 L-391.54880861384856,60.57633865060734 M-391.54880861384856,60.57633865060734 L-391.5573973323594,60.644602043494274 M-391.5573973323594,60.644602043494274 L-391.604860374965,60.70990734387806 M-391.604860374965,60.70990734387806 L-391.68844963532206,60.76845633908249 M-391.68844963532206,60.76845633908249 L-391.8033131394616,60.81684176182648 M-391.8033131394616,60.81684176182648 L-391.9427753956945,60.85224640961053 M-391.9427753956945,60.85224640961053 L-392.0987255980276,60.87260816776757 M-392.0987255980276,60.87260816776757 L-392.2620904266605,60.876740778407 M-392.2620904266605,60.876740778407 L-392.4233635173607,60.864403223125464 M-392.4233635173607,60.864403223125464 L-392.5731609046844,60.83631475913012 M-392.5731609046844,60.83631475913012 L-392.7027688674518,60.79411150662065 M-392.7027688674518,60.79411150662065 L-392.8046508362107,60.74025091792328 M-392.8046508362107,60.74025091792328 L-392.8728900052017,60.677868377955406 M-392.8728900052017,60.677868377955406 L-392.9035282969104,60.610593404533915 M-392.9035282969104,60.610593404533915 L-392.89479628117317,60.54233724148014 M-392.89479628117317,60.54233724148014 L-392.8472138594277,60.47706619413253 M-392.8472138594277,60.47706619413253 L-392.76355657853435,60.41857059002348 M-392.76355657853435,60.41857059002348 L-392.64869199533996,60.3702454651783 M-392.64869199533996,60.3702454651783 L-392.50929584874245,60.33489420848912 M-392.50929584874245,60.33489420848912 L-392.3534637996306,60.31456670340799 M-392.3534637996306,60.31456670340799 L-392.1902420081233,60.31044139912274 M-392.1902420081233,60.31044139912274 L-392.02910441802305,60.32275749571829 M-392.02910441802305,60.32275749571829 L-391.87940335025405,60.35080090265518 M-391.87940335025405,60.35080090265518 L-391.74983115608245,60.392945533172224 M1149.0297535825493,697.9894993004023 L1148.2499941874378,698.6783325196566 M1148.2499941874378,698.6783325196566 L1148.7131824368423,698.8934302395144 M1148.7131824368423,698.8934302395144 L1149.1505477574476,699.1427369457392 M1149.1505477574476,699.1427369457392 L1149.5367020861627,699.4118050532804 M1149.5367020861627,699.4118050532804 L1149.8490037760396,699.684941909534 M1149.8490037760396,699.684941909534 L1150.0692737632705,699.946279151224 M1150.0692737632705,699.946279151224 L1150.1847663965816,700.1806572275027 M1150.1847663965816,700.1806572275027 L1150.1885787075112,700.3743671635132 M1150.1885787075112,700.3743671635132 L1150.0804388849522,700.516109684283 M1150.0804388849522,700.516109684283 L1149.8667337143656,700.5976619003488 M1149.8667337143656,700.5976619003488 L1149.5597703110564,700.6142091251356 M1149.5597703110564,700.6142091251356 L1149.177405480966,700.5647735844852 M1149.177405480966,700.5647735844852 L1148.7420966390375,700.4523152221029 M1148.7420966390375,700.4523152221029 L1148.2791875504522,700.2833901159597 M1148.2791875504522,700.2833901159597 L1147.8153793867796,700.0677454985839 M1147.8153793867796,700.0677454985839 L1147.3779581816266,699.8180776000372 M1147.3779581816266,699.8180776000372 L1146.9921358817073,699.5488383509232 M1146.9921358817073,699.5488383509232 L1146.6804780445739,699.2757596701442 M1146.6804780445739,699.2757596701442 L1146.4610161574249,699.0146965387007 M1146.4610161574249,699.0146965387007 L1146.346310969062,698.780745783449 M1146.346310969062,698.780745783449 L1146.343084833885,698.5875184158447 M1146.343084833885,698.5875184158447 L1146.451475239381,698.4462031292351 M1146.451475239381,698.4462031292351 L1146.6650383200624,698.3649250952494 M1146.6650383200624,698.3649250952494 L1146.9714991834933,698.3484360310126 M1146.9714991834933,698.3484360310126 L1147.3531161117107,698.3977003464227 M1147.3531161117107,698.3977003464227 L1147.7876034059639,698.5097975559038 M1147.7876034059639,698.5097975559038 L1148.2499941874378,698.6783325196566" stroke="black"  stroke-width="4"  fill="red"/>
<path d="M1149.2916266097857,724.7272620914418 L1150.5900842527128,794.4460949712222 M1149.2916266097857,724.7272620914418 L1134.4541525979687,718.4542162375801 M1134.9560694568136,787.485513324985 L1134.4541525979687,718.4542162375801 M1150.5900842527128,794.4460949712222 L1134.9560694568136,787.485513324985 M1156.6475850979925,718.3568135788598 L1149.2916266097857,724.7272620914418 M1195.3032202643553,667.9223985166939 L1193.7385672892563,671.0849958665863 M1193.7385672892563,671.0849958665863 L1192.0488044156455,674.2789383033066 M1192.0488044156455,674.2789383033066 L1190.239858690431,677.4928925259353 M1190.239858690431,677.4928925259353 L1188.318176564059,680.7154002940711 M1188.318176564059,680.7154002940711 L1186.2905616030032,683.9350466913866 M1186.2905616030032,683.9350466913866 L1184.1643623830512,687.1403253678927 M1184.1643623830512,687.1403253678927 L1181.9472066725914,690.3198903503646 M1181.9472066725914,690.3198903503646 L1179.6470363532853,693.4625492422497 M1179.6470363532853,693.4625492422497 L1177.2722399191357,696.5571632109363 M1177.2722399191357,696.5571632109363 L1174.8313353940175,699.5929395863227 M1174.8313353940175,699.5929395863227 L1172.333052729887,702.5593731498145 M1172.333052729887,702.5593731498145 L1169.7864142756719,705.4461834797755 M1169.7864142756719,705.4461834797755 L1167.2004688732457,708.2435534943872 M1167.2004688732457,708.2435534943872 L1164.58437366823,710.9420617520234 M1164.58437366823,710.9420617520234 L1161.947376671343,713.5326976296167 M1161.947376671343,713.5326976296167 L1159.2987022618486,716.0069581684688 M1159.2987022618486,716.0069581684688 L1156.6475850979925,718.3568135788598 M1195.527939410457,667.4502722314203 L1195.4831802012143,667.4700805355831 M1195.4831802012143,667.4700805355831 L1195.434479791494,667.5024676131043 M1195.434479791494,667.5024676131043 L1195.3846428442157,667.5455745676245 M1195.3846428442157,667.5455745676245 L1195.3366441080198,667.5968230677627 M1195.3366441080198,667.5968230677627 L1195.293226013558,667.6532787511496 M1195.293226013558,667.6532787511496 L1195.2569505526176,667.7116251727157 M1195.2569505526176,667.7116251727157 L1195.2298505502088,667.7685377754817 M1195.2298505502088,667.7685377754817 L1195.2135861298614,667.820637932286 M1195.2135861298614,667.820637932286 L1195.2089968012074,667.8649883734965 M1195.2089968012074,667.8649883734965 L1195.21646178212,667.8989173050129 M1195.21646178212,667.8989173050129 L1195.2355032508722,667.9204908807462 M1195.2355032508722,667.9204908807462 L1195.2649951753185,667.9284716111322 M1195.2649951753185,667.9284716111322 L1195.3032202643553,667.9223985166939 M1234.9321458569173,615.9495317550966 L1232.1055535991593,618.5195211560281 M1232.1055535991593,618.5195211560281 L1229.3073134651197,621.1885424486775 M1229.3073134651197,621.1885424486775 L1226.5450404528983,623.9487288190048 M1226.5450404528983,623.9487288190048 L1223.8263979356032,626.7918762635857 M1223.8263979356032,626.7918762635857 L1221.158699010963,629.7098105274092 M1221.158699010963,629.7098105274092 L1218.5491297725139,632.6941831538124 M1218.5491297725139,632.6941831538124 L1216.0046639913694,635.7365705862514 M1216.0046639913694,635.7365705862514 L1213.5321815369036,638.8283658153314 M1213.5321815369036,638.8283658153314 L1211.1382296971622,641.9610052874918 M1211.1382296971622,641.9610052874918 L1208.8290919743993,645.1259142741665 M1208.8290919743993,645.1259142741665 L1206.61105839949,648.3142732443939 M1206.61105839949,648.3142732443939 L1204.489932116084,651.5174577258242 M1204.489932116084,651.5174577258242 L1202.471401380148,654.726724936919 M1202.471401380148,654.726724936919 L1200.5609007890198,657.9333378160784 M1200.5609007890198,657.9333378160784 L1198.7636247641105,661.1285623593205 M1198.7636247641105,661.1285623593205 L1197.0844383005021,664.3037439422108 M1197.0844383005021,664.3037439422108 L1195.527939410457,667.4502722314203 M1243.644748876614,710.6091959045709 L1234.9321458569173,615.9495317550966 M1195.6964322132803,750.1661902217588 L1243.644748876614,710.6091959045709 M1196.0671740554537,757.1346385991969 L1195.6964322132803,750.1661902217588 M1150.5900842527128,794.4460949712222 L1196.0671740554537,757.1346385991969 M1156.6475850979925,718.3568135788598 L1141.704584852401,712.0850145832594 M1141.704584852401,712.0850145832594 L1134.4541525979687,718.4542162375801 M1134.9560694568136,787.485513324985 L1179.7407627936313,750.166173564254 M1179.456706830445,743.2700809332762 L1179.7407627936313,750.166173564254 M1179.456706830445,743.2700809332762 L1226.6644075814645,703.7189385599104 M1219.2360236237705,610.0319696034126 L1226.6644075814645,703.7189385599104 M1219.2360236237705,610.0319696034126 L1216.4496540982234,612.5991361991773 M1216.4496540982234,612.5991361991773 L1213.6897819791795,615.2642554586141 M1213.6897819791795,615.2642554586141 L1210.9639298231668,618.0194746301979 M1210.9639298231668,618.0194746301979 L1208.2796714952017,620.8566057820931 M1208.2796714952017,620.8566057820931 L1205.6442390544219,623.7674923572031 M1205.6442390544219,623.7674923572031 L1203.0647427887845,626.7438055017622 M1203.0647427887845,626.7438055017622 L1200.5480867896201,629.7771429452876 M1200.5480867896201,629.7771429452876 L1198.101085631588,632.8589208239675 M1198.101085631588,632.8589208239675 L1195.7302288836863,635.9806003487461 M1195.7302288836863,635.9806003487461 L1193.4417487675814,639.1336332404237 M1193.4417487675814,639.1336332404237 L1191.2418864548397,642.3092282987886 M1191.2418864548397,642.3092282987886 L1189.136405644757,645.4987909917049 M1189.136405644757,645.4987909917049 L1187.1309589744596,648.6936102614134 M1187.1309589744596,648.6936102614134 L1185.230951171467,651.8849825328202 M1185.230951171467,651.8849825328202 L1183.441552184731,655.0642090549784 M1183.441552184731,655.0642090549784 L1181.7676091939313,658.2226722769385 M1181.7676091939313,658.2226722769385 L1180.213707886799,661.3518006914696 M1179.9891653383431,661.8212474368545 L1179.9517973927789,661.8275577211507 M1179.9517973927789,661.8275577211507 L1179.923107890256,661.819878229453 M1179.923107890256,661.819878229453 L1179.904767445834,661.7986524268513 M1179.904767445834,661.7986524268513 L1179.8978610699633,661.7650975883391 M1179.8978610699633,661.7650975883391 L1179.9028334857323,661.7211258330474 M1179.9028334857323,661.7211258330474 L1179.9192848865544,661.6693869336636 M1179.9192848865544,661.6693869336636 L1179.9463633484609,661.6127972034155 M1179.9463633484609,661.6127972034155 L1179.982411265389,661.5547165047608 M1179.982411265389,661.5547165047608 L1180.0254079459999,661.4984540002658 M1180.0254079459999,661.4984540002658 L1180.0728164233317,661.4473148821419 M1180.0728164233317,661.4473148821419 L1180.121927914625,661.4042272091644 M1180.121927914625,661.4042272091644 L1180.1698109091594,661.3717681127073 M1180.1698109091594,661.3717681127073 L1180.213707886799,661.3518006914696 M1141.704584852401,712.0850145832594 L1144.3181827556805,709.7361896436446 M1144.3181827556805,709.7361896436446 L1146.930725836516,707.2641930167863 M1146.930725836516,707.2641930167863 L1149.5331158288507,704.677051426027 M1149.5331158288507,704.677051426027 L1152.1162598077956,701.98325935003 M1152.1162598077956,701.98325935003 L1154.671036639696,699.1918134801033 M1154.671036639696,699.1918134801033 L1157.1884097231884,696.3121159117948 M1157.1884097231884,696.3121159117948 L1159.659444090456,693.3539590188934 M1159.659444090456,693.3539590188934 L1162.0752257269344,690.327593216351 M1162.0752257269344,690.327593216351 L1164.4271236279822,687.2434886410333 M1164.4271236279822,687.2434886410333 L1166.7067104747234,684.1123979348331 M1166.7067104747234,684.1123979348331 L1168.905681478189,680.9454151377886 M1168.905681478189,680.9454151377886 L1171.016166970561,677.7536834617563 M1171.016166970561,677.7536834617563 L1173.0306018980023,674.548495509787 M1173.0306018980023,674.548495509787 L1174.9416915833192,671.3413003946459 M1174.9416915833192,671.3413003946459 L1176.7426738414072,668.1434523431324 M1176.7426738414072,668.1434523431324 L1178.4271340530506,664.966345767127 M1178.4271340530506,664.966345767127 L1179.9891653383431,661.8212474368545 M1179.7407627936313,750.166173564254 L1196.0671740554537,757.1346385991969 M1195.3032202643553,667.9223985166939 L1179.9891653383431,661.8212474368545 M1195.527939410457,667.4502722314203 L1180.213707886799,661.3518006914696 M1234.9321458569173,615.9495317550966 L1219.2360236237705,610.0319696034126 M1243.644748876614,710.6091959045709 L1226.6644075814645,703.7189385599104 M1195.6964322132803,750.1661902217588 L1179.456706830445,743.2700809332762" stroke="black"  stroke-width="4"  fill="red"/>
<path d="M1141.6404195542525,705.003917182853 L1148.258744496462,699.1594264573966 M1148.258744496462,699.1594264573966 L1148.4440714550258,699.2455209605953 M1148.4440714550258,699.2455209605953 L1148.6189865224621,699.3452717746354 M1148.6189865224621,699.3452717746354 L1148.773446227691,699.4529349768713 M1148.773446227691,699.4529349768713 L1148.8983274449997,699.56219866176 M1148.8983274449997,699.56219866176 L1148.9861871723454,699.6666376917262 M1148.9861871723454,699.6666376917262 L1149.032403059273,699.7603851241981 M1149.032403059273,699.7603851241981 L1149.0338575236085,699.8378111170148 M1149.0338575236085,699.8378111170148 L1148.99045800516,699.8944102143826 M1148.99045800516,699.8944102143826 L1148.9051442338548,699.9270606358605 M1148.9051442338548,699.9270606358605 L1148.7823814333763,699.9336570935864 M1148.7823814333763,699.9336570935864 L1148.629487551247,699.9138875309611 M1148.629487551247,699.9138875309611 L1148.4555005433065,699.8689637711216 M1148.4555005433065,699.8689637711216 L1148.2704218377967,699.8014492831287 M1148.2704218377967,699.8014492831287 L1148.084836942729,699.7152014272058 M1148.084836942729,699.7152014272058 L1147.909912948411,699.6153928359447 M1147.909912948411,699.6153928359447 L1147.7555063834768,699.5077022522946 M1147.7555063834768,699.5077022522946 L1147.6309171376463,699.398526249314 M1147.6309171376463,699.398526249314 L1147.5429976916912,699.2940526911239 M1147.5429976916912,699.2940526911239 L1147.4969078926479,699.2003736646016 M1147.4969078926479,699.2003736646016 L1147.4955472232602,699.1230248883755 M1147.4955472232602,699.1230248883755 L1147.5389867119839,699.0664940922622 M1147.5389867119839,699.0664940922622 L1147.624466783254,699.033965941994 M1147.624466783254,699.033965941994 L1147.74696026558,699.0273004517055 M1147.74696026558,699.0273004517055 L1147.8997344412703,699.0470425952412 M1147.8997344412703,699.0470425952412 L1148.073590025969,699.0919085892051 M1148.073590025969,699.0919085892051 L1148.258744496462,699.1594264573966 M1141.6404195542525,705.003917182853 L1141.456403007977,704.9363796151554 M1141.456403007977,704.9363796151554 L1141.2835202407193,704.8915005139215 M1141.2835202407193,704.8915005139215 L1141.1314993558237,704.871752598604 M1141.1314993558237,704.871752598604 L1141.0094938316001,704.8784200378957 M1141.0094938316001,704.8784200378957 L1140.9242105160513,704.9109576952053 M1140.9242105160513,704.9109576952053 L1140.8806647442723,704.9675049968273 M1140.8806647442723,704.9675049968273 L1140.8816207326604,705.0448763222814 M1140.8816207326604,705.0448763222814 L1140.927030864381,705.1385826052258 M1140.927030864381,705.1385826052258 L1141.014036524557,705.2430864914272 M1141.014036524557,705.2430864914272 L1141.1375312454031,705.352294109608 M1141.1375312454031,705.352294109608 L1141.2907236526466,705.460015800312 M1141.2907236526466,705.460015800312 L1141.4643865034184,705.5598531527012 M1141.4643865034184,705.5598531527012 L1141.6487346169602,705.6461258084594 M1141.6487346169602,705.6461258084594 L1141.8326752596895,705.7136596749967 M1141.8326752596895,705.7136596749967 L1142.0056880345926,705.7585963123413 M1142.0056880345926,705.7585963123413 L1142.157827465983,705.7783715376881 M1142.157827465983,705.7783715376881 L1142.2801004618852,705.7717731907867 M1142.2801004618852,705.7717731907867 L1142.3652187204402,705.7391134141976 M1142.3652187204402,705.7391134141976 L1142.40872521311,705.6824980829906 M1142.40872521311,705.6824980829906 L1142.4076766249605,705.605049848077 M1142.4076766249605,705.605049848077 L1142.362141830193,705.5112754312686 M1142.362141830193,705.5112754312686 L1142.2751960037742,705.4068062703611 M1142.2751960037742,705.4068062703611 L1142.1514114465833,705.2975109846222 M1142.1514114465833,705.2975109846222 L1141.998166210768,705.1898165664222 M1141.998166210768,705.1898165664222 L1141.824511914057,705.0900367614438 M1141.824511914057,705.0900367614438 L1141.6404195542525,705.003917182853 M1148.2499941874378,698.6783325196566 L1148.7131824368423,698.8934302395144 M1148.7131824368423,698.8934302395144 L1149.1505477574476,699.1427369457392 M1149.1505477574476,699.1427369457392 L1149.5367020861627,699.4118050532804 M1149.5367020861627,699.4118050532804 L1149.8490037760396,699.684941909534 M1149.8490037760396,699.684941909534 L1150.0692737632705,699.946279151224 M1150.0692737632705,699.946279151224 L1150.1847663965816,700.1806572275027 M1150.1847663965816,700.1806572275027 L1150.1885787075112,700.3743671635132 M1150.1885787075112,700.3743671635132 L1150.0804388849522,700.516109684283 M1150.0804388849522,700.516109684283 L1149.8667337143656,700.5976619003488 M1149.8667337143656,700.5976619003488 L1149.5597703110564,700.6142091251356 M1149.5597703110564,700.6142091251356 L1149.177405480966,700.5647735844852 M1149.177405480966,700.5647735844852 L1148.7420966390375,700.4523152221029 M1148.7420966390375,700.4523152221029 L1148.2791875504522,700.2833901159597 M1148.2791875504522,700.2833901159597 L1147.8153793867796,700.0677454985839 M1147.8153793867796,700.0677454985839 L1147.3779581816266,699.8180776000372 M1147.3779581816266,699.8180776000372 L1146.9921358817073,699.5488383509232 M1146.9921358817073,699.5488383509232 L1146.6804780445739,699.2757596701442 M1146.6804780445739,699.2757596701442 L1146.4610161574249,699.0146965387007 M1146.4610161574249,699.0146965387007 L1146.346310969062,698.780745783449 M1146.346310969062,698.780745783449 L1146.343084833885,698.5875184158447 M1146.343084833885,698.5875184158447 L1146.451475239381,698.4462031292351 M1146.451475239381,698.4462031292351 L1146.6650383200624,698.3649250952494 M1146.6650383200624,698.3649250952494 L1146.9714991834933,698.3484360310126 M1146.9714991834933,698.3484360310126 L1147.3531161117107,698.3977003464227 M1147.3531161117107,698.3977003464227 L1147.7876034059639,698.5097975559038 M1147.7876034059639,698.5097975559038 L1148.2499941874378,698.6783325196566 M1149.0297535825493,697.9894993004023 L1149.4933060289216,698.2045890128018 M1149.4933060289216,698.2045890128018 L1149.9310435600823,698.4538864836272 M1149.9310435600823,698.4538864836272 L1150.3175565242545,698.7229446786071 M1150.3175565242545,698.7229446786071 L1150.6301822834607,698.9960715306818 M1150.6301822834607,698.9960715306818 L1150.8507229011036,699.2573992553412 M1150.8507229011036,699.2573992553412 L1150.9664170084795,699.4917688420721 M1150.9664170084795,699.4917688420721 L1150.97034974453,699.685471794231 M1150.97034974453,699.685471794231 L1150.8622422234691,699.8272092234479 M1150.8622422234691,699.8272092234479 L1150.648479403011,699.908758517231 M1150.648479403011,699.908758517231 L1150.3413716522962,699.9253051497155 M1150.3413716522962,699.9253051497155 L1149.958784186689,699.8758713792333 M1149.958784186689,699.8758713792333 L1149.523187563929,699.7634170508807 M1149.523187563929,699.7634170508807 L1149.0599423445658,699.5944980230079 M1149.0599423445658,699.5944980230079 L1148.5957691211693,699.3788611975995 M1148.5957691211693,699.3788611975995 L1148.157975428446,699.1292023661108 M1148.157975428446,699.1292023661108 L1147.7717947223978,698.8599729497948 M1147.7717947223978,698.8599729497948 L1147.459813499079,698.5869043003081 M1147.459813499079,698.5869043003081 L1147.2400819618679,698.3258508136496 M1147.2400819618679,698.3258508136496 L1147.1251763526775,698.0919087471073 M1147.1251763526775,698.0919087471073 L1147.121830676957,697.8986885882655 M1147.121830676957,697.8986885882655 L1147.2301892941684,697.7573785923298 M1147.2301892941684,697.7573785923298 L1147.4438100494244,697.6761036084151 M1147.4438100494244,697.6761036084151 L1147.7504147903658,697.6596151635877 M1147.7504147903658,697.6596151635877 L1148.132253497192,697.7088776290261 M1148.132253497192,697.7088776290261 L1148.5670275251903,697.8209706361552 M1148.5670275251903,697.8209706361552 L1149.0297535825493,697.9894993004023 M1149.0297535825493,697.9894993004023 L1148.2499941874378,698.6783325196566" stroke="black"  stroke-width="4"  fill="red"/>
<path d="M-399.97847940907866,69.72072881403187 L-439.4945201949056,86.50805997680726 M-399.97847940907866,69.72072881403187 L-403.65614523921704,68.16587073176896 M-443.16995743659436,84.8716804965278 L-403.65614523921704,68.16587073176896 M-439.4945201949056,86.50805997680726 L-443.16995743659436,84.8716804965278 M-439.4945201949056,86.50805997680726 L-439.99474442390306,58.82806705124631 M-439.99474442390306,58.82806705124631 L-436.0879577798569,57.23800188389998 M-436.0879577798569,57.23800188389998 L-436.54587932377854,28.823970557248344 M-436.54587932377854,28.823970557248344 L-380.3421058852932,6.9783709346032765 M-380.3421058852932,6.9783709346032765 L-380.3975257488414,8.740506333079622 M-380.3975257488414,8.740506333079622 L-380.52395204418906,10.522098072361189 M-380.52395204418906,10.522098072361189 L-380.72084454728565,12.317876074820106 M-380.72084454728565,12.317876074820106 L-380.9874670730245,14.12242473693243 M-380.9874670730245,14.12242473693243 L-381.3228964717621,15.930437675746361 M-381.3228964717621,15.930437675746361 L-381.72601663662135,17.73658242154727 M-381.72601663662135,17.73658242154727 L-382.19553186773567,19.53556445931372 M-382.19553186773567,19.53556445931372 L-382.7299637855306,21.322057334904684 M-382.7299637855306,21.322057334904684 L-383.32766190780194,23.090860597709934 M-383.32766190780194,23.090860597709934 L-383.9868073220316,24.836864026106866 M-383.9868073220316,24.836864026106866 L-384.7054148333518,26.554885109494307 M-384.7054148333518,26.554885109494307 L-385.4813393301032,28.239983490210648 M-385.4813393301032,28.239983490210648 L-386.31228382790664,29.88723765600912 M-386.31228382790664,29.88723765600912 L-387.1958029199943,31.49183689873587 M-387.1958029199943,31.49183689873587 L-388.1293100952647,33.0490800767933 M-388.1293100952647,33.0490800767933 L-389.11007934299914,34.55443553512248 M-389.11007934299914,34.55443553512248 L-390.1352589070143,36.0035116187355 M-390.1352589070143,36.0035116187355 L-390.1243346819356,36.026417067334705 M-390.1243346819356,36.026417067334705 L-390.11864171436036,36.05421614523277 M-390.11864171436036,36.05421614523277 L-390.11851180368853,36.085309578760075 M-390.11851180368853,36.085309578760075 L-390.12394994172405,36.1178397788791 M-390.12394994172405,36.1178397788791 L-390.1346419577983,36.14994604059291 M-390.1346419577983,36.14994604059291 L-390.14996538044454,36.17973729129176 M-390.14996538044454,36.17973729129176 L-390.169029898959,36.205529018473385 M-390.169029898959,36.205529018473385 L-390.19072892703844,36.22576949954089 M-390.19072892703844,36.22576949954089 L-390.2138002769651,36.239348040282096 M-390.2138002769651,36.239348040282096 L-390.2369048160697,36.24540621694052 M-390.2369048160697,36.24540621694052 L-390.25869944646524,36.2436197097403 M-390.25869944646524,36.2436197097403 L-390.2779171774955,36.234104797395275 M-390.2779171774955,36.234104797395275 L-390.29344125271655,36.21741702463203 M-390.29344125271655,36.21741702463203 L-391.32335131645823,37.67340621912342 M-391.32335131645823,37.67340621912342 L-392.30881496820336,39.18675203996679 M-392.30881496820336,39.18675203996679 L-393.2465183615835,40.752407938857004 M-393.2465183615835,40.752407938857004 L-394.13331577081135,42.36511307388264 M-394.13331577081135,42.36511307388264 L-394.9662417162227,44.019495479964746 M-394.9662417162227,44.019495479964746 L-395.74252389903404,45.709955766153996 M-395.74252389903404,45.709955766153996 L-396.45959264818293,47.43083292074817 M-396.45959264818293,47.43083292074817 L-397.1150921588884,49.176382304018944 M-397.1150921588884,49.176382304018944 L-397.70688714383857,50.9406896088596 M-397.70688714383857,50.9406896088596 L-398.2330719833585,52.71786827346381 M-398.2330719833585,52.71786827346381 L-398.69197738467074,54.502004867656524 M-398.69197738467074,54.502004867656524 L-399.0821742801513,56.287103898596115 M-399.0821742801513,56.287103898596115 L-399.40247925176186,58.06725189808674 M-399.40247925176186,58.06725189808674 L-399.6519573690616,59.83656141252334 M-399.6519573690616,59.83656141252334 L-399.8299238301065,61.589177060958036 M-399.8299238301065,61.589177060958036 L-399.9359448437509,63.31934317224818 M-399.9359448437509,63.31934317224818 L-399.96983719887805,65.02137723800547 M-399.96983719887805,65.02137723800547 L-399.97847940907866,69.72072881403187 M-399.96983719887805,65.02137723800547 L-403.6561447877589,63.47417922867419 M-403.6561447877589,63.47417922867419 L-403.65614523921704,68.16587073176896 M-403.6561447877589,63.47417922867419 L-403.625358352426,61.774973626470114 M-403.625358352426,61.774973626470114 L-403.5224390203872,60.04778485854098 M-403.5224390203872,60.04778485854098 L-403.3475600521041,58.29828539485612 M-403.3475600521041,58.29828539485612 L-403.1011452898707,56.532220313743096 M-403.1011452898707,56.532220313743096 L-402.7838695344542,54.75543381373245 M-402.7838695344542,54.75543381373245 L-402.3966577820564,52.973801699256796 M-402.3966577820564,52.973801699256796 L-401.94068358988363,51.19322534649683 M-401.94068358988363,51.19322534649683 L-401.4173661304351,49.419687636491574 M-401.4173661304351,49.419687636491574 L-400.8283650640824,47.65908916029002 M-400.8283650640824,47.65908916029002 L-400.17557653637505,45.91730334121803 M-400.17557653637505,45.91730334121803 L-399.4611264142227,44.20023098020016 M-399.4611264142227,44.20023098020016 L-398.68736149536744,42.51360319883963 M-398.68736149536744,42.51360319883963 L-397.85684269732474,40.86306735903753 M-397.85684269732474,40.86306735903753 L-396.9723337743076,39.25420906215027 M-396.9723337743076,39.25420906215027 L-396.03679217539366,37.69238664803265 M-396.03679217539366,37.69238664803265 L-395.0533558919283,36.18284733318478 M-395.0533558919283,36.18284733318478 L-394.025331521153,34.73062424171991 M-394.025331521153,34.73062424171991 L-394.0097643145301,34.747303780589846 M-394.0097643145301,34.747303780589846 L-393.99051382482037,34.75682724698652 M-393.99051382482037,34.75682724698652 L-393.968698716626,34.758638602323686 M-393.968698716626,34.758638602323686 L-393.94558719412225,34.75262014316826 M-393.94558719412225,34.75262014316826 L-393.92252281319224,34.73909392652854 M-393.92252281319224,34.73909392652854 L-393.9008441725813,34.71891522062373 M-393.9008441725813,34.71891522062373 L-393.8818123984147,34.69319123875596 M-393.8818123984147,34.69319123875596 L-393.86653207591417,34.663469680167054 M-393.86653207591417,34.663469680167054 L-393.85589109805755,34.6314310873355 M-393.85589109805755,34.6314310873355 L-393.85050892452705,34.598962557655796 M-393.85050892452705,34.598962557655796 L-393.85069652703953,34.56792126561993 M-393.85069652703953,34.56792126561993 L-393.85644546871583,34.540161682219605 M-393.85644546871583,34.540161682219605 L-393.8674207257782,34.51728081446299 M-384.120450818844,5.553905028777763 L-384.1726304575841,7.312924792533806 M-384.1726304575841,7.312924792533806 L-384.2958370979692,9.091287475165302 M-384.2958370979692,9.091287475165302 L-384.4895402595241,10.883732170117241 M-384.4895402595241,10.883732170117241 L-384.7530135530567,12.684852849673689 M-384.7530135530567,12.684852849673689 L-385.0853432058452,14.489352671498466 M-385.0853432058452,14.489352671498466 L-385.48542231344595,16.291908922501193 M-385.48542231344595,16.291908922501193 L-385.95196409338223,18.087236945095924 M-385.95196409338223,18.087236945095924 L-386.4834989250728,19.870020378091397 M-386.4834989250728,19.870020378091397 L-387.0783846412712,21.63506882883314 M-387.0783846412712,21.63506882883314 L-387.73481027098865,23.377282168239617 M-387.73481027098865,23.377282168239617 L-388.4507984931802,25.09148829821487 M-388.4507984931802,25.09148829821487 L-389.22421142531095,26.772757064310554 M-389.22421142531095,26.772757064310554 L-390.0527590927543,28.416177329525112 M-390.0527590927543,28.416177329525112 L-390.93400271523524,30.016948784587612 M-390.93400271523524,30.016948784587612 L-391.86536203817013,31.57038071495606 M-391.86536203817013,31.57038071495606 L-392.84411683342864,33.07195182898931 M-392.84411683342864,33.07195182898931 L-393.8674207257782,34.51728081446299 M-384.120450818844,5.553905028777763 L-440.3230106063636,27.291291907908317 M-439.813771232611,55.65585587139117 L-440.3230106063636,27.291291907908317 M-439.813771232611,55.65585587139117 L-443.72010611253677,57.2380022015102 M-443.16995743659436,84.8716804965278 L-443.72010611253677,57.2380022015102 M-443.72010611253677,57.2380022015102 L-439.99474442390306,58.82806705124631 M-390.29344125271655,36.21741702463203 L-394.025331521153,34.73062424171991 M-390.1352589070143,36.0035116187355 L-393.8674207257782,34.51728081446299 M-380.3421058852932,6.9783709346032765 L-384.120450818844,5.553905028777763 M-436.54587932377854,28.823970557248344 L-440.3230106063636,27.291291907908317 M-436.0879577798569,57.23800188389998 L-439.813771232611,55.65585587139117" stroke="black"  stroke-width="4"  fill="red"/>
<path d="M-392.06041885661557,64.80644650761786 L-392.03558679830144,60.51324242037845 M-392.03558679830144,60.51324242037845 L-391.994824081607,60.53477012129662 M-391.994824081607,60.53477012129662 L-391.96750216633654,60.55971060487536 M-391.96750216633654,60.55971060487536 L-391.9552089895243,60.58661456093114 M-391.9552089895243,60.58661456093114 L-391.9586617195887,60.61391915292006 M-391.9586617195887,60.61391915292006 L-391.9776611960335,60.64003706968572 M-391.9776611960335,60.64003706968572 L-392.0111053969521,60.663450364864445 M-392.0111053969521,60.663450364864445 L-392.05705093190386,60.682797293453405 M-392.05705093190386,60.682797293453405 L-392.11282815342406,60.696952878323486 M-392.11282815342406,60.696952878323486 L-392.17519382930163,60.70509343696767 M-392.17519382930163,60.70509343696767 L-392.2405228308562,60.706745623551 M-392.2405228308562,60.706745623551 L-392.30501563732673,60.70181312371699 M-392.30501563732673,60.70181312371699 L-392.3649233346383,60.69058326587117 M-392.3649233346383,60.69058326587117 L-392.41676185127335,60.67370879646512 M-392.41676185127335,60.67370879646512 L-392.4575190254874,60.652171804806926 M-392.4575190254874,60.652171804806926 L-392.4848257584197,60.62722409980614 M-392.4848257584197,60.62722409980614 L-392.49709740714934,60.6003167226491 M-392.49709740714934,60.6003167226491 L-392.49362173466443,60.57301329354527 M-392.49362173466443,60.57301329354527 L-392.4746031575993,60.54690085723337 M-392.4746031575993,60.54690085723337 L-392.44114807336246,60.52349610465808 M-392.44114807336246,60.52349610465808 L-392.3952023657639,60.50415882372954 M-392.3952023657639,60.50415882372954 L-392.33943572181795,60.49001178152059 M-392.33943572181795,60.49001178152059 L-392.2770889504129,60.48187670335159 M-392.2770889504129,60.48187670335159 L-392.211782849659,60.480225679680586 M-392.211782849659,60.480225679680586 L-392.1473116937159,60.48515475832352 M-392.1473116937159,60.48515475832352 L-392.08741943719724,60.49637739487008 M-392.08741943719724,60.49637739487008 L-392.03558679830144,60.51324242037845 M-392.06041885661557,64.80644650761786 L-392.11214008436525,64.78950438989341 M-392.11214008436525,64.78950438989341 L-392.17190393092505,64.77823045216212 M-392.17190393092505,64.77823045216212 L-392.23623713795814,64.77327884132933 M-392.23623713795814,64.77327884132933 L-392.30140375785527,64.774937412307 M-392.30140375785527,64.774937412307 L-392.363617616095,64.78310967800371 M-392.363617616095,64.78310967800371 L-392.4192656300877,64.79732138890972 M-392.4192656300877,64.79732138890972 L-392.4651138830636,64.81674706188187 M-392.4651138830636,64.81674706188187 L-392.4984983506952,64.84025879583146 M-392.4984983506952,64.84025879583146 L-392.5174772585601,64.86649058579155 M-392.5174772585601,64.86649058579155 L-392.52094652055825,64.89391880738202 M-392.52094652055825,64.89391880738202 L-392.50870210196035,64.92094916193633 M-392.50870210196035,64.92094916193633 L-392.4814546632156,64.94601088350606 M-392.4814546632156,64.94601088350606 L-392.4407854089782,64.96764630064843 M-392.4407854089782,64.96764630064843 L-392.38905832855176,64.98459788532324 M-392.38905832855176,64.98459788532324 L-392.3292791074016,64.99587906185565 M-392.3292791074016,64.99587906185565 L-392.2649243424131,65.00083410217121 M-392.2649243424131,65.00083410217121 L-392.199734919451,64.9991743654628 M-392.199734919451,64.9991743654628 L-392.1375022372463,64.99099660600814 M-392.1375022372463,64.99099660600814 L-392.0818436905174,64.97677633173691 M-392.0818436905174,64.97677633173691 L-392.03599560908356,64.95734098772209 M-392.03599560908356,64.95734098772209 L-392.00262197797656,64.93382069046504 M-392.00262197797656,64.93382069046504 L-391.9836620889687,64.9075834067686 M-391.9836620889687,64.9075834067686 L-391.98021567138926,64.8801540194745 M-391.98021567138926,64.8801540194745 L-391.9924815262816,64.85312709431298 M-391.9924815262816,64.85312709431298 L-392.01974408281535,64.82807261166727 M-392.01974408281535,64.82807261166727 L-392.06041885661557,64.80644650761786 M-391.74983115608245,60.392945533172224 L-391.6479155140713,60.446747652587305 M-391.6479155140713,60.446747652587305 L-391.57958164086756,60.50908498249731 M-391.57958164086756,60.50908498249731 L-391.54880861384856,60.57633865060734 M-391.54880861384856,60.57633865060734 L-391.5573973323594,60.644602043494274 M-391.5573973323594,60.644602043494274 L-391.604860374965,60.70990734387806 M-391.604860374965,60.70990734387806 L-391.68844963532206,60.76845633908249 M-391.68844963532206,60.76845633908249 L-391.8033131394616,60.81684176182648 M-391.8033131394616,60.81684176182648 L-391.9427753956945,60.85224640961053 M-391.9427753956945,60.85224640961053 L-392.0987255980276,60.87260816776757 M-392.0987255980276,60.87260816776757 L-392.2620904266605,60.876740778407 M-392.2620904266605,60.876740778407 L-392.4233635173607,60.864403223125464 M-392.4233635173607,60.864403223125464 L-392.5731609046844,60.83631475913012 M-392.5731609046844,60.83631475913012 L-392.7027688674518,60.79411150662065 M-392.7027688674518,60.79411150662065 L-392.8046508362107,60.74025091792328 M-392.8046508362107,60.74025091792328 L-392.8728900052017,60.677868377955406 M-392.8728900052017,60.677868377955406 L-392.9035282969104,60.610593404533915 M-392.9035282969104,60.610593404533915 L-392.89479628117317,60.54233724148014 M-392.89479628117317,60.54233724148014 L-392.8472138594277,60.47706619413253 M-392.8472138594277,60.47706619413253 L-392.76355657853435,60.41857059002348 M-392.76355657853435,60.41857059002348 L-392.64869199533996,60.3702454651783 M-392.64869199533996,60.3702454651783 L-392.50929584874245,60.33489420848912 M-392.50929584874245,60.33489420848912 L-392.3534637996306,60.31456670340799 M-392.3534637996306,60.31456670340799 L-392.1902420081233,60.31044139912274 M-392.1902420081233,60.31044139912274 L-392.02910441802305,60.32275749571829 M-392.02910441802305,60.32275749571829 L-391.87940335025405,60.35080090265518 M-391.87940335025405,60.35080090265518 L-391.74983115608245,60.392945533172224 M-391.7468401069309,59.888204974046744 L-391.6448986083127,59.941978070498976 M-391.6448986083127,59.941978070498976 L-391.5765472711654,60.00428177606739 M-391.5765472711654,60.00428177606739 L-391.5457661917735,60.0714991714226 M-391.5457661917735,60.0714991714226 L-391.55435674347314,60.139725750604725 M-391.55435674347314,60.139725750604725 L-391.60183140432196,60.20499583598075 M-391.60183140432196,60.20499583598075 L-391.68544139792994,60.26351326227575 M-391.68544139792994,60.26351326227575 L-391.8003335483652,60.311872598220134 M-391.8003335483652,60.311872598220134 L-391.93983069915964,60.34725815890192 M-391.93983069915964,60.34725815890192 L-392.09582001352624,60.36760894021893 M-392.09582001352624,60.36760894021893 L-392.2592258935581,60.37173932304506 M-392.2592258935581,60.37173932304506 L-392.4205395831236,60.359408418749126 M-392.4205395831236,60.359408418749126 L-392.57037475154345,60.33133509725775 M-392.57037475154345,60.33133509725775 L-392.7000154778257,60.28915459770769 M-392.7000154778257,60.28915459770769 L-392.8019232865754,60.23532304880166 M-392.8019232865754,60.23532304880166 L-392.87017987206445,60.172974146221975 M-392.87017987206445,60.172974146221975 L-392.9008261485644,60.105735451675116 M-392.9008261485644,60.105735451675116 L-392.89209222755517,60.03751610025245 M-392.89209222755517,60.03751610025245 L-392.8444981274074,59.972280258042815 M-392.8444981274074,59.972280258042815 L-392.7608200788327,59.913816207458524 M-392.7608200788327,59.913816207458524 L-392.6459268485289,59.86551715203831 M-392.6459268485289,59.86551715203831 L-392.5064958403592,59.83018496706694 M-392.5064958403592,59.83018496706694 L-392.3506247384487,59.809868428955895 M-392.3506247384487,59.809868428955895 L-392.1873619674295,59.805745350368966 M-392.1873619674295,59.805745350368966 L-392.02618384662287,59.81805480218145 M-392.02618384662287,59.81805480218145 L-391.87644504642094,59.84608307957831 M-391.87644504642094,59.84608307957831 L-391.7468401069309,59.888204974046744 M-391.7468401069309,59.888204974046744 L-391.74983115608245,60.392945533172224" stroke="black"  stroke-width="4"  fill="red"/>
<path d="M-439.813771232611,55.65585587139117 L-443.72010611253677,57.2380022015102 M-443.72010611253677,57.2380022015102 L-444.2857905484309,28.823970864938815 M-440.3230106063636,27.291291907908317 L-444.2857905484309,28.823970864938815 M-439.813771232611,55.65585587139117 L-440.3230106063636,27.291291907908317 M-439.4945201949056,86.50805997680726 L-361.172825339528,121.37847290845764 M-361.172825339528,121.37847290845764 L-361.0621824381069,116.3045258387512 M-361.0621824381069,116.3045258387512 L-271.0818592090145,156.07221329792466 M-271.4459024942149,161.32672551560302 L-271.0818592090145,156.07221329792466 M-271.4459024942149,161.32672551560302 L227.9753014765838,383.6792121598315 M227.9753014765838,383.6792121598315 L230.23935206390001,377.63604560153783 M230.23935206390001,377.63604560153783 L404.4389466030741,454.62526705066483 M401.3211228813095,460.85630062197987 L404.4389466030741,454.62526705066483 M401.3211228813095,460.85630062197987 L1134.9560694568136,787.485513324985 M1134.9560694568136,787.485513324985 L1179.7407627936313,750.166173564254 M1179.7407627936313,750.166173564254 L1196.0671740554537,757.1346385991969 M1196.0671740554537,757.1346385991969 L1244.285790548431,717.5739100345315 M-444.2857905484309,28.823970864938815 L1244.285790548431,717.5739100345315 M-443.72010611253677,57.2380022015102 L-439.99474442390306,58.82806705124631 M-439.4945201949056,86.50805997680726 L-439.99474442390306,58.82806705124631 M1195.6964322132803,750.1661902217588 L1179.456706830445,743.2700809332762 M1134.905970872239,780.5951883350208 L1179.456706830445,743.2700809332762 M1134.905970872239,780.5951883350208 L404.10261318083917,456.86303436246345 M404.10261318083917,456.86303436246345 L407.2191392771956,450.64063457174933 M407.2191392771956,450.64063457174933 L233.4352079052303,374.22237174067016 M231.16784106503997,380.25618015936334 L233.4352079052303,374.22237174067016 M231.16784106503997,380.25618015936334 L-267.621764145827,159.30175846084958 M-267.621764145827,159.30175846084958 L-267.24821959979727,154.0561143877363 M-267.24821959979727,154.0561143877363 L-357.20191561296815,114.50064380830622 M-357.32227333142964,119.56611857158583 L-357.20191561296815,114.50064380830622 M-357.32227333142964,119.56611857158583 L-435.6426124334198,84.87168016965518 M-435.6426124334198,84.87168016965518 L-436.0879577798569,57.23800188389998 M-436.0879577798569,57.23800188389998 L-439.813771232611,55.65585587139117 M1243.644748876614,710.6091959045709 L-440.3230106063636,27.291291907908317 M1195.6964322132803,750.1661902217588 L1243.644748876614,710.6091959045709 M-439.4945201949056,86.50805997680726 L-435.6426124334198,84.87168016965518 M-439.99474442390306,58.82806705124631 L-436.0879577798569,57.23800188389998 M-357.32227333142964,119.56611857158583 L-361.172825339528,121.37847290845764 M-357.20191561296815,114.50064380830622 L-361.0621824381069,116.3045258387512 M-271.4459024942149,161.32672551560302 L-267.621764145827,159.30175846084958 M-271.0818592090145,156.07221329792466 L-267.24821959979727,154.0561143877363 M231.16784106503997,380.25618015936334 L227.9753014765838,383.6792121598315 M233.4352079052303,374.22237174067016 L230.23935206390001,377.63604560153783 M401.3211228813095,460.85630062197987 L404.10261318083917,456.86303436246345 M404.4389466030741,454.62526705066483 L407.2191392771956,450.64063457174933 M1134.905970872239,780.5951883350208 L1134.9560694568136,787.485513324985 M1179.456706830445,743.2700809332762 L1179.7407627936313,750.166173564254 M1196.0671740554537,757.1346385991969 L1195.6964322132803,750.1661902217588 M1244.285790548431,717.5739100345315 L1243.644748876614,710.6091959045709" stroke="black"  stroke-width="4"  fill="red"/></svg>