<svg viewBox="0 0 800 800" xmlns="http://www.w3.org/2000/svg"><path d="M639.4084563822762,260.7304185239018 L639.4089105636231,260.6745578673099 M160.56590083425544,539.309041971761 L160.56634975453198,539.2531782090186 M639.4084563822762,260.7304185239018 L690.83093489772,298.1091843766344 M690.83093489772,298.1091843766344 L725.3535535656774,341.4111612594211 M725.3535535656774,341.4111612594211 L740.968964282125,388.11840052898606 M740.968964282125,388.11840052898606 L736.7689452929408,435.521335093385 M736.7689452929408,435.521335093385 L712.9967879644755,480.8600489190808 M712.9967879644755,480.8600489190808 L671.0320889872746,521.5028328764756 M671.0320889872746,521.5028328764756 L613.3139979138869,555.0855074011893 M613.3139979138869,555.0855074011893 L543.1962107915606,579.656120877462 M543.1962107915606,579.656120877462 L464.75700287520885,593.7856635852872 M464.75700287520885,593.7856635852872 L382.54968656789424,596.653255295269 M382.54968656789424,596.653255295269 L301.3615322095502,588.0919510459767 M301.3615322095502,588.0919510459767 L225.90383474765986,568.5993916089583 M225.90383474765986,568.5993916089583 L160.56590083425544,539.309041971761 M639.4089105636231,260.6745578673099 L690.8313896561594,298.05332330322926 M690.8313896561594,298.05332330322926 L725.3540087148722,341.3552997031684 M725.3540087148722,341.3552997031684 L740.9694196129713,388.06253845193487 M740.9694196129713,388.06253845193487 L736.7694005858139,435.46547248779507 M736.7694005858139,435.46547248779507 L712.9972430018897,480.8041858079873 M712.9972430018897,480.8041858079873 L671.0325435665509,521.4469693122528 M671.0325435665509,521.4469693122528 L613.314451859027,555.0296434625598 M613.314451859027,555.0296434625598 L543.1966639633611,579.6002566649063 M543.1966639633611,579.6002566649063 L464.75745517945325,593.7297992152116 M464.75745517945325,593.7297992152116 L382.5501379607813,596.5973908932242 M382.5501379607813,596.5973908932242 L301.36198270032764,588.0360867393761 M301.36198270032764,588.0360867393761 L225.90428439791867,568.5435275196687 M225.90428439791867,568.5435275196687 L160.56634975453198,539.2531782090186 M160.56590083425544,539.309041971761 L109.14823762976448,501.9241590315087 M109.14823762976448,501.9241590315087 L74.6340374420979,458.61664715235474 M74.6340374420979,458.61664715235474 L59.030580387036025,411.90678580379426 M59.030580387036025,411.90678580379426 L63.243350938966614,364.50474259654993 M63.243350938966614,364.50474259654993 L87.02613526670757,319.17022932487953 M87.02613526670757,319.17022932487953 L128.9969029952481,278.53399303245624 M128.9969029952481,278.53399303245624 L186.71511392914545,244.95871314440592 M186.71511392914545,244.95871314440592 L256.8270445635426,220.39464731684166 M256.8270445635426,220.39464731684166 L335.25576165468374,206.2693051391825 M335.25576165468374,206.2693051391825 L417.45035529434244,203.40260472203317 M417.45035529434244,203.40260472203317 L498.6264709863026,211.96128678109562 M498.6264709863026,211.96128678109562 L574.0755705331685,231.44831122027335 M574.0755705331685,231.44831122027335 L639.4084563822762,260.7304185239018 M160.56634975453198,539.2531782090186 L109.14868597302848,501.8682956855682 M109.14868597302848,501.8682956855682 L74.63448539480305,458.56078428926185 M74.63448539480305,458.56078428926185 L59.03102815834427,411.8509234615017 M59.03102815834427,411.8509234615017 L63.243798748546396,364.4488807827952 M63.243798748546396,364.4488807827952 L87.02658333198633,319.11436801662694 M87.02658333198633,319.11436801662694 L128.99735151878122,278.47813217733346 M128.99735151878122,278.47813217733346 L186.7155630868292,244.90285266368937 M186.7155630868292,244.90285266368937 L256.82749449444236,220.33878711004945 M256.82749449444236,220.33878711004945 L335.2562124528922,206.21344508991115 M335.2562124528922,206.21344508991115 L417.4508070036318,203.34674470473146 M417.4508070036318,203.34674470473146 L498.6269235974396,211.90542666834972 M498.6269235974396,211.90542666834972 L574.0760239846204,231.39245089021642 M574.0760239846204,231.39245089021642 L639.4089105636231,260.6745578673099" stroke="black"  stroke-width="4"  fill="red"/></svg>