<svg viewBox="0 0 800 800" xmlns="http://www.w3.org/2000/svg"><path d="M650.595877114758,577.2557035686705 L650.5958845192595,577.2552546972557 M650.5920267965546,577.2580120502416 L650.5920342010136,577.2575631788022 M650.595877114758,577.2557035686705 L650.5920267965546,577.2580120502416 M650.5958845192595,577.2552546972557 L650.5920342010136,577.2575631788022 M612.0490649333848,600.3666780000887 L612.0490719094047,600.3662288818718 M650.5920267965546,577.2580120502416 L612.0490649333848,600.3666780000887 M650.5920342010136,577.2575631788022 L612.0490719094047,600.3662288818718 M-42.024379391407024,221.8962375647452 L-42.024379820282206,221.89579256287914 M612.0490649333848,600.3666780000887 L-42.024379391407024,221.8962375647452 M612.0490719094047,600.3662288818718 L-42.024379820282206,221.89579256287914 M-3.4646488463753826,199.6337667546918 L-3.4646488463325795,199.6333219999113 M-42.024379391407024,221.8962375647452 L-3.4646488463753826,199.6337667546918 M-42.024379820282206,221.89579256287914 L-3.4646488463325795,199.6333219999113 M68.15940063484396,240.98592181375665 L68.15940143235389,240.98547660045693 M-3.4646488463753826,199.6337667546918 L68.15940063484396,240.98592181375665 M-3.4646488463325795,199.6333219999113 L68.15940143235389,240.98547660045693 M70.06182358185936,242.08874295152896 L70.06182440059592,242.088297726027 M68.15940063484396,240.98592181375665 L68.792659985726,241.3540101978574 M68.792659985726,241.3540101978574 L69.42680588516492,241.72162010164885 M69.42680588516492,241.72162010164885 L70.06182358185936,242.08874295152896 M68.15940143235389,240.98547660045693 L68.79266079030145,241.35356498048498 M68.79266079030145,241.35356498048498 L69.42680669681596,241.72117488020888 M69.42680669681596,241.72117488020888 L70.06182440059592,242.088297726027 M451.20960820232983,351.470283008038 L451.20961329263525,351.46983657898363 M70.06182358185936,242.08874295152896 L96.16196887381273,256.36548612510904 M96.16196887381273,256.36548612510904 L123.5908438973845,269.82519969562054 M123.5908438973845,269.82519969562054 L152.2672990329329,282.4251075099102 M152.2672990329329,282.4251075099102 L182.1058963113269,294.125020963016 M182.1058963113269,294.125020963016 L213.0171678659666,304.88749205621656 M213.0171678659666,304.88749205621656 L244.90790614425362,314.67796964532295 M244.90790614425362,314.67796964532295 L277.6814477399357,323.46491127509887 M277.6814477399357,323.46491127509887 L311.2380027217989,331.21994021567184 M311.2380027217989,331.21994021567184 L345.47509496131795,337.91799165346845 M345.47509496131795,337.91799165346845 L380.2876600804643,343.53729601648286 M380.2876600804643,343.53729601648286 L415.56875795696374,348.0596439161918 M415.56875795696374,348.0596439161918 L451.20960820232983,351.470283008038 M70.06182440059592,242.088297726027 L96.16196998395571,256.36504074176275 M96.16196998395571,256.36504074176275 L123.59084531410599,269.8247541636703 M123.59084531410599,269.8247541636703 L152.26730077048853,282.4246618390311 M152.26730077048853,282.4246618390311 L182.10589838299916,294.1245751632893 M182.10589838299916,294.1245751632893 L213.01717028401265,304.8870461381002 M213.01717028401265,304.8870461381002 L244.90790891985455,314.67752361962096 M244.90790891985455,314.67752361962096 L277.6814508831518,323.4644651529294 M277.6814508831518,323.4644651529294 L311.2380062415275,331.21949400843505 M311.2380062415275,331.21949400843505 L345.4750988652572,337.91754537281236 M345.4750988652572,337.91754537281236 L380.28766437507966,343.53684967427034 M380.28766437507966,343.53684967427034 L415.568762647462,348.05919752446505 M415.568762647462,348.05919752446505 L451.20961329263525,351.46983657898363 M455.84870236194456,350.55521538688663 L455.84870750395294,350.5547689678459 M451.20960820232983,351.470283008038 L451.37324724309883,351.0901422754382 M451.37324724309883,351.0901422754382 L451.69218730468276,350.7460467695022 M451.69218730468276,350.7460467695022 L452.1470486909085,350.4588365775745 M452.1470486909085,350.4588365775745 L452.7102518730442,350.24591432183684 M452.7102518730442,350.24591432183684 L453.34762972200406,350.12019189494697 M453.34762972200406,350.12019189494697 L454.02057749222286,350.08931264004843 M454.02057749222286,350.08931264004843 L454.6882363396122,350.1550969334529 M454.6882363396122,350.1550969334529 L455.31020863296135,350.31361563701057 M455.31020863296135,350.31361563701057 L455.84870236194456,350.55521538688663 M451.20961329263525,351.46983657898363 L451.37325233514025,351.08969585054376 M451.37325233514025,351.08969585054376 L451.69219240020766,350.74560034837316 M451.69219240020766,350.74560034837316 L452.147053791453,350.4583901595886 M452.147053791453,350.4583901595886 L452.71025697983964,350.24546790618115 M452.71025697983964,350.24546790618115 L453.34763483590314,350.1197454806671 M453.34763483590314,350.1197454806671 L454.0205826136473,350.08886622610646 M454.0205826136473,350.08886622610646 L454.6882414685276,350.1546505187911 M454.6882414685276,350.1546505187911 L455.31021376887986,350.313169220614 M455.31021376887986,350.313169220614 L455.84870750395294,350.5547689678459 M456.65835592848725,351.89773399835997 L456.65836107990253,351.8972875646283 M455.84870236194456,350.55521538688663 L456.24640548910986,350.8421613619829 M456.24640548910986,350.8421613619829 L456.52241093939506,351.1734283031601 M456.52241093939506,351.1734283031601 L456.66219286139267,351.5315720904704 M456.66219286139267,351.5315720904704 L456.65835592848725,351.89773399835997 M455.84870750395294,350.5547689678459 L456.2464106356439,350.84171493980205 M456.2464106356439,350.84171493980205 L456.52241608910344,351.17298187735423 M456.52241608910344,351.17298187735423 L456.6621980127576,351.5311256607455 M456.6621980127576,351.5311256607455 L456.65836107990253,351.8972875646283 M842.024370302539,462.4835924355599 L842.0243798202823,462.48314479858163 M456.65835592848725,351.89773399835997 L492.31294385110334,355.3096718145621 M492.31294385110334,355.3096718145621 L527.6397907046139,359.8373083431462 M527.6397907046139,359.8373083431462 L562.5410929927316,365.46883867032034 M562.5410929927316,365.46883867032034 L596.9200760876503,372.1896703537109 M596.9200760876503,372.1896703537109 L630.681139492674,379.9823033410071 M630.681139492674,379.9823033410071 L663.7299807884137,388.826360427533 M663.7299807884137,388.826360427533 L695.9740543915532,398.6987000391989 M695.9740543915532,398.6987000391989 L727.3226344220191,409.573447724464 M727.3226344220191,409.573447724464 L757.6870135001273,421.4219115327934 M757.6870135001273,421.4219115327934 L786.9809143898503,434.2128321575343 M786.9809143898503,434.2128321575343 L815.1203440043159,447.9121886799504 M815.1203440043159,447.9121886799504 L842.024370302539,462.4835924355599 M456.65836107990253,351.8972875646283 L492.31294940263376,355.3092253435034 M492.31294940263376,355.3092253435034 L527.6397966530532,359.8368618225744 M527.6397966530532,359.8368618225744 L562.5410993338371,365.4683920881954 M562.5410993338371,365.4683920881954 L596.9200828161494,372.18922369817255 M596.9200828161494,372.18922369817255 L630.6811466022737,379.98185660041065 M630.6811466022737,379.98185660041065 L663.7299882718075,388.82591359048376 M663.7299882718075,388.82591359048376 L695.9740622404347,398.69825309458486 M695.9740622404347,398.69825309458486 L727.3226426270946,409.57300066148866 M727.3226426270946,409.57300066148866 L757.6870220511307,421.42146434100823 M757.6870220511307,421.42146434100823 L786.9809232755615,434.21238482686863 M786.9809232755615,434.21238482686863 L815.1203532125776,447.91174120074186 M815.1203532125776,447.91174120074186 L842.0243798202823,462.48314479858163 M842.024370302539,462.4835924355599 L650.595877114758,577.2557035686705 M842.0243798202823,462.48314479858163 L650.5958845192595,577.2552546972557" stroke="black"  stroke-width="4"  fill="red"/></svg>