<svg viewBox="0 0 800 800" xmlns="http://www.w3.org/2000/svg"><path d="M657.4677923310198,269.49693788751756 L657.4677886265446,269.4892446965314 M142.26465753372565,530.3578586986187 L142.2646463940223,530.3501601802163 M657.4677923310198,269.49693788751756 L711.5024610329442,304.4652867053737 M711.5024610329442,304.4652867053737 L747.4577619747661,344.987659733124 M747.4577619747661,344.987659733124 L763.235904046787,388.7137467829234 M763.235904046787,388.7137467829234 L757.9082726254231,433.1045919451353 M757.9082726254231,433.1045919451353 L731.7721538422207,475.57963239380115 M731.7721538422207,475.57963239380115 L686.3362133597188,513.666788763876 M686.3362133597188,513.666788763876 L624.2353289759988,545.14696134939 M624.2353289759988,545.14696134939 L549.0784649009898,568.1843857118183 M549.0784649009898,568.1843857118183 L465.23934165734613,581.4345620945642 M465.23934165734613,581.4345620945642 L377.6005850191167,584.1239035472536 M377.6005850191167,584.1239035472536 L291.267808904252,576.0953264903619 M291.267808904252,576.0953264903619 L211.27006442240338,557.8176400369339 M211.27006442240338,557.8176400369339 L142.26465753372565,530.3578586986187 M657.4677886265446,269.4892446965314 L711.5024581064357,304.45759279972117 M711.5024581064357,304.45759279972117 L747.4577595658743,344.97996499951114 M747.4577595658743,344.97996499951114 L763.2359018648428,388.7060511561285 M763.2359018648428,388.7060511561285 L757.9082703662332,433.09689541184343 M757.9082703662332,433.09689541184343 L731.7721512057249,475.5719349933679 M731.7721512057249,475.5719349933679 L686.3362100674887,513.6590905860721 M686.3362100674887,513.6590905860721 L624.2353247875494,545.1392625292174 M624.2353247875494,545.1392625292174 L549.07845962792,568.1766864216406 M549.07845962792,568.1766864216406 L465.2393351744567,581.4268625340846 M465.2393351744567,581.4268625340846 L377.60057727181425,584.1162039319279 M377.60057727181425,584.1162039319279 L291.2677999117826,576.0876270387962 M291.2677999117826,576.0876270387962 L211.27005427671492,557.8099409582537 M211.27005427671492,557.8099409582537 L142.2646463940223,530.3501601802163 M142.26465753372565,530.3578586986187 L88.26498199425873,495.3179215156597 M88.26498199425873,495.3179215156597 L52.406193161261626,454.74039465016904 M52.406193161261626,454.74039465016904 L36.76410860772904,410.9881543956981 M36.76410860772904,410.9881543956981 L42.23610570842226,366.6061825156248 M42.23610570842226,366.6061825156248 L68.49178246236266,324.173031103448 M68.49178246236266,324.173031103448 L113.99515197527438,286.15114882075795 M113.99515197527438,286.15114882075795 L176.09586468697512,254.74469423925984 M176.09586468697512,254.74469423925984 L251.18499568398056,231.77254402041217 M251.18499568398056,231.77254402041217 L334.90436582439156,218.564231815315 M334.90436582439156,218.564231815315 L422.39871529023014,215.88378854772964 M422.39871529023014,215.88378854772964 L508.595555599357,223.88623725145953 M508.595555599357,223.88623725145953 L588.4970450548178,242.10872003698023 M588.4970450548178,242.10872003698023 L657.4677923310198,269.49693788751756 M142.2646463940223,530.3501601802163 L88.26497007759929,495.3102237123421 M88.26497007759929,495.3102237123421 L52.406180729770426,454.73269767514284 M52.406180729770426,454.73269767514284 L36.76409595321303,410.98045831400304 M36.76409595321303,410.98045831400304 L42.23609313531364,366.5984873403904 M42.23609313531364,366.5984873403904 L68.49177027000587,324.1653367951076 M68.49177027000587,324.1653367951076 L113.99514044059327,286.1434552893734 M113.99514044059327,286.1434552893734 L176.09585404850554,254.73700134980027 M176.09585404850554,254.73700134980027 L251.18498612817677,231.76485160057564 M251.18498612817677,231.76485160057564 L334.90435747495326,218.556539665522 M334.90435747495326,218.556539665522 L422.3987082010419,215.87609645274642 M422.3987082010419,215.87609645274642 L508.59554975141776,223.87854499285822 M508.59554975141776,223.87854499285822 L588.4970403573241,242.10102740583534 M588.4970403573241,242.10102740583534 L657.4677886265446,269.4892446965314" stroke="black"  stroke-width="4"  fill="red"/></svg>