<svg viewBox="0 0 800 800" xmlns="http://www.w3.org/2000/svg"><path d="M-64.64532444476765,224.34258897546852 L-64.64532100859492,224.34187214501105 M864.6453105513142,399.51525293569114 L864.6453244447675,399.51453419095685 M-64.64532444476765,224.34258897546852 L-5.956327817151646,219.92944947321962 M-5.956327817151646,219.92944947321962 L53.07237586988197,217.41160419334437 M53.07237586988197,217.41160419334437 L112.26992300715574,216.7958467290996 M112.26992300715574,216.7958467290996 L171.46514600103478,218.08389252263441 M171.46514600103478,218.08389252263441 L230.48677888253746,221.27219940992734 M230.48677888253746,221.27219940992734 L289.1641080575664,226.35215743888182 M289.1641080575664,226.35215743888182 L347.32699571750754,233.30991417791176 M347.32699571750754,233.30991417791176 L404.80664850508674,242.12650752629452 M404.80664850508674,242.12650752629452 L461.4359405686862,252.77794817385893 M461.4359405686862,252.77794817385893 L517.0496912010783,265.23510001845034 M517.0496912010783,265.23510001845034 L571.4850656518875,279.46387659085246 M571.4850656518875,279.46387659085246 L624.5821944464253,295.4251950455334 M624.5821944464253,295.4251950455334 L676.1843329821322,313.0750887967563 M676.1843329821322,313.0750887967563 L726.1384868120522,332.364827924501 M726.1384868120522,332.364827924501 L774.2956200038698,353.2409510002782 M774.2956200038698,353.2409510002782 L820.5110915049097,375.64527795340075 M820.5110915049097,375.64527795340075 L864.6453105513142,399.51525293569114 M-64.64532100859492,224.34187214501105 L-5.956323725837819,219.92873269126255 M-5.956323725837819,219.92873269126255 L53.07238062023089,217.41088743906425 M53.07238062023089,217.41088743906425 L112.26992841864103,216.79512998158873 M112.26992841864103,216.79512998158873 L171.46515207396294,218.08317576096385 M171.46515207396294,218.08317576096385 L230.48678561541772,221.27148261321202 M230.48678561541772,221.27148261321202 L289.16411544711355,226.35144058634364 M289.16411544711355,226.35144058634364 L347.327003758646,233.3091972489451 M347.327003758646,233.3091972489451 L404.80665719095737,242.12579050052875 M404.80665719095737,242.12579050052875 L461.43594989065923,252.77723103122037 M461.43594989065923,252.77723103122037 L517.049701148765,265.23438273922534 M517.049701148765,265.23438273922534 L571.4850762131571,279.4631591557471 M571.4850762131571,279.4631591557471 L624.582205607426,295.4244774357337 M624.582205607426,295.4244774357337 L676.1843447273127,313.0743709939859 M676.1843447273127,313.0743709939859 L726.1384991241914,332.3641099110772 M726.1384991241914,332.3641099110772 L774.2956328641055,353.2402327591666 M774.2956328641055,353.2402327591666 L820.5111048927722,375.64455946826854 M820.5111048927722,375.64455946826854 L864.6453244447675,399.51453419095685 M556.9223792416713,583.2048700184113 L556.9223897374386,583.2041492890954 M864.6453105513142,399.51525293569114 L556.9223792416713,583.2048700184113 M864.6453244447675,399.51453419095685 L556.9223897374386,583.2041492890954 M556.9223792416713,583.2048700184113 L-64.64532444476765,224.34258897546852 M556.9223897374386,583.2041492890954 L-64.64532100859492,224.34187214501105" stroke="black"  stroke-width="4"  fill="red"/></svg>