<svg viewBox="0 0 800 800" xmlns="http://www.w3.org/2000/svg"><path d="M483.6580262108655,397.3784366148407 L402.5753398161776,441.699594820155 M402.5753432379221,406.13977889750174 L402.5753398161776,441.699594820155 M402.5753432379221,406.13977889750174 L402.57443528129414,405.68996486909435 M402.57443528129414,405.68996486909435 L402.57389048576465,405.23989969350214 M402.57389048576465,405.23989969350214 L402.5737088807779,404.7896426413263 M483.83360290973246,360.58139728423333 L402.5737088807779,404.7896426413263 M483.6580262108655,397.3784366148407 L483.83360290973246,360.58139728423333 M736.3777036501442,624.1615316337111 L703.9129283073528,606.4157442185892 M317.00657986677663,827.0117577887261 L703.9129283073528,606.4157442185892 M317.00657986677663,827.0117577887261 L247.68627067010542,787.012629980721 M214.81818061596204,805.5716392711431 L247.68627067010542,787.012629980721 M187.59946788762298,789.7935422798496 L214.81818061596204,805.5716392711431 M220.46593905817628,771.3059844717868 L187.59946788762298,789.7935422798496 M220.46593905817628,771.3059844717868 L81.2143758639512,690.9552021654414 M48.359913678615044,709.0793948746772 L81.2143758639512,690.9552021654414 M21.779014323732667,693.6710244523505 L48.359913678615044,709.0793948746772 M54.63047511966545,675.6157892887737 L21.779014323732667,693.6710244523505 M54.63047511966545,675.6157892887737 L46.833804492659965,671.1169630645322 M433.71232077193844,458.7195876879732 L46.833804492659965,671.1169630645322 M433.71232077193844,458.7195876879732 L402.5753398161776,441.699594820155 M817.4054677496559,577.7528903325541 L483.6580262108655,397.3784366148407 M736.3777036501442,624.1615316337111 L817.4054677496559,577.7528903325541 M460.4040129942423,427.0406271114456 L459.96576026917455,426.85389106292524 M459.96576026917455,426.85389106292524 L459.4587707484082,426.72962638285514 M459.4587707484082,426.72962638285514 L458.9124977304505,426.67505057375433 M458.9124977304505,426.67505057375433 L458.3586778936778,426.69332994194554 M458.3586778936778,426.69332994194554 L457.82947745343995,426.783407664666 M457.82947745343995,426.783407664666 L457.35564325459114,426.94004923811815 M457.35564325459114,426.94004923811815 L456.96470317353374,427.1541604263756 M456.96470317353374,427.1541604263756 L456.6793790039799,427.4133051988417 M456.6793790039799,427.4133051988417 L456.5162564189528,427.70243178457764 M456.5162564189528,427.70243178457764 L456.48483573524436,428.0047396545178 M456.48483573524436,428.0047396545178 L456.58694982443495,428.30266337474393 M456.58694982443495,428.30266337474393 L456.8166829359962,428.57888386051957 M456.8166829359962,428.57888386051957 L457.1606903850204,428.8173425319875 M457.1606903850204,428.8173425319875 L457.59898781543257,429.0041734456666 M457.59898781543257,429.0041734456666 L458.1060955361967,429.12851060568215 M458.1060955361967,429.12851060568215 L458.6525347302001,429.18312075163465 M458.6525347302001,429.18312075163465 L459.20653064905736,429.164829712571 M459.20653064905736,429.164829712571 L459.7358767401977,429.0746969822119 M459.7358767401977,429.0746969822119 L460.2097927911504,428.91796966845055 M460.2097927911504,428.91796966845055 L460.6007321745595,428.7037616481885 M460.6007321745595,428.7037616481885 L460.8859732565398,428.4445311354424 M460.8859732565398,428.4445311354424 L461.04894939804376,428.1553495428308 M461.04894939804376,428.1553495428308 L461.08019383149536,427.85303000113504 M461.08019383149536,427.85303000113504 L460.97791406103795,427.55514061801557 M460.97791406103795,427.55514061801557 L460.74806379386973,427.27899261191874 M460.74806379386973,427.27899261191874 L460.4040129942423,427.0406271114456 M762.3809737153692,591.1329822126003 L761.9261151179476,590.938303990543 M761.9261151179476,590.938303990543 L761.4035580116262,590.8087610148798 M761.4035580116262,590.8087610148798 L760.8436196516791,590.7518554071296 M760.8436196516791,590.7518554071296 L760.2788908514834,590.7709215647039 M760.2788908514834,590.7709215647039 L759.7420959711827,590.8648162616262 M759.7420959711827,590.8648162616262 L759.2644832134615,591.0281161224534 M759.2644832134615,591.0281161224534 L758.873780476431,591.25132986119 M758.873780476431,591.25132986119 L758.5926960954656,591.5214929335141 M758.5926960954656,591.5214929335141 L758.4375895163021,591.8229244086564 M758.4375895163021,591.8229244086564 L758.4174355727914,592.1380760078658 M758.4174355727914,592.1380760078658 L758.5334882889256,592.4486769873174 M758.5334882889256,592.4486769873174 L758.7789616532766,592.7366382366772 M758.7789616532766,592.7366382366772 L759.1396364891403,592.9852402957163 M759.1396364891403,592.9852402957163 L759.594517860332,593.1800044613806 M759.594517860332,593.1800044613806 L760.1172271176977,593.3096387213661 M760.1172271176977,593.3096387213661 L760.6773141057809,593.3665667490857 M760.6773141057809,593.3665667490857 L761.242252002387,593.3475022983285 M761.242252002387,593.3475022983285 L761.7791705105485,593.2535349201339 M761.7791705105485,593.2535349201339 L762.2568651416667,593.0901437931293 M762.2568651416667,593.0901437931293 L762.6475632439473,592.8668269809796 M762.6475632439473,592.8668269809796 L762.9285575438096,592.5965726414807 M762.9285575438096,592.5965726414807 L763.0835352295192,592.2950967446238 M763.0835352295192,592.2950967446238 L763.103478959291,591.9799185899063 M763.103478959291,591.9799185899063 L762.9872809020932,591.6693682925218 M762.9872809020932,591.6693682925218 L762.7416623250917,591.3814700636719 M762.7416623250917,591.3814700636719 L762.3809737153692,591.1329822126003 M433.77779295145103,423.1179553698396 L402.5753432379221,406.13977889750174 M433.77779295145103,423.1179553698396 L433.71232077193844,458.7195876879732 M433.7786459709598,421.7662278525233 L433.7779984262455,422.21701625728826 M433.7779984262455,422.21701625728826 L433.77771405986084,422.66761187658085 M433.77771405986084,422.66761187658085 L433.77779295145103,423.1179553698396 M402.5737088807779,404.7896426413263 L433.7786459709598,421.7662278525233 M704.5813932704128,569.0924634949575 L737.1200161917965,586.7946207876794 M737.1200161917965,586.7946207876794 L818.3246232059797,540.499529893026 M818.3246232059797,540.499529893026 L483.83360290973246,360.58139728423333 M433.7786459709598,421.7662278525233 L46.036304849478256,633.6345089736428 M46.036304849478256,633.6345089736428 L53.85001691570017,638.1224185133894 M53.85001691570017,638.1224185133894 L20.92294805073857,656.1339547164896 M20.92294805073857,656.1339547164896 L47.5620797090823,671.5051757044296 M47.5620797090823,671.5051757044296 L80.4921702480242,653.4246939346217 M80.4921702480242,653.4246939346217 L220.05259307771462,733.5830805862175 M220.05259307771462,733.5830805862175 L187.11041194117013,752.0268789171548 M187.11041194117013,752.0268789171548 L214.3902184913262,767.7677799483399 M214.3902184913262,767.7677799483399 L247.33402958349973,749.2525368081318 M247.33402958349973,749.2525368081318 L316.8110293061663,789.157576462236 M704.5813932704128,569.0924634949575 L316.8110293061663,789.157576462236 M462.96650105070535,388.83871367991344 L463.8285867077047,389.43292245637934 M463.8285867077047,389.43292245637934 L464.40469088103316,390.1213874776061 M464.40469088103316,390.1213874776061 L464.6612725806366,390.8641373439877 M464.6612725806366,390.8641373439877 L464.58332897332906,391.6180222593368 M464.58332897332906,391.6180222593368 L464.17529672106235,392.3392248887097 M464.17529672106235,392.3392248887097 L463.4608100248605,392.98580241839 M463.4608100248605,392.98580241839 L462.481346708036,393.5201317876234 M462.481346708036,393.5201317876234 L461.2938304023896,393.91110731048997 M461.2938304023896,393.91110731048997 L459.96732013792655,394.13596155754 M459.96732013792655,394.13596155754 L458.5789856799564,394.1815976850623 M458.5789856799564,394.1815976850623 L457.20960301676473,394.0453564643078 M457.20960301676473,394.0453564643078 L455.938849074975,393.73517537764053 M455.938849074975,393.73517537764053 L454.84063711950733,393.26911820577766 M454.84063711950733,393.26911820577766 L453.9788153498687,392.6743228929925 M453.9788153498687,392.6743228929925 L453.40344501869436,391.985404206882 M453.40344501869436,391.985404206882 L453.1479048916099,391.2424406634801 M453.1479048916099,391.2424406634801 L453.2269540792591,390.4886282454793 M453.2269540792591,390.4886282454793 L453.635905591526,389.7677692725927 M453.635905591526,389.7677692725927 L454.3509138553332,389.1217274091782 M454.3509138553332,389.1217274091782 L455.3303815610333,388.5880030013092 M455.3303815610333,388.5880030013092 L456.5173840713247,388.1975631446863 M456.5173840713247,388.1975631446863 L457.8429800619481,387.9730525545031 M457.8429800619481,387.9730525545031 L459.23020999742346,387.9274897694033 M459.23020999742346,387.9274897694033 L460.59854797539606,388.0635156230713 M460.59854797539606,388.0635156230713 L461.8685615049473,388.37324473493675 M461.8685615049473,388.37324473493675 L462.96650105070535,388.83871367991344 M765.6148210479871,552.461297844915 L766.5187218286286,553.0808144512375 M766.5187218286286,553.0808144512375 L767.1343873588567,553.7986159365953 M767.1343873588567,553.7986159365953 L767.425955689598,554.5730172729163 M767.425955689598,554.5730172729163 L767.3763682424162,555.3590198665636 M767.3763682424162,555.3590198665636 L766.9884623710698,556.1109680676102 M766.9884623710698,556.1109680676102 L766.2846403415801,556.7850991430514 M766.2846403415801,556.7850991430514 L765.3057916623981,557.3422048208863 M765.3057916623981,557.3422048208863 L764.1088021219598,557.7498523698084 M764.1088021219598,557.7498523698084 L762.763246066023,557.9842834114716 M762.763246066023,557.9842834114716 L761.3474599893817,558.0318738749761 M761.3474599893817,558.0318738749761 L759.9437661148885,557.8898219305634 M759.9437661148885,557.8898219305634 L758.6338593714645,557.5664144274688 M758.6338593714645,557.5664144274688 L757.4939534174068,557.0804975107408 M757.4939534174068,557.0804975107408 L756.5902762112296,556.4603414832379 M756.5902762112296,556.4603414832379 L755.9753590248406,555.7420579261069 M755.9753590248406,555.7420579261069 L755.6848923606419,554.9674423088123 M755.6848923606419,554.9674423088123 L755.7356102154744,554.1815032479552 M755.7356102154744,554.1815032479552 L756.1245145476516,553.4299349993465 M756.1245145476516,553.4299349993465 L756.8288760833219,552.7563600972164 M756.8288760833219,552.7563600972164 L757.8077539229672,552.1998984594348 M757.8077539229672,552.1998984594348 L759.0042555976781,551.7928352731781 M759.0042555976781,551.7928352731781 L760.3488463224774,551.5587559877931 M760.3488463224774,551.5587559877931 L761.7635090211674,551.511257254452 M761.7635090211674,551.511257254452 L763.1660805485459,551.653066729023 M763.1660805485459,551.653066729023 L764.4751952942167,551.9759921567863 M764.4751952942167,551.9759921567863 L765.6148210479871,552.461297844915 M817.4054677496559,577.7528903325541 L818.3246232059797,540.499529893026 M737.0944182343943,588.1615092679449 L704.5584987206078,570.4577524069787 M737.0944182343943,588.1615092679449 L736.3777036501442,624.1615316337111 M704.5584987206078,570.4577524069787 L703.9129283073528,606.4157442185892 M704.5584987206078,570.4577524069787 L704.5657666062946,570.0028968190081 M704.5657666062946,570.0028968190081 L704.5733984716733,569.5477805360593 M704.5733984716733,569.5477805360593 L704.5813932704128,569.0924634949575 M317.00657986677663,827.0117577887261 L316.8110293061663,789.157576462236 M247.68627067010542,787.012629980721 L247.33402958349973,749.2525368081318 M214.81818061596204,805.5716392711431 L214.3902184913262,767.7677799483399 M187.59946788762298,789.7935422798496 L187.11041194117013,752.0268789171548 M220.46593905817628,771.3059844717868 L220.05259307771462,733.5830805862175 M81.2143758639512,690.9552021654414 L80.4921702480242,653.4246939346217 M48.359913678615044,709.0793948746772 L47.5620797090823,671.5051757044296 M21.779014323732667,693.6710244523505 L20.92294805073857,656.1339547164896 M54.63047511966545,675.6157892887737 L53.85001691570017,638.1224185133894 M46.833804492659965,671.1169630645322 L46.036304849478256,633.6345089736428 M737.1200161917965,586.7946207876794 L737.1111202638544,587.2504720098727 M737.1111202638544,587.2504720098727 L737.1025872230882,587.7061215056804 M737.1025872230882,587.7061215056804 L737.0944182343943,588.1615092679449 M460.4040129942423,427.0406271114456 L460.5164926372623,394.04604811500025 M460.5164926372623,394.04604811500025 L460.86121607808343,394.2838670873161 M460.86121607808343,394.2838670873161 L461.0915174456364,394.5593819722789 M461.0915174456364,394.5593819722789 L461.19400051680793,394.85658843061515 M461.19400051680793,394.85658843061515 L461.16269972308754,395.15821493632893 M461.16269972308754,395.15821493632893 L460.9994107610838,395.446733652886 M460.9994107610838,395.446733652886 L460.71361854448816,395.70536998025887 M460.71361854448816,395.70536998025887 L460.32192170785004,395.91908703697186 M460.32192170785004,395.91908703697186 L459.8470859084492,396.07545514709443 M459.8470859084492,396.07545514709443 L459.3167112480972,396.1653813076066 M459.3167112480972,396.1653813076066 L458.76163777229976,396.18363042701816 M458.76163777229976,396.18363042701816 L458.21413470680557,396.1291454378336 M458.21413470680557,396.1291454378336 L457.7060386904618,396.0050932420688 M457.7060386904618,396.0050932420688 L457.2668860110335,395.8186905344829 M457.2668860110335,395.8186905344829 L456.92220608528334,395.58077842229386 M456.92220608528334,395.58077842229386 L456.692022328547,395.3051910831419 M456.692022328547,395.3051910831419 L456.58970558335784,395.00795029977485 M456.58970558335784,395.00795029977485 L456.6211833138563,394.7063354617117 M456.6211833138563,394.7063354617117 L456.7846192904399,394.41787173268557 M456.7846192904399,394.41787173268557 L457.0704949193765,394.15932111543975 M457.0704949193765,394.15932111543975 L457.46219245774205,393.9457008566783 M457.46219245774205,393.9457008566783 L457.9369460874955,393.7894184567124 M457.9369460874955,393.7894184567124 L458.4671745305226,393.69954728449443 M458.4671745305226,393.69954728449443 L459.0220712386978,393.6813098318504 M459.0220712386978,393.6813098318504 L459.56940748053756,393.7357604962585 M459.56940748053756,393.7357604962585 L460.07738483556716,393.85974023756717 M460.07738483556716,393.85974023756717 L460.5164926372623,394.04604811500025 M762.3809737153692,591.1329822126003 L763.095547243049,557.7688584546569 M763.095547243049,557.7688584546569 L763.4569745365108,558.0167968572155 M763.4569745365108,558.0167968572155 L763.7031068485624,558.3040585329849 M763.7031068485624,558.3040585329849 L763.8195636620403,558.6139222390087 M763.8195636620403,558.6139222390087 L763.7996087078525,558.9284036197655 M763.7996087078525,558.9284036197655 L763.6443503350824,559.2292130809128 M763.6443503350824,559.2292130809128 L763.3628221928458,559.4988700408032 M763.3628221928458,559.4988700408032 L762.971368066763,559.7216932531128 M762.971368066763,559.7216932531128 L762.4927391687105,559.884723250461 M762.4927391687105,559.884723250461 L761.9547624818013,559.9784829464847 M761.9547624818013,559.9784829464847 L761.388704017438,559.9975052624477 M761.388704017438,559.9975052624477 L760.8274993045321,559.9407030532468 M760.8274993045321,559.9407030532468 L760.3037401046406,559.8113553082482 M760.3037401046406,559.8113553082482 L759.8479377607327,559.6170216220734 M759.8479377607327,559.6170216220734 L759.4865243374069,559.3689690657008 M759.4865243374069,559.3689690657008 L759.2405377580293,559.0816443558426 M759.2405377580293,559.0816443558426 L759.1242269107503,558.7717300073613 M759.1242269107503,558.7717300073613 L759.1443928652019,558.4572751480268 M759.1443928652019,558.4572751480268 L759.2997806996867,558.1565101264302 M759.2997806996867,558.1565101264302 L759.5813992894072,557.8869444128202 M759.5813992894072,557.8869444128202 L759.9728580779117,557.664224250326 M759.9728580779117,557.664224250326 L760.4514047851906,557.5012854982609 M760.4514047851906,557.5012854982609 L760.9892573074164,557.4075984388635 M760.9892573074164,557.4075984388635 L761.5551058955153,557.3885744444806 M761.5551058955153,557.3885744444806 L762.1161613355242,557.4453542108384 M762.1161613355242,557.4453542108384 L762.6397678229222,557.5746107204197 M762.6397678229222,557.5746107204197 L763.095547243049,557.7688584546569 M462.96650105070535,388.83871367991344 L462.95272468099074,392.71709702610246 M462.95272468099074,392.71709702610246 L463.8146126158468,393.3114670592246 M463.8146126158468,393.3114670592246 L464.39058411173573,394.00011889045453 M464.39058411173573,394.00011889045453 L464.6471059172476,394.7430702653924 M464.6471059172476,394.7430702653924 L464.5691787210796,395.49715967707925 M464.5691787210796,395.49715967707925 L464.16123827426793,396.21855790622993 M464.16123827426793,396.21855790622993 L463.44691347849925,396.8653107703698 M463.44691347849925,396.8653107703698 L462.4676727686961,397.39978501682896 M462.4676727686961,397.39978501682896 L461.2804268395655,397.79086653755064 M461.2804268395655,397.79086653755064 L459.95421898762504,398.01578174104196 M459.95421898762504,398.01578174104196 L458.5662013675106,398.06143023984214 M458.5662013675106,398.06143023984214 L457.19713151169447,397.9251520857491 M457.19713151169447,397.9251520857491 L455.9266681258602,397.6148869086905 M455.9266681258602,397.6148869086905 L454.82870756025983,397.14870337764523 M454.82870756025983,397.14870337764523 L453.9670833936786,396.5537467831591 M453.9670833936786,396.5537467831591 L453.39184540548314,395.86464126733205 M453.39184540548314,395.86464126733205 L453.13636469792675,395.1214762063731 M453.13636469792675,395.1214762063731 L453.21539696965795,394.3674592950575 M453.21539696965795,394.3674592950575 L453.6242562564395,393.6464047371799 M453.6242562564395,393.6464047371799 L454.3391023809339,393.00018756235454 M454.3391023809339,393.00018756235454 L455.31834747660906,392.4663183032901 M455.31834747660906,392.4663183032901 L456.50507984394505,392.07577247186066 M456.50507984394505,392.07577247186066 L457.83037383866366,391.8512009400231 M457.83037383866366,391.8512009400231 L459.2172874403379,391.8056257868975 M459.2172874403379,391.8056257868975 L460.58531308762866,391.9416885644444 M460.58531308762866,391.9416885644444 L461.8550364001816,392.25150174744664 M461.8550364001816,392.25150174744664 L462.95272468099074,392.71709702610246 M765.6148210479871,552.461297844915 L765.5302615364965,556.3833010762735 M765.5302615364965,556.3833010762735 L766.4339451565065,557.0029798477001 M766.4339451565065,557.0029798477001 L767.0494595867483,557.720969197065 M767.0494595867483,557.720969197065 L767.3409516931058,558.4955731768191 M767.3409516931058,558.4955731768191 L767.2913673748441,559.281781413637 M767.2913673748441,559.281781413637 L766.9035438370206,560.0339263141541 M766.9035438370206,560.0339263141541 L766.1998786137332,560.7082337049009 M766.1998786137332,560.7082337049009 L765.2212521153174,561.2654850705252 M765.2212521153174,561.2654850705252 L764.024537219378,561.6732392111272 M764.024537219378,561.6732392111272 L762.6792922985658,561.9077315473942 M762.6792922985658,561.9077315473942 L761.2638357148229,561.9553344535602 M761.2638357148229,561.9553344535602 L759.8604705097764,561.8132453688694 M759.8604705097764,561.8132453688694 L758.5508724617397,561.489753304644 M758.5508724617397,561.489753304644 L757.4112372522508,561.0037093240039 M757.4112372522508,561.0037093240039 L756.5077771032088,560.383391109828 M756.5077771032088,560.383391109828 L755.8930106732199,559.664919674905 M755.8930106732199,559.664919674905 L755.6026197284447,558.8901014113355 M755.6026197284447,558.8901014113355 L755.6533339209362,558.1039567058392 M755.6533339209362,558.1039567058392 L756.0421554564502,557.3521917719097 M756.0421554564502,557.3521917719097 L756.7463599226163,556.6784405670921 M756.7463599226163,556.6784405670921 L757.725015561118,556.1218332599371 M757.725015561118,556.1218332599371 L758.9212428185455,555.7146635019953 M758.9212428185455,555.7146635019953 L760.2655228482093,555.4805229287796 M760.2655228482093,555.4805229287796 L761.6798565825096,555.433011758685 M761.6798565825096,555.433011758685 L763.0820999598533,555.5748583633156 M763.0820999598533,555.5748583633156 L764.3909063842287,555.8978683384254 M764.3909063842287,555.8978683384254 L765.5302615364965,556.3833010762735" stroke="black"  stroke-width="4"  fill="red"/>
<path d="M736.3777036501442,624.1615316337111 L316.61458289655206,864.5808042003728 M736.3777036501442,624.1615316337111 L703.9129283073528,606.4157442185892 M284.13544315370063,845.7533518454004 L703.9129283073528,606.4157442185892 M316.61458289655206,864.5808042003728 L284.13544315370063,845.7533518454004 M737.0944182343943,588.1615092679449 L736.3777036501442,624.1615316337111 M782.2070428180873,351.712485485239 L775.3840043200272,372.175122436843 M775.3840043200272,372.175122436843 L769.0946026157238,392.60796200819135 M769.0946026157238,392.60796200819135 L763.3481341897566,412.97790938862573 M763.3481341897566,412.97790938862573 L758.1529081607441,433.25186699489063 M758.1529081607441,433.25186699489063 L753.5162060281274,453.3972653635192 M753.5162060281274,453.3972653635192 L749.4442903532591,473.3817208694968 M749.4442903532591,473.3817208694968 L745.9423941738175,493.1734270831771 M745.9423941738175,493.1734270831771 L743.0147251294746,512.7408754706407 M743.0147251294746,512.7408754706407 L740.6644534464017,532.0533641524859 M740.6644534464017,532.0533641524859 L738.8937296912912,551.0805304038744 M738.8937296912912,551.0805304038744 L737.703679906385,569.7928520361404 M737.703679906385,569.7928520361404 L737.0944182343943,588.1615092679449 M782.9734227487352,349.50354087277276 L783.1364093347238,349.5440866120556 M783.1364093347238,349.5440866120556 L783.2676473578977,349.64647488863244 M783.2676473578977,349.64647488863244 L783.3595128863452,349.80468091978446 M783.3595128863452,349.80468091978446 L783.4066677323555,350.0096538809266 M783.4066677323555,350.0096538809266 L783.406374375329,350.24932437530754 M783.406374375329,350.24932437530754 L783.3586562518942,350.50984992210715 M783.3586562518942,350.50984992210715 L783.2662799182924,350.77610951522854 M783.2662799182924,350.77610951522854 L783.134620935227,351.0325657846647 M783.134620935227,351.0325657846647 L782.9713235957031,351.26436282640236 M782.9713235957031,351.26436282640236 L782.7858796921122,351.45804449711693 M782.7858796921122,351.45804449711693 L782.5890615292585,351.60229330519314 M782.5890615292585,351.60229330519314 L782.3923052408068,351.6888186662448 M782.3923052408068,351.6888186662448 L782.2070428180873,351.712485485239 M828.9514806532753,109.79311554295094 L828.1944291643398,128.90406636645395 M828.1944291643398,128.90406636645395 L826.8618797183545,148.2598986705077 M826.8618797183545,148.2598986705077 L824.9573583814699,167.83449381423196 M824.9573583814699,167.83449381423196 L822.4850396580606,187.60150140045045 M822.4850396580606,187.60150140045045 L819.4497614522957,207.53462002989232 M819.4497614522957,207.53462002989232 L815.8569576862174,227.60748987195882 M815.8569576862174,227.60748987195882 L811.7127055657955,247.79376885142875 M811.7127055657955,247.79376885142875 L807.0236606712167,268.06702435898046 M807.0236606712167,268.06702435898046 L801.7970926496225,288.4008761198323 M801.7970926496225,288.4008761198323 L796.0408373929998,308.7690612899741 M796.0408373929998,308.7690612899741 L789.7632942179358,329.14535304333253 M789.7632942179358,329.14535304333253 L782.9734227487352,349.50354087277276 M347.9578074936995,369.2849870898848 L828.9514806532753,109.79311554295094 M348.7330618848856,610.9008083773722 L347.9578074936995,369.2849870898848 M315.39158714833616,629.4505283584499 L348.7330618848856,610.9008083773722 M316.61458289655206,864.5808042003728 L315.39158714833616,629.4505283584499 M737.0944182343943,588.1615092679449 L704.5584987206078,570.4577524069787 M704.5584987206078,570.4577524069787 L703.9129283073528,606.4157442185892 M284.13544315370063,845.7533518454004 L282.45425149950256,610.9008083773722 M315.7947916940036,592.4368781347019 L282.45425149950256,610.9008083773722 M315.7947916940036,592.4368781347019 L314.5481883314519,351.1225623845152 M795.5684612605086,92.82631042503317 L314.5481883314519,351.1225623845152 M795.5684612605086,92.82631042503317 L794.8489628726119,111.91219396265586 M794.8489628726119,111.91219396265586 L793.5537512740653,131.24172468816823 M793.5537512740653,131.24172468816823 L791.686300645315,150.78881808946386 M791.686300645315,150.78881808946386 L789.250734347053,170.52715875365465 M789.250734347053,170.52715875365465 L786.2518404817228,190.43048083797197 M786.2518404817228,190.43048083797197 L782.6950042262886,210.4724606908497 M782.6950042262886,210.4724606908497 L778.586255320685,230.62679307040216 M778.586255320685,230.62679307040216 L773.932202868945,250.8670829110755 M773.932202868945,250.8670829110755 L768.7400713691549,271.16698812587566 M768.7400713691549,271.16698812587566 L763.0176529664643,291.50028458334873 M763.0176529664643,291.50028458334873 L756.7733044662847,311.8407848336081 M756.7733044662847,311.8407848336081 L750.015944172327,332.1623184729833 M749.2530543674542,334.3672345823909 L749.4384973982814,334.3439348932523 M749.4384973982814,334.3439348932523 L749.6353222952689,334.25787241096384 M749.6353222952689,334.25787241096384 L749.8320932936817,334.11415520370133 M749.8320932936817,334.11415520370133 L750.0173768122024,333.92104307475165 M750.0173768122024,333.92104307475165 L750.180409990178,333.6898203556319 M750.180409990178,333.6898203556319 L750.3117163495178,333.43390983382005 M750.3117163495178,333.43390983382005 L750.4036719984404,333.16813577557525 M750.4036719984404,333.16813577557525 L750.4509259424561,332.90800725341626 M750.4509259424561,332.90800725341626 L750.4507385722422,332.6686222415258 M750.4507385722422,332.6686222415258 L750.4031142127792,332.46380672301484 M750.4031142127792,332.46380672301484 L750.3108179888955,332.3056207509807 M750.3108179888955,332.3056207509807 L750.179212835949,332.20311414845537 M750.179212835949,332.20311414845537 L750.015944172327,332.1623184729833 M704.5584987206078,570.4577524069787 L705.131759444431,552.1111311343506 M705.131759444431,552.1111311343506 L706.2858368188271,533.4224160711178 M706.2858368188271,533.4224160711178 L708.0206705806313,514.4203909167439 M708.0206705806313,514.4203909167439 L710.3351890769342,495.1345383464195 M710.3351890769342,495.1345383464195 L713.2272969318382,475.59517797955743 M713.2272969318382,475.59517797955743 L716.6938789415349,455.8329656146456 M716.6938789415349,455.8329656146456 L720.7307832588858,435.87936018972215 M720.7307832588858,435.87936018972215 L725.3328324261594,415.7661156748501 M725.3328324261594,415.7661156748501 L730.4938198211264,395.52556008273814 M730.4938198211264,395.52556008273814 L736.2065194851455,375.1902046376539 M736.2065194851455,375.1902046376539 L742.4626781271395,354.79308569054587 M742.4626781271395,354.79308569054587 L749.2530543674542,334.3672345823909 M282.45425149950256,610.9008083773722 L315.39158714833616,629.4505283584499 M782.2070428180873,351.712485485239 L749.2530543674542,334.3672345823909 M782.9734227487352,349.50354087277276 L750.015944172327,332.1623184729833 M828.9514806532753,109.79311554295094 L795.5684612605086,92.82631042503317 M347.9578074936995,369.2849870898848 L314.5481883314519,351.1225623845152 M348.7330618848856,610.9008083773722 L315.7947916940036,592.4368781347019" stroke="black"  stroke-width="4"  fill="red"/>
<path d="M762.3809737153692,591.1329822126003 L763.095547243049,557.7688584546569 M763.095547243049,557.7688584546569 L763.4569745365108,558.0167968572155 M763.4569745365108,558.0167968572155 L763.7031068485624,558.3040585329849 M763.7031068485624,558.3040585329849 L763.8195636620403,558.6139222390087 M763.8195636620403,558.6139222390087 L763.7996087078525,558.9284036197655 M763.7996087078525,558.9284036197655 L763.6443503350824,559.2292130809128 M763.6443503350824,559.2292130809128 L763.3628221928458,559.4988700408032 M763.3628221928458,559.4988700408032 L762.971368066763,559.7216932531128 M762.971368066763,559.7216932531128 L762.4927391687105,559.884723250461 M762.4927391687105,559.884723250461 L761.9547624818013,559.9784829464847 M761.9547624818013,559.9784829464847 L761.388704017438,559.9975052624477 M761.388704017438,559.9975052624477 L760.8274993045321,559.9407030532468 M760.8274993045321,559.9407030532468 L760.3037401046406,559.8113553082482 M760.3037401046406,559.8113553082482 L759.8479377607327,559.6170216220734 M759.8479377607327,559.6170216220734 L759.4865243374069,559.3689690657008 M759.4865243374069,559.3689690657008 L759.2405377580293,559.0816443558426 M759.2405377580293,559.0816443558426 L759.1242269107503,558.7717300073613 M759.1242269107503,558.7717300073613 L759.1443928652019,558.4572751480268 M759.1443928652019,558.4572751480268 L759.2997806996867,558.1565101264302 M759.2997806996867,558.1565101264302 L759.5813992894072,557.8869444128202 M759.5813992894072,557.8869444128202 L759.9728580779117,557.664224250326 M759.9728580779117,557.664224250326 L760.4514047851906,557.5012854982609 M760.4514047851906,557.5012854982609 L760.9892573074164,557.4075984388635 M760.9892573074164,557.4075984388635 L761.5551058955153,557.3885744444806 M761.5551058955153,557.3885744444806 L762.1161613355242,557.4453542108384 M762.1161613355242,557.4453542108384 L762.6397678229222,557.5746107204197 M762.6397678229222,557.5746107204197 L763.095547243049,557.7688584546569 M762.3809737153692,591.1329822126003 L761.9261151179476,590.938303990543 M761.9261151179476,590.938303990543 L761.4035580116262,590.8087610148798 M761.4035580116262,590.8087610148798 L760.8436196516791,590.7518554071296 M760.8436196516791,590.7518554071296 L760.2788908514834,590.7709215647039 M760.2788908514834,590.7709215647039 L759.7420959711827,590.8648162616262 M759.7420959711827,590.8648162616262 L759.2644832134615,591.0281161224534 M759.2644832134615,591.0281161224534 L758.873780476431,591.25132986119 M758.873780476431,591.25132986119 L758.5926960954656,591.5214929335141 M758.5926960954656,591.5214929335141 L758.4375895163021,591.8229244086564 M758.4375895163021,591.8229244086564 L758.4174355727914,592.1380760078658 M758.4174355727914,592.1380760078658 L758.5334882889256,592.4486769873174 M758.5334882889256,592.4486769873174 L758.7789616532766,592.7366382366772 M758.7789616532766,592.7366382366772 L759.1396364891403,592.9852402957163 M759.1396364891403,592.9852402957163 L759.594517860332,593.1800044613806 M759.594517860332,593.1800044613806 L760.1172271176977,593.3096387213661 M760.1172271176977,593.3096387213661 L760.6773141057809,593.3665667490857 M760.6773141057809,593.3665667490857 L761.242252002387,593.3475022983285 M761.242252002387,593.3475022983285 L761.7791705105485,593.2535349201339 M761.7791705105485,593.2535349201339 L762.2568651416667,593.0901437931293 M762.2568651416667,593.0901437931293 L762.6475632439473,592.8668269809796 M762.6475632439473,592.8668269809796 L762.9285575438096,592.5965726414807 M762.9285575438096,592.5965726414807 L763.0835352295192,592.2950967446238 M763.0835352295192,592.2950967446238 L763.103478959291,591.9799185899063 M763.103478959291,591.9799185899063 L762.9872809020932,591.6693682925218 M762.9872809020932,591.6693682925218 L762.7416623250917,591.3814700636719 M762.7416623250917,591.3814700636719 L762.3809737153692,591.1329822126003 M765.5302615364965,556.3833010762735 L766.4339451565065,557.0029798477001 M766.4339451565065,557.0029798477001 L767.0494595867483,557.720969197065 M767.0494595867483,557.720969197065 L767.3409516931058,558.4955731768191 M767.3409516931058,558.4955731768191 L767.2913673748441,559.281781413637 M767.2913673748441,559.281781413637 L766.9035438370206,560.0339263141541 M766.9035438370206,560.0339263141541 L766.1998786137332,560.7082337049009 M766.1998786137332,560.7082337049009 L765.2212521153174,561.2654850705252 M765.2212521153174,561.2654850705252 L764.024537219378,561.6732392111272 M764.024537219378,561.6732392111272 L762.6792922985658,561.9077315473942 M762.6792922985658,561.9077315473942 L761.2638357148229,561.9553344535602 M761.2638357148229,561.9553344535602 L759.8604705097764,561.8132453688694 M759.8604705097764,561.8132453688694 L758.5508724617397,561.489753304644 M758.5508724617397,561.489753304644 L757.4112372522508,561.0037093240039 M757.4112372522508,561.0037093240039 L756.5077771032088,560.383391109828 M756.5077771032088,560.383391109828 L755.8930106732199,559.664919674905 M755.8930106732199,559.664919674905 L755.6026197284447,558.8901014113355 M755.6026197284447,558.8901014113355 L755.6533339209362,558.1039567058392 M755.6533339209362,558.1039567058392 L756.0421554564502,557.3521917719097 M756.0421554564502,557.3521917719097 L756.7463599226163,556.6784405670921 M756.7463599226163,556.6784405670921 L757.725015561118,556.1218332599371 M757.725015561118,556.1218332599371 L758.9212428185455,555.7146635019953 M758.9212428185455,555.7146635019953 L760.2655228482093,555.4805229287796 M760.2655228482093,555.4805229287796 L761.6798565825096,555.433011758685 M761.6798565825096,555.433011758685 L763.0820999598533,555.5748583633156 M763.0820999598533,555.5748583633156 L764.3909063842287,555.8978683384254 M764.3909063842287,555.8978683384254 L765.5302615364965,556.3833010762735 M765.6148210479871,552.461297844915 L766.5187218286286,553.0808144512375 M766.5187218286286,553.0808144512375 L767.1343873588567,553.7986159365953 M767.1343873588567,553.7986159365953 L767.425955689598,554.5730172729163 M767.425955689598,554.5730172729163 L767.3763682424162,555.3590198665636 M767.3763682424162,555.3590198665636 L766.9884623710698,556.1109680676102 M766.9884623710698,556.1109680676102 L766.2846403415801,556.7850991430514 M766.2846403415801,556.7850991430514 L765.3057916623981,557.3422048208863 M765.3057916623981,557.3422048208863 L764.1088021219598,557.7498523698084 M764.1088021219598,557.7498523698084 L762.763246066023,557.9842834114716 M762.763246066023,557.9842834114716 L761.3474599893817,558.0318738749761 M761.3474599893817,558.0318738749761 L759.9437661148885,557.8898219305634 M759.9437661148885,557.8898219305634 L758.6338593714645,557.5664144274688 M758.6338593714645,557.5664144274688 L757.4939534174068,557.0804975107408 M757.4939534174068,557.0804975107408 L756.5902762112296,556.4603414832379 M756.5902762112296,556.4603414832379 L755.9753590248406,555.7420579261069 M755.9753590248406,555.7420579261069 L755.6848923606419,554.9674423088123 M755.6848923606419,554.9674423088123 L755.7356102154744,554.1815032479552 M755.7356102154744,554.1815032479552 L756.1245145476516,553.4299349993465 M756.1245145476516,553.4299349993465 L756.8288760833219,552.7563600972164 M756.8288760833219,552.7563600972164 L757.8077539229672,552.1998984594348 M757.8077539229672,552.1998984594348 L759.0042555976781,551.7928352731781 M759.0042555976781,551.7928352731781 L760.3488463224774,551.5587559877931 M760.3488463224774,551.5587559877931 L761.7635090211674,551.511257254452 M761.7635090211674,551.511257254452 L763.1660805485459,551.653066729023 M763.1660805485459,551.653066729023 L764.4751952942167,551.9759921567863 M764.4751952942167,551.9759921567863 L765.6148210479871,552.461297844915 M765.6148210479871,552.461297844915 L765.5302615364965,556.3833010762735" stroke="black"  stroke-width="4"  fill="red"/>
<path d="M433.71232077193844,458.7195876879732 L13.983267057002422,689.1519989671365 M433.71232077193844,458.7195876879732 L402.5753398161776,441.699594820155 M-17.128872985608496,671.1169666679077 L402.5753398161776,441.699594820155 M13.983267057002422,689.1519989671365 L-17.128872985608496,671.1169666679077 M13.983267057002422,689.1519989671365 L8.57390970271041,456.65628469100517 M8.57390970271041,456.65628469100517 L41.89297227410998,438.8980293183681 M41.89297227410998,438.8980293183681 L36.81296235088803,200.1377485378245 M36.81296235088803,200.1377485378245 L517.851045270493,-48.3226138084446 M517.851045270493,-48.3226138084446 L517.4376490313981,-29.448481786216178 M517.4376490313981,-29.448481786216178 L516.4470288297977,-10.340844927534818 M516.4470288297977,-10.340844927534818 L514.8822332733699,8.974499797087844 M514.8822332733699,8.974499797087844 L512.7469659529195,28.471531578320025 M512.7469659529195,28.471531578320025 L510.0456058941737,48.12428382493289 M510.0456058941737,48.12428382493289 L506.78313760386203,67.90673724206732 M506.78313760386203,67.90673724206732 L502.96520036035184,87.7928962829443 M502.96520036035184,87.7928962829443 L498.59802069435386,107.75668141994817 M498.59802069435386,107.75668141994817 L493.68845115997414,127.77207135392166 M493.68845115997414,127.77207135392166 L488.2439232266788,147.8131669984632 M488.2439232266788,147.8131669984632 L482.2724429444627,167.85411137322063 M482.2724429444627,167.85411137322063 L475.78258742271777,187.86907049860923 M475.78258742271777,187.86907049860923 L475.9480901035118,187.9118863390118 M475.9480901035118,187.9118863390118 L476.08263457934004,188.0153167385767 M476.08263457934004,188.0153167385767 L476.1784033839118,188.17327731079854 M476.1784033839118,188.17327731079854 L476.22983407080716,188.3767299376712 M476.22983407080716,188.3767299376712 L476.23393771373696,188.61369541086356 M476.23393771373696,188.61369541086356 L476.19048382199776,188.8704875657566 M476.19048382199776,188.8704875657566 L476.1019914011694,189.13220197736297 M476.1019914011694,189.13220197736297 L475.97360921420164,189.38356618079865 M475.97360921420164,189.38356618079865 L475.8127919625141,189.61001946170637 M475.8127919625141,189.61001946170637 L475.6288876504994,189.79841603263196 M475.6288876504994,189.79841603263196 L475.4325779842004,189.93774612986158 M475.4325779842004,189.93774612986158 L475.2352712734351,190.02000395202566 M475.2352712734351,190.02000395202566 L475.0484295445734,190.04030361319542 M475.0484295445734,190.04030361319542 L468.52680526722247,210.15846859517808 M468.52680526722247,210.15846859517808 L462.5439246901573,230.25659270880993 M462.5439246901573,230.25659270880993 L457.10857769459045,250.30217519838845 M457.10857769459045,250.30217519838845 L452.2285606382162,270.26269211350524 M452.2285606382162,270.26269211350524 L447.9106453405219,290.1061200764395 M447.9106453405219,290.1061200764395 L444.16058148410565,309.80059747877846 M444.16058148410565,309.80059747877846 L440.9830929518046,329.3148108701206 M440.9830929518046,329.3148108701206 L438.38187670973286,348.6177184048047 M438.38187670973286,348.6177184048047 L436.3595997756519,367.6790524390865 M436.3595997756519,367.6790524390865 L434.91790836856296,386.46885714107805 M434.91790836856296,386.46885714107805 L434.05743190733966,404.9579840317772 M434.05743190733966,404.9579840317772 L433.77779295145103,423.1179553698396 M433.77779295145103,423.1179553698396 L433.71232077193844,458.7195876879732 M433.77779295145103,423.1179553698396 L402.5753432379221,406.13977889750174 M402.5753432379221,406.13977889750174 L402.5753398161776,441.699594820155 M402.5753432379221,406.13977889750174 L402.82183568866446,388.0016889559392 M402.82183568866446,388.0016889559392 L403.649143161595,369.5359190567831 M403.649143161595,369.5359190567831 L405.0576923095781,350.7709110375056 M405.0576923095781,350.7709110375056 L407.04690348116867,331.7357742562229 M407.04690348116867,331.7357742562229 L409.61518105154124,312.46042204881263 M409.61518105154124,312.46042204881263 L412.7599085346697,292.97507680058595 M412.7599085346697,292.97507680058595 L416.47744030033505,273.31073180043086 M416.47744030033505,273.31073180043086 L420.76310370414876,253.49864928892487 M420.76310370414876,253.49864928892487 L425.611200732664,233.5706367224668 M425.611200732664,233.5706367224668 L431.0150109717439,213.55866090404226 M431.0150109717439,213.55866090404226 L436.9667898376543,193.49518642069006 M436.9667898376543,193.49518642069006 L443.45779866310386,173.4126526191676 M443.45779866310386,173.4126526191676 L443.6447895921931,173.39269230074763 M443.6447895921931,173.39269230074763 L443.84214159622746,173.3108674301527 M443.84214159622746,173.3108674301527 L444.0383902123945,173.17203860619685 M444.0383902123945,173.17203860619685 L444.2221305050362,172.98418261058004 M444.2221305050362,172.98418261058004 L444.38269041272514,172.75827772959457 M444.38269041272514,172.75827772959457 L444.510736852267,172.50743790091252 M444.510736852267,172.50743790091252 L444.5988345495825,172.2461934411951 M444.5988345495825,172.2461934411951 L444.6418577904392,171.9897894243938 M444.6418577904392,171.9897894243938 L444.63731256975524,171.75310775859276 M444.63731256975524,171.75310775859276 L444.58545487994087,171.5498182083997 M444.58545487994087,171.5498182083997 L444.48929875563545,171.39189031285395 M444.48929875563545,171.39189031285395 L444.3544288933704,171.28836045477158 M444.3544288933704,171.28836045477158 L444.1886818080062,171.2453187005923 M485.862260029372,-64.58080420037282 L485.4833988652569,-45.731431223237735 M485.4833988652569,-45.731431223237735 L484.52717179366954,-26.649707235448886 M484.52717179366954,-26.649707235448886 L482.996579103573,-7.361395669795343 M482.996579103573,-7.361395669795343 L480.89527669294233,12.107517009193714 M480.89527669294233,12.107517009193714 L478.2275970722796,31.73109907755577 M478.2275970722796,31.73109907755577 L474.99847915723353,51.48336668723323 M474.99847915723353,51.48336668723323 L471.2135177612987,71.3383603410727 M471.2135177612987,71.3383603410727 L466.87889581898463,91.27003722630099 M466.87889581898463,91.27003722630099 L462.00142346521136,111.25241335086918 M462.00142346521136,111.25241335086918 L456.5884910024614,131.25962741333262 M456.5884910024614,131.25962741333262 L450.6480644149659,151.26586083196554 M450.6480644149659,151.26586083196554 L444.1886818080062,171.2453187005923 M485.862260029372,-64.58080420037282 L4.845439196733821,182.75928847562312 M10.356943155068507,421.2201416087097 L4.845439196733821,182.75928847562312 M10.356943155068507,421.2201416087097 L-22.958075765663637,438.89803286633287 M-17.128872985608496,671.1169666679077 L-22.958075765663637,438.89803286633287 M-22.958075765663637,438.89803286633287 L8.57390970271041,456.65628469100517 M475.0484295445734,190.04030361319542 L443.45779866310386,173.4126526191676 M475.78258742271777,187.86907049860923 L444.1886818080062,171.2453187005923 M517.851045270493,-48.3226138084446 L485.862260029372,-64.58080420037282 M36.81296235088803,200.1377485378245 L4.845439196733821,182.75928847562312 M41.89297227410998,438.8980293183681 L10.356943155068507,421.2201416087097" stroke="black"  stroke-width="4"  fill="red"/>
<path d="M460.4040129942423,427.0406271114456 L460.5164926372623,394.04604811500025 M460.5164926372623,394.04604811500025 L460.86121607808343,394.2838670873161 M460.86121607808343,394.2838670873161 L461.0915174456364,394.5593819722789 M461.0915174456364,394.5593819722789 L461.19400051680793,394.85658843061515 M461.19400051680793,394.85658843061515 L461.16269972308754,395.15821493632893 M461.16269972308754,395.15821493632893 L460.9994107610838,395.446733652886 M460.9994107610838,395.446733652886 L460.71361854448816,395.70536998025887 M460.71361854448816,395.70536998025887 L460.32192170785004,395.91908703697186 M460.32192170785004,395.91908703697186 L459.8470859084492,396.07545514709443 M459.8470859084492,396.07545514709443 L459.3167112480972,396.1653813076066 M459.3167112480972,396.1653813076066 L458.76163777229976,396.18363042701816 M458.76163777229976,396.18363042701816 L458.21413470680557,396.1291454378336 M458.21413470680557,396.1291454378336 L457.7060386904618,396.0050932420688 M457.7060386904618,396.0050932420688 L457.2668860110335,395.8186905344829 M457.2668860110335,395.8186905344829 L456.92220608528334,395.58077842229386 M456.92220608528334,395.58077842229386 L456.692022328547,395.3051910831419 M456.692022328547,395.3051910831419 L456.58970558335784,395.00795029977485 M456.58970558335784,395.00795029977485 L456.6211833138563,394.7063354617117 M456.6211833138563,394.7063354617117 L456.7846192904399,394.41787173268557 M456.7846192904399,394.41787173268557 L457.0704949193765,394.15932111543975 M457.0704949193765,394.15932111543975 L457.46219245774205,393.9457008566783 M457.46219245774205,393.9457008566783 L457.9369460874955,393.7894184567124 M457.9369460874955,393.7894184567124 L458.4671745305226,393.69954728449443 M458.4671745305226,393.69954728449443 L459.0220712386978,393.6813098318504 M459.0220712386978,393.6813098318504 L459.56940748053756,393.7357604962585 M459.56940748053756,393.7357604962585 L460.07738483556716,393.85974023756717 M460.07738483556716,393.85974023756717 L460.5164926372623,394.04604811500025 M460.4040129942423,427.0406271114456 L459.96576026917455,426.85389106292524 M459.96576026917455,426.85389106292524 L459.4587707484082,426.72962638285514 M459.4587707484082,426.72962638285514 L458.9124977304505,426.67505057375433 M458.9124977304505,426.67505057375433 L458.3586778936778,426.69332994194554 M458.3586778936778,426.69332994194554 L457.82947745343995,426.783407664666 M457.82947745343995,426.783407664666 L457.35564325459114,426.94004923811815 M457.35564325459114,426.94004923811815 L456.96470317353374,427.1541604263756 M456.96470317353374,427.1541604263756 L456.6793790039799,427.4133051988417 M456.6793790039799,427.4133051988417 L456.5162564189528,427.70243178457764 M456.5162564189528,427.70243178457764 L456.48483573524436,428.0047396545178 M456.48483573524436,428.0047396545178 L456.58694982443495,428.30266337474393 M456.58694982443495,428.30266337474393 L456.8166829359962,428.57888386051957 M456.8166829359962,428.57888386051957 L457.1606903850204,428.8173425319875 M457.1606903850204,428.8173425319875 L457.59898781543257,429.0041734456666 M457.59898781543257,429.0041734456666 L458.1060955361967,429.12851060568215 M458.1060955361967,429.12851060568215 L458.6525347302001,429.18312075163465 M458.6525347302001,429.18312075163465 L459.20653064905736,429.164829712571 M459.20653064905736,429.164829712571 L459.7358767401977,429.0746969822119 M459.7358767401977,429.0746969822119 L460.2097927911504,428.91796966845055 M460.2097927911504,428.91796966845055 L460.6007321745595,428.7037616481885 M460.6007321745595,428.7037616481885 L460.8859732565398,428.4445311354424 M460.8859732565398,428.4445311354424 L461.04894939804376,428.1553495428308 M461.04894939804376,428.1553495428308 L461.08019383149536,427.85303000113504 M461.08019383149536,427.85303000113504 L460.97791406103795,427.55514061801557 M460.97791406103795,427.55514061801557 L460.74806379386973,427.27899261191874 M460.74806379386973,427.27899261191874 L460.4040129942423,427.0406271114456 M462.95272468099074,392.71709702610246 L463.8146126158468,393.3114670592246 M463.8146126158468,393.3114670592246 L464.39058411173573,394.00011889045453 M464.39058411173573,394.00011889045453 L464.6471059172476,394.7430702653924 M464.6471059172476,394.7430702653924 L464.5691787210796,395.49715967707925 M464.5691787210796,395.49715967707925 L464.16123827426793,396.21855790622993 M464.16123827426793,396.21855790622993 L463.44691347849925,396.8653107703698 M463.44691347849925,396.8653107703698 L462.4676727686961,397.39978501682896 M462.4676727686961,397.39978501682896 L461.2804268395655,397.79086653755064 M461.2804268395655,397.79086653755064 L459.95421898762504,398.01578174104196 M459.95421898762504,398.01578174104196 L458.5662013675106,398.06143023984214 M458.5662013675106,398.06143023984214 L457.19713151169447,397.9251520857491 M457.19713151169447,397.9251520857491 L455.9266681258602,397.6148869086905 M455.9266681258602,397.6148869086905 L454.82870756025983,397.14870337764523 M454.82870756025983,397.14870337764523 L453.9670833936786,396.5537467831591 M453.9670833936786,396.5537467831591 L453.39184540548314,395.86464126733205 M453.39184540548314,395.86464126733205 L453.13636469792675,395.1214762063731 M453.13636469792675,395.1214762063731 L453.21539696965795,394.3674592950575 M453.21539696965795,394.3674592950575 L453.6242562564395,393.6464047371799 M453.6242562564395,393.6464047371799 L454.3391023809339,393.00018756235454 M454.3391023809339,393.00018756235454 L455.31834747660906,392.4663183032901 M455.31834747660906,392.4663183032901 L456.50507984394505,392.07577247186066 M456.50507984394505,392.07577247186066 L457.83037383866366,391.8512009400231 M457.83037383866366,391.8512009400231 L459.2172874403379,391.8056257868975 M459.2172874403379,391.8056257868975 L460.58531308762866,391.9416885644444 M460.58531308762866,391.9416885644444 L461.8550364001816,392.25150174744664 M461.8550364001816,392.25150174744664 L462.95272468099074,392.71709702610246 M462.96650105070535,388.83871367991344 L463.8285867077047,389.43292245637934 M463.8285867077047,389.43292245637934 L464.40469088103316,390.1213874776061 M464.40469088103316,390.1213874776061 L464.6612725806366,390.8641373439877 M464.6612725806366,390.8641373439877 L464.58332897332906,391.6180222593368 M464.58332897332906,391.6180222593368 L464.17529672106235,392.3392248887097 M464.17529672106235,392.3392248887097 L463.4608100248605,392.98580241839 M463.4608100248605,392.98580241839 L462.481346708036,393.5201317876234 M462.481346708036,393.5201317876234 L461.2938304023896,393.91110731048997 M461.2938304023896,393.91110731048997 L459.96732013792655,394.13596155754 M459.96732013792655,394.13596155754 L458.5789856799564,394.1815976850623 M458.5789856799564,394.1815976850623 L457.20960301676473,394.0453564643078 M457.20960301676473,394.0453564643078 L455.938849074975,393.73517537764053 M455.938849074975,393.73517537764053 L454.84063711950733,393.26911820577766 M454.84063711950733,393.26911820577766 L453.9788153498687,392.6743228929925 M453.9788153498687,392.6743228929925 L453.40344501869436,391.985404206882 M453.40344501869436,391.985404206882 L453.1479048916099,391.2424406634801 M453.1479048916099,391.2424406634801 L453.2269540792591,390.4886282454793 M453.2269540792591,390.4886282454793 L453.635905591526,389.7677692725927 M453.635905591526,389.7677692725927 L454.3509138553332,389.1217274091782 M454.3509138553332,389.1217274091782 L455.3303815610333,388.5880030013092 M455.3303815610333,388.5880030013092 L456.5173840713247,388.1975631446863 M456.5173840713247,388.1975631446863 L457.8429800619481,387.9730525545031 M457.8429800619481,387.9730525545031 L459.23020999742346,387.9274897694033 M459.23020999742346,387.9274897694033 L460.59854797539606,388.0635156230713 M460.59854797539606,388.0635156230713 L461.8685615049473,388.37324473493675 M461.8685615049473,388.37324473493675 L462.96650105070535,388.83871367991344 M462.96650105070535,388.83871367991344 L462.95272468099074,392.71709702610246" stroke="black"  stroke-width="4"  fill="red"/>
<path d="M10.356943155068507,421.2201416087097 L-22.958075765663637,438.89803286633287 M-22.958075765663637,438.89803286633287 L-28.951480653275382,200.13775202580507 M4.845439196733821,182.75928847562312 L-28.951480653275382,200.13775202580507 M10.356943155068507,421.2201416087097 L4.845439196733821,182.75928847562312 M13.983267057002422,689.1519989671365 L21.779014323732667,693.6710244523505 M21.779014323732667,693.6710244523505 L20.92294805073857,656.1339547164896 M20.92294805073857,656.1339547164896 L47.5620797090823,671.5051757044296 M48.359913678615044,709.0793948746772 L47.5620797090823,671.5051757044296 M48.359913678615044,709.0793948746772 L187.59946788762298,789.7935422798496 M187.59946788762298,789.7935422798496 L187.11041194117013,752.0268789171548 M187.11041194117013,752.0268789171548 L214.3902184913262,767.7677799483399 M214.81818061596204,805.5716392711431 L214.3902184913262,767.7677799483399 M214.81818061596204,805.5716392711431 L284.13544315370063,845.7533518454004 M284.13544315370063,845.7533518454004 L282.45425149950256,610.9008083773722 M282.45425149950256,610.9008083773722 L315.39158714833616,629.4505283584499 M315.39158714833616,629.4505283584499 L314.1332885954551,387.5330186189152 M-28.951480653275382,200.13775202580507 L314.1332885954551,387.5330186189152 M-22.958075765663637,438.89803286633287 L8.57390970271041,456.65628469100517 M13.983267057002422,689.1519989671365 L8.57390970271041,456.65628469100517 M348.7330618848856,610.9008083773722 L315.7947916940036,592.4368781347019 M317.00657986677663,827.0117577887261 L315.7947916940036,592.4368781347019 M317.00657986677663,827.0117577887261 L247.68627067010542,787.012629980721 M247.68627067010542,787.012629980721 L247.33402958349973,749.2525368081318 M247.33402958349973,749.2525368081318 L220.05259307771462,733.5830805862175 M220.46593905817628,771.3059844717868 L220.05259307771462,733.5830805862175 M220.46593905817628,771.3059844717868 L81.2143758639512,690.9552021654414 M81.2143758639512,690.9552021654414 L80.4921702480242,653.4246939346217 M80.4921702480242,653.4246939346217 L53.85001691570017,638.1224185133894 M54.63047511966545,675.6157892887737 L53.85001691570017,638.1224185133894 M54.63047511966545,675.6157892887737 L46.833804492659965,671.1169630645322 M46.833804492659965,671.1169630645322 L41.89297227410998,438.8980293183681 M41.89297227410998,438.8980293183681 L10.356943155068507,421.2201416087097 M347.9578074936995,369.2849870898848 L4.845439196733821,182.75928847562312 M348.7330618848856,610.9008083773722 L347.9578074936995,369.2849870898848 M13.983267057002422,689.1519989671365 L46.833804492659965,671.1169630645322 M8.57390970271041,456.65628469100517 L41.89297227410998,438.8980293183681 M54.63047511966545,675.6157892887737 L21.779014323732667,693.6710244523505 M53.85001691570017,638.1224185133894 L20.92294805073857,656.1339547164896 M48.359913678615044,709.0793948746772 L81.2143758639512,690.9552021654414 M47.5620797090823,671.5051757044296 L80.4921702480242,653.4246939346217 M220.46593905817628,771.3059844717868 L187.59946788762298,789.7935422798496 M220.05259307771462,733.5830805862175 L187.11041194117013,752.0268789171548 M214.81818061596204,805.5716392711431 L247.68627067010542,787.012629980721 M214.3902184913262,767.7677799483399 L247.33402958349973,749.2525368081318 M317.00657986677663,827.0117577887261 L284.13544315370063,845.7533518454004 M315.7947916940036,592.4368781347019 L282.45425149950256,610.9008083773722 M315.39158714833616,629.4505283584499 L348.7330618848856,610.9008083773722 M314.1332885954551,387.5330186189152 L347.9578074936995,369.2849870898848" stroke="black"  stroke-width="4"  fill="red"/></svg>