<svg viewBox="0 0 800 800" xmlns="http://www.w3.org/2000/svg"><path d="M554.5983972646166,576.0542985665868 L554.5984046074011,576.0541649599563 M554.5972769111177,576.055030190006 L554.5972842538902,576.0548965833684 M554.5983972646166,576.0542985665868 L554.5972769111177,576.055030190006 M554.5984046074011,576.0541649599563 L554.5972842538902,576.0548965833684 M543.3816349316967,583.3791706001582 L543.3816421506989,583.3790369222542 M554.5972769111177,576.055030190006 L543.3816349316967,583.3791706001582 M554.5972842538902,576.0548965833684 L543.3816421506989,583.3790369222542 M-79.21713634823487,223.12110902410927 L-79.21713647345689,223.1209790933931 M543.3816349316967,583.3791706001582 L-79.21713634823487,223.12110902410927 M543.3816421506989,583.3790369222542 L-79.21713647345689,223.1209790933931 M-67.95854669724469,216.62095925841453 L-67.95854669723218,216.6208293998419 M-79.21713634823487,223.12110902410927 L-67.95854669724469,216.62095925841453 M-79.21713647345689,223.1209790933931 L-67.95854669723218,216.6208293998419 M-47.342477860465976,228.52364950591823 L-47.34247763091952,228.5235195153628 M-67.95854669724469,216.62095925841453 L-47.342477860465976,228.52364950591823 M-67.95854669723218,216.6208293998419 L-47.34247763091952,228.5235195153628 M-46.49044072623457,229.01687460550278 L-46.490440487181615,229.01674460948988 M-47.342477860465976,228.52364950591823 L-47.058730623923225,228.68819393888526 M-47.058730623923225,228.68819393888526 L-46.77471752832457,228.8526027279015 M-46.77471752832457,228.8526027279015 L-46.49044072623457,229.01687460550278 M-47.34247763091952,228.5235195153628 L-47.0587303912111,228.68806394650915 M-47.0587303912111,228.68806394650915 L-46.77471729244348,228.85247273370618 M-46.77471729244348,228.85247273370618 L-46.490440487181615,229.01674460948988 M410.3256212018588,295.9080695651774 L410.3256265882437,295.9079388375898 M-46.49044072623457,229.01687460550278 L-34.313707987360715,235.79179786717356 M-34.313707987360715,235.79179786717356 L-21.684840618412522,242.31634232124185 M-21.684840618412522,242.31634232124185 L-8.621450081984904,248.57979236662976 M-8.621450081984904,248.57979236662976 L4.858018710065437,254.57180074929784 M4.858018710065437,254.57180074929784 L18.734313654231187,260.2824127268671 M18.734313654231187,260.2824127268671 L32.98739150492872,265.7020820238116 M32.98739150492872,265.7020820238116 L47.596483149133746,270.821714695875 M47.596483149133746,270.821714695875 L62.54009631853921,275.63266940469487 M62.54009631853921,275.63266940469487 L77.79605051506553,280.1267850913813 M77.79605051506553,280.1267850913813 L93.34156159376789,284.29642116723255 M93.34156159376789,284.29642116723255 L109.15321045272697,288.1344333184888 M109.15321045272697,288.1344333184888 L125.20707668025364,291.634257685441 M125.20707668025364,291.634257685441 L141.47869086660432,294.7898556312383 M141.47869086660432,294.7898556312383 L157.9431591012284,297.59578336428 M157.9431591012284,297.59578336428 L174.57514626955572,300.0471802275317 M174.57514626955572,300.0471802275317 L191.34900525306966,302.13979426681016 M191.34900525306966,302.13979426681016 L208.23876517543147,303.86998784003293 M208.23876517543147,303.86998784003293 L225.21820160790435,305.23475630749476 M225.21820160790435,305.23475630749476 L242.26087920203622,306.2316998034825 M242.26087920203622,306.2316998034825 L259.34025166058166,306.85908587469476 M259.34025166058166,306.85908587469476 L276.4296707040372,307.1158192076442 M276.4296707040372,307.1158192076442 L293.5024585040703,307.0014562199266 M293.5024585040703,307.0014562199266 L310.5319694717757,306.5161828233637 M310.5319694717757,306.5161828233637 L327.4916612432703,305.66087027467955 M327.4916612432703,305.66087027467955 L344.355086810585,304.4369869353756 M344.355086810585,304.4369869353756 L361.0960193599658,302.84668259932465 M361.0960193599658,302.84668259932465 L377.68847946059657,300.8927185781968 M377.68847946059657,300.8927185781968 L394.10678668187984,298.5785090457577 M394.10678668187984,298.5785090457577 L410.3256212018588,295.9080695651774 M-46.490440487181615,229.01674460948988 L-34.313707612290216,235.79166779629043 M-34.313707612290216,235.79166779629043 L-21.684840101986936,242.3162121784203 M-21.684840101986936,242.3162121784203 L-8.621449419065584,248.57966215490097 M-8.621449419065584,248.57966215490097 L4.858019524405336,254.57167047178763 M4.858019524405336,254.57167047178763 L18.73431462469472,260.28228238679174 M18.73431462469472,260.28228238679174 L32.987392635983326,265.70195162447357 M32.987392635983326,265.70195162447357 L47.59648444499976,270.82158424065756 M47.59648444499976,270.82158424065756 L62.540097783179135,275.63253889705794 M62.540097783179135,275.63253889705794 L77.79605215217339,280.1266545348565 M77.79605215217339,280.1266545348565 L93.34156340675952,284.29629056541853 M93.34156340675952,284.29629056541853 L109.1532124447308,288.13430267504594 M109.1532124447308,288.13430267504594 L125.20707885410206,291.63412700408634 M125.20707885410206,291.63412700408634 L141.47869322482597,294.78972491574046 M141.47869322482597,294.78972491574046 L157.94316164604095,297.59565261845427 M157.94316164604095,297.59565261845427 L174.57514900285923,300.0470494552345 M174.57514900285923,300.0470494552345 L191.34900817644188,302.1396634719339 M191.34900817644188,302.1396634719339 L208.23876829012272,303.86985702650065 M208.23876829012272,303.86985702650065 L225.21820491483345,305.23462547925476 M225.21820491483345,305.23462547925476 L242.2608827017881,306.2315689645032 M242.2608827017881,306.2315689645032 L259.3402553534049,306.858955028959 M259.3402553534049,306.858955028959 L276.4296745898432,307.1156883591441 M276.4296745898432,307.1156883591441 L293.50246258243294,307.00132537265785 M293.50246258243294,307.00132537265785 L310.53197374193235,306.5160519813205 M310.53197374193235,306.5160519813205 L327.49166570412365,305.6607394418488 M327.49166570412365,305.6607394418488 L344.3550914607051,304.43685611573216 M344.3550914607051,304.43685611573216 L361.09602419759415,302.8465517968249 M361.09602419759415,302.8465517968249 L377.68848448365054,300.8925877967743 M377.68848448365054,300.8925877967743 L394.1067918879568,298.5783782893172 M394.1067918879568,298.5783782893172 L410.3256265882437,295.9079388375898 M411.62991971432564,295.4395987188876 L411.62992511497225,295.43946799636433 M410.3256212018588,295.9080695651774 L410.283895315227,295.7964892089632 M410.283895315227,295.7964892089632 L410.28843213068023,295.68359000434936 M410.28843213068023,295.68359000434936 L410.3389864631921,295.5758446377524 M410.3389864631921,295.5758446377524 L410.43257737912415,295.4794399266792 M410.43257737912415,295.4794399266792 L410.5638997856429,295.39998192679576 M410.5638997856429,295.39998192679576 L410.72531847870164,295.3419874811264 M410.72531847870164,295.3419874811264 L410.9076135423942,295.30885412271516 M410.9076135423942,295.30885412271516 L411.1001889687916,295.30243305099464 M411.1001889687916,295.30243305099464 L411.2920194208783,295.32313113556614 M411.2920194208783,295.32313113556614 L411.47205372859867,295.36974814793354 M411.47205372859867,295.36974814793354 L411.62991971432564,295.4395987188876 M410.3256265882437,295.9079388375898 L410.2839007010408,295.7963584825817 M410.2839007010408,295.7963584825817 L410.2884375164425,295.68345927918836 M410.2884375164425,295.68345927918836 L410.3389918494255,295.5757139137562 M410.3389918494255,295.5757139137562 L410.4325827663239,295.4793092037253 M410.4325827663239,295.4793092037253 L410.56390517424927,295.39985120470084 M410.56390517424927,295.39985120470084 L410.7253238690728,295.3418567596585 M410.7253238690728,295.3418567596585 L410.90761893478816,295.3087234016055 M410.90761893478816,295.3087234016055 L411.100194363348,295.30230232995433 M411.100194363348,295.30230232995433 L411.29202481761376,295.3230004143021 M411.29202481761376,295.3230004143021 L411.472059127404,295.36961742616546 M411.472059127404,295.36961742616546 L411.62992511497225,295.43946799636433 M411.84835201754413,295.63809771653655 L411.8483574208318,295.6379669918673 M411.62991971432564,295.4395987188876 L411.72062132918916,295.4989180455795 M411.72062132918916,295.4989180455795 L411.7941022638636,295.56569823251476 M411.7941022638636,295.56569823251476 L411.84835201754413,295.63809771653655 M411.62992511497225,295.43946799636433 L411.7206267309115,295.49878732241496 M411.7206267309115,295.49878732241496 L411.79410766647425,295.5655675086282 M411.79410766647425,295.5655675086282 L411.8483574208318,295.6379669918673 M879.217125683723,364.0688276440171 L879.217136473457,364.0686961884728 M411.84835201754413,295.63809771653655 L428.0511505324638,292.97030724495835 M428.0511505324638,292.97030724495835 L444.4278889622781,290.6622780720775 M444.4278889622781,290.6622780720775 L460.9588744037676,288.71634954356966 M460.9588744037676,288.71634954356966 L477.6242768428382,287.1344576796299 M477.6242768428382,287.1344576796299 L494.40418771679754,285.91822066294907 M494.40418771679754,285.91822066294907 L511.2785900335389,285.0688205220304 M511.2785900335389,285.0688205220304 L528.2274200567098,284.58712757529145 M528.2274200567098,284.58712757529145 L545.2305402837304,284.4736211412403 M545.2305402837304,284.4736211412403 L562.2678095122119,284.728421039717 M562.2678095122119,284.728421039717 L579.3190099715107,285.351277707881 M579.3190099715107,285.351277707881 L596.3638598496959,286.34155135079914 M596.3638598496959,286.34155135079914 L613.3821366675263,287.69825111738265 M613.3821366675263,287.69825111738265 L630.3536044873399,289.4200227846488 M630.3536044873399,289.4200227846488 L647.2580105115699,291.5051356220291 M647.2580105115699,291.5051356220291 L664.0751723992921,293.95149892642934 M664.0751723992921,293.95149892642934 L680.7848686417149,296.7566269601601 M680.7848686417149,296.7566269601601 L697.3670549031976,299.9177048461165 M697.3670549031976,299.9177048461165 L713.801627120899,303.4315010957762 M713.801627120899,303.4315010957762 L730.0686873387831,307.2944014253258 M730.0686873387831,307.2944014253258 L746.148259367696,311.50248302842107 M746.148259367696,311.50248302842107 L762.0206426027501,316.05140441124973 M762.0206426027501,316.05140441124973 L777.6661610179749,320.9364578600087 M777.6661610179749,320.9364578600087 L793.0653583024903,326.1525601123712 M793.0653583024903,326.1525601123712 L808.1988828595411,331.6942629989659 M808.1988828595411,331.6942629989659 L823.0475011352046,337.5556811348973 M823.0475011352046,337.5556811348973 L837.5923208210218,343.73064581925564 M837.5923208210218,343.73064581925564 L851.8145465358336,350.2125287403743 M851.8145465358336,350.2125287403743 L865.6955591029159,356.9943539430028 M865.6955591029159,356.9943539430028 L879.217125683723,364.0688276440171 M411.8483574208318,295.6379669918673 L428.0511561157009,292.9701765491432 M428.0511561157009,292.9701765491432 L444.4278947276075,290.6621474012471 M444.4278947276075,290.6621474012471 L460.9588803531451,288.71621889382 M460.9588803531451,288.71621889382 L477.62428297803024,287.1343270470278 M477.62428297803024,287.1343270470278 L494.40419403938233,285.9180900435374 M494.40419403938233,285.9180900435374 L511.2785965449049,285.0686899118341 M511.2785965449049,285.0686899118341 L528.2274267580558,284.5869969703223 M528.2274267580558,284.5869969703223 L545.2305471760649,284.47349053750304 M545.2305471760649,284.47349053750304 L562.2678165963528,284.72829043321457 M562.2678165963528,284.72829043321457 L579.3190172480843,285.35114709462 M579.3190172480843,285.35114709462 L596.3638673191351,286.3414207267958 M596.3638673191351,286.3414207267958 L613.382144330071,287.69812047866793 M613.382144330071,287.69812047866793 L630.3536123430363,289.4198921272744 M630.3536123430363,289.4198921272744 L647.2580185602683,291.5050049420722 M647.2580185602683,291.5050049420722 L664.0751806406474,293.95136821999864 M664.0751806406474,293.95136821999864 L680.7848770751841,296.75649622340126 M680.7848770751841,296.75649622340126 L697.3670635280398,299.9175740752168 M697.3670635280398,299.9175740752168 L713.8016359361736,303.4313702869709 M713.8016359361736,303.4313702869709 L730.0686963433495,307.29427057490295 M730.0686963433495,307.29427057490295 L746.1482685602102,311.50235213272646 M746.1482685602102,311.50235213272646 L762.0206519816661,316.05127346669224 M762.0206519816661,316.05127346669224 L777.6661705815427,320.9363268630653 M777.6661705815427,320.9363268630653 L793.065368048754,326.152429059592 M793.065368048754,326.152429059592 L808.1988927863392,331.69413188697877 M808.1988927863392,331.69413188697877 L823.0475112401662,337.5555499604137 M823.0475112401662,337.5555499604137 L837.592331101569,343.73051457907354 M837.592331101569,343.73051457907354 L851.8145569891792,350.2123974313844 M851.8145569891792,350.2123974313844 L865.6955697260605,356.99422256219214 M865.6955697260605,356.99422256219214 L879.217136473457,364.0686961884728 M879.217125683723,364.0688276440171 L554.5983972646166,576.0542985665868 M879.217136473457,364.0686961884728 L554.5984046074011,576.0541649599563" stroke="black"  stroke-width="4"  fill="red"/></svg>