<svg viewBox="0 0 800 800" xmlns="http://www.w3.org/2000/svg"><path d="M-92.11126590238598,321.37986141399097 L-92.11126170511409,321.3796675725455 M892.1112505328629,302.1113321477378 L892.1112659023861,302.1111385102919 M-92.11126590238598,321.37986141399097 L-75.66318301172817,310.3788816707106 M-75.66318301172817,310.3788816707106 L-58.559682454881,299.7835126253466 M-58.559682454881,299.7835126253466 L-40.82450403753273,289.605547648757 M-40.82450403753273,289.605547648757 L-22.481935751322794,279.8562123838435 M-22.481935751322794,279.8562123838435 L-3.556736041020031,270.5461963127798 M-3.556736041020031,270.5461963127798 L15.925832467921623,261.68562494303444 M15.925832467921623,261.68562494303444 L35.94001555486466,253.2840338287773 M35.94001555486466,253.2840338287773 L56.45977496741159,245.35047245842907 M56.45977496741159,245.35047245842907 L77.45852347497146,237.89336184143463 M77.45852347497146,237.89336184143463 L98.90940057288572,230.9206159931715 M98.90940057288572,230.9206159931715 L120.78519427363585,224.43957018326762 M120.78519427363585,224.43957018326762 L143.05831194249527,218.45700278483872 M143.05831194249527,218.45700278483872 L165.7009693543812,212.97917857079108 M165.7009693543812,212.97917857079108 L188.68506211649697,208.01177123309623 M188.68506211649697,208.01177123309623 L211.9821954265044,203.55987515641038 M211.9821954265044,203.55987515641038 L235.5638098590464,199.62811310389668 M235.5638098590464,199.62811310389668 L259.40112207293873,196.22051121162605 M259.40112207293873,196.22051121162605 L283.4651532664068,193.34053749860664 M283.4651532664068,193.34053749860664 L307.7267303466001,190.99112419511346 M307.7267303466001,190.99112419511346 L332.1565887864017,189.174688888442 M332.1565887864017,189.174688888442 L356.7253133260733,187.89306521824892 M356.7253133260733,187.89306521824892 L381.4033935283601,187.14758135355152 M381.4033935283601,187.14758135355152 L406.16120828349335,186.9389288844451 M406.16120828349335,186.9389288844451 L430.96906833233174,187.2673728102099 M430.96906833233174,187.2673728102099 L455.797218216431,188.13254366292205 M455.797218216431,188.13254366292205 L480.6159275264133,189.53361536590398 M480.6159275264133,189.53361536590398 L505.3954433909355,191.46912471894797 M505.3954433909355,191.46912471894797 L530.1058716600553,193.93708732781653 M530.1058716600553,193.93708732781653 L554.7175883390232,196.93503810356503 M554.7175883390232,196.93503810356503 L579.2008129891067,200.45989173493484 M579.2008129891067,200.45989173493484 L603.5258537690993,204.50808523264084 M603.5258537690993,204.50808523264084 L627.6632088557585,209.0753611950173 M627.6632088557585,209.0753611950173 L651.5833792358126,214.1571175925028 M651.5833792358126,214.1571175925028 L675.2570592210559,219.74806929942673 M675.2570592210559,219.74806929942673 L698.6550236913454,225.8423565461709 M698.6550236913454,225.8423565461709 L721.7482312874422,232.43371332126412 M721.7482312874422,232.43371332126412 L744.5077627189071,239.51515453674642 M744.5077627189071,239.51515453674642 L766.9050454646322,247.07926279197943 M766.9050454646322,247.07926279197943 L788.9117076428852,255.11799358565486 M788.9117076428852,255.11799358565486 L810.4995765638121,263.6227805844551 M810.4995765638121,263.6227805844551 L831.6408599165354,272.58445930798985 M831.6408599165354,272.58445930798985 L852.3079427217126,281.9933717613202 M852.3079427217126,281.9933717613202 L872.4737225109591,291.8392585037881 M872.4737225109591,291.8392585037881 L892.1112505328629,302.1113321477378 M-92.11126170511409,321.3796675725455 L-75.66317863264828,310.37868794561734 M-75.66317863264828,310.37868794561734 L-58.559677886805275,299.7833190126106 M-58.559677886805275,299.7833190126106 L-40.82449927353707,289.6053541442245 M-40.82449927353707,289.6053541442245 L-22.48193078474776,279.8560189832083 M-22.48193078474776,279.8560189832083 L-3.5567308654725593,270.5460030115887 M-3.5567308654725593,270.5460030115887 L15.925837858565956,261.68543173669434 M15.925837858565956,261.68543173669434 L35.9400211664605,253.28384071256164 M35.9400211664605,253.28384071256164 L56.45978080554369,245.35027942748457 M56.45978080554369,245.35027942748457 L77.45852954495263,237.89316889078827 M77.45852954495263,237.89316889078827 L98.90940687975615,230.9204231177372 M98.90940687975615,230.9204231177372 L120.785200822163,224.43937737785416 M120.785200822163,224.43937737785416 L143.0583187371726,218.4568100441566 M143.0583187371726,218.4568100441566 L165.70097639942787,212.97898588945992 M165.70097639942787,212.97898588945992 L188.68506941585838,208.0115786056528 M188.68506941585838,208.0115786056528 L211.98220298384945,203.5596825773162 M211.98220298384945,203.5596825773162 L235.5638176777686,199.62792056754535 M235.5638176777686,199.62792056754535 L259.40113015615543,196.22031871235174 M259.40113015615543,196.22031871235174 L283.46516161695877,193.34034503069176 M283.46516161695877,193.34034503069176 L307.72673896704987,190.99093175279648 M307.72673896704987,190.99093175279648 L332.1565976790341,189.17449646592587 M332.1565976790341,189.17449646592587 L356.72532249289475,187.89287280970865 M356.72532249289475,187.89287280970865 L381.4034029710979,187.14738895314258 M381.4034029710979,187.14738895314258 L406.1612180035936,186.93873648631228 M406.1612180035936,186.93873648631228 L430.96907833095975,187.26718040849426 M430.96907833095975,187.26718040849426 L455.7972284944692,188.13235125177 M455.7972284944692,188.13235125177 L480.61593808446173,189.53342293947458 M480.61593808446173,189.53342293947458 L505.39545422930996,191.46893227142175 M505.39545422930996,191.46893227142175 L530.1058827787842,193.9368948534041 M530.1058827787842,193.9368948534041 L554.7175997378499,196.9348455965138 M554.7175997378499,196.9348455965138 L579.2008246674848,200.4596991895379 M579.2008246674848,200.4596991895379 L603.525865726192,204.50789264324453 M603.525865726192,204.50789264324453 L627.6632210904386,209.0751685560304 M627.6632210904386,209.0751685560304 L651.5833917466596,214.15692489840245 M651.5833917466596,214.15692489840245 L675.257072006355,219.7478765447675 M675.257072006355,219.7478765447675 L698.655036749085,225.84216372559263 M698.655036749085,225.84216372559263 L721.7482446153131,232.433520429498 M721.7482446153131,232.433520429498 L744.5077763142995,239.51496156862424 M744.5077763142995,239.51496156862424 L766.9050593246359,247.07906974243974 M766.9050593246359,247.07906974243974 L788.9117217642881,255.1178004497507 M788.9117217642881,255.1178004497507 L810.4995909430975,263.62258735736054 M810.4995909430975,263.62258735736054 L831.6408745498818,272.58426598500796 M831.6408745498818,272.58426598500796 L852.3079576049897,281.9931783378885 M852.3079576049897,281.9931783378885 L872.473737639732,291.8390649754858 M872.473737639732,291.8390649754858 L892.1112659023861,302.1111385102919 M413.0957421572159,613.0612635136877 L413.09575243510153,613.0610667010772 M892.1112505328629,302.1113321477378 L413.0957421572159,613.0612635136877 M892.1112659023861,302.1111385102919 L413.09575243510153,613.0610667010772 M413.0957421572159,613.0612635136877 L-92.11126590238598,321.37986141399097 M413.09575243510153,613.0610667010772 L-92.11126170511409,321.3796675725455" stroke="black"  stroke-width="4"  fill="red"/></svg>