<svg viewBox="0 0 800 800" xmlns="http://www.w3.org/2000/svg"><path d="M-225.08566451493152,20.0766564054054 L-242.40331318172366,29.474246350346846 M-242.4033128044507,25.553510332249346 L-242.40331318172366,29.474246350346846 M-242.4033128044507,25.553510332249346 L-242.40341032428557,25.534662414444142 M-242.40341032428557,25.534662414444142 L-242.40346883731036,25.515793036043135 M-242.40346883731036,25.515793036043135 L-242.40348834196163,25.4969085832995 M-225.04825382120998,16.12402584680325 L-242.40348834196163,25.4969085832995 M-225.08566451493152,20.0766564054054 L-225.04825382120998,16.12402584680325 M1049.8077963243272,730.704972497105 L1038.5029503730543,724.5702896445339 M1028.6337637587671,784.9037537041472 L1038.5029503730543,724.5702896445339 M1028.6337637587671,784.9037537041472 L453.9091097365856,459.5478780230678 M451.13951294010167,463.7333801688437 L453.9091097365856,459.5478780230678 M307.48558043710193,382.0382013881897 L451.13951294010167,463.7333801688437 M310.5216148654148,378.37515708786054 L307.48558043710193,382.0382013881897 M310.5216148654148,378.37515708786054 L-120.25731165339403,134.50802196218865 M-123.7246374950123,136.8113897568881 L-120.25731165339403,134.50802196218865 M-204.05390836950528,91.12858782402589 L-123.7246374950123,136.8113897568881 M-200.56738002399948,89.04389851131396 L-204.05390836950528,91.12858782402589 M-200.56738002399948,89.04389851131396 L-271.42625898839174,48.93016325758032 M-239.0592195767706,31.28895075093078 L-271.42625898839174,48.93016325758032 M-239.0592195767706,31.28895075093078 L-242.40331318172366,29.474246350346846 M1054.7328405317367,699.0411848955886 L-225.08566451493152,20.0766564054054 M1049.8077963243272,730.704972497105 L1054.7328405317367,699.0411848955886 M-231.85199990938816,25.550667581134917 L-231.89903744403944,25.530870872014987 M-231.89903744403944,25.530870872014987 L-231.95340186485475,25.51769732652923 M-231.95340186485475,25.51769732652923 L-232.01193359811998,25.5119113782564 M-232.01193359811998,25.5119113782564 L-232.07123344620413,25.513849416338758 M-232.07123344620413,25.513849416338758 L-232.12785593170577,25.523398685127177 M-232.12785593170577,25.523398685127177 L-232.17851255921232,25.54000497545934 M-232.17851255921232,25.54000497545934 L-232.22025940614787,25.562703637812604 M-232.22025940614787,25.562703637812604 L-232.25067076367338,25.59017664547656 M-232.25067076367338,25.59017664547656 L-232.26797786421957,25.6208277700282 M-232.26797786421957,25.6208277700282 L-232.27117401617852,25.652876648264396 M-232.27117401617852,25.652876648264396 L-232.26007143595075,25.68446038957444 M-232.26007143595075,25.68446038957444 L-232.23531466147142,25.713743656475174 M-232.23531466147142,25.713743656475174 L-232.19834046344351,25.73902330455502 M-232.19834046344351,25.73902330455502 L-232.15129808606798,25.75883007548748 M-232.15129808606798,25.75883007548748 L-232.0969209602489,25.772011308370168 M-232.0969209602489,25.772011308370168 L-232.03837140328665,25.777800898654448 M-232.03837140328665,25.777800898654448 L-231.9790526956648,25.775861622599848 M-231.9790526956648,25.775861622599848 L-231.92241463552818,25.76630651959954 M-231.92241463552818,25.76630651959954 L-231.87174928607237,25.74969113522161 M-231.87174928607237,25.74969113522161 L-231.83000256807202,25.72698220250112 M-231.83000256807202,25.72698220250112 L-231.79960016082998,25.699500100852617 M-231.79960016082998,25.699500100852617 L-231.78230878140448,25.66884314211211 M-231.78230878140448,25.66884314211211 L-231.77913152006545,25.63679302593249 M-231.77913152006545,25.63679302593249 L-231.79025183254714,25.605212926538343 M-231.79025183254714,25.605212926538343 L-231.81502111901239,25.575937347165166 M-231.81502111901239,25.575937347165166 L-231.85199990938816,25.550667581134917 M1046.7367178657146,711.382948870249 L1046.5945171716405,711.3166153720026 M1046.5945171716405,711.3166153720026 L1046.4578074545784,711.272535737922 M1046.4578074545784,711.272535737922 L1046.3342915865355,711.2531394450511 M1046.3342915865355,711.2531394450511 L1046.2313921178336,711.2596881780662 M1046.2313921178336,711.2596881780662 L1046.1547964855047,711.2916463760789 M1046.1547964855047,711.2916463760789 L1046.109000637187,711.3471859905476 M1046.109000637187,711.3471859905476 L1046.0968436854423,711.4231772171004 M1046.0968436854423,711.4231772171004 L1046.1190366028593,711.515209982967 M1046.1190366028593,711.515209982967 L1046.1741204682098,711.6178448723301 M1046.1741204682098,711.6178448723301 L1046.258854301812,711.7250963915512 M1046.258854301812,711.7250963915512 L1046.3686079277736,711.830885616906 M1046.3686079277736,711.830885616906 L1046.4967547861945,711.9289293002503 M1046.4967547861945,711.9289293002503 L1046.6360834947843,712.0136499403659 M1046.6360834947843,712.0136499403659 L1046.7782080150541,712.0799675703511 M1046.7782080150541,712.0799675703511 L1046.9150000677282,712.1240942862037 M1046.9150000677282,712.1240942862037 L1047.038594523528,712.1435129268586 M1047.038594523528,712.1435129268586 L1047.1416941948107,712.1370335717174 M1047.1416941948107,712.1370335717174 L1047.2181682118055,712.104962603953 M1047.2181682118055,712.104962603953 L1047.2639462526806,712.0493673209064 M1047.2639462526806,712.0493673209064 L1047.2760495741832,711.9733131593775 M1047.2760495741832,711.9733131593775 L1047.2537795151773,711.8812246395996 M1047.2537795151773,711.8812246395996 L1047.198756323887,711.7786310055328 M1047.198756323887,711.7786310055328 L1047.1138093349396,711.6712949083828 M1047.1138093349396,711.6712949083828 L1047.0040151825294,711.5655280001065 M1047.0040151825294,711.5655280001065 L1046.875866238142,711.467531407784 M1046.875866238142,711.467531407784 L1046.7367178657146,711.382948870249 M-239.05200067270198,27.36354655178019 L-242.4033128044507,25.553510332249346 M-239.05200067270198,27.36354655178019 L-239.0592195767706,31.28895075093078 M-239.05207182398567,27.306877442353823 L-239.05208710744125,27.325784437196376 M-239.05208710744125,27.325784437196376 L-239.05206339374445,27.34467627163417 M-239.05206339374445,27.34467627163417 L-239.05200067270198,27.36354655178019 M-242.40348834196163,25.4969085832995 L-239.05207182398567,27.306877442353823 M1043.6535576872145,720.0459721792568 L1055.024842363543,726.1871578663245 M1055.024842363543,726.1871578663245 L1059.8611351427132,694.4916287182652 M1059.8611351427132,694.4916287182652 L-225.04825382120998,16.12402584680325 M-239.05207182398567,27.306877442353823 L-271.4911632169185,44.90285594464035 M-271.4911632169185,44.90285594464035 L-200.46939530230156,84.92003224587586 M-200.46939530230156,84.92003224587586 L-203.9638786172277,86.99993436421926 M-203.9638786172277,86.99993436421926 L-123.43172497289424,132.58356166954076 M-123.43172497289424,132.58356166954076 L-119.9565836184621,130.2849319697716 M-119.9565836184621,130.2849319697716 L312.238887264402,373.805233741302 M312.238887264402,373.805233741302 L309.1987442745799,377.465452674214 M309.1987442745799,377.465452674214 L453.4499267200804,459.1159716456549 M453.4499267200804,459.1159716456549 L456.2210481171012,454.9319035533259 M456.2210481171012,454.9319035533259 L1033.9477060608097,780.4516731069493 M1043.6535576872145,720.0459721792568 L1033.9477060608097,780.4516731069493 M-231.5688413466321,21.442695395480825 L-231.47618431928208,21.505685156224388 M-231.47618431928208,21.505685156224388 L-231.41410026078483,21.578666453068195 M-231.41410026078483,21.578666453068195 L-231.38620366758983,21.657402087012713 M-231.38620366758983,21.657402087012713 L-231.39412619702546,21.737318287461108 M-231.39412619702546,21.737318287461108 L-231.43741707114077,21.813769981782116 M-231.43741707114077,21.813769981782116 L-231.5135688785041,21.882310985077083 M-231.5135688785041,21.882310985077083 L-231.61816085892178,21.938953030347193 M-231.61816085892178,21.938953030347193 L-231.74511445225835,21.980398729940475 M-231.74511445225835,21.980398729940475 L-231.88704679213583,22.004234600428617 M-231.88704679213583,22.004234600428617 L-232.0357009664018,22.00907229799276 M-232.0357009664018,22.00907229799276 L-232.18242765349657,21.994629749156445 M-232.18242765349657,21.994629749156445 L-232.31869025849664,21.961748733197282 M-232.31869025849664,21.961748733197282 L-232.4365630661316,21.912344118818453 M-232.4365630661316,21.912344118818453 L-232.5291921499636,21.84929215203391 M-232.5291921499636,21.84929215203391 L-232.5911978378581,21.77626274129517 M-232.5911978378581,21.77626274129517 L-232.61898295447395,21.69750444560833 M-232.61898295447395,21.69750444560833 L-232.61094192874782,21.617595933978805 M-232.61094192874782,21.617595933978805 L-232.5675523685436,21.541180686579708 M-232.5675523685436,21.541180686579708 L-232.4913443769276,21.47269649404592 M-232.4913443769276,21.47269649404592 L-232.3867515853874,21.41611860871592 M-232.3867515853874,21.41611860871592 L-232.25985273988408,21.374729719881486 M-232.25985273988408,21.374729719881486 L-232.1180181645741,21.3509302963555 M-232.1180181645741,21.3509302963555 L-231.96948229107988,21.346100377193125 M-231.96948229107988,21.346100377193125 L-231.82286765582944,21.36052008476804 M-231.82286765582944,21.36052008476804 L-231.68668463568167,21.39335316595583 M-231.68668463568167,21.39335316595583 L-231.5688413466321,21.442695395480825 M1051.949607661996,706.3718688997542 L1052.2995164428278,706.5834180144075 M1052.2995164428278,706.5834180144075 L1052.6220777897763,706.8285968616365 M1052.6220777897763,706.8285968616365 L1052.8985638418562,707.0931919821662 M1052.8985638418562,707.0931919821662 L1053.1127533577255,707.3617691750412 M1053.1127533577255,707.3617691750412 L1053.252180658931,707.6187257790405 M1053.252180658931,707.6187257790405 L1053.3087932810731,707.8491601854814 M1053.3087932810731,707.8491601854814 L1053.279165086454,708.0396000813005 M1053.279165086454,708.0396000813005 L1053.1649889242467,708.1789437199866 M1053.1649889242467,708.1789437199866 L1052.9729849065475,708.2591133882365 M1052.9729849065475,708.2591133882365 L1052.7142280472542,708.2753798807482 M1052.7142280472542,708.2753798807482 L1052.4037672912816,708.2267828308534 M1052.4037672912816,708.2267828308534 L1052.059818852624,708.1162295685015 M1052.059818852624,708.1162295685015 L1051.702397081965,707.9501600290241 M1051.702397081965,707.9501600290241 L1051.3521106343105,707.7381500836184 M1051.3521106343105,707.7381500836184 L1051.0295613691967,707.4926753864477 M1051.0295613691967,707.4926753864477 L1050.753330086492,707.2279400851207 M1050.753330086492,707.2279400851207 L1050.5395796367254,706.9594105433473 M1050.5395796367254,706.9594105433473 L1050.4006750673313,706.7026784610186 M1050.4006750673313,706.7026784610186 L1050.3445492363285,706.4725940700337 M1050.3445492363285,706.4725940700337 L1050.374516620429,706.282549442342 M1050.374516620429,706.282549442342 L1050.4888066443662,706.143555747884 M1050.4888066443662,706.143555747884 L1050.6806733158126,706.0636106600558 M1050.6806733158126,706.0636106600558 L1050.9390728794688,706.0473918063993 M1050.9390728794688,706.0473918063993 L1051.2490382219198,706.0958486070272 M1051.2490382219198,706.0958486070272 L1051.592466854224,706.2061060518183 M1051.592466854224,706.2061060518183 L1051.949607661996,706.3718688997542 M1054.7328405317367,699.0411848955886 L1059.8611351427132,694.4916287182652 M1054.9503888605684,726.2513556060044 L1043.5800563070586,720.1102643137338 M1054.9503888605684,726.2513556060044 L1049.8077963243272,730.704972497105 M1043.5800563070586,720.1102643137338 L1038.5029503730543,724.5702896445339 M1043.5800563070586,720.1102643137338 L1043.6045471245816,720.0889033456438 M1043.6045471245816,720.0889033456438 L1043.6290503469793,720.0674702089036 M1043.6290503469793,720.0674702089036 L1043.6535576872145,720.0459721792568 M1028.6337637587671,784.9037537041472 L1033.9477060608097,780.4516731069493 M453.9091097365856,459.5478780230678 L456.2210481171012,454.9319035533259 M451.13951294010167,463.7333801688437 L453.4499267200804,459.1159716456549 M307.48558043710193,382.0382013881897 L309.1987442745799,377.465452674214 M310.5216148654148,378.37515708786054 L312.238887264402,373.805233741302 M-120.25731165339403,134.50802196218865 L-119.9565836184621,130.2849319697716 M-123.7246374950123,136.8113897568881 L-123.43172497289424,132.58356166954076 M-204.05390836950528,91.12858782402589 L-203.9638786172277,86.99993436421926 M-200.56738002399948,89.04389851131396 L-200.46939530230156,84.92003224587586 M-271.42625898839174,48.93016325758032 L-271.4911632169185,44.90285594464035 M1055.024842363543,726.1871578663245 L1055.0000181936114,726.2086250173111 M1055.0000181936114,726.2086250173111 L1054.9751975612478,726.2300266856573 M1054.9751975612478,726.2300266856573 L1054.9503888605684,726.2513556060044 M-231.85199990938816,25.550667581134917 L-231.83146757788404,22.00084144835455 M-231.83146757788404,22.00084144835455 L-231.79441619869715,22.026051656397215 M-231.79441619869715,22.026051656397215 L-231.76959797888185,22.055258240282797 M-231.76959797888185,22.055258240282797 L-231.75845523436146,22.086763917504697 M-231.75845523436146,22.086763917504697 L-231.76163787610608,22.11873850865237 M-231.76163787610608,22.11873850865237 L-231.77896214118027,22.14932322980502 M-231.77896214118027,22.14932322980502 L-231.8094230342881,22.176740578595627 M-231.8094230342881,22.176740578595627 L-231.8512504412198,22.199396007594203 M-231.8512504412198,22.199396007594203 L-231.90201399431317,22.215972246580804 M-231.90201399431317,22.215972246580804 L-231.95876206133607,22.225504838606923 M-231.95876206133607,22.225504838606923 L-232.0181961823962,22.227439545951654 M-232.0181961823962,22.227439545951654 L-232.07685984411057,22.221663595324117 M-232.07685984411057,22.221663595324117 L-232.13134313049704,22.208513416606138 M-232.13134313049704,22.208513416606138 L-232.17847754834952,22.188753310728544 M-232.17847754834952,22.188753310728544 L-232.21552431786517,22.163533224562627 M-232.21552431786517,22.163533224562627 L-232.24032997713562,22.134318956339314 M-232.24032997713562,22.134318956339314 L-232.25145492040542,22.102809638712756 M-232.25145492040542,22.102809638712756 L-232.2482533144114,22.07083628499481 M-232.2482533144114,22.07083628499481 L-232.23091326682277,22.040257395610183 M-232.23091326682277,22.040257395610183 L-232.2004433883376,22.01284913703057 M-232.2004433883376,22.01284913703057 L-232.15861585171638,21.9902039741375 M-232.15861585171638,21.9902039741375 L-232.10786105433067,21.973636825423227 M-232.10786105433067,21.973636825423227 L-232.05112862247938,21.964110065188038 M-232.05112862247938,21.964110065188038 L-231.99171343440457,21.962176595301685 M-231.99171343440457,21.962176595301685 L-231.933067665919,21.967948905429182 M-231.933067665919,21.967948905429182 L-231.87859713422438,21.98109139994 M-231.87859713422438,21.98109139994 L-231.83146757788404,22.00084144835455 M1046.7367178657146,711.382948870249 L1051.3340699062724,707.3231328900251 M1051.3340699062724,707.3231328900251 L1051.4739725633551,707.4077892292651 M1051.4739725633551,707.4077892292651 L1051.60287754629,707.505871369827 M1051.60287754629,707.505871369827 L1051.7133860382241,707.6117306604688 M1051.7133860382241,707.6117306604688 L1051.7989635769195,707.719160564578 M1051.7989635769195,707.719160564578 L1051.8544961379612,707.8218439117313 M1051.8544961379612,707.8218439117313 L1051.877126682359,707.9140130006999 M1051.877126682359,707.9140130006999 L1051.8652122838332,707.9901337329754 M1051.8652122838332,707.9901337329754 L1051.819440576735,708.0457776962401 M1051.819440576735,708.0457776962401 L1051.7427915715523,708.077876752549 M1051.7427915715523,708.077876752549 L1051.6393438109542,708.084361783059 M1051.6393438109542,708.084361783059 L1051.515249122201,708.0649261339056 M1051.515249122201,708.0649261339056 L1051.3778343839128,708.0207607747373 M1051.3778343839128,708.0207607747373 L1051.2350004921414,707.9543850853584 M1051.2350004921414,707.9543850853584 L1051.0949163018395,707.8695903046823 M1051.0949163018395,707.8695903046823 L1050.9660132756178,707.7714608638307 M1050.9660132756178,707.7714608638307 L1050.8555455314408,707.6655791569353 M1050.8555455314408,707.6655791569353 L1050.770182415839,707.5582339317518 M1050.770182415839,707.5582339317518 L1050.7145891353439,707.455509420827 M1050.7145891353439,707.455509420827 L1050.6920364545188,707.3633963335344 M1050.6920364545188,707.3633963335344 L1050.7040050592275,707.2873388159132 M1050.7040050592275,707.2873388159132 L1050.7497948714508,707.2317507686123 M1050.7497948714508,707.2317507686123 L1050.826566191816,707.1997647083335 M1050.826566191816,707.1997647083335 L1050.929812621186,707.1932102665012 M1050.929812621186,707.1932102665012 L1051.0538280921296,707.2126234685588 M1051.0538280921296,707.2126234685588 L1051.191159762251,707.2567415367275 M1051.191159762251,707.2567415367275 L1051.3340699062724,707.3231328900251 M-231.5688413466321,21.442695395480825 L-231.57131404354664,21.859963838772103 M-231.57131404354664,21.859963838772103 L-231.4786783534471,21.922971171747122 M-231.4786783534471,21.922971171747122 L-231.41660868742827,21.99597282540344 M-231.41660868742827,21.99597282540344 L-231.38871870252444,22.074730417913145 M-231.38871870252444,22.074730417913145 L-231.39663966747366,22.154668902655715 M-231.39663966747366,22.154668902655715 L-231.43992089072867,22.231141911889836 M-231.43992089072867,22.231141911889836 L-231.51605551785315,22.29970202182028 M-231.51605551785315,22.29970202182028 L-231.62062378487303,22.356359854779157 M-231.62062378487303,22.356359854779157 L-231.74754850976717,22.397817105295132 M-231.74754850976717,22.397817105295132 L-231.88944850603286,22.421659618412207 M-231.88944850603286,22.421659618412207 L-232.03806874501106,22.426498664117275 M-232.03806874501106,22.426498664117275 L-232.18476188194973,22.412052090478483 M-232.18476188194973,22.412052090478483 L-232.32099327607125,22.37916191091307 M-232.32099327607125,22.37916191091307 L-232.43883902904986,22.32974352684016 M-232.43883902904986,22.32974352684016 L-232.53144678817057,22.26667398470272 M-232.53144678817057,22.26667398470272 L-232.59343811926396,22.193624214701003 M-232.59343811926396,22.193624214701003 L-232.62121667837653,22.114843959324844 M-232.62121667837653,22.114843959324844 L-232.6131772712739,22.034913163779322 M-232.6131772712739,22.034913163779322 L-232.56979740708744,21.958476603307872 M-232.56979740708744,21.958476603307872 L-232.49360662152344,21.889973307007836 M-232.49360662152344,21.889973307007836 L-232.38903754393652,21.833379637229655 M-232.38903754393652,21.833379637229655 L-232.26216754204597,21.7919792003417 M-232.26216754204597,21.7919792003417 L-232.12036526582142,21.768173136027713 M-232.12036526582142,21.768173136027713 L-231.97186327361146,21.7633418691276 M-231.97186327361146,21.7633418691276 L-231.82528213733576,21.777765600330895 M-231.82528213733576,21.777765600330895 L-231.6891302915575,21.810607842724323 M-231.6891302915575,21.810607842724323 L-231.57131404354664,21.859963838772103 M1051.949607661996,706.3718688997542 L1051.4083175897504,706.850040224592 M1051.4083175897504,706.850040224592 L1051.7580040882845,707.0615679362547 M1051.7580040882845,707.0615679362547 L1052.0803424744913,707.3067219470199 M1052.0803424744913,707.3067219470199 L1052.3566178250683,707.571290226814 M1052.3566178250683,707.571290226814 L1052.5706212373293,707.8398401352858 M1052.5706212373293,707.8398401352858 L1052.7098978694198,708.0967705979431 M1052.7098978694198,708.0967705979431 L1052.7664039993979,708.3271815301086 M1052.7664039993979,708.3271815301086 L1052.736719781707,708.5176020036465 M1052.736719781707,708.5176020036465 L1052.622541357934,708.6569314184276 M1052.622541357934,708.6569314184276 L1052.4305889329362,708.7370928982455 M1052.4305889329362,708.7370928982455 L1052.171934577462,708.7533577288823 M1052.171934577462,708.7533577288823 L1051.8616212672846,708.704765643495 M1051.8616212672846,708.704765643495 L1051.5178565272302,708.5942236700041 M1051.5178565272302,708.5942236700041 L1051.1606439975133,708.4281710755458 M1051.1606439975133,708.4281710755458 L1050.8105802531009,708.2161827404852 M1050.8105802531009,708.2161827404852 L1050.488254044756,707.9707330335966 M1050.488254044756,707.9707330335966 L1050.2122333006912,707.7060246458884 M1050.2122333006912,707.7060246458884 L1049.998668570094,707.4375223637433 M1049.998668570094,707.4375223637433 L1049.859914151924,707.1808163060232 M1049.859914151924,707.1808163060232 L1049.8038942802445,706.9507552073328 M1049.8038942802445,706.9507552073328 L1049.8339172618316,706.7607297964144 M1049.8339172618316,706.7607297964144 L1049.948209326529,706.6217501439171 M1049.948209326529,706.6217501439171 L1050.1400244396166,706.5418131277571 M1050.1400244396166,706.5418131277571 L1050.3983217812952,706.5255959112069 M1050.3983217812952,706.5255959112069 L1050.7081401427533,706.5740478202458 M1050.7081401427533,706.5740478202458 L1051.0513856174744,706.6842941299778 M1051.0513856174744,706.6842941299778 L1051.4083175897504,706.850040224592" stroke="black"  stroke-width="4"  fill="red"/>
<path d="M1049.8077963243272,730.704972497105 L1039.3063048728877,798.2205075490097 M1049.8077963243272,730.704972497105 L1038.5029503730543,724.5702896445339 M1027.5491591447885,791.5342852822632 L1038.5029503730543,724.5702896445339 M1039.3063048728877,798.2205075490097 L1027.5491591447885,791.5342852822632 M1054.9503888605684,726.2513556060044 L1049.8077963243272,730.704972497105 M1066.8928036423658,702.0398747310687 L1067.037601971094,702.8995779146934 M1067.037601971094,702.8995779146934 L1067.0761605372022,703.8808328916778 M1067.0761605372022,703.8808328916778 L1067.0077748744768,704.9736130479362 M1067.0077748744768,704.9736130479362 L1066.8329021418958,706.166628136916 M1066.8329021418958,706.166628136916 L1066.5531405468116,707.447456332404 M1066.5531405468116,707.447456332404 L1066.171246405746,708.8026577591395 M1066.171246405746,708.8026577591395 L1065.6910980607852,710.2179313660092 M1065.6910980607852,710.2179313660092 L1065.1176563512038,711.6782752240931 M1065.1176563512038,711.6782752240931 L1064.4569550998583,713.1681220563951 M1064.4569550998583,713.1681220563951 L1063.71596149596,714.6715824007479 M1063.71596149596,714.6715824007479 L1062.9025693752476,716.1725655915332 M1062.9025693752476,716.1725655915332 L1062.025462297389,717.6550101986886 M1062.025462297389,717.6550101986886 L1061.0940263632294,719.1030582609428 M1061.0940263632294,719.1030582609428 L1060.1182697038364,720.5012171586568 M1060.1182697038364,720.5012171586568 L1059.108632474559,721.8346010058228 M1059.108632474559,721.8346010058228 L1058.0759493604762,723.0890291214246 M1058.0759493604762,723.0890291214246 L1057.0312618388045,724.2512397712121 M1057.0312618388045,724.2512397712121 L1055.985700709767,725.3090287613502 M1055.985700709767,725.3090287613502 L1054.9503888605684,726.2513556060044 M1066.8381499698455,701.8293480110108 L1066.806035883888,701.8730202740629 M1066.806035883888,701.8730202740629 L1066.777370478495,701.920275178899 M1066.777370478495,701.920275178899 L1066.753821647902,701.968365354077 M1066.753821647902,701.968365354077 L1066.7367640258058,702.0144907573267 M1066.7367640258058,702.0144907573267 L1066.7271873140298,702.0559726861585 M1066.7271873140298,702.0559726861585 L1066.7256445481871,702.0904054093007 M1066.7256445481871,702.0904054093007 L1066.7322338188135,702.1157795607197 M1066.7322338188135,702.1157795607197 L1066.7465529745652,702.1306387990993 M1066.7465529745652,702.1306387990993 L1066.7678005805635,702.1340914908933 M1066.7678005805635,702.1340914908933 L1066.7947174364472,702.12595701432 M1066.7947174364472,702.12595701432 L1066.8257507752057,702.1066979601022 M1066.8257507752057,702.1066979601022 L1066.859087999142,702.077440380451 M1066.859087999142,702.077440380451 L1066.8928036423658,702.0398747310687 M1078.6274571162523,677.84312418859 L1077.5858758452448,678.8185064883417 M1077.5858758452448,678.8185064883417 L1076.539734080218,679.8999665347546 M1076.539734080218,679.8999665347546 L1075.4995147266873,681.0764676303218 M1075.4995147266873,681.0764676303218 L1074.4755840101282,682.3361141480798 M1074.4755840101282,682.3361141480798 L1073.478145002366,683.6662179753854 M1073.478145002366,683.6662179753854 L1072.5170969959822,685.053459562599 M1072.5170969959822,685.053459562599 L1071.6019767247517,686.4839916169702 M1071.6019767247517,686.4839916169702 L1070.7418655306824,687.9435696643749 M1070.7418655306824,687.9435696643749 L1069.9453198451317,689.4176650831666 M1069.9453198451317,689.4176650831666 L1069.220279436582,690.8916179010062 M1069.220279436582,690.8916179010062 L1068.574008860782,692.3507475491169 M1068.574008860782,692.3507475491169 L1068.0130155707293,693.7805053733437 M1068.0130155707293,693.7805053733437 L1067.5430079949397,695.166584503782 M1067.5430079949397,695.166584503782 L1067.1688152377512,696.4950714695691 M1067.1688152377512,696.4950714695691 L1066.894369053672,697.7525515009912 M1066.894369053672,697.7525515009912 L1066.7226238065539,698.926267356257 M1066.7226238065539,698.926267356257 L1066.655540223622,700.0042235248457 M1066.655540223622,700.0042235248457 L1066.6940900713628,700.9752817084002 M1066.6940900713628,700.9752817084002 L1066.8381499698455,701.8293480110108 M1065.4613825946562,770.8145419120542 L1078.6274571162523,677.84312418859 M1052.7820952199036,781.2748569665057 L1065.4613825946562,770.8145419120542 M1051.7847034160088,787.9826663666934 L1052.7820952199036,781.2748569665057 M1039.3063048728877,798.2205075490097 L1051.7847034160088,787.9826663666934 M1054.9503888605684,726.2513556060044 L1043.5800563070586,720.1102643137338 M1043.5800563070586,720.1102643137338 L1038.5029503730543,724.5702896445339 M1027.5491591447885,791.5342852822632 L1039.8609007966202,781.2748409159599 M1040.9042226536592,774.6234253039565 L1039.8609007966202,781.2748409159599 M1040.9042226536592,774.6234253039565 L1053.4139064189624,764.1426716180952 M1067.2371189450243,671.935676986998 L1053.4139064189624,764.1426716180952 M1067.2371189450243,671.935676986998 L1066.2081183048738,672.9115345129005 M1066.2081183048738,672.9115345129005 L1065.173572055578,673.992534187129 M1065.173572055578,673.992534187129 L1064.143850063381,675.1676453798008 M1064.143850063381,675.1676453798008 L1063.1292169429519,676.4249871304592 M1063.1292169429519,676.4249871304592 L1062.139785848993,677.7518944411456 M1062.139785848993,677.7518944411456 L1061.1853791821793,679.1350791757326 M1061.1853791821793,679.1350791757326 L1060.2754699565146,680.5607334013552 M1060.2754699565146,680.5607334013552 L1059.4190895761778,682.0146596718138 M1059.4190895761778,682.0146596718138 L1058.6247586053526,683.4823837402981 M1058.6247586053526,683.4823837402981 L1057.900395386538,684.9493068750429 M1057.900395386538,684.9493068750429 L1057.2532575804169,686.4008162190667 M1057.2532575804169,686.4008162190667 L1056.6898604550975,687.8224367310003 M1056.6898604550975,687.8224367310003 L1056.2159347267304,689.1999405068516 M1056.2159347267304,689.1999405068516 L1055.8363464382169,690.519497802953 M1055.8363464382169,690.519497802953 L1055.5550782538298,691.7677815902123 M1055.5550782538298,691.7677815902123 L1055.3751495452134,692.9321256916782 M1055.3751495452134,692.9321256916782 L1055.298599465408,694.0006281990384 M1055.298599465408,694.0006281990384 L1055.326490594739,694.9622460352268 M1055.326490594739,694.9622460352268 L1055.4588031951077,695.8069813762528 M1055.510148658603,696.0150293526372 L1055.4767790174276,696.0525560389018 M1055.4767790174276,696.0525560389018 L1055.4438637335536,696.0818489634589 M1055.4438637335536,696.0818489634589 L1055.4133039070987,696.1012156343608 M1055.4133039070987,696.1012156343608 L1055.3868844902045,696.1095237218606 M1055.3868844902045,696.1095237218606 L1055.3661294875576,696.1063005532802 M1055.3661294875576,696.1063005532802 L1055.3522691516946,696.0917133679976 M1055.3522691516946,696.0917133679976 L1055.346078633902,696.0666380069435 M1055.346078633902,696.0666380069435 L1055.3479366864167,696.0325134373415 M1055.3479366864167,696.0325134373415 L1055.3577269959078,695.9913311167718 M1055.3577269959078,695.9913311167718 L1055.374884089563,695.9454793806482 M1055.374884089563,695.9454793806482 L1055.3984124688593,695.8976210336563 M1055.3984124688593,695.8976210336563 L1055.4269387644972,695.8505426571857 M1055.4269387644972,695.8505426571857 L1055.4588031951077,695.8069813762528 M1043.5800563070586,720.1102643137338 L1044.60262575583,719.1670972293653 M1044.60262575583,719.1670972293653 L1045.636382552764,718.109469920078 M1045.636382552764,718.109469920078 L1046.6703326105978,716.9484228881718 M1046.6703326105978,716.9484228881718 L1047.6934625845206,715.6961489351679 M1047.6934625845206,715.6961489351679 L1048.6948360222207,714.3658871182909 M1048.6948360222207,714.3658871182909 L1049.6637096324996,712.9717844185061 M1049.6637096324996,712.9717844185061 L1050.589719064531,711.5286823308959 M1050.589719064531,711.5286823308959 L1051.462916513583,710.0520190625045 M1051.462916513583,710.0520190625045 L1052.2739590017643,708.5575887408465 M1052.2739590017643,708.5575887408465 L1053.014188724509,707.0613804247691 M1053.014188724509,707.0613804247691 L1053.675720060171,705.5794048106288 M1053.675720060171,705.5794048106288 L1054.2515758282761,704.1274647949068 M1054.2515758282761,704.1274647949068 L1054.7356950582448,702.7210356706339 M1054.7356950582448,702.7210356706339 L1055.123072042936,701.3750230401341 M1055.123072042936,701.3750230401341 L1055.4097670201206,700.1036285446654 M1055.4097670201206,700.1036285446654 L1055.592946488369,698.9201907587019 M1055.592946488369,698.9201907587019 L1055.6709201328797,697.8370294868461 M1055.6709201328797,697.8370294868461 L1055.6431253269604,696.8653334671365 M1055.6431253269604,696.8653334671365 L1055.510148658603,696.0150293526372 M1039.8609007966202,781.2748409159599 L1051.7847034160088,787.9826663666934 M1066.8928036423658,702.0398747310687 L1055.510148658603,696.0150293526372 M1066.8381499698455,701.8293480110108 L1055.4588031951077,695.8069813762528 M1078.6274571162523,677.84312418859 L1067.2371189450243,671.935676986998 M1065.4613825946562,770.8145419120542 L1053.4139064189624,764.1426716180952 M1052.7820952199036,781.2748569665057 L1040.9042226536592,774.6234253039565" stroke="black"  stroke-width="4"  fill="red"/>
<path d="M1046.7367178657146,711.382948870249 L1051.3340699062724,707.3231328900251 M1051.3340699062724,707.3231328900251 L1051.4739725633551,707.4077892292651 M1051.4739725633551,707.4077892292651 L1051.60287754629,707.505871369827 M1051.60287754629,707.505871369827 L1051.7133860382241,707.6117306604688 M1051.7133860382241,707.6117306604688 L1051.7989635769195,707.719160564578 M1051.7989635769195,707.719160564578 L1051.8544961379612,707.8218439117313 M1051.8544961379612,707.8218439117313 L1051.877126682359,707.9140130006999 M1051.877126682359,707.9140130006999 L1051.8652122838332,707.9901337329754 M1051.8652122838332,707.9901337329754 L1051.819440576735,708.0457776962401 M1051.819440576735,708.0457776962401 L1051.7427915715523,708.077876752549 M1051.7427915715523,708.077876752549 L1051.6393438109542,708.084361783059 M1051.6393438109542,708.084361783059 L1051.515249122201,708.0649261339056 M1051.515249122201,708.0649261339056 L1051.3778343839128,708.0207607747373 M1051.3778343839128,708.0207607747373 L1051.2350004921414,707.9543850853584 M1051.2350004921414,707.9543850853584 L1051.0949163018395,707.8695903046823 M1051.0949163018395,707.8695903046823 L1050.9660132756178,707.7714608638307 M1050.9660132756178,707.7714608638307 L1050.8555455314408,707.6655791569353 M1050.8555455314408,707.6655791569353 L1050.770182415839,707.5582339317518 M1050.770182415839,707.5582339317518 L1050.7145891353439,707.455509420827 M1050.7145891353439,707.455509420827 L1050.6920364545188,707.3633963335344 M1050.6920364545188,707.3633963335344 L1050.7040050592275,707.2873388159132 M1050.7040050592275,707.2873388159132 L1050.7497948714508,707.2317507686123 M1050.7497948714508,707.2317507686123 L1050.826566191816,707.1997647083335 M1050.826566191816,707.1997647083335 L1050.929812621186,707.1932102665012 M1050.929812621186,707.1932102665012 L1051.0538280921296,707.2126234685588 M1051.0538280921296,707.2126234685588 L1051.191159762251,707.2567415367275 M1051.191159762251,707.2567415367275 L1051.3340699062724,707.3231328900251 M1046.7367178657146,711.382948870249 L1046.5945171716405,711.3166153720026 M1046.5945171716405,711.3166153720026 L1046.4578074545784,711.272535737922 M1046.4578074545784,711.272535737922 L1046.3342915865355,711.2531394450511 M1046.3342915865355,711.2531394450511 L1046.2313921178336,711.2596881780662 M1046.2313921178336,711.2596881780662 L1046.1547964855047,711.2916463760789 M1046.1547964855047,711.2916463760789 L1046.109000637187,711.3471859905476 M1046.109000637187,711.3471859905476 L1046.0968436854423,711.4231772171004 M1046.0968436854423,711.4231772171004 L1046.1190366028593,711.515209982967 M1046.1190366028593,711.515209982967 L1046.1741204682098,711.6178448723301 M1046.1741204682098,711.6178448723301 L1046.258854301812,711.7250963915512 M1046.258854301812,711.7250963915512 L1046.3686079277736,711.830885616906 M1046.3686079277736,711.830885616906 L1046.4967547861945,711.9289293002503 M1046.4967547861945,711.9289293002503 L1046.6360834947843,712.0136499403659 M1046.6360834947843,712.0136499403659 L1046.7782080150541,712.0799675703511 M1046.7782080150541,712.0799675703511 L1046.9150000677282,712.1240942862037 M1046.9150000677282,712.1240942862037 L1047.038594523528,712.1435129268586 M1047.038594523528,712.1435129268586 L1047.1416941948107,712.1370335717174 M1047.1416941948107,712.1370335717174 L1047.2181682118055,712.104962603953 M1047.2181682118055,712.104962603953 L1047.2639462526806,712.0493673209064 M1047.2639462526806,712.0493673209064 L1047.2760495741832,711.9733131593775 M1047.2760495741832,711.9733131593775 L1047.2537795151773,711.8812246395996 M1047.2537795151773,711.8812246395996 L1047.198756323887,711.7786310055328 M1047.198756323887,711.7786310055328 L1047.1138093349396,711.6712949083828 M1047.1138093349396,711.6712949083828 L1047.0040151825294,711.5655280001065 M1047.0040151825294,711.5655280001065 L1046.875866238142,711.467531407784 M1046.875866238142,711.467531407784 L1046.7367178657146,711.382948870249 M1051.4083175897504,706.850040224592 L1051.7580040882845,707.0615679362547 M1051.7580040882845,707.0615679362547 L1052.0803424744913,707.3067219470199 M1052.0803424744913,707.3067219470199 L1052.3566178250683,707.571290226814 M1052.3566178250683,707.571290226814 L1052.5706212373293,707.8398401352858 M1052.5706212373293,707.8398401352858 L1052.7098978694198,708.0967705979431 M1052.7098978694198,708.0967705979431 L1052.7664039993979,708.3271815301086 M1052.7664039993979,708.3271815301086 L1052.736719781707,708.5176020036465 M1052.736719781707,708.5176020036465 L1052.622541357934,708.6569314184276 M1052.622541357934,708.6569314184276 L1052.4305889329362,708.7370928982455 M1052.4305889329362,708.7370928982455 L1052.171934577462,708.7533577288823 M1052.171934577462,708.7533577288823 L1051.8616212672846,708.704765643495 M1051.8616212672846,708.704765643495 L1051.5178565272302,708.5942236700041 M1051.5178565272302,708.5942236700041 L1051.1606439975133,708.4281710755458 M1051.1606439975133,708.4281710755458 L1050.8105802531009,708.2161827404852 M1050.8105802531009,708.2161827404852 L1050.488254044756,707.9707330335966 M1050.488254044756,707.9707330335966 L1050.2122333006912,707.7060246458884 M1050.2122333006912,707.7060246458884 L1049.998668570094,707.4375223637433 M1049.998668570094,707.4375223637433 L1049.859914151924,707.1808163060232 M1049.859914151924,707.1808163060232 L1049.8038942802445,706.9507552073328 M1049.8038942802445,706.9507552073328 L1049.8339172618316,706.7607297964144 M1049.8339172618316,706.7607297964144 L1049.948209326529,706.6217501439171 M1049.948209326529,706.6217501439171 L1050.1400244396166,706.5418131277571 M1050.1400244396166,706.5418131277571 L1050.3983217812952,706.5255959112069 M1050.3983217812952,706.5255959112069 L1050.7081401427533,706.5740478202458 M1050.7081401427533,706.5740478202458 L1051.0513856174744,706.6842941299778 M1051.0513856174744,706.6842941299778 L1051.4083175897504,706.850040224592 M1051.949607661996,706.3718688997542 L1052.2995164428278,706.5834180144075 M1052.2995164428278,706.5834180144075 L1052.6220777897763,706.8285968616365 M1052.6220777897763,706.8285968616365 L1052.8985638418562,707.0931919821662 M1052.8985638418562,707.0931919821662 L1053.1127533577255,707.3617691750412 M1053.1127533577255,707.3617691750412 L1053.252180658931,707.6187257790405 M1053.252180658931,707.6187257790405 L1053.3087932810731,707.8491601854814 M1053.3087932810731,707.8491601854814 L1053.279165086454,708.0396000813005 M1053.279165086454,708.0396000813005 L1053.1649889242467,708.1789437199866 M1053.1649889242467,708.1789437199866 L1052.9729849065475,708.2591133882365 M1052.9729849065475,708.2591133882365 L1052.7142280472542,708.2753798807482 M1052.7142280472542,708.2753798807482 L1052.4037672912816,708.2267828308534 M1052.4037672912816,708.2267828308534 L1052.059818852624,708.1162295685015 M1052.059818852624,708.1162295685015 L1051.702397081965,707.9501600290241 M1051.702397081965,707.9501600290241 L1051.3521106343105,707.7381500836184 M1051.3521106343105,707.7381500836184 L1051.0295613691967,707.4926753864477 M1051.0295613691967,707.4926753864477 L1050.753330086492,707.2279400851207 M1050.753330086492,707.2279400851207 L1050.5395796367254,706.9594105433473 M1050.5395796367254,706.9594105433473 L1050.4006750673313,706.7026784610186 M1050.4006750673313,706.7026784610186 L1050.3445492363285,706.4725940700337 M1050.3445492363285,706.4725940700337 L1050.374516620429,706.282549442342 M1050.374516620429,706.282549442342 L1050.4888066443662,706.143555747884 M1050.4888066443662,706.143555747884 L1050.6806733158126,706.0636106600558 M1050.6806733158126,706.0636106600558 L1050.9390728794688,706.0473918063993 M1050.9390728794688,706.0473918063993 L1051.2490382219198,706.0958486070272 M1051.2490382219198,706.0958486070272 L1051.592466854224,706.2061060518183 M1051.592466854224,706.2061060518183 L1051.949607661996,706.3718688997542 M1051.949607661996,706.3718688997542 L1051.4083175897504,706.850040224592" stroke="black"  stroke-width="4"  fill="red"/>
<path d="M-239.0592195767706,31.28895075093078 L-274.91377169374584,50.83098439764103 M-239.0592195767706,31.28895075093078 L-242.40331318172366,29.474246350346846 M-278.256201213734,48.93016363736376 L-242.40331318172366,29.474246350346846 M-274.91377169374584,50.83098439764103 L-278.256201213734,48.93016363736376 M-274.91377169374584,50.83098439764103 L-275.0816035811888,41.54397831555906 M-275.0816035811888,41.54397831555906 L-271.57575081652556,39.65419547651783 M-271.57575081652556,39.65419547651783 L-271.7267906369618,30.28217477468894 M-271.7267906369618,30.28217477468894 L-221.5350168748928,3.5311719767429395 M-221.5350168748928,3.5311719767429395 L-221.57652223749164,4.33446604432811 M-221.57652223749164,4.33446604432811 L-221.68279435492536,5.163697399348052 M-221.68279435492536,5.163697399348052 L-221.8526856970334,6.0104300255930525 M-221.8526856970334,6.0104300255930525 L-222.0844200547258,6.866087079612669 M-222.0844200547258,6.866087079612669 L-222.3756077455921,7.721996846177888 M-222.3756077455921,7.721996846177888 L-222.72326963844262,8.56951351607836 M-222.72326963844262,8.56951351607836 L-223.12387111453177,9.400079329961159 M-223.12387111453177,9.400079329961159 L-223.57335514636316,10.205312170807758 M-223.57335514636316,10.205312170807758 L-224.0671780390112,10.977076012099587 M-224.0671780390112,10.977076012099587 L-224.60035884980357,11.707572329575044 M-224.60035884980357,11.707572329575044 L-225.16752116136172,12.38940295025867 M-225.16752116136172,12.38940295025867 L-225.76294890050508,13.01565446247406 M-225.76294890050508,13.01565446247406 L-226.3806375275061,13.579949612765063 M-226.3806375275061,13.579949612765063 L-227.01435061074596,14.076528570935977 M-227.01435061074596,14.076528570935977 L-227.65768135084522,14.500283263382812 M-227.65768135084522,14.500283263382812 L-228.30411353789032,14.846837495285797 M-228.30411353789032,14.846837495285797 L-228.94708265441022,15.1125774018887 M-228.94708265441022,15.1125774018887 L-229.5800423084271,15.294666707823012 M-229.5800423084271,15.294666707823012 L-230.19652695060688,15.391144040394124 M-230.19652695060688,15.391144040394124 L-230.20645243810532,15.418849282044846 M-230.20645243810532,15.418849282044846 L-230.22051785996916,15.445318336793662 M-230.22051785996916,15.445318336793662 L-230.23790602277722,15.469011245529714 M-230.23790602277722,15.469011245529714 L-230.2576061982595,15.488546230134261 M-230.2576061982595,15.488546230134261 L-230.27847357252938,15.502789221057753 M-230.27847357252938,15.502789221057753 L-230.2992964504349,15.510915604333036 M-230.2992964504349,15.510915604333036 L-230.31886396825894,15.51244668849779 M-230.31886396825894,15.51244668849779 L-230.33603994447958,15.50730870691234 M-230.33603994447958,15.50730870691234 L-230.34982541814554,15.495776948158039 M-230.34982541814554,15.495776948158039 L-230.35941870891088,15.478540147508397 M-230.35941870891088,15.478540147508397 L-230.3642624484005,15.456591433297149 M-230.3642624484005,15.456591433297149 L-230.36407468931657,15.431213069950502 M-230.36407468931657,15.431213069950502 L-230.35886683567298,15.403870855782088 M-230.35886683567298,15.403870855782088 L-230.97859342507093,15.501001873800249 M-230.97859342507093,15.501001873800249 L-231.61618549760078,15.684798039189332 M-231.61618549760078,15.684798039189332 L-232.2649930108438,15.95346601847939 M-232.2649930108438,15.95346601847939 L-232.918229947501,16.304300511708675 M-232.918229947501,16.304300511708675 L-233.5690433244713,16.733727829177724 M-233.5690433244713,16.733727829177724 L-234.2105901032429,17.237322596495403 M-234.2105901032429,17.237322596495403 L-234.83611154681773,17.809862748020294 M-234.83611154681773,17.809862748020294 L-235.43900723708794,18.445385716668227 M-235.43900723708794,18.445385716668227 L-236.01290943439585,19.137220618545427 M-236.01290943439585,19.137220618545427 L-236.5517541238869,19.878116527375596 M-236.5517541238869,19.878116527375596 L-237.0498476969624,20.660267235321385 M-237.0498476969624,20.660267235321385 L-237.5019319219124,21.47543288090037 M-237.5019319219124,21.47543288090037 L-237.90324125915163,22.315020274415303 M-237.90324125915163,22.315020274415303 L-238.24955679904122,23.170156165338312 M-238.24955679904122,23.170156165338312 L-238.5372516808377,24.031840179442156 M-238.5372516808377,24.031840179442156 L-238.76333063768516,24.89097978150113 M-238.76333063768516,24.89097978150113 L-238.92546155826517,25.73853662342242 M-238.92546155826517,25.73853662342242 L-239.02199919957457,26.565617299821042 M-239.02199919957457,26.565617299821042 L-239.05200067270198,27.36354655178019 M-239.05200067270198,27.36354655178019 L-239.0592195767706,31.28895075093078 M-239.05200067270198,27.36354655178019 L-242.4033128044507,25.553510332249346 M-242.4033128044507,25.553510332249346 L-242.40331318172366,29.474246350346846 M-242.4033128044507,25.553510332249346 L-242.37475005977262,24.756583597550843 M-242.37475005977262,24.756583597550843 L-242.27963820643527,23.93065603987401 M-242.27963820643527,23.93065603987401 L-242.1189052345269,23.084390735298882 M-242.1189052345269,23.084390735298882 L-241.89418173876993,22.226667373109933 M-241.89418173876993,22.226667373109933 L-241.6077855478161,21.366509179761692 M-241.6077855478161,21.366509179761692 L-241.26269815343232,20.512992328389885 M-241.26269815343232,20.512992328389885 L-240.8625333882784,19.675099837675987 M-240.8625333882784,19.675099837675987 L-240.4114979100409,18.861686737095397 M-240.4114979100409,18.861686737095397 L-239.9143460257119,18.081327409472408 M-239.9143460257119,18.081327409472408 L-239.37632584406015,17.342242521497326 M-239.37632584406015,17.342242521497326 L-238.80312206219696,16.65221890884095 M-238.80312206219696,16.65221890884095 L-238.20079116668353,16.018488219368464 M-238.20079116668353,16.018488219368464 L-237.57569474425168,15.44770230683946 M-237.57569474425168,15.44770230683946 L-236.9344286144717,14.945805239791127 M-236.9344286144717,14.945805239791127 L-236.28374846817064,14.51800128640798 M-236.28374846817064,14.51800128640798 L-235.63049589164666,14.168698918701693 M-235.63049589164666,14.168698918701693 L-234.98152404726204,13.90145600835001 M-234.98152404726204,13.90145600835001 L-234.34362072513773,13.718963265492562 M-234.34362072513773,13.718963265492562 L-233.72343935144863,13.623000821419794 M-233.72343935144863,13.623000821419794 L-233.7286019277376,13.650301349135077 M-233.7286019277376,13.650301349135077 L-233.72874289859647,13.675648906771471 M-233.72874289859647,13.675648906771471 L-233.7238535613801,13.69757947653568 M-233.7238535613801,13.69757947653568 L-233.71421852559274,13.714811855668472 M-233.71421852559274,13.714811855668472 L-233.70039756895198,13.726353162256032 M-233.70039756895198,13.726353162256032 L-233.68319446832083,13.731514126806701 M-233.68319446832083,13.731514126806701 L-233.66360971837742,13.730018094937634 M-233.66360971837742,13.730018094937634 L-233.64278052927375,13.72193681542683 M-233.64278052927375,13.72193681542683 L-233.62191812068818,13.707746349074966 M-233.62191812068818,13.707746349074966 L-233.60223390446208,13.688268262739825 M-233.60223390446208,13.688268262739825 L-233.58487176980884,13.664633321170811 M-233.58487176980884,13.664633321170811 L-233.57084092416324,13.63821992813638 M-233.57084092416324,13.63821992813638 L-233.56095654855255,13.610564807090384 M-224.91248627666118,1.779492450990233 L-224.95253956559918,2.5817445897728817 M-224.95253956559918,2.5817445897728817 L-225.05737933967976,3.409795558468545 M-225.05737933967976,3.409795558468545 L-225.2258726860489,4.255221244175914 M-225.2258726860489,4.255221244175914 L-225.45625756524953,5.109457870502808 M-225.45625756524953,5.109457870502808 L-225.7461579440194,5.963847885447137 M-225.7461579440194,5.963847885447137 L-226.09260761956,6.8097605684820905 M-226.09260761956,6.8097605684820905 L-226.49208410263566,7.63865405896081 M-226.49208410263566,7.63865405896081 L-226.94054157245046,8.442162804551515 M-226.94054157245046,8.442162804551515 L-227.4334465310394,9.212167881430616 M-227.4334465310394,9.212167881430616 L-227.9658271134092,9.940888229107145 M-227.9658271134092,9.940888229107145 L-228.53231479783335,10.62094336829432 M-228.53231479783335,10.62094336829432 L-229.12720013790727,11.245437628222646 M-229.12720013790727,11.245437628222646 L-229.7444839222568,11.80801140572919 M-229.7444839222568,11.80801140572919 L-230.37793367011727,12.30292224467081 M-230.37793367011727,12.30292224467081 L-231.02114516845518,12.725079028219739 M-231.02114516845518,12.725079028219739 L-231.66760335588606,13.070121902713538 M-231.66760335588606,13.070121902713538 L-232.31074344347337,13.334452586346686 M-232.31074344347337,13.334452586346686 L-232.9440173975214,13.51524949172682 M-232.9440173975214,13.51524949172682 L-233.56095654855255,13.610564807090384 M-224.91248627666118,1.779492450990233 L-275.1034035986629,28.41221268596354 M-274.93534828290683,37.772870951719256 L-275.1034035986629,28.41221268596354 M-274.93534828290683,37.772870951719256 L-278.44087302396383,39.654195854091654 M-278.256201213734,48.93016363736376 L-278.44087302396383,39.654195854091654 M-278.44087302396383,39.654195854091654 L-275.0816035811888,41.54397831555906 M-230.35886683567298,15.403870855782088 L-233.72343935144863,13.623000821419794 M-230.19652695060688,15.391144040394124 L-233.56095654855255,13.610564807090384 M-221.5350168748928,3.5311719767429395 L-224.91248627666118,1.779492450990233 M-271.7267906369618,30.28217477468894 L-275.1034035986629,28.41221268596354 M-271.57575081652556,39.65419547651783 L-274.93534828290683,37.772870951719256" stroke="black"  stroke-width="4"  fill="red"/>
<path d="M-231.85199990938816,25.550667581134917 L-231.83146757788404,22.00084144835455 M-231.83146757788404,22.00084144835455 L-231.79441619869715,22.026051656397215 M-231.79441619869715,22.026051656397215 L-231.76959797888185,22.055258240282797 M-231.76959797888185,22.055258240282797 L-231.75845523436146,22.086763917504697 M-231.75845523436146,22.086763917504697 L-231.76163787610608,22.11873850865237 M-231.76163787610608,22.11873850865237 L-231.77896214118027,22.14932322980502 M-231.77896214118027,22.14932322980502 L-231.8094230342881,22.176740578595627 M-231.8094230342881,22.176740578595627 L-231.8512504412198,22.199396007594203 M-231.8512504412198,22.199396007594203 L-231.90201399431317,22.215972246580804 M-231.90201399431317,22.215972246580804 L-231.95876206133607,22.225504838606923 M-231.95876206133607,22.225504838606923 L-232.0181961823962,22.227439545951654 M-232.0181961823962,22.227439545951654 L-232.07685984411057,22.221663595324117 M-232.07685984411057,22.221663595324117 L-232.13134313049704,22.208513416606138 M-232.13134313049704,22.208513416606138 L-232.17847754834952,22.188753310728544 M-232.17847754834952,22.188753310728544 L-232.21552431786517,22.163533224562627 M-232.21552431786517,22.163533224562627 L-232.24032997713562,22.134318956339314 M-232.24032997713562,22.134318956339314 L-232.25145492040542,22.102809638712756 M-232.25145492040542,22.102809638712756 L-232.2482533144114,22.07083628499481 M-232.2482533144114,22.07083628499481 L-232.23091326682277,22.040257395610183 M-232.23091326682277,22.040257395610183 L-232.2004433883376,22.01284913703057 M-232.2004433883376,22.01284913703057 L-232.15861585171638,21.9902039741375 M-232.15861585171638,21.9902039741375 L-232.10786105433067,21.973636825423227 M-232.10786105433067,21.973636825423227 L-232.05112862247938,21.964110065188038 M-232.05112862247938,21.964110065188038 L-231.99171343440457,21.962176595301685 M-231.99171343440457,21.962176595301685 L-231.933067665919,21.967948905429182 M-231.933067665919,21.967948905429182 L-231.87859713422438,21.98109139994 M-231.87859713422438,21.98109139994 L-231.83146757788404,22.00084144835455 M-231.85199990938816,25.550667581134917 L-231.89903744403944,25.530870872014987 M-231.89903744403944,25.530870872014987 L-231.95340186485475,25.51769732652923 M-231.95340186485475,25.51769732652923 L-232.01193359811998,25.5119113782564 M-232.01193359811998,25.5119113782564 L-232.07123344620413,25.513849416338758 M-232.07123344620413,25.513849416338758 L-232.12785593170577,25.523398685127177 M-232.12785593170577,25.523398685127177 L-232.17851255921232,25.54000497545934 M-232.17851255921232,25.54000497545934 L-232.22025940614787,25.562703637812604 M-232.22025940614787,25.562703637812604 L-232.25067076367338,25.59017664547656 M-232.25067076367338,25.59017664547656 L-232.26797786421957,25.6208277700282 M-232.26797786421957,25.6208277700282 L-232.27117401617852,25.652876648264396 M-232.27117401617852,25.652876648264396 L-232.26007143595075,25.68446038957444 M-232.26007143595075,25.68446038957444 L-232.23531466147142,25.713743656475174 M-232.23531466147142,25.713743656475174 L-232.19834046344351,25.73902330455502 M-232.19834046344351,25.73902330455502 L-232.15129808606798,25.75883007548748 M-232.15129808606798,25.75883007548748 L-232.0969209602489,25.772011308370168 M-232.0969209602489,25.772011308370168 L-232.03837140328665,25.777800898654448 M-232.03837140328665,25.777800898654448 L-231.9790526956648,25.775861622599848 M-231.9790526956648,25.775861622599848 L-231.92241463552818,25.76630651959954 M-231.92241463552818,25.76630651959954 L-231.87174928607237,25.74969113522161 M-231.87174928607237,25.74969113522161 L-231.83000256807202,25.72698220250112 M-231.83000256807202,25.72698220250112 L-231.79960016082998,25.699500100852617 M-231.79960016082998,25.699500100852617 L-231.78230878140448,25.66884314211211 M-231.78230878140448,25.66884314211211 L-231.77913152006545,25.63679302593249 M-231.77913152006545,25.63679302593249 L-231.79025183254714,25.605212926538343 M-231.79025183254714,25.605212926538343 L-231.81502111901239,25.575937347165166 M-231.81502111901239,25.575937347165166 L-231.85199990938816,25.550667581134917 M-231.57131404354664,21.859963838772103 L-231.4786783534471,21.922971171747122 M-231.4786783534471,21.922971171747122 L-231.41660868742827,21.99597282540344 M-231.41660868742827,21.99597282540344 L-231.38871870252444,22.074730417913145 M-231.38871870252444,22.074730417913145 L-231.39663966747366,22.154668902655715 M-231.39663966747366,22.154668902655715 L-231.43992089072867,22.231141911889836 M-231.43992089072867,22.231141911889836 L-231.51605551785315,22.29970202182028 M-231.51605551785315,22.29970202182028 L-231.62062378487303,22.356359854779157 M-231.62062378487303,22.356359854779157 L-231.74754850976717,22.397817105295132 M-231.74754850976717,22.397817105295132 L-231.88944850603286,22.421659618412207 M-231.88944850603286,22.421659618412207 L-232.03806874501106,22.426498664117275 M-232.03806874501106,22.426498664117275 L-232.18476188194973,22.412052090478483 M-232.18476188194973,22.412052090478483 L-232.32099327607125,22.37916191091307 M-232.32099327607125,22.37916191091307 L-232.43883902904986,22.32974352684016 M-232.43883902904986,22.32974352684016 L-232.53144678817057,22.26667398470272 M-232.53144678817057,22.26667398470272 L-232.59343811926396,22.193624214701003 M-232.59343811926396,22.193624214701003 L-232.62121667837653,22.114843959324844 M-232.62121667837653,22.114843959324844 L-232.6131772712739,22.034913163779322 M-232.6131772712739,22.034913163779322 L-232.56979740708744,21.958476603307872 M-232.56979740708744,21.958476603307872 L-232.49360662152344,21.889973307007836 M-232.49360662152344,21.889973307007836 L-232.38903754393652,21.833379637229655 M-232.38903754393652,21.833379637229655 L-232.26216754204597,21.7919792003417 M-232.26216754204597,21.7919792003417 L-232.12036526582142,21.768173136027713 M-232.12036526582142,21.768173136027713 L-231.97186327361146,21.7633418691276 M-231.97186327361146,21.7633418691276 L-231.82528213733576,21.777765600330895 M-231.82528213733576,21.777765600330895 L-231.6891302915575,21.810607842724323 M-231.6891302915575,21.810607842724323 L-231.57131404354664,21.859963838772103 M-231.5688413466321,21.442695395480825 L-231.47618431928208,21.505685156224388 M-231.47618431928208,21.505685156224388 L-231.41410026078483,21.578666453068195 M-231.41410026078483,21.578666453068195 L-231.38620366758983,21.657402087012713 M-231.38620366758983,21.657402087012713 L-231.39412619702546,21.737318287461108 M-231.39412619702546,21.737318287461108 L-231.43741707114077,21.813769981782116 M-231.43741707114077,21.813769981782116 L-231.5135688785041,21.882310985077083 M-231.5135688785041,21.882310985077083 L-231.61816085892178,21.938953030347193 M-231.61816085892178,21.938953030347193 L-231.74511445225835,21.980398729940475 M-231.74511445225835,21.980398729940475 L-231.88704679213583,22.004234600428617 M-231.88704679213583,22.004234600428617 L-232.0357009664018,22.00907229799276 M-232.0357009664018,22.00907229799276 L-232.18242765349657,21.994629749156445 M-232.18242765349657,21.994629749156445 L-232.31869025849664,21.961748733197282 M-232.31869025849664,21.961748733197282 L-232.4365630661316,21.912344118818453 M-232.4365630661316,21.912344118818453 L-232.5291921499636,21.84929215203391 M-232.5291921499636,21.84929215203391 L-232.5911978378581,21.77626274129517 M-232.5911978378581,21.77626274129517 L-232.61898295447395,21.69750444560833 M-232.61898295447395,21.69750444560833 L-232.61094192874782,21.617595933978805 M-232.61094192874782,21.617595933978805 L-232.5675523685436,21.541180686579708 M-232.5675523685436,21.541180686579708 L-232.4913443769276,21.47269649404592 M-232.4913443769276,21.47269649404592 L-232.3867515853874,21.41611860871592 M-232.3867515853874,21.41611860871592 L-232.25985273988408,21.374729719881486 M-232.25985273988408,21.374729719881486 L-232.1180181645741,21.3509302963555 M-232.1180181645741,21.3509302963555 L-231.96948229107988,21.346100377193125 M-231.96948229107988,21.346100377193125 L-231.82286765582944,21.36052008476804 M-231.82286765582944,21.36052008476804 L-231.68668463568167,21.39335316595583 M-231.68668463568167,21.39335316595583 L-231.5688413466321,21.442695395480825 M-231.5688413466321,21.442695395480825 L-231.57131404354664,21.859963838772103" stroke="black"  stroke-width="4"  fill="red"/>
<path d="M-274.93534828290683,37.772870951719256 L-278.44087302396383,39.654195854091654 M-278.44087302396383,39.654195854091654 L-278.62745711625234,30.2821751499867 M-275.1034035986629,28.41221268596354 L-278.62745711625234,30.2821751499867 M-274.93534828290683,37.772870951719256 L-275.1034035986629,28.41221268596354 M-274.91377169374584,50.83098439764103 L-204.05390836950528,91.12858782402589 M-204.05390836950528,91.12858782402589 L-203.9638786172277,86.99993436421926 M-203.9638786172277,86.99993436421926 L-123.43172497289424,132.58356166954076 M-123.7246374950123,136.8113897568881 L-123.43172497289424,132.58356166954076 M-123.7246374950123,136.8113897568881 L307.48558043710193,382.0382013881897 M307.48558043710193,382.0382013881897 L309.1987442745799,377.465452674214 M309.1987442745799,377.465452674214 L453.4499267200804,459.1159716456549 M451.13951294010167,463.7333801688437 L453.4499267200804,459.1159716456549 M451.13951294010167,463.7333801688437 L1027.5491591447885,791.5342852822632 M1027.5491591447885,791.5342852822632 L1039.8609007966202,781.2748409159599 M1039.8609007966202,781.2748409159599 L1051.7847034160088,787.9826663666934 M1051.7847034160088,787.9826663666934 L1064.508463728236,777.5435193184328 M-278.62745711625234,30.2821751499867 L1064.508463728236,777.5435193184328 M-278.44087302396383,39.654195854091654 L-275.0816035811888,41.54397831555906 M-274.91377169374584,50.83098439764103 L-275.0816035811888,41.54397831555906 M1052.7820952199036,781.2748569665057 L1040.9042226536592,774.6234253039565 M1028.6337637587671,784.9037537041472 L1040.9042226536592,774.6234253039565 M1028.6337637587671,784.9037537041472 L453.9091097365856,459.5478780230678 M453.9091097365856,459.5478780230678 L456.2210481171012,454.9319035533259 M456.2210481171012,454.9319035533259 L312.238887264402,373.805233741302 M310.5216148654148,378.37515708786054 L312.238887264402,373.805233741302 M310.5216148654148,378.37515708786054 L-120.25731165339403,134.50802196218865 M-120.25731165339403,134.50802196218865 L-119.9565836184621,130.2849319697716 M-119.9565836184621,130.2849319697716 L-200.46939530230156,84.92003224587586 M-200.56738002399948,89.04389851131396 L-200.46939530230156,84.92003224587586 M-200.56738002399948,89.04389851131396 L-271.42625898839174,48.93016325758032 M-271.42625898839174,48.93016325758032 L-271.57575081652556,39.65419547651783 M-271.57575081652556,39.65419547651783 L-274.93534828290683,37.772870951719256 M1065.4613825946562,770.8145419120542 L-275.1034035986629,28.41221268596354 M1052.7820952199036,781.2748569665057 L1065.4613825946562,770.8145419120542 M-274.91377169374584,50.83098439764103 L-271.42625898839174,48.93016325758032 M-275.0816035811888,41.54397831555906 L-271.57575081652556,39.65419547651783 M-200.56738002399948,89.04389851131396 L-204.05390836950528,91.12858782402589 M-200.46939530230156,84.92003224587586 L-203.9638786172277,86.99993436421926 M-123.7246374950123,136.8113897568881 L-120.25731165339403,134.50802196218865 M-123.43172497289424,132.58356166954076 L-119.9565836184621,130.2849319697716 M310.5216148654148,378.37515708786054 L307.48558043710193,382.0382013881897 M312.238887264402,373.805233741302 L309.1987442745799,377.465452674214 M451.13951294010167,463.7333801688437 L453.9091097365856,459.5478780230678 M453.4499267200804,459.1159716456549 L456.2210481171012,454.9319035533259 M1028.6337637587671,784.9037537041472 L1027.5491591447885,791.5342852822632 M1040.9042226536592,774.6234253039565 L1039.8609007966202,781.2748409159599 M1051.7847034160088,787.9826663666934 L1052.7820952199036,781.2748569665057 M1064.508463728236,777.5435193184328 L1065.4613825946562,770.8145419120542" stroke="black"  stroke-width="4"  fill="red"/></svg>