<svg viewBox="0 0 800 800" xmlns="http://www.w3.org/2000/svg"><path d="M242.53600977468193,165.65622127509812 L75.1277580076922,262.3094204973343 M75.12775920171521,249.9007680836557 L75.1277580076922,262.3094204973343 M75.12775920171521,249.9007680836557 L75.1274381927152,249.80015047879124 M75.1274381927152,249.80015047879124 L75.12724558228251,249.69945565819785 M75.12724558228251,249.69945565819785 L75.12718137731991,249.59868362521848 M242.87963171564536,153.15763740787122 L75.12718137731991,249.59868362521848 M242.53600977468193,165.65622127509812 L242.87963171564536,153.15763740787122 M723.8369590376122,636.8417691083313 L709.9673460653954,628.8341461047378 M544.5927591915529,750.9283992724168 L709.9673460653954,628.8341461047378 M544.5927591915529,750.9283992724168 L346.32298333607275,628.8345654541686 M334.61086539323094,636.8421904572901 L346.32298333607275,628.8345654541686 M269.86998603876316,596.7941574684953 L334.61086539323094,636.8421904572901 M281.5952550785561,588.9754570085807 L269.86998603876316,596.7941574684953 M281.5952550785561,588.9754570085807 L25.813684171147827,431.46606114936105 M14.072196902987912,438.5603120231551 L25.813684171147827,431.46606114936105 M-43.3162327075903,403.0604277902579 L14.072196902987912,438.5603120231551 M-31.578943210530497,396.1238821425168 L-43.3162327075903,403.0604277902579 M-31.578943210530497,396.1238821425168 L-81.09989976901744,365.6290504694346 M86.13586735235566,268.66495397840373 L-81.09989976901744,365.6290504694346 M86.13586735235566,268.66495397840373 L75.1277580076922,262.3094204973343 M887.967637330776,515.0063374435446 L242.53600977468193,165.65622127509812 M723.8369590376122,636.8417691083313 L887.967637330776,515.0063374435446 M166.2582478101018,215.93913889498015 L166.10380117081053,215.87129030918499 M166.10380117081053,215.87129030918499 L165.9259141775869,215.82614427565528 M165.9259141775869,215.82614427565528 L165.73493366799408,215.8063158337357 M165.73493366799408,215.8063158337357 L165.54195720967164,215.81295421020866 M165.54195720967164,215.81295421020866 L165.35817653438988,215.84568526179953 M165.35817653438988,215.84568526179953 L165.19428414927256,215.90259845118914 M165.19428414927256,215.90259845118914 L165.05980695229994,215.98038638802672 M165.05980695229994,215.98038638802672 L164.96254229102647,216.0745416593236 M164.96254229102647,216.0745416593236 L164.90814934768343,216.1795923479188 M164.90814934768343,216.1795923479188 L164.8998107335101,216.2894256759248 M164.8998107335101,216.2894256759248 L164.93799654261915,216.39766949409278 M164.93799654261915,216.39766949409278 L165.02049592475328,216.49803015316814 M165.02049592475328,216.49803015316814 L165.14252888452404,216.58466588240452 M165.14252888452404,216.58466588240452 L165.2969913110279,216.6525475970215 M165.2969913110279,216.6525475970215 L165.47491851317915,216.6977189303335 M165.47491851317915,216.6977189303335 L165.6659549882503,216.71755935823722 M165.6659549882503,216.71755935823722 L165.85899034748314,216.71091690955632 M165.85899034748314,216.71091690955632 L166.04281936988735,216.67816665396396 M166.04281936988735,216.67816665396396 L166.20673846879168,216.62122353396666 M166.20673846879168,216.62122353396666 L166.34121462807622,216.54340179690035 M166.34121462807622,216.54340179690035 L166.43845073777732,216.44921659469264 M166.43845073777732,216.44921659469264 L166.49279415489428,216.34414670354778 M166.49279415489428,216.34414670354778 L166.50107361805476,216.23430930120327 M166.50107361805476,216.23430930120327 L166.46283257943276,216.12607746936402 M166.46283257943276,216.12607746936402 L166.3802945418825,216.02574211250163 M166.3802945418825,216.02574211250163 L166.2582478101018,215.93913889498015 M801.0464843409876,570.5356163359213 L800.8571144973174,570.4504743397468 M800.8571144973174,570.4504743397468 L800.646966255338,570.3938245962503 M800.646966255338,570.3938245962503 L800.4282758831577,570.3689571524067 M800.4282758831577,570.3689571524067 L800.2137111285177,570.3772915657978 M800.2137111285177,570.3772915657978 L800.0157077664722,570.4183526031709 M800.0157077664722,570.4183526031709 L799.8458420190801,570.4897762791311 M799.8458420190801,570.4897762791311 L799.7139471289705,570.5873895104712 M799.7139471289705,570.5873895104712 L799.6276715183177,570.7055365446381 M799.6276715183177,570.7055365446381 L799.5920777912389,570.8373743847989 M799.5920777912389,570.8373743847989 L799.6091991448731,570.9751992460243 M799.6091991448731,570.9751992460243 L799.6780375444729,571.1110206043005 M799.6780375444729,571.1110206043005 L799.7946402404317,571.2369627822798 M799.7946402404317,571.2369627822798 L799.952229101469,571.3456856436381 M799.952229101469,571.3456856436381 L800.1416269277585,571.4308737791295 M800.1416269277585,571.4308737791295 L800.3518324584146,571.4875590869019 M800.3518324584146,571.4875590869019 L800.5706405424313,571.5124681001827 M800.5706405424313,571.5124681001827 L800.7852781084001,571.5041279593659 M800.7852781084001,571.5041279593659 L800.9833369650979,571.4630399334073 M800.9833369650979,571.4630399334073 L801.1532281487504,571.3915741785695 M801.1532281487504,571.3915741785695 L801.2851126100637,571.293913432281 M801.2851126100637,571.293913432281 L801.3713443142145,571.1757243241767 M801.3713443142145,571.1757243241767 L801.4068706977677,571.043859487591 M801.4068706977677,571.043859487591 L801.3896740188267,570.9060288997671 M801.3896740188267,570.9060288997671 L801.3207253035858,570.7701996700724 M801.3207253035858,570.7701996700724 L801.2040809314425,570.6442930603666 M801.2040809314425,570.6442930603666 L801.0464843409876,570.5356163359213 M86.1587113863635,256.24311457320846 L75.12775920171521,249.9007680836557 M86.1587113863635,256.24311457320846 L86.13586735235566,268.66495397840373 M86.15869027987657,255.94070878057613 L86.1585689065397,256.04158824995176 M86.1585689065397,256.04158824995176 L86.15857594433635,256.14239018194286 M86.15857594433635,256.14239018194286 L86.1587113863635,256.24311457320846 M75.12718137731991,249.59868362521848 L86.15869027987657,255.94070878057613 M711.4784897949613,615.4376673288991 L725.3848173507457,623.4324285131094 M725.3848173507457,623.4324285131094 L889.837544776702,501.80210212084296 M889.837544776702,501.80210212084296 L242.87963171564536,153.15763740787122 M86.15869027987657,255.94070878057613 L-81.44273388052682,352.7054361361497 M-81.44273388052682,352.7054361361497 L-31.815414437215452,383.1404181537881 M-31.815414437215452,383.1404181537881 L-43.57929789564952,390.06353349245705 M-43.57929789564952,390.06353349245705 L13.935054553657892,425.4957485931659 M13.935054553657892,425.4957485931659 L25.703163925804404,418.41487822528734 M25.703163925804404,418.41487822528734 L282.08106589214367,575.6439392262241 M282.08106589214367,575.6439392262241 L270.3292884996283,583.4496376813229 M270.3292884996283,583.4496376813229 L335.2302357666904,623.4324285131094 M335.2302357666904,623.4324285131094 L346.96876831454756,615.4376673288991 M346.96876831454756,615.4376673288991 L545.7513627666807,737.3452125164029 M711.4784897949613,615.4376673288991 L545.7513627666807,737.3452125164029 M167.28673726674117,202.8454675071157 L167.5925213324491,203.06144344441162 M167.5925213324491,203.06144344441162 L167.79939884833112,203.31167618505157 M167.79939884833112,203.31167618505157 L167.89532714558334,203.58163698225053 M167.89532714558334,203.58163698225053 L167.87470081807953,203.8556422581408 M167.87470081807953,203.8556422581408 L167.73867790633585,204.11777181139274 M167.73867790633585,204.11777181139274 L167.4951577494972,204.3527693786932 M167.4951577494972,204.3527693786932 L167.1582541155231,204.5469748769711 M167.1582541155231,204.5469748769711 L166.74756753699126,204.68907133152595 M166.74756753699126,204.68907133152595 L166.28695721310135,204.77079809241496 M166.28695721310135,204.77079809241496 L165.80323891641302,204.78738324948262 M165.80323891641302,204.78738324948262 L165.3245455116953,204.7378659314423 M165.3245455116953,204.7378659314423 L164.87872848636323,204.6251307442464 M164.87872848636323,204.6251307442464 L164.49171804913107,204.45574240797384 M164.49171804913107,204.45574240797384 L164.18601750882812,204.23956167458277 M164.18601750882812,204.23956167458277 L163.9793820239792,203.98917051067286 M163.9793820239792,203.98917051067286 L163.8838008988838,203.7191351137467 M163.8838008988838,203.7191351137467 L163.9047982008754,203.4451551462177 M163.9047982008754,203.4451551462177 L164.04113194959058,203.18314559338216 M164.04113194959058,203.18314559338216 L164.28483131207116,202.9483350681274 M164.28483131207116,202.9483350681274 L164.62174147283605,202.75434081387715 M164.62174147283605,202.75434081387715 L165.03226040368708,202.61243139912307 M165.03226040368708,202.61243139912307 L165.49256730595306,202.5308246422216 M165.49256730595306,202.5308246422216 L165.97591620143794,202.5142650991345 M165.97591620143794,202.5142650991345 L166.4542578051571,202.56370720198527 M166.4542578051571,202.56370720198527 L166.89982302889592,202.67628458007556 M166.89982302889592,202.67628458007556 L167.28673726674117,202.8454675071157 M803.566987433555,556.6288430161184 L803.9620691151459,556.9000064447156 M803.9620691151459,556.9000064447156 L804.2545934201984,557.2141513692787 M804.2545934201984,557.2141513692787 L804.4276500224047,557.553102137016 M804.4276500224047,557.553102137016 L804.4710715106925,557.8971272674889 M804.4710715106925,557.8971272674889 L804.3823085376517,558.2262508119255 M804.3823085376517,558.2262508119255 L804.1664904042833,558.521308333796 M804.1664904042833,558.521308333796 L803.8361280442078,558.7651544813247 M803.8361280442078,558.7651544813247 L803.4104363544021,558.9435768279805 M803.4104363544021,558.9435768279805 L802.914131400452,559.0461921730139 M802.914131400452,559.0461921730139 L802.3761203087673,559.0670148902113 M802.3761203087673,559.0670148902113 L801.8276755772193,559.0048254030925 M801.8276755772193,559.0048254030925 L801.3007855741884,558.8632883925687 M801.3007855741884,558.8632883925687 L800.8259899123904,558.6505858795202 M800.8259899123904,558.6505858795202 L800.4310009898278,558.3791585839247 M800.4310009898278,558.3791585839247 L800.1386938892678,558.0647665425298 M800.1386938892678,558.0647665425298 L799.9660964694755,557.7257350729466 M799.9660964694755,557.7257350729466 L799.9231480242335,557.3817457634634 M799.9231480242335,557.3817457634634 L800.0123339044927,557.0527910416899 M800.0123339044927,557.0527910416899 L800.2284278988146,556.7579966541269 M800.2284278988146,556.7579966541269 L800.558855902971,556.5144476901951 M800.558855902971,556.5144476901951 L800.9843879782137,556.3362884795073 M800.9843879782137,556.3362884795073 L801.4803446054608,556.2338419527555 M801.4803446054608,556.2338419527555 L802.0178984773653,556.2130550500095 M802.0178984773653,556.2130550500095 L802.5658374709739,556.2751144731865 M802.5658374709739,556.2751144731865 L803.0924120032042,556.4164537293715 M803.0924120032042,556.4164537293715 L803.566987433555,556.6288430161184 M887.967637330776,515.0063374435446 L889.837544776702,501.80210212084296 M725.3485370366813,623.7511301108858 L711.4430837796068,615.7560630328702 M725.3485370366813,623.7511301108858 L723.8369590376122,636.8417691083313 M711.4430837796068,615.7560630328702 L709.9673460653954,628.8341461047378 M711.4430837796068,615.7560630328702 L711.4547588620852,615.6500281812334 M711.4547588620852,615.6500281812334 L711.4665608650004,615.5438962788933 M711.4665608650004,615.5438962788933 L711.4784897949613,615.4376673288991 M544.5927591915529,750.9283992724168 L545.7513627666807,737.3452125164029 M346.32298333607275,628.8345654541686 L346.96876831454756,615.4376673288991 M334.61086539323094,636.8421904572901 L335.2302357666904,623.4324285131094 M269.86998603876316,596.7941574684953 L270.3292884996283,583.4496376813229 M281.5952550785561,588.9754570085807 L282.08106589214367,575.6439392262241 M25.813684171147827,431.46606114936105 L25.703163925804404,418.41487822528734 M14.072196902987912,438.5603120231551 L13.935054553657892,425.4957485931659 M-43.3162327075903,403.0604277902579 L-43.57929789564952,390.06353349245705 M-31.578943210530497,396.1238821425168 L-31.815414437215452,383.1404181537881 M-81.09989976901744,365.6290504694346 L-81.44273388052682,352.7054361361497 M725.3848173507457,623.4324285131094 L725.372597061085,623.5387598858156 M725.372597061085,623.5387598858156 L725.3605036252619,623.6449937527539 M725.3605036252619,623.6449937527539 L725.3485370366813,623.7511301108858 M166.2582478101018,215.93913889498015 L166.42853630641332,204.65480446486833 M166.42853630641332,204.65480446486833 L166.55081611143845,204.74123760885112 M166.55081611143845,204.74123760885112 L166.63351420091396,204.84137593651843 M166.63351420091396,204.84137593651843 L166.67183297795572,204.94939524707416 M166.67183297795572,204.94939524707416 L166.6635444109437,205.05901699062025 M166.6635444109437,205.05901699062025 L166.60910552189415,205.16388059794934 M166.60910552189415,205.16388059794934 L166.51169313643055,205.25788089812568 M166.51169313643055,205.25788089812568 L166.37697014024718,205.3355498659684 M166.37697014024718,205.3355498659684 L166.2127479549061,205.39238120770165 M166.2127479549061,205.39238120770165 L166.02857722719745,205.42506717702088 M166.02857722719745,205.42506717702088 L165.83518144712576,205.4316965872431 M165.83518144712576,205.4316965872431 L165.64378676724846,205.41189510426932 M165.64378676724846,205.41189510426932 L165.46552441781705,205.36681243997458 M165.46552441781705,205.36681243997458 L165.31076941334493,205.2990639785436 M165.31076941334493,205.2990639785436 L165.1885034289486,205.21259832546843 M165.1885034289486,205.21259832546843 L165.10584413804673,205.11243469807619 M165.10584413804673,205.11243469807619 L165.06758079644817,205.0044034023702 M165.06758079644817,205.0044034023702 L165.075928735999,204.89478573276187 M165.075928735999,204.89478573276187 L165.1304173376642,204.78994132609455 M165.1304173376642,204.78994132609455 L165.22785838323887,204.6959709538861 M165.22785838323887,204.6959709538861 L165.36258242293877,204.61833578294852 M165.36258242293877,204.61833578294852 L165.52677779627692,204.56153436888007 M165.52677779627692,204.56153436888007 L165.7108999970966,204.52886760167405 M165.7108999970966,204.52886760167405 L165.9042366561368,204.52224226325944 M165.9042366561368,204.52224226325944 L166.09557516047158,204.5420317614276 M166.09557516047158,204.5420317614276 L166.27379714909188,204.58708912842764 M166.27379714909188,204.58708912842764 L166.42853630641332,204.65480446486833 M801.0464843409876,570.5356163359213 L802.5663420827296,558.6344079174122 M802.5663420827296,558.6344079174122 L802.7243187333385,558.7429199637253 M802.7243187333385,558.7429199637253 L802.8412653843221,558.8686358054925 M802.8412653843221,558.8686358054925 L802.9104211012226,559.0042592554397 M802.9104211012226,559.0042592554397 L802.9277173467048,559.1418810553431 M802.9277173467048,559.1418810553431 L802.8921773739224,559.2735461635199 M802.8921773739224,559.2735461635199 L802.8058195827542,559.3915562757849 M802.8058195827542,559.3915562757849 L802.6737039499361,559.4890691295025 M802.6737039499361,559.4890691295025 L802.5034899084595,559.5604266678063 M802.5034899084595,559.5604266678063 L802.3050351898845,559.6014524794264 M802.3050351898845,559.6014524794264 L802.0899519465726,559.609779992096 M802.0899519465726,559.609779992096 L801.8706741385996,559.5849086948281 M801.8706741385996,559.5849086948281 L801.6600022796632,559.5283092201093 M801.6600022796632,559.5283092201093 L801.4701685992235,559.4432500843803 M801.4701685992235,559.4432500843803 L801.3121996891435,559.3346918745826 M801.3121996891435,559.3346918745826 L801.1952948726483,559.2089404440571 M801.1952948726483,559.2089404440571 L801.12624984463,559.0733248183748 M801.12624984463,559.0733248183748 L801.1090292428845,558.935708748368 M801.1090292428845,558.935708748368 L801.1446368539763,558.8040706521642 M801.1446368539763,558.8040706521642 L801.2310387551335,558.6861026380681 M801.2310387551335,558.6861026380681 L801.3631648823977,558.5886373266641 M801.3631648823977,558.5886373266641 L801.5333534003972,558.5173218914724 M801.5333534003972,558.5173218914724 L801.7317524041254,558.4763230839812 M801.7317524041254,558.4763230839812 L801.9467625335052,558.4680013020355 M801.9467625335052,558.4680013020355 L802.1659222098407,558.4928310576124 M802.1659222098407,558.4928310576124 L802.3765365235148,558.549394947573 M802.3765365235148,558.549394947573 L802.5663420827296,558.6344079174122 M167.28673726674117,202.8454675071157 L167.2665399594265,204.17179514575514 M167.2665399594265,204.17179514575514 L167.57225552082332,204.38782126574813 M167.57225552082332,204.38782126574813 L167.77908596482382,204.63811214005494 M167.77908596482382,204.63811214005494 L167.8749913670303,204.90813564362895 M167.8749913670303,204.90813564362895 L167.8543676650092,205.18220455421886 M167.8543676650092,205.18220455421886 L167.71837276254183,205.4443949736749 M167.71837276254183,205.4443949736749 L167.47490437823473,205.6794470984413 M167.47490437823473,205.6794470984413 L167.1380732830949,205.87369767760208 M167.1380732830949,205.87369767760208 L166.72747578975725,206.0158271134111 M166.72747578975725,206.0158271134111 L166.26696591883524,206.09757284209962 M166.26696591883524,206.09757284209962 L165.78335358913182,206.1141618482613 M165.78335358913182,206.1141618482613 L165.3047654954592,206.06463303808783 M165.3047654954592,206.06463303808783 L164.85904699138064,205.95187168559414 M164.85904699138064,205.95187168559414 L164.47212255050334,205.7824440315315 M164.47212255050334,205.7824440315315 L164.1664904794029,205.56621311285193 M164.1664904794029,205.56621311285193 L163.95990196128446,205.3157638131512 M163.95990196128446,205.3157638131512 L163.86434357966613,205.04566570894883 M163.86434357966613,205.04566570894883 L163.88533809331403,204.77162210701516 M163.88533809331403,204.77162210701516 L164.02164369567464,204.50955168953328 M164.02164369567464,204.50955168953328 L164.26529120579653,204.27468660924086 M164.26529120579653,204.27468660924086 L164.6021288234357,204.0806472768502 M164.6021288234357,204.0806472768502 L165.01255874132028,203.93870488327013 M165.01255874132028,203.93870488327013 L165.4727653228211,203.857079160127 M165.4727653228211,203.857079160127 L165.95600841314752,203.84051576831206 M165.95600841314752,203.84051576831206 L166.43424486043386,203.8899693622522 M166.43424486043386,203.8899693622522 L166.87971167449416,204.00257290365892 M166.87971167449416,204.00257290365892 L167.2665399594265,204.17179514575514 M803.566987433555,556.6288430161184 L803.3881189155292,558.0280369695586 M803.3881189155292,558.0280369695586 L803.7830888405337,558.2992490821106 M803.7830888405337,558.2992490821106 L804.0755242221368,558.6134503936877 M804.0755242221368,558.6134503936877 L804.2485198808625,558.9524619844079 M804.2485198808625,558.9524619844079 L804.291911984954,559.2965488308959 M804.291911984954,559.2965488308959 L804.2031529100303,559.6257314015581 M804.2031529100303,559.6257314015581 L803.9873717486377,559.920841826383 M803.9873717486377,559.920841826383 L803.6570772991676,560.1647316850081 M803.6570772991676,560.1647316850081 L803.2314805117013,560.3431860094714 M803.2314805117013,560.3431860094714 L802.7352919396511,560.4458197436236 M802.7352919396511,560.4458197436236 L802.19741192396,560.4666461921513 M802.19741192396,560.4666461921513 L801.6491053344504,560.4044455607852 M801.6491053344504,560.4044455607852 L801.1223524705596,560.2628831849248 M801.1223524705596,560.2628831849248 L800.6476849897609,560.0501425471006 M800.6476849897609,560.0501425471006 L800.2528078034251,559.7786665910977 M800.2528078034251,559.7786665910977 L799.9605895221326,559.4642181730006 M799.9605895221326,559.4642181730006 L799.788052835545,559.1251258918451 M799.788052835545,559.1251258918451 L799.7451335402019,558.7810748639733 M799.7451335402019,558.7810748639733 L799.834315305461,558.4520611047875 M799.834315305461,558.4520611047875 L800.0503721780375,558.1572137968341 M800.0503721780375,558.1572137968341 L800.3807322232286,557.9136211021134 M800.3807322232286,557.9136211021134 L800.8061694602633,557.7354298961818 M800.8061694602633,557.7354298961818 L801.3020098675507,557.6329649691249 M801.3020098675507,557.6329649691249 L801.8394328861015,557.6121743326755 M801.8394328861015,557.6121743326755 L802.3872339822454,557.6742449026551 M802.3872339822454,557.6742449026551 L802.9136715519093,557.8156095433437 M802.9136715519093,557.8156095433437 L803.3881189155292,558.0280369695586" stroke="black"  stroke-width="4"  fill="red"/>
<path d="M723.8369590376122,636.8417691083313 L546.9156977698852,768.1717463032758 M723.8369590376122,636.8417691083313 L709.9673460653954,628.8341461047378 M532.9436693585845,759.5287951985724 L709.9673460653954,628.8341461047378 M546.9156977698852,768.1717463032758 L532.9436693585845,759.5287951985724 M725.3485370366813,623.7511301108858 L723.8369590376122,636.8417691083313 M817.1638653767603,497.443163737398 L814.2416635750761,497.768560065893 M814.2416635750761,497.768560065893 L811.1905603059273,498.4197190770169 M811.1905603059273,498.4197190770169 L808.0222675407832,499.39506486779726 M808.0222675407832,499.39506486779726 L804.7490239696498,500.69170318954673 M804.7490239696498,500.69170318954673 L801.3835898589001,502.3053933998051 M801.3835898589001,502.3053933998051 L797.9391671927168,504.23057985842684 M797.9391671927168,504.23057985842684 L794.4293636962346,506.46036703628624 M794.4293636962346,506.46036703628624 L790.8681174838997,508.9865787930462 M790.8681174838997,508.9865787930462 L787.2696673643558,511.79975072355865 M787.2696673643558,511.79975072355865 L783.6484571862603,514.8891715397516 M783.6484571862603,514.8891715397516 L780.0190978332652,518.2429191806152 M780.0190978332652,518.2429191806152 L776.3962992026455,521.8479104368907 M776.3962992026455,521.8479104368907 L772.7947918860317,525.6899298799658 M772.7947918860317,525.6899298799658 L769.2292555303285,529.7537411495672 M769.2292555303285,529.7537411495672 L765.7142741869028,534.0230856504639 M765.7142741869028,534.0230856504639 L762.2642450836935,538.4808024391217 M762.2642450836935,538.4808024391217 L758.8933201413073,543.1088715146382 M758.8933201413073,543.1088715146382 L755.615340059641,547.88851987614 M755.615340059641,547.88851987614 L752.4437579834477,552.8003023063881 M752.4437579834477,552.8003023063881 L749.3915898849419,557.8241698813155 M749.3915898849419,557.8241698813155 L746.471341318747,562.9396027263207 M746.471341318747,562.9396027263207 L743.6949527924136,568.125661019612 M743.6949527924136,568.125661019612 L741.0737428225938,573.3611243800536 M741.0737428225938,573.3611243800536 L738.6183552911613,578.6245645398308 M738.6183552911613,578.6245645398308 L736.3387094698879,583.8944672241224 M736.3387094698879,583.8944672241224 L734.2439568319734,589.1493100683496 M734.2439568319734,589.1493100683496 L732.3424393185122,594.3676874662904 M732.3424393185122,594.3676874662904 L730.6416540078775,599.5283936896038 M730.6416540078775,599.5283936896038 L729.1482233721557,604.6105268467572 M729.1482233721557,604.6105268467572 L727.8678678052951,609.5935834380068 M727.8678678052951,609.5935834380068 L726.8053857395149,614.4575492636205 M726.8053857395149,614.4575492636205 L725.9646380256137,619.1829888222796 M725.9646380256137,619.1829888222796 L725.3485370366813,623.7511301108858 M817.6108969299152,497.4196932214676 L817.5638862316538,497.518240510655 M817.5638862316538,497.518240510655 L817.5066280267082,497.61173829921665 M817.5066280267082,497.61173829921665 L817.4424365588317,497.69476415938016 M817.4424365588317,497.69476415938016 L817.3750470282117,497.7624853109444 M817.3750470282117,497.7624853109444 L817.3083690058457,497.8109714046434 M817.3083690058457,497.8109714046434 L817.2462841353077,497.83740102790216 M817.2462841353077,497.83740102790216 L817.1924022567956,497.84023420296364 M817.1924022567956,497.84023420296364 L817.1498497546378,497.81931204519515 M817.1498497546378,497.81931204519515 L817.1210943463219,497.7758507345243 M817.1210943463219,497.7758507345243 L817.1078253226577,497.71236046646527 M817.1078253226577,497.71236046646527 L817.1107978476945,497.63254582365664 M817.1107978476945,497.63254582365664 L817.1298517019264,497.54103961813667 M817.1298517019264,497.54103961813667 L817.1638653767603,497.443163737398 M908.0377720456762,373.282327353481 L907.2787470228926,377.96813833679676 M907.2787470228926,377.96813833679676 L906.3115515280284,382.780550159943 M906.3115515280284,382.780550159943 L905.1401881498333,387.7015133038568 M905.1401881498333,387.7015133038568 L903.7693874418547,392.71264870099503 M903.7693874418547,392.71264870099503 L902.204566935547,397.7952923657306 M902.204566935547,397.7952923657306 L900.451773165377,402.9306702880293 M900.451773165377,402.9306702880293 L898.517717342222,408.0998373288626 M898.517717342222,408.0998373288626 L896.409749461844,413.28374911629237 M896.409749461844,413.28374911629237 L894.135732690091,418.4634254050562 M894.135732690091,418.4634254050562 L891.7041728195424,423.6198805965262 M891.7041728195424,423.6198805965262 L889.124036330804,428.7342889421757 M889.124036330804,428.7342889421757 L886.4048350808845,433.7879385869443 M886.4048350808845,433.7879385869443 L883.5565713236932,438.7623509123862 M883.5565713236932,438.7623509123862 L880.5896303679104,443.63936044210743 M880.5896303679104,443.63936044210743 L877.5148643753811,448.40110180144666 M877.5148643753811,448.40110180144666 L874.3434688890962,453.0301138170121 M874.3434688890962,453.0301138170121 L871.0870040912852,457.5093648372506 M871.0870040912852,457.5093648372506 L867.7573352048449,461.82233340658775 M867.7573352048449,461.82233340658775 L864.3666045564079,465.953023725624 M864.3666045564079,465.953023725624 L860.9271850862066,469.8860649457224 M860.9271850862066,469.8860649457224 L857.4516622225518,473.6067134432292 M857.4516622225518,473.6067134432292 L853.9527915881005,477.10092350779314 M853.9527915881005,477.10092350779314 L850.4434245630304,480.3554335991571 M850.4434245630304,480.3554335991571 L846.9365323976334,483.35772888094573 M846.9365323976334,483.35772888094573 L843.4451017269206,486.0961775577664 M843.4451017269206,486.0961775577664 L839.9821403275565,488.560010327005 M839.9821403275565,488.560010327005 L836.5606087120772,490.73939956588606 M836.5606087120772,490.73939956588606 L833.1933789221272,492.6254957158309 M833.1933789221272,492.6254957158309 L829.8932016819684,494.21044906827876 M829.8932016819684,494.21044906827876 L826.6726502913174,495.4874841094452 M826.6726502913174,495.4874841094452 L823.5440734982811,496.45089445633266 M823.5440734982811,496.45089445633266 L820.5195604168406,497.09610856875804 M820.5195604168406,497.09610856875804 L817.6108969299152,497.4196932214676 M571.4179099321965,613.358734890048 L908.0377720456762,373.282327353481 M564.9040961450444,687.4030057668591 L571.4179099321965,613.358734890048 M553.1234414066297,695.9788910429094 L564.9040961450444,687.4030057668591 M546.9156977698852,768.1717463032758 L553.1234414066297,695.9788910429094 M725.3485370366813,623.7511301108858 L711.4430837796068,615.7560630328702 M711.4430837796068,615.7560630328702 L709.9673460653954,628.8341461047378 M532.9436693585845,759.5287951985724 L538.9525088952036,687.4030057668591 M550.7391251636507,678.8698982785689 L538.9525088952036,687.4030057668591 M550.7391251636507,678.8698982785689 L557.0485658095259,604.8995494390507 M893.9067891083972,365.9917289340004 L557.0485658095259,604.8995494390507 M893.9067891083972,365.9917289340004 L893.1602503263508,370.67207766882495 M893.1602503263508,370.67207766882495 L892.2052832630137,375.478362788078 M892.2052832630137,375.478362788078 L891.0458451629053,380.3925575761127 M891.0458451629053,380.3925575761127 L889.6866226966689,385.3963077627453 M889.6866226966689,385.3963077627453 L888.1329909937969,390.4709760342479 M888.1329909937969,390.4709760342479 L886.3909560433316,395.5978166730205 M886.3909560433316,395.5978166730205 L884.4671902858787,400.7579146332507 M884.4671902858787,400.7579146332507 L882.3690068649072,405.9322573522451 M882.3690068649072,405.9322573522451 L880.1042341264668,411.1018976793108 M880.1042341264668,411.1018976793108 L877.6813452534151,416.2478848576807 M877.6813452534151,416.2478848576807 L875.1092762627405,421.3514291371148 M875.1092762627405,421.3514291371148 L872.397510798684,426.3938561363341 M872.397510798684,426.3938561363341 L869.5560253382522,431.3567259926483 M869.5560253382522,431.3567259926483 L866.5951817420806,436.2219129476889 M866.5951817420806,436.2219129476889 L863.5258112508913,440.97159260113085 M863.5258112508913,440.97159260113085 L860.3590909282883,445.58834562465336 M860.3590909282883,445.58834562465336 L857.1065650379209,450.0551831662972 M857.1065650379209,450.0551831662972 L853.780085483659,454.35562733460677 M853.780085483659,454.35562733460677 L850.3917838041131,458.47372660010967 M850.3917838041131,458.47372660010967 L846.9540248200416,462.394154918657 M846.9540248200416,462.394154918657 L843.4793884289112,466.10221397630744 M843.4793884289112,466.10221397630744 L839.9806273718101,469.5839037287353 M839.9806273718101,469.5839037287353 L836.4705928070742,472.8260083998165 M836.4705928070742,472.8260083998165 L832.9622583517865,475.8160591211905 M832.9622583517865,475.8160591211905 L829.4686156739161,478.54246988006696 M829.4686156739161,478.54246988006696 L826.0026801777948,480.994517001355 M826.0026801777948,480.994517001355 L822.5774226126813,483.16241807715835 M822.5774226126813,483.16241807715835 L819.2057278330061,485.0373681955173 M819.2057278330061,485.0373681955173 L815.9003619018787,486.61156159932784 M815.9003619018787,486.61156159932784 L812.6739160303545,487.8782657961416 M812.6739160303545,487.8782657961416 L809.5387592792368,488.83181633214804 M809.5387592792368,488.83181633214804 L806.507003568065,489.467682326788 M806.507003568065,489.467682326788 L803.5904599522888,489.78246977853837 M803.1421364501704,489.80460544482526 L803.1083250504167,489.9023163545861 M803.1083250504167,489.9023163545861 L803.0894992316424,489.9937059504575 M803.0894992316424,489.9937059504575 L803.0867672818714,490.0734591679717 M803.0867672818714,490.0734591679717 L803.1002754207008,490.1369467242514 M803.1002754207008,490.1369467242514 L803.1292545925515,490.18046424965144 M803.1292545925515,490.18046424965144 L803.1720024980731,490.20149821504117 M803.1720024980731,490.20149821504117 L803.2260400807064,490.19882595495153 M803.2260400807064,490.19882595495153 L803.2882319052961,490.17259701758974 M803.2882319052961,490.17259701758974 L803.3549619228187,490.12433970755774 M803.3549619228187,490.12433970755774 L803.4223454576905,490.05686211869113 M803.4223454576905,490.05686211869113 L803.4864732894349,489.97408046979206 M803.4864732894349,489.97408046979206 L803.5436139234863,489.88081333193816 M803.5436139234863,489.88081333193816 L803.5904599522888,489.78246977853837 M711.4430837796068,615.7560630328702 L712.0469355373101,611.1926087562529 M712.0469355373101,611.1926087562529 L712.875610031782,606.4726574989895 M712.875610031782,606.4726574989895 L713.9262432696738,601.6149597477689 M713.9262432696738,601.6149597477689 L715.1950222461202,596.6389258085273 M715.1950222461202,596.6389258085273 L716.6771956263914,591.5645411178373 M716.6771956263914,591.5645411178373 L718.3670891460921,586.4122769794774 M718.3670891460921,586.4122769794774 L720.2581252783269,581.2029998110986 M720.2581252783269,581.2029998110986 L722.3428504952798,575.9578767748368 M722.3428504952798,575.9578767748368 L724.6129647741556,570.6982720215068 M724.6129647741556,570.6982720215068 L727.0593567659665,565.4456637815184 M727.0593567659665,565.4456637815184 L729.6721452525245,560.2215197763403 M729.6721452525245,560.2215197763403 L732.4407222029141,555.0472195368159 M732.4407222029141,555.0472195368159 L735.3538024968669,549.9439328089605 M735.3538024968669,549.9439328089605 L738.3994764727812,544.9325471424999 M738.3994764727812,544.9325471424999 L741.5652665788301,540.0335288198261 M741.5652665788301,540.0335288198261 L744.8381819733637,535.2668721021765 M744.8381819733637,535.2668721021765 L748.2047915410855,530.6519668294825 M748.2047915410855,530.6519668294825 L751.6512734086949,526.2075301496923 M751.6512734086949,526.2075301496923 L755.1634912182218,521.9515260572123 M755.1634912182218,521.9515260572123 L758.727059869878,517.9010596376947 M758.727059869878,517.9010596376947 L762.3274040084237,514.0723340090993 M762.3274040084237,514.0723340090993 L765.9498491149312,510.4805308091775 M765.9498491149312,510.4805308091775 L769.5796662605643,507.1398116459487 M769.5796662605643,507.1398116459487 L773.2021435819996,504.06320710599834 M773.2021435819996,504.06320710599834 L776.8026647162063,501.2625880786825 M776.8026647162063,501.2625880786825 L780.3667768459967,498.74861636053447 M780.3667768459967,498.74861636053447 L783.8802286847211,496.5307086694693 M783.8802286847211,496.5307086694693 L787.3290662718299,494.61699555458085 M787.3290662718299,494.61699555458085 L790.6996627680095,493.0143291070501 M790.6996627680095,493.0143291070501 L793.9787938407839,491.7282239138823 M793.9787938407839,491.7282239138823 L797.1536738236167,490.762882002854 M797.1536738236167,490.762882002854 L800.2120357192849,490.12116166290434 M800.2120357192849,490.12116166290434 L803.1421364501704,489.80460544482526 M538.9525088952036,687.4030057668591 L553.1234414066297,695.9788910429094 M817.1638653767603,497.443163737398 L803.1421364501704,489.80460544482526 M817.6108969299152,497.4196932214676 L803.5904599522888,489.78246977853837 M908.0377720456762,373.282327353481 L893.9067891083972,365.9917289340004 M564.9040961450444,687.4030057668591 L550.7391251636507,678.8698982785689" stroke="black"  stroke-width="4"  fill="red"/>
<path d="M801.0464843409876,570.5356163359213 L802.5663420827296,558.6344079174122 M802.5663420827296,558.6344079174122 L802.7243187333385,558.7429199637253 M802.7243187333385,558.7429199637253 L802.8412653843221,558.8686358054925 M802.8412653843221,558.8686358054925 L802.9104211012226,559.0042592554397 M802.9104211012226,559.0042592554397 L802.9277173467048,559.1418810553431 M802.9277173467048,559.1418810553431 L802.8921773739224,559.2735461635199 M802.8921773739224,559.2735461635199 L802.8058195827542,559.3915562757849 M802.8058195827542,559.3915562757849 L802.6737039499361,559.4890691295025 M802.6737039499361,559.4890691295025 L802.5034899084595,559.5604266678063 M802.5034899084595,559.5604266678063 L802.3050351898845,559.6014524794264 M802.3050351898845,559.6014524794264 L802.0899519465726,559.609779992096 M802.0899519465726,559.609779992096 L801.8706741385996,559.5849086948281 M801.8706741385996,559.5849086948281 L801.6600022796632,559.5283092201093 M801.6600022796632,559.5283092201093 L801.4701685992235,559.4432500843803 M801.4701685992235,559.4432500843803 L801.3121996891435,559.3346918745826 M801.3121996891435,559.3346918745826 L801.1952948726483,559.2089404440571 M801.1952948726483,559.2089404440571 L801.12624984463,559.0733248183748 M801.12624984463,559.0733248183748 L801.1090292428845,558.935708748368 M801.1090292428845,558.935708748368 L801.1446368539763,558.8040706521642 M801.1446368539763,558.8040706521642 L801.2310387551335,558.6861026380681 M801.2310387551335,558.6861026380681 L801.3631648823977,558.5886373266641 M801.3631648823977,558.5886373266641 L801.5333534003972,558.5173218914724 M801.5333534003972,558.5173218914724 L801.7317524041254,558.4763230839812 M801.7317524041254,558.4763230839812 L801.9467625335052,558.4680013020355 M801.9467625335052,558.4680013020355 L802.1659222098407,558.4928310576124 M802.1659222098407,558.4928310576124 L802.3765365235148,558.549394947573 M802.3765365235148,558.549394947573 L802.5663420827296,558.6344079174122 M801.0464843409876,570.5356163359213 L800.8571144973174,570.4504743397468 M800.8571144973174,570.4504743397468 L800.646966255338,570.3938245962503 M800.646966255338,570.3938245962503 L800.4282758831577,570.3689571524067 M800.4282758831577,570.3689571524067 L800.2137111285177,570.3772915657978 M800.2137111285177,570.3772915657978 L800.0157077664722,570.4183526031709 M800.0157077664722,570.4183526031709 L799.8458420190801,570.4897762791311 M799.8458420190801,570.4897762791311 L799.7139471289705,570.5873895104712 M799.7139471289705,570.5873895104712 L799.6276715183177,570.7055365446381 M799.6276715183177,570.7055365446381 L799.5920777912389,570.8373743847989 M799.5920777912389,570.8373743847989 L799.6091991448731,570.9751992460243 M799.6091991448731,570.9751992460243 L799.6780375444729,571.1110206043005 M799.6780375444729,571.1110206043005 L799.7946402404317,571.2369627822798 M799.7946402404317,571.2369627822798 L799.952229101469,571.3456856436381 M799.952229101469,571.3456856436381 L800.1416269277585,571.4308737791295 M800.1416269277585,571.4308737791295 L800.3518324584146,571.4875590869019 M800.3518324584146,571.4875590869019 L800.5706405424313,571.5124681001827 M800.5706405424313,571.5124681001827 L800.7852781084001,571.5041279593659 M800.7852781084001,571.5041279593659 L800.9833369650979,571.4630399334073 M800.9833369650979,571.4630399334073 L801.1532281487504,571.3915741785695 M801.1532281487504,571.3915741785695 L801.2851126100637,571.293913432281 M801.2851126100637,571.293913432281 L801.3713443142145,571.1757243241767 M801.3713443142145,571.1757243241767 L801.4068706977677,571.043859487591 M801.4068706977677,571.043859487591 L801.3896740188267,570.9060288997671 M801.3896740188267,570.9060288997671 L801.3207253035858,570.7701996700724 M801.3207253035858,570.7701996700724 L801.2040809314425,570.6442930603666 M801.2040809314425,570.6442930603666 L801.0464843409876,570.5356163359213 M803.3881189155292,558.0280369695586 L803.7830888405337,558.2992490821106 M803.7830888405337,558.2992490821106 L804.0755242221368,558.6134503936877 M804.0755242221368,558.6134503936877 L804.2485198808625,558.9524619844079 M804.2485198808625,558.9524619844079 L804.291911984954,559.2965488308959 M804.291911984954,559.2965488308959 L804.2031529100303,559.6257314015581 M804.2031529100303,559.6257314015581 L803.9873717486377,559.920841826383 M803.9873717486377,559.920841826383 L803.6570772991676,560.1647316850081 M803.6570772991676,560.1647316850081 L803.2314805117013,560.3431860094714 M803.2314805117013,560.3431860094714 L802.7352919396511,560.4458197436236 M802.7352919396511,560.4458197436236 L802.19741192396,560.4666461921513 M802.19741192396,560.4666461921513 L801.6491053344504,560.4044455607852 M801.6491053344504,560.4044455607852 L801.1223524705596,560.2628831849248 M801.1223524705596,560.2628831849248 L800.6476849897609,560.0501425471006 M800.6476849897609,560.0501425471006 L800.2528078034251,559.7786665910977 M800.2528078034251,559.7786665910977 L799.9605895221326,559.4642181730006 M799.9605895221326,559.4642181730006 L799.788052835545,559.1251258918451 M799.788052835545,559.1251258918451 L799.7451335402019,558.7810748639733 M799.7451335402019,558.7810748639733 L799.834315305461,558.4520611047875 M799.834315305461,558.4520611047875 L800.0503721780375,558.1572137968341 M800.0503721780375,558.1572137968341 L800.3807322232286,557.9136211021134 M800.3807322232286,557.9136211021134 L800.8061694602633,557.7354298961818 M800.8061694602633,557.7354298961818 L801.3020098675507,557.6329649691249 M801.3020098675507,557.6329649691249 L801.8394328861015,557.6121743326755 M801.8394328861015,557.6121743326755 L802.3872339822454,557.6742449026551 M802.3872339822454,557.6742449026551 L802.9136715519093,557.8156095433437 M802.9136715519093,557.8156095433437 L803.3881189155292,558.0280369695586 M803.566987433555,556.6288430161184 L803.9620691151459,556.9000064447156 M803.9620691151459,556.9000064447156 L804.2545934201984,557.2141513692787 M804.2545934201984,557.2141513692787 L804.4276500224047,557.553102137016 M804.4276500224047,557.553102137016 L804.4710715106925,557.8971272674889 M804.4710715106925,557.8971272674889 L804.3823085376517,558.2262508119255 M804.3823085376517,558.2262508119255 L804.1664904042833,558.521308333796 M804.1664904042833,558.521308333796 L803.8361280442078,558.7651544813247 M803.8361280442078,558.7651544813247 L803.4104363544021,558.9435768279805 M803.4104363544021,558.9435768279805 L802.914131400452,559.0461921730139 M802.914131400452,559.0461921730139 L802.3761203087673,559.0670148902113 M802.3761203087673,559.0670148902113 L801.8276755772193,559.0048254030925 M801.8276755772193,559.0048254030925 L801.3007855741884,558.8632883925687 M801.3007855741884,558.8632883925687 L800.8259899123904,558.6505858795202 M800.8259899123904,558.6505858795202 L800.4310009898278,558.3791585839247 M800.4310009898278,558.3791585839247 L800.1386938892678,558.0647665425298 M800.1386938892678,558.0647665425298 L799.9660964694755,557.7257350729466 M799.9660964694755,557.7257350729466 L799.9231480242335,557.3817457634634 M799.9231480242335,557.3817457634634 L800.0123339044927,557.0527910416899 M800.0123339044927,557.0527910416899 L800.2284278988146,556.7579966541269 M800.2284278988146,556.7579966541269 L800.558855902971,556.5144476901951 M800.558855902971,556.5144476901951 L800.9843879782137,556.3362884795073 M800.9843879782137,556.3362884795073 L801.4803446054608,556.2338419527555 M801.4803446054608,556.2338419527555 L802.0178984773653,556.2130550500095 M802.0178984773653,556.2130550500095 L802.5658374709739,556.2751144731865 M802.5658374709739,556.2751144731865 L803.0924120032042,556.4164537293715 M803.0924120032042,556.4164537293715 L803.566987433555,556.6288430161184 M803.566987433555,556.6288430161184 L803.3881189155292,558.0280369695586" stroke="black"  stroke-width="4"  fill="red"/>
<path d="M86.13586735235566,268.66495397840373 L-92.83125915242266,372.43094866862714 M86.13586735235566,268.66495397840373 L75.1277580076922,262.3094204973343 M-103.82708346123945,365.62904639220886 L75.1277580076922,262.3094204973343 M-92.83125915242266,372.43094866862714 L-103.82708346123945,365.62904639220886 M-92.83125915242266,372.43094866862714 L-94.78860001229032,303.87912402334337 M-94.78860001229032,303.87912402334337 L-82.9164937382526,297.14998415014975 M-82.9164937382526,297.14998415014975 L-84.77583109505684,227.05964568000667 M-84.77583109505684,227.05964568000667 L257.46112040429523,37.63029739491185 M257.46112040429523,37.63029739491185 L257.22477861831726,42.037671171882266 M257.22477861831726,42.037671171882266 L256.7720973621782,46.54287832285365 M256.7720973621782,46.54287832285365 L256.1051525710641,51.12900721402718 M256.1051525710641,51.12900721402718 L255.22680031946686,55.778902649178235 M255.22680031946686,55.778902649178235 L254.14063735591276,60.475205197543005 M254.14063735591276,60.475205197543005 L252.85095948855587,65.20051375200813 M252.85095948855587,65.20051375200813 L251.36279371534238,69.93733265555045 M251.36279371534238,69.93733265555045 L249.68187870391716,74.6681393910568 M249.68187870391716,74.6681393910568 L247.81454549066586,79.3755284330366 M247.81454549066586,79.3755284330366 L245.7678529293962,84.04216167070012 M245.7678529293962,84.04216167070012 L243.54940529973248,88.6509074601463 M243.54940529973248,88.6509074601463 L241.16744043953884,93.18480839044184 M241.16744043953884,93.18480839044184 L238.63078307361036,97.62719133982819 M238.63078307361036,97.62719133982819 L235.9487343090534,101.96173332602211 M235.9487343090534,101.96173332602211 L233.13116264544112,106.17246073959711 M233.13116264544112,106.17246073959711 L230.18837836227522,110.24383636777566 M230.18837836227522,110.24383636777566 L227.1311593832096,114.16078785739694 M227.1311593832096,114.16078785739694 L223.97069386124133,117.90877960533851 M223.97069386124133,117.90877960533851 L220.7185496188423,121.47382556869212 M220.7185496188423,121.47382556869212 L217.3866337111059,124.84258030575563 M217.3866337111059,124.84258030575563 L213.98717104769912,128.00233993012375 M213.98717104769912,128.00233993012375 L210.5326648905792,130.94110576172352 M210.5326648905792,130.94110576172352 L207.0358234878463,133.6476588549491 M207.0358234878463,133.6476588549491 L203.50958076031498,136.11152719244012 M203.50958076031498,136.11152719244012 L199.96699596298242,138.32310430408586 M199.96699596298242,138.32310430408586 L196.42125618624516,140.2736300619228 M196.42125618624516,140.2736300619228 L192.8856090673455,141.95525821231 M192.8856090673455,141.95525821231 L189.3733204386125,143.36108578869647 M189.3733204386125,143.36108578869647 L185.8976395411048,144.48516927372498 M185.8976395411048,144.48516927372498 L182.4717452153012,145.32258827163798 M182.4717452153012,145.32258827163798 L179.10869202803474,145.86943368953456 M179.10869202803474,145.86943368953456 L175.82137911976503,146.12286525331336 M175.82137911976503,146.12286525331336 L172.6225017082823,146.08110796447528 M172.6225017082823,146.08110796447528 L172.58280367053243,146.17013960102906 M172.58280367053243,146.17013960102906 L172.5310412229365,146.2530741010715 M172.5310412229365,146.2530741010715 L172.4702092334063,146.3251007428869 M172.4702092334063,146.3251007428869 L172.4038473179702,146.38202675132578 M172.4038473179702,146.38202675132578 L172.335805337966,146.42054809131395 M172.335805337966,146.42054809131395 L172.270044569415,146.43842344900622 M172.270044569415,146.43842344900622 L172.21038819399922,146.43461045681568 M172.21038819399922,146.43461045681568 L172.160298335013,146.40933578871244 M172.160298335013,146.40933578871244 L172.12268011611417,146.3640680690167 M172.12268011611417,146.3640680690167 L172.0997378587088,146.3014253904807 M172.0997378587088,146.3014253904807 L172.09278886641243,146.22506062132396 M172.09278886641243,146.22506062132396 L172.1022501204921,146.13940780639172 M172.1022501204921,146.13940780639172 L172.12755642879847,146.04944670572985 M172.12755642879847,146.04944670572985 L168.9146832608791,146.00780280366592 M168.9146832608791,146.00780280366592 L165.60084902330794,146.26361649142814 M165.60084902330794,146.26361649142814 L162.1988977173615,146.81669526129235 M162.1988977173615,146.81669526129235 L158.72207717209045,147.6656497801648 M158.72207717209045,147.6656497801648 L155.18402973501594,148.8078682178047 M155.18402973501594,148.8078682178047 L151.59870763522343,150.23953850250768 M151.59870763522343,150.23953850250768 L147.98033020372253,151.95562164582645 M147.98033020372253,151.95562164582645 L144.34330828509474,153.94990096014033 M144.34330828509474,153.94990096014033 L140.7022110705234,156.214972286136 M140.7022110705234,156.214972286136 L137.07166605947612,158.74227306889213 M137.07166605947612,158.74227306889213 L133.4663226311278,161.52211310020687 M133.4663226311278,161.52211310020687 L129.9007841224685,164.54371431245096 M129.9007841224685,164.54371431245096 L126.38952597867575,167.7952291356138 M126.38952597867575,167.7952291356138 L122.94683194169028,171.263838478104 M122.94683194169028,171.263838478104 L119.58674595594573,174.93574454110848 M119.58674595594573,174.93574454110848 L116.32298783001511,178.79627407553363 M116.32298783001511,178.79627407553363 L113.16889554653545,182.82991176499195 M113.16889554653545,182.82991176499195 L110.13736729207665,187.0203927406041 M110.13736729207665,187.0203927406041 L107.24078867050366,191.35076929094515 M107.24078867050366,191.35076929094515 L104.49098794794645,195.8034688351562 M104.49098794794645,195.8034688351562 L101.89917312287417,200.3604105543145 M101.89917312287417,200.3604105543145 L99.4758791636508,205.0030455885203 M99.4758791636508,205.0030455885203 L97.23092372594311,209.7124817911519 M97.23092372594311,209.7124817911519 L95.17335901207241,214.4695448160134 M95.17335901207241,214.4695448160134 L93.31143262754813,219.25488681137983 M93.31143262754813,219.25488681137983 L91.65255019195536,224.0490536968549 M91.65255019195536,224.0490536968549 L90.20324527927522,228.83259781001703 M90.20324527927522,228.83259781001703 L88.96915095326841,233.58615131389087 M88.96915095326841,233.58615131389087 L87.95497990446415,238.29052047949648 M87.95497990446415,238.29052047949648 L87.16450568853156,242.926771379 M87.16450568853156,242.926771379 L86.60055169751746,247.47631322109538 M86.60055169751746,247.47631322109538 L86.26498445747899,251.92098100090294 M86.26498445747899,251.92098100090294 L86.1587113863635,256.24311457320846 M86.1587113863635,256.24311457320846 L86.13586735235566,268.66495397840373 M86.1587113863635,256.24311457320846 L75.12775920171521,249.9007680836557 M75.12775920171521,249.9007680836557 L75.1277580076922,262.3094204973343 M75.12775920171521,249.9007680836557 L75.22618900365865,245.58342843277785 M75.22618900365865,245.58342843277785 L75.5539312452176,241.14411731735163 M75.5539312452176,241.14411731735163 L76.1101092123788,236.6004735088656 M76.1101092123788,236.6004735088656 L76.89288714896139,231.97063808847884 M76.89288714896139,231.97063808847884 L77.89947237050222,227.273175483273 M77.89947237050222,227.273175483273 L79.1261218331473,222.52699094222226 M79.1261218331473,222.52699094222226 L80.56815302863242,217.75124733929215 M80.56815302863242,217.75124733929215 L82.21996261218811,212.96527963884773 M82.21996261218811,212.96527963884773 L84.07504611323492,208.1885007859123 M84.07504611323492,208.1885007859123 L86.1260262913516,203.44032846676743 M86.1260262913516,203.44032846676743 L88.36468301273754,198.7400726775187 M88.36468301273754,198.7400726775187 L90.78199054376734,194.1068686273594 M90.78199054376734,194.1068686273594 L93.36815652075671,189.55956827312372 M93.36815652075671,189.55956827312372 L96.11267001104392,185.11667942448764 M96.11267001104392,185.11667942448764 L99.00434559128723,180.79624124353995 M99.00434559128723,180.79624124353995 L102.03137606824515,176.61578422235175 M102.03137606824515,176.61578422235175 L105.18139523452209,172.59221382558536 M105.18139523452209,172.59221382558536 L108.44152253660627,168.7417526914225 M108.44152253660627,168.7417526914225 L111.7984357873475,165.0798741516084 M111.7984357873475,165.0798741516084 L115.23842899752356,161.62120994435816 M115.23842899752356,161.62120994435816 L118.74747003641596,158.37951698906176 M118.74747003641596,158.37951698906176 L122.31128484045507,155.36757440643652 M122.31128484045507,155.36757440643652 L125.9154055443567,152.59719079016003 M125.9154055443567,152.59719079016003 L129.545234152607,150.07910645068353 M129.545234152607,150.07910645068353 L133.18612441873745,147.82297522191345 M133.18612441873745,147.82297522191345 L136.82344974442606,145.83732482479712 M136.82344974442606,145.83732482479712 L140.44263957000072,144.12952621184996 M140.44263957000072,144.12952621184996 L144.02927945112162,142.70576468399253 M144.02927945112162,142.70576468399253 L147.56914426608114,141.57104969070156 M147.56914426608114,141.57104969070156 L151.04827378506383,140.7291657759166 M151.04827378506383,140.7291657759166 L154.4530155394727,140.18269927212953 M154.4530155394727,140.18269927212953 L157.770109508066,139.9330161881341 M157.770109508066,139.9330161881341 L160.98669748420002,139.98028783643622 M160.98669748420002,139.98028783643622 L160.9615308296565,140.07010638617652 M160.9615308296565,140.07010638617652 L160.95221913403282,140.15564931983215 M160.95221913403282,140.15564931983215 L160.95931891242742,140.23194329383995 M160.95931891242742,140.23194329383995 L160.98240441464128,140.2945583504353 M160.98240441464128,140.2945583504353 L161.0201500092336,140.3398432674158 M161.0201500092336,140.3398432674158 L161.0703439771961,140.3651789049086 M161.0703439771961,140.3651789049086 L161.13007515280913,140.369093102992 M161.13007515280913,140.369093102992 L161.1958770620805,140.35135331769055 M161.1958770620805,140.35135331769055 L161.26392413682845,140.31299402945064 M161.26392413682845,140.31299402945064 L161.33025480061616,140.2562471183577 M161.33025480061616,140.2562471183577 L161.39102100625604,140.18440622812147 M161.39102100625604,140.18440622812147 L161.44268696691802,140.10165332514578 M161.44268696691802,140.10165332514578 L161.48226341873078,140.01278861319167 M246.21532468451403,31.828253696724232 L245.98708008451865,36.23032977900891 M245.98708008451865,36.23032977900891 L245.54242118696823,40.72977467161195 M245.54242118696823,40.72977467161195 L244.88339354755988,45.30969800846344 M244.88339354755988,45.30969800846344 L244.01282349082203,49.95296724256394 M244.01282349082203,49.95296724256394 L242.93427868175036,54.642246885454256 M242.93427868175036,54.642246885454256 L241.65202677696766,59.3601608403942 M241.65202677696766,59.3601608403942 L240.17106749685547,64.08923966963732 M240.17106749685547,64.08923966963732 L238.49711321152324,68.81198820585706 M238.49711321152324,68.81198820585706 L236.63646976738153,73.51102907223668 M236.63646976738153,73.51102907223668 L234.59617199981278,78.16905342485904 M234.59617199981278,78.16905342485904 L232.38380137833792,82.76895957162384 M232.38380137833792,82.76895957162384 L230.00757417359182,87.29382095802754 M230.00757417359182,87.29382095802754 L227.47629492572753,91.72699605595994 M227.47629492572753,91.72699605595994 L224.7992459168155,96.05219398294213 M224.7992459168155,96.05219398294213 L221.9862782713443,100.25347392491034 M221.9862782713443,100.25347392491034 L219.04768633880064,104.31533187701405 M219.04768633880064,104.31533187701405 L215.99423362187406,108.22272914807922 M215.99423362187406,108.22272914807922 L212.83709540677705,111.96116409862384 M212.83709540677705,111.96116409862384 L209.5878281678646,115.51668490629561 M209.5878281678646,115.51668490629561 L206.25832923068515,118.87598045768976 M206.25832923068515,118.87598045768976 L202.86081534573464,122.02638128034556 M202.86081534573464,122.02638128034556 L199.4077832348014,124.95592306907673 M199.4077832348014,124.95592306907673 L195.91193625436222,127.65342101445441 M195.91193625436222,127.65342101445441 L192.38620502064748,130.10843707362454 M192.38620502064748,130.10843707362454 L188.843647153671,132.31139828699543 M188.843647153671,132.31139828699543 L185.29744972330644,134.2535775956893 M185.29744972330644,134.2535775956893 L181.76086198879943,135.9271611762158 M181.76086198879943,135.9271611762158 L178.24715303449113,137.32527773651464 M178.24715303449113,137.32527773651464 L174.76957695699417,138.44201458510906 M174.76957695699417,138.44201458510906 L171.34131909904227,139.27248112195878 M171.34131909904227,139.27248112195878 L167.97544208070838,139.81279691594398 M167.97544208070838,139.81279691594398 L164.68485471005113,140.06014907893996 M164.68485471005113,140.06014907893996 L161.48226341873078,140.01278861319167 M246.21532468451403,31.828253696724232 L-96.02322693407064,220.4383408778699 M-94.03750451044169,290.45058600650543 L-96.02322693407064,220.4383408778699 M-94.03750451044169,290.45058600650543 L-105.9079470058739,297.14998011664005 M-103.82708346123945,365.62904639220886 L-105.9079470058739,297.14998011664005 M-105.9079470058739,297.14998011664005 L-94.78860001229032,303.87912402334337 M172.12755642879847,146.04944670572985 L160.98669748420002,139.98028783643622 M172.6225017082823,146.08110796447528 L161.48226341873078,140.01278861319167 M257.46112040429523,37.63029739491185 L246.21532468451403,31.828253696724232 M-84.77583109505684,227.05964568000667 L-96.02322693407064,220.4383408778699 M-82.9164937382526,297.14998415014975 L-94.03750451044169,290.45058600650543" stroke="black"  stroke-width="4"  fill="red"/>
<path d="M166.2582478101018,215.93913889498015 L166.42853630641332,204.65480446486833 M166.42853630641332,204.65480446486833 L166.55081611143845,204.74123760885112 M166.55081611143845,204.74123760885112 L166.63351420091396,204.84137593651843 M166.63351420091396,204.84137593651843 L166.67183297795572,204.94939524707416 M166.67183297795572,204.94939524707416 L166.6635444109437,205.05901699062025 M166.6635444109437,205.05901699062025 L166.60910552189415,205.16388059794934 M166.60910552189415,205.16388059794934 L166.51169313643055,205.25788089812568 M166.51169313643055,205.25788089812568 L166.37697014024718,205.3355498659684 M166.37697014024718,205.3355498659684 L166.2127479549061,205.39238120770165 M166.2127479549061,205.39238120770165 L166.02857722719745,205.42506717702088 M166.02857722719745,205.42506717702088 L165.83518144712576,205.4316965872431 M165.83518144712576,205.4316965872431 L165.64378676724846,205.41189510426932 M165.64378676724846,205.41189510426932 L165.46552441781705,205.36681243997458 M165.46552441781705,205.36681243997458 L165.31076941334493,205.2990639785436 M165.31076941334493,205.2990639785436 L165.1885034289486,205.21259832546843 M165.1885034289486,205.21259832546843 L165.10584413804673,205.11243469807619 M165.10584413804673,205.11243469807619 L165.06758079644817,205.0044034023702 M165.06758079644817,205.0044034023702 L165.075928735999,204.89478573276187 M165.075928735999,204.89478573276187 L165.1304173376642,204.78994132609455 M165.1304173376642,204.78994132609455 L165.22785838323887,204.6959709538861 M165.22785838323887,204.6959709538861 L165.36258242293877,204.61833578294852 M165.36258242293877,204.61833578294852 L165.52677779627692,204.56153436888007 M165.52677779627692,204.56153436888007 L165.7108999970966,204.52886760167405 M165.7108999970966,204.52886760167405 L165.9042366561368,204.52224226325944 M165.9042366561368,204.52224226325944 L166.09557516047158,204.5420317614276 M166.09557516047158,204.5420317614276 L166.27379714909188,204.58708912842764 M166.27379714909188,204.58708912842764 L166.42853630641332,204.65480446486833 M166.2582478101018,215.93913889498015 L166.10380117081053,215.87129030918499 M166.10380117081053,215.87129030918499 L165.9259141775869,215.82614427565528 M165.9259141775869,215.82614427565528 L165.73493366799408,215.8063158337357 M165.73493366799408,215.8063158337357 L165.54195720967164,215.81295421020866 M165.54195720967164,215.81295421020866 L165.35817653438988,215.84568526179953 M165.35817653438988,215.84568526179953 L165.19428414927256,215.90259845118914 M165.19428414927256,215.90259845118914 L165.05980695229994,215.98038638802672 M165.05980695229994,215.98038638802672 L164.96254229102647,216.0745416593236 M164.96254229102647,216.0745416593236 L164.90814934768343,216.1795923479188 M164.90814934768343,216.1795923479188 L164.8998107335101,216.2894256759248 M164.8998107335101,216.2894256759248 L164.93799654261915,216.39766949409278 M164.93799654261915,216.39766949409278 L165.02049592475328,216.49803015316814 M165.02049592475328,216.49803015316814 L165.14252888452404,216.58466588240452 M165.14252888452404,216.58466588240452 L165.2969913110279,216.6525475970215 M165.2969913110279,216.6525475970215 L165.47491851317915,216.6977189303335 M165.47491851317915,216.6977189303335 L165.6659549882503,216.71755935823722 M165.6659549882503,216.71755935823722 L165.85899034748314,216.71091690955632 M165.85899034748314,216.71091690955632 L166.04281936988735,216.67816665396396 M166.04281936988735,216.67816665396396 L166.20673846879168,216.62122353396666 M166.20673846879168,216.62122353396666 L166.34121462807622,216.54340179690035 M166.34121462807622,216.54340179690035 L166.43845073777732,216.44921659469264 M166.43845073777732,216.44921659469264 L166.49279415489428,216.34414670354778 M166.49279415489428,216.34414670354778 L166.50107361805476,216.23430930120327 M166.50107361805476,216.23430930120327 L166.46283257943276,216.12607746936402 M166.46283257943276,216.12607746936402 L166.3802945418825,216.02574211250163 M166.3802945418825,216.02574211250163 L166.2582478101018,215.93913889498015 M167.2665399594265,204.17179514575514 L167.57225552082332,204.38782126574813 M167.57225552082332,204.38782126574813 L167.77908596482382,204.63811214005494 M167.77908596482382,204.63811214005494 L167.8749913670303,204.90813564362895 M167.8749913670303,204.90813564362895 L167.8543676650092,205.18220455421886 M167.8543676650092,205.18220455421886 L167.71837276254183,205.4443949736749 M167.71837276254183,205.4443949736749 L167.47490437823473,205.6794470984413 M167.47490437823473,205.6794470984413 L167.1380732830949,205.87369767760208 M167.1380732830949,205.87369767760208 L166.72747578975725,206.0158271134111 M166.72747578975725,206.0158271134111 L166.26696591883524,206.09757284209962 M166.26696591883524,206.09757284209962 L165.78335358913182,206.1141618482613 M165.78335358913182,206.1141618482613 L165.3047654954592,206.06463303808783 M165.3047654954592,206.06463303808783 L164.85904699138064,205.95187168559414 M164.85904699138064,205.95187168559414 L164.47212255050334,205.7824440315315 M164.47212255050334,205.7824440315315 L164.1664904794029,205.56621311285193 M164.1664904794029,205.56621311285193 L163.95990196128446,205.3157638131512 M163.95990196128446,205.3157638131512 L163.86434357966613,205.04566570894883 M163.86434357966613,205.04566570894883 L163.88533809331403,204.77162210701516 M163.88533809331403,204.77162210701516 L164.02164369567464,204.50955168953328 M164.02164369567464,204.50955168953328 L164.26529120579653,204.27468660924086 M164.26529120579653,204.27468660924086 L164.6021288234357,204.0806472768502 M164.6021288234357,204.0806472768502 L165.01255874132028,203.93870488327013 M165.01255874132028,203.93870488327013 L165.4727653228211,203.857079160127 M165.4727653228211,203.857079160127 L165.95600841314752,203.84051576831206 M165.95600841314752,203.84051576831206 L166.43424486043386,203.8899693622522 M166.43424486043386,203.8899693622522 L166.87971167449416,204.00257290365892 M166.87971167449416,204.00257290365892 L167.2665399594265,204.17179514575514 M167.28673726674117,202.8454675071157 L167.5925213324491,203.06144344441162 M167.5925213324491,203.06144344441162 L167.79939884833112,203.31167618505157 M167.79939884833112,203.31167618505157 L167.89532714558334,203.58163698225053 M167.89532714558334,203.58163698225053 L167.87470081807953,203.8556422581408 M167.87470081807953,203.8556422581408 L167.73867790633585,204.11777181139274 M167.73867790633585,204.11777181139274 L167.4951577494972,204.3527693786932 M167.4951577494972,204.3527693786932 L167.1582541155231,204.5469748769711 M167.1582541155231,204.5469748769711 L166.74756753699126,204.68907133152595 M166.74756753699126,204.68907133152595 L166.28695721310135,204.77079809241496 M166.28695721310135,204.77079809241496 L165.80323891641302,204.78738324948262 M165.80323891641302,204.78738324948262 L165.3245455116953,204.7378659314423 M165.3245455116953,204.7378659314423 L164.87872848636323,204.6251307442464 M164.87872848636323,204.6251307442464 L164.49171804913107,204.45574240797384 M164.49171804913107,204.45574240797384 L164.18601750882812,204.23956167458277 M164.18601750882812,204.23956167458277 L163.9793820239792,203.98917051067286 M163.9793820239792,203.98917051067286 L163.8838008988838,203.7191351137467 M163.8838008988838,203.7191351137467 L163.9047982008754,203.4451551462177 M163.9047982008754,203.4451551462177 L164.04113194959058,203.18314559338216 M164.04113194959058,203.18314559338216 L164.28483131207116,202.9483350681274 M164.28483131207116,202.9483350681274 L164.62174147283605,202.75434081387715 M164.62174147283605,202.75434081387715 L165.03226040368708,202.61243139912307 M165.03226040368708,202.61243139912307 L165.49256730595306,202.5308246422216 M165.49256730595306,202.5308246422216 L165.97591620143794,202.5142650991345 M165.97591620143794,202.5142650991345 L166.4542578051571,202.56370720198527 M166.4542578051571,202.56370720198527 L166.89982302889592,202.67628458007556 M166.89982302889592,202.67628458007556 L167.28673726674117,202.8454675071157 M167.28673726674117,202.8454675071157 L167.2665399594265,204.17179514575514" stroke="black"  stroke-width="4"  fill="red"/>
<path d="M-94.03750451044169,290.45058600650543 L-105.9079470058739,297.14998011664005 M-105.9079470058739,297.14998011664005 L-108.03777204567615,227.05964169341098 M-96.02322693407064,220.4383408778699 L-108.03777204567615,227.05964169341098 M-94.03750451044169,290.45058600650543 L-96.02322693407064,220.4383408778699 M-92.83125915242266,372.43094866862714 L-43.3162327075903,403.0604277902579 M-43.3162327075903,403.0604277902579 L-43.57929789564952,390.06353349245705 M-43.57929789564952,390.06353349245705 L13.935054553657892,425.4957485931659 M14.072196902987912,438.5603120231551 L13.935054553657892,425.4957485931659 M14.072196902987912,438.5603120231551 L269.86998603876316,596.7941574684953 M269.86998603876316,596.7941574684953 L270.3292884996283,583.4496376813229 M270.3292884996283,583.4496376813229 L335.2302357666904,623.4324285131094 M334.61086539323094,636.8421904572901 L335.2302357666904,623.4324285131094 M334.61086539323094,636.8421904572901 L532.9436693585845,759.5287951985724 M532.9436693585845,759.5287951985724 L538.9525088952036,687.4030057668591 M538.9525088952036,687.4030057668591 L553.1234414066297,695.9788910429094 M553.1234414066297,695.9788910429094 L559.4967248736873,621.8608929756 M-108.03777204567615,227.05964169341098 L559.4967248736873,621.8608929756 M-105.9079470058739,297.14998011664005 L-94.78860001229032,303.87912402334337 M-92.83125915242266,372.43094866862714 L-94.78860001229032,303.87912402334337 M564.9040961450444,687.4030057668591 L550.7391251636507,678.8698982785689 M544.5927591915529,750.9283992724168 L550.7391251636507,678.8698982785689 M544.5927591915529,750.9283992724168 L346.32298333607275,628.8345654541686 M346.32298333607275,628.8345654541686 L346.96876831454756,615.4376673288991 M346.96876831454756,615.4376673288991 L282.08106589214367,575.6439392262241 M281.5952550785561,588.9754570085807 L282.08106589214367,575.6439392262241 M281.5952550785561,588.9754570085807 L25.813684171147827,431.46606114936105 M25.813684171147827,431.46606114936105 L25.703163925804404,418.41487822528734 M25.703163925804404,418.41487822528734 L-31.815414437215452,383.1404181537881 M-31.578943210530497,396.1238821425168 L-31.815414437215452,383.1404181537881 M-31.578943210530497,396.1238821425168 L-81.09989976901744,365.6290504694346 M-81.09989976901744,365.6290504694346 L-82.9164937382526,297.14998415014975 M-82.9164937382526,297.14998415014975 L-94.03750451044169,290.45058600650543 M571.4179099321965,613.358734890048 L-96.02322693407064,220.4383408778699 M564.9040961450444,687.4030057668591 L571.4179099321965,613.358734890048 M-92.83125915242266,372.43094866862714 L-81.09989976901744,365.6290504694346 M-94.78860001229032,303.87912402334337 L-82.9164937382526,297.14998415014975 M-31.578943210530497,396.1238821425168 L-43.3162327075903,403.0604277902579 M-31.815414437215452,383.1404181537881 L-43.57929789564952,390.06353349245705 M14.072196902987912,438.5603120231551 L25.813684171147827,431.46606114936105 M13.935054553657892,425.4957485931659 L25.703163925804404,418.41487822528734 M281.5952550785561,588.9754570085807 L269.86998603876316,596.7941574684953 M282.08106589214367,575.6439392262241 L270.3292884996283,583.4496376813229 M334.61086539323094,636.8421904572901 L346.32298333607275,628.8345654541686 M335.2302357666904,623.4324285131094 L346.96876831454756,615.4376673288991 M544.5927591915529,750.9283992724168 L532.9436693585845,759.5287951985724 M550.7391251636507,678.8698982785689 L538.9525088952036,687.4030057668591 M553.1234414066297,695.9788910429094 L564.9040961450444,687.4030057668591 M559.4967248736873,621.8608929756 L571.4179099321965,613.358734890048" stroke="black"  stroke-width="4"  fill="red"/></svg>