<svg viewBox="0 0 800 800" xmlns="http://www.w3.org/2000/svg"><path d="M640.7014187202731,257.6566626635431 L640.7021454640853,257.6004979888421 M159.27794421203726,542.3858259579029 L159.27866563863063,542.3296581778231 M640.7014187202731,257.6566626635431 L693.0445858161911,295.8579323268168 M693.0445858161911,295.8579323268168 L728.3640484106436,340.11699779782066 M728.3640484106436,340.11699779782066 L744.5986590677858,387.85598137251145 M744.5986590677858,387.85598137251145 L740.8088311259853,436.30495357271866 M740.8088311259853,436.30495357271866 L717.2103286090787,482.6452353269997 M717.2103286090787,482.6452353269997 L675.1753564816609,524.1853791918365 M675.1753564816609,524.1853791918365 L617.1462069243426,558.5095432366688 M617.1462069243426,558.5095432366688 L546.4946436506289,583.6226705853078 M546.4946436506289,583.6226705853078 L467.32907616758894,598.064736169501 M467.32907616758894,598.064736169501 L384.24768630145263,600.9951012401616 M384.24768630145263,600.9951012401616 L302.0850380527627,592.24530647762 M302.0850380527627,592.24530647762 L225.60980494965042,572.3212672883565 M225.60980494965042,572.3212672883565 L159.27794421203726,542.3858259579029 M640.7021454640853,257.6004979888421 L693.0453131578615,295.80176723543264 M693.0453131578615,295.80176723543264 L728.3647761610555,340.0608322236985 M728.3647761610555,340.0608322236985 L744.5993870139282,387.79981527771815 M744.5993870139282,387.79981527771815 L740.8095590434896,436.2487869495126 M740.8095590434896,436.2487869495126 L717.2110562752641,482.58906819842014 M717.2110562752641,482.58906819842014 L675.176083688355,524.129211610234 M675.176083688355,524.129211610234 L617.1469334901121,558.4533752807583 M617.1469334901121,558.4533752807583 L546.4953694312935,583.5665023555448 M546.4953694312935,583.5665023555448 L467.32980106458854,598.0085677822535 M467.32980106458854,598.0085677822535 L384.2484102675735,600.9389328209545 M384.2484102675735,600.9389328209545 L302.0857610950043,592.1891381538226 M302.0857610950043,592.1891381538226 L225.6105271286142,572.2650991818336 M225.6105271286142,572.2650991818336 L159.27866563863063,542.3296581778231 M159.27794421203726,542.3858259579029 L106.9339431368644,504.17496529046184 M106.9339431368644,504.17496529046184 L71.6230313009728,459.9101803264675 M71.6230313009728,459.9101803264675 L55.40061298607179,412.16848734571613 M55.40061298607179,412.16848734571613 L59.20348259382445,363.720436195752 M59.20348259382445,363.720436195752 L82.81288766962098,317.38449494692395 M82.81288766962098,317.38449494692395 L124.85412613046356,275.8511168234254 M124.85412613046356,275.8511168234254 L182.88347000134672,241.5345936900594 M182.88347000134672,241.5345936900594 L253.52911105566454,216.42823205188324 M253.52911105566454,216.42823205188324 L332.6839967459455,201.99050705958507 M332.6839967459455,201.99050705958507 L415.7523917857179,199.06106279537926 M415.7523917857179,199.06106279537926 L497.90270988938573,207.80814820429077 M497.90270988938573,207.80814820429077 L574.3691013289135,227.72646774835448 M574.3691013289135,227.72646774835448 L640.7014187202731,257.6566626635431 M159.27866563863063,542.3296581778231 L106.93466396562144,504.1187979270835 M106.93466396562144,504.1187979270835 L71.6237517211921,459.8540134458308 M71.6237517211921,459.8540134458308 L55.401333210844314,412.1123209857542 M55.401333210844314,412.1123209857542 L59.20420284748252,363.66427036418827 M59.20420284748252,363.66427036418827 L82.81360817488167,317.32832962074826 M82.81360817488167,317.32832962074826 L124.85484709534649,275.7949519502654 M124.85484709534649,275.7949519502654 L182.8841916071542,241.4784291912074 M182.8841916071542,241.4784291912074 L253.52983344646782,216.37206782689464 M253.52983344646782,216.37206782689464 L332.68472002015915,201.93434299208457 M332.68472002015915,201.93434299208457 L415.753115990512,199.00489875983476 M415.753115990512,199.00489875983476 L497.9034350177899,207.75198407332937 M497.9034350177899,207.75198407332937 L574.3698273204209,227.67030340012934 M574.3698273204209,227.67030340012934 L640.7021454640853,257.6004979888421" stroke="black"  stroke-width="4"  fill="red"/></svg>