<svg viewBox="0 0 800 800" xmlns="http://www.w3.org/2000/svg"><path d="M232.94855218868565,185.36239844344848 L58.01633495418815,276.9644762504423 M58.01633626199293,263.37336934440015 L58.01633495418815,276.9644762504423 M58.01633626199293,263.37336934440015 L58.016000290196075,263.2631314405182 M58.016000290196075,263.2631314405182 L58.01579870161868,263.15281963154916 M58.01579870161868,263.15281963154916 L58.01573150380176,263.04243392193706 M233.3237899835225,171.71384900632125 L58.01573150380176,263.04243392193706 M232.94855218868565,185.36239844344848 L233.3237899835225,171.71384900632125 M740.868124548502,634.535135350678 L726.1849901016146,626.846412641245 M553.071888861849,744.2875160526497 L726.1849901016146,626.846412641245 M553.071888861849,744.2875160526497 L343.4493086388958,626.8468152399225 M331.15645152055026,634.5355399701745 L343.4493086388958,626.8468152399225 M262.8800536745407,596.1016282113751 L331.15645152055026,634.5355399701745 M275.188233010917,588.6036615135731 L262.8800536745407,596.1016282113751 M275.188233010917,588.6036615135731 L6.272713736464766,437.94419052805165 M-6.054313932225682,444.7140319175694 L6.272713736464766,437.94419052805165 M-66.20809587312004,410.85247477612876 L-6.054313932225682,444.7140319175694 M-53.88591383400575,404.24041980691305 L-66.20809587312004,410.85247477612876 M-53.88591383400575,404.24041980691305 L-105.74036561177627,375.1890497180416 M69.53758605299925,282.997500417383 L-105.74036561177627,375.1890497180416 M69.53758605299925,282.997500417383 L58.01633495418815,276.9644762504423 M912.0126662397115,517.7592704593314 L232.94855218868565,185.36239844344848 M740.868124548502,634.535135350678 L912.0126662397115,517.7592704593314 M153.3168523692192,232.9832393950076 L153.15523829492372,232.91893279503643 M153.15523829492372,232.91893279503643 L152.96914509347505,232.87614365218525 M152.96914509347505,232.87614365218525 L152.7693967377429,232.8573503914635 M152.7693967377429,232.8573503914635 L152.56760004739726,232.86364219768842 M152.56760004739726,232.86364219768842 L152.37545806146943,232.89466447561324 M152.37545806146943,232.89466447561324 L152.20414954809235,232.948606501554 M152.20414954809235,232.948606501554 L152.06363238951576,233.022333658991 M152.06363238951576,233.022333658991 L151.96205415507455,233.11157396163696 M151.96205415507455,233.11157396163696 L151.90532513114744,233.21114124112407 M151.90532513114744,233.21114124112407 L151.8967648685333,233.31524186402612 M151.8967648685333,233.31524186402612 L151.93685593644386,233.41783628795875 M151.93685593644386,233.41783628795875 L152.0232773626505,233.51295929355862 M152.0232773626505,233.51295929355862 L152.15102202832787,233.5950738884436 M152.15102202832787,233.5950738884436 L152.31265339239144,233.65941331174594 M152.31265339239144,233.65941331174594 L152.49879060610425,233.7022275312788 M152.49879060610425,233.7022275312788 L152.69860018536303,233.72103267228903 M152.69860018536303,233.72103267228903 L152.90046128481606,233.714736829766 M152.90046128481606,233.714736829766 L153.0926561147404,233.6836955171859 M153.0926561147404,233.6836955171859 L153.2639937969284,233.6297238245739 M153.2639937969284,233.6297238245739 L153.4045097687311,233.5559631649681 M153.4045097687311,233.5559631649681 L153.5060567325391,233.46669319535042 M153.5060567325391,233.46669319535042 L153.5627315639627,233.3671068826469 M153.5627315639627,233.3671068826469 L153.57122713143445,233.2630022213351 M153.57122713143445,233.2630022213351 L153.53107568169992,233.1604196780324 M153.53107568169992,233.1604196780324 L153.44461201993556,233.06532175152353 M153.44461201993556,233.06532175152353 L153.3168523692192,232.9832393950076 M821.3510237558216,570.9274909887849 L821.1508797716895,570.8458986580775 M821.1508797716895,570.8458986580775 L820.9292260516231,570.7916108260919 M820.9292260516231,570.7916108260919 L820.6989684229623,570.767780216923 M820.6989684229623,570.767780216923 L820.4734440826858,570.775767129378 M820.4734440826858,570.775767129378 L820.2657237591955,570.8151161690876 M820.2657237591955,570.8151161690876 L820.087951954551,570.8835620285284 M820.087951954551,570.8835620285284 L819.9504190065431,570.9771057874837 M819.9504190065431,570.9771057874837 L819.8611003881285,571.0903276809488 M819.8611003881285,571.0903276809488 L819.8252385381236,571.2166701507568 M819.8252385381236,571.2166701507568 L819.844880228294,571.34875064138 M819.844880228294,571.34875064138 L819.9188813754715,571.4789116881598 M819.9188813754715,571.4789116881598 L820.0429921751213,571.5996057591008 M820.0429921751213,571.5996057591008 L820.2099980133933,571.7037984369131 M820.2099980133933,571.7037984369131 L820.4101735167314,571.7854372632871 M820.4101735167314,571.7854372632871 L820.6318910290629,571.8397609342236 M820.6318910290629,571.8397609342236 L820.86227692482,571.8636322126229 M820.86227692482,571.8636322126229 L821.0878817050377,571.8556395285075 M821.0878817050377,571.8556395285075 L821.2956630544465,571.8162632917706 M821.2956630544465,571.8162632917706 L821.473462458956,571.7477750284625 M821.473462458956,571.7477750284625 L821.6109832808004,571.6541833875848 M821.6109832808004,571.6541833875848 L821.700252822935,571.5409190952312 M821.700252822935,571.5409190952312 L821.7360398696526,571.4145494204956 M821.7360398696526,571.4145494204956 L821.7163148163929,571.2824631590455 M821.7163148163929,571.2824631590455 L821.6421940021028,571.1522954013151 M821.6421940021028,571.1522954013151 L821.5180375637333,571.0316371733531 M821.5180375637333,571.0316371733531 L821.3510237558216,570.9274909887849 M69.56261190587088,269.3892591916622 L58.01633626199293,263.37336934440015 M69.56261190587088,269.3892591916622 L69.53758605299925,282.997500417383 M69.56261706669,269.0579059303908 L69.56248095167598,269.1684312450797 M69.56248095167598,269.1684312450797 L69.56247923391675,269.27888233365246 M69.56247923391675,269.27888233365246 L69.56261190587088,269.3892591916622 M58.01573150380176,263.04243392193706 L69.56261706669,269.0579059303908 M727.8592130904685,612.0044714847245 L742.5834534860969,619.6752200569908 M742.5834534860969,619.6752200569908 L914.0769644723805,503.18235666619745 M914.0769644723805,503.18235666619745 L233.3237899835225,171.71384900632125 M69.56261706669,269.0579059303908 L-106.11707983548115,360.9882768731544 M-106.11707983548115,360.9882768731544 L-54.14600114006669,389.96031385277126 M-54.14600114006669,389.96031385277126 L-66.49749563769382,396.554504840522 M-66.49749563769382,396.554504840522 L-6.205352310338071,430.3256939544765 M-6.205352310338071,430.3256939544765 L6.151021902287084,423.5737701287522 M6.151021902287084,423.5737701287522 L275.7257890615558,573.8521618604796 M275.7257890615558,573.8521618604796 L263.38840220395684,581.3321297053245 M263.38840220395684,581.3321297053245 L331.8428202967199,619.6752200569908 M331.8428202967199,619.6752200569908 L344.16476997575455,612.0044714847245 M344.16476997575455,612.0044714847245 L554.3604186259897,729.1811062307427 M727.8592130904685,612.0044714847245 L554.3604186259897,729.1811062307427 M154.40088782512635,218.73331830250902 L154.72101845595944,218.9378550280524 M154.72101845595944,218.9378550280524 L154.93776087980103,219.17483586293358 M154.93776087980103,219.17483586293358 L155.03849724076053,219.43050206604016 M155.03849724076053,219.43050206604016 L155.01733989974042,219.69000079400917 M155.01733989974042,219.69000079400917 L154.87547437496085,219.93825460882698 M154.87547437496085,219.93825460882698 L154.6211379798628,220.16081438751885 M154.6211379798628,220.16081438751885 L154.26907056377746,220.3447423441056 M154.26907056377746,220.3447423441056 L153.83975480773825,220.47931962428396 M153.83975480773825,220.47931962428396 L153.35813286752875,220.55672200330775 M153.35813286752875,220.55672200330775 L152.85224499188666,220.57242961939352 M152.85224499188666,220.57242961939352 L152.35151494254956,220.5255323474363 M152.35151494254956,220.5255323474363 L151.885077797318,220.41876244250062 M151.885077797318,220.41876244250062 L151.48006414752672,220.25833784617117 M151.48006414752672,220.25833784617117 L151.16002453548674,220.05359825855413 M151.16002453548674,220.05359825855413 L150.94354663379335,219.81646052015745 M150.94354663379335,219.81646052015745 L150.84318987858973,219.56072041333644 M150.84318987858973,219.56072041333644 L150.86475305572185,219.30124675974696 M150.86475305572185,219.30124675974696 L151.0069587698194,219.05311180428654 M151.0069587698194,219.05311180428654 L151.2614914756398,218.83073728909707 M151.2614914756398,218.83073728909707 L151.61356635837,218.64701856786456 M151.61356635837,218.64701856786456 L152.04269902598702,218.51262654896743 M152.04269902598702,218.51262654896743 L152.52398926002934,218.43534303284082 M152.52398926002934,218.43534303284082 L153.02947309939265,218.41966078050785 M153.02947309939265,218.41966078050785 L153.52981824758052,218.46648356582003 M153.52981824758052,218.46648356582003 L153.99597969315096,218.57309714888046 M153.99597969315096,218.57309714888046 L154.40088782512635,218.73331830250902 M824.0865402054121,555.6382352445553 L824.5052947004892,555.8978972184802 M824.5052947004892,555.8978972184802 L824.8167138052488,556.1987203832911 M824.8167138052488,556.1987203832911 L825.0027935307453,556.5233007923996 M825.0027935307453,556.5233007923996 L825.0526016105446,556.8527439609377 M825.0526016105446,556.8527439609377 L824.9632142073738,557.1679204977681 M824.9632142073738,557.1679204977681 L824.7397929778169,557.4504773697581 M824.7397929778169,557.4504773697581 L824.3952878143953,557.6839945063502 M824.3952878143953,557.6839945063502 L823.9497355244059,557.8548602433553 M823.9497355244059,557.8548602433553 L823.4290057393055,557.9531300186829 M823.4290057393055,557.9531300186829 L822.8634297067447,557.9730709710382 M822.8634297067447,557.9730709710382 L822.2858841820005,557.9135150167175 M822.2858841820005,557.9135150167175 L821.7300574554611,557.7779720951906 M821.7300574554611,557.7779720951906 L821.2281677948774,557.5742786613062 M821.2281677948774,557.5742786613062 L820.8095101359052,557.3143497264275 M820.8095101359052,557.3143497264275 L820.4983305708113,557.0132789122808 M820.4983305708113,557.0132789122808 L820.3127552666481,556.6886160072991 M820.3127552666481,556.6886160072991 L820.2634708357052,556.3592089139722 M820.2634708357052,556.3592089139722 L820.3533281154723,556.0442023979405 M820.3533281154723,556.0442023979405 L820.5770577757096,555.7619105277257 M820.5770577757096,555.7619105277257 L820.921639294925,555.528692683849 M820.921639294925,555.528692683849 L821.3670183695526,555.3580919502963 M821.3670183695526,555.3580919502963 L821.8873650285161,555.2599921913604 M821.8873650285161,555.2599921913604 L822.4524358174997,555.2400873076331 M822.4524358174997,555.2400873076331 L823.0294227685156,555.2995134962293 M823.0294227685156,555.2995134962293 L823.5848956541206,555.4348560386616 M823.5848956541206,555.4348560386616 L824.0865402054121,555.6382352445553 M912.0126662397115,517.7592704593314 L914.0769644723805,503.18235666619745 M742.5432096587074,620.0284843666082 L727.819948245263,612.3573078255656 M742.5432096587074,620.0284843666082 L740.868124548502,634.535135350678 M727.819948245263,612.3573078255656 L726.1849901016146,626.846412641245 M727.819948245263,612.3573078255656 L727.8329038525553,612.2397896479174 M727.8329038525553,612.2397896479174 L727.8459921318956,612.1221775328269 M727.8459921318956,612.1221775328269 L727.8592130904685,612.0044714847245 M553.071888861849,744.2875160526497 L554.3604186259897,729.1811062307427 M343.4493086388958,626.8468152399225 L344.16476997575455,612.0044714847245 M331.15645152055026,634.5355399701745 L331.8428202967199,619.6752200569908 M262.8800536745407,596.1016282113751 L263.38840220395684,581.3321297053245 M275.188233010917,588.6036615135731 L275.7257890615558,573.8521618604796 M6.272713736464766,437.94419052805165 L6.151021902287084,423.5737701287522 M-6.054313932225682,444.7140319175694 L-6.205352310338071,430.3256939544765 M-66.20809587312004,410.85247477612876 L-66.49749563769382,396.554504840522 M-53.88591383400575,404.24041980691305 L-54.14600114006669,389.96031385277126 M-105.74036561177627,375.1890497180416 L-106.11707983548115,360.9882768731544 M742.5834534860969,619.6752200569908 L742.569906285325,619.7930692279331 M742.569906285325,619.7930692279331 L742.5564916785843,619.910823999281 M742.5564916785843,619.910823999281 L742.5432096587074,620.0284843666082 M153.3168523692192,232.9832393950076 L153.50309764556312,220.6415132666029 M153.50309764556312,220.6415132666029 L153.63111271155708,220.7233763893112 M153.63111271155708,220.7233763893112 L153.7177520054879,220.81822033100354 M153.7177520054879,220.81822033100354 L153.7579891068778,220.92052891457297 M153.7579891068778,220.92052891457297 L153.74948421999255,221.02435556682798 M153.74948421999255,221.02435556682798 L153.69270557876968,221.12367595140654 M153.69270557876968,221.12367595140654 L153.5909663642044,221.2127075532105 M153.5909663642044,221.2127075532105 L153.4501808711159,221.28627126657952 M153.4501808711159,221.28627126657952 L153.27851202389945,221.34009885593758 M153.27851202389945,221.34009885593758 L153.08594364961937,221.3710572908073 M153.08594364961937,221.3710572908073 L152.88368838507085,221.37733632412824 M152.88368838507085,221.37733632412824 L152.68348691225748,221.35858139093267 M152.68348691225748,221.35858139093267 L152.49698287903215,221.31588148293622 M152.49698287903215,221.31588148293622 L152.3350311257995,221.25171384726903 M152.3350311257995,221.25171384726903 L152.20703110010845,221.1698185088741 M152.20703110010845,221.1698185088741 L152.12043420525293,221.07494950617863 M152.12043420525293,221.07494950617863 L152.08025772112518,220.97262905054782 M152.08025772112518,220.97262905054782 L152.0888275565748,220.86880643378998 M152.0888275565748,220.86880643378998 L152.1456606036703,220.76950506870043 M152.1456606036703,220.76950506870043 L152.24743121328765,220.68050311247163 M152.24743121328765,220.68050311247163 L152.3882179001223,220.60697287710883 M152.3882179001223,220.60697287710883 L152.55985746645723,220.55317493302545 M152.55985746645723,220.55317493302545 L152.75237279129408,220.5222355190828 M152.75237279129408,220.5222355190828 L152.95456339499367,220.5159605191489 M152.95456339499367,220.5159605191489 L153.15470340389726,220.5347035806244 M153.15470340389726,220.5347035806244 L153.34116325090292,220.57737843002502 M153.34116325090292,220.57737843002502 L153.50309764556312,220.6415132666029 M821.3510237558216,570.9274909887849 L823.0317752728458,557.7664078462914 M823.0317752728458,557.7664078462914 L823.1992150863484,557.870327203706 M823.1992150863484,557.870327203706 L823.3237124230425,557.9907226615854 M823.3237124230425,557.9907226615854 L823.3980692955145,558.1206069631525 M823.3980692955145,558.1206069631525 L823.4179117039821,558.2524056159355 M823.4179117039821,558.2524056159355 L823.3821165626982,558.3785001533025 M823.3821165626982,558.3785001533025 L823.2927137969709,558.4915178616789 M823.2927137969709,558.4915178616789 L823.1549424593632,558.584905761388 M823.1549424593632,558.584905761388 L822.9767897654556,558.6532449395779 M822.9767897654556,558.6532449395779 L822.7685727940368,558.6925354652979 M822.7685727940368,558.6925354652979 L822.5424755797649,558.7005107518592 M822.5424755797649,558.7005107518592 L822.3115689106751,558.6766914339853 M822.3115689106751,558.6766914339853 L822.0893327129484,558.6224860122861 M822.0893327129484,558.6224860122861 L821.888670731239,558.5410249016059 M821.888670731239,558.5410249016059 L821.7212388964722,558.4370590500237 M821.7212388964722,558.4370590500237 L821.5967873796465,558.3166277484531 M821.5967873796465,558.3166277484531 L821.522550602311,558.1867501059127 M821.522550602311,558.1867501059127 L821.5027919277234,558.0549572240714 M821.5027919277234,558.0549572240714 L821.5386622173503,557.928889892172 M821.5386622173503,557.928889892172 L821.628114299491,557.8159145835264 M821.628114299491,557.8159145835264 L821.7658978435488,557.7225745666909 M821.7658978435488,557.7225745666909 L821.9440228396531,557.6542777932106 M821.9440228396531,557.6542777932106 L822.1521785313173,557.615014465058 M822.1521785313173,557.615014465058 L822.3781949542113,557.6070449502718 M822.3781949542113,557.6070449502718 L822.6089728712404,557.6308236501648 M822.6089728712404,557.6308236501648 L822.8311449753592,557.6849932322014 M822.8311449753592,557.6849932322014 L823.0317752728458,557.7664078462914 M154.40088782512635,218.73331830250902 L154.37879614861475,220.184046396344 M154.37879614861475,220.184046396344 L154.698851700445,220.38864779313894 M154.698851700445,220.38864779313894 L154.91554246347147,220.62570354856092 M154.91554246347147,220.62570354856092 L155.01625359415908,220.8814505686533 M155.01625359415908,220.8814505686533 L154.99509893469042,221.14103131355708 M154.99509893469042,221.14103131355708 L154.85326386547626,221.38936358038467 M154.85326386547626,221.38936358038467 L154.5989839385391,221.6119936823432 M154.5989839385391,221.6119936823432 L154.24699573483116,221.79597974907114 M154.24699573483116,221.79597974907114 L153.81777732724936,221.93059954385782 M153.81777732724936,221.93059954385782 L153.33626521233884,222.00802637382495 M153.33626521233884,222.00802637382495 L152.8304932383641,222.02373895172542 M152.8304932383641,222.02373895172542 L152.3298784179584,221.97682686545414 M152.3298784179584,221.97682686545414 L151.86354911673618,221.87002323170663 M151.86354911673618,221.87002323170663 L151.45862964774398,221.70954795325315 M151.45862964774398,221.70954795325315 L151.1386650747677,221.50474367685692 M151.1386650747677,221.50474367685692 L150.92223871376103,221.2675310042447 M150.92223871376103,221.2675310042447 L150.82190701552344,221.01171007409485 M150.82190701552344,221.01171007409485 L150.843467324764,220.75215440571202 M150.843467324764,220.75215440571202 L150.98564242635314,220.50394100855036 M150.98564242635314,220.50394100855036 L151.2401185724924,220.28149618616214 M151.2401185724924,220.28149618616214 L151.59211423771092,220.09771937293553 M151.59211423771092,220.09771937293553 L152.02114963929836,219.96328485549776 M152.02114963929836,219.96328485549776 L152.5023301991513,219.88597689873677 M152.5023301991513,219.88597689873677 L153.00769832194982,219.87028968682205 M153.00769832194982,219.87028968682205 L153.50792841815365,219.91712727992152 M153.50792841815365,219.91712727992152 L153.9739821475291,220.0237745783026 M153.9739821475291,220.0237745783026 L154.37879614861475,220.184046396344 M824.0865402054121,555.6382352445553 L823.8887162472765,557.1857075953253 M823.8887162472765,557.1857075953253 L824.3073454575174,557.4454365850715 M824.3073454575174,557.4454365850715 L824.6186642613902,557.7463373744066 M824.6186642613902,557.7463373744066 L824.8046744757562,558.071001520868 M824.8046744757562,558.071001520868 L824.8544479165291,558.4005296627101 M824.8544479165291,558.4005296627101 L824.7650627775288,558.7157874755366 M824.7650627775288,558.7157874755366 L824.5416806051035,558.9984171971821 M824.5416806051035,558.9984171971821 L824.1972490375899,559.2319945294698 M824.1972490375899,559.2319945294698 L823.7518006055464,559.4029043060305 M823.7518006055464,559.4029043060305 L823.2311989079815,559.5011994074868 M823.2311989079815,559.5011994074868 L822.6657677238784,559.5211454988298 M822.6657677238784,559.5211454988298 L822.0883753779376,559.4615741961263 M822.0883753779376,559.4615741961263 L821.5327012119317,559.3259963410583 M821.5327012119317,559.3259963410583 L821.0309546429796,559.1222504032115 M821.0309546429796,559.1222504032115 L820.6124222485305,558.8622544587347 M820.6124222485305,558.8622544587347 L820.301342864773,558.5611060140659 M820.301342864773,558.5611060140659 L820.1158368287333,558.2363593778739 M820.1158368287333,558.2363593778739 L820.0665867639423,557.906867311227 M820.0665867639423,557.906867311227 L820.1564415256189,557.5917795191249 M820.1564415256189,557.5917795191249 L820.3801319519453,557.3094147991387 M820.3801319519453,557.3094147991387 L820.724639816096,557.0761367594355 M820.724639816096,557.0761367594355 L821.1699151048001,556.9054919862109 M821.1699151048001,556.9054919862109 L821.6901338629384,556.8073669010719 M821.6901338629384,556.8073669010719 L822.2550600620791,556.7874568783412 M822.2550600620791,556.7874568783412 L822.8318941192531,556.8468984092706 M822.8318941192531,556.8468984092706 L823.3872146524297,556.9822758914382 M823.3872146524297,556.9822758914382 L823.8887162472765,557.1857075953253" stroke="black"  stroke-width="4"  fill="red"/>
<path d="M740.868124548502,634.535135350678 L555.6556734521242,760.9098590298539 M740.868124548502,634.535135350678 L726.1849901016146,626.846412641245 M540.8527611534431,752.5770552644308 L726.1849901016146,626.846412641245 M555.6556734521242,760.9098590298539 L540.8527611534431,752.5770552644308 M742.5432096587074,620.0284843666082 L740.868124548502,634.535135350678 M838.9035222595203,489.37831293065875 L835.8714525869316,489.38479312206607 M835.8714525869316,489.38479312206607 L832.7024460203236,489.74144420642665 M832.7024460203236,489.74144420642665 L829.4086584237291,490.44792370145103 M829.4086584237291,490.44792370145103 L826.0028024068786,491.5025296493222 M826.0028024068786,491.5025296493222 L822.4981432634111,492.90216160488364 M822.4981432634111,492.90216160488364 L818.9084267355292,494.6422601165546 M818.9084267355292,494.6422601165546 L815.2478486263396,496.71671851917375 M815.2478486263396,496.71671851917375 L811.5309544661432,499.11810976881935 M811.5309544661432,499.11810976881935 L807.7726185082431,501.83759455738254 M807.7726185082431,501.83759455738254 L803.987947500339,504.86492506311754 M803.987947500339,504.86492506311754 L800.1922433596842,508.1884560679299 M800.1922433596842,508.1884560679299 L796.4009090692539,511.7953749632788 M796.4009090692539,511.7953749632788 L792.6294054270522,515.6714077526883 M792.6294054270522,515.6714077526883 L788.8931308969516,519.8012949598713 M788.8931308969516,519.8012949598713 L785.2074087867229,524.1685046726761 M785.2074087867229,524.1685046726761 L781.5873779433557,528.7554601575177 M781.5873779433557,528.7554601575177 L778.0479249669186,533.5436306663323 M778.0479249669186,533.5436306663323 L774.603622100162,538.5135762906665 M774.603622100162,538.5135762906665 L771.2686492381672,543.6450060355858 M771.2686492381672,543.6450060355858 L768.0567271976929,548.9169652823193 M768.0567271976929,548.9169652823193 L764.9810556446262,554.3078433723404 M764.9810556446262,554.3078433723404 L762.0542407472146,559.7955469235719 M762.0542407472146,559.7955469235719 L759.2882492094359,565.3575233149145 M759.2882492094359,565.3575233149145 L756.6943408829006,570.9709343177534 M756.6943408829006,570.9709343177534 L754.2830195980996,576.6127518403262 M754.2830195980996,576.6127518403262 L752.0639829864206,582.2598777299022 M752.0639829864206,582.2598777299022 L750.0460858594495,587.8892107360671 M750.0460858594495,587.8892107360671 L748.2372941499223,593.4778092226165 M748.2372941499223,593.4778092226165 L746.6446621396867,599.0029271471597 M746.6446621396867,599.0029271471597 L745.2742944079127,604.4421932325088 M745.2742944079127,604.4421932325088 L744.1313245970796,609.7737113323406 M744.1313245970796,609.7737113323406 L743.2199101069136,614.9760608623576 M743.2199101069136,614.9760608623576 L742.5432096587074,620.0284843666082 M839.3670902937329,489.40687697214076 L839.3174604946284,489.51180963919427 M839.3174604946284,489.51180963919427 L839.2572584185505,489.60978712203274 M839.2572584185505,489.60978712203274 L839.1899649451682,489.6951560179182 M839.1899649451682,489.6951560179182 L839.1194957808225,489.76294670414654 M839.1194957808225,489.76294670414654 L839.0499391251774,489.80922462001297 M839.0499391251774,489.80922462001297 L838.9853441128582,489.8312973737152 M838.9853441128582,489.8312973737152 L838.929468804366,489.8278604044487 M838.929468804366,489.8278604044487 L838.8855544375886,489.79912528722326 M838.8855544375886,489.79912528722326 L838.8561477677802,489.7467612130591 M838.8561477677802,489.7467612130591 L838.8429729851366,489.6738255584318 M838.8429729851366,489.6738255584318 L838.8467844792985,489.5845300157416 M838.8467844792985,489.5845300157416 L838.8673707509424,489.48408308237896 M838.8673707509424,489.48408308237896 L838.9035222595203,489.37831293065875 M934.1944048042806,361.12430089899976 L933.3614191179838,366.2973956477673 M933.3614191179838,366.2973956477673 L932.3119168989851,371.58640004016183 M932.3119168989851,371.58640004016183 L931.0502491287432,376.97147120419163 M931.0502491287432,376.97147120419163 L929.5815111097263,382.43254332236086 M929.5815111097263,382.43254332236086 L927.9114840689183,387.94948103628536 M927.9114840689183,387.94948103628536 L926.0466198991799,393.50193880762794 M926.0466198991799,393.50193880762794 L923.9940544570081,399.06946686809727 M923.9940544570081,399.06946686809727 L921.7615648059066,404.63169685824323 M921.7615648059066,404.63169685824323 L919.357466927331,410.1683023065613 M919.357466927331,410.1683023065613 L916.7907300382569,415.6590813020156 M916.7907300382569,415.6590813020156 L914.070795629462,421.0840577470286 M914.070795629462,421.0840577470286 L911.2076642005575,426.4234513365559 M911.2076642005575,426.4234513365559 L908.2118401731125,431.6577856534587 M908.2118401731125,431.6577856534587 L905.0942096790777,436.7680419423108 M905.0942096790777,436.7680419423108 L901.8661447241575,441.7355332634427 M901.8661447241575,441.7355332634427 L898.539365770406,446.54207154824724 M898.539365770406,446.54207154824724 L895.1259657859014,451.1699857263668 M895.1259657859014,451.1699857263668 L891.6383394016359,455.60227024416514 M891.6383394016359,455.60227024416514 L888.0891710835078,459.82247797297316 M888.0891710835078,459.82247797297316 L884.4913751721172,463.81490953027304 M884.4913751721172,463.81490953027304 L880.8580859956655,467.56455295894 M880.8580859956655,467.56455295894 L877.2025978174197,471.0572775952799 M877.2025978174197,471.0572775952799 L873.5383120447277,474.27974123497245 M873.5383120447277,474.27974123497245 L869.8787428595069,477.21950100669835 M869.8787428595069,477.21950100669835 L866.2374172988852,479.8650874588555 M866.2374172988852,479.8650874588555 L862.6278811484221,482.20598825357604 M862.6278811484221,482.20598825357604 L859.063624678508,484.23275291279504 M859.063624678508,484.23275291279504 L855.558045664352,485.9369868306542 M855.558045664352,485.9369868306542 L852.1244068059311,487.3114383477634 M852.1244068059311,487.3114383477634 L848.7757930561213,488.34995545775286 M848.7757930561213,488.34995545775286 L845.5250417272368,489.04763765874367 M845.5250417272368,489.04763765874367 L842.3847254050061,489.4007555514174 M842.3847254050061,489.4007555514174 L839.3670902937329,489.40687697214076 M582.191682351308,589.7567757831678 L934.1944048042806,361.12430089899976 M574.9306722220824,672.2946281712847 L582.191682351308,589.7567757831678 M562.5673393125176,680.5307515367671 L574.9306722220824,672.2946281712847 M555.6556734521242,760.9098590298539 L562.5673393125176,680.5307515367671 M742.5432096587074,620.0284843666082 L727.819948245263,612.3573078255656 M727.819948245263,612.3573078255656 L726.1849901016146,626.846412641245 M540.8527611534431,752.5770552644308 L547.5411346993541,672.2946281712847 M559.9114760329004,664.1018581858611 L547.5411346993541,672.2946281712847 M559.9114760329004,664.1018581858611 L566.9426992750194,581.6695055924354 M919.2243743636013,354.2099400152373 L566.9426992750194,581.6695055924354 M919.2243743636013,354.2099400152373 L918.4053724024384,359.3757882171641 M918.4053724024384,359.3757882171641 L917.3695557939022,364.6568966728075 M917.3695557939022,364.6568966728075 L916.1212247005783,370.03345155526273 M916.1212247005783,370.03345155526273 L914.6654254246068,375.4854178674771 M914.6654254246068,375.4854178674771 L913.0078923296398,380.9926925849867 M913.0078923296398,380.9926925849867 L911.1550320893607,386.5349641555565 M911.1550320893607,386.5349641555565 L909.1139373644194,392.09181842402927 M909.1139373644194,392.09181842402927 L906.8923445025989,397.64292402960393 M906.8923445025989,397.64292402960393 L904.4985308005503,403.1679927077077 M904.4985308005503,403.1679927077077 L901.9414294239978,408.64686223146794 M901.9414294239978,408.64686223146794 L899.2304481971332,414.05959715029974 M899.2304481971332,414.05959715029974 L896.3755564886815,419.3864590758278 M896.3755564886815,419.3864590758278 L893.3872302777875,424.6080145837695 M893.3872302777875,424.6080145837695 L890.276330032224,429.7052885742365 M890.276330032224,429.7052885742365 L887.0542047617682,434.6596388667789 M887.0542047617682,434.6596388667789 L883.7325546819463,439.45292278522857 M883.7325546819463,439.45292278522857 L880.3234553628959,444.06751537530135 M880.3234553628959,444.06751537530135 L876.8392871084882,448.4864576387726 M876.8392871084882,448.4864576387726 L873.2927227175203,452.69334954689054 M873.2927227175203,452.69334954689054 L869.6966679075467,456.6725390587407 M869.6966679075467,456.6725390587407 L866.0642511712476,460.40906185739647 M866.0642511712476,460.40906185739647 L862.4087641218312,463.88883490047664 M862.4087641218312,463.88883490047664 L858.7436082140696,467.0985635476845 M858.7436082140696,467.0985635476845 L855.082300710958,470.0258523563396 M855.082300710958,470.0258523563396 L851.4383746662145,472.6592788370848 M851.4383746662145,472.6592788370848 L847.8253847553995,474.9883771757349 M847.8253847553995,474.9883771757349 L844.2568330940423,477.0037426749573 M844.2568330940423,477.0037426749573 L840.746132104845,478.69702565775293 M840.746132104845,478.69702565775293 L837.3065620654911,480.06101832508045 M837.3065620654911,480.06101832508045 L833.9512281565474,481.08961136072105 M833.9512281565474,481.08961136072105 L830.6929908265486,481.7779454204695 M830.6929908265486,481.7779454204695 L827.5444483938627,482.12233072025094 M827.5444483938627,482.12233072025094 L824.5178756024168,482.12037284208327 M824.0528431753639,482.0905954747838 L824.0169174194905,482.19616920287115 M824.0169174194905,482.19616920287115 L823.9965862875704,482.2964663810696 M823.9965862875704,482.2964663810696 L823.9930445620303,482.3856675688126 M823.9930445620303,482.3856675688126 L824.0064879769359,482.45856974375033 M824.0064879769359,482.45856974375033 L824.036146652029,482.51096316230974 M824.036146652029,482.51096316230974 L824.0802816645553,482.5397887121814 M824.0802816645553,482.5397887121814 L824.1363334566363,482.5433719563564 M824.1363334566363,482.5433719563564 L824.201050515394,482.5214928421538 M824.201050515394,482.5214928421538 L824.2706677436456,482.4754446424274 M824.2706677436456,482.4754446424274 L824.3411324739752,482.4079063765569 M824.3411324739752,482.4079063765569 L824.4083567670061,482.32279796028837 M824.4083567670061,482.32279796028837 L824.4684289458596,482.2250738598386 M824.4684289458596,482.2250738598386 L824.5178756024168,482.12037284208327 M727.819948245263,612.3573078255656 L728.4829348633148,607.3112973842221 M728.4829348633148,607.3112973842221 L729.3808384117212,602.116170648535 M729.3808384117212,602.116170648535 L730.5105544792837,596.79265620976 M730.5105544792837,596.79265620976 L731.867979436945,591.3621419782684 M731.867979436945,591.3621419782684 L733.4480323729567,585.8464878829705 M733.4480323729567,585.8464878829705 L735.2446604239026,580.2680254959901 M735.2446604239026,580.2680254959901 L737.2508597640185,574.6494578638275 M737.2508597640185,574.6494578638275 L739.4587132099939,569.0136806584005 M739.4587132099939,569.0136806584005 L741.8594129405071,563.383746351022 M741.8594129405071,563.383746351022 L744.4433061703835,557.7827018393527 M744.4433061703835,557.7827018393527 L747.1999316508748,552.2335217111668 M747.1999316508748,552.2335217111668 L750.11806959669,546.7589887572199 M750.11806959669,546.7589887572199 L753.1857906706875,541.3815985172187 M753.1857906706875,541.3815985172187 L756.3905229934119,536.1233860613692 M756.3905229934119,536.1233860613692 L759.7190981327349,531.0059027168987 M759.7190981327349,531.0059027168987 L763.1578230800569,526.0500431732949 M763.1578230800569,526.0500431732949 L766.6925424362328,521.27603813028 M766.6925424362328,521.27603813028 L770.3087047071597,516.7032672455482 M770.3087047071597,516.7032672455482 L773.9914402934014,512.3502013727618 M773.9914402934014,512.3502013727618 L777.7256235956477,508.23435795636476 M777.7256235956477,508.23435795636476 L781.4959406697044,504.37221052526485 M781.4959406697044,504.37221052526485 L785.2869980939986,500.7789616140264 M785.2869980939986,500.7789616140264 L789.0833366854172,497.46882949287635 M789.0833366854172,497.46882949287635 L792.8695504719071,494.4545730450801 M792.8695504719071,494.4545730450801 L796.6303309544683,491.7477855963508 M796.6303309544683,491.7477855963508 L800.3505607357556,489.35866537124195 M800.3505607357556,489.35866537124195 L804.0153508933104,487.2960044675611 M804.0153508933104,487.2960044675611 L807.6101374571119,485.56718534078937 M807.6101374571119,485.56718534078937 L811.1207027485866,484.1782726246036 M811.1207027485866,484.1782726246036 L814.5332752868662,483.13378674143826 M814.5332752868662,483.13378674143826 L817.8345605378504,482.43679206073676 M817.8345605378504,482.43679206073676 L821.0118135536122,482.08895750355475 M821.0118135536122,482.08895750355475 L824.0528431753639,482.0905954747838 M547.5411346993541,672.2946281712847 L562.5673393125176,680.5307515367671 M838.9035222595203,489.37831293065875 L824.0528431753639,482.0905954747838 M839.3670902937329,489.40687697214076 L824.5178756024168,482.12037284208327 M934.1944048042806,361.12430089899976 L919.2243743636013,354.2099400152373 M582.191682351308,589.7567757831678 L566.9426992750194,581.6695055924354 M574.9306722220824,672.2946281712847 L559.9114760329004,664.1018581858611" stroke="black"  stroke-width="4"  fill="red"/>
<path d="M821.3510237558216,570.9274909887849 L823.0317752728458,557.7664078462914 M823.0317752728458,557.7664078462914 L823.1992150863484,557.870327203706 M823.1992150863484,557.870327203706 L823.3237124230425,557.9907226615854 M823.3237124230425,557.9907226615854 L823.3980692955145,558.1206069631525 M823.3980692955145,558.1206069631525 L823.4179117039821,558.2524056159355 M823.4179117039821,558.2524056159355 L823.3821165626982,558.3785001533025 M823.3821165626982,558.3785001533025 L823.2927137969709,558.4915178616789 M823.2927137969709,558.4915178616789 L823.1549424593632,558.584905761388 M823.1549424593632,558.584905761388 L822.9767897654556,558.6532449395779 M822.9767897654556,558.6532449395779 L822.7685727940368,558.6925354652979 M822.7685727940368,558.6925354652979 L822.5424755797649,558.7005107518592 M822.5424755797649,558.7005107518592 L822.3115689106751,558.6766914339853 M822.3115689106751,558.6766914339853 L822.0893327129484,558.6224860122861 M822.0893327129484,558.6224860122861 L821.888670731239,558.5410249016059 M821.888670731239,558.5410249016059 L821.7212388964722,558.4370590500237 M821.7212388964722,558.4370590500237 L821.5967873796465,558.3166277484531 M821.5967873796465,558.3166277484531 L821.522550602311,558.1867501059127 M821.522550602311,558.1867501059127 L821.5027919277234,558.0549572240714 M821.5027919277234,558.0549572240714 L821.5386622173503,557.928889892172 M821.5386622173503,557.928889892172 L821.628114299491,557.8159145835264 M821.628114299491,557.8159145835264 L821.7658978435488,557.7225745666909 M821.7658978435488,557.7225745666909 L821.9440228396531,557.6542777932106 M821.9440228396531,557.6542777932106 L822.1521785313173,557.615014465058 M822.1521785313173,557.615014465058 L822.3781949542113,557.6070449502718 M822.3781949542113,557.6070449502718 L822.6089728712404,557.6308236501648 M822.6089728712404,557.6308236501648 L822.8311449753592,557.6849932322014 M822.8311449753592,557.6849932322014 L823.0317752728458,557.7664078462914 M821.3510237558216,570.9274909887849 L821.1508797716895,570.8458986580775 M821.1508797716895,570.8458986580775 L820.9292260516231,570.7916108260919 M820.9292260516231,570.7916108260919 L820.6989684229623,570.767780216923 M820.6989684229623,570.767780216923 L820.4734440826858,570.775767129378 M820.4734440826858,570.775767129378 L820.2657237591955,570.8151161690876 M820.2657237591955,570.8151161690876 L820.087951954551,570.8835620285284 M820.087951954551,570.8835620285284 L819.9504190065431,570.9771057874837 M819.9504190065431,570.9771057874837 L819.8611003881285,571.0903276809488 M819.8611003881285,571.0903276809488 L819.8252385381236,571.2166701507568 M819.8252385381236,571.2166701507568 L819.844880228294,571.34875064138 M819.844880228294,571.34875064138 L819.9188813754715,571.4789116881598 M819.9188813754715,571.4789116881598 L820.0429921751213,571.5996057591008 M820.0429921751213,571.5996057591008 L820.2099980133933,571.7037984369131 M820.2099980133933,571.7037984369131 L820.4101735167314,571.7854372632871 M820.4101735167314,571.7854372632871 L820.6318910290629,571.8397609342236 M820.6318910290629,571.8397609342236 L820.86227692482,571.8636322126229 M820.86227692482,571.8636322126229 L821.0878817050377,571.8556395285075 M821.0878817050377,571.8556395285075 L821.2956630544465,571.8162632917706 M821.2956630544465,571.8162632917706 L821.473462458956,571.7477750284625 M821.473462458956,571.7477750284625 L821.6109832808004,571.6541833875848 M821.6109832808004,571.6541833875848 L821.700252822935,571.5409190952312 M821.700252822935,571.5409190952312 L821.7360398696526,571.4145494204956 M821.7360398696526,571.4145494204956 L821.7163148163929,571.2824631590455 M821.7163148163929,571.2824631590455 L821.6421940021028,571.1522954013151 M821.6421940021028,571.1522954013151 L821.5180375637333,571.0316371733531 M821.5180375637333,571.0316371733531 L821.3510237558216,570.9274909887849 M823.8887162472765,557.1857075953253 L824.3073454575174,557.4454365850715 M824.3073454575174,557.4454365850715 L824.6186642613902,557.7463373744066 M824.6186642613902,557.7463373744066 L824.8046744757562,558.071001520868 M824.8046744757562,558.071001520868 L824.8544479165291,558.4005296627101 M824.8544479165291,558.4005296627101 L824.7650627775288,558.7157874755366 M824.7650627775288,558.7157874755366 L824.5416806051035,558.9984171971821 M824.5416806051035,558.9984171971821 L824.1972490375899,559.2319945294698 M824.1972490375899,559.2319945294698 L823.7518006055464,559.4029043060305 M823.7518006055464,559.4029043060305 L823.2311989079815,559.5011994074868 M823.2311989079815,559.5011994074868 L822.6657677238784,559.5211454988298 M822.6657677238784,559.5211454988298 L822.0883753779376,559.4615741961263 M822.0883753779376,559.4615741961263 L821.5327012119317,559.3259963410583 M821.5327012119317,559.3259963410583 L821.0309546429796,559.1222504032115 M821.0309546429796,559.1222504032115 L820.6124222485305,558.8622544587347 M820.6124222485305,558.8622544587347 L820.301342864773,558.5611060140659 M820.301342864773,558.5611060140659 L820.1158368287333,558.2363593778739 M820.1158368287333,558.2363593778739 L820.0665867639423,557.906867311227 M820.0665867639423,557.906867311227 L820.1564415256189,557.5917795191249 M820.1564415256189,557.5917795191249 L820.3801319519453,557.3094147991387 M820.3801319519453,557.3094147991387 L820.724639816096,557.0761367594355 M820.724639816096,557.0761367594355 L821.1699151048001,556.9054919862109 M821.1699151048001,556.9054919862109 L821.6901338629384,556.8073669010719 M821.6901338629384,556.8073669010719 L822.2550600620791,556.7874568783412 M822.2550600620791,556.7874568783412 L822.8318941192531,556.8468984092706 M822.8318941192531,556.8468984092706 L823.3872146524297,556.9822758914382 M823.3872146524297,556.9822758914382 L823.8887162472765,557.1857075953253 M824.0865402054121,555.6382352445553 L824.5052947004892,555.8978972184802 M824.5052947004892,555.8978972184802 L824.8167138052488,556.1987203832911 M824.8167138052488,556.1987203832911 L825.0027935307453,556.5233007923996 M825.0027935307453,556.5233007923996 L825.0526016105446,556.8527439609377 M825.0526016105446,556.8527439609377 L824.9632142073738,557.1679204977681 M824.9632142073738,557.1679204977681 L824.7397929778169,557.4504773697581 M824.7397929778169,557.4504773697581 L824.3952878143953,557.6839945063502 M824.3952878143953,557.6839945063502 L823.9497355244059,557.8548602433553 M823.9497355244059,557.8548602433553 L823.4290057393055,557.9531300186829 M823.4290057393055,557.9531300186829 L822.8634297067447,557.9730709710382 M822.8634297067447,557.9730709710382 L822.2858841820005,557.9135150167175 M822.2858841820005,557.9135150167175 L821.7300574554611,557.7779720951906 M821.7300574554611,557.7779720951906 L821.2281677948774,557.5742786613062 M821.2281677948774,557.5742786613062 L820.8095101359052,557.3143497264275 M820.8095101359052,557.3143497264275 L820.4983305708113,557.0132789122808 M820.4983305708113,557.0132789122808 L820.3127552666481,556.6886160072991 M820.3127552666481,556.6886160072991 L820.2634708357052,556.3592089139722 M820.2634708357052,556.3592089139722 L820.3533281154723,556.0442023979405 M820.3533281154723,556.0442023979405 L820.5770577757096,555.7619105277257 M820.5770577757096,555.7619105277257 L820.921639294925,555.528692683849 M820.921639294925,555.528692683849 L821.3670183695526,555.3580919502963 M821.3670183695526,555.3580919502963 L821.8873650285161,555.2599921913604 M821.8873650285161,555.2599921913604 L822.4524358174997,555.2400873076331 M822.4524358174997,555.2400873076331 L823.0294227685156,555.2995134962293 M823.0294227685156,555.2995134962293 L823.5848956541206,555.4348560386616 M823.5848956541206,555.4348560386616 L824.0865402054121,555.6382352445553 M824.0865402054121,555.6382352445553 L823.8887162472765,557.1857075953253" stroke="black"  stroke-width="4"  fill="red"/>
<path d="M69.53758605299925,282.997500417383 L-118.05571251052982,381.6665952392409 M69.53758605299925,282.997500417383 L58.01633495418815,276.9644762504423 M-129.56283525468814,375.1890458356514 L58.01633495418815,276.9644762504423 M-118.05571251052982,381.6665952392409 L-129.56283525468814,375.1890458356514 M-118.05571251052982,381.6665952392409 L-120.20792519973963,306.28978688913753 M-120.20792519973963,306.28978688913753 L-107.73739118914358,299.9083599932946 M-107.73739118914358,299.9083599932946 L-109.78372604009576,222.76888780358217 M-109.78372604009576,222.76888780358217 L248.75123667323624,44.531662791281065 M248.75123667323624,44.531662791281065 L248.49805924156976,49.34496758792875 M248.49805924156976,49.34496758792875 L248.01901286570592,54.246325776913125 M248.01901286570592,54.246325776913125 L247.3163075493719,59.21731759936853 M247.3163075493719,59.21731759936853 L246.39296277015626,64.23937556725053 M246.39296277015626,64.23937556725053 L245.25276308850096,69.29392542424296 M245.25276308850096,69.29392542424296 L243.90022328154066,74.36225303796846 M243.90022328154066,74.36225303796846 L242.34061717807856,79.42560812508123 M242.34061717807856,79.42560812508123 L240.57995428389665,84.4653778532105 M240.57995428389665,84.4653778532105 L238.62486066233976,89.4630406895634 M238.62486066233976,89.4630406895634 L236.4827165666302,94.40025909652786 M236.4827165666302,94.40025909652786 L234.16146772361503,99.25895863790748 M234.16146772361503,99.25895863790748 L231.66971725532858,104.02131089794926 M231.66971725532858,104.02131089794926 L229.01667757533573,108.66983239442379 M229.01667757533573,108.66983239442379 L226.21205338881396,113.18751961820948 M226.21205338881396,113.18751961820948 L223.26614008003173,117.55774273566016 M223.26614008003173,117.55774273566016 L220.18969127059802,121.76439138843955 M220.18969127059802,121.76439138843955 L216.99394654249807,125.7918962572387 M216.99394654249807,125.7918962572387 L213.69057042447469,129.62536410679218 M213.69057042447469,129.62536410679218 L210.29162382758432,133.25047624998848 M210.29162382758432,133.25047624998848 L206.80952031121535,136.65366309972927 M206.80952031121535,136.65366309972927 L203.25700566479452,139.82204682381945 M203.25700566479452,139.82204682381945 L199.64711458962142,142.7436197557637 M199.64711458962142,142.7436197557637 L195.99309843362312,145.40715102939726 M195.99309843362312,145.40715102939726 L192.30844417837102,147.802292755133 M192.30844417837102,147.802292755133 L188.60677148061097,149.91963955306915 M188.60677148061097,149.91963955306915 L184.90183566395535,151.75071343007264 M184.90183566395535,151.75071343007264 L181.20745740276038,153.2880546596723 M181.20745740276038,153.2880546596723 L177.53747967263178,154.5252112699088 M177.53747967263178,154.5252112699088 L173.90573059473672,155.45681603963388 M173.90573059473672,155.45681603963388 L170.32596958687088,156.07853944481153 M170.32596958687088,156.07853944481153 L166.81182856853013,156.38722469555591 M166.81182856853013,156.38722469555591 L163.37678210429402,156.38080778574385 M163.37678210429402,156.38080778574385 L160.0340948173752,156.05842857791725 M160.0340948173752,156.05842857791725 L159.99253876488984,156.1526140095997 M159.99253876488984,156.1526140095997 L159.93838047158988,156.23904919590228 M159.93838047158988,156.23904919590228 L159.87475295794644,156.3127473653234 M159.87475295794644,156.3127473653234 L159.80535846593824,156.36941801335178 M159.80535846593824,156.36941801335178 L159.73422274587324,156.40577177204796 M159.73422274587324,156.40577177204796 L159.665487148919,156.41969395422805 M159.665487148919,156.41969395422805 L159.603148056134,156.4103553624566 M159.603148056134,156.4103553624566 L159.5508231950568,156.37830946217292 M159.5508231950568,156.37830946217292 L159.51154734618422,156.32541747518644 M159.51154734618422,156.32541747518644 L159.4876215925753,156.25476851178172 M159.4876215925753,156.25476851178172 L159.4804203262113,156.1704415787685 M159.4804203262113,156.1704415787685 L159.49037546716113,156.07735651055592 M159.49037546716113,156.07735651055592 L159.51689262983388,155.98091258399774 M159.51689262983388,155.98091258399774 L156.1592409577276,155.6574022465644 M156.1592409577276,155.6574022465644 L152.6955490606543,155.6513111598734 M152.6955490606543,155.6513111598734 L149.13924020335446,155.96351756591906 M149.13924020335446,155.96351756591906 L145.5041650260581,156.59367675967826 M145.5041650260581,156.59367675967826 L141.8045920523271,157.54018591685082 M141.8045920523271,157.54018591685082 L138.05512025416908,158.8001210000857 M138.05512025416908,158.8001210000857 L134.27063470141496,160.36915180825267 M134.27063470141496,160.36915180825267 L130.4662251997458,162.2417479712728 M130.4662251997458,162.2417479712728 L126.65715231039337,164.4110910320685 M126.65715231039337,164.4110910320685 L122.85874261730936,166.8690687772384 M122.85874261730936,166.8690687772384 L119.08635028334425,169.6062826575819 M119.08635028334425,169.6062826575819 L115.35528378637486,172.61225623774214 M115.35528378637486,172.61225623774214 L111.68072256308739,175.8751519775867 M111.68072256308739,175.8751519775867 L108.07764645082784,179.38220929231213 M108.07764645082784,179.38220929231213 L104.56078709607021,183.11947062526139 M104.56078709607021,183.11947062526139 L101.14453807102558,187.07198454051533 M101.14453807102558,187.07198454051533 L97.8428935287638,191.22388329216582 M97.8428935287638,191.22388329216582 L94.669387308426,195.55841711883053 M94.669387308426,195.55841711883053 L91.63701615759624,200.05799901645116 M91.63701615759624,200.05799901645116 L88.75819162526034,204.70437320794383 M88.75819162526034,204.70437320794383 L86.04467428156948,209.47861327712678 M86.04467428156948,209.47861327712678 L83.50751736099113,214.3612761835141 M83.50751736099113,214.3612761835141 L81.15702044644098,219.33241689517288 M81.15702044644098,219.33241689517288 L79.00267823600257,224.37174300688991 M79.00267823600257,224.37174300688991 L77.05313936511669,229.45869743231154 M77.05313936511669,229.45869743231154 L75.3161669003265,234.5725638165516 M75.3161669003265,234.5725638165516 L73.79860688367705,239.69252333916995 M73.79860688367705,239.69252333916995 L72.50635824377122,244.79780147055257 M72.50635824377122,244.79780147055257 L71.44435218656264,249.867697129436 M71.44435218656264,249.867697129436 L70.61653246883378,254.88174631417132 M70.61653246883378,254.88174631417132 L70.02584405164959,259.81981302782816 M70.02584405164959,259.81981302782816 L69.6742265220168,264.66208726457455 M69.6742265220168,264.66208726457455 L69.56261190587088,269.3892591916622 M69.56261190587088,269.3892591916622 L69.53758605299925,282.997500417383 M69.56261190587088,269.3892591916622 L58.01633626199293,263.37336934440015 M58.01633626199293,263.37336934440015 L58.01633495418815,276.9644762504423 M58.01633626199293,263.37336934440015 L58.11935745096787,258.65235073543965 M58.11935745096787,258.65235073543965 L58.46240101827436,253.8167881539203 M58.46240101827436,253.8167881539203 L59.04456861830596,248.88596432881755 M59.04456861830596,248.88596432881755 L59.86395447321752,243.87965956525585 M59.86395447321752,243.87965956525585 L60.9176472586239,238.81797781379043 M60.9176472586239,238.81797781379043 L62.201736705330404,233.72134872364595 M62.201736705330404,233.72134872364595 L63.711324798635474,228.6104368871131 M63.711324798635474,228.6104368871131 L65.44054522730056,223.50597848885513 M65.44054522730056,223.50597848885513 L67.38258395925095,218.42875226158907 M67.38258395925095,218.42875226158907 L69.52970908489482,213.39943301151712 M69.52970908489482,213.39943301151712 L71.87330218969458,208.43853498556976 M71.87330218969458,208.43853498556976 L74.40389769120264,203.56630670532718 M74.40389769120264,203.56630670532718 L77.11122388703694,198.80264849481426 M77.11122388703694,198.80264849481426 L79.98425393131674,194.1669581908714 M79.98425393131674,194.1669581908714 L83.01125214397001,189.67811664801008 M83.01125214397001,189.67811664801008 L86.17983011021943,185.35433405551336 M86.17983011021943,185.35433405551336 L89.47701249835029,181.21315194515734 M89.47701249835029,181.21315194515734 L92.88928487002977,177.27127505178447 M92.88928487002977,177.27127505178447 L96.4026704165222,173.54452675190643 M96.4026704165222,173.54452675190643 L100.00279081547853,170.047814936056 M100.00279081547853,170.047814936056 L103.67492745793402,166.79505465795003 M103.67492745793402,166.79505465795003 L107.40411100917112,163.79896546365194 M107.40411100917112,163.79896546365194 L111.17517052396465,161.07134504750047 M111.17517052396465,161.07134504750047 L114.97280322935495,158.62263187639468 M114.97280322935495,158.62263187639468 L118.78165846064314,156.46218816865405 M118.78165846064314,156.46218816865405 L122.58641058426963,154.59809182218373 M122.58641058426963,154.59809182218373 L126.3717974421823,153.03712904893587 M126.3717974421823,153.03712904893587 L130.12272518011588,151.7848001826697 M130.12272518011588,151.7848001826697 L133.82430240975867,150.8454075114263 M133.82430240975867,150.8454075114263 L137.4619212561023,150.22184964919143 M137.4619212561023,150.22184964919143 L141.02130190270844,149.91570641284125 M141.02130190270844,149.91570641284125 L144.488580229621,149.9273019365396 M144.488580229621,149.9273019365396 L147.85031738097604,150.25573977475634 M147.85031738097604,150.25573977475634 L147.82395327982994,150.352017473048 M147.82395327982994,150.352017473048 L147.81416210996366,150.44496699851112 M147.81416210996366,150.44496699851112 L147.8215287647439,150.52919696501885 M147.8215287647439,150.52919696501885 L147.84561166456126,150.59979317713143 M147.84561166456126,150.59979317713143 L147.8850273538397,150.65267968388565 M147.8850273538397,150.65267968388565 L147.93746657677946,150.68476768144814 M147.93746657677946,150.68476768144814 L147.99988791654022,150.69419350691373 M147.99988791654022,150.69419350691373 L148.06866885139948,150.6803986443196 M148.06866885139948,150.6803986443196 L148.13981040064857,150.64420486090393 M148.13981040064857,150.64420486090393 L148.2091708689793,150.5877175315626 M148.2091708689793,150.5877175315626 L148.2727264811062,150.51421538743838 M148.2727264811062,150.51421538743838 L148.32677918085898,150.42797752572304 M148.32677918085898,150.42797752572304 L148.36820202936104,150.3339793226725 M236.96999634236113,39.09014097014608 L236.725703535457,43.896761502397055 M236.725703535457,43.896761502397055 L236.25545768262907,48.79099012547715 M236.25545768262907,48.79099012547715 L235.5614353514493,53.75443322455499 M235.5614353514493,53.75443322455499 L234.6466233783002,58.76855063948335 M234.6466233783002,58.76855063948335 L233.5147747071254,63.81479640343002 M233.5147747071254,63.81479640343002 L232.1703732385581,68.87448578536078 M232.1703732385581,68.87448578536078 L230.61866289876627,73.92889895743525 M230.61866289876627,73.92889895743525 L228.865624569945,78.95945437231524 M228.865624569945,78.95945437231524 L226.91785674805647,83.94766252414627 M226.91785674805647,83.94766252414627 L224.78271349894965,88.87521877524335 M224.78271349894965,88.87521877524335 L222.46811567367126,93.72408210667686 M222.46811567367126,93.72408210667686 L219.98264288801067,98.47645823971772 M219.98264288801067,98.47645823971772 L217.335485538507,103.11489838522004 M217.335485538507,103.11489838522004 L214.5363279117273,107.62243396470882 M214.5363279117273,107.62243396470882 L211.59544645924063,111.98247063718912 M211.59544645924063,111.98247063718912 L208.52357746401526,116.1789337387753 M208.52357746401526,116.1789337387753 L205.33194481120552,120.19628989293943 M205.33194481120552,120.19628989293943 L202.03219913752014,124.01968181587483 M202.03219913752014,124.01968181587483 L198.63638901651382,127.63482688947869 M198.63638901651382,127.63482688947869 L195.15691747956453,131.02819144334933 M195.15691747956453,131.02819144334933 L191.60652143873915,134.18693346763826 M191.60652143873915,134.18693346763826 L187.99822863015652,137.0990807419431 M187.99822863015652,137.0990807419431 L184.345285065888,139.7534374830168 M184.345285065888,139.7534374830168 L180.66117421471483,142.1396904205145 M180.66117421471483,142.1396904205145 L176.9595140180652,144.2484680910508 M176.9595140180652,144.2484680910508 L173.25405983145674,146.0713257343268 M173.25405983145674,146.0713257343268 L169.55863418058084,147.6008359363232 M169.55863418058084,147.6008359363232 L165.8870836247379,148.83057804802257 M165.8870836247379,148.83057804802257 L162.2532416874065,149.75521500603497 M162.2532416874065,149.75521500603497 L158.67087484545374,150.37044623064742 M158.67087484545374,150.37044623064742 L155.15362391244417,150.67314237018908 M155.15362391244417,150.67314237018908 L151.71497399034627,150.661265374971 M151.71497399034627,150.661265374971 L148.36820202936104,150.3339793226725 M236.96999634236113,39.09014097014608 L-121.56671792415864,216.51979968112258 M-119.38176407067579,293.55651083697234 L-121.56671792415864,216.51979968112258 M-119.38176407067579,293.55651083697234 L-131.85037875174294,299.9083561686216 M-129.56283525468814,375.1890458356514 L-131.85037875174294,299.9083561686216 M-131.85037875174294,299.9083561686216 L-120.20792519973963,306.28978688913753 M159.51689262983388,155.98091258399774 L147.85031738097604,150.25573977475634 M160.0340948173752,156.05842857791725 L148.36820202936104,150.3339793226725 M248.75123667323624,44.531662791281065 L236.96999634236113,39.09014097014608 M-109.78372604009576,222.76888780358217 L-121.56671792415864,216.51979968112258 M-107.73739118914358,299.9083599932946 L-119.38176407067579,293.55651083697234" stroke="black"  stroke-width="4"  fill="red"/>
<path d="M153.3168523692192,232.9832393950076 L153.50309764556312,220.6415132666029 M153.50309764556312,220.6415132666029 L153.63111271155708,220.7233763893112 M153.63111271155708,220.7233763893112 L153.7177520054879,220.81822033100354 M153.7177520054879,220.81822033100354 L153.7579891068778,220.92052891457297 M153.7579891068778,220.92052891457297 L153.74948421999255,221.02435556682798 M153.74948421999255,221.02435556682798 L153.69270557876968,221.12367595140654 M153.69270557876968,221.12367595140654 L153.5909663642044,221.2127075532105 M153.5909663642044,221.2127075532105 L153.4501808711159,221.28627126657952 M153.4501808711159,221.28627126657952 L153.27851202389945,221.34009885593758 M153.27851202389945,221.34009885593758 L153.08594364961937,221.3710572908073 M153.08594364961937,221.3710572908073 L152.88368838507085,221.37733632412824 M152.88368838507085,221.37733632412824 L152.68348691225748,221.35858139093267 M152.68348691225748,221.35858139093267 L152.49698287903215,221.31588148293622 M152.49698287903215,221.31588148293622 L152.3350311257995,221.25171384726903 M152.3350311257995,221.25171384726903 L152.20703110010845,221.1698185088741 M152.20703110010845,221.1698185088741 L152.12043420525293,221.07494950617863 M152.12043420525293,221.07494950617863 L152.08025772112518,220.97262905054782 M152.08025772112518,220.97262905054782 L152.0888275565748,220.86880643378998 M152.0888275565748,220.86880643378998 L152.1456606036703,220.76950506870043 M152.1456606036703,220.76950506870043 L152.24743121328765,220.68050311247163 M152.24743121328765,220.68050311247163 L152.3882179001223,220.60697287710883 M152.3882179001223,220.60697287710883 L152.55985746645723,220.55317493302545 M152.55985746645723,220.55317493302545 L152.75237279129408,220.5222355190828 M152.75237279129408,220.5222355190828 L152.95456339499367,220.5159605191489 M152.95456339499367,220.5159605191489 L153.15470340389726,220.5347035806244 M153.15470340389726,220.5347035806244 L153.34116325090292,220.57737843002502 M153.34116325090292,220.57737843002502 L153.50309764556312,220.6415132666029 M153.3168523692192,232.9832393950076 L153.15523829492372,232.91893279503643 M153.15523829492372,232.91893279503643 L152.96914509347505,232.87614365218525 M152.96914509347505,232.87614365218525 L152.7693967377429,232.8573503914635 M152.7693967377429,232.8573503914635 L152.56760004739726,232.86364219768842 M152.56760004739726,232.86364219768842 L152.37545806146943,232.89466447561324 M152.37545806146943,232.89466447561324 L152.20414954809235,232.948606501554 M152.20414954809235,232.948606501554 L152.06363238951576,233.022333658991 M152.06363238951576,233.022333658991 L151.96205415507455,233.11157396163696 M151.96205415507455,233.11157396163696 L151.90532513114744,233.21114124112407 M151.90532513114744,233.21114124112407 L151.8967648685333,233.31524186402612 M151.8967648685333,233.31524186402612 L151.93685593644386,233.41783628795875 M151.93685593644386,233.41783628795875 L152.0232773626505,233.51295929355862 M152.0232773626505,233.51295929355862 L152.15102202832787,233.5950738884436 M152.15102202832787,233.5950738884436 L152.31265339239144,233.65941331174594 M152.31265339239144,233.65941331174594 L152.49879060610425,233.7022275312788 M152.49879060610425,233.7022275312788 L152.69860018536303,233.72103267228903 M152.69860018536303,233.72103267228903 L152.90046128481606,233.714736829766 M152.90046128481606,233.714736829766 L153.0926561147404,233.6836955171859 M153.0926561147404,233.6836955171859 L153.2639937969284,233.6297238245739 M153.2639937969284,233.6297238245739 L153.4045097687311,233.5559631649681 M153.4045097687311,233.5559631649681 L153.5060567325391,233.46669319535042 M153.5060567325391,233.46669319535042 L153.5627315639627,233.3671068826469 M153.5627315639627,233.3671068826469 L153.57122713143445,233.2630022213351 M153.57122713143445,233.2630022213351 L153.53107568169992,233.1604196780324 M153.53107568169992,233.1604196780324 L153.44461201993556,233.06532175152353 M153.44461201993556,233.06532175152353 L153.3168523692192,232.9832393950076 M154.37879614861475,220.184046396344 L154.698851700445,220.38864779313894 M154.698851700445,220.38864779313894 L154.91554246347147,220.62570354856092 M154.91554246347147,220.62570354856092 L155.01625359415908,220.8814505686533 M155.01625359415908,220.8814505686533 L154.99509893469042,221.14103131355708 M154.99509893469042,221.14103131355708 L154.85326386547626,221.38936358038467 M154.85326386547626,221.38936358038467 L154.5989839385391,221.6119936823432 M154.5989839385391,221.6119936823432 L154.24699573483116,221.79597974907114 M154.24699573483116,221.79597974907114 L153.81777732724936,221.93059954385782 M153.81777732724936,221.93059954385782 L153.33626521233884,222.00802637382495 M153.33626521233884,222.00802637382495 L152.8304932383641,222.02373895172542 M152.8304932383641,222.02373895172542 L152.3298784179584,221.97682686545414 M152.3298784179584,221.97682686545414 L151.86354911673618,221.87002323170663 M151.86354911673618,221.87002323170663 L151.45862964774398,221.70954795325315 M151.45862964774398,221.70954795325315 L151.1386650747677,221.50474367685692 M151.1386650747677,221.50474367685692 L150.92223871376103,221.2675310042447 M150.92223871376103,221.2675310042447 L150.82190701552344,221.01171007409485 M150.82190701552344,221.01171007409485 L150.843467324764,220.75215440571202 M150.843467324764,220.75215440571202 L150.98564242635314,220.50394100855036 M150.98564242635314,220.50394100855036 L151.2401185724924,220.28149618616214 M151.2401185724924,220.28149618616214 L151.59211423771092,220.09771937293553 M151.59211423771092,220.09771937293553 L152.02114963929836,219.96328485549776 M152.02114963929836,219.96328485549776 L152.5023301991513,219.88597689873677 M152.5023301991513,219.88597689873677 L153.00769832194982,219.87028968682205 M153.00769832194982,219.87028968682205 L153.50792841815365,219.91712727992152 M153.50792841815365,219.91712727992152 L153.9739821475291,220.0237745783026 M153.9739821475291,220.0237745783026 L154.37879614861475,220.184046396344 M154.40088782512635,218.73331830250902 L154.72101845595944,218.9378550280524 M154.72101845595944,218.9378550280524 L154.93776087980103,219.17483586293358 M154.93776087980103,219.17483586293358 L155.03849724076053,219.43050206604016 M155.03849724076053,219.43050206604016 L155.01733989974042,219.69000079400917 M155.01733989974042,219.69000079400917 L154.87547437496085,219.93825460882698 M154.87547437496085,219.93825460882698 L154.6211379798628,220.16081438751885 M154.6211379798628,220.16081438751885 L154.26907056377746,220.3447423441056 M154.26907056377746,220.3447423441056 L153.83975480773825,220.47931962428396 M153.83975480773825,220.47931962428396 L153.35813286752875,220.55672200330775 M153.35813286752875,220.55672200330775 L152.85224499188666,220.57242961939352 M152.85224499188666,220.57242961939352 L152.35151494254956,220.5255323474363 M152.35151494254956,220.5255323474363 L151.885077797318,220.41876244250062 M151.885077797318,220.41876244250062 L151.48006414752672,220.25833784617117 M151.48006414752672,220.25833784617117 L151.16002453548674,220.05359825855413 M151.16002453548674,220.05359825855413 L150.94354663379335,219.81646052015745 M150.94354663379335,219.81646052015745 L150.84318987858973,219.56072041333644 M150.84318987858973,219.56072041333644 L150.86475305572185,219.30124675974696 M150.86475305572185,219.30124675974696 L151.0069587698194,219.05311180428654 M151.0069587698194,219.05311180428654 L151.2614914756398,218.83073728909707 M151.2614914756398,218.83073728909707 L151.61356635837,218.64701856786456 M151.61356635837,218.64701856786456 L152.04269902598702,218.51262654896743 M152.04269902598702,218.51262654896743 L152.52398926002934,218.43534303284082 M152.52398926002934,218.43534303284082 L153.02947309939265,218.41966078050785 M153.02947309939265,218.41966078050785 L153.52981824758052,218.46648356582003 M153.52981824758052,218.46648356582003 L153.99597969315096,218.57309714888046 M153.99597969315096,218.57309714888046 L154.40088782512635,218.73331830250902 M154.40088782512635,218.73331830250902 L154.37879614861475,220.184046396344" stroke="black"  stroke-width="4"  fill="red"/>
<path d="M-119.38176407067579,293.55651083697234 L-131.85037875174294,299.9083561686216 M-131.85037875174294,299.9083561686216 L-134.19440480428057,222.7688840406775 M-121.56671792415864,216.51979968112258 L-134.19440480428057,222.7688840406775 M-119.38176407067579,293.55651083697234 L-121.56671792415864,216.51979968112258 M-118.05571251052982,381.6665952392409 L-66.20809587312004,410.85247477612876 M-66.20809587312004,410.85247477612876 L-66.49749563769382,396.554504840522 M-66.49749563769382,396.554504840522 L-6.205352310338071,430.3256939544765 M-6.054313932225682,444.7140319175694 L-6.205352310338071,430.3256939544765 M-6.054313932225682,444.7140319175694 L262.8800536745407,596.1016282113751 M262.8800536745407,596.1016282113751 L263.38840220395684,581.3321297053245 M263.38840220395684,581.3321297053245 L331.8428202967199,619.6752200569908 M331.15645152055026,634.5355399701745 L331.8428202967199,619.6752200569908 M331.15645152055026,634.5355399701745 L540.8527611534431,752.5770552644308 M540.8527611534431,752.5770552644308 L547.5411346993541,672.2946281712847 M547.5411346993541,672.2946281712847 L562.5673393125176,680.5307515367671 M562.5673393125176,680.5307515367671 L569.6736999858798,597.8874438326075 M-134.19440480428057,222.7688840406775 L569.6736999858798,597.8874438326075 M-131.85037875174294,299.9083561686216 L-120.20792519973963,306.28978688913753 M-118.05571251052982,381.6665952392409 L-120.20792519973963,306.28978688913753 M574.9306722220824,672.2946281712847 L559.9114760329004,664.1018581858611 M553.071888861849,744.2875160526497 L559.9114760329004,664.1018581858611 M553.071888861849,744.2875160526497 L343.4493086388958,626.8468152399225 M343.4493086388958,626.8468152399225 L344.16476997575455,612.0044714847245 M344.16476997575455,612.0044714847245 L275.7257890615558,573.8521618604796 M275.188233010917,588.6036615135731 L275.7257890615558,573.8521618604796 M275.188233010917,588.6036615135731 L6.272713736464766,437.94419052805165 M6.272713736464766,437.94419052805165 L6.151021902287084,423.5737701287522 M6.151021902287084,423.5737701287522 L-54.14600114006669,389.96031385277126 M-53.88591383400575,404.24041980691305 L-54.14600114006669,389.96031385277126 M-53.88591383400575,404.24041980691305 L-105.74036561177627,375.1890497180416 M-105.74036561177627,375.1890497180416 L-107.73739118914358,299.9083599932946 M-107.73739118914358,299.9083599932946 L-119.38176407067579,293.55651083697234 M582.191682351308,589.7567757831678 L-121.56671792415864,216.51979968112258 M574.9306722220824,672.2946281712847 L582.191682351308,589.7567757831678 M-118.05571251052982,381.6665952392409 L-105.74036561177627,375.1890497180416 M-120.20792519973963,306.28978688913753 L-107.73739118914358,299.9083599932946 M-53.88591383400575,404.24041980691305 L-66.20809587312004,410.85247477612876 M-54.14600114006669,389.96031385277126 L-66.49749563769382,396.554504840522 M-6.054313932225682,444.7140319175694 L6.272713736464766,437.94419052805165 M-6.205352310338071,430.3256939544765 L6.151021902287084,423.5737701287522 M275.188233010917,588.6036615135731 L262.8800536745407,596.1016282113751 M275.7257890615558,573.8521618604796 L263.38840220395684,581.3321297053245 M331.15645152055026,634.5355399701745 L343.4493086388958,626.8468152399225 M331.8428202967199,619.6752200569908 L344.16476997575455,612.0044714847245 M553.071888861849,744.2875160526497 L540.8527611534431,752.5770552644308 M559.9114760329004,664.1018581858611 L547.5411346993541,672.2946281712847 M562.5673393125176,680.5307515367671 L574.9306722220824,672.2946281712847 M569.6736999858798,597.8874438326075 L582.191682351308,589.7567757831678" stroke="black"  stroke-width="4"  fill="red"/></svg>