<svg viewBox="0 0 800 800" xmlns="http://www.w3.org/2000/svg"><path d="M633.8103411796037,257.12024761416615 L633.8125374110532,257.0640308615184 M166.1644982866419,542.9200320277523 L166.16668951080646,542.8638121700678 M633.8103411796037,257.12024761416615 L688.2266711324337,295.46678758574853 M688.2266711324337,295.46678758574853 L725.8927664698858,339.88899738400505 M725.8927664698858,339.88899738400505 L744.6152405015891,387.810209113195 M744.6152405015891,387.810209113195 L743.3197094688367,436.4440827498438 M743.3197094688367,436.4440827498438 L722.0709658361156,482.9558888364845 M722.0709658361156,482.9558888364845 L682.095189450687,524.6500551144345 M682.095189450687,524.6500551144345 L625.7233815002546,559.1054706925097 M625.7233815002546,559.1054706925097 L556.2379005194234,584.3152140700731 M556.2379005194234,584.3152140700731 L477.6726781006146,598.8088619231421 M477.6726781006146,598.8088619231421 L394.5813821684569,601.748610822342 M394.5813821684569,601.748610822342 L311.8085721442476,592.9686390869174 M311.8085721442476,592.9686390869174 L234.1677915500186,572.9707677236802 M234.1677915500186,572.9707677236802 L166.1644982866419,542.9200320277523 M633.8125374110532,257.0640308615184 L688.2288680083584,295.4105704164467 M688.2288680083584,295.4105704164467 L725.89496380731,339.8327797320417 M725.89496380731,339.8327797320417 L744.6174380907032,387.7539909405932 M744.6174380907032,387.7539909405932 L743.3219070854539,436.38786404886923 M743.3219070854539,436.38786404886923 L722.0731632541574,482.8996696302129 M722.0731632541574,482.8996696302129 L682.0973864555999,524.59383545522 M682.0973864555999,524.59383545522 L625.7255779015832,559.049250659009 M625.7255779015832,559.049250659009 L556.2400961618405,584.2589937627272 M556.2400961618405,584.2589937627272 L477.6748728728562,598.7526414583554 M477.6748728728562,598.7526414583554 L394.5835760096088,601.6923903256175 M394.5835760096088,601.6923903256175 L311.8107650478778,592.9124186855624 M311.8107650478778,592.9124186855624 L234.1699835640611,572.9145475395526 M234.1699835640611,572.9145475395526 L166.16668951080646,542.8638121700678 M166.1644982866419,542.9200320277523 L111.75074550879071,504.56603140545485 M111.75074550879071,504.56603140545485 L74.09293696525856,460.1380701830203 M74.09293696525856,460.1380701830203 L55.38256190932589,412.21413349931754 M55.38256190932589,412.21413349931754 L56.691231911070645,363.5811862670744 M56.691231911070645,363.5811862670744 L77.95114287614706,317.0737450257948 M77.95114287614706,317.0737450257948 L117.93355796168908,275.38638224493116 M117.93355796168908,275.38638224493116 L174.30595575232292,240.9386511278026 M174.30595575232292,240.9386511278026 L243.78584255103488,215.73571227544016 M243.78584255103488,215.73571227544016 L322.34056766392314,201.2464287085786 M322.34056766392314,201.2464287085786 L405.4188667732233,198.30760529125837 M405.4188667732233,198.30760529125837 L488.179159589723,207.08485323953573 M488.179159589723,207.08485323953573 L565.8107704429713,227.076972957595 M565.8107704429713,227.076972957595 L633.8103411796037,257.12024761416615 M166.16668951080646,542.8638121700678 L111.75293608859647,504.50981196442444 M111.75293608859647,504.50981196442444 L74.0951270837104,460.08185122462965 M74.0951270837104,460.08185122462965 L55.38475177632063,412.1579150615871 M55.38475177632063,412.1579150615871 L56.69342175088241,363.5249683577131 M56.69342175088241,363.5249683577131 L77.95333291476709,317.0175276217233 M77.95333291476709,317.0175276217233 L117.9357484136126,275.33016529380984 M117.9357484136126,275.33016529380984 L174.30814680785988,240.88243455097472 M174.30814680785988,240.88243455097472 L243.7880343653669,215.67949597246115 M243.7880343653669,215.67949597246115 L322.3427603482269,201.1902125630404 M322.3427603482269,201.1902125630404 L405.4210603882675,198.25138917765435 M405.4210603882675,198.25138917765435 L488.181354142027,207.0286370305621 M488.181354142027,207.0286370305621 L565.812965884601,227.02075653138672 M565.812965884601,227.02075653138672 L633.8125374110532,257.0640308615184" stroke="black"  stroke-width="4"  fill="red"/></svg>