<svg viewBox="0 0 800 800" xmlns="http://www.w3.org/2000/svg"><path d="M633.833367671115,54.88480895692055 L588.3586307178375,30.05669230717899 M724.1258754818987,-9.973115263517911 L678.7209150648127,-34.488158002127534 M633.833367671115,54.88480895692055 L633.2931682108479,61.95368353996878 M633.2931682108479,61.95368353996878 L633.4778627727628,68.39029412337413 M633.4778627727628,68.39029412337413 L634.383518814514,74.09333671047489 M634.383518814514,74.09333671047489 L635.9946983208629,78.97344285032432 M635.9946983208629,78.97344285032432 L638.2847637251252,82.9547303549914 M638.2847637251252,82.9547303549914 L641.2164219314254,85.97569826822678 M641.2164219314254,85.97569826822678 L644.7423371647687,87.99033570950974 M644.7423371647687,87.99033570950974 L648.805971981637,88.9686186305862 M648.805971981637,88.9686186305862 L653.3425448224739,88.89680407479955 M653.3425448224739,88.89680407479955 L658.2800616952572,87.77778386491536 M658.2800616952572,87.77778386491536 L663.5405263442681,85.63068534509398 M663.5405263442681,85.63068534509398 L669.041115581635,82.49062405856125 M669.041115581635,82.49062405856125 L674.6955366544325,78.40797402423323 M674.6955366544325,78.40797402423323 L680.4153462828981,73.44757989787331 M680.4153462828981,73.44757989787331 L686.1112286503139,67.68775763449094 M686.1112286503139,67.68775763449094 L691.6944833214425,61.21890749403201 M691.6944833214425,61.21890749403201 L697.0782111117956,54.14227362696897 M697.0782111117956,54.14227362696897 L702.1787197639733,46.56821749232063 M702.1787197639733,46.56821749232063 L706.916717654266,38.61480040142919 M706.916717654266,38.61480040142919 L711.2185006272571,30.40578425947274 M711.2185006272571,30.40578425947274 L715.0170348992237,22.068858521096672 M715.0170348992237,22.068858521096672 L718.2530269088325,13.733797922391886 M718.2530269088325,13.733797922391886 L720.8757281725784,5.530403821229356 M720.8757281725784,5.530403821229356 L722.8437762050007,-2.4132842786357287 M722.8437762050007,-2.4132842786357287 L724.1258754818987,-9.973115263517911 M588.3586307178375,30.05669230717899 L587.8389887686694,37.1189476477 M587.8389887686694,37.1189476477 L588.0444401416239,43.55155431398771 M588.0444401416239,43.55155431398771 L588.9707250210172,49.25326781118838 M588.9707250210172,49.25326781118838 L590.6020811810995,54.134735293556105 M590.6020811810995,54.134735293556105 L592.9115554730724,58.120046223065856 M592.9115554730724,58.120046223065856 L595.8615520653375,61.14762852670128 M595.8615520653375,61.14762852670128 L599.4044503982673,63.17135874767746 M599.4044503982673,63.17135874767746 L603.4834500892425,64.1610612634795 M603.4834500892425,64.1610612634795 L608.0335321313237,64.10280552019185 M608.0335321313237,64.10280552019185 L612.982494680256,62.999262880139895 M612.982494680256,62.999262880139895 L618.2521655560358,60.869311561501036 M618.2521655560358,60.869311561501036 L623.7595803373019,57.74779326721114 M623.7595803373019,57.74779326721114 L629.4183415866328,53.684788234721054 M629.4183415866328,53.684788234721054 L635.1399395049725,48.744832027900884 M635.1399395049725,48.744832027900884 L640.8350307983255,43.005920776746734 M640.8350307983255,43.005920776746734 L646.4149269337095,36.55812956979753 M646.4149269337095,36.55812956979753 L651.7927799186718,29.50237634485734 M651.7927799186718,29.50237634485734 L656.8849870441095,21.948700524634432 M656.8849870441095,21.948700524634432 L661.6123839889397,14.014849867085104 M661.6123839889397,14.014849867085104 L665.9014291891676,5.824285842798645 M665.9014291891676,5.824285842798645 L669.6852846474171,-2.495585274444238 M669.6852846474171,-2.495585274444238 L672.9048833970869,-10.815250549535904 M672.9048833970869,-10.815250549535904 L675.5097304353253,-19.005145550122734 M675.5097304353253,-19.005145550122734 L677.4587406308165,-26.937439385797916 M677.4587406308165,-26.937439385797916 L678.7209150648127,-34.488158002127534 M633.869793552979,54.85864391684299 L633.833367671115,54.88480895692055 M588.3950841896467,30.030653967199214 L588.3586307178375,30.05669230717899 M588.3950841896467,30.030653967199214 L633.869793552979,54.85864391684299 M724.1258754818987,-9.973115263517911 L724.0899092866575,-9.947280420494963 M678.6849205231815,-34.46244747125377 L724.0899092866575,-9.947280420494963 M678.7209150648127,-34.488158002127534 L678.6849205231815,-34.46244747125377 M724.0899092866575,-9.947280420494963 L724.2087530387589,-10.739571953161203 M724.2087530387589,-10.739571953161203 L724.3196497260496,-11.526440181984526 M724.3196497260496,-11.526440181984526 L724.4225894971969,-12.307814537812874 M724.4225894971969,-12.307814537812874 L634.120453710218,52.543503477121476 M634.120453710218,52.543503477121476 L634.0287776459909,53.32129710376648 M634.0287776459909,53.32129710376648 L633.9452147072666,54.093039548932666 M633.9452147072666,54.093039548932666 L633.869793552979,54.85864391684299 M678.6849205231815,-34.46244747125377 L678.8016285679337,-35.25382899564261 M678.8016285679337,-35.25382899564261 L678.910382363586,-36.03981432599221 M678.910382363586,-36.03981432599221 L679.0111722532015,-36.82033297039197 M679.0111722532015,-36.82033297039197 L588.6392333384924,27.717903355849785 M588.6392333384924,27.717903355849785 L588.549722247275,28.49487178413824 M588.549722247275,28.49487178413824 L588.4683297060715,29.265817570510535 M588.4683297060715,29.265817570510535 L588.3950841896467,30.030653967199214 M634.120453710218,52.543503477121476 L613.7380438483669,41.41791026298779 M613.7380438483669,41.41791026298779 L608.9670508911313,38.8136977469278 M608.9670508911313,38.8136977469278 L588.6392333384924,27.717903355849785 M724.4225894971969,-12.307814537812874 L679.0111722532015,-36.82033297039197 M613.7380438483669,41.41791026298779 L614.052930276925,41.09428512193267 M614.052930276925,41.09428512193267 L614.2357110801304,40.726595041042174 M614.2357110801304,40.726595041042174 L614.2776599966674,40.332329107654914 M614.2776599966674,40.332329107654914 L614.176752099399,39.93024426412512 M614.176752099399,39.93024426412512 L613.9380001130544,39.53956890187101 M613.9380001130544,39.53956890187101 L613.5727080129768,39.17887945680559 M613.5727080129768,39.17887945680559 L613.0982735825778,38.86532110340204 M613.0982735825778,38.86532110340204 L612.5371109108178,38.613724906908146 M612.5371109108178,38.613724906908146 L611.9161990103953,38.436197603971095 M611.9161990103953,38.436197603971095 L611.2649113453899,38.3411051013461 M611.2649113453899,38.3411051013461 L610.6141998539119,38.33292529060395 M610.6141998539119,38.33292529060395 L609.9953356635951,38.4122342260132 M609.9953356635951,38.4122342260132 L609.4373041883441,38.57500054877528 M609.4373041883441,38.57500054877528 L608.9670508911313,38.8136977469278 M608.9670508911313,38.8136977469278 L608.5679113871529,39.16158771961864 M608.5679113871529,39.16158771961864 L608.3344290937175,39.57103835649582 M608.3344290937175,39.57103835649582 L608.2808412513177,40.016989945354226 M608.2808412513177,40.016989945354226 L608.410657080613,40.47231705454169 M608.410657080613,40.47231705454169 L608.7157271007814,40.90903964237805 M608.7157271007814,40.90903964237805 L609.1775325992635,41.30052075113122 M609.1775325992635,41.30052075113122 L609.7678596143105,41.62282128594484 M609.7678596143105,41.62282128594484 L610.4505654659401,41.85619554241225 M610.4505654659401,41.85619554241225 L611.1839112963448,41.986368601261574 M611.1839112963448,41.986368601261574 L611.9231689268249,42.00543533373093 M611.9231689268249,42.00543533373093 L612.6228623705001,41.91210152128065 M612.6228623705001,41.91210152128065 L613.2404330299714,41.712191477546185 M613.2404330299714,41.712191477546185 L613.7380438483669,41.41791026298779 M613.0982735825778,38.86532110340204 L617.9520546808549,-1.1222827819337908 M617.9520546808549,-1.1222827819337908 L618.4718542069236,-0.7732239253120952 M618.4718542069236,-0.7732239253120952 L618.8555294019316,-0.368838854360547 M618.8555294019316,-0.368838854360547 L619.0807263229785,0.06734333971417072 M619.0807263229785,0.06734333971417072 L619.1344569284197,0.5100544293027269 M619.1344569284197,0.5100544293027269 L619.0136129877387,0.9335758757647454 M619.0136129877387,0.9335758757647454 L618.7250009113732,1.3131883785849823 M618.7250009113732,1.3131883785849823 L618.2855221267023,1.6268863944881105 M618.2855221267023,1.6268863944881105 L617.720709538894,1.856428923490057 M617.720709538894,1.856428923490057 L617.06326799935,1.9883858102148224 M617.06326799935,1.9883858102148224 L616.3516046884788,2.0151886517969615 M616.3516046884788,2.0151886517969615 L615.6270766019506,1.9352571270483168 M615.6270766019506,1.9352571270483168 L614.931674860723,1.753178183052114 M614.931674860723,1.753178183052114 L614.3058967191259,1.4795656503722512 M614.3058967191259,1.4795656503722512 L613.7861250267047,1.130352387320272 M613.7861250267047,1.130352387320272 L613.4025946367474,0.725848284361291 M613.4025946367474,0.725848284361291 L613.1774802380787,0.2895302965346218 M613.1774802380787,0.2895302965346218 L613.1240096513252,-0.15316162786098175 M613.1240096513252,-0.15316162786098175 L613.2450855062089,-0.5765927300499243 M613.2450855062089,-0.5765927300499243 L613.5338481890453,-0.9560644271771253 M613.5338481890453,-0.9560644271771253 L613.9733618249838,-1.269603416626751 M613.9733618249838,-1.269603416626751 L614.5380855266981,-1.4990051210274942 M614.5380855266981,-1.4990051210274942 L615.1953347434637,-1.630871696191889 M615.1953347434637,-1.630871696191889 L615.9067464387927,-1.65765535934338 M615.9067464387927,-1.65765535934338 L616.6311672867273,-1.577700821016606 M616.6311672867273,-1.577700821016606 L617.3263720511204,-1.3957409050613023 M617.3263720511204,-1.3957409050613023 L617.9520546808549,-1.1222827819337908 M612.6842776401145,17.244123261313007 L612.6206473428392,17.49195975177122 M612.6206473428392,17.49195975177122 L612.4948809448956,17.741210968375526 M612.4948809448956,17.741210968375526 L612.3195335183073,17.983889499047336 M612.3195335183073,17.983889499047336 L612.1104399912638,18.215723602510934 M612.1104399912638,18.215723602510934 L611.8833020053944,18.43258595678003 M611.8833020053944,18.43258595678003 L611.6533490343218,18.629837675624913 M611.6533490343218,18.629837675624913 L611.4354947740107,18.80169827028999 M611.4354947740107,18.80169827028999 L611.3053527675356,18.89748144987925 M611.3053527675356,18.89748144987925 L611.1737061496578,18.987243174439527 M611.1737061496578,18.987243174439527 L611.0632374052434,19.05385628207364 M611.0632374052434,19.05385628207364 L610.9847992700652,19.09139129354844 M610.9847992700652,19.09139129354844 L610.9149596634729,19.109156614981202 M610.9149596634729,19.109156614981202 L610.8627385177956,19.093735743924753 M610.8627385177956,19.093735743924753 L610.8350111929167,19.039087479108503 M610.8350111929167,19.039087479108503 L610.8273163847002,18.94362232424851 M610.8273163847002,18.94362232424851 L610.8318185659673,18.84155567392918 M610.8318185659673,18.84155567392918 L610.8429582177973,18.71877008166757 M610.8429582177973,18.71877008166757 L610.8591981888362,18.574358800938626 M610.8591981888362,18.574358800938626 L610.8782594199656,18.42105900334218 M610.8782594199656,18.42105900334218 L610.9072017963567,18.20963213615937 M610.9072017963567,18.20963213615937 L610.9476553636587,17.954534095872987 M610.9476553636587,17.954534095872987 L610.9991594528306,17.691527652449167 M610.9991594528306,17.691527652449167 L611.0654810184378,17.43077480950251 M611.0654810184378,17.43077480950251 L611.1498082789481,17.182025468564916 M611.1498082789481,17.182025468564916 L611.2548957441586,16.954860661728617 M611.2548957441586,16.954860661728617 L611.381600982877,16.758301108893875 M611.381600982877,16.758301108893875 L611.5283904505782,16.600616965372637 M611.5283904505782,16.600616965372637 L611.6522085509068,16.510432537603947 M611.6522085509068,16.510432537603947 L611.7806750822865,16.44980965543482 M611.7806750822865,16.44980965543482 L611.912966565676,16.417396152326774 M611.912966565676,16.417396152326774 L612.0458205398736,16.413137326027936 M612.0458205398736,16.413137326027936 L612.2177796553392,16.44959511645061 M612.2177796553392,16.44959511645061 L612.3937940630935,16.54336870717043 M612.3937940630935,16.54336870717043 L612.5392309846784,16.68608488659379 M612.5392309846784,16.68608488659379 L612.6150128638201,16.808434435113668 M612.6150128638201,16.808434435113668 L612.666089156276,16.946779339814157 M612.666089156276,16.946779339814157 L612.6886147458413,17.084964617544074 M612.6886147458413,17.084964617544074 L612.6901850750578,17.16355594801462 M612.6901850750578,17.16355594801462 L612.6842776401145,17.244123261313007 M616.8247674514937,19.498965654327776 L616.8491681152491,19.278976050361734 M616.8491681152491,19.278976050361734 L616.857827431153,19.17061074509138 M616.857827431153,19.17061074509138 L616.8597151409153,19.065591495221042 M616.8597151409153,19.065591495221042 L616.8489860267641,18.99188418251515 M616.8489860267641,18.99188418251515 L616.8225033225281,18.94881239217011 M616.8225033225281,18.94881239217011 L616.7774653955526,18.93531705241503 M616.7774653955526,18.93531705241503 L616.7113084983357,18.950103545929096 M616.7113084983357,18.950103545929096 L616.622860631313,18.9918419691669 M616.622860631313,18.9918419691669 L616.5119567942752,19.058935749772218 M616.5119567942752,19.058935749772218 L616.3974752029735,19.136884327796906 M616.3974752029735,19.136884327796906 L616.2459117473904,19.248149009409644 M616.2459117473904,19.248149009409644 L616.0581069089426,19.395743778618225 M616.0581069089426,19.395743778618225 L615.9080910117436,19.52138349477309 M615.9080910117436,19.52138349477309 L615.708782056257,19.700567979298057 M615.708782056257,19.700567979298057 L615.4932188235912,19.91765106283856 M615.4932188235912,19.91765106283856 L615.3004118818621,20.147404761224834 M615.3004118818621,20.147404761224834 L615.1853621949249,20.316248348586896 M615.1853621949249,20.316248348586896 L615.0940908411385,20.488037268820335 M615.0940908411385,20.488037268820335 L615.0338836878191,20.65139008957476 M615.0338836878191,20.65139008957476 L615.0036954511802,20.798207005423592 M615.0036954511802,20.798207005423592 L614.9995917361493,20.970315400141544 M614.9995917361493,20.970315400141544 L615.0369221073006,21.150812070523443 M615.0369221073006,21.150812070523443 L615.1140145906506,21.310614050638833 M615.1140145906506,21.310614050638833 L615.2242991778326,21.443865530936137 M615.2242991778326,21.443865530936137 L615.3601950424959,21.545168558199748 M615.3601950424959,21.545168558199748 L615.5139949149293,21.6097268601211 M615.5139949149293,21.6097268601211 L615.6782021776817,21.63352558100678 M615.6782021776817,21.63352558100678 L615.8458358060661,21.613828142851162 M615.8458358060661,21.613828142851162 L616.009587008401,21.549194964719163 M616.009587008401,21.549194964719163 L616.1350383388403,21.464484005646 M616.1350383388403,21.464484005646 L616.2429801966318,21.36184948580717 M616.2429801966318,21.36184948580717 L616.3718345036536,21.192385954934252 M616.3718345036536,21.192385954934252 L616.4623942236094,21.03204154481864 M616.4623942236094,21.03204154481864 L616.5432776162584,20.84749571287557 M616.5432776162584,20.84749571287557 L616.6311083540768,20.581568313619982 M616.6311083540768,20.581568313619982 L616.7061187770128,20.268264188645844 M616.7061187770128,20.268264188645844 L616.7452350667058,20.057525824008962 M616.7452350667058,20.057525824008962 L616.7774906096465,19.852658783511743 M616.7774906096465,19.852658783511743 L616.8018590980928,19.678789887930407 M616.8018590980928,19.678789887930407 L616.8138324062152,19.586454363062558 M616.8138324062152,19.586454363062558 L616.8247674514937,19.498965654327776 M620.68545131564,-3.072797220345592 L621.9849187291575,-2.20047166356062 M621.9849187291575,-2.20047166356062 L622.9444580539848,-1.1896973602213166 M622.9444580539848,-1.1896973602213166 L623.5080214892814,-0.09926570605875895 M623.5080214892814,-0.09926570605875895 L623.6429121268179,1.0075851886242617 M623.6429121268179,1.0075851886242617 L623.3410876557496,2.066481313722079 M623.3410876557496,2.066481313722079 L622.6199200998085,3.015811466771993 M622.6199200998085,3.015811466771993 L621.5212886343356,3.8003548836929895 M621.5212886343356,3.8003548836929895 L620.1090243698613,4.374430767247077 M620.1090243698613,4.374430767247077 L618.4652024184816,4.704574425149303 M618.4652024184816,4.704574425149303 L616.68550246722,4.771575302800329 M616.68550246722,4.771575302800329 L614.8735574277034,4.571563728110277 M614.8735574277034,4.571563728110277 L613.1346174686478,4.11609830069915 M613.1346174686478,4.11609830069915 L611.5700556309316,3.4318244172904997 M611.5700556309316,3.4318244172904997 L610.2706161168126,2.5584544111127343 M610.2706161168126,2.5584544111127343 L609.3121278889271,1.547015565425454 M609.3121278889271,1.547015565425454 L608.7498471395711,0.45615206002003106 M608.7498471395711,0.45615206002003106 L608.6165816932694,-0.6505790293088012 M608.6165816932694,-0.6505790293088012 L608.9198554822246,-1.7089105339098296 M608.9198554822246,-1.7089105339098296 L609.6419644115736,-2.6573606181502782 M609.6419644115736,-2.6573606181502782 L610.7408136989839,-3.4409101134544926 M610.7408136989839,-3.4409101134544926 L612.1525223347435,-4.014105912117884 M612.1525223347435,-4.014105912117884 L613.7951424389116,-4.343684980351782 M613.7951424389116,-4.343684980351782 L615.5732697070316,-4.410566067311265 M615.5732697070316,-4.410566067311265 L617.3837775769161,-4.210827550072281 M617.3837775769161,-4.210827550072281 L619.121340364989,-3.7561854574983045 M619.121340364989,-3.7561854574983045 L620.68545131564,-3.072797220345592 M612.6842776401145,17.244123261313007 L592.0122959597652,5.986503326496859 M592.0122959597652,5.986503326496859 L592.0194917761819,5.7248383033772825 M592.0194917761819,5.7248383033772825 L591.9733242589587,5.516117375164185 M591.9733242589587,5.516117375164185 L591.8764841346956,5.372424148901928 M591.8764841346956,5.372424148901928 L591.7345721806664,5.3022001728324994 M591.7345721806664,5.3022001728324994 L591.5558562953524,5.309468870558703 M591.5558562953524,5.309468870558703 L591.350705108769,5.393845729652412 M591.350705108769,5.393845729652412 L591.1310522525723,5.550395532567109 M591.1310522525723,5.550395532567109 L590.9096626512464,5.770023325083912 M590.9096626512464,5.770023325083912 L590.6994089929458,6.039989285305637 M590.6994089929458,6.039989285305637 L590.512502901679,6.344587219391997 M590.512502901679,6.344587219391997 L590.3598204840459,6.666148975273018 M590.3598204840459,6.666148975273018 L590.25023125508,6.985916073397675 M590.25023125508,6.985916073397675 L590.1901047082929,7.285341279677141 M590.1901047082929,7.285341279677141 L590.1829436678495,7.546972714173535 M590.1829436678495,7.546972714173535 L590.2291457449887,7.755704514805302 M590.2291457449887,7.755704514805302 L590.3260284775779,7.89931568336624 M590.3260284775779,7.89931568336624 L590.4679694348429,7.969482597803108 M590.4679694348429,7.969482597803108 L590.6466983671066,7.962159132007855 M590.6466983671066,7.962159132007855 L590.8518393634499,7.8777781172020696 M590.8518393634499,7.8777781172020696 L591.0714687268955,7.721212372539412 M591.0714687268955,7.721212372539412 L591.2928269146823,7.501560504176496 M591.2928269146823,7.501560504176496 L591.5030408358575,7.231631200563015 M591.5030408358575,7.231631200563015 L591.6899122582822,6.9270864835339125 M591.6899122582822,6.9270864835339125 L591.8425687310346,6.605618092861732 M591.8425687310346,6.605618092861732 L591.9521585710954,6.285863988717665 M591.9521585710954,6.285863988717665 L592.0122959597652,5.986503326496859 M637.5514762900357,30.786389095966342 L616.8247674514937,19.498965654327776 M637.5514762900357,30.786389095966342 L637.4905812515162,31.086145159243415 M637.4905812515162,31.086145159243415 L637.380317838355,31.406455573249104 M637.380317838355,31.406455573249104 L637.227111264966,31.728608742262395 M637.227111264966,31.728608742262395 L637.0398451002634,32.033927013277435 M637.0398451002634,32.033927013277435 L636.8294146697085,32.30467367083929 M636.8294146697085,32.30467367083929 L636.6080307564744,32.52513927257564 M636.6080307564744,32.52513927257564 L636.3885680492376,32.682467784486334 M636.3885680492376,32.682467784486334 L636.183776412623,32.767516281509415 M636.183776412623,32.767516281509415 L636.0055591365735,32.77537316229041 M636.0055591365735,32.77537316229041 L635.8642624551453,32.705574611802376 M635.8642624551453,32.705574611802376 L635.7681192171508,32.56214525070436 M635.7681192171508,32.56214525070436 L635.7227089792273,32.353398132765506 M635.7227089792273,32.353398132765506 L635.7306679179765,32.091555214610935 M635.7306679179765,32.091555214610935 L635.7915523126835,31.79173452240866 M635.7915523126835,31.79173452240866 L635.9018151665709,31.471410988003754 M635.9018151665709,31.471410988003754 L636.055047952595,31.149164168829202 M636.055047952595,31.149164168829202 L636.2423489336079,30.843792409793878 M636.2423489336079,30.843792409793878 L636.4528191939007,30.573008862021425 M636.4528191939007,30.573008862021425 L636.6742344380182,30.352567232099545 M636.6742344380182,30.352567232099545 L636.8937205746793,30.195254642776945 M636.8937205746793,30.195254642776945 L637.0985223720418,30.110210371565472 M637.0985223720418,30.110210371565472 L637.276726436583,30.102408470688715 M637.276726436583,30.102408470688715 L637.4179939520345,30.172264349150964 M637.4179939520345,30.172264349150964 L637.5140943588676,30.3157760664933 M637.5140943588676,30.3157760664933 L637.5594700798597,30.524512467116892 M637.5594700798597,30.524512467116892 L637.5514762900357,30.786389095966342 M620.68545131564,-3.072797220345592 L623.2587470340545,-24.249091246877924 M623.2587470340545,-24.249091246877924 L624.5599299496139,-23.377578156287427 M624.5599299496139,-23.377578156287427 L625.5208290237183,-22.36774505269932 M625.5208290237183,-22.36774505269932 L626.0853170051705,-21.27832851405128 M626.0853170051705,-21.27832851405128 L626.2206432114958,-20.172507745613757 M626.2206432114958,-20.172507745613757 L625.9187396124967,-19.114596857345077 M625.9187396124967,-19.114596857345077 L625.1969824750386,-18.166149781693548 M625.1969824750386,-18.166149781693548 L624.097285096067,-17.38233600223316 M624.097285096067,-17.38233600223316 L622.6835404697581,-16.808793930083084 M622.6835404697581,-16.808793930083084 L621.0379097698037,-16.478957226569946 M621.0379097698037,-16.478957226569946 L619.2561780824499,-16.412018640656697 M619.2561780824499,-16.412018640656697 L617.4420967915275,-16.61184425853321 M617.4420967915275,-16.61184425853321 L615.7010402949609,-17.066886192266338 M615.7010402949609,-17.066886192266338 L614.1345051640046,-17.750523746925637 M614.1345051640046,-17.750523746925637 L612.8333501163993,-18.62308142415577 M612.8333501163993,-18.62308142415577 L611.8735042231897,-19.633579306767842 M611.8735042231897,-19.633579306767842 L611.3103019402679,-20.7234276998704 M611.3103019402679,-20.7234276998704 L611.1766046975376,-21.82912863674028 M611.1766046975376,-21.82912863674028 L611.4799610942509,-22.886474780975277 M611.4799610942509,-22.886474780975277 L612.2026619951048,-23.834041595260942 M612.2026619951048,-23.834041595260942 L613.3025779487652,-24.61686123563709 M613.3025779487652,-24.61686123563709 L614.7157658894321,-25.189523030336204 M614.7157658894321,-25.189523030336204 L616.3601921175591,-25.518795020650714 M616.3601921175591,-25.518795020650714 L618.1403475308684,-25.585613789662375 M618.1403475308684,-25.585613789662375 L619.9529881057015,-25.38606138025716 M619.9529881057015,-25.38606138025716 L621.692664220484,-24.931842870228593 M621.692664220484,-24.931842870228593 L623.2587470340545,-24.249091246877924 M490.3040003737615,560.577755335454 L445.9779175549402,534.986079487886 M445.9779175549402,534.986079487886 L75.57741050280265,809.8978766726782 M120.13598102289825,836.8203329703917 L75.57741050280265,809.8978766726782 M490.3040003737615,560.577755335454 L120.13598102289825,836.8203329703917 M517.035018133517,334.13963011011583 L472.0834263160373,308.77002576898985 M517.035018133517,334.13963011011583 L490.3040003737615,560.577755335454 M472.0834263160373,308.77002576898985 L445.9779175549402,534.986079487886 M134.0613108595544,554.802091607618 L472.0834263160373,308.77002576898985 M122.79586361816064,669.6889467339088 L134.0613108595544,554.802091607618 M122.79586361816064,669.6889467339088 L86.49325601353303,696.3743135033565 M75.57741050280265,809.8978766726782 L86.49325601353303,696.3743135033565 M120.13598102289825,836.8203329703917 L131.36688712975047,723.1911622272753 M86.49325601353303,696.3743135033565 L131.36688712975047,723.1911622272753 M131.36688712975047,723.1911622272753 L167.6484278899593,696.3742920762095 M167.6484278899593,696.3742920762095 L179.232975818471,581.3764927360464 M179.232975818471,581.3764927360464 L517.035018133517,334.13963011011583 M179.232975818471,581.3764927360464 L134.0613108595544,554.802091607618 M167.6484278899593,696.3742920762095 L122.79586361816064,669.6889467339088 M559.5902592060006,479.68810240704056 L564.2136207196177,441.59879737207325 M564.2136207196177,441.59879737207325 L564.7191213928186,441.954267354731 M564.7191213928186,441.954267354731 L565.0914859445534,442.36607898969487 M565.0914859445534,442.36607898969487 L565.3090195499458,442.81027082292417 M565.3090195499458,442.81027082292417 L565.35917717759,443.26111050661325 M565.35917717759,443.26111050661325 L565.2390583678621,443.69240732509115 M565.2390583678621,443.69240732509115 L564.955433608839,444.07898834861703 M564.955433608839,444.07898834861703 L564.5249114076737,444.39844437457555 M564.5249114076737,444.39844437457555 L563.9725044580073,444.63219991759297 M563.9725044580073,444.63219991759297 L563.3301998109196,444.76657862082584 M563.3301998109196,444.76657862082584 L562.6355192526062,444.79387336711807 M562.6355192526062,444.79387336711807 L561.9288324692379,444.7124748722697 M561.9288324692379,444.7124748722697 L561.2510962886872,444.52705414871843 M561.2510962886872,444.52705414871843 L560.641778750417,444.2484195781683 M560.641778750417,444.2484195781683 L560.136305363239,443.8927961360919 M560.136305363239,443.8927961360919 L559.7640793319556,443.4808661991726 M559.7640793319556,443.4808661991726 L559.5466215894417,443.0365374601156 M559.5466215894417,443.0365374601156 L559.4967115262016,442.5857168240743 M559.4967115262016,442.5857168240743 L559.6170507742099,442.1545097957662 M559.6170507742099,442.1545097957662 L559.9008182747862,441.76806871433814 M559.9008182747862,441.76806871433814 L560.3313728723842,441.44877073948555 M560.3313728723842,441.44877073948555 L560.8836944534464,441.21515515735723 M560.8836944534464,441.21515515735723 L561.5258154649578,441.0808662117822 M561.5258154649578,441.0808662117822 L562.2202562701173,441.05359052629433 M562.2202562701173,441.05359052629433 L562.9268442153398,441.13501383850553 M562.9268442153398,441.13501383850553 L563.6043933785036,441.32031626404364 M563.6043933785036,441.32031626404364 L564.2136207196177,441.59879737207325 M559.5902592060006,479.68810240704056 L558.9824443471889,479.40921585670276 M558.9824443471889,479.40921585670276 L558.3064120208396,479.22364363108886 M558.3064120208396,479.22364363108886 L557.6013573760515,479.14210176230927 M557.6013573760515,479.14210176230927 L556.9083769727658,479.16941716290603 M556.9083769727658,479.16941716290603 L556.2675590720119,479.30390163727384 M556.2675590720119,479.30390163727384 L555.716307217463,479.53785735363203 M555.716307217463,479.53785735363203 L555.2865271166802,479.8576201773237 M555.2865271166802,479.8576201773237 L555.0031938635907,480.24462380316777 M555.0031938635907,480.24462380316777 L554.8829229985804,480.6764584714979 M554.8829229985804,480.6764584714979 L554.9325319722298,481.12793521656295 M554.9325319722298,481.12793521656295 L555.1493361431972,481.57291053710605 M555.1493361431972,481.57291053710605 L555.5205944012891,481.9854398387306 M555.5205944012891,481.9854398387306 L556.0248417816492,482.34158066412715 M556.0248417816492,482.34158066412715 L556.6327463891012,482.62062057444973 M556.6327463891012,482.62062057444973 L557.3089648893806,482.80631101903464 M557.3089648893806,482.80631101903464 L558.0141176636439,482.8878279153291 M558.0141176636439,482.8878279153291 L558.7073368126707,482.86049346666346 M558.7073368126707,482.86049346666346 L559.3483376099148,482.7259192946103 M559.3483376099148,482.7259192946103 L559.8996745319946,482.49182371087795 M559.8996745319946,482.49182371087795 L560.3294224419869,482.1719029416829 M560.3294224419869,482.1719029416829 L560.6126136187813,481.7847594672437 M560.6126136187813,481.7847594672437 L560.7326650182099,481.3528350687377 M560.7326650182099,481.3528350687377 L560.6828095371529,480.90133928875116 M560.6828095371529,480.90133928875116 L560.4659300661388,480.4565009542671 M560.4659300661388,480.4565009542671 L560.0945338232086,480.0440898755537 M560.0945338232086,480.0440898755537 L559.5902592060006,479.68810240704056 M566.891334044421,439.61244726248447 L568.1550554802293,440.5008018125427 M568.1550554802293,440.5008018125427 L569.0863043217068,441.5301445300545 M569.0863043217068,441.5301445300545 L569.6306857824916,442.64060243348376 M569.6306857824916,442.64060243348376 L569.7566185873952,443.7677752762172 M569.7566185873952,443.7677752762172 L569.4565894108537,444.84610737863045 M569.4565894108537,444.84610737863045 L568.7478732809745,445.81285784803435 M568.7478732809745,445.81285784803435 L567.671628659898,446.6117944553032 M567.671628659898,446.6117944553032 L566.2903869070078,447.19640042815263 M566.2903869070078,447.19640042815263 L564.684419631626,447.53259908724203 M564.684419631626,447.53259908724203 L562.9472007165114,447.60082873080296 M562.9472007165114,447.60082873080296 L561.1798860543645,447.3971489699816 M561.1798860543645,447.3971489699816 L559.48513050457,446.93332964837055 M559.48513050457,446.93332964837055 L557.9617283932739,446.236503317866 M557.9617283932739,446.236503317866 L556.6980353556246,445.34710877935026 M556.6980353556246,445.34710877935026 L555.7677944107163,444.31710754022333 M555.7677944107163,444.31710754022333 L555.224633421939,443.20621848926703 M555.224633421939,443.20621848926703 L555.1002479653398,442.0791647170927 M555.1002479653398,442.0791647170927 L555.4016547423471,441.0013937722217 M555.4016547423471,441.0013937722217 L556.111263085782,440.03551797394834 M556.111263085782,440.03551797394834 L557.1877101859659,439.2375691923264 M557.1877101859659,439.2375691923264 L558.5684182991067,438.65383790658257 M558.5684182991067,438.65383790658257 L560.1732380134913,438.31820037438683 M560.1732380134913,438.31820037438683 L561.9089583898635,438.2500897868101 M561.9089583898635,438.2500897868101 L563.6749089777577,438.45350010984544 M563.6749089777577,438.45350010984544 L565.3683535247746,438.9164992014107 M565.3683535247746,438.9164992014107 L566.891334044421,439.61244726248447 M567.4355173703525,435.1342265777014 L568.6995993036162,436.0224281083026 M568.6995993036162,436.0224281083026 L569.631133045028,437.0515935673725 M569.631133045028,437.0515935673725 L570.1757071615361,438.16186029960204 M570.1757071615361,438.16186029960204 L570.3017291734391,439.2888391527151 M570.3017291734391,439.2888391527151 L570.0016804868051,440.366985726906 M570.0016804868051,440.366985726906 L569.2928371902126,441.33356991219216 M569.2928371902126,441.33356991219216 L568.2163651073656,442.13236913293395 M568.2163651073656,442.13236913293395 L566.8348088041653,442.71687459489203 M566.8348088041653,442.71687459489203 L565.228458176337,443.05301545884254 M565.228458176337,443.05301545884254 L563.4908094441407,443.1212333738497 M563.4908094441407,443.1212333738497 L561.7230435615866,442.91758862586266 M561.7230435615866,442.91758862586266 L560.0278416263304,442.45384904269963 M560.0278416263304,442.45384904269963 L558.5040240159456,441.7571425274846 M558.5040240159456,441.7571425274846 L557.2399704772806,440.86790094833896 M557.2399704772806,440.86790094833896 L556.309445065951,439.8380768966874 M556.309445065951,439.8380768966874 L555.7660920435014,438.72737900382094 M555.7660920435014,438.72737900382094 L555.6416181576469,437.60051923045467 M555.6416181576469,437.60051923045467 L555.9430451604412,436.5229338571032 M555.9430451604412,436.5229338571032 L556.6527811602537,435.55722441043554 M556.6527811602537,435.55722441043554 L557.729455873689,434.7594130915588 M557.729455873689,434.7594130915588 L559.1104783157389,434.1757823841958 M559.1104783157389,434.1757823841958 L560.7156808389759,433.8402026904341 M560.7156808389759,433.8402026904341 L562.4518302912024,433.77210384059754 M562.4518302912024,433.77210384059754 L564.2182313700187,433.97547910985236 M564.2182313700187,433.97547910985236 L565.9121216422186,434.43839841983913 M565.9121216422186,434.43839841983913 L567.4355173703525,435.1342265777014 M567.4355173703525,435.1342265777014 L566.891334044421,439.61244726248447 M543.06545146397,113.63614703566918 L201.66325306013414,358.71501839120197 M201.66325306013414,358.71501839120197 L164.77367548698794,385.19655857658495 M164.77367548698794,385.19655857658495 L118.96084570897892,358.7150395494207 M497.5032285966081,88.49592918464214 L118.96084570897892,358.7150395494207 M543.06545146397,113.63614703566918 L497.5032285966081,88.49592918464214 M201.66325306013414,358.71501839120197 L543.06545146397,113.63614703566918 M118.96084570897892,358.7150395494207 L497.5032285966081,88.49592918464214 M542.7881394747828,115.98525351183775 L201.42422708872482,361.0877877790881 M201.42422708872482,361.0877877790881 L164.53891130735747,387.57179516015094 M164.53891130735747,387.57179516015094 L118.73269233386236,361.0878089392845 M118.73269233386236,361.0878089392845 L497.23242977117934,90.84252362188863 M542.7881394747828,115.98525351183775 L497.23242977117934,90.84252362188863 M201.42422708872482,361.0877877790881 L542.7881394747828,115.98525351183775 M497.23242977117934,90.84252362188863 L118.73269233386236,361.0878089392845 M542.5108986966811,118.33375675977118 L496.9617003146459,93.18851694624686 M164.3042090018066,389.9464057300829 L118.50459893991547,363.45995453174055 M542.5108986966811,118.33375675977118 L201.1852639568733,363.4599333695676 M201.1852639568733,363.4599333695676 L164.3042090018066,389.9464057300829 M496.9617003146459,93.18851694624686 L118.50459893991547,363.45995453174055 M201.1852639568733,363.4599333695676 L542.5108986966811,118.33375675977118 M118.50459893991547,363.45995453174055 L496.9617003146459,93.18851694624686" stroke="black"  stroke-width="4"  fill="red"/></svg>