<svg viewBox="0 0 800 800" xmlns="http://www.w3.org/2000/svg"><path d="M312.9707950059455,317.49720694034414 L298.707785444779,324.6169704377138 M298.707785444779,324.6169704377138 L284.90792275505794,317.49720694034414 M284.90792275505794,317.49720694034414 L299.1698298449068,310.4113391055742 M312.9707950059455,317.49720694034414 L299.1698298449068,310.4113391055742 M298.707785444779,324.6169704377138 L297.2650512098088,217.5620540433577 M297.2650512098088,217.5620540433577 L311.7430684555264,210.59593641967012 M311.7430684555264,210.59593641967012 L310.4783798211855,100.47628332758654 M310.4783798211855,100.47628332758654 L295.77877482290194,107.27618816279573 M295.77877482290194,107.27618816279573 L295.12797869459064,58.98529479006686 M295.12797869459064,58.98529479006686 L309.92463945784334,52.26070278186398 M309.92463945784334,52.26070278186398 L309.36366113144857,3.414894400762023 M309.36366113144857,3.414894400762023 L484.21322094922806,-74.60963806096242 M484.21322094922806,-74.60963806096242 L483.10498512987766,20.620771001820458 M519.1707821816308,3.9370582226996476 L483.10498512987766,20.620771001820458 M519.1707821816308,3.9370582226996476 L518.9041367665295,12.606914886300274 M518.9041367665295,12.606914886300274 L518.3880070678898,21.361435558887024 M518.3880070678898,21.361435558887024 L517.6238721459137,30.18889905793003 M517.6238721459137,30.18889905793003 L516.613487492614,39.077598015852914 M516.613487492614,39.077598015852914 L515.3588946513778,48.01582481095818 M515.3588946513778,48.01582481095818 L513.8623914005807,56.99181986707197 M513.8623914005807,56.99181986707197 L512.1265506417908,65.99392129782723 M512.1265506417908,65.99392129782723 L510.1541918020886,75.01051172661982 M510.1541918020886,75.01051172661982 L507.94839813126873,84.02999987723956 M507.94839813126873,84.02999987723956 L505.5124981278272,93.0407079850072 M505.5124981278272,93.0407079850072 L502.85005769183294,102.03125485889541 M502.85005769183294,102.03125485889541 L499.9648846618802,110.99015360600538 M499.9648846618802,110.99015360600538 L500.0359004951062,111.01593354588033 M500.0359004951062,111.01593354588033 L500.09331525358647,111.06840109986177 M500.09331525358647,111.06840109986177 L500.13379296906396,111.14450118487548 M500.13379296906396,111.14450118487548 L500.15498284393703,111.23982066350175 M500.15498284393703,111.23982066350175 L500.15565189953196,111.34891264006478 M500.15565189953196,111.34891264006478 L500.1357666666094,111.46531257544325 M500.1357666666094,111.46531257544325 L500.09647920960197,111.58232026691655 M500.09647920960197,111.58232026691655 L500.0400759836732,111.6930793355827 M500.0400759836732,111.6930793355827 L499.96983076313626,111.79125667088135 M499.96983076313626,111.79125667088135 L499.88982777314897,111.87107150102338 M499.88982777314897,111.87107150102338 L499.80471405519074,111.92785713376145 M499.80471405519074,111.92785713376145 L499.71943464462373,111.95840958208657 M499.71943464462373,111.95840958208657 L499.63894408408214,111.96090460153516 M499.63894408408214,111.96090460153516 L496.7398412268687,120.96536023878275 M496.7398412268687,120.96536023878275 L494.07284803048685,129.979741796329 M494.07284803048685,129.979741796329 L491.6418980327363,138.98934521609192 M491.6418980327363,138.98934521609192 L489.45049189860697,147.9793689765074 M489.45049189860697,147.9793689765074 L487.5016802889628,156.9352653490494 M487.5016802889628,156.9352653490494 L485.7980666584194,165.84258501910116 M485.7980666584194,165.84258501910116 L484.341805466497,174.68704443178297 M484.341805466497,174.68704443178297 L483.1346034420703,183.45437246307338 M483.1346034420703,183.45437246307338 L482.17771361084107,192.130761642419 M482.17771361084107,192.130761642419 L481.47194303077725,200.70254587217985 M481.47194303077725,200.70254587217985 L481.0176557719731,209.15615540704732 M481.0176557719731,209.15615540704732 L480.8147716316484,217.47861542430138 M480.8147716316484,217.47861542430138 L480.624735331124,233.8082491927922 M515.6866179662495,216.3061707524683 L480.624735331124,233.8082491927922 M515.6866179662495,216.3061707524683 L515.4312941009869,224.49979716109067 M515.4312941009869,224.49979716109067 L514.9333388064132,232.7859579878449 M514.9333388064132,232.7859579878449 L514.194164340676,241.15354876075617 M514.194164340676,241.15354876075617 L513.2154549797647,249.59140742725762 M513.2154549797647,249.59140742725762 L511.999176425738,258.0883013928609 M511.999176425738,258.0883013928609 L510.5475434299933,266.63309412399127 M510.5475434299933,266.63309412399127 L508.8630426215177,275.2146181139707 M508.8630426215177,275.2146181139707 L506.9484045980407,283.8216274089235 M506.9484045980407,283.8216274089235 L504.8066174172964,292.44299259481426 M504.8066174172964,292.44299259481426 L502.4409078681664,301.067647511355 M502.4409078681664,301.067647511355 L499.8547419098633,309.6844221195439 M499.8547419098633,309.6844221195439 L497.0518171107284,318.2824566640363 M497.0518171107284,318.2824566640363 L497.1209066981025,318.303319382832 M497.1209066981025,318.303319382832 L497.1767759811179,318.3500892495157 M497.1767759811179,318.3500892495157 L497.21617949991605,318.4199899338786 M497.21617949991605,318.4199899338786 L497.23682806913075,318.5090207045025 M497.23682806913075,318.5090207045025 L497.23752239565454,318.6119400045747 M497.23752239565454,318.6119400045747 L497.218225137043,318.7228037423239 M497.218225137043,318.7228037423239 L497.18005504070254,318.83517729459726 M497.18005504070254,318.83517729459726 L497.12523277912214,318.9425292413567 M497.12523277912214,318.9425292413567 L497.0569426019912,319.03856381734346 M497.0569426019912,319.03856381734346 L496.97915288576644,319.1177838729011 M496.97915288576644,319.1177838729011 L496.89638213625994,319.1755589522724 M496.89638213625994,319.1755589522724 L496.81344150720804,319.20846724689795 M496.81344150720804,319.20846724689795 L496.7351474873744,319.214705442268 M496.7351474873744,319.214705442268 L493.918595849331,327.8566663039509 M493.918595849331,327.8566663039509 L491.32773723855524,336.4971495643374 M491.32773723855524,336.4971495643374 L488.9663938090043,345.1219640872488 M488.9663938090043,345.1219640872488 L486.8379651494959,353.71716035151456 M486.8379651494959,353.71716035151456 L484.94541804501443,362.26888975095403 M484.94541804501443,362.26888975095403 L483.2912885260244,370.7632849911663 M483.2912885260244,370.7632849911663 L481.87767586649306,379.1868628602941 M481.87767586649306,379.1868628602941 L480.7062466699133,387.5261434404203 M480.7062466699133,387.5261434404203 L479.778229962241,395.7679989411655 M479.778229962241,395.7679989411655 L479.0944234911267,403.89942734065545 M479.0944234911267,403.89942734065545 L478.65519346186557,411.9077676330986 M478.65519346186557,411.9077676330986 L478.4604793375757,419.780653719552 M478.4604793375757,419.780653719552 L478.2808063229939,435.2197804448404 M478.2808063229939,435.2197804448404 L512.3937831561357,417.0132451331398 M512.3937831561357,417.0132451331398 L512.1489579967929,424.7690649321164 M512.1489579967929,424.7690649321164 L511.6679872581459,432.62436196818237 M511.6679872581459,432.62436196818237 L510.95222259707396,440.5685261100074 M510.95222259707396,440.5685261100074 L510.00328207686016,448.59090249433575 M510.00328207686016,448.59090249433575 L508.8230594186957,456.68077872961754 M508.8230594186957,456.68077872961754 L507.4136938525597,464.8274682165953 M507.4136938525597,464.8274682165953 L505.77759228553737,473.02018968764503 M505.77759228553737,473.02018968764503 L503.9173982263309,481.24827547767984 M503.9173982263309,481.24827547767984 L501.83601060837793,489.5010025573091 M501.83601060837793,489.5010025573091 L499.5365638581452,497.7676447965147 M499.5365638581452,497.7676447965147 L497.02242455783176,506.0375653764178 M497.02242455783176,506.0375653764178 L494.2971916251922,514.3001084803703 M494.2971916251922,514.3001084803703 L494.36445556088717,514.3166182817724 M494.36445556088717,514.3166182817724 L494.4188606259641,514.3581992676084 M494.4188606259641,514.3581992676084 L494.4572449875515,514.4224781057812 M494.4572449875515,514.4224781057812 L494.4773800445544,514.5056791225447 M494.4773800445544,514.5056791225447 L494.47809488791086,514.6030015006232 M494.47809488791086,514.6030015006232 L494.45935192682714,514.7087508838597 M494.45935192682714,514.7087508838597 L494.42223740923305,514.8168144578505 M494.42223740923305,514.8168144578505 L494.36891095353263,514.9208862331816 M494.36891095353263,514.9208862331816 L494.30246889224793,515.0149375637471 M494.30246889224793,515.0149375637471 L494.22677329891593,515.0935086255844 M494.22677329891593,515.0935086255844 L494.14622105974394,515.1520082112689 M494.14622105974394,515.1520082112689 L494.06549299931015,515.1870741434917 M494.06549299931015,515.1870741434917 L493.9892792354867,515.1966252698578 M493.9892792354867,515.1966252698578 L491.2507088880065,523.5016896887671 M491.2507088880065,523.5016896887671 L488.73176188820577,531.7949501338329 M488.73176188820577,531.7949501338329 L486.43615116824833,540.0629913867465 M486.43615116824833,540.0629913867465 L484.3671842404785,548.2923957498635 M484.3671842404785,548.2923957498635 L482.52774845458947,556.4699584337277 M482.52774845458947,556.4699584337277 L480.9203133566588,564.5825484688601 M480.9203133566588,564.5825484688601 L479.5469279539827,572.6172428655648 M479.5469279539827,572.6172428655648 L478.4092199165228,580.5613361770951 M478.4092199165228,580.5613361770951 L477.50839559960934,588.4022763206965 M477.50839559960934,588.4022763206965 L476.84524140309003,596.1278311547262 M476.84524140309003,596.1278311547262 L476.4201270976325,603.7259849403831 M476.4201270976325,603.7259849403831 L476.2330087145083,611.1850296434172 M476.2330087145083,611.1850296434172 L476.06287394667106,625.8045441382867 M509.27693931112503,606.9932002502546 L476.06287394667106,625.8045441382867 M509.27693931112503,606.9932002502546 L506.972183874722,747.4741983806734 M474.4226165161626,766.6943956592762 L506.972183874722,747.4741983806734 M474.4226165161626,766.6943956592762 L474.2538913577636,781.1929036238929 M474.2538913577636,781.1929036238929 L306.203795248527,880.8418685375974 M306.203795248527,880.8418685375974 L305.6819945157672,842.1227943892897 M305.6819945157672,842.1227943892897 L318.90688053097864,834.3672577906643 M317.54270587891307,715.5851043313962 L318.90688053097864,834.3672577906643 M317.54270587891307,715.5851043313962 L304.07945986224354,723.2102398843535 M304.07945986224354,723.2102398843535 L302.79306984463653,627.7565018032699 M302.79306984463653,627.7565018032699 L316.44773049204457,620.2428149550303 M316.44773049204457,620.2428149550303 L315.3216620655468,522.1931756076242 M315.3216620655468,522.1931756076242 L301.47006647622305,529.5859506636964 M301.47006647622305,529.5859506636964 L300.10886477433723,428.5809763177145 M300.10886477433723,428.5809763177145 L314.16315775778367,421.31926165563385 M314.16315775778367,421.31926165563385 L312.9707950059455,317.49720694034414 M283.26403613698346,210.59593641967012 L297.2650512098088,217.5620540433577 M284.90792275505794,317.49720694034414 L283.26403613698346,210.59593641967012 M297.7409011327432,203.6634736059392 L283.26403613698346,210.59593641967012 M297.7409011327432,203.6634736059392 L296.26905839687043,93.70972359159452 M296.26905839687043,93.70972359159452 L281.5706584696894,100.47628332758654 M281.5706584696894,100.47628332758654 L280.8292178183692,52.26070278186398 M295.62464988378804,45.569300143048736 L280.8292178183692,52.26070278186398 M295.62464988378804,45.569300143048736 L294.9718392022234,-3.1988058087652007 M294.9718392022234,-3.1988058087652007 L469.82050117588,-80.8418685375974 M469.82050117588,-80.8418685375974 L468.894801932128,14.239685261689033 M468.894801932128,14.239685261689033 L504.9635125440312,-2.364917019156451 M504.9635125440312,-2.364917019156451 L504.7134156137517,6.291507946546176 M504.7134156137517,6.291507946546176 L504.2137483498427,15.03214218379901 M504.2137483498427,15.03214218379901 L503.465966828057,23.845281892717708 M503.465966828057,23.845281892717708 L502.47180405329584,32.71923721445512 M502.47180405329584,32.71923721445512 L501.2332795692285,41.64231821649901 M501.2332795692285,41.64231821649901 L499.75266951838046,50.60278324287867 M499.75266951838046,50.60278324287867 L498.0325258445698,59.58898838562777 M498.0325258445698,59.58898838562777 L496.0756475673935,68.58933436201221 M496.0756475673935,68.58933436201221 L493.8850980639226,77.59224818016003 M493.8850980639226,77.59224818016003 L491.4641862598115,86.58607070756204 M491.4641862598115,86.58607070756204 L488.8164595161533,95.55943918447144 M488.8164595161533,95.55943918447144 L485.9457073915246,104.50088556567209 M485.6213155703237,105.46972622475687 L485.7018822793657,105.46735961625018 M485.7018822793657,105.46735961625018 L485.7871884235263,105.43698360527782 M485.7871884235263,105.43698360527782 L485.8722780005238,105.38041211211214 M485.8722780005238,105.38041211211214 L485.9522071909063,105.30083681966215 M485.9522071909063,105.30083681966215 L486.02233329605,105.20291046356112 M486.02233329605,105.20291046356112 L486.0785791539609,105.09239912114447 M486.0785791539609,105.09239912114447 L486.1176799377571,104.97562166664773 M486.1176799377571,104.97562166664773 L486.13736014625886,104.85942101592155 M486.13736014625886,104.85942101592155 L486.1364795101382,104.75048589204653 M486.1364795101382,104.75048589204653 L486.1150840323695,104.65527153133303 M486.1150840323695,104.65527153133303 L486.0744184656312,104.57921885648489 M486.0744184656312,104.57921885648489 L486.0168445076213,104.52673825863315 M486.0168445076213,104.52673825863315 L485.9457073915246,104.50088556567209 M466.9817467186151,210.80803528127203 L467.1687985855079,202.49748721210634 M467.1687985855079,202.49748721210634 L467.60725483362035,194.05641843820862 M467.60725483362035,194.05641843820862 L468.29721901390576,185.49778415610587 M468.29721901390576,185.49778415610587 L469.23835126602694,176.83513259659873 M469.23835126602694,176.83513259659873 L470.42986865853874,168.08210716704647 M470.42986865853874,168.08210716704647 L471.8705423059675,159.25249142262564 M471.8705423059675,159.25249142262564 L473.55869025896214,150.3605308953007 M473.55869025896214,150.3605308953007 L475.49218262304686,141.42048253959342 M475.49218262304686,141.42048253959342 L477.66844059700287,132.44676786567027 M477.66844059700287,132.44676786567027 L480.08443814025395,123.45390571702978 M480.08443814025395,123.45390571702978 L482.73669947718236,114.45666744763685 M482.73669947718236,114.45666744763685 L485.6213155703237,105.46972622475687 M466.9817467186151,210.80803528127203 L466.822985430947,227.11475786432104 M466.822985430947,227.11475786432104 L501.8875413118058,209.6933283814774 M501.8875413118058,209.6933283814774 L501.64782992407913,217.8753335432901 M501.64782992407913,217.8753335432901 L501.1654074617937,226.14939567686707 M501.1654074617937,226.14939567686707 L500.4416645686937,234.50442568377133 M500.4416645686937,234.50442568377133 L499.47826426227266,242.92927715519406 M499.47826426227266,242.92927715519406 L498.27715133415836,251.4127334586307 M498.27715133415836,251.4127334586307 L496.8405202677543,259.943674080235 M496.8405202677543,259.943674080235 L495.1708378495419,268.51094781785264 M495.1708378495419,268.51094781785264 L493.2708151424115,277.10332534215104 M493.2708151424115,277.10332534215104 L491.14342137162356,285.70969396393514 M491.14342137162356,285.70969396393514 L488.79186507410793,294.319004409513 M488.79186507410793,294.319004409513 L486.21959421527475,302.9201039300911 M486.21959421527475,302.9201039300911 L483.43028942008067,311.5021499244317 M483.11508249571557,312.4326451142845 L483.193448244322,312.4265456109393 M483.193448244322,312.4265456109393 L483.2764140418293,312.39381881512145 M483.2764140418293,312.39381881512145 L483.3591617282365,312.3362576410194 M483.3591617282365,312.3362576410194 L483.4368816108174,312.2572713797467 M483.4368816108174,312.2572713797467 L483.50505929318473,312.1614768702681 M483.50505929318473,312.1614768702681 L483.5597327722531,312.05435742439283 M483.5597327722531,312.05435742439283 L483.5977265552619,311.9421952271422 M483.5977265552619,311.9421952271422 L483.61683021479695,311.8315094140896 M483.61683021479695,311.8315094140896 L483.6159362423822,311.7287242863318 M483.6159362423822,311.7287242863318 L483.5950935100349,311.6397761831777 M483.5950935100349,311.6397761831777 L483.5555127270586,311.5699017667371 M483.5555127270586,311.5699017667371 L483.49949326344716,311.52310031940436 M483.49949326344716,311.52310031940436 L483.43028942008067,311.5021499244317 M465.0147934049796,412.83815540924695 L465.19454970283397,404.97554357997967 M465.19454970283397,404.97554357997967 L465.6188235519009,396.9781070694688 M465.6188235519009,396.9781070694688 L466.2876977811845,388.85819502760853 M466.2876977811845,388.85819502760853 L467.20082873833235,380.6284500911111 M467.20082873833235,380.6284500911111 L468.3574415866769,372.3018544359229 M468.3574415866769,372.3018544359229 L469.7563301669419,363.8915148188013 M469.7563301669419,363.8915148188013 L471.3958511384355,355.4108886507613 M471.3958511384355,355.4108886507613 L473.2739282281452,346.8734356388628 M473.2739282281452,346.8734356388628 L475.3880488824892,338.2929980954825 M475.3880488824892,338.2929980954825 L477.73526950501787,329.6833987203804 M477.73526950501787,329.6833987203804 L480.31221363982536,321.0585600699939 M480.31221363982536,321.0585600699939 L483.11508249571557,312.4326451142845 M465.0147934049796,412.83815540924695 L464.86467064916263,428.25759530210814 M498.9801061702254,410.1326524819283 L464.86467064916263,428.25759530210814 M498.9801061702254,410.1326524819283 L498.7500345413903,417.87843080832977 M498.7500345413903,417.87843080832977 L498.2837435847297,425.7231919018987 M498.2837435847297,425.7231919018987 L497.5825644530187,433.65633932477283 M497.5825644530187,433.65633932477283 L496.64809508216575,441.66723219202663 M496.64809508216575,441.66723219202663 L495.4822094350833,449.74517242087165 M495.4822094350833,449.74517242087165 L494.08702748564116,457.8794879118494 M494.08702748564116,457.8794879118494 L492.4649371833305,466.05941228919716 M492.4649371833305,466.05941228919716 L490.6185637495049,474.2742928808363 M490.6185637495049,474.2742928808363 L488.55078819711474,482.513422006939 M488.55078819711474,482.513422006939 L486.26472747922037,490.7660891622712 M486.26472747922037,490.7660891622712 L483.7637313270777,499.0216733293044 M483.7637313270777,499.0216733293044 L481.0513822201189,507.2695348181511 M480.74485358802315,508.1644380358378 L480.82113508164605,508.1550336687674 M480.82113508164605,508.1550336687674 L480.9018866924166,508.1201528641096 M480.9018866924166,508.1201528641096 L480.98241701766915,508.06186596479444 M480.98241701766915,508.06186596479444 L481.0580464321867,507.98352283310555 M481.0580464321867,507.98352283310555 L481.12438194406843,507.88970140570154 M481.12438194406843,507.88970140570154 L481.1775676572118,507.7858481540301 M481.1775676572118,507.7858481540301 L481.2145153823198,507.6779790560145 M481.2145153823198,507.6779790560145 L481.23307524069725,507.5723887667072 M481.23307524069725,507.5723887667072 L481.23217156626873,507.4751809015113 M481.23217156626873,507.4751809015113 L481.2118529954341,507.3920431099049 M481.2118529954341,507.3920431099049 L481.1733010389731,507.3277725765454 M481.1733010389731,507.3277725765454 L481.11875411532054,507.28614443903973 M481.11875411532054,507.28614443903973 L481.0513822201189,507.2695348181511 M463.1535639932494,604.009140013147 L463.3265284908857,596.5589389505624 M463.3265284908857,596.5589389505624 L463.7374909150855,588.9702563830376 M463.7374909150855,588.9702563830376 L464.3865163628798,581.2547858534376 M464.3865163628798,581.2547858534376 L465.27325645470785,573.4245272146135 M465.27325645470785,573.4245272146135 L466.39694627780557,565.4916954371072 M466.39694627780557,565.4916954371072 L467.75640126682924,557.4688240331267 M467.75640126682924,557.4688240331267 L469.3500155321088,549.3685986833185 M469.3500155321088,549.3685986833185 L471.1757619691312,541.2039213570235 M471.1757619691312,541.2039213570235 L473.23119304675,532.9879007783729 M473.23119304675,532.9879007783729 L475.5134432922691,524.73371844794 M475.5134432922691,524.73371844794 L478.0192272021063,516.4547675836591 M478.0192272021063,516.4547675836591 L480.74485358802315,508.1644380358378 M463.1535639932494,604.009140013147 L463.0113935280074,618.6117825732867 M496.22772538270726,599.8824896587947 L463.0113935280074,618.6117825732867 M496.22772538270726,599.8824896587947 L494.19226114406,740.207916145636 M494.19226114406,740.207916145636 L461.6405627394419,759.3459805598413 M461.6405627394419,759.3459805598413 L461.4995565102578,773.8291849663508 M461.4995565102578,773.8291849663508 L293.4509367471113,873.0458924671779 M293.4509367471113,873.0458924671779 L292.85615158094424,834.3672577906643 M306.08015567402555,826.6460020990049 L292.85615158094424,834.3672577906643 M304.4918816074015,707.9942702125178 L306.08015567402555,826.6460020990049 M291.0295653150682,715.5851043313962 L304.4918816074015,707.9942702125178 M291.0295653150682,715.5851043313962 L289.56342826282366,620.2428149550303 M303.2171195905177,612.7634002859774 L289.56342826282366,620.2428149550303 M303.2171195905177,612.7634002859774 L301.9062430176367,514.834598871776 M288.0556586241171,522.1931756076242 L301.9062430176367,514.834598871776 M288.0556586241171,522.1931756076242 L286.5044583769096,421.31926165563385 M300.5576958411667,414.09162171109824 L286.5044583769096,421.31926165563385 M300.5576958411667,414.09162171109824 L299.1698298449068,310.4113391055742 M314.16315775778367,421.31926165563385 L300.5576958411667,414.09162171109824 M311.7430684555264,210.59593641967012 L297.7409011327432,203.6634736059392 M310.4783798211855,100.47628332758654 L296.26905839687043,93.70972359159452 M295.77877482290194,107.27618816279573 L281.5706584696894,100.47628332758654 M280.8292178183692,52.26070278186398 L295.12797869459064,58.98529479006686 M309.92463945784334,52.26070278186398 L295.62464988378804,45.569300143048736 M309.36366113144857,3.414894400762023 L294.9718392022234,-3.1988058087652007 M484.21322094922806,-74.60963806096242 L469.82050117588,-80.8418685375974 M483.10498512987766,20.620771001820458 L468.894801932128,14.239685261689033 M519.1707821816308,3.9370582226996476 L504.9635125440312,-2.364917019156451 M494.8025706161858,8.745590048463669 L494.6031199380471,8.675618179054027 M494.6031199380471,8.675618179054027 L494.37336419647784,8.62905756664452 M494.37336419647784,8.62905756664452 L494.1266385916014,8.608607005539966 M494.1266385916014,8.608607005539966 L493.8772862478596,8.615457251677867 M493.8772862478596,8.615457251677867 L493.6397785716477,8.64920758817641 M493.6397785716477,8.64920758817641 L493.42792406047175,8.707901250774853 M493.42792406047175,8.707901250774853 L493.25402749959864,8.788129600092248 M493.25402749959864,8.788129600092248 L493.12819601393636,8.885233100394544 M493.12819601393636,8.885233100394544 L493.0577474171764,8.993573290419818 M493.0577474171764,8.993573290419818 L493.04677590027904,9.106850587988106 M493.04677590027904,9.106850587988106 L493.0959333906432,9.218487819737675 M493.0959333906432,9.218487819737675 L493.20236220493126,9.321990727179127 M493.20236220493126,9.321990727179127 L493.3598922976536,9.411347064183246 M493.3598922976536,9.411347064183246 L493.55935967312047,9.48135499076568 M493.55935967312047,9.48135499076568 L493.78918029523635,9.527947897603099 M493.78918029523635,9.527947897603099 L494.0359883338887,9.548412555576306 M494.0359883338887,9.548412555576306 L494.2854274679749,9.541557517561841 M494.2854274679749,9.541557517561841 L494.5230007210766,9.507782059700844 M494.5230007210766,9.507782059700844 L494.7348946483979,9.449053198533193 M494.7348946483979,9.449053198533193 L494.9087897445065,9.368785096984311 M494.9087897445065,9.368785096984311 L495.03457922006487,9.271646397801419 M495.03457922006487,9.271646397801419 L495.10496057577706,9.163286165511408 M495.10496057577706,9.163286165511408 L495.1158449492098,9.050004076409778 M495.1158449492098,9.050004076409778 L495.0666060639193,8.938380941097535 M495.0666060639193,8.938380941097535 L494.9601145618538,8.83490524883382 M494.9601145618538,8.83490524883382 L494.8025706161858,8.745590048463669 M499.9648846618802,110.99015360600538 L485.9457073915246,104.50088556567209 M499.63894408408214,111.96090460153516 L485.6213155703237,105.46972622475687 M480.8147716316484,217.47861542430138 L466.9817467186151,210.80803528127203 M480.624735331124,233.8082491927922 L466.822985430947,227.11475786432104 M515.6866179662495,216.3061707524683 L501.8875413118058,209.6933283814774 M492.0014696333183,221.35130608983604 L491.8077310140867,221.27789494655764 M491.8077310140867,221.27789494655764 L491.5845203006392,221.22904571557558 M491.5845203006392,221.22904571557558 L491.3447929572783,221.20758992191207 M491.3447929572783,221.20758992191207 L491.1024854637751,221.21477688798677 M491.1024854637751,221.21477688798677 L490.87166057880125,221.25018618776318 M490.87166057880125,221.25018618776318 L490.6657384299109,221.31176481698378 M490.6657384299109,221.31176481698378 L490.4966793354016,221.39593650233525 M490.4966793354016,221.39593650233525 L490.3743092527492,221.4978125845361 M490.3743092527492,221.4978125845361 L490.30574458824293,221.61147738584359 M490.30574458824293,221.61147738584359 L490.29496987829606,221.73032166025607 M490.29496987829606,221.73032166025607 L490.34262499722274,221.84744498909515 M490.34262499722274,221.84744498909515 L490.44593941248866,221.95603400754337 M490.44593941248866,221.95603400754337 L490.59892350882814,222.04978110441897 M490.59892350882814,222.04978110441897 L490.79267770235555,222.12322893149528 M490.79267770235555,222.12322893149528 L491.0159498024907,222.1721111610037 M491.0159498024907,222.1721111610037 L491.25575496839474,222.19358132598575 M491.25575496839474,222.19358132598575 L491.4981444166306,222.18638947474216 M491.4981444166306,222.18638947474216 L491.7290310896383,222.15095448915514 M491.7290310896383,222.15095448915514 L491.9349904910613,222.08933997609142 M491.9349904910613,222.08933997609142 L492.1040482416171,222.00512776457975 M492.1040482416171,222.00512776457975 L492.2263786917228,221.903215798218 M492.2263786917228,221.903215798218 L492.2948800412941,221.78953063981157 M492.2948800412941,221.78953063981157 L492.3055724725124,221.6706814805805 M492.3055724725124,221.6706814805805 L492.2578404842099,221.55357252261962 M492.2578404842099,221.55357252261962 L492.15446669417025,221.44501117383118 M492.15446669417025,221.44501117383118 L492.0014696333183,221.35130608983604 M497.0518171107284,318.2824566640363 L483.43028942008067,311.5021499244317 M496.7351474873744,319.214705442268 L483.11508249571557,312.4326451142845 M478.4604793375757,419.780653719552 L465.0147934049796,412.83815540924695 M478.2808063229939,435.2197804448404 L464.86467064916263,428.25759530210814 M512.3937831561357,417.0132451331398 L498.9801061702254,410.1326524819283 M489.35445077063963,422.2620708630271 L489.1661061921656,422.18569947141543 M489.1661061921656,422.18569947141543 L488.9490779588897,422.13488037314784 M488.9490779588897,422.13488037314784 L488.715962826247,422.112559349938 M488.715962826247,422.112559349938 L488.48031305112573,422.1200361397008 M488.48031305112573,422.1200361397008 L488.2558051896074,422.1568733502357 M488.2558051896074,422.1568733502357 L488.0554922472552,422.2209351318234 M488.0554922472552,422.2209351318234 L487.8910088348363,422.3085009105242 M487.8910088348363,422.3085009105242 L487.7719149585864,422.41448480029607 M487.7719149585864,422.41448480029607 L487.7051363994083,422.5327325059492 M487.7051363994083,422.5327325059492 L487.694553742798,422.65636824384046 M487.694553742798,422.65636824384046 L487.74079513140185,422.778213378006 M487.74079513140185,422.778213378006 L487.84117205071567,422.8911798991855 M487.84117205071567,422.8911798991855 L487.98986507315396,422.9887059943369 M487.98986507315396,422.9887059943369 L488.1782242014659,423.0651144227154 M488.1782242014659,423.0651144227154 L488.39531061004794,423.11596698185326 M488.39531061004794,423.11596698185326 L488.6284993303658,423.1383025445317 M488.6284993303658,423.1383025445317 L488.8642266177615,423.13082081244147 M488.8642266177615,423.13082081244147 L489.08879278921313,423.0939575393144 M489.08879278921313,423.0939575393144 L489.28914099381984,423.02985945402736 M489.28914099381984,423.02985945402736 L489.45362317016753,422.9422526749935 M489.45362317016753,422.9422526749935 L489.5726795951982,422.83623248120114 M489.5726795951982,422.83623248120114 L489.63939844010974,422.7179642565093 M489.63939844010974,422.7179642565093 L489.64990328645763,422.59432357664497 M489.64990328645763,422.59432357664497 L489.60358918683306,422.47249298150285 M489.60358918683306,422.47249298150285 L489.5031559426258,422.35955437748305 M489.5031559426258,422.35955437748305 L489.35445077063963,422.2620708630271 M494.2971916251922,514.3001084803703 L481.0513822201189,507.2695348181511 M493.9892792354867,515.1966252698578 L480.74485358802315,508.1644380358378 M476.2330087145083,611.1850296434172 L463.1535639932494,604.009140013147 M476.06287394667106,625.8045441382867 L463.0113935280074,618.6117825732867 M509.27693931112503,606.9932002502546 L496.22772538270726,599.8824896587947 M486.84914110447914,612.4169987778921 L486.66589838357686,612.3380850452921 M486.66589838357686,612.3380850452921 L486.4547193924463,612.2855741629081 M486.4547193924463,612.2855741629081 L486.22786150530794,612.2625100510073 M486.22786150530794,612.2625100510073 L485.9985133733139,612.2702357514092 M485.9985133733139,612.2702357514092 L485.7799859953531,612.3082992989629 M485.7799859953531,612.3082992989629 L485.58498480573877,612.3744936849453 M485.58498480573877,612.3744936849453 L485.4248359754993,612.4649743924128 M485.4248359754993,612.4649743924128 L485.3088475734887,612.5744861371438 M485.3088475734887,612.5744861371438 L485.2437646946325,612.6966696818462 M485.2437646946325,612.6966696818462 L485.23336924478036,612.8244203293877 M485.23336924478036,612.8244203293877 L485.27827795721964,612.9503205089237 M485.27827795721964,612.9503205089237 L485.3758796413615,613.0670463542856 M485.3758796413615,613.0670463542856 L485.52051566207365,613.1678177595478 M485.52051566207365,613.1678177595478 L485.7037719959877,613.246768660394 M485.7037719959877,613.246768660394 L485.9150062036632,613.2993132683811 M485.9150062036632,613.2993132683811 L486.1419337801032,613.3223920014653 M486.1419337801032,613.3223920014653 L486.3713553335745,613.3146613309591 M486.3713553335745,613.3146613309591 L486.5899378212575,613.2765714976605 M486.5899378212575,613.2765714976605 L486.7849724381549,613.2103406039441 M486.7849724381549,613.2103406039441 L486.94512012896104,613.1198186657125 M486.94512012896104,613.1198186657125 L487.06107308586047,613.0102704129245 M487.06107308586047,613.0102704129245 L487.12609956045407,612.8880663105373 M487.12609956045407,612.8880663105373 L487.136421314138,612.7603106932478 M487.136421314138,612.7603106932478 L487.0914437205133,612.6344251344476 M487.0914437205133,612.6344251344476 L486.99378852557135,612.5177272864705 M486.99378852557135,612.5177272864705 L486.84914110447914,612.4169987778921 M506.972183874722,747.4741983806734 L494.19226114406,740.207916145636 M461.6405627394419,759.3459805598413 L474.4226165161626,766.6943956592762 M485.97286099542583,752.4410885011035 L486.3270239206456,752.6983192851261 M486.3270239206456,752.6983192851261 L486.5661132393467,752.9963510457987 M486.5661132393467,752.9963510457987 L486.6762172777884,753.3178841254697 M486.6762172777884,753.3178841254697 L486.65089333317474,753.6442347262391 M486.65089333317474,753.6442347262391 L486.4915816391519,753.9564379728364 M486.4915816391519,753.9564379728364 L486.2075065037573,754.2363359039011 M486.2075065037573,754.2363359039011 L485.8151575781318,754.46764142395 M485.8151575781318,754.46764142395 L485.3373366478271,754.6368895479188 M485.3373366478271,754.6368895479188 L484.8018316849811,754.7342255451705 M484.8018316849811,754.7342255451705 L484.23979758387014,754.7539816038794 M484.23979758387014,754.7539816038794 L483.68392828178514,754.6950033219734 M483.68392828178514,754.6950033219734 L483.16657389725844,754.5607310134055 M483.16657389725844,754.5607310134055 L482.7178191928046,754.3589799987388 M482.7178191928046,754.3589799987388 L482.363756136791,754.1014987661833 M482.363756136791,754.1014987661833 L482.1249514307765,753.8032710053062 M482.1249514307765,753.8032710053062 L482.0152657304097,753.4816493839462 M482.0152657304097,753.4816493839462 L482.04102660082106,753.1553269484818 M482.04102660082106,753.1553269484818 L482.20071301366926,752.8432731567198 M482.20071301366926,752.8432731567198 L482.4850006385112,752.563603624323 M482.4850006385112,752.563603624323 L482.8773562598776,752.3325560485674 M482.8773562598776,752.3325560485674 L483.3549765582572,752.1635363216591 M483.3549765582572,752.1635363216591 L483.8901144094479,752.066343927885 M483.8901144094479,752.066343927885 L484.4517131988252,752.0466218863212 M484.4517131988252,752.0466218863212 L485.0071594141377,752.1055057738699 M485.0071594141377,752.1055057738699 L485.5242191623903,752.2395879352813 M485.5242191623903,752.2395879352813 L485.97286099542583,752.4410885011035 M474.2538913577636,781.1929036238929 L461.4995565102578,773.8291849663508 M306.203795248527,880.8418685375974 L293.4509367471113,873.0458924671779 M292.85615158094424,834.3672577906643 L305.6819945157672,842.1227943892897 M317.54270587891307,715.5851043313962 L304.4918816074015,707.9942702125178 M318.90688053097864,834.3672577906643 L306.08015567402555,826.6460020990049 M304.07945986224354,723.2102398843535 L291.0295653150682,715.5851043313962 M289.56342826282366,620.2428149550303 L302.79306984463653,627.7565018032699 M316.44773049204457,620.2428149550303 L303.2171195905177,612.7634002859774 M315.3216620655468,522.1931756076242 L301.9062430176367,514.834598871776 M301.47006647622305,529.5859506636964 L288.0556586241171,522.1931756076242 M286.5044583769096,421.31926165563385 L300.10886477433723,428.5809763177145 M494.8025706161858,8.745590048463669 L495.0136570647492,-7.276033526679612 M495.0136570647492,-7.276033526679612 L495.1715438715768,-7.187065453062132 M495.1715438715768,-7.187065453062132 L495.2782705692921,-7.083991906940355 M495.2782705692921,-7.083991906940355 L495.32762328162414,-6.972802562746324 M495.32762328162414,-6.972802562746324 L495.3167247171395,-6.859960691535662 M495.3167247171395,-6.859960691535662 L495.24620194792226,-6.752021531529181 M495.24620194792226,-6.752021531529181 L495.12015203826564,-6.65526028348188 M495.12015203826564,-6.65526028348188 L494.945892598074,-6.575304067778802 M494.945892598074,-6.575304067778802 L494.7335515918282,-6.516803394133035 M494.7335515918282,-6.516803394133035 L494.4954745253358,-6.483159166332484 M494.4954745253358,-6.483159166332484 L494.24550414985504,-6.476330762437215 M494.24550414985504,-6.476330762437215 L493.9981683324346,-6.496715908137048 M493.9981683324346,-6.496715908137048 L493.76785410913726,-6.54312778293172 M493.76785410913726,-6.54312778293172 L493.5679560278506,-6.612863694277394 M493.5679560278506,-6.612863694277394 L493.41008314199894,-6.701872826619933 M493.41008314199894,-6.701872826619933 L493.30341938528574,-6.804973545336111 M493.30341938528574,-6.804973545336111 L493.25414841413027,-6.91617696111814 M493.25414841413027,-6.91617696111814 L493.26513449435214,-7.029014049242164 M493.26513449435214,-7.029014049242164 L493.33572480531257,-7.136933196922314 M493.33572480531257,-7.136933196922314 L493.46181690713246,-7.233659308138499 M493.46181690713246,-7.233659308138499 L493.6360778214751,-7.313575841686088 M493.6360778214751,-7.313575841686088 L493.84837924613913,-7.372041378811673 M493.84837924613913,-7.372041378811673 L494.0863904457105,-7.40566053492671 M494.0863904457105,-7.40566053492671 L494.3362736608372,-7.41248415539269 M494.3362736608372,-7.41248415539269 L494.58352669157426,-7.392113081711386 M494.58352669157426,-7.392113081711386 L494.81377576704847,-7.3457334390224105 M494.81377576704847,-7.3457334390224105 L495.0136570647492,-7.276033526679612 M492.0014696333183,221.35130608983604 L492.2007731116262,206.22401900724367 M492.2007731116262,206.22401900724367 L492.35409351612896,206.31742504622764 M492.35409351612896,206.31742504622764 L492.4576889332975,206.4256399543117 M492.4576889332975,206.4256399543117 L492.5055279201235,206.54237521339772 M492.5055279201235,206.54237521339772 L492.49482160889403,206.66084514080507 M492.49482160889403,206.66084514080507 L492.4261862808054,206.7741675639702 M492.4261862808054,206.7741675639702 L492.30360952509534,206.87575437556055 M492.30360952509534,206.87575437556055 L492.1342074331878,206.95969791540648 M492.1342074331878,206.95969791540648 L491.92782566732285,207.021115859216 M491.92782566732285,207.021115859216 L491.69646316948246,207.05643779876047 M491.69646316948246,207.05643779876047 L491.4535721137331,207.06360670650577 M491.4535721137331,207.06360670650577 L491.21326872427176,207.04220503602673 M491.21326872427176,207.04220503602673 L490.9895307786695,206.99347875394236 M490.9895307786695,206.99347875394236 L490.7953702201119,206.92026525157414 M490.7953702201119,206.92026525157414 L490.6420628424529,206.82681725253428 M490.6420628424529,206.82681725253428 L490.53852703287777,206.71857470045686 M490.53852703287777,206.71857470045686 L490.49076523317757,206.60182508667987 M490.49076523317757,206.60182508667987 L490.5015541646434,206.48336003858867 M490.5015541646434,206.48336003858867 L490.5702530830794,206.37005795509322 M490.5702530830794,206.37005795509322 L490.6928696381483,206.26850698724402 M490.6928696381483,206.26850698724402 L490.86227308237716,206.18460392790962 M490.86227308237716,206.18460392790962 L491.0686174437157,206.12322182752362 M491.0686174437157,206.12322182752362 L491.2999178876169,206.08792553935618 M491.2999178876169,206.08792553935618 L491.5427266491428,206.08076151127716 M491.5427266491428,206.08076151127716 L491.78295189237656,206.10214882662595 M491.78295189237656,206.10214882662595 L492.0066282059447,206.15084215285398 M492.0066282059447,206.15084215285398 L492.2007731116262,206.22401900724367 M489.35445077063963,422.2620708630271 L489.5429310287114,407.95627450934046 M489.5429310287114,407.95627450934046 L489.69194164659916,408.0535008697633 M489.69194164659916,408.0535008697633 L489.7925840894479,408.16614156589867 M489.7925840894479,408.16614156589867 L489.83899895288783,408.2876508166278 M489.83899895288783,408.2876508166278 L489.8284805503634,408.4109653975212 M489.8284805503634,408.4109653975212 L489.76163459268827,408.5289217115962 M489.76163459268827,408.5289217115962 L489.6423448721751,408.63466231219155 M489.6423448721751,408.63466231219155 L489.4775367545066,408.7220380683761 M489.4775367545066,408.7220380683761 L489.27678890605125,408.78596713058965 M489.27678890605125,408.78596713058965 L489.05177262926316,408.82273319974854 M489.05177262926316,408.82273319974854 L488.81557095609907,408.83019520363746 M488.81557095609907,408.83019520363746 L488.5819111526203,408.807918536692 M488.5819111526203,408.807918536692 L488.364384377458,408.75720007101654 M488.364384377458,408.75720007101654 L488.1756412186273,408.6809931308851 M488.1756412186273,408.6809931308851 L488.02664280752276,408.58372422210925 M488.02664280752276,408.58372422210925 L487.92605690413177,408.4710556208003 M487.92605690413177,408.4710556208003 L487.879715044006,408.34953184018974 M487.879715044006,408.34953184018974 L487.8903115708347,408.22622219816185 M487.8903115708347,408.22622219816185 L487.9572174956455,408.10828639579154 M487.9572174956455,408.10828639579154 L488.07654482059905,408.00258207638893 M488.07654482059905,408.00258207638893 L488.2413541818221,407.9152472947569 M488.2413541818221,407.9152472947569 L488.4420666280544,407.8513545134152 M488.4420666280544,407.8513545134152 L488.66702435054253,407.8146144848924 M488.66702435054253,407.8146144848924 L488.9031481991942,407.8071574202232 M488.9031481991942,407.8071574202232 L489.13673411739694,407.82941955684237 M489.13673411739694,407.82941955684237 L489.3542024914859,407.88010458825545 M489.3542024914859,407.88010458825545 L489.5429310287114,407.95627450934046 M486.84914110447914,612.4169987778921 L487.0276565829368,598.8675368505714 M487.0276565829368,598.8675368505714 L487.1725929978616,598.9680447937421 M487.1725929978616,598.9680447937421 L487.2704459790517,599.0844871233841 M487.2704459790517,599.0844871233841 L487.3155186290271,599.2100970649476 M487.3155186290271,599.2100970649476 L487.305183650505,599.3375729900122 M487.305183650505,599.3375729900122 L487.24003641599813,599.4595095722266 M487.24003641599813,599.4595095722266 L487.1238621700681,599.5688180252654 M487.1238621700681,599.5688180252654 L486.96340550170476,599.6591418229362 M486.96340550170476,599.6591418229362 L486.7679921761539,599.7252277521836 M486.7679921761539,599.7252277521836 L486.54898327198407,599.7632342178142 M486.54898327198407,599.7632342178142 L486.3191123968073,599.7709479683223 M486.3191123968073,599.7709479683223 L486.0917387184641,599.7479197475134 M486.0917387184641,599.7479197475134 L485.8800875882647,599.6954901459484 M485.8800875882647,599.6954901459484 L485.6964677662894,599.6167120542073 M485.6964677662894,599.6167120542073 L485.55154280441,599.5161612299745 M485.55154280441,599.5161612299745 L485.4537435322022,599.3996909038863 M485.4537435322022,599.3996909038863 L485.4087400328979,599.274066345002 M485.4087400328979,599.274066345002 L485.4191489970323,599.1465953885246 M485.4191489970323,599.1465953885246 L485.4843528685073,599.0246793647942 M485.4843528685073,599.0246793647942 L485.60056270061557,598.9154074112846 M485.60056270061557,598.9154074112846 L485.76102051512527,598.8251248347467 M485.76102051512527,598.8251248347467 L485.9564002842141,598.7590754047054 M485.9564002842141,598.7590754047054 L486.1753538535833,598.7210952130783 M486.1753538535833,598.7210952130783 L486.4051510194568,598.7133864315135 M486.4051510194568,598.7133864315135 L486.63245473425195,598.7364000345543 M486.63245473425195,598.7364000345543 L486.8440504396746,598.7887959239957 M486.8440504396746,598.7887959239957 L487.0276565829368,598.8675368505714 M485.97286099542583,752.4410885011035 L485.95259167274463,753.9630283602281 M485.95259167274463,753.9630283602281 L486.30667348964073,754.2203160675919 M486.30667348964073,754.2203160675919 L486.54570730307506,754.5184137696705 M486.54570730307506,754.5184137696705 L486.6557846742487,754.8400179774402 M486.6557846742487,754.8400179774402 L486.630464467943,755.1664407580912 M486.630464467943,755.1664407580912 L486.47118671611145,755.4787130424278 M486.47118671611145,755.4787130424278 L486.187173769096,755.7586728566166 M486.187173769096,755.7586728566166 L485.79491167253036,755.9900295086193 M485.79491167253036,755.9900295086193 L485.31719716606983,756.1593150417875 M485.31719716606983,756.1593150417875 L484.78181202892534,756.2566725516704 M484.78181202892534,756.2566725516704 L484.2199041771595,756.2764329765951 M484.2199041771595,756.2764329765951 L483.66416019560666,756.2174416599578 M483.66416019560666,756.2174416599578 L483.14692290139385,756.0831396742914 M483.14692290139385,756.0831396742914 L482.6982702422945,755.8813440638002 M482.6982702422945,755.8813440638002 L482.3442882511797,755.6238059088082 M482.3442882511797,755.6238059088082 L482.10553892250783,755.3255122065752 M482.10553892250783,755.3255122065752 L481.99587970305686,755.0038194580942 M481.99587970305686,755.0038194580942 L482.02163663747297,754.6774248419886 M482.02163663747297,754.6774248419886 L482.18128893999415,754.3653020126051 M482.18128893999415,754.3653020126051 L482.4655142796236,754.0855705962592 M482.4655142796236,754.0855705962592 L482.8577830674165,753.8544718876179 M482.8577830674165,753.8544718876179 L483.3352970307925,753.685414750685 M483.3352970307925,753.685414750685 L483.8703152192895,753.5882008431033 M483.8703152192895,753.5882008431033 L484.43178795592075,753.5684744358587 M484.43178795592075,753.5684744358587 L484.98710904025444,753.6273713578219 M484.98710904025444,753.6273713578219 L485.504051832874,753.7614831976764 M485.504051832874,753.7614831976764 L485.95259167274463,753.9630283602281 M496.09745855625346,-7.773193337134103 L496.49222156032886,-7.550841875731635 M496.49222156032886,-7.550841875731635 L496.7591363214357,-7.293217158577022 M496.7591363214357,-7.293217158577022 L496.882669169113,-7.0152717583320054 M496.882669169113,-7.0152717583320054 L496.8555876473654,-6.733155897264055 M496.8555876473654,-6.733155897264055 L496.6794258814489,-6.463264137466581 M496.6794258814489,-6.463264137466581 L496.3643795918608,-6.221294787498437 M496.3643795918608,-6.221294787498437 L495.92873379255025,-6.021329795367365 M495.92873379255025,-6.021329795367365 L495.39780635641455,-5.875011861659004 M495.39780635641455,-5.875011861659004 L494.8024757920032,-5.790862468666887 M494.8024757920032,-5.790862468666887 L494.17738140632525,-5.773782798255297 M494.17738140632525,-5.773782798255297 L493.5588900891293,-5.824771121961135 M493.5588900891293,-5.824771121961135 L492.98300088910986,-5.940852435065835 M492.98300088910986,-5.940852435065835 L492.4832056674453,-6.115268620089864 M492.4832056674453,-6.115268620089864 L492.08856531201127,-6.337860887641682 M492.08856531201127,-6.337860887641682 L491.8220025884439,-6.5956737748923615 M491.8220025884439,-6.5956737748923615 L491.69898632141906,-6.873704591935962 M491.69898632141906,-6.873704591935962 L491.72660912053504,-7.1557930880694585 M491.72660912053504,-7.1557930880694585 L491.90323436229676,-7.425541431122156 M491.90323436229676,-7.425541431122156 L492.2185443531618,-7.667291175877722 M492.2185443531618,-7.667291175877722 L492.65419936595487,-7.8670081546871415 M492.65419936595487,-7.8670081546871415 L493.18487941701443,-8.013106484721561 M493.18487941701443,-8.013106484721561 L493.77975697319926,-8.097117519023072 M493.77975697319926,-8.097117519023072 L494.4043123024839,-8.11416476597094 M494.4043123024839,-8.11416476597094 L495.0222805047138,-8.063266918392742 M495.0222805047138,-8.063266918392742 L495.59780387453225,-7.9473687157051245 M495.59780387453225,-7.9473687157051245 L496.09745855625346,-7.773193337134103 M493.25437727894297,205.70205626692618 L493.63772203143037,205.93550136144356 M493.63772203143037,205.93550136144356 L493.8968029195335,206.2059781893822 M493.8968029195335,206.2059781893822 L494.01654298041205,206.49778776713617 M494.01654298041205,206.49778776713617 L493.9899328871565,206.79397405952125 M493.9899328871565,206.79397405952125 L493.81848178104093,207.07732490631867 M493.81848178104093,207.07732490631867 L493.5121139037441,207.3313595060959 M493.5121139037441,207.3313595060959 L493.088611243596,207.54129430507518 M493.088611243596,207.54129430507518 L492.5725860108478,207.694906754957 M492.5725860108478,207.694906754957 L491.9940494376682,207.7832511038032 M491.9940494376682,207.7832511038032 L491.3866626234272,207.80118219843257 M491.3866626234272,207.80118219843257 L490.7857609831066,207.74765207948815 M490.7857609831066,207.74765207948815 L490.2263185383431,207.6257838331912 M490.2263185383431,207.6257838331912 L489.7408697779735,207.442672012594 M489.7408697779735,207.442672012594 L489.3576410593895,207.2089812672054 M489.3576410593895,207.2089812672054 L489.098892565565,206.93831240813975 M489.098892565565,206.93831240813975 L488.9796404585463,206.64641577038654 M488.9796404585463,206.64641577038654 L489.00676139613404,206.35025731820454 M489.00676139613404,206.35025731820454 L489.17865009153746,206.06705284880067 M489.17865009153746,206.06705284880067 L489.4852667150673,205.81324227242166 M489.4852667150673,205.81324227242166 L489.9087778272573,205.60356047648472 M489.9087778272573,205.60356047648472 L490.42456928153564,205.45017204842978 M490.42456928153564,205.45017204842978 L491.0026778679611,205.3619687665982 M491.0026778679611,205.3619687665982 L491.6095558752973,205.34407082303187 M491.6095558752973,205.34407082303187 L492.2099635674684,205.39750857030188 M492.2099635674684,205.39750857030188 L492.7690609651723,205.5191900975087 M492.7690609651723,205.5191900975087 L493.25437727894297,205.70205626692618 M490.56797454393876,407.4129601966762 L490.940542754614,407.6559553440759 M490.940542754614,407.6559553440759 L491.19223600006734,407.9374957991105 M491.19223600006734,407.9374957991105 L491.3084079697825,408.2412399595293 M491.3084079697825,408.2412399595293 L491.28225919442167,408.54953809230267 M491.28225919442167,408.54953809230267 L491.1152742166842,408.8444742602842 M491.1152742166842,408.8444742602842 L490.8171198253672,409.1088941658814 M490.8171198253672,409.1088941658814 L490.40510189410236,409.32741043127635 M490.40510189410236,409.32741043127635 L489.90316522848366,409.4873015101534 M489.90316522848366,409.4873015101534 L489.3405011661056,409.5792565593065 M489.3405011661056,409.5792565593065 L488.74984632853585,409.59792049224893 M488.74984632853585,409.59792049224893 L488.16556155341334,409.54220259475915 M488.16556155341334,409.54220259475915 L487.62165259126346,409.41535337337143 M487.62165259126346,409.41535337337143 L487.14974976832207,409.2247568832631 M487.14974976832207,409.2247568832631 L486.7772914972082,408.9815130869682 M486.7772914972082,408.9815130869682 L486.5259125940966,408.6997781809803 M486.5259125940966,408.6997781809803 L486.4102022746159,408.39594597424457 M486.4102022746159,408.39594597424457 L486.4368339494168,408.08767594524863 M486.4368339494168,408.08767594524863 L486.6042327476494,407.79288801731025 M486.6042327476494,407.79288801731025 L486.9026221669434,407.5286948691855 M486.9026221669434,407.5286948691855 L487.3146478704552,407.3104346945851 M487.3146478704552,407.3104346945851 L487.8163632720084,407.15077037158767 M487.8163632720084,407.15077037158767 L488.3786223440985,407.0589580348885 M488.3786223440985,407.0589580348885 L488.9687961557886,407.0403277337968 M488.9687961557886,407.0403277337968 L489.5526137685066,407.0959520560727 M489.5526137685066,407.0959520560727 L490.09619675319084,407.2226123557744 M490.09619675319084,407.2226123557744 L490.56797454393876,407.4129601966762 M488.0256466094009,598.3058814550686 L488.3880273908087,598.5570802378659 M488.3880273908087,598.5570802378659 L488.632742190964,598.8481243018866 M488.632742190964,598.8481243018866 L488.74555146172855,599.1621199670318 M488.74555146172855,599.1621199670318 L488.7198534637756,599.4808215975697 M488.7198534637756,599.4808215975697 L488.55710857331394,599.7857087565994 M488.55710857331394,599.7857087565994 L488.2667390972093,600.0590487136972 M488.2667390972093,600.0590487136972 L487.86559960408323,600.2849355441492 M487.86559960408323,600.2849355441492 L487.377002724744,600.4502192105856 M487.377002724744,600.4502192105856 L486.8293635048968,600.5452753845041 M486.8293635048968,600.5452753845041 L486.25454350993743,600.5645687278942 M486.25454350993743,600.5645687278942 L485.6859813163322,600.5069718172723 M485.6859813163322,600.5069718172723 L485.1567665727654,600.3758445626715 M485.1567665727654,600.3758445626715 L484.69767433689117,600.178819594101 M484.69767433689117,600.178819594101 L484.33539786797667,599.927370666068 M484.33539786797667,599.927370666068 L484.09098078241294,599.6361309042521 M484.09098078241294,599.6361309042521 L483.9786089364815,599.3220467395945 M483.9786089364815,599.3220467395945 L484.00476411332033,599.003373305302 M484.00476411332033,599.003373305302 L484.16790094818657,598.6986353550653 M484.16790094818657,598.6986353550653 L484.45849283811685,598.4255235200408 M484.45849283811685,598.4255235200408 L484.8596394946845,598.1998943215076 M484.8596394946845,598.1998943215076 L485.3480266459735,598.0348387755403 M485.3480266459735,598.0348387755403 L485.89528205994907,597.9399260962439 M485.89528205994907,597.9399260962439 L486.46964660282794,597.9206666637543 M486.46964660282794,597.9206666637543 L487.0377662912028,597.9781693593807 M487.0377662912028,597.9781693593807 L487.5666725964397,598.1091066320457 M487.5666725964397,598.1091066320457 L488.0256466094009,598.3058814550686 M484.976679183643,754.5382967512477 L485.11829662740934,754.6412402627866 M485.11829662740934,754.6412402627866 L485.21387873728196,754.7605041138834 M485.21387873728196,754.7605041138834 L485.2578609068865,754.8891575031006 M485.2578609068865,754.8891575031006 L485.2476795207293,755.0197218594808 M485.2476795207293,755.0197218594808 L485.18392128032644,755.1446124533765 M485.18392128032644,755.1446124533765 L485.07029084426534,755.2565688129561 M485.07029084426534,755.2565688129561 L484.91338519196086,755.3490805022706 M484.91338519196086,755.3490805022706 L484.72232370743507,755.4167671420801 M484.72232370743507,755.4167671420801 L484.5082143954367,755.455694159252 M484.5082143954367,755.455694159252 L484.2835058799816,755.4635947413983 M484.2835058799816,755.4635947413983 L484.06125717547326,755.4400087608551 M484.06125717547326,755.4400087608551 L483.85439540335034,755.3863092494494 M483.85439540335034,755.3863092494494 L483.67495069776174,755.3056229818062 M483.67495069776174,755.3056229818062 L483.5333441086104,755.2026364715816 M483.5333441086104,755.2026364715816 L483.4378134524033,755.0833446559803 M483.4378134524033,755.0833446559803 L483.3938973688559,754.9546766317719 M483.3938973688559,754.9546766317719 L483.4041494494315,754.8241172499852 M483.4041494494315,754.8241172499852 L483.4679616823297,754.6992471736405 M483.4679616823297,754.6992471736405 L483.581626101177,754.5873273577132 M483.581626101177,754.5873273577132 L483.7385328240739,754.4948569393629 M483.7385328240739,754.4948569393629 L483.929562221731,754.4272068428822 M483.929562221731,754.4272068428822 L484.1436187575629,754.3883061972614 M484.1436187575629,754.3883061972614 L484.36825683669457,754.3804105900653 M484.36825683669457,754.3804105900653 L484.59043869585327,754.4039819351693 M484.59043869585327,754.4039819351693 L484.79724741162136,754.4576476279121 M484.79724741162136,754.4576476279121 L484.976679183643,754.5382967512477 M496.12254474063366,-9.656811478801046 L496.51740855505915,-9.434562418572455 M496.51740855505915,-9.434562418572455 L496.7843925093637,-9.177056335592624 M496.7843925093637,-9.177056335592624 L496.9079588989903,-8.899238913008276 M496.9079588989903,-8.899238913008276 L496.8808732944205,-8.617252934963744 M496.8808732944205,-8.617252934963744 L496.70467003655637,-8.347485416307222 M496.70467003655637,-8.347485416307222 L496.38954723678415,-8.105627442090622 M496.38954723678415,-8.105627442090622 L495.95379434362,-7.905754483251599 M495.95379434362,-7.905754483251599 L495.4227354533865,-7.759503887160918 M495.4227354533865,-7.759503887160918 L494.82725672512544,-7.675393219101807 M494.82725672512544,-7.675393219101807 L494.2020060962869,-7.658321408466804 M494.2020060962869,-7.658321408466804 L493.58335955819274,-7.709286268043456 M493.58335955819274,-7.709286268043456 L493.00732520525486,-7.825314160288258 M493.00732520525486,-7.825314160288258 L492.50740334829385,-7.9996500738482155 M492.50740334829385,-7.9996500738482155 L492.11266224162677,-8.222139889555251 M492.11266224162677,-8.222139889555251 L491.8460305006478,-8.479834102404197 M491.8460305006478,-8.479834102404197 L491.72298094787516,-8.757736924446021 M491.72298094787516,-8.757736924446021 L491.7506081022708,-9.039695542681898 M491.7506081022708,-9.039695542681898 L491.9272750677427,-9.309319675403685 M491.9272750677427,-9.309319675403685 L492.24266170275104,-9.550958090617655 M492.24266170275104,-9.550958090617655 L492.67842381631215,-9.750583088322173 M492.67842381631215,-9.750583088322173 L493.2092351997552,-9.896614126947952 M493.2092351997552,-9.896614126947952 L493.804260695883,-9.980586464797284 M493.804260695883,-9.980586464797284 L494.42897199753736,-9.99762585942426 M494.42897199753736,-9.99762585942426 L495.04709515956034,-9.946751456304582 M495.04709515956034,-9.946751456304582 L495.6227634961601,-9.830906636578788 M495.6227634961601,-9.830906636578788 L496.12254474063366,-9.656811478801046 M496.12254474063366,-9.656811478801046 L496.09745855625346,-7.773193337134103 M493.2780617939661,203.92368369746518 L493.6615016110744,204.15704056628684 M493.6615016110744,204.15704056628684 L493.9206476946268,204.427415184713 M493.9206476946268,204.427415184713 L494.0404192811293,204.71911450550644 M494.0404192811293,204.71911450550644 L494.0138051892619,205.01518890200035 M494.0138051892619,205.01518890200035 L493.8423147728866,205.29843271591443 M493.8423147728866,205.29843271591443 L493.5358745394608,205.55237136829194 M493.5358745394608,205.55237136829194 L493.1122706714521,205.7622268843671 M493.1122706714521,205.7622268843671 L492.5961212605233,205.91578132648922 M492.5961212605233,205.91578132648922 L492.0174447656136,206.00409231619383 M492.0174447656136,206.00409231619383 L491.40991043592936,206.02201664013964 M491.40991043592936,206.02201664013964 L490.8088622789919,205.96850673403853 M490.8088622789919,205.96850673403853 L490.2492828543021,205.84668450670802 M490.2492828543021,205.84668450670802 L489.7637146241397,205.6636418361467 M489.7637146241397,205.6636418361467 L489.3803908953403,205.43003934958912 M489.3803908953403,205.43003934958912 L489.12157736742034,205.15947272658363 M489.12157736742034,205.15947272658363 L489.0022939699042,204.8676863568893 M489.0022939699042,204.8676863568893 L489.02941915598245,204.5716397974882 M489.02941915598245,204.5716397974882 L489.2013473741876,204.28854234057812 M489.2013473741876,204.28854234057812 L489.50803647657415,204.03482768138088 M489.50803647657415,204.03482768138088 L489.931648802788,203.82522513422109 M489.931648802788,203.82522513422109 L490.4475643234335,203.67189468370802 M490.4475643234335,203.67189468370802 L491.02581262604934,203.583724742635 M491.02581262604934,203.583724742635 L491.6328379004357,203.56583356463565 M491.6328379004357,203.56583356463565 L492.23339186972595,203.61925111216723 M492.23339186972595,203.61925111216723 L492.7926260767761,203.74088664494852 M492.7926260767761,203.74088664494852 L493.2780617939661,203.92368369746518 M493.2780617939661,203.92368369746518 L493.25437727894297,205.70205626692618 M490.5903716653241,405.7312527068841 L490.9630296722955,405.9741719778923 M490.9630296722955,405.9741719778923 L491.21478445182066,406.2556245319523 M491.21478445182066,406.2556245319523 L491.3309861065039,406.5592738727712 M491.3309861065039,406.5592738727712 L491.30483342129594,406.86747577886536 M491.30483342129594,406.86747577886536 L491.13781114796217,407.1623199044341 M491.13781114796217,407.1623199044341 L490.8395882254949,407.42665730239247 M490.8395882254949,407.42665730239247 L490.4274745002511,407.64510539170925 M490.4274745002511,407.64510539170925 L489.9254203446526,407.80494658995815 M489.9254203446526,407.80494658995815 L489.3626239335896,407.8968729540183 M489.3626239335896,407.8968729540183 L488.77182959691635,407.9155310649637 M488.77182959691635,407.9155310649637 L488.18740629731604,407.8598305481838 M488.18740629731604,407.8598305481838 L487.6433678569239,407.7330208980829 M487.6433678569239,407.7330208980829 L487.1713521383669,407.54248387021903 M487.1713521383669,407.54248387021903 L486.7988041211378,407.2993159691883 M486.7988041211378,407.2993159691883 L486.54736383241124,407.01766897958703 M486.54736383241124,407.01766897958703 L486.43162404426585,406.71393159848105 M486.43162404426585,406.71393159848105 L486.45825985863917,406.4057577946844 M486.45825985863917,406.4057577946844 L486.6256961478592,406.11106189725416 M486.6256961478592,406.11106189725416 L486.9241542110208,405.8469512395568 M486.9241542110208,405.8469512395568 L487.3362757140228,405.62875922159714 M487.3362757140228,405.62875922159714 L487.8381085025983,405.46914476201664 M487.8381085025983,405.46914476201664 L488.4004997342436,405.3773611002315 M488.4004997342436,405.3773611002315 L488.99081281664036,405.3587366179311 M488.99081281664036,405.3587366179311 L489.57476873362424,405.41434356725244 M489.57476873362424,405.41434356725244 L490.1184810398434,405.54096430935385 M490.1184810398434,405.54096430935385 L490.5903716653241,405.7312527068841 M490.5903716653241,405.7312527068841 L490.56797454393876,407.4129601966762 M488.0468585201832,596.7131665422176 L488.40932425552387,596.9643002340723 M488.40932425552387,596.9643002340723 L488.65409722807465,597.2552688935265 M488.65409722807465,597.2552688935265 L488.76693449906827,597.5691832211396 M488.76693449906827,597.5691832211396 L488.74123268292846,597.8878023093379 M488.74123268292846,597.8878023093379 L488.57845236106607,598.1926105173305 M488.57845236106607,598.1926105173305 L488.28801788354656,598.4658797037431 M488.28801788354656,598.4658797037431 L487.8867875873702,598.6917080575967 M487.8867875873702,598.6917080575967 L487.3980793801629,598.8569489406792 M487.3980793801629,598.8569489406792 L486.8503147861052,598.9519805112391 M486.8503147861052,598.9519805112391 L486.2753626722635,598.9712688610952 M486.2753626722635,598.9712688610952 L485.7066693097942,598.9136868579538 M485.7066693097942,598.9136868579538 L485.1773319899119,598.7825935440202 M485.1773319899119,598.7825935440202 L484.7181329045835,598.5856195774865 M484.7181329045835,598.5856195774865 L484.35577152811817,598.3342357476753 M484.35577152811817,598.3342357476753 L484.111296407056,598.0430713967779 M484.111296407056,598.0430713967779 L483.99889676033393,597.7290685715705 M483.99889676033393,597.7290685715705 L484.0250559670403,597.4104776794542 M484.0250559670403,597.4104776794542 L484.188228413346,597.1058186752556 M484.188228413346,597.1058186752556 L484.4788854084576,596.8327776042778 M484.4788854084576,596.8327776042778 L484.8801228730186,596.607206874846 M484.8801228730186,596.607206874846 L485.36862125716317,596.4421941055942 M485.36862125716317,596.4421941055942 L485.9160018709266,596.3473060261376 M485.9160018709266,596.3473060261376 L486.4904983221987,596.3280515855384 M486.4904983221987,596.3280515855384 L487.05874897649346,596.385539377083 M487.05874897649346,596.385539377083 L487.58777771374866,596.5164427139522 M487.58777771374866,596.5164427139522 L488.0468585201832,596.7131665422176 M488.0468585201832,596.7131665422176 L488.0256466094009,598.3058814550686 M484.80608933096715,767.4861975942953 L484.976679183643,754.5382967512477 M484.80608933096715,767.4861975942953 L484.6270046617336,767.4053973735936 M484.6270046617336,767.4053973735936 L484.4205940371301,767.3516311333099 M484.4205940371301,767.3516311333099 L484.19883815912203,767.328015624132 M484.19883815912203,767.328015624132 L483.97462919677236,767.3359260248757 M483.97462919677236,767.3359260248757 L483.7609800195256,767.3748995553898 M483.7609800195256,767.3748995553898 L483.5703125469053,767.4426763981655 M483.5703125469053,767.4426763981655 L483.4137012990777,767.535320056784 M483.4137012990777,767.535320056784 L483.30024873157794,767.6474495379455 M483.30024873157794,767.6474495379455 L483.2365524006029,767.772553523331 M483.2365524006029,767.772553523331 L483.22631352836913,767.9033574527621 M483.22631352836913,767.9033574527621 L483.2701393238542,768.0322664632414 M483.2701393238542,768.0322664632414 L483.3654814349518,768.1517816875275 M483.3654814349518,768.1517816875275 L483.50681214640645,768.2549610571559 M483.50681214640645,768.2549610571559 L483.6859096881857,768.3357984149658 M483.6859096881857,768.3357984149658 L483.8923731745151,768.3895984780719 M483.8923731745151,768.3895984780719 L484.1141956417376,768.4132286220619 M484.1141956417376,768.4132286220619 L484.3384747715236,768.405313246581 M484.3384747715236,768.405313246581 L484.55217651481837,768.3663133400377 M484.55217651481837,768.3663133400377 L484.7428759535111,768.2984999554985 M484.7428759535111,768.2984999554985 L484.8994861368765,768.205815027684 M484.8994861368765,768.205815027684 L485.01290485324205,768.0936490044357 M485.01290485324205,768.0936490044357 L485.07654740880497,767.9685245079861 M485.07654740880497,767.9685245079861 L485.08671585698534,767.8377156041747 M485.08671585698534,767.8377156041747 L485.04282422723054,767.7088212280596 M485.04282422723054,767.7088212280596 L484.9474308479196,767.589333961472 M484.9474308479196,767.589333961472 L484.80608933096715,767.4861975942953" stroke="black"  stroke-width="4"  fill="red"/></svg>